<?xml version="1.0" encoding="utf-8"?>
<!-- Generator: Adobe Illustrator 24.2.1, SVG Export Plug-In . SVG Version: 6.00 Build 0)  -->
<svg version="1.1" id="Layer_1" xmlns="http://www.w3.org/2000/svg" xmlns:xlink="http://www.w3.org/1999/xlink" x="0px" y="0px"
	 viewBox="0 0 1584 396" style="enable-background:new 0 0 1584 396;" xml:space="preserve">
<path d="M240.4,127.5c-1.1,1-1.9,2.1-2.4,3.4c-0.2,0.5-0.2,1.1-0.3,1.7c-0.1,2.6-0.3,5.2-0.3,7.9c0,23.1,0,46.1,0.1,69.2
	c0,2-0.1,3.9-0.2,5.9c-0.2,2.6-0.9,5.2-2.1,7.5c-0.8,1.7-1.9,3.2-3.3,4.5c-2.2,2.1-4.8,3.2-7.8,3.4c-4.3,0.2-7.9-1.2-10.9-4.3
	c-1.8-1.8-3.1-4-4-6.4c-0.9-2.5-1.4-5.1-1.4-7.7c0-1.6-0.1-3.2-0.1-4.8c-0.1-16-0.1-32.1-0.2-48.1c0-13.2,0-26.4,0.5-39.6
	c0.3-10.2,3.4-19.5,9.7-27.7c6.5-8.4,15.2-13.5,25.7-15.2c2.5-0.4,5-0.6,7.6-0.6c7.4,0,14.8,0.1,22.2,0.1c13.3,0,26.6,0.1,39.9-0.2
	c5.5-0.1,10.9,0.4,16.1,2.1c11.2,3.5,19.4,10.7,24.6,21.2c2.3,4.7,3.7,9.6,4.5,14.7c0.5,3.2,0.6,6.3,0.6,9.5c0,13.9,0,27.7-0.1,41.6
	c0,15.7,0,31.5,0,47.2c0,1.2,0,2.4-0.1,3.7c-0.4,4.5-2.3,8.3-5.7,11.2c-1.9,1.6-4,2.7-6.5,3.1c-3.1,0.6-6,0-8.6-1.6
	c-3.6-2.2-5.9-5.4-7.2-9.4c-0.4-1.3-0.7-2.5-0.7-3.9c0-1.7-0.1-3.4-0.1-5.1c0-3.1,0-6.2,0-9.3c0-16.6,0-33.2,0-49.8
	c0-4.9-0.1-9.7,0-14.6c0-2.2-0.3-4.3-0.6-6.4c-0.2-1-0.4-2-0.6-3c-0.1-0.3-0.5-0.7-0.8-0.7c-0.7,0-1.3,0.1-2,0.1
	c-0.1,0-0.3,0.2-0.4,0.4c-0.1,0.3-0.1,0.5-0.2,0.8c-0.4,3.1-0.6,6.2-0.6,9.3c0,17.9,0,35.8,0,53.7c0,0.9,0,1.9,0,2.8
	c0,26.2,0,52.5,0,78.7c0,26.3,0,52.7,0.1,79c0,4.8,0,9.6,0,14.3c0,2.7-0.1,5.4-0.5,8.1c-0.5,2.7-1.3,5.3-2.7,7.6
	c-2.7,4.6-6.7,7.4-12,8.5c-3.3,0.7-6.5,0.5-9.7-0.4c-6.6-1.9-10.7-6.3-12.7-12.8c-0.7-2.3-0.9-4.6-0.9-6.9c0-2.5-0.1-5.1-0.1-7.6
	c0-10.7,0-21.4,0-32.1c0-25,0-50.1,0-75.1c0-6-0.1-12-0.1-18c0-2.4-0.9-4.6-2.1-6.6c0-0.1-0.4-0.1-0.5,0c-1.4,2.1-2.5,4.4-2.5,7
	c0,3.7,0,7.3,0,11c0,38.9,0,77.8-0.1,116.7c0,1.5,0,3,0,4.5c-0.1,2.4-0.4,4.9-1.1,7.2c-1.5,5.5-4.9,9.4-10.1,11.8
	c-3.2,1.5-6.6,2.1-10.1,1.9c-4-0.3-7.4-1.9-10.3-4.6c-2.2-2.1-3.8-4.6-4.9-7.5c-1.1-2.8-1.7-5.8-1.7-8.8c0-2.6,0-5.2,0-7.9
	c0-22.4,0-44.8,0-67.2c0-15.2,0-30.4,0-45.6c0-21,0-42,0-63c0-16.5,0-33,0-49.5c0-1.2,0-2.4,0.1-3.7c0-0.9-0.1-1.7-0.5-2.4
	C241.9,130,241.3,128.7,240.4,127.5z"/>
<path d="M468.4,202.9c0,17,0,33.9,0,50.9c0,11.8,0,23.6,0,35.4c0,2.4,0,4.9,0,7.3c0,2.2-0.2,4.3-0.5,6.4c-0.3,2.3-1.1,4.6-2.3,6.6
	c-2.7,4.3-6.5,6.6-11.6,6.9c-2,0.1-3.9,0-5.9-0.6c-4.4-1.3-7.5-4-9.4-8.2c-0.7-1.5-1.2-3.2-1.3-4.9c-0.1-1.5-0.2-3-0.3-4.5
	c0-12.7-0.1-25.5-0.1-38.2c0-17.6,0-35.2,0-52.9c0-4.7-0.1-9.4-0.1-14.1c0-1.9-0.6-3.7-1.6-5.3c-0.1-0.1-0.4-0.1-0.5-0.1
	c-1.1,1.6-1.9,3.2-2,5.2c0,2.2,0,4.3,0,6.5c0,10,0,20.1-0.1,30.1c0,22.6,0,45.2,0,67.8c0,2.1-0.1,4.1-0.5,6.2
	c-0.1,0.6-0.2,1.1-0.3,1.6c-1.6,6.4-5.9,10-12.2,11.3c-1.8,0.4-3.5,0.5-5.3,0.1c-3.8-0.7-6.8-2.6-9-5.7c-1.4-1.9-2.3-4.1-2.9-6.4
	c-0.5-1.9-0.6-3.9-0.6-5.9c0-6,0-12,0-18c0-25.5,0-51,0-76.5c0-22.3,0-44.6,0-66.9c0-9.3,0-18.6,0.1-27.8c0-1.1-0.2-2-0.7-3
	c-0.4-0.7-0.7-1.3-1.1-2c-0.1-0.2-0.5-0.3-0.7-0.1c-1.2,1.2-1.9,2.5-1.9,4.2c0,2.5-0.1,5.1-0.1,7.6c0,6.8,0,13.7,0,20.5
	c0,9,0,18,0,27c0,2.9,0,5.8,0,8.7c0,1.9-0.2,3.7-0.7,5.6c-0.6,2.1-1.5,4.1-2.9,5.7c-2.4,2.8-5.5,4.1-9.3,3.7
	c-2.6-0.3-4.8-1.5-6.7-3.3c-1.7-1.8-2.9-3.9-3.7-6.3c-0.6-1.9-0.8-3.8-0.8-5.8c0-2.3,0-4.7-0.1-7c-0.1-14.5-0.2-29.1-0.1-43.6
	c0-7.9,0.2-15.7,0.4-23.6c0.2-6.7,2-12.9,5.5-18.7c5.2-8.6,12.8-13.8,22.6-15.6c2.8-0.5,5.6-0.7,8.4-0.6c4.2,0.1,8.4,0.1,12.7,0.2
	c10.5,0.1,21,0.1,31.5-0.1c1.9,0,3.8-0.1,5.6-0.1c3.8,0,7.5,0.6,11.1,1.6c7.7,2.3,13.7,6.8,18.1,13.5c2.9,4.4,4.6,9.2,5.5,14.3
	c0.5,2.8,0.7,5.6,0.7,8.4c0,14,0,27.9-0.1,41.9c0,10,0,20.1,0,30.1c0,1,0,2.1-0.1,3.1c-0.2,3.4-1.6,6.3-4.1,8.7
	c-2.2,2.1-4.8,3.3-7.9,3.2c-1.9,0-3.7-0.7-5.3-1.7c-2.5-1.6-4.2-4-5.2-6.8c-0.4-1.1-0.7-2.3-0.7-3.6c0-1.2-0.1-2.4-0.1-3.7
	c0-19.6,0-39.2,0.1-58.8c0-2.7-0.3-5.4-0.9-8.1c-0.1-0.3-0.1-0.6-0.2-0.8c-0.1-0.2-0.3-0.5-0.7-0.4c-0.5,0-0.9,0.1-1.4,0.1
	c-0.1,0-0.3,0.2-0.4,0.4c-0.1,0.3-0.2,0.7-0.2,1.1c-0.2,3.4-0.5,6.7-0.5,10.1c0,19.4,0.1,38.8,0.1,58.2c0,9.7,0,19.5,0,29.2
	C468.3,202.9,468.4,202.9,468.4,202.9z"/>
<path d="M564.5,165.8c-1.4,1.9-1.8,3.9-1.8,6.1c0,16-0.1,32.1-0.1,48.1c0,13.7,0,27.4,0,41.1c0,1.5,0,3-0.1,4.5
	c-0.1,1.8-0.5,3.5-1.1,5.2c-1.1,3-3.1,5.3-6,6.8c-2.8,1.5-5.8,2-9,1.6c-2.5-0.4-4.6-1.5-6.4-3.3c-1.5-1.5-2.6-3.2-3.3-5.2
	c-0.7-1.8-1.2-3.8-1.2-5.8c0-1.3,0-2.6,0-3.9c0-30.6,0-61.3,0-91.9c0-20.7,0-41.4,0-62.1c0-3.4,0-6.7,0-10.1c0-1.7-0.6-3.1-1.7-4.3
	c-0.1-0.1-0.2-0.1-0.3-0.1c-1.1,0.9-1.8,2.1-1.8,3.6c-0.1,2.6-0.1,5.2-0.1,7.9c0,15.4,0,30.7,0,46.1c0,1.3,0,2.6-0.1,3.9
	c-0.1,1.7-0.5,3.3-1.1,4.9c-0.4,0.9-0.9,1.9-1.4,2.7c-3.3,4.7-9.1,5.1-13.2,2.2c-1.4-1-2.5-2.3-3.3-3.8c-1-1.7-1.6-3.6-1.8-5.6
	c-0.1-1.1-0.2-2.2-0.2-3.4c-0.1-14.7-0.2-29.4-0.2-44.1c0-6.7,0.1-13.5,0.3-20.2c0.2-7.1,2.4-13.6,6.7-19.3c4.7-6.2,11-9.8,18.6-11
	c1.9-0.3,3.7-0.4,5.6-0.4c6.9,0,13.9,0.1,20.8,0.1c6.7,0,13.3-0.1,20-0.1c1.8,0,3.6-0.1,5.3,0c3.6,0.1,7.1,0.8,10.4,2
	c6.7,2.5,11.8,6.9,15.2,13.1c2.5,4.5,3.8,9.3,4.2,14.5c0.1,1.5,0.1,3,0.1,4.5c0,18.7,0,37.5,0,56.2c0,2.4,0,4.9,0,7.3
	c0,1.7-0.1,3.4-0.8,5c-0.9,2.3-2.3,4.3-4.4,5.6c-3.2,2.1-7.4,2.1-10.5-0.3c-2.7-2-4.2-4.7-4.6-8.1c-0.2-1.5-0.2-3-0.2-4.5
	c0-17,0-33.9,0-50.9c0-2.1-0.2-4.1-0.5-6.2c-0.1-0.5-0.2-0.9-0.3-1.4c-0.2-0.9-1.1-1.2-2-0.8c-0.1,0-0.2,0.1-0.2,0.2
	c-0.1,0.2-0.2,0.3-0.2,0.5c-0.2,2.4-0.5,4.9-0.5,7.3c0,18,0,36,0,54c0,7.7,0,15.4,0,23.1c0,18.7,0,37.3,0.1,56
	c0,9.1,0.1,18.2,0.1,27.3c0,2.2-0.1,4.3-0.4,6.5c-0.2,2-0.8,3.9-1.7,5.6c-2.2,4-5.6,6.2-10.1,6.7c-2.2,0.3-4.3,0-6.4-0.7
	c-3.7-1.3-6.2-3.8-7.7-7.3c-0.8-2-1.2-4.1-1.2-6.3c0-3.3,0-6.6,0-9.8c0-22.2,0-44.4,0-66.6c0-5.7-0.1-11.4-0.1-17.2
	c0-1.7-0.5-3.3-1.3-4.8C565,166.1,564.7,166,564.5,165.8z"/>
<path d="M684.4,158.5c-0.1,0.1-0.2,0.1-0.3,0.1c-1,1.3-1.6,2.7-1.7,4.4c0,1.1,0,2.2,0,3.4c0,8.8,0,17.6,0,26.4c0,19.3,0,38.6,0,57.9
	c0,2-0.1,3.9-0.5,5.9c-1,4.5-3.5,7.5-7.8,9.3c-2.2,0.9-4.5,1.2-6.9,0.9c-2.2-0.3-4.1-1.2-5.8-2.6c-1.6-1.4-2.8-3.1-3.6-5
	c-0.8-1.8-1.2-3.7-1.3-5.7c0-0.8,0-1.7,0-2.5c0-32.1,0-64.1,0-96.2c0-18.3,0-36.6,0-54.8c0-2.2-0.1-4.5,0-6.7
	c0.1-1.7-0.5-3.1-1.5-4.4c-0.1-0.2-0.6-0.2-0.7,0c-0.9,0.8-1.4,1.8-1.4,3c-0.1,1.8-0.2,3.6-0.2,5.3c0,8.7,0.1,17.4,0.1,26.1
	c0,7.4,0,14.8-0.1,22.2c0,1.9-0.2,3.7-0.7,5.5c-0.4,1.2-0.9,2.3-1.5,3.3c-3.1,4.8-9,5.2-13,2.1c-1-0.8-1.9-1.8-2.6-2.9
	c-1.1-1.8-1.8-3.7-2-5.8c-0.1-1-0.2-2.1-0.2-3.1c-0.1-12.9-0.2-25.9-0.2-38.8c0-7.5,0.2-15,0.3-22.5c0.1-5.6,1.6-10.9,4.5-15.8
	c4-6.8,9.9-11.2,17.5-13c2.4-0.6,4.8-0.8,7.2-0.8c4.1,0,8.3,0.1,12.4,0.1c9.4,0,18.8,0,28.1-0.1c1.4,0,2.8,0,4.2,0
	c3.8,0.1,7.4,0.9,10.9,2.4c5,2.1,8.9,5.4,11.9,9.9c2.7,4.1,4.3,8.7,5,13.6c0.3,2.4,0.5,4.8,0.5,7.3c0,19.6,0,39.2,0,58.8
	c0,1.5,0,3-0.4,4.5c-0.8,3.2-2.4,5.7-5.3,7.2c-3.1,1.6-6.2,1.5-9-0.4c-2.8-1.9-4.3-4.6-4.7-8c-0.1-1.1-0.1-2.2-0.1-3.4
	c0-2.9,0-5.8,0-8.7c0-13.7,0-27.4,0-41.1c0-2.4-0.3-4.7-0.8-7c-0.2-0.7-0.8-1.1-1.8-0.6c-0.2,0.1-0.3,0.2-0.4,0.4
	c-0.1,0.4-0.2,0.9-0.2,1.4c-0.1,2.2-0.3,4.3-0.3,6.5c0,22.8,0,45.6,0,68.3c0,5,0,9.9,0,14.9c0,21.2,0,42.4,0,63.5c0,2.5,0,5.1,0,7.6
	c0,1.7-0.2,3.4-0.4,5c-0.2,1.2-0.6,2.4-1.1,3.5c-2,4.7-5.7,7.1-10.7,7.5c-1.9,0.2-3.7-0.2-5.5-0.8c-4.6-1.6-7.1-5-8.1-9.6
	c-0.3-1.3-0.3-2.6-0.4-3.9c-0.1-2.2-0.1-4.3-0.1-6.5c0-18,0-36,0-54c0-9.4-0.1-18.7-0.1-28.1c0-1.6-0.2-3.2-1-4.6
	C684.8,159,684.6,158.8,684.4,158.5z"/>
<path d="M795.3,140.2c-1,1.2-1.4,2-1.5,3.1c-0.1,0.7-0.1,1.3-0.1,2c0,6.7-0.1,13.3-0.1,20c0,18.4,0,36.7,0,55.1c0,1.6,0,3.2-0.3,4.8
	c-0.2,1-0.4,2-0.7,3c-0.9,2.5-2.5,4.4-4.8,5.6c-1.8,0.9-3.6,1.6-5.6,1.6c-3.3,0.1-6-1.2-8.2-3.6c-1.3-1.5-2.1-3.3-2.6-5.2
	c-0.4-1.6-0.6-3.1-0.5-4.7c0-3.6,0-7.1,0-10.7c0-24.8,0-49.7,0-74.5c0-17.9,0-35.8,0.1-53.7c0-1.5-0.3-2.8-1.1-3.9
	c-0.1-0.1-0.3-0.2-0.4-0.3c-0.8,0.4-1.3,1.1-1.4,2c-0.1,0.6-0.2,1.3-0.2,2c-0.1,1.4-0.1,2.8-0.1,4.2c0,13.3,0,26.6,0,39.9
	c0,1.5-0.1,3-0.2,4.5c-0.1,1.4-0.6,2.8-1.2,4c-0.3,0.6-0.6,1.1-1,1.7c-2.6,3.5-7.3,3.7-10.3,1.8c-1.4-0.9-2.5-2-3.3-3.4
	c-0.9-1.7-1.5-3.4-1.6-5.3c-0.1-0.7-0.1-1.5-0.1-2.2c0-11.2-0.1-22.5-0.1-33.7c0-6.5,0.1-12.9,0.2-19.4c0.1-4.3,1-8.4,2.8-12.2
	c2.2-4.6,5.4-8.3,9.8-10.9c3.4-2,7-3.1,10.9-3.3c1.4-0.1,2.8-0.1,4.2-0.1c11.6,0.1,23.3,0.2,34.9-0.1c3.3-0.1,6.5,0.2,9.7,1.2
	c6.1,1.9,10.7,5.7,13.9,11.2c1.7,3,2.7,6.1,3.3,9.5c0.4,2.1,0.5,4.3,0.5,6.4c0,16.6,0,33.2,0,49.8c0,1.4,0,2.8,0,4.2
	c0,1.1-0.2,2.2-0.6,3.3c-0.6,1.8-1.6,3.4-3.1,4.6c-2.8,2.3-6.9,2.5-9.9,0.1c-1.7-1.3-2.8-3.1-3.3-5.1c-0.3-1.3-0.5-2.6-0.5-3.9
	c0-2,0-3.9,0-5.9c0-12.8,0-25.7,0-38.5c0-1.9,0-3.8-0.6-5.6c-0.1-0.2-0.1-0.4-0.1-0.5c-0.1-0.4-0.5-0.6-0.8-0.6
	c-0.4,0-0.8,0.1-0.9,0.5c-0.1,0.3-0.3,0.7-0.3,1.1c-0.1,2-0.2,3.9-0.2,5.9c0,9.9,0,19.9,0,29.8c0,25.6,0,51.2,0,76.8
	c0,9.2,0,18.4,0,27.6c0,1.3,0,2.6-0.1,3.9c-0.1,1.8-0.5,3.5-1.2,5.2c-2.1,4.8-6.7,6.9-11.4,6.3c-0.9-0.1-1.9-0.3-2.7-0.6
	c-3.8-1.3-6-4-7-7.8c-0.4-1.4-0.5-2.8-0.5-4.2c0-11.1,0-22.1,0-33.2c0-12.1,0-24.2,0-36.3c0-3,0-6,0-9c0-1.3-0.3-2.4-1-3.5
	C795.6,140.4,795.4,140.3,795.3,140.2z"/>
<path d="M924.5,153c0,20.4,0,40.9,0,61.3c0,2.7,0,5.4,0,8.2c0,1.5-0.1,3-0.6,4.4c-0.2,0.5-0.3,1.1-0.6,1.6c-2.1,5-6.9,7.1-11.6,6.5
	c-0.9-0.1-1.9-0.3-2.7-0.6c-4.1-1.5-6.3-4.5-7.1-8.7c-0.2-1-0.2-2-0.3-3.1c0-1.1,0-2.2,0-3.4c0-21.1,0-42.2,0-63.3
	c0-3.9-0.1-7.9-0.1-11.8c0-1.3-0.3-2.6-1-3.7c-0.1-0.2-0.6-0.3-0.7-0.1c0,0.1-0.1,0.1-0.2,0.2c-0.7,1.2-1.1,2.5-1.1,4
	c0,4.5,0,9,0,13.5c0,20.7,0,41.4,0,62.1c0,2-0.1,3.9-0.5,5.9c-0.9,4.3-3.5,7.2-7.7,8.6c-1.9,0.6-3.8,0.9-5.8,0.4
	c-2.7-0.6-4.8-2-6.4-4.3c-1.1-1.6-1.8-3.3-2.1-5.1c-0.2-1.3-0.4-2.6-0.4-3.9c0-11.6,0-23.2,0-34.9c0-10.6,0-21.2,0-31.8
	c0-12.7,0-25.3,0-38c0-10.6,0-21.2,0-31.8c0-1,0-2.1,0.1-3.1c0.1-1.4-0.5-2.5-1.3-3.6c-0.1-0.2-0.5-0.1-0.7,0.1
	c-0.8,0.8-1.1,1.7-1.1,2.8c0,2.8-0.1,5.6-0.1,8.4c0,12.7,0,25.3,0,38c0,1.4-0.2,2.8-0.4,4.2c-0.3,1.4-0.8,2.7-1.5,3.9
	c-2.8,4.6-8.7,4.8-12.2,1.6c-1.6-1.5-2.6-3.4-3.2-5.5c-0.3-1.3-0.5-2.6-0.5-3.9c0-3.9,0-7.9,0-11.8c0-13,0-26.1,0.1-39.1
	c0-2.3,0.1-4.7,0.5-7c0.9-5.9,3.3-11.1,7.5-15.4c4.3-4.3,9.5-6.6,15.5-7c2.7-0.2,5.4-0.1,8.2-0.1c10.3,0.1,20.6,0.1,30.9-0.1
	c3.2-0.1,6.4,0.2,9.4,1.1c6.4,1.9,11.2,5.9,14.4,11.7c2,3.8,3.1,7.8,3.4,12.1c0.1,1.2,0.1,2.4,0.1,3.7c0,17.4,0,34.9,0,52.3
	c0,0.9,0,1.9-0.1,2.8c-0.5,3.4-2.1,6-5.2,7.5c-2.4,1.2-4.9,1.1-7.3-0.3c-2.5-1.5-3.9-3.7-4.4-6.6c-0.2-1.5-0.3-3-0.3-4.5
	c0-2.8,0-5.6,0-8.4c0-5.5,0.1-11.1,0.1-16.6c0-6.2,0-12.4-0.1-18.6c0-1.5-0.2-3-0.4-4.5c-0.1-0.5-0.2-0.9-0.4-1.3
	c-0.1-0.2-0.4-0.4-0.7-0.4c-0.4,0-0.9,0.3-0.9,0.5c-0.2,1.4-0.4,2.8-0.5,4.2c-0.1,0.9,0,1.9,0,2.8c0,17.2,0,34.3,0,51.5
	C924.5,142.3,924.5,147.7,924.5,153C924.5,153,924.5,153,924.5,153z"/>
<path d="M1109.7,140c-0.8,1-1.3,2.1-1.4,3.4c-0.1,0.6-0.1,1.1-0.1,1.7c0,3.7-0.1,7.3-0.1,11c0,21.1,0,42.2-0.1,63.3
	c0,1.8-0.1,3.6-0.2,5.3c-0.1,1.5-0.5,2.9-1.2,4.3c-0.8,1.7-2,3.2-3.6,4.2c-2,1.3-4.2,2.1-6.6,2.1c-3.4,0.1-6.2-1.3-8.3-4
	c-1.8-2.3-2.6-4.9-2.8-7.8c-0.1-1.2-0.1-2.4-0.1-3.7c0-25.3,0-50.6,0-75.9c0-20.4,0-40.9,0.1-61.3c0-1.6-0.5-2.9-1.4-4.2
	c-0.3,0.1-0.6,0.2-0.7,0.4c-0.6,0.6-0.9,1.4-1,2.3c-0.1,0.7-0.1,1.3-0.1,2c0,2.2,0,4.5,0,6.7c0,10.4,0,20.8,0.1,31.2
	c0,2.5,0,5.1,0,7.6c0,1.6-0.1,3.2-0.7,4.7c-0.4,1.3-1,2.4-1.8,3.5c-2.6,3.4-7.2,3.6-10.1,1.8c-1.3-0.8-2.4-1.8-3.2-3.1
	c-1-1.6-1.6-3.4-1.8-5.3c-0.1-1.2-0.1-2.4-0.1-3.7c0-8.2,0-16.3-0.1-24.5c-0.1-9.3,0.1-18.6,0.2-27.8c0-3.9,0.8-7.6,2.4-11.2
	c2.6-5.9,6.6-10.4,12.5-13.1c2.8-1.2,5.6-2,8.7-2.1c2.7-0.1,5.4,0,8.2,0c10.2,0.1,20.4,0.1,30.7-0.1c3.3-0.1,6.5,0.2,9.7,1.2
	c6.2,1.9,10.9,5.7,14.1,11.4c1.8,3.1,2.8,6.5,3.4,10.1c0.3,2.1,0.4,4.3,0.4,6.4c0,17.2,0,34.3,0,51.5c0,1.5,0,3-0.4,4.5
	c-0.5,2-1.5,3.6-3,5c-3.1,2.8-7.6,2.8-10.7-0.1c-1.9-1.8-2.9-4.1-3.2-6.7c-0.1-1-0.1-2.1-0.1-3.1c0-14.3,0-28.7,0-43
	c0-2.1-0.1-4.1-0.7-6.1c-0.1-0.5-0.5-0.8-1-0.7c-0.5,0.1-0.9,0.4-1,0.9c-0.1,0.4-0.1,0.7-0.1,1.1c-0.1,2.1-0.2,4.1-0.2,6.2
	c0,19.5,0,39,0,58.5c0,23.2,0,46.5,0.1,69.7c0,2.4,0,4.9,0,7.3c0,1.5-0.1,3-0.5,4.5c-0.3,1.1-0.6,2.2-1.1,3.2c-2,3.9-5.7,6-10.4,5.8
	c-1.1,0-2.2-0.3-3.3-0.6c-3.7-1.2-5.9-3.8-7-7.4c-0.4-1.3-0.6-2.6-0.6-3.9c0-1,0-2.1,0-3.1c0-21.6,0-43.1,0-64.7c0-3.7-0.1-7.3,0-11
	c0-1.3-0.3-2.6-0.9-3.8C1110.2,140.5,1109.9,140.3,1109.7,140z"/>
<path d="M1029.4,151.3c0,16.1,0,32.2,0,48.4c0,6.7,0,13.3,0.1,20c0,1.9-0.1,3.7-0.4,5.6c-0.2,1.6-0.7,3.1-1.5,4.5
	c-1.6,2.9-4,4.6-7.3,5.2c-2.1,0.4-4.1,0.3-6.1-0.3c-2.8-0.9-4.9-2.6-6.3-5.3c-1-1.9-1.4-3.9-1.4-6c0-2.7,0-5.4,0-8.2
	c0-17.9,0-35.8,0-53.7c0-5.5-0.1-11.1-0.1-16.6c0-1.5-0.2-3-1-4.3c-0.1-0.1-0.2-0.3-0.4-0.4c-0.1,0-0.2,0-0.3,0.1
	c-0.9,1-1.3,2.2-1.4,3.6c-0.1,0.7,0,1.3,0,2c0,24.5-0.1,48.9-0.1,73.4c0,1.3,0,2.6,0,3.9c0,1.4-0.3,2.8-0.7,4.2
	c-0.9,3-2.7,5.3-5.6,6.7c-1.4,0.7-3,1.2-4.6,1.3c-4,0.3-7.1-1.2-9.4-4.5c-1.3-1.8-2-3.8-2.3-6c-0.1-1.1-0.2-2.2-0.2-3.4
	c0-17.4,0-34.9,0-52.3c0-4.1,0-8.2,0-12.4c0-19.5,0-39,0-58.5c0-5.2,0-10.5,0.1-15.7c0-1.5-0.5-2.7-1.4-3.9
	c-0.1-0.1-0.4-0.1-0.5-0.1c-0.7,0.6-1.2,1.4-1.3,2.4c-0.1,1-0.1,2.1-0.1,3.1c0,5.8,0,11.6,0,17.4c0,8.8,0,17.6,0,26.4
	c0,1.7-0.1,3.4-0.6,5c-0.4,1.5-1.1,2.8-2,4c-2.6,3.3-7.1,3.5-9.9,1.8c-1.2-0.7-2.1-1.5-2.9-2.6c-1.1-1.5-1.8-3.1-2-4.9
	c-0.2-1.3-0.3-2.6-0.3-3.9c0-13.6-0.1-27.2-0.1-40.8c0-4.6,0.2-9.2,0.3-13.8c0.2-4.3,1.4-8.3,3.4-12.1c3.9-7,9.8-11.2,17.7-12.6
	c1.7-0.3,3.4-0.3,5-0.3c3.5,0,6.9,0.1,10.4,0.1c8.5,0,17.1-0.1,25.6-0.1c3.4,0,6.7,0.2,10,1.2c5.9,1.8,10.4,5.4,13.6,10.7
	c2.1,3.5,3.3,7.3,3.8,11.4c0.3,2.2,0.4,4.5,0.4,6.7c0,7.5-0.1,15-0.1,22.5c0,9.7,0,19.3,0,29c0,0.9-0.1,1.9-0.2,2.8
	c-0.4,2.4-1.5,4.4-3.4,6c-2.9,2.4-7.3,2.5-10.3-0.2c-1.9-1.7-3-3.9-3.2-6.4c-0.1-1.2-0.1-2.4-0.1-3.7c0-13.3,0-26.6,0-39.9
	c0-1.5,0-3,0-4.5c0-1.6-0.4-3.2-0.7-4.7c-0.1-0.3-0.5-0.6-0.8-0.6c-0.5,0-1,0.3-1.1,0.7c-0.2,2.1-0.4,4.1-0.4,6.2
	c0,12.4,0,24.7,0,37.1C1029.3,131.8,1029.3,141.5,1029.4,151.3C1029.3,151.3,1029.4,151.3,1029.4,151.3z"/>
<path d="M1237.4,149.6c0,3.3,0,6.6,0,9.8c0,17.2,0,34.5,0,51.7c0,2.5-0.1,5.1-0.1,7.6c0,1.3-0.3,2.6-0.7,3.9
	c-1.1,3.2-3.1,5.6-6.4,6.7c-3.6,1.2-7,0.9-10.3-1.1c-2.6-1.6-4-4.1-4.6-7.1c-0.2-1-0.3-2-0.3-3.1c-0.1-1.9-0.1-3.7-0.1-5.6
	c0-15.9,0-31.9,0-47.8c0-7,0-14.1,0-21.1c0-1,0-2.1-0.1-3.1c0-0.6-0.1-1.1-0.3-1.6c-0.2-0.6-0.3-1.3-1.1-1.5
	c-0.5,0.3-0.7,0.8-0.9,1.3c-0.5,0.9-0.6,2-0.6,3c0,5.5,0,11.1,0,16.6c0,19.2,0,38.4,0,57.6c0,1.9-0.1,3.7-0.5,5.6
	c-1,4.4-3.7,7-7.9,8.3c-1.6,0.5-3.3,0.7-5,0.3c-3.5-0.7-5.9-2.8-7.4-5.9c-1-2-1.3-4.1-1.5-6.2c-0.1-1-0.1-2.1-0.1-3.1
	c0-11.6,0-23.2,0-34.9c0-12.9,0-25.9,0-38.8c0-11,0-21.9,0-32.9c0-8.4,0-16.9,0-25.3c0-0.8,0.1-1.7,0.1-2.5c0-1.3-0.5-2.4-1.3-3.3
	c-0.1-0.1-0.4-0.1-0.5-0.1c-0.7,0.5-1.1,1.3-1.3,2.1c-0.1,0.5-0.1,0.9-0.1,1.4c0,1.7-0.1,3.4-0.1,5.1c0,11.1,0,22.1,0.1,33.2
	c0,2.2,0,4.5,0,6.7c0,1.4-0.2,2.8-0.5,4.2c-0.3,1.5-0.9,2.8-1.8,4.1c-2.2,2.9-6.3,4.3-10.3,1.8c-1.3-0.8-2.3-1.9-3.1-3.2
	c-1-1.8-1.6-3.8-1.7-5.9c0-1.7,0-3.4,0-5.1c0-15.7,0-31.3,0.1-47c0-2,0.2-3.9,0.5-5.9c0.7-4.4,2.3-8.5,5-12.1
	c3.7-4.9,8.6-8,14.7-9.1c2-0.4,3.9-0.5,5.9-0.5c7.4,0,14.8,0.1,22.2,0.1c4.5,0,9,0,13.5-0.1c2.9,0,5.8,0.3,8.6,1.1
	c5.7,1.7,10.2,5.1,13.4,10.1c2.2,3.5,3.4,7.3,4,11.3c0.2,1.8,0.3,3.6,0.3,5.3c0.1,2.1,0,4.1,0,6.2c0,14.8,0,29.6-0.1,44.4
	c0,1.3,0,2.6-0.2,3.9c-0.4,2.7-1.8,4.9-4.2,6.4c-2.7,1.7-5.8,1.6-8.4-0.2c-2-1.4-3.2-3.4-3.7-5.8c-0.3-1.6-0.4-3.2-0.4-4.8
	c0-7.3,0-14.6,0-21.9c0-6.6,0-13.1,0-19.7c0-1.5-0.1-3-0.3-4.5c-0.1-0.6-0.3-1.3-0.5-1.9c-0.1-0.3-0.5-0.6-0.9-0.5
	c-0.4,0.1-0.8,0.3-0.8,0.7c-0.3,2.1-0.5,4.3-0.5,6.4c0,6.3,0,12.6,0,18.8c0,14.1,0,28.1,0,42.2
	C1237.4,146.2,1237.4,147.9,1237.4,149.6C1237.4,149.6,1237.4,149.6,1237.4,149.6z"/>
<path d="M1407.1,115.3c0,16,0,32.1,0,48.1c0,1.3,0,2.6,0,3.9c0,1.4-0.1,2.8-0.4,4.2c-0.5,2.1-1.4,3.9-3.1,5.2
	c-4.2,3.1-11.5,1.8-13.3-4.3c-0.3-0.9-0.5-1.8-0.5-2.8c0-1.4,0-2.8,0-4.2c0-16.6,0-33.2,0-49.8c0-1.9,0-3.7,0-5.6
	c0-1-0.2-1.9-0.7-2.7c-0.1-0.2-0.6-0.2-0.7,0c-0.5,0.6-0.8,1.3-0.8,2.1c0,1.3,0,2.6,0,3.9c0,9.6,0,19.1,0,28.7c0,8.2,0,16.5,0,24.7
	c0,1.6-0.1,3.2-0.4,4.8c-0.9,4.3-4.8,7.3-9.2,6.9c-2.7-0.3-4.7-1.7-6.1-4c-1-1.7-1.4-3.6-1.5-5.6c0-1.5,0-3,0-4.5
	c0-25.2,0-50.4,0-75.6c0-8,0-15.9,0-23.9c0-0.7,0-1.3,0-2c0-0.8-0.4-1.5-0.9-2c-0.1-0.1-0.4-0.1-0.5,0c-0.5,0.3-0.8,0.8-0.9,1.4
	c-0.1,0.6-0.1,1.3-0.1,2c0,3,0,6,0,9c0,8.1,0,16.1,0,24.2c0,1.6-0.1,3.2-0.6,4.7c-0.4,1.2-1,2.2-1.9,3.1c-1.7,1.6-4.2,2-6.3,1
	c-2.1-0.9-3.4-2.7-4-4.8c-0.4-1.3-0.6-2.7-0.6-4.2c0-4.4,0-8.8,0-13.2c0-8.3,0-16.7,0.1-25c0-2.5,0.3-5.1,1-7.5
	c0.7-2.5,1.8-4.7,3.3-6.8c2.8-3.6,6.4-5.9,10.9-6.9c1.5-0.3,3-0.4,4.5-0.4c9.3,0,18.6,0,27.9,0c2.4,0,4.7,0.3,6.9,1
	c4.8,1.5,8.3,4.5,10.7,9c1.7,3.2,2.4,6.7,2.6,10.3c0,0.8,0,1.7,0,2.5c0,12.5,0,24.9,0,37.4c0,1.3,0,2.6-0.3,3.9
	c-0.4,1.4-1.1,2.6-2.1,3.6c-2.3,2.2-6,2.3-8.3-0.1c-1.1-1.2-1.9-2.6-2.1-4.2c-0.1-1-0.2-2.1-0.2-3.1c0-10.7,0-21.4,0-32.1
	c0-1.5-0.2-3-0.4-4.5c0-0.2-0.1-0.3-0.2-0.5c-0.2-0.3-0.5-0.3-0.7-0.3c-0.2,0-0.4,0.2-0.4,0.3c-0.1,0.2-0.2,0.5-0.2,0.8
	c-0.1,1.8-0.2,3.6-0.2,5.3C1407,82.9,1407,99.1,1407.1,115.3C1407,115.3,1407,115.3,1407.1,115.3z"/>
<path d="M1286.5,60.6c-0.5,0.3-0.9,0.8-1,1.3c-0.1,0.6-0.2,1.3-0.2,1.9c0,1.6-0.1,3.2-0.1,4.8c0,9.5,0,18.9,0,28.4
	c0,1-0.1,2.1-0.1,3.1c-0.1,1.4-0.7,2.7-1.5,3.9c-2.1,3.1-6.1,3.3-8.7,1.2c-1.6-1.3-2.5-3-2.8-5c-0.2-0.9-0.2-1.9-0.2-2.8
	c0-9.7-0.1-19.3-0.1-29c0-3.9,0.1-7.9,0.2-11.8c0.1-3.1,0.9-6.1,2.3-8.9c3.4-6.6,8.9-10,16.2-10.3c2.9-0.1,5.8,0,8.7,0
	c6.5,0,12.9,0,19.4-0.1c2,0,3.9,0.1,5.9,0.5c5.4,1.2,9.6,4.1,12.3,9c1.6,2.9,2.5,6.1,2.7,9.4c0.1,1.1,0.1,2.2,0.1,3.4
	c0,12.7,0,25.5,0,38.2c0,0.8,0,1.7-0.1,2.5c-0.3,2.4-1.4,4.3-3.5,5.5c-2,1.2-4.1,1.2-6.1-0.1c-2-1.3-3-3.3-3.3-5.6
	c-0.1-0.9-0.1-1.9-0.1-2.8c0-8.4,0-16.9,0-25.3c0-2.5,0-5.1,0-7.6c0-1.3-0.2-2.6-0.7-3.8c-0.1-0.3-0.8-0.4-1-0.1
	c-0.1,0.1-0.3,0.3-0.3,0.4c-0.1,0.3-0.1,0.6-0.1,0.8c-0.1,1.3-0.1,2.6-0.1,3.9c0,22.6,0,45.2,0,67.8c0,9.8,0,19.7,0,29.5
	c0,2.1,0,4.1,0,6.2c0,1.3-0.3,2.6-0.7,3.8c-1.6,4.3-5.6,5.9-9.2,5.3c-3.9-0.6-6.4-3-7.1-6.9c-0.2-0.9-0.2-1.9-0.3-2.8
	c0-2.4-0.1-4.9,0-7.3c0-11.9,0-23.8,0-35.7c0-4.8,0-9.6-0.1-14.3c0-0.7,0-1.3-0.1-2c-0.1-0.5-0.3-1.1-0.5-1.6
	c-0.1-0.2-0.2-0.6-0.5-0.5c-0.2,0.1-0.5,0.3-0.6,0.6c-0.4,0.8-0.6,1.6-0.6,2.4c0,1.8,0,3.6,0,5.3c0,16.9,0,33.7,0,50.6
	c0,1.1,0,2.2,0,3.4c0,0.9-0.2,1.9-0.4,2.8c-1.2,4-5.1,6.7-9.2,6.2c-2.2-0.3-4.1-1.3-5.4-3.1c-1-1.4-1.7-2.9-1.8-4.6
	c-0.1-0.9-0.1-1.9-0.1-2.8c0-3.7,0-7.3,0-11c0-11.2,0-22.3,0-33.5c0-12.5,0-24.9,0-37.4c0-7.3,0-14.6,0.1-21.9c0-1.1-0.1-2.1-0.7-3
	C1287,60.9,1286.7,60.8,1286.5,60.6z"/>
<path d="M283.4,5.6c13.6-0.1,25.1,8.1,29.8,20.4c1.7,4.3,2.4,8.8,2.2,13.5c-0.7,14.4-10.5,26.4-24.1,29.7c-9.8,2.4-18.8,0.3-26.7-6
	c-6.3-5-10.3-11.5-11.9-19.5c-0.3-1.3-0.4-2.6-0.4-3.9c-0.7-12.6,5.6-23.7,15.1-29.5C272.5,7.1,278,5.6,283.4,5.6z"/>
<path d="M434.8,5.6c9,0.2,15.8,3.7,20.8,10.6c6.7,9.2,7,22.7-1.1,32.3c-4.3,5.1-9.8,8.1-16.4,8.9c-6.1,0.7-11.7-0.7-16.8-4.1
	c-5.7-3.8-9.4-9.1-11-15.7C407.1,24.5,415,9.1,430.5,6C432.1,5.7,433.7,5.7,434.8,5.6z"/>
<path d="M587,28.6c-0.1,11-7.4,19.4-16.1,21.9c-5.7,1.7-11.1,1.2-16.3-1.6c-6.4-3.4-10.6-8.7-12-15.8c-2.5-12.7,5.5-24.5,17.7-27.1
	c8.8-1.3,16.1,1.2,21.7,8.2C585.5,18.5,587,23.5,587,28.6z"/>
<path d="M705.6,27.9c0.2,8.7-5.7,17.3-14.5,20.3c-5.3,1.8-10.6,1.6-15.6-0.8c-7.4-3.6-11.8-9.6-12.6-17.7
	c-1.1-10.6,5.7-21,16.9-23.6c8.2-1.4,15.2,0.8,20.7,7.2C704,17.4,705.7,22.3,705.6,27.9z"/>
<path d="M918.8,25c0.1,7.7-5,15.6-13.3,18.2c-5.4,1.7-10.6,0.9-15.3-2.1c-5.3-3.4-8.3-8.3-8.9-14.5c-0.8-8.7,4.5-18.3,15-20.5
	c8.4-1.7,15.2,1.9,19.3,7.9C917.4,16.7,918.9,20.8,918.8,25z"/>
<path d="M776.3,25.1c0.1-5.9,2.1-10.6,6.2-14.5c7.1-6.7,18.7-6.6,25.7,0.3c7.5,7.4,8.2,20.5-0.6,28.3c-3.6,3.3-7.9,4.9-12.8,4.8
	c-4.2-0.1-7.9-1.5-11.1-4.1c-3.9-3.1-6.3-7.1-7.2-12C776.4,26.9,776.4,25.8,776.3,25.1z"/>
<path d="M1090.8,25.3c0.1-6.2,2.2-11.1,6.5-15.1c7.3-6.6,19.1-6.3,26,1.3c7.1,7.8,7.1,20.7-1.8,28.1c-3.6,3-7.8,4.4-12.4,4.4
	c-2.6,0-5-0.7-7.3-1.8c-5.8-2.9-9.4-7.6-10.8-13.9C1090.9,27.2,1090.9,26.1,1090.8,25.3z"/>
<path d="M1023.6,25c0,8.9-6,16-13.4,18.2c-4.2,1.3-8.3,1.1-12.4-0.6c-6-2.6-9.9-7.1-11.4-13.4c-2.4-10.7,4.1-20.8,14.2-23.1
	c10.1-2.2,18.2,3.4,21.5,11.3C1023.2,19.8,1023.6,22.3,1023.6,25z"/>
<path d="M1213.6,43.2c-7.2-0.2-12.5-3.5-16.1-9.5c-6.3-10.7-0.3-24.5,11.2-27.4c6-1.5,11.5-0.4,16.3,3.6c7.9,6.5,9,18.7,2.5,26.5
	c-2.8,3.4-6.3,5.5-10.6,6.4C1215.9,43.1,1214.7,43.1,1213.6,43.2z"/>
<path d="M1402.7,19.9c0.2,6.1-3.9,13.2-12.2,14.5c-3.2,0.5-6.2-0.2-8.9-1.8c-3.5-2.1-5.8-5-6.8-9c-1.9-8.2,2.8-15.7,10.2-17.5
	c8.4-2.1,15,3,17,9.6C1402.5,17.1,1402.8,18.6,1402.7,19.9z"/>
<path d="M1320.2,19.8c0.1,7.1-4.6,13.4-12.1,14.6c-2.4,0.4-4.7,0.1-6.9-0.8c-5.3-2-9.8-7.6-9.3-14.3c0.4-5.5,3-9.6,7.9-12.2
	c5-2.6,12.2-2.1,16.9,3.3C1319.1,13.3,1320.2,16.6,1320.2,19.8z"/>
</svg>
