<?xml version="1.0" encoding="utf-8"?>
<!-- Generator: Adobe Illustrator 24.0.3, SVG Export Plug-In . SVG Version: 6.00 Build 0)  -->
<!DOCTYPE svg PUBLIC "-//W3C//DTD SVG 1.1//EN" "http://www.w3.org/Graphics/SVG/1.1/DTD/svg11.dtd" [
	<!ENTITY ns_extend "http://ns.adobe.com/Extensibility/1.0/">
	<!ENTITY ns_ai "http://ns.adobe.com/AdobeIllustrator/10.0/">
	<!ENTITY ns_graphs "http://ns.adobe.com/Graphs/1.0/">
	<!ENTITY ns_vars "http://ns.adobe.com/Variables/1.0/">
	<!ENTITY ns_imrep "http://ns.adobe.com/ImageReplacement/1.0/">
	<!ENTITY ns_sfw "http://ns.adobe.com/SaveForWeb/1.0/">
	<!ENTITY ns_custom "http://ns.adobe.com/GenericCustomNamespace/1.0/">
	<!ENTITY ns_adobe_xpath "http://ns.adobe.com/XPath/1.0/">
	<!ENTITY st0 "fill:url(#SVGID_1_);">
	<!ENTITY st1 "fill:url(#SVGID_2_);">
	<!ENTITY st2 "fill:url(#SVGID_3_);">
	<!ENTITY st3 "fill:url(#SVGID_4_);">
	<!ENTITY st4 "opacity:0.25;">
	<!ENTITY st5 "fill:#333333;fill-opacity:0;">
	<!ENTITY st6 "fill:#333333;">
]>
<svg version="1.1" id="Layer_1" xmlns:x="&ns_extend;" xmlns:i="&ns_ai;" xmlns:graph="&ns_graphs;"
	 xmlns="http://www.w3.org/2000/svg" xmlns:xlink="http://www.w3.org/1999/xlink" x="0px" y="0px" viewBox="0 0 1280 300"
	 style="enable-background:new 0 0 1280 300;" xml:space="preserve">
<metadata>
	<sfw  xmlns="&ns_sfw;">
		<slices></slices>
		<sliceSourceBounds  bottomLeftOrigin="true" height="300" width="1920" x="0" y="0"></sliceSourceBounds>
	</sfw>
</metadata>
<title>uci_back</title>
<g id="Layer_2_1_">
	<g id="Layer_2-2">
		
			<linearGradient id="SVGID_1_" gradientUnits="userSpaceOnUse" x1="1087.9812" y1="2181.9021" x2="201.2975" y2="1437.8837" gradientTransform="matrix(1 0 0 1 0 -1656)">
			<stop  offset="0" style="stop-color:#0083D7"/>
			<stop  offset="0.21" style="stop-color:#007DCE"/>
			<stop  offset="0.56" style="stop-color:#006DB4"/>
			<stop  offset="0.99" style="stop-color:#00548B"/>
		</linearGradient>
		<rect style="&st0;" width="1280" height="300"/>
		
			<linearGradient id="SVGID_2_" gradientUnits="userSpaceOnUse" x1="0" y1="1806" x2="1280" y2="1806" gradientTransform="matrix(1 0 0 1 0 -1656)">
			<stop  offset="0" style="stop-color:#FF7BAC"/>
			<stop  offset="0.22" style="stop-color:#FF7BAC;stop-opacity:0.76"/>
			<stop  offset="0.6" style="stop-color:#FF7BAC;stop-opacity:0.36"/>
			<stop  offset="0.87" style="stop-color:#FF7BAC;stop-opacity:0.1"/>
			<stop  offset="1" style="stop-color:#FF7BAC;stop-opacity:0"/>
		</linearGradient>
		<path style="&st1;" d="M1279,1.5v297H1V1.5H1279 M1280,0H0v300h1280V0z"/>
	</g>
</g>
<g id="Layer_1_1_">
	<g id="Layer_2-2-2">
		<g id="Layer_1-2">
			
				<linearGradient id="SVGID_3_" gradientUnits="userSpaceOnUse" x1="1087.9812" y1="2181.9021" x2="201.2975" y2="1437.8837" gradientTransform="matrix(1 0 0 1 0 -1656)">
				<stop  offset="0.75" style="stop-color:#CCA800;stop-opacity:0"/>
				<stop  offset="1" style="stop-color:#CCA800"/>
			</linearGradient>
			<rect style="&st2;" width="1280" height="300"/>
			
				<linearGradient id="SVGID_4_" gradientUnits="userSpaceOnUse" x1="0" y1="1806" x2="1280" y2="1806" gradientTransform="matrix(1 0 0 1 0 -1656)">
				<stop  offset="0" style="stop-color:#FF7BAC"/>
				<stop  offset="0.22" style="stop-color:#FF7BAC;stop-opacity:0.76"/>
				<stop  offset="0.6" style="stop-color:#FF7BAC;stop-opacity:0.36"/>
				<stop  offset="0.87" style="stop-color:#FF7BAC;stop-opacity:0.1"/>
				<stop  offset="1" style="stop-color:#FF7BAC;stop-opacity:0"/>
			</linearGradient>
			<path style="&st3;" d="M1279,1.5v297H1V1.5H1279 M1280,0H0v300h1280V0z"/>
		</g>
	</g>
</g>
<g id="Layer_3" style="&st4;">
	<rect x="0" y="2" style="&st5;" width="1920" height="298"/>
	<path style="&st6;" d="M513.8,294.9c29.1-0.6,57.7-3,85.8-7.1c91.7-12.9,180.8-45.4,263.4-96c32.1-19.7,64.5-38.3,97.4-55.5
		c32.9,17.3,65.4,35.9,97.4,55.5c82.6,50.6,171.7,83,263.4,96c28.1,4.1,56.7,6.5,85.8,7.1c60.4,1.1,120.7-4.6,180.2-16.7
		c106.5-21.4,217.9-63.3,332.8-124.9v-1.1c-253.8,135.3-571.4,217.3-861.9,39c-31.9-19.6-64.2-38-96.9-55.3
		c5.8-3.1,11.6-6.1,17.4-8.9c24.5,13.4,49.1,27.9,73.9,43.1c74.9,46.3,155.1,78.2,237.8,94.5c41.2,8.1,82.9,12.5,124.6,13.3
		c38.3,0.7,76.6-1.2,114.7-5.9c123.8-15.2,254.7-59.1,390.4-130.4v-1.6c-323.2,169.9-619.8,182.5-867.2,29.5
		c-24.2-15-48.7-29.4-73.3-42.9c5.7-3,11.4-5.8,17.1-8.6c16.8,9.5,33.6,19.7,50.5,30.2c72.5,45.2,149.9,77.4,229.9,95.5
		c48.2,10.7,97,16.6,146,17.6c27.8,0.6,55.8-0.4,84.1-2.7c130.5-11,269.4-54.3,412.9-128.4v-2.5
		c-326.6,170.9-618.7,177.8-872.7,19.6c-16.6-10.3-33.2-20.4-49.9-30c5.6-2.7,11.2-5.6,16.8-8.2c9.1,5.6,18.3,11,27.5,16.8
		c121.3,76.2,251.5,115.7,389.6,118.6c151.4,3.2,312.4-37.6,481.9-122.2c2.3-1.1,4.5-2.4,6.8-3.5v-2
		c-151.5,76.7-318.8,129.7-490.3,126.2c-128.5-2.7-259.3-37.5-387.5-117.8c-8.9-5.7-17.9-11-26.9-16.5c5.4-2.6,10.7-5.2,16.1-7.6
		c1.7,1,3.3,2.1,5,3.2c125.1,79.5,263.6,122.1,404.4,124.6c11.9,0.2,23.9,0.2,36,0c131-3.2,269.8-38.7,412.9-105.4
		c10.1-4.8,20.2-9.7,30.3-14.7v-2C1771.9,180,1608.1,230.7,1439.1,227c-132.5-2.5-268.2-38.7-402.2-123.6c-1.4-0.9-2.8-1.9-4.3-2.7
		c5.3-2.5,10.6-4.9,15.9-7.3c124.8,76.2,261.9,117.1,401.2,119.7c166.1,3.6,325.7-44.6,470.3-114.7v-1.2
		c-144.5,70.1-304.2,118.3-470.3,114.7c-138.8-2.6-275.5-43.2-399.9-119c5.6-2.5,11.2-5.1,16.8-7.5
		c123.2,70.6,253.5,108.4,387.9,112.2l5.6,0.1c125.1,2.7,256.9-23.7,391.7-79c23.1-9.4,45.9-19.6,68.2-30.1v-0.6
		c-140.6,67-295.8,112.5-458.4,109c-127.7-2.7-260-35.8-393.5-112.4c5.8-2.6,11.6-5.1,17.4-7.5c115.4,62.8,236.1,98,359.8,104.5
		c8.4,0.5,16.9,0.7,25.3,1c117.6,2.5,240.4-20.3,365.5-67.9c28.5-10.8,56.5-22.7,83.9-35.6v-2.6c-137.9,63.7-290.6,107.1-451,103.6
		c-123.7-2.7-252.1-33.3-382.1-103.6c6-2.5,11.9-5.1,17.9-7.4c129.6,67.3,256.1,96.5,377.5,99c156.2,3.3,303.8-37.4,437.7-97.9v-1.6
		c-133.8,60.5-281.4,101.2-437.6,97.9c-120.8-2.6-246.8-31.6-375.8-98.1c6.2-2.5,12.4-4.9,18.5-7.4c99.3,48.9,201.2,78.9,304.1,89.1
		c21.3,2.1,42.7,3.5,64.2,3.8c102.9,2.2,208.9-14.4,316.1-49.8c37.8-12.4,74.6-26.6,110.5-42.5v-0.6
		c-230.7,102.1-500.9,143.6-793.1-0.7c6.4-2.5,12.9-4.9,19.3-7.4c90.9,42.8,183.3,69.9,276.1,81.4c27.7,3.3,55.5,5.3,83.6,5.9
		c95.7,2.1,193.6-12,292.3-42c41.7-12.6,82.3-27.9,121.8-44.7v-2.1c-223.6,95.6-486,134.6-771.7,0.7c6.5-2.5,13-4.8,19.6-7.2
		c82.2,37,165.3,61.6,248.3,73.5c34,4.9,68.3,7.7,103,8.4c90.5,1.6,180.8-10.2,269-35.2c44.6-12.5,88.6-27.8,131.8-46v-1.3
		c-217.1,90.8-469.2,125.9-750.1-0.4c6.8-2.5,13.6-4.8,20.3-7.2c73.4,31.7,147.1,53.7,220.5,65.9c41,6.9,82.4,10.7,123.8,11.7
		c82.2,1.5,164.4-8.3,244.8-29.5c47.6-12.2,94.5-27.8,140.7-46.5v-2.7c-209.9,84.4-453.9,116.6-727.1,0.1c6.5-2.2,13.1-4.5,19.6-6.6
		c111.5,46.3,222.7,70.5,334.7,72.9c75.2,1.5,150.3-6.6,224.1-23.9c50.3-11.8,99.9-27.4,148.6-46.7v-1.7
		c-203.7,79.9-437.6,108.5-704.5-1.6c6.9-2.2,13.8-4.5,20.7-6.6c109.3,43.7,217.8,66.5,326.4,68.8c67.7,1.4,135.3-5.1,202-19.2
		c52.5-11.2,104.4-26.5,155.4-45.9v-1.3c-197.7,75.6-421.6,100.5-681.2-3.3c7.1-2.2,14.1-4.3,21.2-6.3
		c107.2,41.4,213,63.1,318.4,65.3c60.4,1.2,120.7-3.8,180.4-15.1c55.6-10.5,109.2-26.1,161.2-45v-2.8
		c-190.3,69.1-405.8,91.7-656-3.5c6.7-2,13.4-3.8,20.2-5.7c243.4,91.1,450.5,72.1,635.9,6.9v-2.5c-184.4,65-390.2,84.1-632-5.4
		c6.7-1.9,13.3-3.6,20-5.3c107.8,39.4,207.9,57.3,301.9,59.3c110.7,2.4,213-17.3,310.1-50.5V8.3C1741.5,69.1,1545.1,85,1312.2,1
		l2.9-0.7h-11.9c1,0.3,1.9,0.7,2.8,1.1c-6.5,1.7-13.2,3.5-19.8,5.3c-5.5-2.1-11.1-4.2-16.7-6.4h-6.2c6.4,2.6,12.8,4.9,19.1,7.4
		c-6.7,1.9-13.4,3.7-20,5.7c-8.9-3.5-17.9-7.1-26.9-10.7c2.7-0.9,5.2-1.6,7.9-2.4h-4.3c-1.8,0.6-3.6,1.1-5.4,1.6
		c-1.3-0.6-2.7-1.1-4-1.6h-6.2c2.2,1,4.4,1.9,6.6,2.8c-6.7,2.1-13.4,4.2-20.1,6.4c-6.9-3-13.9-6.2-20.9-9.2h-4.1
		c7.5,3.5,15,6.8,22.5,9.9c-6.5,2.1-13.1,4.3-19.6,6.7c-7.7-3.5-15.5-7.1-23.3-10.7c5.6-2.1,11.2-4,16.6-5.9h-3.7l-14.6,5.2
		l-10.8-5.2h-4.4c4.2,2.1,8.4,4.1,12.6,6.2c-6,2.2-12,4.5-18,6.8c-7.1-3.5-14.1-7.1-21.2-10.5c2-0.7,3.9-1.6,5.9-2.4h-3.6
		c-1.2,0.5-2.5,1-3.7,1.5c-0.9-0.5-1.9-1-2.9-1.5h-4c1.5,0.9,3,1.6,4.6,2.4c-5.8,2.4-11.6,4.7-17.4,7.2c-5.8-3.1-11.5-6.3-17.3-9.4
		h-3.4c6.2,3.6,12.6,7.1,18.8,10.3c-5.6,2.4-11.3,4.8-16.9,7.3c-6.1-3.5-12.2-6.9-18.3-10.4c5.3-2.5,10.6-4.8,15.9-7.2h-3
		c-4.7,2.1-9.5,4.2-14.2,6.4c-3.6-2.1-7.3-4.2-10.9-6.4h-3.1c4,2.5,8.2,4.8,12.2,7.3c-5.2,2.5-10.5,4.8-15.7,7.4
		c-5.5-3.3-11.1-6.8-16.7-10.3c2.9-1.5,5.8-2.8,8.7-4.3h-2.8c-2.3,1.2-4.6,2.2-7.1,3.5c-1.8-1.2-3.7-2.2-5.4-3.5h-3
		c2.2,1.5,4.5,2.8,6.7,4.3c-4.8,2.5-9.6,4.8-14.5,7.3l-15.6-9.9c1-0.5,2-1.1,2.9-1.6H995c-0.5,0.2-1.1,0.5-1.7,0.9
		c-0.4-0.4-0.9-0.7-1.4-0.9h-2.8c0.9,0.6,1.8,1.1,2.7,1.7c-5,2.7-10,5.4-14.9,8.1C971.8,7,966.7,4,961.6,1c0.5-0.3,1-0.6,1.5-0.9
		h-2.6c-0.1,0-0.1,0.1-0.2,0.1s-0.1-0.1-0.2-0.1h-2.5c0.5,0.2,1,0.5,1.5,0.9c-5.1,3-10.2,6-15.3,8.9c-5-2.7-10-5.6-14.9-8.1
		c0.9-0.6,1.8-1.1,2.7-1.7h-2.8c-0.5,0.2-1,0.5-1.4,0.9c-0.5-0.4-1.1-0.7-1.7-0.9h-2.9c1,0.6,2.1,1.1,3.2,1.7
		c-5.2,3.3-10.4,6.6-15.6,9.9c-4.8-2.5-9.6-4.9-14.5-7.3l6.9-4.5h-3c-1.8,1.2-3.7,2.2-5.4,3.5c-2.3-1.2-4.6-2.2-7-3.5h-2.9
		c2.9,1.5,5.7,2.8,8.7,4.3c-5.6,3.6-11.1,6.9-16.7,10.3c-5.2-2.5-10.5-4.9-15.7-7.4c4-2.5,8.2-4.8,12.2-7.3h-3.1
		c-3.6,2.2-7.3,4.3-10.9,6.4c-4.7-2.2-9.5-4.3-14.2-6.4h-3c5.3,2.5,10.6,4.7,15.9,7.2c-6.1,3.6-12.2,7.1-18.3,10.4
		c-5.6-2.5-11.2-4.8-16.9-7.3C828.7,6.9,835,3.5,841.3,0H838c-5.8,3.3-11.7,6.4-17.5,9.5c-5.8-2.3-11.6-4.6-17.4-7
		c1.6-0.9,3.2-1.7,4.8-2.5h-4.2c-0.9,0.5-1.9,1-2.9,1.5c-1.2-0.5-2.5-1-3.7-1.5h-3.2c1.9,0.7,3.7,1.5,5.6,2.2
		c-7.1,3.7-14.2,7.2-21.2,10.5c-6-2.4-12-4.6-18-6.8c4.1-2,8.3-4.1,12.4-6.1h-4.2c-3.6,1.9-7.2,3.5-10.8,5.2
		c-4.8-1.9-9.7-3.5-14.5-5.2h-3.6c5.6,2,11.1,3.8,16.6,5.9c-7.8,3.7-15.6,7.3-23.3,10.7l-19.6-6.7c7.5-3.3,15-6.6,22.5-9.9h-4.4
		c-6.9,3.2-13.8,6.2-20.6,9.1c-6.7-2.2-13.4-4.3-20.1-6.4c2.1-0.9,4.2-1.9,6.3-2.7h-6c-1.3,0.6-2.7,1.1-4,1.6
		c-1.8-0.5-3.5-1-5.4-1.6h-4.3c2.7,0.9,5.2,1.6,7.9,2.4c-8.9,3.7-17.9,7.3-26.8,10.7c-6.8-2-13.5-3.8-20.2-5.7
		c6.4-2.5,12.7-4.8,19.1-7.4H651c-5.5,2.2-11,4.3-16.6,6.4c-6.6-1.9-13.2-3.6-19.9-5.3c1-0.4,2-0.7,2.9-1.1h-11.6
		c0.9,0.2,1.8,0.4,2.8,0.7C375.4,85.2,178.7,69.1,0,8v2.6c97.3,33.3,199.9,53,310.8,50.8c94-2,194-19.9,301.9-59.4
		c6.7,1.7,13.3,3.5,20,5.3C390.6,97,184.5,77.8,0,12.4v2.5c185.5,65.5,392.8,84.4,636.5-6.7c6.7,1.9,13.4,3.7,20.2,5.7
		C406.2,109.1,190.5,86.7,0,17.2V20c53,19.6,107.1,34.7,161.8,45.3c59.7,11.3,120,16.4,180.4,15.1c105.4-2.2,211.2-23.8,318.4-65.3
		c7.1,2.1,14.2,4.2,21.2,6.3C422,125.4,197.8,100,0,24.3v1.4c51.2,19.5,103.3,34.9,156.1,46c66.7,14.1,134.3,20.6,202,19.2
		c108.7-2.4,217.1-25.2,326.4-68.8c6.9,2.1,13.8,4.3,20.7,6.6C438,139,203.9,110.1,0,30.1v1.7c49,19.3,98.8,35,149.3,47
		c73.8,17.4,148.9,25.4,224.1,23.9c112-2.4,223.2-26.5,334.7-72.9c6.6,2.1,13.1,4.3,19.6,6.6C454.3,152.9,210.1,120.3,0,35.8v2.7
		c46.3,18.9,93.5,34.5,141.3,46.7c80.4,21.1,162.6,30.9,244.8,29.5c41.4-0.9,82.8-4.8,123.8-11.7c73.3-12.1,147-34.3,220.5-65.9
		c6.8,2.4,13.6,4.7,20.3,7.2C469.7,170.7,217.3,135.4,0,44.3v1.2c43.5,18.3,87.7,33.7,132.5,46.3c88.2,25,178.5,36.9,269,35.2
		c34.6-0.7,68.9-3.6,103-8.4c83-11.9,166-36.7,248.3-73.5c6.5,2.4,13.1,4.7,19.6,7.2C486.3,186,223.8,146.8,0,51V53
		c39.7,17,80.6,32.3,122.5,45.1c98.7,30.1,196.6,44.1,292.3,42c28.1-0.6,56-2.6,83.6-5.9c92.8-11.3,185.2-38.5,276.1-81.4
		c6.5,2.5,12.9,4.9,19.3,7.4C501.3,204.7,230.8,163,0,60.6v0.6c36.1,15.9,73.2,30.4,111.2,42.9c107.2,35.3,213.2,51.9,316.1,49.8
		c21.6-0.5,43-1.8,64.2-3.8c103-10.2,204.8-40.2,304.2-89.1c6.2,2.5,12.4,4.9,18.5,7.4c-129,66.7-255,95.6-375.8,98.1
		C281.9,169.9,134.1,129,0,68.1v1.6c134.1,60.7,281.9,101.6,438.5,98.3c121.3-2.6,247.9-31.7,377.5-99c6,2.5,12,4.9,17.9,7.4
		c-130,70.4-258.4,101-382.1,103.6C291.1,183.7,138.2,140.1,0,76.3v2.6c27.7,12.8,56,24.9,84.8,35.9c125.2,47.7,248,70.4,365.5,67.9
		c8.5-0.1,16.9-0.5,25.3-1c123.7-6.4,244.4-41.6,359.8-104.5c5.8,2.5,11.6,4.9,17.4,7.5C719.3,161.4,586.9,194.3,459.3,197
		C296.3,200.5,140.9,154.6,0,87.5v0.6c22.6,10.7,45.7,20.9,69.1,30.6c134.8,55.1,266.5,81.7,391.7,79.1l5.6-0.1
		c134.4-3.8,264.7-41.5,387.9-112.2c5.6,2.5,11.2,4.9,16.8,7.5C746.7,168.8,610,209.4,471.2,212C304.7,215.3,144.7,167,0,96.8v1.2
		c144.8,70.3,304.7,118.6,471.1,115c139.3-2.6,276.4-43.5,401.2-119.7c5.3,2.5,10.6,4.8,15.9,7.3c-1.4,0.9-2.8,1.9-4.3,2.7
		c-133.9,84.9-269.7,121.2-402.1,124C312.4,230.9,148.4,179.8,0,106.3v2c10.3,5.2,20.7,10.2,31.1,15.1
		C174.1,190.2,313,225.7,444,228.8c12,0.2,24,0.2,36,0c140.8-2.5,279.3-45.1,404.4-124.6c1.7-1.1,3.3-2.1,5-3.2
		c5.4,2.5,10.7,5.1,16.1,7.6c-9,5.4-18,10.9-26.9,16.5C750.4,205.5,619.5,240.3,491.1,243c-171.8,3.7-339.3-49.7-491-126.5v2
		c2.5,1.2,5,2.6,7.5,3.8C177,207.1,338,247.8,489.4,244.6c138.1-3,268.3-42.5,389.6-118.6c9.2-5.8,18.3-11.3,27.5-16.8
		c5.6,2.7,11.2,5.4,16.8,8.2c-16.7,9.5-33.4,19.6-49.9,30C619.2,305.7,326.9,298.6,0,127.5v2.5c143.8,74.3,282.8,117.5,413.6,128.6
		c28.3,2.4,56.4,3.3,84.1,2.7c49-1,97.8-6.9,146-17.6c80-18.1,157.4-50.3,229.9-95.5c16.9-10.4,33.7-20.6,50.5-30.2
		c5.7,2.8,11.4,5.7,17.1,8.6c-24.6,13.5-49,27.9-73.3,42.9c-247.5,153-544.5,140.3-867.9-30v1.8c135.9,71.4,267.1,115.4,391.2,130.8
		c38.1,4.8,76.4,6.8,114.7,5.9c41.7-0.8,83.4-5.3,124.6-13.3c82.7-16.3,162.9-48.2,237.8-94.5c24.8-15.2,49.4-29.7,73.9-43.1
		c5.8,3,11.6,5.9,17.4,8.9c-32.7,17.2-65,35.8-96.9,55.3C571.9,369.6,253.9,287.5,0,151.8v1.1c115.2,61.8,226.9,103.9,333.6,125.4
		C393.1,290.4,453.4,296,513.8,294.9z M978.6,126.3c-5.8-3.2-11.6-6.3-17.4-9.3c5.7-3.1,11.5-6.1,17.2-8.9
		c5.8,3.2,11.5,6.6,17.3,9.7C990,120.4,984.3,123.3,978.6,126.3L978.6,126.3z M819.2,30.7c5.8,2.4,11.6,4.8,17.4,7.4
		c-6.6,3.7-13.2,7.2-19.8,10.5c-6.1-2.5-12.2-4.9-18.2-7.4C805.5,37.7,812.4,34.2,819.2,30.7z M796.6,40.4
		c-6.2-2.5-12.4-4.8-18.6-7.2c7.2-3.5,14.4-7.1,21.5-10.5c5.9,2.4,11.8,4.8,17.8,7.2C810.4,33.5,803.5,36.9,796.6,40.4L796.6,40.4z
		 M838.4,38.6c5.6,2.4,11.1,4.8,16.7,7.4c-6.3,3.7-12.6,7.2-18.9,10.7c-5.8-2.5-11.7-4.9-17.5-7.4C825.3,45.9,831.8,42.3,838.4,38.6
		L838.4,38.6z M1122,41.1c-6.1,2.5-12.2,4.9-18.2,7.4c-6.6-3.3-13.2-6.9-19.8-10.5l17.4-7.4C1108.3,34.1,1115.1,37.6,1122,41.1
		L1122,41.1z M1103.4,29.8c5.9-2.5,11.9-4.8,17.8-7.2c7.2,3.7,14.3,7.2,21.5,10.5c-6.2,2.4-12.4,4.8-18.6,7.2
		C1117.2,36.9,1110.3,33.4,1103.4,29.8L1103.4,29.8z M1101.9,49.3c-5.9,2.5-11.7,4.9-17.5,7.4c-6.3-3.5-12.6-6.9-18.9-10.5
		c5.6-2.5,11.2-4.9,16.7-7.4C1088.8,42.2,1095.3,45.7,1101.9,49.3L1101.9,49.3z M895.1,60.4c4.7-3,9.3-5.9,14-8.8
		c5.2,2.6,10.3,5.2,15.5,7.8c-5.6,3.3-11.2,6.8-16.8,10.2c-5.1-2.6-10.3-5.1-15.4-7.5C893.3,61.6,894.2,61,895.1,60.4L895.1,60.4z
		 M891.1,61.5l-15.6-7.4c5.7-3.5,11.5-7.1,17.2-10.5c5,2.5,10,4.9,15.1,7.4c-4.4,2.7-8.8,5.6-13.2,8.3
		C893.4,60,892.3,60.7,891.1,61.5L891.1,61.5z M1025.6,60.4c0.9,0.6,1.8,1.1,2.6,1.7c-5.1,2.5-10.3,4.9-15.4,7.5
		c-5.6-3.5-11.1-6.9-16.7-10.2c5.2-2.7,10.4-5.3,15.5-7.8C1016.3,54.4,1020.9,57.4,1025.6,60.4L1025.6,60.4z M1012.9,51
		c5-2.5,10.1-4.9,15.1-7.4c5.7,3.6,11.4,7.2,17.2,10.5l-15.6,7.4c-1.2-0.7-2.4-1.5-3.5-2.2C1021.7,56.5,1017.3,53.6,1012.9,51
		L1012.9,51z M977.7,68.9c5.6,3.2,11.2,6.6,16.8,9.8c-5.4,2.8-10.9,5.6-16.3,8.3c-5.6-3.1-11.2-6.2-16.9-9.3
		C966.8,74.9,972.2,71.8,977.7,68.9L977.7,68.9z M960.3,77.4c-5.4-3-10.9-5.9-16.4-8.8c5.5-3.1,11-6.2,16.4-9.2
		c5.4,3.1,10.9,6.1,16.4,9.2C971.2,71.3,965.8,74.4,960.3,77.4z M978.8,68.4c5.3-2.8,10.7-5.7,16-8.3c5.6,3.3,11.2,6.8,16.8,10.2
		c-5.3,2.6-10.6,5.3-15.9,7.9C990.1,75,984.5,71.5,978.8,68.4L978.8,68.4z M995,58.8c-5.4-3.2-10.8-6.4-16.3-9.5
		c5.2-2.8,10.4-5.6,15.6-8.2l16.2,9.9C1005.3,53.4,1000.1,56,995,58.8L995,58.8z M993.8,59.4c-5.3,2.7-10.7,5.6-16,8.3
		c-5.4-3.1-10.9-6.2-16.3-9.2c5.4-3,10.7-5.9,16-8.7C982.9,52.9,988.4,56.2,993.8,59.4L993.8,59.4z M960.3,58
		c-5.3-3-10.7-5.9-16-8.7c5.4-3.1,10.7-6.2,16-9.1c5.3,3,10.7,6.1,16,9.1C970.9,52.1,965.6,54.9,960.3,58L960.3,58z M959.2,58.6
		c-5.5,3.1-10.9,6.2-16.4,9.2c-5.3-2.8-10.7-5.7-16-8.3c5.5-3.2,10.9-6.4,16.4-9.5C948.5,52.6,953.9,55.5,959.2,58.6L959.2,58.6z
		 M925.6,58.8c-5.2-2.7-10.3-5.3-15.5-7.8c5.4-3.5,10.8-6.8,16.2-9.9c5.2,2.7,10.4,5.4,15.6,8.2C936.5,52.4,931.1,55.5,925.6,58.8
		L925.6,58.8z M925.8,60.1c5.3,2.7,10.7,5.6,16,8.3c-5.6,3.2-11.2,6.6-16.8,9.8c-5.3-2.7-10.6-5.3-15.9-7.9
		C914.7,66.8,920.3,63.3,925.8,60.1L925.8,60.1z M943,69c5.4,2.8,10.9,5.8,16.4,8.8c-5.6,3.1-11.3,6.3-16.9,9.3
		c-5.4-2.8-10.9-5.7-16.3-8.3C931.7,75.5,937.4,72.1,943,69L943,69z M960.3,78.5c5.6,3.1,11.3,6.2,16.9,9.3
		c-5.6,3-11.3,5.9-16.9,8.9c-5.6-3.1-11.3-6.1-16.9-8.9C949.1,84.5,954.7,81.5,960.3,78.5L960.3,78.5z M978.2,88.3
		c5.7,3.2,11.4,6.6,17.1,9.8c-5.6,2.8-11.2,5.7-16.9,8.6c-5.7-3.2-11.4-6.3-17.1-9.4C966.9,94.2,972.6,91.2,978.2,88.3L978.2,88.3z
		 M979.2,87.8c5.4-2.8,10.9-5.7,16.3-8.3c5.7,3.3,11.4,6.8,17,10.2c-5.4,2.6-10.8,5.3-16.2,7.9C990.6,94.3,984.9,91,979.2,87.8
		L979.2,87.8z M996.6,78.9c5.3-2.7,10.6-5.3,15.9-7.9c5.6,3.5,11.3,7.1,16.9,10.5c-5.3,2.5-10.5,5.1-15.8,7.6
		C1008,85.5,1002.3,82.3,996.6,78.9L996.6,78.9z M1013.8,70.2c5.1-2.6,10.3-5.1,15.4-7.5c5.7,3.7,11.5,7.3,17.3,10.7
		c-5.3,2.5-10.5,4.9-15.8,7.4C1025.1,77.4,1019.4,73.7,1013.8,70.2L1013.8,70.2z M1030.5,62.2l15.6-7.4c6,3.7,12,7.2,18.1,10.7
		c-5.5,2.5-10.9,4.9-16.4,7.4C1042.1,69.3,1036.3,65.8,1030.5,62.2L1030.5,62.2z M1047.6,54.1c5.4-2.5,10.9-4.9,16.3-7.4
		c6.3,3.7,12.6,7.2,18.9,10.7c-5.7,2.5-11.4,4.9-17,7.4C1059.7,61.4,1053.6,57.8,1047.6,54.1L1047.6,54.1z M1064.4,45.4
		c-6-3.5-11.9-7.1-17.9-10.7c5.3-2.5,10.6-4.9,15.9-7.3c6.2,3.6,12.5,7.2,18.7,10.5C1075.5,40.5,1070,42.8,1064.4,45.4L1064.4,45.4z
		 M1062.7,46.1l-16.2,7.4c-5.7-3.3-11.4-6.9-17.2-10.5c5.2-2.5,10.4-4.9,15.5-7.4C1050.8,38.9,1056.7,42.5,1062.7,46.1L1062.7,46.1z
		 M1028.3,42.3l-7.5-4.8c-2.9-2-5.8-3.8-8.7-5.7c5-2.5,9.9-4.9,14.9-7.4c5.6,3.6,11.2,7.1,16.8,10.4
		C1038.6,37.4,1033.5,39.8,1028.3,42.3L1028.3,42.3z M1020.2,38.5c2.2,1.5,4.5,2.8,6.7,4.3c-5,2.5-10.1,4.9-15.1,7.4
		c-5.4-3.5-10.8-6.8-16.2-10c5.1-2.6,10.1-5.2,15.1-7.7C1013.9,34.5,1017.1,36.6,1020.2,38.5L1020.2,38.5z M994.5,39.6
		c-5.3-3.2-10.7-6.4-16-9.5c5.1-2.7,10.2-5.6,15.2-8.1l15.9,9.9C1004.6,34.4,999.6,36.9,994.5,39.6L994.5,39.6z M993.2,40.2
		c-5.2,2.7-10.4,5.6-15.6,8.2c-5.3-3.1-10.7-6.2-16-9.2c5.2-3,10.4-5.8,15.7-8.6C982.5,33.8,987.9,37.1,993.2,40.2L993.2,40.2z
		 M960.3,38.6c-5.2-3-10.4-5.8-15.7-8.7c5.2-3.1,10.4-6.2,15.7-9.1c5.2,3,10.4,6.1,15.7,9.1C970.8,32.9,965.5,35.7,960.3,38.6
		L960.3,38.6z M959.1,39.4c-5.4,3.1-10.7,6.1-16,9.2c-5.2-2.8-10.4-5.6-15.6-8.2c5.3-3.2,10.7-6.4,16-9.5
		C948.7,33.5,953.9,36.4,959.1,39.4L959.1,39.4z M926.1,39.6c-5-2.6-10.1-5.2-15.1-7.7l15.9-9.9c5.1,2.7,10.1,5.4,15.2,8.1
		C936.8,33.2,931.5,36.3,926.1,39.6L926.1,39.6z M925,40.2c-5.4,3.3-10.8,6.7-16.2,10c-5-2.5-10-4.9-15.1-7.4
		c2.2-1.5,4.5-2.8,6.7-4.3c3.2-2.1,6.3-4.1,9.5-6.1C914.9,35.1,920,37.6,925,40.2L925,40.2z M899.9,37.4l-7.5,4.8
		c-5.2-2.5-10.3-4.9-15.5-7.4c5.6-3.5,11.2-6.9,16.8-10.4c5,2.5,9.9,4.9,14.9,7.4C905.7,33.7,902.8,35.6,899.9,37.4z M891.3,43
		c-5.7,3.6-11.5,7.2-17.2,10.5l-16.2-7.4c5.9-3.5,11.9-7.1,17.9-10.5C881,38,886.1,40.5,891.3,43z M856.2,45.4
		c-5.6-2.5-11.1-4.9-16.7-7.4c6.2-3.5,12.5-7.1,18.7-10.5c5.3,2.4,10.6,4.8,15.9,7.3C868.2,38.3,862.2,41.9,856.2,45.4L856.2,45.4z
		 M856.8,46.8c5.4,2.5,10.8,4.9,16.3,7.4C867,57.8,861,61.4,855,64.9c-5.7-2.5-11.3-5.1-17-7.4C844.2,53.8,850.5,50.4,856.8,46.8
		L856.8,46.8z M874.5,54.7c5.2,2.5,10.4,4.8,15.6,7.4c-5.8,3.7-11.5,7.3-17.3,10.7c-5.5-2.5-10.9-4.9-16.4-7.4
		C862.4,62,868.5,58.4,874.5,54.7L874.5,54.7z M891.5,62.8c5.1,2.5,10.3,4.9,15.4,7.5c-5.7,3.5-11.3,7.1-16.9,10.5
		c-5.3-2.5-10.5-4.9-15.8-7.4C880,70,885.7,66.4,891.5,62.8L891.5,62.8z M908.1,70.8c5.3,2.6,10.6,5.3,15.9,7.9
		c-5.7,3.3-11.4,6.8-17.1,10.2c-5.3-2.6-10.5-5.1-15.8-7.6C896.9,78,902.5,74.4,908.1,70.8L908.1,70.8z M925.2,79.5
		c5.4,2.7,10.9,5.6,16.3,8.3c-5.7,3.2-11.4,6.6-17.1,9.8c-5.4-2.7-10.8-5.4-16.2-7.9C913.8,86.1,919.5,82.7,925.2,79.5L925.2,79.5z
		 M942.5,88.3c5.6,3,11.3,5.9,16.9,8.9c-5.7,3.1-11.5,6.3-17.2,9.4c-5.6-3-11.2-5.8-16.9-8.6C931.1,94.8,936.8,91.6,942.5,88.3
		L942.5,88.3z M960.3,97.9c5.7,3.1,11.4,6.3,17.2,9.4c-5.7,3-11.5,6.1-17.2,8.9c-5.7-3.1-11.4-6.1-17.2-8.9
		C948.9,104,954.6,100.9,960.3,97.9L960.3,97.9z M996.7,117.1c-5.8-3.3-11.5-6.6-17.3-9.8c5.6-3,11.2-5.8,16.9-8.6
		c5.7,3.3,11.5,6.8,17.2,10.2C1007.9,111.5,1002.3,114.2,996.7,117.1L996.7,117.1z M1014.5,108.4c-5.7-3.5-11.5-6.9-17.2-10.2
		c5.4-2.7,10.8-5.4,16.2-7.9c5.7,3.5,11.4,7.1,17.1,10.5C1025.2,103.2,1019.8,105.7,1014.5,108.4L1014.5,108.4z M1031.7,100.2
		c-5.7-3.6-11.4-7.2-17.1-10.5c5.3-2.6,10.5-5.1,15.8-7.5l0.6,0.4c5.5,3.6,11.1,7.1,16.7,10.4C1042.3,95.3,1037,97.7,1031.7,100.2
		L1031.7,100.2z M1048.9,92.4c-5.8-3.6-11.5-7.2-17.3-10.8c5.3-2.5,10.6-4.9,15.8-7.4c6,3.7,12.1,7.3,18.1,10.7
		C1060,87.3,1054.4,89.7,1048.9,92.4L1048.9,92.4z M1067,84.2c-6.1-3.5-12.1-7.1-18.2-10.7l16.5-7.4c6.3,3.7,12.6,7.2,19,10.5
		C1078.5,79.2,1072.8,81.8,1067,84.2L1067,84.2z M1085.8,76.2c-6.4-3.5-12.7-7.1-19.1-10.5c5.7-2.5,11.4-5.1,17.1-7.4
		c6.7,3.6,13.3,7.2,19.9,10.5C1097.7,71,1091.8,73.5,1085.8,76.2z M1105.5,67.9c-6.6-3.5-13.3-7.1-19.9-10.5
		c5.9-2.5,11.8-4.9,17.6-7.4c6.9,3.6,13.9,7.2,20.8,10.5C1117.8,62.8,1111.6,65.3,1105.5,67.9L1105.5,67.9z M1125.7,59.8
		c-6.9-3.5-13.9-7.1-20.8-10.5l18.3-7.4c7.3,3.6,14.6,7.2,21.8,10.5C1138.6,54.8,1132.2,57.3,1125.7,59.8L1125.7,59.8z M1147.2,51.6
		c-7.3-3.5-14.5-6.9-21.8-10.5c6.2-2.5,12.4-4.8,18.6-7.2c7.6,3.6,15.1,7.2,22.7,10.5C1160.2,46.7,1153.7,49.1,1147.2,51.6
		L1147.2,51.6z M1168.7,43.7c-7.6-3.5-15.1-6.9-22.7-10.5c6.5-2.5,12.9-4.8,19.3-7.2c7.9,3.7,15.8,7.2,23.7,10.5
		C1182.2,38.8,1175.4,41.2,1168.7,43.7L1168.7,43.7z M1231.9,3.7c8.9,3.7,17.7,7.3,26.6,10.7c-7.1,2.1-14.2,4.2-21.2,6.4
		c-8.5-3.5-17.1-7.1-25.6-10.7C1218.4,7.7,1225.2,5.7,1231.9,3.7z M1209.1,10.9c8.5,3.7,17.1,7.3,25.6,10.5
		c-6.9,2.2-13.7,4.3-20.6,6.6c-8.2-3.5-16.5-6.9-24.7-10.5C1196,15.1,1202.6,12.9,1209.1,10.9L1209.1,10.9z M1211.3,29
		c-6.6,2.4-13.1,4.5-19.6,6.7c-7.9-3.5-15.9-6.9-23.8-10.5c6.3-2.2,12.6-4.5,18.8-6.7C1194.9,21.9,1203.1,25.4,1211.3,29L1211.3,29z
		 M1162,7.1c7.7,3.7,15.5,7.3,23.2,10.7c-6.3,2.2-12.5,4.5-18.7,6.7c-7.6-3.6-15.1-7.1-22.6-10.7C1149.9,11.3,1156,9.1,1162,7.1
		L1162,7.1z M1163.9,25.2c-6.4,2.4-12.8,4.7-19.2,7.2c-7.3-3.3-14.4-6.9-21.6-10.5c6.1-2.5,12.3-4.8,18.4-7.2
		C1148.9,18.2,1156.4,21.7,1163.9,25.2L1163.9,25.2z M1118.9,3.2c7,3.7,14.1,7.2,21.1,10.5c-6.1,2.4-12.2,4.7-18.3,7.2
		c-6.7-3.3-13.5-6.9-20.3-10.5C1107.2,7.8,1113.1,5.6,1118.9,3.2z M1099.4,11.2c6.9,3.6,13.7,7.2,20.4,10.5
		c-5.9,2.4-11.8,4.8-17.7,7.3c-6.5-3.5-13-7.1-19.6-10.5C1088.2,16,1093.8,13.7,1099.4,11.2z M1100.2,29.9
		c-5.8,2.5-11.6,4.8-17.3,7.4c-6.2-3.5-12.5-7.1-18.7-10.5l16.5-7.4C1087.2,22.7,1093.7,26.4,1100.2,29.9z M1061.3,8
		c6.1,3.6,12.2,7.1,18.3,10.4c-5.6,2.5-11.1,4.9-16.6,7.4c-5.8-3.5-11.7-6.9-17.5-10.4C1050.8,12.9,1056,10.4,1061.3,8z
		 M1061.2,26.8c-5.3,2.5-10.6,4.8-15.9,7.3c-5.6-3.5-11.2-6.9-16.8-10.4c5.1-2.5,10.1-4.9,15.2-7.3
		C1049.5,19.8,1055.4,23.3,1061.2,26.8z M1025.9,5.2c5.5,3.5,11.1,6.9,16.6,10.3c-5,2.5-10.1,4.8-15.1,7.3c-4-2.5-7.9-5.1-11.9-7.6
		c-1.4-0.9-2.7-1.7-4.1-2.7C1016.2,9.9,1021.1,7.5,1025.9,5.2z M1014.9,16.5c3.7,2.4,7.3,4.7,11,7.1c-5,2.5-9.9,4.9-14.9,7.4
		L995.1,21c5-2.6,9.9-5.2,14.9-7.7C1011.5,14.4,1013.2,15.4,1014.9,16.5z M993.1,2.7c5.2,3.2,10.4,6.6,15.6,9.8
		c-5,2.5-9.9,5.1-14.9,7.7c-5.2-3.2-10.4-6.4-15.6-9.4C983.2,8.1,988.2,5.5,993.1,2.7z M992.5,21c-5.1,2.7-10.2,5.4-15.2,8.2
		c-5.2-3.1-10.4-6.2-15.7-9.1c5.1-3,10.2-5.8,15.3-8.6C982.1,14.5,987.3,17.7,992.5,21L992.5,21z M960.3,1.8
		c5.1,3,10.2,5.9,15.3,8.9c-5.1,2.8-10.2,5.7-15.3,8.6c-5.1-3-10.2-5.8-15.3-8.6C950.1,7.6,955.2,4.7,960.3,1.8z M959,20.1
		c-5.2,3-10.4,6.1-15.7,9.1c-5.1-2.7-10.1-5.6-15.2-8.2c5.2-3.2,10.4-6.4,15.6-9.4C948.9,14.3,953.9,17.2,959,20.1L959,20.1z
		 M927.5,2.7c5,2.7,9.9,5.4,14.9,8.1c-5.1,3.1-10.3,6.3-15.6,9.4c-4.9-2.6-9.9-5.2-14.9-7.7C917.1,9.2,922.3,6,927.5,2.7z
		 M910.8,13.5c4.9,2.4,9.9,4.9,14.8,7.6l-15.9,9.9c-5-2.5-9.9-4.9-14.9-7.4c3.7-2.4,7.3-4.7,11-7.1
		C907.5,15.5,909.1,14.4,910.8,13.5z M894.8,5.3c4.8,2.4,9.7,4.8,14.5,7.3c-1.4,1-2.7,1.9-4.1,2.7c-4,2.6-7.9,5.2-11.9,7.6
		c-5-2.5-10.1-4.9-15.1-7.3C883.7,12.2,889.3,8.7,894.8,5.3L894.8,5.3z M876.9,16.3c5.1,2.5,10.2,4.8,15.2,7.3
		c-5.6,3.6-11.2,7.1-16.8,10.4c-5.3-2.5-10.6-4.9-15.9-7.3C865.2,23.3,871.1,19.8,876.9,16.3L876.9,16.3z M859.5,8
		c5.2,2.4,10.5,4.8,15.8,7.4c-5.9,3.6-11.8,7.2-17.6,10.4l-16.5-7.4C847.3,15,853.4,11.6,859.5,8L859.5,8z M840,19.3
		c5.5,2.5,11,4.8,16.5,7.4c-6.2,3.6-12.5,7.2-18.7,10.5c-5.8-2.5-11.5-4.9-17.3-7.4C827,26.4,833.5,22.7,840,19.3L840,19.3z
		 M821.1,11.2c5.6,2.4,11.3,4.8,16.9,7.3c-6.5,3.6-13,7.2-19.5,10.5c-5.9-2.5-11.8-4.8-17.7-7.3C807.6,18.4,814.3,14.8,821.1,11.2
		L821.1,11.2z M801.7,3.4c5.8,2.4,11.7,4.7,17.5,7.2c-6.8,3.6-13.5,7.2-20.3,10.5c-6.1-2.5-12.2-4.8-18.3-7.2
		C787.6,10.4,794.7,7,801.7,3.4z M779.2,14.5c6.1,2.4,12.2,4.7,18.4,7.2c-7.2,3.7-14.4,7.2-21.5,10.5c-6.4-2.5-12.8-4.8-19.2-7.2
		C764.3,21.8,771.8,18.2,779.2,14.5z M758.8,7c6,2.2,12,4.5,18.1,6.7c-7.6,3.8-15.1,7.3-22.6,10.7l-18.7-6.7
		C743.3,14.2,751.1,10.6,758.8,7L758.8,7z M683.3,20.7c-7-2.2-14.1-4.3-21.1-6.4c8.9-3.5,17.7-7,26.6-10.6
		c6.7,2.1,13.4,4.2,20.2,6.4C700.4,13.7,691.9,17.2,683.3,20.7L683.3,20.7z M706.5,28c-6.8-2.2-13.7-4.5-20.6-6.6
		c8.5-3.5,17.1-7.1,25.6-10.5c6.5,2.1,13.1,4.3,19.7,6.6C723,21.1,714.7,24.6,706.5,28z M729,35.6c-6.5-2.2-13-4.5-19.6-6.6
		c8.2-3.5,16.4-6.9,24.6-10.5c6.3,2.1,12.5,4.3,18.8,6.7C744.9,28.7,736.9,32.2,729,35.6z M752,43.7c-6.7-2.5-13.5-4.8-20.3-7.2
		c7.9-3.5,15.8-6.9,23.7-10.5c6.4,2.4,12.9,4.7,19.3,7.2C767.1,36.9,759.6,40.2,752,43.7L752,43.7z M773.5,51.6
		c-6.5-2.5-13-4.8-19.5-7.2c7.6-3.5,15.1-6.9,22.7-10.5c6.2,2.4,12.4,4.7,18.6,7.2C788,44.6,780.8,48.1,773.5,51.6z M794.9,59.8
		c-6.4-2.5-12.8-4.9-19.3-7.4c7.3-3.5,14.5-6.9,21.7-10.5c6.1,2.5,12.2,4.8,18.3,7.4C808.8,52.8,801.8,56.3,794.9,59.8L794.9,59.8z
		 M815.2,67.9c-6.1-2.5-12.3-4.9-18.5-7.4c6.9-3.5,13.9-6.9,20.8-10.5c5.9,2.5,11.7,4.8,17.6,7.4C828.4,60.9,821.8,64.4,815.2,67.9
		L815.2,67.9z M834.8,76.2c-5.9-2.5-11.9-5.1-17.9-7.4c6.6-3.5,13.2-7.1,19.9-10.5l17.1,7.3C847.5,68.9,841.2,72.5,834.8,76.2z
		 M853.7,84.2c-5.8-2.6-11.5-5.1-17.3-7.5c6.3-3.5,12.7-7.1,19-10.5l16.5,7.4C865.8,77.2,859.7,80.8,853.7,84.2L853.7,84.2z
		 M871.8,92.4c-5.6-2.5-11.1-5.1-16.7-7.5c6.1-3.5,12.1-7.1,18.1-10.7c5.3,2.5,10.5,4.8,15.8,7.4C883.3,85.2,877.6,88.7,871.8,92.4
		L871.8,92.4z M889,100.2l-15.9-7.4c5.6-3.5,11.1-6.9,16.7-10.4l0.6-0.4c5.3,2.5,10.5,5.1,15.8,7.5C900.3,93.1,894.6,96.7,889,100.2
		L889,100.2z M906.2,108.4c-5.4-2.6-10.7-5.2-16.1-7.6c5.7-3.6,11.4-7.2,17.1-10.5c5.4,2.6,10.8,5.3,16.2,7.9
		C917.7,101.5,911.9,104.9,906.2,108.4L906.2,108.4z M924,117.1c-5.6-2.7-11.2-5.6-16.8-8.2c5.7-3.5,11.5-6.9,17.2-10.2
		c5.6,2.8,11.2,5.7,16.9,8.6C935.5,110.4,929.7,113.7,924,117.1L924,117.1z M942.1,126.3c-5.7-3-11.4-5.8-17.1-8.6
		c5.8-3.3,11.5-6.6,17.3-9.7c5.7,3,11.4,5.9,17.2,8.9C953.6,119.8,947.8,122.9,942.1,126.3L942.1,126.3z M942.9,126.8
		c5.8-3.2,11.6-6.3,17.4-9.3c5.8,3.1,11.6,6.2,17.4,9.3c-5.8,3-11.6,5.9-17.4,8.9C954.5,132.7,948.7,129.6,942.9,126.8L942.9,126.8z
		"/>
	<path style="&st6;" d="M530.1,14.9c15.4-4.6,30.9-9.4,46.3-14.7h-7.3C352,73.4,169,59.6,0,4v2.6c56.8,18.9,114.7,32.1,173.2,39.7
		C291.1,61.1,407.9,50.9,530.1,14.9z"/>
	<path style="&st6;" d="M535.7,0.2h-8.8C327.5,62.2,158.5,50.4,0,0.3v2.8C160.8,54,332.5,65.3,535.7,0.2z"/>
</g>
</svg>
