<?xml version="1.0"?>
<svg xmlns="http://www.w3.org/2000/svg" version="1.2" baseProfile="tiny" width="800" height="505" viewBox="0 0 800 505" stroke-linecap="round" stroke-linejoin="round">
<g id="PA">
<path d="M 487.3451 503.9198 481.2583 504.009 437.0758 504.2879 423.7725 504.3399 418.7334 504.3557 378.0978 504.1024 335.3269 503.9304 296.4673 503.6346 280.8677 503.4349 237.374 502.9825 222.661 502.8316 156.676 501.9519 138.415 501.7434 84.288 500.5498 71.8383 500.118 1 498.0242 1.4015 485.4707 2.4181 454.9429 5.364 362.8319 6.2784 334.2406 6.8302 316.9874 7.502 295.9803 7.7955 286.8039 9.0676 247.0266 9.6073 230.1523 11.1107 181.9161 13.1728 117.447 13.5027 107.1313 15.8273 32.0305 74.5099 21.7229 117.1487 1 115.1538 93.5389 135.2426 93.9501 151.1633 94.3951 221.9077 95.5633 227.5909 95.7553 322.6414 96.3818 402.3115 96.5275 420.1454 96.371 454.4119 96.2879 464.4973 96.2597 493.4637 95.6413 506.3508 95.4357 517.4872 95.388 532.0121 95.3625 546.1867 95.3236 566.2813 95.2892 597.7778 94.6727 631.8053 94.0301 669.5661 93.1196 686.1472 92.6216 702.6506 92.1398 713.7022 102.6484 716.4401 112.4397 736.2336 119.0665 737.9 131.4291 744.8992 135.2371 746.8973 159.1281 743.3412 160.7191 743.5413 162.1175 749.4341 168.7664 755.5135 182.2774 758.1624 184.0525 765.3471 183.9711 778.6213 189.7164 795.8496 202.3692 782.681 210.7611 782.0423 211.656 777.5883 217.3495 771.1757 236.62 756.8999 252.9127 752.6177 262.4618 738.6619 271.6225 740.1686 275.6381 744.9098 284.3749 749.7517 292.3099 742.757 307.2905 734.4972 309.779 730.5282 324.6231 732.2448 327.5709 731.7445 340.2627 735.201 348.093 745.1711 347.2607 749.7832 352.1669 751.2292 373.0745 764.1616 376.8413 770.1097 389.0616 778.3377 394.9022 782.1614 402.7842 790.6508 407.621 799 420.847 782.5238 430.2947 768.9017 436.9315 765.2928 439.5153 761.3635 443.4367 756.6265 446.0155 753.8583 449.9739 752.6282 451.7583 749.5395 453.2201 744.3636 456.111 743.5673 459.0201 743.9424 462.1215 743.6939 468.5444 735.8029 471.0575 733.6061 472.9821 717.2912 476.6758 711.7636 480.5869 709.2465 482.7814 702.7799 483.4114 697.8477 481.1508 691.4043 479.5346 686.887 479.1947 682.9475 479.4079 681.1419 479.6428 680.9015 479.6868 666.2849 486.3042 659.2317 494.819 656.6705 500.9126 606.6979 502.1384 592.308 502.36 569.5345 502.7355 564.7782 502.8085 487.3451 503.9198 Z"/>
</g>
</svg>