<?xml version="1.0" encoding="UTF-8"?><svg id="jc" xmlns="http://www.w3.org/2000/svg" viewBox="0 0 224 168"><path d="M95.29,106.53c.02,18.79-3.61,39.58-22.53,48.05-25.01,10.84-64.37,2.99-68.62-29.53l29.43-7.2c1.24,14.52,23.83,17.69,27.57,3.09,4.29-10.62,1.15-98.37,2.06-111.32h32.1V106.53Z"/><path d="M187.23,47.47c-27.27-28.92-71.77-2.55-69.76,34.98-2.17,39.29,46.04,65.63,71.2,31.28l26.75,19.96c-18.22,26.51-56.43,30.36-84.16,19.96-29.96-10.64-47.66-39.35-47.12-71.2-.54-31.84,17.17-60.55,47.12-71.2,25.94-9.55,62.03-7.56,80.66,16.05l-24.69,20.17Z"/></svg>