<?xml version="1.0" encoding="UTF-8" standalone="no"?>
<svg xmlns="http://www.w3.org/2000/svg" viewBox="0 0 15.988145 13.970602" width="15.988145" height="13.970602">
  <!-- Cleaned from user's SVG. Two separate paths for J and C so you can tweak kerning by changing translateX on the 'C' group. -->
  <g id="JC" fill="#A6A6A6" stroke="none">
    <path id="J" d="m 1.1266885,0.58932071 h 1.73333 V 9.4639701 c 0,1.3519969 0.5546656,1.5773299 0.5546656,2.7039949 0,0.970665 -0.346666,1.490664 -1.213331,1.490664 -0.4679991,0 -0.9186649,-0.173333 -0.9186649,-0.416 0,-0.311999 1.0053314,-0.207999 1.0053314,-1.230664 0,-0.623999 -0.4506658,-1.074664 -1.0919979,-1.074664 -0.74533184,0 -1.195997630333,0.623998 -1.195997630333,1.31733 0,0.762666 0.831998380333,1.715997 2.322662130333,1.715997 1.8373298,0 3.2413271,-1.455997 3.2413271,-2.963994 V 0.58932071 H 6.9680105 V 0.27732131 H 1.1266885 Z" />
    <g id="C" transform="translate(0.0,0)">
      <path d="M 15.936115,0.36398781 h -0.311999 c -0.01733,0.36399929 -0.208,0.51999899 -0.571999,0.51999899 -0.727999,0 -1.906663,-0.883998282239 -3.154661,-0.883998282239 -3.5533263,0 -5.7026555,3.501326482239 -5.7026555,6.586653882239 0,3.1026606 2.0453294,6.1706546 5.4773225,6.1706546 2.079996,0 2.859995,-0.987998 3.41466,-0.987998 0.364,0 0.571999,0.450666 0.641332,0.710665 h 0.26 V 8.2333058 h -0.26 L 15.624116,8.822638 c -0.242667,1.403997 -1.542664,3.62266 -3.77866,3.62266 -1.9759959,0 -2.7386611,-1.854663 -2.7386611,-6.0666552 0,-4.4199914 1.0399981,-6.06665489 2.7906611,-6.06665489 1.975996,0 3.449327,2.37466209 3.72666,4.14265859 h 0.311999 z" />
    </g>
  </g>
  <!-- Edit the 'translate(x,0)' value on the C group to adjust spacing between J and C -->
</svg>