<?xml version="1.0" encoding="UTF-8" standalone="no"?>
<svg
   id="nav-icon"
   viewBox="0 0 123.33177 14.213267"
   version="1.1"
   sodipodi:docname="name-one-line.svg"
   width="123.33177"
   height="14.213267"
   inkscape:version="1.4.2 (ebf0e940, 2025-05-08)"
   xmlns:inkscape="http://www.inkscape.org/namespaces/inkscape"
   xmlns:sodipodi="http://sodipodi.sourceforge.net/DTD/sodipodi-0.dtd"
   xmlns="http://www.w3.org/2000/svg"
   xmlns:svg="http://www.w3.org/2000/svg">
  <defs
     id="defs14" />
  <sodipodi:namedview
     id="namedview14"
     pagecolor="#ffffff"
     bordercolor="#000000"
     borderopacity="0.25"
     inkscape:showpageshadow="2"
     inkscape:pageopacity="0.0"
     inkscape:pagecheckerboard="0"
     inkscape:deskcolor="#d1d1d1"
     inkscape:zoom="2.5949492"
     inkscape:cx="29.86571"
     inkscape:cy="18.690154"
     inkscape:window-width="1088"
     inkscape:window-height="518"
     inkscape:window-x="0"
     inkscape:window-y="40"
     inkscape:window-maximized="0"
     inkscape:current-layer="nav-icon" />
  <path
     style="font-weight:bold;font-size:17.3333px;font-family:'Bauer Bodoni';-inkscape-font-specification:'Bauer Bodoni Bold'"
     d="m 1.1266885,0.83198504 h 1.73333 V 9.7066345 c 0,1.3519975 0.5546656,1.5773305 0.5546656,2.7039945 0,0.970665 -0.346666,1.490664 -1.213331,1.490664 -0.4679991,0 -0.9186649,-0.173333 -0.9186649,-0.415999 0,-0.312 1.0053314,-0.208 1.0053314,-1.230664 0,-0.623999 -0.4506658,-1.074665 -1.0919979,-1.074665 -0.74533184,0 -1.195997630333,0.623999 -1.195997630333,1.317331 0,0.762665 0.831998380333,1.715996 2.322662130333,1.715996 1.8373298,0 3.2413271,-1.455997 3.2413271,-2.963994 V 0.83198504 H 6.9680105 V 0.51998565 H 1.1266885 Z M 6.9714993,8.9093027 c 0,2.3746623 1.8373297,4.0213253 4.1253257,4.0213253 2.287995,0 4.125325,-1.646663 4.125325,-4.0213253 0,-2.3746621 -1.83733,-4.0213255 -4.125325,-4.0213255 -2.287996,0 -4.1253257,1.6466634 -4.1253257,4.0213255 z M 9.675494,7.0373063 c 0,-1.2999975 0.537332,-1.8373297 1.421331,-1.8373297 0.883998,0 1.42133,0.5373322 1.42133,1.8373297 v 3.7439927 c 0,1.299998 -0.537332,1.83733 -1.42133,1.83733 -0.883999,0 -1.421331,-0.537332 -1.421331,-1.83733 z m 5.860393,5.6853227 h 4.610658 v -0.312 H 19.12388 V 7.6613051 c 0,-0.8839983 0.866665,-2.1493292 1.83733,-2.1493292 0.502665,0 1.022664,0.2079996 1.022664,1.4213306 v 5.4773225 h -0.987998 v 0.312 h 4.575991 v -0.312 H 24.37587 V 7.5746386 c 0,-1.8719964 -0.797332,-2.6866614 -2.443996,-2.6866614 -1.161331,0 -2.305328,0.6066654 -2.773328,1.6119968 H 19.12388 V 4.645311 c -0.363999,0.4506658 -1.646664,0.4506658 -2.357329,0.4506658 h -1.230664 v 0.3119993 h 1.195997 V 12.410629 H 15.535887 Z M 33.165595,7.3493057 c 0,-1.9759962 -1.854663,-2.4613285 -3.639993,-2.4613285 -1.73333,0 -2.99866,0.8493316 -2.99866,1.8199964 0,0.6066655 0.346666,1.1266645 1.126664,1.1266645 0.658665,0 1.057331,-0.4333325 1.057331,-1.039998 0,-0.8319984 -0.866665,-0.7799985 -0.883998,-1.0746646 -0.01733,-0.3813326 0.987998,-0.5199989 1.57733,-0.5199989 1.299998,0 1.473331,0.641332 1.473331,1.68133 v 1.4559972 l -1.698664,0.1386664 c -1.57733,0.1213331 -3.293327,0.5373323 -3.293327,2.3399958 0,1.507997 1.351998,2.114662 2.686662,2.114662 0.675999,0 1.871996,-0.259999 2.322662,-1.091998 0.311999,0.727999 0.953332,1.091998 1.73333,1.091998 1.126664,0 1.854663,-0.675998 1.854663,-1.698663 h -0.311999 c 0,0.450666 -0.190667,0.970665 -0.606666,0.970665 -0.311999,0 -0.398666,-0.329333 -0.398666,-0.866665 z M 30.8776,10.659966 c -0.03467,0.918665 -0.554666,1.750663 -1.369331,1.750663 -1.178664,0 -1.230664,-1.074664 -1.230664,-1.975996 0,-0.9186648 0.104,-1.5253303 1.230664,-1.6466634 L 30.8776,8.6493032 Z m 4.68173,-5.2519899 v 5.5466559 c 0,1.646663 1.421331,1.975996 1.906663,1.975996 1.057331,0 1.767997,-0.433332 2.305329,-1.334664 l -0.225333,-0.121333 c -0.208,0.311999 -0.485332,0.727999 -0.918665,0.727999 -0.450666,0 -0.675999,-0.329333 -0.675999,-0.901332 V 5.4079761 h 1.594664 V 5.0959768 H 37.951325 V 1.3693173 h -0.311999 c 0,1.8373298 -1.247998,3.7266595 -2.998661,3.7266595 v 0.3119993 z m 4.023062,7.3146529 h 4.610657 v -0.312 H 43.170385 V 7.6613051 c 0,-0.8839983 0.866665,-2.1493292 1.83733,-2.1493292 0.502665,0 1.022664,0.2079996 1.022664,1.4213306 v 5.4773225 h -0.987998 v 0.312 h 4.575991 v -0.312 H 48.422375 V 7.5746386 c 0,-1.8719964 -0.797332,-2.6866614 -2.443996,-2.6866614 -1.161331,0 -2.305328,0.6066654 -2.773328,1.6119968 h -0.03467 V -1.3339996e-5 C 42.858385,0.51998565 41.905054,0.51998565 40.67439,0.51998565 h -1.091998 v 0.31199939 h 1.195997 V 12.410629 H 39.582392 Z M 57.2121,7.3493057 c 0,-1.9759962 -1.854663,-2.4613285 -3.639993,-2.4613285 -1.73333,0 -2.99866,0.8493316 -2.99866,1.8199964 0,0.6066655 0.346666,1.1266645 1.126664,1.1266645 0.658665,0 1.057331,-0.4333325 1.057331,-1.039998 0,-0.8319984 -0.866665,-0.7799985 -0.883998,-1.0746646 -0.01733,-0.3813326 0.987998,-0.5199989 1.57733,-0.5199989 1.299998,0 1.473331,0.641332 1.473331,1.68133 v 1.4559972 l -1.698664,0.1386664 c -1.57733,0.1213331 -3.293327,0.5373323 -3.293327,2.3399958 0,1.507997 1.351998,2.114662 2.686662,2.114662 0.675999,0 1.871996,-0.259999 2.322662,-1.091998 0.311999,0.727999 0.953332,1.091998 1.73333,1.091998 1.126664,0 1.854663,-0.675998 1.854663,-1.698663 h -0.311999 c 0,0.450666 -0.190667,0.970665 -0.606666,0.970665 -0.311999,0 -0.398666,-0.329333 -0.398666,-0.866665 z m -2.287995,3.3106603 c -0.03467,0.918665 -0.554666,1.750663 -1.369331,1.750663 -1.178664,0 -1.230664,-1.074664 -1.230664,-1.975996 0,-0.9186648 0.104,-1.5253303 1.230664,-1.6466634 l 1.369331,-0.1386664 z m 3.572395,2.062663 h 4.610658 v -0.312 H 62.084493 V 7.6613051 c 0,-0.8839983 0.866665,-2.1493292 1.83733,-2.1493292 0.502666,0 1.022665,0.2079996 1.022665,1.4213306 v 5.4773225 h -0.987999 v 0.312 h 4.575992 v -0.312 H 67.336483 V 7.5746386 c 0,-1.8719964 -0.797332,-2.6866614 -2.443995,-2.6866614 -1.161331,0 -2.305329,0.6066654 -2.773328,1.6119968 h -0.03467 V 4.645311 C 61.720494,5.0959768 60.43783,5.0959768 59.727164,5.0959768 H 58.4965 v 0.3119993 h 1.195998 V 12.410629 H 58.4965 Z M 84.115115,0.60665215 h -0.311999 c -0.01733,0.36399929 -0.208,0.51999895 -0.571999,0.51999895 -0.727999,0 -1.906663,-0.88399825 -3.154661,-0.88399825 -3.553326,0 -5.702655,3.50132655 -5.702655,6.58665385 0,3.1026607 2.045329,6.1706543 5.477323,6.1706543 2.079996,0 2.859994,-0.987998 3.41466,-0.987998 0.363999,0 0.571999,0.450666 0.641332,0.710666 h 0.259999 V 8.4759702 h -0.259999 l -0.104,0.5893322 C 83.56045,10.4693 82.260452,12.687962 80.024457,12.687962 c -1.975997,0 -2.738662,-1.854663 -2.738662,-6.0666549 0,-4.4199914 1.039998,-6.06665485 2.790661,-6.06665485 1.975997,0 3.449327,2.37466205 3.72666,4.14265865 h 0.311999 z m 8.49506,7.92131795 c -0.01733,-1.8719964 -1.750663,-3.6746595 -3.57066,-3.6399929 -2.045329,0 -3.813326,1.7679965 -3.813326,4.107992 0,2.2533288 1.646664,3.9346588 3.865326,3.9346588 2.131996,0 3.189327,-1.317331 3.57066,-3.0333272 h -0.311999 c -0.381333,1.6119972 -1.386664,2.6173282 -2.738662,2.6173282 -1.611997,0 -1.78533,-1.351997 -1.78533,-2.5306617 V 8.5279701 Z M 87.826184,8.2159707 V 6.7253069 c 0,-1.1613311 0.502666,-1.5253303 1.091998,-1.5253303 0.831999,0 1.091998,0.5719988 1.091998,1.5253303 v 1.4906638 z m 4.993734,4.5066583 h 5.182656 v -0.312 H 96.407911 V 7.9906378 c 0,-1.3346641 0.415999,-2.2706623 1.507997,-2.7559946 h 0.06933 c -0.294666,0.3119993 -0.415999,0.5893321 -0.415999,1.0226646 0,0.6759987 0.502666,1.1266645 1.178664,1.1266645 0.831999,0 1.317334,-0.6066655 1.317334,-1.2653309 0,-0.8319984 -0.554669,-1.334664 -1.369334,-1.334664 -1.109331,0 -1.958663,0.7626651 -2.287995,1.6293301 h -0.03467 V 4.645311 c -0.363999,0.4506658 -1.646663,0.4506658 -2.357329,0.4506658 h -1.195997 v 0.3119993 h 1.195997 v 7.0026529 h -1.195997 z m 10.904392,0.207999 h 0.468 l 2.56532,-6.0666547 c 0.43334,-0.9706648 0.79734,-1.4386639 1.196,-1.4559972 h 0.156 V 5.0959768 h -2.70399 v 0.3119993 h 0.32933 c 0.50266,0 0.79733,0.1906663 0.79733,0.6413321 0,0.2773328 -0.0867,0.6586654 -0.29467,1.1439978 l -1.17866,2.773328 -2.028,-4.5586579 h 1.04 V 5.0959768 h -4.350656 v 0.3119993 h 0.745336 z m 11.84038,-5.5813223 c 0,-1.9759962 -1.85466,-2.4613285 -3.63999,-2.4613285 -1.73333,0 -2.99866,0.8493316 -2.99866,1.8199964 0,0.6066655 0.34666,1.1266645 1.12666,1.1266645 0.65867,0 1.05733,-0.4333325 1.05733,-1.039998 0,-0.8319984 -0.86666,-0.7799985 -0.88399,-1.0746646 -0.0173,-0.3813326 0.98799,-0.5199989 1.57733,-0.5199989 1.29999,0 1.47333,0.641332 1.47333,1.68133 v 1.4559972 l -1.69867,0.1386664 c -1.57733,0.1213331 -3.29332,0.5373323 -3.29332,2.3399958 0,1.507997 1.35199,2.114662 2.68666,2.114662 0.676,0 1.87199,-0.259999 2.32266,-1.091998 0.312,0.727999 0.95333,1.091998 1.73333,1.091998 1.12666,0 1.85466,-0.675998 1.85466,-1.698663 h -0.312 c 0,0.450666 -0.19066,0.970665 -0.60666,0.970665 -0.312,0 -0.39867,-0.329333 -0.39867,-0.866665 z m -2.28799,3.3106603 c -0.0347,0.918665 -0.55467,1.750663 -1.36933,1.750663 -1.17867,0 -1.23067,-1.074664 -1.23067,-1.975996 0,-0.9186648 0.104,-1.5253303 1.23067,-1.6466634 l 1.36933,-0.1386664 z m 4.30039,2.270662 h 0.312 c 0.0867,-0.277333 0.364,-0.415999 0.71067,-0.415999 0.45066,0 0.98799,0.415999 1.95866,0.415999 1.64666,0 2.77333,-1.42133 2.77333,-2.842661 0,-2.1146625 -1.456,-2.2706622 -3.31066,-2.5306617 -0.97067,-0.1386664 -1.57733,-0.2946661 -1.57733,-1.0573313 0,-0.8146651 0.71066,-1.2999974 1.64666,-1.2999974 1.3,0 1.99333,1.0226646 2.42666,2.1493291 h 0.27733 l -0.104,-2.4613285 h -0.25999 c 0,0.2079996 -0.208,0.3813325 -0.53734,0.3813325 -0.55466,0 -1.00533,-0.3813325 -1.80266,-0.3813325 -1.73333,0 -2.58266,1.4733304 -2.58266,2.5826616 0,2.2359957 1.69866,2.426662 3.01599,2.5826612 1.248,0.156 1.768,0.277333 1.768,1.074665 0,0.918665 -0.76267,1.490664 -1.69866,1.490664 -1.31734,0 -2.392,-1.334664 -2.704,-2.599995 h -0.312 z"
     id="text27"
     aria-label="Jonathan Cervas" />
</svg>
