<?xml version="1.0" encoding="UTF-8" standalone="no"?>
<svg
   id="two-line"
   viewBox="0 0 91.236801 37.448833"
   version="1.1"
   width="91.236801"
   height="37.448833"
   xmlns="http://www.w3.org/2000/svg"
   xmlns:svg="http://www.w3.org/2000/svg">
  <defs
     id="defs14" />
  <path
     style="font-weight:bold;font-size:22.6667px;font-family:'Bauer Bodoni';-inkscape-font-specification:'Bauer Bodoni Bold'"
     d="m 1.473367,1.0879841 h 2.26667 V 12.693335 c 0,1.768002 0.7253344,2.062669 0.7253344,3.536005 0,1.269335 -0.453334,1.949336 -1.586669,1.949336 -0.6120009,0 -1.2013351,-0.226667 -1.2013351,-0.544001 0,-0.408 1.3146686,-0.272 1.3146686,-1.609335 0,-0.816002 -0.5893342,-1.405336 -1.4280021,-1.405336 -0.97466812,0 -1.564002327675,0.816001 -1.564002327675,1.722669 0,0.997335 1.088001627675,2.244004 3.037337827675,2.244004 2.4026703,0 4.238673,-1.904003 4.238673,-3.876006 V 1.0879841 H 9.112045 V 0.67998349 H 1.473367 Z M 9.5208729,11.650666 c 0,3.105338 2.4026701,5.258675 5.3946751,5.258675 2.992004,0 5.394674,-2.153337 5.394674,-5.258675 0,-3.1053375 -2.40267,-5.258674 -5.394674,-5.258674 -2.992005,0 -5.3946751,2.1533365 -5.3946751,5.258674 z M 13.056878,9.2026628 c 0,-1.7000025 0.702668,-2.4026702 1.85867,-2.4026702 1.156001,0 1.858669,0.7026677 1.858669,2.4026702 V 14.09867 c 0,1.700003 -0.702668,2.40267 -1.858669,2.40267 -1.156002,0 -1.85867,-0.702667 -1.85867,-2.40267 z m 7.865751,7.4346782 h 6.029342 V 16.22934 h -1.337335 v -6.210676 c 0,-1.1560017 1.133335,-2.8106708 2.40267,-2.8106708 0.657334,0 1.337335,0.2720004 1.337335,1.8586694 V 16.22934 H 28.06264 v 0.408001 h 5.984008 V 16.22934 H 32.482646 V 9.9053305 c 0,-2.4480036 -1.042668,-3.5133385 -3.196005,-3.5133385 -1.518669,0 -3.014671,0.7933345 -3.626672,2.1080031 h -0.04533 V 6.0746582 c -0.476004,0.5893342 -2.15334,0.5893342 -3.082674,0.5893342 H 20.922629 V 7.071993 h 1.564002 V 16.22934 H 20.922629 Z M 44.179076,9.6106634 c 0,-2.5840038 -2.425337,-3.2186714 -4.760007,-3.2186714 -2.26667,0 -3.921339,1.1106683 -3.921339,2.3800035 0,0.7933345 0.453334,1.4733355 1.473336,1.4733355 0.861334,0 1.382668,-0.5666675 1.382668,-1.360002 0,-1.0880016 -1.133335,-1.0200015 -1.156001,-1.4053354 -0.02267,-0.4986674 1.292002,-0.680001 2.062669,-0.680001 1.700003,0 1.92667,0.8386679 1.92667,2.1986699 v 1.9040025 l -2.221337,0.181334 c -2.062669,0.158667 -4.306673,0.702668 -4.306673,3.060005 0,1.972002 1.768003,2.765337 3.513339,2.765337 0.884001,0 2.448003,-0.340001 3.037338,-1.428002 0.408,0.952001 1.246668,1.428002 2.26667,1.428002 1.473335,0 2.425337,-0.884001 2.425337,-2.221337 h -0.408001 c 0,0.589335 -0.249334,1.269336 -0.793335,1.269336 -0.408,0 -0.521334,-0.430668 -0.521334,-1.133335 z m -2.992004,4.3293396 c -0.04533,1.201335 -0.725335,2.289337 -1.790669,2.289337 -1.541336,0 -1.609336,-1.405335 -1.609336,-2.584004 0,-1.201335 0.136,-1.99467 1.609336,-2.153336 l 1.790669,-0.181334 z m 6.324417,-6.86801 v 7.253344 c 0,2.153337 1.858669,2.584004 2.493337,2.584004 1.382669,0 2.312003,-0.566668 3.014671,-1.745336 L 52.72483,15.005338 c -0.272,0.408001 -0.634668,0.952002 -1.201335,0.952002 -0.589334,0 -0.884001,-0.430668 -0.884001,-1.178669 V 7.071993 H 52.72483 V 6.6639924 H 50.639494 V 1.7906518 h -0.408001 c 0,2.4026702 -1.632002,4.8733406 -3.921339,4.8733406 V 7.071993 Z m 5.463077,9.565348 h 6.029342 V 16.22934 h -1.337335 v -6.210676 c 0,-1.1560017 1.133335,-2.8106708 2.40267,-2.8106708 0.657335,0 1.337336,0.2720004 1.337336,1.8586694 V 16.22934 h -1.292002 v 0.408001 h 5.984009 V 16.22934 H 64.534583 V 9.9053305 c 0,-2.4480036 -1.042668,-3.5133385 -3.196005,-3.5133385 -1.518668,0 -3.014671,0.7933345 -3.626672,2.1080031 h -0.04533 V -1.7520905e-5 C 57.258572,0.67998349 56.011904,0.67998349 54.402568,0.67998349 H 52.974566 V 1.0879841 h 1.564002 V 16.22934 H 52.974566 Z M 76.231013,9.6106634 c 0,-2.5840038 -2.425337,-3.2186714 -4.760007,-3.2186714 -2.26667,0 -3.921339,1.1106683 -3.921339,2.3800035 0,0.7933345 0.453334,1.4733355 1.473336,1.4733355 0.861334,0 1.382668,-0.5666675 1.382668,-1.360002 0,-1.0880016 -1.133335,-1.0200015 -1.156001,-1.4053354 -0.02267,-0.4986674 1.292002,-0.680001 2.062669,-0.680001 1.700003,0 1.92667,0.8386679 1.92667,2.1986699 v 1.9040025 l -2.221337,0.181334 c -2.062669,0.158667 -4.306673,0.702668 -4.306673,3.060005 0,1.972002 1.768003,2.765337 3.513339,2.765337 0.884001,0 2.448003,-0.340001 3.037338,-1.428002 0.408,0.952001 1.246668,1.428002 2.26667,1.428002 1.473335,0 2.425337,-0.884001 2.425337,-2.221337 h -0.408001 c 0,0.589335 -0.249334,1.269336 -0.793334,1.269336 -0.408001,0 -0.521335,-0.430668 -0.521335,-1.133335 z m -2.992004,4.3293396 c -0.04533,1.201335 -0.725334,2.289337 -1.790669,2.289337 -1.541336,0 -1.609336,-1.405335 -1.609336,-2.584004 0,-1.201335 0.136,-1.99467 1.609336,-2.153336 l 1.790669,-0.181334 z m 4.873744,2.697338 h 6.029343 V 16.22934 H 82.80476 v -6.210676 c 0,-1.1560017 1.133335,-2.8106708 2.402671,-2.8106708 0.657334,0 1.337335,0.2720004 1.337335,1.8586694 V 16.22934 h -1.292002 v 0.408001 h 5.984009 V 16.22934 H 89.672771 V 9.9053305 c 0,-2.4480036 -1.042669,-3.5133385 -3.196005,-3.5133385 -1.518669,0 -3.014671,0.7933345 -3.626672,2.1080031 H 82.80476 V 6.0746582 c -0.476,0.5893342 -2.153336,0.5893342 -3.082671,0.5893342 H 78.112753 V 7.071993 h 1.564003 v 9.157347 h -1.564003 z"
     id="text27"
     aria-label="Jonathan" />
  <path
     d="m 12.738762,21.24217 h -0.408001 c -0.02267,0.476 -0.272,0.680001 -0.748001,0.680001 -0.952001,0 -2.4933368,-1.156002 -4.1253393,-1.156002 -4.6466735,0 -7.457344376014,4.578673 -7.457344376014,8.613346 0,4.057339 2.674670676014,8.069345 7.162677276014,8.069345 2.7200041,0 3.7400054,-1.292002 4.4653404,-1.292002 0.476,0 0.748001,0.589335 0.838668,0.929335 h 0.34 v -5.553342 h -0.34 l -0.136001,0.770668 c -0.317333,1.836003 -2.017336,4.737341 -4.9413404,4.737341 -2.5840038,0 -3.5813386,-2.425337 -3.5813386,-7.933345 0,-5.780009 1.360002,-7.933346 3.6493387,-7.933346 2.5840043,0 4.5106733,3.105338 4.8733403,5.417342 h 0.408001 z m 11.968013,10.358682 c -0.02267,-2.448004 -2.289336,-4.805341 -4.66934,-4.760007 -2.674671,0 -4.986674,2.312003 -4.986674,5.372008 0,2.946671 2.153337,5.14534 5.054674,5.14534 2.788004,0 4.170673,-1.722669 4.66934,-3.966672 h -0.408 c -0.498668,2.108003 -1.813336,3.422672 -3.581339,3.422672 -2.108003,0 -2.33467,-1.768003 -2.33467,-3.309339 v -1.904002 z m -6.256009,-0.408001 v -1.949336 c 0,-1.518669 0.657334,-1.99467 1.428002,-1.99467 1.088002,0 1.428002,0.748001 1.428002,1.99467 v 1.949336 z m 7.389343,5.893342 h 6.777344 v -0.408001 h -2.085337 v -5.780008 c 0,-1.745336 0.544001,-2.969338 1.972003,-3.604005 h 0.09067 c -0.385334,0.408 -0.544001,0.770667 -0.544001,1.337335 0,0.884001 0.657335,1.473335 1.541336,1.473335 1.088002,0 1.722669,-0.793334 1.722669,-1.654669 0,-1.088001 -0.725334,-1.745336 -1.790669,-1.745336 -1.450669,0 -2.561337,0.997335 -2.992005,2.13067 h -0.04533 v -2.312003 c -0.476001,0.589334 -2.153337,0.589334 -3.082671,0.589334 h -1.564003 v 0.408001 h 1.564003 v 9.157346 h -1.564003 z m 15.118697,0.272 h 0.612001 l 3.354671,-7.933345 c 0.566668,-1.269335 1.042668,-1.881336 1.564003,-1.904002 h 0.204 v -0.408001 h -3.536005 v 0.408001 h 0.430667 c 0.657334,0 1.042668,0.249333 1.042668,0.838667 0,0.362668 -0.113333,0.861335 -0.385334,1.496003 l -1.541335,3.626672 -2.652004,-5.961342 h 1.360002 v -0.408001 h -5.689342 v 0.408001 h 0.974668 z m 16.342688,-7.298677 c 0,-2.584004 -2.425337,-3.218671 -4.760007,-3.218671 -2.26667,0 -3.921339,1.110668 -3.921339,2.380003 0,0.793335 0.453334,1.473336 1.473335,1.473336 0.861335,0 1.382669,-0.566668 1.382669,-1.360002 0,-1.088002 -1.133335,-1.020002 -1.156002,-1.405336 -0.02267,-0.498667 1.292002,-0.680001 2.06267,-0.680001 1.700002,0 1.926669,0.838668 1.926669,2.19867 v 1.904003 l -2.221336,0.181333 c -2.06267,0.158667 -4.306673,0.702668 -4.306673,3.060005 0,1.972003 1.768002,2.765337 3.513338,2.765337 0.884001,0 2.448004,-0.34 3.037338,-1.428002 0.408001,0.952002 1.246669,1.428002 2.26667,1.428002 1.473336,0 2.425337,-0.884001 2.425337,-2.221336 h -0.408001 c 0,0.589334 -0.249333,1.269335 -0.793334,1.269335 -0.408001,0 -0.521334,-0.430667 -0.521334,-1.133335 z m -2.992005,4.32934 c -0.04533,1.201335 -0.725334,2.289336 -1.790669,2.289336 -1.541336,0 -1.609336,-1.405335 -1.609336,-2.584003 0,-1.201335 0.136,-1.99467 1.609336,-2.153337 l 1.790669,-0.181334 z m 6.482675,2.969337 h 0.408001 c 0.113333,-0.362667 0.476001,-0.544 0.929335,-0.544 0.589334,0 1.292001,0.544 2.561337,0.544 2.153336,0 3.626672,-1.858669 3.626672,-3.717338 0,-2.765338 -1.904003,-2.969338 -4.32934,-3.309339 -1.269335,-0.181333 -2.06267,-0.385334 -2.06267,-1.382668 0,-1.065335 0.929335,-1.700003 2.153337,-1.700003 1.700002,0 2.60667,1.337335 3.173338,2.810671 h 0.362667 l -0.136,-3.218671 H 67.13884 c 0,0.272 -0.272,0.498667 -0.702667,0.498667 -0.725335,0 -1.314669,-0.498667 -2.357337,-0.498667 -2.26667,0 -3.377339,1.926669 -3.377339,3.377338 0,2.924004 2.221337,3.173338 3.944006,3.377338 1.632003,0.204001 2.312004,0.362667 2.312004,1.405336 0,1.201335 -0.997335,1.949336 -2.221337,1.949336 -1.722669,0 -3.128005,-1.745336 -3.536005,-3.400005 h -0.408001 z"
     id="text28"
     style="font-weight:bold;font-size:22.6667px;font-family:'Bauer Bodoni';-inkscape-font-specification:'Bauer Bodoni Bold'"
     aria-label="Cervas" />
</svg>
