<?xml version="1.0" encoding="UTF-8"?><svg id="JONATHANCERVAS" xmlns="http://www.w3.org/2000/svg" viewBox="0 0 1366 453.5"><g><path d="M137.56,148.8c.03,27.86-5.35,58.7-33.42,71.25-37.08,16.07-95.45,4.44-101.77-43.79l43.64-10.68c.95,15.64,22.78,24.81,34.18,14.8,6.59-5.87,8.63-14.66,9.31-23.5,.65,.82,.46-147.09,.46-151.81h47.6V148.8Z"/><path d="M116.19,113.1C113.78,24.8,202.4-20.59,279.45,7.52c93.17,31.55,93.18,179.62,0,211.16-77.05,28.09-165.68-17.27-163.26-105.58Zm49.44,0c-1.72,51.69,48.16,83.09,94.75,64.39,52.74-20.47,52.71-108.24,0-128.77-46.69-18.71-96.37,12.73-94.75,64.39Z"/><path d="M331.02,5.07h64.69l91.85,150.14h.61V5.07h47.6V221.12h-62.25l-94.29-153.8h-.61V221.12h-47.6V5.07Z"/><path d="M600.16,5.07h39.36l93.99,216.05h-53.71l-18.61-45.77h-83.92l-18,45.77h-52.49L600.16,5.07Zm18.31,62.86l-26.24,67.13h52.79l-26.55-67.13Z"/><path d="M718.26,47.19h-61.64V5.07h170.89V47.19h-61.64V221.12h-47.6V47.19Z"/><path d="M800.95,5.07h47.6V85.63h92.46V5.07h47.6V221.12h-47.6V127.75h-92.46v93.38h-47.6V5.07Z"/><path d="M1053,5.07h39.36l93.99,216.05h-53.71l-18.62-45.77h-83.92l-18,45.77h-52.49L1053,5.07Zm18.31,62.86l-26.24,67.13h52.79l-26.55-67.13Z"/><path d="M1157.37,5.07h64.69l91.85,150.14h.61V5.07h47.6V221.12h-62.25l-94.29-153.8h-.61V221.12h-47.6V5.07Z"/></g><g><path d="M155.26,283.64c-14.89-18.86-44.42-22.12-65.76-12.51-24.69,11-37.94,37.54-37.69,64.39-.25,26.84,12.76,53.07,37.08,64.39,23.48,11.07,54.53,4.36,68.51-18l39.67,29.6c-27.03,39.32-83.69,45.03-124.81,29.6C27.83,425.32,1.57,382.75,2.38,335.52c-.81-47.22,25.46-89.8,69.88-105.58,38.48-14.16,91.99-11.21,119.62,23.8l-36.62,29.91Z"/><path d="M185.16,227.49h146.78v43.94h-99.17v40.28h93.68v43.94h-93.68v43.94h104.67v43.94H185.16V227.49Z"/><path d="M335.91,227.49c37.31,2.6,108.77-8.59,140.83,13.88,39.97,26.67,29.98,104.54-22.43,110.92l54.93,91.24h-57.06l-45.16-86.36h-23.5v86.36h-47.6V227.49Zm47.6,89.41c21.74-2.21,67.44,9.58,68.05-24.11-.32-33.67-46.28-23.29-68.05-25.02v49.13Z"/><path d="M472.61,227.49h54.32l53.4,141.59h.61l54.32-141.59h50.96l-89.11,216.05h-38.14l-86.36-216.05Z"/><path d="M694.46,227.49h39.36l93.99,216.05h-53.71l-18.62-45.77h-83.92l-18,45.77h-52.49l93.38-216.05Zm18.31,62.86l-26.24,67.13h52.79l-26.55-67.13Z"/><path d="M916.61,280.29c-12.87-15.2-38.33-18.29-55.54-9.31-12.48,5.37-15.11,24.6-3.66,32.19,18.67,12.91,46.67,13.82,66.37,26.55,36.23,19.58,32.51,79.21,.91,101.92-38.12,27.12-96.87,22.57-131.06-9.76l33.87-37.23c27.18,38.47,98.2,16.23,66.98-17.55-18.77-13.82-47.44-15.36-67.59-28.23-36.87-19.41-32.83-76.45-1.07-99.18,35.02-25.58,90.41-23.76,123.43,4.88l-32.65,35.7Z"/></g></svg>