<?xml version="1.0" encoding="UTF-8"?>
<svg xmlns="http://www.w3.org/2000/svg" xmlns:xlink="http://www.w3.org/1999/xlink" width="632pt" height="488pt" viewBox="0 0 632 488" version="1.1">
<g id="surface556">
<rect x="0" y="0" width="632" height="488" style="fill:rgb(100%,100%,100%);fill-opacity:1;stroke:none;"/>
<path style="fill:none;stroke-width:0.75;stroke-linecap:round;stroke-linejoin:round;stroke:rgb(0%,0%,0%);stroke-opacity:1;stroke-miterlimit:10;" d="M 26.105469 469.925781 C 26.105469 473.527344 20.707031 473.527344 20.707031 469.925781 C 20.707031 466.324219 26.105469 466.324219 26.105469 469.925781 "/>
<path style="fill:none;stroke-width:0.75;stroke-linecap:round;stroke-linejoin:round;stroke:rgb(0%,0%,0%);stroke-opacity:1;stroke-miterlimit:10;" d="M 52.707031 466.285156 C 52.707031 469.886719 47.308594 469.886719 47.308594 466.285156 C 47.308594 462.6875 52.707031 462.6875 52.707031 466.285156 "/>
<path style="fill:none;stroke-width:0.75;stroke-linecap:round;stroke-linejoin:round;stroke:rgb(0%,0%,0%);stroke-opacity:1;stroke-miterlimit:10;" d="M 79.304688 460.207031 C 79.304688 463.804688 73.90625 463.804688 73.90625 460.207031 C 73.90625 456.605469 79.304688 456.605469 79.304688 460.207031 "/>
<path style="fill:none;stroke-width:0.75;stroke-linecap:round;stroke-linejoin:round;stroke:rgb(0%,0%,0%);stroke-opacity:1;stroke-miterlimit:10;" d="M 105.90625 458.921875 C 105.90625 462.519531 100.503906 462.519531 100.503906 458.921875 C 100.503906 455.320312 105.90625 455.320312 105.90625 458.921875 "/>
<path style="fill:none;stroke-width:0.75;stroke-linecap:round;stroke-linejoin:round;stroke:rgb(0%,0%,0%);stroke-opacity:1;stroke-miterlimit:10;" d="M 132.503906 449.078125 C 132.503906 452.679688 127.105469 452.679688 127.105469 449.078125 C 127.105469 445.480469 132.503906 445.480469 132.503906 449.078125 "/>
<path style="fill:none;stroke-width:0.75;stroke-linecap:round;stroke-linejoin:round;stroke:rgb(0%,0%,0%);stroke-opacity:1;stroke-miterlimit:10;" d="M 159.105469 440.078125 C 159.105469 443.679688 153.703125 443.679688 153.703125 440.078125 C 153.703125 436.480469 159.105469 436.480469 159.105469 440.078125 "/>
<path style="fill:none;stroke-width:0.75;stroke-linecap:round;stroke-linejoin:round;stroke:rgb(0%,0%,0%);stroke-opacity:1;stroke-miterlimit:10;" d="M 185.703125 433.050781 C 185.703125 436.648438 180.304688 436.648438 180.304688 433.050781 C 180.304688 429.449219 185.703125 429.449219 185.703125 433.050781 "/>
<path style="fill:none;stroke-width:0.75;stroke-linecap:round;stroke-linejoin:round;stroke:rgb(0%,0%,0%);stroke-opacity:1;stroke-miterlimit:10;" d="M 212.300781 420.003906 C 212.300781 423.605469 206.902344 423.605469 206.902344 420.003906 C 206.902344 416.40625 212.300781 416.40625 212.300781 420.003906 "/>
<path style="fill:none;stroke-width:0.75;stroke-linecap:round;stroke-linejoin:round;stroke:rgb(0%,0%,0%);stroke-opacity:1;stroke-miterlimit:10;" d="M 238.902344 412.464844 C 238.902344 416.0625 233.503906 416.0625 233.503906 412.464844 C 233.503906 408.863281 238.902344 408.863281 238.902344 412.464844 "/>
<path style="fill:none;stroke-width:0.75;stroke-linecap:round;stroke-linejoin:round;stroke:rgb(0%,0%,0%);stroke-opacity:1;stroke-miterlimit:10;" d="M 265.5 389.988281 C 265.5 393.589844 260.101562 393.589844 260.101562 389.988281 C 260.101562 386.390625 265.5 386.390625 265.5 389.988281 "/>
<path style="fill:none;stroke-width:0.75;stroke-linecap:round;stroke-linejoin:round;stroke:rgb(0%,0%,0%);stroke-opacity:1;stroke-miterlimit:10;" d="M 292.101562 383.65625 C 292.101562 387.257812 286.699219 387.257812 286.699219 383.65625 C 286.699219 380.058594 292.101562 380.058594 292.101562 383.65625 "/>
<path style="fill:none;stroke-width:0.75;stroke-linecap:round;stroke-linejoin:round;stroke:rgb(0%,0%,0%);stroke-opacity:1;stroke-miterlimit:10;" d="M 318.699219 362.675781 C 318.699219 366.277344 313.300781 366.277344 313.300781 362.675781 C 313.300781 359.078125 318.699219 359.078125 318.699219 362.675781 "/>
<path style="fill:none;stroke-width:0.75;stroke-linecap:round;stroke-linejoin:round;stroke:rgb(0%,0%,0%);stroke-opacity:1;stroke-miterlimit:10;" d="M 345.300781 343.546875 C 345.300781 347.144531 339.898438 347.144531 339.898438 343.546875 C 339.898438 339.945312 345.300781 339.945312 345.300781 343.546875 "/>
<path style="fill:none;stroke-width:0.75;stroke-linecap:round;stroke-linejoin:round;stroke:rgb(0%,0%,0%);stroke-opacity:1;stroke-miterlimit:10;" d="M 371.898438 321.921875 C 371.898438 325.523438 366.5 325.523438 366.5 321.921875 C 366.5 318.320312 371.898438 318.320312 371.898438 321.921875 "/>
<path style="fill:none;stroke-width:0.75;stroke-linecap:round;stroke-linejoin:round;stroke:rgb(0%,0%,0%);stroke-opacity:1;stroke-miterlimit:10;" d="M 398.496094 294.929688 C 398.496094 298.53125 393.097656 298.53125 393.097656 294.929688 C 393.097656 291.332031 398.496094 291.332031 398.496094 294.929688 "/>
<path style="fill:none;stroke-width:0.75;stroke-linecap:round;stroke-linejoin:round;stroke:rgb(0%,0%,0%);stroke-opacity:1;stroke-miterlimit:10;" d="M 425.097656 281.101562 C 425.097656 284.699219 419.699219 284.699219 419.699219 281.101562 C 419.699219 277.5 425.097656 277.5 425.097656 281.101562 "/>
<path style="fill:none;stroke-width:0.75;stroke-linecap:round;stroke-linejoin:round;stroke:rgb(0%,0%,0%);stroke-opacity:1;stroke-miterlimit:10;" d="M 451.695312 259.691406 C 451.695312 263.289062 446.296875 263.289062 446.296875 259.691406 C 446.296875 256.089844 451.695312 256.089844 451.695312 259.691406 "/>
<path style="fill:none;stroke-width:0.75;stroke-linecap:round;stroke-linejoin:round;stroke:rgb(0%,0%,0%);stroke-opacity:1;stroke-miterlimit:10;" d="M 478.296875 216.996094 C 478.296875 220.597656 472.894531 220.597656 472.894531 216.996094 C 472.894531 213.398438 478.296875 213.398438 478.296875 216.996094 "/>
<path style="fill:none;stroke-width:0.75;stroke-linecap:round;stroke-linejoin:round;stroke:rgb(0%,0%,0%);stroke-opacity:1;stroke-miterlimit:10;" d="M 504.894531 180.605469 C 504.894531 184.207031 499.496094 184.207031 499.496094 180.605469 C 499.496094 177.007812 504.894531 177.007812 504.894531 180.605469 "/>
<path style="fill:none;stroke-width:0.75;stroke-linecap:round;stroke-linejoin:round;stroke:rgb(0%,0%,0%);stroke-opacity:1;stroke-miterlimit:10;" d="M 531.496094 144.890625 C 531.496094 148.492188 526.09375 148.492188 526.09375 144.890625 C 526.09375 141.292969 531.496094 141.292969 531.496094 144.890625 "/>
<path style="fill:none;stroke-width:0.75;stroke-linecap:round;stroke-linejoin:round;stroke:rgb(0%,0%,0%);stroke-opacity:1;stroke-miterlimit:10;" d="M 558.09375 111.089844 C 558.09375 114.691406 552.695312 114.691406 552.695312 111.089844 C 552.695312 107.492188 558.09375 107.492188 558.09375 111.089844 "/>
<path style="fill:none;stroke-width:0.75;stroke-linecap:round;stroke-linejoin:round;stroke:rgb(0%,0%,0%);stroke-opacity:1;stroke-miterlimit:10;" d="M 584.691406 60.347656 C 584.691406 63.949219 579.292969 63.949219 579.292969 60.347656 C 579.292969 56.746094 584.691406 56.746094 584.691406 60.347656 "/>
<path style="fill:none;stroke-width:0.75;stroke-linecap:round;stroke-linejoin:round;stroke:rgb(0%,0%,0%);stroke-opacity:1;stroke-miterlimit:10;" d="M 611.292969 18.074219 C 611.292969 21.675781 605.894531 21.675781 605.894531 18.074219 C 605.894531 14.472656 611.292969 14.472656 611.292969 18.074219 "/>
<path style="fill:none;stroke-width:0.75;stroke-linecap:round;stroke-linejoin:round;stroke:rgb(0%,0%,0%);stroke-opacity:1;stroke-miterlimit:10;" d="M 23.40625 483.492188 L 50.007812 483.5 L 76.605469 483.238281 L 103.207031 482.15625 L 129.804688 480.949219 L 156.402344 477.527344 L 183.003906 474.113281 L 209.601562 469.472656 L 236.203125 469.019531 L 262.800781 465.785156 L 289.402344 462.308594 L 316 459.484375 L 342.597656 456.835938 L 369.199219 452.0625 L 395.796875 446.105469 L 422.398438 443.054688 L 448.996094 436.222656 L 475.597656 426.40625 L 502.195312 418.042969 L 528.792969 409.832031 L 555.394531 402.0625 L 581.992188 390.394531 L 608.59375 380.675781 "/>
<path style="fill:none;stroke-width:0.75;stroke-linecap:round;stroke-linejoin:round;stroke:rgb(0%,0%,0%);stroke-opacity:1;stroke-miterlimit:10;" d="M 23.40625 484.695312 L 50.007812 484.546875 L 76.605469 484.175781 L 103.207031 483.402344 L 129.804688 482.277344 L 156.402344 479.683594 L 183.003906 477.214844 L 209.601562 473.753906 L 236.203125 473.128906 L 262.800781 470.167969 L 289.402344 467.675781 L 316 465.046875 L 342.597656 462.636719 L 369.199219 458.726562 L 395.796875 453.847656 L 422.398438 451.367188 L 448.996094 446.082031 L 475.597656 438.160156 L 502.195312 431.394531 L 528.792969 424.792969 L 555.394531 418.519531 L 581.992188 409.097656 L 608.59375 401.230469 "/>
</g>
</svg>
