<?xml version="1.0" encoding="UTF-8" standalone="no"?>
<svg
   version="1.2"
   width="800"
   height="471"
   viewBox="0 0 800 471"
   stroke-linecap="round"
   stroke-linejoin="round"
   id="svg1"
   sodipodi:docname="districts-core.svg"
   inkscape:version="1.4.4 (dcaf3e7d, 2026-05-05)"
   xmlns:inkscape="http://www.inkscape.org/namespaces/inkscape"
   xmlns:sodipodi="http://sodipodi.sourceforge.net/DTD/sodipodi-0.dtd"
   xmlns="http://www.w3.org/2000/svg"
   xmlns:svg="http://www.w3.org/2000/svg">
  <defs
     id="defs1" />
  <sodipodi:namedview
     id="namedview1"
     pagecolor="#ffffff"
     bordercolor="#000000"
     borderopacity="0.25"
     inkscape:showpageshadow="2"
     inkscape:pageopacity="0.0"
     inkscape:pagecheckerboard="0"
     inkscape:deskcolor="#d1d1d1"
     inkscape:zoom="0.4900404"
     inkscape:cx="243.85744"
     inkscape:cy="507.10105"
     inkscape:window-width="1800"
     inkscape:window-height="1102"
     inkscape:window-x="0"
     inkscape:window-y="39"
     inkscape:window-maximized="0"
     inkscape:current-layer="svg1" />
  <g
     id="state-buffer"
     style="fill:#ffffff;fill-opacity:1">
    <path
       d="m 154.07928,400.53277 -1.46684,-0.8072 -2.73439,-0.87177 -2.83802,-0.3148 -2.85397,0.25023 -2.75033,0.79912 -2.54306,1.3238 -2.24012,1.80004 -4.3527,5.16605 -1.21971,2.01798 -0.1435,0.3471 -0.62978,0.44396 -1.80167,-0.62962 -0.24713,-1.00899 -0.31888,-0.6619 0.74139,-0.29059 2.26404,-1.42873 1.96908,-1.80812 3.22865,-4.27813 1.40307,-3.20456 1.42698,-7.87822 -0.0239,-2.86555 -0.57398,-2.80096 -0.33482,-0.82334 1.04432,-2.59109 0.55804,-3.14806 -0.12755,-3.19649 -0.7972,-3.09963 -1.91327,-3.81803 0.0797,-0.0888 0.63776,-0.26638 0.69356,-0.47624 1.40307,0.60539 0.5102,0.0969 0.27105,0.22601 4.63969,2.42966 2.52711,0.78298 2.61481,0.3148 1.30741,-0.0807 3.30039,1.03321 3.46781,0.22602 2.92572,27.45269 -1.5944,-0.10494 -2.68655,0.33095 z m 339.94885,-24.35307 -4.43242,-4.56872 -2.27201,-1.59017 -2.51915,-1.13815 -2.68655,-0.63768 -2.7583,-0.12108 -2.72642,0.4036 -2.60683,0.9202 -2.39957,1.38838 -1.13202,0.9767 -6.20219,-1.77583 -3.21271,-0.19372 -11.62313,1.92112 -5.73185,1.51753 -4.75927,-1.50946 -2.63872,-0.32288 -2.66264,0.15337 -2.58292,0.64576 -2.43145,1.09778 -2.1923,1.53367 -2.07271,2.09064 -1.64223,2.5023 -1.1081,2.79289 -0.53412,2.95433 0.0558,2.63953 -0.82111,0.79912 -20.86266,10.87292 -2.04082,1.55788 -0.72545,0.79912 -0.2551,0.20987 -2.52712,0.99285 -2.46334,1.60632 -2.09663,2.06642 -2.06474,3.0512 -1.20377,3.03505 -0.51818,3.22878 0.17539,3.2207 0.853,3.1077 0.82111,1.56596 -0.17538,0.76683 -2.27999,-8.24953 -1.45089,-2.77674 -10.8658,-13.19764 -1.53062,-3.64045 -2.38362,-8.08001 -1.69006,-2.97855 -12.58775,-13.62545 -2.35173,-1.71125 -2.63872,-1.20272 -14.62857,-3.43865 -2.71047,-0.12108 -2.68656,0.38746 -8.31477,2.84939 -2.8141,1.75969 -2.35971,2.34086 -0.43048,0.67804 -1.37915,-0.95249 -2.83006,-10.97784 -1.68208,-3.15613 -22.89551,-25.58 -2.08068,-1.62246 -2.32782,-1.21887 -2.51117,-0.78298 -25.76542,-3.13191 -2.86194,0.21794 -2.7583,0.78298 -2.56697,1.29958 -2.26405,1.7839 -1.41901,1.65475 -23.86011,-3.47901 -36.30436,-21.56824 -0.24714,-0.94441 -1.29145,-2.6476 -1.78573,-2.34087 -2.20823,-1.93726 -2.54306,-1.46103 -2.77425,-0.9202 -19.8821,-2.38929 -3.58739,-0.65383 -2.43942,-8.15267 -1.21971,-2.40544 -3.68306,-4.82702 -3.83451,-3.34986 -0.19133,-0.84755 -1.30741,-2.83326 -1.84949,-2.49423 -2.32782,-2.0422 -2.69453,-1.51753 -2.80613,-0.8637 -4.70347,-5.69072 -2.19229,-1.80811 -2.5032,-1.34802 -1.95313,-0.60539 0.0797,-1.39645 -0.27105,-2.49423 -0.69356,-2.41351 -3.26851,-6.85309 -6.83995,-17.75828 -0.31888,-2.23593 1.10013,-1.33994 1.36321,-2.57495 0.84503,-2.78482 0.29496,-2.9059 -0.27105,-2.90591 -0.0957,-0.3148 0.0558,-1.97763 -0.84502,-4.30235 0.0638,-4.03597 -0.47832,-2.75253 -0.97258,-2.61531 -1.43495,-2.3893 -1.85747,-2.06642 -2.200267,-1.68703 -1.809638,-0.90406 -2.694527,-4.97232 1.737891,-13.06041 -0.151468,-2.83325 -0.68559,-2.74447 -1.506703,-3.25299 6.433383,-12.36622 0.813139,-2.72025 1.17188,-11.55096 0.0319,-10.82448 7.49365,-11.55902 12.33265,-30.455456 1.82558,-1.105857 2.12054,-1.937267 1.71398,-2.324721 1.24363,-2.607238 0.6537,-2.574951 2.85396,-0.226015 2.15244,-0.508532 3.93018,-1.582102 1.93719,-1.154288 3.14893,-2.607239 1.69006,-1.993771 1.32334,-2.268217 0.90084,-2.470015 1.83355,-10.307876 4.13746,0.314806 20.07342,5.214478 19.32407,4.609081 10.70635,2.357008 41.69342,8.184954 88.68023,11.494452 74.80102,3.688879 18.51093,0.08072 0.20727,0.258302 2.34376,1.904979 2.67061,1.380303 2.89383,0.807195 16.14324,1.049353 7.1668,3.583944 -3.62724,4.431499 -1.37118,2.566879 -0.853,2.784823 -0.30294,2.9059 0.27105,2.9059 0.81314,2.79289 1.33929,2.58303 1.81761,2.26821 2.21621,1.86462 2.52712,1.39645 2.75033,0.87177 2.86193,0.30673 2.86991,-0.2583 5.69199,-1.69511 3.74683,2.09871 2.65467,0.87984 2.76627,0.35517 2.79019,-0.18566 2.7025,-0.71033 13.92704,-6.71586 0.0718,-0.0565 1.63425,0.46817 2.49523,0.2018 0.47832,0.64576 0.11958,0.11301 -3.73886,8.06387 -0.68559,2.69603 -0.18335,2.77675 0.33482,2.7606 0.83706,2.6476 1.23565,2.30051 -0.3986,1.3803 -2.76627,21.34223 0.0558,2.29243 2.38362,13.35907 2.31985,8.0558 1.01244,2.59917 0.19132,0.85563 1.07622,2.60723 2.20027,3.87454 2.02488,2.29243 2.45536,1.82426 2.76628,1.28344 2.96557,0.66997 3.0453,0.0404 11.30426,-2.23593 2.7583,-1.17043 2.47131,-1.71125 2.07271,-2.1875 4.66361,-7.47462 0.7095,-1.88077 0.42252,-0.72647 0.99649,-3.06734 1.61831,-16.04703 -0.17538,-2.52652 -0.58993,-2.46194 -2.14446,-5.00461 -1.69005,-6.92573 0.67761,-0.24216 0.29497,1.75162 1.0523,2.78482 4.71143,7.50691 2.11258,2.19557 2.5032,1.71125 2.80613,1.16236 1.10013,0.2018 -0.53412,0.94441 -0.7972,2.06642 -0.58195,2.62339 -2.29593,5.65843 -0.55804,2.8494 v 2.89783 l 0.55007,2.85746 1.09216,2.67989 1.58642,2.42158 2.01691,2.06642 8.24302,5.64229 3.24459,1.23501 5.31731,0.66997 10.57084,-1.46102 3.40403,-1.50945 h 0.12755 l 3.1569,-0.69419 2.92572,-1.37223 4.83898,-3.74538 10.68245,-7.49884 9.66203,-7.49884 10.92957,-12.84247 1.36321,-2.36508 0.86097,-2.45387 2.96558,0.008 2.62278,-0.47624 2.5032,-0.95249 14.91556,-9.08094 2.08068,-1.88884 1.69006,-2.25207 1.23566,-2.53459 0.74139,-2.72832 0.90881,-11.63167 2.6148,-3.79382 34.93319,-9.09708 0.78923,-0.37938 -2.96558,12.27743 -0.76531,5.25483 0.0877,5.39206 -0.43845,1.4691 -0.27105,2.89783 0.28699,2.89782 0.12755,0.42782 -0.0558,0.0888 -1.71398,4.16512 -4.27297,1.54174 -7.66904,4.47186 -7.13492,5.68265 -1.83355,2.13907 -1.47482,2.58302 -2.00893,1.85655 -1.80167,2.53459 -1.02041,2.35701 -0.11958,0.2018 -0.89286,2.42158 -0.47035,2.53459 -0.0239,2.57496 0.18336,1.11392 -1.10013,0.19373 -2.75831,1.07357 -2.48725,1.62246 -2.12055,2.09063 -1.66614,2.47809 -1.25957,3.03505 -1.99299,0.75877 -2.36768,1.47716 -2.05677,1.89691 -1.66614,2.26015 -0.1993,0.41166 -1.52265,2.00185 -0.1993,0.41167 -2.53508,1.54981 -2.1923,2.06642 -1.72991,2.47809 -1.21174,2.77675 -0.62182,2.97047 -0.008,2.3893 -0.4544,1.80004 -0.11958,3.06734 0.49426,3.02698 2.9576,7.70871 1.49873,2.40544 1.92125,2.07449 2.27201,1.66282 0.43846,0.20987 -0.44643,1.96956 -0.0957,2.88975 0.46238,2.85747 0.9965,2.70411 1.49873,2.46194 1.92921,2.13099 2.3039,1.70318 4.25704,2.00992 3.9541,-8.57241 -2.08069,10.48546 -0.86097,13.05234 -0.3986,0.2018 -2.29593,1.76775 -6.05073,6.94188 -1.3074,2.13099 -1.75383,4.37499 -2.16041,0.59733 -2.60683,1.3238 -2.29593,1.82426 -1.9053,2.244 -7.23058,13.12498 -6.68052,6.08625 -1.63425,2.16328 -0.1435,0.27445 -10.74622,12.9474 -1.4509,2.73639 -5.60429,19.60676 -0.27105,2.68796 0.74937,9.33117 1.73789,7.03873 1.61831,4.1732 -5.01437,-4.57679 -11.83838,-7.41005 -2.59887,-1.00092 -2.73438,-0.49239 -2.78222,0.0404 -2.71845,0.56504 -2.56697,1.08164 -6.09856,4.05211 -13.37697,-5.36784 -2.47929,-0.51661 -2.52711,-0.0888 -18.66239,2.67182 -13.26536,-0.42782 -19.10882,5.06111 -2.55901,1.25116 -6.81603,5.17411 -2.00894,2.30051 -1.49076,2.67181 -0.92475,2.93012 z m 133.61027,16.65243 5.35716,11.84962 1.55454,2.92204 -0.94069,-0.76683 -2.52712,-1.30766 -0.008,-0.77491 -0.48629,-2.5588 -2.94963,-7.85401 0.0558,-1.02513 z m 95.55207,-304.134799 2.44739,-8.071946 0.0877,-0.710331 1.18782,2.235929 1.92124,2.32472 0.47035,0.37131 z"
       fill-rule="evenodd"
       stroke="rgba(196,18,48,1)"
       stroke-width="80.218"
       fill="rgba(196,18,48,1)"
       id="path1"
       style="fill:#c41230;fill-opacity:1;stroke:#c41230;stroke-opacity:1" />
  </g>
</svg>
