<?xml version="1.0"?>
<svg xmlns="http://www.w3.org/2000/svg" version="1.2" baseProfile="tiny" width="800" height="505" viewBox="0 0 800 505" stroke-linecap="round" stroke-linejoin="round">
<g id="state-buffer">
<path d="M 149.63 441.74 149.94 442.06 151.64 441.7 154.92 441.66 158.14 442.27 161.18 443.5 163.92 445.3 166.25 447.6 172.66 457.06 173.94 460.12 174.59 463.38 174.58 466.7 173.91 469.95 172.61 473 170.73 475.74 168.35 478.05 165.55 479.84 162.46 481.04 150.09 483.17 146.3 482.95 142.66 481.88 129.84 474.66 119.2 473.88 115.44 472.67 113.5 471.49 106.43 476.73 103.53 478.11 100.41 478.9 99.28 478.97 95.7 482.82 76.32 496.24 73.44 497.52 70.36 498.22 67.21 498.34 64.09 497.85 61.12 496.79 58.4 495.19 56.03 493.1 54.1 490.61 52.68 487.79 51.81 484.76 51.53 481.62 52.46 472.41 51.3 471.22 49.61 468.67 49.44 468.28 48.94 468.17 46.01 466.89 43.38 465.07 41.15 462.78 39.39 460.1 38.18 457.14 34.57 439.01 34.55 435.87 35.12 432.77 36.26 429.84 37.93 427.18 40.43 424.5 36.9 415.23 36.35 412.18 36.38 409.08 36.98 406.04 38.14 403.16 39.8 400.55 41.93 398.29 44.43 396.47 46.79 395.34 46.77 393.96 47.46 390.51 48.85 387.28 50.89 384.41 66.73 369.94 69.68 368.19 85.72 362.73 88.66 362.29 91.63 362.38 94.54 362.99 97.29 364.11 104.72 368.83 107.34 368.89 130.79 374.87 133.81 376.34 136.48 378.38 138.69 380.93 140.34 383.86 141.36 387.07 146.96 439 149.63 441.74 Z M 535.58 420.09 529.64 419.9 529.56 420.37 528.39 423.46 526.64 426.26 524.37 428.66 508.12 440.12 505 441.47 491.28 444.32 487.99 444.34 479.41 442.69 476.31 441.41 473.54 439.54 472.25 438.23 470.89 438.67 467.64 439.06 464.37 438.8 452.5 435.43 446.35 436.43 437.21 438.83 436.02 440.48 425.97 450.12 403.46 461.7 400.75 473.22 403.34 484.07 403.47 487.36 402.94 490.61 401.78 493.69 400.04 496.48 397.79 498.88 395.11 500.79 392.1 502.13 388.89 502.86 376.06 503.18 365.76 501.63 348.45 494.15 345.95 492.48 343.79 490.38 342.04 487.93 335.49 473.95 334.7 470.64 334.57 466.34 323.93 453.58 319.57 443.31 318.09 438.38 311.08 431.41 305.75 439.73 303.57 442.03 300.99 443.87 298.11 445.19 295.03 445.94 291.86 446.09 288.72 445.64 285.72 444.6 266.79 433.66 259.11 426.04 257.41 423.62 256.17 420.93 252.77 407.88 247.91 403.44 235.5 388.62 230.2 387.98 228.19 390.26 225.57 392.25 222.6 393.69 219.41 394.51 216.12 394.7 168.3 387.8 165.26 386.74 108.84 353.63 106.39 351.45 106.31 351.34 97.06 350.25 79.44 347.06 76.6 345.99 74 344.42 71.74 342.41 69.87 340.02 68.47 337.32 67.58 334.42 66.94 328.83 64.85 321.95 64.69 321.81 63.32 321.3 60.54 319.57 58.14 317.33 56.24 314.66 55.54 313.12 53.84 312.21 51.35 310.19 46.03 303.82 36.1 300.78 33.29 299.3 30.81 297.3 28.77 294.87 27.22 292.09 26.22 289.08 25.82 285.92 26.45 275.99 24.53 271.62 15.11 247.49 14.54 244.13 14.67 240.73 15.06 239.16 13.57 235.92 12.81 232.42 12.82 222.69 11.14 220.62 9.56 217.51 8.66 214.14 8.34 207.97 4.3 200.6 3.29 197.22 3.01 193.7 5.09 178.35 1.98 171.71 1.21 168.74 1 165.68 1.35 162.63 2.26 159.7 11.86 141.48 12.53 134.98 12.59 118.01 13.21 114.87 14.42 111.91 24.73 96.19 40.75 57.11 40.18 55.44 39.74 52.2 41.81 18.98 42.6 15.91 43.95 13.06 45.82 10.5 48.14 8.35 50.82 6.68 53.78 5.54 56.89 4.99 60.05 5.03 63.15 5.67 66.07 6.88 68.71 8.62 69.53 9.42 69.94 8.61 71.97 6.07 74.44 3.97 77.28 2.38 80.37 1.38 83.6 1 86.84 1.25 110.78 7.95 134.41 14.02 157.4 19.43 160.36 20.78 160.79 21.09 165.65 21.23 213.09 30.43 270.42 38.8 310.87 42.95 365.66 46.3 393.39 46.97 410.24 47.04 412.74 44.79 415.64 43.08 418.82 41.98 422.17 41.55 425.53 41.8 428.77 42.73 431.76 44.28 434.37 46.41 436.51 49.01 438.07 52 438.32 52.85 448.19 53.48 451.36 54.33 468.06 62.57 480.89 60.94 484.3 61.22 487.58 62.18 490.6 63.8 497.63 69.68 499.67 72.22 501.18 75.1 502.1 78.23 502.3 80.43 505.17 80.33 519.39 83.07 522.85 84.6 524.48 85.83 526.62 84.56 529.94 83.44 541.25 82.15 544.27 82.35 559.9 86.34 562.7 87.63 565.2 89.43 567.34 91.65 569.03 94.23 573.26 104.4 579.33 106.88 582.07 108.7 584.4 111.03 586.23 113.76 587.48 116.81 589.76 128.46 591 129.25 598.53 136.52 600.67 139.92 606.54 157.54 606.96 160.45 606.86 163.4 606.78 163.79 608.76 162.42 616.34 156.6 618.17 154.48 617.82 152.45 617.94 149.05 618.75 145.75 620.2 142.67 622.26 139.96 631.31 132.04 633.98 130.47 636.89 129.42 646.27 127.9 650.14 127.92 649.83 125.8 649.97 122.67 650.69 119.62 651.97 116.76 653.77 114.19 658.83 109.25 667.85 96.36 669.93 94.28 672.35 92.61 675.03 91.38 713.56 81.47 718.99 71.99 718.42 60.03 718.86 56.92 725.49 37.64 727.25 34.69 729.58 32.16 732.38 30.16 735.53 28.78 738.9 28.08 742.34 28.08 744.47 28.53 745.7 27.85 748.59 26.88 751.61 26.46 754.66 26.59 757.63 27.28 768.28 31.92 771.21 34.04 773.61 36.75 775.37 39.91 780.34 56.55 781.52 57.14 784.18 59.26 796.18 73.69 797.78 76.71 798.74 79.99 799 83.4 798.56 86.79 797.45 90.02 795.69 92.95 780.36 109.61 777.14 111.78 770.18 114.4 762.87 124.88 760.17 132.09 760.07 132.77 760.07 133.29 760.81 134.31 766.34 147.09 767.02 150.11 767.13 153.21 766.67 156.27 765.65 159.2 764.1 161.88 757.68 169.34 755.26 171.28 754.47 171.7 753.14 173.19 750.45 175.2 743.52 178.45 743.44 179.47 742.6 182.56 741.17 185.43 739.23 187.98 736.83 190.1 729.98 194.14 730.11 196.78 728.13 209.49 726.95 212.65 725.16 215.51 721.51 219.33 721.91 220.29 722.57 223.11 722.73 226 721.35 237.47 720.22 240.76 718.44 243.75 716.07 246.3 713.23 248.31 711.9 248.88 715.16 252.16 717.15 255.38 723.82 275.05 724.24 278.37 723.99 281.7 723.07 284.92 721.53 287.89 719.43 290.5 714.88 294.26 714.45 300.84 713.56 304.08 712.05 307.07 709.97 309.69 707.4 311.85 704.46 313.45 700.1 314.78 696.09 324.64 694.44 327.21 692.36 329.44 689.9 331.24 687.15 332.57 681.65 334.08 679.09 341.66 677.73 344.15 675.98 346.38 668.19 353.39 657.71 365.85 654.09 378.36 654.35 381.54 655.14 384.7 658.31 392.79 663.09 401.15 668.95 408.59 676.91 425.98 687.38 445.4 688.34 448.47 689.14 455.86 690.05 470.95 689.66 474.01 688.72 476.94 686.11 481.77 683.59 488.5 681.67 491.49 679.16 493.99 676.18 495.91 663.96 500.51 660.93 501.04 657.86 501.01 654.84 500.41 651.98 499.27 649.39 497.62 647.14 495.52 639.58 485.27 634.68 481.98 632.68 480.1 631.02 477.91 628.07 472.3 625.56 470.83 623.13 468.69 613.49 456.07 612.02 453.02 611.62 451.44 609.87 449.43 608.29 446.74 607.24 443.79 606.76 440.7 607.11 430.44 607.45 428.95 607.09 427.69 599.66 420.98 599.14 420.66 593.85 424.14 590.9 425.35 587.77 425.98 584.58 426 581.45 425.41 560.88 417.25 557.24 417.15 545.04 420.39 535.58 420.09 Z M 243.45 458.4 248.84 453.63 251.88 451.92 255.2 450.87 258.68 450.54 262.14 450.94 270.48 453.74 272.94 455.06 275.15 456.77 285.48 468.02 287.23 470.97 288.34 474.22 288.77 477.62 288.49 481.04 287.51 484.33 285.89 487.35 281.11 493.02 278.94 494.84 276.49 496.28 257.92 503.23 254.86 503.77 251.75 503.72 248.71 503.09 245.83 501.91 243.22 500.22 240.98 498.07 239.17 495.54 237.86 492.72 233.91 477 233.71 473.98 234.07 470.97 234.96 468.08 236.37 465.39 238.24 463.01 243.45 458.4 Z" fill-rule="evenodd" stroke="rgba(196,18,48,1)" stroke-width="10" fill="rgba(196,18,48,1)"/>
</g>
<g id="nation">
<path d="M 131.09 446.48 144.44 460.16 153.45 458.26 158 464.98 149.15 466.51 134.75 458.39 122.38 457.49 112.61 451.53 97.86 462.44 95.19 459 84.78 470.22 68.18 481.71 68.8 475.6 74.93 465.67 64.26 460.76 60.23 451.33 54.13 452.34 51.14 437.32 58.09 429.86 68.93 429.67 66.32 421.88 56.03 418.88 52.95 410.78 67.35 403.94 63.38 395.46 76.65 383.34 89.66 378.91 101.19 386.23 105.08 385.42 125.06 390.51 131.09 446.48 Z M 543.14 403.74 529.1 403.29 518.26 404.11 511.35 407.94 507.66 410.83 506.29 411.73 513.47 416.06 499.96 425.59 489.52 427.75 484.19 426.73 474.16 416.53 467.32 422.4 453.48 418.48 442.9 420.2 432.77 422.86 431.71 422.77 431.58 422.6 424.07 420.25 423.98 420.33 424.04 423.13 423.47 429.55 416.24 436.48 391.75 449.08 391.5 449.47 386.33 453.61 384.23 453.89 384.18 453.83 383.81 454.37 383.81 454.39 384 454.62 385.47 455.62 385.69 456.08 385.87 456.29 386.69 456.76 387.14 456.89 387.18 456.9 387.54 457.01 383.71 473.25 386.84 486.33 377.09 486.57 370.36 485.56 356.41 479.53 351.22 468.46 350.98 460.13 338.23 444.85 335.18 437.67 332.77 429.6 319.12 416.02 307.49 413.83 301.31 415.93 292.65 429.45 276.94 420.37 271.84 415.31 267.57 398.95 259.91 391.95 247.25 376.69 244 372.94 217.92 369.81 216.86 378.05 203.74 376.31 196.83 375.31 172.26 371.62 118.64 340.16 120.88 336.38 99.52 333.84 83.88 331.02 83.24 325.45 79.72 313.84 77.5 310.97 72.09 306.3 70.68 306.35 69.27 300.23 63.04 298.33 59.15 293.73 55.59 289.41 42.46 285.4 43.26 273.02 39.85 265.27 31.17 243.05 34.97 238.07 29.39 230.65 29.4 219.88 29.53 219.08 31.04 219.51 33.7 224.94 34.37 225.49 33.97 224.15 34.06 221.15 33.12 216.45 33.19 211.73 31.64 211.89 25.12 211.55 24.7 203.32 19.68 194.17 22.17 175.74 17.64 166.07 28.03 146.37 29.11 135.86 29.16 119.66 39.46 103.96 48.12 82.73 55.97 63.7 60.32 63.04 56.39 51.6 58.26 21.58 64.34 27.52 75.9 32.75 80.79 40.66 73.4 49.5 77.41 49.19 79.52 48.35 80.96 47.17 82.09 40.38 85.42 22.37 83.93 17.65 106.48 23.97 130.45 30.12 152.02 35.2 151.53 37.41 163.83 37.76 210.31 46.78 268.38 55.26 309.51 59.47 364.96 62.87 393.16 63.55 416.6 63.65 422.61 58.21 425.62 68.64 445.5 69.92 465.2 79.64 481.27 77.61 485.74 81.34 472.74 88.2 458.94 104.54 470.47 101.15 479.38 106.09 491.79 100.19 503.88 96.96 514.4 98.99 519.02 104.48 527.71 105.13 533.57 99.71 541.63 98.79 554.31 102.02 557.72 110.21 543.74 109.17 522.27 119.45 517.71 130.42 524.6 129.24 519.61 144.47 516.81 165.8 517.45 169.56 519.13 178.61 521.3 186.04 522.18 188.35 522.62 189.4 522.8 190.19 523.07 190.84 524.18 192.76 533.62 190.91 537.11 185.39 537.83 183.5 538.11 183.01 539.62 168.28 537.2 162.71 533.6 148.15 536.42 139.32 537.87 131.98 543.3 129.68 552.76 113.92 571.53 121.6 574.75 138.08 568.22 146.95 571.74 152.5 580.7 142.35 585.57 147.06 590.34 161.38 585.84 168.49 585.6 171.89 582.72 176.93 582.02 180.04 579.5 186.16 585.85 190.46 587.78 190.69 595.32 189.67 600.28 187.5 602.11 187.51 606.44 184.2 618.53 175.82 627.79 168.72 638.04 156.82 634.45 151.32 641.06 145.54 647.57 144.49 656.03 144.52 661.63 143.5 670.26 135.96 666.46 124.96 671.52 120.03 680.59 107.07 701.18 101.73 724.48 95.78 728.34 89.18 735.78 76.02 735.05 60.82 740.61 44.66 745.91 48.44 752.41 43.09 760 46.39 767.31 70.86 772.52 71.17 782.34 82.98 769.48 96.95 759.52 100.7 748.08 117.11 744.02 127.92 743.47 131.68 743.6 139.87 744.01 141.42 743.98 141.47 743.51 141.41 742.82 141.48 743.05 141.55 746.31 142.55 750.51 152.25 746.12 157.36 744.27 154.44 743.76 153.96 741.28 153.13 741.89 160.9 737.12 163.14 726.77 166.82 720.42 170.48 714.52 175.12 713.17 177.45 713.51 178.95 718.52 175.74 727.03 176.63 718.57 181.62 715 182.63 713.33 183.31 711.69 183.56 710.92 182.66 710.76 181.14 709.74 181.82 709.63 181.48 709.46 181.5 709.3 182.25 708.71 183.26 708.83 184 713.2 190.57 713.47 195.91 712.01 205.27 705.46 212.12 694.41 206.06 694.63 205.07 694.63 205.06 694.75 204.58 695.58 202.09 695.5 202.05 693.68 206.39 706.1 225.46 705.1 233.76 699.62 236.11 687.98 228.8 688.37 218.89 684.5 213.3 683.6 215.17 682.45 216.19 683.9 221.32 688.6 235.87 680.65 233.99 676.25 228.31 674.69 228.13 676.85 233.67 677.03 233.34 679.38 234.48 691.6 239.29 693.76 253.64 689.09 253.5 684.92 252.61 688.27 254.18 692.98 257.83 696.15 256.55 702.06 262.5 707.58 278.79 698.81 286.04 698.01 298.08 690.7 300.32 685.85 305.81 681.31 316.98 672.56 319.38 667.42 324.4 663.83 335 655.36 342.63 655.25 343.02 642.77 357.86 642.45 358.72 637.32 376.67 637.93 384.24 639.31 389.75 643.31 399.97 649.31 410.45 654.71 417.3 662.06 433.37 665 438.51 672.03 451.85 672.61 457.25 673.41 470.42 670.99 474.88 668.69 481.02 659.57 484.45 651.21 473.11 645.06 468.98 638.85 457.16 636.53 457.5 635.31 457.33 627.69 447.35 628.47 442.52 625.98 435.98 627 440.07 623.38 439.7 623.62 432.61 624.58 428.5 621.71 418.55 609.65 407.67 598.86 401 586.07 409.41 564.26 400.76 555.3 400.52 543.14 403.74 Z M 676.94 225.2 676.8 221.92 675.29 222.83 676.94 225.2 Z M 250.35 474.42 258.51 467.21 263.88 469.01 272.11 477.97 269.34 481.25 253.56 487.17 250.35 474.42 Z" fill-rule="evenodd" stroke="rgba(255,255,255,1)" stroke-width="2" fill="none"/>
</g>
</svg>