<?xml version="1.0"?>
<svg xmlns="http://www.w3.org/2000/svg" version="1.2" baseProfile="tiny" width="800" height="494" viewBox="0 0 800 494" stroke-linecap="round" stroke-linejoin="round">
<g id="state-buffer">
<path d="M 83.74 440.26 82.68 440.11 79.34 440.28 76.1 441.09 73.07 442.51 70.38 444.48 66.92 448.21 62.93 446.38 61.38 442.74 62.64 442.22 65.37 440.44 67.71 438.18 69.59 435.52 70.94 432.56 71.71 429.39 71.88 426.14 71.44 422.92 67.67 411.65 66.89 410.27 68.58 407.44 69.73 404.25 70.23 400.89 70.07 397.49 69.59 395.53 71.57 393.72 73.88 392.93 80.33 397.03 83.44 398.25 86.73 398.85 90.08 398.8 91.85 398.44 97.18 399.79 100.68 432.33 97.61 432.47 94.28 433.29 91.18 434.75 83.74 440.26 Z M 493.87 405.22 488.6 399.86 485.92 398 482.94 396.67 481.86 396.42 479.77 395.93 476.51 395.79 473.29 396.26 470.96 397.07 470.21 397.33 467.38 398.95 466.04 400.1 458.71 398.02 454.92 397.8 447.28 399.04 441.19 400.03 434.42 401.81 429.8 400.36 428.8 400.05 425.68 399.66 422.54 399.85 419.48 400.6 417.96 401.28 416.61 401.88 414.02 403.67 411.58 406.1 409.64 409.03 408.33 412.28 407.87 414.78 407.7 415.73 407.76 418.81 406.8 419.74 398.75 423.88 382.15 432.42 381.5 432.91 379.74 434.25 379.18 434.86 378.88 435.18 378.58 435.42 375.6 436.58 374.91 437.02 372.69 438.45 370.21 440.86 367.77 444.42 366.35 447.96 365.73 451.73 365.94 455.49 366.95 459.11 367.92 460.94 367.02 464.79 366.29 463.24 366.09 456.21 365.13 452.47 363.37 449.04 352.72 436.26 350.47 433.58 348.67 429.32 346.01 420.44 344.74 417.87 344.4 417.39 343.07 415.53 342.35 414.82 326.59 399.13 323.7 397.22 320.5 395.93 305.2 393.06 302.24 393.01 299.31 393.47 289.62 396.76 286.29 398.81 283.5 401.54 282.33 403.38 282.18 403.3 281.81 402.93 278.13 388.83 276.69 385.83 274.71 383.15 266.34 375.51 257.88 365.39 249.43 355.3 246.9 353.23 244.02 351.67 240.9 350.68 210.38 347.01 207.01 347.27 203.74 348.18 200.72 349.7 198.04 351.78 197.88 351.96 196.37 353.71 169.15 349.79 168.18 349.65 165.39 348.01 160.9 345.37 131.69 328.24 125.3 324.49 125.01 323.39 123.48 320.29 121.37 317.56 118.76 315.3 115.76 313.6 114.04 313.04 112.48 312.53 106.75 311.85 89.14 309.76 89 309.74 84.76 308.98 82.58 301.78 81.88 299.46 80.95 297.66 80.43 296.67 76.09 291.03 71.56 287.12 71.33 286.13 69.79 282.83 67.6 279.92 67.44 279.78 66.12 278.63 64.85 277.53 61.67 275.77 58.35 274.76 52.81 268.12 50.21 266.01 47.26 264.44 45.04 263.76 45.12 262.42 44.98 261.63 44.4 258.34 40.16 248.67 39.92 248.06 34.63 234.51 35.1 233.56 35.26 233.26 36.15 230.17 36.46 226.97 36.17 223.77 35.3 220.68 34.77 219.6 35.5 217.24 35.61 216.09 35.84 213.85 35.52 210.46 35.41 210.1 35.48 207.79 35.17 206.28 34.48 202.77 34.55 198.06 34.08 195.39 34.01 194.94 33.99 194.85 33.42 193.35 32.84 191.8 31.14 189.01 28.95 186.6 26.35 184.63 24.22 183.58 22.79 180.98 21.77 179.12 21.03 177.78 21.09 177.33 23.09 162.55 22.9 159.24 22.33 156.99 22.09 156.04 20.31 152.24 27.91 137.81 28.87 134.64 29.85 125.16 30.26 121.16 30.3 108.54 32.71 104.87 33.92 103.02 35.13 101.18 39.15 95.06 43.33 84.85 52.59 62.27 53.71 59.53 53.97 59.38 55.87 58.24 58.38 55.98 60.4 53.27 61.87 50.22 62.64 47.22 66.01 46.96 68.55 46.37 73.19 44.52 74.57 43.71 75.48 43.17 76.53 42.32 79.21 40.13 81.2 37.8 82.76 35.16 83.83 32.28 86.16 19.34 89.23 20.2 97.67 22.36 111.44 25.9 113.12 26.33 114.64 26.72 114.8 26.75 137.44 31.94 149.92 34.8 149.97 34.81 188.8 42.34 199.16 44.35 260.52 53.31 304.13 57.78 304.17 57.79 362.7 61.37 392.62 62.09 394.06 62.1 414.06 62.18 414.28 62.18 414.52 62.48 417.29 64.71 420.45 66.32 423.87 67.26 442.93 68.49 451.44 72.69 447.2 77.71 445.55 80.7 444.51 83.95 444.13 87.35 444.42 90.75 445.38 94.03 446.95 97.06 449.09 99.73 451.7 101.92 452.9 102.58 454.49 103.45 454.7 103.56 456.34 104.08 457.96 104.59 461.35 104.95 464.76 104.65 471.49 102.67 475.9 105.12 479.04 106.15 482.31 106.56 485.6 106.35 488.8 105.52 501.8 99.33 507.42 97.83 509.04 97.4 510.1 97.61 510.81 98.45 510.76 98.57 506.22 109.51 505.56 112.81 505.54 116.17 505.55 116.22 506.17 119.48 507.43 122.6 508.34 124 507.89 125.39 507.03 131.93 504.58 150.57 504.59 151.03 504.65 153.25 506.58 163.99 506.98 166.17 507.46 168.83 510.2 178.23 510.3 178.48 511.4 181.26 511.62 182.26 512.9 185.31 514.22 187.6 515.5 189.82 517.15 191.67 517.89 192.5 520.79 194.63 524.06 196.12 527.56 196.91 531.08 196.95 531.15 196.96 544.51 194.34 546.19 193.64 547.77 192.98 550.68 190.98 553.14 188.43 555.8 184.22 558.64 179.71 559.48 177.51 559.98 176.67 560.21 175.96 561.16 173.09 562.18 163.02 562.3 161.89 563.07 154.37 562.86 151.42 562.16 148.55 559.63 142.71 557.4 133.68 558.27 130.93 558.2 132.97 558.78 136.4 560.02 139.64 565.59 148.4 565.61 148.42 568.08 150.96 571.05 152.96 574.36 154.31 575.65 154.55 575.02 155.65 574.09 158.06 573.42 161.03 573.4 161.12 570.68 167.72 570.02 171.04 570.02 174.43 570.24 175.53 570.68 177.76 571.97 180.89 573.84 183.72 576.23 186.12 580.76 189.19 585.95 192.7 589.79 194.14 596.07 194.92 605.94 193.58 608.56 193.22 609.25 192.92 611 192.15 612.58 191.46 612.73 191.47 612.82 191.45 616.45 190.66 619.91 189.05 625.63 184.69 631.16 180.85 638.25 175.94 642.43 172.73 649.66 167.19 659.5 155.77 662.57 152.21 664.18 149.44 665.17 146.67 665.2 146.58 668.72 146.59 674.99 145.45 677.66 144.97 679.3 144.35 680.07 144.06 680.57 143.88 683.24 142.28 690.61 135.85 694.72 132.26 696.81 129.54 697.29 128.55 698.32 126.46 699.2 123.15 699.42 119.72 698.96 116.32 697.87 113.17 703.32 105.37 718.81 101.39 734.53 97.35 744.61 94.75 747.53 93.33 742.17 107.61 741.11 114.76 741.22 121.06 740.7 122.77 740.62 123.65 740.38 126.15 740.71 129.53 740.89 130.12 740.24 131.27 740.19 131.42 739.18 134.53 739.13 134.87 733.73 136.79 727.67 140.28 725.93 141.29 724.68 142.01 717.24 147.85 716.24 148.64 714.08 151.13 712.33 154.15 710.21 156.08 709.96 156.31 707.84 159.26 706.63 162.01 706.49 162.26 705.43 165.07 705.04 167.2 704.88 168.03 704.85 171.04 705.06 172.34 703.77 172.56 700.51 173.82 699.41 174.53 697.57 175.71 695.06 178.14 693.09 181.03 691.61 184.58 690.11 185.14 689.26 185.46 686.45 187.18 685.09 188.43 684.03 189.4 682.06 192.03 681.83 192.51 680.03 194.85 679.79 195.33 676.8 197.14 676.3 197.61 674.21 199.55 673.68 200.3 672.16 202.44 670.74 205.68 670.2 208.21 670 209.15 670 209.97 669.99 211.71 669.99 211.93 669.46 214.04 669.31 217.61 669.49 218.73 669.89 221.14 670.04 221.5 670.88 223.68 672.26 227.22 672.93 228.95 673.39 230.14 673.73 230.68 675.16 232.94 677.42 235.36 680.11 237.3 680.63 237.55 680.1 239.85 679.99 243.22 680.54 246.54 680.96 247.68 681.67 249.58 681.71 249.7 683.43 252.5 683.48 252.58 685.77 255.06 688.49 257.05 689.93 257.72 691.76 258.57 696.58 262.32 699.85 263.9 700.34 264.02 699.45 264.76 697.23 267.52 695.62 270.66 695.08 272.64 694.68 274.07 694.49 276.99 693.97 277.26 691.46 279.23 684.38 287.24 682.84 289.73 682.72 290.01 682.07 291.62 681.42 293.22 680.76 294.83 678.46 295.46 675.8 296.7 674.07 297.9 673.4 298.37 672.61 299.13 671.19 300.52 670.15 301.54 665.52 306.06 663.34 309.53 662.25 312.75 660.39 318.24 653.74 324.23 651.8 326.75 651.64 327.08 641.75 338.84 638.94 342.18 637.23 345.37 633.29 358.97 630.61 368.25 630.29 371.38 631.09 381.21 631.18 382.27 631.69 384.33 633.23 390.48 635.14 395.35 629.22 390 621.22 385.06 615.23 381.36 612.16 380.19 608.93 379.62 606.1 379.66 605.65 379.67 602.43 380.33 599.4 381.58 592.2 386.32 591.79 386.16 582.71 382.56 576.38 380.05 573.41 379.44 567.81 379.29 560.11 379.08 560.05 379.07 556.31 380.07 547.4 382.43 540.03 382.19 534.35 382.01 532.61 382.14 520.25 383.08 516.67 384.15 512.5 386.46 507.79 389.07 506.78 389.63 499.2 395.31 496.93 397.83 496.82 398.01 495.19 400.75 494.06 403.95 493.87 405.22 Z M 651.66 424.61 651.79 424.89 654.09 429.92 657.98 438.43 659.82 441.84 658.71 440.95 655.72 439.43 655.71 438.52 655.14 435.53 654.3 433.33 651.65 426.37 651.72 425.17 651.69 424.92 651.66 424.61 Z M 762.21 72.04 766.24 64.98 767.31 61.87 767.61 59.75 768.92 62.18 771.19 64.89 772.64 66.04 767.47 67.98 764.52 69.83 762.21 72.04 Z" fill-rule="evenodd" stroke="rgba(0,0,0,1)" fill="none"/>
</g>
<g id="buffer">
<path d="M 83.74 440.26 82.68 440.11 79.34 440.28 76.1 441.09 73.07 442.51 70.38 444.48 66.92 448.21 62.93 446.38 61.38 442.74 62.64 442.22 65.37 440.44 67.71 438.18 69.59 435.52 70.94 432.56 71.71 429.39 71.88 426.14 71.44 422.92 67.67 411.65 66.89 410.27 68.58 407.44 69.73 404.25 70.23 400.89 70.07 397.49 69.59 395.53 71.57 393.72 73.88 392.93 80.33 397.03 83.44 398.25 86.73 398.85 90.08 398.8 91.85 398.44 97.18 399.79 100.68 432.33 97.61 432.47 94.28 433.29 91.18 434.75 83.74 440.26 Z M 111.44 25.9 110.54 28.53 105.85 47.04 99.51 50.97 99.25 51.21 99.05 51.5 98.91 51.82 98.84 52.16 98.84 52.51 101.03 63.5 86.02 64.42 69.93 60.69 69.6 60.68 69.26 60.73 69.03 60.82 68.95 60.85 68.66 61.02 68.41 61.25 68.12 61.64 62.43 69.35 62.27 69.73 56.21 84.04 56.14 84.39 56.15 84.75 56.22 85.09 56.37 85.42 56.57 85.71 56.84 85.95 57.14 86.13 64.66 88.73 59.61 95.38 54 94 53.34 93.84 52.99 93.83 52.65 93.88 52.33 94 52.04 94.18 51.78 94.42 47.78 100.02 35.13 101.18 39.15 95.06 43.33 84.85 52.59 62.27 53.71 59.53 53.97 59.38 55.87 58.24 58.38 55.98 60.4 53.27 61.87 50.22 62.64 47.22 66.01 46.96 68.55 46.37 73.19 44.52 74.57 43.71 75.48 43.17 76.53 42.32 79.21 40.13 81.2 37.8 82.76 35.16 83.83 32.28 86.16 19.34 89.23 20.2 97.67 22.36 111.44 25.9 Z" fill-rule="evenodd" stroke="none" fill="rgba(196,18,48,0.5)"/>
<path d="M 169.15 349.79 160.42 339.45 161.66 340 176.62 342.2 176.96 342.18 177.29 342.1 177.59 341.95 177.87 341.75 184.91 334.06 191.97 338.4 192.29 338.52 192.63 338.57 192.97 338.56 193.31 338.48 193.62 338.33 193.89 338.13 194.12 337.87 194.3 337.58 194.42 337.25 195.84 327.33 201.46 326.27 202.21 326.13 202.54 325.99 202.84 325.79 203.09 325.53 203.28 325.22 203.4 324.88 206.96 299.19 214.35 298.07 233.2 300.45 237.18 302.57 237.55 302.67 237.94 302.68 238.37 302.61 246.72 301.08 250.57 307.06 250.81 307.3 251.09 307.5 251.41 307.63 251.74 307.7 252.08 307.71 263.84 305.5 280.38 307.04 281.91 317.56 281.55 333.84 277.82 333.9 277.47 333.98 277.15 334.12 264.85 343.03 264.63 343.26 264.46 343.53 264.33 343.83 264.27 344.14 264.26 344.46 264.29 344.64 264.32 344.78 264.43 345.08 268.73 352.32 268.93 352.56 269.18 352.75 269.45 352.9 269.75 352.99 294.7 356.47 294.76 356.48 295.11 356.46 295.45 356.37 295.77 356.21 296.05 355.99 296.27 355.71 296.44 355.4 296.54 355.06 299.79 315.98 299.79 315.94 302.77 283.84 345.41 286.33 343.9 322.15 343.96 322.5 344.09 322.83 344.28 323.13 344.53 323.39 344.83 323.59 357.49 328.66 357.83 328.72 358.17 328.72 358.5 328.64 358.82 328.51 359.1 328.31 359.34 328.07 359.53 327.77 365.21 318.93 375.91 319.22 376.25 319.16 376.57 319.04 376.86 318.85 377.1 318.61 377.3 318.33 377.44 318.02 377.51 317.69 377.67 308.85 385.73 307.57 389.08 308.83 388.98 316.47 389.04 316.79 389.16 317.11 389.34 317.39 389.57 317.63 389.85 317.83 390.15 317.96 390.47 318.04 399.59 318.43 401.02 318.49 401.36 318.43 401.67 318.32 401.96 318.15 402.21 317.92 402.41 317.65 402.56 317.34 402.64 317.02 402.66 316.68 400.85 303.57 406.95 300.17 414.21 300.17 414.55 300.1 414.88 299.96 415.17 299.76 415.41 299.5 415.6 299.2 415.72 298.87 415.77 298.52 415.75 298.17 415.66 297.83 410.33 287.06 410.34 278.03 427.99 277.9 428.12 286.04 428.19 286.37 428.32 286.68 428.52 286.97 428.76 287.2 429.05 287.39 429.37 287.51 429.71 287.57 430.07 287.56 450.2 287.15 450.22 287.15 458.24 286.91 497.53 285.03 503.45 292.75 496.03 311.99 495.97 312.34 495.98 312.68 496.06 313.02 496.2 313.33 496.41 313.61 496.66 313.85 496.96 314.03 497.29 314.14 497.63 314.19 497.85 314.18 502.12 313.93 502.45 313.84 502.76 313.7 503.03 313.49 503.25 313.24 503.43 312.94 503.73 312.08 504.24 310.61 515.06 304.62 523.2 305.35 523.49 305.33 537.55 301.8 548.33 301.86 548.69 301.79 549.02 301.64 549.32 301.43 549.56 301.16 549.75 300.85 549.86 300.5 551.02 290.1 551.3 290.16 551.63 290.16 551.96 290.1 552.27 289.98 552.55 289.8 552.79 289.57 552.84 289.5 552.99 289.3 553.12 289 564.57 292.06 577.44 292.01 571.5 305.71 571.43 306.03 571.42 306.37 571.43 306.41 571.48 306.69 571.59 307 571.76 307.29 571.99 307.53 572.25 307.73 572.55 307.88 572.87 307.96 573.2 307.98 586.5 306.34 591.46 305.73 591.79 305.62 592.1 305.44 592.36 305.2 592.57 304.91 593.1 303.75 596.86 295.41 600.75 293.06 616.94 283.08 624.02 276.92 625.77 280.91 625.97 281.19 626.23 281.43 626.52 281.62 627.44 281.95 634.04 284.36 642.93 287.66 643.36 289 643.54 289.31 643.77 289.58 644.87 290.4 645.02 290.47 645.2 290.56 645.57 290.64 645.94 290.64 646.31 290.56 655.2 286.48 669.86 295.66 671.19 300.52 670.15 301.54 665.52 306.06 663.34 309.53 662.25 312.75 660.39 318.24 653.74 324.23 651.8 326.75 651.64 327.08 641.75 338.84 638.94 342.18 637.23 345.37 633.29 358.97 630.61 368.25 630.29 371.38 631.09 381.21 631.18 382.27 631.69 384.33 633.23 390.48 635.14 395.35 629.22 390 621.22 385.06 615.23 381.36 612.16 380.19 608.93 379.62 606.1 379.66 605.65 379.67 602.43 380.33 599.4 381.58 592.2 386.32 591.79 386.16 582.71 382.56 576.38 380.05 573.41 379.44 567.81 379.29 560.11 379.08 560.05 379.07 556.31 380.07 547.4 382.43 540.03 382.19 534.35 382.01 532.61 382.14 520.25 383.08 516.67 384.15 512.5 386.46 507.79 389.07 506.78 389.63 499.2 395.31 496.93 397.83 496.82 398.01 495.19 400.75 494.06 403.95 493.87 405.22 488.6 399.86 485.92 398 482.94 396.67 481.86 396.42 479.77 395.93 476.51 395.79 473.29 396.26 470.96 397.07 470.21 397.33 467.38 398.95 466.04 400.1 458.71 398.02 454.92 397.8 447.28 399.04 441.19 400.03 434.42 401.81 429.8 400.36 428.8 400.05 425.68 399.66 422.54 399.85 419.48 400.6 417.96 401.28 416.61 401.88 414.02 403.67 411.58 406.1 409.64 409.03 408.33 412.28 407.87 414.78 407.7 415.73 407.76 418.81 406.8 419.74 398.75 423.88 382.15 432.42 381.5 432.91 379.74 434.25 379.18 434.86 378.88 435.18 378.58 435.42 375.6 436.58 374.91 437.02 372.69 438.45 370.21 440.86 367.77 444.42 366.35 447.96 365.73 451.73 365.94 455.49 366.95 459.11 367.92 460.94 367.02 464.79 366.29 463.24 366.09 456.21 365.13 452.47 363.37 449.04 352.72 436.26 350.47 433.58 348.67 429.32 346.01 420.44 344.74 417.87 344.4 417.39 343.07 415.53 342.35 414.82 326.59 399.13 323.7 397.22 320.5 395.93 305.2 393.06 302.24 393.01 299.31 393.47 289.62 396.76 286.29 398.81 283.5 401.54 282.33 403.38 282.18 403.3 281.81 402.93 278.13 388.83 276.69 385.83 274.71 383.15 266.34 375.51 257.88 365.39 249.43 355.3 246.9 353.23 244.02 351.67 240.9 350.68 210.38 347.01 207.01 347.27 203.74 348.18 200.72 349.7 198.04 351.78 197.88 351.96 196.37 353.71 169.15 349.79 Z M 651.66 424.61 651.79 424.89 654.09 429.92 657.98 438.43 659.82 441.84 658.71 440.95 655.72 439.43 655.71 438.52 655.14 435.53 654.3 433.33 651.65 426.37 651.72 425.17 651.69 424.92 651.66 424.61 Z" fill-rule="evenodd" stroke="none" fill="rgba(196,18,48,0.5)"/>
<path d="M 137.17 308.16 144.35 270.79 154.91 267.36 155.2 267.2 155.46 266.99 155.67 266.74 155.82 266.44 155.92 266.13 155.96 265.8 155.03 253.89 154.98 253.32 154.9 253 154.76 252.71 154.56 252.45 154.33 252.23 154.05 252.06 153.75 251.94 137 248.84 142.43 220.63 142.84 218.45 142.84 218.11 142.77 217.78 142.64 217.46 142.45 217.18 142.21 216.94 141.93 216.75 141.62 216.62 141.44 216.59 128.08 213.95 117.07 202.29 116.78 202.09 116.47 201.95 95.52 197.3 87.53 197.22 74.55 192.77 74.19 192.73 73.82 192.76 73.47 192.87 73.15 193.05 63.92 201.33 58.97 193.93 59.98 184.4 59.94 184.04 59.83 183.69 59.64 183.38 59.4 183.1 59.11 182.89 58.68 182.7 49.9 178.78 49.56 178.7 49.2 178.7 43.37 179.82 21.25 177.32 21.09 177.33 23.09 162.55 22.9 159.24 22.33 156.99 22.09 156.04 20.31 152.24 27.91 137.81 28.87 134.64 29.85 125.16 30.26 121.16 30.3 108.54 32.71 104.87 49.08 103.38 49.43 103.26 49.75 103.08 50.03 102.83 53.82 97.52 60.05 99.06 60.39 99.07 60.72 99.02 61.04 98.91 61.33 98.74 61.58 98.51 68.96 88.79 69.1 88.49 69.19 88.18 69.22 87.85 69.18 87.52 69.09 87.21 68.94 86.92 68.73 86.67 68.48 86.45 68.2 86.29 60.19 83.52 65.46 71.08 70.42 64.35 85.73 67.9 103.38 66.82 103.7 66.74 104 66.6 104.27 66.41 104.49 66.17 104.67 65.89 104.79 65.58 104.8 65.51 104.85 65.26 104.84 64.93 102.5 53.19 108.41 49.53 108.66 49.31 108.85 49.04 109 48.73 113.86 29.51 114.8 26.75 137.44 31.94 149.92 34.8 149.97 34.81 188.8 42.34 199.16 44.35 260.52 53.31 304.13 57.78 304.17 57.79 362.7 61.37 392.62 62.09 394.06 62.1 414.06 62.18 414.28 62.18 414.52 62.48 417.29 64.71 420.45 66.32 423.87 67.26 442.93 68.49 451.44 72.69 447.2 77.71 445.55 80.7 444.51 83.95 444.13 87.35 444.42 90.75 445.38 94.03 446.95 97.06 449.09 99.73 451.7 101.92 452.9 102.58 449.5 105.82 449.31 106.08 449.17 106.37 449.09 106.68 449.07 107 450.25 116.93 449.31 116.71 447.02 116.76 446.1 116.79 445.78 116.86 445.47 116.99 445.2 117.18 444.97 117.41 444.78 117.69 444.65 117.99 444.58 118.32 444.58 118.65 444.87 120.28 445.44 123.5 445.56 123.81 445.61 123.9 445.73 124.09 445.96 124.34 446.23 124.53 446.53 124.67 446.85 124.76 451.3 125.02 451.66 126.73 451.81 127.05 452.01 127.34 452.18 127.5 452.27 127.58 463.53 134.42 472.92 144.21 473.26 147.04 443.24 148.21 442.91 148.29 442.6 148.43 442.33 148.62 442.09 148.87 441.91 149.16 441.79 149.47 441.74 149.81 441.74 149.95 442.03 161.56 442.1 161.89 442.24 162.21 442.44 162.48 442.69 162.72 442.98 162.9 443.29 163.02 443.63 163.08 449.01 162.94 452.6 179.59 446.39 179.77 435.49 180.03 429.17 173.84 428.9 173.65 428.59 173.53 428.27 173.46 427.94 173.45 427.61 173.51 427.3 173.63 427.02 173.81 426.78 174.03 426.59 174.3 426.44 174.6 426.36 174.92 425.62 187.14 420.56 187.18 420.25 187.24 419.95 187.36 419.68 187.53 419.44 187.75 419.25 188.01 415.84 195.05 415.75 195.45 415.95 205.09 411.88 205.05 411.59 205.1 411.55 205.11 411.24 205.23 410.95 205.41 410.71 205.64 410.52 205.91 410.38 206.22 410.3 206.54 410.29 206.88 410.34 207.21 410.45 207.52 416.73 218.09 417.17 218.82 420.2 227.75 420.39 228.06 427.54 235.84 427.55 237.42 427.63 247.47 427.65 249.23 427.87 269.26 427.94 269.57 428.06 269.87 428.23 270.14 428.44 270.37 428.7 270.56 428.99 270.71 429.3 270.79 429.63 270.82 444.72 272.11 445.08 272.07 452.86 269.44 456.24 271.19 454.43 273.08 454.25 273.37 454.13 273.68 454.07 274.01 454.07 274.35 456.04 283.52 450.13 283.69 431.55 284.07 431.43 275.96 431.36 275.63 431.22 275.32 431.03 275.04 430.79 274.8 430.5 274.62 430.19 274.49 429.86 274.43 429.68 274.43 409.17 274.58 408.42 274.59 408.09 274.66 407.78 274.79 407.5 274.98 407.26 275.22 407.07 275.5 406.94 275.81 406.88 276.15 406.88 276.28 406.87 287.66 406.96 288.05 408.06 290.27 411.25 296.71 406.83 296.71 406.35 296.71 406.06 296.76 405.78 296.86 399 300.64 397.98 301.21 397.72 301.43 397.51 301.71 397.35 302.02 397.26 302.35 397.24 302.7 398.93 314.93 392.47 314.66 392.55 307.48 392.49 307.13 392.35 306.8 392.15 306.51 391.9 306.27 391.6 306.08 386.38 304.11 386.09 304.06 385.79 304.05 384.23 304.3 375.52 305.68 375.2 305.81 374.9 305.99 374.65 306.23 374.45 306.51 374.31 306.82 374.23 307.16 374.08 315.71 364.15 315.44 363.8 315.51 363.47 315.64 363.18 315.84 362.93 316.09 357.29 324.85 347.42 320.89 348.95 284.6 348.9 284.27 348.78 283.95 348.61 283.66 348.38 283.41 348.11 283.21 347.81 283.06 347.48 282.98 301.33 280.29 301.14 280.28 300.81 280.32 300.49 280.43 300.2 280.59 299.95 280.81 299.74 281.07 299.59 281.37 299.49 281.69 296.34 315.68 293.25 352.78 271.2 349.7 268.29 344.81 278.6 337.35 283.44 337.26 283.76 337.19 284.07 337.06 284.34 336.88 284.58 336.65 284.77 336.37 284.9 336.07 284.97 335.74 285.38 317.35 283.58 305.03 283.47 304.72 283.31 304.43 283.09 304.18 282.83 303.98 282.53 303.83 282.22 303.73 263.68 302.01 252.76 304.06 248.91 298.09 248.67 297.85 248.39 297.66 248.08 297.52 247.75 297.45 247.41 297.44 238.1 299.14 234.4 297.17 234.1 297.07 214.3 294.58 205.67 295.89 205.01 295.99 204.71 296.09 204.43 296.25 204.19 296.45 203.99 296.7 203.83 296.98 203.73 297.28 200.17 322.99 193.81 324.19 193.47 324.32 193.18 324.53 192.93 324.79 192.74 325.09 192.61 325.43 191.39 333.98 185.36 330.27 185.04 330.15 184.7 330.1 184.36 330.11 184.02 330.19 183.71 330.34 183.44 330.54 176.05 338.62 162.63 336.64 155.61 333.57 152.82 327.02 153.6 326.44 155.56 324.96 155.65 324.88 155.88 324.64 156.06 324.35 156.18 324.03 156.24 323.7 156.24 323.66 156.23 323.36 156.16 323.03 156.02 322.72 155.82 322.44 154.88 321.36 157.85 312.92 157.85 312.89 157.9 312.57 157.87 312.21 157.78 311.87 157.61 311.56 157.39 311.28 157.12 311.06 156.8 310.9 156.46 310.8 156.11 310.77 149.19 311.66 137.17 308.16 Z" stroke="none" fill="rgba(196,18,48,0.5)"/>
<path d="M 151.6 323.61 150.84 322.8 150.56 322.61 150.24 322.47 149.9 322.39 149.56 322.39 149.5 322.4 149.27 322.44 149.22 322.45 148.9 322.58 148.61 322.77 148.36 323.01 148.17 323.3 148.04 323.62 147.97 323.96 147.97 324.3 148.04 324.64 148.37 325.4 152.75 335.68 152.89 335.9 160.9 345.37 131.69 328.24 125.3 324.49 125.01 323.39 123.48 320.29 121.37 317.56 118.76 315.3 115.76 313.6 114.04 313.04 112.48 312.53 106.75 311.85 89.14 309.76 89 309.74 84.76 308.98 82.58 301.78 81.88 299.46 80.95 297.66 80.43 296.67 76.09 291.03 71.56 287.12 71.33 286.13 69.79 282.83 67.6 279.92 67.44 279.78 66.12 278.63 64.85 277.53 61.67 275.77 58.35 274.76 52.81 268.12 50.21 266.01 47.26 264.44 45.04 263.76 45.12 262.42 44.98 261.63 44.4 258.34 40.16 248.67 39.92 248.06 34.63 234.51 35.1 233.56 35.26 233.26 36.15 230.17 36.46 226.97 36.17 223.77 35.3 220.68 34.77 219.6 35.5 217.24 35.61 216.09 35.84 213.85 35.52 210.46 35.41 210.1 35.48 207.79 35.17 206.28 34.48 202.77 34.55 198.06 34.08 195.39 34.01 194.94 33.99 194.85 33.42 193.35 32.84 191.8 31.14 189.01 28.95 186.6 26.35 184.63 24.22 183.58 22.79 180.98 42.44 183.19 43.38 183.3 43.64 183.29 49.15 182.23 56.38 185.46 55.45 194.34 55.47 194.64 55.54 194.94 55.67 195.21 55.79 195.4 62.24 205.04 62.47 205.28 62.74 205.47 63.04 205.6 63.37 205.67 63.7 205.68 64.02 205.63 64.33 205.51 64.55 205.39 64.62 205.35 74.57 196.43 86.8 200.63 87.08 200.68 95.12 200.76 115.03 205.18 126.06 216.86 126.36 217.06 126.69 217.2 139.09 219.65 133.24 250.06 133.24 250.41 133.31 250.74 133.44 251.06 133.63 251.34 133.88 251.58 134.17 251.76 134.48 251.89 134.65 251.92 151.65 255.07 152.39 264.54 142.14 267.87 141.82 268.06 141.54 268.31 141.33 268.61 141.18 268.95 133.44 309.21 133.44 309.53 133.5 309.84 133.61 310.14 133.78 310.42 133.99 310.65 134.25 310.85 134.53 310.99 148.74 315.14 149.09 315.17 149.53 315.11 153.59 314.58 151.28 321.16 151.27 321.19 151.25 321.27 151.23 321.34 151.19 321.61 151.2 321.95 151.27 322.28 151.41 322.59 151.61 322.86 152 323.31 151.6 323.61 Z" stroke="none" fill="rgba(196,18,48,0.5)"/>
<path d="M 670.2 208.21 667.37 208.52 667.06 208.61 666.77 208.77 666.51 208.97 659.25 217.47 655.41 215.16 655.11 215.05 654.8 215 654.48 215 654.17 215.06 653.87 215.18 653.6 215.35 653.36 215.57 645.99 225.54 633.74 216.15 633.42 216 633.08 215.91 632.72 215.89 623.66 217.36 629.56 210.75 629.73 210.45 632.05 203.69 632.09 203.37 632.08 203.04 632 202.72 631.87 202.43 631.68 202.16 631.45 201.93 631.17 201.75 630.57 201.5 618.59 196.5 612.82 191.45 616.45 190.66 619.91 189.05 625.63 184.69 631.16 180.85 638.25 175.94 642.43 172.73 649.66 167.19 659.5 155.77 662.57 152.21 664.18 149.44 665.17 146.67 665.2 146.58 668.72 146.59 674.99 145.45 677.66 144.97 679.3 144.35 680.07 144.06 680.57 143.88 683.24 142.28 690.61 135.85 694.72 132.26 696.81 129.54 697.29 128.55 698.32 126.46 699.2 123.15 699.42 119.72 698.96 116.32 697.87 113.17 703.32 105.37 718.81 101.39 734.53 97.35 744.61 94.75 747.53 93.33 742.17 107.61 741.11 114.76 741.22 121.06 740.7 122.77 740.62 123.65 740.38 126.15 740.71 129.53 740.89 130.12 740.24 131.27 740.19 131.42 739.18 134.53 739.13 134.87 733.73 136.79 727.67 140.28 725.93 141.29 724.68 142.01 717.24 147.85 716.24 148.64 714.08 151.13 712.33 154.15 710.21 156.08 709.96 156.31 707.84 159.26 706.63 162.01 706.49 162.26 705.43 165.07 705.04 167.2 704.88 168.03 704.85 171.04 705.06 172.34 703.77 172.56 700.51 173.82 699.41 174.53 697.57 175.71 695.06 178.14 693.09 181.03 691.61 184.58 690.11 185.14 689.26 185.46 686.45 187.18 685.09 188.43 684.03 189.4 682.06 192.03 681.83 192.51 680.03 194.85 679.79 195.33 676.8 197.14 676.3 197.61 674.21 199.55 673.68 200.3 672.16 202.44 670.74 205.68 670.2 208.21 Z M 672.26 227.22 669.12 227.23 670.88 223.68 672.26 227.22 Z M 681.19 289.45 682.64 285.29 684.93 275.38 685.01 274.72 686.07 265.61 686.05 265.28 685.96 264.97 685.83 264.68 685.64 264.42 685.4 264.2 680.86 261.27 682.98 260.86 683.28 260.74 683.55 260.57 683.79 260.35 683.98 260.08 684.12 259.79 684.21 259.47 684.23 259.15 684.19 258.86 683.43 252.5 683.48 252.58 685.77 255.06 688.49 257.05 689.93 257.72 691.76 258.57 696.58 262.32 699.85 263.9 700.34 264.02 699.45 264.76 697.23 267.52 695.62 270.66 695.08 272.64 694.68 274.07 694.49 276.99 693.97 277.26 691.46 279.23 684.38 287.24 682.84 289.73 682.72 290.01 681.19 289.45 Z M 762.21 72.04 766.24 64.98 767.31 61.87 767.61 59.75 768.92 62.18 771.19 64.89 772.64 66.04 767.47 67.98 764.52 69.83 762.21 72.04 Z" fill-rule="evenodd" stroke="none" fill="rgba(196,18,48,0.5)"/>
<path d="M 445.44 159.57 445.24 151.59 475.44 150.42 475.54 150.39 475.79 150.33 476.11 150.17 476.4 149.95 476.63 149.68 476.8 149.37 476.9 149.02 476.94 148.67 476.26 143.04 476.14 142.69 475.94 142.37 465.71 131.7 454.85 125.1 454.44 123.18 454.37 122.85 454.24 122.55 454.07 122.28 453.84 122.05 453.58 121.86 453.29 121.73 452.97 121.65 452.52 121.62 448.58 121.39 448.37 120.19 448.94 120.18 452.01 120.92 452.34 120.94 452.44 120.92 452.67 120.89 452.99 120.78 453.28 120.61 453.53 120.39 453.73 120.12 453.88 119.82 453.97 119.5 453.99 119.16 452.63 107.62 456.34 104.08 457.96 104.59 461.35 104.95 464.76 104.65 471.49 102.67 475.9 105.12 479.04 106.15 482.31 106.56 485.6 106.35 488.8 105.52 501.8 99.33 507.42 97.83 509.04 97.4 510.1 97.61 510.81 98.45 510.76 98.57 506.22 109.51 505.56 112.81 505.54 116.17 505.55 116.22 506.17 119.48 507.43 122.6 508.34 124 507.89 125.39 507.03 131.93 504.58 150.57 504.59 151.03 504.65 153.25 506.58 163.99 506.98 166.17 507.46 168.83 510.2 178.23 510.3 178.48 511.4 181.26 511.62 182.26 512.9 185.31 514.22 187.6 515.5 189.82 517.15 191.67 517.89 192.5 520.79 194.63 524.06 196.12 527.56 196.91 531.08 196.95 531.15 196.96 544.51 194.34 546.19 193.64 547.77 192.98 550.68 190.98 553.14 188.43 555.8 184.22 558.64 179.71 559.48 177.51 559.98 176.67 560.21 175.96 561.16 173.09 562.18 163.02 562.3 161.89 563.07 154.37 562.86 151.42 562.16 148.55 559.63 142.71 557.4 133.68 558.27 130.93 558.2 132.97 558.78 136.4 560.02 139.64 565.59 148.4 565.61 148.42 568.08 150.96 571.05 152.96 574.36 154.31 575.65 154.55 575.02 155.65 574.09 158.06 573.42 161.03 573.4 161.12 570.68 167.72 570.02 171.04 570.02 174.43 570.24 175.53 570.68 177.76 571.97 180.89 573.84 183.72 576.23 186.12 580.76 189.19 585.95 192.7 589.79 194.14 596.07 194.92 605.94 193.58 608.56 193.22 609.25 192.92 616.62 199.38 616.86 199.53 628.2 204.26 626.63 208.84 626.08 209.45 617.72 218.82 617.55 219.1 617.44 219.41 617.39 219.73 617.4 220.06 617.47 220.38 617.6 220.68 617.78 220.96 618.01 221.19 618.11 221.26 618.28 221.37 618.59 221.5 618.91 221.57 619.24 221.58 632.37 219.46 645.42 229.46 645.73 229.61 646.06 229.7 646.4 229.72 646.74 229.67 647.07 229.55 647.37 229.38 647.62 229.15 655.12 219.02 657.91 220.71 658.87 221.28 659.2 221.39 659.54 221.44 659.89 221.42 660.22 221.33 660.54 221.18 660.81 220.96 668.59 211.86 669.99 211.71 669.99 211.93 669.46 214.04 669.31 217.61 669.49 218.73 669.08 219.55 664.69 228.35 664.6 228.69 664.58 229.04 664.64 229.39 664.76 229.72 664.94 230.02 665.19 230.28 665.41 230.43 665.48 230.48 665.8 230.62 666.15 230.69 673.73 230.68 675.16 232.94 677.42 235.36 680.11 237.3 680.63 237.55 680.1 239.85 679.99 243.22 680.54 246.54 680.96 247.68 679.91 249.02 679.76 249.32 679.67 249.65 679.64 249.99 680.58 257.8 675.8 258.72 675.49 258.85 675.2 259.04 674.96 259.28 674.77 259.57 674.63 259.88 674.57 260.22 674.57 260.57 674.6 260.69 674.64 260.9 674.78 261.22 674.97 261.5 675.22 261.74 682.49 266.44 681.52 274.79 679.31 284.33 678.93 285.41 677.31 290.08 677.27 290.41 677.28 290.75 677.37 291.07 677.51 291.38 677.71 291.65 677.96 291.88 678.25 292.05 681.42 293.22 680.76 294.83 678.46 295.46 675.8 296.7 674.07 297.9 672.98 293.94 672.84 293.65 672.65 293.39 672.41 293.17 671.87 292.84 656.11 282.96 655.78 282.84 655.55 282.8 655.44 282.78 655.1 282.79 654.77 282.87 646.28 286.77 645.92 285.65 645.77 285.38 645.58 285.13 645.34 284.93 645.07 284.77 644.27 284.47 635.67 281.27 635.23 281.11 628.57 278.68 626.17 273.23 625.99 272.96 625.76 272.73 625.49 272.55 625.35 272.49 625.19 272.42 624.87 272.35 624.55 272.34 624.23 272.39 623.92 272.5 623.64 272.66 614.88 280.28 599.09 290.02 598.95 290.11 594.46 292.82 594.21 293.05 594 293.33 593.85 293.68 589.89 302.44 575.95 304.16 581.74 290.81 581.81 290.47 581.82 290.12 581.75 289.79 581.62 289.47 581.44 289.18 581.35 289.09 581.19 288.93 580.91 288.74 580.59 288.61 580.25 288.54 565.02 288.6 552.48 285.24 551.1 284.87 550.76 284.85 550.41 284.9 550.09 285.01 549.79 285.18 549.54 285.41 549.33 285.69 549.18 286 549.1 286.33 549.1 286.35 548.97 286.38 548.64 286.52 548.35 286.74 548.11 287 547.93 287.32 547.81 287.66 547.73 288.37 546.62 298.39 537.19 298.34 537.13 298.34 523.07 301.86 514.67 301.11 514.33 301.15 514 301.26 502.6 307.56 501.84 307.98 501.6 308.18 501.39 308.43 501.24 308.7 500.59 310.55 500.28 310.57 507.09 292.92 507.15 292.57 507.13 292.22 507.05 291.87 506.89 291.55 505.93 290.3 499.62 282.08 499.37 281.86 499.08 281.69 498.77 281.58 498.44 281.53 459.55 283.39 457.68 274.69 460.46 271.78 460.65 271.48 460.77 271.14 460.83 270.79 460.8 270.43 460.71 270.08 460.55 269.76 460.32 269.49 460.04 269.26 458.97 268.7 453.64 265.95 453.31 265.85 452.96 265.82 452.61 265.87 444.48 268.62 431.32 267.49 431.11 249.2 430.99 235.58 430.99 235.18 430.99 234.99 430.93 234.68 430.81 234.38 430.64 234.11 423.3 226.12 420.33 217.36 415.08 208.54 417.87 208.58 418.21 208.51 418.53 208.38 418.82 208.19 419.06 207.94 419.25 207.65 419.38 207.33 419.45 206.98 419.44 206.79 419.23 196 421.83 190.63 427.42 190.58 427.74 190.52 428.04 190.4 428.32 190.22 428.55 190 428.74 189.73 428.88 189.44 428.96 189.12 429.57 179.08 433.71 183.13 434 183.32 434.32 183.45 434.66 183.51 445.67 183.25 446.48 183.23 454.95 182.99 455.28 182.91 455.59 182.77 455.86 182.58 456.1 182.33 456.28 182.05 456.4 181.73 456.46 181.4 456.46 181.19 456.45 181.06 452.06 160.64 451.92 160.33 451.73 160.05 451.48 159.81 451.19 159.62 450.87 159.5 450.53 159.44 445.44 159.57 Z" stroke="none" fill="rgba(196,18,48,0.5)"/>
</g>
<g id="states">
<path d="M 119.39 444.4 120.28 452.73 123.96 453.2 124.82 451.98 133.32 458.67 134.27 460.95 137.09 458.61 137.86 455.01 140.16 453.42 142.72 456.69 147.54 459.72 159.42 472.46 165.96 474.32 168.1 479.95 167.34 482.85 165.22 484.3 163.88 481.77 158.88 480.14 156.87 477.13 156.87 474.57 153.75 470.82 151.1 470.18 150.09 466.54 147.51 464.94 149.57 469.27 147.51 472.23 144.11 463.41 139.66 463 138.23 465.3 133.77 463.13 131.27 460.49 123.2 456.83 114.48 454.82 110.3 455.89 105.51 453.88 102.81 451.16 99.29 449.54 95.24 450.81 95.14 456.06 90.67 456.34 89.5 458.15 85.08 461.51 82.19 461.92 81.92 457.47 85.14 450.34 83.77 448.65 80.62 452.34 79.01 456.27 74.06 459.66 76.23 463.46 72.28 468.03 67.15 470.44 63.95 472.68 63.19 475.05 57 478.57 55.29 478.23 54.32 481.63 48.69 481.64 45.36 483.75 41.35 483.8 39.16 485.19 34.47 485.45 34.81 483.65 40.94 479.84 43.81 479.91 44.59 481.67 47.18 478.26 53.3 475.31 58.93 470.61 60.36 465.21 57.32 461.36 54.79 464.05 52.93 460.09 50.91 458.64 45.12 461.29 46.75 454.68 45.44 449.46 44.56 450.64 40.22 451 38.75 450.13 36.74 445.89 37.72 440.83 36.2 440.19 36.06 435.6 37.97 432.9 44.23 426.45 47.9 428.68 50.94 426.29 54.5 426.89 56.12 424.77 57.14 419.23 55.67 417.75 50.83 418.74 47.93 417.5 44.33 417.6 41.06 415.6 40.55 412.49 41.7 410.14 39.33 408.93 38.4 406.21 45.97 403.75 51.4 403.39 50.83 407.05 56.55 408.5 57.88 405.27 56 401.59 52.87 400 52.42 395.95 48.09 389.82 49.59 385.91 54.64 386.88 58.09 384.16 59.02 381.58 62.57 378.51 64.51 378.92 68.43 376.29 72.89 376.44 75.51 373.86 79.38 375.3 80.32 377.77 85 377.74 85.68 380.23 88.19 381.53 89.72 380.84 92.97 380.9 96.28 382.86 100.95 383.16 103.97 384.43 107.2 382.89 113.09 386 119.39 444.4 Z M 145.99 464 145.21 463.52 144.84 463.48 145.99 464 Z M 158.46 487.01 155.55 484.6 155.14 480.95 152.96 478.66 153.81 475.92 157.39 479.02 160.42 482.77 161.09 486.18 158.46 487.01 Z M 28.19 444.56 31.79 444.34 34.35 445.77 31.56 449.02 28.19 444.56 Z M 5.82 492.81 11.99 489.27 12.28 490.7 5.82 492.81 Z M 22.01 417.53 23.16 416.39 25.01 417.99 27.11 417.87 28.73 420.93 27.27 423.65 25.48 419.78 22.75 419.19 22.01 417.53 Z M 148.26 473.45 149.91 471.15 152.99 471.16 154.92 474.44 151.79 475.57 150.62 479.01 148.26 473.45 Z M 142.69 470.72 145.53 469.68 147.62 474.38 148.29 478.31 144.6 474.41 142.69 470.72 Z M 138.52 466.61 140.97 464.33 144.52 465.41 145.07 469.57 142.75 468.46 142.06 470.59 138.52 466.61 Z M 75.39 469.31 78.58 465.77 80.32 469.05 77.32 470.12 75.39 469.31 Z M 69.7 473.9 75.12 469.94 78.7 470.66 78.2 473.94 75.47 476.91 71.27 477.21 69.7 473.9 Z M 549.38 399.81 534.73 399.33 516.21 404.18 512.35 407.2 510.93 408.14 509.85 418.56 493.43 424.86 487.86 423.79 477.4 413.14 470.26 419.27 455.82 415.18 444.78 416.98 434.2 419.75 433.1 419.66 432.96 419.49 425.12 417.03 425.03 417.12 425.1 420.04 424.5 426.73 416.95 433.97 391.4 447.12 391.14 447.52 385.74 451.84 383.55 452.14 383.5 452.07 383.12 452.63 383.11 452.66 383.32 452.9 384.85 453.94 385.08 454.42 385.26 454.64 386.12 455.13 386.59 455.26 386.63 455.27 387 455.39 383.01 472.34 386.03 482.1 376.1 486.24 369.07 485.18 354.52 478.89 348.85 458.64 335.55 442.7 332.37 435.21 329.85 426.78 317.51 413.6 303.46 410.33 297.02 412.52 287.98 426.63 266.26 411.88 261.81 394.8 240.61 371.58 237.21 367.66 210 364.39 208.89 372.99 195.2 371.18 187.99 370.14 162.35 366.29 106.39 333.45 108.73 329.5 86.44 326.86 70.12 323.91 69.45 318.1 65.78 305.99 63.46 302.99 57.82 298.12 56.34 298.17 54.88 291.78 48.38 289.8 44.32 285 40.6 280.49 26.9 276.3 27.69 262.58 24.17 255.3 15.12 232.11 13.26 219.17 13.27 207.93 13.4 207.09 13.61 205.69 15.28 205.6 14.98 207.55 17.75 213.21 18.46 213.79 18.04 212.39 18.13 209.26 17.15 204.35 17.22 199.42 15.6 199.59 8.81 199.24 8.36 190.65 3.12 181.11 5.72 161.87 1 151.78 11.83 131.22 12.96 120.25 13.02 103.35 23.77 86.96 32.81 64.81 40.99 44.95 45.54 44.26 41.43 32.32 43.38 1 49.73 7.2 64.65 12.49 65.33 24.83 59.18 30.13 63.37 29.81 65.57 28.94 67.07 27.7 68.25 20.61 71.73 1.82 93.71 3.49 118.72 9.9 141.23 15.21 140.72 17.52 153.55 17.88 202.06 27.29 305.58 40.54 392.87 44.8 417.33 44.9 423.6 39.22 426.74 50.11 447.49 51.44 468.05 61.59 484.82 59.46 461.52 87.57 473.55 84.03 482.85 89.19 495.8 83.02 511.13 70.08 510.33 81.05 519.39 81.78 523.55 87.34 533.28 88.18 539.4 82.53 547.81 81.57 560.35 85.15 564.65 93.82 550.01 92.4 528.93 101.62 522.85 114.58 528.53 116.5 524.83 129.24 521.91 151.5 522.57 155.42 524.32 164.86 526.59 172.62 527.51 175.03 527.97 176.13 528.16 176.95 528.44 177.62 529.59 179.63 539.45 177.7 543.09 171.94 543.84 169.97 544.14 169.46 545.7 154.09 543.18 148.27 539.43 133.08 542.37 123.86 543.85 116.61 551.54 118.44 552.53 108.19 559.42 97.36 577 103.51 582.37 122.57 575.55 131.83 579.23 137.62 588.57 127.02 593.67 131.94 598.64 146.88 593.94 154.3 593.69 157.85 590.68 163.12 589.96 166.36 587.32 172.74 593.95 177.23 595.96 177.48 603.84 176.4 609.01 174.14 610.92 174.15 615.44 170.7 628.05 161.95 637.72 154.54 648.42 142.12 644.67 136.39 658.36 129.26 667.19 129.29 682.04 120.35 683.36 103.73 692.82 90.21 714.31 84.64 738.62 78.43 742.65 71.54 746.23 70.45 750.43 56.77 749.65 41.94 755.45 25.08 760.98 29.03 769.59 23.54 775.69 26.89 783.32 52.43 788.75 52.75 799 65.07 792.89 72.55 775.19 83.56 774.32 90.15 762.87 96.18 759.02 111.96 758.43 115.9 758.57 124.44 759 126.06 758.97 126.1 758.48 126.04 757.76 126.12 758 126.19 761.4 127.23 770.1 138.11 761.2 142.69 759.28 139.65 758.74 139.14 756.15 138.28 751.81 148.72 741.01 152.56 734.39 156.38 728.23 161.22 726.82 163.66 727.18 165.22 732.4 161.87 741.28 162.8 732.45 168.01 728.73 169.07 726.98 169.77 725.27 170.03 724.48 169.09 724.31 167.51 723.24 168.21 723.12 167.86 722.95 167.88 722.78 168.67 722.17 169.72 722.19 169.84 722.19 169.76 724.41 169.88 722.88 171.38 726.85 177.35 727.13 182.92 725.61 192.69 718.77 199.84 707.24 193.51 707.47 192.48 707.47 192.46 707.6 191.97 708.46 189.36 708.38 189.32 706.48 193.86 719.44 213.75 718.39 222.41 712.68 224.87 701.75 218.96 700.94 206.9 696.9 201.07 695.96 203.02 694.76 204.08 696.28 209.43 701.18 224.62 688.29 216.73 686.67 216.54 688.92 222.32 689.1 221.98 691.56 223.17 704.31 228.19 706.56 243.17 705.43 246.31 701.69 243.01 697.34 242.09 700.84 243.72 705.75 247.54 709.06 246.2 715.23 252.41 712.91 263.92 711.18 289.8 703.37 291.87 698.31 297.6 693.57 309.27 684.44 311.76 675.33 328.07 666.5 336.03 666.37 336.43 653.35 351.93 653.02 352.82 647.66 371.55 648.31 379.45 649.74 385.2 653.92 395.86 660.17 406.8 665.81 413.95 673.48 430.72 676.55 436.08 683.88 450.01 684.49 455.65 685.32 469.38 682.8 474.04 680.4 480.45 670.88 484.02 662.16 472.19 655.74 467.88 649.26 455.55 646.84 455.9 645.57 455.72 637.61 445.31 638.43 440.27 635.83 433.45 636.89 437.71 633.12 437.33 633.37 429.93 634.37 425.63 631.37 415.26 618.79 403.9 607.53 396.94 594.19 405.71 571.42 396.69 549.38 399.81 Z M 689.01 213.49 688.86 210.06 687.29 211.01 689.01 213.49 Z M 243.84 473.56 252.36 466.03 266.54 477.27 247.19 486.86 243.84 473.56 Z" fill-rule="evenodd" stroke="rgba(0,0,0,1)" fill="none"/>
</g>
</svg>