<svg xmlns="http://www.w3.org/2000/svg" viewBox="0 0 260 56" role="img" aria-label="Daily District">
  <path fill="currentColor" aria-label="Daily District" d="M 2.684,44 Q 2.464,44 2.288,43.868 2.156,43.692 2.156,43.472 V 13.728 q 0,-0.22 0.132,-0.352 Q 2.464,13.2 2.684,13.2 h 11.22 q 3.432,0 6.072,1.188 2.64,1.188 4.092,3.388 1.452,2.2 1.452,5.06 v 11.528 q 0,2.86 -1.452,5.06 -1.452,2.2 -4.092,3.388 -2.64,1.188 -6.072,1.188 Z M 9.46,37.532 q 0,0.22 0.22,0.22 h 4.532 q 1.76,0 2.86,-1.232 1.1,-1.276 1.144,-3.388 v -9.064 q 0,-2.112 -1.144,-3.344 -1.1,-1.276 -2.904,-1.276 H 9.68 q -0.22,0 -0.22,0.22 z M 38.000026,20.9 q 2.948,0 5.324,1.012 2.376,0.968 3.74,2.728 1.364,1.716 1.364,3.828 v 15.004 q 0,0.22 -0.176,0.396 -0.132,0.132 -0.352,0.132 h -6.248 q -0.22,0 -0.396,-0.132 -0.132,-0.176 -0.132,-0.396 v -1.54 q 0,-0.176 -0.088,-0.176 -0.088,-0.044 -0.176,0.132 -1.672,2.464 -5.72,2.464 -3.52,0 -5.632,-1.628 -2.068,-1.672 -2.068,-4.884 0,-3.388 2.332,-5.236 2.376,-1.848 6.864,-1.848 h 4.268 q 0.22,0 0.22,-0.22 V 29.7 q 0,-1.188 -0.792,-1.848 -0.792,-0.704 -2.2,-0.704 -1.056,0 -1.848,0.396 -0.748,0.396 -0.968,1.012 -0.22,0.484 -0.616,0.44 l -6.336,-0.836 q -0.528,-0.088 -0.528,-0.396 0.176,-1.936 1.496,-3.476 1.364,-1.584 3.608,-2.464 2.288,-0.924 5.06,-0.924 z m -0.704,18.216 q 1.672,0 2.728,-0.836 1.1,-0.88 1.1,-2.288 v -1.056 q 0,-0.22 -0.22,-0.22 h -2.64 q -1.672,0 -2.596,0.572 -0.88,0.572 -0.88,1.716 0,0.968 0.66,1.54 0.66,0.572 1.848,0.572 z M 55.320019,19.228 q -1.672,0 -2.772,-1.056 -1.056,-1.1 -1.056,-2.772 0,-1.716 1.056,-2.772 1.1,-1.056 2.772,-1.056 1.672,0 2.728,1.056 1.1,1.056 1.1,2.772 0,1.628 -1.1,2.728 -1.056,1.1 -2.728,1.1 z M 52.152019,44 q -0.22,0 -0.396,-0.132 -0.132,-0.176 -0.132,-0.396 V 21.78 q 0,-0.22 0.132,-0.352 0.176,-0.176 0.396,-0.176 h 6.248 q 0.22,0 0.352,0.176 0.176,0.132 0.176,0.352 v 21.692 q 0,0.22 -0.176,0.396 -0.132,0.132 -0.352,0.132 z m 10.587987,0 q -0.22,0 -0.396,-0.132 -0.132,-0.176 -0.132,-0.396 V 13.728 q 0,-0.22 0.132,-0.352 0.176,-0.176 0.396,-0.176 h 6.248 q 0.22,0 0.352,0.176 0.176,0.132 0.176,0.352 v 29.744 q 0,0.22 -0.176,0.396 -0.132,0.132 -0.352,0.132 z m 10.148024,8.756 q -0.132,0 -0.22,-0.176 -0.088,-0.132 -0.088,-0.352 V 47.3 q 0,-0.528 0.484,-0.528 2.816,0 4.048,-0.528 1.232,-0.528 1.496,-2.112 0.044,-0.088 0,-0.264 l -7.084,-22.044 q -0.044,-0.088 -0.044,-0.22 0,-0.396 0.484,-0.396 h 6.644 q 0.44,0 0.572,0.44 l 3.036,13.024 q 0.044,0.176 0.132,0.176 0.088,0 0.132,-0.176 l 3.036,-13.024 q 0.132,-0.44 0.572,-0.44 h 6.512 q 0.264,0 0.396,0.176 0.132,0.132 0.044,0.44 l -7.436,22.616 q -1.1,3.3 -2.332,4.972 -1.188,1.716 -3.52,2.508 -2.288,0.836 -6.556,0.836 z M 104.18408,44 q -0.22,0 -0.396,-0.132 -0.132,-0.176 -0.132,-0.396 V 13.728 q 0,-0.22 0.132,-0.352 0.176,-0.176 0.396,-0.176 h 11.22 q 3.432,0 6.072,1.188 2.64,1.188 4.092,3.388 1.452,2.2 1.452,5.06 v 11.528 q 0,2.86 -1.452,5.06 -1.452,2.2 -4.092,3.388 -2.64,1.188 -6.072,1.188 z m 6.776,-6.468 q 0,0.22 0.22,0.22 h 4.532 q 1.76,0 2.86,-1.232 1.1,-1.276 1.144,-3.388 v -9.064 q 0,-2.112 -1.144,-3.344 -1.1,-1.276 -2.904,-1.276 h -4.488 q -0.22,0 -0.22,0.22 z m 22.864,-18.304 q -1.672,0 -2.772,-1.056 -1.056,-1.1 -1.056,-2.772 0,-1.716 1.056,-2.772 1.1,-1.056 2.772,-1.056 1.672,0 2.728,1.056 1.1,1.056 1.1,2.772 0,1.628 -1.1,2.728 -1.056,1.1 -2.728,1.1 z M 130.65608,44 q -0.22,0 -0.396,-0.132 -0.132,-0.176 -0.132,-0.396 V 21.78 q 0,-0.22 0.132,-0.352 0.176,-0.176 0.396,-0.176 h 6.248 q 0.22,0 0.352,0.176 0.176,0.132 0.176,0.352 v 21.692 q 0,0.22 -0.176,0.396 -0.132,0.132 -0.352,0.132 z m 19.73999,0.352 q -3.124,0 -5.456,-0.836 -2.332,-0.88 -3.608,-2.42 -1.232,-1.584 -1.232,-3.608 v -0.484 q 0,-0.22 0.132,-0.352 0.176,-0.176 0.396,-0.176 h 5.94 q 0.22,0 0.352,0.176 0.176,0.132 0.176,0.352 0,0.836 0.924,1.408 0.924,0.528 2.332,0.528 1.232,0 1.936,-0.396 0.748,-0.44 0.748,-1.144 0,-0.704 -0.792,-1.012 -0.748,-0.352 -2.464,-0.66 -2.772,-0.528 -4.488,-1.276 -2.244,-0.924 -3.564,-2.288 -1.32,-1.408 -1.32,-3.828 0,-3.432 2.64,-5.412 2.684,-2.024 7.04,-2.024 2.948,0 5.148,0.968 2.244,0.924 3.476,2.64 1.232,1.716 1.232,3.96 0,0.22 -0.176,0.396 -0.132,0.132 -0.352,0.132 h -5.764 q -0.22,0 -0.396,-0.132 -0.132,-0.176 -0.132,-0.396 0,-0.836 -0.792,-1.364 -0.792,-0.528 -2.156,-0.528 -1.232,0 -2.024,0.44 -0.748,0.396 -0.748,1.144 0,0.748 0.836,1.1 0.836,0.308 2.816,0.704 2.552,0.528 3.564,0.836 2.728,0.88 4.224,2.376 1.54,1.496 1.54,4.004 0,3.432 -2.728,5.324 -2.684,1.848 -7.26,1.848 z m 26.25195,-17.776 q 0,0.22 -0.176,0.396 -0.132,0.132 -0.352,0.132 h -4.004 q -0.22,0 -0.22,0.22 v 8.008 q 0,2.508 2.024,2.508 h 1.628 q 0.22,0 0.352,0.176 0.176,0.132 0.176,0.352 v 5.104 q 0,0.484 -0.528,0.572 -2.112,0.088 -3.08,0.088 -3.828,0 -5.676,-1.188 -1.848,-1.232 -1.892,-4.62 v -11 q 0,-0.22 -0.22,-0.22 h -2.508 q -0.22,0 -0.396,-0.132 -0.132,-0.176 -0.132,-0.396 V 21.78 q 0,-0.22 0.132,-0.352 0.176,-0.176 0.396,-0.176 h 2.508 q 0.22,0 0.22,-0.22 v -5.324 q 0,-0.22 0.132,-0.352 0.176,-0.176 0.396,-0.176 h 5.94 q 0.22,0 0.352,0.176 0.176,0.132 0.176,0.352 v 5.324 q 0,0.22 0.22,0.22 h 4.004 q 0.22,0 0.352,0.176 0.176,0.132 0.176,0.352 z m 14.548,-5.632 q 1.584,0 2.464,0.572 0.352,0.22 0.264,0.66 l -1.012,6.116 q -0.044,0.528 -0.616,0.308 -0.792,-0.176 -1.496,-0.176 -0.748,0 -1.144,0.088 -1.364,0.176 -2.332,1.056 -0.924,0.88 -0.924,2.332 v 11.572 q 0,0.22 -0.176,0.396 -0.132,0.132 -0.352,0.132 h -6.248 q -0.22,0 -0.396,-0.132 -0.132,-0.176 -0.132,-0.396 V 21.78 q 0,-0.22 0.132,-0.352 0.176,-0.176 0.396,-0.176 h 6.248 q 0.22,0 0.352,0.176 0.176,0.132 0.176,0.352 v 1.408 q 0,0.132 0.088,0.176 0.088,0.044 0.132,-0.088 1.76,-2.332 4.576,-2.332 z m 8.34397,-1.716 q -1.672,0 -2.772,-1.056 -1.056,-1.1 -1.056,-2.772 0,-1.716 1.056,-2.772 1.1,-1.056 2.772,-1.056 1.672,0 2.728,1.056 1.1,1.056 1.1,2.772 0,1.628 -1.1,2.728 -1.056,1.1 -2.728,1.1 z M 196.37199,44 q -0.22,0 -0.396,-0.132 -0.132,-0.176 -0.132,-0.396 V 21.78 q 0,-0.22 0.132,-0.352 0.176,-0.176 0.396,-0.176 h 6.248 q 0.22,0 0.352,0.176 0.176,0.132 0.176,0.352 v 21.692 q 0,0.22 -0.176,0.396 -0.132,0.132 -0.352,0.132 z m 20.53198,0.352 q -3.608,0 -6.336,-1.804 -2.684,-1.804 -3.828,-4.972 -0.836,-2.112 -0.836,-5.06 0,-2.948 0.836,-5.06 1.1,-3.08 3.828,-4.796 2.728,-1.76 6.336,-1.76 3.652,0 6.424,1.804 2.772,1.804 3.74,4.576 0.308,0.792 0.396,1.716 0,0.484 -0.484,0.572 l -6.116,0.924 h -0.088 q -0.396,0 -0.528,-0.44 l -0.088,-0.396 q -0.088,-0.352 -0.176,-0.616 -0.396,-0.836 -1.232,-1.364 -0.792,-0.528 -1.892,-0.528 -2.332,0 -3.08,2.068 -0.484,1.232 -0.484,3.344 0,1.892 0.44,3.3 0.836,2.244 3.124,2.244 1.144,0 1.98,-0.572 0.836,-0.616 1.188,-1.716 0.044,-0.088 0.044,-0.264 0.044,-0.044 0.044,-0.176 0.132,-0.528 0.616,-0.44 l 6.16,0.968 q 0.44,0.088 0.44,0.484 0,0.66 -0.264,1.452 -1.056,3.08 -3.828,4.796 -2.728,1.716 -6.336,1.716 z m 27.00002,-17.776 q 0,0.22 -0.176,0.396 -0.132,0.132 -0.352,0.132 h -4.004 q -0.22,0 -0.22,0.22 v 8.008 q 0,2.508 2.024,2.508 h 1.628 q 0.22,0 0.352,0.176 0.176,0.132 0.176,0.352 v 5.104 q 0,0.484 -0.528,0.572 -2.112,0.088 -3.08,0.088 -3.828,0 -5.676,-1.188 -1.848,-1.232 -1.892,-4.62 v -11 q 0,-0.22 -0.22,-0.22 h -2.508 q -0.22,0 -0.396,-0.132 -0.132,-0.176 -0.132,-0.396 V 21.78 q 0,-0.22 0.132,-0.352 0.176,-0.176 0.396,-0.176 h 2.508 q 0.22,0 0.22,-0.22 v -5.324 q 0,-0.22 0.132,-0.352 0.176,-0.176 0.396,-0.176 h 5.94 q 0.22,0 0.352,0.176 0.176,0.132 0.176,0.352 v 5.324 q 0,0.22 0.22,0.22 h 4.004 q 0.22,0 0.352,0.176 0.176,0.132 0.176,0.352 z"/>
</svg>
