<svg xmlns="http://www.w3.org/2000/svg" viewBox="0 0 800 700"><defs><style>.cls-1,.cls-10,.cls-2,.cls-22,.cls-30,.cls-31,.cls-33,.cls-34,.cls-5,.cls-6,.cls-7,.cls-8,.cls-9{fill:none;}.cls-1,.cls-10,.cls-2,.cls-22,.cls-28,.cls-29,.cls-30,.cls-31,.cls-33,.cls-9{stroke:#000;}.cls-1,.cls-2,.cls-28,.cls-29,.cls-30{stroke-linecap:square;}.cls-1,.cls-2,.cls-28,.cls-29{stroke-linejoin:round;}.cls-1,.cls-10,.cls-2,.cls-34,.cls-9{stroke-width:2px;}.cls-2{stroke-dasharray:6.8175 6.8175;}.cls-3,.cls-4{font-size:21px;}.cls-23,.cls-3{font-family:MyriadPro-Bold, Myriad Pro;font-weight:700;}.cls-21,.cls-4{font-family:MyriadPro-Regular, Myriad Pro;}.cls-5,.cls-6,.cls-7,.cls-8{stroke:#999;}.cls-10,.cls-22,.cls-30,.cls-31,.cls-33,.cls-34,.cls-5,.cls-6,.cls-7,.cls-8,.cls-9{stroke-miterlimit:10;}.cls-5,.cls-6{stroke-width:0.7149px;}.cls-6{stroke-dasharray:5.7504 5.7504;}.cls-22,.cls-7,.cls-8{stroke-width:0.7006px;}.cls-8{stroke-dasharray:5.6353 5.6353;}.cls-10{stroke-dasharray:7.9224 7.9224;}.cls-11,.cls-21,.cls-23{font-size:36px;}.cls-11{font-family:MyriadPro-Semibold, Myriad Pro;font-weight:600;}.cls-12{letter-spacing:-0.006em;}.cls-13{letter-spacing:-0.01em;}.cls-14{letter-spacing:-0.013em;}.cls-15{letter-spacing:0em;}.cls-16{letter-spacing:-0.009em;}.cls-17{letter-spacing:-0.036em;}.cls-18{letter-spacing:-0.038em;}.cls-19{letter-spacing:-0.003em;}.cls-20{letter-spacing:0em;}.cls-24{letter-spacing:0.007em;}.cls-25{letter-spacing:-0.008em;}.cls-26{letter-spacing:-0.004em;}.cls-27{letter-spacing:-0.008em;}.cls-28{fill:#fff;stroke-width:8.4228px;}.cls-29{fill:#888;stroke-width:4px;}.cls-30{stroke-width:5px;}.cls-32{font-size:14px;font-family:MyriadPro-It, Myriad Pro;font-style:italic;}.cls-33{stroke-width:0.8771px;}.cls-34{stroke:#777;}.cls-35{fill:#777;}</style></defs><g id="Layer_1" data-name="Layer 1"><g id="y-axis"><line class="cls-1" x1="445.5" y1="6.8336" x2="445.5" y2="10.2581"/><line class="cls-2" x1="445.5" y1="17.0755" x2="445.5" y2="586.3332"/><line class="cls-1" x1="445.5" y1="589.7419" x2="445.5" y2="593.1663"/></g><text class="cls-3" transform="translate(424.4429 642.1624)">50%</text><text class="cls-3" transform="translate(260.5452 642.1621)">50-k%</text><text class="cls-4" transform="translate(203.8624 441.1619)">27.3%</text><text class="cls-3" transform="translate(156.6445 642.1619)">0%</text><g id="_-k" data-name="-k"><line class="cls-5" x1="157" y1="443.55" x2="159.8597" y2="443.55"/><line class="cls-6" x1="165.6101" y1="443.55" x2="737.7743" y2="443.55"/><line class="cls-5" x1="740.6495" y1="443.55" x2="743.5092" y2="443.55"/></g><g id="_-2k" data-name="-2k"><line class="cls-7" x1="157.464" y1="593.05" x2="160.2663" y2="593.05"/><polyline class="cls-8" points="165.902 593.05 180.287 593.05 737.889 593.05"/><line class="cls-7" x1="740.7068" y1="593.05" x2="743.5092" y2="593.05"/></g><g id="_2K" data-name="2K"><line class="cls-7" x1="743.5092" y1="7.05" x2="740.7068" y2="7.05"/><polyline class="cls-8" points="735.071 7.05 180.287 7.05 163.084 7.05"/><line class="cls-7" x1="160.2663" y1="7.05" x2="157.464" y2="7.05"/></g><g id="_50" data-name="50"><line class="cls-9" x1="157.6673" y1="293.5595" x2="161.6673" y2="293.5628"/><line class="cls-10" x1="169.5897" y1="293.5695" x2="736.0388" y2="294.0433"/><line class="cls-9" x1="740" y1="294.0466" x2="744" y2="294.05"/></g><text class="cls-11" transform="translate(215.2153 680.1904)">N<tspan class="cls-12" x="24.3359" y="0">a</tspan><tspan x="42.4077" y="0">tional (</tspan><tspan class="cls-13" x="150.9819" y="0">a</tspan><tspan class="cls-14" x="168.9097" y="0">v</tspan><tspan class="cls-15" x="186.73" y="0">e</tspan><tspan class="cls-16" x="205.3062" y="0">r</tspan><tspan class="cls-15" x="217.7979" y="0">age)</tspan><tspan class="cls-17" x="286.125" y="0"> </tspan><tspan class="cls-18" x="292.2808" y="0">V</tspan><tspan class="cls-15" x="312.5488" y="0">o</tspan><tspan class="cls-12" x="332.853" y="0">t</tspan><tspan x="345.2729" y="0">e </tspan><tspan class="cls-19" x="371.2998" y="0">S</tspan><tspan class="cls-20" x="389.8765" y="0">ha</tspan><tspan class="cls-16" x="428.7559" y="0">r</tspan><tspan x="441.2476" y="0">e</tspan></text><text class="cls-21" transform="translate(57.3623 302.5713)">50%</text><g id="_-k-2" data-name="-k"><line class="cls-5" x1="161.0966" y1="266.1156" x2="163.9563" y2="266.1156"/><line class="cls-6" x1="169.7067" y1="266.1156" x2="741.8709" y2="266.1156"/><line class="cls-5" x1="744.7461" y1="266.1156" x2="747.6058" y2="266.1156"/></g><text class="cls-4" transform="translate(203.8625 262.2789)">54.5%</text></g><g id="Layer_5" data-name="Layer 5"><line class="cls-22" x1="143.6081" y1="373.5" x2="169.1081" y2="373.55"/><line class="cls-22" x1="144.0407" y1="225.2766" x2="169.5407" y2="225.3266"/><line class="cls-22" x1="144.0407" y1="293.2766" x2="169.5407" y2="293.3266"/><line class="cls-22" x1="144.2569" y1="77.1649" x2="169.7569" y2="77.2149"/><line class="cls-22" x1="144.2569" y1="145.1649" x2="169.7569" y2="145.2149"/><line class="cls-22" x1="143.8244" y1="521.3883" x2="169.3244" y2="521.4383"/><line class="cls-22" x1="144.2569" y1="441.1649" x2="169.7569" y2="441.2149"/></g><g id="Layer_6" data-name="Layer 6"><line class="cls-22" x1="524.881" y1="619.376" x2="524.9309" y2="593.876"/><line class="cls-22" x1="376.6575" y1="618.9435" x2="376.7075" y2="593.4435"/><line class="cls-22" x1="444.6575" y1="618.9435" x2="444.7075" y2="593.4435"/><line class="cls-22" x1="228.5458" y1="618.7272" x2="228.5958" y2="593.2272"/><line class="cls-22" x1="296.5458" y1="618.7272" x2="296.5958" y2="593.2272"/><line class="cls-22" x1="672.7692" y1="619.1597" x2="672.8192" y2="593.6597"/><line class="cls-22" x1="592.5458" y1="618.7272" x2="592.5958" y2="593.2272"/><text class="cls-23" transform="translate(35.6609 377.7451) rotate(-90)"><tspan class="cls-24">S</tspan><tspan x="19.6914" y="0">e</tspan><tspan class="cls-25" x="38.6992" y="0">a</tspan><tspan x="57.4194" y="0">t </tspan><tspan class="cls-26" x="77.9028" y="0">S</tspan><tspan class="cls-15" x="97.1987" y="0">ha</tspan><tspan class="cls-27" x="137.3027" y="0">r</tspan><tspan class="cls-15" x="150.6943" y="0">e</tspan></text></g><g id="Layer_2" data-name="Layer 2"><circle class="cls-28" cx="445.188" cy="265.8517" r="9.0729"/><circle class="cls-29" cx="296.188" cy="443.8517" r="9.0729"/><text class="cls-21" transform="translate(75.8301 580.3496)">0%</text><text class="cls-21" transform="translate(38.8952 29.8675)">100%</text><g id="y-axis-2" data-name="y-axis"><line class="cls-30" x1="158" y1="593" x2="157" y2="7"/></g><g id="x-axis"><line class="cls-30" x1="158" y1="593" x2="744" y2="593"/></g><text class="cls-3" transform="translate(711.0963 642.1618)">100%</text><line class="cls-31" x1="296.0368" y1="417.7419" x2="296.9632" y2="285.2581"/><polygon points="289.968 416.885 302.117 416.97 296 423 289.968 416.885"/><polygon points="290.883 286.03 303.032 286.115 297 280 290.883 286.03"/><text class="cls-32" transform="translate(287.041 374.624) rotate(-90)">27.2%</text><line class="cls-33" x1="320.6116" y1="356.5419" x2="421.3884" y2="357.4581"/><polygon points="321.374 351.221 321.277 361.876 316 356.5 321.374 351.221"/><polygon points="420.723 352.124 420.626 362.779 426 357.5 420.723 352.124"/><text class="cls-32" transform="translate(362.3969 344.6269)">k%</text><line class="cls-34" x1="508.3633" y1="267.1155" x2="508.3633" y2="291.894"/><rect class="cls-35" x="501.8633" y="266.1155" width="13" height="2"/><rect class="cls-35" x="501.8633" y="290.894" width="13" height="2"/><text class="cls-32" transform="translate(515.666 284.668)">Bias = 4.5%</text></g></svg>