<svg xmlns="http://www.w3.org/2000/svg" viewBox="0 0 1280 800"><defs><style>.cls-1{font-size:24px;}.cls-1,.cls-12,.cls-21,.cls-46,.cls-63{font-family:MyriadPro-Bold, Myriad Pro;font-weight:700;}.cls-2{letter-spacing:-0.005em;}.cls-3{letter-spacing:0em;}.cls-4{letter-spacing:-0.008em;}.cls-5{letter-spacing:-0.005em;}.cls-6{letter-spacing:0.03em;}.cls-7{letter-spacing:-0.006em;}.cls-8{letter-spacing:-0.015em;}.cls-9{letter-spacing:-0.037em;}.cls-10{letter-spacing:-0.042em;}.cls-11{letter-spacing:-0.004em;}.cls-12,.cls-63{font-size:21px;}.cls-13,.cls-14,.cls-15,.cls-16,.cls-17,.cls-37,.cls-45,.cls-48,.cls-50,.cls-51,.cls-52,.cls-53,.cls-54,.cls-55,.cls-56,.cls-57,.cls-69,.cls-71{fill:none;}.cls-13,.cls-19,.cls-20,.cls-45,.cls-47,.cls-49,.cls-50,.cls-51,.cls-52,.cls-53,.cls-54,.cls-55,.cls-56,.cls-57,.cls-67,.cls-70,.cls-72{stroke:#000;}.cls-13,.cls-19,.cls-20,.cls-37,.cls-47,.cls-48,.cls-49,.cls-50,.cls-51,.cls-52,.cls-53,.cls-54,.cls-55,.cls-56,.cls-57,.cls-69,.cls-70,.cls-71,.cls-72,.cls-73,.cls-74{stroke-linecap:square;stroke-linejoin:round;}.cls-13{stroke-width:5px;}.cls-14,.cls-15{stroke:#999;}.cls-14,.cls-15,.cls-16,.cls-17,.cls-45,.cls-67{stroke-miterlimit:10;}.cls-15{stroke-dasharray:7.9597 7.9597;}.cls-16,.cls-17{stroke:#555;}.cls-17{stroke-dasharray:7.9637 7.9637;}.cls-18,.cls-19{fill:#fff;}.cls-19{stroke-width:8.4228px;}.cls-20{fill:#888;stroke-width:4px;}.cls-21{font-size:17.8949px;}.cls-22{letter-spacing:-0.005em;}.cls-23{letter-spacing:-0.008em;}.cls-24{letter-spacing:0.03em;}.cls-25{letter-spacing:-0.006em;}.cls-26{letter-spacing:-0.015em;}.cls-27{letter-spacing:0em;}.cls-28{letter-spacing:-0.037em;}.cls-29{letter-spacing:-0.042em;}.cls-30{letter-spacing:-0.005em;}.cls-31{letter-spacing:0.03em;}.cls-32{letter-spacing:-0.004em;}.cls-33{letter-spacing:-0.008em;}.cls-34{letter-spacing:-0.0001em;}.cls-35{letter-spacing:-0.005em;}.cls-36{letter-spacing:0.0001em;}.cls-37,.cls-69{stroke:#666;}.cls-37{stroke-width:3.5884px;}.cls-38,.cls-73,.cls-74{fill:#666;}.cls-39{letter-spacing:0.003em;}.cls-40{letter-spacing:-0.008em;}.cls-41{letter-spacing:-0.011em;}.cls-42{letter-spacing:-0.006em;}.cls-43{letter-spacing:0.003em;}.cls-44{letter-spacing:-0.01em;}.cls-45,.cls-50,.cls-51,.cls-52,.cls-53,.cls-54,.cls-55,.cls-56,.cls-57,.cls-67{stroke-width:3px;}.cls-46{font-size:24.221px;}.cls-47,.cls-70{fill:#2985c4;}.cls-47,.cls-49{stroke-width:7.1728px;}.cls-48,.cls-71{stroke:#fff;}.cls-48{stroke-width:0.5px;}.cls-49,.cls-72{fill:#cf222c;}.cls-51{stroke-dasharray:11.721 11.721;}.cls-52{stroke-dasharray:12.1844 12.1844;}.cls-53{stroke-dasharray:12.6404 12.6404;}.cls-54{stroke-dasharray:12.11 12.11;}.cls-55{stroke-dasharray:11.4055 11.4055;}.cls-56{stroke-dasharray:12.3408 12.3408;}.cls-57{stroke-dasharray:12;}.cls-58{letter-spacing:-0.031em;}.cls-59{letter-spacing:-0.011em;}.cls-60{letter-spacing:-0.037em;}.cls-61{letter-spacing:-0.005em;}.cls-62{letter-spacing:-0.037em;}.cls-63{opacity:0.93;}.cls-64{letter-spacing:-0.0419em;}.cls-65{letter-spacing:0em;}.cls-66{letter-spacing:-0.005em;}.cls-68{opacity:0.5;}.cls-69{stroke-width:11.0722px;}.cls-70,.cls-72{stroke-width:20px;}.cls-73{stroke:#cf222c;}.cls-73,.cls-74{stroke-width:10px;}.cls-74{stroke:#2985c4;}</style></defs><g id="base"><text class="cls-1" transform="translate(29.7468 522.8213) rotate(-90)"><tspan class="cls-2">S</tspan><tspan class="cls-3" x="12.8398" y="0">t</tspan><tspan class="cls-4" x="21.6479" y="0">a</tspan><tspan class="cls-5" x="34.1279" y="0">t</tspan><tspan class="cls-6" x="42.8159" y="0">e</tspan><tspan x="56.208" y="0">-l</tspan><tspan class="cls-7" x="70.5356" y="0">e</tspan><tspan class="cls-8" x="83.0635" y="0">v</tspan><tspan x="95.4238" y="0">el</tspan><tspan class="cls-9" x="114.6953" y="0"> </tspan><tspan class="cls-10" x="118.6558" y="0">V</tspan><tspan x="132.9116" y="0">o</tspan><tspan class="cls-5" x="146.7593" y="0">t</tspan><tspan x="155.4473" y="0">e </tspan><tspan class="cls-11" x="172.9673" y="0">S</tspan><tspan x="185.8311" y="0">ha</tspan><tspan class="cls-4" x="212.5674" y="0">r</tspan><tspan x="221.4951" y="0">e</tspan></text><text class="cls-12" transform="translate(71.4429 400.3682)">50%</text><text class="cls-12" transform="translate(47.5452 271.3582)">50+k%</text><text class="cls-12" transform="translate(53.2994 531.3579)">50-k%</text><line id="y-axis" class="cls-13" x1="119.5" y1="118.696" x2="119.5" y2="691.696"/><text class="cls-12" transform="translate(35.8906 145.3521)">50+2k%</text><text class="cls-12" transform="translate(41.6445 659.3521)">50-2k%</text><g id="grid"><g id="k"><line class="cls-14" x1="73" y1="277" x2="77" y2="277"/><polyline class="cls-15" points="84.96 277 119.5 277 1259.02 277"/><line class="cls-14" x1="1263" y1="277" x2="1267" y2="277"/></g><g id="_-k" data-name="-k"><line class="cls-14" x1="73" y1="535" x2="77" y2="535"/><polyline class="cls-15" points="84.96 535 119.5 535 1259.02 535"/><line class="cls-14" x1="1263" y1="535" x2="1267" y2="535"/></g><g id="_-2k" data-name="-2k"><line class="cls-14" x1="73" y1="663.5" x2="77" y2="663.5"/><polyline class="cls-15" points="84.96 663.5 119.5 663.5 1259.02 663.5"/><line class="cls-14" x1="1263" y1="663.5" x2="1267" y2="663.5"/></g><g id="_2K" data-name="2K"><line class="cls-14" x1="73" y1="148.5" x2="77" y2="148.5"/><polyline class="cls-15" points="84.96 148.5 119.5 148.5 1259.02 148.5"/><line class="cls-14" x1="1263" y1="148.5" x2="1267" y2="148.5"/></g><g id="_50" data-name="50"><line class="cls-16" x1="73.4143" y1="405.0095" x2="77.4143" y2="405.0111"/><line class="cls-17" x1="85.3779" y1="405.0144" x2="1260.0182" y2="405.4967"/><line class="cls-16" x1="1264" y1="405.4984" x2="1268" y2="405.5"/></g></g></g><g id="connectline_k" data-name="connectline +k"><polyline class="cls-13" points="172.5 502.5 277.5 498.5 381.5 443.5 486.5 421.5 590.5 410.5 694.5 304.5 798.5 246.5 903.5 194.5 1008.5 151.5 1112.5 143.5 1217.5 130.5"/></g><g id="connectline"><polyline class="cls-13" points="174.782 745.54 279.782 741.54 383.782 686.54 488.782 664.54 592.782 653.54 696.782 547.54 800.782 489.54 905.782 437.54 1010.782 394.54 1114.782 386.54 1219.782 373.54"/></g><g id="legend"><rect id="legend_back" data-name="legend back" class="cls-18" x="153.9773" y="18" width="507.0227" height="109.0738"/><circle class="cls-19" cx="180.6683" cy="43.0126" r="9.0729"/><circle class="cls-20" cx="180.5802" cy="77.8622" r="9.0729"/><text class="cls-21" transform="translate(206.7021 48.2627)"><tspan class="cls-22">S</tspan><tspan x="9.5737" y="0">t</tspan><tspan class="cls-23" x="16.1411" y="0">a</tspan><tspan class="cls-22" x="25.4463" y="0">t</tspan><tspan class="cls-24" x="31.9243" y="0">e</tspan><tspan x="41.9097" y="0">-l</tspan><tspan class="cls-25" x="52.5928" y="0">e</tspan><tspan class="cls-26" x="61.9341" y="0">v</tspan><tspan class="cls-27" x="71.1499" y="0">el</tspan><tspan class="cls-28" x="85.5195" y="0"> </tspan><tspan class="cls-29" x="88.4717" y="0">V</tspan><tspan x="99.1016" y="0">o</tspan><tspan class="cls-30" x="109.4268" y="0">t</tspan><tspan class="cls-31" x="115.9053" y="0">e</tspan><tspan x="125.8906" y="0">-</tspan><tspan class="cls-32" x="131.6523" y="0">S</tspan><tspan x="141.2441" y="0">ha</tspan><tspan class="cls-33" x="161.1787" y="0">r</tspan><tspan x="167.8359" y="0">e </tspan><tspan class="cls-33" x="180.8984" y="0">a</tspan><tspan x="190.2041" y="0">t N</tspan><tspan class="cls-33" x="212.7334" y="0">a</tspan><tspan class="cls-34" x="222.0391" y="0">tional</tspan><tspan class="cls-28" x="268.6904" y="0"> </tspan><tspan class="cls-29" x="271.6426" y="0">V</tspan><tspan x="282.2725" y="0">o</tspan><tspan class="cls-35" x="292.5977" y="0">t</tspan><tspan class="cls-36" x="299.0752" y="0">e </tspan><tspan class="cls-32" x="312.1387" y="0">S</tspan><tspan x="321.7305" y="0">ha</tspan><tspan class="cls-33" x="341.665" y="0">r</tspan><tspan x="348.3223" y="0">e </tspan><tspan class="cls-33" x="361.3848" y="0">a</tspan><tspan x="370.6904" y="0">t 50%</tspan></text><text class="cls-21" transform="translate(206.291 83.9668)"><tspan class="cls-22">S</tspan><tspan x="9.5737" y="0">t</tspan><tspan class="cls-23" x="16.1411" y="0">a</tspan><tspan class="cls-22" x="25.4463" y="0">t</tspan><tspan class="cls-24" x="31.9243" y="0">e</tspan><tspan x="41.9097" y="0">-l</tspan><tspan class="cls-25" x="52.5928" y="0">e</tspan><tspan class="cls-26" x="61.9341" y="0">v</tspan><tspan class="cls-27" x="71.1499" y="0">el</tspan><tspan class="cls-28" x="85.5195" y="0"> </tspan><tspan class="cls-29" x="88.4717" y="0">V</tspan><tspan x="99.1016" y="0">o</tspan><tspan class="cls-30" x="109.4268" y="0">t</tspan><tspan class="cls-31" x="115.9053" y="0">e</tspan><tspan x="125.8906" y="0">-</tspan><tspan class="cls-32" x="131.6523" y="0">S</tspan><tspan x="141.2441" y="0">ha</tspan><tspan class="cls-33" x="161.1787" y="0">r</tspan><tspan x="167.8359" y="0">e N</tspan><tspan class="cls-33" x="193.2461" y="0">a</tspan><tspan class="cls-34" x="202.5518" y="0">tional</tspan><tspan class="cls-28" x="249.2031" y="0"> </tspan><tspan class="cls-29" x="252.1553" y="0">V</tspan><tspan x="262.7852" y="0">o</tspan><tspan class="cls-35" x="273.1104" y="0">t</tspan><tspan class="cls-36" x="279.5879" y="0">e </tspan><tspan class="cls-32" x="292.6514" y="0">S</tspan><tspan x="302.2432" y="0">ha</tspan><tspan class="cls-33" x="322.1777" y="0">r</tspan><tspan x="328.835" y="0">e 50% - k</tspan></text><line class="cls-37" x1="180.5802" y1="101.5088" x2="180.5802" y2="127.499"/><polygon class="cls-38" points="171.634 124.881 180.58 140.374 189.527 124.881 171.634 124.881"/><text class="cls-21" transform="translate(206.4531 119.7559)">k <tspan class="cls-39" x="13.3135" y="0">p</tspan><tspan x="24.0679" y="0">e</tspan><tspan class="cls-40" x="33.5166" y="0">r</tspan><tspan class="cls-41" x="40.1733" y="0">c</tspan><tspan class="cls-27" x="48.0474" y="0">e</tspan><tspan class="cls-42" x="57.4956" y="0">n</tspan><tspan class="cls-27" x="67.875" y="0">tage </tspan><tspan class="cls-43" x="107.4219" y="0">p</tspan><tspan x="118.1768" y="0">oi</tspan><tspan class="cls-25" x="133.4053" y="0">n</tspan><tspan x="143.7842" y="0">ts (uni</tspan><tspan class="cls-44" x="193.1729" y="0">f</tspan><tspan x="199.0957" y="0">orm swing)</tspan></text></g><g id="blue_annotations" data-name="blue annotations"><path class="cls-45" d="M685.5,259.5s12-56,90-50c0,0,53-75,113-58,0,0,26.5-71.5,115.5-41.5,0,0,46-45,105-3,0,0,47-59,109-22"/><text class="cls-46" transform="translate(746.5674 128.8125)">6 wins</text><circle class="cls-47" cx="733.0055" cy="121.1946" r="7.7264"/><circle class="cls-48" cx="733.0055" cy="121.1946" r="7.7264"/><text class="cls-46" transform="translate(621.7612 128.8125)">5 wins</text><circle class="cls-49" cx="705.3262" cy="121.1946" r="7.7264"/><path class="cls-45" d="M1004.5,110.5S921.5347-10.9013,818.2335,93.9356"/><polygon points="812.802 84.618 808 105 828.053 98.971 812.802 84.618"/><path class="cls-50" d="M1116.5,432.5s-62.3558,48.6543-86.4648,100.012"/><polygon points="1021.637 525.757 1024.5 546.5 1041.034 533.651 1021.637 525.757"/><circle class="cls-47" cx="1016.3161" cy="576.4401" r="7.7264"/><circle class="cls-49" cx="990.3262" cy="577.1946" r="7.7264"/><circle class="cls-48" cx="990.3262" cy="577.1946" r="7.7264"/><path class="cls-50" d="M1011.5,434.5s47,25,105-2c0,0,60,18,104-12"/></g><g id="red_annotations" data-name="red annotations"><path class="cls-50" d="M640.5,695.5s2.0808.3843,5.9128.9991"/><path class="cls-51" d="M658.0022,698.2277c58.22,8.0985,244.7515,25.9423,299.1073-67.9325"/><path class="cls-50" d="M959.9047,625.1364q1.3447-2.6585,2.5535-5.43"/><polygon points="971.025 626.141 967.5 605.5 951.385 618.871 971.025 626.141"/><text class="cls-46" transform="translate(905.4971 584.3038)">8 wins</text><text class="cls-46" transform="translate(1030.3125 584.3033)">3 wins </text><path class="cls-50" d="M153.5,456.5a48.6125,48.6125,0,0,1,4.68-3.7443"/><path class="cls-52" d="M168.5578,446.3954C185.47,437.578,216.0418,428.2971,257.27,443"/><path class="cls-50" d="M262.9724,445.1618Q265.7069,446.26,268.5,447.5a49.9493,49.9493,0,0,1,2.3623-5.51"/><path class="cls-53" d="M277.3223,431.1408c11.7331-16.5713,36.7487-38.6582,84.1522-30.305"/><path class="cls-50" d="M367.6687,402.0748q2.8642.64,5.8313,1.4252c.531-.9625,1.4706-2.8235,2.9038-5.2471"/><path class="cls-54" d="M383.3134,388.322c12.2517-15.0314,36.9975-33.9,82.532-23.8931"/><path class="cls-50" d="M471.7272,365.8539q2.8356.75,5.7728,1.6461s1.7459-1.4029,4.8908-3.4657"/><path class="cls-55" d="M492.2446,358.3015c18.1032-9.3159,50.22-19.5656,81.1276,1.87"/><path class="cls-50" d="M577.9471,363.5884Q580.2317,365.42,582.5,367.5"/><path class="cls-50" d="M371.5,396.5s.7918-1.9477,2.3485-5.5166"/><path class="cls-56" d="M378.9178,379.7347c22.13-47.7389,92.728-184.4185,197.634-238.299"/><path class="cls-50" d="M582.0886,138.685q2.7063-1.299,5.4422-2.5229"/><polygon points="588.789 147.141 601.5 130.5 580.733 127.81 588.789 147.141"/><path class="cls-57" d="M174.5,782.5s122,39,177-40c0,0,128,60,241-39,0,0,128-1,141-109,0,0,131,37,177-113"/></g><g id="Totals"><rect id="totals_back" data-name="totals back" class="cls-18" x="1031" y="624" width="244" height="159"/><text class="cls-12" transform="translate(1117 653.6636)"><tspan class="cls-58">A</tspan><tspan class="cls-8" x="13.125" y="0">v</tspan><tspan x="23.9404" y="0">e</tspan><tspan class="cls-59" x="35.0283" y="0">r</tspan><tspan x="42.7773" y="0">age</tspan><tspan class="cls-60" x="77.2383" y="0"> </tspan><tspan class="cls-10" x="80.7031" y="0">V</tspan><tspan x="93.1768" y="0">o</tspan><tspan class="cls-61" x="105.2939" y="0">t</tspan><tspan x="112.8955" y="0">e</tspan><tspan x="0" y="18">50% of</tspan><tspan class="cls-62" x="65.3086" y="18"> </tspan><tspan class="cls-10" x="68.7744" y="18">V</tspan><tspan x="81.248" y="18">o</tspan><tspan class="cls-61" x="93.3652" y="18">t</tspan><tspan x="100.9668" y="18">es</tspan></text><text class="cls-63" transform="translate(1116.9996 731.6636)"><tspan class="cls-58">A</tspan><tspan class="cls-8" x="13.125" y="0">v</tspan><tspan x="23.9404" y="0">e</tspan><tspan class="cls-59" x="35.0283" y="0">r</tspan><tspan x="42.7773" y="0">age</tspan><tspan class="cls-60" x="77.2383" y="0"> </tspan><tspan class="cls-10" x="80.7031" y="0">V</tspan><tspan x="93.1768" y="0">o</tspan><tspan class="cls-61" x="105.2939" y="0">t</tspan><tspan x="112.8955" y="0">e</tspan><tspan x="0" y="18">50% - k of</tspan><tspan class="cls-60" x="91.9365" y="18"> </tspan><tspan class="cls-64" x="95.4014" y="18">V</tspan><tspan class="cls-65" x="107.876" y="18">o</tspan><tspan class="cls-66" x="119.9922" y="18">t</tspan><tspan x="127.5947" y="18">es</tspan></text><g id="_50_k_legend" data-name="50%+k legend"><line class="cls-67" x1="1062.5" y1="675.5" x2="1094.5" y2="656.5"/><circle cx="1062.5" cy="675.5" r="12.5"/><circle cx="1094.5" cy="656.5" r="12.5"/></g><g id="_50_legend" data-name="50% legend"><line class="cls-67" x1="1065.5" y1="755.5" x2="1097.5" y2="736.5"/><circle class="cls-38" cx="1065.5" cy="755.5" r="12.5"/><circle class="cls-38" cx="1097.5" cy="736.5" r="12.5"/></g></g><g id="swing" class="cls-68"><line class="cls-69" x1="351.379" y1="513.9069" x2="351.379" y2="594.1019"/><polygon class="cls-38" points="323.774 586.025 351.379 633.83 378.984 586.025 323.774 586.025"/><line class="cls-69" x1="537.879" y1="471.2491" x2="537.879" y2="551.4441"/><polygon class="cls-38" points="510.274 543.367 537.879 591.172 565.484 543.367 510.274 543.367"/><line class="cls-69" x1="724.379" y1="354.2491" x2="724.379" y2="434.4441"/><polygon class="cls-38" points="696.774 426.367 724.379 474.172 751.984 426.367 696.774 426.367"/><line class="cls-69" x1="910.879" y1="246.2491" x2="910.879" y2="326.4441"/><polygon class="cls-38" points="883.274 318.367 910.879 366.172 938.484 318.367 883.274 318.367"/><line class="cls-69" x1="1097.379" y1="206.2491" x2="1097.379" y2="286.4441"/><polygon class="cls-38" points="1069.774 278.367 1097.379 326.172 1124.984 278.367 1069.774 278.367"/></g><g id="_50_points" data-name="50% points"><circle class="cls-70" cx="695.25" cy="304.0042" r="21.5438"/><circle class="cls-71" cx="695.184" cy="304.0146" r="21.5438"/><circle class="cls-70" cx="799.8912" cy="246.1438" r="21.5438"/><circle class="cls-71" cx="799.8252" cy="246.1542" r="21.5438"/><circle class="cls-70" cx="904.5325" cy="194.4387" r="21.5438"/><circle class="cls-71" cx="904.4665" cy="194.4491" r="21.5438"/><circle class="cls-70" cx="1009.1737" cy="151.3511" r="21.5438"/><circle class="cls-71" cx="1009.1077" cy="151.3615" r="21.5438"/><circle class="cls-70" cx="1113.815" cy="143.9647" r="21.5438"/><circle class="cls-71" cx="1113.749" cy="143.9751" r="21.5438"/><circle class="cls-70" cx="1218.4562" cy="130.4229" r="21.5438"/><circle class="cls-71" cx="1218.3902" cy="130.4333" r="21.5438"/><circle class="cls-72" cx="276.9682" cy="495.6155" r="21.5438"/><circle class="cls-72" cx="381.6094" cy="443.9104" r="21.5438"/><circle class="cls-72" cx="486.2506" cy="421.7511" r="21.5438"/><circle class="cls-72" cx="590.8919" cy="410.6714" r="21.5438"/><circle class="cls-72" cx="172.3269" cy="502.6155" r="21.5438"/><circle class="cls-73" cx="697.2374" cy="546.9277" r="21.5438"/><circle class="cls-73" cx="801.8786" cy="489.0672" r="21.5438"/><circle class="cls-73" cx="906.5199" cy="437.3622" r="21.5438"/><circle class="cls-74" cx="1011.1611" cy="394.2746" r="21.5438"/><circle class="cls-71" cx="1011.0951" cy="394.285" r="21.5438"/><circle class="cls-74" cx="1115.8024" cy="386.8881" r="21.5438"/><circle class="cls-71" cx="1115.7364" cy="386.8985" r="21.5438"/><circle class="cls-74" cx="1220.4436" cy="373.3463" r="21.5438"/><circle class="cls-71" cx="1220.3776" cy="373.3567" r="21.5438"/><circle class="cls-73" cx="278.9556" cy="738.5389" r="21.5438"/><circle class="cls-73" cx="383.5968" cy="686.8339" r="21.5438"/><circle class="cls-73" cx="488.238" cy="664.6745" r="21.5438"/><circle class="cls-73" cx="592.8793" cy="653.5949" r="21.5438"/><circle class="cls-73" cx="174.3143" cy="745.5389" r="21.5438"/></g></svg>