<svg viewBox="-88.95168079999999 -35.4864818 4.541615599999986 5.741445599999999" xmlns="http://www.w3.org/2000/svg">
  <path d="M -87.5183351909038,30.280432538779316 L -87.51838,30.283901 L -87.500003,30.287905 L -87.452378,30.300201 L -87.450078,30.3111 L -87.465078,30.3076 L -87.475279,30.308 L -87.483679,30.304801 L -87.494879,30.305001 L -87.50348,30.307601 L -87.50558,30.3111 L -87.504701,30.324039 L -87.49998,30.328957 L -87.489979,30.3311 L -87.471879,30.3318 L -87.461078,30.3353 L -87.450778,30.346999 L -87.452078,30.361899 L -87.449378,30.370099 L -87.442884,30.375199 L -87.438478,30.381798 L -87.440678,30.391498 L -87.434278,30.397498 L -87.430794,30.404909 L -87.426377,30.409098 L -87.419177,30.410198 L -87.407777,30.408898 L -87.402977,30.410398 L -87.394576,30.418097 L -87.386376,30.420497 L -87.369383,30.431948 L -87.366939,30.44048 L -87.370768,30.446865 L -87.381176,30.450097 L -87.391976,30.451597 L -87.396877,30.450597 L -87.404677,30.452897 L -87.408677,30.456696 L -87.414677,30.457296 L -87.429578,30.470596 L -87.430478,30.476396 L -87.435578,30.480496 L -87.430478,30.496595 L -87.43969,30.506649 L -87.447702,30.510458 L -87.447207,30.522198 L -87.445103,30.528909 L -87.440277,30.531338 L -87.440848,30.536644 L -87.435079,30.546555 L -87.427554,30.553681 L -87.426448,30.558774 L -87.418467,30.564809 L -87.415716,30.572671 L -87.411947,30.574169 L -87.410805,30.580622 L -87.408018,30.583701 L -87.405691,30.603411 L -87.398409,30.606538 L -87.394672,30.615239 L -87.396463,30.617334 L -87.393294,30.627218 L -87.395212,30.636069 L -87.394024,30.641855 L -87.396864,30.647932 L -87.396818,30.65485 L -87.402656,30.657032 L -87.402689,30.664847 L -87.405758,30.666439 L -87.406356,30.674437 L -87.424982,30.683362 L -87.429819,30.687987 L -87.440343,30.690353 L -87.449566,30.69896 L -87.458669,30.697866 L -87.466742,30.700655 L -87.473631,30.704813 L -87.477992,30.713277 L -87.481899,30.717314 L -87.498029,30.720031 L -87.502966,30.722123 L -87.514903,30.733152 L -87.529575,30.742293 L -87.535114,30.749448 L -87.535985,30.761192 L -87.546068,30.772211 L -87.544789,30.778395 L -87.550285,30.781251 L -87.551311,30.78569 L -87.557438,30.789256 L -87.563875,30.796267 L -87.571752,30.800199 L -87.577216,30.808778 L -87.582241,30.812741 L -87.592729,30.815999 L -87.600792,30.821288 L -87.604314,30.831419 L -87.615245,30.83421 L -87.616986,30.840197 L -87.626224,30.846664 L -87.625072,30.854659 L -87.627868,30.860185 L -87.634896,30.866261 L -87.629103,30.880425 L -87.62027,30.887404 L -87.621807,30.897723 L -87.615456,30.902082 L -87.61210912052334,30.913297890780544 L -87.601679,30.935749 L -87.598458,30.938038 L -87.591609,30.95167 L -87.588862,30.96579 L -87.593481,30.97751 L -87.592301,30.980184 L -87.596504,30.987229 L -87.598829,30.997455 L -87.514945,30.997543 L -87.483773,30.998107 L -87.425631,30.997741 L -87.415074,30.998066 L -87.35557,30.997859 L -87.33832,30.998272 L -87.312665,30.997835 L -87.311949,30.998435 L -87.252402,30.997936 L -87.238314,30.996447 L -87.189713,30.998346 L -87.140755,30.999532 L -87.124969,30.998803 L -87.118873,30.999427 L -87.055029,30.9991 L -87.004737,30.999317 L -86.998545,30.998676 L -86.930739,30.997743 L -86.888711,30.997757 L -86.755267,30.996709 L -86.723585,30.996569 L -86.704483,30.994668 L -86.653218,30.994615 L -86.633435,30.994915 L -86.574256,30.994974 L -86.563436,30.995223 L -86.520196,30.993258 L -86.466408,30.993912 L -86.388646,30.994181 L -86.369397,30.994532 L -86.317469,30.99419 L -86.288849,30.993702 L -86.256359,30.993857 L -86.238335,30.99437 L -86.187246,30.994021 L -86.132722,30.993315 L -86.121371,30.992886 L -86.06125226895696,30.992871048208784 L -86.055892,30.993393 L -85.999937,30.993134 L -85.99729,30.992877 L -85.87831,30.99359 L -85.749932,30.994837 L -85.749619,30.995292 L -85.676218,30.995637 L -85.555401,30.996365 L -85.497992,30.996931 L -85.369616,30.998724 L -85.272693,31.000184 L -85.243632,31.000884 L -85.164472,31.000968 L -85.058723,31.000559 L -85.002499,31.000685 L -84.999428,31.013844 L -85.004283,31.018789 L -85.005447,31.025642 L -85.009514,31.032904 L -85.008552,31.042824 L -85.011391,31.053547 L -85.01815,31.059254 L -85.022057,31.066496 L -85.028361,31.074102 L -85.026095,31.083081 L -85.029736,31.096163 L -85.035457,31.104344 L -85.037062,31.109753 L -85.054677,31.120818 L -85.060566,31.131889 L -85.064028,31.142495 L -85.077801,31.157889 L -85.092106,31.160293 L -85.099647,31.164942 L -85.098507,31.180153 L -85.102905,31.185261 L -85.107009,31.185511 L -85.108133,31.195637 L -85.106963,31.202693 L -85.09977,31.209751 L -85.096843,31.225239 L -85.099164,31.23321 L -85.102472,31.23786 L -85.105461,31.246863 L -85.111711,31.258022 L -85.113261,31.264343 L -85.112199,31.273828 L -85.113937,31.278746 L -85.110358,31.281747 L -85.09836,31.284715 L -85.090334,31.293606 L -85.087695,31.304053 L -85.087404,31.311223 L -85.083776,31.31821 L -85.083828,31.326971 L -85.089423,31.336028 L -85.087089,31.340321 L -85.086051,31.353489 L -85.092512,31.356581 L -85.092167,31.364576 L -85.082431,31.38454 L -85.08075,31.392763 L -85.077333,31.400851 L -85.079818,31.411732 L -85.076746,31.415971 L -85.074664,31.427791 L -85.066407,31.429501 L -85.065639,31.439521 L -85.066703,31.447286 L -85.069268,31.453472 L -85.071621,31.468384 L -85.065687,31.484122 L -85.062105,31.488017 L -85.060206,31.494064 L -85.044556,31.520908 L -85.048263,31.526012 L -85.041428,31.539293 L -85.042547,31.545953 L -85.051459,31.556723 L -85.052931,31.56289 L -85.05796,31.57084 L -85.055417,31.578696 L -85.058307,31.583026 L -85.058118,31.593609 L -85.056268,31.605865 L -85.060552,31.608224 L -85.057506,31.617563 L -85.059534,31.621717 L -85.073829,31.629567 L -85.080829,31.637367 L -85.087029,31.640966 L -85.080429,31.655966 L -85.092429,31.659966 L -85.10943,31.677465 L -85.11393,31.686865 L -85.12153,31.690765 L -85.12593,31.696265 L -85.12653,31.716764 L -85.12203,31.723464 L -85.11913,31.730964 L -85.12183,31.743464 L -85.12903,31.757663 L -85.12563,31.764463 L -85.12633,31.768863 L -85.138131,31.777763 L -85.141831,31.782363 L -85.132931,31.792363 L -85.132931,31.808062 L -85.13162500849943,31.81851752762315 L -85.137231,31.831562 L -85.141831,31.839261 L -85.137731,31.845861 L -85.140731,31.857461 L -85.135831,31.862461 L -85.133731,31.870061 L -85.12879144444445,31.876476888888888 L -85.129751,31.883311 L -85.133731,31.88956 L -85.132931,31.89306 L -85.117031,31.89286 L -85.11063,31.89686 L -85.112031,31.90326 L -85.10823,31.90426 L -85.113131,31.911859 L -85.10243,31.917359 L -85.10023,31.924059 L -85.09253,31.928359 L -85.08473,31.937359 L -85.07893,31.940159 L -85.08213,31.944658 L -85.08683,31.957758 L -85.08323,31.962458 L -85.07393,31.964158 L -85.067829,31.967358 L -85.065929,31.971158 L -85.07093,31.981658 L -85.06829936936937,31.987721864864838 L -85.06733,31.995557 L -85.063441,32.00414 L -85.055075,32.010714 L -85.055308,32.017753 L -85.048866,32.023007 L -85.056253,32.028336 L -85.058034,32.033606 L -85.053468,32.037823 L -85.05883,32.046656 L -85.05663,32.054155 L -85.05683,32.059755 L -85.054179,32.067985 L -85.055813,32.074439 L -85.053232,32.080604 L -85.046852,32.083784 L -85.045063,32.088063 L -85.04955,32.095362 L -85.053402,32.104844 L -85.055045,32.11367 L -85.06206,32.132486 L -85.056307,32.137501 L -85.045402,32.143984 L -85.033484,32.156927 L -85.026583,32.166103 L -85.01708,32.173516 L -85.009224,32.181646 L -85.001407,32.182938 L -84.974428,32.191252 L -84.963728,32.195852 L -84.961781,32.198481 L -84.965228,32.203951 L -84.974928,32.20375 L -84.980229,32.207751 L -84.979829,32.21105 L -84.973328,32.21765 L -84.967428,32.219351 L -84.961428,32.218051 L -84.937027,32.218151 L -84.929527,32.219251 L -84.922927,32.22475 L -84.921827,32.23285 L -84.916327,32.236551 L -84.912727,32.24335 L -84.916527,32.24615 L -84.923527,32.24485 L -84.924427,32.250149 L -84.907227,32.249049 L -84.903799,32.251413 L -84.901191,32.258374 L -84.891191,32.257494 L -84.888519,32.260869 L -84.904439,32.274005 L -84.910215,32.276469 L -84.924728,32.287301 L -84.9338,32.29826 L -84.941864,32.30258 L -84.951305,32.304884 L -84.988826,32.319172 L -85.002791,32.322428 L -85.007103,32.328362 L -85.008096,32.336677 L -85.004582,32.345196 L -84.992714,32.353842 L -84.983866,32.362386 L -84.985322,32.372514 L -84.977274,32.373842 L -84.97213323637257,32.377360093558146 L -84.97481,32.380257 L -84.986282,32.380336 L -84.98841,32.385216 L -84.983002,32.391953 L -84.97057,32.390625 L -84.971834,32.394016 L -84.98041,32.400785 L -84.979431,32.412244 L -84.97183,32.416244 L -84.96343,32.422544 L -84.967031,32.435343 L -84.971831,32.442843 L -84.983831,32.445642 L -84.99353,32.450743 L -84.998031,32.461743 L -84.998531,32.468742 L -84.995228,32.475299 L -84.99483,32.4861 L -84.998832,32.497041 L -84.996532,32.501641 L -84.999341,32.507261 L -85.00102,32.510157 L -85.001532,32.514741 L -85.00638,32.518493 L -85.008396,32.524876 L -85.013788,32.526108 L -85.015261,32.531115 L -85.020237,32.534748 L -85.023645,32.542955 L -85.031389,32.544171 L -85.033933,32.551691 L -85.044862,32.557707 L -85.04547,32.561723 L -85.056926,32.571241 L -85.05723,32.573994 L -85.063903,32.579113 L -85.067199,32.579306 L -85.075423,32.592905 L -85.080592,32.604712 L -85.082064,32.615464 L -85.090886,32.625135 L -85.082736,32.634036 L -85.084936,32.636636 L -85.091636,32.634036 L -85.099277,32.635011 L -85.105432,32.644934 L -85.098336,32.652034 L -85.088483,32.657758 L -85.093036,32.664434 L -85.093736,32.669933 L -85.104337,32.679834 L -85.112337,32.683234 L -85.116837,32.691533 L -85.120038,32.706733 L -85.118738,32.710333 L -85.122738,32.716032 L -85.120338,32.723632 L -85.113167,32.732813 L -85.116756,32.739939 L -85.127638,32.742131 L -85.133138,32.744631 L -85.139455,32.751829 L -85.14298,32.761654 L -85.138059,32.76654 L -85.136309,32.771244 L -85.130884,32.769562 L -85.123421,32.772247 L -85.122977,32.775483 L -85.134893,32.784461 L -85.139665,32.78515 L -85.142779,32.792251 L -85.150646,32.793329 L -85.161622,32.803801 L -85.16795826741861,32.8116829863555 L -85.165252,32.818117 L -85.168532,32.827142 L -85.164651,32.834791 L -85.16058,32.838248 L -85.154584,32.839805 L -85.154255,32.847476 L -85.16231,32.856479 L -85.16999262866325,32.852516131159334 L -85.180146,32.855947 L -85.183993,32.860492 L -85.184737,32.870514 L -85.19933055166473,32.94262058819637 L -85.203484,32.964258 L -85.232515,33.108759 L -85.247216,33.184614 L -85.255659,33.229942 L -85.278587,33.349877 L -85.292315,33.420678 L -85.296492,33.440624 L -85.304439,33.482884 L -85.332716,33.625105 L -85.356874,33.747984 L -85.377426,33.856046 L -85.386581,33.901719 L -85.405918,34.0001 L -85.406798,34.002574 L -85.428232,34.114481 L -85.42947,34.125096 L -85.434375,34.148376 L -85.45869,34.269417 L -85.470435,34.32816 L -85.489945,34.418619 L -85.502316,34.473954 L -85.511946,34.518091 L -85.513612,34.523825 L -85.517074,34.542598 L -85.527261,34.588683 L -85.534327,34.625082 L -85.551232,34.702413 L -85.561416,34.750079 L -85.57449667392443,34.81553319500443 L -85.583145,34.860371 L -85.596629,34.931965 L -85.599385,34.951766 L -85.605165,34.984678 L -85.62204658783335,34.98510421615553 L -85.824349,34.988118 L -85.873076,34.988282 L -86.007497,34.989021 L -86.067137,34.989514 L -86.247525,34.990414 L -86.318761,34.991169 L -86.377491,34.991725 L -86.467941,34.990486 L -86.55577,34.990753 L -86.6990411748191,34.99207686864639 L -86.816467,34.991871 L -86.8665,34.992053 L -86.915487,34.992999 L -86.938972,34.993887 L -87.029701,34.995457 L -87.055395,34.996184 L -87.120322,34.997144 L -87.235297,34.99952 L -87.303621,35.000981 L -87.385547,35.002224 L -87.424571,35.002433 L -87.520996,35.003056 L -87.625194,35.003737 L -87.662256,35.003537 L -87.830514,35.005203 L -87.848582,35.005588 L -88.005112,35.005992 L -88.156531,35.007291 L -88.202959,35.008028 L -88.20006571394444,34.99563885164166 L -88.198046,34.990285 L -88.188348,34.975957 L -88.181164,34.968872 L -88.172539,34.9569 L -88.164578,34.940943 L -88.15973,34.928971 L -88.152413,34.919741 L -88.138913,34.908892 L -88.128221,34.903093 L -88.099999,34.894095 L -88.097888,34.892202 L -88.102781,34.849395 L -88.10756,34.811628 L -88.116377,34.746592 L -88.118212,34.726278 L -88.135204,34.615878 L -88.151437,34.500096 L -88.156057,34.464973 L -88.165797,34.382037 L -88.1817,34.258093 L -88.186667,34.220952 L -88.187621,34.204766 L -88.190678,34.190123 L -88.192124,34.175347 L -88.199988,34.117683 L -88.210741,34.0292 L -88.222318,33.944727 L -88.224281,33.927042 L -88.228352,33.899272 L -88.232032,33.869967 L -88.235492,33.847203 L -88.240054,33.810879 L -88.243025,33.795679 L -88.244142,33.781673 L -88.247809,33.751867 L -88.252254,33.719586 L -88.257207,33.675837 L -88.267167,33.592028 L -88.274619,33.534008 L -88.277388,33.512479 L -88.295836,33.359137 L -88.30443550487236,33.28831999642265 L -88.315235,33.203322 L -88.317029,33.185195 L -88.322505,33.142358 L -88.324569,33.133246 L -88.326353,33.10978 L -88.33101,33.07249 L -88.339634,33.000127 L -88.340432,32.991199 L -88.354292,32.875131 L -88.354906,32.86724 L -88.368311,32.750131 L -88.373338,32.711824 L -88.375022,32.694777 L -88.392176,32.548377 L -88.397177,32.508594 L -88.40272,32.461709 L -88.403842,32.448773 L -88.412498,32.380038 L -88.413819,32.373922 L -88.428208,32.251041 L -88.430521,32.234487 L -88.439013,32.167912 L -88.447963,32.095384 L -88.455814,32.035311 L -88.46064435306656,31.99576651916668 L -88.471504,31.909918 L -88.473227,31.893856 L -88.472642,31.875153 L -88.47105767951156,31.849676614794124 L -88.468669,31.790722 L -88.465106,31.722312 L -88.464908,31.705476 L -88.459432,31.620929 L -88.455446,31.546805 L -88.451573,31.481531 L -88.451044,31.459426 L -88.449438,31.435837 L -88.44617,31.370152 L -88.439595,31.261548 L -88.436974,31.208299 L -88.434865,31.172828 L -88.434405,31.156811 L -88.432007,31.114298 L -88.429865,31.070589 L -88.425432,30.998323 L -88.424225,30.967032 L -88.419562,30.875187 L -88.418632,30.86657 L -88.411726,30.722702 L -88.408665,30.649803 L -88.407093,30.617753 L -88.407338,30.613911 L -88.405478,30.582946 L -88.404796,30.557309 L -88.403593,30.541993 L -88.402278,30.510759 L -88.398572,30.435474 L -88.395023,30.369425 L -88.374671,30.385608 L -88.364022,30.388006 L -88.357362,30.406623 L -88.343735,30.401988 L -88.338018,30.404753 L -88.326134,30.397783 L -88.321143,30.396348 L -88.315082,30.391633 L -88.314844,30.384457 L -88.31223,30.376563 L -88.314607,30.371437 L -88.304743,30.371334 L -88.303554,30.379229 L -88.29987,30.385585 L -88.288105,30.387328 L -88.282635,30.382876 L -88.267531,30.381085 L -88.260695,30.382381 L -88.239957,30.374899 L -88.234466,30.371715 L -88.224536,30.371307 L -88.216461,30.367599 L -88.209231,30.360017 L -88.196264,30.36348 L -88.187104,30.362699 L -88.18718,30.352616 L -88.188532,30.345053 L -88.196353,30.343586 L -88.196613,30.337433 L -88.193224,30.326038 L -88.195664,30.321242 L -88.191583,30.318684 L -88.173386,30.326002 L -88.156248,30.327574 L -88.152087,30.33049 L -88.146318,30.330989 L -88.144676,30.321196 L -88.13998,30.31322 L -88.131387,30.334312 L -88.124611,30.341623 L -88.115432,30.35657 L -88.107274,30.377246 L -88.10407,30.4273 L -88.106437,30.452738 L -88.100646,30.46122 L -88.096867,30.471053 L -88.102988,30.493029 L -88.103768,30.500903 L -88.100874,30.50975 L -88.090734,30.52357 L -88.082792,30.528713 L -88.081617,30.546317 L -88.085493,30.563258 L -88.087655,30.564394 L -88.083106,30.572842 L -88.074898,30.578892 L -88.064898,30.588292 L -88.0612,30.596502 L -88.059053,30.608291 L -88.053998,30.612491 L -88.059598,30.619091 L -88.060293,30.626562 L -88.054693,30.63376 L -88.056013,30.637547 L -88.061877,30.643586 L -88.051647,30.646521 L -88.044716,30.649917 L -88.038407,30.647898 L -88.02919,30.65904 L -88.023981,30.660006 L -88.020105,30.675666 L -88.011412,30.685126 L -88.006898,30.682084 L -87.985559,30.677509 L -87.955989,30.658862 L -87.936717,30.657432 L -87.931705,30.654362 L -87.929841,30.650341 L -87.925375,30.648894 L -87.924664,30.641537 L -87.919346,30.63606 L -87.918571,30.630731 L -87.921437,30.62689 L -87.913976,30.620094 L -87.91253,30.615795 L -87.914956,30.585893 L -87.911431,30.576261 L -87.907891,30.573114 L -87.904168,30.565985 L -87.901711,30.550879 L -87.905343,30.537566 L -87.91595,30.517517 L -87.920603,30.51289 L -87.926565,30.496724 L -87.936969,30.483105 L -87.925159,30.477434 L -87.920031,30.470645 L -87.914136,30.446144 L -87.908908,30.41424 L -87.906343,30.40938 L -87.865017,30.38345 L -87.853806,30.378481 L -87.843861,30.378169 L -87.837368,30.376334 L -87.837479,30.368144 L -87.82988,30.353809 L -87.809266,30.332702 L -87.796717,30.324198 L -87.772758,30.311701 L -87.756143,30.292328 L -87.750277,30.292397 L -87.747171,30.287768 L -87.768003,30.262455 L -87.78775,30.254244 L -87.802087,30.253054 L -87.817743,30.254292 L -87.860085,30.240289 L -87.879343,30.23859 L -87.893201,30.239237 L -87.90046,30.241531 L -87.913762,30.247837 L -87.918247,30.253308 L -87.936041,30.261469 L -87.948979,30.256564 L -87.966847,30.235618 L -88.011734,30.232448 L -88.023991,30.23039 L -88.02858,30.226763 L -88.027678,30.223645 L -88.013607,30.22349 L -87.999996,30.225753 L -87.962253,30.229522 L -87.926119,30.230373 L -87.838462,30.227185 L -87.80056,30.229365 L -87.73553,30.240679 L -87.702703,30.244838 L -87.681806,30.248265 L -87.659984,30.250594 L -87.641641,30.254539 L -87.581362,30.269257 L -87.565044,30.271745 L -87.558665,30.271302 L -87.5183351909038,30.280432538779316 Z M -88.053375,30.506987 L -88.045043,30.501189 L -88.026748,30.491105 L -88.023506,30.492573 L -88.026222,30.516609 L -88.035099,30.521967 L -88.03867,30.520405 L -88.053375,30.506987 Z M -88.261902,30.335077 L -88.259764,30.32763 L -88.255395,30.326232 L -88.253557,30.337299 L -88.261902,30.335077 Z M -88.327302,30.229882 L -88.326371,30.228463 L -88.304773,30.228031 L -88.260192,30.236156 L -88.234854,30.241307 L -88.199799,30.24779 L -88.166789,30.249748 L -88.13776,30.249654 L -88.122721,30.247542 L -88.109382,30.24333 L -88.092403,30.243602 L -88.075856,30.246139 L -88.074854,30.249119 L -88.086812,30.259864 L -88.117738,30.279124 L -88.124722,30.273541 L -88.130631,30.262125 L -88.141143,30.255024 L -88.153678,30.253165 L -88.161904,30.253396 L -88.192127,30.250248 L -88.201468,30.251179 L -88.224615,30.245559 L -88.25837,30.239595 L -88.279154,30.235155 L -88.299705,30.231812 L -88.320142,30.232035 L -88.327302,30.229882 Z" fill="none" stroke=currentColor stroke-width="1" vector-effect="non-scaling-stroke"/>
</svg>