<?xml version="1.0"?>
<svg width="200" height="200" xmlns="http://www.w3.org/2000/svg" version="1.2" baseProfile="tiny" viewBox="-326.740 -100.240 1453.480 1453.480" stroke-linecap="round" stroke-linejoin="round">
<g id="state">
<path vector-effect="non-scaling-stroke" d="M 207.44 1239.08 198.26 1241.33 196.81 1241.19 193.11 1241.78 179.38 1245.41 175.2 1246.38 170.25 1246.9 165.49 1247.72 158.03 1248.68 143.23 1251.39 134.63 1251.81 114.76 1250.62 106.56 1250.69 97.98 1251.51 94.88 1252.04 91.69 1251.94 91.5 1251.12 92.56 1250.19 95.35 1249.71 105.55 1249.08 109.7 1243.68 112.66 1242.45 116.66 1244.66 117.65 1246.11 120.63 1247.81 122.27 1248.44 125.41 1248.66 129.78 1248.3 139.45 1244.81 142.99 1245.2 146.25 1244.94 150.76 1242.87 155.6 1236.34 154.91 1235.12 153.58 1235.12 149.91 1229.99 144.53 1226.63 141.73 1224.36 137.15 1218.77 135.5 1214.99 135.56 1212.86 134.1 1212.35 131.85 1212.23 129.33 1210.89 120.1 1203.94 119.54 1202.66 118.51 1194.31 117.3 1187.88 116.17 1186.09 113.52 1184.56 115.94 1181.05 117.37 1176.85 118.45 1175.66 120.94 1170.47 121.83 1167 121.34 1163.05 120.54 1161.17 119.75 1160.33 119 1157.8 119.69 1150 119.39 1148.87 117.73 1147.07 118.4 1146.08 118.25 1144.68 117.08 1143.23 116.95 1141.3 115.95 1140.91 115.55 1139.85 114.43 1139.02 110.09 1138.57 103.5 1133.57 98.71 1132.28 97.7 1131.47 95.69 1133.9 94.74 1137.98 93.56 1138.21 91.42 1141.07 90 1140.52 88.42 1141.38 86.1 1142.1 87.39 1143.7 87.67 1144.7 86.37 1146.55 86.48 1148.51 87.72 1150.25 86.55 1151.33 86.01 1154.4 85.13 1156.53 82.82 1158.94 80.93 1160.48 79.86 1162.67 80.34 1162.97 81.13 1167.42 80.77 1172.01 78.95 1173.32 76.58 1176.88 75.88 1179.18 76.02 1181.24 77.29 1187.01 76.38 1189.56 75.03 1191.75 75.43 1198.4 74.44 1211.46 72.48 1216.83 70.33 1220.69 68.75 1222.57 66.69 1228.04 65.67 1225.93 65.35 1223.37 64.04 1223.47 63.08 1224.21 59.19 1224.54 55.03 1226.37 54.12 1225.68 54.7 1224.44 53.99 1221.45 54.08 1219.84 55.86 1219.5 56.21 1217.53 56.28 1214.89 54.21 1214.65 51.25 1215.49 49.66 1213.47 47.85 1212.47 45.6 1212.31 44.38 1211.46 39.72 1209.4 38.17 1209.71 34.76 1209.16 33.54 1207.97 30.87 1208.37 30 1210.01 29.68 1212.07 27.45 1211.99 28.02 1210.67 27.47 1208.59 27.46 1206.72 26.11 1205.45 24.99 1205.06 22.34 1203.17 21.03 1203.87 17.97 1202.59 16.35 1207.42 13.93 1207.99 9.22 1212.11 8.81 1194.84 8.42 1175.16 8.31 1166.99 8.12 1162.98 8.12 1156.28 7.89 1148.18 7.97 1147.18 7.8 1138.8 7.55 1119.74 6.86 1082.11 6.7 1079.86 6.21 1055.84 6.13 1047.66 5.57 1028.75 5.36 1017.32 5.08 1006.2 5.08 1002.02 4.82 992.74 4.56 978.81 3.76 950.4 3.43 933.22 3.22 927.05 3.24 921.27 2.78 904.2 2.35 884.81 1.66 862.69 1.72 858.29 1.36 840.39 1.2 824.97 1.01 818.31 1 813.42 1.49 809.23 4.45 786.86 5.78 776.55 7.91 760.9 10.36 741.99 12.66 724.64 13.28 720.33 17.25 688.3 17.58 686.71 19.93 668.79 20.26 665.42 21.79 653.2 23.14 642.83 27.86 604.66 28.33 600.22 29.68 590.23 33.37 559.7 33.56 557.64 37.34 527.38 37.57 525.06 39.92 506.19 41.17 496.47 41.71 490.35 42.22 487.98 43.69 476.81 44.2 472.08 47.1 449.93 49.42 431.47 54.41 391.49 55.15 385.88 57.14 370.75 59.83 348.9 61.18 337.49 62.35 329.08 63.33 321.31 63.66 317.65 64.4 313.7 65.62 304.23 66.51 298.3 67.49 290.66 68.55 283.42 69.08 278.81 72.12 256.79 74.99 233.72 77.05 218.69 77.45 214.83 78.2 211.02 78.51 206.8 79.81 197.12 84.01 164.8 86.61 143.17 87.82 134.02 92.03 103.84 96.35 75.07 96.87 69.77 99.16 52.81 100.41 42.96 101.72 31.8 101.27 31.29 95.25 28.8 92.98 27.23 90.14 24.33 88.62 21.88 87.65 18.73 86.04 14.52 84.25 11.35 82.75 9.46 80.75 5.66 80.35 4.25 79.81 1 89.79 1.43 122.34 2.5 156 3.31 159.89 3.49 196.06 4.62 204.03 4.71 226.44 5.28 247.17 5.78 255.56 5.97 273.17 6.56 287.86 7.15 312.57 8.11 326.53 8.53 332.06 8.79 351.56 9.43 356.61 9.71 367.14 10.07 377.9 10.23 403.15 10.41 433.96 11 452.85 11.2 472.3 10.99 484.93 11.2 500.24 11.46 539.03 11.83 551.86 11.98 580.77 12.2 591.24 12.25 634.75 12.99 638.38 13.09 639.64 21.69 640.25 26.86 643.2 45.56 645.09 57.27 647.96 74.37 650.19 86.82 653.9 107.01 655.45 116.52 657.69 128.55 658.45 133.46 658.82 134.95 660.94 146.48 663.66 160.93 667.97 184.55 670.58 199.89 675.97 231.49 677.06 237.57 677.34 240.34 682.12 269.56 682.32 270.21 686.64 295.89 688.68 307.81 693.29 336.03 698.72 368.1 705.09 405.23 706.89 416.26 707.83 421.46 710.94 439.94 716.14 471.25 718.06 483.08 721.4 502.88 728.01 540.59 728.96 546.23 732.29 565.05 732.47 567.67 733.32 568.85 735.57 569.73 737.25 568.68 739.05 571.02 738.99 573.03 737.67 573.44 736.77 574.35 735.93 576.36 736.67 578.71 736.08 580.39 737.49 582.44 739.93 585.16 741.67 585.43 742.37 587.28 743.42 587.46 746.07 589.78 745.98 590.63 744.33 591.34 743.13 590.91 742.76 592.14 741.68 593.43 742.47 595.99 743.88 597.86 745.1 598.5 747.5 599.06 748.31 600.92 746.74 603.33 746.23 605.31 747.12 606.8 746.84 607.74 747.57 611.7 748.58 613.87 750.35 614.74 752.71 617.31 752.88 618.75 753.9 620.48 751.73 621.99 750.17 623.86 751.55 626.44 753.24 626.69 754.72 626 755.21 626.67 753.42 629.01 755.39 631.52 755.74 634.33 756.9 637.4 758.75 640.94 759.48 640.99 760.96 642.31 761.03 643.03 763.59 645.5 763.73 646.55 766.16 648.1 766.74 650.06 768.45 650.37 769.22 652.51 770.33 653.45 770.67 654.75 771.86 655.06 772.32 656.73 773.4 657.7 773.52 658.9 773.9 659.65 774.54 661.11 774.04 662.32 774.94 665.17 774.88 667.99 774.16 669.71 774.29 671.54 775.3 674.4 777.46 675.72 780.13 676.43 781.21 678.38 782.03 681.71 780.18 683.38 778.51 684.43 778.31 687.43 780.23 689.18 780.52 690.06 777.76 689.74 776.57 691.51 777.06 692.78 779.6 692.78 780.2 693.53 779.07 694.46 777.28 694.82 777.63 697.46 775.68 699.71 773.07 701.99 772.31 704.22 772.55 706.39 773.51 707.93 776.62 708.76 784.97 712.43 787.07 713.01 788.87 714.12 790.91 716.97 794.15 719.77 795.44 720.4 799 723.8 798.41 724.69 796.19 724.48 795.63 726.3 794.87 726.93 791.05 726.67 791.27 728.06 792.82 727.7 793.67 728.43 792.88 730.21 791.67 731.19 791.44 733.3 789.99 734.75 788.33 735.05 782.91 735.12 781.57 734.8 780.27 735.25 778.84 736.99 778.76 737.85 779.94 738.88 782.1 738.81 782.87 740.24 782.45 740.93 780.08 742.15 774.1 744.37 772.37 744.72 770.64 746.85 768.54 748.81 767.03 751.21 764.4 754.61 761.99 756.33 760.72 757.64 762.32 762.55 762.7 764.85 763.58 767.32 764.59 769.22 764.2 770.34 762.78 771.18 762.22 772.8 762.6 774.48 762.02 776.63 762.08 778.1 761.6 780.06 762.81 782.36 761.8 783.46 762.21 784.84 763.86 786.22 762.44 787.6 762.51 789.44 760.66 791.17 759.81 793.42 759.61 795.47 759.03 797.05 760.16 799.79 759.75 800.78 758.4 801.63 756.33 802.09 755.53 803.32 756.61 806.73 757.33 807.9 756.04 808.65 754.32 811.01 752.61 812.14 752.13 813.9 749.76 815.35 750.86 817.33 750.02 817.59 750.34 819.26 748.92 820.32 745.38 820.29 745.21 821.2 746.1 822.83 746.33 824.61 745.24 826.29 744.78 828.28 743.7 829.6 744.39 832.62 743.49 834.35 744.52 836.36 745.8 839.75 745.52 842.49 745.55 846.59 743.58 849.21 744.41 850.41 747.06 852.71 747.22 853.86 746.48 855.64 748.11 859.34 748.73 862.6 748.1 864.57 747.1 866.32 747.27 871.68 748.26 873.11 749.97 874.11 750.99 876.56 754.82 881.11 757.51 882.13 756.06 886.06 757.45 886.99 759.03 889.02 762.24 891.04 762.7 892.13 762.03 894.57 763 895.18 762.61 898.38 762.58 901.15 763.24 902.27 762.68 904.33 763.82 906.4 764.16 908.01 766.18 910.8 766.44 912.54 764.94 916.02 765.77 917.35 762.32 924.38 761.91 925.97 761.11 926.99 759.81 931.11 760.37 935 760.95 936.61 761.21 938.64 761.05 941.26 759.21 941.72 758.76 944.81 758.08 945.92 758.66 948.75 757.91 950.87 757.54 953.02 755.4 958.25 755.34 960.34 756.79 961.14 756.58 964.58 756.06 965.7 757.33 968.06 757.36 970.35 756.56 972.18 756.51 974.05 755.93 976.78 754.15 979.12 751.46 979.91 750.67 980.7 751.06 981.98 750.84 984.46 751.2 986.11 752.62 989.01 753.31 991.36 754.06 992.57 754.59 994.65 753.96 998.7 752.36 1000.55 752.11 1002.39 752.38 1005.04 753.3 1005.1 754.3 1006.42 754.07 1010.4 755.77 1011.6 758.99 1012.21 762.11 1016.21 762.91 1018.97 764.25 1021.85 768.23 1024.71 768.6 1026.12 769.9 1028.25 770.74 1031.66 770.25 1034.01 771.68 1035.99 772.57 1037.87 774.1 1039.35 774.76 1042.15 774.57 1044.74 775.49 1046.63 775.77 1048.41 776.87 1049.7 776.21 1053.14 763.56 1053.26 739.77 1053.31 721.96 1053.43 715.43 1053.65 693.63 1054.13 664.75 1054.7 651.83 1054.89 624.66 1055.13 608.14 1055.24 608.07 1055.36 579.19 1055.69 552.43 1055.85 551.83 1055.78 539.25 1055.69 538.04 1055.83 524.51 1055.79 521.96 1055.67 509.7 1055.45 498.2 1055.32 494.15 1055.44 486.84 1055.45 480.4 1055.3 468.72 1055.15 464.39 1055.22 446.89 1055.2 434.79 1055.3 425.07 1054.73 422.63 1054.77 409.32 1054.7 404.87 1054.74 393.34 1054.64 389.04 1054.11 381.92 1054.02 351.9 1053.48 342.44 1053.39 327.19 1052.99 325.8 1052.81 314.49 1052.74 300.12 1052.5 298.75 1052.64 295.2 1052.41 284.18 1052.59 273.24 1052.95 270.08 1052.52 256.68 1052.21 256.52 1052.37 250.75 1052.18 246.87 1052.23 233.48 1051.99 231.1 1052.04 218.02 1051.76 211.01 1051.8 192.13 1051.53 192.61 1054.21 193.53 1056.06 193.25 1056.76 194.24 1059.84 193.57 1063.51 191.97 1067.05 191.24 1067.64 188.79 1073.46 187.99 1076.38 186.54 1077.5 186.85 1080.2 184.83 1081.99 183.46 1085.67 185.02 1087.28 185.63 1088.73 185.34 1090.82 187.39 1092.54 187.76 1094.11 190.21 1094.88 190.96 1097.54 192.76 1098.95 195.11 1099.83 196.23 1100.89 197.42 1103.15 199.18 1104.2 200.61 1106.05 201.97 1107.01 202.19 1108.17 203.41 1108.93 203.1 1110.55 205.33 1113.46 205.48 1116.53 206.7 1118.42 209.98 1120.85 212.63 1123.77 213.73 1124.34 217.36 1125.1 218.23 1126.17 219.18 1128.39 220.72 1129.5 222.53 1130.26 224.59 1130 226.64 1132.28 229 1132.93 230.08 1134.15 234.25 1136.54 234.36 1138.63 235.04 1139.06 235.02 1141.1 236.33 1141.69 236.3 1143.5 236.92 1145.09 236.63 1146.6 237.03 1148.92 236.28 1151.49 236.67 1152.04 235.8 1154.3 234.14 1155.1 233.54 1160.24 232.9 1161.03 232.62 1162.71 231.76 1163.09 231.11 1165.14 229.29 1166.69 229.02 1168.01 227.29 1169.85 225.95 1172.42 226.06 1173.81 224.96 1174.43 224.46 1176.17 224.3 1179.24 226.1 1180.26 228.15 1182.91 226.93 1187.1 228.07 1188.19 228.25 1189.71 231.58 1193.23 232.93 1193.4 233.82 1194.41 235.58 1195.03 236.69 1194.79 239.13 1195.21 241.47 1196.09 242.32 1197.77 241.73 1199.99 237.85 1202.93 235.98 1203.53 234.05 1205.51 232.96 1205.89 230.39 1205.51 228.75 1205.78 227.74 1206.86 226.92 1208.78 225.45 1210.33 225.91 1212.87 224.89 1214.58 223.4 1215.89 222.76 1218.02 223 1221.92 220.62 1224.94 218.16 1225.82 214.06 1225.94 211.78 1226.47 210.69 1227.74 210.45 1231.11 210.91 1232.03 212.85 1232.74 215.38 1232.83 217.3 1232.02 219.61 1232.16 223.02 1231.29 222.46 1234.13 211.62 1237.19 207.44 1238.17 207.44 1239.08 Z M 87.31 1177.82 90.71 1174.38 91.52 1173.98 93.5 1175.42 94 1181.71 93.25 1182.08 89.17 1179.37 87.31 1177.82 Z M 39.18 1221.75 41.09 1221.21 40.61 1224.09 39.63 1223.71 39.18 1221.75 Z M 23.76 1248.91 25.4 1248.38 30.03 1248.54 34.71 1247.77 39.45 1246.71 47.14 1245.32 52.42 1243.96 54.53 1244.24 61.4 1243.56 63.27 1243.66 66.12 1243.23 68.54 1241.43 69.94 1238.47 71.55 1237.05 78.47 1242.22 81.12 1245.08 80.88 1245.85 77.11 1246.44 73.26 1246.43 70.26 1245.27 66.86 1244.65 60.28 1244.49 52.78 1244.85 44.79 1246.38 39.02 1247.6 28.86 1249.51 23.96 1249.29 23.76 1248.91 Z" fill-rule="evenodd" fill="none" stroke="currentColor" stroke-width="1"/>
</g>
</svg>