<?xml version="1.0"?>
<svg xmlns="http://www.w3.org/2000/svg" version="1.2" baseProfile="tiny" width="800" height="1067" viewBox="0 0 800 1067" stroke-linecap="round" stroke-linejoin="round">
<g id="state">
<path d="M 213.57 1053.42 204.59 1055.45 203.17 1055.35 199.54 1055.91 186.12 1059.18 182.04 1060.06 177.18 1060.58 172.53 1061.34 165.22 1062.27 150.74 1064.79 142.31 1065.27 122.79 1064.56 114.75 1064.75 106.35 1065.59 103.32 1066.1 100.18 1066.06 99.98 1065.37 101.01 1064.56 103.73 1064.1 113.73 1063.4 117.7 1058.73 120.58 1057.64 124.55 1059.46 125.54 1060.68 128.5 1062.08 130.12 1062.59 133.21 1062.74 137.49 1062.36 146.92 1059.24 150.4 1059.52 153.6 1059.25 157.99 1057.42 162.63 1051.79 161.94 1050.76 160.63 1050.77 156.93 1046.46 151.6 1043.68 148.81 1041.78 144.22 1037.09 142.53 1033.9 142.55 1032.07 141.1 1031.66 138.89 1031.59 136.4 1030.49 127.2 1024.72 126.62 1023.63 125.46 1016.53 124.15 1011.08 123.01 1009.57 120.38 1008.3 122.69 1005.27 124.02 1001.67 125.06 1000.64 127.42 996.18 128.23 993.22 127.68 989.85 126.85 988.27 126.06 987.57 125.28 985.42 125.82 978.76 125.5 977.81 123.84 976.3 124.47 975.44 124.3 974.25 123.12 973.03 122.96 971.4 121.96 971.07 121.55 970.18 120.43 969.5 116.14 969.18 109.56 965.03 104.81 964.01 103.81 963.33 101.87 965.44 101.01 968.92 99.85 969.14 97.8 971.62 96.39 971.17 94.85 971.92 92.57 972.58 93.88 973.92 94.17 974.77 92.92 976.37 93.08 978.03 94.33 979.5 93.2 980.44 92.72 983.06 91.9 984.89 89.67 986.98 87.85 988.33 86.83 990.21 87.31 990.46 88.18 994.23 87.92 998.15 86.15 999.3 83.89 1002.37 83.25 1004.34 83.42 1006.09 84.78 1010.99 83.94 1013.18 82.65 1015.06 83.18 1020.73 82.47 1031.87 80.65 1036.47 78.61 1039.8 77.1 1041.43 75.18 1046.12 74.14 1044.35 73.77 1042.17 72.49 1042.28 71.56 1042.93 67.75 1043.28 63.7 1044.91 62.79 1044.34 63.33 1043.27 62.58 1040.73 62.64 1039.36 64.38 1039.04 64.68 1037.35 64.69 1035.11 62.66 1034.93 59.77 1035.7 58.16 1034.02 56.36 1033.19 54.15 1033.1 52.93 1032.39 48.31 1030.73 46.79 1031.01 43.43 1030.62 42.21 1029.62 39.59 1030.01 38.77 1031.43 38.51 1033.18 36.31 1033.16 36.84 1032.02 36.26 1030.26 36.21 1028.67 34.86 1027.62 33.74 1027.3 31.1 1025.75 29.83 1026.36 26.79 1025.33 25.31 1029.47 22.94 1030.01 18.41 1033.61 17.62 1018.91 16.79 1002.15 16.5 995.19 16.23 991.78 16.08 986.08 15.67 979.18 15.72 978.33 15.37 971.19 14.69 954.97 13.15 922.94 12.95 921.02 11.91 900.58 11.64 893.61 10.65 877.52 10.18 867.79 9.64 858.33 9.54 854.76 9.07 846.87 8.49 835.01 7.02 810.84 6.3 796.21 5.94 790.96 5.82 786.04 4.96 771.51 4.07 755.01 2.85 736.19 2.81 732.44 2.01 717.21 1.48 704.09 1.13 698.42 1 694.25 1.38 690.68 3.8 671.57 4.88 662.76 6.62 649.39 8.62 633.24 10.51 618.42 11.02 614.74 14.22 587.38 14.52 586.02 16.45 570.72 16.7 567.84 17.93 557.4 19.04 548.55 22.86 515.96 23.24 512.16 24.36 503.64 27.34 477.57 27.48 475.81 30.56 449.97 30.74 447.98 32.66 431.87 33.7 423.57 34.09 418.35 34.55 416.32 35.77 406.78 36.17 402.75 38.58 383.83 40.49 368.06 44.6 333.93 45.21 329.13 46.87 316.22 49.09 297.56 50.19 287.82 51.18 280.64 52 274 52.25 270.88 52.91 267.5 53.92 259.41 54.69 254.35 55.51 247.82 56.42 241.64 56.86 237.7 59.43 218.9 61.83 199.2 63.58 186.37 63.9 183.08 64.58 179.82 64.79 176.21 65.9 167.94 69.44 140.35 71.61 121.89 72.63 114.07 76.25 88.3 80.03 63.72 80.44 59.2 82.4 44.72 83.47 36.31 84.56 26.78 84.09 26.36 77.8 24.36 75.42 23.07 72.42 20.65 70.79 18.6 69.71 15.93 67.94 12.38 66.02 9.72 64.42 8.14 62.26 4.95 61.81 3.76 61.16 1 71.5 1.16 105.21 1.45 140.05 1.54 144.08 1.63 181.53 2 189.78 1.96 212.98 2.11 234.44 2.25 243.13 2.29 261.37 2.57 276.58 2.89 302.17 3.42 316.63 3.64 322.35 3.8 342.54 4.15 347.77 4.35 358.68 4.56 369.82 4.6 395.96 4.55 427.85 4.85 447.4 4.91 467.54 4.63 480.61 4.75 496.47 4.92 536.63 5.12 549.9 5.23 579.83 5.4 590.67 5.43 635.71 6.1 639.47 6.2 640.75 13.52 641.37 17.93 644.37 33.87 646.29 43.85 649.2 58.42 651.47 69.03 655.24 86.25 656.81 94.35 659.08 104.61 659.85 108.79 660.22 110.07 662.36 119.89 665.12 132.21 669.46 152.35 672.07 165.42 677.49 192.37 678.58 197.55 678.85 199.91 683.62 224.83 683.82 225.38 688.13 247.28 690.16 257.45 694.74 281.5 700.12 308.86 706.41 340.52 708.18 349.92 709.11 354.36 712.17 370.12 717.27 396.82 719.15 406.91 722.42 423.8 728.88 455.97 729.81 460.79 733.06 476.84 733.22 479.07 734.08 480.08 736.34 480.84 738.05 479.96 739.84 481.97 739.77 483.67 738.44 484.02 737.53 484.79 736.67 486.49 737.4 488.5 736.79 489.93 738.2 491.69 740.65 494.02 742.4 494.26 743.09 495.84 744.15 495.99 746.81 497.99 746.71 498.71 745.05 499.31 743.84 498.94 743.45 499.98 742.35 501.07 743.14 503.26 744.54 504.86 745.77 505.42 748.19 505.9 748.99 507.49 747.39 509.53 746.86 511.23 747.75 512.5 747.46 513.3 748.17 516.68 749.18 518.53 750.96 519.28 753.32 521.49 753.47 522.71 754.49 524.2 752.29 525.47 750.71 527.05 752.08 529.26 753.78 529.48 755.28 528.9 755.76 529.48 753.95 531.46 755.91 533.61 756.24 536.01 757.39 538.64 759.22 541.66 759.96 541.71 761.44 542.85 761.51 543.46 764.06 545.58 764.2 546.47 766.63 547.81 767.2 549.48 768.92 549.76 769.68 551.58 770.79 552.39 771.11 553.51 772.31 553.78 772.76 555.2 773.84 556.04 773.96 557.06 774.33 557.7 774.95 558.95 774.44 559.98 775.33 562.41 775.25 564.82 774.51 566.28 774.62 567.83 775.62 570.28 777.78 571.42 780.45 572.04 781.52 573.71 782.32 576.56 780.45 577.96 778.76 578.85 778.54 581.4 780.45 582.91 780.73 583.67 777.97 583.37 776.76 584.87 777.24 585.96 779.79 585.97 780.39 586.62 779.24 587.4 777.45 587.7 777.77 589.95 775.8 591.85 773.16 593.78 772.38 595.68 772.6 597.53 773.56 598.85 776.67 599.57 785.02 602.75 787.12 603.27 788.92 604.23 790.94 606.67 794.17 609.08 795.46 609.63 799 612.55 798.41 613.3 796.18 613.11 795.6 614.66 794.84 615.18 791.01 614.94 791.21 616.12 792.77 615.83 793.61 616.45 792.81 617.96 791.59 618.79 791.34 620.59 789.87 621.82 788.2 622.06 782.77 622.08 781.43 621.79 780.12 622.17 778.67 623.64 778.58 624.38 779.76 625.27 781.92 625.22 782.69 626.44 782.26 627.02 779.88 628.05 773.87 629.9 772.13 630.19 770.38 632 768.27 633.65 766.73 635.69 764.08 638.57 761.65 640.01 760.37 641.13 761.93 645.32 762.3 647.28 763.15 649.4 764.15 651.02 763.75 651.97 762.33 652.68 761.76 654.05 762.12 655.49 761.53 657.32 761.58 658.57 761.09 660.24 762.28 662.2 761.26 663.14 761.66 664.32 763.3 665.5 761.87 666.67 761.92 668.24 760.06 669.7 759.19 671.61 758.98 673.36 758.39 674.71 759.51 677.04 759.08 677.89 757.73 678.6 755.65 678.98 754.85 680.03 755.9 682.94 756.61 683.95 755.32 684.57 753.58 686.57 751.87 687.53 751.38 689.02 749 690.25 750.09 691.94 749.24 692.16 749.56 693.58 748.13 694.47 744.59 694.43 744.41 695.21 745.3 696.6 745.51 698.12 744.41 699.55 743.95 701.24 742.85 702.35 743.52 704.94 742.61 706.41 743.63 708.12 744.88 711.02 744.59 713.35 744.59 716.85 742.61 719.07 743.43 720.1 746.06 722.08 746.22 723.06 745.46 724.57 747.06 727.73 747.66 730.51 747.02 732.18 746.02 733.68 746.15 738.24 747.13 739.46 748.82 740.33 749.82 742.42 753.61 746.32 756.28 747.21 754.81 750.55 756.19 751.35 757.75 753.09 760.93 754.83 761.38 755.76 760.7 757.84 761.66 758.36 761.25 761.09 761.2 763.45 761.85 764.41 761.28 766.16 762.4 767.93 762.73 769.3 764.71 771.7 764.96 773.18 763.44 776.14 764.26 777.28 760.78 783.25 760.36 784.6 759.56 785.46 758.24 788.97 758.76 792.29 759.33 793.66 759.57 795.39 759.4 797.62 757.56 798 757.1 800.64 756.41 801.58 756.97 804 756.21 805.8 755.83 807.63 753.67 812.08 753.59 813.86 755.03 814.55 754.8 817.48 754.28 818.43 755.52 820.45 755.53 822.4 754.73 823.95 754.66 825.55 754.07 827.88 752.29 829.86 749.62 830.52 748.82 831.18 749.21 832.28 748.97 834.39 749.31 835.8 750.71 838.28 751.37 840.29 752.11 841.32 752.62 843.1 751.97 846.54 750.37 848.11 750.11 849.69 750.36 851.94 751.28 851.99 752.25 853.13 752 856.52 753.68 857.55 756.86 858.09 759.93 861.52 760.7 863.88 762.01 866.34 765.93 868.8 766.29 870.01 767.56 871.83 768.37 874.74 767.87 876.74 769.27 878.43 770.14 880.05 771.65 881.32 772.28 883.7 772.07 885.91 772.97 887.53 773.23 889.05 774.31 890.15 773.63 893.08 761.11 893.11 737.57 893.02 719.95 893.04 713.48 893.2 691.9 893.52 663.32 893.92 650.54 894.05 623.65 894.21 607.31 894.28 607.24 894.39 578.66 894.66 552.17 894.82 551.58 894.76 539.13 894.71 537.94 894.82 524.55 894.82 522.03 894.72 509.89 894.57 498.51 894.49 494.5 894.6 487.27 894.64 480.9 894.53 469.34 894.45 465.05 894.53 447.74 894.59 435.77 894.74 426.14 894.3 423.73 894.36 410.56 894.37 406.16 894.43 394.74 894.42 390.49 894 383.44 893.97 353.73 893.74 344.38 893.74 329.28 893.53 327.9 893.39 316.71 893.44 302.5 893.36 301.14 893.5 297.62 893.34 286.73 893.6 275.91 894.03 272.77 893.7 259.51 893.58 259.36 893.72 253.64 893.62 249.8 893.71 236.56 893.67 234.21 893.74 221.26 893.66 214.33 893.78 195.65 893.8 196.17 896.08 197.1 897.65 196.84 898.24 197.87 900.85 197.26 904 195.73 907.03 195.02 907.54 192.7 912.54 191.95 915.03 190.54 916 190.88 918.3 188.91 919.86 187.62 923.01 189.19 924.36 189.81 925.59 189.55 927.37 191.61 928.81 192 930.14 194.43 930.76 195.21 933.02 197.01 934.2 199.34 934.92 200.46 935.8 201.68 937.71 203.43 938.59 204.87 940.15 206.23 940.94 206.46 941.93 207.68 942.57 207.4 943.94 209.64 946.4 209.84 949.01 211.07 950.6 214.33 952.64 216.99 955.1 218.09 955.56 221.68 956.17 222.55 957.06 223.52 958.95 225.06 959.87 226.85 960.49 228.88 960.25 230.93 962.17 233.28 962.69 234.35 963.72 238.5 965.71 238.63 967.49 239.31 967.85 239.32 969.59 240.62 970.07 240.61 971.61 241.24 972.96 240.98 974.25 241.41 976.22 240.7 978.42 241.1 978.89 240.27 980.83 238.65 981.52 238.13 985.91 237.51 986.59 237.25 988.03 236.41 988.36 235.8 990.12 234.03 991.46 233.78 992.59 232.1 994.18 230.82 996.38 230.95 997.57 229.87 998.11 229.4 999.6 229.29 1002.21 231.08 1003.06 233.13 1005.3 231.99 1008.88 233.13 1009.8 233.33 1011.09 236.65 1014.05 237.98 1014.18 238.87 1015.03 240.61 1015.54 241.7 1015.32 244.1 1015.65 246.42 1016.37 247.27 1017.79 246.73 1019.69 242.95 1022.24 241.12 1022.77 239.25 1024.49 238.18 1024.82 235.64 1024.53 234.04 1024.78 233.06 1025.71 232.28 1027.36 230.86 1028.7 231.35 1030.86 230.37 1032.32 228.92 1033.46 228.32 1035.29 228.61 1038.6 226.32 1041.21 223.91 1041.99 219.88 1042.14 217.66 1042.62 216.61 1043.71 216.41 1046.59 216.88 1047.37 218.79 1047.95 221.29 1048 223.16 1047.28 225.43 1047.37 228.77 1046.59 228.25 1049.02 217.65 1051.76 213.56 1052.65 213.57 1053.42 Z M 94.46 1002.99 97.74 1000 98.53 999.65 100.51 1000.84 101.11 1006.2 100.39 1006.52 96.32 1004.28 94.46 1002.99 Z M 48.04 1041.26 49.9 1040.76 49.49 1043.23 48.52 1042.91 48.04 1041.26 Z M 33.48 1064.67 35.08 1064.19 39.63 1064.24 44.2 1063.5 48.83 1062.51 56.34 1061.18 61.5 1059.93 63.58 1060.14 70.3 1059.44 72.14 1059.49 74.93 1059.08 77.27 1057.5 78.58 1054.95 80.14 1053.71 87.02 1058 89.68 1060.39 89.46 1061.05 85.78 1061.62 82 1061.68 79.03 1060.74 75.68 1060.27 69.22 1060.25 61.87 1060.69 54.06 1062.13 48.42 1063.28 38.5 1065.09 33.69 1064.99 33.48 1064.67 Z" fill-rule="evenodd" fill="none" stroke="currentColor" stroke-width="1"/>
</g>
</svg>