<?xml version="1.0"?>
<svg xmlns="http://www.w3.org/2000/svg" version="1.2" baseProfile="tiny" viewBox="-40.0 -40.0 880.0 642.0" stroke-linecap="round" stroke-linejoin="round">
<g id="state">
<path d="M 784.25 81 784.55 81.65 785.86 82.86 785.69 84.19 786.06 86.29 787.29 87.55 789.52 88.69 793.47 90.48 795.19 91.57 797.51 92.71 798.47 93.79 798.84 94.95 799 96.58 798.83 97.85 798.26 99.42 796.91 100.53 795.43 101.2 793.33 100.88 790.62 98.63 786.92 96.01 785.08 95.34 783.81 95.23 782.4 95.43 779.08 98.25 778.05 99.76 777.63 101.82 777.98 102.86 778.65 103.56 780.87 104.47 785.94 105.84 788.95 106.85 790.39 107.6 790.5 109.14 790.1 109.88 788.23 111.18 786.31 112.23 785.02 112.75 783.39 112.21 782.3 112.15 780.32 111.55 779.06 111.64 776.45 112.34 774.11 114.33 773.57 115.05 774 116.17 773.53 117.92 773.67 119.7 773.39 120.05 771.39 121.12 769.42 121.97 767.3 122.46 765.43 121.76 765.11 120.37 763.39 120.05 762.12 120.2 759.13 121.05 757.43 120.64 756.27 119.71 755.39 119.97 754.77 120.57 751.39 122.13 750.4 123.47 748.7 124.35 748.03 125.44 748.29 127.14 748.52 130.75 749.39 131.98 750.59 133.16 751.94 134.84 753.39 135.92 756.1 136.95 758.39 136.97 760.09 136.22 760.96 134.79 762.78 133.99 764.15 134.23 765.07 135.44 765.37 137.11 765 138.84 764.51 139.63 761.63 140.98 759.03 142.62 757.55 142.82 755.66 142.43 754.27 143.31 752.39 143.91 749.8 145.21 748.4 146.75 748.18 147.62 748.74 149.07 750.7 152.12 752.97 153.07 755.19 153.33 755.76 153.67 755.81 155.23 756.83 155.62 757.09 157.27 756.04 159 754.99 159.38 753.21 159.42 751.72 158.76 748.05 157.46 748.52 155.96 747.89 154.44 745.33 152.71 743.09 151.63 741.42 151.5 739.8 151.73 738.53 152.31 736.46 152.56 735.04 153.68 734.59 155.62 734.05 156.51 733.38 158.65 733.71 160.7 734.36 162.15 735.66 163.92 738.36 165.68 739.43 167.11 740.28 168.62 740.81 170.46 741.01 172.51 738.04 174.07 733.73 175.44 732.33 176.7 734.37 177.84 734.29 178.43 732.73 179.04 730.29 176.01 731.49 174.88 730.11 173.55 729.55 171.84 729.55 170.97 730 169.21 730.65 167.55 730.49 166.56 728.77 164.99 727.32 164.72 724.14 165 722.35 166.41 721.74 167.55 720.68 170.56 714.36 173.81 714.05 175.72 712.68 179.67 712.82 180.18 714.93 181.49 717.94 181.49 719.68 181.05 718.76 179.87 718.13 178.5 718.02 177.26 718.87 175.8 719.82 175.22 720.82 175.11 723.07 175.51 725.86 178.03 728.47 179.56 728.89 181.34 727.99 182.83 726.46 184.68 726.01 185.52 725.04 188.87 724.03 191.43 723.8 192.55 722.7 192.81 721.74 192.62 720.52 193.2 718.88 193.49 717.45 192.85 716.43 193.04 715.45 193.63 714.93 194.46 714.35 196.61 714.88 197.73 716.54 199.93 717.57 200.68 719.03 201 722.62 200.44 724.19 200.55 726.31 201.56 727.59 203.26 727.88 204.41 729.22 205.94 729.34 207.13 728.46 208.01 727.19 207.45 725.84 210.22 724.01 209.5 722.89 209.58 722.63 210.72 722.76 211.59 724.1 212.34 724.82 213.75 725.71 214.36 728.68 215.85 730.49 216.49 731.13 217.71 730.77 219.51 728.89 221.5 727.06 222.53 725.86 222.59 723.75 222.11 718.85 220.14 717.84 220.12 716.63 220.46 714.6 221.64 713.43 222.91 712.35 226.38 712.42 227.83 713.26 228.99 713.34 229.66 712.39 232.81 710.78 235.01 708.24 237.31 706.91 237.3 705.21 236.73 702.62 236.22 700.97 236.36 699.47 235.65 699.05 234.99 694.79 234.8 693.82 235.33 693.23 237.07 692.43 238.32 692.52 239.24 691.73 240.23 692 242.15 692.49 243.42 694.11 245.36 698.03 248.07 698.86 248.5 701.79 249.52 702.35 250.23 702.75 253.31 702.44 256.03 701.3 257.68 700.09 258.55 698.33 259.44 697.04 259.86 694.8 260.21 692.1 261.26 690.49 262.13 690.92 263.25 692.6 263.81 692.91 264.79 692.05 266.17 691.18 266.45 690.22 266.31 688.44 265.34 687.17 264.14 685.98 265.04 683.35 266.67 679 268.61 677.18 269.1 675.43 269.35 672.46 269.32 671.09 269.48 669.33 267.12 671.59 264.5 672.5 263.09 672.6 262.51 671.53 260.4 670.21 259.47 668.65 258.94 667.13 258.83 665.67 259.42 664.42 260.32 663.78 261.46 663.87 263.74 665.32 265.48 667.3 268.21 668.42 270.19 666.79 271.01 666.01 271.67 665.08 273.45 665.02 274.49 666.01 276.59 667.21 278.44 668.85 280.63 669.55 282.37 669.53 283.29 668.42 284.32 666.87 285.18 665.27 285.73 662.6 286.13 659.93 285.77 657.39 284.53 659.7 281.9 662.2 280.33 662.47 279.18 662.42 277.93 660.77 276.2 659.45 275.1 659.48 273.8 657.88 273.21 655.92 273.52 654.72 274.19 653.6 276.2 654.01 278.21 654.93 280.68 653.96 283.32 653.25 283.19 651.06 283.5 650.4 284.21 650.26 286.13 649.73 287.51 651.73 287.82 653.25 288.94 655.92 290.14 658.59 290.27 663.94 288.89 665.41 288.71 666.61 289.56 667.14 290.97 667.21 292.16 666.36 294.24 665.67 295.02 663.25 297.06 661.17 298.5 660.07 299.63 658.45 300.66 656.11 301.21 654.59 301.01 653.8 300.62 652.68 299.25 652.46 298.35 652.9 295.94 654.79 293.43 654.61 292.27 653.94 291.42 652.63 290.73 651.68 290.54 650.02 290.61 650.41 292.91 650.08 294.95 648.3 296.75 647.37 298.58 646.55 301.78 647.28 303.85 649.44 306.85 653.35 310.52 654.77 312.35 654.87 313.34 654.34 315.4 652.77 316.61 650.59 317.71 649.29 318.14 648.24 319.12 646.82 322.07 646.2 324.17 646.33 325.26 647.6 330.1 648.77 332.33 648.71 333.29 647.44 336.19 645.55 337.95 643.69 339.01 642.65 339.3 640.71 339.26 638.76 339.43 636.77 340.6 635.84 341.56 636.35 342.18 634.52 344.74 634.51 345.91 635.55 348.03 636.01 350.13 635.37 351.26 634.11 351.6 632.71 351.6 631.44 351.17 630.3 350.08 630.21 348.94 630.56 347.5 632.16 345.26 633.01 342.61 631.78 342.55 630.19 343.28 628.03 343.89 625.9 343.95 621.75 342.85 620.01 342.89 619.22 343.24 618.09 344.33 618.05 345.61 618.75 346.88 620.33 348.18 622.19 350.1 623.44 351.98 623.56 353.29 623.1 355.42 621.71 356.94 620.71 357.77 619.51 358.39 618.24 358.58 615.64 358.25 613.55 357.53 610.48 356.8 608.41 357.13 607.77 357.85 607.55 360.33 606.66 363.63 607 366.72 605.6 368.75 604.12 367.92 602.78 367.85 600.12 367.11 597.67 365.59 597.19 365.09 596.11 362.61 593.45 362.27 592.53 362.56 591.43 363.66 591.17 364.5 591.59 366.87 592.7 368.25 594.81 370.42 595.81 371 599.25 372.54 600.74 372.04 601.36 372.44 602.78 372.33 603.4 371.99 604.82 371.86 606.45 372.25 608.27 372.2 610.36 372.43 611.64 373.3 611.93 374.29 611.95 375.85 610.61 377.77 608.73 379.2 607.37 379.69 605.9 379.85 604.3 379.7 602.16 378.95 601.21 378.19 600.01 377.6 598.02 375.97 596.86 375.47 595.53 375.26 593.95 376.49 591.25 377.85 587.72 380.08 587.34 380.87 587.73 382.17 589.81 384.49 593.71 386.81 594.61 386.95 597.28 386.52 598.3 386.11 599.83 386.29 600.88 386.9 601.6 387.9 601.75 388.89 601.14 390.31 599.34 392.4 598.94 393.5 599.33 395.51 598.99 396.7 598.2 397.54 596.46 398.1 594.61 398.35 592.16 398.27 587.79 397.51 585.44 397.79 582.99 398.72 584.31 401.74 584.28 402.07 585.76 403.12 587.11 404.8 587.18 406.24 586.51 407.47 584.6 408.15 583.08 408.1 581.09 407.19 578.69 402.33 578.05 401.28 575.27 402.75 573.65 403.01 572.79 402.79 570.3 400.89 569.32 400.4 567.59 400.43 566.82 401.79 566.55 403.61 566.64 406.78 566.98 408.27 568.03 409.03 578.1 411.11 579.13 411.88 579.35 413.46 578.81 414.35 576.85 416.74 575.66 418 573.62 419.69 570.45 421.69 569.42 423.08 569.35 423.93 569.82 426.55 570.33 427.61 573.22 431.3 575.07 432.29 576.23 432.7 579.72 433.42 581.01 433.95 582.44 435.1 582.92 436.4 582.63 437.34 581.92 438.24 580.26 439.16 578.21 439.62 576.7 439.46 572.53 437.35 569.2 437.93 563.67 438.41 562.66 437.57 561.21 436.72 560.34 436.48 559.4 436.76 557.86 438.95 558.51 440.19 557.83 441.87 557.23 444.88 559.67 447.45 560.9 448.47 562.23 449.05 564.66 449.13 567.02 448.59 568.57 447.79 570.18 447.31 571.19 447.41 573.53 448.83 574.88 450.47 575.33 451.61 576.23 451.87 576.2 452.89 575.69 454.1 574.3 454.81 571.67 455.27 569.91 456.08 568.3 456.63 566.17 456.61 560.41 454.13 559.4 453.29 557.97 451.57 555.38 448.85 554.25 449.37 552.81 449.61 548.15 449.73 546.64 450.02 545.19 450.91 544.4 451.94 544.15 452.75 544.21 454.1 544.58 454.84 545.63 456.01 547.15 456.83 550.23 457.09 552.6 457.59 553.89 458.17 556.63 459.83 558.77 461.37 560.01 463.2 560.45 464.46 560.37 465.53 559.91 466.59 558.68 467.95 555.99 470.05 554.07 470.91 552.46 471.18 548.33 470.87 546.54 470.87 544.46 471.24 543.67 471.91 543.55 473.08 544.19 474.44 545.58 476.67 546.77 478.01 549.53 479.84 551.27 480.7 551.68 481.16 551.58 482.37 550.01 483.61 548.71 485.25 547.99 486.67 546.62 487.58 545.1 488.06 543.86 489.04 543.72 490.86 543.37 491.75 546.4 492.49 547.98 492.57 551.16 491.8 552.75 490.89 553.92 489.52 552.86 486.29 552.73 483.96 553.43 482.58 553.89 482.28 555.18 482.38 558.64 484.07 560.03 485.03 561.63 487.13 562.25 488.85 562.05 490.55 560.53 492.12 559.9 493.19 558.99 493.63 557.72 493.58 556.41 493.93 552.41 495.26 551.53 494.9 550.2 495.16 549.17 495.08 548.35 495.55 547.71 496.43 547.63 497.57 547.98 497.98 550.43 499.65 552.09 500.5 553.88 501.16 557.38 501.41 558.89 501.01 561.46 499.95 562.45 499.39 564.18 497.92 565.64 495.98 565.83 494.02 565.45 492.85 565.66 491.83 566.6 490.32 567.25 489.7 568.43 489.17 569.75 489.05 571.4 489.86 571.77 490.49 571.85 492.76 571.63 493.71 570.86 494.92 568.35 497.55 566.32 498.74 564.45 500.43 563.32 502 561.73 503.88 558.57 505.81 558.29 506.19 558.49 508.2 558.06 509.53 558.4 511.44 558.42 514.24 560.96 517.22 560.93 518.28 560.57 519.1 562.05 520.08 563.36 522.72 564.76 523.85 565.29 523.87 565.91 521.99 566.61 520.91 567.47 517.83 568.11 517.01 569.15 516.41 570.43 516.09 572.24 516.24 573.5 516.94 574.1 518.11 573.94 519.3 572.99 521.86 572.41 522.7 569.97 524.83 569.69 525.71 568.67 525.67 567.85 526.58 565.01 526.96 566.28 529.44 567.48 531.36 568.05 532.6 568.26 534.18 568.16 536.3 567.85 538.33 567.3 540.29 564.62 541.24 563.01 541.42 560.55 541.47 557.28 541.26 555.31 539.48 553.89 539.27 551.64 539.42 550.24 540.13 549.21 541.33 548.68 542.58 548.89 544.87 550.22 545.66 551.92 546.27 553.23 547.81 557.13 549.06 561.04 551.78 561.8 553.34 561.4 553.96 561.01 555.9 560.55 556.62 558.75 557.64 557.05 557.95 555.31 558.81 554.44 560.37 554.49 561.46 543.28 561.35 536.31 561.32 522.91 561.19 517.91 561.2 507.27 561.15 498.98 561.06 486.22 561.09 466.2 560.97 457.84 561 440.77 560.91 434.32 560.92 413.54 560.9 409.69 560.86 398.85 560.77 393.64 560.7 385.25 560.65 371.78 560.49 348.65 560.27 345.39 560.21 327.45 560.07 324.75 559.99 320.18 559.99 309.78 559.87 295.73 559.76 283.99 559.56 270.54 559.46 260.4 559.32 257.64 559.37 252.11 559.29 231.58 559.29 225.81 559.19 220.31 559.28 209.31 559.21 197.4 559.21 185.5 559.15 179.25 559.17 170.69 559.14 157.74 559.04 147.35 559.02 136.46 559.05 111.78 559 100.02 559.01 93.17 559.06 93.15 543.45 93.18 530.1 93.17 513.26 93.13 504.63 93.15 480.23 93.11 473.7 91.74 473.52 90.36 474.02 89.63 473.9 88.23 473.06 88.41 472.43 89.27 472.2 90.19 472.47 91.14 472.1 91.07 471.22 89.44 470.93 89.04 470.49 87.19 469.96 85.33 469.93 81.96 471.24 80.71 471.23 80.41 473.39 79.83 473.83 79.08 473.63 78.7 472.5 78.48 470.69 78.03 470.61 77.07 471.46 75.85 471.11 75.8 470.48 77.19 469.47 76.64 468.83 75.5 469.81 74.89 469.82 74.08 469 74.01 467.72 71.87 467.38 70.49 466.84 68.72 468.85 67.21 469.16 66.24 468.67 65.21 469.11 65.49 469.79 66.52 470.16 67.8 469.56 68.58 469.89 69.58 471.78 69.37 472.74 68.72 473.13 67.74 472.56 67.46 471.4 66.62 471.3 65.12 472.79 64.18 473.4 62.1 473.58 59.76 472.72 59.73 471.67 60.96 470.1 61.86 469.6 62.14 468.1 60.86 467.62 58.78 468.73 57.75 469.79 56.08 472.55 55.33 472.82 53.61 472.71 53.31 471.86 53.53 471.09 54.83 470.23 54.72 468.94 53.39 468.9 52.16 469.8 51.61 470.57 50.86 472.31 50.93 473.04 50.46 473.67 48.83 474.13 46.78 473.36 46.44 471.95 45.78 471.19 44.63 471.18 43.49 472.21 44.36 473.7 43.12 475.05 40.74 474.64 38.86 474.91 37.68 474.52 35.69 472.5 36.6 471.32 37.49 471.51 38.9 471.1 39.3 470.72 39.35 469.31 38.19 468.83 36.23 470.56 35.31 471.01 33.92 470.91 31.42 467.54 29.59 466.87 29.22 467.3 27.34 467.23 26.41 465.9 24.93 466 24.35 465.3 24.85 464.71 27.26 463.41 27.47 462.33 26.26 462.02 26.21 460.83 28.07 460.46 28.42 459.5 28.02 459.05 26.53 458.69 25.33 460.14 23.4 459.68 22.14 459.87 22.23 455.78 22.58 444.13 22.93 430.84 23.11 425.89 23.57 408.62 24.1 390.28 24.27 385.29 24.48 376.27 24.72 368.97 25.03 355.88 25.72 334.48 26.3 313.63 26.74 298.62 27.38 278.96 27.95 261.44 28.78 236.86 29.36 220.97 29.43 218.14 30.02 201.9 30.75 183.01 30.56 181.04 30.71 179.98 30.33 179.22 30.95 178.41 29.67 171.38 27.99 161.7 26.9 154.82 25.94 149.42 24.15 138.31 22.39 128.12 20.22 115.07 19.39 110.37 18.2 103.16 16.52 93.4 13.31 74.91 11.09 62.42 9.19 51.56 7.02 38.8 5.91 32.04 3.7 17.84 2.96 13.46 1 1.01 10.37 1.02 20.27 1.1 28.85 1.03 40.42 1 56.91 1.07 77.2 1.16 87.7 1.15 116.16 1.11 121.43 1.14 143.71 1.06 158.63 1.09 172.6 1.05 181.95 1.11 193.29 1.12 198.79 1.17 213.39 1.19 229.54 1.26 238.36 1.28 244.16 1.24 257.6 1.23 265.15 1.27 281.35 1.28 296.91 1.28 303.33 1.28 330.98 1.21 345.32 1.14 353.48 1.27 359.03 1.28 360.66 1.37 371.28 1.31 381.2 1.23 402.28 1.13 421.07 1.19 434.28 1.12 446.65 1.11 462.31 1.04 494.44 1.06 503.28 1.18 511.09 1.36 515.79 1.4 531.58 1.35 549.03 1.35 560.8 1.31 581.23 1.21 593.13 1.19 598.98 1.22 611.97 1.13 612.96 1.16 624.98 1.17 629.5 1.22 635.75 1.16 662.19 1.2 666.29 1.16 678.28 1.25 690.48 1.24 702.01 1.29 717.01 1.26 716.27 1.89 716.23 3.45 715.9 4.19 718.48 4.92 718.18 5.89 717.04 5.71 716.49 6.32 718.22 6.88 719.92 8.46 719.43 8.93 719.94 10.77 719.23 11.96 718.58 11.95 718.29 12.9 719.4 13.54 719.8 14.16 719.49 14.84 721.86 15.24 723.58 15.75 723.88 16.36 724.73 16.11 728.28 16.77 729.61 18.13 730.87 18.97 731.22 19.51 730.74 20.48 731.17 20.94 730.77 23.6 729.28 25.02 729.52 25.94 728.87 27.02 729.34 27.5 728.72 28.59 728.56 29.8 729.54 30.2 730.29 30.88 731.14 32.61 729.47 34.45 728.77 34.63 729.29 36.02 728.65 36.43 728 37.51 725.95 37.63 724.35 38.48 723.36 38.4 722.65 38.94 722.45 40.44 721.87 41.59 720.45 42.47 721.42 43.39 720.95 44.28 720.2 44.8 718.6 44.66 718.35 45.28 717.54 45.55 717.02 46.53 716.2 46.87 715.57 46.55 714.15 47.06 712.21 48.17 711.26 48.19 710.94 48.82 709.21 49.78 708.63 51.17 707.55 51.75 706.17 51.49 704.61 53.38 704.3 54.69 703.7 55.53 704.36 56.46 704.33 57.55 703.77 57.83 703.68 58.76 702.06 59.27 702.1 59.69 700.83 60.7 699.66 60.68 698.7 61.87 694.47 62.75 694.3 63.52 693.63 63.9 693.22 65.49 691.36 65.96 690.03 67.18 690.36 69.06 689.91 69.74 688.02 70.26 687.52 71.36 688 71.91 686.39 74.13 685.6 74.44 685.59 75.49 684.75 76.5 685.1 76.81 684.26 77.93 682.22 79.81 680.84 81.79 698.93 81.66 709.1 81.57 740.82 81.27 753.98 81.21 778.35 80.99 784.25 81 Z" fill="none" stroke="currentColor" stroke-width="1"/>
</g>
</svg>