<svg viewBox="-95.11544869540636 -36.99729142685513 5.972129122261478 4.490670853710256" xmlns="http://www.w3.org/2000/svg">
  <path d="M -89.7330085844988,36.00070766146198 L -89.769782,36.000722 L -89.92173797514623,35.999373774433806 L -90.003817,35.999018 L -90.20165847384798,35.99713677278896 L -90.26509,35.996586 L -90.3779,35.995745 L -90.369282,36.008107 L -90.356565,36.019807 L -90.351356,36.026823 L -90.353541,36.028766 L -90.348275,36.035051 L -90.348208,36.041573 L -90.343299,36.043544 L -90.333277,36.05741 L -90.336278,36.060809 L -90.333131,36.067657 L -90.321361,36.07093 L -90.318537,36.075164 L -90.320618,36.086854 L -90.312314,36.094503 L -90.3007,36.097417 L -90.298158,36.107317 L -90.293985,36.109734 L -90.292928,36.114499 L -90.266525,36.120021 L -90.260517,36.127388 L -90.253267,36.127312 L -90.245307,36.133594 L -90.245556,36.136188 L -90.235445,36.139395 L -90.234929,36.145189 L -90.231397,36.146949 L -90.231231,36.153739 L -90.235347,36.15954 L -90.231608,36.164775 L -90.229638,36.172958 L -90.219965,36.184727 L -90.211359,36.183099 L -90.204624,36.186747 L -90.200979,36.195423 L -90.190186,36.201384 L -90.188214,36.20534 L -90.182296,36.205405 L -90.170174,36.212367 L -90.161325,36.215544 L -90.157393,36.213568 L -90.152239,36.215647 L -90.149016,36.221789 L -90.143966,36.223462 L -90.142393,36.227327 L -90.13241,36.226432 L -90.127742,36.229726 L -90.1248,36.235263 L -90.130876,36.240998 L -90.121999,36.246468 L -90.118402,36.253624 L -90.117175,36.262992 L -90.112721,36.26634 L -90.106538,36.265859 L -90.096556,36.271192 L -90.083795,36.271938 L -90.079735,36.278661 L -90.075747,36.281209 L -90.079015,36.289868 L -90.074625,36.291032 L -90.064193,36.302502 L -90.069487,36.313254 L -90.074186,36.317533 L -90.08027,36.319995 L -90.079298,36.327518 L -90.075459,36.334345 L -90.078366,36.33732 L -90.074339,36.344071 L -90.07581,36.349835 L -90.066504,36.358659 L -90.064023,36.375278 L -90.066733,36.378111 L -90.063698,36.384185 L -90.065907,36.387529 L -90.073754,36.392769 L -90.082044,36.401237 L -90.10416,36.40535 L -90.109462,36.40379 L -90.111354,36.407654 L -90.122084,36.410785 L -90.136868,36.41328 L -90.134905,36.417572 L -90.137401,36.421417 L -90.14434,36.42538 L -90.142567,36.43131 L -90.138501,36.43126 L -90.134054,36.438699 L -90.137268,36.450189 L -90.134172,36.453071 L -90.144763,36.462964 L -90.155593,36.466435 L -90.152147,36.47022 L -90.145061,36.469109 L -90.143156,36.475186 L -90.159244,36.479711 L -90.157206,36.484311 L -90.156961,36.494066 L -90.152307,36.497982 L -90.245906,36.497809 L -90.317782,36.498104 L -90.39386,36.498075 L -90.468672,36.498631 L -90.494217,36.498353 L -90.659143,36.498647 L -90.698071,36.498237 L -90.726291,36.498539 L -90.801232,36.498606 L -90.807408,36.498834 L -90.888418,36.498224 L -90.924933,36.498452 L -90.999125,36.49831 L -91.126522,36.497665 L -91.199931,36.497462 L -91.308764,36.497433 L -91.407259,36.497091 L -91.436545,36.49737 L -91.485295,36.498515 L -91.54038,36.49922 L -91.740773,36.499381 L -91.83842110764039,36.49891011624193 L -91.915578,36.498849 L -91.99796,36.498418 L -92.115179,36.498824 L -92.246645,36.498199 L -92.308524,36.497661 L -92.374737,36.497302 L -92.384927,36.497845 L -92.41951426095693,36.49793053166549 L -92.470416,36.498762 L -92.55984,36.4983 L -92.732278,36.497865 L -92.77233887474074,36.49784418045924 L -92.86933,36.497851 L -92.970368,36.497953 L -93.0175,36.498193 L -93.101314,36.498121 L -93.137471,36.497853 L -93.192448,36.49799 L -93.293174,36.498433 L -93.384272,36.49854 L -93.418541,36.498852 L -93.489236,36.498938 L -93.54755,36.499305 L -93.634726,36.499055 L -93.7277565631729,36.49922518412088 L -93.866689,36.498735 L -93.899589,36.4989 L -94.077089,36.498669 L -94.142533,36.498646 L -94.269074,36.49918 L -94.371911,36.499614 L -94.44408910544624,36.49944964222428 L -94.497594,36.498972 L -94.55931,36.499496 L -94.61777126855124,36.499532 L -94.605539,36.421936 L -94.600945,36.394582 L -94.58714,36.306055 L -94.580203,36.263858 L -94.566678,36.184296 L -94.554837,36.116538 L -94.541012,36.038639 L -94.520985,35.923332 L -94.5105,35.862498 L -94.503073,35.817529 L -94.497913,35.788202 L -94.484394,35.706814 L -94.473399,35.643303 L -94.46220818900412,35.573970393906215 L -94.45623,35.540291 L -94.449434,35.497403 L -94.438988,35.437026 L -94.431014,35.393167 L -94.434879,35.388115 L -94.432486,35.383407 L -94.433428,35.376802 L -94.432212,35.364514 L -94.4367719711814,35.24671943220056 L -94.44047,35.145398 L -94.440921,35.127762 L -94.444504,35.028665 L -94.449675,34.875361 L -94.453272,34.766112 L -94.457218,34.643482 L -94.459958,34.549888 L -94.463588,34.419819 L -94.467896,34.286389 L -94.46984,34.204719 L -94.471356,34.159203 L -94.472631,34.102978 L -94.473693,34.07185 L -94.477019,33.957462 L -94.479898,33.849738 L -94.481014,33.81889 L -94.483157,33.735995 L -94.48539,33.663365 L -94.4859036243323,33.637857841545376 L -94.478067,33.639007 L -94.466033,33.636189 L -94.458573,33.6452 L -94.44928,33.642931 L -94.44678,33.640178 L -94.448946,33.634193 L -94.460564,33.631881 L -94.460249,33.624419 L -94.452699,33.622507 L -94.453977,33.615764 L -94.469058,33.607642 L -94.47214,33.603956 L -94.46854,33.59964 L -94.459272,33.600258 L -94.453483,33.59197 L -94.441749,33.591511 L -94.439469,33.594211 L -94.428034,33.590038 L -94.412451,33.569019 L -94.403786,33.568382 L -94.398082,33.571148 L -94.38585193042658,33.58197008625275 L -94.378594,33.578955 L -94.37892,33.570164 L -94.381393,33.567789 L -94.39023,33.565274 L -94.395723,33.566457 L -94.401418,33.559076 L -94.388999,33.546458 L -94.381664,33.544035 L -94.36992,33.54572 L -94.355064,33.543186 L -94.347341,33.551605 L -94.352774,33.560893 L -94.345665,33.567318 L -94.338498,33.567271 L -94.334351,33.562527 L -94.332266,33.553732 L -94.319498,33.548931 L -94.3093,33.55175 L -94.306386,33.555707 L -94.306821,33.560238 L -94.302134,33.571104 L -94.29874,33.57594 L -94.29101727357241,33.58153762773169 L -94.282741,33.581281 L -94.282071,33.573225 L -94.290164,33.567851 L -94.291534,33.563095 L -94.289669,33.557797 L -94.278943,33.557083 L -94.274241,33.558759 L -94.263855,33.575963 L -94.25743728695483,33.58261534296563 L -94.244471,33.589494 L -94.236447,33.586518 L -94.238214,33.577161 L -94.2438,33.57407 L -94.251499,33.564265 L -94.251299,33.557718 L -94.23669,33.552339 L -94.223757,33.553482 L -94.217875,33.557261 L -94.208546,33.566561 L -94.203269,33.565911 L -94.201552,33.558688 L -94.195447,33.555162 L -94.191384,33.55755 L -94.190081,33.563567 L -94.196325,33.575362 L -94.201162,33.577409 L -94.20914631286651,33.573687535235365 L -94.215596,33.575995 L -94.217304,33.580245 L -94.21087460744747,33.582932532753276 L -94.204821,33.579931 L -94.195404,33.581837 L -94.184411,33.594386 L -94.175774,33.590982 L -94.16243574063387,33.58890507974715 L -94.162006,33.580884 L -94.156983,33.575802 L -94.153168,33.575845 L -94.146048,33.581975 L -94.14263346158872,33.57798237766328 L -94.151285,33.571659 L -94.150978,33.56772 L -94.143374,33.565593 L -94.137353,33.570833 L -94.134562,33.570368 L -94.133196,33.559052 L -94.130831,33.552047 L -94.126151,33.550782 L -94.122533,33.553516 L -94.120669,33.566986 L -94.112832,33.566921 L -94.091852,33.575102 L -94.080219,33.574922 L -94.068727,33.571612 L -94.066181,33.568889 L -94.056025,33.567075 L -94.055615,33.561577 L -94.061534,33.559252 L -94.06729,33.560956 L -94.072647,33.559503 L -94.073758,33.555554 L -94.065028,33.550348 L -94.060501,33.549583 L -94.05184,33.552707 L -94.043313,33.551584 L -94.043095,33.510896 L -94.043184,33.358718 L -94.042941,33.304894 L -94.042863,33.19984 L -94.043072,33.116573 L -94.04297750315034,33.019261736966754 L -94.000219,33.019566 L -93.926873,33.01962 L -93.772944,33.019274 L -93.705037,33.019516 L -93.64026917517513,33.01935193750299 L -93.559501,33.018763 L -93.506092,33.01854 L -93.467098,33.018697 L -93.392917,33.0183 L -93.318621,33.018281 L -93.250028,33.017844 L -93.215756,33.018446 L -93.179751,33.017789 L -93.051698,33.017802 L -93.017234,33.017316 L -93.000017,33.017617 L -92.936751,33.016745 L -92.852908,33.016108 L -92.7797,33.014876 L -92.692075,33.014209 L -92.627159,33.013416 L -92.598678,33.013453 L -92.581862,33.012942 L -92.469978,33.012064 L -92.449627,33.01169 L -92.305377,33.010315 L -92.221365,33.009317 L -92.169078,33.009019 L -92.136531,33.008553 L -92.06893,33.00799 L -92.044963,33.007751 L -91.915352,33.007655 L -91.875128,33.007728 L -91.768682,33.007138 L -91.716514,33.007298 L -91.591657,33.00658 L -91.512107,33.006794 L -91.460375,33.006189 L -91.394044,33.005882 L -91.362839,33.005952 L -91.279262,33.005122 L -91.235826,33.004987 L -91.165892,33.004298 L -91.16619343475186,33.011048921487316 L -91.160756,33.020806 L -91.149928,33.026186 L -91.139343,33.028089 L -91.128133,33.034451 L -91.125258,33.038946 L -91.122807,33.051072 L -91.12029,33.054922 L -91.125034,33.064637 L -91.149403,33.081581 L -91.173766,33.089402 L -91.181917,33.099006 L -91.19253,33.10284 L -91.200805,33.107765 L -91.202125,33.122044 L -91.198809,33.129834 L -91.19239,33.137275 L -91.183698,33.141744 L -91.169627,33.142642 L -91.160804,33.141352 L -91.14849,33.13026 L -91.128078,33.128914 L -91.112746,33.129227 L -91.102702,33.130374 L -91.086017,33.136281 L -91.08259,33.14852 L -91.080617,33.161177 L -91.080048,33.174388 L -91.081303,33.18428 L -91.084855,33.191981 L -91.09234,33.203944 L -91.10026,33.219428 L -91.082592,33.221826 L -91.07749,33.227494 L -91.071075,33.227242 L -91.069332,33.232689 L -91.05413,33.24599 L -91.050506,33.251235 L -91.044628,33.26722 L -91.043624,33.274636 L -91.047314,33.281932 L -91.055182,33.286314 L -91.066482,33.287222 L -91.07449,33.285226 L -91.080926,33.281505 L -91.08495,33.276384 L -91.090328,33.257192 L -91.094655,33.250457 L -91.098517,33.238694 L -91.10184736042751,33.23881876154676 L -91.110558,33.245907 L -91.118733,33.26235 L -91.127966,33.268471 L -91.125711,33.27358 L -91.125533,33.280208 L -91.141364,33.298788 L -91.1415,33.316204 L -91.143625,33.328114 L -91.140925,33.33641 L -91.142219,33.348989 L -91.140462,33.351352 L -91.120763,33.363349 L -91.110846,33.375108 L -91.103808,33.384876 L -91.09213416437457,33.39540813253176 L -91.079462,33.40284 L -91.063801,33.419276 L -91.05901,33.426829 L -91.057633,33.432739 L -91.058109,33.446907 L -91.060442,33.450789 L -91.070742,33.455851 L -91.078966,33.455144 L -91.08634,33.451778 L -91.090393,33.447962 L -91.096262,33.438493 L -91.097516,33.432136 L -91.095173,33.424889 L -91.096374,33.412623 L -91.105484,33.400565 L -91.116259,33.391399 L -91.12242,33.387879 L -91.138454,33.381258 L -91.147895,33.3788 L -91.169702,33.380351 L -91.180893,33.38446 L -91.191198,33.389757 L -91.206477,33.400143 L -91.208682,33.402723 L -91.208202,33.409856 L -91.204169,33.415335 L -91.199096,33.41828 L -91.192672,33.417767 L -91.184363,33.419381 L -91.178857,33.417145 L -91.153942,33.425422 L -91.145762,33.427597 L -91.137862,33.427288 L -91.132152,33.430025 L -91.128232,33.43672 L -91.118775,33.446485 L -91.117528,33.457091 L -91.121351,33.467836 L -91.131338,33.480927 L -91.14004,33.486925 L -91.161614,33.497478 L -91.169627,33.498071 L -91.172498,33.49619 L -91.176895,33.487593 L -91.176048,33.473048 L -91.169466,33.452936 L -91.176721,33.444361 L -91.186637,33.438712 L -91.20647,33.433924 L -91.216333,33.434427 L -91.235222,33.439022 L -91.233085,33.444568 L -91.232202,33.455944 L -91.22444,33.46206 L -91.214957,33.465042 L -91.206454,33.470707 L -91.201975,33.479581 L -91.193856,33.489793 L -91.184026,33.497516 L -91.18342,33.505062 L -91.185991,33.507932 L -91.196855,33.513303 L -91.21402,33.524698 L -91.221467,33.533076 L -91.230155,33.546952 L -91.234147,33.555437 L -91.233392,33.562747 L -91.228441,33.566938 L -91.215449,33.569271 L -91.204319,33.56925 L -91.178555,33.567305 L -91.168502,33.56897 L -91.156559,33.574348 L -91.139784,33.587424 L -91.132102,33.595908 L -91.129253,33.602572 L -91.12873,33.609204 L -91.131485,33.617084 L -91.139179,33.628472 L -91.15253,33.638079 L -91.169619,33.648465 L -91.17767,33.65205 L -91.192444,33.655205 L -91.211678,33.656791 L -91.221174,33.661938 L -91.227712,33.669185 L -91.229979,33.673829 L -91.23041,33.682238 L -91.228796,33.687288 L -91.223914,33.693739 L -91.214875,33.699266 L -91.205436,33.701099 L -91.176345,33.701806 L -91.167425,33.703326 L -91.160367,33.706602 L -91.144188,33.689596 L -91.13528,33.678859 L -91.128956,33.673631 L -91.093053,33.658177 L -91.079776,33.658036 L -91.069737,33.661461 L -91.058756,33.666553 L -91.042367,33.669399 L -91.033707,33.673844 L -91.030496,33.681403 L -91.030328,33.687716 L -91.035949,33.689329 L -91.038765,33.696493 L -91.047135,33.706674 L -91.061743,33.715573 L -91.068051,33.716198 L -91.078094,33.713178 L -91.087738,33.708197 L -91.102448,33.704817 L -91.117645,33.705299 L -91.125949,33.708948 L -91.133562,33.715324 L -91.148807,33.73136 L -91.145046,33.750107 L -91.140826,33.760583 L -91.144891,33.76834 L -91.1353,33.782001 L -91.129444,33.783726 L -91.124004,33.782216 L -91.114967,33.776932 L -91.108663,33.771668 L -91.07416,33.774673 L -91.053386,33.778283 L -91.027367,33.765114 L -91.017964,33.764144 L -91.005165,33.76703 L -90.994859,33.772756 L -90.990412,33.778364 L -90.988622,33.784188 L -90.991574,33.792304 L -91.000474,33.799483 L -91.008534,33.80282 L -91.030296,33.807262 L -91.03752,33.80987 L -91.049083,33.816026 L -91.067119,33.839042 L -91.070306,33.845663 L -91.073252,33.86198 L -91.072772,33.867294 L -91.066344,33.875967 L -91.046609,33.888457 L -91.033854,33.898992 L -91.026477,33.906815 L -91.014199,33.921758 L -91.010863,33.92731 L -91.012205,33.937116 L -91.018629,33.941908 L -91.081424,33.954931 L -91.088025,33.959678 L -91.090141,33.968938 L -91.090658,33.98873 L -91.088976,34.000061 L -91.08418,34.008554 L -91.073389,34.008719 L -91.06728,34.005653 L -91.051755,33.993841 L -91.046434,33.992428 L -91.036329,33.99405 L -91.018948,34.003225 L -91.014945,33.996673 L -90.999977,33.966386 L -90.987611,33.960714 L -90.978127,33.960426 L -90.966173,33.964663 L -90.962006,33.972283 L -90.962489,33.981302 L -90.970905,33.991784 L -90.980099,33.998332 L -90.979952,34.000375 L -90.988184,34.019211 L -90.972887,34.025009 L -90.958203,34.026741 L -90.930988,34.022019 L -90.915665,34.021503 L -90.904179,34.023104 L -90.893285,34.026584 L -90.888378,34.031827 L -90.886252,34.039208 L -90.888694,34.051752 L -90.886166,34.058652 L -90.874973,34.071655 L -90.871129,34.080518 L -90.872102,34.0867 L -90.876606,34.092911 L -90.883126,34.096729 L -90.89268,34.097875 L -90.89903,34.095296 L -90.915673,34.092594 L -90.921294,34.093514 L -90.94564,34.107965 L -90.958604,34.122444 L -90.961044,34.130514 L -90.958644,34.135484 L -90.936614,34.149374 L -90.919787,34.157858 L -90.909957,34.165511 L -90.901649,34.164209 L -90.894449,34.161064 L -90.881984,34.150911 L -90.87453,34.147251 L -90.868618,34.142516 L -90.855275,34.13785 L -90.845283,34.136886 L -90.836099,34.137876 L -90.827634,34.14093 L -90.815878,34.149879 L -90.807564,34.161821 L -90.807654,34.171587 L -90.809457,34.177738 L -90.817488,34.183198 L -90.83049,34.184622 L -90.841871,34.184315 L -90.852027,34.18672 L -90.860866,34.185905 L -90.864742,34.18378 L -90.873589,34.18309 L -90.877452,34.185618 L -90.886746,34.182501 L -90.908215,34.192071 L -90.914425,34.195726 L -90.927602,34.209252 L -90.934544,34.217854 L -90.937148,34.23261 L -90.935548,34.237847 L -90.928675,34.244707 L -90.922922,34.246535 L -90.906334,34.244382 L -90.899581,34.228952 L -90.89658,34.2258 L -90.881338,34.216377 L -90.864719,34.211745 L -90.856407,34.211316 L -90.847149,34.20613 L -90.838433,34.218768 L -90.840537,34.23803 L -90.835012,34.258635 L -90.833629,34.274074 L -90.829623,34.278573 L -90.816736,34.280649 L -90.797554,34.276083 L -90.784543,34.271603 L -90.768335,34.269516 L -90.760423,34.270733 L -90.752929,34.274605 L -90.746684,34.279765 L -90.738025,34.289279 L -90.735153,34.30256 L -90.735873,34.310687 L -90.743709,34.322459 L -90.755293,34.334415 L -90.76513,34.342511 L -90.7694929224477,34.35044777837758 L -90.769231,34.358433 L -90.762213,34.365245 L -90.757304,34.367392 L -90.746446,34.367674 L -90.720533,34.360805 L -90.707252,34.361181 L -90.693799,34.364947 L -90.68388,34.369547 L -90.676197,34.369163 L -90.681498,34.352603 L -90.691501,34.338636 L -90.693686,34.32968 L -90.693129,34.32257 L -90.686003,34.315771 L -90.678075,34.31309 L -90.669343,34.313088 L -90.661505,34.315208 L -90.657488,34.322231 L -90.660332,34.335351 L -90.666864,34.348551 L -90.666778,34.355876 L -90.65535,34.37184 L -90.65854,34.375705 L -90.652783,34.381682 L -90.640355,34.389 L -90.628167,34.390052 L -90.616109,34.389788 L -90.609597,34.391586 L -90.598014,34.398187 L -90.586232,34.409172 L -90.578304,34.427275 L -90.577894,34.433255 L -90.585214,34.447185 L -90.593104,34.477322 L -90.59392,34.484176 L -90.590053,34.497231 L -90.5812467924714,34.51566811079029 L -90.574703,34.521759 L -90.566534,34.52441 L -90.552948,34.531298 L -90.543154,34.538851 L -90.539844,34.551707 L -90.540493,34.557871 L -90.549358,34.569255 L -90.573762,34.592133 L -90.587201,34.610903 L -90.591784,34.623794 L -90.586643,34.643713 L -90.580864,34.655174 L -90.569715,34.66635 L -90.567697,34.679093 L -90.570102,34.693432 L -90.55978,34.693891 L -90.55382,34.692684 L -90.545689,34.6884 L -90.541511,34.68309 L -90.540373,34.675852 L -90.552137,34.660232 L -90.554885,34.645168 L -90.553553,34.639549 L -90.546541,34.631018 L -90.541609,34.628612 L -90.532108,34.627327 L -90.517548,34.630759 L -90.507423,34.637218 L -90.500612,34.644254 L -90.48758,34.65323 L -90.472542,34.66596 L -90.468237,34.670806 L -90.462883,34.683805 L -90.463364,34.691211 L -90.466666,34.7 L -90.474166,34.705277 L -90.483333,34.704166 L -90.516666,34.695555 L -90.533333,34.696388 L -90.549999,34.703888 L -90.559444,34.710833 L -90.571944,34.712777 L -90.568611,34.721388 L -90.567778,34.733333 L -90.563611,34.737778 L -90.55,34.739722 L -90.545556,34.738889 L -90.539486,34.755394 L -90.545249,34.770762 L -90.547778,34.783333 L -90.540833,34.795833 L -90.533333,34.8 L -90.521111,34.801944 L -90.511111,34.798288 L -90.511335,34.790161 L -90.503055,34.783333 L -90.492777,34.772499 L -90.492499,34.764722 L -90.494148,34.757568 L -90.509722,34.747777 L -90.524166,34.731388 L -90.508333,34.723611 L -90.491666,34.721388 L -90.474999,34.723888 L -90.465005,34.72731 L -90.455381,34.732641 L -90.448423,34.739117 L -90.448335,34.74485 L -90.45267,34.755674 L -90.462886,34.76932 L -90.47042,34.780896 L -90.476584,34.794004 L -90.476174,34.800484 L -90.470374,34.811554 L -90.465526,34.815674 L -90.455379,34.820785 L -90.462334,34.833129 L -90.474717,34.850167 L -90.48372,34.861018 L -90.484276,34.875258 L -90.480323,34.882356 L -90.472492,34.887934 L -90.463398,34.891635 L -90.453947,34.890932 L -90.444223,34.887628 L -90.435958,34.881848 L -90.429311,34.868687 L -90.429911,34.865095 L -90.435583,34.85625 L -90.449691,34.83992 L -90.438729,34.825248 L -90.430173,34.82622 L -90.411638,34.826064 L -90.400758,34.827579 L -90.389393,34.830665 L -90.362258,34.842765 L -90.345832,34.852917 L -90.338449,34.858517 L -90.330531,34.851031 L -90.319398,34.845016 L -90.313401,34.844101 L -90.307982,34.845838 L -90.302642,34.854474 L -90.304561,34.860587 L -90.315052,34.864059 L -90.317741,34.871058 L -90.307702,34.876473 L -90.290816,34.883007 L -90.276867,34.885229 L -90.268821,34.88786 L -90.257858,34.893385 L -90.250314,34.898787 L -90.243208,34.9091 L -90.241284,34.926063 L -90.243757,34.94527 L -90.247271,34.949707 L -90.265503,34.956086 L -90.270706,34.958757 L -90.295159,34.975634 L -90.305234,34.987724 L -90.30833517890773,34.995694 L -90.30996247076486,35.007660806933714 L -90.305097,35.013787 L -90.305612,35.019578 L -90.300648,35.027348 L -90.296968,35.038175 L -90.29088761840084,35.041508413715185 L -90.26436,35.0403 L -90.261703,35.036226 L -90.252342,35.031754 L -90.242059,35.03268 L -90.225914,35.029476 L -90.215331,35.025923 L -90.206997,35.025849 L -90.191217,35.040213 L -90.181157,35.053943 L -90.175244,35.073553 L -90.17574,35.077718 L -90.180987,35.084993 L -90.181374,35.094013 L -90.174638,35.115684 L -90.167358,35.123585 L -90.154697,35.130924 L -90.147147,35.133054 L -90.140857,35.132904 L -90.110293,35.120657 L -90.097167,35.117627 L -90.089667,35.118053 L -90.078239,35.12446 L -90.066547,35.136844 L -90.064298,35.148091 L -90.068236,35.15567 L -90.079554,35.159708 L -90.0981,35.169005 L -90.10360832518312,35.17277019896202 L -90.108138,35.181571 L -90.116459,35.186266 L -90.117265,35.19166 L -90.115657,35.198812 L -90.108707,35.199263 L -90.097253,35.194829 L -90.08885260256783,35.21206040891169 L -90.080923,35.208585 L -90.075466,35.214047 L -90.07616,35.221477 L -90.084542,35.231035 L -90.086352,35.238183 L -90.094337,35.24879 L -90.107554,35.255133 L -90.117346,35.255796 L -90.139717,35.252301 L -90.148858,35.254273 L -90.155264,35.258981 L -90.16559,35.272712 L -90.168917,35.279711 L -90.16528,35.29307 L -90.162058,35.298255 L -90.15597538022632,35.30193002385254 L -90.149585,35.303127 L -90.140657,35.299144 L -90.13043,35.300972 L -90.122831,35.304538 L -90.116866,35.303366 L -90.109966,35.304988 L -90.108555,35.311968 L -90.102225,35.327934 L -90.096182,35.348852 L -90.093384,35.354088 L -90.08386,35.365599 L -90.078263,35.37493 L -90.080873,35.386005 L -90.097112,35.395539 L -90.114565,35.411259 L -90.128583,35.413792 L -90.134814,35.413055 L -90.14075,35.409444 L -90.146044,35.400329 L -90.145354,35.392599 L -90.141445,35.384072 L -90.135676,35.376696 L -90.146542,35.373991 L -90.165282,35.373982 L -90.178458,35.382144 L -90.179342,35.385313 L -90.170777,35.40999 L -90.16888,35.421878 L -90.129435,35.442119 L -90.122855,35.460901 L -90.119031,35.468039 L -90.107837,35.476836 L -90.088033,35.478583 L -90.079007,35.476874 L -90.068269,35.467074 L -90.067239,35.460945 L -90.071292,35.450548 L -90.074128,35.439566 L -90.074098,35.43414 L -90.070616,35.423497 L -90.062018,35.41518 L -90.069528,35.408132 L -90.054322,35.389277 L -90.044582,35.393073 L -90.044044,35.396722 L -90.056782,35.403863 L -90.048086,35.411737 L -90.021191,35.420226 L -90.002668,35.429985 L -90.003933,35.442761 L -90.007209,35.454247 L -90.012531,35.463668 L -90.019152,35.472578 L -90.036031,35.483557 L -90.044138,35.494622 L -90.048163,35.503628 L -90.050212,35.516391 L -90.046054,35.529743 L -90.042712,35.535333 L -90.039876,35.547418 L -90.03103693721172,35.55437492661303 L -90.018141,35.555971 L -90.010213,35.559564 L -90.000096,35.561009 L -89.989667,35.560221 L -89.975711,35.553488 L -89.959722,35.542664 L -89.955817,35.533194 L -89.958749,35.523837 L -89.935881,35.515743 L -89.926539,35.511607 L -89.915497,35.511842 L -89.908934,35.51424 L -89.902375,35.525036 L -89.904013,35.535319 L -89.910357,35.537776 L -89.910681,35.547451 L -89.914191,35.549606 L -89.928084,35.55123 L -89.942247,35.557143 L -89.954469,35.576192 L -89.95795,35.585233 L -89.956592,35.590622 L -89.947847,35.600218 L -89.931654,35.608358 L -89.91998,35.612074 L -89.911275,35.617594 L -89.899483,35.615151 L -89.890259,35.616416 L -89.874067,35.626618 L -89.856104,35.635012 L -89.85302,35.639984 L -89.850726,35.65074 L -89.852615,35.661156 L -89.858318,35.668724 L -89.86689,35.670204 L -89.878213,35.665252 L -89.88364,35.656295 L -89.894236,35.651605 L -89.908575,35.651736 L -89.925453,35.658206 L -89.934467,35.664943 L -89.942926,35.675388 L -89.950385,35.68275 L -89.955841,35.690399 L -89.957235,35.712958 L -89.958895,35.72353 L -89.954717,35.730361 L -89.944114,35.735795 L -89.93792,35.744172 L -89.916851,35.753881 L -89.913001,35.757664 L -89.907461,35.759288 L -89.900233,35.753451 L -89.889642,35.750904 L -89.871006,35.75622 L -89.863064,35.757134 L -89.852323,35.755134 L -89.850349,35.746489 L -89.838717,35.742129 L -89.825451,35.745188 L -89.813177,35.750463 L -89.800728,35.757152 L -89.79895,35.759356 L -89.799842,35.770458 L -89.796917,35.781373 L -89.799565,35.788331 L -89.796236,35.79284 L -89.781662,35.805228 L -89.765359,35.809606 L -89.75749597584085,35.81016510701861 L -89.745171,35.806404 L -89.738346,35.806058 L -89.72817,35.802697 L -89.720117,35.805933 L -89.708149,35.812464 L -89.696497,35.820583 L -89.693978,35.825213 L -89.694709,35.834769 L -89.703645,35.839461 L -89.722457,35.845786 L -89.754094,35.854293 L -89.767923,35.860017 L -89.772081,35.864342 L -89.774271,35.870816 L -89.771674,35.883678 L -89.76524,35.893106 L -89.744547,35.910699 L -89.735718,35.91195 L -89.727787,35.911243 L -89.716352,35.907059 L -89.693229,35.890722 L -89.676378,35.876698 L -89.663284,35.874703 L -89.654008,35.878865 L -89.645617,35.885833 L -89.642047,35.895573 L -89.640997,35.903553 L -89.642017,35.913663 L -89.644307,35.920943 L -89.650267,35.927663 L -89.664777,35.934743 L -89.675477,35.941593 L -89.700112,35.952707 L -89.714007,35.959813 L -89.721677,35.967673 L -89.724027,35.980803 L -89.722916,35.989061 L -89.731096,35.99662 L -89.7330085844988,36.00070766146198 Z" fill="none" stroke=currentColor stroke-width="1" vector-effect="non-scaling-stroke"/>
</svg>