<?xml version="1.0"?>
<svg width="20" height="20" xmlns="http://www.w3.org/2000/svg" version="1.2" baseProfile="tiny" viewBox="-64.000 -114.500 928.000 928.000" stroke-linecap="round" stroke-linejoin="round">
<g id="state">
<path d="M 783.75 101.08 784.07 101.88 785.42 103.35 785.28 104.99 785.72 107.58 786.99 109.1 789.26 110.46 793.27 112.56 795.03 113.88 797.39 115.22 798.38 116.53 798.79 117.96 799 119.95 798.87 121.54 798.34 123.48 797.02 124.89 795.55 125.75 793.43 125.4 790.65 122.69 786.86 119.55 785 118.76 783.72 118.65 782.3 118.93 779.05 122.49 778.06 124.38 777.7 126.93 778.08 128.2 778.77 129.04 781.02 130.13 786.15 131.69 789.21 132.87 790.67 133.77 790.84 135.65 790.45 136.58 788.61 138.23 786.71 139.57 785.43 140.24 783.77 139.61 782.67 139.57 780.67 138.87 779.41 139.01 776.8 139.93 774.5 142.44 773.99 143.34 774.45 144.71 774.02 146.88 774.22 149.07 773.94 149.51 771.96 150.88 770 151.97 767.88 152.62 765.98 151.8 765.63 150.09 763.89 149.74 762.61 149.95 759.63 151.06 757.91 150.59 756.72 149.46 755.83 149.8 755.23 150.57 751.87 152.56 750.91 154.24 749.22 155.35 748.57 156.71 748.88 158.8 749.2 163.26 750.11 164.75 751.35 166.18 752.76 168.22 754.24 169.52 756.99 170.74 759.31 170.72 761 169.76 761.84 167.97 763.64 166.95 765.03 167.21 765.99 168.69 766.34 170.74 766.01 172.88 765.54 173.87 762.67 175.59 760.1 177.67 758.61 177.95 756.7 177.51 755.32 178.63 753.45 179.4 750.86 181.07 749.49 183 749.29 184.07 749.89 185.84 751.95 189.57 754.26 190.69 756.51 190.97 757.09 191.38 757.18 193.29 758.22 193.76 758.53 195.79 757.51 197.95 756.46 198.44 754.67 198.53 753.15 197.74 749.41 196.22 749.85 194.36 749.18 192.49 746.55 190.41 744.27 189.12 742.58 189 740.95 189.32 739.68 190.06 737.6 190.41 736.2 191.82 735.79 194.22 735.27 195.33 734.65 197.99 735.03 200.51 735.72 202.28 737.08 204.44 739.85 206.56 740.96 208.3 741.86 210.14 742.43 212.4 742.69 214.93 739.73 216.92 735.41 218.68 734.03 220.27 736.12 221.64 736.05 222.37 734.48 223.15 731.95 219.47 733.14 218.05 731.71 216.43 731.11 214.34 731.08 213.26 731.5 211.08 732.11 209.01 731.92 207.8 730.15 205.9 728.68 205.59 725.48 206 723.7 207.77 723.11 209.19 722.12 212.93 715.81 217.05 715.54 219.41 714.25 224.32 714.4 224.94 716.57 226.52 719.6 226.46 721.35 225.89 720.39 224.45 719.73 222.78 719.58 221.25 720.41 219.43 721.36 218.7 722.36 218.53 724.64 218.99 727.53 222.04 730.2 223.88 730.66 226.06 729.79 227.93 728.29 230.23 727.86 231.28 726.96 235.43 725.99 238.61 725.79 240 724.68 240.34 723.71 240.13 722.49 240.86 720.84 241.25 719.37 240.49 718.34 240.74 717.37 241.49 716.86 242.53 716.32 245.18 716.89 246.55 718.62 249.24 719.67 250.15 721.16 250.51 724.78 249.75 726.37 249.85 728.54 251.07 729.88 253.14 730.2 254.55 731.6 256.41 731.74 257.88 730.87 258.98 729.57 258.31 728.27 261.75 726.4 260.91 725.27 261.02 725.04 262.44 725.19 263.5 726.56 264.41 727.33 266.13 728.23 266.86 731.28 268.64 733.14 269.4 733.81 270.89 733.48 273.12 731.63 275.61 729.8 276.91 728.58 277.02 726.44 276.46 721.42 274.14 720.4 274.13 719.18 274.57 717.15 276.06 716 277.64 714.98 281.95 715.08 283.74 715.96 285.16 716.05 285.98 715.16 289.88 713.58 292.62 711.06 295.51 709.7 295.52 707.97 294.85 705.33 294.26 703.66 294.48 702.12 293.62 701.68 292.82 697.36 292.66 696.38 293.33 695.82 295.49 695.03 297.04 695.14 298.18 694.37 299.41 694.67 301.77 695.2 303.34 696.89 305.7 700.93 308.97 701.78 309.48 704.78 310.69 705.36 311.56 705.83 315.35 705.58 318.72 704.46 320.78 703.25 321.87 701.48 322.99 700.18 323.53 697.91 324.01 695.18 325.35 693.56 326.45 694.03 327.83 695.75 328.49 696.08 329.69 695.24 331.41 694.36 331.77 693.38 331.61 691.54 330.45 690.23 328.99 689.04 330.12 686.4 332.17 682.01 334.64 680.17 335.28 678.4 335.61 675.37 335.63 673.98 335.84 672.15 332.97 674.4 329.7 675.29 327.93 675.38 327.22 674.25 324.64 672.89 323.51 671.29 322.89 669.75 322.77 668.28 323.53 667.02 324.65 666.4 326.06 666.53 328.88 668.03 331 670.1 334.34 671.28 336.77 669.64 337.8 668.86 338.63 667.95 340.84 667.9 342.12 668.95 344.7 670.21 346.97 671.92 349.64 672.66 351.77 672.67 352.91 671.55 354.2 670 355.28 668.37 355.99 665.66 356.52 662.93 356.12 660.32 354.62 662.63 351.35 665.14 349.37 665.39 347.95 665.32 346.41 663.61 344.3 662.24 342.97 662.25 341.36 660.61 340.66 658.62 341.07 657.41 341.92 656.31 344.41 656.76 346.89 657.75 349.91 656.8 353.19 656.08 353.04 653.86 353.46 653.19 354.34 653.09 356.71 652.57 358.42 654.62 358.78 656.18 360.13 658.93 361.57 661.65 361.7 667.07 359.91 668.57 359.67 669.81 360.69 670.38 362.42 670.48 363.89 669.64 366.47 668.95 367.44 666.53 370 664.43 371.8 663.34 373.21 661.7 374.52 659.33 375.23 657.77 375 656.96 374.54 655.79 372.87 655.55 371.76 655.96 368.77 657.84 365.65 657.63 364.22 656.93 363.18 655.59 362.35 654.61 362.13 652.93 362.24 653.36 365.08 653.07 367.6 651.28 369.84 650.36 372.12 649.58 376.07 650.37 378.61 652.62 382.29 656.68 386.76 658.16 388.99 658.29 390.21 657.78 392.76 656.2 394.28 654 395.68 652.67 396.22 651.61 397.44 650.22 401.11 649.63 403.7 649.78 405.05 651.16 411 652.4 413.74 652.35 414.92 651.1 418.52 649.2 420.72 647.32 422.06 646.25 422.43 644.27 422.4 642.28 422.64 640.26 424.11 639.33 425.31 639.87 426.07 638.03 429.25 638.04 430.7 639.15 433.3 639.65 435.89 639.01 437.29 637.73 437.72 636.29 437.74 634.98 437.23 633.8 435.9 633.69 434.49 634.02 432.72 635.63 429.93 636.45 426.64 635.19 426.58 633.58 427.52 631.38 428.29 629.2 428.39 624.93 427.09 623.15 427.17 622.35 427.6 621.22 428.96 621.19 430.54 621.93 432.11 623.56 433.69 625.49 436.03 626.81 438.34 626.95 439.95 626.51 442.58 625.11 444.48 624.1 445.52 622.88 446.3 621.58 446.55 618.92 446.17 616.77 445.31 613.61 444.45 611.49 444.89 610.85 445.78 610.66 448.84 609.8 452.93 610.19 456.74 608.78 459.25 607.25 458.24 605.88 458.18 603.14 457.29 600.61 455.45 600.11 454.84 598.97 451.8 596.24 451.4 595.3 451.77 594.18 453.14 593.93 454.18 594.39 457.1 595.55 458.78 597.75 461.44 598.78 462.15 602.33 464 603.85 463.37 604.49 463.86 605.94 463.71 606.57 463.28 608.03 463.1 609.7 463.56 611.57 463.48 613.71 463.73 615.05 464.8 615.36 466.01 615.4 467.94 614.06 470.32 612.15 472.12 610.76 472.74 609.25 472.95 607.6 472.78 605.4 471.88 604.42 470.96 603.18 470.25 601.11 468.26 599.92 467.65 598.55 467.41 596.95 468.94 594.2 470.65 590.6 473.44 590.22 474.42 590.64 476.02 592.8 478.86 596.84 481.67 597.77 481.85 600.5 481.28 601.54 480.76 603.11 480.97 604.2 481.71 604.95 482.93 605.13 484.15 604.51 485.91 602.7 488.51 602.3 489.88 602.73 492.36 602.4 493.82 601.6 494.87 599.81 495.58 597.92 495.91 595.4 495.84 590.9 494.95 588.49 495.32 585.98 496.49 587.37 500.21 587.35 500.61 588.88 501.89 590.29 503.95 590.39 505.74 589.72 507.25 587.76 508.11 586.19 508.07 584.14 506.97 581.61 501 580.94 499.71 578.09 501.55 576.43 501.89 575.55 501.62 572.97 499.31 571.96 498.71 570.18 498.76 569.41 500.45 569.15 502.69 569.27 506.61 569.64 508.44 570.73 509.36 581.11 511.84 582.18 512.78 582.42 514.72 581.88 515.82 579.89 518.8 578.69 520.36 576.6 522.46 573.37 524.97 572.32 526.69 572.25 527.75 572.77 530.97 573.31 532.28 576.33 536.8 578.25 538 579.45 538.51 583.06 539.35 584.39 540 585.88 541.4 586.38 543 586.1 544.16 585.38 545.28 583.68 546.43 581.57 547.02 580.02 546.84 575.69 544.28 572.27 545.02 566.57 545.67 565.52 544.64 564.02 543.61 563.11 543.32 562.15 543.67 560.59 546.38 561.27 547.91 560.59 549.99 560 553.71 562.55 556.86 563.82 558.11 565.2 558.82 567.72 558.89 570.14 558.2 571.73 557.2 573.39 556.59 574.43 556.7 576.86 558.44 578.27 560.44 578.75 561.85 579.68 562.16 579.66 563.41 579.15 564.91 577.72 565.81 575.02 566.4 573.21 567.42 571.55 568.12 569.36 568.11 563.39 565.1 562.33 564.08 560.84 561.97 558.14 558.62 556.97 559.28 555.5 559.59 550.69 559.77 549.13 560.15 547.64 561.26 546.85 562.54 546.59 563.54 546.67 565.2 547.05 566.12 548.15 567.55 549.73 568.55 552.91 568.84 555.36 569.44 556.7 570.14 559.55 572.17 561.77 574.06 563.07 576.3 563.54 577.85 563.46 579.17 563 580.49 561.75 582.18 558.99 584.79 557.02 585.87 555.36 586.22 551.08 585.87 549.24 585.88 547.09 586.36 546.28 587.19 546.16 588.64 546.84 590.31 548.3 593.05 549.55 594.7 552.41 596.93 554.22 597.98 554.65 598.54 554.56 600.04 552.95 601.58 551.62 603.61 550.89 605.37 549.49 606.51 547.92 607.11 546.64 608.33 546.51 610.58 546.17 611.68 549.31 612.57 550.94 612.65 554.23 611.68 555.86 610.55 557.05 608.84 555.93 604.87 555.76 601.99 556.48 600.28 556.95 599.91 558.28 600.01 561.88 602.07 563.33 603.25 565.01 605.82 565.66 607.94 565.48 610.04 563.92 611.99 563.28 613.32 562.34 613.87 561.03 613.82 559.68 614.26 555.55 615.94 554.64 615.5 553.26 615.83 552.19 615.74 551.36 616.33 550.7 617.42 550.63 618.83 551 619.34 553.55 621.37 555.27 622.41 557.14 623.21 560.76 623.48 562.32 622.98 564.97 621.65 565.99 620.94 567.76 619.11 569.25 616.71 569.43 614.28 569.03 612.85 569.23 611.59 570.18 609.71 570.85 608.95 572.06 608.27 573.43 608.12 575.15 609.1 575.54 609.87 575.65 612.67 575.43 613.84 574.65 615.34 572.08 618.62 569.99 620.11 568.07 622.22 566.92 624.16 565.29 626.5 562.04 628.91 561.75 629.38 561.99 631.86 561.56 633.51 561.93 635.86 561.98 639.31 564.65 642.97 564.63 644.28 564.26 645.29 565.81 646.49 567.2 649.73 568.66 651.12 569.21 651.14 569.83 648.81 570.54 647.47 571.4 643.66 572.06 642.64 573.12 641.89 574.45 641.49 576.33 641.65 577.65 642.5 578.27 643.94 578.12 645.41 577.18 648.58 576.58 649.63 574.08 652.29 573.8 653.37 572.73 653.33 571.89 654.46 568.96 654.96 570.3 658.01 571.57 660.37 572.18 661.89 572.4 663.84 572.33 666.46 572.03 668.97 571.48 671.4 568.71 672.59 567.04 672.83 564.49 672.92 561.09 672.68 559.02 670.5 557.54 670.26 555.2 670.46 553.76 671.35 552.71 672.84 552.17 674.38 552.41 677.21 553.8 678.17 555.57 678.92 556.94 680.8 561.02 682.32 565.11 685.64 565.92 687.55 565.5 688.32 565.12 690.72 564.64 691.62 562.79 692.89 561.02 693.29 559.23 694.37 558.34 696.31 558.4 697.64 546.73 697.6 539.49 697.63 525.54 697.56 520.34 697.61 509.27 697.61 500.64 697.54 487.37 697.64 466.54 697.57 457.84 697.62 440.09 697.54 433.38 697.56 411.76 697.55 407.76 697.5 396.48 697.37 391.05 697.27 382.33 697.2 368.32 696.96 344.26 696.6 340.86 696.51 322.2 696.23 319.4 696.12 314.65 696.09 303.82 695.86 289.2 695.62 277 695.28 263.01 695.02 252.46 694.75 249.59 694.78 243.84 694.62 222.49 694.38 216.48 694.18 210.77 694.23 199.33 693.99 186.94 693.82 174.57 693.56 168.06 693.49 159.16 693.31 145.69 692.97 134.89 692.76 123.56 692.6 97.9 692.05 85.67 691.82 78.53 691.73 78.92 672.47 79.29 655.99 79.71 635.2 79.89 624.55 80.53 594.43 80.66 586.38 79.26 586.13 77.81 586.72 77.06 586.55 75.64 585.49 75.84 584.71 76.73 584.45 77.68 584.8 78.67 584.36 78.62 583.27 76.95 582.88 76.54 582.33 74.65 581.64 72.72 581.56 69.21 583.1 67.91 583.06 67.55 585.72 66.94 586.25 66.17 585.98 65.8 584.59 65.63 582.34 65.17 582.24 64.15 583.26 62.9 582.81 62.86 582.03 64.32 580.81 63.77 580.01 62.57 581.19 61.94 581.19 61.13 580.16 61.09 578.58 58.89 578.12 57.48 577.41 55.6 579.85 54.03 580.2 53.04 579.58 51.97 580.09 52.23 580.93 53.29 581.42 54.63 580.71 55.42 581.13 56.4 583.49 56.16 584.67 55.47 585.13 54.48 584.41 54.23 582.98 53.36 582.83 51.77 584.63 50.78 585.36 48.63 585.54 46.23 584.42 46.23 583.12 47.55 581.21 48.49 580.62 48.82 578.77 47.51 578.16 45.33 579.47 44.24 580.76 42.44 584.12 41.65 584.44 39.88 584.25 39.59 583.2 39.84 582.26 41.21 581.23 41.13 579.63 39.76 579.55 38.46 580.63 37.87 581.57 37.05 583.71 37.1 584.6 36.6 585.38 34.89 585.89 32.8 584.89 32.5 583.15 31.83 582.19 30.65 582.15 29.44 583.4 30.29 585.26 28.97 586.89 26.53 586.33 24.57 586.62 23.37 586.11 21.37 583.56 22.35 582.12 23.25 582.38 24.73 581.92 25.15 581.46 25.25 579.72 24.06 579.09 21.98 581.19 21.02 581.71 19.59 581.55 17.11 577.33 15.24 576.45 14.85 576.98 12.91 576.84 11.99 575.18 10.45 575.26 9.88 574.39 10.41 573.67 12.94 572.13 13.19 570.8 11.95 570.39 11.93 568.91 13.87 568.5 14.26 567.33 13.86 566.77 12.33 566.29 11.05 568.04 9.07 567.43 7.77 567.63 7.98 562.58 8.71 548.22 9.48 531.83 9.82 525.73 10.83 504.43 11.95 481.82 12.28 475.66 12.77 464.55 13.24 455.55 13.97 439.4 15.33 413.03 16.57 387.31 17.48 368.81 18.73 344.57 19.86 322.98 21.45 292.67 22.52 273.09 22.68 269.6 23.78 249.58 25.09 226.29 24.96 223.86 25.14 222.56 24.78 221.61 25.43 220.63 24.35 211.92 22.96 199.94 22.07 191.43 21.27 184.74 19.81 170.98 18.35 158.38 16.58 142.22 15.89 136.4 14.92 127.47 13.54 115.4 10.91 92.5 9.09 77.04 7.54 63.58 5.78 47.79 4.89 39.41 3.14 21.84 2.55 16.4 1 1 10.34 1.25 20.19 1.61 28.74 1.73 40.27 1.98 56.7 2.45 76.91 3.01 87.37 3.23 115.73 3.76 120.98 3.89 143.18 4.2 158.05 4.49 171.98 4.66 181.29 4.88 192.59 5.06 198.06 5.2 212.62 5.42 228.71 5.71 237.49 5.84 243.27 5.86 256.67 5.99 264.2 6.11 280.34 6.28 295.84 6.41 302.24 6.46 329.8 6.55 344.09 6.53 352.22 6.73 357.75 6.77 359.37 6.89 369.95 6.85 379.84 6.77 400.85 6.69 419.58 6.78 432.75 6.69 445.08 6.66 460.68 6.54 492.7 6.45 501.5 6.55 509.29 6.73 513.97 6.76 529.71 6.59 547.1 6.45 558.83 6.31 579.19 5.99 591.04 5.84 596.88 5.82 609.82 5.54 610.81 5.58 622.78 5.44 627.29 5.44 633.51 5.28 659.87 4.95 663.95 4.84 675.9 4.76 688.06 4.55 699.54 4.4 714.49 4.1 713.77 4.89 713.76 6.82 713.45 7.73 716.04 8.58 715.76 9.79 714.62 9.59 714.09 10.35 715.83 11 717.56 12.93 717.08 13.51 717.63 15.77 716.95 17.26 716.3 17.26 716.04 18.44 717.16 19.2 717.58 19.96 717.28 20.81 719.65 21.26 721.38 21.85 721.7 22.61 722.54 22.28 726.09 23.03 727.45 24.68 728.73 25.69 729.09 26.34 728.63 27.55 729.08 28.11 728.74 31.4 727.29 33.18 727.55 34.31 726.93 35.66 727.41 36.24 726.82 37.6 726.69 39.1 727.67 39.56 728.44 40.4 729.33 42.51 727.71 44.81 727.01 45.05 727.56 46.76 726.94 47.27 726.31 48.62 724.27 48.8 722.69 49.89 721.7 49.81 721 50.49 720.84 52.35 720.29 53.77 718.88 54.88 719.88 56 719.43 57.1 718.69 57.77 717.09 57.62 716.85 58.39 716.05 58.74 715.55 59.96 714.74 60.39 714.1 60.01 712.69 60.67 710.77 62.08 709.82 62.11 709.52 62.9 707.81 64.11 707.26 65.84 706.19 66.58 704.81 66.28 703.3 68.64 703.01 70.26 702.43 71.31 703.11 72.45 703.11 73.79 702.55 74.15 702.48 75.3 700.87 75.96 700.92 76.47 699.67 77.74 698.5 77.74 697.56 79.22 693.34 80.38 693.19 81.33 692.53 81.82 692.15 83.79 690.3 84.39 688.99 85.93 689.36 88.24 688.93 89.08 687.05 89.76 686.56 91.13 687.06 91.79 685.49 94.56 684.71 94.97 684.72 96.26 683.9 97.51 684.25 97.89 683.44 99.29 681.43 101.64 680.09 104.11 698.22 103.64 708.42 103.34 740.22 102.36 753.41 102.02 777.84 101.21 783.75 101.08 Z" fill="none" stroke="currentColor" stroke-width="46.400"/>
</g>
</svg>