<?xml version="1.0"?>
<svg width="200" height="200" xmlns="http://www.w3.org/2000/svg" version="1.2" baseProfile="tiny" viewBox="-137.660 -74.160 1075.320 1075.320" stroke-linecap="round" stroke-linejoin="round">
<g id="state">
<path vector-effect="non-scaling-stroke" d="M 773.76 1 773.98 8.68 774.52 26.63 775.18 48.95 775.72 67.7 776.26 86.42 776.86 107.01 777.27 121.24 777.7 136.95 778.08 150.33 778.78 173.16 779.11 184.32 779.41 198.46 779.55 200.69 780.06 217.65 780.79 243.99 781.23 261.09 781.9 280.71 782.4 297.27 782.88 313.78 783.48 334.7 784.14 358.27 784.31 360.63 784.28 362.98 784.7 377.26 785.04 389.1 785.35 401.22 785.91 421.65 786.01 425.71 786.47 442.22 786.79 454.44 787.39 477.02 787.7 488.21 788.36 510.52 788.75 524.37 789.2 541.28 789.48 552.53 789.66 557.63 789.73 561.61 789.97 570.64 790.29 580.67 790.85 602.58 791.28 620.76 791.55 630.59 791.78 637.69 792.37 659.35 792.89 678.93 793.4 698.84 793.71 710.41 794.44 738.78 794.94 756.96 795.15 766.04 795.72 789.37 796.26 810.83 796.63 825.89 797.08 843.76 797.54 863.75 797.93 880.25 798.06 884.81 798.11 889.63 798.28 894.29 799 921.44 770.77 921.94 763.63 922.09 737.05 922.69 721.13 923.03 702.62 923.4 699.18 923.42 691.48 923.61 672.57 923.96 644.81 924.42 628.41 924.75 614.33 925.02 599.23 925.28 579.93 925.47 560.59 925.63 548.54 925.72 535.35 926 516.85 926.22 509.78 923.57 476.19 911.26 464.38 906.92 449.18 901.3 440.42 898.1 419.96 890.59 390.89 879.87 353.9 866.25 332.66 858.45 310.09 850.2 303.83 847.9 274.88 837.24 268.01 834.7 259.51 831.64 248.01 827.42 228.25 820.17 214.2 814.76 195.81 807.68 171.85 798.45 158.19 793.18 141.61 786.8 131.52 782.9 109.67 774.49 96.44 769.39 77.89 762.23 66.54 757.87 53.33 752.79 35.11 745.77 23.42 741.26 5.51 734.36 1.03 732.67 1.24 731.74 1 730.27 1.91 730.35 2.52 730.02 2.5 729.08 1.74 728.9 1.25 727.81 2.82 725.86 2.35 724.35 3.76 723.53 4.36 722.65 4.36 720.65 2.3 722.15 1.45 721.99 1.47 720.57 2.64 719.93 3.09 718.97 2.75 718.5 3.42 716.75 3.13 715.65 2.31 715 2.16 712.88 2.49 712.04 3.58 711.48 4.68 712.04 6.02 711.46 5.93 710.92 6.5 710.11 8.45 708.75 8.45 707.61 10.5 705.83 11.2 704.03 11.33 703.04 12.44 701.22 12.84 700.88 13.47 699.51 13.46 698.9 14.53 697.44 14.94 696.57 15.52 695.04 16.38 693.98 17.43 692.3 18.02 692.5 19.13 693.52 22.4 694.28 23.97 694.39 26.6 694.82 29 695.38 29.34 694.37 33.92 694.42 33.96 693.22 36.32 693.29 36.36 692.11 39.82 692.15 39.87 690.99 41.55 691.01 41.5 690.47 41.37 689.35 40.93 688.21 41.02 685.46 41.43 684.64 42.62 683.49 43.34 682.23 44.05 681.42 46.3 680.37 49.83 676.91 50.39 672.28 50.51 670.4 50.91 666.73 50.72 665.88 49.25 664.38 48.92 663.79 48.58 661.95 50 659.97 50.46 658.8 50.38 656.37 49.47 655.77 48.64 656.26 47.43 656.58 47.05 656.26 46.71 654.91 46.24 651.02 45.19 648.44 43.56 646.72 42.08 646.29 40.43 646.03 37.47 645.74 36.54 645.46 35.52 645.73 34.6 646.86 32.77 647.19 30.06 646.83 28.58 645.92 27.29 643.82 26.59 643.26 25.72 643.97 24.74 645.62 24.12 645.79 22.99 644.89 22.44 643.15 22.59 641.77 20.91 639.48 20.64 638.63 20.69 637.35 19.93 636.97 18.32 636.62 18.17 635.11 18.82 632.47 19.82 629.67 21.16 627.94 22.35 624.65 22.17 623.57 22.91 621.57 23.03 620.49 22.61 617.99 23.36 615.45 23.29 614.43 22.2 612.87 21.33 611.17 21.51 610.73 23.41 609.54 23.72 608.76 23.13 607.16 22.15 606.19 20.79 605.54 17.62 604.58 16.9 604.09 15.88 601.73 16.96 600.18 18.79 598.84 19.54 597.72 20.16 596.22 20.62 593.73 20.52 592.31 19.43 589.61 19.5 588.87 17.26 585.84 17.1 585.24 17.86 584.64 19.11 584.78 20.26 584.64 21.22 583.55 22.28 583.13 24.22 582.98 26.36 584.04 27.49 583.96 28.35 583.48 30.26 581.68 30.63 580.81 31.35 578.55 31.3 577.09 34.57 572.66 34.93 571.64 36.07 569.85 37.28 569.13 38.78 568.72 39.98 567.53 40.03 566.3 40.45 564.97 42.67 563.41 45.07 561.89 44.61 560.73 44.16 560.33 43.6 559.1 43.02 556.95 43.06 555.47 44.67 553.04 45.66 552.31 44.47 550.23 44.51 549.53 45.15 549.21 45.52 548.5 45.33 547.52 44.3 546.24 44.68 545.27 46.35 545.07 46.95 544.39 46.54 543.95 45.28 543.75 44.53 542.79 44.81 541.24 45.71 540.19 47.3 539.35 49.48 538.49 49.83 536.27 49.56 534.88 49 534.37 48.57 533.4 47.48 532.38 48.62 529.68 48.66 528.8 48.33 526.92 47.11 523.57 46.85 522.11 45.68 519.21 46.42 518.57 46.82 517.54 46.4 515.92 45.61 513.83 45.61 512.28 46.38 511.88 47.27 512.21 49.17 511.04 49.15 509.23 47.26 507.34 46.45 506.11 46.36 505.17 47.61 505.78 48.76 505.17 48.7 504.47 47.93 503.14 46.75 501.97 45.31 501.29 45.17 499.74 46.15 497.63 47.08 496.38 48.04 496 48.65 496.19 49.98 495.49 52.12 493.37 52.55 492.53 54.21 491.14 54.55 490.52 55.61 490.38 55.89 489.71 54.82 488.74 54.68 488.15 55.25 487.39 56.4 487.62 57.91 486.81 58.68 485.79 58.99 484.91 59.19 483.33 58.75 481.3 58.68 480.05 58.96 477.78 59.61 475.12 60.35 474.42 61.41 472.71 62.63 471.68 63.9 471.46 65.48 471.74 67.03 470.82 68.76 470.44 69.61 469.65 70.18 468.55 71.32 467.92 72.93 468.03 74.49 467.62 76.2 466.36 77.08 465.1 78.9 462.85 79.73 462.22 81.29 462.03 82.22 462.36 84.14 461.82 85.48 460.94 85.99 460.33 87.49 459.77 88.16 458.65 88.06 457.37 88.41 456.83 89.5 456.23 92.89 452.75 94.88 451.06 95.15 450.13 96.53 449.45 96.53 448.15 98.05 448.41 99.21 448.22 100.46 448.53 101.05 447.75 100.59 446.73 100.32 445.42 100.46 444.8 100.07 442.21 100.24 441.15 97.74 438.72 96.26 435.17 95.2 433.56 93.32 432.41 92.21 431.53 90.29 431.31 88.64 430.71 88.17 430.21 87.58 428.94 85.68 427.04 85.14 426.7 83.81 425 83.2 424.64 81.51 424.5 80.61 424.12 80.04 423.38 79.93 422.11 78.78 420.59 76.67 419.19 75.37 418.71 74.4 416.82 73.68 416.46 71.47 416.69 69.41 417.08 68.8 416.94 67.37 415.26 67.41 414.3 68.14 412.03 67.99 410.24 68.11 409.13 68.72 407.27 68.74 405.77 68.45 403.61 67.32 401.43 65.33 397.05 63.07 395.2 61.33 393.02 61.25 392.54 62.45 392.17 62.89 391.68 62.94 390.36 61.04 388.52 60.71 387.1 60.87 385.49 60.64 384.82 58.59 382.41 59.29 381.75 59.59 380.95 59.15 380.38 59.01 379.39 57.76 377.1 57.38 374.43 57 373.55 55.51 373.26 54.88 372.9 54.45 371.55 53.16 370.61 51.06 369.53 49.28 367.11 47.97 366.14 46.35 364.51 45.58 363.36 43.91 359.66 43.38 356.56 42.66 354.45 42.07 353.21 41.36 352.3 39.8 350.89 37.74 349.65 36.65 348.53 35.78 346.67 35.61 344.91 35.83 343.37 36.49 341.43 36.55 340.68 36.24 339.15 36.42 337.63 36.78 336.33 36.8 335.33 36.17 333.02 36.26 331.37 36.81 329.94 37.05 327.7 36.48 325.97 36.16 324.89 36.02 322.75 36.53 320.87 37.6 319.11 39.84 317.43 40.67 316.43 40.91 315.65 40.79 314.48 39.64 312.93 38.41 311.98 35.73 310.64 35.23 309.76 35.46 309.25 37.23 307.34 39.08 306.66 41.85 306.71 43.59 306.19 44.49 305.63 45.29 303.9 45.13 303.17 45.8 300.22 45.95 298.61 45.89 296.32 45.68 295.55 45.63 293.96 45.27 292.98 44.67 292.61 44.61 290.79 44.24 289.21 44.36 287.76 43.98 286.09 44.05 284.66 43.48 282.27 43.17 280.31 42.8 279.07 42.7 277.82 43.08 274.2 43.05 273.44 42.55 271.06 41.78 268.03 41.16 266.31 40.34 264.66 39.88 261.51 39.22 259.8 36.16 256.62 35.73 255.31 34.55 253.5 34.43 252.08 34.11 251.44 34.31 250.21 33.34 248.91 33.59 247.9 32.96 246.54 32.76 244.68 33.03 242.86 34.21 241.55 34.82 241.42 35.69 240.05 35.84 239.36 35.26 237.87 35.17 234.58 34.48 232.92 33.63 231.87 35.81 230.69 36.42 229.36 36.56 226.9 35.71 225.48 35.09 225.26 33.89 222.51 33.33 221.66 32.09 220.51 32 218.09 32.57 217.21 33.32 215.35 33.1 214.31 31.98 213.54 30.68 212.21 30.16 211.03 30.19 210.46 31.06 208.02 31.5 206.08 31.39 204.12 31.88 203.21 31.13 201.52 31.05 200.35 31.37 197.69 29.75 195.2 30.96 193.66 32.06 191.22 32.04 190.74 30.73 188.67 31.09 187.59 32.19 187.39 32.72 186.65 33.98 185.98 35.67 185.65 36.58 185.04 36.52 184.31 35.38 183.57 34.5 182.33 32.61 180.68 31.35 178.8 30.76 178.25 30.91 175.33 30.18 174.35 28.13 170.05 27.8 169.07 26.78 167.47 26.43 166.16 27 164.91 26.58 162.4 26.91 161.4 28.53 160.07 29.29 159.24 29.27 158.49 28.01 157.37 26.98 157.31 26.97 155.71 27.87 154.67 27.77 153.92 27.11 152.86 26.83 151.94 26.15 151.28 25.46 149.44 26.24 148 28.24 146.52 30.34 146.17 32.35 146.01 33.87 145.4 35.15 145.98 36.49 144.92 37.49 144.89 38.7 143.32 40.77 141.92 41.34 141.77 42.07 140.81 42.51 141.05 43.32 142.54 43.99 142.9 44.82 142.51 46.33 141.19 48.25 140.43 49.93 139.58 51.24 139.64 51.91 139.41 52.88 139.72 54.13 139.58 55.19 140.28 57.42 139.83 58.23 140.03 59.13 140.9 59.26 141.38 58.01 142.7 58.58 143.7 59.35 143.81 61.34 143.36 63.38 141.92 64.98 142.11 65.62 143.46 66.61 144.17 69.37 142.33 70.81 140.88 71.72 140.83 75.08 141.82 75.69 141.48 76.37 141.65 77.79 144.1 79.58 145.65 80.91 147.59 81.68 147.75 82.36 148.54 84.46 151.63 84.8 152.76 84.34 153.71 83.68 154.27 83.39 155.17 84.14 155.77 85.46 155.75 86.46 156.88 88.11 157.68 89.08 157.75 89.26 159.17 89.86 160.63 90.49 161.25 92.52 162.75 93.89 163.18 96.73 162.92 99.49 162.14 101.69 161.11 103.47 161.22 104.49 161.75 105.49 161.11 105.54 160.18 106.54 159.52 107.02 158.2 106.87 156.92 107.77 154.46 108.56 153.32 109.17 151.67 110.17 150.36 109.81 149.4 108.97 148.44 109.1 147.6 109.75 146.87 110.91 146.25 112.29 146.05 113.05 143.39 114.47 141.33 114.81 140.16 116.48 136.68 117.58 135.28 119.54 134.43 119.73 126.02 119.62 121.26 119.67 118.91 119.97 114.24 119.98 109.58 120.31 104.03 120.56 94.64 120.63 89.53 120.49 86.01 120.54 78.47 120.58 62.31 120.6 50.56 120.71 43.51 120.87 38.8 121.03 28.85 121.2 20.38 121.5 10.22 121.57 3.51 121.64 3.33 148.43 3.91 162.88 4.21 177.37 4.49 198.83 4.86 215.01 5.11 232.13 5.35 250.74 5.58 270.36 5.75 280.68 5.82 290.94 5.92 315.01 6.08 324.91 6.1 349.4 6.21 373.33 6.27 388.65 6.32 406.29 6.29 421.14 6.26 441.85 6.18 447.7 6.13 465.29 6.06 477.85 5.99 482.69 6.02 499.41 5.92 510.57 5.6 524.9 5.45 544.39 5.22 561.65 4.85 585.43 4.5 588.13 5.43 599.84 5.22 613.97 4.95 625.24 4.71 641.78 4.39 657.95 4.05 676.15 3.68 697.98 3.17 709.56 2.74 721.42 2.44 744.28 1.8 763.26 1.25 773.76 1 Z" fill="none" stroke="currentColor" stroke-width="1"/>
</g>
</svg>