<?xml version="1.0"?>
<svg width="20" height="20" xmlns="http://www.w3.org/2000/svg" version="1.2" baseProfile="tiny" viewBox="-64.000 -71.000 928.000 928.000" stroke-linecap="round" stroke-linejoin="round">
<g id="state">
<path d="M 799 1.64 798.99 8.18 798.99 23.46 798.97 42.46 798.95 58.42 798.93 74.36 798.92 91.89 798.9 104 798.87 117.38 798.86 128.77 798.88 148.21 798.88 157.71 798.76 169.74 798.84 171.64 798.86 186.09 798.81 208.51 798.75 223.07 798.87 239.77 798.88 253.87 798.89 267.93 798.89 285.74 798.87 305.81 798.97 307.83 798.87 309.82 798.89 321.98 798.88 332.07 798.85 342.39 798.83 359.78 798.81 363.24 798.81 377.3 798.78 387.71 798.75 406.93 798.75 416.46 798.78 435.46 798.79 447.26 798.76 461.65 798.73 471.23 798.77 475.58 798.73 478.97 798.72 486.65 798.76 495.2 798.72 513.86 798.65 529.34 798.65 537.72 798.68 543.76 798.68 562.21 798.67 578.88 798.63 595.84 798.63 605.69 798.6 629.86 798.61 645.35 798.58 653.07 798.53 672.94 798.49 691.23 798.46 704.05 798.45 719.28 798.38 736.3 798.33 750.35 798.34 754.23 798.27 758.34 798.31 762.31 798.33 785.44 770.32 785.26 763.23 785.24 736.85 785.23 721.04 785.23 702.67 785.23 699.25 785.18 691.61 785.22 672.84 785.23 645.28 785.22 629 785.28 615.01 785.34 600.02 785.39 580.86 785.34 561.66 785.3 549.7 785.27 536.6 785.41 518.23 785.46 511.22 783.16 477.93 772.5 466.21 768.75 451.12 763.91 442.41 761.16 422.07 754.73 393.13 745.58 356.24 734.03 335.03 727.45 312.48 720.52 306.22 718.59 277.23 709.68 270.35 707.57 261.83 705.03 250.3 701.53 230.48 695.53 216.36 691.06 197.87 685.24 173.77 677.67 160.01 673.37 143.29 668.16 133.12 664.99 111.07 658.19 97.71 654.07 78.95 648.31 67.47 644.81 54.11 640.74 35.66 635.14 23.8 631.55 5.64 626.08 1.1 624.74 1.28 623.94 1 622.7 1.91 622.74 2.52 622.45 2.47 621.65 1.7 621.52 1.18 620.6 2.71 618.9 2.2 617.63 3.58 616.9 4.17 616.14 4.11 614.44 2.08 615.76 1.23 615.64 1.2 614.44 2.37 613.86 2.79 613.03 2.44 612.64 3.06 611.14 2.74 610.21 1.9 609.67 1.69 607.87 2 607.15 3.08 606.64 4.2 607.1 5.53 606.58 5.43 606.12 5.98 605.41 7.91 604.22 7.88 603.24 9.89 601.68 10.54 600.13 10.65 599.29 11.72 597.72 12.11 597.42 12.7 596.24 12.68 595.71 13.72 594.45 14.11 593.69 14.65 592.38 15.49 591.46 16.51 590.01 17.1 590.16 18.25 591.01 21.56 591.58 23.14 591.64 25.8 591.95 28.24 592.38 28.55 591.51 33.16 591.45 33.17 590.43 35.55 590.44 35.56 589.43 39.05 589.4 39.07 588.41 40.76 588.39 40.71 587.93 40.54 586.98 40.07 586.01 40.1 583.67 40.49 582.96 41.66 581.96 42.35 580.87 43.05 580.17 45.29 579.23 48.77 576.21 49.22 572.26 49.29 570.66 49.61 567.52 49.4 566.81 47.87 565.55 47.53 565.07 47.14 563.5 48.52 561.79 48.96 560.78 48.82 558.71 47.88 558.23 47.06 558.65 45.84 558.96 45.45 558.69 45.07 557.55 44.51 554.25 43.38 552.07 41.69 550.64 40.18 550.31 38.51 550.12 35.51 549.94 34.57 549.72 33.54 549.98 32.64 550.95 30.8 551.28 28.05 551.03 26.53 550.29 25.17 548.53 24.45 548.06 23.59 548.69 22.65 550.11 22.03 550.27 20.85 549.54 20.26 548.06 20.37 546.88 18.61 544.97 18.32 544.26 18.33 543.17 17.56 542.86 15.92 542.6 15.72 541.31 16.3 539.05 17.24 536.65 18.56 535.15 19.67 532.32 19.46 531.4 20.16 529.68 20.25 528.76 19.75 526.65 20.45 524.46 20.34 523.6 19.2 522.3 18.28 520.87 18.44 520.49 20.34 519.43 20.63 518.76 19.99 517.42 18.98 516.61 17.58 516.09 14.34 515.35 13.6 514.94 12.49 512.96 13.55 511.62 15.37 510.43 16.1 509.46 16.68 508.17 17.08 506.04 16.94 504.83 15.77 502.56 15.82 501.93 13.46 499.4 13.28 498.9 14.04 498.37 15.31 498.46 16.48 498.31 17.41 497.37 18.48 496.98 20.45 496.81 22.65 497.67 23.79 497.58 24.66 497.14 26.55 495.57 26.89 494.82 27.56 492.88 27.48 491.64 30.69 487.8 31.02 486.92 32.13 485.38 33.35 484.73 34.86 484.35 36.04 483.31 36.06 482.26 36.45 481.12 38.67 479.75 41.07 478.4 40.57 477.42 40.1 477.09 39.5 476.06 38.86 474.24 38.86 472.98 40.44 470.88 41.42 470.24 40.16 468.49 40.18 467.89 40.83 467.61 41.19 467 40.96 466.17 39.88 465.1 40.25 464.26 41.94 464.06 42.53 463.47 42.11 463.1 40.82 462.96 40.03 462.16 40.28 460.84 41.16 459.92 42.76 459.17 44.96 458.39 45.26 456.49 44.95 455.31 44.37 454.89 43.9 454.08 42.77 453.23 43.86 450.91 43.88 450.17 43.5 448.57 42.16 445.74 41.86 444.51 40.6 442.06 41.34 441.51 41.72 440.62 41.24 439.25 40.38 437.48 40.34 436.17 41.12 435.81 42.03 436.07 43.94 435.04 43.88 433.5 41.9 431.92 41.05 430.9 40.92 430.1 42.22 430.59 43.37 430.05 43.29 429.46 42.47 428.33 41.24 427.36 39.75 426.82 39.57 425.51 40.51 423.69 41.43 422.61 42.41 422.26 43.04 422.41 44.37 421.78 46.5 419.94 46.92 419.21 48.58 417.99 48.91 417.45 49.99 417.31 50.26 416.73 49.14 415.93 48.99 415.44 49.55 414.77 50.73 414.95 52.25 414.23 53.02 413.34 53.31 412.58 53.48 411.24 52.97 409.52 52.87 408.46 53.1 406.52 53.69 404.24 54.43 403.63 55.47 402.16 56.69 401.25 58 401.03 59.61 401.24 61.18 400.42 62.94 400.07 63.79 399.37 64.34 398.43 65.5 397.87 67.15 397.93 68.74 397.55 70.45 396.44 71.33 395.35 73.14 393.41 73.98 392.85 75.56 392.66 76.53 392.92 78.49 392.42 79.83 391.65 80.34 391.12 81.86 390.61 82.52 389.65 82.4 388.56 82.74 388.09 83.84 387.56 87.24 384.53 89.24 383.06 89.49 382.26 90.89 381.66 90.86 380.55 92.43 380.74 93.61 380.56 94.9 380.8 95.49 380.13 95 379.26 94.68 378.15 94.82 377.62 94.36 375.42 94.51 374.52 91.89 372.5 90.29 369.51 89.17 368.15 87.21 367.21 86.05 366.48 84.07 366.33 82.36 365.85 81.87 365.44 81.23 364.37 79.24 362.78 78.68 362.51 77.27 361.09 76.63 360.8 74.89 360.7 73.97 360.4 73.37 359.79 73.22 358.7 72 357.43 69.8 356.29 68.45 355.9 67.4 354.31 66.66 354.02 64.39 354.26 62.29 354.64 61.66 354.53 60.15 353.13 60.17 352.31 60.86 350.37 60.66 348.84 60.75 347.89 61.34 346.3 61.32 345.02 60.96 343.2 59.75 341.36 57.59 337.67 55.21 336.14 53.38 334.33 53.28 333.92 54.51 333.58 54.94 333.15 54.96 332.03 52.95 330.51 52.58 329.3 52.71 327.93 52.45 327.37 50.27 325.36 50.98 324.78 51.27 324.09 50.8 323.62 50.63 322.78 49.28 320.86 48.82 318.59 48.4 317.85 46.86 317.64 46.21 317.34 45.73 316.21 44.37 315.43 42.18 314.56 40.28 312.54 38.9 311.74 37.19 310.39 36.36 309.43 34.54 306.32 33.9 303.69 33.11 301.91 32.47 300.88 31.7 300.12 30.06 298.95 27.9 297.94 26.73 297.01 25.79 295.45 25.56 293.96 25.75 292.64 26.37 290.97 26.42 290.34 26.05 289.04 26.19 287.74 26.53 286.63 26.52 285.78 25.81 283.83 25.86 282.43 26.38 281.19 26.57 279.28 25.93 277.82 25.57 276.91 25.36 275.09 25.84 273.48 26.89 271.96 29.17 270.47 29.99 269.61 30.22 268.94 30.07 267.95 28.83 266.65 27.53 265.88 24.72 264.8 24.18 264.06 24.4 263.62 26.18 261.95 28.07 261.33 30.95 261.31 32.74 260.83 33.65 260.33 34.44 258.84 34.25 258.22 34.86 255.69 34.97 254.33 34.84 252.38 34.6 251.72 34.51 250.37 34.11 249.55 33.48 249.25 33.37 247.7 32.94 246.37 33.02 245.13 32.57 243.72 32.61 242.49 31.96 240.48 31.58 238.81 31.16 237.77 31.02 236.71 31.31 233.62 31.26 232.98 30.68 230.96 29.79 228.4 29.1 226.95 28.2 225.57 27.63 222.89 26.9 221.45 23.63 218.82 23.14 217.72 21.86 216.21 21.69 215 21.35 214.47 21.52 213.41 20.47 212.33 20.7 211.46 20 210.32 19.74 208.75 19.97 207.19 21.16 206.05 21.8 205.92 22.66 204.73 22.79 204.15 22.14 202.89 21.96 200.1 21.19 198.7 20.27 197.83 22.51 196.77 23.1 195.62 23.19 193.53 22.26 192.34 21.6 192.17 20.27 189.85 19.66 189.15 18.33 188.2 18.17 186.14 18.74 185.38 19.47 183.77 19.21 182.9 18.02 182.27 16.62 181.17 16.04 180.18 16.06 179.69 16.9 177.6 17.29 175.93 17.13 174.27 17.61 173.49 16.78 172.07 16.65 171.07 16.91 168.81 15.15 166.72 16.36 165.38 17.44 163.28 17.4 162.87 15.97 161.14 16.32 160.21 17.46 160.02 17.99 159.37 19.3 158.78 21.05 158.46 21.98 157.91 21.9 157.29 20.68 156.7 19.72 155.66 17.7 154.3 16.32 152.73 15.69 152.28 15.76 149.79 14.97 148.97 12.7 145.37 12.32 144.54 11.21 143.21 10.8 142.1 11.36 141.02 10.84 138.89 11.16 138.04 12.82 136.87 13.59 136.15 13.54 135.5 12.19 134.58 11.11 134.56 11.05 133.2 11.96 132.29 11.83 131.65 11.1 130.77 10.79 130 10.05 129.45 9.27 127.9 10.05 126.66 12.1 125.35 14.29 125 16.39 124.82 17.97 124.26 19.32 124.72 20.7 123.78 21.75 123.74 22.97 122.37 25.1 121.13 25.69 120.99 26.43 120.15 26.9 120.35 27.8 121.6 28.51 121.89 29.36 121.53 30.91 120.38 32.9 119.69 34.64 118.92 36.02 118.95 36.71 118.73 37.74 118.98 39.05 118.83 40.18 119.4 42.5 118.97 43.36 119.12 44.33 119.83 44.48 120.24 43.2 121.39 43.83 122.23 44.64 122.31 46.71 121.88 48.81 120.61 50.5 120.73 51.21 121.87 52.26 122.45 55.11 120.83 56.58 119.56 57.53 119.49 61.08 120.27 61.72 119.97 62.43 120.1 63.99 122.15 65.9 123.42 67.35 125.05 68.16 125.18 68.9 125.83 71.18 128.41 71.56 129.37 71.11 130.19 70.42 130.68 70.15 131.45 70.95 131.94 72.34 131.9 73.41 132.84 75.16 133.49 76.17 133.53 76.4 134.73 77.07 135.96 77.74 136.48 79.91 137.71 81.35 138.05 84.32 137.77 87.19 137.05 89.48 136.13 91.34 136.19 92.42 136.62 93.46 136.06 93.49 135.26 94.51 134.68 94.99 133.55 94.8 132.46 95.69 130.35 96.48 129.37 97.09 127.95 98.11 126.81 97.7 126.01 96.79 125.2 96.92 124.49 97.58 123.85 98.78 123.31 100.22 123.11 100.95 120.83 102.4 119.05 102.73 118.05 104.4 115.05 105.52 113.84 107.56 113.08 107.57 105.92 107.34 101.87 107.34 99.87 107.55 95.89 107.46 91.92 107.67 87.2 107.72 79.2 107.67 74.85 107.44 71.86 107.31 65.43 106.98 51.68 106.73 41.68 106.68 35.68 106.74 31.67 106.67 23.2 106.65 15.99 106.72 7.34 106.64 1.63 106.72 1.48 135.15 1.48 150.49 1.49 165.87 1.5 188.66 1.5 205.83 1.5 224.01 1.5 243.76 1.49 264.59 1.46 275.54 1.43 286.44 1.44 311.99 1.41 322.5 1.37 348.5 1.36 373.91 1.35 390.18 1.37 408.91 1.34 424.67 1.33 446.67 1.31 452.87 1.29 471.55 1.29 484.88 1.3 490.02 1.35 507.78 1.37 519.62 1.18 534.83 1.17 555.53 1.15 573.86 1.02 599.11 1 601.95 1.83 614.39 1.81 629.39 1.78 641.35 1.74 658.91 1.74 676.08 1.72 695.39 1.75 718.56 1.74 730.86 1.62 743.44 1.62 767.71 1.6 787.86 1.59 799 1.64 Z" fill="none" stroke="currentColor" stroke-width="46.400"/>
</g>
</svg>