<svg viewBox="-115.39123590000001 -37.5805429 6.922978800000024 6.8251168" xmlns="http://www.w3.org/2000/svg">
  <path d="M -109.045172,36.998977 L -109.125691,36.999389 L -109.271363,36.999302 L -109.44682077621925,36.999152211255335 L -109.537815,36.999147 L -109.626694,36.998247 L -109.794204,36.998235 L -109.933855,36.998414 L -110.057961,36.9983 L -110.184924,36.998243 L -110.271376,36.99801 L -110.379844,36.997779 L -110.469733,36.997657 L -110.490299,37.003628 L -110.672818,37.003515 L -110.805365,37.002552 L -110.954971,37.002419 L -111.064951,37.002342 L -111.150576,37.00095 L -111.278939,37.001088 L -111.316083,37.001477 L -111.41249737186652,37.0015028572569 L -111.547538,37.001555 L -111.592373,37.001416 L -111.751401,37.001234 L -111.865325,37.001172 L -112.000735,37.000959 L -112.118335,37.001098 L -112.302044,37.001053 L -112.490037,37.000941 L -112.566,37.000685 L -112.750761,37.000483 L -112.829503,37.000516 L -112.908682,37.000324 L -113.059258,37.000057 L -113.202081,36.999998 L -113.3334720239077,36.99998596223439 L -113.457666,36.999982 L -113.622415,37.000013 L -113.733555,37.000083 L -113.844505,37.000144 L -114.050052,37.000191 L -114.050585,36.999103 L -114.049995,36.957769 L -114.050502,36.895232 L -114.050354,36.843141 L -114.049879,36.781909 L -114.050327,36.752899 L -114.049935,36.709521 L -114.048112,36.637216 L -114.045732,36.537796 L -114.044816,36.491343 L -114.043133,36.469716 L -114.042819,36.438277 L -114.043135,36.380478 L -114.044702,36.346298 L -114.044051,36.317628 L -114.045559,36.288837 L -114.045518,36.27439 L -114.043849,36.245114 L -114.043944,36.19335 L -114.058662,36.187835 L -114.066798,36.179087 L -114.078832,36.157434 L -114.081234,36.150208 L -114.091701,36.137303 L -114.096994,36.120823 L -114.107419,36.119401 L -114.116061,36.115471 L -114.120865,36.11085 L -114.121779,36.105699 L -114.115208,36.099878 L -114.112297,36.09405 L -114.119648,36.085822 L -114.124019,36.075563 L -114.129768,36.068484 L -114.136206,36.053232 L -114.134824,36.045343 L -114.13826,36.03719 L -114.145672,36.03297 L -114.145907,36.027229 L -114.1534,36.02317 L -114.161237,36.026279 L -114.174683,36.02667 L -114.191221,36.020019 L -114.211932,36.014834 L -114.233443,36.012835 L -114.243865,36.015266 L -114.259518,36.024206 L -114.26438,36.027911 L -114.26922,36.036807 L -114.270862,36.045523 L -114.278166,36.045819 L -114.290867,36.050511 L -114.298593,36.057263 L -114.308624,36.056976 L -114.314427,36.060523 L -114.31242,36.066117 L -114.307485,36.069672 L -114.304171,36.07558 L -114.306939,36.082487 L -114.323458,36.101186 L -114.328801,36.105902 L -114.334632,36.106784 L -114.3451,36.118556 L -114.358968,36.127795 L -114.370181,36.142624 L -114.375356,36.143556 L -114.379976,36.141388 L -114.405624,36.146983 L -114.412491,36.146511 L -114.423114,36.13735 L -114.443736,36.125593 L -114.451331,36.129831 L -114.456487,36.138032 L -114.468674,36.138889 L -114.483827,36.12972 L -114.498849,36.126612 L -114.504715,36.127188 L -114.50921,36.133247 L -114.499992,36.141594 L -114.501049,36.144516 L -114.508104,36.149713 L -114.51428,36.150795 L -114.531091,36.147644 L -114.539233,36.151764 L -114.548742,36.150697 L -114.556162,36.15247 L -114.561173,36.150921 L -114.57109,36.151099 L -114.583716,36.14556 L -114.598067,36.140554 L -114.609288,36.132229 L -114.615455,36.129653 L -114.620605,36.131759 L -114.627079,36.140761 L -114.630474,36.142218 L -114.635809,36.13617 L -114.640125,36.135126 L -114.655512,36.126187 L -114.664343,36.1163 L -114.671867,36.115964 L -114.681847,36.109192 L -114.691631,36.112535 L -114.703046,36.108488 L -114.718257,36.107164 L -114.734085,36.104672 L -114.748913,36.095183 L -114.754508,36.086171 L -114.748891,36.074981 L -114.743542,36.071037 L -114.74126880524268,36.06548499677079 L -114.736023,36.059063 L -114.73508,36.054435 L -114.741677,36.047877 L -114.741262,36.038044 L -114.733417,36.037913 L -114.723673,36.03123 L -114.723324,36.026588 L -114.728874,36.021387 L -114.740866,36.012928 L -114.743163,36.006722 L -114.739413,35.991363 L -114.743494,35.983553 L -114.740536,35.975545 L -114.732456,35.965891 L -114.729762,35.959895 L -114.713312,35.933844 L -114.707603,35.92795 L -114.708112,35.909933 L -114.703538,35.906707 L -114.693602,35.895311 L -114.678972,35.88551 L -114.672009,35.878018 L -114.663214,35.873692 L -114.662623,35.869213 L -114.669399,35.86528 L -114.68205,35.86295 L -114.691456,35.858661 L -114.695291,35.853987 L -114.703599,35.852595 L -114.706076,35.845873 L -114.695757,35.833387 L -114.69547011369664,35.83040592701928 L -114.703271,35.815233 L -114.712026,35.805529 L -114.699318,35.79048 L -114.70117,35.774112 L -114.700266,35.766879 L -114.694267,35.756633 L -114.697726,35.750966 L -114.69654,35.738934 L -114.699405,35.726929 L -114.705447,35.711757 L -114.705597,35.708274 L -114.701416,35.701084 L -114.691263,35.693125 L -114.682657,35.688571 L -114.680827,35.682255 L -114.686055,35.670642 L -114.690214,35.665159 L -114.689001,35.65028 L -114.679415,35.643429 L -114.675001,35.638304 L -114.665389,35.621556 L -114.660641,35.620334 L -114.653927,35.611739 L -114.654518,35.596609 L -114.658824,35.588319 L -114.674993,35.580652 L -114.668393,35.574331 L -114.662805,35.564268 L -114.661457,35.544062 L -114.65677,35.534964 L -114.657753,35.530741 L -114.663983,35.522161 L -114.668586,35.521225 L -114.677143,35.512945 L -114.678834,35.50172 L -114.676956,35.490336 L -114.671907,35.482087 L -114.673585,35.475843 L -114.665988,35.467985 L -114.667217,35.46037 L -114.66474231537356,35.45648412465046 L -114.663541,35.447797 L -114.654295,35.436854 L -114.650735,35.428877 L -114.62707386852671,35.40984995719268 L -114.621783,35.39945 L -114.617698,35.380131 L -114.611206,35.370119 L -114.606173,35.359651 L -114.599771,35.34111 L -114.595553,35.326547 L -114.595163,35.321883 L -114.597268,35.299565 L -114.596264,35.291928 L -114.593247,35.284361 L -114.590513,35.272334 L -114.585768,35.257743 L -114.586053,35.248891 L -114.582842,35.238703 L -114.583428,35.229737 L -114.580312,35.220095 L -114.579535,35.208911 L -114.574958,35.206714 L -114.572084,35.200794 L -114.571404,35.191026 L -114.569653,35.186267 L -114.56876,35.172195 L -114.569529,35.162317 L -114.573972,35.14404 L -114.572597,35.139557 L -114.578263,35.12881 L -114.584877,35.125194 L -114.597794,35.121735 L -114.618586,35.121557 L -114.632282,35.117088 L -114.645152,35.104995 L -114.646764,35.101868 L -114.642831,35.096503 L -114.622517,35.088703 L -114.613132,35.083097 L -114.604182,35.073715 L -114.603042,35.06654 L -114.604715,35.061744 L -114.610701,35.055458 L -114.627124,35.044721 L -114.634732,35.033734 L -114.63819,35.022069 L -114.636712,35.008905 L -114.634091,35.002338 L -114.629443,34.991825 L -114.630843,34.977987 L -114.634607,34.96906 L -114.634953,34.958918 L -114.629811,34.94481 L -114.629753,34.938684 L -114.632196,34.930628 L -114.633237,34.92123 L -114.630552,34.911852 L -114.630877,34.907263 L -114.635425,34.895192 L -114.636768,34.885705 L -114.635126,34.874871 L -114.628276,34.863596 L -114.619878,34.856873 L -114.604255,34.849573 L -114.592339,34.841153 L -114.586842,34.835672 L -114.582197,34.828188 L -114.576452,34.8153 L -114.571847,34.796343 L -114.558653,34.773852 L -114.552682,34.766871 L -114.540306,34.757109 L -114.530355,34.75138 L -114.516619,34.736745 L -114.500795,34.730418 L -114.490971,34.724848 L -114.487508,34.716626 L -114.482779,34.714511 L -114.47162,34.712966 L -114.46862,34.707573 L -114.465246,34.691202 L -114.455536,34.677335 L -114.454305,34.671234 L -114.450877,34.667822 L -114.452986,34.66283 L -114.458093,34.658689 L -114.442363,34.644153 L -114.440519,34.640066 L -114.441398,34.630171 L -114.438739,34.621455 L -114.424202,34.610453 L -114.424326,34.602338 L -114.427502,34.599227 L -114.436363,34.596797 L -114.435671,34.593841 L -114.422382,34.580711 L -114.405228,34.569637 L -114.389603,34.542982 L -114.380838,34.529724 L -114.378223,34.516521 L -114.378124,34.507288 L -114.382358,34.495758 L -114.383038,34.488903 L -114.381555,34.477883 L -114.386584,34.463821 L -114.386699,34.457911 L -114.375789,34.447798 L -114.371217,34.446992 L -114.356025,34.449744 L -114.339627,34.451435 L -114.334251,34.449335 L -114.326717,34.437856 L -114.316962,34.435064 L -114.301016,34.426807 L -114.292226,34.417606 L -114.291154,34.409784 L -114.286802,34.40534 L -114.280108,34.403147 L -114.267521,34.402486 L -114.262909,34.400373 L -114.252739,34.3901 L -114.248649,34.388113 L -114.234275,34.376662 L -114.229686,34.368908 L -114.226107,34.365916 L -114.213774,34.36246 L -114.199482,34.361373 L -114.191094,34.356125 L -114.176909,34.349306 L -114.168807,34.339513 L -114.157206,34.317862 L -114.138282,34.30323 L -114.139393,34.296741 L -114.13605,34.280833 L -114.137045,34.277018 L -114.134768,34.268965 L -114.131211,34.26273 L -114.13545,34.257886 L -114.144779,34.259623 L -114.153346,34.258289 L -114.164648,34.259699 L -114.164476,34.251667 L -114.174597,34.247303 L -114.176403,34.241512 L -114.190876,34.230858 L -114.215454,34.208956 L -114.223384,34.205136 L -114.225861,34.201774 L -114.224941,34.193896 L -114.229715,34.186928 L -114.240712,34.183232 L -114.244421,34.179403 L -114.254141,34.17383 L -114.268267,34.170209 L -114.275267,34.172149 L -114.286724,34.170715 L -114.292806,34.166725 L -114.30589,34.152657 L -114.312206,34.144776 L -114.324576,34.136759 L -114.336112,34.134034 L -114.348051,34.134457 L -114.356372,34.130428 L -114.360402,34.123577 L -114.366517,34.118577 L -114.379223,34.11599 L -114.390565,34.110084 L -114.402255,34.111588 L -114.41168,34.110031 L -114.420499,34.103466 L -114.428026,34.092787 L -114.43338,34.088413 L -114.437683,34.071937 L -114.43934,34.057893 L -114.438602,34.050205 L -114.434949,34.037784 L -114.436171,34.028083 L -114.438266,34.022609 L -114.443821,34.016176 L -114.454807,34.010968 L -114.463336,34.012259 L -114.467404,34.00745 L -114.46628,34.003885 L -114.45816148733081,33.99807693452372 L -114.46012,33.993888 L -114.467932,33.992877 L -114.470357,33.988972 L -114.482333,33.980181 L -114.485348,33.974933 L -114.50079,33.961572 L -114.510428,33.957043 L -114.51497,33.958149 L -114.522002,33.955623 L -114.52868,33.947817 L -114.535478,33.934651 L -114.534146,33.925187 L -114.523393,33.921221 L -114.514503,33.914214 L -114.508558,33.906098 L -114.507988,33.901813 L -114.516344,33.897918 L -114.52569,33.901428 L -114.524813,33.895684 L -114.51866,33.888263 L -114.50434,33.876882 L -114.503887,33.865754 L -114.5176796955655,33.85829596348218 L -114.524292,33.860133 L -114.529883,33.857563 L -114.529597,33.848063 L -114.523409,33.835323 L -114.51997,33.825381 L -114.522714,33.818979 L -114.52805,33.814963 L -114.518942,33.797302 L -114.516734,33.788345 L -114.507089,33.76793 L -114.50434,33.756381 L -114.504483,33.750998 L -114.512348,33.734214 L -114.504176,33.728055 L -114.500788,33.722204 L -114.496565,33.719155 L -114.494333,33.710635 L -114.496489,33.696901 L -114.512409,33.691282 L -114.523959,33.685879 L -114.530348,33.679245 L -114.532123,33.669702 L -114.526439,33.66388 L -114.517112,33.662877 L -114.514057,33.660179 L -114.518337,33.655927 L -114.530583,33.654461 L -114.533215,33.648443 L -114.525394,33.640669 L -114.523802,33.6347 L -114.52637,33.630259 L -114.531034,33.628213 L -114.531215,33.623913 L -114.522071,33.611277 L -114.529186,33.60665 L -114.540617,33.591412 L -114.54061,33.582322 L -114.535965,33.569154 L -114.531613,33.561702 L -114.52822,33.559318 L -114.524599,33.552231 L -114.542011,33.542481 L -114.558023,33.532589 L -114.560835,33.524334 L -114.560963,33.516739 L -114.569533,33.509219 L -114.580468,33.506465 L -114.589246,33.501813 L -114.597283,33.490653 L -114.599712,33.484316 L -114.622918,33.456561 L -114.622283,33.447558 L -114.627125,33.433554 L -114.62964,33.428137 L -114.643302,33.416746 L -114.64954,33.413633 L -114.65781213928601,33.41296049504377 L -114.673691,33.419157 L -114.68795,33.417934 L -114.695658,33.415128 L -114.70242691653505,33.4082980667471 L -114.710878,33.407254 L -114.720065,33.407891 L -114.725535,33.404055 L -114.72425,33.40042 L -114.707213,33.382146 L -114.707537,33.377561 L -114.699056,33.361148 L -114.698035,33.352442 L -114.700938,33.337014 L -114.705186,33.327709 L -114.71044004926911,33.32069095149009 L -114.723623,33.312109 L -114.731223,33.302433 L -114.723259,33.288079 L -114.717875,33.285156 L -114.694449,33.279785 L -114.684363,33.276023 L -114.677032,33.270169 L -114.672401,33.260469 L -114.674491,33.255597 L -114.688205,33.247965 L -114.689421,33.24525 L -114.682731,33.234918 L -114.674479,33.225504 L -114.673715,33.219245 L -114.678749,33.203448 L -114.675189,33.188178 L -114.67583,33.18152 L -114.68089,33.169074 L -114.67935,33.162433 L -114.687405,33.141983 L -114.696914,33.131119 L -114.703682,33.113768 L -114.707896,33.097431 L -114.706488,33.08816 L -114.694628,33.086226 L -114.68902,33.084035 L -114.68912,33.076121 L -114.686991,33.070968 L -114.674295,33.057169 L -114.675111,33.048638 L -114.670803,33.037983 L -114.662317,33.03267 L -114.657827,33.033824 L -114.650999,33.044131 L -114.64482,33.048644 L -114.639552,33.04529 L -114.629732,33.032546 L -114.618788,33.027202 L -114.598871,33.025391 L -114.585598,33.027747 L -114.579054,33.0348 L -114.571653,33.036624 L -114.5648,33.035077 L -114.543131,33.03376 L -114.531083,33.032393 L -114.52013,33.029984 L -114.507924,33.019662 L -114.499797,33.003905 L -114.495712,32.980075 L -114.492938,32.971781 L -114.490129,32.969884 L -114.481315,32.972064 L -114.475389,32.975157 L -114.468605,32.971649 L -114.467624,32.956663 L -114.470768,32.949424 L -114.48074,32.937027 L -114.477952,32.925706 L -114.475449,32.922179 L -114.464448,32.913128 L -114.462929,32.907944 L -114.465172,32.885295 L -114.465711,32.873681 L -114.468971,32.845155 L -114.494116,32.823287 L -114.510327,32.816488 L -114.515389,32.811439 L -114.520385,32.803576 L -114.528849,32.796307 L -114.531669,32.791185 L -114.531831,32.774264 L -114.528443,32.767276 L -114.52727,32.760416 L -114.526856,32.757094 L -114.539092,32.756949 L -114.539224,32.749812 L -114.564447,32.749554 L -114.564508,32.742274 L -114.581736,32.74232 L -114.581784,32.734946 L -114.615112,32.734515 L -114.617395,32.728257 L -114.635006,32.731372 L -114.654247,32.73357 L -114.66568186834995,32.734024442414004 L -114.689618,32.738171 L -114.697935,32.744259 L -114.702223,32.74541 L -114.709562,32.734883 L -114.71562,32.728208 L -114.71956732205636,32.71873429669095 L -114.722395,32.713299 L -114.729904,32.704146 L -114.729709,32.700347 L -114.734028,32.691833 L -114.73684587552052,32.68965671384814 L -114.74454034521756,32.67829634614674 L -114.74532,32.67218 L -114.750033,32.66098 L -114.76459353944362,32.649701668259 L -114.764382,32.642666 L -114.77829671053621,32.6340233023182 L -114.78232,32.62893 L -114.781561,32.625615 L -114.791179,32.621833 L -114.799302,32.625115 L -114.80708246100608,32.6214758452045 L -114.80935683944449,32.61626258205713 L -114.807826,32.603221 L -114.801753,32.599362 L -114.799402,32.592618 L -114.803918,32.581774 L -114.801356,32.57894 L -114.804421,32.572942 L -114.81285758749364,32.56878225097069 L -114.812694,32.560071 L -114.806492,32.559245 L -114.79183,32.568782 L -114.791408,32.556461 L -114.795635,32.550956 L -114.805671,32.545668 L -114.801938,32.536509 L -114.8129998336372,32.52420702096426 L -114.80924,32.5176 L -114.803686,32.516643 L -114.80333,32.510861 L -114.807726,32.508726 L -114.814321,32.509023 L -114.812316,32.500054 L -114.813613,32.494277 L -114.780786,32.484641 L -114.649484,32.445064 L -114.563775,32.419141 L -114.430375,32.378635 L -114.33377567108121,32.34919050279323 L -114.250775,32.32391 L -114.115175,32.282239 L -114.0186,32.252484 L -113.859174,32.20328 L -113.785619,32.180358 L -113.664768,32.142736 L -113.565301,32.111651 L -113.391018,32.056908 L -113.257399,32.014821 L -113.155326,31.982507 L -113.012013,31.939175 L -112.92864070029782,31.91386904423715 L -112.867074,31.895488 L -112.81728618024,31.8801859751657 L -112.607760239485,31.8157892780547 L -112.562505802959,31.8018805647404 L -112.39942,31.751757 L -112.246102,31.704195 L -111.979417,31.620683 L -111.770191669009,31.5545325943778 L -111.623110872935,31.5080303172705 L -111.560194,31.488138 L -111.451080097014,31.4531952762052 L -111.366372,31.426068287287 L -111.125646,31.348978 L -111.07498,31.332341 L -110.942186,31.332738 L -110.84749,31.333738 L -110.761000348551,31.3335474556104 L -110.622211317073,31.3332150689292 L -110.4836769303957,31.332883292098327 L -110.375299,31.333224 L -110.274198,31.333637 L -110.156498,31.334125 L -109.957211,31.334053 L -109.821513,31.334066 L -109.76629,31.334358 L -109.74157542510068,31.334049735366325 L -109.60876792458023,31.334023713577352 L -109.494488,31.3340013220101 L -109.30377022318,31.3339639535052 L -109.2525203044355,31.33379337418443 L -109.05003312009633,31.33250198923614 L -109.050127,31.499708 L -109.050431,31.528407 L -109.04993,31.558122 L -109.049983,31.586166 L -109.049666,31.687783 L -109.049162,31.810847 L -109.049048,31.920917 L -109.048825,32.013636 L -109.048587,32.145802 L -109.048223,32.289451 L -109.0479910459052,32.345329229640434 L -109.048042,32.457282 L -109.047811,32.631991 L -109.047813,32.703208 L -109.047545,32.825843 L -109.047502,32.946389 L -109.047472,33.079733 L -109.047724,33.12344 L -109.047708,33.184022 L -109.047217,33.295918 L -109.046921,33.430831 L -109.04719,33.49259 L -109.047132,33.548175 L -109.046865,33.57267 L -109.047104,33.604095 L -109.046874,33.673348 L -109.046717,33.777407 L -109.046743,33.862719 L -109.047006,34.00005 L -109.04696,34.068968 L -109.046758,34.207938 L -109.046538,34.283179 L -109.04651930914444,34.38479810344214 L -109.046381,34.4098 L -109.046241,34.535555 L -109.046006,34.610175 L -109.045959,34.683094 L -109.0460860360631,34.770982229475884 L -109.045363,34.785406 L -109.046104,34.799981 L -109.045988,34.945078 L -109.045958,35.073822 L -109.046009,35.175508 L -109.046146,35.277412 L -109.046947,35.398196 L -109.046536,35.503461 L -109.046182,35.665552 L -109.046335,35.769972 L -109.046879,35.783723 L -109.04601,35.870711 L -109.04600429276984,35.93938847593937 L -109.046203,36.079916 L -109.046086,36.16226 L -109.045877,36.258974 L -109.045732,36.34656 L -109.045661,36.473251 L -109.045526,36.588495 L -109.045374,36.703887 L -109.045271,36.841262 L -109.045278,36.951702 L -109.045172,36.998977 Z" fill="none" stroke=currentColor stroke-width="1" vector-effect="non-scaling-stroke"/>
</svg>