<?xml version="1.0"?>
<svg width="200" height="200" xmlns="http://www.w3.org/2000/svg" version="1.2" baseProfile="tiny" viewBox="-135.340 -73.840 1070.680 1070.680" stroke-linecap="round" stroke-linejoin="round">
<g id="state">
<path vector-effect="non-scaling-stroke" d="M 754.59 674.23 755.02 675.23 754.98 676.57 754.73 677.45 754.76 678.44 755.25 679.78 755.28 680.37 755.13 681.16 755.1 682.08 755.37 682.97 755.37 683.42 755.07 684.61 755.02 685.53 755.21 686.57 755.81 687.63 756.52 688.24 757.8 688.88 758.8 689.64 759.27 690.14 759.68 690.85 760.21 692.07 760.68 693.88 761.86 696 762.37 696.65 763.41 697.53 764.24 698.04 765.42 699.39 766.72 699.93 767.53 700.43 767.85 701.21 768.24 701.39 769.14 701.49 769.41 701.99 769.77 703.56 770.63 704.86 770.76 705.44 771.05 705.76 770.91 706.25 770.53 706.67 771.87 708.01 772.04 708.39 772.02 709.36 772.29 710.19 773.51 711.18 773.55 711.97 773.31 712.28 772.62 712.56 772.69 712.84 773.82 714.05 775.26 715.04 776.66 717.55 777.44 718.79 777.72 720.05 777.78 720.94 777.51 722.08 777.5 722.75 777.68 723.8 777.36 725.19 777.38 725.76 778.31 726.69 778.68 726.74 779.88 726.4 781.19 726.16 781.63 726.34 782.3 727.41 783.09 727.64 784.42 728.36 785.18 729.21 785.31 729.96 785.68 730.37 786.23 730.55 787.24 730.55 787.63 730.73 788.5 731.67 788.84 731.85 790.06 732.88 790.47 733.61 790.78 733.88 791.79 734.16 792.94 734.19 793.64 734.66 794.82 735.25 795.53 736.16 796.59 738.19 798.19 739.51 798.14 740.15 798.5 741.67 798.45 742.04 798.68 742.81 799 743.39 798.69 743.88 797.93 743.76 797.25 743.93 796.34 743.85 796.4 744.63 795.61 745.1 795.5 745.67 794.4 746.77 792.56 749.01 791.94 749.42 791.76 749.75 791.89 750.51 791.54 751.21 790.68 751.62 790.41 752.01 789.66 752.59 788.54 753.01 787.97 752.86 787.06 753.05 786.59 753.47 785.62 754.89 785.16 755.68 784.21 756.52 783.3 756.84 782.34 756.85 781.7 757.28 781.41 757.97 780.95 758.48 779.94 758.79 779.06 759.41 778.11 759.32 777.37 759.52 776.69 760.2 776.15 761.26 775.74 761.71 775.49 763.33 775.44 764.69 775.54 765.43 775.91 766.62 775.86 767.56 775.72 768.1 775.31 768.75 774.46 769.3 773.76 769.22 773.46 769.7 773.57 770.04 774.26 770.56 774.13 770.98 773.5 771.11 773.33 771.5 772.42 772.41 772.2 772.93 771.03 774.29 770.28 774.78 769.91 774.69 769.36 774.97 768.86 775.75 768.39 777.06 768.55 777.97 769.44 778.3 770.19 778.94 770.72 779.69 770.79 780.1 770.14 780.52 769.36 780.22 769.47 780.77 770 781.46 771.22 782.5 771.32 783.57 770.25 784.36 769.71 784.21 769.27 784.48 769.35 785.4 769.92 786.6 770.25 787.55 770.06 788.18 769.66 788.59 770.49 790.26 770.72 791.11 771.61 793.04 771.9 794.14 771.92 794.67 771.38 796.32 772.07 796.88 772.38 797.43 772.74 797.71 772.96 798.52 772.87 799.86 771.61 800.47 770.71 801.05 770.23 801.72 770.14 802.65 770.63 803.19 771.39 803.24 771.65 803.49 771.33 803.92 770.35 804.12 770.17 804.71 770.84 805.43 771.01 806 770.82 806.44 770.46 806.66 770.47 807.07 771.28 808.25 770.73 808.73 769.89 810.26 769.94 811.14 770.39 812.39 770.78 813.09 771.07 813.3 771.4 813.97 770.05 814.99 768.81 816.02 768.62 816.83 768.66 817.57 768 818.33 767.13 818.65 766.45 819.14 765.86 820.26 765.69 820.88 763.97 823.67 764.07 824.54 763.75 825.91 763.58 826.45 762.53 827.61 762.04 827.94 761.37 828.04 760.05 827.52 758.9 827.7 758.29 828.01 757.78 828.7 757.1 828.84 756.35 828.82 755.93 829.21 756.05 829.56 757.53 831.25 757.53 831.69 758.31 833.24 758.44 834.07 758.29 835.58 757.99 836.5 757.6 837.2 756.58 838.09 756.01 839.06 756.74 840.41 757.19 840.66 759.12 841.08 759.96 841.39 760.59 841.93 761.02 842.84 760.88 843.32 759.8 844.12 759.72 844.39 760.32 845.36 761.04 846.23 761.14 846.83 760.81 848.38 761.19 849.84 761.17 850.48 760.83 851.71 760.99 852.34 760.44 854.36 759.73 855.45 759.27 857.16 759.01 858.75 759.18 859.64 760.16 859.77 760.62 859.96 760.66 860.73 760.86 861.21 761.97 862.49 761.95 863.32 762.36 864.32 763.08 864.8 763.44 864.67 763.94 863.64 764.42 863.18 764.87 863.48 765.74 864.66 766.66 865.13 768.29 865.21 769.36 864.92 769.85 864.21 770.45 864 771.01 864.11 772.79 864.14 773.78 864.22 774.68 864.4 775.74 865.34 776.49 866.82 776.95 869.1 777.23 869.89 777.47 870.06 778.17 869.81 778.64 869.48 779.21 869.79 779.38 871.23 779.16 871.94 778.42 873.19 778.71 874.27 778.93 874.59 779.88 875.42 780.04 875.91 779.98 878.11 780 879.23 779.9 882 777.96 884.23 776.68 884.96 776.29 885.47 775.93 886.26 775.28 887 775.07 887.51 775.16 889.14 775.47 889.8 775.61 890.46 775.66 890.78 774.66 890.85 774.69 891.54 772.63 891.68 772.66 892.38 771.25 892.46 771.29 893.17 768.56 893.37 768.41 893.98 766.95 893.76 765.37 893.64 764.43 893.65 762.45 893.36 761.73 892.81 761.38 892.72 760.83 893.77 760.37 894.44 760.1 895.37 751.95 896.47 738.58 898.26 723.88 900.23 714.78 901.45 705.61 902.67 697.89 903.7 689.81 904.79 680.8 906.01 667.82 907.76 660.56 908.74 651.84 909.88 646.98 910.54 641.01 911.36 638.41 911.69 623.81 913.66 611.47 915.29 606.08 916.04 598.69 917.03 585.59 918.74 582.38 919.2 579.23 919.62 578.32 919.69 574.37 920.26 570.32 920.8 568.76 920.98 563.77 921.66 563.54 920.05 562.91 918.55 562.9 916.73 562.88 915.63 562.64 914.12 562.36 912.98 561.49 910.91 560.35 909.07 558.64 907.65 557.64 907.12 556.03 907.05 555.15 907.48 554.14 908.7 554.07 909.08 553.6 909.38 552.56 905.95 552.25 903.54 552.43 901.46 552.63 901.02 552.5 900.09 552.43 898.18 552.18 896.93 551.82 896.07 551.23 895.6 550.68 894.83 550.09 894.25 550.16 893.87 549.96 893.2 549.99 892.21 550.48 891.51 551.33 891.62 551.66 891.18 551.93 890.66 552.25 889.39 552.33 888.71 552.19 888.15 552.06 886.27 551.62 885.1 551.3 882.82 550.74 881.14 550.62 879.98 549.85 877.01 549.65 875.94 549.45 875.39 548.6 873.78 548.25 873.42 547.54 871.14 547 869.83 546.75 868.7 545.37 865.37 544.66 864.38 544.2 863.32 542.8 861.32 540 857.69 539.54 857.23 539.06 857.37 538.82 857.09 538.95 856.46 535.43 851.45 533.38 848.8 530.35 845.31 526.86 842.34 525.12 841.38 524.89 841.03 523.58 840.69 522.85 840.18 522.52 839.33 520.68 836.97 519.9 836.16 518.8 835.24 517.7 834.38 515.81 833.24 515.13 833.27 515.1 833.64 514.71 833.87 513.9 833.67 513.7 833.44 513.09 833.49 513.04 833.05 512.07 831.24 511.48 831.08 511.13 830.67 510.98 830.08 509.68 828.45 509.27 828.27 508.74 827.43 507.9 826.66 507.25 825.7 506.32 825.36 505.62 825.25 505.34 824.86 504.85 824.84 504.33 824.52 504.38 824.21 503.59 823.59 503.19 823.37 503.14 823.31 502.65 822.7 500.66 821.58 499.91 820.92 498.79 820.63 497.53 820.13 495.45 819.64 494.4 818.42 489.47 815.2 487.12 813.05 486.52 812.42 485.11 810.75 484.19 809.79 482.17 807.91 480.15 806.87 478.58 805.85 477.11 805.22 475.66 804.91 474.67 804.78 474.73 805.32 473.9 805.69 473.94 806.3 474.36 807.6 474.33 807.89 473.52 807.91 471.96 806.73 470.66 807.22 469.65 807.05 470.12 808.36 470.05 808.51 469.06 808.84 469.48 809.57 468.57 809.58 468.21 809.05 467.71 809.06 466.43 809.68 466.54 810.1 466.09 810.65 465.61 810.75 465.47 810.41 463.95 809.83 462.44 809.16 461.65 808.8 460.93 808.68 460.66 808.2 459.88 807.65 459.12 807.75 458.88 807.45 458.17 807.3 457.05 807.85 456.74 807.46 456.13 807.43 455.95 806.65 455.49 805.36 455.17 805.28 455 804.41 455.02 803.49 455.49 802.99 456.33 802.55 456.45 801.75 457.36 801.3 457.65 799.72 457.61 798.19 456.84 797.5 456.66 797.07 456.85 796.37 455.81 793.64 453.33 788.18 452.47 786.38 449.93 782.88 448.19 780.82 447.11 780.01 446.48 779.54 444.9 778.76 443.94 778.87 443.1 778.53 442.67 778.53 441.69 778.89 440.95 778.74 440.08 778.83 439.6 779.09 438.43 778.96 437.49 779.13 435.29 778.89 434.65 778.93 434.07 779.22 433.68 779.72 432.73 779.53 431.78 779.85 429.5 779.54 428.9 779.58 428.1 779.86 427.78 780.29 426.87 780.35 425.45 780.77 425.08 781.16 424.66 782.14 424.05 782.28 423.77 782.79 422.54 781.39 421.06 780.16 419.83 779.5 419.26 779.51 418.13 779.2 416.55 779.11 415.91 778.87 414.96 778.9 414.21 778.49 413.55 778.54 413.26 778.73 412.58 778.53 411.78 778.29 411.01 777.89 410.52 777.49 409.45 777.16 408.34 776.62 407.37 776.55 405.06 775 404.33 774.83 403.15 774.79 401.14 773.47 400.16 773.42 399.3 773.81 398.73 773.72 397.65 773.35 396.56 772.63 392.84 769.7 391.66 769.17 390.59 769.03 388.9 766.16 386.68 761.17 386.53 760.35 386.19 758.72 385.49 757.37 384.5 756.6 383.6 756.81 382.78 756.47 382.15 755.84 380.75 755.11 379.8 753.78 378.09 752.32 377.65 752.17 376.65 752.54 376.48 752.46 375.25 750.92 374.84 750.61 373.19 748.89 372.2 748.82 371.56 747.91 370.77 747.08 369.84 746.94 369.36 747.17 368.98 746.51 367.85 746.06 367.32 746.1 366.13 745.63 365.75 745.26 365.13 745 364.67 745 363.81 744.11 362.86 743.31 362.49 743.13 361.51 743.4 360.39 742.88 359.08 742.65 358.25 742.6 357.92 742.83 357.23 742.73 356.48 743.12 355.7 742.95 353.84 743.09 352.53 743.44 352.81 743.85 352.24 744.35 351.59 744.46 351.45 744.78 350.86 745.1 349.23 745.06 348.28 744.5 347.54 744.3 344.07 742.9 342.99 743.08 341.53 743.02 340.31 743.33 339.99 744.27 339.24 743.91 337.62 743.83 337.27 743.98 336.53 743.02 336.22 742.78 335.5 742.63 334.45 741.82 333.24 741.26 332.37 741.2 331.58 741.32 331.08 741.27 329.76 740.37 328.72 739.77 328.31 739.86 327.69 739.33 326.86 738.84 325.95 738.77 325.61 739.05 324.39 738.55 323.44 738.72 321.81 738.63 321.69 738.8 320.4 738.86 319.71 738.7 318.01 737.91 316.82 737.62 315.36 737.58 314.43 737.72 313.98 737.92 312.8 737.86 309.43 737.83 308.43 738.07 306.84 738.13 304.82 738.04 303.85 737.81 303.31 738.16 301.67 738.51 300.65 738.58 300.13 738.95 298.2 739.1 294.89 739.26 293.34 739.78 292.06 739.62 291.3 740.04 291.19 740.49 290.35 739.89 289.7 739.96 289.47 738.07 289.3 737.32 289 736.74 288.53 736.32 287.95 735.41 287.71 735.34 287.37 734.15 286.53 732.67 285.47 731.86 284.08 731.03 283.13 730.82 282.21 730.13 280.95 729.34 278.79 729.36 278.49 729.66 277.64 729.61 276.9 728.98 276.29 728.67 276.21 727.79 275.88 727.36 275.85 726.28 276.13 726.1 276.29 724.57 277.49 721.81 279.35 716.06 279.51 715.02 279.41 714.53 278.96 714.09 278.78 713.43 278.53 713.16 278.37 712.49 277.99 712.03 277.46 711.77 277.03 710.28 276.59 710.03 276.79 708.96 277.41 707.5 277.77 706.42 278.31 704.19 278.84 701.63 278.82 700.14 278.34 699.3 276.52 697.97 276.48 697.04 275.89 695.95 274.16 695.9 274.02 695.65 274.56 694.03 274.58 693.31 274.37 693.16 274.71 692.58 276.54 686.09 277.07 683.17 277.38 680.42 277.42 678.78 277.36 676.31 276.88 673.89 276.15 672.42 275.75 672.04 274.86 671.49 274.42 671.62 273.85 671.52 273.45 671.01 272.91 670.77 271.97 669.74 270.76 669.27 270.5 669.44 269.82 669.32 269.17 669.02 268.01 669.07 267.53 669.37 267.37 669.9 267.42 670.75 267.07 670.82 266.3 670.42 265.61 669.92 265.05 669.06 264.39 668.93 264.1 668.63 261 667 260.26 666.43 259.52 666.22 258.91 665.12 258.47 665 258.18 664.35 257.75 663.76 257.13 663.3 256.32 662.18 256.32 661.59 256.57 660.47 256.42 659.96 256.93 659.7 257.13 658.78 257.69 657.9 258.35 656.32 258.8 654.67 259.16 652.59 259.17 651.26 258.54 651.1 258.59 650.16 258.96 650.17 259.03 649.7 258.88 648.13 258.65 647.13 257.44 644.51 256.49 643.33 255.62 642.66 254.7 642.82 253.11 642.89 252.23 642.73 251.83 642.17 250.76 641.53 250.23 641.64 249.59 641.51 248.84 641.18 248.51 641.49 248.08 641.46 246.68 639.71 246.34 639.12 245.51 638.65 245.28 638.19 244.2 636.87 243.55 636.51 243.39 636.17 242.07 634.56 240.46 632.82 240.3 632.11 239.87 631.35 239.83 630.95 239.42 630.13 238.9 629.61 238.41 628.17 237.21 627.3 236.62 626.23 235.43 624.38 234.52 623.85 233.64 623.59 233.11 623.82 232.07 623.7 231.81 623.17 231.08 622.69 229.61 622.65 228.83 622.21 227.96 621.46 227.62 621.57 227.06 621.23 226.33 621.19 225.93 621.33 225.93 620.21 225.71 619 225.19 618.28 224.57 617.69 223.72 616.65 223.9 615.86 223.5 615.17 223.7 614.95 223.55 613.62 223.74 612.86 223.41 612.45 222.92 612.36 223.04 611.21 222.47 609.87 220.58 607.8 220.11 607.38 219.26 607.01 219.26 606.73 218.15 605.9 217.57 604.91 216.69 603.82 216.43 603.01 216.06 602.52 215.27 602.33 214.15 601.62 214 601.29 213.1 600.24 212.61 600.04 212.31 599.43 212.52 598.56 212.39 598.02 211.71 596.96 211.68 596.39 211.95 596.22 211.95 595.71 211.41 595.37 211.48 594.76 210.95 593.54 210.75 592.58 210.68 591.48 210.29 590.41 209.91 589.84 209.52 588.82 208.71 587.96 207.73 587.65 207.11 587.19 206.31 587.07 205.67 586.71 204.81 586.56 204.34 586.64 203.77 586.1 203.2 584.58 202.64 583.9 202.67 583.31 202.41 583 202.4 582.16 201.32 581.51 201.27 581.21 200.39 580.05 200.17 578.81 199.39 577.21 199.36 576.78 198.42 576.03 197.68 574.74 196.14 572.89 195.86 572.38 195.23 572.08 194.2 571.21 194.06 570.81 192.86 569.42 191.82 568.8 190.58 567.9 190.05 567.84 188.98 566.85 188.01 566.2 187.54 566.1 186.67 565.52 185.9 565.61 185.29 565.38 184.92 564.81 184.4 564.71 184.21 564.24 183.67 563.85 183.41 562.9 182.45 561.2 181.98 560.88 181.55 560.84 181.38 560.52 180.69 560.08 179.64 558.72 179 558.5 178.79 558.23 179.18 557.26 179.02 556.35 179.3 555.85 179.36 554.87 178.42 553.53 178.65 552.77 178.61 552.05 178.35 551.87 178.75 551.03 178.59 550.42 178.67 549.89 178.48 549.44 177.76 548.94 177.61 548.18 177.88 546.72 176.92 544.71 176.65 544.53 176.7 544.04 177.01 543.52 176.72 542.75 176.16 542.19 176.09 541.32 175.5 540.39 176.06 539.82 176.11 538.89 175.77 538.26 175.09 537.81 175.68 537.5 176.27 537.62 176.39 537.34 176.99 537.36 177.24 537.05 176.94 535.86 176.59 535.18 176.88 535.02 176.7 533.71 175.93 533.06 175.38 532.94 175.08 533.54 174.73 533.16 173.77 532.47 173.29 531.75 173.5 531.4 173.99 531.48 174.36 530.83 174.48 529.91 174.8 528.91 175.3 528.97 175.68 528.74 176.15 528.06 176.38 527.21 176.38 526.52 176.55 526.25 177.08 526.24 177.47 526.48 177.68 527.09 178.26 527.62 179.02 527.87 179.9 528.97 180.16 529.54 180.62 529.82 181.21 529.69 181.97 529.29 182.65 528.73 183.2 528.11 184.28 526.59 185.29 524.57 185.81 523.32 186.6 520.45 186.81 518.94 186.95 515.44 187.86 511.94 188.4 510.25 188.17 509.16 187.6 507.97 186.85 505.89 185.48 502.88 182.89 497.77 181.54 495.93 180.44 494.78 179.53 494.07 177.72 493.14 176.99 493.13 176.03 493.76 174.36 495.4 173.5 494.94 172.81 494.89 171.27 494.46 170.45 494.54 170.23 494.86 170.19 495.54 169.05 495.4 168.36 495.75 167.14 495.8 165.45 495.24 164.43 495.06 163.81 494.78 163.34 494.34 162.73 493.99 162.43 494.15 161.78 493.81 161.38 493.1 160.37 492.9 160.27 492.5 159.68 491.79 158.67 491.05 158.1 490.74 157.85 490.25 157.05 489.59 156.38 489.2 156.06 488.6 155.58 488.13 155.04 488.03 154.68 486.77 153.52 485.31 152.91 484.7 152.3 483.41 151.2 481.78 150.48 480.54 149.86 479.98 148.87 479.08 148.27 478.89 147.05 479.36 146.89 479.01 146.47 478.92 146.34 478.58 146.5 477.62 146.46 477.12 146.05 476.66 146 476.32 145.37 476.13 144.7 475.69 144.81 475.17 144.67 474.39 144.28 473.49 143.36 472.66 142.91 472.47 142.16 472.59 141.96 472.24 141.89 471.48 141.4 471.18 141.15 469.39 141.29 468.88 140.66 467.57 140.43 466.72 140.5 466.04 141.06 464.37 142.04 457.49 142.13 455.33 141.61 454.86 141.52 453.81 140.48 452.06 140.43 451.21 140.11 450.75 140.2 450.39 139.86 450.14 139.61 449.2 139.38 448.87 139.01 447.81 138.9 445.32 138.48 443.46 137.93 442.26 136.96 441.48 135.91 442.03 135.29 442.23 134.94 441.4 133.92 440.08 133.6 439.37 133.43 437.82 133.91 436.38 133.84 435.02 133.61 434.88 133.46 434.13 133.64 434 133.74 432.65 133.47 432.3 134.49 432.14 134.98 431.81 135.25 430.98 135.29 429.76 135.46 429.58 135.66 427.52 135.61 425.48 135.56 423.4 135.18 421.28 134.91 419.76 134.44 414.2 135.16 413.49 136.12 413.56 136.67 413.31 137.12 412.29 137.3 411.61 137.87 411.6 138.39 411.99 141.74 411.7 142.57 411.69 143.2 412.22 144.2 413.68 144.17 414.84 144.33 415.63 144.2 416.12 144.54 416.4 144.6 416.94 144.97 417.61 145.6 418.44 145.14 418.48 144.97 418.86 146.23 419.58 145.88 420.2 145.78 420.75 144.68 419.95 144.37 420.29 144.92 420.77 144.64 421.47 143.7 421.34 143.56 421.48 143.5 421.54 143.93 424.33 144.38 424.51 144.41 425.43 144.91 425.99 144.44 427.38 143.57 427.49 143.71 428.1 144.09 428.09 144.39 428.62 145.54 429.31 145.3 430 146.24 430.58 145.95 431.15 145.1 430.63 144.87 430.69 144.45 431.47 145.11 431.77 145.83 432.78 147.8 432.9 148.23 433.2 148.53 432.94 149.31 432.99 149.23 433.72 149.97 434.53 151.63 434.58 152.45 435.07 153.28 434.77 154.11 435.37 154.73 436.85 155.83 437.03 156.26 437.82 157.08 438.13 157.76 438.15 158.3 438.45 158.44 438.89 158 439.47 159.02 440.37 159.27 440.07 159.55 440.94 160.87 442.1 161.84 441.88 162.61 441.48 162.88 441.5 163.52 442.17 163.77 443.56 164.03 444.4 163.82 444.71 164.42 445.47 164.87 445.8 165.44 445.84 166.42 446.88 167.98 447.1 168.63 447.4 169.72 447.26 170.29 446.73 170.31 446.01 169.45 445.6 169.19 444.89 169.07 442.76 167 442.1 166.21 442.18 165.46 442.49 164.93 442.19 164.8 441.15 164.79 439.41 163.58 436.3 163.18 436.07 162.42 434.21 162.23 433.57 162.32 431.73 161.96 430.44 161.89 428.36 161.37 426.15 161.24 425.85 160.84 424.92 160.08 424.35 159.6 423.55 159.36 423.61 158.84 423.09 158.29 422.16 158.11 421.51 157.46 421.75 157.5 422.43 157.27 422.69 156.38 421.96 154.45 420.13 154.75 419.86 153.81 418.69 153.76 418.33 155.06 417.68 155.14 417.54 153.02 416.55 152.46 415.89 152.17 416.3 151.71 416.21 151.74 415.81 150.9 415.44 150.4 415.07 149.71 415 149.54 414.7 148.76 414.52 148.49 413.96 148.57 413.17 148.33 412.57 147.72 412.14 148.44 411.65 149.23 411.73 149.66 411.15 149.52 410.87 148.67 410.71 149.78 410.08 150.54 410.22 151.28 410 151.19 409.24 149.82 409.16 149.96 408.63 151.11 408.83 150.97 408.27 150.98 407.37 150.46 406.64 149.79 407.02 149.67 406.28 149.19 405.51 149.7 405.42 150.11 405.93 150.47 405.87 150.26 405 149.91 404.49 149.1 404.1 149.11 403.74 150.44 403.72 150.17 403.3 149.23 403.23 149.54 402.52 149.28 402.23 148.48 401.99 147.78 402.27 146.58 402.02 145.96 402.48 144.27 402 144.53 400.9 144.24 400.42 143.45 399.81 142.83 399.71 142.56 399.23 142.78 399 142.56 398.45 141.9 398.25 142.17 397.89 141.75 397.3 141.4 396.46 142.71 396.7 143.02 397.27 143.43 397.54 144.01 397.06 143.57 396.49 143.61 396.22 145.1 395.94 146.2 395.35 146.66 394.21 146.3 393.38 146.17 392.45 147.19 392.41 148.93 393.15 150.27 392.2 151.38 392.3 151.92 391.8 152.28 391.21 152.74 391.19 153.27 390.44 153.41 389.77 154.37 389.1 154.38 388.43 153.51 386.9 152.93 385.34 151.47 383.33 150.36 382.45 148.27 381.06 147.05 380.32 144.61 379.26 144.26 379.31 144.11 379.72 141.55 381.14 140.73 381.73 140.17 381.39 140.38 380.83 140.93 380 140.69 379.65 139.21 380.35 136.6 381.8 136.49 382.16 137.3 382.79 137.44 383.18 137.54 386.04 136.85 387.51 136.78 388.28 136.24 389.85 136.33 391.09 136.57 391.51 137.11 391.6 137.55 392.26 138.97 392.71 139.87 393.82 140.11 394.59 139.42 395.01 138.84 394.84 138.63 394.51 138.21 394.79 137.78 395.76 136.38 395.84 136.3 396.11 136.77 396.41 136.75 396.95 137.01 398.14 137.54 398.58 136.73 399.14 135.58 398.51 135.7 399.87 136.41 400.56 136.96 400.57 137.5 401.12 137.77 401.08 137.95 401.86 137.63 402.17 138.72 403 139.02 403.33 139.8 403.41 140.54 404.64 139.57 405.51 138.68 405.58 138.98 406.46 138.19 405.82 137.77 405.2 137.97 404.58 137.73 404.04 137.1 403.66 136.66 403.16 135.76 403.28 136.07 404.87 135.75 405.18 136.19 405.95 137.41 406.64 137.28 407.8 137.82 408.86 137.39 409.18 137.3 409.93 136.88 409.81 136.83 409.81 136.51 409.8 136.39 409.8 136.36 409.8 136.33 409.84 136.19 409.99 136 410.2 135.54 410.33 135.45 410.33 134.81 409.92 133.84 409.94 133.71 410.18 133.41 410.44 133.41 410.5 132.98 409.95 132.82 409.35 131.94 408.76 131.2 407.74 131.02 407.22 130.11 406.81 129.47 406.67 128.03 404.87 127.07 404.53 126.8 404.63 126.3 404.25 124.97 402.62 123.7 401.88 122.2 401.65 121.03 402.15 120.31 402.84 119.74 402.57 119.46 402.17 118.87 402.07 118.45 401.74 118.07 400.21 117.77 399.66 116.88 399.13 116.45 398.68 115.57 398.42 115.42 398.05 114.33 397.36 113.7 395.31 113.28 394.6 112.44 393.73 112.23 393.74 111.51 392.59 108.87 390.57 106.94 389.68 105.19 389.33 103.81 389.26 102.56 388.91 101.24 389.17 100.02 389.96 99.27 391.02 99.14 392.15 99.78 392.65 98.89 392.66 98.27 392.53 95.99 392.3 96.27 391.85 96.97 391.5 98.55 387.82 101.18 380.99 101.93 378.53 102.21 377.03 102.2 376.06 101.92 375.45 101.76 374.69 100.9 374.21 101.06 373.79 101.02 372.68 100.9 372.3 99.98 371.01 100.02 370.47 99.64 370.08 98.91 368.72 99.48 368.8 100.15 369.66 100.63 369.64 100.92 368.78 101.12 367.72 101.06 367.33 100.42 365.92 99.73 365.39 99.51 364.7 99.13 364.41 98.96 363.78 98.44 363.03 96.95 361.67 95.86 361.34 94.91 361.59 94.71 362.07 94.69 362.68 94.32 362.77 93.92 362.39 93.18 360.79 93.15 360.38 93.66 359.17 93.75 356.78 92.87 355.05 92.53 353.76 91.91 353.33 91.59 352.2 91.23 351.29 90.84 350.81 90.51 350.69 90.26 349.98 89.9 349.84 89.88 349.13 89.43 347.85 88.84 347.4 88.32 347.28 88.2 346.93 87 346.04 86.65 345.37 85.17 344.26 84.26 343.72 83.99 343.4 83.02 342.86 82.63 342.94 81.8 342.53 81.42 341.86 80.75 341.58 80.36 341.74 79.02 340.23 79.05 339.78 77.69 338.73 76.94 338.39 76.27 337.8 75.98 337.12 74.38 336.15 73.78 335.48 73.87 334.44 73.59 333.75 73.14 333.07 72.57 333.08 72.22 332.63 71.74 332.4 71.83 331.41 71.29 331.19 70.97 330.56 70.14 329.6 70.21 329.24 68.86 327.3 68.83 326.57 68.34 326.05 68.09 325.33 67.72 325.22 66.96 324.6 67.15 324.07 66.51 322.84 65.67 322.1 65.49 321.6 64.68 320.81 64.14 320.63 63.38 320.01 62.73 319.13 61.64 318.63 61.12 318.54 60.65 317.77 60.42 317.8 60.24 317.03 59.91 316.79 59.8 315.93 59.14 315.52 59.2 315.09 58.6 314.56 57.67 314.12 57.82 313.81 57 312.93 56.42 312.46 55.65 312.48 55.46 312.01 55.12 311.89 54.56 310.45 53.53 309.71 53.06 309.53 52.89 309.12 52.12 308.31 51.46 308.13 51.13 307.23 50.99 306.15 50.62 305.47 49.11 304.43 48.57 303.34 47.47 302.48 46.96 301.21 46.13 300.78 45.65 300.72 45.54 299.72 45.84 299.08 45.45 298.62 45.31 298.13 44.74 297.11 45.19 296.95 45.71 297.1 46.32 296.43 47.14 295.15 48.32 292.57 48.85 290.95 48.72 290.57 48.94 290 48.93 289.47 48.69 288.94 48.93 288.72 48.8 287.41 48.14 285.88 48.16 285.4 47.61 283.49 47.85 283.04 47.47 282.44 47.29 281.48 47.01 281.03 47.18 280.53 47.12 279.89 46.52 279.48 45.89 279.34 45.71 277.88 45.83 277.1 45.3 276.62 45.2 276.17 44.7 275.77 44.2 274.23 43.43 273.94 43.32 273.55 43.57 273.21 43.23 272.2 43.64 271.88 43.15 271.14 43.02 270.38 43.15 269.76 42.75 268.24 42.39 268.13 42.52 267.55 42.4 266.57 42.18 266.19 41.65 266.38 41.32 265.65 41.49 265.19 41.29 264.59 41.52 264.25 42 264.48 41.95 263.48 40.98 263.3 40.69 262.75 40.7 262.38 41.65 262.33 41.69 261.83 41.33 261.49 41.22 260.77 40.47 260.18 40.53 259.79 39.79 258.82 40.34 257.65 40.39 257.23 40.2 256.63 40.51 254.65 40.46 253.18 40.88 253 41.02 252.13 40.8 251.49 41.53 251.22 41.02 250.92 41.04 249.54 41.8 247.35 42.03 246.81 42.24 245.48 42.76 244.98 43.69 243.35 44.16 242.2 45.18 239.2 45.15 238.51 44.89 237.98 44.77 237.3 44.37 236.7 44.51 236.16 43.85 235.29 43.71 234.56 43.84 233.8 44.12 233.65 44.26 232.49 43.93 231.98 44.12 231.78 44.03 230.72 44.13 230.33 44.11 228.75 43.65 228.04 43.78 226.68 43.64 225.81 42.99 224.91 42.67 223.76 41.46 223 41.12 222.5 41 221.76 41.24 221.64 41.03 220.55 40.6 219.63 40.76 217.33 40.64 215.44 40.26 214.2 40.24 213.33 40.04 212.3 39.75 211.67 37.73 210.49 36.88 209.69 36.41 209.42 35.84 208.7 35.34 207.49 35.31 206.92 34.36 204.11 32.56 202.8 32.29 202.25 32.05 201.3 31.18 199.79 30.85 198.84 29.72 197.76 28.99 196.52 28.52 196.05 27.93 195.11 26.9 193.73 26.04 192.99 25.42 192.61 24.78 192.53 24.21 192.71 23.67 191.78 23.78 188.48 23.36 187.26 22.12 185.49 21.72 184.73 19.59 183.42 17.33 182.56 16.5 181.95 16.09 181.89 14.21 178.86 13.34 178.15 12.67 177.35 11.08 176.45 10.04 175.22 8.87 174.51 6.63 172.14 6.17 171.07 5.06 170.38 4.37 169.72 3.63 168.66 3.72 168.28 3.68 167.19 4.46 165.06 4.54 164.45 5.02 163.52 4.7 161.87 4.21 161.18 4.07 160.74 3.99 157.63 3.46 155.85 3.08 155.26 2.2 154.42 1.98 153.79 1.44 152.92 1.44 151.77 1 151.35 1.1 150.86 2.07 149.07 3.06 146.42 3.23 145.46 2.97 144.95 3.03 144.42 3.34 143.61 4.18 142.35 4.9 140.79 7.72 134.35 8.88 132.16 9.08 132 10.97 128.37 14.22 123.12 15.85 119.88 17.94 116.5 19.96 112.86 21.45 109.77 23.23 105.03 24.89 98.94 25.51 95.32 24.87 94.07 24.95 93.85 24.6 93.19 23.85 92.5 23.18 92.25 23.02 92.69 22.55 92.61 22.95 91.84 22.69 91.23 22.39 91.29 22.21 90.65 22.54 90.31 22.63 89.35 22.24 88.18 22.19 87.24 22.35 86.96 22.44 85.97 22.01 85.19 22.35 84.91 22.16 84.33 22.57 83.93 23.21 84.17 23.66 83.82 25.4 79.52 26.71 75.71 26.62 75 26.8 74.64 28.03 70.14 29.25 64.43 29.86 61.77 30.8 55.53 30.62 54.39 30.71 52.55 30.3 50.43 30.13 50.2 30.12 49.48 29.76 48.54 29.87 45.01 29.14 44.41 28.57 42.87 28.58 41.97 28.91 41.33 28.38 40.43 28.72 39.65 27.8 38.23 27.73 37.05 27.5 36.56 27.47 35.93 26.99 34.89 26.43 34.24 26.47 33.76 26.21 32.84 26.32 32.14 26.04 31.36 26.13 30.38 26.07 29.18 25.82 28.33 25.37 27.26 24.66 26.13 23.74 25.53 22.73 26.44 22.45 26.36 22.07 25.54 20.94 24.85 20.51 24.13 19.16 22.8 18.69 22.83 18.27 22.16 18.31 21.49 18.71 21.3 19.64 19.71 20.21 18.32 21.13 15.68 22.12 11.67 22.52 8.75 22.71 6.59 22.63 6.06 22.26 5.6 22.66 4.17 22.78 2.47 22.53 1.9 22.36 1 30.41 1.52 38.16 1.92 44.04 2.17 49.66 2.39 50.56 2.47 51.37 2.55 57.36 2.6 62.5 2.99 64.98 2.63 69.25 2.71 77.82 3.03 84.95 3.42 96.81 3.2 99.59 3 100.8 3.08 104.27 3.51 105.58 3.58 106.94 3.79 112.45 3.92 116.43 4.04 119.16 4.09 130.31 4.4 137.27 4.5 141.5 4.43 145.25 4.43 152.4 4.59 155.17 4.55 163.65 4.94 170.66 5.13 172.07 5.24 179.09 5.5 180.07 5.59 182.86 5.73 185.65 5.83 186.94 5.82 193.43 6.05 200.19 6.31 214.38 6.82 220.04 6.99 230.03 7.3 233.54 7.24 241.37 7.34 242.82 7.38 246.97 7.58 249.88 7.67 253.64 7.87 256.9 7.95 260.29 7.92 269.66 7.97 272.54 8.02 276.72 8.04 279.52 8.12 285.22 8.18 292.14 8.16 303.85 8.31 303.9 8.25 308.92 8.29 310.12 8.24 314.54 8.14 322.32 8.12 327.56 8.12 327.56 19.74 327.63 31.84 327.6 34.67 327.59 43.94 327.63 44.53 327.58 53.82 327.55 56.05 327.53 68.18 327.5 80.28 327.53 81.61 327.52 86.65 327.51 96.44 327.52 104.49 327.56 116.93 327.61 124.24 327.6 126.39 327.74 140.61 327.81 146.1 327.83 158.92 327.83 164.98 327.77 170.57 327.78 177.62 327.73 183.36 327.73 187.6 327.71 191.73 327.72 194.66 327.68 201.44 327.58 210.71 327.57 213.56 327.51 217.18 327.47 223.23 327.42 225.46 327.44 232.41 327.42 236.75 327.45 239.56 327.36 245.2 327.37 247.25 327.29 253.26 327.22 255.26 327.05 262.14 327.02 271.96 327.08 274.74 327.09 277.28 327.17 280.25 327.23 286.32 327.43 298.48 334.74 304.91 340.22 309.71 350.59 318.85 354.92 322.66 355.87 323.53 358.78 326.06 361.45 328.41 364.58 331.12 365.38 331.88 368.98 334.96 374.92 340.33 375.36 340.65 378.44 343.29 379.8 344.51 385.33 349.39 389.65 353.17 394.08 357.02 396.29 358.98 397.43 360.09 401.43 363.54 403.69 365.62 407.63 368.94 409.73 370.77 413.33 373.97 414.52 375 421.36 381.11 423.31 382.73 425.82 384.91 432.66 391.07 432.99 391.38 436.84 394.67 442.36 399.53 442.74 399.9 452.09 408.14 452.35 408.39 461.83 416.71 467.54 421.74 471.61 425.32 477.38 430.35 478.54 431.44 482.5 434.9 483.08 435.36 488.97 440.7 491.22 442.45 501.07 451.32 504.11 454.03 506.63 456.07 510.26 459.35 514.46 463.09 517.66 465.82 520.83 468.62 520.89 468.61 530.94 477.6 531.12 477.72 539.48 485.13 541.16 486.5 548.63 493.12 550.65 494.87 553.79 497.67 557.67 501.08 560.64 503.64 570.79 512.59 580.69 521.36 588.26 528.01 597.31 535.95 600.85 539.1 601.86 539.94 610.61 547.79 611.21 548.26 621.11 556.9 631 565.61 638.62 572.31 647.92 580.51 654.12 585.94 661.31 592.27 666.44 596.77 670.34 600.21 675.34 604.6 683.9 612.13 689.31 616.87 696.63 623.3 700.4 626.64 702.41 628.35 705.75 631.33 710.28 635.3 710.6 635.66 715.32 639.85 717 641.21 718.36 642.47 724.43 647.71 725.29 648.49 732.71 654.95 736.18 658.07 737.7 659.32 742.9 663.88 746.41 667.01 754.59 674.23 Z M 141.87 406.38 141.9 406.7 141.96 407.36 141.97 407.43 141.05 407.14 140.76 407.31 140.14 407.04 139.87 406.56 140.69 406.03 141.08 405.5 141.66 405.78 141.87 406.38 Z M 145.06 409.66 145.75 409.59 146.18 410.44 146.06 410.81 146.47 411.26 146.28 411.87 145.82 411.91 145.39 411.55 145.52 411.2 144.96 410 145.06 409.66 Z M 95.86 420.89 96.67 420.52 97.01 421.21 96.69 421.66 95.93 421.27 95.86 420.89 Z M 404.87 833.02 405.57 833.15 406.22 832.57 406.47 833.68 406.2 833.93 406.18 834.49 405.58 834.77 405.22 834.3 405.2 833.68 404.87 833.02 Z M 372.51 781.99 373.16 781.75 374.17 781.84 374.85 782.43 376.2 782.71 376.76 782.59 377.25 782.19 377.57 782.35 376.64 783 375.95 782.95 374.7 782.68 374.11 782.77 373.91 782.56 372.87 782.32 372.51 781.99 Z M 361.92 853.2 363.15 853.9 363.95 853.31 365.86 852.52 366.53 853.03 367.79 853.74 368.33 854.33 369.09 854.4 371.43 855.27 372.05 855.98 372.83 856.67 373.54 857.7 373.57 858.12 373.21 858.8 372.51 858.83 371.7 859.19 370.66 859.33 369.73 858.98 368.96 858.85 368.39 858.95 368.05 858.68 367.18 858.55 366.59 858 365.72 857.74 364.47 857.64 363.31 856.56 362.85 856.24 362.74 855.5 362.1 855.18 362.2 854.56 361.79 853.23 361.92 853.2 Z M 333.16 777.65 333.79 777.57 334 777.12 333.69 776.72 334.02 775.95 334.53 775.93 336.28 776.38 336.87 776.22 339.01 776.52 341.54 777.63 342.12 778.29 343 778.37 343.95 777.9 344.45 777.87 345.99 778.08 346.9 777.72 347.25 778.2 347.83 778.26 348.91 778.94 349.56 778.77 350.68 779.21 351.65 780.14 352.25 780.56 352.79 781.48 353.83 781.5 354.26 781.78 355.37 781.46 355.62 781.86 356.3 781.78 356.72 782.11 358.2 781.78 358.78 781.32 359.41 780.32 359.01 779.76 360.16 778.57 361.02 778.17 361.38 778.45 362.78 778 363.24 778.31 363.29 778.63 364.09 779.03 364.56 779.02 365.43 779.36 366.16 780.02 365.6 780.78 364.69 781.02 364.28 781.61 364.4 781.89 363.94 782.4 364.04 782.82 363.44 783.56 362.96 783.79 361.74 783.75 360.57 784.36 360.03 784.47 358.24 784.61 358.07 784.44 357.06 784.62 355.93 784.57 354.71 784.76 353.74 785.48 352.51 786.09 351.85 786.23 351.67 786.63 351.19 786.49 350.72 786.75 350.53 787.14 350.01 787.32 349.45 787.11 348.25 786.91 347.65 786.92 347.03 787.36 346.05 787.07 344.48 787.36 344.18 787.02 343.33 786.91 342.18 787.31 342.05 786.97 341.13 786.46 340.23 786.31 339.75 786.56 338.36 785.44 337.73 785.33 337.07 784.17 336.62 782.6 336.98 782.3 337.43 781.15 337.48 780.32 337.04 779.89 336.68 779.84 336.59 779.35 334.26 777.78 333.79 777.93 333.16 777.65 Z M 307.38 783.17 307.71 783.17 308.37 782.52 309.66 782.41 310.69 782.87 311.72 783.01 312.69 782.67 313.25 782.81 314.01 782.63 315.28 781.67 315.6 781.02 316.55 780.9 318.23 781.51 320.24 781.52 321.57 781.07 321.82 780.62 322.16 780.63 322.51 780.15 323.07 779.78 324.02 779.97 323.86 780.37 324.02 780.77 323.65 781.38 323.45 782.15 323.71 782.82 323.75 783.44 324.18 783.97 325.43 784.78 326.38 785.04 326.47 785.28 327.2 785.42 328.77 784.99 329.2 785.26 329.13 786.38 329.38 787.63 329.84 788.24 329.63 789.01 327.43 789.1 326.08 789.6 325.19 790.42 324.34 790.74 323.72 791.22 323.5 791.71 322.92 791.85 321.58 791.95 321.23 792.26 320.18 792.22 319.55 792.36 318.99 792.7 318.61 793.54 318.15 793.66 317.67 793.53 314.6 791.57 314.17 791.53 313.57 790.9 312.94 790.68 313.05 790.4 312.19 788.49 311.48 788.05 311.36 787.59 310.61 786.09 309.82 785.45 309.59 784.62 308.93 784.26 308.2 784.08 308.21 783.75 307.38 783.17 Z M 291.22 780.04 291.3 779.74 292.02 779.78 292.93 778.75 294.04 778.04 294.97 778.48 295.57 778.51 296 778.34 297.35 777.31 297.92 776.52 298.32 776.31 298.9 777.65 298.47 777.98 298.6 778.52 299.06 778.81 299.54 778.88 300.81 778.64 301.79 779.33 302.73 780.53 302.74 781.23 301.94 781.57 300.49 781.38 298.98 781.54 298.64 781.93 297.94 781.85 297.26 781.56 296.61 781.01 295.93 780.86 294.5 780.25 294.03 780.24 293.72 780.56 293.05 780.9 292.39 780.51 290.89 780.63 291.22 780.04 Z M 440.81 833.09 441.27 833.14 442.32 833.52 443.58 833.36 445.68 833.44 446.16 833.16 446.81 834.01 447.3 834.17 447.48 834.59 448.47 835.22 449.1 835.41 449.32 835.76 449.32 836.36 449.86 836.43 450.78 835.86 451.15 835.85 451.5 836.38 451.75 836.36 453.04 837.21 453.46 837.33 453.77 837.69 455.58 837.82 456.76 838.39 456.98 838.35 457.9 838.85 458.24 838.68 458.98 839.45 459.93 839.49 460.19 840.28 459.97 840.77 460.14 841.4 460.39 841.5 461.54 842.88 463.09 844.37 463.38 845.02 463.76 845.28 464.94 846.61 465.16 847.7 465.36 847.95 465.4 848.97 464.84 849.34 464.47 849.87 463.78 850.09 462.31 849.52 461.42 848.77 459.72 848.13 458.92 848.05 458.23 848.19 456.97 848.03 455.7 848.41 454.71 848.21 454.33 848.36 453.08 848.07 452.34 847.67 451.61 846.89 450.51 845.3 450.32 844.38 450.5 843.85 450.87 843.45 450.98 842.86 450.87 842.45 451.44 842.15 450.97 841.6 450.86 840.91 450.58 840.43 450.29 838.63 449.53 838.48 448.41 837.7 448.23 838.3 447.48 837.62 446.63 837.78 446.32 837.26 445.67 837.31 445.08 837.18 444.88 837.4 444.2 837.31 444 837.01 443.22 836.77 443.39 836.43 442.88 835.89 442.02 834.72 441.09 833.93 440.81 833.09 Z M 440.95 876.21 441.9 875.86 442.31 876.42 443.45 876.02 444.4 876.93 444.4 877.39 444.89 878.67 445.24 878.67 445.71 879.05 445.96 880.33 446.54 881.17 447.1 881.49 447.27 882.01 448.08 882.73 448.52 883.29 448.6 883.71 450.16 885.67 451.09 886.62 452.53 887.34 453.14 887.94 453.69 888.78 456.47 891.16 458.64 892.9 459.53 893.78 460.62 894.65 462.23 896.37 461.69 896.75 461.13 896.4 460.29 896.26 459.86 896.02 459.14 895.91 457.98 896.43 457.78 897.21 456.64 897.59 455.91 898.36 455.27 897 454.88 896.9 454.31 896.39 454.01 896.5 452.9 895.44 452.29 895.17 452.09 894.66 450.64 894.13 450.58 893.77 449.74 893.48 449.83 893.08 449.61 892.46 449.16 891.94 449.2 890.95 448.15 890.26 447.69 889.45 447.24 888.36 446.72 888.32 446.31 887.83 446.32 887.2 445.89 887.13 446.09 886.65 445.92 886.03 445.59 885.68 445.49 884.45 445.08 883.99 444.82 883.35 444.02 882.74 443.5 881.84 443.35 880.55 443.12 880.33 442.37 878.17 441.71 877.73 440.99 877.86 440.95 876.21 Z" fill-rule="evenodd" fill="none" stroke="currentColor" stroke-width="1"/>
</g>
</svg>