<?xml version="1.0"?>
<svg xmlns="http://www.w3.org/2000/svg" version="1.2" baseProfile="tiny" width="800" height="738" viewBox="0 0 800 738" stroke-linecap="round" stroke-linejoin="round">
<g id="state">
<path d="M 759.96 545.03 760.32 545.84 760.21 546.92 759.92 547.61 759.89 548.4 760.29 549.49 760.29 549.97 760.1 550.59 760.02 551.32 760.23 552.05 760.21 552.41 759.85 553.34 759.75 554.08 759.88 554.92 760.41 555.8 761.06 556.32 762.27 556.89 763.2 557.54 763.63 557.97 763.99 558.55 764.43 559.55 764.79 561.02 765.81 562.77 766.28 563.31 767.24 564.06 768.01 564.51 769.08 565.65 770.31 566.14 771.07 566.57 771.34 567.21 771.7 567.37 772.57 567.49 772.8 567.91 773.07 569.18 773.82 570.26 773.92 570.73 774.18 571 774.02 571.38 773.62 571.71 774.84 572.83 774.99 573.15 774.92 573.92 775.12 574.6 776.25 575.45 776.24 576.08 776 576.32 775.31 576.51 775.36 576.74 776.39 577.76 777.73 578.62 778.94 580.69 779.62 581.72 779.82 582.74 779.83 583.46 779.5 584.36 779.45 584.89 779.56 585.74 779.17 586.84 779.16 587.29 780.01 588.08 780.37 588.14 781.55 587.93 782.82 587.8 783.24 587.96 783.82 588.85 784.58 589.07 785.82 589.71 786.5 590.42 786.58 591.03 786.92 591.38 787.44 591.55 788.42 591.6 788.78 591.76 789.56 592.56 789.88 592.71 791 593.6 791.35 594.2 791.63 594.44 792.59 594.71 793.7 594.79 794.35 595.2 795.45 595.73 796.08 596.49 796.98 598.17 798.45 599.3 798.36 599.81 798.62 601.04 798.55 601.34 798.72 601.96 799 602.45 798.67 602.82 797.95 602.69 797.28 602.79 796.4 602.68 796.42 603.31 795.63 603.65 795.49 604.1 794.37 604.92 792.46 606.62 791.84 606.92 791.65 607.18 791.72 607.79 791.35 608.33 790.5 608.62 790.21 608.92 789.46 609.35 788.36 609.63 787.82 609.48 786.93 609.59 786.45 609.9 785.44 610.99 784.95 611.61 783.99 612.23 783.09 612.44 782.16 612.41 781.52 612.72 781.21 613.25 780.73 613.64 779.74 613.84 778.86 614.3 777.96 614.18 777.22 614.3 776.54 614.81 775.96 615.64 775.54 615.98 775.21 617.26 775.08 618.35 775.13 618.95 775.42 619.91 775.32 620.67 775.16 621.09 774.73 621.59 773.88 621.99 773.21 621.89 772.9 622.27 772.99 622.54 773.62 623 773.46 623.32 772.86 623.4 772.67 623.7 771.74 624.38 771.51 624.79 770.31 625.83 769.56 626.18 769.21 626.1 768.66 626.29 768.14 626.9 767.61 627.92 767.72 628.65 768.55 628.96 769.24 629.51 769.7 630.14 769.75 630.47 769.1 630.77 768.37 630.5 768.44 630.94 768.92 631.52 770.03 632.4 770.07 633.27 769 633.85 768.48 633.71 768.05 633.9 768.07 634.64 768.55 635.63 768.82 636.4 768.6 636.9 768.19 637.21 768.9 638.58 769.07 639.28 769.82 640.86 770.03 641.76 770.02 642.18 769.41 643.48 770.04 643.96 770.31 644.41 770.63 644.65 770.81 645.31 770.64 646.38 769.4 646.81 768.51 647.23 768.01 647.75 767.87 648.49 768.32 648.94 769.04 649.02 769.28 649.23 768.94 649.56 767.99 649.67 767.79 650.14 768.4 650.74 768.52 651.21 768.32 651.55 767.96 651.71 767.94 652.04 768.65 653.03 768.1 653.39 767.21 654.57 767.21 655.27 767.58 656.3 767.91 656.87 768.18 657.06 768.46 657.61 767.11 658.37 765.86 659.14 765.64 659.78 765.63 660.37 764.97 660.95 764.12 661.16 763.44 661.52 762.81 662.39 762.63 662.88 760.82 665.04 760.87 665.74 760.5 666.82 760.3 667.24 759.24 668.13 758.76 668.37 758.12 668.42 756.88 667.94 755.78 668.04 755.18 668.25 754.65 668.78 754 668.87 753.28 668.82 752.86 669.11 752.96 669.4 754.28 670.82 754.25 671.17 754.91 672.45 754.99 673.12 754.77 674.32 754.44 675.04 754.03 675.59 753.01 676.25 752.42 677 753.03 678.12 753.45 678.35 755.27 678.76 756.05 679.05 756.62 679.51 756.98 680.26 756.82 680.64 755.76 681.23 755.66 681.44 756.18 682.25 756.82 682.98 756.88 683.46 756.49 684.69 756.77 685.87 756.72 686.39 756.32 687.36 756.44 687.87 755.82 689.46 755.08 690.3 754.55 691.65 754.23 692.92 754.34 693.64 755.26 693.79 755.69 693.96 755.68 694.57 755.85 694.97 756.84 696.05 756.77 696.71 757.11 697.54 757.77 697.95 758.11 697.86 758.64 697.06 759.12 696.71 759.53 696.97 760.3 697.96 761.15 698.37 762.69 698.51 763.72 698.33 764.23 697.78 764.8 697.64 765.34 697.76 767.02 697.86 767.95 697.97 768.8 698.16 769.75 698.96 770.38 700.18 770.7 702.03 770.92 702.68 771.13 702.82 771.82 702.65 772.28 702.41 772.81 702.69 772.88 703.85 772.64 704.41 771.86 705.37 772.08 706.25 772.27 706.53 773.13 707.23 773.25 707.63 773.07 709.39 773.03 710.29 772.78 712.51 770.82 714.2 769.57 714.73 769.17 715.12 768.79 715.73 768.13 716.3 767.91 716.7 767.9 718.01 768.16 718.55 768.25 719.09 768.28 719.34 767.33 719.35 767.32 719.91 765.36 719.93 765.36 720.49 764.02 720.49 764.02 721.06 761.43 721.1 761.25 721.58 759.89 721.34 758.39 721.17 757.5 721.13 755.65 720.81 755 720.34 754.67 720.25 754.1 721.07 753.63 721.59 753.32 722.32 745.55 722.84 732.82 723.7 718.82 724.67 710.16 725.27 701.43 725.89 694.08 726.42 686.4 726.99 677.82 727.63 665.48 728.57 658.58 729.1 650.29 729.73 645.67 730.09 639.99 730.55 637.53 730.74 623.65 731.86 611.93 732.8 606.81 733.25 599.8 733.83 587.36 734.84 584.32 735.13 581.33 735.38 580.47 735.42 576.72 735.77 572.88 736.1 571.4 736.21 566.67 736.63 566.5 735.34 565.94 734.12 565.99 732.66 565.99 731.77 565.81 730.55 565.58 729.63 564.82 727.95 563.79 726.44 562.22 725.26 561.28 724.82 559.76 724.72 558.92 725.04 557.93 726 557.85 726.3 557.39 726.53 556.5 723.76 556.28 721.82 556.5 720.15 556.7 719.8 556.61 719.05 556.6 717.52 556.39 716.5 556.08 715.81 555.53 715.42 555.03 714.79 554.49 714.31 554.56 714 554.39 713.46 554.44 712.67 554.92 712.11 555.74 712.23 556.06 711.88 556.33 711.47 556.67 710.46 556.76 709.91 556.65 709.46 556.58 707.95 556.19 707 555.94 705.16 555.46 703.8 555.38 702.87 554.72 700.47 554.57 699.6 554.39 699.16 553.62 697.85 553.31 697.55 552.69 695.71 552.22 694.64 552.01 693.73 550.78 691.02 550.13 690.22 549.73 689.36 548.44 687.72 545.88 684.74 545.45 684.36 544.98 684.47 544.77 684.24 544.91 683.74 541.68 679.64 539.8 677.47 536.99 674.61 533.74 672.16 532.09 671.35 531.88 671.06 530.64 670.76 529.96 670.34 529.66 669.65 527.97 667.72 527.24 667.05 526.21 666.3 525.18 665.58 523.4 664.63 522.75 664.64 522.71 664.94 522.34 665.11 521.56 664.94 521.37 664.75 520.79 664.78 520.75 664.42 519.87 662.95 519.31 662.81 518.99 662.48 518.85 662 517.65 660.67 517.26 660.52 516.77 659.84 515.99 659.2 515.38 658.42 514.5 658.13 513.83 658.03 513.58 657.71 513.11 657.69 512.62 657.42 512.67 657.17 511.93 656.66 511.55 656.48 511.51 656.43 511.05 655.93 509.17 655 508.47 654.45 507.4 654.2 506.2 653.77 504.22 653.34 503.24 652.35 498.59 649.68 496.38 647.92 495.81 647.41 494.49 646.04 493.63 645.26 491.73 643.71 489.81 642.85 488.33 642.01 486.93 641.48 485.54 641.21 484.6 641.09 484.64 641.52 483.84 641.8 483.86 642.29 484.25 643.35 484.21 643.58 483.43 643.58 481.96 642.61 480.7 642.99 479.74 642.84 480.17 643.89 480.1 644.01 479.14 644.26 479.53 644.85 478.66 644.85 478.32 644.41 477.84 644.42 476.61 644.9 476.7 645.23 476.26 645.67 475.8 645.74 475.67 645.47 474.22 644.98 472.79 644.42 472.03 644.12 471.35 644.01 471.09 643.63 470.35 643.17 469.62 643.24 469.4 643 468.72 642.87 467.63 643.3 467.35 642.98 466.76 642.95 466.6 642.32 466.18 641.28 465.87 641.21 465.73 640.51 465.76 639.77 466.22 639.38 467.03 639.04 467.16 638.39 468.04 638.05 468.35 636.79 468.34 635.56 467.6 635 467.44 634.65 467.64 634.09 466.68 631.89 464.38 627.48 463.58 626.02 461.19 623.19 459.55 621.51 458.52 620.85 457.92 620.46 456.41 619.82 455.49 619.89 454.69 619.61 454.26 619.61 453.32 619.89 452.61 619.75 451.77 619.81 451.3 620.02 450.18 619.9 449.27 620.03 447.16 619.81 446.53 619.83 445.97 620.06 445.6 620.45 444.68 620.3 443.76 620.54 441.57 620.26 441 620.29 440.22 620.51 439.91 620.85 439.03 620.89 437.65 621.21 437.3 621.52 436.88 622.3 436.29 622.41 436.01 622.81 434.85 621.68 433.44 620.68 432.26 620.13 431.71 620.14 430.63 619.88 429.1 619.79 428.49 619.6 427.58 619.61 426.86 619.28 426.22 619.31 425.94 619.46 425.3 619.29 424.52 619.09 423.78 618.77 423.32 618.44 422.29 618.16 421.23 617.73 420.3 617.66 418.08 616.39 417.38 616.25 416.24 616.22 414.32 615.14 413.38 615.09 412.55 615.4 411.99 615.32 410.96 615.02 409.92 614.43 406.35 612.05 405.22 611.63 404.19 611.5 402.58 609.2 400.48 605.18 400.34 604.52 400.02 603.21 399.36 602.12 398.4 601.5 397.54 601.67 396.75 601.39 396.14 600.88 394.79 600.29 393.88 599.21 392.24 598.04 391.82 597.91 390.85 598.2 390.68 598.14 389.51 596.9 389.11 596.65 387.53 595.26 386.57 595.21 385.95 594.47 385.2 593.8 384.3 593.68 383.83 593.87 383.46 593.34 382.38 592.97 381.86 593 380.71 592.62 380.34 592.32 379.75 592.11 379.31 592.11 378.48 591.39 377.56 590.75 377.21 590.6 376.25 590.82 375.17 590.39 373.9 590.2 373.1 590.16 372.79 590.35 372.11 590.26 371.39 590.57 370.63 590.44 368.83 590.54 367.57 590.82 367.84 591.15 367.29 591.55 366.65 591.63 366.52 591.89 365.94 592.15 364.37 592.11 363.45 591.66 362.73 591.5 359.38 590.37 358.33 590.51 356.93 590.46 355.75 590.71 355.43 591.46 354.71 591.17 353.14 591.11 352.8 591.22 352.09 590.45 351.78 590.26 351.09 590.14 350.08 589.49 348.9 589.04 348.06 588.99 347.3 589.09 346.81 589.05 345.53 588.32 344.53 587.84 344.13 587.92 343.53 587.49 342.73 587.1 341.84 587.04 341.52 587.27 340.34 586.87 339.42 587 337.84 586.93 337.72 587.07 336.48 587.12 335.81 586.99 334.16 586.36 333.01 586.13 331.59 586.1 330.69 586.21 330.25 586.38 329.11 586.33 325.85 586.31 324.88 586.5 323.34 586.55 321.38 586.48 320.45 586.31 319.92 586.58 318.34 586.87 317.35 586.93 316.85 587.23 314.98 587.36 311.77 587.49 310.27 587.91 309.04 587.79 308.31 588.13 308.2 588.5 307.39 588.01 306.76 588.08 306.53 586.56 306.35 585.96 306.06 585.5 305.6 585.16 305.04 584.43 304.8 584.38 304.47 583.43 303.65 582.24 302.61 581.6 301.27 580.94 300.34 580.78 299.45 580.23 298.22 579.6 296.12 579.63 295.84 579.87 295.02 579.83 294.29 579.33 293.7 579.09 293.61 578.38 293.29 578.05 293.26 577.18 293.53 577.03 293.67 575.81 294.82 573.59 296.59 568.97 296.74 568.14 296.64 567.74 296.2 567.39 296.01 566.86 295.77 566.65 295.62 566.11 295.25 565.75 294.73 565.54 294.3 564.35 293.87 564.16 294.06 563.3 294.65 562.12 294.99 561.26 295.51 559.47 296 557.42 295.97 556.22 295.5 555.55 293.72 554.49 293.67 553.75 293.1 552.88 291.41 552.85 291.27 552.65 291.79 551.35 291.8 550.77 291.59 550.66 291.93 550.19 293.67 544.98 294.17 542.64 294.45 540.43 294.47 539.12 294.4 537.14 293.92 535.21 293.19 534.03 292.8 533.73 291.92 533.3 291.49 533.4 290.94 533.32 290.54 532.92 290.02 532.73 289.09 531.92 287.91 531.54 287.65 531.68 286.99 531.59 286.35 531.35 285.21 531.4 284.75 531.64 284.59 532.07 284.65 532.75 284.31 532.81 283.56 532.5 282.87 532.09 282.32 531.41 281.68 531.31 281.39 531.08 278.35 529.79 277.62 529.34 276.89 529.18 276.29 528.3 275.86 528.2 275.57 527.69 275.14 527.22 274.53 526.86 273.73 525.96 273.72 525.49 273.96 524.59 273.8 524.19 274.31 523.97 274.49 523.24 275.03 522.53 275.66 521.26 276.09 519.93 276.43 518.27 276.42 517.2 275.8 517.07 275.84 516.33 276.21 516.33 276.27 515.95 276.11 514.69 275.87 513.9 274.66 511.81 273.72 510.87 272.86 510.34 271.96 510.47 270.4 510.54 269.54 510.42 269.14 509.98 268.09 509.48 267.57 509.57 266.94 509.47 266.2 509.21 265.88 509.46 265.46 509.44 264.07 508.05 263.73 507.58 262.9 507.21 262.67 506.85 261.6 505.8 260.97 505.52 260.8 505.25 259.49 503.97 257.89 502.59 257.72 502.02 257.29 501.42 257.24 501.1 256.83 500.45 256.32 500.03 255.82 498.89 254.63 498.2 254.04 497.35 252.85 495.88 251.95 495.47 251.07 495.27 250.55 495.46 249.54 495.37 249.28 494.95 248.55 494.58 247.1 494.56 246.33 494.22 245.47 493.62 245.14 493.71 244.57 493.44 243.86 493.43 243.47 493.54 243.46 492.64 243.22 491.68 242.7 491.11 242.08 490.64 241.23 489.82 241.4 489.18 240.99 488.63 241.19 488.46 241.02 487.4 241.2 486.78 240.87 486.46 240.38 486.39 240.49 485.48 239.91 484.41 238.02 482.77 237.54 482.44 236.71 482.16 236.71 481.93 235.6 481.28 235.02 480.5 234.13 479.63 233.86 478.98 233.49 478.6 232.71 478.46 231.59 477.9 231.44 477.64 230.53 476.81 230.05 476.66 229.75 476.17 229.93 475.47 229.8 475.04 229.11 474.2 229.08 473.75 229.34 473.61 229.34 473.2 228.8 472.93 228.85 472.44 228.32 471.47 228.1 470.71 228.01 469.83 227.61 468.98 227.23 468.53 226.83 467.72 226.01 467.03 225.05 466.8 224.43 466.44 223.63 466.36 222.99 466.07 222.14 465.97 221.68 466.04 221.1 465.62 220.52 464.4 219.95 463.87 219.97 463.39 219.71 463.15 219.69 462.48 218.61 461.97 218.56 461.73 217.67 460.82 217.42 459.83 216.63 458.55 216.59 458.22 215.65 457.63 214.9 456.6 213.34 455.15 213.06 454.75 212.42 454.51 211.39 453.83 211.24 453.51 210.04 452.42 208.99 451.94 207.75 451.23 207.22 451.19 206.15 450.42 205.17 449.91 204.7 449.84 203.83 449.38 203.06 449.47 202.46 449.3 202.09 448.85 201.56 448.77 201.36 448.4 200.83 448.1 200.55 447.35 199.57 446 199.09 445.75 198.67 445.72 198.49 445.47 197.8 445.13 196.73 444.06 196.09 443.89 195.89 443.68 196.25 442.89 196.07 442.17 196.34 441.77 196.38 440.98 195.42 439.92 195.63 439.32 195.58 438.73 195.32 438.6 195.7 437.92 195.53 437.43 195.59 437.01 195.4 436.65 194.67 436.26 194.5 435.65 194.74 434.49 193.75 432.89 193.48 432.75 193.53 432.36 193.82 431.94 193.52 431.32 192.95 430.89 192.86 430.19 192.26 429.46 192.8 428.99 192.83 428.25 192.48 427.75 191.8 427.4 192.37 427.14 192.96 427.23 193.08 427.01 193.67 427.01 193.92 426.76 193.6 425.81 193.24 425.27 193.51 425.14 193.32 424.1 192.54 423.59 191.99 423.5 191.7 423.99 191.34 423.69 190.37 423.15 189.88 422.58 190.08 422.3 190.57 422.36 190.93 421.83 191.02 421.1 191.33 420.29 191.82 420.33 192.19 420.13 192.65 419.58 192.86 418.9 192.85 418.35 193.01 418.13 193.54 418.12 193.93 418.3 194.15 418.78 194.74 419.2 195.5 419.39 196.4 420.25 196.67 420.7 197.14 420.92 197.72 420.81 198.47 420.48 199.14 420.01 199.67 419.52 200.71 418.28 201.68 416.65 202.17 415.64 202.91 413.33 203.09 412.12 203.17 409.32 204 406.5 204.52 405.15 204.26 404.28 203.67 403.34 202.88 401.68 201.46 399.3 198.77 395.24 197.38 393.8 196.26 392.89 195.34 392.34 193.51 391.63 192.78 391.63 191.83 392.15 190.19 393.49 189.33 393.13 188.63 393.1 187.09 392.79 186.26 392.87 186.05 393.13 186.02 393.67 184.89 393.58 184.21 393.87 182.98 393.93 181.28 393.51 180.26 393.38 179.63 393.17 179.16 392.83 178.54 392.56 178.24 392.7 177.58 392.43 177.16 391.87 176.15 391.73 176.04 391.42 175.43 390.86 174.41 390.29 173.83 390.05 173.57 389.66 172.75 389.14 172.07 388.85 171.74 388.38 171.25 388.01 170.7 387.94 170.31 386.94 169.12 385.79 168.5 385.31 167.85 384.3 166.71 383.01 165.96 382.03 165.33 381.6 164.31 380.89 163.71 380.76 162.5 381.15 162.33 380.88 161.91 380.82 161.77 380.55 161.91 379.78 161.85 379.38 161.43 379.01 161.37 378.74 160.73 378.61 160.05 378.27 160.14 377.85 159.99 377.23 159.58 376.51 158.63 375.87 158.18 375.73 157.43 375.84 157.21 375.56 157.13 374.96 156.63 374.73 156.33 373.3 156.46 372.89 155.79 371.85 155.54 371.18 155.59 370.64 156.11 369.29 156.92 363.76 156.96 362.04 156.42 361.67 156.3 360.83 155.21 359.45 155.15 358.78 154.81 358.41 154.89 358.13 154.55 357.93 154.26 357.19 154.02 356.92 153.63 356.08 153.45 354.1 152.98 352.62 152.4 351.67 151.4 351.07 150.35 351.53 149.74 351.71 149.36 351.05 148.3 350.01 147.96 349.45 147.74 348.21 148.2 347.05 148.08 345.96 147.85 345.86 147.68 345.26 147.86 345.16 147.92 344.07 147.64 343.8 148.66 343.65 149.15 343.37 149.4 342.7 149.41 341.73 149.58 341.58 149.72 339.93 149.61 338.3 149.51 336.64 149.07 334.95 148.75 333.74 148.13 329.31 148.85 328.73 149.81 328.76 150.36 328.55 150.79 327.72 150.95 327.17 151.53 327.16 152.07 327.46 155.45 327.16 156.28 327.13 156.94 327.54 157.98 328.69 157.98 329.62 158.17 330.24 158.04 330.64 158.4 330.86 158.47 331.29 158.87 331.82 159.52 332.46 159.05 332.51 158.9 332.81 160.18 333.36 159.84 333.87 159.76 334.31 158.63 333.7 158.32 333.97 158.89 334.34 158.62 334.91 157.68 334.83 157.54 334.94 157.48 334.99 157.98 337.21 158.44 337.35 158.5 338.08 159.02 338.52 158.57 339.64 157.7 339.74 157.85 340.23 158.24 340.21 158.56 340.63 159.73 341.16 159.51 341.72 160.47 342.16 160.2 342.62 159.32 342.23 159.09 342.28 158.69 342.91 159.36 343.13 160.11 343.93 162.1 343.98 162.54 344.22 162.84 344 163.63 344.03 163.57 344.61 164.33 345.25 166.01 345.25 166.84 345.64 167.67 345.37 168.52 345.84 169.18 347.01 170.29 347.13 170.75 347.76 171.58 347.99 172.26 347.99 172.81 348.22 172.96 348.58 172.54 349.04 173.59 349.75 173.83 349.5 174.14 350.19 175.49 351.09 176.46 350.9 177.23 350.56 177.51 350.58 178.16 351.11 178.44 352.21 178.72 352.88 178.52 353.13 179.14 353.73 179.61 353.98 180.17 354 181.19 354.82 182.76 354.97 183.43 355.2 184.51 355.07 185.08 354.63 185.08 354.06 184.21 353.74 183.93 353.18 183.77 351.48 181.66 350.99 180.87 351.06 180.12 351.33 179.58 351.09 179.42 350.26 179.38 348.87 178.09 346.41 177.68 346.23 176.87 344.75 176.66 344.25 176.71 342.77 176.32 341.75 176.2 340.09 175.63 338.33 175.49 338.1 175.07 337.35 174.28 336.91 173.78 336.28 173.54 336.34 173.01 335.93 172.43 335.19 172.23 334.68 171.58 334.89 171.64 335.43 171.41 335.64 170.49 335.08 168.5 333.65 168.79 333.43 167.82 332.51 167.76 332.22 169.06 331.68 169.14 331.56 166.97 330.81 166.39 330.29 166.1 330.63 165.64 330.57 165.66 330.25 164.8 329.97 164.29 329.67 163.59 329.64 163.41 329.4 162.61 329.27 162.33 328.82 162.38 328.2 162.13 327.72 161.51 327.39 162.22 326.98 163.02 327.03 163.44 326.56 163.3 326.34 162.43 326.22 163.54 325.7 164.31 325.8 165.05 325.61 164.94 325 163.55 324.96 163.68 324.53 164.85 324.68 164.7 324.22 164.68 323.51 164.14 322.93 163.47 323.25 163.33 322.67 162.83 322.05 163.34 321.97 163.76 322.37 164.13 322.32 163.9 321.63 163.53 321.23 162.7 320.93 162.7 320.64 164.05 320.6 163.77 320.27 162.81 320.23 163.11 319.66 162.84 319.43 162.01 319.25 161.32 319.49 160.09 319.32 159.48 319.7 157.76 319.35 158 318.46 157.68 318.08 156.87 317.62 156.24 317.54 155.96 317.16 156.17 316.98 155.93 316.54 155.26 316.39 155.52 316.1 155.08 315.64 154.71 314.98 156.04 315.14 156.37 315.59 156.8 315.8 157.37 315.4 156.91 314.95 156.94 314.73 158.44 314.49 159.54 313.99 159.98 313.07 159.59 312.41 159.44 311.67 160.47 311.62 162.26 312.17 163.59 311.39 164.72 311.45 165.26 311.04 165.61 310.56 166.07 310.53 166.59 309.92 166.72 309.38 167.67 308.83 167.67 308.29 166.75 307.09 166.12 305.86 164.59 304.28 163.44 303.59 161.28 302.52 160.03 301.95 157.52 301.15 157.17 301.2 157.02 301.53 154.46 302.72 153.64 303.21 153.07 302.95 153.27 302.5 153.8 301.82 153.55 301.55 152.07 302.13 149.45 303.35 149.35 303.64 150.19 304.13 150.34 304.43 150.52 306.72 149.86 307.91 149.81 308.53 149.3 309.79 149.43 310.78 149.68 311.12 150.23 311.18 150.7 311.7 152.15 312.03 153.09 312.89 153.35 313.5 152.67 313.85 152.08 313.73 151.85 313.47 151.43 313.71 151.02 314.49 149.6 314.58 149.53 314.8 150.01 315.03 150.01 315.46 150.3 316.41 150.85 316.75 150.05 317.21 148.87 316.73 149.02 317.82 149.76 318.36 150.32 318.36 150.88 318.79 151.15 318.74 151.36 319.37 151.04 319.62 152.17 320.26 152.48 320.52 153.26 320.57 154.05 321.53 153.09 322.25 152.19 322.32 152.52 323.02 151.71 322.53 151.26 322.04 151.45 321.54 151.19 321.12 150.54 320.82 150.08 320.43 149.18 320.55 149.53 321.81 149.22 322.06 149.68 322.67 150.93 323.2 150.83 324.13 151.41 324.96 150.98 325.23 150.91 325.83 150.48 325.74 150.43 325.74 150.11 325.74 149.99 325.74 149.95 325.75 149.93 325.78 149.79 325.9 149.6 326.08 149.14 326.19 149.05 326.19 148.4 325.88 147.41 325.91 147.29 326.11 146.99 326.32 146.99 326.37 146.54 325.94 146.36 325.46 145.45 325.01 144.68 324.21 144.48 323.8 143.55 323.49 142.91 323.39 141.39 321.99 140.41 321.73 140.14 321.82 139.62 321.53 138.24 320.25 136.93 319.69 135.4 319.54 134.23 319.96 133.53 320.53 132.94 320.33 132.64 320.02 132.04 319.95 131.61 319.7 131.18 318.48 130.87 318.05 129.95 317.64 129.49 317.3 128.6 317.1 128.43 316.82 127.31 316.29 126.61 314.67 126.17 314.1 125.29 313.43 125.08 313.45 124.31 312.54 121.57 310.99 119.59 310.33 117.81 310.09 116.41 310.06 115.12 309.81 113.79 310.06 112.58 310.72 111.85 311.58 111.76 312.49 112.43 312.88 111.52 312.91 110.89 312.82 108.57 312.69 108.84 312.33 109.54 312.02 111.03 309.05 113.48 303.52 114.16 301.53 114.39 300.33 114.35 299.56 114.05 299.07 113.87 298.47 112.97 298.1 113.12 297.76 113.05 296.88 112.91 296.57 111.93 295.57 111.96 295.13 111.56 294.83 110.78 293.76 111.35 293.81 112.07 294.49 112.55 294.46 112.82 293.76 112.99 292.91 112.91 292.6 112.22 291.49 111.5 291.08 111.26 290.53 110.86 290.31 110.66 289.82 110.12 289.23 108.55 288.18 107.43 287.95 106.47 288.17 106.29 288.56 106.28 289.05 105.92 289.13 105.5 288.83 104.69 287.57 104.64 287.25 105.13 286.27 105.14 284.35 104.18 282.99 103.8 281.97 103.15 281.64 102.78 280.74 102.39 280.03 101.97 279.65 101.64 279.56 101.35 279.01 100.99 278.91 100.94 278.34 100.44 277.32 99.82 276.98 99.29 276.9 99.16 276.62 97.89 275.94 97.52 275.42 95.97 274.56 95.02 274.16 94.73 273.91 93.73 273.51 93.34 273.58 92.47 273.27 92.07 272.75 91.37 272.54 90.98 272.68 89.55 271.51 89.57 271.15 88.14 270.35 87.37 270.1 86.66 269.65 86.34 269.11 84.67 268.38 84.03 267.86 84.09 267.03 83.78 266.48 83.3 265.96 82.71 265.98 82.34 265.63 81.84 265.46 81.9 264.66 81.34 264.5 80.99 264 80.11 263.27 80.17 262.97 78.71 261.46 78.65 260.88 78.14 260.48 77.86 259.91 77.47 259.83 76.67 259.36 76.85 258.93 76.14 257.96 75.25 257.4 75.05 257 74.19 256.4 73.63 256.27 72.84 255.79 72.14 255.11 71.01 254.74 70.47 254.69 69.96 254.09 69.73 254.11 69.51 253.5 69.17 253.32 69.02 252.63 68.32 252.33 68.37 251.98 67.74 251.58 66.76 251.25 66.91 251 66.03 250.32 65.42 249.96 64.64 250 64.42 249.63 64.07 249.54 63.44 248.41 62.36 247.86 61.86 247.73 61.67 247.4 60.86 246.77 60.18 246.65 59.8 245.94 59.61 245.08 59.21 244.55 57.61 243.77 57.02 242.91 55.86 242.26 55.28 241.26 54.41 240.94 53.92 240.91 53.77 240.12 54.05 239.59 53.63 239.24 53.46 238.85 52.84 238.05 53.3 237.91 53.84 238.02 54.43 237.46 55.23 236.41 56.33 234.31 56.81 233 56.67 232.7 56.86 232.23 56.84 231.81 56.56 231.4 56.8 231.22 56.62 230.17 55.88 228.97 55.88 228.58 55.23 227.07 55.46 226.71 55.05 226.23 54.83 225.48 54.52 225.13 54.68 224.72 54.59 224.21 53.95 223.9 53.3 223.81 53.06 222.65 53.15 222.02 52.59 221.65 52.46 221.3 51.93 220.99 51.35 219.78 50.55 219.57 50.42 219.26 50.66 218.99 50.27 218.19 50.68 217.91 50.15 217.34 49.98 216.73 50.08 216.24 49.61 215.04 49.23 214.95 49.35 214.49 49.18 213.71 48.94 213.41 48.41 213.58 48.03 213.01 48.19 212.64 47.95 212.16 48.18 211.88 48.68 212.06 48.59 211.26 47.59 211.14 47.26 210.71 47.26 210.41 48.24 210.34 48.26 209.94 47.87 209.69 47.72 209.11 46.93 208.67 46.98 208.35 46.18 207.6 46.69 206.65 46.73 206.3 46.51 205.84 46.74 204.24 46.63 203.07 47.06 202.91 47.16 202.21 46.91 201.71 47.65 201.47 47.12 201.24 47.07 200.14 47.77 198.36 47.99 197.92 48.15 196.85 48.67 196.44 49.56 195.1 50 194.17 50.93 191.73 50.87 191.19 50.58 190.77 50.43 190.23 49.99 189.77 50.11 189.33 49.39 188.65 49.21 188.07 49.32 187.46 49.61 187.33 49.7 186.4 49.34 186 49.52 185.84 49.39 184.99 49.48 184.68 49.39 183.42 48.89 182.86 48.96 181.77 48.78 181.08 48.07 180.38 47.69 179.47 46.41 178.9 46.03 178.51 45.87 177.93 46.12 177.82 45.85 176.95 45.37 176.24 45.44 174.39 45.24 172.88 44.79 171.9 44.73 171.21 44.48 170.39 44.15 169.89 42 169.02 41.09 168.41 40.58 168.2 39.97 167.65 39.39 166.69 39.33 166.24 38.23 164.02 36.3 163.04 36 162.61 35.7 161.86 34.73 160.68 34.35 159.93 33.12 159.11 32.31 158.13 31.8 157.77 31.15 157.04 30.01 155.98 29.09 155.41 28.42 155.13 27.75 155.09 27.17 155.25 26.56 154.52 26.53 151.88 26.04 150.92 24.66 149.55 24.22 148.96 21.93 147.98 19.54 147.37 18.64 146.91 18.21 146.88 16.12 144.52 15.18 143.99 14.43 143.37 12.74 142.71 11.59 141.76 10.34 141.24 7.88 139.42 7.36 138.58 6.16 138.07 5.42 137.57 4.59 136.75 4.67 136.44 4.57 135.57 5.28 133.84 5.33 133.35 5.79 132.59 5.38 131.28 4.83 130.74 4.67 130.4 4.43 127.91 3.79 126.51 3.37 126.05 2.4 125.41 2.15 124.92 1.54 124.24 1.48 123.32 1 123 1.08 122.6 2.01 121.14 2.91 118.98 3.05 118.21 2.75 117.81 2.79 117.38 3.08 116.72 3.9 115.68 4.57 114.41 7.23 109.15 8.33 107.36 8.53 107.22 10.35 104.25 13.51 99.94 15.08 97.28 17.12 94.51 19.08 91.52 20.51 89 22.16 85.14 23.63 80.21 24.12 77.29 23.39 76.31 23.46 76.13 23.06 75.61 22.24 75.09 21.52 74.91 21.37 75.27 20.87 75.22 21.25 74.59 20.95 74.11 20.64 74.17 20.42 73.66 20.76 73.38 20.8 72.61 20.33 71.69 20.24 70.93 20.4 70.71 20.45 69.91 19.96 69.3 20.31 69.06 20.07 68.61 20.49 68.27 21.18 68.44 21.64 68.14 23.28 64.65 24.49 61.54 24.36 60.98 24.54 60.69 25.64 57.04 26.67 52.42 27.19 50.27 27.9 45.25 27.66 44.34 27.67 42.86 27.14 41.18 26.95 41 26.91 40.42 26.48 39.68 26.43 36.85 25.63 36.39 24.95 35.18 24.93 34.46 25.24 33.94 24.64 33.23 24.96 32.6 23.92 31.49 23.79 30.55 23.52 30.17 23.47 29.66 22.9 28.85 22.28 28.34 22.3 27.95 21.98 27.23 22.06 26.67 21.72 26.05 21.78 25.27 21.66 24.31 21.36 23.63 20.82 22.79 20.01 21.91 19 21.46 17.97 22.23 17.66 22.17 17.22 21.53 15.98 21.02 15.5 20.45 13.99 19.44 13.49 19.48 13.01 18.96 13.01 18.42 13.44 18.25 14.35 16.94 14.89 15.81 15.75 13.66 16.62 10.42 16.91 8.06 17.01 6.32 16.9 5.9 16.48 5.55 16.84 4.38 16.89 3.02 16.59 2.57 16.37 1.86 25.01 1.99 33.32 2.04 39.63 2.05 45.65 2.04 46.62 2.08 47.48 2.11 53.9 1.96 59.41 2.12 62.05 1.75 66.63 1.68 75.81 1.69 83.46 1.79 96.16 1.29 99.12 1.06 100.43 1.09 104.15 1.34 105.56 1.36 107.02 1.5 112.92 1.46 117.2 1.46 120.11 1.43 132.07 1.42 139.53 1.34 144.06 1.19 148.07 1.11 155.73 1.09 158.69 1 167.79 1.15 175.3 1.17 176.81 1.23 184.33 1.32 185.39 1.37 188.38 1.43 191.37 1.47 192.75 1.44 199.71 1.52 206.96 1.62 222.16 1.84 228.23 1.9 238.94 2.03 242.69 1.94 251.08 1.94 252.64 1.96 257.08 2.07 260.2 2.12 264.23 2.25 267.72 2.28 271.36 2.23 281.39 2.21 284.47 2.23 288.95 2.22 291.95 2.26 298.06 2.28 305.47 2.23 318.01 2.31 318.06 2.27 323.44 2.28 324.73 2.24 329.46 2.16 337.8 2.13 343.41 2.13 343.41 11.45 343.49 21.15 343.46 23.43 343.44 30.86 343.49 31.33 343.43 38.78 343.4 40.56 343.37 50.29 343.35 59.98 343.37 61.05 343.37 65.09 343.35 72.93 343.36 79.38 343.41 89.35 343.46 95.2 343.45 96.93 343.6 108.32 343.67 112.72 343.7 122.98 343.69 127.83 343.62 132.31 343.64 137.96 343.59 142.55 343.59 145.94 343.56 149.25 343.57 151.59 343.53 157.02 343.43 164.45 343.42 166.73 343.36 169.62 343.31 174.47 343.27 176.25 343.28 181.81 343.27 185.29 343.29 187.54 343.2 192.05 343.22 193.69 343.13 198.5 343.06 200.1 342.88 205.61 342.85 213.47 342.91 215.69 342.92 217.72 343 220.1 343.06 224.95 343.28 234.69 350.78 239.83 356.4 243.68 367.01 251.01 371.43 254.07 372.4 254.77 375.37 256.8 378.09 258.69 381.28 260.88 382.1 261.49 385.76 263.97 391.8 268.29 392.24 268.55 395.37 270.68 396.75 271.66 402.36 275.6 406.73 278.65 411.21 281.77 413.45 283.34 414.6 284.24 418.64 287.03 420.92 288.71 424.9 291.41 427.01 292.89 430.63 295.49 431.83 296.32 438.71 301.28 440.67 302.59 443.18 304.36 450.03 309.36 450.37 309.62 454.23 312.3 459.74 316.25 460.12 316.55 469.45 323.26 469.71 323.47 479.15 330.26 484.82 334.37 488.86 337.29 494.58 341.41 495.72 342.3 499.65 345.13 500.22 345.51 506.04 349.88 508.27 351.32 517.97 358.6 520.96 360.82 523.44 362.5 527.01 365.2 531.13 368.27 534.28 370.53 537.38 372.83 537.44 372.82 547.28 380.23 547.45 380.33 555.62 386.44 557.26 387.58 564.53 393.05 566.5 394.5 569.55 396.82 573.32 399.64 576.2 401.75 586.03 409.18 595.61 416.45 602.91 421.99 611.62 428.6 615.02 431.22 615.99 431.92 624.38 438.46 624.97 438.85 634.44 446.07 643.88 453.35 651.14 458.96 659.98 465.83 665.87 470.39 672.68 475.71 677.53 479.49 681.21 482.38 685.93 486.08 694 492.42 699.09 496.42 705.96 501.85 709.5 504.66 711.38 506.11 714.51 508.63 718.75 511.99 719.04 512.29 723.45 515.83 725.03 516.99 726.29 518.05 731.96 522.5 732.76 523.16 739.67 528.64 742.89 531.29 744.3 532.35 749.14 536.23 752.39 538.89 759.96 545.03 Z M 155.44 322.9 155.48 323.15 155.56 323.68 155.57 323.74 154.63 323.52 154.34 323.67 153.71 323.46 153.43 323.08 154.24 322.64 154.62 322.21 155.21 322.42 155.44 322.9 Z M 158.75 325.45 159.45 325.39 159.9 326.06 159.79 326.35 160.22 326.71 160.04 327.2 159.57 327.24 159.13 326.96 159.25 326.68 158.66 325.73 158.75 325.45 Z M 109.36 335.56 110.17 335.24 110.54 335.78 110.22 336.15 109.45 335.85 109.36 335.56 Z M 417.34 662.92 418.01 663.03 418.63 662.57 418.87 663.46 418.6 663.66 418.58 664.11 418 664.33 417.66 663.95 417.65 663.45 417.34 662.92 Z M 386.68 621.79 387.31 621.61 388.28 621.68 388.93 622.15 390.23 622.39 390.77 622.3 391.24 621.97 391.55 622.1 390.65 622.62 389.98 622.58 388.79 622.36 388.21 622.42 388.02 622.25 387.02 622.06 386.68 621.79 Z M 376.18 678.86 377.35 679.43 378.11 678.96 379.94 678.33 380.58 678.74 381.78 679.32 382.28 679.79 383.01 679.85 385.23 680.56 385.83 681.13 386.56 681.69 387.24 682.52 387.27 682.86 386.92 683.4 386.25 683.42 385.48 683.71 384.48 683.81 383.6 683.53 382.87 683.42 382.32 683.49 382 683.28 381.17 683.17 380.61 682.73 379.78 682.51 378.59 682.43 377.49 681.56 377.05 681.3 376.95 680.71 376.34 680.45 376.44 679.95 376.05 678.89 376.18 678.86 Z M 348.8 618.21 349.41 618.15 349.61 617.78 349.31 617.46 349.63 616.85 350.12 616.83 351.81 617.19 352.37 617.06 354.43 617.31 356.87 618.2 357.43 618.73 358.28 618.8 359.19 618.42 359.67 618.4 361.16 618.57 362.03 618.28 362.37 618.67 362.93 618.72 363.97 619.27 364.59 619.13 365.67 619.49 366.6 620.23 367.18 620.57 367.69 621.31 368.7 621.33 369.11 621.55 370.18 621.3 370.42 621.63 371.07 621.56 371.48 621.82 372.91 621.57 373.46 621.2 374.08 620.4 373.69 619.95 374.8 619 375.63 618.68 375.98 618.91 377.33 618.55 377.77 618.8 377.82 619.06 378.58 619.38 379.04 619.37 379.88 619.65 380.57 620.19 380.04 620.79 379.16 620.98 378.76 621.46 378.87 621.68 378.43 622.08 378.52 622.42 377.95 623.02 377.48 623.19 376.3 623.16 375.17 623.64 374.65 623.73 372.93 623.84 372.77 623.7 371.79 623.84 370.71 623.79 369.53 623.94 368.6 624.52 367.41 625 366.78 625.12 366.6 625.43 366.15 625.32 365.69 625.53 365.51 625.84 365 625.98 364.46 625.81 363.31 625.65 362.73 625.66 362.13 626.01 361.2 625.78 359.68 626.01 359.39 625.73 358.58 625.64 357.47 625.96 357.34 625.69 356.46 625.28 355.59 625.16 355.13 625.36 353.79 624.46 353.19 624.37 352.56 623.44 352.13 622.18 352.48 621.94 352.91 621.02 352.96 620.35 352.53 620.01 352.19 619.97 352.11 619.57 349.86 618.32 349.4 618.43 348.8 618.21 Z M 323.98 622.65 324.3 622.65 324.93 622.13 326.17 622.04 327.17 622.41 328.15 622.51 329.09 622.25 329.62 622.36 330.37 622.21 331.58 621.44 331.89 620.92 332.81 620.82 334.42 621.3 336.35 621.31 337.64 620.95 337.88 620.59 338.21 620.59 338.54 620.21 339.08 619.92 340 620.07 339.84 620.39 340 620.71 339.64 621.2 339.44 621.81 339.7 622.35 339.74 622.85 340.15 623.27 341.35 623.92 342.27 624.13 342.35 624.32 343.06 624.43 344.57 624.09 344.98 624.31 344.91 625.2 345.15 626.21 345.6 626.7 345.4 627.31 343.28 627.38 341.98 627.79 341.13 628.45 340.31 628.7 339.72 629.09 339.5 629.48 338.95 629.59 337.66 629.67 337.32 629.92 336.31 629.89 335.7 630 335.16 630.28 334.8 630.95 334.36 631.05 333.9 630.94 330.95 629.37 330.53 629.34 329.95 628.84 329.35 628.66 329.45 628.44 328.62 626.91 327.94 626.56 327.82 626.19 327.1 624.99 326.33 624.47 326.11 623.81 325.48 623.53 324.77 623.38 324.78 623.12 323.98 622.65 Z M 308.41 620.19 308.49 619.95 309.17 619.98 310.05 619.15 311.11 618.58 312.02 618.93 312.6 618.95 313.01 618.81 314.3 617.98 314.85 617.35 315.23 617.17 315.79 618.25 315.38 618.51 315.51 618.95 315.96 619.18 316.42 619.23 317.64 619.03 318.59 619.59 319.49 620.55 319.5 621.11 318.74 621.38 317.34 621.23 315.89 621.37 315.57 621.68 314.89 621.62 314.23 621.39 313.61 620.95 312.95 620.83 311.57 620.35 311.12 620.34 310.82 620.6 310.17 620.87 309.54 620.57 308.1 620.67 308.41 620.19 Z M 451.71 663.33 452.14 663.38 453.14 663.7 454.35 663.58 456.36 663.67 456.81 663.45 457.43 664.14 457.89 664.28 458.06 664.61 458.99 665.13 459.59 665.29 459.8 665.58 459.79 666.06 460.31 666.12 461.19 665.68 461.55 665.67 461.87 666.1 462.12 666.09 463.33 666.79 463.73 666.89 464.02 667.18 465.75 667.31 466.87 667.78 467.08 667.76 467.95 668.17 468.28 668.03 468.97 668.66 469.88 668.71 470.12 669.34 469.89 669.74 470.05 670.24 470.29 670.33 471.36 671.45 472.82 672.67 473.08 673.2 473.44 673.41 474.55 674.49 474.74 675.37 474.92 675.57 474.95 676.39 474.41 676.68 474.04 677.1 473.38 677.26 471.98 676.79 471.14 676.18 469.54 675.64 468.78 675.56 468.12 675.67 466.91 675.52 465.69 675.81 464.75 675.63 464.39 675.75 463.21 675.5 462.5 675.17 461.82 674.54 460.79 673.24 460.62 672.5 460.81 672.09 461.16 671.77 461.28 671.3 461.17 670.96 461.73 670.73 461.29 670.28 461.19 669.73 460.93 669.34 460.69 667.89 459.96 667.76 458.9 667.13 458.72 667.6 458.01 667.04 457.2 667.16 456.91 666.74 456.28 666.78 455.73 666.66 455.53 666.84 454.89 666.76 454.7 666.52 453.96 666.31 454.12 666.04 453.65 665.6 452.83 664.65 451.96 664.01 451.71 663.33 Z M 451.23 697.93 452.14 697.66 452.53 698.11 453.61 697.81 454.5 698.55 454.5 698.92 454.94 699.95 455.28 699.95 455.72 700.26 455.94 701.3 456.47 701.98 457 702.24 457.16 702.66 457.91 703.25 458.32 703.7 458.39 704.04 459.85 705.64 460.72 706.41 462.07 707.01 462.64 707.49 463.15 708.18 465.76 710.13 467.78 711.55 468.62 712.27 469.63 712.98 471.13 714.39 470.61 714.69 470.09 714.39 469.3 714.27 468.89 714.08 468.21 713.97 467.1 714.38 466.9 715 465.81 715.29 465.11 715.9 464.52 714.8 464.16 714.71 463.62 714.3 463.33 714.38 462.3 713.51 461.72 713.29 461.55 712.88 460.17 712.43 460.13 712.15 459.33 711.9 459.42 711.58 459.23 711.08 458.8 710.66 458.86 709.87 457.87 709.29 457.44 708.64 457.03 707.76 456.54 707.72 456.16 707.32 456.18 706.82 455.77 706.75 455.97 706.37 455.82 705.87 455.51 705.59 455.43 704.6 455.05 704.23 454.81 703.71 454.06 703.21 453.57 702.48 453.46 701.44 453.23 701.27 452.56 699.52 451.94 699.16 451.25 699.26 451.23 697.93 Z" fill-rule="evenodd" fill="none" stroke="currentColor" stroke-width="1"/>
</g>
</svg>