<svg viewBox="-125.43742900000001 -43.03732298266326 12.334056000000018 11.530725982663263" xmlns="http://www.w3.org/2000/svg">
  <path d="M -114.634091,35.002338 L -114.731561,35.081386 L -114.773443,35.115678 L -114.835711,35.165559 L -114.853932,35.179247 L -114.895389,35.213328 L -114.984368,35.283975 L -114.994666,35.292511 L -115.067699,35.349736 L -115.084002,35.363394 L -115.104325,35.378387 L -115.161057,35.423958 L -115.164904,35.427867 L -115.21951,35.471103 L -115.25972,35.503541 L -115.283996,35.52222 L -115.329567,35.558509 L -115.418086,35.628389 L -115.483642,35.679897 L -115.587527,35.76163 L -115.648357,35.809211 L -115.695733,35.846481 L -115.758219,35.895161 L -115.845994,35.963707 L -115.921842,36.022349 L -116.035692,36.11087 L -116.129137,36.183176 L -116.250818,36.276939 L -116.372799,36.369924 L -116.380347,36.374961 L -116.48840077158796,36.45921804383838 L -116.500882,36.468223 L -116.544647,36.501971 L -116.656883,36.587088 L -116.750926,36.658377 L -116.874254,36.752081 L -117.000895,36.847694 L -117.037976,36.874943 L -117.0866,36.911314 L -117.125899,36.941186 L -117.151197,36.959868 L -117.244917,37.030244 L -117.266046,37.04491 L -117.371219,37.123614 L -117.373451,37.124932 L -117.500117,37.22038 L -117.500909,37.220282 L -117.540885,37.249931 L -117.581418,37.278936 L -117.634468,37.318526 L -117.680454,37.353283 L -117.712358,37.374931 L -117.750927,37.403598 L -117.875927,37.497267 L -117.904625,37.515836 L -117.979542,37.572141 L -117.986954,37.57702 L -118.037481,37.613538 L -118.052189,37.62493 L -118.125849,37.677986 L -118.177906,37.715635 L -118.250956,37.768622 L -118.372572,37.856012 L -118.375936,37.858663 L -118.496043,37.945146 L -118.500964,37.949023 L -118.571958,37.99993 L -118.621676,38.034438 L -118.625963,38.03774 L -118.714201,38.102105 L -118.746598,38.124926 L -118.771867,38.141871 L -118.86045,38.205773 L -118.875873,38.216456 L -118.922518,38.249919 L -118.94971,38.268965 L -119.000975,38.303675 L -119.030299,38.325334 L -119.082358,38.361267 L -119.097159,38.372851 L -119.125982,38.39317 L -119.183657,38.433268 L -119.239985,38.472629 L -119.312266,38.523286 L -119.330052,38.535961 L -119.37029135486173,38.563385191641046 L -119.375994,38.566793 L -119.453783,38.622405 L -119.501,38.654374 L -119.511529,38.662222 L -119.552579,38.690353 L -119.587647,38.714727 L -119.625863,38.740845 L -119.638339,38.749904 L -119.695346,38.789305 L -119.83202525174619,38.883754486132915 L -119.904315,38.933324 L -120.001014,38.999574 L -120.003741,39.12491 L -120.00453,39.187445 L -120.005541,39.218029 L -120.00568598191158,39.24424229134399 L -120.006473,39.272878 L -120.006127,39.374106 L -120.00377409000082,39.44505601168454 L -120.002903,39.465635 L -120.001789,39.527642 L -120.001947,39.548724 L -120.00082,39.606828 L -120.00114,39.635795 L -120.000959,39.680613 L -120.001133,39.752229 L -120.000548,39.775223 L -119.999941,39.83758 L -119.999174,39.874913 L -119.999084,39.904257 L -119.997706,39.999905 L -119.99722,40.069812 L -119.997352,40.099991 L -119.997002,40.142579 L -119.997006,40.186235 L -119.996284,40.245463 L -119.996536,40.318131 L -119.995705,40.37583 L -119.995598,40.438366 L -119.995976,40.57055 L -119.99684760052249,40.62721651439949 L -119.998785,40.77385 L -119.998672,40.796119 L -119.999281,40.871466 L -119.999875,40.999894 L -120.000039,41.082999 L -119.999866,41.183974 L -119.99976,41.236061 L -120.000073,41.249758 L -119.999757,41.37465 L -119.999471,41.499894 L -119.999043,41.522864 L -119.998287,41.618818 L -119.998861,41.624937 L -119.998698,41.720632 L -119.998295,41.749915 L -119.999276,41.874895 L -119.999234,41.994944 L -120.071546,41.994923 L -120.178921,41.994557 L -120.23986,41.993503 L -120.256499,41.992953 L -120.325751,41.993143 L -120.326387,41.992586 L -120.487934,41.993613 L -120.583377,41.992971 L -120.662123,41.993212 L -120.70076522701744,41.99382136751593 L -120.758388,41.993653 L -120.798117,41.993951 L -120.927323,41.993635 L -120.974135,41.992988 L -121.019095,41.993386 L -121.071069,41.995102 L -121.111242,41.995672 L -121.168477,41.997178 L -121.188565,41.997384 L -121.29653,41.997365 L -121.344911,41.996214 L -121.48278,41.997895 L -121.561022,41.998701 L -121.756783,42.001475 L -121.85013910564689,42.00281808287782 L -121.939829,42.003808 L -121.957531,42.003485 L -121.996127,42.003887 L -122.034563,42.004696 L -122.048217,42.00539 L -122.145113,42.00657 L -122.164571,42.007306 L -122.261344,42.007617 L -122.37850991423505,42.00948498266326 L -122.416638,42.00838 L -122.515301,42.008052 L -122.566993,42.007058 L -122.625315,42.005143 L -122.721386,42.004123 L -122.87539867446883,42.00396149303431 L -122.912952,42.003556 L -122.967979,42.003524 L -123.043997,42.003084 L -123.062882,42.00482 L -123.080938,42.005064 L -123.128935,42.008372 L -123.145735,42.008761 L -123.183923,42.005789 L -123.347451,41.999277 L -123.44597,42.000626 L -123.564204,42.000706 L -123.62323,41.999782 L -123.657212,41.995094 L -123.728169,41.997056 L -123.810908,41.995164 L -123.82203801667119,41.99558290825812 L -123.834485,41.99605 L -123.912055,41.995948 L -123.993252,41.996028 L -124.100376,41.996712 L -124.211605,41.99846 L -124.208764,41.989245 L -124.204948,41.983441 L -124.205606,41.965919 L -124.210149,41.950899 L -124.204779,41.946404 L -124.203402,41.940964 L -124.204646,41.918504 L -124.208439,41.888192 L -124.219592,41.846432 L -124.230678,41.818681 L -124.237626,41.804152 L -124.249415,41.787265 L -124.254838,41.785088 L -124.254954,41.77817 L -124.248704,41.771459 L -124.242288,41.772034 L -124.222873,41.758922 L -124.216624,41.751682 L -124.200664,41.745094 L -124.194953,41.736778 L -124.19104,41.736079 L -124.177777,41.745923 L -124.164716,41.740126 L -124.154246,41.728801 L -124.147412,41.717955 L -124.143479,41.709284 L -124.141958,41.696929 L -124.142673,41.686776 L -124.138373,41.678881 L -124.139354,41.671652 L -124.135302,41.662303 L -124.135552,41.657307 L -124.127457,41.650825 L -124.120225,41.640354 L -124.119516,41.633834 L -124.116037,41.628849 L -124.114413,41.616768 L -124.100961,41.602499 L -124.1051,41.594315 L -124.097385,41.585251 L -124.101403,41.578524 L -124.101123,41.569192 L -124.092404,41.553615 L -124.081987,41.547761 L -124.081427,41.511228 L -124.075917,41.501757 L -124.075393,41.494247 L -124.072853,41.491971 L -124.066057,41.470258 L -124.066188,41.451241 L -124.063076,41.439579 L -124.072294,41.374844 L -124.079015,41.347135 L -124.092284,41.287695 L -124.106389,41.240682 L -124.108693,41.236929 L -124.106986,41.229678 L -124.122677,41.189726 L -124.1438,41.144686 L -124.149674,41.140845 L -124.158539,41.143021 L -124.163988,41.138675 L -124.160933,41.132832 L -124.165414,41.129822 L -124.159065,41.121957 L -124.159735,41.111649 L -124.161816,41.108747 L -124.160556,41.099011 L -124.154513,41.087159 L -124.155124,41.077274 L -124.159456,41.073595 L -124.156615,41.067049 L -124.152639,41.067767 L -124.148739,41.061605 L -124.153622,41.05355 L -124.147216,41.052884 L -124.145288,41.057557 L -124.136056,41.055237 L -124.125448,41.048504 L -124.120296,41.041847 L -124.121236,41.039535 L -124.111756,41.026883 L -124.118147,40.989263 L -124.137066,40.925732 L -124.158322,40.876069 L -124.176715,40.843618 L -124.201921,40.805111 L -124.228244,40.76939 L -124.248406,40.735166 L -124.289119,40.67963 L -124.312558,40.641333 L -124.315141,40.639526 L -124.329404,40.61643 L -124.363545,40.548698 L -124.372285,40.532333 L -124.382816,40.519 L -124.386533,40.510467 L -124.387023,40.504954 L -124.383224,40.499852 L -124.38494,40.48982 L -124.396642,40.462119 L -124.408601,40.443201 L -124.409591,40.438076 L -124.403408,40.433985 L -124.402623,40.422105 L -124.394814,40.413363 L -124.391496,40.407047 L -124.379082,40.398828 L -124.373599,40.392923 L -124.365357,40.374855 L -124.362312,40.342793 L -124.360215,40.338355 L -124.353124,40.331425 L -124.347853,40.314634 L -124.353795,40.304793 L -124.354489,40.298481 L -124.363634,40.276212 L -124.362367,40.264986 L -124.363414,40.260974 L -124.352715,40.250453 L -124.34307,40.243979 L -124.327691,40.23737 L -124.320912,40.226617 L -124.289306,40.203163 L -124.273136,40.196454 L -124.258405,40.184277 L -124.236557,40.175693 L -124.227006,40.167785 L -124.214895,40.160902 L -124.187874,40.130542 L -124.182364,40.130084 L -124.170767,40.124207 L -124.139952,40.11635 L -124.110549,40.103765 L -124.104793,40.096148 L -124.087086,40.078442 L -124.080709,40.06611 L -124.0804,40.032061 L -124.072509,40.022657 L -124.065069,40.024785 L -124.056408,40.024305 L -124.047839,40.020608 L -124.035904,40.013319 L -124.021277,39.999607 L -124.012912,39.990198 L -124.006317,39.985562 L -123.99586,39.973045 L -123.980031,39.962458 L -123.97509,39.952825 L -123.962655,39.937635 L -123.958847,39.927956 L -123.954952,39.922373 L -123.930047,39.909697 L -123.915853,39.881114 L -123.915142,39.875313 L -123.907664,39.863028 L -123.899739,39.855886 L -123.893268,39.853275 L -123.881458,39.845422 L -123.853764,39.8341 L -123.849605,39.827671 L -123.846397,39.817196 L -123.845529,39.808267 L -123.839797,39.795637 L -123.83715,39.776232 L -123.838089,39.752409 L -123.831866,39.743169 L -123.828461,39.732048 L -123.831599,39.730629 L -123.829545,39.723071 L -123.824744,39.718128 L -123.808208,39.710715 L -123.80335,39.698997 L -123.794235,39.689995 L -123.791891,39.681173 L -123.792812,39.667073 L -123.78636,39.659932 L -123.785222,39.643692 L -123.786311,39.639608 L -123.784625,39.628739 L -123.786993,39.626589 L -123.782322,39.621486 L -123.78354,39.609517 L -123.787268,39.607847 L -123.78863,39.599975 L -123.786357,39.592515 L -123.777072,39.583793 L -123.778613,39.57814 L -123.772938,39.572166 L -123.770991,39.565209 L -123.76721,39.559852 L -123.766475,39.552803 L -123.778521,39.521478 L -123.78417,39.509419 L -123.795639,39.492215 L -123.802315,39.486883 L -123.804384,39.473084 L -123.807249,39.467432 L -123.816138,39.444573 L -123.815604,39.430381 L -123.808733,39.427406 L -123.81823,39.424339 L -123.814992,39.417851 L -123.816369,39.408846 L -123.821887,39.406809 L -123.820497,39.391682 L -123.823446,39.371159 L -123.820617,39.365141 L -123.821093,39.36073 L -123.827716,39.348433 L -123.817369,39.3388 L -123.818017,39.334703 L -123.807783,39.328931 L -123.805881,39.321577 L -123.80089,39.318267 L -123.801128,39.313119 L -123.813725,39.312199 L -123.813725,39.308337 L -123.80953,39.302791 L -123.796612,39.301348 L -123.795423,39.291048 L -123.801841,39.293255 L -123.804819,39.289664 L -123.801757,39.28353 L -123.803848,39.278771 L -123.798991,39.271355 L -123.792096,39.273571 L -123.789006,39.269707 L -123.786864,39.259659 L -123.788338,39.253708 L -123.783481,39.252655 L -123.777368,39.237214 L -123.778696,39.230783 L -123.776581,39.222959 L -123.769754,39.215588 L -123.774998,39.212083 L -123.769915,39.201798 L -123.773007,39.198283 L -123.771418,39.194224 L -123.76101,39.191595 L -123.753642,39.17596 L -123.746754,39.171978 L -123.745133,39.167447 L -123.737927,39.162712 L -123.73907,39.154626 L -123.735936,39.139644 L -123.727536,39.138434 L -123.719366,39.134516 L -123.718177,39.127879 L -123.720231,39.122672 L -123.716304,39.118171 L -123.713392,39.108422 L -123.708073,39.102335 L -123.711047,39.097635 L -123.702722,39.078167 L -123.70275,39.073223 L -123.693175,39.057701 L -123.690829,39.044249 L -123.69394,39.041891 L -123.690369,39.036553 L -123.690095,39.031157 L -123.692589,39.025207 L -123.69074,39.021293 L -123.6969,39.004401 L -123.711149,38.977316 L -123.721347,38.963879 L -123.729053,38.956667 L -123.736003,38.958048 L -123.741921,38.956228 L -123.733833,38.945935 L -123.731769,38.94092 L -123.726315,38.936367 L -123.729945,38.929613 L -123.727976,38.919429 L -123.721655,38.919012 L -123.710395,38.914878 L -123.70298,38.902039 L -123.688099,38.893594 L -123.680427,38.882561 L -123.659846,38.872529 L -123.654696,38.865638 L -123.652212,38.854582 L -123.647387,38.845472 L -123.638637,38.843865 L -123.628109,38.835762 L -123.625656,38.831591 L -123.619309,38.829946 L -123.605317,38.822765 L -123.597198,38.808184 L -123.592682,38.807073 L -123.589919,38.802307 L -123.579856,38.802835 L -123.571987,38.798189 L -123.560645,38.789431 L -123.56254,38.786196 L -123.550023,38.78196 L -123.541837,38.776764 L -123.542481,38.772324 L -123.533535,38.768408 L -123.531593,38.759506 L -123.52716,38.757197 L -123.524373,38.749346 L -123.521419,38.749691 L -123.514784,38.741966 L -123.507908,38.741259 L -123.493292,38.736512 L -123.484281,38.727683 L -123.474067,38.72161 L -123.466865,38.719931 L -123.455798,38.712145 L -123.453177,38.707056 L -123.441774,38.699744 L -123.432636,38.687314 L -123.434968,38.681793 L -123.424674,38.675683 L -123.419657,38.674677 L -123.41605,38.667332 L -123.409424,38.662161 L -123.408659,38.654717 L -123.389894,38.63523 L -123.390655,38.631459 L -123.379303,38.621953 L -123.374862,38.615503 L -123.3676,38.613447 L -123.368313,38.603232 L -123.361884,38.601023 L -123.357142,38.596545 L -123.349612,38.596805 L -123.343338,38.590008 L -123.339361040679,38.5829767961683 L -123.340106,38.572228 L -123.331899,38.565542 L -123.310398,38.556184 L -123.306308,38.549274 L -123.297151,38.543452 L -123.287156,38.540223 L -123.268747,38.529887 L -123.269016,38.525206 L -123.250685,38.510189 L -123.24567,38.511974 L -123.236637,38.509256 L -123.231382,38.502572 L -123.220297,38.498618 L -123.215247,38.499512 L -123.202277,38.494314 L -123.198609,38.491141 L -123.186366,38.485936 L -123.166428,38.474947 L -123.161587,38.468219 L -123.145325,38.459422 L -123.143608,38.455887 L -123.136797,38.454768 L -123.128825,38.450418 L -123.122379,38.437314 L -123.12175,38.430006 L -123.117028,38.42869 L -123.113377,38.421534 L -123.109026,38.42042 L -123.103706,38.415541 L -123.098607,38.406357 L -123.09391,38.394829 L -123.085572,38.390525 L -123.080642,38.377382 L -123.068265,38.359865 L -123.068437,38.33521 L -123.074684,38.322574 L -123.074032,38.318396 L -123.063671,38.302178 L -123.058239,38.298355 L -123.053504,38.299385 L -123.053476,38.305722 L -123.051061,38.310693 L -123.038742,38.313576 L -123.024333,38.310573 L -123.004122,38.297012 L -122.997106,38.289458 L -122.994603,38.283096 L -122.989451,38.280244 L -122.986319,38.273164 L -122.977082,38.267902 L -122.968142,38.253655 L -122.967126,38.249585 L -122.969314,38.238683 L -122.972776,38.229645 L -122.978993,38.229291 L -122.988222304398,38.2380109880126 L -122.995631,38.238626 L -122.985511,38.224876 L -122.980425,38.220984 L -122.980733,38.21534 L -122.968112,38.202428 L -122.96637,38.198514 L -122.965408,38.187113 L -122.967349,38.182764 L -122.955842,38.178014 L -122.953537,38.170284 L -122.949626,38.164041 L -122.949074,38.15406 L -122.952086,38.138562 L -122.960889,38.112962 L -122.99242,38.041758 L -123.011533,38.003438 L -123.020562,37.999544 L -123.024066,37.994878 L -122.994223,37.993175 L -122.986011,37.992078 L -122.97439,37.992429 L -122.983034,37.997406 L -122.981776,38.009119 L -122.972378,38.020247 L -122.956811,38.02872 L -122.939711,38.031908 L -122.923139,38.028679 L -122.905106,38.028384 L -122.882114,38.025273 L -122.856573,38.016717 L -122.821383,37.996735 L -122.811471,37.985117 L -122.808777,37.985359 L -122.797405,37.976657 L -122.791739,37.969422 L -122.78267,37.948504 L -122.768235,37.941675 L -122.766138,37.938004 L -122.754606,37.935527 L -122.748746,37.931081 L -122.736898,37.925825 L -122.732898,37.920225 L -122.727297,37.904626 L -122.721767,37.901347 L -122.714023,37.900468 L -122.710229,37.896425 L -122.70264,37.89382 L -122.693569,37.901171 L -122.678474,37.906604 L -122.658823,37.904738 L -122.641963,37.897507 L -122.624093,37.88105 L -122.617442,37.877235 L -122.613942,37.878434 L -122.60129,37.875126 L -122.58182,37.857041 L -122.573527,37.855734 L -122.561487,37.851827 L -122.558994,37.846527 L -122.548986,37.836227 L -122.537285,37.830328 L -122.534976,37.824218 L -122.52918636816528,37.81870326522416 L -122.52923222777926,37.819283798166865 L -122.52539878871201,37.82202244380125 L -122.52374929515909,37.82457102355096 L -122.511094,37.825015 L -122.5026879723762,37.82102199480819 L -122.50153449741211,37.820974257652686 L -122.49553402644774,37.82242752500063 L -122.49310210178633,37.8246900888282 L -122.49139529091329,37.82631172800016 L -122.4910463540282,37.82664325255883 L -122.49057726995099,37.82674894671036 L -122.48901531400203,37.82674433484204 L -122.4849415540113,37.826732306561304 L -122.4842221317316,37.82673018237795 L -122.478735,37.825586 L -122.477778,37.833385 L -122.47226,37.836808 L -122.479743,37.847571 L -122.47844,37.859517 L -122.494602,37.866272 L -122.500544,37.874152 L -122.496503,37.877342 L -122.501019,37.893662 L -122.489373,37.895162 L -122.483431,37.890098 L -122.475112,37.886346 L -122.471785,37.880906 L -122.474266,37.874429 L -122.468457,37.868148 L -122.457999,37.861769 L -122.462278,37.870775 L -122.450631,37.871713 L -122.438268,37.880974 L -122.448413,37.89341 L -122.458558,37.894064 L -122.462515,37.897413 L -122.477014,37.905665 L -122.472973,37.908853 L -122.475588,37.916916 L -122.479153,37.916354 L -122.486375,37.921881 L -122.493574,37.921881 L -122.503064,37.928753 L -122.50506,37.942788 L -122.489848,37.936602 L -122.479512,37.942526 L -122.486521,37.946911 L -122.490302,37.959188 L -122.490302,37.964751 L -122.496503,37.967713 L -122.495553,37.970523 L -122.477251,37.971648 L -122.471975,37.981768 L -122.466556,37.984762 L -122.463709,37.981483 L -122.456098,37.979891 L -122.447304,37.984387 L -122.450699,37.992231 L -122.462812,38.003367 L -122.481466,38.007621 L -122.487472,38.014355 L -122.494556,38.015148 L -122.497828,38.019402 L -122.499465,38.032165 L -122.492938,38.048428 L -122.492265,38.056381 L -122.483757,38.071762 L -122.486046,38.101191 L -122.487947,38.105118 L -122.49877711298022,38.11136961989145 L -122.497522,38.115134 L -122.463822,38.130823 L -122.44478,38.138345 L -122.44145,38.134853 L -122.448366,38.126121 L -122.450928,38.120344 L -122.443499,38.116985 L -122.432997,38.1233 L -122.400006,38.138588 L -122.39812845889621,38.14279949469229 L -122.393588,38.143449 L -122.361264,38.133167 L -122.345102,38.125875 L -122.317293,38.112038 L -122.302557,38.103248 L -122.282824,38.082889 L -122.274748,38.066955 L -122.262861,38.051473 L -122.262861,38.0446 L -122.275152,38.03744 L -122.276816,38.030513 L -122.283478,38.022674 L -122.289413,38.022275 L -122.293929,38.016096 L -122.300823,38.010893 L -122.315439,38.011615 L -122.332552,38.001502 L -122.355539,38.008668 L -122.368891,38.007948 L -122.366928,37.998458 L -122.361905,37.989991 L -122.367582,37.978168 L -122.381752,37.971717 L -122.401004,37.968532 L -122.40148,37.965721 L -122.395538,37.959912 L -122.402906,37.954852 L -122.408383,37.957544 L -122.41265,37.963285 L -122.42976,37.965405 L -122.42501,37.956913 L -122.419306,37.950916 L -122.422633,37.947168 L -122.414077,37.945293 L -122.410987,37.93967 L -122.413725,37.937262 L -122.410036,37.932359 L -122.401955,37.931422 L -122.391497,37.925423 L -122.387456,37.920548 L -122.390546,37.90911 L -122.36829,37.904621 L -122.360437,37.90953 L -122.344674,37.907235 L -122.335693,37.910307 L -122.325112,37.908074 L -122.321645,37.905089 L -122.32542,37.897778 L -122.31314036679997,37.897281899474265 L -122.309497,37.892981 L -122.326912,37.892492 L -122.326912,37.888712 L -122.316153,37.884915 L -122.311445,37.879775 L -122.308502,37.87088 L -122.313164,37.870151 L -122.318663,37.875307 L -122.325193,37.874276 L -122.318722,37.866377 L -122.316944,37.858809 L -122.308352,37.862934 L -122.301372,37.855493 L -122.301134,37.846297 L -122.299233,37.840479 L -122.314195,37.842311 L -122.315913,37.836812 L -122.298044,37.836349 L -122.296618,37.828465 L -122.306125,37.826024 L -122.316108,37.827338 L -122.330369,37.82058 L -122.319198,37.819078 L -122.317296,37.816261 L -122.322785,37.810132 L -122.333018,37.810803 L -122.342253,37.805558 L -122.334168,37.801272 L -122.33094,37.795137 L -122.33161548207245,37.787069391880635 L -122.32802471678858,37.78137284674398 L -122.317767,37.77968 L -122.315387,37.776597 L -122.30643,37.776107 L -122.29987,37.772342 L -122.288775,37.768742 L -122.289012,37.764608 L -122.28307,37.763857 L -122.279401,37.768134 L -122.271905,37.761508 L -122.243947,37.751779 L -122.244938,37.750294 L -122.261679,37.743373 L -122.260966,37.739614 L -122.248369,37.727772 L -122.252172,37.724952 L -122.226503,37.706526 L -122.214744,37.699247 L -122.211767,37.702013 L -122.21248,37.708971 L -122.204161,37.711603 L -122.201546,37.705022 L -122.194092,37.695515 L -122.187263,37.690304 L -122.184092,37.691012 L -122.177669,37.682841 L -122.167587,37.677178 L -122.16208286978535,37.667623171572494 L -122.160369,37.664648 L -122.152993,37.641923 L -122.151396,37.620542 L -122.14636,37.607391 L -122.147014,37.588411 L -122.144396,37.581866 L -122.133924,37.562885 L -122.128688,37.560594 L -122.111998,37.528851 L -122.11144582162908,37.510891693983915 L -122.10942,37.500254 L -122.102527,37.497237 L -122.09279,37.500615 L -122.082637,37.501566 L -122.055541,37.49523 L -122.053431,37.473321 L -122.049837,37.466078 L -122.038599,37.462048 L -122.038599,37.454622 L -122.045901,37.449052 L -122.05991161212401,37.44733606598587 L -122.06849,37.45032 L -122.08874,37.452267 L -122.101803,37.462727 L -122.109105,37.462999 L -122.11513152070702,37.46626354385138 L -122.123137,37.474 L -122.120498,37.477214 L -122.124107,37.485861 L -122.127706,37.500053 L -122.136166,37.506826 L -122.139717,37.507032 L -122.149632,37.502671 L -122.162091,37.500222 L -122.179548,37.511816 L -122.183483,37.520773 L -122.186572,37.517568 L -122.20012,37.526617 L -122.194654,37.532648 L -122.196593,37.537196 L -122.203685,37.540187 L -122.21248,37.540187 L -122.223244,37.543181 L -122.229047,37.551255 L -122.243417,37.55276 L -122.251934,37.567886 L -122.262868,37.573914 L -122.273563,37.570523 L -122.284259,37.575421 L -122.305895,37.575484 L -122.315713,37.583666 L -122.31492,37.591243 L -122.325119,37.591526 L -122.328943,37.588795 L -122.334639,37.591791 L -122.360219,37.592501 L -122.369824,37.60273 L -122.378545,37.605592 L -122.373309,37.613773 L -122.370364,37.614427 L -122.359128,37.609321 L -122.355627,37.615293 L -122.367922,37.620994 L -122.36507,37.628147 L -122.380244,37.635022 L -122.384322,37.640382 L -122.389313,37.640193 L -122.391215,37.646404 L -122.380044,37.647721 L -122.374291,37.662206 L -122.380995,37.667855 L -122.381708,37.677261 L -122.387626,37.67906 L -122.394156,37.707636 L -122.39337868026153,37.708267814547824 L -122.391549,37.709755 L -122.37939,37.708663 L -122.375978,37.715997 L -122.383235,37.720735 L -122.379289,37.724302 L -122.364775,37.716388 L -122.363647,37.722072 L -122.359279,37.728593 L -122.37587,37.735659 L -122.37384,37.739574 L -122.367798,37.740182 L -122.376241,37.748523 L -122.381331,37.755306 L -122.382285,37.760855 L -122.386851,37.76371 L -122.385216,37.768773 L -122.387669,37.776799 L -122.387669,37.788809 L -122.401079,37.803619 L -122.409529,37.8089 L -122.420263,37.80855 L -122.463793,37.804653 L -122.470701,37.80855 L -122.478171,37.808353 L -122.480296,37.801293 L -122.485783,37.790629 L -122.492883,37.787929 L -122.50531,37.788312 L -122.514483,37.780829 L -122.506483,37.723731 L -122.50242686108041,37.708132910565354 L -122.496784,37.686433 L -122.49541908720234,37.664991883734146 L -122.494085,37.644035 L -122.495886,37.622768 L -122.498032,37.620819 L -122.49821,37.608267 L -122.501386,37.599637 L -122.507648,37.59607 L -122.520852,37.594178 L -122.517187,37.590637 L -122.518026,37.576677 L -122.52036,37.575343 L -122.518131,37.567626 L -122.515165,37.566285 L -122.513688,37.552239 L -122.519533,37.537302 L -122.516689,37.52134 L -122.512382,37.514115 L -122.498699,37.500837 L -122.493789,37.492341 L -122.485888,37.494641 L -122.472388,37.50054 L -122.459577,37.492731 L -122.452087,37.48054 L -122.445987,37.461541 L -122.443687,37.435941 L -122.438606,37.425134 L -122.435514,37.421699 L -122.431871,37.412144 L -122.427412,37.409617 L -122.428441,37.405932 L -122.424163,37.401212 L -122.423286,37.392542 L -122.409258,37.374805 L -122.407752,37.363931 L -122.40085,37.359225 L -122.401323,37.337009 L -122.411686,37.265844 L -122.418452,37.248521 L -122.419113,37.24147 L -122.415822,37.232839 L -122.407181,37.219465 L -122.408914,37.214202 L -122.405073,37.195791 L -122.398578,37.192802 L -122.397543,37.185088 L -122.3948,37.181514 L -122.385103,37.182955 L -122.37927,37.181128 L -122.367085,37.172817 L -122.36179,37.163593 L -122.359791,37.155574 L -122.360943,37.150182 L -122.352236,37.145855 L -122.344029,37.144099 L -122.343242,37.140605 L -122.337833,37.135936 L -122.337085,37.130795 L -122.338856,37.120854 L -122.337071,37.117382 L -122.331663,37.116578 L -122.329473,37.113045 L -122.313907,37.118161 L -122.306139,37.116383 L -122.29297271913349,37.10731767155455 L -122.284882,37.101747 L -122.275241,37.089125 L -122.260481,37.072548 L -122.252181,37.059448 L -122.244221,37.05337 L -122.22879,37.038574 L -122.223799,37.025672 L -122.216706,37.024724 L -122.210482,37.020027 L -122.20618,37.013949 L -122.197417,37.01011 L -122.186879,37.00345 L -122.183529,36.998435 L -122.176103,36.995394 L -122.16285,36.988059 L -122.155078,36.98085 L -122.153586,36.976808 L -122.140578,36.97495 L -122.135161,36.967774 L -122.126711,36.964351 L -122.1229,36.966067 L -122.114918,36.962668 L -122.108803,36.958247 L -122.100723,36.955502 L -122.087537,36.953884 L -122.065642,36.948466 L -122.049863,36.949284 L -122.041075,36.953037 L -122.026477,36.951802 L -122.026104,36.958812 L -122.023373,36.96215 L -122.012739,36.963216 L -121.992908,36.959105 L -121.983896,36.958727 L -121.972771,36.954151 L -121.95167,36.97145 L -121.93947,36.97805 L -121.930069,36.97815 L -121.906468,36.96895 L -121.894667,36.961851 L -121.880167,36.950151 L -121.862266,36.931552 L -121.827664,36.879353 L -121.809363,36.848654 L -121.79918,36.82733 L -121.791544,36.815186 L -121.788278,36.803994 L -121.794931,36.786547 L -121.805643,36.750239 L -121.806628,36.714142 L -121.808966,36.698547 L -121.818435,36.668858 L -121.824767,36.655817 L -121.83726,36.634901 L -121.850722,36.618924 L -121.857567,36.612514 L -121.866181,36.606562 L -121.875821,36.602257 L -121.883293,36.600883 L -121.889316,36.603624 L -121.892834,36.609424 L -121.904396,36.620583 L -121.91416,36.623046 L -121.921726,36.628401 L -121.92456,36.634646 L -121.929666,36.636959 L -121.93643,36.636746 L -121.938551,36.633908 L -121.938369,36.62682 L -121.941066,36.61806 L -121.946974,36.610957 L -121.951743,36.608448 L -121.958155,36.608958 L -121.962049,36.598579 L -121.963321,36.589071 L -121.967904,36.582306 L -121.974236,36.583051 L -121.976763,36.579435 L -121.970416,36.572124 L -121.957956,36.5652 L -121.953398,36.561304 L -121.949659,36.567602 L -121.942533,36.566435 L -121.932508,36.559935 L -121.929972,36.546522 L -121.933532,36.544806 L -121.928907,36.537842 L -121.924738,36.525599 L -121.927954,36.522387 L -121.935559,36.522435 L -121.937057,36.519508 L -121.94467,36.520716 L -121.952093,36.517386 L -121.943285,36.51282 L -121.938763,36.506423 L -121.939216,36.496896 L -121.946192,36.490851 L -121.938393,36.481388 L -121.937205,36.472488 L -121.929908,36.466836 L -121.926066,36.458932 L -121.929808,36.453483 L -121.930383,36.448484 L -121.926936,36.446684 L -121.91413,36.426081 L -121.917213,36.411069 L -121.915057,36.403211 L -121.905657,36.398206 L -121.903195,36.393603 L -121.904045,36.388198 L -121.901813,36.381879 L -121.906709,36.373144 L -121.903401,36.371394 L -121.902669,36.363901 L -121.905476,36.356062 L -121.893043,36.342432 L -121.893559,36.332347 L -121.897,36.327157 L -121.894714,36.317806 L -121.899434,36.307698 L -121.89676,36.304938 L -121.888491,36.30281 L -121.874797,36.289064 L -121.865868,36.284671 L -121.86355,36.281393 L -121.858141,36.281048 L -121.851967,36.277831 L -121.83935,36.260478 L -121.835785,36.250748 L -121.828865,36.246877 L -121.826282,36.242076 L -121.819544,36.241103 L -121.814743,36.235306 L -121.806966,36.233087 L -121.797059,36.234211 L -121.785842,36.228347 L -121.779851,36.227407 L -121.767258,36.220926 L -121.753444,36.210955 L -121.746642,36.210403 L -121.730597,36.201317 L -121.717176,36.195146 L -121.701659,36.181014 L -121.699772,36.176923 L -121.686414,36.16819 L -121.678263,36.165158 L -121.674573,36.160008 L -121.654552,36.141227 L -121.644909,36.128018 L -121.632703,36.120463 L -121.632283,36.116106 L -121.622009,36.099695 L -121.618893,36.086916 L -121.60739,36.075185 L -121.60669,36.072091 L -121.592886,36.065569 L -121.592565,36.056896 L -121.589183,36.053775 L -121.589436,36.047684 L -121.582103,36.040748 L -121.574602,36.025156 L -121.567191,36.019689 L -121.56126,36.020624 L -121.550323,36.019264 L -121.542022,36.015607 L -121.531819,36.014558 L -121.523838,36.009924 L -121.511385,36.006873 L -121.500832,35.998099 L -121.495658,35.987645 L -121.490805,35.981873 L -121.485631,35.970849 L -121.484549,35.959516 L -121.481713,35.949695 L -121.474785,35.937199 L -121.47551,35.930934 L -121.468593,35.927527 L -121.468477,35.922215 L -121.471882,35.920415 L -121.471462,35.914574 L -121.462598,35.903712 L -121.46087,35.898231 L -121.463285,35.889256 L -121.459364,35.882952 L -121.453161,35.88093 L -121.441467,35.870299 L -121.439584,35.86695 L -121.425113,35.859748 L -121.415107,35.857912 L -121.410354,35.852961 L -121.406823,35.844623 L -121.395435,35.833489 L -121.387882,35.823437 L -121.373656,35.815041 L -121.373592,35.812103 L -121.362853,35.808412 L -121.356737,35.804187 L -121.332449,35.783106 L -121.324918,35.769347 L -121.326319,35.757531 L -121.320077,35.756654 L -121.315786,35.75252 L -121.318039,35.744615 L -121.315857,35.730898 L -121.318429,35.728664 L -121.313248,35.721614 L -121.315417,35.713382 L -121.30447,35.70281 L -121.296473,35.696824 L -121.289794,35.689428 L -121.286708,35.67702 L -121.28653,35.665524 L -121.281547,35.666935 L -121.272322,35.666711 L -121.265058,35.663275 L -121.260808,35.66445 L -121.249723,35.656765 L -121.23974,35.652362 L -121.22113,35.65213 L -121.211744,35.647264 L -121.208364,35.641891 L -121.195291,35.640734 L -121.188613,35.643239 L -121.177345,35.640676 L -121.165758,35.635283 L -121.150423,35.616419 L -121.14281,35.60542 L -121.127522,35.596603 L -121.121082,35.581848 L -121.114442,35.576517 L -121.109119,35.56809 L -121.10856,35.564001 L -121.103023,35.556217 L -121.100791,35.548859 L -121.080242,35.531183 L -121.06337,35.514664 L -121.061192,35.51119 L -121.052964,35.507547 L -121.039219,35.494108 L -121.036238,35.489393 L -121.025621,35.484598 L -121.021242,35.478559 L -121.003359,35.46071 L -120.997924,35.460374 L -120.993761,35.463622 L -120.98422672794872,35.46029012974231 L -120.976122,35.459028 L -120.969436,35.460197 L -120.955863,35.453743 L -120.950742,35.44802 L -120.939666,35.446462 L -120.919528,35.447367 L -120.907937,35.449069 L -120.896862,35.442243 L -120.884757,35.430196 L -120.869209,35.403276 L -120.866099,35.393045 L -120.864105,35.376814 L -120.864857,35.371979 L -120.869567,35.371996 L -120.870137,35.362383 L -120.862133,35.360763 L -120.862062,35.346995 L -120.866351,35.325551 L -120.871886,35.308447 L -120.880049,35.292131 L -120.887021,35.282965 L -120.88936,35.273515 L -120.895847,35.27077 L -120.893813,35.265527 L -120.896876,35.25399 L -120.89679,35.247877 L -120.886418,35.236354 L -120.878575,35.231694 L -120.873046,35.225688 L -120.869409,35.219026 L -120.863831,35.217807 L -120.856047,35.206487 L -120.846674,35.204429 L -120.837267,35.1986 L -120.798147,35.182024 L -120.794407,35.179001 L -120.786076,35.177666 L -120.778998,35.168897 L -120.770192,35.163731 L -120.760492,35.15971 L -120.756086,35.160459 L -120.756862,35.169208 L -120.754823,35.174701 L -120.74887,35.177795 L -120.734231,35.178472 L -120.726019,35.175405 L -120.717521,35.174237 L -120.714185,35.175998 L -120.698906,35.171192 L -120.686974,35.160708 L -120.680246,35.158285 L -120.675074,35.153061 L -120.667994,35.15203 L -120.662475,35.153357 L -120.651134,35.147768 L -120.646147,35.143943 L -120.636778,35.128743 L -120.630583,35.103898 L -120.629583,35.078362 L -120.629931,35.061515 L -120.63357,35.033085 L -120.63999,35.002963 L -120.662416,34.93582 L -120.666721,34.929789 L -120.664032,34.928337 L -120.664215,34.92086 L -120.670835,34.904115 L -120.669103,34.901566 L -120.647328,34.901133 L -120.63992,34.889987 L -120.639283,34.880413 L -120.616325,34.866739 L -120.610266,34.85818 L -120.609898,34.842751 L -120.616296,34.816308 L -120.62297,34.7933 L -120.627294,34.782106 L -120.634953,34.766954 L -120.637415,34.755895 L -120.631832,34.75342 L -120.62632,34.738072 L -120.619656,34.735424 L -120.614852,34.730709 L -120.612849,34.723793 L -120.609759,34.721058 L -120.607376,34.71425 L -120.601672,34.709721 L -120.60045,34.70464 L -120.602391,34.693899 L -120.625127,34.634489 L -120.639915,34.605895 L -120.641805,34.590116 L -120.645281,34.588205 L -120.644796,34.577024 L -120.6407,34.572693 L -120.63953,34.563534 L -120.631943,34.560476 L -120.622575,34.554017 L -120.612005,34.553564 L -120.608355,34.556656 L -120.581293,34.556959 L -120.56552,34.548919 L -120.554027,34.541826 L -120.542115,34.53974 L -120.524776,34.531291 L -120.511421,34.522953 L -120.500795,34.50774 L -120.496573,34.495403 L -120.493488,34.494741 L -120.486296,34.485392 L -120.480372,34.481059 L -120.47661,34.475131 L -120.474373,34.467403 L -120.471376,34.447846 L -120.463264,34.448676 L -120.452811,34.442442 L -120.451425,34.447094 L -120.441975,34.451512 L -120.426105,34.449924 L -120.406781,34.455338 L -120.36551,34.457102 L -120.341369,34.458789 L -120.335001,34.462589 L -120.322198,34.463372 L -120.301822,34.467077 L -120.295051,34.470623 L -120.283001,34.468354 L -120.25777,34.467451 L -120.238002,34.468098 L -120.225498,34.470587 L -120.183505,34.470372 L -120.168774,34.469732 L -120.163142,34.471831 L -120.151562,34.473275 L -120.133296,34.47294 L -120.118411,34.469927 L -120.097212,34.461809 L -120.088591,34.460208 L -120.072592,34.460817 L -120.071061,34.46255 L -120.050682,34.461651 L -120.038828,34.463434 L -120.023641,34.458277 L -120.019453,34.46117 L -120.008077,34.460447 L -119.997686,34.455394 L -119.990033,34.449837 L -119.984899,34.45083 L -119.971951,34.444641 L -119.955451,34.435362 L -119.94919,34.434757 L -119.939388,34.436064 L -119.928526,34.435455 L -119.913432,34.429612 L -119.900354,34.421247 L -119.891473,34.41971 L -119.887508,34.417206 L -119.878293,34.407289 L -119.873971,34.408795 L -119.853771,34.407996 L -119.844485,34.404301 L -119.84039,34.413975 L -119.825178,34.417112 L -119.807055,34.416497 L -119.793567,34.418289 L -119.750414,34.40375 L -119.74112,34.401701 L -119.729369,34.395897 L -119.709067,34.395397 L -119.70162,34.398733 L -119.699921,34.402013 L -119.691749,34.403154 L -119.684666,34.408297 L -119.688167,34.412497 L -119.671866,34.416096 L -119.648664,34.417396 L -119.638864,34.415696 L -119.629568,34.419661 L -119.62089,34.418606 L -119.616862,34.420995 L -119.606513,34.420445 L -119.590177,34.417998 L -119.576247,34.41254 L -119.563986,34.41532 L -119.559459,34.413395 L -119.547635,34.405166 L -119.5369,34.395919 L -119.53123,34.395862 L -119.523563,34.393188 L -119.5188,34.389282 L -119.504046,34.384439 L -119.497339,34.384814 L -119.483395,34.380046 L -119.47863,34.373275 L -119.472678,34.375628 L -119.461036,34.374064 L -119.451304,34.365501 L -119.443418,34.355994 L -119.431066,34.355297 L -119.410695,34.337355 L -119.405522,34.334221 L -119.390449,34.318198 L -119.388249,34.317398 L -119.37578,34.321118 L -119.370356,34.319486 L -119.349187,34.304383 L -119.337475,34.290576 L -119.320164,34.282884 L -119.312323,34.276356 L -119.302131,34.272761 L -119.290945,34.274902 L -119.278644,34.266902 L -119.270144,34.252903 L -119.266063897106,34.2360635968191 L -119.264254,34.227492 L -119.237142,34.175804 L -119.216441,34.146105 L -119.20314,34.144505 L -119.18864,34.139005 L -119.14266,34.108414 L -119.129252,34.10084 L -119.115942,34.096904 L -119.108812,34.09592 L -119.098116,34.099856 L -119.085994,34.099266 L -119.061217,34.085387 L -119.046502,34.084934 L -119.037494,34.083111 L -119.008981,34.066793 L -118.99698,34.065943 L -118.983303,34.060334 L -118.970007,34.056743 L -118.964063,34.052554 L -118.954569,34.048362 L -118.94459363843633,34.045815089377285 L -118.936266,34.043618 L -118.932637,34.045606 L -118.924433,34.045974 L -118.915126,34.0417 L -118.903432,34.041857 L -118.89553,34.03936 L -118.875902,34.038245 L -118.861927,34.034867 L -118.854908,34.034919 L -118.839714,34.027901 L -118.821494,34.015011 L -118.806552,34.000448 L -118.802959,34.005639 L -118.795414,34.007016 L -118.789972,34.017119 L -118.785411,34.02109 L -118.767741,34.025231 L -118.756402,34.025719 L -118.752339,34.030076 L -118.742354,34.03294 L -118.734953,34.033265 L -118.70673,34.02966 L -118.694896,34.032838 L -118.683124,34.030822 L -118.678238,34.035879 L -118.671023,34.038817 L -118.663024,34.039125 L -118.635749,34.036289 L -118.624103,34.037914 L -118.609652,34.036424 L -118.603572,34.039048 L -118.592815,34.03986 L -118.583658,34.03813 L -118.571479,34.041738 L -118.566043,34.04162 L -118.555742,34.03806 L -118.543846,34.039031 L -118.524356,34.03068 L -118.5166931529215,34.02576594538378 L -118.503345,34.017206 L -118.482239,33.995611 L -118.451436,33.959108 L -118.441168,33.940339 L -118.411601,33.883531 L -118.399228,33.855132 L -118.401798,33.847951 L -118.399709,33.843508 L -118.390213,33.836203 L -118.390069,33.820407 L -118.393997,33.804183 L -118.405378,33.799733 L -118.406997,33.79145 L -118.417521,33.787012 L -118.423407,33.782015 L -118.423819,33.772516 L -118.421926,33.763425 L -118.417944,33.762559 L -118.412525,33.74922 L -118.410465,33.74104 L -118.402941,33.740709 L -118.399269,33.736573 L -118.385288,33.742093 L -118.376531,33.740444 L -118.373676,33.737295 L -118.364253,33.738167 L -118.354705,33.732317 L -118.351393,33.727349 L -118.342622,33.725971 L -118.33289297008625,33.72213191596854 L -118.314421,33.714902 L -118.295774,33.708611 L -118.294074,33.705149 L -118.288154,33.706036 L -118.282486,33.711647 L -118.283692,33.715995 L -118.267839,33.722145 L -118.261632,33.722196 L -118.257296,33.716607 L -118.245985,33.716576 L -118.251105,33.724213 L -118.238702,33.727423 L -118.237826,33.728918 L -118.24334956992,33.7425158771385 L -118.230947,33.740559 L -118.214781,33.745416 L -118.195773,33.732917 L -118.185726,33.73296 L -118.185295,33.735956 L -118.190218,33.749506 L -118.190484,33.755814 L -118.180239,33.759475 L -118.180801,33.765054 L -118.168643,33.763487 L -118.150699,33.759982 L -118.132698,33.753217 L -118.113647,33.742282 L -118.088928,33.731214 L -118.064412,33.711343 L -118.053332,33.701272 L -118.0363,33.683675 L -118.029049,33.677038 L -118.000593,33.654319 L -117.940591,33.620021 L -117.928019,33.607187 L -117.902483,33.601647 L -117.887109,33.596118 L -117.873352,33.592933 L -117.86427,33.585874 L -117.840088,33.573894 L -117.83419598249401,33.56748295460722 L -117.83360965638657,33.56684497902655 L -117.82874021569029,33.56445836792479 L -117.819214,33.557886 L -117.819821,33.554716 L -117.813513,33.551209 L -117.807515,33.550951 L -117.804217,33.546795 L -117.795561,33.54554 L -117.78428,33.541843 L -117.77648,33.531771 L -117.766385,33.523515 L -117.760075,33.51478 L -117.755104,33.512804 L -117.739572,33.495638 L -117.73785,33.489519 L -117.733697,33.485195 L -117.726486,33.483427 L -117.715102,33.464463 L -117.714617,33.459914 L -117.707093,33.460285 L -117.704675,33.457878 L -117.694693,33.455604 L -117.689933,33.457846 L -117.68942,33.461658 L -117.681025,33.461754 L -117.658067,33.44955 L -117.64485736012762,33.44036555876508 L -117.631533,33.430613 L -117.62217,33.421996 L -117.600315,33.397157 L -117.596463,33.38825 L -117.587721,33.382848 L -117.571722,33.378988 L -117.568996,33.375296 L -117.547834,33.364878 L -117.505919,33.333253 L -117.469794,33.296417 L -117.445583,33.268517 L -117.403973,33.215688 L -117.40577,33.20921 L -117.40301,33.206245 L -117.397008,33.207645 L -117.39148,33.202762 L -117.358475,33.164403 L -117.341915,33.143313 L -117.336686,33.132248 L -117.328359,33.121842 L -117.312504,33.086973 L -117.309842,33.075267 L -117.30376,33.061548 L -117.295773,33.037823 L -117.291695,33.033984 L -117.281846,33.017087 L -117.279524,33.011377 L -117.277549,33.000199 L -117.269092,32.969333 L -117.268023,32.957257 L -117.261806,32.939725 L -117.25865,32.916031 L -117.253679,32.903835 L -117.252762,32.884412 L -117.251314,32.87857 L -117.25250695671969,32.87157492929763 L -117.25681262623543,32.858475920355346 L -117.26031297199656,32.853186508982986 L -117.264486,32.848726 L -117.27494,32.850215 L -117.28117,32.843047 L -117.281883,32.832839 L -117.279679,32.825907 L -117.280576,32.821945 L -117.273602,32.815737 L -117.267211,32.80769 L -117.260084,32.802594 L -117.256091,32.793666 L -117.253375,32.780641 L -117.253227,32.760854 L -117.252049,32.7512 L -117.254633,32.746743 L -117.257487,32.725254 L -117.25459,32.700248 L -117.243128,32.66454 L -117.237294,32.667489 L -117.236239,32.671353 L -117.223526,32.683686 L -117.212652,32.687887 L -117.193103,32.686586 L -117.181041,32.680885 L -117.160719,32.66568 L -117.147528,32.646269 L -117.137723,32.624552 L -117.134693,32.612741 L -117.132378,32.597003 L -117.13244257973004,32.58561469859196 L -117.133064,32.566786 L -117.125888,32.551079 L -117.123668,32.534435 L -117.062759,32.539857 L -117.0436891766692,32.54121909281771 L -116.99421607886869,32.545495615239886 L -116.945956,32.550058 L -116.93488913289447,32.55049075833606 L -116.8963751719261,32.553752126005584 L -116.857154,32.557459 L -116.6970024867551,32.5705451208499 L -116.60659531488001,32.57803312231426 L -116.540643,32.583747 L -116.38977837686,32.5959123797471 L -116.211033,32.610326 L -116.17925117558885,32.61269401361194 L -116.10616945163082,32.61864232135934 L -116.04662,32.623353 L -115.9398889216711,32.63138312520921 L -115.851015,32.638223 L -115.692017,32.650319 L -115.581559,32.658601 L -115.482567,32.66591 L -115.387888,32.67273 L -115.275466,32.680721 L -115.163982,32.688518 L -114.983626,32.700965 L -114.819634,32.71208 L -114.71956732205636,32.71873429669095 L -114.71562,32.728208 L -114.709562,32.734883 L -114.702223,32.74541 L -114.697935,32.744259 L -114.689618,32.738171 L -114.66568186834995,32.734024442414004 L -114.654247,32.73357 L -114.635006,32.731372 L -114.617395,32.728257 L -114.615112,32.734515 L -114.581784,32.734946 L -114.581736,32.74232 L -114.564508,32.742274 L -114.564447,32.749554 L -114.539224,32.749812 L -114.539092,32.756949 L -114.526856,32.757094 L -114.52727,32.760416 L -114.528443,32.767276 L -114.531831,32.774264 L -114.531669,32.791185 L -114.528849,32.796307 L -114.520385,32.803576 L -114.515389,32.811439 L -114.510327,32.816488 L -114.494116,32.823287 L -114.468971,32.845155 L -114.465711,32.873681 L -114.465172,32.885295 L -114.462929,32.907944 L -114.464448,32.913128 L -114.475449,32.922179 L -114.477952,32.925706 L -114.48074,32.937027 L -114.470768,32.949424 L -114.467624,32.956663 L -114.468605,32.971649 L -114.475389,32.975157 L -114.481315,32.972064 L -114.490129,32.969884 L -114.492938,32.971781 L -114.495712,32.980075 L -114.499797,33.003905 L -114.507924,33.019662 L -114.52013,33.029984 L -114.531083,33.032393 L -114.543131,33.03376 L -114.5648,33.035077 L -114.571653,33.036624 L -114.579054,33.0348 L -114.585598,33.027747 L -114.598871,33.025391 L -114.618788,33.027202 L -114.629732,33.032546 L -114.639552,33.04529 L -114.64482,33.048644 L -114.650999,33.044131 L -114.657827,33.033824 L -114.662317,33.03267 L -114.670803,33.037983 L -114.675111,33.048638 L -114.674295,33.057169 L -114.686991,33.070968 L -114.68912,33.076121 L -114.68902,33.084035 L -114.694628,33.086226 L -114.706488,33.08816 L -114.707896,33.097431 L -114.703682,33.113768 L -114.696914,33.131119 L -114.687405,33.141983 L -114.67935,33.162433 L -114.68089,33.169074 L -114.67583,33.18152 L -114.675189,33.188178 L -114.678749,33.203448 L -114.673715,33.219245 L -114.674479,33.225504 L -114.682731,33.234918 L -114.689421,33.24525 L -114.688205,33.247965 L -114.674491,33.255597 L -114.672401,33.260469 L -114.677032,33.270169 L -114.684363,33.276023 L -114.694449,33.279785 L -114.717875,33.285156 L -114.723259,33.288079 L -114.731223,33.302433 L -114.723623,33.312109 L -114.71044004926911,33.32069095149009 L -114.705186,33.327709 L -114.700938,33.337014 L -114.698035,33.352442 L -114.699056,33.361148 L -114.707537,33.377561 L -114.707213,33.382146 L -114.72425,33.40042 L -114.725535,33.404055 L -114.720065,33.407891 L -114.710878,33.407254 L -114.70242691653505,33.4082980667471 L -114.695658,33.415128 L -114.68795,33.417934 L -114.673691,33.419157 L -114.65781213928601,33.41296049504377 L -114.64954,33.413633 L -114.643302,33.416746 L -114.62964,33.428137 L -114.627125,33.433554 L -114.622283,33.447558 L -114.622918,33.456561 L -114.599712,33.484316 L -114.597283,33.490653 L -114.589246,33.501813 L -114.580468,33.506465 L -114.569533,33.509219 L -114.560963,33.516739 L -114.560835,33.524334 L -114.558023,33.532589 L -114.542011,33.542481 L -114.524599,33.552231 L -114.52822,33.559318 L -114.531613,33.561702 L -114.535965,33.569154 L -114.54061,33.582322 L -114.540617,33.591412 L -114.529186,33.60665 L -114.522071,33.611277 L -114.531215,33.623913 L -114.531034,33.628213 L -114.52637,33.630259 L -114.523802,33.6347 L -114.525394,33.640669 L -114.533215,33.648443 L -114.530583,33.654461 L -114.518337,33.655927 L -114.514057,33.660179 L -114.517112,33.662877 L -114.526439,33.66388 L -114.532123,33.669702 L -114.530348,33.679245 L -114.523959,33.685879 L -114.512409,33.691282 L -114.496489,33.696901 L -114.494333,33.710635 L -114.496565,33.719155 L -114.500788,33.722204 L -114.504176,33.728055 L -114.512348,33.734214 L -114.504483,33.750998 L -114.50434,33.756381 L -114.507089,33.76793 L -114.516734,33.788345 L -114.518942,33.797302 L -114.52805,33.814963 L -114.522714,33.818979 L -114.51997,33.825381 L -114.523409,33.835323 L -114.529597,33.848063 L -114.529883,33.857563 L -114.524292,33.860133 L -114.5176796955655,33.85829596348218 L -114.503887,33.865754 L -114.50434,33.876882 L -114.51866,33.888263 L -114.524813,33.895684 L -114.52569,33.901428 L -114.516344,33.897918 L -114.507988,33.901813 L -114.508558,33.906098 L -114.514503,33.914214 L -114.523393,33.921221 L -114.534146,33.925187 L -114.535478,33.934651 L -114.52868,33.947817 L -114.522002,33.955623 L -114.51497,33.958149 L -114.510428,33.957043 L -114.50079,33.961572 L -114.485348,33.974933 L -114.482333,33.980181 L -114.470357,33.988972 L -114.467932,33.992877 L -114.46012,33.993888 L -114.45816148733081,33.99807693452372 L -114.46628,34.003885 L -114.467404,34.00745 L -114.463336,34.012259 L -114.454807,34.010968 L -114.443821,34.016176 L -114.438266,34.022609 L -114.436171,34.028083 L -114.434949,34.037784 L -114.438602,34.050205 L -114.43934,34.057893 L -114.437683,34.071937 L -114.43338,34.088413 L -114.428026,34.092787 L -114.420499,34.103466 L -114.41168,34.110031 L -114.402255,34.111588 L -114.390565,34.110084 L -114.379223,34.11599 L -114.366517,34.118577 L -114.360402,34.123577 L -114.356372,34.130428 L -114.348051,34.134457 L -114.336112,34.134034 L -114.324576,34.136759 L -114.312206,34.144776 L -114.30589,34.152657 L -114.292806,34.166725 L -114.286724,34.170715 L -114.275267,34.172149 L -114.268267,34.170209 L -114.254141,34.17383 L -114.244421,34.179403 L -114.240712,34.183232 L -114.229715,34.186928 L -114.224941,34.193896 L -114.225861,34.201774 L -114.223384,34.205136 L -114.215454,34.208956 L -114.190876,34.230858 L -114.176403,34.241512 L -114.174597,34.247303 L -114.164476,34.251667 L -114.164648,34.259699 L -114.153346,34.258289 L -114.144779,34.259623 L -114.13545,34.257886 L -114.131211,34.26273 L -114.134768,34.268965 L -114.137045,34.277018 L -114.13605,34.280833 L -114.139393,34.296741 L -114.138282,34.30323 L -114.157206,34.317862 L -114.168807,34.339513 L -114.176909,34.349306 L -114.191094,34.356125 L -114.199482,34.361373 L -114.213774,34.36246 L -114.226107,34.365916 L -114.229686,34.368908 L -114.234275,34.376662 L -114.248649,34.388113 L -114.252739,34.3901 L -114.262909,34.400373 L -114.267521,34.402486 L -114.280108,34.403147 L -114.286802,34.40534 L -114.291154,34.409784 L -114.292226,34.417606 L -114.301016,34.426807 L -114.316962,34.435064 L -114.326717,34.437856 L -114.334251,34.449335 L -114.339627,34.451435 L -114.356025,34.449744 L -114.371217,34.446992 L -114.375789,34.447798 L -114.386699,34.457911 L -114.386584,34.463821 L -114.381555,34.477883 L -114.383038,34.488903 L -114.382358,34.495758 L -114.378124,34.507288 L -114.378223,34.516521 L -114.380838,34.529724 L -114.389603,34.542982 L -114.405228,34.569637 L -114.422382,34.580711 L -114.435671,34.593841 L -114.436363,34.596797 L -114.427502,34.599227 L -114.424326,34.602338 L -114.424202,34.610453 L -114.438739,34.621455 L -114.441398,34.630171 L -114.440519,34.640066 L -114.442363,34.644153 L -114.458093,34.658689 L -114.452986,34.66283 L -114.450877,34.667822 L -114.454305,34.671234 L -114.455536,34.677335 L -114.465246,34.691202 L -114.46862,34.707573 L -114.47162,34.712966 L -114.482779,34.714511 L -114.487508,34.716626 L -114.490971,34.724848 L -114.500795,34.730418 L -114.516619,34.736745 L -114.530355,34.75138 L -114.540306,34.757109 L -114.552682,34.766871 L -114.558653,34.773852 L -114.571847,34.796343 L -114.576452,34.8153 L -114.582197,34.828188 L -114.586842,34.835672 L -114.592339,34.841153 L -114.604255,34.849573 L -114.619878,34.856873 L -114.628276,34.863596 L -114.635126,34.874871 L -114.636768,34.885705 L -114.635425,34.895192 L -114.630877,34.907263 L -114.630552,34.911852 L -114.633237,34.92123 L -114.632196,34.930628 L -114.629753,34.938684 L -114.629811,34.94481 L -114.634953,34.958918 L -114.634607,34.96906 L -114.630843,34.977987 L -114.629443,34.991825 L -114.634091,35.002338 Z M -122.42036455449833,37.86334220586801 L -122.423303,37.869514 L -122.430958,37.872242 L -122.435872,37.866653 L -122.446316,37.861046 L -122.44265,37.856169 L -122.434533,37.853493 L -122.430829,37.855391 L -122.41872292671411,37.85257834441409 L -122.41882873270211,37.85329326407243 L -122.41983262733144,37.860076471893734 L -122.42036455449833,37.86334220586801 Z M -122.377679,37.83046 L -122.378962,37.826897 L -122.371269,37.814669 L -122.372836,37.811068 L -122.367138,37.807429 L -122.361107,37.808029 L -122.358779,37.814278 L -122.364289,37.81887 L -122.362911,37.822696 L -122.368752,37.831286 L -122.377679,37.83046 Z M -123.013916,37.700355 L -123.012777,37.696498 L -123.002794,37.692736 L -122.998754,37.697438 L -123.003507,37.704396 L -123.013916,37.700355 Z M -119.047038,33.483819 L -119.043052,33.47695 L -119.042939,33.470552 L -119.038522,33.465691 L -119.031095,33.468576 L -119.030794,33.474284 L -119.02741,33.476856 L -119.030456,33.488334 L -119.038458,33.482473 L -119.047038,33.483819 Z M -119.441999,34.013551 L -119.437536,34.010106 L -119.424673,34.007628 L -119.422218,34.005453 L -119.414831,34.006319 L -119.399427,34.003478 L -119.390816,34.002863 L -119.379273,34.009566 L -119.383183,34.011249 L -119.389266,34.007085 L -119.396251,34.005918 L -119.412971,34.008932 L -119.421376,34.015012 L -119.433912,34.015975 L -119.441999,34.013551 Z M -119.577271,33.278582 L -119.578843,33.278193 L -119.573872,33.26449 L -119.575138,33.258056 L -119.567249,33.254717 L -119.565983,33.24706 L -119.560301,33.243803 L -119.546212,33.232561 L -119.530861,33.231464 L -119.520208,33.228707 L -119.512926,33.223 L -119.502286,33.221562 L -119.49814,33.21884 L -119.491076,33.219836 L -119.481638,33.218384 L -119.4703,33.214731 L -119.457436,33.216085 L -119.44755,33.219769 L -119.438882,33.220095 L -119.434402,33.227021 L -119.434791,33.23142 L -119.443461,33.242075 L -119.452945,33.249303 L -119.460592,33.256658 L -119.489235,33.265793 L -119.498599,33.266553 L -119.505142,33.272654 L -119.520597,33.280124 L -119.528778,33.285417 L -119.552294,33.277268 L -119.56215,33.271217 L -119.577271,33.278582 Z M -119.929889,34.059734 L -119.922102,34.056872 L -119.916216,34.058351 L -119.887284,34.042197 L -119.886199,34.037049 L -119.881808,34.036553 L -119.876329,34.032087 L -119.876916,34.023527 L -119.882531,34.011674 L -119.887,34.008584 L -119.881403,33.992339 L -119.873358,33.980375 L -119.86554,33.979266 L -119.848287,33.967636 L -119.842355,33.970209 L -119.831153,33.968635 L -119.819825,33.963402 L -119.818249,33.959858 L -119.803901,33.963993 L -119.793443,33.962811 L -119.789723,33.959259 L -119.77017,33.96226 L -119.758141,33.959212 L -119.750438,33.963759 L -119.742966,33.963877 L -119.728119,33.961802 L -119.721206,33.959583 L -119.714696,33.961439 L -119.712363,33.965422 L -119.706452,33.968133 L -119.700581,33.966693 L -119.69833,33.970738 L -119.69011,33.972225 L -119.674832,33.978429 L -119.662825,33.985889 L -119.64771,33.987786 L -119.633729,33.987243 L -119.621117,33.98899 L -119.619082,33.987228 L -119.596877,33.988611 L -119.5902,33.989712 L -119.575636,33.996009 L -119.560464,33.99553 L -119.554472,33.99782 L -119.547072,34.005469 L -119.54828,34.009819 L -119.5425,34.015042 L -119.543957,34.017915 L -119.538847,34.023988 L -119.527524,34.026445 L -119.52064,34.034262 L -119.529603,34.041155 L -119.540344,34.044716 L -119.546262,34.044645 L -119.556116,34.0488 L -119.556714,34.052064 L -119.562347,34.055283 L -119.579752,34.050705 L -119.584301,34.053643 L -119.59498,34.049504 L -119.609239,34.03735 L -119.604287,34.031561 L -119.612226,34.021256 L -119.619343,34.016468 L -119.637742,34.013178 L -119.642995,34.016605 L -119.651395,34.015718 L -119.65454,34.019927 L -119.668304,34.016628 L -119.673549,34.019552 L -119.686507,34.019805 L -119.693145,34.029287 L -119.700587,34.033695 L -119.712576,34.043265 L -119.726437,34.047908 L -119.734507,34.046087 L -119.747856,34.053174 L -119.755114,34.053817 L -119.759428,34.058835 L -119.770729,34.055051 L -119.789798,34.05726 L -119.796059,34.057026 L -119.807825,34.052127 L -119.818742,34.052997 L -119.825865,34.059794 L -119.857304,34.071298 L -119.883835,34.074468 L -119.89113,34.072856 L -119.912857,34.077508 L -119.919155,34.07728 L -119.923337,34.069361 L -119.919413,34.065257 L -119.922027,34.060532 L -119.929889,34.059734 Z M -120.249536,34.002477 L -120.239262,33.996497 L -120.239409,33.993077 L -120.230244,33.991238 L -120.222106,33.987559 L -120.219279,33.979028 L -120.209372,33.972376 L -120.200085,33.956904 L -120.198602,33.952211 L -120.18984,33.947703 L -120.179049,33.927994 L -120.180417,33.925103 L -120.172666,33.922849 L -120.165248,33.916327 L -120.159838,33.915914 L -120.121817,33.895712 L -120.115885,33.894361 L -120.110168,33.895621 L -120.105489,33.90428 L -120.098601,33.907853 L -120.090779,33.909234 L -120.077793,33.908886 L -120.073406,33.912113 L -120.05679,33.913127 L -120.049682,33.914563 L -120.046881,33.919597 L -120.03918,33.924578 L -120.028664,33.927853 L -120.017715,33.936366 L -120.00096,33.941554 L -119.973691,33.942481 L -119.971141,33.950401 L -119.976857,33.956693 L -119.979913,33.969623 L -119.97902,33.981207 L -119.984316,33.983948 L -120.003815,33.979547 L -120.012906,33.980952 L -120.014032,33.983413 L -120.025781,33.986137 L -120.041311,33.994507 L -120.046575,34.000002 L -120.047108,34.006329 L -120.050382,34.013331 L -120.047798,34.021227 L -120.043212,34.027536 L -120.045272,34.031692 L -120.043259,34.035806 L -120.055107,34.037729 L -120.061953,34.033976 L -120.066275,34.029003 L -120.070545,34.029098 L -120.073609,34.024477 L -120.090182,34.019806 L -120.115058,34.019866 L -120.135853,34.026087 L -120.147647,34.024831 L -120.151663,34.018126 L -120.167306,34.008219 L -120.176847,34.006317 L -120.183697,34.007737 L -120.19578,34.004284 L -120.208478,34.005655 L -120.221287,34.010367 L -120.237297,34.009284 L -120.245466,34.002484 L -120.249536,34.002477 Z M -120.450064,34.034194 L -120.454134,34.028081 L -120.435579,34.029371 L -120.427408,34.025425 L -120.419021,34.028949 L -120.415225,34.032245 L -120.409368,34.032198 L -120.39163,34.025988 L -120.383138,34.024474 L -120.375143,34.018775 L -120.36665,34.015842 L -120.35793,34.015029 L -120.353804,34.019026 L -120.335027,34.020799 L -120.317052,34.018837 L -120.307219,34.022375 L -120.307361,34.029566 L -120.319032,34.041979 L -120.331161,34.049097 L -120.346946,34.046576 L -120.352853,34.047193 L -120.358608,34.050235 L -120.36029,34.05582 L -120.354982,34.059256 L -120.362251,34.073056 L -120.367114,34.070822 L -120.374211,34.062658 L -120.390906,34.051994 L -120.396188,34.050187 L -120.403613,34.050442 L -120.415287,34.05496 L -120.428997,34.047556 L -120.440248,34.036918 L -120.449114,34.037345 L -120.450064,34.034194 Z M -118.604415,33.478552 L -118.601185,33.469853 L -118.589886,33.461521 L -118.579435,33.449302 L -118.573317,33.443633 L -118.575394,33.440179 L -118.565854,33.437503 L -118.563442,33.434381 L -118.555178,33.43338 L -118.552577,33.435617 L -118.545441,33.434159 L -118.53738,33.434608 L -118.533681,33.429183 L -118.52323,33.430733 L -118.514073,33.423517 L -118.511696,33.429667 L -118.49817,33.421447 L -118.48875,33.419826 L -118.485575,33.401176 L -118.482239,33.396108 L -118.481035,33.388994 L -118.475331,33.383238 L -118.482462,33.380261 L -118.481086,33.375946 L -118.482609,33.369914 L -118.487215,33.365772 L -118.489592,33.360412 L -118.487453,33.350883 L -118.474143,33.334204 L -118.465368,33.326056 L -118.456309,33.32182 L -118.441066,33.318555 L -118.436352,33.320104 L -118.424258,33.317839 L -118.408543,33.321494 L -118.393055,33.319659 L -118.384564,33.321019 L -118.374768,33.320065 L -118.354042,33.313111 L -118.343249,33.305234 L -118.325244,33.299075 L -118.316787,33.301137 L -118.312045,33.306597 L -118.305084,33.310323 L -118.30539,33.320898 L -118.307767,33.32348 L -118.310222,33.334781 L -118.32446,33.348782 L -118.329158,33.351478 L -118.332486,33.358228 L -118.351275,33.373936 L -118.365094,33.388374 L -118.368126,33.389533 L -118.370161,33.396013 L -118.36727,33.401088 L -118.370323,33.409285 L -118.382037,33.409883 L -118.390955,33.417963 L -118.39525,33.416204 L -118.406444,33.421559 L -118.409099,33.421203 L -118.423576,33.427258 L -118.445812,33.428907 L -118.449535,33.432673 L -118.454636,33.433961 L -118.47034,33.442956 L -118.473485,33.442877 L -118.477646,33.448392 L -118.482224,33.44831 L -118.493632,33.442559 L -118.500288,33.443352 L -118.500212,33.449592 L -118.50285,33.453302 L -118.510537,33.455313 L -118.522635,33.462016 L -118.524769,33.466355 L -118.530702,33.468071 L -118.538624,33.477015 L -118.54453,33.474119 L -118.570351,33.47531 L -118.585936,33.473819 L -118.598783,33.477939 L -118.604415,33.478552 Z M -118.6105,33.032941 L -118.610262,33.015803 L -118.601468,33.017039 L -118.593435,33.012386 L -118.584735,32.98993 L -118.581883,32.987698 L -118.580362,32.974299 L -118.574087,32.964887 L -118.56439,32.958506 L -118.561347,32.951805 L -118.556404,32.947018 L -118.555453,32.934252 L -118.55146,32.930582 L -118.549559,32.924198 L -118.55203,32.91925 L -118.546835,32.918408 L -118.547087,32.911907 L -118.542143,32.906799 L -118.535823,32.90628 L -118.530544,32.894985 L -118.52503,32.886523 L -118.51229,32.879178 L -118.513051,32.868957 L -118.507537,32.863527 L -118.505065,32.857138 L -118.506206,32.852985 L -118.495938,32.84979 L -118.495368,32.846116 L -118.477684,32.840365 L -118.475402,32.835093 L -118.467987,32.832217 L -118.454677,32.821033 L -118.450931,32.822112 L -118.444029,32.816718 L -118.439396,32.815671 L -118.431809,32.801462 L -118.422733,32.809287 L -118.40871,32.813083 L -118.406095,32.821073 L -118.391834,32.826266 L -118.383031,32.824948 L -118.377811,32.822471 L -118.367591,32.820873 L -118.360936,32.817078 L -118.354185,32.820919 L -118.373533,32.839047 L -118.386605,32.848233 L -118.397328,32.857447 L -118.423446,32.875784 L -118.456958,32.900932 L -118.463614,32.909712 L -118.470893,32.915948 L -118.488332,32.923679 L -118.499503,32.933654 L -118.51828,32.954198 L -118.519196,32.95856 L -118.52446,32.964369 L -118.534204,32.971946 L -118.536247,32.977404 L -118.542999,32.98072 L -118.549891,32.989492 L -118.552743,33.002848 L -118.558448,33.006834 L -118.562726,33.006834 L -118.56843,33.020188 L -118.56843,33.02497 L -118.57988,33.034459 L -118.593862,33.03055 L -118.598853,33.036329 L -118.6105,33.032941 Z" fill="none" stroke=currentColor stroke-width="1" vector-effect="non-scaling-stroke"/>
</svg>