<?xml version="1.0"?>
<svg xmlns="http://www.w3.org/2000/svg" version="1.2" baseProfile="tiny" viewBox="-40.0 -40.0 880.0 538.0" stroke-linecap="round" stroke-linejoin="round">
<g id="state">
<path d="M 570.27 1.23 573.67 1.18 579.6 1.22 599.51 1.19 603.23 1.22 611.83 1.19 613.95 1.23 624.76 1.2 629.21 1.23 634.69 1.17 643.02 1.17 644.89 1.1 648.49 1.18 653.2 1.18 666.06 1.14 685.62 1.14 689.79 1.11 692.13 1.15 707.16 1.13 709.67 1.15 715.77 1.12 720.07 1.14 732.61 1.12 733.11 1.1 740.42 1.14 754.76 1.11 762.72 1.12 764.51 1.14 777.69 1.13 779.92 1.11 797.84 1.12 797.86 1.49 797.87 17.34 797.88 29.74 797.87 42.38 797.86 58.24 797.83 74.15 797.89 76.62 797.82 90.37 797.85 94.75 797.81 98.22 797.84 114.74 797.88 129.3 797.93 143.4 797.98 153.64 798.02 154.41 798.01 159.31 798.09 167.51 798.06 171.92 798.13 186.15 798.27 200.01 798.34 211.94 798.43 223.46 798.49 231.83 798.56 244.98 798.56 258.09 798.6 266.35 798.58 276.86 798.62 278.05 798.6 290.09 798.64 292.3 798.61 298.78 798.66 302.77 798.62 312.78 798.68 321.17 798.69 329.64 798.64 338.05 798.66 344.24 798.81 356.69 798.85 365.55 798.99 376.97 798.98 390.4 798.94 395.32 798.99 405.15 798.97 409.55 799 413.54 798.95 416.08 798.96 422.67 798.93 430.52 798.95 430.95 798.94 444.22 798.94 456.97 794.94 456.97 780.03 456.89 774.07 456.82 771.32 456.84 761.03 456.8 738.81 456.73 729.66 456.74 724.34 456.73 718.2 456.37 711.05 456.2 704.18 456.22 691.5 456.35 689.76 456.16 680.23 456.16 662.78 456.22 651.03 456.24 633.17 456.28 618.91 456.33 606.66 456.41 599.45 456.47 591.31 456.5 575.43 456.62 551.81 456.78 547.84 456.79 537.8 456.91 529.9 456.92 527.46 456.89 506.42 456.85 502.99 456.93 490.44 456.92 476.83 456.94 462.57 456.95 459.31 457.01 449.03 456.7 437.56 456.75 427.62 456.73 407.13 456.7 391.76 456.67 382.15 456.64 371.56 456.68 359.86 456.68 347.26 456.72 330.2 456.77 322.09 456.83 309.79 456.87 294.8 456.91 278.07 456.96 268.47 456.99 263.59 457.04 250.04 457.03 249.2 456.17 228.51 456.17 212.85 456.18 199.99 456.18 190.34 456.15 174.5 456.18 158.95 456.19 146.49 456.17 139.2 456.2 128.69 456.21 104.37 456.21 87.7 456.21 66.51 456.24 56.3 456.26 37.51 456.31 22.02 456.31 2.71 456.3 2.72 442.49 2.63 434.88 2.68 432.05 2.63 421.84 2.65 415.28 2.7 410.5 2.87 402.85 3.12 392.27 3.08 390.66 3.09 377.98 3.07 366.63 3.06 348.87 2.96 344.57 2.97 338.34 3.04 336.67 3.07 333.44 3 331.82 3 324.63 2.97 323.58 1 311.16 1 297.42 1 289.65 1.02 279.12 1.06 272.08 1.04 261.22 1.13 257.26 1.33 251.58 1.69 243.16 1.88 226.25 2.03 212.57 2.01 207.57 2.04 202.96 2.03 193.84 2.06 186.15 2.03 178.15 1.99 166.33 2.02 154.75 2.05 135.44 2.12 132.22 2.08 119.88 2.03 114.15 2.07 104.66 2.05 91.3 2.05 81.22 2.07 71.62 2.02 64.88 2.15 54.92 2.38 49.08 2.41 45.75 2.28 39.75 2.26 33.85 2.33 21.17 2.29 19.83 2.28 14.62 2.24 11.78 2.16 1.31 21.02 1.38 36.19 1.37 49.78 1.37 57.66 1.4 61.73 1.44 65.07 1.38 80.23 1.39 93.04 1.38 93.15 1.35 100.93 1.34 107.19 1.25 116.25 1.16 121.47 1.19 124.91 1.16 137.09 1.17 146.08 1.17 153.86 1.15 164.1 1.15 178.32 1.12 180.81 1.09 193.45 1.04 199.1 1.06 207.81 1.07 218.73 1.05 235.17 1 249.38 1.05 251.41 1.09 263.44 1.08 277.81 1.15 292.02 1.18 298.96 1.17 305.01 1.26 309.55 1.43 313.21 1.51 324.47 1.65 341.98 1.73 347.94 1.71 359.08 1.72 380.04 1.75 390.89 1.72 412.36 1.65 421.3 1.63 433.66 1.6 434.3 1.57 445 1.59 453.87 1.58 469.07 1.6 479.09 1.61 483.52 1.47 505.21 1.23 520.93 1.2 523.15 1.22 536.98 1.22 542.69 1.2 552.29 1.21 556.61 1.19 570.27 1.23 Z" fill="none" stroke="currentColor" stroke-width="1"/>
</g>
</svg>