<?xml version="1.0"?>
<svg width="20" height="20" xmlns="http://www.w3.org/2000/svg" version="1.2" baseProfile="tiny" viewBox="-64.000 -174.500 928.000 928.000" stroke-linecap="round" stroke-linejoin="round">
<g id="state">
<path d="M 560.78 7.13 564 7.01 569.61 6.97 588.48 6.6 592 6.57 600.14 6.37 602.16 6.38 612.39 6.13 616.61 6.08 621.79 5.89 629.69 5.72 631.45 5.58 634.87 5.6 639.33 5.5 651.51 5.14 670.03 4.66 673.97 4.52 676.19 4.51 690.43 4.07 692.8 4.03 698.58 3.82 702.66 3.72 714.52 3.34 715 3.29 721.93 3.12 735.5 2.64 743.03 2.38 744.73 2.36 757.2 1.9 759.32 1.8 776.29 1.19 776.32 1.64 777.08 21.45 777.68 36.94 778.27 52.73 779.01 72.54 779.74 92.42 779.91 95.5 780.5 112.68 780.73 118.15 780.86 122.49 781.67 143.11 782.41 161.3 783.12 178.9 783.65 191.69 783.73 192.65 783.95 198.77 784.42 209.01 784.6 214.51 785.34 232.28 786.14 249.57 786.77 264.47 787.4 278.85 787.86 289.3 788.56 305.71 789.18 322.08 789.6 332.39 790.09 345.51 790.18 347 790.73 362.02 790.88 364.79 791.16 372.88 791.4 377.85 791.84 390.35 792.29 400.83 792.7 411.4 793.05 421.9 793.37 429.62 794.11 445.17 794.57 456.23 795.25 470.48 795.88 487.25 796.08 493.4 796.59 505.67 796.78 511.16 797 516.14 797.07 519.32 797.4 527.54 797.73 537.35 797.78 537.88 798.4 554.46 799 570.38 795 570.53 780.05 570.99 774.08 571.11 771.32 571.24 761.02 571.54 738.75 572.2 729.58 572.51 724.26 572.66 718.09 572.39 710.92 572.4 704.03 572.62 691.34 573.14 689.58 572.96 680.04 573.21 662.54 573.74 650.77 574.05 632.87 574.51 618.58 574.88 606.31 575.22 599.08 575.44 590.92 575.63 575.02 576.04 551.34 576.6 547.36 576.67 537.3 576.96 529.38 577.07 526.93 577.06 505.85 577.23 502.41 577.37 489.83 577.46 476.18 577.6 461.88 577.69 458.61 577.79 448.31 577.45 436.81 577.56 426.85 577.56 406.3 577.54 390.9 577.49 381.26 577.44 370.64 577.46 358.91 577.42 346.28 577.4 329.19 577.36 321.05 577.37 308.73 577.3 293.7 577.21 276.92 577.08 267.3 576.99 262.41 576.98 248.82 576.78 247.99 575.69 227.26 575.36 211.57 575.08 198.68 574.83 189.01 574.61 173.13 574.29 157.55 573.95 145.06 573.62 137.76 573.47 127.22 573.21 102.85 572.52 86.15 572.02 64.92 571.39 54.68 571.07 35.87 570.48 20.34 569.91 1 569.15 1.68 551.92 1.96 542.41 2.16 538.88 2.6 526.13 2.95 517.93 3.23 511.96 3.76 502.42 4.53 489.22 4.57 487.21 5.19 471.38 5.73 457.21 6.59 435.03 6.7 429.67 7.01 421.89 7.16 419.8 7.35 415.77 7.36 413.74 7.71 404.77 7.73 403.45 6.4 387.87 7.07 370.73 7.45 361.02 7.99 347.88 8.36 339.1 8.88 325.53 9.16 320.6 9.63 313.5 10.4 303.02 11.41 281.9 12.22 264.84 12.45 258.59 12.7 252.84 13.14 241.45 13.54 231.85 13.9 221.86 14.44 207.1 15.04 192.65 16.01 168.53 16.23 164.51 16.8 149.1 17.03 141.95 17.53 130.09 18.16 113.41 18.66 100.82 19.14 88.83 19.42 80.41 20.03 67.97 20.54 60.69 20.73 56.52 20.9 49.03 21.17 41.66 21.86 25.81 21.88 24.14 22.13 17.63 22.23 14.08 22.66 1 40.51 1.77 54.88 2.28 67.75 2.73 75.2 3.02 79.06 3.2 82.22 3.23 96.58 3.71 108.71 4.07 108.81 4.04 116.19 4.24 122.11 4.3 130.69 4.43 135.64 4.6 138.9 4.67 150.43 4.98 158.95 5.2 166.31 5.36 176.01 5.59 189.48 5.86 191.84 5.87 203.82 6.06 209.17 6.19 217.42 6.37 227.76 6.54 243.33 6.74 256.79 7.02 258.71 7.1 270.11 7.26 283.72 7.52 297.18 7.71 303.75 7.76 309.48 7.94 313.78 8.2 317.25 8.33 327.92 8.59 344.5 8.81 350.16 8.81 360.71 8.88 380.56 8.99 390.84 8.97 411.19 8.89 419.65 8.86 431.36 8.79 431.98 8.75 442.11 8.75 450.52 8.7 464.91 8.64 474.4 8.6 478.6 8.39 499.15 7.91 514.04 7.72 516.15 7.73 529.24 7.56 534.66 7.46 543.74 7.36 547.84 7.27 560.78 7.13 Z" fill="none" stroke="currentColor" stroke-width="46.400"/>
</g>
</svg>