<svg viewBox="-109.7620535 -41.7053105 8.422397999999987 5.414716000000006" xmlns="http://www.w3.org/2000/svg">
  <path d="M -104.053249,41.001406 L -104.173436,41.00177 L -104.211441,41.00158 L -104.295812,41.001719 L -104.3461,41.001534 L -104.467672,41.001473 L -104.487217,41.001693 L -104.625519,41.001428 L -104.816284,40.999293 L -104.855273,40.998048 L -104.94337098331094,40.99820855919441 L -105.077014,40.998333 L -105.155054,40.998247 L -105.249138,40.998432 L -105.254844,40.998209 L -105.36355,40.997874 L -105.442122,40.997751 L -105.630969,40.997118 L -105.726441,40.996836 L -105.91071856928434,40.9971055414688 L -106.008698,40.997235 L -106.061181,40.996999 L -106.215123,40.997723 L -106.314218,40.998923 L -106.346414,40.999637 L -106.386356,41.001144 L -106.439563,41.001978 L -106.500588,41.001895 L -106.625592,41.00211 L -106.751902,41.002702 L -106.857773,41.002663 L -106.8756,41.002996 L -107.000606,41.003444 L -107.145206,41.003011 L -107.241194,41.002804 L -107.317794,41.00292 L -107.367488,41.003073 L -107.478678,41.002671 L -107.50062,41.002349 L -107.625649,41.002123 L -107.71573174288663,41.00213214216988 L -107.784142,41.001931 L -107.863262,41.001933 L -107.97033,41.002012 L -108.000636,41.001814 L -108.046539,41.002064 L -108.126215,41.001276 L -108.181227,41.000455 L -108.24972,41.000362 L -108.250649,41.000114 L -108.363349,41.000023 L -108.496663,41.000109 L -108.526029,40.999592 L -108.561854,40.999962 L -108.631108,41.000156 L -108.750667,41.000187 L -108.884138,41.000094 L -109.050026,41.000691 L -109.049277,40.908646 L -109.048891,40.883644 L -109.048841,40.837821 L -109.048455,40.826081 L -109.049088,40.714503 L -109.048944,40.662601 L -109.047767,40.609879 L -109.048024,40.580562 L -109.050092,40.529198 L -109.051245,40.441599 L -109.050817,40.382338 L -109.050947,40.297854 L -109.050976,40.209204 L -109.050768,40.091738 L -109.051157,40.008238 L -109.050688,39.957847 L -109.050341,39.849354 L -109.050956,39.821031 L -109.051189,39.651152 L -109.051459,39.549313 L -109.05115106291841,39.445335307707005 L -109.050864,39.374976 L -109.051099,39.307326 L -109.05103,39.227126 L -109.051318,39.186613 L -109.051166,39.142603 L -109.052416,39.02233 L -109.054119,38.873532 L -109.057279,38.799544 L -109.059041,38.749524 L -109.059824,38.714746 L -109.059696,38.619165 L -109.05997690080343,38.55726535532099 L -109.060154,38.464694 L -109.0601462385146,38.396298710842345 L -109.060187,38.275528 L -109.042835,38.166268 L -109.042572,38.157016 L -109.04258,38.093799 L -109.041979,38.079557 L -109.042234,38.051098 L -109.042866,38.03642 L -109.042938,37.981607 L -109.04204,37.943812 L -109.04195,37.787583 L -109.041844,37.68779 L -109.041932,37.576253 L -109.041572,37.562138 L -109.043777,37.469035 L -109.04522743430772,37.401800176865294 L -109.04564,37.359723 L -109.045844,37.301995 L -109.045398,37.212195 L -109.045885,37.187305 L -109.045086,37.120377 L -109.045172,36.998977 L -108.875317,36.998839 L -108.739043,36.99884 L -108.573844,36.999282 L -108.484002,36.999423 L -108.29762,36.999721 L -108.15103613047731,36.999722077644925 L -107.937132,36.999691 L -107.844669,36.999795 L -107.780599,37.000059 L -107.670947,36.999921 L -107.534211,37.000033 L -107.394861,37.000233 L -107.31001,37.000016 L -107.196889,37.000027 L -107.059202,37.000037 L -106.877232,37.0001 L -106.86982,36.992497 L -106.75059,36.992461 L -106.707668,36.992835 L -106.62329531145001,36.993095534940394 L -106.47609,36.993548 L -106.34425348909367,36.993953249130826 L -106.2361,36.994249 L -106.164742,36.994767 L -106.014735,36.99524 L -105.903923,36.995551 L -105.80101,36.995614 L -105.707852,36.995919 L -105.623322,36.995704 L -105.488156,36.995459 L -105.307915,36.995132 L -105.220506,36.994974 L -105.119635,36.995395 L -105.029226,36.992727 L -105.000551,36.993262 L -104.875075,36.993298 L -104.755368,36.993515 L -104.644997,36.993379 L -104.614816,36.994129 L -104.429821,36.993751 L -104.408313,36.993474 L -104.338833,36.993535 L -104.250536,36.994644 L -104.215634,36.994754 L -104.007851,36.996134 L -103.868263,36.997145 L -103.796642,36.997431 L -103.733233,36.998008 L -103.625507,36.998629 L -103.500084,36.999097 L -103.342962,36.999436 L -103.239641,36.99963 L -103.08610202193547,37.00018991506236 L -103.002329,37.00015 L -102.986976,36.998524 L -102.875481,36.999628 L -102.815074,36.999774 L -102.752141,36.998341 L -102.698142,36.995149 L -102.651431,36.995047 L -102.57091,36.995134 L -102.375461,36.99458 L -102.285007,36.994152 L -102.260789,36.994388 L -102.208397,36.993731 L -102.077193,36.993084 L -102.042089,36.993016 L -102.042032,37.10514 L -102.041962,37.22191 L -102.04218,37.225661 L -102.041842,37.294754 L -102.041923,37.352659 L -102.041522,37.375021 L -102.04182,37.410149 L -102.04163550361773,37.44877457123486 L -102.042016,37.535261 L -102.041683,37.578556 L -102.041626,37.696699 L -102.042824,37.797113 L -102.043185,37.87502 L -102.044515,37.984575 L -102.044686,38.03901 L -102.044258,38.112946 L -102.0443,38.18744 L -102.044833,38.261283 L -102.04452654264311,38.349291262685604 L -102.044946,38.384358 L -102.044728,38.441346 L -102.045052,38.460822 L -102.044901,38.566687 L -102.045178,38.577142 L -102.045074,38.669617 L -102.045395,38.742217 L -102.045369,38.857566 L -102.046042,38.973214 L -102.0465696633364,39.04682046146722 L -102.047305,39.148122 L -102.047901,39.253122 L -102.049204,39.374988 L -102.049749,39.500134 L -102.049552,39.538895 L -102.050246,39.611015 L -102.05010200790386,39.65414656877002 L -102.050508,39.660936 L -102.050956,39.751023 L -102.051357,39.874991 L -102.051744,40.003078 L -102.051972,40.148349 L -102.051653,40.178873 L -102.051933,40.217428 L -102.051309,40.338381 L -102.051798,40.360069 L -102.051554,40.500023 L -102.051499,40.639483 L -102.05141,40.750643 L -102.05150373473529,40.8597253649637 L -102.051563,40.999127 L -102.051717,41.002359 L -102.209361,41.002442 L -102.228993,41.002274 L -102.344872,41.002189 L -102.360659,41.002428 L -102.43065,41.002447 L -102.556721,41.0022 L -102.621033,41.002597 L -102.625468,41.002354 L -102.735704,41.002213 L -102.773561,41.002419 L -102.827237,41.002143 L -102.849261,41.002321 L -102.981482,41.002112 L -103.002088,41.002486 L -103.038704,41.002251 L -103.210741,41.002247 L -103.323871,41.00182 L -103.365314,41.001846 L -103.396989,41.002558 L -103.413395,41.001912 L -103.486697,41.001914 L -103.534886,41.001421 L -103.57405038880437,41.001716005951266 L -103.669054,41.001442 L -103.687745,41.001781 L -103.76334,41.001468 L -103.796086,41.001765 L -103.971252,41.001533 L -104.023383,41.001887 L -104.053249,41.001406 Z" fill="none" stroke=currentColor stroke-width="1" vector-effect="non-scaling-stroke"/>
</svg>