<svg viewBox="-73.9218286 -42.2444796 2.328643200000002 1.4497140912528579" xmlns="http://www.w3.org/2000/svg">
  <path d="M -71.799188,42.008053 L -71.800671,42.023514 L -71.845712,42.023994 L -71.903251,42.024584 L -71.987648,42.026883 L -72.071826,42.027637 L -72.143228,42.030522 L -72.338849,42.032161 L -72.391907,42.032954 L -72.460119,42.034357 L -72.492319,42.034215 L -72.531549,42.034578 L -72.572778,42.030219 L -72.583951,42.024774 L -72.607169,42.025148 L -72.607978,42.031083 L -72.639759,42.032033 L -72.673032,42.035195 L -72.699405,42.036957 L -72.755894,42.036349 L -72.757301,42.033381 L -72.752598,42.028238 L -72.766253,42.007871 L -72.766733,42.003266 L -72.77469159330657,42.00238277761439 L -72.817053,41.997685 L -72.813784,42.036744 L -72.874505,42.037682 L -72.979038,42.038237 L -73.036802,42.039294 L -73.127228,42.042127 L -73.233362,42.045055 L -73.340544,42.048357 L -73.426168,42.050426 L -73.487319,42.049525 L -73.489615,42.000092 L -73.492235,41.967094 L -73.496526,41.922408 L -73.498295,41.892648 L -73.505254,41.824431 L -73.507083,41.800764 L -73.510961,41.758749 L -73.511921,41.740941 L -73.516785,41.687581 L -73.520027,41.640979 L -73.52106772021286,41.619825918329205 L -73.526001,41.571918 L -73.532692,41.497651 L -73.53631320085422,41.44696045899325 L -73.541102,41.406474 L -73.543416,41.376754 L -73.549088,41.325134 L -73.549866,41.301767 L -73.550962,41.295421 L -73.512948,41.250095 L -73.482695,41.212772 L -73.514179,41.198732 L -73.535884,41.188489 L -73.60019,41.159149 L -73.628796,41.146429 L -73.676774,41.124496 L -73.727775,41.100696 L -73.7063041348072,41.0740708211469 L -73.68296,41.045314 L -73.655255,41.012246 L -73.660268,41.000484 L -73.65896816379394,40.98881910874714 L -73.639885,41.003118 L -73.627086,41.001809 L -73.624943,41.00647 L -73.614722,41.008801 L -73.603952,41.015054 L -73.595699,41.015995 L -73.585115,41.005464 L -73.583968,41.000897 L -73.570068,41.001597 L -73.567668,41.010897 L -73.561968,41.016797 L -73.551494,41.024336 L -73.544845,41.025838 L -73.535338,41.03192 L -73.530189,41.028776 L -73.531215,41.02245 L -73.52306,41.020047 L -73.519238,41.024312 L -73.518496,41.031379 L -73.523292,41.036664 L -73.517279,41.039891 L -73.507958,41.038503 L -73.500582,41.046716 L -73.493947,41.048041 L -73.490473,41.044126 L -73.482823,41.046216 L -73.479086,41.036582 L -73.474383,41.049262 L -73.470487,41.054105 L -73.468977,41.060079 L -73.464661,41.060748 L -73.458905,41.05654 L -73.445849,41.05826 L -73.440841,41.055863 L -73.43325,41.055808 L -73.412932,41.071008 L -73.408416,41.071008 L -73.40785,41.081115 L -73.402474,41.086058 L -73.398196,41.081938 L -73.392967,41.082117 L -73.392162,41.087696 L -73.382787,41.0954 L -73.369199,41.095552 L -73.365396,41.097343 L -73.368249,41.107194 L -73.352671,41.101611 L -73.350351,41.106377 L -73.336409,41.111761 L -73.33066,41.109996 L -73.320875,41.115265 L -73.31363,41.116769 L -73.309101,41.114804 L -73.29861,41.120207 L -73.299003,41.124719 L -73.286759,41.127896 L -73.278752,41.125659 L -73.275116,41.121093 L -73.262388,41.118193 L -73.252619,41.124987 L -73.242565,41.128193 L -73.235058,41.143996 L -73.227569,41.143006 L -73.219741,41.15332 L -73.21551,41.14845 L -73.209402,41.154751 L -73.202656,41.158096 L -73.186186,41.159287 L -73.184359,41.164421 L -73.177774,41.166697 L -73.170701,41.164945 L -73.172196,41.159074 L -73.16479649818213,41.15690811573286 L -73.130253,41.146797 L -73.111052,41.150797 L -73.10302,41.151412 L -73.110352,41.159697 L -73.108005,41.168765 L -73.10133378808447,41.17398707750076 L -73.088843,41.187399 L -73.082045,41.192964 L -73.072963,41.197629 L -73.065948,41.198407 L -73.060836,41.205772 L -73.049598,41.21078 L -73.044724,41.209188 L -73.037941,41.201814 L -73.034895,41.206076 L -73.023297,41.207614 L -73.01475723720525,41.204719646388035 L -73.008387,41.210144 L -73.002548,41.222751 L -72.992042,41.223724 L -72.985586,41.235882 L -72.978347,41.23331 L -72.972039,41.237169 L -72.968901,41.243925 L -72.962062,41.251938 L -72.953154,41.255421 L -72.936192,41.259888 L -72.931305,41.262293 L -72.93178506505151,41.26917526442748 L -72.936413,41.273052 L -72.938108,41.281935 L -72.92874327410014,41.28164956092739 L -72.921881,41.289326 L -72.913087,41.296737 L -72.907621,41.296201 L -72.906194,41.283164 L -72.903099,41.277387 L -72.905359,41.270627 L -72.897496,41.265756 L -72.893432,41.258377 L -72.902727,41.252916 L -72.903429,41.248175 L -72.896703,41.245315 L -72.881509,41.243087 L -72.861058,41.245804 L -72.850421,41.250621 L -72.85001,41.255298 L -72.841794,41.259026 L -72.840532,41.253092 L -72.833959,41.250555 L -72.830937,41.259996 L -72.827621,41.264937 L -72.820667,41.259158 L -72.823572,41.256048 L -72.81124,41.250201 L -72.80656,41.25584 L -72.796528,41.260181 L -72.791093,41.259848 L -72.787283,41.264563 L -72.779444,41.265567 L -72.773569,41.263888 L -72.762057,41.267686 L -72.752166,41.26563 L -72.749603,41.259371 L -72.740131,41.262265 L -72.737041,41.257343 L -72.714789,41.261363 L -72.717256,41.255859 L -72.705788,41.259908 L -72.702618,41.255916 L -72.713242,41.248802 L -72.706139,41.243851 L -72.699081,41.247087 L -72.694744,41.24497 L -72.685539,41.251297 L -72.685071,41.258028 L -72.673216,41.26762 L -72.665667,41.270139 L -72.65453449954279,41.26576274234719 L -72.64197904020749,41.26695852152289 L -72.62401,41.271559 L -72.605291,41.271133 L -72.598197,41.268946 L -72.58282,41.271995 L -72.568467,41.266827 L -72.54412080985794,41.24883223064479 L -72.5366767254453,41.25164765628793 L -72.533247,41.26269 L -72.521312,41.2656 L -72.51802,41.257762 L -72.51031,41.256613 L -72.499534,41.265866 L -72.485693,41.270881 L -72.468102,41.269012 L -72.462256,41.274484 L -72.451925,41.278885 L -72.437966,41.278737 L -72.426161,41.274128 L -72.417699,41.278435 L -72.405718,41.276801 L -72.398688,41.278172 L -72.386629,41.261798 L -72.378573,41.264575 L -72.367617,41.263529 L -72.359063,41.268114 L -72.348101,41.270141 L -72.34261,41.268846 L -72.349316,41.284608 L -72.356446,41.291216 L -72.356208,41.299609 L -72.350504,41.31175 L -72.346463,41.311214 L -72.34171,41.296394 L -72.333894,41.282916 L -72.327595,41.27846 L -72.31776,41.277782 L -72.298804,41.27892 L -72.284687,41.280805 L -72.27798,41.284062 L -72.268805,41.28443 L -72.261487,41.282926 L -72.251323,41.289997 L -72.251895,41.29862 L -72.235735,41.30083 L -72.227536,41.298419 L -72.219763,41.293544 L -72.213132,41.291964 L -72.210387,41.285963 L -72.203684,41.287222 L -72.202294,41.294107 L -72.204022,41.299097 L -72.203022,41.313197 L -72.191022,41.323197 L -72.184122,41.323997 L -72.177622,41.322497 L -72.173922,41.317597 L -72.172715,41.309596 L -72.164401,41.303715 L -72.16158,41.310262 L -72.15632,41.313178 L -72.149665,41.310857 L -72.144041,41.30291 L -72.134221,41.299398 L -72.123044,41.301751 L -72.11182,41.299098 L -72.107782,41.302861 L -72.101358,41.303771 L -72.093097,41.309429 L -72.094443,41.314164 L -72.074104,41.318993 L -72.066956,41.318893 L -72.060535,41.312107 L -72.055068,41.312999 L -72.049123,41.319127 L -72.041527,41.318488 L -72.030262,41.312121 L -72.027497,41.316034 L -72.021898,41.316838 L -72.010838,41.307033 L -72.005143,41.306687 L -72.000678,41.318237 L -71.988153,41.320577 L -71.982194,41.329861 L -71.979447,41.329987 L -71.969266,41.321033 L -71.96244,41.321535 L -71.95413,41.327913 L -71.945652,41.337799 L -71.936284,41.337959 L -71.932663,41.333348 L -71.921206,41.327927 L -71.904655,41.327353 L -71.897962,41.333527 L -71.892665,41.33327 L -71.886302,41.33641 L -71.877521,41.336025 L -71.868727,41.327815 L -71.85957,41.322399 L -71.86051250785266,41.320249122596934 L -71.851923,41.324664 L -71.847709,41.329604 L -71.83728,41.335068 L -71.829365,41.342432 L -71.831303,41.351295 L -71.836044,41.353988 L -71.837633,41.365499 L -71.832069,41.369863 L -71.833527,41.382264 L -71.832591,41.386385 L -71.842211,41.395771 L -71.841068,41.399658 L -71.843591,41.405331 L -71.842029,41.410706 L -71.834107,41.411582 L -71.825384,41.414687 L -71.82033,41.419382 L -71.8129,41.419404 L -71.801726,41.415658 L -71.797747,41.416834 L -71.796388,41.449255 L -71.79316,41.505704 L -71.790972,41.561451 L -71.788213,41.621017 L -71.787239,41.656111 L -71.790554,41.750117 L -71.791066,41.77018 L -71.795863,41.877688 L -71.797894,41.932364 L -71.799188,42.008053 Z M -72.761427,41.242333 L -72.749871,41.247308 L -72.741058,41.252691 L -72.740299,41.256454 L -72.754658,41.255929 L -72.75886,41.253843 L -72.761427,41.242333 Z M -73.364244,41.088945 L -73.360141,41.08202 L -73.355089,41.083483 L -73.364244,41.088945 Z M -73.394189,41.067379 L -73.389993,41.064287 L -73.381887,41.072196 L -73.388181,41.073275 L -73.394189,41.067379 Z M -73.416886,41.053932 L -73.401532,41.053717 L -73.399815,41.062418 L -73.404774,41.06213 L -73.416886,41.053932 Z M -73.645767,40.996001 L -73.640819,40.989236 L -73.637457,40.992196 L -73.645767,40.996001 Z" fill="none" stroke=currentColor stroke-width="1" vector-effect="non-scaling-stroke"/>
</svg>