<?xml version="1.0"?>
<svg xmlns="http://www.w3.org/2000/svg" version="1.2" baseProfile="tiny" width="800" height="439" viewBox="0 0 800 439" stroke-linecap="round" stroke-linejoin="round">
<g id="state">
<path d="M 794.09 18.42 794.62 49.55 795.45 72.03 797.43 116.24 797.64 124.5 799 163.15 798.6 177.58 797.46 202.08 796.57 225 795.24 248.22 794.68 261.55 793.04 262.03 788.45 260.49 785.39 260.5 783.31 262.43 779.73 263.71 776.47 264.07 775.83 266.28 776.86 268.61 776.39 270.21 780.35 274.07 779.97 275.77 780.56 280.87 778.28 282.66 778.93 287.39 780.88 288.5 781.68 292.15 778.42 295.17 774.13 297.42 772.4 299.45 768.87 301.27 769.26 300.38 765.49 298.16 761.87 294.78 758.26 294.62 755.65 295.91 753.47 295.81 750.72 298.35 743.91 298.11 739.2 295.88 737.71 293.99 733.86 294.05 730.37 298.12 726.95 300.74 724.15 300.95 719.96 297.26 718.83 297.32 716.38 301.13 711.23 302.1 709.39 306.85 707.05 306.7 702.5 302.67 700.2 303 699.06 304.61 694.43 301.99 691.31 301.73 688.86 304.25 686.61 304.62 683.97 301.83 681.03 301.78 672.67 303.77 673.22 305.72 669.83 308.04 667.18 308.42 665.52 309.97 660.91 308.88 656.31 309.84 652.27 308.4 649.96 305.13 647.22 304.18 645.06 305.38 643.9 308.07 640.48 305.65 639.99 302.36 638.46 300.34 635.79 299.73 632.95 300.06 628.02 304.17 627.61 309.97 628.32 312.02 627.75 314.85 624.99 315.37 623.86 312.9 621.13 312.25 617.94 310.25 614.57 309.25 607.92 310.16 608.16 313.71 603.98 316.62 600.97 316 597.19 316.15 594.44 317.49 588.63 318.26 580.84 318.73 576.79 318.45 574.2 316.62 570.99 311.08 569.03 304.98 567.37 304.76 565.02 309.76 564.93 313.21 567.86 315.92 570.62 322.41 568.36 321.87 563.85 322.71 560.33 324.59 555.83 324.16 552.51 325.3 547.56 318.57 544.66 319.14 539.74 318.46 536.26 320.23 531.4 318.34 525.66 318.28 521.42 320.09 519.01 322.34 511.78 321.57 506.09 323.63 501.65 327.44 498.48 326.96 497.13 323.74 492.22 324.94 490.81 329.48 487.75 330.64 477.74 323.24 471.84 321.11 465.51 322.37 462.6 321.47 454.9 321.29 447.51 323.18 442.35 323.67 437.77 321.87 434.66 322.91 429.79 326.86 429.6 329.62 425.81 332.22 424.03 331.35 421.12 332.69 418.2 330.65 422.57 327.72 421.27 326.08 416.55 327.75 417.57 325.48 408.42 327.14 407.15 325.11 403.25 326.3 402.2 323.73 398.13 322.88 393.39 324.45 390.98 323.75 387.76 324.17 386.19 326.11 383.95 325.97 379.83 327.75 377.9 330.07 372.83 327.67 374.03 326.39 371.17 324.01 369.8 326.05 368.56 329.93 365.86 328.88 365.34 326.44 361.96 327.98 361.79 329.9 357.42 331.88 349.01 333 342.76 332.08 339.99 330.91 340.28 328.96 344.1 326.71 342.43 323.68 339.2 321.67 340.13 318.89 338.86 316.52 338.27 311.16 336.02 310.94 332.41 313.98 329.58 317.14 325.73 317.02 326.43 320.68 328.33 322.27 328.53 325.1 326.52 326.09 319.54 327.93 315.88 329.36 313.07 332.65 311.78 335.43 309.18 337.02 306.21 335.96 303.55 340.96 299.23 341.36 296.83 346.55 294.21 348.78 290.7 347.59 285.93 348.22 284.68 349.97 281.89 346.94 279.88 346.28 275.26 348.34 273.16 351.37 270.28 351.69 266.54 353.61 263.75 355.9 258.61 361.41 255.87 363.56 254.9 367.29 257.92 370.7 254.61 370.95 246.72 372.6 232.51 368.44 229.47 367.55 230.08 365.13 227.18 364.41 224.47 365.35 223.72 367.46 216.94 367.95 214.17 369.33 211.66 371.92 209.92 369.91 206.7 374.16 203.62 373.75 200.53 380.25 196.4 381.57 192.38 384.36 187.15 383.17 185.65 381.29 182.36 380.37 177.32 381.68 177.48 383.53 173.17 385.75 171.31 384.94 168.33 385.56 164.3 387.73 161.94 387 156.21 389.22 155.25 391.18 148.85 388.88 150.02 392.93 148.46 393.67 142.87 393.73 139.01 396.9 138.68 399.19 136.53 399.27 134.77 397.57 132.56 399.61 132.33 403.76 130.47 403.76 122.12 410.01 118.99 409.99 116.94 409.01 111.57 409.71 109.2 407.98 107.42 408.26 106.8 410.71 105.2 412.71 103.27 417.92 101.73 413.96 98.58 414.82 97.16 413.21 94.43 413.75 91.39 417.13 87.56 416.56 85.09 417.89 87.06 420.06 86.76 422.97 85.18 424.72 81.83 423.73 82.25 421.13 80.14 419.84 76.23 422.34 73.49 422.96 69.18 426.06 66.84 428.48 65.85 432.31 60.14 432.59 59.67 430.72 55.31 426.39 51.92 426.77 47.49 429.34 43.29 430.3 42.41 432.22 37.14 431.68 29.3 437.56 28.76 432.76 30.82 427.93 19.43 414.33 9.83 402.5 1 391.55 21.97 381.77 41.7 372.75 53.47 367.52 79.91 355.45 88.84 351.24 101.78 345.47 89.34 330.12 73.71 311.48 74.16 308.87 74.48 299.26 76.81 278.03 77.76 265.81 79.73 249.16 81.22 228.32 83.97 197.78 86 178.07 86.43 169.38 87.76 150.21 89.76 128.27 90.16 120.95 91.75 103.67 92.51 93.94 95.37 65.88 96.1 53.64 97.86 35.27 98.94 21.7 99.88 1.37 125.03 1 160.24 1.85 204.32 3.21 247.96 4.41 285.15 5.58 308.9 6.01 351.89 6.24 376.86 6.63 375.51 22.69 392.93 20.76 396.21 20.39 396.4 18.5 402.02 10.12 400.08 8.01 400.66 6.79 423.89 6.54 434.74 7.26 448.42 8.56 461.49 8.95 461.82 11.39 471.37 11.55 475.97 9.31 492.92 7.52 509.05 7.67 522.29 7.61 550.34 8.18 572.16 8.51 652.61 9.19 681.97 10.37 716.59 10.68 751.29 11.63 774.95 11.87 793.48 12.07 794.09 18.42 Z M 398.39 333.31 399.44 328.58 401.17 327.72 407.08 327.5 406.76 329.05 403.14 331.26 398.39 333.31 Z M 150.49 396.39 154.26 398.63 152.18 399.23 150.49 396.39 Z M 138.18 405.26 140.65 402.83 143.24 403.27 139.9 406.53 138.18 405.26 Z M 128.85 410.78 133.83 407.41 135.87 407.3 135.16 410.87 128.85 410.78 Z M 34.72 434.61 38.14 436.17 36.76 437.39 34.72 434.61 Z" fill-rule="evenodd" fill="none" stroke="currentColor" stroke-width="1"/>
</g>
</svg>