<?xml version="1.0"?>
<svg width="200" height="200" xmlns="http://www.w3.org/2000/svg" version="1.2" baseProfile="tiny" viewBox="-64.000 -173.500 928.000 928.000" stroke-linecap="round" stroke-linejoin="round">
<g id="state">
<path vector-effect="non-scaling-stroke" d="M 791.99 23.08 792.98 64.4 794.13 94.25 796.74 152.92 797.07 163.87 799 215.18 798.81 234.35 798.05 266.88 797.48 297.32 796.5 328.15 796.14 345.86 794.51 346.52 789.89 344.53 786.84 344.57 784.79 347.16 781.23 348.89 777.97 349.4 777.36 352.34 778.43 355.43 777.99 357.56 781.99 362.64 781.63 364.89 782.3 371.66 780.04 374.06 780.76 380.34 782.73 381.79 783.58 386.62 780.36 390.67 776.1 393.7 774.4 396.42 770.89 398.86 771.26 397.69 767.46 394.77 763.8 390.32 760.18 390.15 757.58 391.89 755.4 391.77 752.68 395.17 745.87 394.92 741.12 392.01 739.61 389.5 735.76 389.63 732.32 395.06 728.93 398.57 726.12 398.87 721.89 394.02 720.76 394.1 718.35 399.19 713.21 400.51 711.42 406.83 709.08 406.66 704.48 401.35 702.18 401.81 701.06 403.95 696.39 400.51 693.26 400.19 690.84 403.56 688.6 404.06 685.93 400.38 682.98 400.35 674.63 403.05 675.21 405.63 671.83 408.74 669.19 409.26 667.54 411.33 662.91 409.91 658.32 411.23 654.26 409.34 651.91 405.02 649.17 403.77 647.01 405.38 645.87 408.96 642.43 405.77 641.9 401.41 640.36 398.74 637.68 397.94 634.85 398.39 629.94 403.89 629.58 411.59 630.31 414.31 629.76 418.07 627 418.77 625.85 415.5 623.12 414.66 619.9 412.02 616.52 410.72 609.87 411.97 610.13 416.67 605.97 420.56 602.95 419.75 599.17 419.97 596.42 421.77 590.61 422.83 582.81 423.49 578.76 423.14 576.15 420.72 572.9 413.38 570.9 405.29 569.24 405.01 566.92 411.65 566.84 416.23 569.8 419.82 572.6 428.42 570.33 427.72 565.82 428.85 562.31 431.37 557.79 430.82 554.48 432.35 549.48 423.43 546.59 424.19 541.65 423.31 538.17 425.68 533.3 423.18 527.55 423.12 523.3 425.54 520.91 428.53 513.66 427.53 507.96 430.29 503.54 435.35 500.36 434.74 498.99 430.46 494.08 432.06 492.68 438.09 489.62 439.64 479.57 429.84 473.65 427.03 467.32 428.7 464.39 427.51 456.68 427.29 449.29 429.81 444.11 430.47 439.53 428.09 436.42 429.47 431.54 434.71 431.35 438.38 427.56 441.84 425.77 440.69 422.86 442.45 419.94 439.75 424.31 435.87 423 433.69 418.28 435.9 419.29 432.89 410.13 435.09 408.85 432.4 404.95 433.99 403.9 430.57 399.82 429.45 395.08 431.52 392.66 430.6 389.43 431.15 387.86 433.72 385.62 433.54 381.49 435.91 379.56 438.98 374.48 435.79 375.68 434.09 372.81 430.93 371.45 433.63 370.2 438.78 367.49 437.39 366.97 434.15 363.59 436.19 363.41 438.74 359.03 441.36 350.6 442.83 344.34 441.61 341.57 440.04 341.86 437.45 345.7 434.48 344.03 430.45 340.8 427.78 341.73 424.09 340.46 420.94 339.89 413.82 337.64 413.52 334.01 417.56 331.18 421.75 327.32 421.58 328.01 426.43 329.91 428.55 330.1 432.31 328.08 433.62 321.09 436.04 317.42 437.94 314.59 442.3 313.28 445.99 310.68 448.09 307.7 446.68 305.02 453.31 300.69 453.83 298.26 460.7 295.62 463.65 292.11 462.06 287.32 462.89 286.06 465.21 283.28 461.18 281.27 460.3 276.63 463.02 274.51 467.03 271.61 467.44 267.86 469.98 265.04 473 259.86 480.31 257.1 483.15 256.11 488.09 259.11 492.63 255.8 492.95 247.87 495.1 233.64 489.51 230.59 488.32 231.22 485.11 228.31 484.14 225.58 485.37 224.82 488.17 218.02 488.79 215.22 490.6 212.69 494.03 210.95 491.36 207.69 496.97 204.61 496.41 201.46 505.02 197.3 506.75 193.24 510.43 188 508.82 186.51 506.32 183.21 505.08 178.15 506.78 178.3 509.24 173.95 512.16 172.08 511.08 169.09 511.88 165.03 514.73 162.66 513.75 156.88 516.65 155.91 519.25 149.49 516.15 150.63 521.54 149.06 522.51 143.44 522.55 139.54 526.73 139.19 529.77 137.03 529.85 135.28 527.59 133.03 530.27 132.76 535.79 130.89 535.77 122.43 544 119.3 543.95 117.24 542.62 111.83 543.52 109.47 541.2 107.69 541.55 107.04 544.81 105.4 547.44 103.4 554.35 101.9 549.07 98.73 550.19 97.31 548.04 94.56 548.74 91.48 553.19 87.63 552.4 85.13 554.14 87.09 557.04 86.75 560.9 85.14 563.21 81.78 561.87 82.24 558.42 80.13 556.69 76.17 559.97 73.41 560.77 69.04 564.84 66.65 568.04 65.61 573.11 59.86 573.43 59.41 570.94 55.09 565.14 51.67 565.62 47.18 568.99 42.94 570.22 42.03 572.76 36.75 571.99 28.77 579.71 28.3 573.34 30.44 566.94 19.18 548.77 9.71 532.96 1 518.33 22.2 505.57 42.13 493.8 54 486.98 80.68 471.21 89.68 465.7 102.73 458.15 90.43 437.66 75 412.78 75.48 409.31 75.92 396.56 78.52 368.4 79.62 352.18 81.79 330.1 83.52 302.44 86.63 261.92 88.89 235.78 89.42 224.23 90.97 198.8 93.22 169.69 93.7 159.97 95.48 137.04 96.34 124.13 99.51 86.91 100.37 70.66 102.33 46.28 103.55 28.27 104.72 1.29 129.61 1 164.45 2.39 208.06 4.46 251.25 6.27 288.05 7.96 311.56 8.61 354.11 9 378.83 9.54 377.48 30.86 394.73 28.31 397.97 27.83 398.17 25.31 403.73 14.19 401.82 11.38 402.39 9.76 425.38 9.43 436.12 10.38 449.67 12.09 462.61 12.59 462.94 15.83 472.39 16.02 476.94 13.04 493.72 10.62 509.69 10.77 522.79 10.65 550.56 11.32 572.16 11.65 651.8 12.08 680.88 13.44 715.16 13.56 749.53 14.5 772.96 14.58 791.3 14.65 791.99 23.08 Z M 400.08 443.29 401.14 437 402.87 435.86 408.79 435.58 408.47 437.63 404.84 440.57 400.08 443.29 Z M 151.08 526.13 154.84 529.14 152.75 529.92 151.08 526.13 Z M 138.62 537.81 141.13 534.61 143.72 535.22 140.34 539.51 138.62 537.81 Z M 129.19 545.08 134.23 540.64 136.28 540.5 135.53 545.25 129.19 545.08 Z M 34.27 575.85 37.69 577.96 36.28 579.57 34.27 575.85 Z" fill-rule="evenodd" fill="none" stroke="currentColor" stroke-width="1"/>
</g>
</svg>