<?xml version="1.0"?>
<svg xmlns="http://www.w3.org/2000/svg" version="1.2" baseProfile="tiny" width="800" height="1500" viewBox="0 0 800 1500" stroke-linecap="round" stroke-linejoin="round">
<g id="state">
<path d="M 251.71 252.31 245.46 252.98 239.38 244.29 235.7 236.18 235.98 230.3 248.23 227.02 251.68 221.52 261.44 215.46 267 209.54 274.44 208.25 283.51 198.92 276.19 207.87 267.07 210.17 260.19 218.19 254.04 220.62 248.95 226.83 248.1 231.76 251.71 252.31 Z M 1 127.34 16.48 127.34 25.37 110.17 39.7 88.83 48.64 78.29 61.54 65.44 81.57 49.38 107.65 33.37 125.42 24.86 151.04 15.3 167.97 10.5 185.11 6.72 210 2.92 235.57 1 269.65 1.48 304.27 5.55 332.82 11.77 351.84 17.5 366.19 22.75 384.32 30.63 395.32 36.17 398.59 38.24 394.98 36.27 346.34 58 322.89 92.19 302.53 129.62 245.2 198 237.88 198.23 218.34 204.15 191.56 235.48 188.37 241.97 192.23 248.2 189.59 252.5 191.66 261.98 200.61 271.09 205.82 270.92 218.92 281.97 244.35 299.92 241.55 303.95 237.53 323.28 236.45 337.7 234.29 348.62 229.89 357.15 217.71 371 217.62 377.51 211.95 389.53 212.75 402.05 215.87 409.35 225.85 420.17 233.52 426.01 234.86 432.99 252.06 442.21 270.81 457.15 273.55 464.83 286.92 484.04 289.42 494.75 295.32 498.32 298.34 511.47 306.67 519.01 318.66 523.92 321.21 526.91 318.7 532.59 322.74 536.65 334.55 540.75 333.98 543.38 345.46 549.59 355.06 552.38 360.51 556.17 363.27 562.96 368.4 566.14 378.14 568.41 380.4 572.73 379.69 584.58 382.73 592.99 401.08 611.73 402.89 615.74 410.54 621.54 413.58 628.04 410.15 635.6 410.81 644.3 414.81 647.24 412.67 662.97 413.84 666.84 421.04 673.67 421.04 681.06 423.39 685.85 422.66 697.23 420.09 705.35 411.33 718.11 409.17 724.02 408.78 737.94 405.84 741.12 406.86 747.29 412.13 761.84 411.48 774.34 420.45 799.61 416.86 821.7 418.05 834.35 424.26 844.06 433.29 851.3 441.96 853.87 450.93 860.16 463.28 871.08 478.76 879.69 484.02 884.98 508.33 919.25 512.01 927.25 515.61 941.43 514.6 961.23 515.68 966.24 510.97 971.54 509.69 978.32 514.89 987.86 523.74 1000.2 549.42 1022.65 556.87 1031.8 567.93 1038.83 601.47 1074.54 630.27 1097.05 646.22 1114.88 680.23 1132.87 707.21 1141.44 729.53 1140.63 747.04 1134.47 751.15 1124.86 744.84 1118.48 752.53 1118.08 755.27 1125.31 763.17 1152.32 766.33 1188.92 781.12 1272.22 781.44 1303.11 785 1328.49 787.03 1329.74 798.13 1460.64 799 1498.53 703.84 1498.62 600.74 1498.57 451.65 1497.48 426.97 1497.6 300.66 1495.23 202.45 1492.6 103.41 1489.02 91.18 1333.27 79.66 1186.95 72.79 1100.31 64.39 994.27 57.81 911.51 47.85 786.83 37.79 661.15 31.39 581.46 20.86 451.08 12.9 352.85 1.08 207.25 1 127.34 Z M 301.1 172.57 299.21 181.75 292.63 190.64 284.2 198.03 292.57 190.23 299.69 179.01 301.1 172.57 Z M 226.36 261.46 241.35 269.31 239.33 274.58 230.98 272 226.36 261.46 Z" fill-rule="evenodd" fill="none" stroke="currentColor" stroke-width="1"/>
</g>
</svg>