<svg viewBox="-75.9274089 -39.9781189 1.017282585877311 1.6657547999999949" xmlns="http://www.w3.org/2000/svg">
  <path d="M -75.55621597018768,39.60636969708756 L -75.559566,39.625418 L -75.558773,39.629987 L -75.554055,39.635745 L -75.54835730392027,39.63799602482281 L -75.541978,39.645425 L -75.533524,39.647557 L -75.52674244618568,39.65585517534004 L -75.535144,39.647212 L -75.542045,39.646012 L -75.547197,39.640528 L -75.556246,39.634912 L -75.559446,39.629812 L -75.570798,39.626768 L -75.571054,39.621318 L -75.567641,39.613802 L -75.562005,39.605745 L -75.55621597018768,39.60636969708756 Z M -75.788596,39.722199 L -75.788521,39.648133 L -75.777569,39.513182 L -75.770186,39.422134 L -75.760431,39.30128 L -75.754494,39.227418 L -75.745172,39.110931 L -75.735941,38.995361 L -75.729841,38.918655 L -75.722055,38.820367 L -75.715684,38.740062 L -75.705007,38.604442 L -75.69367,38.46008 L -75.601871,38.456761 L -75.510843,38.454323 L -75.39377,38.452127 L -75.370891,38.452238 L -75.232706,38.451226 L -75.137146,38.451177 L -75.0489392141227,38.4512616197572 L -75.049748,38.486387 L -75.060032,38.607709 L -75.06192,38.608869 L -75.065217,38.632394 L -75.06551,38.66103 L -75.079221,38.738238 L -75.082153,38.772157 L -75.089473,38.797198 L -75.092014,38.803902 L -75.099144,38.803531 L -75.093295,38.797618 L -75.097103,38.788703 L -75.113331,38.782998 L -75.134022,38.782242 L -75.159022,38.790193 L -75.190552,38.806861 L -75.205329,38.823386 L -75.232029,38.844254 L -75.263115,38.877351 L -75.273363,38.883873 L -75.280272,38.892352 L -75.304078,38.91316 L -75.312282,38.924594 L -75.317096,38.93344 L -75.315908,38.939725 L -75.311542,38.944633 L -75.312546,38.94928 L -75.311607,38.967637 L -75.314951,38.980775 L -75.318354,38.988191 L -75.34089,39.01996 L -75.345763,39.024857 L -75.360116,39.032838 L -75.371562,39.04296 L -75.379873,39.04879 L -75.387914,39.051174 L -75.396277,39.057884 L -75.402035,39.066885 L -75.403136,39.078611 L -75.399809,39.099088 L -75.408128,39.12251 L -75.407528,39.134096 L -75.412406,39.147582 L -75.413357,39.153296 L -75.410625,39.156246 L -75.410267,39.169145 L -75.408266,39.174625 L -75.400144,39.186456 L -75.397766,39.193977 L -75.397085,39.20453 L -75.399264,39.208962 L -75.399264,39.21582 L -75.405937,39.22215 L -75.407026,39.225737 L -75.405037,39.240316 L -75.408745,39.243041 L -75.409363,39.251103 L -75.406178,39.258113 L -75.408996,39.264133 L -75.416093,39.269507 L -75.417763,39.273224 L -75.434775,39.290593 L -75.437593,39.298388 L -75.436936,39.309379 L -75.439027,39.313384 L -75.448058,39.315487 L -75.452811,39.318429 L -75.45537,39.324729 L -75.460423,39.328236 L -75.469324,39.33082 L -75.479963,39.336577 L -75.479432,39.33902 L -75.490377,39.342818 L -75.494122,39.34658 L -75.491797,39.351845 L -75.494158,39.354613 L -75.505276,39.359169 L -75.512996,39.366153 L -75.515797,39.378347 L -75.521263,39.381654 L -75.523583,39.391583 L -75.535977,39.409384 L -75.538512,39.416502 L -75.55589,39.430351 L -75.57183,39.438897 L -75.573077,39.445373 L -75.580185,39.450786 L -75.589439,39.460812 L -75.592329,39.467578 L -75.593068,39.479186 L -75.587814,39.490327 L -75.587729,39.496353 L -75.576436,39.509195 L -75.572364,39.517101 L -75.570362,39.527223 L -75.569359,39.540589 L -75.565636,39.558509 L -75.563034,39.56224 L -75.586608,39.57888 L -75.598747,39.589122 L -75.603584,39.58896 L -75.611873,39.597408 L -75.613793,39.606192 L -75.611344,39.610183 L -75.614929,39.615952 L -75.611969,39.621968 L -75.587147,39.651012 L -75.569037,39.656494 L -75.562246,39.656712 L -75.509113,39.720089 L -75.490243,39.754787 L -75.468502,39.786474 L -75.423416,39.806615 L -75.42007389258558,39.804785358974115 L -75.423104,39.806709 L -75.433298,39.811838 L -75.450106,39.819148 L -75.463409,39.824008 L -75.481039,39.829319 L -75.507499,39.835091 L -75.539585,39.838863 L -75.571175,39.839306 L -75.59488,39.837525 L -75.617948,39.834 L -75.633831,39.830504 L -75.649527,39.826053 L -75.673269,39.817195 L -75.68974,39.809301 L -75.713918,39.794464 L -75.732482,39.779574 L -75.744442,39.767668 L -75.752727,39.757893 L -75.766009,39.738114 L -75.77425147452453,39.722199957350696 L -75.788596,39.722199 Z M -75.51044004745216,39.68028237860313 L -75.511743,39.674313 L -75.518343,39.663913 L -75.52609992008387,39.65668142080255 L -75.51828926976101,39.66353123190452 L -75.51219,39.671767 L -75.51044004745216,39.68028237860313 Z M -75.579709,39.597892 L -75.575426,39.58812 L -75.567689,39.58573 L -75.565823,39.590608 L -75.579709,39.597892 Z" fill="none" stroke=currentColor stroke-width="1" vector-effect="non-scaling-stroke"/>
</svg>