<?xml version="1.0"?>
<svg width="200" height="200" xmlns="http://www.w3.org/2000/svg" version="1.2" baseProfile="tiny" viewBox="-715.340 -153.840 2230.680 2230.680" stroke-linecap="round" stroke-linejoin="round">
<g id="state">
<path vector-effect="non-scaling-stroke" d="M 249.46 323.42 243.26 324.28 237.25 313.12 233.61 302.71 233.9 295.16 246.05 290.97 249.49 283.92 259.19 276.16 264.71 268.58 272.09 266.93 281.1 254.98 273.83 266.45 264.78 269.39 257.94 279.66 251.84 282.77 246.78 290.73 245.92 297.05 249.46 323.42 Z M 1.34 162.4 16.68 162.46 25.57 140.47 39.87 113.15 48.77 99.65 61.6 83.22 81.49 62.68 107.37 42.23 124.98 31.35 150.35 19.16 167.12 13.04 184.08 8.24 208.7 3.42 234 1 267.71 1.67 301.94 6.93 330.17 14.94 348.98 22.3 363.17 29.04 381.11 39.16 391.99 46.26 395.22 48.92 391.65 46.39 343.51 74.25 320.26 118.09 300.05 166.1 243.12 253.74 235.85 254.03 216.46 261.58 189.82 301.72 186.63 310.04 190.45 318.03 187.82 323.55 189.85 335.71 198.7 347.43 203.88 347.21 216.85 361.41 242.06 384.49 239.27 389.65 235.24 414.44 234.13 432.94 231.96 446.94 227.58 457.88 215.43 475.63 215.33 483.97 209.66 499.38 210.42 515.44 213.51 524.81 223.41 538.71 231.02 546.21 232.35 555.18 249.43 567.03 268.06 586.23 270.77 596.08 284.04 620.73 286.52 634.48 292.39 639.06 295.38 655.94 303.66 665.62 315.6 671.93 318.13 675.76 315.63 683.05 319.65 688.26 331.41 693.52 330.83 696.9 342.26 704.88 351.83 708.46 357.26 713.32 360 722.04 365.11 726.11 374.82 729.02 377.07 734.57 376.36 749.78 379.39 760.57 397.68 784.61 399.48 789.75 407.11 797.19 410.14 805.52 406.72 815.22 407.38 826.38 411.37 830.15 409.24 850.32 410.41 855.29 417.59 864.05 417.6 873.54 419.94 879.67 419.21 894.28 416.65 904.68 407.91 921.06 405.75 928.64 405.37 946.49 402.43 950.58 403.45 958.48 408.71 977.15 408.06 993.18 417.04 1025.59 413.45 1053.93 414.64 1070.16 420.86 1082.62 429.89 1091.9 438.56 1095.2 447.54 1103.26 459.9 1117.26 475.4 1128.29 480.66 1135.07 505.04 1179.01 508.73 1189.27 512.36 1207.44 511.37 1232.85 512.47 1239.28 507.76 1246.08 506.48 1254.77 511.7 1267.01 520.59 1282.82 546.37 1311.58 553.86 1323.31 564.96 1332.31 598.68 1378.05 627.64 1406.87 643.69 1429.7 677.9 1452.67 705.01 1463.59 727.42 1462.48 744.97 1454.52 749.05 1442.17 742.68 1434.01 750.4 1433.47 753.19 1442.74 761.24 1477.36 764.59 1524.29 779.86 1631.07 780.33 1670.7 784.03 1703.24 786.09 1704.84 797.93 1872.67 799 1921.28 703.02 1921.73 599.03 1921.92 448.67 1920.71 423.77 1920.87 296.39 1917.79 197.35 1914.26 97.48 1909.42 85.77 1709.62 74.79 1521.91 68.25 1410.76 60.29 1274.71 54.07 1168.54 44.68 1008.57 35.23 847.32 29.22 745.08 19.39 577.78 11.97 451.74 1 264.91 1.34 162.4 Z M 298.57 221.19 296.69 232.97 290.15 244.36 281.79 253.83 290.1 243.83 297.17 229.45 298.57 221.19 Z M 224.29 335.11 239.14 345.22 237.13 351.97 228.85 348.65 224.29 335.11 Z" fill-rule="evenodd" fill="none" stroke="currentColor" stroke-width="1"/>
</g>
</svg>