<?xml version="1.0"?>
<svg width="20" height="20" xmlns="http://www.w3.org/2000/svg" version="1.2" baseProfile="tiny" viewBox="-66.320 -64.320 932.640 932.640" stroke-linecap="round" stroke-linejoin="round">
<g id="state">
<path d="M 9.07 88.48 9.09 88.06 11.05 87.69 16.15 86.48 16.47 85.17 14.86 85.51 13.79 85.4 12.89 85.74 11.71 85.64 10.82 85.28 10.63 84.84 10.81 83.28 11.34 82.71 12.41 82.51 14.32 82.53 15.48 82.17 16.64 80.82 16.61 79 16.95 78.02 17.67 77.44 18.18 76.67 18.01 75.48 18.73 74.79 19.14 73.91 19.64 73.43 20.4 73.34 21.59 73.56 22.11 73.41 23.04 72.53 23.92 72.29 25.79 71 26.1 69.98 25.74 69.18 24.67 68.73 23.55 68.48 23.03 68.57 22.22 68.25 21.83 67.76 21.2 67.65 19.73 65.95 19.67 65.24 19.17 64.71 19.81 62.79 18.92 61.52 18.1 61.01 18.23 59.58 18.5 58.78 19.03 58.52 19 57.87 19.68 56.7 20.52 55.88 20.67 55.27 21.55 54.59 21.89 53.65 22.3 53.49 22.46 52.72 22.78 52.36 23.16 49.98 23.94 49.65 24.39 48.61 24.22 48.35 24.62 47.17 24.48 46.08 24.65 45.39 24.39 44.63 24.44 43.8 23.85 43.5 23.9 42.55 23.59 42.34 23.58 41.36 21.69 40.17 21.21 39.58 20.13 39.23 19.22 38.13 18.26 38.21 17.43 37.82 16.74 37.27 16.34 36.22 15.96 35.71 14.29 35.28 13.79 34.99 12.61 33.58 11.14 32.38 10.61 31.48 10.6 30.05 9.63 28.65 9.8 27.91 9.25 27.53 9.17 26.99 8.56 26.52 7.93 25.62 7.14 25.1 6.62 24.02 6.13 23.51 5.05 23.05 4.25 22.36 3.95 21.11 2.83 20.7 2.69 19.97 1.77 19.12 1.94 18.16 1.69 17.47 1 16.69 1.71 15.01 2.68 14.22 2.6 12.96 3.29 12.47 3.72 11.13 4.98 8.47 5.33 8.21 6.15 6.6 6.53 4.9 6.14 3.45 6.28 3.14 5.89 2.26 5.72 1 14.49 1.51 17.75 1.63 23.82 2.03 24.93 2.05 31.14 2.44 32.95 2.49 35.63 2.7 35.71 2.63 41.92 3.04 43.39 3.3 48.48 3.36 53.6 3.5 55.24 3.68 55.88 3.64 62.55 4.05 67.81 4.3 68.45 4.42 75.52 4.91 79.91 5.14 93.84 6 97.15 6.19 99.13 6.52 104.49 6.8 106.56 6.87 112.74 7.18 113.87 7.21 118.37 7.67 123.99 7.87 132.11 8.23 134.12 8.29 139.54 8.59 142.53 8.79 145.92 8.93 147.8 8.96 153.14 9.25 158.82 9.6 160.01 9.71 166.28 10 166.84 9.96 172.68 10.26 172.96 10.3 185.38 10.77 198.78 11.2 198.82 11.14 206.48 11.43 219.09 11.86 225.08 12.04 238.49 12.36 248.6 12.57 251.64 12.61 259.9 12.91 270.92 13.37 276.79 13.56 276.72 15.23 276.34 16.08 276.51 16.85 278.26 17.52 278.92 18.32 278.96 19.3 278.67 20.15 278.48 21.47 278.78 21.88 279.72 22.41 280.16 23.8 281.23 25.01 281.86 26.27 282.56 27.37 283.31 27.85 283.31 28.39 282.81 29.1 282.87 29.53 283.48 30.19 283.13 30.76 283.33 31.81 284.02 32.53 283.96 33.42 283.43 33.49 283.03 34.02 282.86 35.87 283.44 36.86 283.73 37.69 283.64 38.97 284.65 40.83 284.39 42.31 284.89 42.89 284.93 43.77 285.26 44.11 286.67 44.14 287.56 45.14 288 46.4 288.89 47.11 289.62 48.15 289.95 49.08 292.91 49.28 301.93 50.1 312.96 51.01 316.92 51.39 324.17 52.01 330.7 52.69 336.31 53.03 341.1 53.37 347.31 53.93 354.11 54.44 367.21 55.55 369.31 55.77 372.66 56.01 382.8 56.9 389.21 57.44 392.82 57.72 400.23 58.39 407.02 58.97 414.01 59.56 419.43 60.05 432.49 61.1 434.57 61.33 443.81 62.11 452.41 62.89 458.76 63.47 467.65 64.23 470.99 64.57 476.94 65.05 489 66.07 496.52 66.72 498.48 66.87 510.86 67.97 513.12 68.12 516.19 68.4 526.95 69.25 528.2 69.39 534.15 69.86 545.46 70.8 555.72 71.67 566.81 72.65 566.53 73.06 565.85 73.04 564.76 73.95 564.72 75.02 564.31 75.33 564.08 76.35 564.24 76.81 565.07 77.69 565.11 78.81 565.65 80 566.48 80.48 567.59 81.86 568.11 82.76 568.12 84.02 567.4 85.74 567.73 86.36 567.71 87.9 567.04 89.94 567.47 91 567.43 91.56 567.79 92.62 567.82 93.19 568.45 94.47 568.82 94.51 568.88 95.62 569.12 95.93 569.72 95.63 570.21 96.87 570.87 97.35 571.06 97.93 572.1 98.19 574.39 97.36 574.98 97.71 575.94 97.17 576.67 97.45 578.05 96.93 579.12 97.91 579.59 97.86 580.67 98.14 581.39 97.85 582.18 98.26 582.95 98.14 583.82 97.75 585.17 96.63 585.02 94.55 584.43 92.7 584.63 91.28 585.52 90.83 585.31 88.61 586.18 87.56 586.21 86.58 586.81 85.85 586.64 85.39 587.41 84.16 587.21 83.21 587.47 82.49 587.36 81.97 587.62 81.17 587.42 80.89 587.68 79.8 587.6 78.72 587.27 77.2 587.85 76 587.88 75.11 588.36 74.59 588.15 73.93 588.59 73.67 588.43 72.77 588.65 71.81 587.97 70.22 588.03 69.86 587.59 68.75 586.48 68.17 586.57 67.38 586.34 66.59 585.8 65.41 585.25 64.92 585.32 64.08 584.97 63.04 584.25 62.34 584.51 61.68 584.18 59.74 584.84 58.87 585.11 57.98 585.04 57.38 585.68 56.19 585.37 55.15 585.27 53.96 584.75 53.74 585.38 52.59 585.23 52.11 585.32 51.22 585.64 50.36 586.11 50.8 587.67 50.28 587.37 50.03 588.28 49.48 587.86 48.18 587.04 46.88 587.19 46.29 587.78 45.9 589.15 45.88 589.98 46.48 590.71 47.29 591.87 47.7 592.39 47.33 592.82 45.86 593.47 45.32 593.53 44.82 593.19 44.07 593.47 43.91 593.26 42.89 593.79 42.33 594.79 41.57 595.58 41.84 596.12 41.45 596.47 42.45 597.05 42.84 598.07 42.8 598.9 43.04 599.38 42.94 599.55 42.45 599.24 41.91 599.89 41.36 600.93 42.28 600.89 42.99 601.59 43.68 601.87 44.99 603.06 45.3 603.25 45.85 604.88 45.63 605.38 46.01 606.22 46.17 606.28 46.64 607.27 46.31 607.95 46.61 608.43 46.25 609.71 46.25 610.35 46.96 611.03 46.6 612.05 48.24 611.78 48.73 612.19 49.13 612.32 49.73 613.27 49.47 613.14 48.97 613.52 47.84 614.39 48.02 614.75 48.61 615.6 49.06 616.55 49.31 616.6 50.16 617.46 50.51 617.43 51.13 618.05 51.54 618.92 51.78 619.92 51.41 620.71 51.68 621.61 51.46 622.06 52.21 622.89 52.19 623.57 52.54 624.02 52.24 623.86 51.5 623 51.81 622.59 51.34 623.13 51.04 624 50.98 624.65 50.66 625 51 624.63 51.69 624.9 52.12 625.5 51.88 625.87 52.32 625.61 53.43 626.28 53.93 626.96 53.67 627.33 53.17 627.81 53.78 628.2 53.21 628.77 52.9 629.08 53.65 628.87 54.45 629.67 54.52 630.06 55.26 630.61 55.01 630.62 54.04 630.91 53.71 631.47 53.81 631.66 54.21 631.56 54.97 631.96 55.02 632.63 54.41 634.12 54.64 635.09 55.24 635.41 55.88 636.34 55.14 636.87 55.24 637.14 55.88 637.64 56.25 638.15 55.85 638.08 54.95 638.5 54.39 640.26 54.59 641.12 54.51 642.75 54.17 643.28 54.29 644.29 55.59 645.44 56.01 646.78 56.2 647.53 56.18 648.16 56.74 649.43 57.3 649.24 58.29 649.07 60.88 648.23 65.65 647.7 69.28 647.53 73.01 647.68 75.16 648.3 78.39 648.12 79.28 647.73 79.43 647.17 78.75 646.24 78.8 646.19 79.91 647.47 81.68 648.64 83.09 650.4 83.39 650.65 83.62 650.73 85.39 651.15 88.73 651.17 89.45 650.7 90.87 651.62 92.55 651.62 93.07 650.82 93.35 651.68 94.3 652.68 94.19 652.25 96.13 652.19 98.28 652.37 101.98 652.81 105.21 653.18 106.84 653.94 110.97 656.57 122.38 659.13 134.88 659.73 138.12 661.4 145.74 662.37 149.31 663.49 152.31 664.71 153.67 664.95 154.29 665.17 156.12 665.83 158.94 666.28 163.77 666.45 165.49 667.15 169.05 668.57 173.57 669.76 176.57 671.59 182.33 676.64 195.85 680.82 205.63 685.75 217.8 688.99 225.78 694.42 238.09 697.52 245.12 699.84 249.6 701.37 251.93 702.65 253.52 703.54 254.43 703.78 255.23 705.29 258.53 706.9 261.6 716.6 278.07 721.64 286.97 722.38 288.21 724.86 292.39 731.54 301.9 731.95 302.41 734.81 307.12 737.11 310.15 738.33 311.57 739.37 313.06 740.11 315.84 740.46 318.17 740.81 319.66 741.54 321.7 742.45 323.51 743.48 325.94 744.67 328.26 744.66 328.79 744.26 329.44 743.17 329.78 741.21 330.73 740.55 331.13 739.02 332.68 738.32 334.04 737.86 334.52 736.96 337.23 736.49 339.34 736.05 342.85 735.99 344.3 736 348 736.39 353.3 737.4 360.15 737.85 362.31 739.81 370.33 740.74 373.42 741.34 375.13 742.44 377.91 744.25 382.16 746.64 387.37 748.38 390.98 751.18 396.29 752.18 398.29 753.35 400.46 753.33 400.62 753.33 400.73 755.37 405.07 756.71 408.09 758.05 410.69 758.95 412.66 760.14 415.02 761.5 419.43 762.3 421.84 763.04 424.72 763.75 427.24 763.81 428.16 764.12 429.18 764.58 430.1 765.46 431.38 765.99 432.53 766.66 435.84 767.02 437.21 768.11 441.08 769.32 444.06 769.79 445.82 770.4 447.23 770.42 448.17 771.9 452.16 773.62 456.88 776.67 463.27 777.41 465.51 779.35 470.28 781.11 474.34 784.57 481.17 784.98 482.81 785.46 484.01 785.02 484.76 785.77 486.67 786.37 488.49 786.72 489.99 787.64 492.15 789.5 495.7 792.02 502.18 792.89 505.99 793.46 507.54 793.95 509.38 794.61 511.11 794.52 511.32 795.05 513.5 796.51 518.45 797.33 521.41 799 529 798.9 530.1 798.96 531.74 798.54 531.81 798.37 532.63 798.69 536.23 798.74 538.09 798.88 538.85 798.83 541.89 798.63 543.54 798.53 547.17 798.66 551.14 798.66 552.42 798.39 556.44 798.11 558.25 798.07 559.33 797.77 560.24 797.2 563.68 796.65 567.78 796.33 570.23 796.04 572.94 795.67 577.77 795.57 577.93 795.45 580.68 795.15 584.62 794.97 584.75 794.65 586.77 794.16 594.02 793.81 594.29 793.41 596.13 793.18 598.47 792.83 600.51 792.3 605.19 791.95 607.45 791.8 608.98 791.62 613.8 791.19 614.42 791.17 615.52 790.82 619.58 790.47 625.54 790.35 626.94 790.2 631.86 789.97 635.26 789.94 637.66 790.04 639.44 790.26 641.53 790.3 643.97 790.24 646.15 790.08 647.9 789.7 649.45 789.01 653.16 789.05 653.81 788.37 654.75 788.09 654.88 787.74 655.43 787.5 656.58 785.95 657.62 786.47 658.12 787.19 658.47 787.19 659.29 786.87 660.04 786.74 660.96 786.36 661.78 786.28 662.67 786.7 665.04 786.33 665.7 785.99 665.69 785.64 664.7 784.02 663.24 784.23 662.62 785.15 661.48 785.04 660.84 784.54 660.46 785.7 659.67 786.52 658.8 784.22 656.25 783.8 656.06 781.53 656.08 781.2 655.81 780.56 656.13 780.33 656.72 779.56 656.88 777.36 658.37 776.14 660.05 776.47 660.76 776.59 661.85 774.96 664.75 774.18 666.63 774.08 667.51 773.82 668.02 773.68 669.03 773.26 669.25 772.13 671.35 770.82 671.17 770.04 671.86 769.67 673.28 769.8 675.45 770.37 677.19 769.92 678.01 769.86 678.87 769.39 680.19 769.11 681.5 767.92 681.63 767.88 681.66 767.87 681.67 767.23 682.47 767.29 683.71 767.01 683.83 766.77 684.72 767.12 685.39 766.34 685.86 766.26 686.83 766.33 689.77 766.99 690.21 766.68 691.18 767.37 691.85 767.39 692.78 767.88 693.38 768.5 693.47 767.97 694.24 767.89 695.62 767.66 696.02 767.95 696.74 767.7 698.35 768.53 698.99 769.38 699.41 769.85 699.12 770.18 699.44 769.65 701.21 768.78 702.45 768.29 702.62 767.9 703.16 767.4 704.43 766.13 706.25 766.17 707.25 765.4 707.52 765.14 706.95 764.36 707.02 764.13 706.68 763.06 707.27 762.73 708.93 762.36 709.81 763.01 711.11 762.88 711.63 761.4 711.16 760.06 712.89 759.86 713.6 759.81 714.78 760.15 715.34 760.2 716.39 759.9 717.53 758.39 717.89 758.44 718.98 757.64 720.74 757.61 721.4 758.07 722.33 758.47 722.66 759.72 723.13 760.84 723.06 761.06 722.43 762.04 722.13 762.92 722.31 762.99 721.4 765.08 721.24 765.92 719.49 766.5 718.88 767.08 717.25 767.01 716.37 767.26 715.93 767.32 714.52 767.15 714.2 766.43 714.31 766.32 713.49 765.99 712.89 764.72 712.81 764.21 712.59 764.62 712.05 765.78 711.63 766.46 711.16 767.25 711.83 768.01 711.49 769.19 710.5 770.1 709.97 770.32 709.4 771.06 708.94 771.87 708.19 772 707.14 772.95 706.55 773.43 705.43 773.69 704.32 774.42 703.73 775.45 703.89 775.14 704.41 775.96 705.12 775.21 707.01 774.15 707.57 773.28 708.78 773.14 709.98 772.23 711.95 771.2 713.41 769.98 715.36 769.32 716.7 769.12 717.43 768.43 718.03 767.54 719.84 767.08 720.18 766.76 721.37 766.41 721.55 766.11 722.7 765.25 723.3 765.07 724.2 764.72 724.73 764.26 724.92 763.51 725.94 763.83 726.12 765.01 725.75 765.43 725.9 764.94 726.59 764.52 727.81 764.01 727.83 763.28 728.21 762.45 730.58 761.98 730.86 761.55 731.68 761.17 731.73 759.98 733.23 758.81 733.92 757.8 733.98 757.32 733.74 756.64 734.54 756.61 735.52 755.22 737.16 754.59 737.5 753.2 737.9 752.03 738.94 750.65 740.86 749.68 741.69 750.13 742.76 749.11 744.09 747.93 744.66 747.23 745.44 747.19 745.94 745.49 746.61 745.08 747.42 743.75 748.96 743.31 749.85 742.26 750.67 741.37 751.88 738.21 752.78 737.19 753.62 735.49 755.28 734.28 756.79 731.66 758.85 731.33 758.05 732.27 757.65 732.53 756.89 733.24 756.97 733.7 756.61 734.48 755.58 734.76 755.51 735.62 754.45 735.37 753.69 735.45 752.87 736.53 753.18 736.8 752.14 737.84 752.64 738.47 751.98 737.93 751.31 738.12 750.51 738.61 750.3 739.47 751.04 740.03 750.62 740.41 750.97 741.36 751.01 741.97 750.05 742.29 750.07 742.85 749.49 742.77 748.97 743.2 748.38 743.77 746.62 744.27 746.24 744.16 744.72 744.59 744.77 746.03 744.19 747.24 744.61 747.52 744.28 747.45 743.02 747.91 743 748.51 742.41 748.89 741.73 748.83 741.33 749.33 740.71 750.43 740 753.24 736.81 753.37 736.04 754.31 735.68 755.18 734.84 755.22 734.54 756.28 733.33 756.22 732.6 755.27 731.59 753.83 730.88 753.19 730.36 753.65 729.26 753.13 728.27 753.12 727.02 754.21 724.79 754.81 724.62 755.17 724.01 755.21 723.2 754.7 723.18 754.44 722.44 753.87 722.16 753.46 721.48 753.12 721.44 752.69 720.78 752 720.97 751.16 720.55 750.4 720.88 750.19 721.32 749.31 721.58 749.13 722.23 748.2 721.26 747.74 720.24 746.77 719.49 746.23 719.58 745.65 720.42 744.34 720.78 744.65 721.59 743.84 721.51 743.48 721.21 743.52 720.49 742.68 720.78 741.99 720.76 742.42 722.28 741.33 723.06 741.17 722.4 741.35 721.81 741.94 721.35 741.43 720.82 740.79 721.03 739.88 720.96 739.73 722.12 738.84 722.34 738.4 723.44 737.56 723.44 737.27 722.81 737.51 722.03 736.92 721.87 735.14 722.83 734.48 722.85 733.64 723.39 732.17 723.14 731.86 724.14 731.28 724.1 730.88 725.09 731.79 725.15 732.76 725.56 732.23 726.85 732.32 727.41 731.8 727.74 731.77 728.31 732.15 728.81 731.12 729.34 730.36 729.32 730.17 729.01 731.14 727.76 731.8 727.4 732.06 726.56 731.58 725.95 730.57 726.26 730.11 725.36 728.97 725.37 728.23 726.06 727.84 726.11 727.14 726.71 727.17 727.76 726.59 727.9 726.02 729.06 725.75 728.11 724.46 727.18 724.22 726.5 723.73 726.22 723.59 727.15 722.66 726.91 721.88 726.44 721.71 727.37 722.41 728.14 723.47 728.12 724.55 728.76 723.32 729.16 722.28 729.24 721.25 728.01 720.96 727.32 720 726.82 719.04 727.01 718.95 727.61 719.34 728.29 719.01 728.52 718.53 727.07 717.78 726.43 715.98 726.76 716.63 725.15 716.53 724.74 714.98 724.19 714.32 724.4 714.42 725.22 714.84 726.06 713.03 727.07 712.28 725.62 711.65 725.22 710.59 725.01 708.43 725.22 707.63 725.42 707.08 725.77 706.52 726.52 705.52 726.5 704.92 726.91 704.75 727.9 705.05 728.64 704.87 729.61 703.18 729.41 700.18 730.24 699.92 730.97 699.45 730.24 698.61 730.09 697.86 730.52 697.04 730.3 694.02 731.48 692.88 731.34 691.4 730.85 688.38 730.99 686.66 731.47 685.15 732.13 684.7 732.45 683.96 732.24 683.23 730.62 681.62 728.91 680.67 728.08 679.92 727.71 678.43 727.49 678.29 724.37 677.55 722.59 676.84 721.33 676.14 720.53 675.02 719.62 675.15 716.77 675.44 715.88 675.57 713.86 676.17 713.21 676.05 712.06 676.43 710.4 677.2 709.56 677.58 708.05 677.25 707.24 677.67 706.27 678.55 705.26 679.23 705.03 680.6 705.55 680.95 704.77 681.06 703.59 680.85 703.07 680.19 702.83 680.48 702.14 680.27 701.61 680.42 700.67 679.83 700.5 678.41 700.4 677.41 699.68 677.4 698.24 677.78 697.63 677.5 697.03 677.49 696.19 677.27 695.54 676.65 694.93 676.69 693.97 676.1 693.17 675.6 691.99 675.43 690.43 675.51 689.74 674.16 689.05 673.2 688.38 670.93 685.27 670.89 684.01 671.66 681.92 670.98 680.18 670.46 680.02 669.21 678.98 668.89 678.25 668.33 677.72 668.43 677.18 667.73 676.41 667.32 674.88 667.58 674.08 667.45 673.17 666.41 672.94 664.19 672.22 663.77 670.97 663.99 669.3 662.93 668.53 662.86 667.46 662.18 667.39 662.23 666.25 662.73 665.63 661.97 665.19 662.45 664.36 662.14 663.37 660.73 662.62 659.78 661.51 657.77 660.57 657.25 659.96 656.05 659.25 655.04 658.38 654.47 657.38 654.51 656.8 653.44 656.6 652.14 655.89 652.41 654.93 652.2 652.71 651.37 652.01 650.69 652.27 648.52 651.63 647.55 650.5 646.28 650.21 645.65 649.83 643.84 650 642.51 649.29 643.18 648.36 642.73 647.89 641.81 647.64 641.49 647.14 640.39 647.04 640.01 645.98 639.29 645.5 638.68 645.34 637.99 645.8 637.61 645.03 636.75 644.75 635.97 645.03 636.21 643.66 635.51 642.85 634.02 643.69 633.51 642.64 632.55 642.22 632.22 642.89 631.67 642.5 631.31 641.75 630.61 641.84 630.25 640.4 629.67 640.08 627.8 638.53 625.87 638.7 624.43 637.73 624.13 636.9 623.72 636.9 622.42 638.04 621.26 639.28 620.46 639.74 620.12 640.38 620.58 640.95 620.72 641.61 620.38 642.78 619.84 643.54 619.76 644.15 619.04 643.91 618.53 643.25 615.97 637.81 615.48 637.27 615.46 636.56 614.2 636.37 614.22 635.28 613.95 633.7 613.2 632.53 611.64 631.32 611.39 630.57 612.59 629.02 613.29 628.82 613.14 628.35 612.55 627.96 612.11 626.42 611.16 625.56 610.67 624.67 609.51 621.4 608.24 618.86 607.04 615.84 606.44 614.33 605.71 606.97 605.09 604.44 604.88 600.33 604.48 596.75 603.17 589.76 601.95 585.74 600.83 582.97 599.96 581.31 599.98 581.1 599.33 579.56 597.68 577.7 597.66 576.53 596.64 576.53 595.79 575.62 595.66 574.89 595.28 574.19 594.6 573.4 593.43 572.51 591.83 571.48 589.91 570.56 589.07 569.99 588.49 569.18 588.75 568.99 589.34 569.71 590.06 569.82 589.87 568.81 588.48 567.66 587.26 567.11 585.49 566.62 584.19 566.71 583.79 566.37 584 565.56 584.39 565.13 584.36 564.02 584.09 563.22 584.22 562.36 585.39 561.61 585.42 560.84 584.57 560.63 583.54 561.29 582.44 561.1 580.99 561.66 580.93 560.86 580.53 560.81 580.36 559.94 579.66 559.64 579.28 558.94 578.91 558.89 577.69 560.45 577.42 561.63 577.74 563.1 578.3 564.39 578.99 565.09 578.99 565.5 577.37 565.63 575.83 565.99 574.71 566.65 573.67 566.64 573.59 565.74 574.01 564.74 574.25 563.4 573.33 562.85 574.1 562.35 573.82 561.86 573.03 561.36 572.85 560.79 572.83 559.76 571.92 558.03 571.65 556.44 571.74 554.72 572.05 554.38 571.51 553.76 570.94 551.35 570.22 551.06 569.59 549.82 569.26 548.4 569.83 547.27 569.04 546.03 567.31 544.18 566.96 543.3 565.64 542.66 565.4 541.92 565.43 541.05 566.5 539.78 568.21 539.59 568.91 539.98 570.28 540.13 571.71 540.56 573.21 542.74 573.8 544.47 574.08 544.7 574.04 546.06 574.57 547.06 575.78 546.92 576.41 546.15 575.42 544.55 575.94 542.33 576.15 540.25 576.72 538.52 578.19 535.4 578.94 532.05 579.33 531.41 579.4 530.11 579.92 529.47 580.14 526.75 579.58 524.5 579.93 522.84 579.99 520.63 579.01 518.76 578.43 518.38 576.16 517.75 575.47 516.76 575.05 514.6 575.58 513.57 576.18 513.01 577.05 513.23 578.25 513.02 579.61 512.07 579.77 511.58 579.01 510.35 578.45 509.8 577.08 509.22 576.15 509.23 575.28 509.85 574.85 509.9 574.61 509.19 572.67 508.7 573.1 510.16 572.1 510.81 571.89 511.52 571.16 512.25 570.9 512.82 570.26 513.42 568.86 513.29 568.37 512.69 567.55 512.15 567.41 511.65 566.74 511.24 565.76 511.95 565.95 513.69 567.08 516.39 568.89 521.87 569.72 529.75 569.58 530.46 569.06 530.39 567.9 530.99 566.87 531.9 565.13 531.88 564.05 531.62 563.63 531.87 563.14 532.64 562.65 532.19 561.49 532.36 560.41 531.81 558.31 532.77 557.94 533.84 557.8 534.87 557.2 536.98 557.29 538.13 556.7 537.92 556.76 537.26 556.7 533.49 556.21 530.12 555.94 529.53 554.81 527.75 554.63 527.13 554.84 526.32 554.08 525.03 552.79 523.21 550.22 518.84 549.28 518 548.44 516.74 547.46 515.07 545.4 511.39 544.28 509.08 543.09 507.25 542.25 505.76 541.31 503.38 540.29 501.41 537.47 496.56 536.36 493.32 535.95 491.79 535.42 490.47 535.04 490.12 534.2 486.77 533.18 484.65 531.78 481.99 531.48 480.88 530.61 478.71 530.28 478.18 529.46 476.18 528.8 475.08 527.95 474.1 527.93 473.69 527.01 472.2 524.99 471.11 524.47 470.41 524.38 469.94 525.26 468.77 525.45 468.06 524.46 467.63 523.75 466.32 522.61 465.06 522.23 464 518.67 459.86 517.22 457.69 516.66 456.5 514.73 453.71 513.23 452.28 511.64 451.03 511.45 450.69 511.55 449.83 509.81 444.58 509.11 443.02 508.05 441.41 506.09 439.27 505.81 438.33 506.17 438.27 508.47 439.66 509.85 440.28 509.44 441.99 509.53 442.87 509.94 443.27 511.7 443.54 512.17 443.34 512.1 442.14 512.46 441.53 513.44 440.75 514.81 440.39 515.49 440.58 516.26 440.46 517.04 440.09 516.55 439.11 517.75 438.44 518.08 436.91 518.67 436.07 520.27 434.6 520.18 433.2 520.33 432.9 521.41 432.36 521.98 431.87 522.93 431.87 524.04 431.23 524.02 430.52 524.58 430.32 525.33 429.29 525.31 428.22 525.66 426.6 526.14 426.52 526.59 425.73 528.49 422.41 529.43 421.02 530.69 419.41 531 418.49 533.11 416.9 534.45 416.8 535.07 416.35 535.04 414.96 534.59 413.97 534.93 413.62 537.17 412.89 538.51 412.22 538.78 412.3 539.9 411.25 540.21 410.64 539.55 410.15 541.35 408.12 542.15 407.94 542.16 406.49 542.32 405.91 543.61 405.51 544.98 404.86 544.87 404.34 544.33 404.35 544.05 403.24 544.19 402.69 543.82 401.72 543.74 400.72 543.25 400.7 543.04 400.23 543.37 399.88 543.18 398.27 543.26 397.23 541.92 395.07 540.37 395.06 540.03 395.23 539.03 393.23 538.31 394.21 536.94 393.88 536.91 392.62 537.15 390.58 536.49 390.68 533.88 392.62 533.74 393.24 534.09 395.59 534.88 396.32 534.72 397.6 534.15 398.12 533.92 398.76 534.01 399.47 534.89 400.68 535.8 401.41 536.09 401.9 535.67 404.4 535.37 404.59 533.8 404.38 531.52 403.69 529.67 402.63 529.08 403.07 528.7 402.73 528.8 402.12 527.39 400.76 527.08 399.44 528.62 399.2 529.39 398.38 529.48 396.63 528.63 396.7 528.3 395.73 529.08 395.73 529.02 394.57 529.47 394.49 529.41 393.03 529.08 392.29 529.55 391.55 529.28 391.37 529.3 390.3 528.09 389.67 528.55 389.26 528 388.86 528.16 388.15 527.14 386.83 525.89 386.81 525.52 387.49 525.04 387.28 525.57 385.78 525.12 385.84 523.97 385.34 522.59 385.22 521.95 384.91 520.02 383.29 519.82 382.73 518.33 382.01 518.03 381.53 517.93 380.69 517.06 380.52 516.35 380.67 516.1 381.04 516.37 381.56 516.03 382.67 515.27 382.52 515.38 381.56 515.01 380.7 515.21 380.38 515.27 379.29 514.03 378.68 512.98 379 512.62 379.33 513.14 380.16 513.36 380.96 514.02 381.55 514.14 382.01 512.27 384.6 512.15 385.54 512.58 385.69 511.86 387.07 511.43 387.43 510.75 387.4 510.3 387.81 509.67 387.64 509.09 388.09 508.75 389.15 509.11 389.16 509.19 390.32 511.06 391.82 512.11 391.99 513.06 392.83 514.93 393.27 516.56 394.01 516.99 394.09 517.34 393.58 517.96 394.25 517.96 395.67 518.62 395.9 520.28 397.16 521.67 399.08 522.41 399.22 522.18 400 522.55 401.72 523.13 402.66 523.18 403.3 522.57 403.92 522.7 404.36 523.29 404.68 522.85 405.39 522.25 405.31 521.13 407.08 521.15 407.81 520.66 408.12 519.51 408.24 519.14 409.23 519.56 410.08 519.28 411.72 518.57 412.49 518.69 413.05 519.2 413.16 519.34 413.63 518.91 414.05 519.13 415.06 519.04 415.75 518.17 417.72 517.49 418.52 516.12 418.94 515 418.68 514.07 418.23 513.46 418.19 513.45 419.54 513.17 419.56 513.13 418.24 512.18 418.99 511.26 418.67 511.17 417.93 509.78 418.24 509.54 419.05 508.97 419.85 508.85 422.01 508.34 422.1 508.39 423.42 508.99 423.98 509.17 424.76 509.57 425.34 510.03 427.34 510.34 427.93 507.57 429.22 506.88 429.41 507.02 427.93 506.85 426.98 506.16 425.09 506.05 424.43 506.46 421.81 506.85 420.82 506.93 418.03 506.7 416.65 506.04 415.19 505.29 414.44 504.53 413.35 503.54 410.79 502.52 409.74 502.08 408.73 501.42 407.76 498.25 404.97 497.39 403.93 496.45 402.17 495.97 401.28 495.52 400.02 495.06 397.61 494.97 396.18 495.48 393.26 496.05 390.41 496.92 388.49 497.33 386.73 497.29 386.03 497.54 384.54 497.79 380 498.88 376.56 499.09 376.92 499.37 378.68 499.12 379.94 499.05 381.01 499.81 381.68 499.11 382.28 498.87 382.86 499.68 385.26 499.56 386.14 500.19 386.58 501.03 383.73 501.54 381.7 501.42 381.02 501.69 380.16 501.82 378.38 502.36 376.7 500.95 376.62 500.27 376.18 499.26 375.81 498.48 375.9 497.23 374.71 496.78 372.8 497.05 371.31 498.02 372.4 498.27 373.66 498.15 374.73 498.61 375.17 499.55 374.99 500.83 376.11 502.64 376.14 502.66 375.17 502.33 374.61 503.14 373.71 503.18 373.28 502.67 372.84 503.06 370.77 502.73 369.76 503 368.9 502.97 368.3 503.32 367.81 502.72 367.49 503.01 367.08 502.62 365.28 501.71 363.04 501.68 362.46 501.32 361.64 501.85 361.61 502.28 361.18 501.38 360.51 501.35 359.77 502.49 359.16 503.02 357.42 503.5 357.25 504.35 357.41 505.14 356.11 505.11 356.01 504.99 355.91 505.9 354.97 505 354.47 505.26 353.26 505.92 353.43 506.75 352.71 506.64 352.26 505.71 351.74 506.61 351.62 507.35 350.18 507.39 348.98 507.68 348.44 508.5 348.49 508.49 347.28 508.23 346.38 508.56 345.97 508.26 345.5 508.65 344.65 508.45 344.48 508.69 343.28 510.4 340.83 510.83 340.41 510.88 339.87 510.23 339.86 510.18 339.4 510.72 339.16 512.01 337.31 511.43 335.92 511.44 335.19 511.7 334.35 512.1 333.84 513.5 333.23 513.55 332.8 512.81 332.43 512.5 331.92 512.81 331.51 513.76 331.76 514.09 331.12 514.59 330.93 515.46 330.25 515.36 329.4 515.76 329.21 515.72 328.44 516.06 328.02 515.7 327.56 514.38 326.94 514.47 326.28 515.51 326.05 515.88 325.17 515.75 324.88 516.14 323.58 515.67 322.96 515.94 322.54 515.55 322.12 514.69 322.29 515.69 321.29 515.66 319.81 515.82 318.81 517.23 318.28 517.47 317.68 517.06 316.82 516.38 316.09 516.55 315.68 517.54 315.93 517.68 315.36 517.1 313.93 517.16 313.12 518.27 312.52 518.45 312.08 517.93 311.65 518.06 311.28 517.28 311.08 517.15 309.49 516.44 309.32 517.47 308.52 517.55 308.18 516.85 307.46 516.22 307.34 516.2 306.93 515.67 306.65 515.49 305.14 516.03 304.38 515 303.48 515.27 302.74 516.06 302.49 515.91 301.75 516.7 301.99 517.44 301.09 517.45 300.41 516.08 300.06 516.18 299.03 515.4 298.76 515.35 298.24 513.66 297.79 513.22 297.02 512.21 296.23 510.5 296.3 510.52 295.7 511.15 294.7 511.86 294.54 512.25 293.63 513.41 293.95 513.82 293.58 513.01 292.23 512.98 291.09 513.13 289.03 512.56 288.62 513.71 287.25 513.77 286.85 513.07 286.34 512.83 286.83 512.16 286.17 511.48 285.91 511.29 285.1 510.51 284.71 509.68 283.92 509.49 283.36 508.8 282.83 509.04 281.49 510 281.1 509.83 280.08 509.36 279.53 509.68 278.78 510.03 277.23 512.95 276.4 514.11 275.57 514.25 274.4 514.24 273.14 513.52 272.54 513.55 271.84 512.92 271.45 513.49 270.76 513.53 270.08 512.18 269.44 510.6 267.29 510.42 266.23 509.7 265.7 508.53 265.24 508.55 264.28 507.12 263.32 507.67 263.08 506.87 262.52 506.41 261.64 506.92 260.81 507.06 259.29 507.58 258.42 507.19 257.49 506.76 255.37 506.54 255.01 505.13 254.64 503.92 254.65 502.17 254.97 502.08 254.62 504.31 253.72 504.47 253.2 502.74 252.48 501.85 252.73 501.07 252.69 501.2 250.99 500.61 250.97 500.7 250.4 500.26 249.55 501.15 249.18 501.42 248.65 501.97 248.41 502.62 247.44 502.52 246.91 501.93 246.34 502.22 245.84 502.13 245.06 502.36 243.81 502.13 243.09 501.41 241.87 500.71 241.89 500.5 242.41 500.01 242.34 499.24 242.76 498.48 242.28 496.71 241.83 494.77 242.14 493.63 241.84 491.53 241.44 491.04 241.13 489.89 240.81 488.85 241.02 487.48 241.01 484.36 240.58 481.83 240.15 481.7 241.46 481.31 242.17 480.2 242.49 479.87 242.98 479.75 243.68 480.07 244.19 479.39 244.3 477.94 245 477.22 244.49 476.53 244.93 476.47 245.43 475.94 245.78 475.59 245.39 475.45 244.28 475.59 243.41 475.17 243.2 474.75 243.87 474.39 242.56 474.67 241.18 474.5 239.45 473.89 238.58 472.62 235.71 472.45 234.87 472.58 233.87 473.24 232.71 473.11 232.11 473.91 231.08 473.66 230.18 472.43 228.81 471.78 228.47 471.58 228.09 470.92 228.17 469.82 227.38 468.58 227.25 468.33 226.77 467.27 226.59 465.86 225.61 465.49 225.66 464.78 226.35 463.99 225.84 464.49 225 463.92 224.47 463.45 223.73 463.56 223.4 465.38 221.94 465.22 221.41 464.55 221.61 464.12 221.04 463.71 220.96 463.92 219.46 463.61 218.94 462.98 218.69 462.18 217.46 461.84 216.31 461.06 216.32 460.79 214.84 460.49 214.45 460.74 213.88 460.69 213.12 459.76 212.63 459.87 211.84 459.45 211.19 459.54 210.82 459.1 209.93 457.99 209.82 457.81 209.06 456.75 208.35 454.94 208.34 454.28 207.99 453.41 208.4 452.55 208.24 452.08 207.7 451.13 207.78 451.57 206.85 450.86 206.5 449.77 204.68 449.71 203.9 449.03 203.13 448.33 202.85 447.26 203.03 446.35 201.78 445.29 201.33 444.61 200.04 443.17 200.01 442.23 199.55 441.76 198.39 441.29 198.45 440.05 197.85 439.92 197.11 440.55 196.76 440.13 195.94 439.81 194.69 440.12 193.87 439.87 192.06 439.45 191.38 439.67 190.45 439.52 189.21 439.73 188.36 440.11 187.72 440.37 186.27 440.21 183.79 439.73 181.73 439.19 180.91 438.88 180.11 439.44 179.53 438.9 179.27 437.82 179.37 437.43 178.7 436.64 178.39 435.76 178.4 435.38 178.62 434.62 178.46 434.3 177.97 432.21 177.07 431.66 176.98 431.7 175.73 431.27 175.51 430.75 174 429.57 173.84 428.99 173.99 428.67 173.49 427.26 172.89 425.56 172.01 425.07 171.51 424.39 170.41 423.75 170.17 423.68 169.42 423.16 167.93 422.4 167.69 421.69 168.17 421.09 167.89 421.82 167.06 420.77 165.23 421.44 164.76 421.57 164.19 420.86 162.56 421.2 161.79 421.12 160.92 420.75 160.61 420.33 160.95 420.23 159.81 419.49 159.49 419.23 158.77 418.66 158.72 417.84 158.02 417.74 157.38 416.77 155.44 416.45 154.17 415.99 153.84 415.91 152.68 414.29 151.6 413.39 150.64 412.73 150.19 412.43 149.73 411.85 149.5 411.5 148.28 410.65 148.19 409.77 147.48 408.27 146.79 407.67 146.29 406.59 145.81 405.43 144.79 404.7 143.73 404.03 143.97 403.05 143.33 402.52 142.43 401.81 142.42 401.63 141.91 400.29 141.3 399.54 141.43 398.82 141.19 398.28 141.29 397.79 140.64 397.07 140.35 396.79 140.59 396.09 140.45 394.38 138.6 392.98 137.76 392.56 137.37 391.4 136.95 387.34 134.68 387.28 134.25 386.07 133.98 385.22 133.16 385.41 132.8 384.67 132.06 384.17 131.96 383.99 131.45 383.44 131.63 383.38 130.99 382.55 130.21 381.73 130.09 381.53 129.52 381.11 129.25 380.1 129.16 379.48 128.58 379.84 127.76 379.47 127.42 378.73 128.08 378.16 127.64 378.48 126.9 377.7 126.13 376.93 126.14 375.88 125.39 374.56 125.48 374.18 125.79 373.3 125.33 372.03 125.62 371.8 125.51 369.65 126.55 368.54 126.32 367.27 126.63 366.39 127.29 365.7 126.58 365.25 126.64 364.09 127.53 361.78 128.71 360.66 128.84 359.48 128.59 358.93 128.08 359.19 127.47 359.7 127.11 360.1 126.45 358.61 126.04 358.04 125.56 357.19 123.79 356.84 123.53 356.47 124.38 356.89 125.76 357.49 126.75 356.96 127.14 355.35 127.17 353.43 126.92 353.21 126.36 352.54 125.99 352.38 125 351.49 124.54 350.84 124.65 350.66 125.06 350.07 125.36 349.72 125.99 349.53 127.11 349.88 128.04 349.81 128.93 349.12 129.86 348.59 129.74 347.78 130.19 346.93 130.14 344.83 131.21 343.53 132.23 343.02 132.49 342.44 133.42 341.81 133.68 341.91 134.23 341.03 135.36 340.6 134.67 340.07 135 339.57 135.83 340.08 137.15 339.93 138.38 340.49 139.28 340.93 139.46 341.74 138.76 342.19 139.94 342 140.56 341.3 140.68 340.03 140.38 338.74 139.76 337.43 139.58 336.46 138.93 334.97 138.57 333.92 138.74 332.87 138.27 332.34 137.82 331.96 138.1 332.45 139.56 332.01 140.33 331.43 140.54 331.34 141.22 331.72 141.47 333.06 141.53 333.97 140.9 334.96 141.18 335.37 141.63 337.81 141.59 338.74 142.61 339.16 142.75 339.93 142.45 340.86 142.81 341.66 143.36 342.24 143.44 342.45 143.93 342.68 146.21 342.41 147.51 341.78 148.8 341.46 149.17 340.69 149.47 339.97 149.41 338.54 149.69 337.6 149.7 335.09 148.72 333.16 148.41 332.13 147.87 331.35 147.18 330.54 146.11 330.26 145.2 329.36 145.33 328.28 145.69 326.75 146.65 325.94 147.39 325.69 146.89 325.04 146.61 324.03 146.55 321.32 147.23 317.85 149.37 315.11 150.56 314.08 151.12 313.01 152.07 311.74 152.95 310.8 153.42 310.5 153.82 309.75 154.16 308.74 154.9 308.51 155.81 307.07 155.6 306.35 155.99 306.4 156.44 305.39 156.34 304.53 156.52 303.48 157.06 301.82 158.31 300.67 159.06 299.98 159.27 297.67 161.2 297.02 161.17 293.82 162.88 293.07 163.43 292.53 163.53 290.3 164.63 288.92 164.87 287.49 165.62 285.58 166.39 284.12 167.38 283.41 168.75 282.91 168.64 282.71 168.03 281.97 167.13 282.68 166 283.33 164.7 283.78 163.54 284.45 163.11 285.44 161.67 285.32 160.61 285.55 159.76 284.82 159.61 284.34 159.8 284.26 160.72 283.97 161.24 281.97 160.96 280.8 161.28 280.64 162.04 280.14 162.52 279.39 163.91 278.68 164.54 278.21 165.2 277.32 165.8 275.44 166.37 274.89 167.89 274 168.57 272.96 168.99 270.06 169.85 268.88 169.49 267.73 169.88 267.29 169.35 263.94 168.48 260.82 168.41 258.71 168.68 253.29 169.99 252.75 170.37 251.62 170.39 250.7 170.64 250.08 170.52 244.9 171.66 245.41 172.35 247.14 172.32 246.84 172.92 245.78 172.93 243.95 172.34 242.17 172.01 239.85 171.85 237.75 172.07 235.85 172.75 234.71 173.54 234.17 173.75 233.63 173.38 232.79 172.4 231.77 170.6 230.61 167.71 229.57 164.32 229.03 162 228.56 159.59 228.24 157.41 227.99 154.89 227.95 153.71 228.19 152.19 228.7 150.12 229.22 149.38 230.71 148.4 230.92 148.64 230.05 150.07 229.88 151.29 228.7 153.64 228.68 154.21 229.01 155.05 228.6 156.38 228.65 157.08 229.05 158.44 229.27 159.87 229.12 160.7 229.34 161.74 229.96 161.98 230.28 162.97 230.55 164.45 230.55 165.91 231.16 167.23 231.57 168.44 232.22 169.25 232.05 170.02 232.17 170.59 233.06 170.74 233.18 171.12 232.96 172.02 233.25 172.26 236.66 171.44 237.4 171.59 238.26 171.5 238.71 170.7 239.04 169.46 238.94 168.38 239.24 168.24 239.45 167.4 239.52 163.77 239.67 162.93 239.56 161.43 239.75 160.84 240.13 157.93 239.97 156.72 239.08 156.02 238.79 155.05 238.84 153.78 238.56 153.03 237.79 152.26 237.02 152.12 236.58 151.69 235.97 150.62 235.9 150.14 235.28 148.28 233.95 145.57 231.83 142.82 229.77 140.61 228.19 139.5 227.37 139.12 226.31 138.91 224.58 138.2 223.48 138.06 222.9 138.14 221.82 137.96 220.58 137.3 219.01 136.13 217.4 134.19 216.81 132.94 216.15 132.15 215.33 131.93 214.44 131.11 211.65 127.86 210.96 126.94 210.22 126.25 208 124.74 204.31 122.66 201.17 120.97 199.49 119.97 196.49 117.48 194.39 115.17 191.81 112.67 188.15 109.84 181.3 105.02 176.74 102.15 174.17 100.65 168.78 97.78 159.49 93.38 150.21 89.58 147.51 88.59 143.6 87.06 141.52 86.3 136.29 84.69 133.34 83.95 131.07 83.45 126.07 82.51 122.74 82 119.91 81.78 117.95 81.73 116.19 81.79 114.74 81.2 112.56 80.81 110.63 80.56 108.44 80.12 107.77 80.11 103.78 79.44 100.42 79.25 94.52 79.2 91.83 79.24 86.49 79.58 81.51 79.93 77.3 80.4 69.12 81.46 58.96 83.01 54.18 83.83 47.59 84.88 42.22 85.35 37.57 85.59 35.36 85.55 33.62 84.92 32.35 84 32.26 83.73 31.05 84.21 30.82 84.72 29.14 85.09 23.45 86.14 20.15 86.86 18.75 87.1 15.98 87.36 11.86 88.07 9.07 88.48 Z M 306.2 161.76 306.51 161.73 307.53 162.35 308.95 162.15 309.44 161.45 310.41 161.67 311.51 161.46 312.96 160.25 313.86 158.92 315.12 158.45 316.11 157.63 316.32 157.15 317.15 156.99 317.15 158.17 316.93 158.73 315.97 159.67 313.03 160.93 311.59 161.66 307.81 162.65 306.88 162.79 306.45 162.57 306.2 161.76 Z M 260.9 179.62 261.47 179.62 262.27 180.5 262.86 180.76 263.8 181.76 265.54 182.57 268.19 183.46 269.39 183.32 269.53 182.71 270.25 182.57 271.31 182.6 273.06 182.18 275.47 181.18 276.62 180.61 278.35 178.9 278.84 178.79 279.1 177.99 279.7 177.56 280.46 177.43 281.44 177.61 282.58 176.71 283.37 176.72 284.08 175.89 284.77 175.83 285.83 175.2 286.02 174.85 286.9 174.99 291.17 174 291.69 173.64 292.25 173.73 293.59 173.07 293.25 172.44 292.84 172.4 292.78 171.52 293.2 171.46 293.98 172.42 294.47 172.73 295.01 172.35 294.85 171.53 295.06 170.95 296.15 170.5 297.38 169.5 298.46 168.78 299.08 168.74 300.61 167.66 300.88 166.77 301.6 166.64 302.61 165.54 302.81 164.76 303.44 164.34 304.01 163.54 304.22 164.51 303.48 165.07 301.32 167.31 296.31 171.92 295.03 172.79 292.64 174 290.34 174.86 289.38 175.03 286.79 175.85 285.05 176.52 283.49 177.25 277.74 180.55 275.73 181.63 267.19 184.37 266.24 184.57 265.67 184.16 263.74 182.27 262.22 181.01 261.06 180.25 260.9 179.62 Z M 247.88 172.72 248.55 172.57 249.51 172.64 250.07 172.41 253.58 172.55 254.86 172.94 256.65 172.5 257.2 172.18 259.36 172 260.81 172.54 261.49 172.54 262.38 173.17 262.87 173.79 263.52 173.93 262.69 174.96 261.62 176.71 260.97 178.8 260.62 178.94 258.45 179.08 256.87 178.78 256.29 178.52 254.69 176.8 251.55 174.51 249.77 173.59 248.24 173.11 247.88 172.72 Z M 477.92 245.98 478.63 245.8 479.05 246.16 478.75 246.9 477.91 246.41 477.92 245.98 Z M 477.87 249.1 478.77 249.52 478.39 249.81 477.77 249.49 477.87 249.1 Z M 473.47 248.78 474.97 248.7 475.16 249.04 474.58 249.52 474.01 249.39 473.47 248.78 Z M 471.68 245.1 472.21 244.73 472.82 245.46 472.48 246.51 471.98 246.68 472.02 245.76 471.68 245.1 Z M 496.38 367.75 496.72 367.98 496.86 368.7 496.39 368.96 496.38 367.75 Z M 495.7 356.79 495.86 356.6 496.82 356.78 496.56 357.39 495.95 357.67 496.32 358.33 496.22 358.83 496.5 359.38 496.07 359.76 496.06 360.41 496.75 362.24 496.08 362.41 495.75 360.66 495.54 356.98 495.7 356.79 Z M 541.28 401.57 542.85 401.18 542.89 401.42 541.66 401.66 541.28 401.57 Z M 539.5 399.07 539.74 397 540.92 397.03 540.91 398.94 540.32 399.54 539.5 399.4 539.5 399.07 Z M 539.04 403.39 539.34 402.39 540.13 402.52 540 404.49 538.98 404.33 539.04 403.39 Z M 506.77 285.72 508.39 285.44 509.62 286.16 510.32 287.01 509.5 287.77 508.92 289.02 507.79 287.83 507.92 286.87 507.62 286.11 506.77 285.72 Z M 511.44 423.09 511.61 422.7 512.26 422.79 512.32 423.44 511.47 423.56 511.44 423.09 Z M 503.9 431.96 504.01 430.82 504.5 430.85 504.28 432.65 503.9 431.96 Z M 560.93 552.14 561.38 551.64 561.99 552.15 562.83 554.49 563.6 557.24 563.78 558.14 564.36 559.34 564.78 561.77 565.67 563.12 565.64 563.9 566.03 564.92 565.79 565.32 566.81 565.56 566.84 566.12 567.79 566.82 568.91 567.36 569.92 567.41 570.75 567.2 572.1 567.88 575.52 570.13 576.78 568.82 577.9 568.83 578.35 568.35 580.7 569.81 581.64 570.48 582.9 570.44 583.62 570.57 578.24 573.75 576.94 574.15 576.08 574.14 574.43 573.78 571.34 572.38 568.96 570.04 566.34 568.54 565.5 567.49 564.89 565.92 563.61 559.05 563.31 558.39 563.34 557.8 562.93 556.39 562.03 554.93 561.25 554.44 560.88 553.31 560.93 552.14 Z M 556.85 542.3 557.3 541.82 557.6 539.9 558.22 539.44 558.66 539.65 559.04 540.78 558.71 542.04 558.99 542.63 559.92 543.2 559.55 544.13 559.43 544.92 559.99 546.49 560.52 547.11 560.57 548.01 560.99 549.25 561.53 549.46 560.96 550.78 560.54 549.21 560.16 548.29 559.66 547.9 558.37 545.01 557.71 544.34 556.84 543.07 556.85 542.3 Z M 775.34 702.81 775.35 702.23 775.76 701.69 775.67 700.25 776.66 699.34 777.23 699.55 777.65 698.96 776.31 698.52 777.1 698.02 777.6 698.61 778.02 698.31 777.87 697.76 779.04 697.55 779.44 697.14 779.93 697.18 780.72 696.16 780.65 694.89 780.4 694.5 781.05 694 781.57 692.9 782.38 690.47 782.57 689.19 782.97 688.54 783.09 687.87 783.52 687.36 783.77 686.61 782.84 686.14 782.91 685.13 783.78 685.02 784.03 685.61 784.24 687.49 784.04 688.05 782.81 690.46 782.83 691.43 781.67 694.29 781.28 695.46 781.31 696.14 778.92 698.65 778.31 699.43 778.56 699.94 778.12 701.21 777.23 703.29 777.46 703.89 776.26 704.59 775.94 703.91 775.3 703.44 775.34 702.81 Z M 770.39 700.36 771.47 699.71 771.57 700.42 771.33 700.76 770.53 700.68 770.39 700.36 Z M 753.28 740.23 754.62 739.88 754.66 740.31 753.48 740.56 753.28 740.23 Z M 750.87 735.94 751.1 735.18 751.74 735.41 750.87 735.94 Z M 747.34 728.22 748.03 727.71 748.33 728.42 747.34 728.22 Z M 741.14 728.52 741.77 728.33 742.55 729.24 742.12 729.55 741.72 728.48 741.14 728.52 Z M 740.79 733.78 741.56 733.33 741.39 732.06 742.26 733.43 741.14 733.88 740.79 733.78 Z M 740.23 727.09 740.9 727.47 740.48 727.83 740.23 727.09 Z M 737.07 725.29 737.98 725.45 738.54 725.85 739.39 725.7 739.37 726.77 738.34 726.79 737.7 726.36 737.52 725.7 737.07 725.29 Z M 735.82 737.79 736.78 737.37 736.88 738.67 737.13 739.25 736.4 739.45 736.48 738.13 735.82 737.79 Z M 735.19 724.34 736.56 724.47 736.33 725.19 735.19 724.34 Z M 731.49 733.5 731.75 733.18 732.47 733.5 732.83 733.29 733.62 732.15 733.6 731.58 732.72 730.65 733.21 730.5 734.17 731.93 733.72 733.57 732.86 734.05 733.41 734.63 733.09 735.42 733.54 736.49 733.48 737.57 732.83 737.4 732.55 736.98 732.66 736.16 732.36 734.57 732.11 733.97 731.49 733.5 Z M 730.76 747.73 731.17 747.01 731.89 746.92 731.64 747.92 730.76 747.73 Z M 730.3 755.69 730.83 755.13 731.24 755.88 730.69 756.29 730.3 755.69 Z M 729.12 734.27 729.75 733.87 730.38 734.56 729.12 734.27 Z M 728.62 732.6 728.69 731.59 729.19 731.56 729.59 732.61 728.98 732.39 728.62 732.6 Z M 726.88 739.8 727.43 738.95 727.76 739.19 727.21 740.46 726.88 739.8 Z M 726.76 731.64 727.55 731.96 726.99 732.45 726.76 731.64 Z M 726.55 758.29 726.94 757.56 727.33 757.56 727.72 758.59 727.39 758.94 726.71 758.9 726.55 758.29 Z M 725.29 729.44 726.75 730.34 727.09 731.09 726.27 730.88 726.08 730.43 725.29 729.44 Z M 723.49 747 723.65 746.16 724.36 745.85 724.08 746.91 723.49 747 Z M 722.86 738.54 723.17 737.74 723.66 737.95 723.97 738.6 722.86 738.54 Z M 722.48 764.14 722.54 763.79 723.37 762.86 724.1 762.58 724.73 763.08 725.65 762.55 726.49 761.85 726.55 760.92 727.39 760.42 728.12 760.74 727.44 761.23 726.64 762.36 725.82 762.89 724.17 763.63 723.13 764.73 722.48 764.14 Z M 710.67 769.94 712 769.52 713.78 767.81 714.17 767.77 715.01 766.59 715.47 766.44 716.79 765.39 717.03 765.79 715.77 766.6 714.86 767.72 715.18 768.38 716.03 768.53 716.96 767.54 717.43 767.89 716.59 769.18 713.3 769.15 712.13 769.81 710.84 770.31 710.67 769.94 Z M 706.79 733.11 707.04 732.08 707.64 732.56 707.57 733.09 706.79 733.11 Z M 703.28 733.36 703.61 733.15 704.12 733.88 703.72 734.17 703.28 733.36 Z M 702.41 774.68 703.12 774.21 703.59 773.43 704 773.36 704.24 774.2 703.63 774.77 702.41 774.68 Z M 680.16 781.87 680.84 781.79 682.08 781.19 682.99 781.29 683.97 780.73 685.02 780.54 685.44 780.74 687.15 779.24 687.7 778.98 688.35 778.2 689.34 777.51 689.88 777.56 691.07 778.69 692.06 778.55 692.82 777.84 693.03 778.04 694.55 777.42 694.54 776.87 695.1 776.72 695.34 776.15 696.14 776.35 696.46 775.86 697.03 775.57 697.58 775.69 697.91 775.04 699.21 774.75 700.65 773.73 701.52 773.92 700.71 774.58 697.88 776.49 697.5 776.95 696.63 777.31 694.78 778.73 693.2 779.5 692.63 780.09 691.31 780.7 690.68 780.19 690.82 779.51 690.15 779.44 688.03 780.32 687.29 780.84 686.52 780.93 686.09 781.32 685.56 782.22 685.24 783.15 684.83 783.71 683.51 784.02 682 784.11 681.47 783.67 681.13 782.85 680.16 781.87 Z M 662.92 788.07 663.66 787.18 664.35 786.94 665.22 785.75 666.35 785.93 667.08 785.86 666.91 786.44 664.42 787.53 663.76 787.66 662.92 788.07 Z M 661.32 773.36 661.58 772.94 662.19 773.48 662.49 774.05 662.02 774.36 661.5 773.94 661.32 773.36 Z M 659.26 776.4 659.53 775.92 660.16 775.81 660.88 777.02 660.94 777.43 659.26 776.4 Z M 657.44 779.13 658.04 778.96 657.99 777.89 657.7 776.62 658.9 777.95 659.67 778.02 660.57 779.04 660.59 780.14 660.9 780.66 660.25 780.78 659.73 779.68 659.41 779.4 658.36 779.22 657.58 779.48 657.44 779.13 Z M 656.17 777.96 657.42 777.66 657.34 778.5 657.06 778.6 656.17 777.96 Z M 654.96 661.42 655.38 660.96 656.57 660.33 657.14 660.9 656.9 662.71 655.55 663.08 654.99 662.75 654.84 662.25 654.96 661.42 Z M 604.18 800.74 604.73 799.21 605.54 798.86 605.82 797.72 605.61 797.46 605.6 795.27 606.06 795.43 606.21 796.38 606.19 797.5 607.5 797.25 608.4 796.42 609.25 796.28 610.75 796.98 612.25 795.8 614.17 793.81 613.48 792.49 610.94 791.18 609.4 790.65 609.84 789.51 610.64 788.06 611.59 787.36 616.5 785.23 618.04 784.22 619.71 782.62 621.46 782.22 622.86 781.08 627.79 779 629.42 778.17 630.91 775.8 631.99 775.32 637.02 775.85 637.24 775.65 638.69 771.82 638.99 771.45 641.51 770.69 645.02 768.96 645.27 769.02 645.44 770.13 644.18 771.91 643.41 772.77 643.52 773.76 644.12 774.58 647.58 773.24 648.61 771.74 649.21 771.47 652.25 772.75 652.91 773.13 653.61 774.31 653.51 777.56 654.06 778.19 654.27 779.23 655.17 780.24 656.2 781.84 656.82 782.15 657.39 782.11 658.65 782.38 659 782.98 659.48 784.9 659.83 786.98 661.15 788.1 659.36 789.07 657.72 789.29 657.19 789.98 656.61 789.91 655.65 790.45 654.03 790.78 650.86 792.06 650.32 792.21 649.54 791.91 649.05 789.63 648.37 789.11 647.27 789.12 645.82 788.62 644.91 789.59 644.67 789.38 644.58 788.29 641.69 788.81 640.87 789.34 640.72 788.95 638.06 788.13 637.65 789.03 637.81 790.11 637.52 791.62 636.6 792.44 634.91 792.54 634.1 792.97 632.16 793.54 631.61 794.23 630.46 794.58 629.26 795.24 628.53 795.47 627.16 796.35 626.33 796.42 624.52 797.19 623.41 797.18 622.76 797.69 620.43 797.88 619.08 799.11 618.2 799.63 616.82 799.52 615.33 799.89 614.67 799.8 612.67 799.82 611.18 800.08 610.49 800.43 609.56 800.34 608.25 800.57 607.06 801.01 605.12 801.27 604.13 801.15 604.18 800.74 Z M 595.24 799.01 596.03 798.98 595.77 799.61 595.24 799.01 Z M 591.68 801.15 592.1 800.71 592.52 801.27 591.7 801.73 591.68 801.15 Z M 591.31 803.03 591.62 802.59 592.34 803.12 591.31 803.35 591.31 803.03 Z M 582.32 802.28 582.57 801.92 583.41 802.45 583.5 802.93 582.68 803.19 582.32 802.28 Z M 567.38 795.52 567.98 794.89 569.08 794.61 569.66 794.67 571.5 795.46 572.21 796.14 572.43 797.41 572.22 798.51 571.7 799.34 571.07 799.71 570.87 800.19 570.29 800.54 569.01 800.57 568.65 800.06 569.82 800.15 570.94 799.18 571.23 798.12 570.38 797.98 569.97 796.53 569.55 796.08 568.03 795.43 567.38 795.52 Z" fill-rule="evenodd" fill="none" stroke="currentColor" stroke-width="46.632"/>
</g>
</svg>