<svg viewBox="-88.3952494 -31.7613214 9.124240799999995 7.9950878" xmlns="http://www.w3.org/2000/svg">
  <path d="M -87.5183351909038,30.280432538779316 L -87.492176,30.285147 L -87.453553,30.292946 L -87.427408,30.296332 L -87.414336,30.299 L -87.383438,30.306388 L -87.330079,30.317673 L -87.314392,30.321469 L -87.31249,30.325777 L -87.3012,30.33029 L -87.30025,30.328136 L -87.287772,30.321161 L -87.270896,30.31675 L -87.24998,30.317468 L -87.20601,30.321469 L -87.155392,30.327748 L -87.093501,30.33939 L -87.048547,30.348239 L -86.953,30.365364 L -86.875962,30.377671 L -86.83618,30.383307 L -86.78912,30.38833 L -86.738613,30.393353 L -86.713062,30.394788 L -86.657088,30.396838 L -86.62512,30.396633 L -86.586865,30.392763 L -86.580556,30.392943 L -86.559543,30.390213 L -86.541101,30.388945 L -86.520223,30.386641 L -86.50615,30.3823 L -86.489524,30.383512 L -86.470849,30.3839 L -86.44389,30.383204 L -86.412076,30.380346 L -86.364175,30.374524 L -86.3424,30.371311 L -86.313998,30.36639 L -86.26361,30.35511 L -86.243526,30.349675 L -86.205804,30.338529 L -86.1797281751996,30.3313942232221 L -86.089963,30.303569 L -85.999937,30.27078 L -85.947647,30.249076 L -85.922554,30.23767 L -85.878138,30.215619 L -85.811219,30.17832 L -85.775405,30.15629 L -85.74993,30.136537 L -85.729068,30.118246 L -85.699675,30.098723 L -85.683369,30.091012 L -85.65301,30.078148 L -85.617167,30.062233 L -85.595611,30.050583 L -85.588362,30.045131 L -85.58139,30.037783 L -85.553779,30.011898 L -85.544985,30.005415 L -85.537142,30.003871 L -85.530605,29.997593 L -85.524545,29.987507 L -85.50862,29.971963 L -85.49329,29.962903 L -85.481287,29.957858 L -85.471067,29.956725 L -85.4656,29.957549 L -85.455142,29.956725 L -85.438476,29.951431 L -85.428321,29.950017 L -85.420433,29.947165 L -85.405052,29.938487 L -85.38473,29.920949 L -85.363731,29.898915 L -85.350165,29.877019 L -85.343618,29.861878 L -85.342838,29.857935 L -85.336654,29.849295 L -85.332289,29.845905 L -85.325008,29.844966 L -85.317464,29.838894 L -85.31454,29.832732 L -85.314547,29.822279 L -85.31142,29.814373 L -85.302789,29.808864 L -85.300841,29.798969 L -85.303391,29.774858 L -85.305021,29.769916 L -85.303421,29.757561 L -85.304573,29.750552 L -85.30396,29.720621 L -85.305583,29.713682 L -85.308377,29.712357 L -85.307082,29.703505 L -85.309769,29.693175 L -85.313731,29.68646 L -85.321772,29.68542 L -85.328862,29.686434 L -85.360782,29.67866 L -85.363594,29.680544 L -85.361853,29.688042 L -85.363093,29.691099 L -85.371532,29.692095 L -85.372879,29.696728 L -85.371574,29.703107 L -85.37796,29.709621 L -85.38227,29.719435 L -85.388579,29.730158 L -85.389082,29.742159 L -85.392194,29.754322 L -85.395528,29.762368 L -85.401465,29.764132 L -85.403904,29.772629 L -85.402792,29.779551 L -85.405456,29.791297 L -85.409696,29.802353 L -85.410421,29.808099 L -85.406988,29.819187 L -85.410467,29.82607 L -85.410432,29.830733 L -85.400148,29.850523 L -85.398951,29.860578 L -85.391282,29.872639 L -85.393388,29.874619 L -85.407132,29.865995 L -85.411765,29.85979 L -85.415806,29.842577 L -85.417495,29.829933 L -85.416682,29.820246 L -85.413481,29.799531 L -85.409633,29.781618 L -85.404287,29.761954 L -85.398407,29.742964 L -85.387313,29.715367 L -85.3753,29.691854 L -85.365061,29.677304 L -85.356743,29.66956 L -85.351514,29.666669 L -85.346541,29.668567 L -85.336064,29.675446 L -85.318349,29.681573 L -85.298623,29.684019 L -85.276634,29.683485 L -85.259719,29.681296 L -85.242246,29.676933 L -85.232229,29.677355 L -85.229606,29.682431 L -85.245917,29.681621 L -85.250913,29.687155 L -85.202414,29.698169 L -85.196497,29.697368 L -85.187945,29.699635 L -85.177284,29.700193 L -85.172295,29.703497 L -85.121473,29.715854 L -85.101682,29.718748 L -85.072123,29.719027 L -85.040217,29.712859 L -85.035859,29.708618 L -85.025146,29.712141 L -85.013851,29.709519 L -84.986698,29.717484 L -84.977004,29.721209 L -84.968841,29.72708 L -84.964176,29.739758 L -84.946595,29.745032 L -84.93837,29.750211 L -84.934091,29.755774 L -84.927558,29.761198 L -84.920917,29.772901 L -84.916403,29.777001 L -84.91511,29.783303 L -84.90413,29.786279 L -84.885148,29.784531 L -84.882533,29.788863 L -84.882058,29.796494 L -84.877661,29.798144 L -84.870649,29.797113 L -84.872551,29.7901 L -84.871125,29.781333 L -84.880024,29.769223 L -84.88618,29.76544 L -84.890066,29.755802 L -84.895839,29.744827 L -84.902142,29.73532 L -84.894893,29.728097 L -84.892794,29.723166 L -84.888031,29.722406 L -84.881777,29.733882 L -84.868271,29.742454 L -84.850446,29.749353 L -84.837168,29.755926 L -84.824197,29.758288 L -84.803464,29.767916 L -84.798409,29.768922 L -84.791438,29.773704 L -84.76175,29.788652 L -84.755595,29.78854 L -84.73432,29.805132 L -84.727805,29.807016 L -84.717187,29.813563 L -84.701814,29.824333 L -84.692053,29.829059 L -84.683975,29.830748 L -84.674423,29.830147 L -84.67505,29.833881 L -84.668284,29.837302 L -84.654595,29.835945 L -84.652697,29.84351 L -84.64336,29.849863 L -84.636416,29.85289 L -84.633683,29.856291 L -84.62491,29.860423 L -84.613154,29.867984 L -84.603303,29.876117 L -84.593699,29.880956 L -84.568073,29.891472 L -84.535873,29.910092 L -84.51041,29.916336 L -84.500788,29.916091 L -84.494562,29.913957 L -84.492025,29.909872 L -84.484539,29.916258 L -84.470323,29.924524 L -84.460176,29.927794 L -84.451705,29.929085 L -84.448768,29.921614 L -84.440805,29.912962 L -84.4332,29.907502 L -84.423336,29.903279 L -84.404958,29.901229 L -84.380861,29.893712 L -84.372021,29.894054 L -84.358559,29.896719 L -84.351705,29.896376 L -84.34446,29.899025 L -84.341555,29.902189 L -84.335953,29.912962 L -84.333746,29.923721 L -84.336511,29.942508 L -84.338625,29.94649 L -84.344224,29.947072 L -84.351914,29.951424 L -84.360826,29.954157 L -84.368075,29.95148 L -84.372116,29.952509 L -84.381148,29.960746 L -84.404322,29.95982 L -84.408362,29.963423 L -84.417816,29.9655 L -84.426188,29.960026 L -84.438904,29.960232 L -84.442588,29.962188 L -84.441994,29.96785 L -84.436527,29.969703 L -84.432566,29.976198 L -84.437597,29.98813 L -84.43415,29.990497 L -84.428921,29.986895 L -84.41882,29.983292 L -84.408956,29.984939 L -84.394696,29.982365 L -84.385307,29.977219 L -84.372829,29.976086 L -84.36047,29.971248 L -84.348302,29.969059 L -84.341754,29.970258 L -84.340148,29.975366 L -84.344664,29.985042 L -84.352151,29.979071 L -84.356429,29.98041 L -84.361962,29.987739 L -84.360886,29.997959 L -84.366115,30.008662 L -84.361599,30.01566 L -84.356622,30.01856 L -84.352389,30.012906 L -84.344323,30.02247 L -84.345451,30.026997 L -84.339509,30.029261 L -84.33428,30.03708 L -84.329526,30.039344 L -84.317474,30.048102 L -84.297836,30.057451 L -84.289727,30.057197 L -84.282228,30.061151 L -84.277168,30.060263 L -84.270792,30.068094 L -84.270368,30.075469 L -84.274003,30.083079 L -84.272511,30.092358 L -84.269363,30.09766 L -84.263831,30.100284 L -84.262263,30.103724 L -84.256083,30.104752 L -84.247491,30.10114 L -84.245668,30.093021 L -84.239208,30.090152 L -84.237014,30.08556 L -84.218736,30.083966 L -84.203413,30.08461 L -84.19853,30.087937 L -84.204506,30.09591 L -84.208785,30.107219 L -84.205589,30.114323 L -84.202152,30.112261 L -84.19356,30.097826 L -84.18806,30.094045 L -84.173846,30.090975 L -84.177405,30.085452 L -84.182217,30.082359 L -84.184493,30.077254 L -84.179149,30.073187 L -84.167881,30.071422 L -84.157278,30.072714 L -84.135683,30.083018 L -84.124889,30.090601 L -84.120606,30.09118 L -84.11384,30.085478 L -84.105646,30.091172 L -84.09374,30.093955 L -84.083057,30.092286 L -84.06299,30.101378 L -84.060709,30.100497 L -84.048715,30.103208 L -84.040281,30.099636 L -84.036705,30.102285 L -84.024274,30.103271 L -84.01404,30.09733 L -84.006757,30.097555 L -83.999151,30.091386 L -84.002003,30.085216 L -83.996537,30.08172 L -83.989644,30.087273 L -83.98605,30.084595 L -83.989241,30.077688 L -83.983227,30.073082 L -83.973587,30.072506 L -83.969567,30.070413 L -83.967518,30.065764 L -83.95968,30.064943 L -83.95166,30.058633 L -83.95088,30.053407 L -83.945689,30.055009 L -83.943861,30.050776 L -83.939085,30.0501 L -83.931879,30.044175 L -83.933668,30.041152 L -83.925364,30.034568 L -83.913824,30.032553 L -83.91315,30.028992 L -83.874032,30.011131 L -83.862961,30.007858 L -83.858882,30.004762 L -83.845427,29.998068 L -83.82869,29.983187 L -83.822032,29.982153 L -83.819465,29.984186 L -83.812573,29.981921 L -83.807729,29.976711 L -83.802649,29.977598 L -83.795757,29.975745 L -83.788729,29.976982 L -83.775792,29.972245 L -83.774003,29.968076 L -83.767235,29.968127 L -83.762012,29.960824 L -83.75258,29.955688 L -83.746319,29.957831 L -83.73917,29.949212 L -83.727887,29.94097 L -83.71756,29.937237 L -83.711746,29.933268 L -83.697319,29.927837 L -83.688843,29.922162 L -83.680791,29.921574 L -83.677182,29.911581 L -83.671636,29.909788 L -83.668703,29.906 L -83.662287,29.902465 L -83.65357,29.894652 L -83.63798,29.886073 L -83.636987,29.876458 L -83.632565,29.873874 L -83.629273,29.863441 L -83.619636,29.847601 L -83.618568,29.842336 L -83.610604,29.836674 L -83.605244,29.836387 L -83.602594,29.830478 L -83.595493,29.827984 L -83.594362,29.818552 L -83.590401,29.821416 L -83.586836,29.818941 L -83.585899,29.811754 L -83.588975,29.805331 L -83.581903,29.792063 L -83.583045,29.787307 L -83.589213,29.783261 L -83.578955,29.768378 L -83.585648,29.761392 L -83.579873,29.759203 L -83.573289,29.763249 L -83.566018,29.761434 L -83.560803,29.749241 L -83.559977,29.743034 L -83.55388,29.741123 L -83.547172,29.732223 L -83.542485,29.728152 L -83.526228,29.72115 L -83.512716,29.71648 L -83.509575,29.712405 L -83.504124,29.713718 L -83.492953,29.712686 L -83.487724,29.7003 L -83.483567,29.698542 L -83.483691,29.688209 L -83.47849,29.687565 L -83.458489,29.680478 L -83.455356,29.676444 L -83.448194,29.675254 L -83.444635,29.677155 L -83.436259,29.677389 L -83.428759,29.675005 L -83.424976,29.669533 L -83.414701,29.670536 L -83.40962529886447,29.668445630661218 L -83.414774,29.663559 L -83.411712,29.657041 L -83.406437,29.650325 L -83.401446,29.633386 L -83.39948,29.612956 L -83.401684,29.600946 L -83.405068,29.59557 L -83.406913,29.588545 L -83.405256,29.578319 L -83.40715,29.570562 L -83.403052,29.565008 L -83.400358,29.550132 L -83.40311,29.543271 L -83.39983,29.533042 L -83.395742,29.526314 L -83.401552,29.523291 L -83.400252,29.517242 L -83.388374,29.512457 L -83.383973,29.512995 L -83.379254,29.503558 L -83.370288,29.499901 L -83.356722,29.499901 L -83.350067,29.489358 L -83.339934,29.485759 L -83.33113,29.475594 L -83.321056,29.47725 L -83.31438,29.47508 L -83.307828,29.468861 L -83.307071,29.462406 L -83.296517,29.447513 L -83.289703,29.444781 L -83.293718,29.437019 L -83.284726,29.437845 L -83.280229,29.433413 L -83.272019,29.432256 L -83.263965,29.435806 L -83.25765,29.432999 L -83.240509,29.433178 L -83.230423,29.427475 L -83.228551,29.421204 L -83.218075,29.420492 L -83.213709,29.41321 L -83.214491,29.410177 L -83.21043,29.404866 L -83.211331,29.398325 L -83.202446,29.394422 L -83.201908,29.388077 L -83.204114,29.383361 L -83.201239,29.380189 L -83.198468,29.367979 L -83.1911,29.368186 L -83.187616,29.358792 L -83.179906,29.348736 L -83.173948,29.346776 L -83.170897,29.342498 L -83.172574,29.33009 L -83.168736,29.329428 L -83.164594,29.324828 L -83.158289,29.326589 L -83.15668,29.322215 L -83.173613,29.309902 L -83.174604,29.307116 L -83.170029,29.301071 L -83.164578,29.296823 L -83.169115,29.289756 L -83.161568,29.2857 L -83.155048,29.291481 L -83.151531,29.291966 L -83.138097,29.284055 L -83.128027,29.282733 L -83.125567,29.278845 L -83.113843,29.277937 L -83.103425,29.271585 L -83.09721,29.272342 L -83.09522,29.269195 L -83.089013,29.266502 L -83.077265,29.255331 L -83.074734,29.247975 L -83.082084,29.239327 L -83.080773,29.234384 L -83.086738,29.224676 L -83.087839,29.21642 L -83.086088,29.20952 L -83.073686,29.185952 L -83.067744,29.178897 L -83.065842,29.164577 L -83.068249,29.153135 L -83.064654,29.142367 L -83.060851,29.147972 L -83.056867,29.146263 L -83.057999,29.139046 L -83.056542,29.129909 L -83.05316,29.126747 L -83.048254,29.129703 L -83.047779,29.133856 L -83.041361,29.137592 L -83.034435,29.133466 L -83.020921,29.139461 L -83.014504,29.140499 L -83.017593,29.144651 L -83.016643,29.150463 L -83.013629,29.154523 L -83.00318,29.157317 L -82.999643,29.163317 L -82.998579,29.174124 L -82.974676,29.17091 L -82.945302,29.167821 L -82.932405,29.167891 L -82.922613,29.169769 L -82.911706,29.167296 L -82.907082,29.164755 L -82.887211,29.161741 L -82.876396,29.159415 L -82.858179,29.162275 L -82.841466,29.158779 L -82.834216,29.15492 L -82.827073,29.158425 L -82.822458,29.157935 L -82.820557,29.162294 L -82.813902,29.162502 L -82.807009,29.152539 L -82.804736,29.146624 L -82.806735,29.136277 L -82.805703,29.129848 L -82.808446,29.125612 L -82.802749,29.121028 L -82.80178,29.116622 L -82.807722,29.108524 L -82.812871,29.10651 L -82.815364,29.102033 L -82.823659,29.098902 L -82.819368,29.09191 L -82.82019,29.087216 L -82.814615,29.087133 L -82.815566,29.073008 L -82.808198,29.0728 L -82.79985,29.074978 L -82.783479,29.069269 L -82.784905,29.064906 L -82.805821,29.057219 L -82.80487,29.05431 L -82.78847,29.057219 L -82.777061,29.057427 L -82.763751,29.054518 L -82.761612,29.051609 L -82.757334,29.034155 L -82.753513,29.026496 L -82.758285,29.019191 L -82.759378,29.006619 L -82.764055,28.999707 L -82.75958479344963,28.99251009464198 L -82.751981,28.98797 L -82.757165,28.985952 L -82.743582,28.978194 L -82.743669,28.97019 L -82.732615,28.966594 L -82.725723,28.962227 L -82.723861,28.953506 L -82.708793,28.935979 L -82.696013,28.930821 L -82.69625,28.925204 L -82.701479,28.919379 L -82.695537,28.916259 L -82.695775,28.910433 L -82.688864,28.905609 L -82.688657,28.89518 L -82.689775,28.885495 L -82.700612,28.878498 L -82.727888,28.871251 L -82.730964,28.858397 L -82.733827,28.852194 L -82.729391,28.847679 L -82.727624,28.839253 L -82.736589,28.835913 L -82.738695,28.824796 L -82.73214,28.820513 L -82.730239,28.815931 L -82.722395,28.809476 L -82.715027,28.806352 L -82.713126,28.799687 L -82.706708,28.797604 L -82.700326,28.792236 L -82.698152,28.796354 L -82.691497,28.792188 L -82.691972,28.788856 L -82.702545,28.777431 L -82.697201,28.774065 L -82.698281,28.75701 L -82.697914,28.747604 L -82.690071,28.736559 L -82.693874,28.733432 L -82.704807,28.735933 L -82.708372,28.72843 L -82.715027,28.726971 L -82.720731,28.718634 L -82.720838,28.713698 L -82.704807,28.714465 L -82.695287,28.708015 L -82.691031,28.701717 L -82.675097,28.698205 L -82.674568,28.693917 L -82.667253,28.691741 L -82.668034,28.683285 L -82.655132,28.680482 L -82.655132,28.674852 L -82.662024,28.667345 L -82.669393,28.669221 L -82.667966,28.663174 L -82.675294,28.661035 L -82.677711,28.654831 L -82.667966,28.647531 L -82.672882,28.641205 L -82.671024,28.628704 L -82.666026,28.626441 L -82.665822,28.623051 L -82.659877,28.622181 L -82.653251,28.616256 L -82.653932,28.613483 L -82.663514,28.606693 L -82.656823,28.60537 L -82.655362,28.592297 L -82.648059,28.590724 L -82.64919,28.587621 L -82.644269,28.584178 L -82.645939,28.580466 L -82.656219,28.57538 L -82.656689,28.568689 L -82.651091,28.556966 L -82.65228,28.552165 L -82.66165,28.554143 L -82.663128,28.550769 L -82.656694,28.544814 L -82.652755,28.537758 L -82.654894,28.532747 L -82.66804,28.528199 L -82.669416,28.519879 L -82.668917,28.507686 L -82.678187,28.499332 L -82.670146,28.500769 L -82.66639,28.49733 L -82.668917,28.493901 L -82.66447,28.488788 L -82.667911,28.477973 L -82.666698,28.475596 L -82.669993,28.468337 L -82.679715,28.466266 L -82.680473,28.460808 L -82.66806,28.455863 L -82.664633,28.452047 L -82.667764,28.448575 L -82.667211,28.442232 L -82.670942,28.440623 L -82.6698903209957,28.4335756565858 L -82.677934,28.427863 L -82.682578,28.42622 L -82.685656,28.420871 L -82.694531,28.422811 L -82.697434,28.419452 L -82.694465,28.415197 L -82.687485,28.412264 L -82.687844,28.40869 L -82.700905,28.403518 L -82.704522,28.399256 L -82.70685,28.392256 L -82.706891,28.386196 L -82.701294,28.374821 L -82.713061,28.359368 L -82.718089,28.357329 L -82.717533,28.353497 L -82.711525,28.35348 L -82.711839,28.349039 L -82.715822,28.345501 L -82.731461,28.325015 L -82.733555,28.315132 L -82.731716,28.313683 L -82.735227,28.306671 L -82.732309,28.30277 L -82.735339,28.299357 L -82.732792,28.291933 L -82.732576,28.28198 L -82.740254,28.282261 L -82.742905,28.277726 L -82.74312,28.267863 L -82.74980928069195,28.25586122896556 L -82.7582073079935,28.25478069241755 L -82.749434,28.250567 L -82.748379,28.246816 L -82.756008,28.240792 L -82.762211,28.242125 L -82.764468,28.232057 L -82.755986,28.228061 L -82.76437629782211,28.220147300841234 L -82.76325227781918,28.219367098721552 L -82.76293130493205,28.218576599573908 L -82.770101,28.207724 L -82.778075,28.208922 L -82.782539,28.207452 L -82.787217,28.192989 L -82.797762,28.187789 L -82.797382,28.181687 L -82.788931,28.176272 L -82.792906,28.17269 L -82.797846,28.172345 L -82.794341,28.165607 L -82.79398,28.160865 L -82.785182,28.142422 L -82.781324,28.127591 L -82.783915,28.124131 L -82.778313,28.121585 L -82.781485,28.117462 L -82.781161,28.112509 L -82.783585,28.10537 L -82.780344,28.097064 L -82.783676,28.079898 L -82.778873,28.076375 L -82.779201,28.072782 L -82.786569,28.065232 L -82.783479,28.060617 L -82.783479,28.052647 L -82.800354,28.052647 L -82.812487,28.061778 L -82.821206,28.060187 L -82.825553,28.063735 L -82.824626,28.072566 L -82.827126,28.082998 L -82.836244,28.091864 L -82.838621,28.079492 L -82.834105,28.063764 L -82.822304,28.054069 L -82.81509,28.054954 L -82.805583,28.052018 L -82.799166,28.048452 L -82.786064,28.047945 L -82.790847,28.033977 L -82.791798,28.019291 L -82.794174,28.012157 L -82.792986,28.006491 L -82.797511,27.989704 L -82.80487,27.965983 L -82.810812,27.969552 L -82.809861,27.976898 L -82.817705,27.996628 L -82.815566,28.001454 L -82.809148,28.006491 L -82.816279,28.011947 L -82.815803,28.020759 L -82.813664,28.03125 L -82.816516,28.045725 L -82.818497,28.048696 L -82.828163,28.02013 L -82.829826,27.982566 L -82.831994,27.97019 L -82.831527,27.964462 L -82.835055,27.949817 L -82.842899,27.93386 L -82.847826,27.910199 L -82.852168,27.885972 L -82.851118,27.874206 L -82.846526,27.854301 L -82.84212,27.84396 L -82.83755872165686,27.836658052384664 L -82.828561,27.822254 L -82.820433,27.813742 L -82.790534,27.791048 L -82.7843,27.783125 L -82.780047,27.774829 L -82.770476,27.766272 L -82.760923,27.745205 L -82.753723,27.736306 L -82.746638,27.730191 L -82.740323,27.718206 L -82.738022,27.706807 L -82.738386,27.683681 L -82.741885,27.675478 L -82.745339,27.653777 L -82.744168,27.648318 L -82.737573,27.632757 L -82.735847,27.624894 L -82.736983,27.612636 L -82.730571,27.614332 L -82.705017,27.62531 L -82.70796,27.630129 L -82.712555,27.646647 L -82.716322,27.651409 L -82.718102,27.657821 L -82.723693,27.662357 L -82.724315,27.673319 L -82.719611,27.67407 L -82.718822,27.692007 L -82.713629,27.698661 L -82.711462,27.705363 L -82.698627,27.708098 L -82.697676,27.701996 L -82.68912,27.69947 L -82.680326,27.705783 L -82.679828,27.694886 L -82.677236,27.695051 L -82.677321,27.706207 L -82.671621,27.705907 L -82.662921,27.702307 L -82.652521,27.700307 L -82.63982,27.703907 L -82.63362,27.710607 L -82.62572,27.727006 L -82.62502,27.732706 L -82.627187,27.741061 L -82.623201,27.744578 L -82.624551,27.748407 L -82.629328,27.749313 L -82.63052,27.753905 L -82.623979,27.760373 L -82.621606,27.773957 L -82.625665,27.780919 L -82.62235175390938,27.789191401123382 L -82.61163,27.790306 L -82.607091,27.792888 L -82.60742,27.798904 L -82.597186,27.813681 L -82.591624,27.813047 L -82.587625,27.81901 L -82.59314,27.821589 L -82.594406,27.825221 L -82.588746,27.83043 L -82.589319,27.835702 L -82.594819,27.843402 L -82.598443,27.857582 L -82.596394,27.864081 L -82.603318,27.865172 L -82.616469,27.880844 L -82.63212,27.8911 L -82.638257,27.892904 L -82.638423,27.90463 L -82.644294,27.910138 L -82.647504,27.905877 L -82.651495,27.906522 L -82.666802,27.912411 L -82.684285,27.915829 L -82.693222,27.922661 L -82.702958,27.923942 L -82.720608,27.936156 L -82.721484,27.945741 L -82.724881,27.945752 L -82.721801,27.954613 L -82.716522,27.958398 L -82.71061,27.957026 L -82.706471,27.960525 L -82.700134,27.960307 L -82.696119,27.963315 L -82.689645,27.974873 L -82.693685,27.976071 L -82.692685,27.983825 L -82.675572,28.005442 L -82.676761,28.009219 L -82.68294,28.014045 L -82.685108,28.020668 L -82.690071,28.027473 L -82.686743,28.030201 L -82.676998,28.032928 L -82.665352,28.028103 L -82.665827,28.019081 L -82.66765,28.016348 L -82.664118,28.009339 L -82.664975,28.001326 L -82.657882,28.00017 L -82.654894,28.009429 L -82.657446,28.013689 L -82.655132,28.016773 L -82.64852687309514,28.018126256824097 L -82.640472,28.016799 L -82.639401,28.009827 L -82.636496,28.00588 L -82.622588,28.000144 L -82.620607,27.995541 L -82.602417,27.982301 L -82.596439,27.979846 L -82.58359,27.978997 L -82.572836,27.974957 L -82.568632,27.97553 L -82.57337,27.963044 L -82.568854,27.961364 L -82.565506,27.967076 L -82.553918,27.966998 L -82.54421,27.956169 L -82.545597,27.950297 L -82.540453,27.94704 L -82.544735,27.943664 L -82.533376,27.938538 L -82.533442,27.929657 L -82.530844,27.928253 L -82.535137,27.92203 L -82.532001,27.915954 L -82.531318,27.9039 L -82.535492,27.903214 L -82.534794,27.893605 L -82.542035,27.893578 L -82.538872,27.885552 L -82.530929,27.886212 L -82.531619,27.871711 L -82.538618,27.864901 L -82.552918,27.862702 L -82.549953,27.851808 L -82.536676,27.840787 L -82.537514,27.835655 L -82.533889,27.832925 L -82.528522,27.836634 L -82.511193,27.828015 L -82.489849,27.822607 L -82.475273,27.820991 L -82.47244,27.822559 L -82.46884,27.843295 L -82.471624,27.847342 L -82.480137,27.853246 L -82.488466,27.863183 L -82.489363,27.869061 L -82.487282,27.87441 L -82.482067,27.878727 L -82.480739,27.889302 L -82.48812,27.895267 L -82.491717,27.914706 L -82.490417,27.919806 L -82.466414,27.936169 L -82.460254,27.937048 L -82.462271,27.920155 L -82.461796,27.909722 L -82.449016,27.907124 L -82.442434,27.915282 L -82.432895,27.898848 L -82.429734,27.900317 L -82.415318,27.900378 L -82.402615,27.882602 L -82.403299,27.874012 L -82.40129,27.860759 L -82.40438,27.857817 L -82.402329,27.853962 L -82.397831,27.853842 L -82.396929,27.845506 L -82.393383,27.837519 L -82.39468,27.833012 L -82.391901,27.823857 L -82.386868,27.823978 L -82.385854,27.819651 L -82.398506,27.814215 L -82.410493,27.810729 L -82.411885,27.805915 L -82.411817,27.793981 L -82.419239,27.792394 L -82.435753,27.775413 L -82.429528,27.771444 L -82.432378,27.76632 L -82.442638,27.757543 L -82.445238,27.758179 L -82.457543,27.752571 L -82.478339,27.74625 L -82.481419,27.743366 L -82.477129,27.735216 L -82.476714,27.723687 L -82.482449,27.719886 L -82.494891,27.718963 L -82.514265,27.705588 L -82.51704,27.697997 L -82.528582,27.684506 L -82.537146,27.672933 L -82.55440891000086,27.645289909962624 L -82.558538,27.638678 L -82.562912,27.638004 L -82.566002,27.624528 L -82.565667,27.615713 L -82.572512,27.607135 L -82.577738,27.605388 L -82.57745,27.599556 L -82.587631,27.594133 L -82.596488,27.594045 L -82.601727,27.589888 L -82.611717,27.585283 L -82.613003,27.582837 L -82.612019,27.571231 L -82.626722,27.558894 L -82.632053,27.551908 L -82.634929,27.539207 L -82.646014,27.53354 L -82.641346,27.525508 L -82.648477,27.522346 L -82.655618,27.521262 L -82.66202,27.522814 L -82.674621,27.519614 L -82.683621,27.513115 L -82.686921,27.508015 L -82.686133,27.498128 L -82.690421,27.496415 L -82.706821,27.498415 L -82.710621,27.501715 L -82.711579,27.508938 L -82.708044,27.523106 L -82.720908,27.528074 L -82.742437,27.53936 L -82.745748,27.538834 L -82.743017,27.531086 L -82.724522,27.513614 L -82.714521,27.500415 L -82.707821,27.487615 L -82.691004,27.444331 L -82.691821,27.437218 L -82.690071,27.434415 L -82.675121,27.424318 L -82.661078,27.412603 L -82.64283543422218,27.389738091598065 L -82.637543,27.379977 L -82.623863,27.362206 L -82.590365,27.328364 L -82.586751,27.319607 L -82.57602,27.309324 L -82.569248,27.298588 L -82.56006,27.2951 L -82.561724,27.289186 L -82.569754,27.279452 L -82.568892,27.275577 L -82.563994,27.269857 L -82.54512,27.261026 L -82.536458,27.248758 L -82.536228,27.245397 L -82.528287,27.237371 L -82.522032,27.228375 L -82.514223,27.211909 L -82.511082,27.20758 L -82.50284,27.189728 L -82.499927,27.180563 L -82.486667,27.158663 L -82.477019,27.141231 L -82.46889,27.113612 L -82.465319,27.110732 L -82.460319,27.099933 L -82.456329,27.087316 L -82.445718,27.060634 L -82.419218,27.020736 L -82.409548,27.004508 L -82.400618,26.984937 L -82.392795,26.972711 L -82.381608,26.957687 L -82.371007,26.938653 L -82.351649,26.908384 L -82.342469,26.894676 L -82.334545,26.88435 L -82.325779,26.877472 L -82.301736,26.841588 L -82.289582,26.826641 L -82.282533,26.815992 L -82.284364,26.809297 L -82.28268,26.804206 L -82.27209212943667,26.78951720319906 L -82.269499,26.784674 L -82.264682,26.756836 L -82.263804,26.725644 L -82.264268,26.720162 L -82.258801,26.718478 L -82.259752,26.728031 L -82.254404,26.745543 L -82.253215,26.754033 L -82.249888,26.762946 L -82.230636,26.77101 L -82.220653,26.766554 L -82.210002,26.768077 L -82.205442,26.764432 L -82.20102035041481,26.770766344932095 L -82.197123,26.77292 L -82.1871911169697,26.770848104552552 L -82.17112072290067,26.77079818722688 L -82.161709,26.778437 L -82.151093,26.783479 L -82.146259,26.782893 L -82.145071,26.788834 L -82.15339,26.853952 L -82.170503,26.899109 L -82.181198,26.921363 L -82.1831,26.935773 L -82.174068,26.941706 L -82.167888,26.938316 L -82.166561,26.934254 L -82.158882,26.929819 L -82.154303,26.924871 L -82.141428,26.92393 L -82.135567,26.928954 L -82.133163,26.933686 L -82.126538,26.939787 L -82.124645,26.945615 L -82.115478,26.951132 L -82.119557,26.96316 L -82.101573,26.959213 L -82.099383,26.953374 L -82.09536,26.953856 L -82.087381,26.958989 L -82.078838,26.959145 L -82.066161,26.954418 L -82.060932,26.949969 L -82.053802,26.939799 L -82.055228,26.935773 L -82.067725,26.927791 L -82.078758,26.926025 L -82.08684,26.927721 L -82.092306,26.923058 L -82.097114,26.914514 L -82.093098,26.896681 L -82.086661,26.888538 L -82.065621,26.883451 L -82.060284,26.880369 L -82.051105,26.864955 L -82.051479,26.846724 L -82.054557,26.832973 L -82.049217,26.814367 L -82.051004,26.791858 L -82.055797,26.786493 L -82.056302,26.775799 L -82.05986743774812,26.77043212841601 L -82.066575,26.742657 L -82.079799,26.716784 L -82.084974,26.702411 L -82.086698,26.685162 L -82.091355,26.666771 L -82.082086,26.653601 L -82.08779,26.647228 L -82.098961,26.645954 L -82.103952,26.654238 L -82.103624,26.665432 L -82.106247,26.667339 L -82.111796,26.681637 L -82.125795,26.699536 L -82.139019,26.702986 L -82.151668,26.704136 L -82.158143,26.707331 L -82.17383,26.705633 L -82.183575,26.695016 L -82.183813,26.687796 L -82.181565,26.681712 L -82.169314,26.67654 L -82.166028,26.669295 L -82.149943,26.654115 L -82.142554,26.643911 L -82.147686,26.634481 L -82.144596,26.622796 L -82.138654,26.612596 L -82.132007,26.610205 L -82.126568,26.590358 L -82.121611,26.585266 L -82.124393,26.582417 L -82.125106,26.568175 L -82.122491,26.554994 L -82.113935,26.540749 L -82.113697,26.532243 L -82.112034,26.527565 L -82.104666,26.523524 L -82.102051,26.519484 L -82.109149,26.515233 L -82.100625,26.510764 L -82.102707,26.499695 L -82.106501,26.491392 L -82.105672,26.48393 L -82.096109,26.48393 L -82.085889,26.489493 L -82.07175,26.492554 L -82.056892,26.493748 L -82.056892,26.497151 L -82.063309,26.502894 L -82.068538,26.513529 L -82.071628,26.525651 L -82.069251,26.535433 L -82.05808,26.548404 L -82.054706,26.548051 L -82.051188,26.542237 L -82.044714,26.539831 L -82.043106,26.532669 L -82.039415,26.532244 L -82.038724,26.525647 L -82.025518,26.53033 L -82.015298,26.528841 L -82.005899,26.534413 L -81.998117,26.532724 L -81.998313,26.526377 L -82.00905,26.52007 L -82.010122,26.512923 L -82.007582,26.506303 L -82.007249,26.49714 L -82.010817,26.493598 L -82.012715,26.486878 L -82.008961,26.484052 L -81.997012,26.484856 L -81.980712,26.480957 L -81.969509,26.476505 L -81.956622,26.467046 L -81.954839,26.458748 L -81.961399,26.459546 L -81.966854,26.465515 L -81.969278,26.463887 L -81.963931,26.457216 L -81.956158,26.452588 L -81.938411,26.445058 L -81.923611,26.436658 L -81.912844,26.429394 L -81.906546,26.422874 L -81.903015,26.417074 L -81.901721,26.411107 L -81.893902,26.403629 L -81.884558,26.403663 L -81.884271,26.393959 L -81.868983,26.378648 L -81.862902,26.36597 L -81.863132,26.364246 L -81.854977,26.350511 L -81.844555,26.327712 L -81.833142,26.294518 L -81.820675,26.236735 L -81.81681,26.207166 L -81.81461,26.173167 L -81.808833,26.152246 L -81.801748,26.091405 L -81.7961399979076,26.0789164993606 L -81.784957,26.054013 L -81.77316,26.033018 L -81.762439,26.00607 L -81.757864,25.998723 L -81.749167,25.991645 L -81.745056,25.978888 L -81.739589,25.975683 L -81.738163,25.971837 L -81.744581,25.970127 L -81.755514,25.957306 L -81.753137,25.951108 L -81.738857,25.941104 L -81.73195,25.931506 L -81.729336,25.918449 L -81.729489,25.909408 L -81.717961,25.90793 L -81.717687,25.902039 L -81.713172,25.897568 L -81.68954,25.85271 L -81.6848,25.847205 L -81.678287,25.845301 L -81.677506,25.850356 L -81.672633,25.856654 L -81.669608,25.866357 L -81.6709,25.871794 L -81.675178,25.876498 L -81.672088,25.881845 L -81.664783,25.885606 L -81.654217,25.895947 L -81.642345,25.905431 L -81.63858,25.905431 L -81.635874,25.898582 L -81.622625,25.890658 L -81.604965,25.892077 L -81.587825,25.879384 L -81.582483,25.876712 L -81.579123,25.864855 L -81.572738,25.865592 L -81.569375,25.859417 L -81.564393,25.856209 L -81.56133,25.861742 L -81.552536,25.85832 L -81.547894,25.849608 L -81.534234,25.856609 L -81.527817,25.849978 L -81.530006,25.838613 L -81.522826,25.840994 L -81.514982,25.838641 L -81.511535,25.8323 L -81.505172,25.836153 L -81.499616,25.834805 L -81.493045,25.830877 L -81.489538,25.822115 L -81.479447,25.821304 L -81.476478,25.817247 L -81.468118,25.815151 L -81.46398,25.811293 L -81.4700360322716,25.80357298830601 L -81.457889,25.797754 L -81.441368,25.799226 L -81.435597,25.796064 L -81.423989,25.79372 L -81.41504,25.78435 L -81.395192,25.779157 L -81.389012,25.781297 L -81.381406,25.775519 L -81.379448,25.757147 L -81.381881,25.74919 L -81.369997,25.743409 L -81.360159,25.741793 L -81.36049,25.736987 L -81.355248,25.728727 L -81.346078,25.721473 L -81.335037,25.715649 L -81.330305,25.710649 L -81.311899,25.702911 L -81.303259,25.693734 L -81.290328,25.687506 L -81.287523,25.679379 L -81.291853,25.672484 L -81.284907,25.668884 L -81.289424,25.663741 L -81.289899,25.654315 L -81.28372,25.653672 L -81.283007,25.644887 L -81.273325,25.638499 L -81.275268,25.624724 L -81.271489,25.61434 L -81.251158,25.608457 L -81.241708,25.606524 L -81.240519,25.599041 L -81.242839,25.592381 L -81.239036,25.579733 L -81.232705,25.573366 L -81.233577,25.568906 L -81.228435,25.564542 L -81.225557,25.55847 L -81.21408,25.54993 L -81.209321,25.548611 L -81.203175,25.53416 L -81.210149,25.516888 L -81.209707,25.506491 L -81.18898,25.480728 L -81.180235,25.47525 L -81.16797,25.469489 L -81.168652,25.463848 L -81.167109,25.450878 L -81.162537,25.441148 L -81.157151,25.434494 L -81.157512,25.426565 L -81.151826,25.421567 L -81.149859,25.41613 L -81.149696,25.409185 L -81.147144,25.404297 L -81.150656,25.399206 L -81.150508,25.387255 L -81.141395,25.381358 L -81.128492,25.380511 L -81.123048,25.379116 L -81.12445,25.371309 L -81.122527,25.366933 L -81.12514,25.361214 L -81.119157,25.359261 L -81.117265,25.354953 L -81.118208,25.34522 L -81.12141,25.33875 L -81.133913,25.342996 L -81.140099,25.341117 L -81.148103,25.332793 L -81.151916,25.324766 L -81.148915,25.318067 L -81.1523,25.305543 L -81.159293,25.298595 L -81.162761,25.28481 L -81.161623,25.275352 L -81.167115,25.269968 L -81.168307,25.253178 L -81.170907,25.245857 L -81.172044,25.222276 L -81.161847,25.214734 L -81.155481,25.208098 L -81.149017,25.19771 L -81.142278,25.183 L -81.140985,25.157189 L -81.127394,25.155389 L -81.120616,25.152302 L -81.111943,25.14547 L -81.097261,25.131273 L -81.090666,25.11791 L -81.08393,25.116194 L -81.079859,25.118797 L -81.066076,25.124286 L -81.050505,25.128273 L -81.022989,25.129393 L -81.009598,25.125403 L -80.999176,25.124222 L -80.971765,25.133958 L -80.964303,25.132172 L -80.957427,25.135704 L -80.949819,25.134442 L -80.945543,25.128436 L -80.943216,25.134443 L -80.915924,25.141301 L -80.900577,25.139669 L -80.898911,25.147652 L -80.901617,25.153803 L -80.900066,25.162034 L -80.894648,25.165426 L -80.88552,25.165241 L -80.880466,25.171416 L -80.87546,25.174321 L -80.868151,25.175953 L -80.848553,25.177651 L -80.838886,25.175926 L -80.833167,25.172599 L -80.826359,25.160645 L -80.809883,25.168902 L -80.813696,25.175926 L -80.814593,25.18271 L -80.808543,25.184426 L -80.794497,25.179869 L -80.793544,25.176419 L -80.799535,25.16311 L -80.78315,25.165874 L -80.776358,25.160566 L -80.772036,25.14855 L -80.769018,25.150453 L -80.772531,25.156083 L -80.771734,25.161044 L -80.762997,25.162578 L -80.754284,25.158428 L -80.751606,25.152758 L -80.74231,25.142525 L -80.732849,25.143187 L -80.721601,25.146473 L -80.731481,25.15179 L -80.741098,25.151629 L -80.747417,25.157975 L -80.74587,25.165662 L -80.738781,25.161819 L -80.730289,25.159832 L -80.729076,25.167496 L -80.724572,25.16519 L -80.722391,25.159547 L -80.710691,25.151817 L -80.708291,25.143938 L -80.703095,25.153558 L -80.697833,25.154649 L -80.698067,25.163394 L -80.691656,25.16832 L -80.688088,25.16874 L -80.681361,25.174404 L -80.670979,25.174519 L -80.666819,25.167071 L -80.65768,25.16956 L -80.653263,25.164549 L -80.655645,25.157553 L -80.661706,25.154649 L -80.6705,25.144322 L -80.668836,25.14174 L -80.66191,25.141534 L -80.652555,25.145935 L -80.656001,25.150023 L -80.655691,25.1548 L -80.650944,25.15744 L -80.651775,25.162119 L -80.646939,25.172792 L -80.655764,25.176161 L -80.663964,25.176699 L -80.660343,25.184877 L -80.655051,25.184549 L -80.652231,25.192793 L -80.638888,25.190679 L -80.631164,25.195196 L -80.625222,25.195303 L -80.608989,25.203197 L -80.603628,25.20192 L -80.605851,25.195411 L -80.603175,25.190198 L -80.595543,25.190168 L -80.59158,25.199245 L -80.58339,25.20111 L -80.582083,25.21068 L -80.573764,25.210034 L -80.567937,25.211765 L -80.563291,25.207383 L -80.568728,25.203582 L -80.570341,25.198688 L -80.568876,25.193252 L -80.558992,25.199647 L -80.562797,25.212301 L -80.556532,25.212077 L -80.548906,25.214448 L -80.549283,25.208529 L -80.545997,25.206044 L -80.538706,25.205303 L -80.541424,25.212055 L -80.529581,25.215004 L -80.524233,25.2219 L -80.519344,25.222613 L -80.510491,25.216389 L -80.506333,25.207954 L -80.497983,25.199932 L -80.496267,25.205258 L -80.48825,25.207434 L -80.486329,25.211043 L -80.479434,25.213764 L -80.471752,25.210253 L -80.465501,25.211755 L -80.461619,25.20635 L -80.458533,25.20597 L -80.454785,25.200371 L -80.449686,25.198017 L -80.44735,25.191835 L -80.442684,25.191647 L -80.44304,25.18498 L -80.446368,25.179925 L -80.451868,25.178584 L -80.461858,25.160108 L -80.461808,25.149786 L -80.457047,25.141617 L -80.461342,25.132487 L -80.455519,25.128184 L -80.442446,25.122266 L -80.43389,25.113873 L -80.433296,25.107847 L -80.44304,25.097839 L -80.443397,25.095364 L -80.451359,25.088476 L -80.459916,25.085462 L -80.461051,25.07911 L -80.486706,25.052833 L -80.496741,25.047011 L -80.50134,25.0419 L -80.500797,25.038526 L -80.504269,25.032917 L -80.509718,25.028057 L -80.513933,25.027883 L -80.513275,25.017528 L -80.515889,25.014728 L -80.526858,25.01826 L -80.539977,25.013499 L -80.543826,25.013973 L -80.542866,25.001374 L -80.547455,24.998268 L -80.55263,24.983713 L -80.556611,24.978836 L -80.555906,24.974513 L -80.56102,24.969719 L -80.563837,24.969932 L -80.569425,24.961989 L -80.578105,24.962305 L -80.581548,24.965259 L -80.586599,24.961732 L -80.594436,24.967921 L -80.598839,24.966149 L -80.600622,24.959577 L -80.59575,24.953975 L -80.601454,24.948587 L -80.610885,24.952748 L -80.613338,24.944169 L -80.623184,24.94671 L -80.623894,24.939907 L -80.62162,24.933621 L -80.629499,24.92491 L -80.632022,24.924333 L -80.639116,24.915785 L -80.643333,24.912843 L -80.64971,24.913527 L -80.652133,24.907274 L -80.660651,24.903978 L -80.657695,24.897354 L -80.633839,24.914283 L -80.62285,24.926758 L -80.607405,24.940491 L -80.598084,24.947435 L -80.569342,24.954772 L -80.561304,24.964775 L -80.551695,24.971535 L -80.547689,24.978906 L -80.535601,24.991605 L -80.531814,24.99825 L -80.516371,25.003793 L -80.515952,25.007928 L -80.509597,25.014348 L -80.498873,25.019038 L -80.489573,25.030024 L -80.493631,25.038826 L -80.484757,25.045705 L -80.472137,25.061535 L -80.461457,25.0701 L -80.448839,25.07338 L -80.443152,25.076188 L -80.430457,25.089708 L -80.430124,25.097789 L -80.423907,25.104403 L -80.41951,25.102359 L -80.410323,25.102874 L -80.399717,25.108492 L -80.388829,25.120886 L -80.385352,25.12132 L -80.381426,25.128027 L -80.377137,25.130342 L -80.369522,25.149915 L -80.362882,25.153011 L -80.358183,25.153228 L -80.354358,25.163292 L -80.349847,25.168936 L -80.353673,25.170245 L -80.364368,25.167234 L -80.367339,25.16874 L -80.360447,25.177129 L -80.356287,25.178634 L -80.353051,25.183071 L -80.35142,25.190503 L -80.34352,25.195453 L -80.340739,25.204951 L -80.337538,25.206394 L -80.334599,25.216204 L -80.330424,25.21899 L -80.322225,25.233975 L -80.31587,25.238924 L -80.314067,25.244957 L -80.307948,25.256028 L -80.29679,25.272041 L -80.287392,25.28409 L -80.278974,25.300394 L -80.277647,25.310304 L -80.269693,25.32028 L -80.26,25.324851 L -80.253015,25.340494 L -80.260502,25.346402 L -80.25765,25.350698 L -80.266973,25.352063 L -80.273694,25.347153 L -80.276137,25.337979 L -80.280578,25.328732 L -80.28917,25.323914 L -80.29046,25.315202 L -80.297885,25.309072 L -80.304635,25.305322 L -80.30662,25.300614 L -80.314905,25.296251 L -80.325708,25.288098 L -80.332688,25.285338 L -80.339831,25.290852 L -80.346002,25.287034 L -80.356627,25.283601 L -80.360328,25.279151 L -80.355693,25.277324 L -80.344166,25.276572 L -80.341195,25.271628 L -80.340244,25.264858 L -80.333708,25.265717 L -80.332163,25.263031 L -80.332757,25.251423 L -80.335015,25.247768 L -80.334421,25.240459 L -80.339769,25.227022 L -80.345116,25.221969 L -80.352841,25.207561 L -80.371855,25.20628 L -80.372568,25.198744 L -80.380531,25.20025 L -80.389444,25.197884 L -80.391464,25.192615 L -80.401684,25.192077 L -80.412974,25.196056 L -80.416658,25.198744 L -80.420817,25.206486 L -80.420461,25.21197 L -80.413093,25.226484 L -80.413568,25.235514 L -80.399783,25.238417 L -80.397049,25.247876 L -80.397406,25.256582 L -80.400496,25.261204 L -80.40002,25.270983 L -80.398119,25.276786 L -80.385878,25.291078 L -80.372449,25.287102 L -80.371261,25.2914 L -80.377064,25.30219 L -80.373669,25.309526 L -80.37064,25.323219 L -80.360861,25.328069 L -80.358728,25.325255 L -80.351642,25.325815 L -80.349313,25.321012 L -80.342275,25.323259 L -80.342602,25.331546 L -80.330952,25.34657 L -80.326327,25.357051 L -80.3228,25.361467 L -80.318273,25.362906 L -80.31036,25.3731 L -80.305424,25.387744 L -80.308436,25.390388 L -80.312673,25.387958 L -80.320442,25.391486 L -80.327924,25.396835 L -80.325641,25.410169 L -80.328222,25.416104 L -80.32609,25.419436 L -80.325333,25.430807 L -80.320442,25.437153 L -80.326058,25.43794 L -80.330523,25.442965 L -80.330637,25.450658 L -80.336942,25.456187 L -80.334084,25.464242 L -80.340026,25.467888 L -80.340542,25.49223 L -80.339773,25.500249 L -80.332676,25.504067 L -80.335823,25.50965 L -80.333551,25.517031 L -80.331033,25.517973 L -80.331486,25.52824 L -80.32563230193706,25.534863534382577 L -80.32557804140558,25.534902282570396 L -80.3251585898675,25.535201818651917 L -80.31435,25.536174 L -80.311752,25.547003 L -80.307326,25.557955 L -80.306761,25.565071 L -80.30261,25.571791 L -80.307748,25.586237 L -80.308851,25.604229 L -80.305395,25.615908 L -80.298273,25.621615 L -80.286321,25.620062 L -80.27583,25.637391 L -80.272002,25.639191 L -80.270676,25.647553 L -80.268301,25.651754 L -80.267332,25.658979 L -80.26014,25.674522 L -80.245111,25.698416 L -80.24608,25.70752 L -80.249122,25.713383 L -80.237858,25.727228 L -80.21772,25.739433 L -80.210674,25.740731 L -80.208515,25.745602 L -80.202632,25.748207 L -80.199621,25.745989 L -80.178896,25.746047 L -80.175116,25.74445 L -80.154256,25.723214 L -80.161771,25.716077 L -80.17243,25.709565 L -80.167859,25.706402 L -80.166868,25.701083 L -80.175323,25.69169 L -80.177309,25.686598 L -80.162633,25.674439 L -80.159427,25.666178 L -80.156326,25.666151 L -80.15293,25.671584 L -80.156599,25.69115 L -80.155889,25.698519 L -80.152316,25.705325 L -80.15108,25.712929 L -80.148175,25.719103 L -80.148048,25.725852 L -80.154616,25.728835 L -80.15937,25.73301 L -80.14514,25.741546 L -80.142851,25.750994 L -80.1396389234784,25.7555349414835 L -80.137099,25.756567 L -80.130845,25.764364 L -80.131111,25.76976 L -80.124604,25.800345 L -80.121008,25.813199 L -80.119491,25.827696 L -80.118793,25.845661 L -80.119016,25.865858 L -80.12087,25.883152 L -80.121687,25.897952 L -80.121257,25.917742 L -80.118959,25.94591 L -80.117284,25.986584 L -80.116101,25.998127 L -80.112482,26.047448 L -80.109107,26.081011 L -80.108775,26.090088 L -80.104864,26.095262 L -80.102922,26.135117 L -80.101366,26.147762 L -80.09803,26.166445 L -80.092907,26.205121 L -80.089514,26.221955 L -80.087259,26.241274 L -80.08355,26.256519 L -80.080234,26.258726 L -80.075264,26.318656 L -80.072264,26.335356 L -80.070564,26.336455 L -80.067555,26.369023 L -80.066307,26.391716 L -80.065332,26.393078 L -80.061643,26.432982 L -80.058812,26.455434 L -80.05566068809858,26.475617837560016 L -80.050363,26.509549 L -80.044899,26.537965 L -80.042063,26.545448 L -80.041627,26.554448 L -80.038863,26.569347 L -80.036158,26.602586 L -80.036014,26.613218 L -80.036965,26.646044 L -80.035763,26.676043 L -80.033828,26.689732 L -80.033162,26.714811 L -80.034417,26.721149 L -80.034762,26.736541 L -80.037462,26.76634 L -80.03581117810404,26.77311218355324 L -80.031965,26.773641 L -80.03233,26.787227 L -80.031362,26.796339 L -80.046263,26.859238 L -80.053598,26.883783 L -80.066715,26.924807 L -80.071425,26.942884 L -80.070616,26.944624 L -80.076584,26.958928 L -80.081008,26.974165 L -80.086174,26.98707 L -80.093909,27.018587 L -80.116772,27.072397 L -80.133736,27.101863 L -80.142085,27.11979 L -80.145287,27.132194 L -80.150719,27.147297 L -80.157556,27.163131 L -80.153375,27.169308 L -80.157773,27.179223 L -80.16147,27.192814 L -80.19309,27.249546 L -80.209099,27.283233 L -80.226753,27.322736 L -80.233538,27.341307 L -80.261462,27.394353 L -80.277081,27.433497 L -80.290622,27.466514 L -80.290739,27.474293 L -80.296335,27.485987 L -80.300587,27.500597 L -80.311713,27.525306 L -80.32155950883674,27.55736443595394 L -80.324876,27.568677 L -80.330875,27.596128 L -80.335784,27.605674 L -80.343924,27.616268 L -80.348091,27.623961 L -80.350977,27.632335 L -80.351423,27.639986 L -80.357926,27.660878 L -80.364626,27.684677 L -80.371963,27.704722 L -80.384408,27.741191 L -80.395377,27.760815 L -80.4037,27.777165 L -80.415994,27.798704 L -80.428337,27.823744 L -80.447179,27.859731 L -80.44709927310933,27.860591353776496 L -80.446973,27.861954 L -80.457768,27.879893 L -80.466979,27.896483 L -80.492826,27.940534 L -80.508871,27.970477 L -80.530964,28.013656 L -80.547675,28.048795 L -80.557853,28.071825 L -80.563375,28.086034 L -80.571995,28.111594 L -80.589975,28.17799 L -80.594164,28.195864 L -80.603339,28.252555 L -80.606823,28.296404 L -80.606792,28.32706 L -80.606204,28.339014 L -80.60202,28.368033 L -80.597508,28.385516 L -80.58903,28.407872 L -80.5847,28.411843 L -80.578105,28.423075 L -80.563782,28.435798 L -80.557602,28.439142 L -80.53924,28.446886 L -80.528962,28.449696 L -80.525224,28.455029 L -80.525094,28.459454 L -80.536115,28.478647 L -80.545727,28.498791 L -80.554184,28.513817 L -80.560973,28.530736 L -80.564138,28.543067 L -80.567361,28.562353 L -80.57424,28.585339 L -80.583884,28.597705 L -80.595297,28.609486 L -80.61679,28.634561 L -80.643404,28.673585 L -80.647288,28.677875 L -80.709725,28.756692 L -80.73292484648961,28.791244618840896 L -80.739857,28.801569 L -80.787021,28.875266 L -80.877994,29.011589 L -80.893087,29.036945 L -80.907275,29.064262 L -80.909586,29.070925 L -80.917877,29.078426 L -80.929939,29.091616 L -80.944376,29.110861 L -80.966176,29.14796 L -80.99542312352936,29.206051700378357 L -81.046678,29.307856 L -81.0772710764726,29.3738808481315 L -81.123896,29.474465 L -81.163581,29.55529 L -81.211565,29.667085 L -81.229015,29.714693 L -81.240367,29.739468 L -81.253877,29.776852 L -81.260577,29.806255 L -81.262245951254,29.82042644189362 L -81.266591,29.860404 L -81.272909,29.883717 L -81.275113,29.898838 L -81.277367,29.90398 L -81.288955,29.91518 L -81.299687,29.939975 L -81.308978,29.96944 L -81.325011,30.032466 L -81.330832,30.059191 L -81.355591,30.162563 L -81.380924,30.256809 L -81.388293,30.290954 L -81.391922,30.304416 L -81.396203,30.331086 L -81.398048,30.361697 L -81.397569,30.379488 L -81.393469,30.395553 L -81.402998,30.394585 L -81.4113168929912,30.4024061983869 L -81.403678,30.40477 L -81.40371,30.409094 L -81.412475,30.422891 L -81.408082,30.434638 L -81.408278,30.44066 L -81.412396,30.468205 L -81.413197,30.482909 L -81.415589,30.484758 L -81.432395,30.487224 L -81.443699,30.498788 L -81.455926,30.513383 L -81.455524,30.522603 L -81.446609,30.523061 L -81.441296,30.51746 L -81.437594,30.518685 L -81.435829,30.526071 L -81.441892,30.552729 L -81.443393,30.570486 L -81.441889,30.601385 L -81.437023,30.631352 L -81.429174,30.670814 L -81.427599,30.692279 L -81.425846,30.700452 L -81.438045,30.705045 L -81.44409969339371,30.709695331214878 L -81.451241,30.709484 L -81.464013,30.710983 L -81.475036,30.714399 L -81.484825,30.725113 L -81.489898,30.726156 L -81.505447,30.723219 L -81.513656,30.722528 L -81.53056932741765,30.72413161342949 L -81.534553,30.719528 L -81.533813,30.712055 L -81.538658,30.708691 L -81.543449,30.711782 L -81.546096,30.71703 L -81.551208,30.717852 L -81.56002,30.711706 L -81.563171,30.717005 L -81.57243030073944,30.721905870753798 L -81.586769,30.723734 L -81.59307,30.718697 L -81.596939,30.719078 L -81.596023,30.72534 L -81.597869,30.728653 L -81.603195,30.729446 L -81.606025,30.726728 L -81.606048,30.718676 L -81.611274,30.716551 L -81.615066,30.722691 L -81.622726,30.723206 L -81.620704,30.729862 L -81.623771,30.736052 L -81.629196,30.733467 L -81.632843,30.728762 L -81.637542,30.733705 L -81.641067,30.729588 L -81.647483,30.727394 L -81.653938,30.731556 L -81.651504,30.740677 L -81.655113,30.744291 L -81.660835,30.74234 L -81.663482,30.745853 L -81.659901,30.751577 L -81.663345,30.754402 L -81.669555,30.751701 L -81.677816,30.751195 L -81.682992,30.748645 L -81.679031,30.744816 L -81.670837,30.747396 L -81.669273,30.741297 L -81.673523,30.738789 L -81.680091,30.7416 L -81.68797,30.741432 L -81.692413,30.747637 L -81.700996,30.745756 L -81.708526,30.747921 L -81.718109,30.744806 L -81.726394,30.746721 L -81.732414,30.750084 L -81.732147,30.755203 L -81.740409,30.75812 L -81.740959,30.765142 L -81.750038,30.767111 L -81.758232,30.770784 L -81.76172,30.775698 L -81.770056,30.777069 L -81.77359,30.767708 L -81.772345,30.763636 L -81.781417,30.761396 L -81.782661,30.766367 L -81.786644,30.769634 L -81.784072,30.773745 L -81.793968,30.787239 L -81.800453,30.784208 L -81.806602,30.789982 L -81.818855,30.789906 L -81.823494,30.786926 L -81.830009,30.78936 L -81.839477,30.786589 L -81.840065,30.790483 L -81.848114,30.791737 L -81.852897,30.794857 L -81.868515,30.792906 L -81.870353,30.797483 L -81.881858,30.799961 L -81.884597,30.810802 L -81.891319,30.816413 L -81.891052,30.822308 L -81.901062,30.829798 L -81.907262,30.825233 L -81.904235,30.820782 L -81.905807,30.816713 L -81.910438,30.81591 L -81.91835,30.817776 L -81.928115,30.817419 L -81.933777,30.820551 L -81.937179,30.828863 L -81.942314,30.825529 L -81.949875,30.827712 L -81.959404,30.821397 L -81.964413,30.816684 L -81.962371,30.808308 L -81.965004,30.806967 L -81.961692,30.800791 L -81.962257,30.796682 L -81.968467,30.792156 L -81.972458,30.779926 L -81.977386,30.776842 L -81.988466,30.780205 L -81.995573,30.786839 L -82.003587,30.791675 L -82.01667226776823,30.791474822782263 L -82.02227,30.788136 L -82.023727,30.783276 L -82.015687,30.772601 L -82.011603,30.761878 L -82.020213,30.75724 L -82.017328,30.755233 L -82.032235,30.750776 L -82.036773,30.754434 L -82.039795,30.747297 L -82.040519,30.739889 L -82.039085,30.735922 L -82.045036,30.726431 L -82.040039,30.724585 L -82.03898532511872,30.714808862084485 L -82.035927,30.706205 L -82.041862,30.696358 L -82.041214,30.691334 L -82.043686,30.683947 L -82.0498762977342,30.676762529557195 L -82.046557,30.660747 L -82.049023,30.655295 L -82.042091,30.649498 L -82.038612,30.640947 L -82.039205,30.633965 L -82.033966,30.62996 L -82.02861,30.620295 L -82.026352,30.613726 L -82.0271966684715,30.607187851872016 L -82.016494,30.602512 L -82.012212,30.593349 L -82.012786,30.5904 L -82.006164,30.577278 L -82.008138,30.569366 L -82.00653,30.561871 L -82.010765,30.559755 L -82.008682,30.554279 L -82.013166,30.549946 L -82.013427,30.54262 L -82.01886,30.532623 L -82.015541,30.520098 L -82.014663,30.511181 L -82.01707932514147,30.502126734151787 L -82.015172,30.499798 L -82.017598,30.493217 L -82.016466,30.488891 L -82.018866793506,30.482925745775603 L -82.016906,30.475111 L -82.024203,30.464889 L -82.022486,30.461118 L -82.02815928226231,30.454994216198834 L -82.028366,30.446918 L -82.036545,30.438105 L -82.034355,30.419798 L -82.042854,30.415991 L -82.04462422673284,30.40425642108203 L -82.038838,30.389037 L -82.037218,30.371848 L -82.049958,30.362472 L -82.058219,30.359204 L -82.065598,30.358114 L -82.073163,30.361433 L -82.080017,30.358977 L -82.090278,30.361222 L -82.094793,30.360733 L -82.10505569331626,30.3687908757766 L -82.118149,30.364358 L -82.125194,30.366602 L -82.134273,30.362126 L -82.139962,30.364919 L -82.16168,30.357873 L -82.171623,30.359918 L -82.173526,30.364688 L -82.179812,30.368635 L -82.184652,30.378807 L -82.190298,30.376275 L -82.192596,30.378831 L -82.193354,30.388026 L -82.196828,30.388321 L -82.202975,30.398886 L -82.20331626923904,30.403570649508016 L -82.206843,30.412286 L -82.206521,30.416884 L -82.210733,30.42564 L -82.20458571128856,30.44260277030676 L -82.204495,30.455342 L -82.2077,30.460407 L -82.201035,30.474665 L -82.20124,30.485114 L -82.206316,30.492513 L -82.217073,30.503787 L -82.225072,30.50769 L -82.230324,30.517482 L -82.230848,30.526741 L -82.238882,30.533959 L -82.240403,30.53777 L -82.238328,30.546172 L -82.234435,30.548755 L -82.234186,30.55765 L -82.223862,30.565276 L -82.217315,30.56519 L -82.214677,30.568556 L -82.320808,30.575611 L -82.418914,30.581767 L -82.52711,30.588371 L -82.584007,30.591548 L -82.595976,30.592544 L -82.698902,30.598271 L -82.728273,30.600227 L -82.749854,30.601156 L -82.868325,30.608641 L -82.887083,30.609572 L -82.959002,30.613878 L -83.07441,30.620558 L -83.13137,30.623583 L -83.163309,30.625895 L -83.248423,30.630734 L -83.309249,30.634406 L -83.3915225550041,30.639349975300668 L -83.479965,30.644193 L -83.499925,30.645674 L -83.624879,30.65188 L -83.676773,30.654905 L -83.743729,30.658396 L -83.808758,30.661745 L -83.879658,30.665801 L -83.914246,30.667309 L -83.975655,30.67037 L -84.072739,30.675455 L -84.104797,30.676695 L -84.1249,30.678048 L -84.250357,30.684133 L -84.315371,30.686685 L -84.374894,30.689793 L -84.420707,30.691394 L -84.474409,30.692793 L -84.537006,30.696688 L -84.606441,30.699868 L -84.644332,30.701964 L -84.749917,30.706491 L -84.836322,30.710708 L -84.864693,30.711542 L -84.868151,30.719092 L -84.875421,30.727491 L -84.884221,30.733091 L -84.888822,30.743391 L -84.897622,30.751391 L -84.911122,30.751191 L -84.914422,30.753891 L -84.915022,30.761191 L -84.920023,30.76579 L -84.918023,30.77809 L -84.928323,30.79309 L -84.927923,30.80369 L -84.930923,30.810489 L -84.936824,30.818489 L -84.935824,30.833789 L -84.932138,30.838296 L -84.927084,30.839024 L -84.926824,30.846389 L -84.933724,30.852088 L -84.935924,30.860688 L -84.93283,30.865498 L -84.938824,30.870788 L -84.939624,30.874288 L -84.935024,30.880288 L -84.935224,30.884788 L -84.942525,30.888488 L -84.949625,30.897387 L -84.956125,30.907587 L -84.966726,30.917287 L -84.971426,30.928587 L -84.980627,30.932687 L -84.983627,30.935986 L -84.982227,30.946886 L -84.979727,30.953986 L -84.980427,30.962086 L -84.987032,30.968475 L -85.004026,30.973468 L -85.005934,30.979804 L -85.00254,30.986899 L -85.002499,31.000685 L -85.058723,31.000559 L -85.164472,31.000968 L -85.243632,31.000884 L -85.272693,31.000184 L -85.369616,30.998724 L -85.497992,30.996931 L -85.555401,30.996365 L -85.676218,30.995637 L -85.749619,30.995292 L -85.749932,30.994837 L -85.87831,30.99359 L -85.99729,30.992877 L -85.999937,30.993134 L -86.055892,30.993393 L -86.06125226895696,30.992871048208784 L -86.121371,30.992886 L -86.132722,30.993315 L -86.187246,30.994021 L -86.238335,30.99437 L -86.256359,30.993857 L -86.288849,30.993702 L -86.317469,30.99419 L -86.369397,30.994532 L -86.388646,30.994181 L -86.466408,30.993912 L -86.520196,30.993258 L -86.563436,30.995223 L -86.574256,30.994974 L -86.633435,30.994915 L -86.653218,30.994615 L -86.704483,30.994668 L -86.723585,30.996569 L -86.755267,30.996709 L -86.888711,30.997757 L -86.930739,30.997743 L -86.998545,30.998676 L -87.004737,30.999317 L -87.055029,30.9991 L -87.118873,30.999427 L -87.124969,30.998803 L -87.140755,30.999532 L -87.189713,30.998346 L -87.238314,30.996447 L -87.252402,30.997936 L -87.311949,30.998435 L -87.312665,30.997835 L -87.33832,30.998272 L -87.35557,30.997859 L -87.415074,30.998066 L -87.425631,30.997741 L -87.483773,30.998107 L -87.514945,30.997543 L -87.598829,30.997455 L -87.596504,30.987229 L -87.592301,30.980184 L -87.593481,30.97751 L -87.588862,30.96579 L -87.591609,30.95167 L -87.598458,30.938038 L -87.601679,30.935749 L -87.61210912052334,30.913297890780544 L -87.615456,30.902082 L -87.621807,30.897723 L -87.62027,30.887404 L -87.629103,30.880425 L -87.634896,30.866261 L -87.627868,30.860185 L -87.625072,30.854659 L -87.626224,30.846664 L -87.616986,30.840197 L -87.615245,30.83421 L -87.604314,30.831419 L -87.600792,30.821288 L -87.592729,30.815999 L -87.582241,30.812741 L -87.577216,30.808778 L -87.571752,30.800199 L -87.563875,30.796267 L -87.557438,30.789256 L -87.551311,30.78569 L -87.550285,30.781251 L -87.544789,30.778395 L -87.546068,30.772211 L -87.535985,30.761192 L -87.535114,30.749448 L -87.529575,30.742293 L -87.514903,30.733152 L -87.502966,30.722123 L -87.498029,30.720031 L -87.481899,30.717314 L -87.477992,30.713277 L -87.473631,30.704813 L -87.466742,30.700655 L -87.458669,30.697866 L -87.449566,30.69896 L -87.440343,30.690353 L -87.429819,30.687987 L -87.424982,30.683362 L -87.406356,30.674437 L -87.405758,30.666439 L -87.402689,30.664847 L -87.402656,30.657032 L -87.396818,30.65485 L -87.396864,30.647932 L -87.394024,30.641855 L -87.395212,30.636069 L -87.393294,30.627218 L -87.396463,30.617334 L -87.394672,30.615239 L -87.398409,30.606538 L -87.405691,30.603411 L -87.408018,30.583701 L -87.410805,30.580622 L -87.411947,30.574169 L -87.415716,30.572671 L -87.418467,30.564809 L -87.426448,30.558774 L -87.427554,30.553681 L -87.435079,30.546555 L -87.440848,30.536644 L -87.440277,30.531338 L -87.445103,30.528909 L -87.447207,30.522198 L -87.447702,30.510458 L -87.43969,30.506649 L -87.430478,30.496595 L -87.435578,30.480496 L -87.430478,30.476396 L -87.429578,30.470596 L -87.414677,30.457296 L -87.408677,30.456696 L -87.404677,30.452897 L -87.396877,30.450597 L -87.391976,30.451597 L -87.381176,30.450097 L -87.370768,30.446865 L -87.366939,30.44048 L -87.369383,30.431948 L -87.386376,30.420497 L -87.394576,30.418097 L -87.402977,30.410398 L -87.407777,30.408898 L -87.419177,30.410198 L -87.426377,30.409098 L -87.430794,30.404909 L -87.434278,30.397498 L -87.440678,30.391498 L -87.438478,30.381798 L -87.442884,30.375199 L -87.449378,30.370099 L -87.452078,30.361899 L -87.450778,30.346999 L -87.461078,30.3353 L -87.471879,30.3318 L -87.489979,30.3311 L -87.49998,30.328957 L -87.504701,30.324039 L -87.50558,30.3111 L -87.50348,30.307601 L -87.494879,30.305001 L -87.483679,30.304801 L -87.475279,30.308 L -87.465078,30.3076 L -87.450078,30.3111 L -87.452378,30.300201 L -87.500003,30.287905 L -87.51838,30.283901 L -87.5183351909038,30.280432538779316 Z M -84.674683,29.786234 L -84.672068,29.77958 L -84.667907,29.777897 L -84.659228,29.779264 L -84.623741,29.788498 L -84.610271,29.794844 L -84.582819,29.805982 L -84.574081,29.814004 L -84.572124,29.818665 L -84.57248,29.828459 L -84.580323,29.826913 L -84.582104,29.822927 L -84.591257,29.815881 L -84.60306,29.811648 L -84.611221,29.800412 L -84.624532,29.7901 L -84.634871,29.788038 L -84.644089,29.789671 L -84.648538,29.783706 L -84.661928,29.781719 L -84.671809,29.786557 L -84.674683,29.786234 Z M -85.097168,29.626242 L -85.09539,29.621169 L -85.084231,29.615163 L -85.069453,29.605282 L -85.050573,29.590231 L -85.045074,29.586991 L -85.036219,29.588919 L -84.956452,29.613997 L -84.937825,29.623442 L -84.884632,29.652248 L -84.870055,29.658723 L -84.853829,29.66472 L -84.82963,29.672172 L -84.820579,29.673895 L -84.799129,29.681565 L -84.776954,29.692191 L -84.765117,29.699724 L -84.719118,29.739098 L -84.699413,29.758151 L -84.692619,29.763039 L -84.694885,29.770915 L -84.700023,29.764213 L -84.705803,29.760586 L -84.707508,29.75409 L -84.716695,29.744707 L -84.723473,29.743435 L -84.725767,29.736089 L -84.739872,29.726749 L -84.745725,29.726252 L -84.755768,29.720031 L -84.767022,29.711413 L -84.777208,29.707398 L -84.779054,29.702549 L -84.777278,29.695864 L -84.782212,29.692606 L -84.786948,29.695006 L -84.794644,29.70272 L -84.798587,29.702074 L -84.797802,29.694835 L -84.793855,29.694664 L -84.7905,29.689521 L -84.802933,29.683692 L -84.808281,29.684337 L -84.81308,29.681214 L -84.853057,29.671861 L -84.861429,29.672771 L -84.863122,29.669804 L -84.872924,29.664315 L -84.879488,29.663663 L -84.885859,29.656581 L -84.893341,29.656467 L -84.903815,29.648737 L -84.913182,29.649894 L -84.920333,29.648638 L -84.925842,29.644949 L -84.928047,29.638249 L -84.932592,29.637232 L -84.948404,29.622598 L -84.959109,29.617609 L -84.981498,29.608642 L -84.997921,29.604688 L -85.007926,29.60461 L -85.014679,29.603252 L -85.015745,29.598174 L -85.027047,29.596726 L -85.052392,29.603281 L -85.069018,29.609441 L -85.078276,29.617459 L -85.083946,29.61938 L -85.091724,29.626469 L -85.097168,29.626242 Z M -85.222476,29.679336 L -85.218926,29.676208 L -85.204314,29.672695 L -85.187155,29.665689 L -85.156765,29.647682 L -85.14101,29.634038 L -85.135523,29.632004 L -85.120454,29.630015 L -85.100006,29.631818 L -85.096764,29.633057 L -85.091335,29.650461 L -85.081764,29.665244 L -85.074308,29.673981 L -85.080455,29.674911 L -85.08532,29.679934 L -85.093902,29.684838 L -85.100408,29.68469 L -85.114268,29.688658 L -85.134639,29.686569 L -85.139644,29.68379 L -85.156415,29.679628 L -85.168625,29.682409 L -85.201856,29.682576 L -85.207103,29.680443 L -85.216157,29.680739 L -85.222476,29.679336 Z M -83.034469,29.125343 L -83.034469,29.121813 L -83.026542,29.11788 L -83.02386,29.124034 L -83.027814,29.127004 L -83.034469,29.125343 Z M -83.034469,29.099594 L -83.035325,29.096307 L -83.029477,29.093779 L -83.025912,29.096271 L -83.034469,29.099594 Z M -83.075959,29.101632 L -83.070718,29.096609 L -83.065367,29.095648 L -83.059928,29.09966 L -83.061802,29.102502 L -83.075959,29.101632 Z M -83.093413,29.131779 L -83.090086,29.126381 L -83.090253,29.118715 L -83.085651,29.12019 L -83.082604,29.128917 L -83.088422,29.134894 L -83.093413,29.131779 Z M -82.8430428503104,28.1211934661377 L -82.842743,28.111225 L -82.838383,28.113459 L -82.839809,28.119329 L -82.8430428503104,28.1211934661377 Z M -82.8509621056592,28.2117655524176 L -82.852432,28.210173 L -82.849871,28.179788 L -82.846601,28.165307 L -82.840401,28.166864 L -82.847022,28.181844 L -82.847055,28.187284 L -82.843063,28.190478 L -82.845774,28.194934 L -82.844929,28.199079 L -82.848442,28.204472 L -82.842837,28.206938 L -82.840446,28.212004 L -82.849496,28.213354 L -82.8509621056592,28.2117655524176 Z M -82.420554,27.846539 L -82.417027,27.845825 L -82.405601,27.847959 L -82.40605,27.849954 L -82.420554,27.846539 Z M -82.43746,27.867023 L -82.437417,27.864331 L -82.429779,27.863234 L -82.424278,27.868217 L -82.424454,27.884027 L -82.435448,27.884199 L -82.43746,27.867023 Z M -82.4412503879094,27.8312435225602 L -82.441689,27.823534 L -82.43222,27.822289 L -82.431221,27.838608 L -82.438576,27.839603 L -82.4412503879094,27.8312435225602 Z M -82.757334,28.800728 L -82.749253,28.797604 L -82.746401,28.791355 L -82.747481,28.783381 L -82.736707,28.77371 L -82.731427,28.784065 L -82.723815,28.790452 L -82.730476,28.797396 L -82.742123,28.803228 L -82.757334,28.800728 Z M -82.69547,27.665486 L -82.695062,27.661584 L -82.687219,27.662637 L -82.687888,27.668012 L -82.693907,27.668738 L -82.69547,27.665486 Z M -82.764241,27.591285 L -82.760636,27.585564 L -82.75885,27.60047 L -82.763373,27.600663 L -82.764241,27.591285 Z M -82.224073,26.602896 L -82.224443,26.593249 L -82.220891,26.583905 L -82.213672,26.579912 L -82.205321,26.567928 L -82.201402,26.55631 L -82.201675,26.551382 L -82.198838,26.545976 L -82.186441,26.489221 L -82.180717,26.476257 L -82.172917,26.467658 L -82.148716,26.455458 L -82.126671,26.436279 L -82.098115,26.424959 L -82.082915,26.422059 L -82.075015,26.422059 L -82.063114,26.425459 L -82.013913,26.452058 L -82.020527,26.453111 L -82.032173,26.452685 L -82.040815,26.458228 L -82.062551,26.470131 L -82.066637,26.466091 L -82.076924,26.466106 L -82.088423,26.455182 L -82.120046,26.473581 L -82.132474,26.479069 L -82.140065,26.477305 L -82.149368,26.477605 L -82.159739,26.481976 L -82.168496,26.487738 L -82.168802,26.492335 L -82.178198,26.494298 L -82.176079,26.497567 L -82.179779,26.505989 L -82.179535,26.512465 L -82.187853,26.523524 L -82.191884,26.543619 L -82.197361,26.553506 L -82.199024,26.560947 L -82.206352,26.583627 L -82.214337,26.602944 L -82.21994,26.607071 L -82.224073,26.602896 Z M -82.262485,26.683974 L -82.262485,26.677602 L -82.254404,26.667195 L -82.248283,26.661658 L -82.236102,26.637881 L -82.231466,26.634726 L -82.227918,26.627133 L -82.223899,26.614178 L -82.218752,26.625133 L -82.223743,26.626833 L -82.227784,26.637031 L -82.228259,26.644467 L -82.23325,26.649565 L -82.238479,26.662523 L -82.237528,26.669107 L -82.234201,26.676753 L -82.242757,26.681425 L -82.245372,26.68631 L -82.24252,26.696715 L -82.246085,26.706057 L -82.250126,26.707756 L -82.25583,26.703934 L -82.258444,26.688008 L -82.262485,26.683974 Z M -80.258601,25.359611 L -80.258957,25.354349 L -80.253134,25.350483 L -80.250282,25.344791 L -80.239341,25.350586 L -80.241391,25.355563 L -80.233151,25.372748 L -80.22912,25.383186 L -80.231387,25.387421 L -80.225801,25.393863 L -80.203829,25.414497 L -80.204121,25.420151 L -80.200448,25.429796 L -80.189767,25.453438 L -80.189897,25.461397 L -80.178564,25.481309 L -80.176668,25.485896 L -80.178527,25.501476 L -80.1807,25.506407 L -80.188637,25.50556 L -80.189384,25.49713 L -80.18088,25.493235 L -80.183256,25.487014 L -80.187178,25.48283 L -80.188339,25.477292 L -80.192,25.471946 L -80.193763,25.46135 L -80.201305,25.4413 L -80.206074,25.432184 L -80.212016,25.428105 L -80.209807,25.42485 L -80.20922,25.41437 L -80.216523,25.405987 L -80.220957,25.406357 L -80.224619,25.402979 L -80.235274,25.401275 L -80.233971,25.39673 L -80.237825,25.394238 L -80.24229,25.399118 L -80.249491,25.395046 L -80.237363,25.391382 L -80.241202,25.386465 L -80.246391,25.388274 L -80.25543,25.380739 L -80.254679,25.368846 L -80.258425,25.364389 L -80.258601,25.359611 Z M -80.303522,25.38012 L -80.30227,25.377444 L -80.295002,25.376714 L -80.29279,25.37955 L -80.293678,25.385452 L -80.303522,25.38012 Z M -80.460852,25.050808 L -80.459074,25.048056 L -80.448275,25.050149 L -80.448638,25.053666 L -80.460852,25.050808 Z M -80.482614,25.086431 L -80.474652,25.090736 L -80.480475,25.092673 L -80.482614,25.086431 Z M -80.514404,25.150354 L -80.505434,25.148743 L -80.508152,25.154562 L -80.514404,25.150354 Z M -80.570841,25.148065 L -80.5655,25.148438 L -80.561944,25.13957 L -80.557983,25.142091 L -80.565018,25.149679 L -80.570841,25.148065 Z M -80.574168,25.104597 L -80.57096,25.103736 L -80.560739,25.107395 L -80.568583,25.118801 L -80.567157,25.108256 L -80.574168,25.104597 Z M -80.57905,25.159949 L -80.57675,25.153778 L -80.572928,25.156745 L -80.57905,25.159949 Z M -80.607696,25.174917 L -80.603666,25.171483 L -80.602037,25.166011 L -80.596193,25.162434 L -80.586799,25.16264 L -80.586631,25.171442 L -80.594371,25.170224 L -80.599481,25.173558 L -80.607696,25.174917 Z M -80.619408,25.071509 L -80.613375,25.068715 L -80.614217,25.057776 L -80.607562,25.059391 L -80.60982,25.064235 L -80.610627,25.074975 L -80.619408,25.071509 Z M -80.624794,25.182807 L -80.614448,25.175779 L -80.612322,25.18174 L -80.624794,25.182807 Z M -80.658672,25.107111 L -80.653055,25.103181 L -80.650758,25.098211 L -80.648077,25.085032 L -80.649134,25.07827 L -80.646566,25.074806 L -80.640643,25.073373 L -80.640089,25.08233 L -80.644119,25.091167 L -80.641228,25.097717 L -80.646163,25.102488 L -80.638375,25.106499 L -80.634293,25.120028 L -80.642907,25.131858 L -80.647439,25.130689 L -80.639397,25.122946 L -80.63927,25.118207 L -80.646418,25.108845 L -80.649737,25.107111 L -80.656247,25.10977 L -80.658672,25.107111 Z M -80.665556,24.989396 L -80.657594,24.987781 L -80.65529,24.995998 L -80.661826,24.995273 L -80.665556,24.989396 Z M -80.669914,24.923468 L -80.666389,24.918518 L -80.661392,24.921898 L -80.665154,24.928158 L -80.669914,24.923468 Z M -80.680244,25.100754 L -80.668756,25.098326 L -80.6745,25.104106 L -80.680244,25.100754 Z M -80.684712,25.114624 L -80.681393,25.116358 L -80.675904,25.114509 L -80.679479,25.123177 L -80.684074,25.122946 L -80.684712,25.114624 Z M -80.700645,25.055092 L -80.697726,25.04962 L -80.692643,25.060086 L -80.695635,25.062084 L -80.700645,25.055092 Z M -80.701562,25.122599 L -80.699519,25.115896 L -80.694413,25.119941 L -80.701562,25.122599 Z M -80.704003,24.902058 L -80.70259,24.897037 L -80.696421,24.896647 L -80.693404,24.899532 L -80.696965,24.908076 L -80.700491,24.90807 L -80.704003,24.902058 Z M -80.714958,25.140795 L -80.707711,25.132593 L -80.706017,25.128904 L -80.698626,25.127106 L -80.701689,25.133347 L -80.714958,25.140795 Z M -80.731633,24.995539 L -80.726251,24.996229 L -80.723687,25.005051 L -80.730093,25.002447 L -80.731633,24.995539 Z M -80.737149,25.065548 L -80.727065,25.065052 L -80.729867,25.070463 L -80.734321,25.072157 L -80.737149,25.065548 Z M -80.7410595553448,24.853715041322 L -80.735175,24.848822 L -80.725765,24.857914 L -80.710735,24.863973 L -80.703332,24.868351 L -80.695986,24.877725 L -80.689872,24.881761 L -80.69642,24.884447 L -80.704085,24.880301 L -80.704666,24.872551 L -80.712323,24.866819 L -80.72065,24.862465 L -80.726299,24.866574 L -80.732966,24.864315 L -80.74053,24.856627 L -80.7410595553448,24.853715041322 Z M -80.848245,24.805826 L -80.84669,24.802757 L -80.835017,24.806939 L -80.824377,24.812375 L -80.794531,24.81205 L -80.786881,24.822771 L -80.791148,24.825668 L -80.799647,24.817453 L -80.80733,24.818698 L -80.810211,24.824176 L -80.801937,24.833456 L -80.790546,24.840159 L -80.792714,24.843482 L -80.804677,24.83479 L -80.808878,24.833527 L -80.816489,24.823764 L -80.819986,24.823486 L -80.836221,24.809296 L -80.848245,24.805826 Z M -80.883118,25.110668 L -80.876076,25.110876 L -80.875381,25.115257 L -80.880821,25.119213 L -80.883118,25.110668 Z M -80.914995,25.108624 L -80.911067,25.101951 L -80.907384,25.104329 L -80.91202,25.110325 L -80.914995,25.108624 Z M -80.923153,24.766678 L -80.912115,24.765968 L -80.906531,24.770652 L -80.90876,24.777604 L -80.912458,24.777037 L -80.916736,24.770563 L -80.923153,24.766678 Z M -81.124761,24.707129 L -81.115973,24.699071 L -81.112848,24.692245 L -81.108041,24.688592 L -81.094438,24.689343 L -81.08244,24.691955 L -81.078716,24.696557 L -81.075855,24.704266 L -81.071034,24.711722 L -81.067135,24.714931 L -81.060149,24.715735 L -81.053471,24.72004 L -81.03429,24.727341 L -81.028208,24.726745 L -81.029457,24.721116 L -81.023794,24.716901 L -81.011784,24.721909 L -81.006629,24.726808 L -80.992343,24.733193 L -80.975503,24.744932 L -80.96762,24.747917 L -80.964254,24.751705 L -80.938543,24.767535 L -80.931235,24.772937 L -80.939065,24.774565 L -80.95215,24.766139 L -80.963958,24.76371 L -80.966953,24.758369 L -80.971939,24.759339 L -80.977072,24.756905 L -80.979959,24.752865 L -80.987198,24.754521 L -80.989397,24.749816 L -80.994527,24.748609 L -80.994426,24.743991 L -81.008142,24.73886 L -81.010089,24.740545 L -81.016918,24.734676 L -81.02595,24.733546 L -81.036698,24.742827 L -81.041593,24.743278 L -81.05057,24.737581 L -81.05646,24.731136 L -81.061451,24.728992 L -81.076932,24.71649 L -81.080733,24.7182 L -81.090214,24.716575 L -81.099135,24.711993 L -81.107355,24.71276 L -81.118586,24.707813 L -81.124761,24.707129 Z M -81.280808,24.655625 L -81.27324,24.659066 L -81.267254,24.660122 L -81.244761,24.669202 L -81.243232,24.673998 L -81.249799,24.673357 L -81.260006,24.674848 L -81.267908,24.664986 L -81.274156,24.662992 L -81.280808,24.655625 Z M -81.295626,24.777344 L -81.293946,24.77257 L -81.289243,24.769035 L -81.284979,24.771682 L -81.287758,24.776352 L -81.293233,24.780834 L -81.295626,24.777344 Z M -81.314255,24.7521320185185 L -81.298959,24.743645 L -81.299509,24.747033 L -81.306097,24.757079 L -81.31176,24.756103 L -81.314255,24.7521320185185 Z M -81.330645,24.729531 L -81.329348,24.726638 L -81.322289,24.728781 L -81.312767,24.727354 L -81.309914,24.724974 L -81.305153,24.715933 L -81.299282,24.716922 L -81.302134,24.72124 L -81.302253,24.730308 L -81.310453,24.738727 L -81.317464,24.739266 L -81.328397,24.750275 L -81.325664,24.739806 L -81.325189,24.730955 L -81.330645,24.729531 Z M -81.342183,24.739158 L -81.334102,24.73387 L -81.331606,24.734733 L -81.330893,24.741641 L -81.342183,24.739158 Z M -81.355986,25.703526 L -81.357004,25.696645 L -81.355624,25.692516 L -81.350556,25.689832 L -81.338242,25.692895 L -81.336009,25.707865 L -81.341238,25.712577 L -81.352154,25.707345 L -81.355986,25.703526 Z M -81.812048,24.548805 L -81.812536,24.545469 L -81.803556,24.544506 L -81.785981,24.546722 L -81.775219,24.550409 L -81.763385,24.55242 L -81.755019,24.551746 L -81.748763,24.554622 L -81.735331,24.556827 L -81.717205,24.557076 L -81.711234,24.5564 L -81.697793,24.559518 L -81.685243,24.558676 L -81.677307,24.562969 L -81.665142,24.573258 L -81.644131,24.574917 L -81.638254,24.579127 L -81.628187,24.579068 L -81.611852,24.585578 L -81.604333,24.586164 L -81.59195,24.593484 L -81.585321,24.595379 L -81.574556,24.600935 L -81.564126,24.603837 L -81.559184,24.609571 L -81.54161,24.614401 L -81.534316,24.617907 L -81.519025,24.618812 L -81.510768,24.625669 L -81.508169,24.638148 L -81.509628,24.647057 L -81.505944,24.65451 L -81.48182,24.647814 L -81.480512,24.644573 L -81.473025,24.649002 L -81.446881,24.65343 L -81.446049,24.644357 L -81.443915,24.642677 L -81.43571,24.65073 L -81.422561,24.646596 L -81.412537,24.646732 L -81.406403,24.64246 L -81.401889,24.623544 L -81.394795,24.621135 L -81.389922,24.622374 L -81.3613,24.632995 L -81.346598,24.635807 L -81.337961,24.640301 L -81.332673,24.639691 L -81.327915,24.645401 L -81.313072,24.647251 L -81.296895,24.655382 L -81.308831,24.664632 L -81.312048,24.68176 L -81.316429,24.697665 L -81.319603,24.702672 L -81.331012,24.704831 L -81.336241,24.704507 L -81.341826,24.707098 L -81.351215,24.720269 L -81.359415,24.72858 L -81.361316,24.737216 L -81.366307,24.742396 L -81.365506,24.7693 L -81.371822,24.779089 L -81.377831,24.782174 L -81.405467,24.792709 L -81.410862,24.790472 L -81.420203,24.777992 L -81.451517,24.76687 L -81.456951,24.773644 L -81.457964,24.781839 L -81.451057,24.788946 L -81.439636,24.803745 L -81.441208,24.812887 L -81.44351,24.813364 L -81.475283,24.798939 L -81.498101,24.792574 L -81.500757,24.789516 L -81.513778,24.757754 L -81.515804,24.756165 L -81.561432,24.760378 L -81.571151,24.756354 L -81.584599,24.736696 L -81.599293,24.729714 L -81.643866,24.712345 L -81.656509,24.702905 L -81.672338,24.699514 L -81.68741,24.686198 L -81.701315,24.677724 L -81.745651,24.659882 L -81.754281,24.654043 L -81.76139,24.642035 L -81.765336,24.632626 L -81.751377,24.628233 L -81.728349,24.617577 L -81.721995,24.606654 L -81.739286,24.590107 L -81.752834,24.580234 L -81.766441,24.586015 L -81.774084,24.584767 L -81.782247,24.57791 L -81.794012,24.575749 L -81.793893,24.585043 L -81.795377,24.592868 L -81.799495,24.594168 L -81.79934,24.576089 L -81.797416,24.573888 L -81.799854,24.564471 L -81.80718,24.561532 L -81.812048,24.548805 Z M -81.89309,24.562733 L -81.888228,24.557772 L -81.885878,24.562968 L -81.89309,24.562733 Z M -81.925132,24.54482 L -81.924892,24.539964 L -81.917549,24.543877 L -81.921328,24.54848 L -81.925132,24.54482 Z M -81.928337,24.529245 L -81.928329,24.526587 L -81.918999,24.528551 L -81.925584,24.532863 L -81.928337,24.529245 Z M -82.009772,24.534914 L -82.006453,24.527437 L -81.998994,24.529629 L -81.999817,24.533531 L -82.007484,24.537902 L -82.009772,24.534914 Z M -82.145407,24.5899 L -82.139479,24.590662 L -82.125694,24.585367 L -82.121891,24.581693 L -82.118088,24.569696 L -82.110364,24.568616 L -82.112859,24.559861 L -82.122961,24.551754 L -82.133537,24.552402 L -82.130253,24.548207 L -82.118675,24.548542 L -82.113446,24.551467 L -82.111642,24.555486 L -82.105986,24.558565 L -82.101336,24.565497 L -82.099551,24.57458 L -82.101631,24.585039 L -82.108117,24.590619 L -82.124827,24.597064 L -82.130023,24.597508 L -82.14,24.595144 L -82.145407,24.5899 Z" fill="none" stroke=currentColor stroke-width="1" vector-effect="non-scaling-stroke"/>
</svg>