<?xml version="1.0"?>
<svg xmlns="http://www.w3.org/2000/svg" version="1.2" baseProfile="tiny" viewBox="-40.0 -40.0 880.0 761.0" stroke-linecap="round" stroke-linejoin="round">
<g id="state">
<path d="M 13.23 76.62 13.23 76.26 15.16 75.84 20.16 74.55 20.4 73.4 18.82 73.77 17.75 73.73 16.87 74.06 15.69 74.04 14.79 73.77 14.57 73.4 14.66 72.04 15.16 71.53 16.21 71.3 18.11 71.23 19.24 70.86 20.32 69.63 20.19 68.07 20.47 67.21 21.15 66.68 21.61 65.98 21.38 64.96 22.06 64.33 22.42 63.56 22.88 63.12 23.64 63 24.84 63.14 25.34 62.98 26.22 62.17 27.08 61.92 28.87 60.72 29.12 59.82 28.72 59.15 27.63 58.81 26.49 58.66 25.98 58.76 25.16 58.52 24.74 58.12 24.11 58.06 22.55 56.66 22.45 56.05 21.92 55.62 22.45 53.93 21.49 52.88 20.65 52.48 20.7 51.25 20.92 50.54 21.43 50.29 21.37 49.73 21.97 48.69 22.76 47.94 22.88 47.41 23.71 46.78 24 45.95 24.4 45.79 24.52 45.12 24.81 44.79 25.06 42.72 25.82 42.4 26.21 41.48 26.02 41.26 26.36 40.23 26.16 39.3 26.28 38.69 25.98 38.05 25.99 37.33 25.37 37.1 25.37 36.28 25.05 36.11 24.99 35.27 23.03 34.33 22.52 33.85 21.42 33.6 20.45 32.7 19.5 32.81 18.65 32.52 17.92 32.08 17.47 31.19 17.06 30.77 15.36 30.48 14.85 30.27 13.59 29.11 12.05 28.15 11.47 27.4 11.38 26.16 10.32 25.01 10.46 24.36 9.88 24.06 9.77 23.59 9.13 23.22 8.45 22.48 7.63 22.07 7.05 21.17 6.53 20.75 5.43 20.41 4.58 19.86 4.21 18.79 3.06 18.5 2.88 17.87 1.91 17.19 2.03 16.36 1.74 15.78 1 15.14 1.61 13.65 2.54 12.92 2.37 11.84 3.04 11.38 3.39 10.2 4.49 7.84 4.82 7.6 5.54 6.17 5.83 4.69 5.35 3.46 5.47 3.18 5.03 2.44 4.79 1.37 13.59 1.36 16.86 1.3 22.96 1.34 24.07 1.3 30.32 1.33 32.13 1.28 34.82 1.33 34.89 1.27 41.14 1.32 42.62 1.47 47.72 1.28 52.86 1.15 54.52 1.23 55.16 1.16 61.86 1.2 67.14 1.17 67.79 1.24 74.9 1.34 79.31 1.34 93.32 1.45 96.64 1.46 98.65 1.66 104.03 1.67 106.1 1.64 112.32 1.63 113.45 1.6 117.99 1.81 123.63 1.74 131.8 1.71 133.82 1.68 139.27 1.71 142.27 1.76 145.68 1.75 147.57 1.69 152.93 1.73 158.65 1.8 159.85 1.85 166.16 1.85 166.72 1.8 172.59 1.82 172.87 1.85 185.36 1.77 198.83 1.64 198.86 1.6 206.57 1.56 219.25 1.48 225.27 1.42 238.74 1.24 248.92 1.08 251.97 1.01 260.27 1 271.37 1.04 277.27 1.03 277.27 2.48 276.91 3.22 277.11 3.89 278.9 4.41 279.59 5.08 279.66 5.93 279.4 6.68 279.25 7.82 279.57 8.17 280.53 8.6 281.03 9.78 282.14 10.8 282.82 11.87 283.57 12.8 284.33 13.19 284.35 13.67 283.87 14.3 283.96 14.66 284.59 15.22 284.26 15.72 284.49 16.63 285.22 17.22 285.19 18 284.66 18.07 284.27 18.55 284.17 20.15 284.79 20.99 285.1 21.7 285.06 22.82 286.14 24.39 285.93 25.68 286.45 26.16 286.52 26.93 286.86 27.21 288.28 27.19 289.2 28.03 289.69 29.11 290.61 29.7 291.37 30.58 291.74 31.38 294.71 31.46 303.78 31.91 314.86 32.38 318.84 32.6 326.13 32.93 332.7 33.34 338.33 33.49 343.14 33.66 349.39 33.98 356.21 34.25 369.38 34.89 371.49 35.03 374.85 35.16 385.04 35.7 391.49 36.02 395.12 36.18 402.56 36.6 409.38 36.95 416.41 37.32 421.86 37.64 434.97 38.29 437.06 38.44 446.35 38.95 454.98 39.47 461.37 39.86 470.3 40.36 473.65 40.61 479.63 40.92 491.74 41.63 499.29 42.08 501.26 42.18 513.69 42.96 515.96 43.06 519.04 43.26 529.84 43.86 531.1 43.97 537.07 44.3 548.42 45 558.72 45.64 569.86 46.38 569.58 46.74 568.89 46.73 567.81 47.53 567.78 48.46 567.38 48.73 567.16 49.61 567.32 50.01 568.16 50.77 568.22 51.74 568.77 52.77 569.61 53.18 570.74 54.36 571.27 55.14 571.29 56.24 570.59 57.73 570.93 58.26 570.92 59.6 570.27 61.38 570.71 62.3 570.68 62.78 571.05 63.7 571.09 64.19 571.73 65.3 572.1 65.33 572.18 66.29 572.42 66.56 573.01 66.3 573.52 67.36 574.18 67.78 574.38 68.28 575.42 68.49 577.7 67.75 578.3 68.05 579.25 67.58 579.99 67.81 581.36 67.35 582.44 68.19 582.91 68.14 583.99 68.38 584.71 68.12 585.5 68.47 586.28 68.35 587.15 68.01 588.48 67.03 588.31 65.22 587.71 63.63 587.89 62.39 588.78 61.99 588.55 60.07 589.41 59.15 589.43 58.3 590.03 57.66 589.85 57.26 590.61 56.19 590.41 55.37 590.66 54.74 590.54 54.29 590.8 53.6 590.6 53.35 590.85 52.4 590.76 51.47 590.41 50.15 590.98 49.1 591.01 48.34 591.48 47.88 591.26 47.31 591.7 47.08 591.53 46.3 591.74 45.47 591.05 44.09 591.11 43.78 590.66 42.82 589.53 42.33 589.62 41.64 589.39 40.95 588.82 39.94 588.27 39.52 588.34 38.78 587.97 37.89 587.24 37.28 587.5 36.71 587.15 35.03 587.8 34.27 588.06 33.5 588 32.97 588.62 31.94 588.3 31.03 588.19 30.01 587.66 29.81 588.29 28.82 588.14 28.4 588.21 27.62 588.53 26.87 589.01 27.26 590.57 26.79 590.27 26.58 591.17 26.09 590.74 24.97 589.9 23.85 590.05 23.34 590.64 22.99 592.01 22.97 592.85 23.47 593.6 24.17 594.76 24.52 595.28 24.2 595.7 22.92 596.35 22.44 596.41 22.01 596.06 21.36 596.34 21.22 596.12 20.34 596.65 19.85 597.65 19.18 598.44 19.41 598.98 19.06 599.34 19.93 599.93 20.26 600.96 20.23 601.79 20.42 602.27 20.34 602.44 19.91 602.12 19.44 602.77 18.96 603.82 19.75 603.8 20.37 604.5 20.96 604.79 22.1 606 22.36 606.19 22.84 607.83 22.63 608.33 22.96 609.17 23.09 609.24 23.5 610.23 23.21 610.91 23.46 611.4 23.15 612.69 23.14 613.33 23.75 614.01 23.43 615.05 24.85 614.78 25.28 615.2 25.62 615.33 26.14 616.28 25.91 616.15 25.48 616.52 24.5 617.4 24.64 617.76 25.16 618.62 25.54 619.58 25.75 619.63 26.49 620.5 26.79 620.47 27.33 621.1 27.68 621.97 27.88 622.98 27.56 623.77 27.78 624.67 27.59 625.14 28.24 625.96 28.22 626.65 28.52 627.1 28.25 626.94 27.61 626.08 27.88 625.66 27.48 626.2 27.21 627.07 27.16 627.72 26.88 628.08 27.17 627.71 27.77 627.98 28.14 628.59 27.94 628.96 28.32 628.71 29.28 629.39 29.71 630.06 29.48 630.43 29.05 630.92 29.57 631.31 29.07 631.87 28.8 632.2 29.45 631.98 30.15 632.79 30.21 633.19 30.85 633.73 30.63 633.74 29.78 634.03 29.5 634.59 29.58 634.79 29.93 634.69 30.58 635.1 30.62 635.76 30.1 637.26 30.29 638.23 30.8 638.57 31.36 639.49 30.71 640.03 30.8 640.3 31.35 640.81 31.67 641.32 31.32 641.24 30.54 641.66 30.05 643.43 30.22 644.29 30.15 645.92 29.84 646.46 29.95 647.48 31.08 648.64 31.43 649.98 31.59 650.73 31.57 651.37 32.06 652.65 32.54 652.46 33.4 652.3 35.65 651.47 39.79 650.96 42.94 650.81 46.18 650.96 48.04 651.6 50.84 651.41 51.62 651.03 51.74 650.47 51.16 649.53 51.2 649.49 52.17 650.77 53.7 651.96 54.92 653.72 55.18 653.97 55.37 654.06 56.91 654.49 59.8 654.51 60.44 654.05 61.67 654.97 63.12 654.97 63.57 654.17 63.82 655.05 64.64 656.05 64.54 655.61 66.23 655.56 68.09 655.76 71.3 656.21 74.1 656.59 75.52 657.36 79.1 660.02 88.99 662.62 99.84 663.23 102.65 664.91 109.26 665.89 112.35 667.01 114.95 668.23 116.13 668.47 116.67 668.7 118.26 669.36 120.7 669.82 124.9 669.99 126.39 670.7 129.47 672.11 133.4 673.3 136 675.14 140.99 680.17 152.73 684.34 161.21 689.23 171.76 692.44 178.69 697.82 189.38 700.89 195.48 703.18 199.37 704.69 201.39 705.96 202.77 706.83 203.56 707.07 204.26 708.56 207.13 710.14 209.79 719.69 224.09 724.64 231.83 725.37 232.91 727.8 236.54 734.36 244.81 734.77 245.26 737.56 249.36 739.81 251.99 741.01 253.23 742.02 254.52 742.75 256.94 743.08 258.96 743.42 260.25 744.13 262.03 745.02 263.61 746.03 265.72 747.18 267.73 747.17 268.2 746.78 268.76 745.7 269.05 743.77 269.87 743.12 270.22 741.62 271.55 740.93 272.73 740.47 273.15 739.58 275.49 739.11 277.33 738.67 280.38 738.61 281.63 738.6 284.85 738.97 289.45 739.93 295.4 740.37 297.27 742.26 304.24 743.16 306.93 743.74 308.42 744.81 310.83 746.57 314.52 748.88 319.05 750.57 322.2 753.28 326.82 754.25 328.56 755.38 330.44 755.37 330.59 755.36 330.68 757.34 334.45 758.63 337.08 759.92 339.34 760.8 341.06 761.95 343.12 763.25 346.94 764.02 349.05 764.73 351.55 765.41 353.74 765.46 354.54 765.76 355.42 766.2 356.23 767.05 357.34 767.57 358.34 768.2 361.22 768.54 362.41 769.58 365.77 770.74 368.37 771.19 369.9 771.78 371.13 771.79 371.95 773.21 375.41 774.85 379.52 777.78 385.09 778.49 387.03 780.35 391.18 782.03 394.72 785.35 400.67 785.73 402.1 786.19 403.14 785.76 403.79 786.47 405.45 787.04 407.03 787.38 408.33 788.26 410.22 790.04 413.31 792.44 418.96 793.25 422.26 793.79 423.62 794.25 425.22 794.88 426.72 794.8 426.9 795.29 428.8 796.67 433.1 797.44 435.68 799 442.28 798.9 443.24 798.94 444.66 798.53 444.72 798.36 445.43 798.64 448.56 798.68 450.17 798.81 450.84 798.74 453.47 798.54 454.91 798.41 458.05 798.51 461.5 798.5 462.62 798.21 466.1 797.92 467.67 797.88 468.61 797.58 469.4 797.01 472.38 796.45 475.94 796.12 478.06 795.82 480.42 795.43 484.6 795.33 484.75 795.2 487.13 794.89 490.55 794.71 490.66 794.39 492.41 793.87 498.7 793.52 498.94 793.13 500.54 792.9 502.56 792.54 504.33 792 508.39 791.65 510.35 791.49 511.68 791.29 515.86 790.88 516.4 790.84 517.36 790.49 520.88 790.11 526.05 789.98 527.27 789.81 531.53 789.57 534.49 789.52 536.57 789.61 538.12 789.8 539.94 789.82 542.06 789.75 543.94 789.59 545.46 789.21 546.81 788.53 550.02 788.56 550.59 787.9 551.41 787.64 551.51 787.3 551.99 787.06 552.98 785.57 553.88 786.06 554.32 786.75 554.63 786.74 555.34 786.44 555.99 786.31 556.78 785.93 557.5 785.86 558.27 786.24 560.33 785.88 560.9 785.56 560.89 785.22 560.03 783.68 558.75 783.89 558.22 784.78 557.23 784.67 556.67 784.19 556.34 785.31 555.66 786.1 554.91 783.91 552.68 783.52 552.51 781.34 552.52 781.03 552.28 780.41 552.56 780.18 553.07 779.44 553.2 777.33 554.49 776.15 555.94 776.47 556.55 776.57 557.51 774.99 560.02 774.23 561.65 774.13 562.41 773.88 562.85 773.74 563.72 773.34 563.91 772.24 565.73 770.99 565.57 770.24 566.17 769.88 567.39 769.99 569.28 770.53 570.8 770.1 571.5 770.04 572.25 769.57 573.4 769.3 574.54 768.17 574.64 768.12 574.67 767.5 575.37 767.55 576.45 767.28 576.55 767.05 577.32 767.38 577.91 766.63 578.31 766.55 579.15 766.61 581.7 767.23 582.09 766.93 582.93 767.59 583.51 767.6 584.32 768.07 584.85 768.66 584.93 768.15 585.6 768.07 586.79 767.84 587.14 768.12 587.76 767.88 589.16 768.66 589.72 769.48 590.09 769.92 589.84 770.24 590.11 769.72 591.65 768.89 592.72 768.41 592.87 768.04 593.34 767.56 594.44 766.33 596.01 766.37 596.88 765.63 597.12 765.39 596.61 764.64 596.67 764.42 596.38 763.39 596.89 763.07 598.32 762.72 599.09 763.33 600.23 763.2 600.68 761.79 600.26 760.51 601.76 760.31 602.37 760.26 603.4 760.58 603.88 760.62 604.79 760.33 605.79 758.89 606.09 758.94 607.04 758.16 608.56 758.13 609.14 758.56 609.95 758.95 610.23 760.13 610.65 761.21 610.59 761.42 610.04 762.35 609.79 763.19 609.95 763.26 609.16 765.26 609.03 766.07 607.51 766.63 606.98 767.19 605.57 767.13 604.81 767.37 604.42 767.43 603.2 767.27 602.92 766.58 603.01 766.48 602.3 766.17 601.78 764.96 601.7 764.47 601.51 764.86 601.04 765.98 600.68 766.63 600.28 767.38 600.86 768.11 600.57 769.24 599.72 770.11 599.26 770.32 598.76 771.03 598.37 771.81 597.73 771.94 596.81 772.84 596.31 773.31 595.34 773.57 594.37 774.27 593.86 775.25 594 774.95 594.45 775.74 595.07 775 596.72 773.99 597.2 773.15 598.24 773.01 599.28 772.13 600.99 771.14 602.26 769.97 603.94 769.33 605.1 769.14 605.73 768.47 606.25 767.61 607.83 767.17 608.12 766.87 609.15 766.53 609.3 766.24 610.3 765.41 610.82 765.24 611.6 764.9 612.06 764.46 612.22 763.74 613.1 764.05 613.26 765.17 612.94 765.57 613.08 765.1 613.67 764.7 614.73 764.21 614.75 763.51 615.08 762.71 617.13 762.26 617.37 761.85 618.08 761.48 618.12 760.34 619.42 759.23 620.01 758.26 620.07 757.8 619.85 757.15 620.55 757.11 621.39 755.78 622.81 755.19 623.11 753.86 623.45 752.74 624.35 751.42 626.01 750.48 626.73 750.91 627.66 749.93 628.81 748.81 629.3 748.14 629.98 748.1 630.41 746.48 630.99 746.08 631.69 744.81 633.02 744.39 633.8 743.38 634.51 742.54 635.56 739.52 636.33 738.54 637.05 736.92 638.5 735.77 639.8 733.27 641.58 732.96 640.89 733.85 640.54 734.1 639.88 734.77 639.96 735.22 639.65 735.96 638.75 736.22 638.69 737.05 637.78 736.81 637.12 736.89 636.4 737.92 636.67 738.18 635.77 739.17 636.2 739.77 635.64 739.26 635.05 739.44 634.36 739.9 634.18 740.73 634.83 741.26 634.45 741.62 634.76 742.53 634.8 743.12 633.96 743.41 633.99 743.95 633.48 743.87 633.03 744.29 632.52 744.84 630.99 745.32 630.66 745.22 629.34 745.62 629.39 747 628.89 748.15 629.26 748.42 628.97 748.35 627.88 748.8 627.86 749.37 627.35 749.73 626.77 749.68 626.41 750.16 625.87 751.21 625.26 753.9 622.51 754.02 621.84 754.92 621.52 755.76 620.8 755.79 620.54 756.82 619.49 756.75 618.86 755.86 617.98 754.48 617.36 753.87 616.9 754.32 615.95 753.82 615.09 753.82 614.01 754.87 612.07 755.44 611.93 755.79 611.39 755.83 610.7 755.34 610.68 755.1 610.03 754.56 609.78 754.17 609.19 753.84 609.15 753.44 608.58 752.78 608.74 751.97 608.37 751.25 608.66 751.05 609.04 750.21 609.27 750.03 609.83 749.15 608.98 748.71 608.1 747.79 607.45 747.27 607.52 746.71 608.24 745.47 608.55 745.75 609.26 744.99 609.18 744.64 608.92 744.68 608.3 743.88 608.55 743.23 608.53 743.62 609.86 742.59 610.53 742.43 609.96 742.6 609.44 743.17 609.04 742.69 608.58 742.07 608.77 741.2 608.7 741.06 609.7 740.2 609.9 739.79 610.85 738.99 610.85 738.71 610.3 738.94 609.62 738.38 609.48 736.67 610.31 736.05 610.32 735.24 610.8 733.84 610.57 733.54 611.44 732.99 611.41 732.61 612.26 733.47 612.32 734.39 612.67 733.89 613.79 733.97 614.29 733.48 614.56 733.44 615.06 733.81 615.49 732.82 615.95 732.1 615.93 731.92 615.66 732.84 614.58 733.48 614.27 733.73 613.54 733.27 613.01 732.31 613.27 731.87 612.49 730.78 612.5 730.08 613.1 729.7 613.14 729.03 613.66 729.05 614.58 728.5 614.69 727.96 615.7 727.7 614.88 726.48 614.06 726.25 613.47 725.77 613.23 725.65 614.03 724.76 613.83 724.01 613.42 723.85 614.23 724.51 614.9 725.52 614.88 726.56 615.44 725.38 615.78 724.39 615.85 723.41 614.78 723.13 614.18 722.21 613.75 721.3 613.91 721.21 614.43 721.58 615.02 721.27 615.22 720.81 613.96 720.1 613.4 718.38 613.69 719.01 612.29 718.91 611.93 717.43 611.45 716.8 611.63 716.89 612.35 717.29 613.08 715.56 613.95 714.85 612.69 714.25 612.35 713.23 612.16 711.18 612.34 710.41 612.51 709.89 612.82 709.36 613.47 708.4 613.45 707.83 613.8 707.67 614.67 707.95 615.31 707.77 616.15 706.16 615.98 703.3 616.7 703.06 617.33 702.61 616.7 701.81 616.57 701.09 616.94 700.3 616.75 697.43 617.77 696.33 617.65 694.93 617.23 692.04 617.35 690.41 617.76 688.96 618.34 688.53 618.61 687.82 618.43 687.13 617.03 685.59 615.54 684.68 614.82 683.97 614.5 682.54 614.31 682.41 611.6 681.7 610.06 681.02 608.97 680.35 608.27 679.28 607.48 679.4 605.01 679.68 604.24 679.8 602.48 680.38 601.91 680.26 600.92 680.62 599.47 681.36 598.74 681.71 597.43 681.4 596.72 681.8 595.88 682.64 595.01 683.29 594.81 684.6 595.26 684.93 594.58 685.03 593.56 684.83 593.1 684.21 592.9 684.48 592.3 684.28 591.84 684.43 591.02 683.85 590.87 682.5 590.78 681.54 590.17 681.53 588.91 681.9 588.38 681.63 587.86 681.61 587.14 681.41 586.56 680.81 586.04 680.85 585.21 680.28 584.51 679.8 583.49 679.64 582.13 679.71 581.54 678.42 580.93 677.51 580.36 675.33 577.65 675.28 576.56 676.02 574.75 675.37 573.23 674.87 573.09 673.67 572.2 673.37 571.56 672.83 571.1 672.92 570.63 672.25 569.97 671.85 568.64 672.1 567.94 671.97 567.15 670.98 566.95 668.85 566.33 668.45 565.24 668.65 563.8 667.64 563.13 667.56 562.21 666.92 562.14 666.96 561.15 667.44 560.61 666.71 560.23 667.16 559.51 666.87 558.65 665.51 558 664.61 557.04 662.67 556.23 662.18 555.7 661.02 555.09 660.06 554.33 659.51 553.46 659.54 552.96 658.51 552.79 657.26 552.18 657.52 551.35 657.31 549.42 656.51 548.81 655.86 549.04 653.78 548.49 652.84 547.51 651.62 547.26 651.02 546.93 649.28 547.08 648.01 546.47 648.65 545.66 648.21 545.26 647.33 545.04 647.02 544.61 645.96 544.53 645.59 543.61 644.9 543.19 644.32 543.05 643.65 543.46 643.29 542.79 642.47 542.55 641.72 542.8 641.95 541.6 641.27 540.91 639.84 541.64 639.35 540.73 638.43 540.37 638.11 540.95 637.58 540.61 637.23 539.96 636.56 540.04 636.21 538.8 635.65 538.52 633.85 537.18 632 537.33 630.6 536.5 630.32 535.78 629.93 535.78 628.68 536.78 627.57 537.86 626.8 538.26 626.48 538.82 626.93 539.31 627.06 539.88 626.75 540.9 626.24 541.56 626.15 542.09 625.47 541.89 624.97 541.32 622.49 536.61 622.02 536.14 621.99 535.52 620.78 535.37 620.8 534.42 620.52 533.05 619.8 532.04 618.3 530.99 618.05 530.34 619.2 528.99 619.87 528.81 619.72 528.41 619.15 528.07 618.71 526.73 617.8 525.99 617.32 525.22 616.2 522.39 614.96 520.19 613.78 517.58 613.2 516.26 612.45 509.88 611.85 507.68 611.62 504.12 611.21 501.01 609.9 494.95 608.7 491.46 607.61 489.07 606.75 487.63 606.78 487.45 606.14 486.12 604.53 484.51 604.5 483.49 603.52 483.5 602.7 482.71 602.57 482.09 602.2 481.48 601.54 480.79 600.41 480.03 598.85 479.15 596.99 478.36 596.17 477.87 595.61 477.17 595.87 477 596.44 477.63 597.13 477.71 596.94 476.84 595.59 475.85 594.41 475.38 592.7 474.97 591.45 475.06 591.05 474.76 591.25 474.05 591.63 473.68 591.59 472.72 591.33 472.03 591.44 471.28 592.57 470.61 592.59 469.95 591.77 469.77 590.78 470.36 589.71 470.2 588.32 470.69 588.25 470 587.87 469.95 587.7 469.2 587.02 468.95 586.65 468.34 586.29 468.3 585.12 469.66 584.87 470.69 585.2 471.96 585.74 473.08 586.42 473.68 586.42 474.04 584.86 474.16 583.37 474.48 582.3 475.07 581.3 475.07 581.21 474.29 581.61 473.41 581.83 472.25 580.93 471.78 581.68 471.34 581.4 470.91 580.63 470.49 580.46 470 580.43 469.11 579.53 467.61 579.26 466.23 579.33 464.73 579.63 464.43 579.11 463.9 578.53 461.82 577.84 461.56 577.21 460.49 576.89 459.27 577.43 458.28 576.65 457.21 574.96 455.61 574.62 454.85 573.33 454.31 573.1 453.67 573.12 452.91 574.15 451.8 575.79 451.62 576.47 451.96 577.8 452.08 579.19 452.44 580.66 454.32 581.24 455.82 581.51 456.02 581.48 457.19 582 458.06 583.18 457.93 583.77 457.26 582.8 455.88 583.29 453.95 583.47 452.14 584.01 450.63 585.4 447.91 586.11 445 586.48 444.44 586.53 443.31 587.04 442.75 587.22 440.39 586.66 438.44 586.99 436.99 587.03 435.08 586.06 433.46 585.5 433.14 583.29 432.6 582.62 431.75 582.2 429.88 582.7 428.98 583.28 428.49 584.12 428.67 585.28 428.48 586.59 427.65 586.74 427.22 585.99 426.16 585.45 425.69 584.11 425.19 583.22 425.21 582.38 425.75 581.96 425.8 581.73 425.19 579.84 424.77 580.27 426.04 579.31 426.61 579.11 427.23 578.41 427.87 578.16 428.36 577.55 428.89 576.19 428.79 575.71 428.27 574.91 427.81 574.77 427.38 574.12 427.02 573.17 427.65 573.37 429.16 574.49 431.5 576.29 436.23 577.16 443.07 577.04 443.69 576.53 443.63 575.42 444.16 574.43 444.96 572.74 444.96 571.7 444.74 571.29 444.96 570.83 445.63 570.35 445.25 569.23 445.41 568.18 444.94 566.16 445.79 565.81 446.72 565.69 447.61 565.13 449.45 565.23 450.45 564.65 450.28 564.7 449.7 564.61 446.43 564.1 443.51 563.83 443 562.72 441.46 562.54 440.92 562.74 440.22 562 439.1 560.72 437.53 558.2 433.77 557.28 433.04 556.45 431.96 555.48 430.52 553.45 427.34 552.34 425.35 551.16 423.77 550.34 422.49 549.41 420.43 548.39 418.73 545.61 414.54 544.5 411.74 544.08 410.42 543.55 409.28 543.18 408.98 542.33 406.08 541.31 404.25 539.92 401.96 539.62 400.99 538.75 399.12 538.42 398.67 537.6 396.94 536.94 395.99 536.11 395.15 536.09 394.8 535.18 393.51 533.2 392.58 532.68 391.98 532.59 391.58 533.44 390.56 533.61 389.94 532.65 389.57 531.94 388.44 530.81 387.36 530.43 386.44 526.91 382.89 525.48 381.03 524.92 380 523.01 377.6 521.53 376.37 519.97 375.31 519.78 375.02 519.87 374.27 518.1 369.73 517.4 368.39 516.35 367 514.41 365.17 514.12 364.36 514.47 364.3 516.73 365.48 518.08 366.01 517.71 367.49 517.81 368.25 518.21 368.6 519.93 368.81 520.38 368.63 520.3 367.59 520.64 367.05 521.59 366.37 522.91 366.04 523.58 366.2 524.33 366.09 525.08 365.75 524.59 364.91 525.75 364.32 526.05 362.98 526.61 362.25 528.16 360.96 528.05 359.74 528.19 359.48 529.24 359 529.79 358.56 530.72 358.55 531.79 357.98 531.75 357.37 532.3 357.19 533.02 356.29 532.99 355.36 533.31 353.95 533.77 353.88 534.2 353.18 536.01 350.28 536.91 349.07 538.13 347.65 538.42 346.85 540.45 345.45 541.76 345.35 542.36 344.95 542.31 343.74 541.86 342.89 542.19 342.59 544.37 341.92 545.66 341.33 545.93 341.4 547.01 340.48 547.31 339.94 546.66 339.53 548.39 337.74 549.17 337.58 549.16 336.32 549.31 335.82 550.57 335.45 551.89 334.88 551.79 334.43 551.26 334.44 550.97 333.48 551.1 333.01 550.73 332.17 550.64 331.29 550.16 331.28 549.95 330.88 550.27 330.57 550.06 329.18 550.13 328.28 548.8 326.41 547.29 326.42 546.96 326.57 545.96 324.85 545.26 325.7 543.92 325.43 543.87 324.34 544.08 322.56 543.44 322.65 540.92 324.37 540.78 324.91 541.16 326.95 541.93 327.57 541.8 328.68 541.25 329.14 541.03 329.7 541.12 330.31 542 331.36 542.89 331.98 543.18 332.4 542.81 334.58 542.51 334.74 540.98 334.57 538.74 334.01 536.92 333.1 536.36 333.49 535.98 333.2 536.06 332.66 534.67 331.51 534.36 330.36 535.86 330.13 536.6 329.42 536.67 327.9 535.83 327.97 535.5 327.12 536.26 327.12 536.19 326.11 536.63 326.04 536.55 324.78 536.23 324.14 536.68 323.49 536.4 323.34 536.41 322.41 535.22 321.87 535.67 321.51 535.13 321.17 535.27 320.56 534.25 319.42 533.04 319.41 532.69 320.01 532.21 319.83 532.71 318.52 532.27 318.58 531.14 318.16 529.79 318.07 529.16 317.81 527.26 316.42 527.05 315.94 525.59 315.34 525.28 314.92 525.17 314.19 524.33 314.05 523.63 314.19 523.39 314.52 523.66 314.97 523.34 315.94 522.6 315.82 522.69 314.98 522.32 314.24 522.51 313.95 522.56 313.01 521.34 312.5 520.31 312.79 519.97 313.07 520.49 313.79 520.71 314.48 521.36 314.99 521.49 315.38 519.69 317.65 519.59 318.47 520.01 318.59 519.33 319.81 518.91 320.12 518.24 320.1 517.81 320.47 517.19 320.32 516.64 320.72 516.31 321.65 516.67 321.65 516.76 322.66 518.61 323.94 519.63 324.07 520.57 324.79 522.41 325.15 524.01 325.77 524.43 325.83 524.77 325.39 525.39 325.96 525.4 327.2 526.05 327.38 527.69 328.46 529.07 330.11 529.8 330.22 529.58 330.9 529.96 332.39 530.54 333.2 530.6 333.75 530.01 334.3 530.14 334.68 530.72 334.95 530.3 335.58 529.71 335.51 528.64 337.06 528.67 337.69 528.2 337.96 527.07 338.08 526.72 338.95 527.15 339.68 526.9 341.1 526.22 341.78 526.34 342.27 526.84 342.36 526.98 342.76 526.57 343.13 526.79 344.01 526.72 344.61 525.89 346.33 525.24 347.03 523.91 347.41 522.81 347.2 521.9 346.82 521.3 346.79 521.31 347.96 521.04 347.98 520.99 346.83 520.07 347.5 519.17 347.23 519.07 346.59 517.72 346.88 517.49 347.58 516.95 348.28 516.87 350.16 516.37 350.24 516.44 351.39 517.02 351.87 517.21 352.54 517.61 353.04 518.09 354.77 518.4 355.28 515.71 356.43 515.04 356.61 515.16 355.32 514.98 354.5 514.29 352.86 514.16 352.29 514.53 350.01 514.89 349.15 514.93 346.73 514.69 345.53 514.03 344.27 513.28 343.63 512.53 342.7 511.53 340.49 510.52 339.59 510.08 338.72 509.42 337.88 506.28 335.5 505.43 334.61 504.49 333.1 504.01 332.33 503.55 331.25 503.06 329.16 502.95 327.92 503.41 325.38 503.93 322.9 504.75 321.22 505.12 319.68 505.07 319.08 505.3 317.78 505.47 313.84 506.49 310.84 506.69 311.16 506.99 312.68 506.77 313.78 506.72 314.7 507.47 315.27 506.79 315.8 506.57 316.31 507.39 318.38 507.29 319.15 507.92 319.53 508.69 317.04 509.16 315.27 509.04 314.68 509.29 313.93 509.39 312.39 509.89 310.92 508.52 310.87 507.84 310.5 506.84 310.19 506.09 310.28 504.85 309.26 504.37 307.61 504.62 306.31 505.58 307.24 505.84 308.34 505.75 309.27 506.2 309.64 507.12 309.47 508.39 310.43 510.16 310.43 510.16 309.59 509.84 309.11 510.61 308.32 510.65 307.94 510.14 307.57 510.49 305.77 510.15 304.9 510.41 304.15 510.37 303.63 510.7 303.19 510.12 302.93 510.39 302.56 509.98 301.01 509.06 299.07 509.02 298.57 508.65 297.87 509.17 297.83 509.59 297.46 508.7 296.89 508.66 296.25 509.77 295.7 510.26 294.18 510.73 294.03 511.57 294.15 512.32 293.02 512.28 292.93 512.17 292.85 513.05 292.02 512.16 291.6 512.39 290.54 513.05 290.68 513.85 290.05 513.74 289.66 512.81 289.22 513.7 289.1 514.4 287.84 514.42 286.81 514.7 286.33 515.5 286.36 515.48 285.32 515.21 284.54 515.53 284.18 515.23 283.77 515.59 283.03 515.4 282.88 515.62 281.84 517.26 279.69 517.68 279.32 517.71 278.86 517.08 278.86 517.02 278.45 517.55 278.24 518.79 276.62 518.2 275.42 518.2 274.79 518.45 274.05 518.83 273.61 520.2 273.06 520.24 272.69 519.5 272.38 519.19 271.93 519.5 271.58 520.43 271.78 520.75 271.22 521.24 271.05 522.08 270.45 521.97 269.71 522.36 269.54 522.31 268.88 522.64 268.51 522.28 268.11 520.97 267.59 521.05 267.02 522.07 266.8 522.42 266.04 522.29 265.79 522.65 264.66 522.19 264.12 522.45 263.76 522.06 263.4 521.21 263.55 522.19 262.67 522.13 261.39 522.28 260.52 523.66 260.04 523.88 259.52 523.47 258.78 522.79 258.15 522.95 257.8 523.93 258 524.06 257.5 523.47 256.27 523.52 255.57 524.6 255.03 524.77 254.65 524.26 254.28 524.37 253.96 523.61 253.79 523.45 252.42 522.75 252.28 523.76 251.57 523.83 251.28 523.13 250.66 522.51 250.57 522.49 250.21 521.96 249.97 521.77 248.66 522.29 248 521.26 247.23 521.52 246.58 522.29 246.35 522.14 245.72 522.91 245.92 523.63 245.13 523.63 244.54 522.28 244.24 522.36 243.36 521.59 243.13 521.54 242.68 519.86 242.31 519.42 241.65 518.42 240.97 516.74 241.05 516.75 240.53 517.35 239.66 518.04 239.51 518.42 238.72 519.57 238.98 519.97 238.65 519.14 237.49 519.1 236.51 519.22 234.72 518.66 234.36 519.77 233.16 519.82 232.81 519.12 232.38 518.89 232.81 518.22 232.25 517.55 232.03 517.35 231.33 516.57 231 515.75 230.32 515.55 229.84 514.86 229.39 515.08 228.23 516.02 227.87 515.84 226.99 515.37 226.52 515.67 225.87 516 224.52 518.86 223.76 520 223.02 520.11 222 520.09 220.91 519.37 220.4 519.39 219.79 518.77 219.47 519.32 218.85 519.34 218.26 518 217.72 516.42 215.88 516.22 214.97 515.5 214.51 514.34 214.13 514.35 213.29 512.92 212.48 513.47 212.27 512.67 211.79 512.2 211.03 512.69 210.31 512.81 208.99 513.31 208.22 512.91 207.42 512.46 205.59 512.23 205.28 510.84 204.98 509.64 205 507.92 205.3 507.82 205 510.01 204.19 510.16 203.73 508.44 203.13 507.57 203.36 506.79 203.34 506.89 201.86 506.31 201.85 506.4 201.36 505.95 200.62 506.82 200.3 507.08 199.83 507.62 199.61 508.24 198.76 508.14 198.3 507.54 197.82 507.83 197.38 507.72 196.7 507.93 195.62 507.69 194.99 506.97 193.95 506.27 193.97 506.07 194.43 505.59 194.38 504.84 194.74 504.08 194.34 502.32 193.97 500.41 194.27 499.28 194.03 497.19 193.71 496.7 193.45 495.56 193.19 494.53 193.38 493.18 193.39 490.1 193.07 487.59 192.73 487.48 193.86 487.1 194.49 486.01 194.79 485.69 195.21 485.59 195.82 485.92 196.26 485.24 196.37 483.82 197 483.1 196.56 482.42 196.96 482.37 197.39 481.86 197.7 481.5 197.37 481.35 196.41 481.47 195.65 481.05 195.47 480.65 196.06 480.28 194.93 480.53 193.73 480.33 192.23 479.7 191.49 478.4 189.01 478.22 188.29 478.33 187.42 478.96 186.41 478.82 185.89 479.59 184.98 479.33 184.21 478.1 183.03 477.44 182.75 477.24 182.42 476.58 182.5 475.49 181.83 474.26 181.74 474 181.33 472.94 181.19 471.53 180.36 471.17 180.41 470.48 181.02 469.69 180.59 470.17 179.85 469.59 179.41 469.11 178.77 469.22 178.48 470.99 177.19 470.83 176.73 470.16 176.91 469.73 176.43 469.33 176.36 469.5 175.06 469.18 174.61 468.56 174.4 467.75 173.35 467.38 172.36 466.61 172.38 466.32 171.1 466.02 170.77 466.25 170.27 466.19 169.61 465.26 169.2 465.35 168.51 464.93 167.96 465.01 167.64 464.55 166.87 463.45 166.8 463.25 166.14 462.2 165.54 460.4 165.56 459.73 165.27 458.89 165.64 458.03 165.52 457.56 165.05 456.61 165.14 457.03 164.32 456.32 164.04 455.21 162.47 455.13 161.8 454.44 161.14 453.74 160.92 452.69 161.09 451.76 160.02 450.7 159.65 450 158.54 448.58 158.54 447.63 158.15 447.14 157.16 446.68 157.22 445.43 156.72 445.29 156.08 445.9 155.77 445.48 155.06 445.13 153.99 445.42 153.27 445.14 151.71 444.71 151.12 444.91 150.31 444.73 149.24 444.93 148.5 445.28 147.93 445.51 146.67 445.31 144.53 444.78 142.75 444.23 142.05 443.91 141.36 444.45 140.85 443.91 140.63 442.84 140.74 442.44 140.16 441.65 139.91 440.77 139.94 440.4 140.14 439.65 140.01 439.32 139.59 437.22 138.84 436.67 138.78 436.69 137.69 436.25 137.51 435.7 136.21 434.53 136.1 433.96 136.24 433.63 135.81 432.21 135.32 430.5 134.58 430.01 134.16 429.31 133.22 428.67 133.02 428.58 132.37 428.03 131.09 427.27 130.9 426.58 131.32 425.97 131.09 426.68 130.36 425.6 128.8 426.25 128.38 426.37 127.88 425.62 126.48 425.95 125.81 425.85 125.06 425.47 124.8 425.06 125.1 424.94 124.11 424.19 123.84 423.92 123.22 423.35 123.19 422.52 122.6 422.41 122.05 421.39 120.38 421.05 119.29 420.59 119.02 420.48 118.01 418.84 117.11 417.93 116.29 417.26 115.92 416.95 115.52 416.37 115.33 415.99 114.28 415.14 114.22 414.25 113.63 412.74 113.06 412.13 112.64 411.05 112.25 409.86 111.38 409.11 110.48 408.45 110.7 407.46 110.16 406.92 109.4 406.21 109.4 406.02 108.97 404.66 108.47 403.92 108.6 403.2 108.4 402.67 108.5 402.16 107.95 401.43 107.71 401.16 107.93 400.47 107.82 398.71 106.26 397.3 105.55 396.87 105.23 395.71 104.88 391.6 103.01 391.53 102.64 390.32 102.42 389.45 101.73 389.64 101.42 388.88 100.79 388.38 100.72 388.19 100.28 387.64 100.45 387.56 99.9 386.72 99.24 385.9 99.15 385.68 98.66 385.26 98.44 384.25 98.38 383.62 97.9 383.95 97.17 383.57 96.89 382.85 97.48 382.28 97.11 382.58 96.46 381.78 95.81 381.01 95.84 379.94 95.21 378.63 95.32 378.26 95.6 377.37 95.22 376.12 95.51 375.88 95.41 373.77 96.37 372.65 96.19 371.4 96.48 370.54 97.08 369.83 96.48 369.38 96.54 368.25 97.34 365.98 98.42 364.87 98.56 363.68 98.37 363.12 97.94 363.36 97.41 363.87 97.08 364.24 96.5 362.75 96.18 362.17 95.79 361.27 94.27 360.91 94.05 360.57 94.8 361.02 95.99 361.65 96.82 361.14 97.17 359.53 97.24 357.61 97.07 357.38 96.59 356.7 96.29 356.51 95.44 355.61 95.06 354.96 95.17 354.8 95.53 354.22 95.8 353.89 96.36 353.73 97.33 354.11 98.13 354.07 98.91 353.4 99.73 352.87 99.63 352.08 100.05 351.23 100.02 349.17 101 347.9 101.92 347.4 102.16 346.85 102.98 346.23 103.22 346.35 103.69 345.5 104.7 345.06 104.1 344.54 104.41 344.06 105.14 344.61 106.27 344.5 107.34 345.08 108.11 345.53 108.25 346.31 107.62 346.79 108.64 346.62 109.17 345.93 109.3 344.65 109.07 343.36 108.56 342.05 108.44 341.06 107.9 339.57 107.63 338.53 107.81 337.47 107.43 336.92 107.05 336.56 107.3 337.09 108.55 336.67 109.23 336.1 109.43 336.04 110.02 336.42 110.23 337.76 110.25 338.64 109.67 339.63 109.89 340.05 110.27 342.48 110.17 343.43 111.04 343.86 111.15 344.62 110.86 345.55 111.15 346.36 111.61 346.95 111.67 347.17 112.09 347.46 114.06 347.23 115.19 346.64 116.32 346.34 116.65 345.57 116.93 344.86 116.89 343.44 117.17 342.51 117.21 339.99 116.42 338.06 116.2 337.02 115.76 336.22 115.19 335.39 114.28 335.08 113.5 334.19 113.63 333.13 113.97 331.63 114.84 330.85 115.51 330.58 115.08 329.93 114.86 328.92 114.83 326.25 115.49 322.87 117.44 320.18 118.55 319.17 119.05 318.14 119.91 316.9 120.7 315.98 121.14 315.69 121.49 314.97 121.81 313.99 122.48 313.79 123.27 312.35 123.13 311.64 123.49 311.71 123.88 310.7 123.82 309.85 123.99 308.83 124.49 307.22 125.62 306.1 126.31 305.42 126.5 303.19 128.25 302.54 128.23 299.42 129.8 298.69 130.3 298.16 130.41 295.99 131.42 294.62 131.67 293.23 132.36 291.36 133.08 289.94 133.98 289.29 135.19 288.79 135.11 288.57 134.59 287.81 133.83 288.47 132.83 289.07 131.68 289.48 130.67 290.13 130.27 291.06 129 290.91 128.08 291.11 127.35 290.38 127.24 289.91 127.41 289.86 128.21 289.59 128.67 287.6 128.48 286.44 128.8 286.31 129.46 285.84 129.89 285.14 131.12 284.45 131.68 284 132.27 283.14 132.81 281.3 133.37 280.81 134.7 279.95 135.31 278.93 135.7 276.08 136.54 274.9 136.26 273.77 136.63 273.31 136.19 269.97 135.54 266.86 135.57 264.79 135.87 259.45 137.17 258.93 137.52 257.81 137.58 256.91 137.81 256.29 137.73 251.2 138.89 251.73 139.47 253.44 139.38 253.16 139.91 252.11 139.96 250.28 139.5 248.5 139.27 246.19 139.22 244.12 139.47 242.27 140.12 241.17 140.84 240.64 141.04 240.09 140.73 239.22 139.92 238.15 138.39 236.89 135.93 235.72 133.03 235.11 131.04 234.54 128.97 234.14 127.09 233.8 124.92 233.72 123.9 233.9 122.57 234.32 120.77 234.81 120.12 236.25 119.21 236.47 119.42 235.67 120.69 235.54 121.74 234.46 123.82 234.46 124.31 234.82 125.03 234.46 126.19 234.54 126.8 234.98 127.96 235.26 129.19 235.15 129.92 235.4 130.81 236.02 130.99 236.37 131.84 236.7 133.11 236.75 134.37 237.42 135.5 237.87 136.53 238.54 137.21 238.4 137.88 238.54 138.37 239.43 138.47 239.56 138.79 239.38 139.58 239.67 139.78 243.02 138.96 243.77 139.07 244.61 138.96 245.02 138.25 245.31 137.17 245.17 136.24 245.46 136.1 245.63 135.37 245.57 132.23 245.69 131.5 245.52 130.2 245.69 129.68 245.96 127.15 245.76 126.11 244.85 125.53 244.52 124.7 244.52 123.61 244.22 122.96 243.43 122.32 242.66 122.23 242.2 121.87 241.55 120.96 241.47 120.55 240.79 118.96 239.36 116.66 237.16 114.35 235.02 112.51 233.41 111.6 232.58 111.3 231.52 111.15 229.77 110.59 228.67 110.51 228.1 110.59 227.02 110.48 225.76 109.95 224.16 109 222.48 107.36 221.85 106.31 221.16 105.65 220.34 105.48 219.42 104.8 216.52 102.09 215.79 101.32 215.03 100.74 212.76 99.52 209 97.85 205.82 96.5 204.1 95.69 201.02 93.64 198.83 91.72 196.16 89.65 192.4 87.34 185.37 83.42 180.71 81.11 178.08 79.91 172.59 77.63 163.14 74.19 153.72 71.27 150.98 70.52 147.03 69.35 144.92 68.78 139.63 67.6 136.65 67.08 134.36 66.75 129.34 66.14 126 65.84 123.17 65.76 121.21 65.8 119.46 65.93 117.99 65.47 115.8 65.23 113.86 65.1 111.65 64.81 110.99 64.83 106.98 64.43 103.62 64.4 97.75 64.62 95.07 64.77 89.77 65.3 84.83 65.82 80.65 66.42 72.57 67.71 62.54 69.5 57.82 70.43 51.32 71.66 46.01 72.31 41.4 72.73 39.2 72.81 37.43 72.35 36.12 71.61 36.02 71.39 34.84 71.86 34.64 72.31 32.99 72.71 27.39 73.9 24.15 74.67 22.78 74.95 20.03 75.31 15.98 76.13 13.23 76.62 Z M 311.68 128.49 311.98 128.45 313.02 128.96 314.42 128.75 314.89 128.13 315.86 128.3 316.94 128.08 318.34 127 319.19 125.82 320.43 125.38 321.39 124.64 321.58 124.22 322.4 124.06 322.44 125.08 322.24 125.57 321.32 126.42 318.44 127.58 317.02 128.25 313.3 129.22 312.39 129.36 311.95 129.19 311.68 128.49 Z M 267.34 145.28 267.91 145.26 268.73 146 269.32 146.2 270.29 147.04 272.04 147.69 274.7 148.38 275.88 148.22 275.99 147.69 276.7 147.55 277.75 147.54 279.48 147.13 281.83 146.19 282.95 145.66 284.61 144.13 285.09 144.02 285.32 143.32 285.9 142.93 286.65 142.8 287.63 142.92 288.73 142.11 289.51 142.1 290.18 141.35 290.87 141.28 291.9 140.71 292.08 140.4 292.96 140.49 297.15 139.51 297.66 139.18 298.22 139.25 299.52 138.64 299.17 138.1 298.76 138.08 298.67 137.32 299.09 137.25 299.9 138.06 300.39 138.31 300.91 137.97 300.72 137.27 300.92 136.76 301.99 136.34 303.17 135.44 304.22 134.78 304.84 134.73 306.32 133.75 306.56 132.98 307.27 132.85 308.23 131.86 308.41 131.18 309.02 130.8 309.56 130.1 309.8 130.92 309.08 131.44 307.01 133.43 302.19 137.57 300.94 138.36 298.62 139.47 296.37 140.28 295.42 140.46 292.88 141.24 291.17 141.87 289.64 142.55 284.06 145.57 282.11 146.56 273.73 149.2 272.8 149.4 272.23 149.06 270.25 147.48 268.7 146.44 267.52 145.81 267.34 145.28 Z M 254.19 139.71 254.85 139.56 255.8 139.59 256.35 139.37 259.84 139.38 261.12 139.68 262.88 139.24 263.4 138.95 265.54 138.73 267 139.14 267.68 139.13 268.58 139.64 269.09 140.17 269.74 140.27 268.95 141.19 267.95 142.74 267.38 144.56 267.04 144.69 264.89 144.88 263.31 144.67 262.74 144.46 261.08 143.03 257.89 141.14 256.09 140.4 254.56 140.04 254.19 139.71 Z M 483.82 197.85 484.52 197.67 484.93 197.99 484.65 198.63 483.82 198.22 483.82 197.85 Z M 483.82 200.55 484.72 200.9 484.34 201.16 483.73 200.9 483.82 200.55 Z M 479.47 200.34 480.95 200.25 481.15 200.54 480.58 200.97 480.02 200.86 479.47 200.34 Z M 477.63 197.17 478.16 196.85 478.77 197.47 478.45 198.39 477.97 198.54 477.98 197.74 477.63 197.17 Z M 503.91 303.24 504.25 303.43 504.4 304.05 503.94 304.28 503.91 303.24 Z M 503.08 293.73 503.23 293.56 504.18 293.71 503.93 294.24 503.34 294.5 503.71 295.06 503.62 295.5 503.91 295.96 503.49 296.3 503.49 296.87 504.19 298.44 503.54 298.61 503.19 297.09 502.93 293.9 503.08 293.73 Z M 548.25 332.06 549.77 331.7 549.82 331.91 548.62 332.14 548.25 332.06 Z M 546.48 329.91 546.69 328.11 547.84 328.13 547.86 329.79 547.28 330.31 546.48 330.19 546.48 329.91 Z M 546.08 333.67 546.36 332.79 547.13 332.89 547.03 334.61 546.03 334.48 546.08 333.67 Z M 512.91 231.92 514.5 231.66 515.72 232.27 516.42 233 515.62 233.67 515.07 234.75 513.94 233.74 514.05 232.9 513.75 232.25 512.91 231.92 Z M 519.4 351.06 519.56 350.72 520.19 350.8 520.26 351.36 519.44 351.47 519.4 351.06 Z M 512.18 358.85 512.27 357.87 512.75 357.89 512.56 359.45 512.18 358.85 Z M 568.87 462.58 569.31 462.14 569.89 462.58 570.73 464.61 571.5 466.99 571.68 467.77 572.25 468.8 572.67 470.91 573.55 472.07 573.52 472.75 573.91 473.64 573.69 473.98 574.67 474.19 574.71 474.67 575.62 475.27 576.71 475.73 577.69 475.76 578.49 475.58 579.79 476.15 583.11 478.09 584.32 476.94 585.4 476.94 585.82 476.52 588.11 477.77 589.01 478.35 590.23 478.3 590.93 478.41 585.77 481.21 584.52 481.56 583.69 481.56 582.09 481.26 579.09 480.07 576.78 478.06 574.24 476.78 573.42 475.87 572.82 474.51 571.52 468.56 571.22 467.99 571.25 467.47 570.84 466.25 569.96 465 569.21 464.58 568.83 463.6 568.87 462.58 Z M 564.84 454.07 565.27 453.65 565.54 451.98 566.14 451.58 566.56 451.76 566.94 452.74 566.64 453.83 566.91 454.34 567.81 454.83 567.46 455.63 567.36 456.32 567.91 457.68 568.43 458.22 568.48 459 568.91 460.07 569.43 460.25 568.89 461.4 568.47 460.04 568.1 459.24 567.61 458.91 566.33 456.42 565.69 455.83 564.84 454.74 564.84 454.07 Z M 775.15 593.07 775.17 592.57 775.56 592.1 775.48 590.85 776.43 590.06 776.98 590.25 777.38 589.73 776.11 589.35 776.86 588.92 777.33 589.43 777.74 589.17 777.6 588.69 778.72 588.52 779.1 588.16 779.57 588.2 780.33 587.32 780.27 586.22 780.04 585.88 780.66 585.45 781.16 584.49 781.96 582.39 782.14 581.28 782.53 580.72 782.65 580.14 783.06 579.7 783.31 579.04 782.42 578.63 782.49 577.75 783.33 577.66 783.55 578.18 783.75 579.81 783.55 580.29 782.36 582.38 782.38 583.22 781.25 585.7 780.87 586.71 780.9 587.31 778.59 589.47 778.01 590.15 778.25 590.59 777.82 591.69 776.96 593.49 777.17 594.01 776.02 594.62 775.72 594.03 775.11 593.62 775.15 593.07 Z M 770.44 590.91 771.47 590.36 771.56 590.97 771.33 591.27 770.57 591.2 770.44 590.91 Z M 753.92 625.48 755.21 625.18 755.24 625.55 754.11 625.77 753.92 625.48 Z M 751.64 621.74 751.87 621.08 752.48 621.29 751.64 621.74 Z M 748.3 615.03 748.96 614.59 749.25 615.2 748.3 615.03 Z M 742.38 615.27 742.99 615.1 743.73 615.9 743.31 616.16 742.94 615.23 742.38 615.27 Z M 742.03 619.83 742.77 619.45 742.62 618.34 743.44 619.54 742.37 619.92 742.03 619.83 Z M 741.52 614.02 742.16 614.36 741.76 614.67 741.52 614.02 Z M 738.51 612.45 739.38 612.59 739.91 612.94 740.72 612.82 740.71 613.74 739.72 613.76 739.11 613.39 738.94 612.81 738.51 612.45 Z M 737.28 623.3 738.21 622.94 738.29 624.07 738.53 624.58 737.83 624.75 737.92 623.6 737.28 623.3 Z M 736.72 611.62 738.03 611.73 737.8 612.36 736.72 611.62 Z M 733.16 619.57 733.42 619.29 734.1 619.57 734.45 619.39 735.2 618.4 735.19 617.91 734.34 617.09 734.82 616.97 735.72 618.21 735.29 619.63 734.48 620.05 734.99 620.55 734.69 621.24 735.11 622.17 735.06 623.11 734.43 622.96 734.16 622.59 734.28 621.88 733.99 620.5 733.75 619.98 733.16 619.57 Z M 732.44 631.92 732.83 631.3 733.52 631.23 733.28 632.09 732.44 631.92 Z M 731.98 638.84 732.48 638.35 732.88 639.01 732.35 639.36 731.98 638.84 Z M 730.9 620.23 731.5 619.88 732.1 620.49 730.9 620.23 Z M 730.43 618.78 730.5 617.91 730.98 617.88 731.35 618.79 730.78 618.6 730.43 618.78 Z M 728.76 625.03 729.28 624.29 729.6 624.5 729.06 625.6 728.76 625.03 Z M 728.66 617.94 729.41 618.22 728.88 618.65 728.66 617.94 Z M 728.41 641.09 728.77 640.46 729.14 640.46 729.52 641.35 729.2 641.66 728.55 641.61 728.41 641.09 Z M 727.26 616.03 728.65 616.81 728.97 617.47 728.19 617.28 728.02 616.89 727.26 616.03 Z M 725.51 631.28 725.67 630.55 726.34 630.28 726.07 631.2 725.51 631.28 Z M 724.93 623.93 725.22 623.24 725.69 623.41 725.99 623.98 724.93 623.93 Z M 724.52 646.16 724.57 645.86 725.37 645.05 726.07 644.81 726.66 645.24 727.53 644.79 728.34 644.18 728.4 643.37 729.2 642.94 729.89 643.22 729.25 643.64 728.48 644.63 727.7 645.08 726.12 645.72 725.13 646.68 724.52 646.16 Z M 713.27 651.19 714.53 650.82 716.23 649.33 716.6 649.3 717.4 648.28 717.84 648.15 719.1 647.24 719.32 647.58 718.13 648.29 717.26 649.26 717.56 649.84 718.37 649.97 719.26 649.11 719.71 649.41 718.9 650.53 715.77 650.5 714.66 651.07 713.43 651.51 713.27 651.19 Z M 709.61 619.19 709.85 618.3 710.42 618.71 710.35 619.17 709.61 619.19 Z M 706.26 619.41 706.57 619.23 707.06 619.86 706.67 620.11 706.26 619.41 Z M 705.41 655.3 706.08 654.89 706.53 654.21 706.92 654.15 707.15 654.88 706.56 655.37 705.41 655.3 Z M 684.25 661.55 684.89 661.47 686.07 660.95 686.94 661.04 687.87 660.55 688.87 660.38 689.27 660.56 690.89 659.25 691.41 659.03 692.03 658.35 692.98 657.75 693.49 657.8 694.62 658.77 695.56 658.65 696.28 658.04 696.49 658.22 697.93 657.68 697.91 657.19 698.45 657.07 698.68 656.57 699.44 656.75 699.75 656.32 700.29 656.07 700.81 656.17 701.12 655.61 702.36 655.35 703.74 654.47 704.56 654.64 703.79 655.21 701.09 656.87 700.74 657.27 699.91 657.58 698.14 658.81 696.64 659.48 696.1 659.99 694.84 660.52 694.25 660.08 694.38 659.49 693.74 659.42 691.73 660.19 691.03 660.64 690.29 660.73 689.89 661.06 689.38 661.85 689.08 662.66 688.69 663.14 687.43 663.41 686 663.49 685.5 663.11 685.17 662.39 684.25 661.55 Z M 667.87 666.95 668.57 666.18 669.22 665.97 670.05 664.93 671.12 665.09 671.81 665.02 671.65 665.53 669.29 666.48 668.66 666.59 667.87 666.95 Z M 666.31 654.18 666.57 653.81 667.14 654.28 667.43 654.77 666.98 655.05 666.49 654.68 666.31 654.18 Z M 664.36 656.82 664.62 656.41 665.22 656.3 665.91 657.36 665.96 657.71 664.36 656.82 Z M 662.64 659.19 663.21 659.05 663.16 658.12 662.87 657.02 664.02 658.17 664.76 658.23 665.62 659.11 665.63 660.06 665.93 660.52 665.31 660.62 664.81 659.67 664.52 659.42 663.52 659.27 662.77 659.5 662.64 659.19 Z M 661.43 658.18 662.61 657.92 662.54 658.65 662.28 658.74 661.43 658.18 Z M 659.98 556.97 660.38 556.57 661.53 556.02 662.08 556.52 661.84 558.09 660.55 558.41 660.02 558.13 659.87 557.7 659.98 556.97 Z M 612.11 678.16 612.63 676.83 613.39 676.52 613.65 675.53 613.45 675.3 613.43 673.4 613.86 673.54 614.02 674.36 614.01 675.33 615.24 675.11 616.1 674.39 616.9 674.26 618.33 674.86 619.75 673.83 621.57 672.09 620.9 670.94 618.48 669.83 617.02 669.37 617.43 668.38 618.18 667.12 619.08 666.5 623.74 664.63 625.2 663.74 626.78 662.35 628.44 661.99 629.77 661 634.44 659.18 635.99 658.44 637.4 656.38 638.42 655.96 643.21 656.4 643.42 656.23 644.79 652.9 645.06 652.58 647.46 651.91 650.79 650.4 651.03 650.45 651.2 651.41 650 652.96 649.28 653.71 649.38 654.57 649.95 655.28 653.24 654.11 654.22 652.8 654.79 652.56 657.69 653.67 658.32 653.99 658.98 655.02 658.9 657.84 659.42 658.39 659.62 659.29 660.48 660.17 661.47 661.55 662.05 661.82 662.6 661.79 663.8 662.01 664.13 662.54 664.59 664.21 664.93 666.01 666.18 666.98 664.48 667.83 662.93 668.02 662.43 668.62 661.87 668.56 660.96 669.03 659.42 669.33 656.42 670.44 655.91 670.57 655.16 670.32 654.69 668.33 654.04 667.88 652.99 667.9 651.61 667.47 650.75 668.31 650.53 668.13 650.44 667.18 647.7 667.65 646.91 668.11 646.77 667.77 644.24 667.07 643.85 667.85 644.01 668.79 643.73 670.1 642.87 670.81 641.26 670.91 640.5 671.28 638.65 671.78 638.13 672.39 637.04 672.69 635.91 673.27 635.21 673.47 633.91 674.24 633.13 674.3 631.41 674.99 630.35 674.98 629.74 675.42 627.53 675.6 626.26 676.68 625.42 677.13 624.11 677.04 622.7 677.37 622.07 677.29 620.17 677.32 618.76 677.55 618.1 677.85 617.22 677.78 615.98 677.99 614.85 678.38 613.01 678.61 612.06 678.51 612.11 678.16 Z M 603.61 676.7 604.37 676.68 604.12 677.22 603.61 676.7 Z M 600.25 678.58 600.65 678.2 601.04 678.68 600.27 679.09 600.25 678.58 Z M 599.91 680.22 600.2 679.84 600.89 680.29 599.91 680.49 599.91 680.22 Z M 591.36 679.62 591.6 679.31 592.41 679.77 592.49 680.17 591.71 680.4 591.36 679.62 Z M 577.13 673.85 577.7 673.3 578.74 673.05 579.29 673.1 581.04 673.77 581.72 674.36 581.94 675.46 581.75 676.41 581.27 677.14 580.67 677.46 580.48 677.88 579.93 678.19 578.72 678.22 578.37 677.78 579.48 677.85 580.54 677 580.81 676.08 580 675.97 579.6 674.71 579.2 674.33 577.75 673.77 577.13 673.85 Z" fill-rule="evenodd" fill="none" stroke="currentColor" stroke-width="1"/>
</g>
</svg>