<?xml version="1.0"?>
<svg xmlns="http://www.w3.org/2000/svg" version="1.2" baseProfile="tiny" width="800" height="780" viewBox="0 0 800 780" stroke-linecap="round" stroke-linejoin="round">
<g id="state">
<path d="M 101.95 671.09 102.46 668.89 101.65 668.06 101.45 666.91 100.77 665.7 100.93 664.04 100.46 662.24 99.32 661.28 98.67 660.07 97.61 658.8 97.99 657.29 97.38 655.1 96.42 653.73 96.16 652.83 93.21 650.97 92.22 649.12 91.64 647.34 89.33 644.76 86.94 644.36 85.67 643.58 85.86 641.03 85.13 640.18 84.44 640.14 84.25 638.44 84.45 637.26 85.65 636.08 86.14 633.48 85.75 632.15 85.2 631.37 84.7 629.86 83.65 627.99 83.39 626.93 83.57 625.34 83.28 624.52 83.88 624.02 85.89 623.52 87.23 622.03 87.67 620.28 87.72 619.08 88.33 617.91 88.32 616.44 87.39 614.92 87.78 614.21 87.95 612 86.87 611.48 86.93 610.14 88.56 606.8 88.84 605.42 89.41 604.07 88.99 602.24 89.51 601.53 89.86 599.55 91.24 599.27 91.37 597.59 91.19 596.29 90.76 595.25 90.37 592.76 91.36 590.12 91.96 589.47 92.28 588.45 94.9 583.96 94.28 583.1 95.42 580.88 95.24 579.76 93.74 577.96 93.5 576.93 92.66 575.59 93.08 574.28 92.6 573.55 92.63 571.78 92.94 569.73 92.22 569.33 92.73 567.77 92.39 567.07 90 565.76 88.83 564.45 87.79 563.85 88.89 561.34 86.88 560.67 84.03 557.73 83.28 556.16 82.01 555.51 81.27 554.59 81.17 551.15 81.92 550.03 82.41 548.77 81.96 546.68 80.75 544.3 81.32 543.16 81.2 542.43 79.23 540.94 78.61 540.16 80.1 538.49 80.1 535.86 80.32 534.11 79.38 531.92 78.61 530.63 79.29 529.53 78.79 527.59 79.61 526.75 79.96 525.48 80.79 524.4 80.63 523.26 79.96 522.21 80.1 521.62 82.76 521.66 83.83 520.99 83.6 519.91 84.24 519.75 83.41 518.47 85.21 517.55 85.58 516.43 86.87 515.71 88.17 514.2 89.14 513.73 88.61 512.98 87.82 510.79 88.42 510 89.98 509.71 91 509.18 91.32 508.54 90.48 506.78 90.92 505.77 91.09 504.46 91.74 503.02 93.14 501.92 93.1 500.74 94.18 499.86 92.94 498.96 92.64 498.08 93.41 497.38 92.51 495.9 92.88 494.64 92.84 493.7 93.29 492.32 93.02 491.24 93.45 490.21 94.52 489.68 94.82 488.96 94.06 487.74 93.42 486.15 93.14 484.67 91.97 481.52 92.93 480.68 94.76 479.59 96.76 477.43 97.91 475.89 99.5 474.65 100.82 473.29 102.13 473.07 106.65 471.68 108.44 470.91 108.77 470.47 108.19 469.55 106.56 469.58 105.68 468.91 105.74 468.36 106.83 467.26 107.82 466.97 108.82 467.19 112.91 467.17 114.17 466.99 115.27 466.07 115.46 464.71 116.38 464.09 116.98 462.95 116.35 462.48 115.17 462.7 115.02 461.81 117.9 462 118.48 461.6 118.91 460.43 120.59 460.58 121.04 460.02 118.37 457.82 117.4 457.4 114.97 455.59 113.45 453.75 112.1 453.03 110.52 452.64 104.24 450.25 101.9 449.71 101.17 448.71 101.01 447.32 101.6 445.89 103.58 444.44 105.07 443.01 104.82 441.32 106.17 441.09 107.03 440.5 106.58 440.02 104.66 440.01 104.3 439.19 105.21 438.06 107.29 438.28 107.08 437.71 105.64 436.58 105.81 434.66 107.08 433.99 108.49 432.94 107.89 430.79 107.08 429.54 105.07 429.07 103.45 428.21 102.69 426.37 102.61 425.2 103.16 424.1 103.23 422.29 102.56 420.46 102.94 419.69 102.47 418.75 102.19 418.26 102.11 417.49 101.3 416.86 100.96 415.8 100.05 415.59 99.81 414.75 98.97 414.14 98.4 412.77 97.11 412.56 96.68 411.3 94.85 410.3 94.75 409.62 92.83 408.03 92.78 407.57 91.66 406.71 91.11 406.68 89.73 404.4 88.86 402.42 88.62 400.62 87.14 399 88.51 397.51 88.14 397.08 87.01 397.51 85.74 397.35 84.7 395.69 85.89 394.5 87.54 393.54 86.78 392.42 86.66 391.5 84.89 389.84 83.55 389.27 82.79 387.88 82.26 385.33 82.48 384.73 81.81 383.78 82.21 382.5 83.41 380.97 82.81 379.77 80.98 379.41 80.06 378.99 79.01 377.78 78.41 376.14 79.24 375.32 79.53 374.53 80.44 374.81 81.69 374.36 81.77 373.82 79.77 372.32 78.97 372.2 78.45 371.01 77.13 370.83 75.29 369.08 74.23 367.76 74.68 366.68 74.13 365.17 74.79 363.89 75.47 363.31 76.47 363.05 76.53 361.76 75.18 360.25 73.89 360.92 72.19 360.34 71.55 359.58 71.42 357.9 68.98 345.82 68.28 342.2 63.42 318 60.96 305.29 59.54 297.7 55.7 277.61 53.4 265.75 52.7 262.41 51.37 255.33 46.63 231.51 42.59 210.93 39.15 192.83 37.61 185.18 34.37 168.7 34.23 168.28 30.64 149.54 30.43 147.76 29.61 143.86 25.53 123.59 23.57 113.75 20.3 98.6 18.23 89.33 16.61 81.94 16.33 80.98 15.76 77.83 14.05 70.11 12.87 64.02 10.03 51.06 8.33 43.08 6.14 32.12 4.69 24.61 2.43 12.61 1.97 9.3 1 3.78 22.96 4.06 37.9 4.07 54.31 3.75 59.52 3.7 62.89 3.59 65.2 3.65 80.46 3.48 93.49 3.44 102.44 3.3 110.27 3.24 134.55 3.3 144.23 3.21 155.58 3.2 165.19 3.23 165.76 3.17 185.56 3.23 188.23 3.2 206.65 3.23 215.96 3.16 228.45 3.16 230.36 3.24 264.05 3.39 280.27 3.31 285.49 3.38 290.87 3.34 300.95 3.34 311.75 3.26 323.26 3.39 333.52 3.45 333.5 2.55 344.47 2.5 356.47 2.34 373.4 2.08 387.64 1.84 396.87 1.56 418.83 1 419.17 1.11 420.2 1.74 420.8 2.57 419.42 4.03 418.74 5.29 417.17 6.5 416.99 7.45 417.27 8.36 416.51 8.75 416.03 9.56 417.11 10.93 417.77 10.81 418.64 12.11 417 12.34 416.1 11.51 415.28 12.05 415.35 12.88 413.65 13.86 411.4 12.84 410.73 13.09 411.06 15.43 410.49 15.45 409.12 14.73 408.07 16.27 407.15 16.33 407.09 17.2 405.66 18.43 404.86 18.03 404.25 18.84 403.06 19.61 403.69 20.58 403.02 21.26 402.26 21.34 400.9 20.46 400.61 21.56 397.29 21.51 396.62 21.81 397.53 23.17 397.22 23.81 395.8 23.73 395.84 25.54 395.04 25.34 394.83 26.6 393.7 27.13 392.6 26.6 391.71 28.74 392.46 29.18 392.55 30.18 392.04 31.56 390.95 31.87 389.69 30.89 387.73 32.5 386.66 31.55 386.01 32.15 386.37 32.85 387.21 33.13 386.61 34.33 384.68 34.84 383.06 36.82 383.92 39.56 383.31 40.27 383.21 41.29 382.6 42.16 382.7 42.95 380.68 44.38 380.44 45.08 378.89 45.33 378.18 46.66 378.28 48.64 378.65 49.84 379.3 50.76 378.1 51.77 380.39 52.89 380.7 53.62 379.97 54.32 380.89 54.79 382.25 54.63 383.51 55.23 384.36 56.61 386.33 56.57 386.97 57.75 388.25 59.12 390.55 60.21 391.8 61.2 393.66 61.53 394.83 62.07 395.87 63.04 396.07 63.71 397.05 64.11 396.59 65.2 398.4 66.27 399.95 66.62 402.38 66.42 403.9 66.81 404.53 67.68 406.33 67.05 408.45 66.91 410.61 67.66 408.72 68.42 409.17 69.73 410.86 69.96 411.5 70.36 410.71 71.32 413.38 72.67 413.93 73.58 413.78 74.47 415.02 75 415.64 74.63 416.77 74.9 416.94 76.2 417.88 76.23 418.89 77.09 419.06 77.9 419.99 78.83 420.1 79.45 421.84 79.47 423.21 79.86 424.31 80.99 422.89 81.94 424.2 82.73 424.55 83.66 425.71 84.59 426.41 84.78 427.53 84.37 428.47 84.82 428.4 85.43 430.27 86.96 431.57 87.72 432.61 87.67 434.47 88.61 437.49 89.58 438.2 89.57 438.42 88.63 440.8 87.82 441.56 88.43 443.52 87.59 444.33 88.41 446.03 88.23 446.74 87.39 449.03 87.38 449.77 88.06 451.14 87.62 453.85 87.18 455.37 88.13 456.22 88.16 457.33 89.68 457.26 90.08 458.55 90.94 458.82 91.47 460.07 91.7 461 92.47 460.79 92.87 461.56 94.72 461.81 96.89 462.55 97.42 462.9 99.58 463.91 101.86 463.86 103.13 464.83 104.91 464.97 107.18 465.24 107.73 466.69 108.35 471.08 111.47 471.76 111.71 472.26 112.95 472.28 114.33 472.95 116.57 473.84 117.88 473.85 118.75 475.63 120.8 476.43 121.43 477.25 121.51 478.52 122.52 479.77 124.06 479.49 124.44 480.38 126.57 480.13 127.44 480.56 130.37 480.24 131.13 480.85 131.91 480.52 132.97 480.81 134 482.23 136.34 482.22 138.63 483.87 141.27 484.68 143.5 486.92 145.1 489.22 145.55 489.9 146.2 491.76 146.98 492.96 148.74 493.11 149.59 494.52 151.33 496.53 152.35 497.25 153.09 497.63 154.09 496.73 155.97 497.48 157.25 498.57 157.85 499.68 157.96 500.75 158.97 501 159.88 502.23 160.93 503.12 162.34 505.03 163.54 505.35 163.97 505.14 166.17 506.16 168.52 506.74 169.27 508.16 169.8 508.49 170.3 507.73 170.91 507.78 172.12 509.45 173.67 510.01 174.57 510.31 176.13 511.6 177.87 513.89 178.61 515.39 178.15 517 178.2 518.94 179.27 520.51 181.1 521.98 183.5 524.44 185.15 526.15 186.67 527.94 187.78 528.63 188.54 531.38 189.83 532.64 190.98 534.04 191.54 536.46 191.11 537.49 191.39 538.57 192.32 540.37 193.1 543.03 195.12 546.75 196.47 548.27 197.67 550.24 198.68 552.2 200.35 552.4 200.91 554.57 202.11 554.8 203.36 554.71 204.72 555.33 205.23 556.98 205.56 558.25 206.82 560.47 207.95 560.68 208.52 562.04 208.94 563.41 210.16 563.75 211.78 564.59 213.12 565.36 216.52 565.14 217.56 565.61 218.99 568.49 221.59 569.71 224.11 571.39 225.44 571.16 227.58 571.93 230.59 573.68 232.22 575.65 233.52 578.34 234.09 579.17 234.66 579.69 235.76 580.93 236.67 582.49 237.3 583.77 237.27 585.34 236.3 587.06 236.45 588.3 238 589.26 238.68 592.61 239.48 595.19 241.28 597.1 241.77 598.6 243.31 599.33 244.68 600.13 244.94 601.53 246.6 602.77 247.09 603.21 247.39 603.66 248.64 604.63 249.09 606.47 252.34 606.38 253.42 607.21 254.72 608.1 255.14 610.38 255.71 613.83 257.2 615.89 257.77 617.19 258.67 618.35 260.99 619.13 261.93 619.41 262.79 618.7 263.8 616.35 264.45 616.39 265.2 618.13 266.32 619.59 266.6 619.97 267.31 619.58 267.83 618.19 267.86 617.23 267.31 616 268.09 614.62 267.69 614.16 268.6 615.73 269.68 616.32 272.2 617.42 273.38 617.3 274.05 616.48 274.55 614.97 273.81 613.94 274.05 614.11 275.24 615.76 276.56 614.93 277.97 615.24 278.62 617.73 278.49 618.5 279.2 618.53 280.46 620.59 281.6 621.45 280.03 622.12 280.85 621.77 282.05 623.43 282.44 624.33 283.01 624.61 283.85 624.2 284.32 624.83 285.59 626.74 283.66 627.48 283.98 627.51 285.29 627.96 285.55 629.03 284.25 630.36 284.75 630.09 285.89 628.3 286.11 627.75 287.67 628.7 288.54 630.56 288.57 630.98 289.54 632.37 290.81 632.37 292.22 631.01 291.56 630.29 292 630.8 293.91 630.14 293.83 629.51 294.58 630.56 295.72 632 296.29 633.68 297.9 634.58 298.08 636.81 299 636.99 300.23 637.48 300.8 638.65 300.76 640.16 301.33 641.88 301.06 642.15 300.21 641.53 299.39 642.76 299.19 643.73 299.98 644.46 302.1 645.57 303.07 644.95 304.51 643.76 305.29 643.88 306.42 643.68 308.08 644.31 308.48 644.6 309.61 646.37 311.33 647.34 311.75 647.76 312.52 650.16 313.81 651.47 315.03 653.31 315.89 654.33 316.71 655.62 316.69 658.55 317.5 659.82 318.17 661.97 318.89 664.25 320.46 666.16 320.51 669.5 320.26 670.47 321.3 669.69 322.15 670.06 322.82 671.63 321.63 672.44 322.83 671.7 324.02 673.39 324.03 675.41 325.13 676.66 326.69 677.5 327.26 678.09 326.81 678.69 327.54 677.63 328.19 678.79 328.76 679.93 328.95 680.8 328.04 681.53 328.28 681.89 329.41 682.66 329.77 683.46 329.37 683.84 330.24 685.32 331.33 686.39 331.43 686.83 331.89 687.2 333.61 687.93 333.49 689.96 335.09 688.63 335.52 688.63 336.1 690.08 336.58 689.25 337.74 689.56 338.51 689.49 339.73 688.97 340.73 688.63 342.27 688.19 342.44 686.74 341.58 687.16 344.16 688.7 345.43 688.2 347.04 689.43 347.67 691.42 349.31 690.74 349.97 691.74 350.52 692.09 352.02 691.81 352.93 693.27 354 693.36 352.96 694.02 352.81 694.43 353.72 692.56 354.98 692.05 356.13 692.64 356.71 693.96 356.87 694.46 356.16 695.57 357.33 696.41 357.34 696.75 358.23 696.47 359.72 695.8 361.27 696.78 361.69 697.84 361.18 698.6 362.82 699.52 362.42 700.92 362.88 701.73 363.82 701.39 364.97 702.26 367.09 700.95 368.05 701.63 369.19 700.85 369.34 701.13 370.69 700.76 371.67 701.56 372.07 701.45 373.31 702.93 373.37 702.45 374.18 700.35 374.38 700.48 375.09 702.18 375.13 703.37 376.05 702.03 378.12 702.58 378.43 704.37 378.23 704.34 379.49 703.23 379.92 703.41 380.79 702.55 381.65 702.11 383.38 702.84 384.04 701.81 384.46 700.75 386.09 701.91 386.49 702.19 387.1 703.08 387.22 704.4 388.35 705.18 390.23 704.64 391.86 705.77 392.73 705.33 393.67 706.52 394.58 704.5 396.06 703.37 396.62 704.9 397.01 704.14 397.9 702.31 397.32 702.44 398.62 703.16 399.06 703.18 399.8 704.1 400.43 704.27 401.03 706.4 402.82 707.16 403.98 708.89 405.07 709.85 404.54 710.41 404.69 710.41 405.72 712.96 406.51 712.42 407.37 712.74 407.97 713.98 408.35 717.31 409.73 718.9 409.98 722.14 409.4 722.84 409.65 722.43 410.69 723.56 410.56 723.8 409.56 724.78 410.52 725.54 410.75 725.28 411.64 726.31 412.46 726.27 413.25 725.52 413.63 726.81 414.94 727.66 415.29 730.3 416.98 731.57 416.5 732.22 417.22 732.99 416.83 733.48 417.66 732.5 418.16 732.45 418.99 733.13 419.52 733.31 420.29 734.69 421.34 735.65 422.46 738.79 425.27 739.71 425.79 740.76 425.77 740.82 426.41 739.79 426.84 740.26 427.47 738.09 427.89 737.74 428.74 738.91 429.21 738.8 429.87 737.44 430.65 738.01 432.22 737.92 432.71 739.65 434.72 740.58 435.56 741.13 436.48 742.49 437.89 742.58 439.02 742.02 440.27 744.07 441.74 744.36 443.63 745.39 444.1 745.29 445.02 746.46 445.08 746.25 446.26 747.9 445.92 747.68 445.07 748.68 445.07 749.02 445.92 750.82 447.03 749.24 448.73 749.63 449.38 750.47 449.17 750.31 450.34 750.62 451.07 750.08 452.04 751.81 452.29 751.61 454 752.29 455.75 751.03 456.54 751.71 457.32 748.67 458.15 749.42 459.14 747.83 459.63 748.11 460.49 747.56 460.83 747.71 461.91 746.26 462.54 746.15 463.11 746.79 464.1 748.23 465.15 748.37 466.57 749.08 466.9 749.73 468.19 750.7 468.62 751.73 469.99 752.05 471.45 752.55 472.02 752.28 473.97 753.61 473.9 753.74 474.78 752.61 474.98 752.06 474.42 750.89 475.39 750.84 476.17 751.91 476.61 752.25 478.03 753.56 478.7 752.7 479.22 752.29 481.35 753.05 482.69 752.72 484.01 753.31 484.74 754.48 485.34 756.36 484.97 757.11 485.19 757.77 486.28 757.57 486.97 759.73 487.29 762.35 488.86 764.67 489.22 765.97 489.69 767.95 488.95 768.74 488.35 769.45 487.16 770.27 486.67 771.63 486.56 773.67 487.81 775.12 490.39 777.06 491.21 779.13 491.51 780.05 491.94 784.9 496.69 785.58 497.01 787.82 497.32 787.99 497.88 790.65 498.56 793.13 500.9 794.76 500.47 796.63 499.45 797.02 498.89 798.57 499.75 799 501.76 798.83 503.27 797.93 505.8 796.07 506.35 795.9 508.1 795.33 508.85 792.14 510.97 789.49 512.24 785.53 513.97 784.41 514.01 784.03 510.96 783.66 510.09 781.94 509.78 780.83 510.19 780.98 510.87 776.98 513.55 774.98 513.74 775.1 515.16 777.63 517.81 779.98 518.49 782.18 518.29 784.05 519.11 781.18 521.1 777.14 524.16 773.58 527.56 772.3 527.71 769.93 525.91 767.6 525.8 767.09 524.99 765.39 524.45 761.42 524.3 762.54 527.53 762.46 528.82 761.84 529.72 759.59 531.16 759.66 532.35 761.08 532.83 761.95 533.68 763.59 534.02 764.32 533.04 765.69 533.36 766.54 534.46 766.34 535.47 764.59 537.06 760.57 542.01 759.09 543.46 756.43 545.73 753.6 547.73 750.47 550.16 749.16 550.45 745.44 549.25 743.2 549.36 740.06 548.39 738.26 550.7 739.64 551.64 741.15 553.71 745.37 555.4 746.45 554.99 746.91 554.23 749.01 553.97 750.39 554.67 749.64 556.73 749.51 558.18 749.82 560.33 749.91 563.85 750.77 565.44 747.23 571.8 745.49 575.66 743.57 577.58 742.41 577.72 741.78 577.11 740.88 575.27 740.99 574.05 739.59 573.99 738.32 575.78 736.16 577.68 732.04 578.7 729.77 578.09 728.94 579.03 726.03 579.34 723.83 581.22 722.4 581.85 722.91 583.85 726.07 583.23 726.95 582.25 728.23 582.28 729 582.59 728.15 584.81 725.85 585.87 725.07 586.72 725.67 587.87 728.32 588.17 730.24 586.51 731.53 584.29 732.71 582.57 734.07 582.94 736.59 582.74 738.15 581.42 739.15 581.26 741.1 582.57 742.08 583.7 742.31 584.73 740.59 586.86 738.04 591.96 731 600.39 729.04 603.47 728.5 605.29 727.36 607.06 723.06 609.47 724.46 612.63 724.97 616.52 724.18 619.19 724.98 622.53 725.53 625.69 726.92 626.67 727.2 627.87 725.98 628.54 724.98 630.28 723.92 633.44 723.7 634.75 722.83 635.19 721.59 634.88 719.44 636.18 716.89 638.22 712.91 643.2 711.08 646.43 709.39 647.7 707.41 648.69 705.41 648.74 703.76 651.01 704.73 653.27 705.15 656.78 705.14 659.02 702.82 666.73 701.93 668.41 701.21 668.92 699.92 669.03 699.51 668.23 696.74 668.61 695.67 669.49 695.14 671.35 693.75 671.87 690.18 673.73 689.67 674.97 690.79 676.3 692.66 676.91 693.24 676.25 694.16 676.08 696.38 676.97 697.31 676.99 697.42 678.46 700.84 678.48 701.99 675.55 702.7 675.03 703.93 674.94 704.78 678.26 704.67 687.33 703.27 690.34 700.57 698.62 700.19 699.49 698.63 701.13 697.49 702.97 696.09 706.23 695.29 709.75 695.13 712.47 695.39 714.43 697.03 718.16 697.97 719.83 696.77 719.87 694.63 719.62 692.79 719.05 691.15 717.25 690.3 717.08 687.69 717.57 686.32 717.68 683.48 717.42 682.82 718.19 682.94 719.44 682.13 720 681.33 719.48 680.88 718.61 680.03 718.47 678.55 719.5 678.02 718.61 676.47 717.79 674.07 717.48 673.02 718.33 672.37 718.26 672.52 717.21 672.21 716.66 671.32 716.53 670.85 716.98 670.84 718.33 669.97 718.69 669.33 717.66 668.05 717.57 668.39 716.46 667.87 715.42 666.97 715.85 666.35 716.64 665.57 715.81 664.98 716.5 663.9 716.87 662.82 716.17 663.23 714.64 662.62 714.04 661.67 714.37 661.22 713.78 661.82 712.82 661.25 712.35 660.21 712.8 658.82 712.88 657.95 713.31 658.62 713.95 659.99 713.52 660.25 714.54 659.54 714.96 658.44 714.49 657.12 714.52 656.38 713.48 654.94 713.79 653.68 713.43 652.07 713.95 650.68 713.63 649.68 713.07 649.72 712.21 648.34 711.72 648.25 710.55 646.72 710.22 645.35 709.6 644.77 708.78 643.37 708.55 642.78 710.12 642.99 710.8 641.47 711.17 641.26 710.34 640.59 709.79 641.02 709.11 639.37 706.85 638.28 707.35 637.25 706.39 635.2 706.4 634.42 706.9 633.33 706.49 631.74 706.95 631.65 706.3 630.3 706.09 629.5 705.57 626.88 705.9 626.57 705.13 624.64 704.71 624.19 702.9 623.06 701.96 623.1 700.97 621.43 699.72 620.39 700.48 620.9 701.23 620.63 701.91 619.86 702.04 618.53 701.73 616.9 701.79 615.95 701.27 615.38 699.87 614.52 700.43 613.25 700.07 611.66 701.12 610.82 701.91 611.16 703.32 610.72 703.54 611.27 704.58 611.18 705.26 610.14 706.02 609.47 708.07 608.64 708.59 606.79 708.02 605.6 706.91 604.26 706.1 602.06 706.14 601.13 706.7 600.88 707.51 602.23 709.3 602.91 711.09 601.47 711.87 601.95 712.21 599.46 712.95 598.7 712.34 598.19 713.54 598.07 714.78 598.31 715.44 597.31 717.03 598.15 717.34 598.33 718.98 598.84 720.42 597.84 722.07 597.95 722.91 597.54 724.15 596.5 725.35 597.06 728.03 596.65 728.95 597.81 729.92 598.39 731.35 598.29 732.52 599.17 733.19 600.06 734.81 600.44 735.91 600.3 737 602.09 737.79 602.81 739.32 602.71 739.82 603.82 742.01 603.49 743.34 603.76 744.59 603.05 744.95 603.4 745.87 602.65 746.59 602.61 747.82 601.7 749.49 602.25 751.59 602.4 753.08 602 754.6 602.32 754.99 601.91 756.09 602.1 756.82 601.7 757.82 602.02 759.13 600.8 760.84 601.09 761.47 600.14 762.5 600.11 763.85 598.74 765.32 599.1 768.39 597.68 769.03 597.38 770.99 598.35 773.54 598.62 776.42 596.49 777.99 595.1 778.54 593.87 778.72 592.6 778.17 591.45 778.58 589.74 778.2 588.98 778.28 587.26 776.93 585.07 777.68 583.89 777.3 582.37 778.05 581.41 777.58 577.78 778.76 576.11 778.42 575.79 777.62 574.74 776.96 573.93 775.26 572.98 775.68 572.6 775.25 572.47 773.71 571.89 773.66 570.86 771.89 570.8 771.11 570.21 769.65 570.26 768.88 569.56 767.41 570.59 764.57 570.6 762.44 570.07 761.59 571.18 759.2 571.15 757.45 570.3 756.21 568.5 754.32 567.16 753.67 566.28 752.03 566.19 750.48 564.84 749.27 564.59 748.63 564.94 747.22 565.59 746.79 565.63 745.3 567.36 744.02 568.46 744.04 568.9 743.47 551.12 742.29 534.69 741.26 516.57 740.16 507.04 739.62 505.03 739.46 487.79 738.5 482.87 738.17 479.26 738.01 459.41 736.76 456.27 736.6 444.23 735.88 424.9 734.76 415.35 734.26 410 733.87 395.75 733.06 385.56 732.44 371.78 731.62 356.97 730.81 353.62 730.56 332.69 729.52 324 729.01 312.79 728.43 301.89 727.87 290.02 727.19 284.22 726.93 273.94 726.42 257.68 725.57 252.31 725.36 248.94 725.13 227.93 724.12 217.04 723.69 207.07 723.17 199.39 722.9 190.4 722.66 179.91 722.01 168.28 721.48 161.94 721.13 144.25 720.37 129.78 719.66 125.03 719.52 124.45 718.26 123.23 716.85 121.76 715.92 120.99 714.19 119.51 712.85 117.25 712.88 116.7 712.43 116.6 711.21 115.76 710.44 116.09 708.38 114.37 705.87 114.44 704.09 113.93 702.95 112.95 701.61 113.11 699.05 113.73 698.29 114.58 698.17 114.62 696.94 113.46 695.98 113.1 694.54 113.61 693.74 112.61 692.85 112.48 692.27 113.25 691.26 113.21 690.51 111.99 689.89 110.8 688.4 109.71 686.69 107.94 685.06 107.15 683.17 105.61 682.48 105.11 681.93 105.34 680.11 105.76 678.92 105.64 677.56 104.54 676.49 101.69 675.65 101.37 674.59 101.94 673.4 101.95 671.09 Z M 725.56 619.63 725.93 619.08 727.02 619.2 726.81 620.27 725.56 619.63 Z" fill-rule="evenodd" fill="none" stroke="currentColor" stroke-width="1"/>
</g>
</svg>