<svg viewBox="-86.0815898 -35.4777278 5.7170976000000024 5.5962795999999955" xmlns="http://www.w3.org/2000/svg">
  <path d="M -85.002499,31.000685 L -85.00254,30.986899 L -85.005934,30.979804 L -85.004026,30.973468 L -84.987032,30.968475 L -84.980427,30.962086 L -84.979727,30.953986 L -84.982227,30.946886 L -84.983627,30.935986 L -84.980627,30.932687 L -84.971426,30.928587 L -84.966726,30.917287 L -84.956125,30.907587 L -84.949625,30.897387 L -84.942525,30.888488 L -84.935224,30.884788 L -84.935024,30.880288 L -84.939624,30.874288 L -84.938824,30.870788 L -84.93283,30.865498 L -84.935924,30.860688 L -84.933724,30.852088 L -84.926824,30.846389 L -84.927084,30.839024 L -84.932138,30.838296 L -84.935824,30.833789 L -84.936824,30.818489 L -84.930923,30.810489 L -84.927923,30.80369 L -84.928323,30.79309 L -84.918023,30.77809 L -84.920023,30.76579 L -84.915022,30.761191 L -84.914422,30.753891 L -84.911122,30.751191 L -84.897622,30.751391 L -84.888822,30.743391 L -84.884221,30.733091 L -84.875421,30.727491 L -84.868151,30.719092 L -84.864693,30.711542 L -84.836322,30.710708 L -84.749917,30.706491 L -84.644332,30.701964 L -84.606441,30.699868 L -84.537006,30.696688 L -84.474409,30.692793 L -84.420707,30.691394 L -84.374894,30.689793 L -84.315371,30.686685 L -84.250357,30.684133 L -84.1249,30.678048 L -84.104797,30.676695 L -84.072739,30.675455 L -83.975655,30.67037 L -83.914246,30.667309 L -83.879658,30.665801 L -83.808758,30.661745 L -83.743729,30.658396 L -83.676773,30.654905 L -83.624879,30.65188 L -83.499925,30.645674 L -83.479965,30.644193 L -83.3915225550041,30.639349975300668 L -83.309249,30.634406 L -83.248423,30.630734 L -83.163309,30.625895 L -83.13137,30.623583 L -83.07441,30.620558 L -82.959002,30.613878 L -82.887083,30.609572 L -82.868325,30.608641 L -82.749854,30.601156 L -82.728273,30.600227 L -82.698902,30.598271 L -82.595976,30.592544 L -82.584007,30.591548 L -82.52711,30.588371 L -82.418914,30.581767 L -82.320808,30.575611 L -82.214677,30.568556 L -82.217315,30.56519 L -82.223862,30.565276 L -82.234186,30.55765 L -82.234435,30.548755 L -82.238328,30.546172 L -82.240403,30.53777 L -82.238882,30.533959 L -82.230848,30.526741 L -82.230324,30.517482 L -82.225072,30.50769 L -82.217073,30.503787 L -82.206316,30.492513 L -82.20124,30.485114 L -82.201035,30.474665 L -82.2077,30.460407 L -82.204495,30.455342 L -82.20458571128856,30.44260277030676 L -82.210733,30.42564 L -82.206521,30.416884 L -82.206843,30.412286 L -82.20331626923904,30.403570649508016 L -82.202975,30.398886 L -82.196828,30.388321 L -82.193354,30.388026 L -82.192596,30.378831 L -82.190298,30.376275 L -82.184652,30.378807 L -82.179812,30.368635 L -82.173526,30.364688 L -82.171623,30.359918 L -82.16168,30.357873 L -82.139962,30.364919 L -82.134273,30.362126 L -82.125194,30.366602 L -82.118149,30.364358 L -82.10505569331626,30.3687908757766 L -82.094793,30.360733 L -82.090278,30.361222 L -82.080017,30.358977 L -82.073163,30.361433 L -82.065598,30.358114 L -82.058219,30.359204 L -82.049958,30.362472 L -82.037218,30.371848 L -82.038838,30.389037 L -82.04462422673284,30.40425642108203 L -82.042854,30.415991 L -82.034355,30.419798 L -82.036545,30.438105 L -82.028366,30.446918 L -82.02815928226231,30.454994216198834 L -82.022486,30.461118 L -82.024203,30.464889 L -82.016906,30.475111 L -82.018866793506,30.482925745775603 L -82.016466,30.488891 L -82.017598,30.493217 L -82.015172,30.499798 L -82.01707932514147,30.502126734151787 L -82.014663,30.511181 L -82.015541,30.520098 L -82.01886,30.532623 L -82.013427,30.54262 L -82.013166,30.549946 L -82.008682,30.554279 L -82.010765,30.559755 L -82.00653,30.561871 L -82.008138,30.569366 L -82.006164,30.577278 L -82.012786,30.5904 L -82.012212,30.593349 L -82.016494,30.602512 L -82.0271966684715,30.607187851872016 L -82.026352,30.613726 L -82.02861,30.620295 L -82.033966,30.62996 L -82.039205,30.633965 L -82.038612,30.640947 L -82.042091,30.649498 L -82.049023,30.655295 L -82.046557,30.660747 L -82.0498762977342,30.676762529557195 L -82.043686,30.683947 L -82.041214,30.691334 L -82.041862,30.696358 L -82.035927,30.706205 L -82.03898532511872,30.714808862084485 L -82.040039,30.724585 L -82.045036,30.726431 L -82.039085,30.735922 L -82.040519,30.739889 L -82.039795,30.747297 L -82.036773,30.754434 L -82.032235,30.750776 L -82.017328,30.755233 L -82.020213,30.75724 L -82.011603,30.761878 L -82.015687,30.772601 L -82.023727,30.783276 L -82.02227,30.788136 L -82.01667226776823,30.791474822782263 L -82.003587,30.791675 L -81.995573,30.786839 L -81.988466,30.780205 L -81.977386,30.776842 L -81.972458,30.779926 L -81.968467,30.792156 L -81.962257,30.796682 L -81.961692,30.800791 L -81.965004,30.806967 L -81.962371,30.808308 L -81.964413,30.816684 L -81.959404,30.821397 L -81.949875,30.827712 L -81.942314,30.825529 L -81.937179,30.828863 L -81.933777,30.820551 L -81.928115,30.817419 L -81.91835,30.817776 L -81.910438,30.81591 L -81.905807,30.816713 L -81.904235,30.820782 L -81.907262,30.825233 L -81.901062,30.829798 L -81.891052,30.822308 L -81.891319,30.816413 L -81.884597,30.810802 L -81.881858,30.799961 L -81.870353,30.797483 L -81.868515,30.792906 L -81.852897,30.794857 L -81.848114,30.791737 L -81.840065,30.790483 L -81.839477,30.786589 L -81.830009,30.78936 L -81.823494,30.786926 L -81.818855,30.789906 L -81.806602,30.789982 L -81.800453,30.784208 L -81.793968,30.787239 L -81.784072,30.773745 L -81.786644,30.769634 L -81.782661,30.766367 L -81.781417,30.761396 L -81.772345,30.763636 L -81.77359,30.767708 L -81.770056,30.777069 L -81.76172,30.775698 L -81.758232,30.770784 L -81.750038,30.767111 L -81.740959,30.765142 L -81.740409,30.75812 L -81.732147,30.755203 L -81.732414,30.750084 L -81.726394,30.746721 L -81.718109,30.744806 L -81.708526,30.747921 L -81.700996,30.745756 L -81.692413,30.747637 L -81.68797,30.741432 L -81.680091,30.7416 L -81.673523,30.738789 L -81.669273,30.741297 L -81.670837,30.747396 L -81.679031,30.744816 L -81.682992,30.748645 L -81.677816,30.751195 L -81.669555,30.751701 L -81.663345,30.754402 L -81.659901,30.751577 L -81.663482,30.745853 L -81.660835,30.74234 L -81.655113,30.744291 L -81.651504,30.740677 L -81.653938,30.731556 L -81.647483,30.727394 L -81.641067,30.729588 L -81.637542,30.733705 L -81.632843,30.728762 L -81.629196,30.733467 L -81.623771,30.736052 L -81.620704,30.729862 L -81.622726,30.723206 L -81.615066,30.722691 L -81.611274,30.716551 L -81.606048,30.718676 L -81.606025,30.726728 L -81.603195,30.729446 L -81.597869,30.728653 L -81.596023,30.72534 L -81.596939,30.719078 L -81.59307,30.718697 L -81.586769,30.723734 L -81.57243030073944,30.721905870753798 L -81.563171,30.717005 L -81.56002,30.711706 L -81.551208,30.717852 L -81.546096,30.71703 L -81.543449,30.711782 L -81.538658,30.708691 L -81.533813,30.712055 L -81.534553,30.719528 L -81.53056932741765,30.72413161342949 L -81.513656,30.722528 L -81.505447,30.723219 L -81.489898,30.726156 L -81.484825,30.725113 L -81.475036,30.714399 L -81.464013,30.710983 L -81.451241,30.709484 L -81.44409969339371,30.709695331214878 L -81.449707,30.719685 L -81.45947,30.741979 L -81.461065,30.753684 L -81.460061,30.769912 L -81.455287,30.79093 L -81.446927,30.81039 L -81.44013,30.821369 L -81.430835,30.831156 L -81.428577,30.836336 L -81.412473,30.885751 L -81.404079,30.903738 L -81.403409,30.957914 L -81.408484,30.977718 L -81.415825,30.977192 L -81.420108,30.974076 L -81.426929,30.956615 L -81.447388,30.956732 L -81.448049,30.965511 L -81.453568,30.965573 L -81.466814,30.97091 L -81.472321,30.969899 L -81.475789,30.965976 L -81.486966,30.969602 L -81.493651,30.977528 L -81.490586,30.984952 L -81.469298,30.996028 L -81.460966,30.999142 L -81.457795,31.010259 L -81.451444,31.015515 L -81.434923,31.017804 L -81.432475,31.012991 L -81.424732,31.013678 L -81.420474,31.016703 L -81.415123,31.026718 L -81.401267,31.072781 L -81.401209,31.086143 L -81.403732,31.107115 L -81.409523,31.120611 L -81.399677,31.134113 L -81.387743,31.134433 L -81.375889,31.140337 L -81.365812,31.147945 L -81.35488,31.167204 L -81.331111,31.196955 L -81.315899,31.209153 L -81.303065,31.216878 L -81.295697,31.215048 L -81.290468,31.217691 L -81.289136,31.225487 L -81.282842,31.24433 L -81.276862,31.254734 L -81.269552,31.258741 L -81.271233,31.265894 L -81.279534,31.271744 L -81.282862,31.290635 L -81.287615,31.310537 L -81.282923,31.326491 L -81.285952,31.34972 L -81.29427,31.368596 L -81.268613,31.383009 L -81.261803,31.393568 L -81.258616,31.404425 L -81.246911,31.422784 L -81.204883,31.473124 L -81.189643,31.503588 L -81.179342,31.516292 L -81.180762,31.522451 L -81.186568,31.529185 L -81.198251,31.537033 L -81.20419,31.536074 L -81.213519,31.528152 L -81.228547,31.526983 L -81.236681,31.529192 L -81.24375,31.518896 L -81.251444,31.5057 L -81.262896,31.495783 L -81.278733,31.497538 L -81.282311,31.504403 L -81.277659,31.509514 L -81.26388,31.515845 L -81.258809,31.52906 L -81.263437,31.530932 L -81.271054,31.531074 L -81.276319,31.525276 L -81.295187,31.521536 L -81.298259,31.533505 L -81.289702,31.537245 L -81.276539,31.548463 L -81.259206,31.550333 L -81.254218,31.55594 L -81.240699,31.552313 L -81.216065,31.558415 L -81.203202,31.569713 L -81.195581,31.58043 L -81.187244,31.580056 L -81.187902,31.572766 L -81.182561,31.561798 L -81.178758,31.558152 L -81.171865,31.558962 L -81.160364,31.570436 L -81.14997,31.593476 L -81.128845,31.631439 L -81.133974,31.640957 L -81.13455,31.661992 L -81.136408,31.674832 L -81.135608,31.683491 L -81.131137,31.695774 L -81.139394,31.699917 L -81.151888,31.698411 L -81.154624,31.693874 L -81.161084,31.691401 L -81.186303,31.701509 L -81.195289,31.71384 L -81.203572,31.719448 L -81.192784,31.733245 L -81.17404,31.727487 L -81.16067,31.728144 L -81.138448,31.720934 L -81.130634,31.722692 L -81.11197,31.737218 L -81.095095,31.749144 L -81.07917,31.762684 L -81.070376,31.771374 L -81.046371,31.80087 L -81.035913,31.810364 L -81.034724,31.816423 L -81.039808,31.823 L -81.04794,31.824881 L -81.052313,31.819049 L -81.062116,31.821071 L -81.067282,31.826126 L -81.075812,31.829031 L -81.076178,31.836132 L -81.06279,31.84474 L -81.05907,31.850106 L -81.058596,31.857811 L -81.065255,31.877095 L -81.041548,31.876198 L -81.031408,31.87293 L -81.028405,31.86814 L -81.014478,31.867474 L -81.000317,31.856744 L -80.99269,31.857641 L -80.971434,31.877941 L -80.947294,31.89621 L -80.930145,31.90807 L -80.941359,31.912984 L -80.954469,31.911768 L -80.968494,31.915822 L -80.983623,31.931674 L -80.984336,31.940145 L -80.972392,31.94127 L -80.948491,31.95723 L -80.949397,31.961321 L -80.942742,31.963741 L -80.932522,31.961926 L -80.930279,31.956705 L -80.928006,31.938532 L -80.921351,31.938733 L -80.897687,31.949065 L -80.881896,31.956683 L -80.862814,31.969346 L -80.859418,31.97382 L -80.858429,31.984262 L -80.847298,31.987549 L -80.841913,32.002643 L -80.840917,32.011624 L -80.843456,32.023647 L -80.852725,32.028785 L -80.855056,32.025463 L -80.866209,32.019377 L -80.875954,32.016758 L -80.890743,32.030729 L -80.906677,32.034793 L -80.9076568863527,32.03815105635481 L -80.921027,32.03999 L -80.925085,32.041939 L -80.954031,32.07029 L -80.959569,32.072854 L -80.971915,32.074633 L -80.983509,32.079549 L -80.992138,32.094915 L -81.004305,32.102367 L -81.012444,32.101742 L -81.017355,32.098785 L -81.021597,32.091703 L -81.026296,32.088103 L -81.038125,32.083734 L -81.045868,32.086538 L -81.059732,32.088651 L -81.075391,32.098035 L -81.08827,32.099931 L -81.08704,32.104072 L -81.091029,32.110558 L -81.095512,32.111893 L -81.106703,32.109698 L -81.113687,32.113258 L -81.117225,32.117604 L -81.115247,32.125504 L -81.119813,32.133495 L -81.117335,32.146203 L -81.112234,32.149306 L -81.120034,32.153303 L -81.12203,32.161796 L -81.128433,32.164408 L -81.128142,32.169097 L -81.121149,32.174902 L -81.117893,32.171543 L -81.111132,32.172703 L -81.111933,32.178002 L -81.119838,32.17757 L -81.118237,32.189203 L -81.121234,32.192601 L -81.123149,32.20132 L -81.129309,32.209487 L -81.13507,32.212066 L -81.138925,32.219768 L -81.143175,32.221739 L -81.144017,32.230215 L -81.152615,32.236508 L -81.156454,32.242396 L -81.15577,32.245793 L -81.147129,32.24955 L -81.148022,32.25602 L -81.144739,32.25806 L -81.146432,32.263173 L -81.13693,32.266115 L -81.141414,32.272039 L -81.123276,32.276975 L -81.127322,32.281629 L -81.119784,32.286368 L -81.123854,32.296767 L -81.122631,32.30699 L -81.133004,32.308512 L -81.129777,32.314256 L -81.131627,32.318644 L -81.130678,32.325621 L -81.135694,32.324393 L -81.138013,32.32824 L -81.128535,32.338381 L -81.139296,32.345025 L -81.141323,32.350085 L -81.147318,32.350127 L -81.145982,32.345018 L -81.155843,32.343013 L -81.154608,32.350068 L -81.161608,32.35042 L -81.160998,32.355905 L -81.167124,32.358718 L -81.168838,32.369968 L -81.181075,32.378768 L -81.177784,32.386231 L -81.178283,32.392986 L -81.186425,32.401359 L -81.189725,32.406869 L -81.195279,32.411882 L -81.205572,32.423893 L -81.205026,32.4268 L -81.208472,32.436183 L -81.200325,32.440875 L -81.19965,32.444775 L -81.206641,32.447589 L -81.204578,32.452696 L -81.191615,32.455188 L -81.194412,32.458909 L -81.18825,32.461488 L -81.188608,32.465308 L -81.194894,32.465207 L -81.200408,32.468314 L -81.219146,32.485107 L -81.224843,32.491759 L -81.233111,32.498069 L -81.234206,32.502648 L -81.238216,32.505795 L -81.237931,32.510786 L -81.232113,32.513741 L -81.235038,32.518687 L -81.239599,32.516379 L -81.243484,32.520693 L -81.251069,32.517805 L -81.266811,32.527867 L -81.271923,32.529984 L -81.27960124908856,32.53779351108872 L -81.275112,32.540079 L -81.274908,32.544761 L -81.281034,32.549678 L -81.279497,32.555 L -81.284049,32.556365 L -81.289863,32.562084 L -81.291297,32.556126 L -81.298072,32.555343 L -81.295608,32.561539 L -81.299796,32.563049 L -81.319121,32.559596 L -81.328605,32.561092 L -81.348487,32.569332 L -81.355926,32.571606 L -81.357803,32.57519 L -81.354621,32.580315 L -81.369819,32.585048 L -81.369826,32.591175 L -81.373145,32.592094 L -81.378883,32.588912 L -81.389205,32.595416 L -81.393765,32.602331 L -81.406464,32.613042 L -81.407517,32.616583 L -81.412966,32.620401 L -81.413087,32.624803 L -81.417381,32.627392 L -81.418171,32.635154 L -81.407271,32.631737 L -81.402735,32.637031 L -81.411827,32.639383 L -81.405109,32.64269 L -81.393033,32.651542 L -81.400144,32.656945 L -81.397544,32.662591 L -81.404287,32.667797 L -81.401029,32.677494 L -81.405711,32.688727 L -81.413577,32.695472 L -81.418881,32.696212 L -81.420596,32.699834 L -81.427505,32.702242 L -81.421194,32.711978 L -81.415038,32.714483 L -81.419349,32.718394 L -81.416752,32.728762 L -81.411595,32.733852 L -81.41267,32.739083 L -81.406074,32.741625 L -81.405866,32.749144 L -81.416575,32.747948 L -81.419837,32.749797 L -81.411839,32.762147 L -81.418943,32.767629 L -81.429113,32.767905 L -81.429854,32.772129 L -81.417353,32.773336 L -81.414456,32.778149 L -81.423331,32.778512 L -81.422633,32.785916 L -81.427425,32.78832 L -81.425234,32.79419 L -81.426895,32.802239 L -81.422242,32.803127 L -81.426326,32.809928 L -81.418497,32.815664 L -81.423674,32.828307 L -81.421614,32.835178 L -81.426475,32.840773 L -81.434807,32.843538 L -81.440357,32.84113 L -81.444866,32.850966 L -81.451199,32.847924 L -81.457061,32.850389 L -81.453017,32.859636 L -81.451351,32.868583 L -81.45339,32.87388 L -81.458411,32.873956 L -81.465051,32.880896 L -81.468042,32.876675 L -81.475918,32.87764 L -81.479445,32.881082 L -81.476396,32.887962 L -81.465206,32.895474 L -81.4677,32.9009 L -81.471616,32.900005 L -81.472142,32.893814 L -81.480865,32.900218 L -81.479184,32.905638 L -81.481298,32.914585 L -81.487258,32.917851 L -81.483198,32.921802 L -81.495092,32.931596 L -81.502427,32.935353 L -81.499446,32.944988 L -81.508609,32.952551 L -81.511156,32.967989 L -81.502456,32.962798 L -81.49983,32.963816 L -81.497837,32.973011 L -81.494736,32.978997 L -81.494329,32.98626 L -81.496138,32.990913 L -81.491197,32.997824 L -81.49983,33.000705 L -81.49983,33.004154 L -81.491899,33.006694 L -81.504053,33.016253 L -81.508397,33.015546 L -81.510586,33.025805 L -81.513231,33.028546 L -81.519632,33.029181 L -81.528451,33.035646 L -81.53072,33.040864 L -81.535498,33.038489 L -81.540081,33.040613 L -81.542242,33.047364 L -81.546598,33.048827 L -81.551786,33.04339 L -81.558613,33.044508 L -81.565501,33.047888 L -81.559173,33.051765 L -81.562769,33.056123 L -81.566311,33.05343 L -81.571309,33.056873 L -81.57875,33.066195 L -81.590856,33.072736 L -81.600948,33.072815 L -81.596501,33.079893 L -81.60132,33.087049 L -81.610696,33.079946 L -81.612943,33.083981 L -81.608286,33.089022 L -81.614033,33.095251 L -81.634032,33.093752 L -81.645433,33.094051 L -81.659033,33.103451 L -81.671833,33.107751 L -81.679433,33.111751 L -81.696934,33.116551 L -81.704634,33.11645 L -81.710734,33.12135 L -81.721734,33.126451 L -81.729534,33.13375 L -81.743835,33.14145 L -81.746335,33.14605 L -81.752135,33.14855 L -81.762735,33.158848 L -81.764435,33.165549 L -81.768235,33.167949 L -81.767035,33.177849 L -81.767735,33.184648 L -81.760635,33.189248 L -81.756935,33.197848 L -81.763535,33.203648 L -81.767935,33.216347 L -81.773735,33.221047 L -81.781035,33.219847 L -81.777335,33.214947 L -81.778935,33.209847 L -81.789236,33.208247 L -81.798236,33.211647 L -81.805238,33.211441 L -81.808136,33.214847 L -81.809236,33.222147 L -81.822536,33.227646 L -81.827936,33.228746 L -81.837936,33.238346 L -81.846536,33.241746 L -81.852822,33.248542 L -81.849036,33.253045 L -81.845136,33.252545 L -81.848136,33.263945 L -81.843862,33.266621 L -81.835736,33.262645 L -81.835738,33.271045 L -81.844036,33.278644 L -81.846536,33.284444 L -81.857636,33.284644 L -81.863336,33.289844 L -81.860036,33.299144 L -81.849336,33.300444 L -81.847736,33.307243 L -81.855682,33.310236 L -81.86206,33.302482 L -81.864736,33.304043 L -81.864936,33.311843 L -81.869336,33.313743 L -81.880737,33.302243 L -81.884537,33.309843 L -81.882037,33.312643 L -81.883737,33.317643 L -81.889137,33.321043 L -81.899037,33.323342 L -81.896937,33.330542 L -81.900953,33.335443 L -81.906037,33.326042 L -81.918337,33.332842 L -81.918548,33.340398 L -81.923163,33.34464 L -81.938037,33.343841 L -81.939837,33.347741 L -81.934889,33.356122 L -81.944737,33.364041 L -81.94576767912424,33.371155437177514 L -81.939637,33.37254 L -81.930634,33.368165 L -81.925737,33.37114 L -81.924979,33.37514 L -81.931549,33.382156 L -81.935085,33.397243 L -81.944476,33.403674 L -81.941692,33.409099 L -81.933454,33.4067 L -81.926142,33.411372 L -81.920417,33.408102 L -81.912098,33.40826 L -81.909789,33.411388 L -81.912029,33.415595 L -81.920776,33.417306 L -81.931134,33.423978 L -81.93139,33.428474 L -81.917324,33.432346 L -81.913126,33.438333 L -81.914812,33.443498 L -81.919436,33.449098 L -81.926336,33.462937 L -81.934136,33.468337 L -81.946437,33.471737 L -81.967037,33.480636 L -81.980637,33.484036 L -81.985938,33.486536 L -81.99093166332605,33.49429043162528 L -81.990382,33.500759 L -82.001338,33.520135 L -82.007138,33.522835 L -82.00983,33.530313 L -82.01247,33.532116 L -82.019838,33.535035 L -82.028238,33.544934 L -82.033023,33.546454 L -82.037375,33.554662 L -82.046335,33.56383 L -82.057727,33.566774 L -82.073104,33.57751 L -82.09310026771031,33.58231377821263 L -82.098816,33.586358 L -82.10624,33.595637 L -82.116545,33.596485 L -82.125864,33.590741 L -82.133523,33.590535 L -82.142872,33.594278 L -82.150278,33.599748 L -82.153357,33.606319 L -82.158331,33.60971 L -82.174351,33.613117 L -82.186155,33.620881 L -82.196584,33.630583 L -82.201181,33.648591 L -82.199803,33.661325 L -82.209803,33.669276 L -82.217124,33.684344 L -82.23432,33.699836 L -82.237139,33.708403 L -82.23578,33.714623 L -82.240405,33.734901 L -82.245408,33.742926 L -82.247472,33.752591 L -82.255595,33.759876 L -82.263727,33.762358 L -82.265019,33.765742 L -82.278279,33.772509 L -82.285804,33.780058 L -82.295699,33.782014 L -82.299393,33.785037 L -82.298864,33.793166 L -82.300213,33.800627 L -82.31316,33.807816 L -82.31435,33.811111 L -82.326063,33.821108 L -82.337829,33.827156 L -82.346933,33.834298 L -82.369107,33.842375 L -82.384972,33.854428 L -82.395735,33.859088 L -82.402197,33.864656 L -82.408353,33.86632 L -82.422808,33.863757 L -82.43115,33.867051 L -82.438644,33.873919 L -82.455105,33.88165 L -82.459194,33.886189 L -82.469913,33.892838 L -82.480111,33.901897 L -82.494811,33.911712 L -82.503584,33.926048 L -82.51295,33.936969 L -82.524515,33.94336 L -82.534111,33.943651 L -82.543107,33.94095 L -82.556765,33.945324 L -82.564491,33.955733 L -82.566285,33.965065 L -82.569596,33.970421 L -82.579553,33.979688 L -82.579895,33.986875 L -82.575333,33.990556 L -82.577309,33.993547 L -82.585792,33.996694 L -82.589249,34.001184 L -82.595314,34.015224 L -82.59404760135642,34.02832260510443 L -82.596008,34.03093 L -82.607414,34.038071 L -82.612732,34.046509 L -82.620033,34.052734 L -82.621567,34.058174 L -82.627907,34.06419 L -82.634529,34.064892 L -82.641039,34.068424 L -82.645522,34.076069 L -82.640169,34.087329 L -82.642416,34.093264 L -82.646744,34.097678 L -82.658729,34.103772 L -82.667152,34.114178 L -82.668052,34.119258 L -82.675219,34.129779 L -82.68629,34.134454 L -82.690386,34.138293 L -82.704129,34.141021 L -82.717459,34.150546 L -82.72229,34.163837 L -82.732155,34.179619 L -82.732124,34.193321 L -82.740585,34.207268 L -82.74234,34.213432 L -82.740326,34.219746 L -82.744003,34.224407 L -82.742081,34.228962 L -82.744667,34.246456 L -82.743172,34.251598 L -82.748483,34.264325 L -82.746811,34.266588 L -82.754242,34.275787 L -82.761848,34.281803 L -82.766754,34.282322 L -82.771515,34.286053 L -82.782128,34.298278 L -82.782208,34.303529 L -82.787504,34.311303 L -82.791541,34.324714 L -82.791626,34.332928 L -82.79463979683982,34.34034947047431 L -82.798658,34.341777 L -82.824905,34.360413 L -82.833571,34.364092 L -82.835163,34.367406 L -82.835975,34.380909 L -82.841774,34.391553 L -82.841491,34.399123 L -82.847511,34.412761 L -82.849626,34.425678 L -82.854011,34.428818 L -82.855486,34.441791 L -82.860124,34.45284 L -82.858837,34.45522 L -82.8644,34.459785 L -82.871846,34.461189 L -82.873479,34.464319 L -82.881174,34.469479 L -82.880793,34.471886 L -82.887398,34.480959 L -82.892448,34.481107 L -82.901551,34.486764 L -82.917736,34.484168 L -82.925911,34.481529 L -82.930342,34.485583 L -82.943987,34.485515 L -82.948228,34.480492 L -82.958365,34.479456 L -82.963242,34.484363 L -82.974917,34.47935 L -82.979479,34.482961 L -82.993645,34.478157 L -82.994955,34.472537 L -82.999195,34.472447 L -83.017252,34.478247 L -83.028325,34.483841 L -83.034565,34.483571 L -83.042341,34.488072 L -83.053476,34.497261 L -83.053062,34.5009 L -83.058697,34.503583 L -83.065369,34.501091 L -83.069557,34.502224 L -83.076454,34.507793 L -83.078552,34.513378 L -83.086365,34.518074 L -83.077911,34.523773 L -83.084465,34.530502 L -83.09265062097909,34.532822631718886 L -83.10305,34.532967 L -83.103673,34.536617 L -83.109239,34.542178 L -83.110248,34.547056 L -83.116267,34.552172 L -83.121894,34.552338 L -83.122904,34.560117 L -83.129676,34.561699 L -83.133376,34.559499 L -83.140776,34.562699 L -83.139876,34.567999 L -83.143176,34.573399 L -83.159077,34.581499 L -83.154377,34.587198 L -83.158177,34.589598 L -83.168278,34.590998 L -83.170978,34.598798 L -83.159677,34.603298 L -83.172578,34.607798 L -83.185278,34.606998 L -83.195979,34.603198 L -83.199779,34.608398 L -83.208831,34.610705 L -83.223335,34.609554 L -83.23258,34.611597 L -83.243381,34.617997 L -83.240669,34.624507 L -83.246481,34.626897 L -83.247681,34.630896 L -83.253881,34.636696 L -83.260881,34.639896 L -83.271982,34.641896 L -83.279457,34.647808 L -83.293183,34.654296 L -83.300848,34.66247 L -83.304641,34.669561 L -83.316401,34.669316 L -83.321463,34.677543 L -83.329002,34.681137 L -83.337141,34.680143 L -83.342617,34.682991 L -83.33825696470748,34.68716501507812 L -83.340134,34.691483 L -83.35379,34.698166 L -83.346649,34.70422 L -83.350487,34.709694 L -83.352692,34.716904 L -83.353325,34.728691 L -83.349075,34.736633 L -83.339828,34.73811 L -83.338376,34.742331 L -83.326309,34.750839 L -83.32695,34.75555 L -83.323296,34.760738 L -83.3227,34.766846 L -83.319023,34.771099 L -83.32415,34.787479 L -83.314491,34.799252 L -83.302978,34.802303 L -83.299416,34.809452 L -83.304405,34.81115 L -83.306557,34.815304 L -83.302696,34.818897 L -83.296318,34.813221 L -83.284609,34.822829 L -83.277084,34.816998 L -83.270538,34.818871 L -83.267532,34.827106 L -83.268048,34.833084 L -83.27252,34.835666 L -83.267196,34.848469 L -83.260632,34.845285 L -83.253882,34.848494 L -83.252678,34.856014 L -83.247848,34.854786 L -83.248092,34.865577 L -83.2396375399505,34.86511454410742 L -83.237801,34.868965 L -83.24321,34.877064 L -83.239243,34.878857 L -83.219429,34.878574 L -83.217651,34.885139 L -83.209572,34.879856 L -83.205032,34.880329 L -83.201034,34.884407 L -83.204758,34.890217 L -83.197662,34.894768 L -83.194027,34.899615 L -83.189278,34.897255 L -83.180695,34.904579 L -83.180336,34.909809 L -83.174881,34.910133 L -83.168607,34.919355 L -83.160423,34.915016 L -83.15699,34.915123 L -83.158966,34.929138 L -83.154976,34.930641 L -83.141518,34.924515 L -83.131409,34.930359 L -83.13179,34.935337 L -83.126915,34.938568 L -83.121544,34.933586 L -83.111755,34.934963 L -83.116928,34.942734 L -83.120872,34.942039 L -83.127357,34.950195 L -83.12446,34.955027 L -83.119927,34.957367 L -83.12162,34.962766 L -83.120538,34.968444 L -83.111183,34.975719 L -83.107124,34.983227 L -83.098831,34.991955 L -83.10247,34.996895 L -83.108613,35.000659 L -83.11061,35.001303 L -83.241734,34.997978 L -83.29685,34.996275 L -83.381831,34.994869 L -83.482949,34.993301 L -83.554582,34.992336 L -83.620051,34.992032 L -83.61995,34.986669 L -83.68118,34.987031 L -83.749893,34.987836 L -83.814414,34.987339 L -83.874564,34.987329 L -83.906672,34.987078 L -83.937836,34.987534 L -84.034724,34.987051 L -84.23586,34.987911 L -84.24726082711108,34.98838507851783 L -84.321821,34.988408 L -84.377382,34.987986 L -84.487342,34.988183 L -84.503328,34.988017 L -84.621483,34.988329 L -84.624933,34.987978 L -84.68228448017948,34.98818098796758 L -84.750029,34.988123 L -84.80785,34.987594 L -84.952772,34.987943 L -84.999518,34.987563 L -85.052957,34.986731 L -85.13074633190762,34.98651080153978 L -85.221873,34.985476 L -85.235643,34.985834 L -85.255813,34.985164 L -85.286908,34.984869 L -85.384884,34.982988 L -85.474073,34.98302 L -85.605165,34.984678 L -85.599385,34.951766 L -85.596629,34.931965 L -85.583145,34.860371 L -85.57449667392443,34.81553319500443 L -85.561416,34.750079 L -85.551232,34.702413 L -85.534327,34.625082 L -85.527261,34.588683 L -85.517074,34.542598 L -85.513612,34.523825 L -85.511946,34.518091 L -85.502316,34.473954 L -85.489945,34.418619 L -85.470435,34.32816 L -85.45869,34.269417 L -85.434375,34.148376 L -85.42947,34.125096 L -85.428232,34.114481 L -85.406798,34.002574 L -85.405918,34.0001 L -85.386581,33.901719 L -85.377426,33.856046 L -85.356874,33.747984 L -85.332716,33.625105 L -85.304439,33.482884 L -85.296492,33.440624 L -85.292315,33.420678 L -85.278587,33.349877 L -85.255659,33.229942 L -85.247216,33.184614 L -85.232515,33.108759 L -85.203484,32.964258 L -85.19933055166473,32.94262058819637 L -85.184737,32.870514 L -85.183993,32.860492 L -85.180146,32.855947 L -85.16999262866325,32.852516131159334 L -85.16231,32.856479 L -85.154255,32.847476 L -85.154584,32.839805 L -85.16058,32.838248 L -85.164651,32.834791 L -85.168532,32.827142 L -85.165252,32.818117 L -85.16795826741861,32.8116829863555 L -85.161622,32.803801 L -85.150646,32.793329 L -85.142779,32.792251 L -85.139665,32.78515 L -85.134893,32.784461 L -85.122977,32.775483 L -85.123421,32.772247 L -85.130884,32.769562 L -85.136309,32.771244 L -85.138059,32.76654 L -85.14298,32.761654 L -85.139455,32.751829 L -85.133138,32.744631 L -85.127638,32.742131 L -85.116756,32.739939 L -85.113167,32.732813 L -85.120338,32.723632 L -85.122738,32.716032 L -85.118738,32.710333 L -85.120038,32.706733 L -85.116837,32.691533 L -85.112337,32.683234 L -85.104337,32.679834 L -85.093736,32.669933 L -85.093036,32.664434 L -85.088483,32.657758 L -85.098336,32.652034 L -85.105432,32.644934 L -85.099277,32.635011 L -85.091636,32.634036 L -85.084936,32.636636 L -85.082736,32.634036 L -85.090886,32.625135 L -85.082064,32.615464 L -85.080592,32.604712 L -85.075423,32.592905 L -85.067199,32.579306 L -85.063903,32.579113 L -85.05723,32.573994 L -85.056926,32.571241 L -85.04547,32.561723 L -85.044862,32.557707 L -85.033933,32.551691 L -85.031389,32.544171 L -85.023645,32.542955 L -85.020237,32.534748 L -85.015261,32.531115 L -85.013788,32.526108 L -85.008396,32.524876 L -85.00638,32.518493 L -85.001532,32.514741 L -85.00102,32.510157 L -84.999341,32.507261 L -84.996532,32.501641 L -84.998832,32.497041 L -84.99483,32.4861 L -84.995228,32.475299 L -84.998531,32.468742 L -84.998031,32.461743 L -84.99353,32.450743 L -84.983831,32.445642 L -84.971831,32.442843 L -84.967031,32.435343 L -84.96343,32.422544 L -84.97183,32.416244 L -84.979431,32.412244 L -84.98041,32.400785 L -84.971834,32.394016 L -84.97057,32.390625 L -84.983002,32.391953 L -84.98841,32.385216 L -84.986282,32.380336 L -84.97481,32.380257 L -84.97213323637257,32.377360093558146 L -84.977274,32.373842 L -84.985322,32.372514 L -84.983866,32.362386 L -84.992714,32.353842 L -85.004582,32.345196 L -85.008096,32.336677 L -85.007103,32.328362 L -85.002791,32.322428 L -84.988826,32.319172 L -84.951305,32.304884 L -84.941864,32.30258 L -84.9338,32.29826 L -84.924728,32.287301 L -84.910215,32.276469 L -84.904439,32.274005 L -84.888519,32.260869 L -84.891191,32.257494 L -84.901191,32.258374 L -84.903799,32.251413 L -84.907227,32.249049 L -84.924427,32.250149 L -84.923527,32.24485 L -84.916527,32.24615 L -84.912727,32.24335 L -84.916327,32.236551 L -84.921827,32.23285 L -84.922927,32.22475 L -84.929527,32.219251 L -84.937027,32.218151 L -84.961428,32.218051 L -84.967428,32.219351 L -84.973328,32.21765 L -84.979829,32.21105 L -84.980229,32.207751 L -84.974928,32.20375 L -84.965228,32.203951 L -84.961781,32.198481 L -84.963728,32.195852 L -84.974428,32.191252 L -85.001407,32.182938 L -85.009224,32.181646 L -85.01708,32.173516 L -85.026583,32.166103 L -85.033484,32.156927 L -85.045402,32.143984 L -85.056307,32.137501 L -85.06206,32.132486 L -85.055045,32.11367 L -85.053402,32.104844 L -85.04955,32.095362 L -85.045063,32.088063 L -85.046852,32.083784 L -85.053232,32.080604 L -85.055813,32.074439 L -85.054179,32.067985 L -85.05683,32.059755 L -85.05663,32.054155 L -85.05883,32.046656 L -85.053468,32.037823 L -85.058034,32.033606 L -85.056253,32.028336 L -85.048866,32.023007 L -85.055308,32.017753 L -85.055075,32.010714 L -85.063441,32.00414 L -85.06733,31.995557 L -85.06829936936937,31.987721864864838 L -85.07093,31.981658 L -85.065929,31.971158 L -85.067829,31.967358 L -85.07393,31.964158 L -85.08323,31.962458 L -85.08683,31.957758 L -85.08213,31.944658 L -85.07893,31.940159 L -85.08473,31.937359 L -85.09253,31.928359 L -85.10023,31.924059 L -85.10243,31.917359 L -85.113131,31.911859 L -85.10823,31.90426 L -85.112031,31.90326 L -85.11063,31.89686 L -85.117031,31.89286 L -85.132931,31.89306 L -85.133731,31.88956 L -85.129751,31.883311 L -85.12879144444445,31.876476888888888 L -85.133731,31.870061 L -85.135831,31.862461 L -85.140731,31.857461 L -85.137731,31.845861 L -85.141831,31.839261 L -85.137231,31.831562 L -85.13162500849943,31.81851752762315 L -85.132931,31.808062 L -85.132931,31.792363 L -85.141831,31.782363 L -85.138131,31.777763 L -85.12633,31.768863 L -85.12563,31.764463 L -85.12903,31.757663 L -85.12183,31.743464 L -85.11913,31.730964 L -85.12203,31.723464 L -85.12653,31.716764 L -85.12593,31.696265 L -85.12153,31.690765 L -85.11393,31.686865 L -85.10943,31.677465 L -85.092429,31.659966 L -85.080429,31.655966 L -85.087029,31.640966 L -85.080829,31.637367 L -85.073829,31.629567 L -85.059534,31.621717 L -85.057506,31.617563 L -85.060552,31.608224 L -85.056268,31.605865 L -85.058118,31.593609 L -85.058307,31.583026 L -85.055417,31.578696 L -85.05796,31.57084 L -85.052931,31.56289 L -85.051459,31.556723 L -85.042547,31.545953 L -85.041428,31.539293 L -85.048263,31.526012 L -85.044556,31.520908 L -85.060206,31.494064 L -85.062105,31.488017 L -85.065687,31.484122 L -85.071621,31.468384 L -85.069268,31.453472 L -85.066703,31.447286 L -85.065639,31.439521 L -85.066407,31.429501 L -85.074664,31.427791 L -85.076746,31.415971 L -85.079818,31.411732 L -85.077333,31.400851 L -85.08075,31.392763 L -85.082431,31.38454 L -85.092167,31.364576 L -85.092512,31.356581 L -85.086051,31.353489 L -85.087089,31.340321 L -85.089423,31.336028 L -85.083828,31.326971 L -85.083776,31.31821 L -85.087404,31.311223 L -85.087695,31.304053 L -85.090334,31.293606 L -85.09836,31.284715 L -85.110358,31.281747 L -85.113937,31.278746 L -85.112199,31.273828 L -85.113261,31.264343 L -85.111711,31.258022 L -85.105461,31.246863 L -85.102472,31.23786 L -85.099164,31.23321 L -85.096843,31.225239 L -85.09977,31.209751 L -85.106963,31.202693 L -85.108133,31.195637 L -85.107009,31.185511 L -85.102905,31.185261 L -85.098507,31.180153 L -85.099647,31.164942 L -85.092106,31.160293 L -85.077801,31.157889 L -85.064028,31.142495 L -85.060566,31.131889 L -85.054677,31.120818 L -85.037062,31.109753 L -85.035457,31.104344 L -85.029736,31.096163 L -85.026095,31.083081 L -85.028361,31.074102 L -85.022057,31.066496 L -85.01815,31.059254 L -85.011391,31.053547 L -85.008552,31.042824 L -85.009514,31.032904 L -85.005447,31.025642 L -85.004283,31.018789 L -84.999428,31.013844 L -85.002499,31.000685 Z M -81.279391,31.30792 L -81.271882,31.304105 L -81.270664,31.310521 L -81.277159,31.311215 L -81.279391,31.30792 Z" fill="none" stroke=currentColor stroke-width="1" vector-effect="non-scaling-stroke"/>
</svg>