<?xml version="1.0"?>
<svg width="20" height="20" xmlns="http://www.w3.org/2000/svg" version="1.2" baseProfile="tiny" viewBox="-147.520 -75.520 1095.040 1095.040" stroke-linecap="round" stroke-linejoin="round">
<g id="state">
<path d="M 79.36 807.2 79.96 804.56 79.14 803.54 78.97 802.16 78.3 800.68 78.52 798.68 78.09 796.51 76.94 795.33 76.3 793.85 75.25 792.29 75.69 790.49 75.12 787.84 74.17 786.16 73.92 785.07 70.93 782.76 69.97 780.5 69.42 778.34 67.12 775.18 64.65 774.63 63.37 773.66 63.65 770.6 62.91 769.55 62.2 769.48 62.06 767.43 62.3 766.02 63.59 764.63 64.18 761.52 63.82 759.9 63.27 758.95 62.8 757.12 61.78 754.84 61.54 753.56 61.78 751.66 61.5 750.66 62.14 750.07 64.23 749.53 65.67 747.77 66.18 745.68 66.27 744.23 66.93 742.84 66.97 741.08 66.05 739.23 66.48 738.37 66.73 735.72 65.63 735.07 65.73 733.46 67.52 729.48 67.86 727.83 68.49 726.22 68.12 724.01 68.67 723.17 69.09 720.8 70.53 720.49 70.72 718.48 70.57 716.91 70.16 715.65 69.84 712.63 70.95 709.49 71.59 708.72 71.95 707.51 74.79 702.17 74.18 701.12 75.43 698.48 75.27 697.13 73.79 694.92 73.57 693.67 72.74 692.05 73.22 690.47 72.75 689.59 72.84 687.46 73.22 684.99 72.49 684.5 73.07 682.63 72.74 681.78 70.32 680.14 69.15 678.53 68.1 677.78 69.32 674.79 67.28 673.92 64.44 670.32 63.72 668.4 62.43 667.58 61.7 666.45 61.71 662.32 62.52 660.99 63.06 659.49 62.66 656.96 61.5 654.06 62.12 652.71 62.03 651.82 60.05 649.97 59.43 649.03 61.02 647.05 61.11 643.89 61.39 641.79 60.5 639.13 59.75 637.56 60.49 636.25 60.04 633.89 60.91 632.91 61.31 631.39 62.2 630.12 62.07 628.74 61.42 627.46 61.58 626.76 64.31 626.87 65.43 626.09 65.23 624.8 65.88 624.61 65.08 623.06 66.95 622 67.37 620.66 68.72 619.83 70.1 618.05 71.12 617.51 70.59 616.59 69.85 613.93 70.5 613 72.11 612.7 73.17 612.08 73.52 611.33 72.72 609.19 73.2 607.98 73.41 606.4 74.12 604.69 75.6 603.4 75.59 601.98 76.73 600.96 75.49 599.85 75.21 598.78 76.02 597.95 75.15 596.14 75.56 594.64 75.56 593.51 76.06 591.87 75.81 590.56 76.29 589.33 77.4 588.71 77.73 587.86 77 586.37 76.39 584.44 76.16 582.65 75.06 578.83 76.07 577.84 77.98 576.59 80.09 574.03 81.32 572.22 82.99 570.76 84.38 569.16 85.73 568.94 90.39 567.38 92.25 566.5 92.6 565.98 92.04 564.86 90.37 564.86 89.49 564.03 89.57 563.37 90.72 562.07 91.74 561.75 92.76 562.04 96.94 562.13 98.24 561.94 99.39 560.86 99.62 559.23 100.59 558.51 101.24 557.16 100.6 556.57 99.4 556.81 99.27 555.73 102.21 556.03 102.81 555.57 103.29 554.18 105 554.4 105.47 553.73 102.81 551.01 101.84 550.49 99.41 548.24 97.91 546 96.56 545.09 94.95 544.58 88.61 541.54 86.23 540.82 85.53 539.6 85.4 537.92 86.05 536.22 88.12 534.53 89.68 532.85 89.49 530.8 90.87 530.57 91.77 529.88 91.33 529.29 89.37 529.22 89.03 528.23 89.99 526.89 92.11 527.22 91.91 526.53 90.48 525.12 90.71 522.82 92.03 522.05 93.5 520.81 92.95 518.22 92.17 516.69 90.13 516.07 88.5 515 87.79 512.76 87.74 511.34 88.34 510.04 88.47 507.86 87.84 505.64 88.26 504.72 87.81 503.58 87.54 502.99 87.48 502.06 86.67 501.28 86.36 499.99 85.44 499.71 85.22 498.7 84.39 497.94 83.85 496.27 82.54 495.99 82.14 494.46 80.31 493.2 80.23 492.39 78.33 490.42 78.29 489.86 77.18 488.8 76.62 488.74 75.29 485.96 74.47 483.56 74.28 481.39 72.83 479.4 74.27 477.64 73.91 477.11 72.75 477.6 71.45 477.37 70.46 475.34 71.71 473.94 73.42 472.83 72.68 471.46 72.59 470.35 70.84 468.31 69.49 467.58 68.77 465.89 68.31 462.81 68.56 462.09 67.91 460.92 68.36 459.4 69.63 457.59 69.06 456.13 67.22 455.64 66.3 455.11 65.26 453.63 64.72 451.63 65.58 450.67 65.91 449.73 66.82 450.09 68.11 449.59 68.2 448.94 66.22 447.07 65.41 446.91 64.92 445.46 63.59 445.21 61.78 443.04 60.75 441.43 61.24 440.14 60.74 438.31 61.44 436.78 62.16 436.11 63.18 435.82 63.28 434.28 61.97 432.42 60.64 433.18 58.93 432.44 58.3 431.51 58.23 429.48 56.17 414.88 55.59 410.5 51.5 381.22 49.46 365.86 48.3 356.68 45.13 332.38 43.24 318.04 42.66 314 41.57 305.44 37.67 276.62 34.36 251.72 31.58 229.83 30.33 220.57 27.7 200.63 27.57 200.13 24.69 177.45 24.55 175.3 23.88 170.58 20.6 146.05 19.01 134.14 16.35 115.79 14.65 104.57 13.34 95.61 13.1 94.45 12.64 90.64 11.25 81.29 10.32 73.91 8.03 58.23 6.66 48.56 4.93 35.28 3.8 26.19 2.05 11.68 1.73 7.67 1 1 22.75 2.07 37.55 2.56 53.82 2.7 58.98 2.8 62.33 2.77 64.62 2.91 79.74 3.16 92.65 3.49 101.52 3.58 109.28 3.72 133.33 4.44 142.92 4.59 154.16 4.86 163.68 5.14 164.25 5.08 183.85 5.61 186.51 5.64 204.75 6.1 213.97 6.21 226.34 6.48 228.23 6.62 261.59 7.45 277.66 7.64 282.83 7.82 288.16 7.87 298.14 8.03 308.84 8.1 320.24 8.44 330.39 8.67 330.39 7.59 341.25 7.68 353.14 7.65 369.91 7.54 384.01 7.42 393.15 7.18 414.91 6.73 415.24 6.86 416.25 7.63 416.84 8.63 415.45 10.38 414.76 11.89 413.2 13.34 413.01 14.48 413.28 15.57 412.52 16.04 412.03 17.01 413.09 18.66 413.75 18.53 414.59 20.1 412.96 20.36 412.08 19.35 411.27 19.99 411.32 21 409.63 22.16 407.41 20.9 406.74 21.2 407.04 24.03 406.47 24.04 405.12 23.15 404.06 25 403.16 25.06 403.09 26.11 401.65 27.57 400.86 27.09 400.25 28.06 399.06 28.96 399.67 30.14 399 30.96 398.24 31.04 396.91 29.97 396.6 31.29 393.31 31.19 392.65 31.55 393.53 33.19 393.22 33.96 391.81 33.85 391.83 36.03 391.03 35.77 390.81 37.29 389.68 37.92 388.6 37.27 387.69 39.84 388.42 40.37 388.5 41.57 387.98 43.23 386.89 43.59 385.65 42.4 383.68 44.32 382.63 43.16 381.98 43.88 382.33 44.72 383.16 45.07 382.55 46.51 380.63 47.1 379 49.45 379.81 52.76 379.19 53.62 379.08 54.84 378.46 55.88 378.55 56.83 376.52 58.53 376.27 59.37 374.73 59.65 374 61.25 374.08 63.62 374.43 65.08 375.06 66.19 373.85 67.4 376.11 68.77 376.41 69.64 375.68 70.48 376.58 71.06 377.94 70.88 379.19 71.62 380.01 73.28 381.97 73.26 382.59 74.69 383.84 76.35 386.12 77.69 387.35 78.89 389.19 79.32 390.35 79.97 391.37 81.15 391.56 81.96 392.53 82.45 392.06 83.76 393.85 85.07 395.38 85.5 397.8 85.29 399.3 85.77 399.93 86.83 401.72 86.08 403.84 85.94 405.98 86.87 404.08 87.75 404.52 89.33 406.2 89.63 406.83 90.12 406.03 91.26 408.67 92.92 409.21 94.01 409.05 95.08 410.28 95.74 410.9 95.3 412.02 95.63 412.18 97.2 413.11 97.24 414.11 98.28 414.27 99.26 415.18 100.39 415.28 101.13 417.02 101.17 418.38 101.65 419.46 103.02 418.04 104.16 419.33 105.11 419.67 106.24 420.81 107.38 421.51 107.61 422.63 107.12 423.56 107.67 423.49 108.4 425.33 110.27 426.62 111.19 427.66 111.14 429.5 112.28 432.5 113.48 433.21 113.47 433.44 112.33 435.81 111.39 436.57 112.12 438.52 111.12 439.33 112.12 441.02 111.92 441.74 110.92 444.01 110.92 444.75 111.74 446.11 111.22 448.82 110.72 450.33 111.87 451.17 111.91 452.26 113.74 452.2 114.23 453.47 115.28 453.74 115.91 454.98 116.2 455.9 117.13 455.69 117.6 456.44 119.84 456.67 122.45 457.4 123.09 457.74 125.7 458.72 128.45 458.67 129.98 459.62 132.13 459.74 134.85 460 135.52 461.44 136.27 465.81 140.05 466.48 140.34 466.97 141.84 466.98 143.5 467.63 146.2 468.51 147.78 468.52 148.84 470.28 151.31 471.07 152.07 471.89 152.18 473.15 153.4 474.39 155.26 474.1 155.71 474.98 158.28 474.72 159.31 475.14 162.84 474.81 163.76 475.42 164.7 475.07 165.97 475.36 167.22 476.76 170.03 476.74 172.8 478.38 175.98 479.17 178.67 481.39 180.6 483.69 181.16 484.38 181.94 486.23 182.89 487.42 185.01 487.56 186.04 488.97 188.14 490.97 189.38 491.69 190.27 492.06 191.47 491.15 193.74 491.9 195.28 492.99 196 494.1 196.14 495.15 197.36 495.41 198.46 496.62 199.72 497.51 201.42 499.42 202.87 499.74 203.4 499.52 206.03 500.53 208.87 501.1 209.77 502.52 210.41 502.85 211.02 502.08 211.76 502.14 213.21 503.8 215.08 504.35 216.16 504.65 218.04 505.94 220.14 508.23 221.03 509.74 220.5 511.35 220.56 513.29 221.85 514.85 224.06 516.32 226.95 518.78 228.94 520.49 230.77 522.29 232.11 522.97 233.03 525.73 234.6 526.99 235.98 528.39 236.65 530.82 236.14 531.86 236.48 532.94 237.6 534.75 238.55 537.41 240.98 541.13 242.61 542.66 244.06 544.64 245.28 546.61 247.29 546.81 247.96 548.98 249.41 549.21 250.91 549.12 252.55 549.74 253.16 551.4 253.56 552.66 255.08 554.89 256.45 555.11 257.13 556.48 257.63 557.85 259.1 558.19 261.05 559.03 262.66 559.81 266.75 559.58 268 560.05 269.73 562.95 272.85 564.18 275.89 565.86 277.49 565.63 280.06 566.4 283.69 568.16 285.64 570.15 287.21 572.85 287.89 573.69 288.58 574.21 289.9 575.46 291 577.03 291.76 578.33 291.71 579.9 290.56 581.64 290.73 582.89 292.6 583.85 293.41 587.23 294.37 589.82 296.54 591.74 297.13 593.26 298.97 593.99 300.62 594.8 300.93 596.22 302.92 597.47 303.51 597.91 303.87 598.37 305.38 599.35 305.92 601.2 309.82 601.11 311.12 601.96 312.69 602.85 313.19 605.15 313.87 608.63 315.65 610.71 316.33 612.03 317.42 613.2 320.21 613.99 321.33 614.27 322.37 613.57 323.58 611.19 324.37 611.24 325.27 612.99 326.61 614.47 326.95 614.85 327.8 614.46 328.43 613.06 328.47 612.09 327.81 610.86 328.75 609.46 328.27 608.99 329.37 610.58 330.66 611.19 333.7 612.3 335.11 612.18 335.91 611.35 336.52 609.83 335.64 608.79 335.92 608.97 337.35 610.64 338.94 609.8 340.63 610.11 341.42 612.62 341.25 613.41 342.11 613.45 343.63 615.53 344.99 616.38 343.1 617.07 344.08 616.71 345.53 618.39 345.99 619.31 346.68 619.6 347.68 619.17 348.25 619.82 349.78 621.74 347.45 622.49 347.84 622.53 349.41 622.98 349.72 624.06 348.15 625.4 348.75 625.14 350.12 623.33 350.39 622.77 352.27 623.74 353.31 625.62 353.35 626.05 354.51 627.45 356.04 627.46 357.73 626.08 356.94 625.36 357.48 625.88 359.77 625.22 359.67 624.58 360.58 625.65 361.95 627.1 362.63 628.8 364.56 629.72 364.78 631.97 365.88 632.17 367.35 632.66 368.03 633.84 367.99 635.37 368.67 637.11 368.34 637.38 367.31 636.75 366.32 637.99 366.08 638.97 367.02 639.73 369.58 640.85 370.74 640.23 372.48 639.03 373.41 639.15 374.78 638.96 376.77 639.6 377.25 639.9 378.6 641.7 380.67 642.69 381.17 643.11 382.09 645.55 383.64 646.87 385.1 648.74 386.12 649.78 387.1 651.09 387.08 654.06 388.03 655.35 388.83 657.53 389.69 659.84 391.57 661.77 391.62 665.16 391.3 666.15 392.55 665.36 393.57 665.75 394.38 667.33 392.94 668.15 394.38 667.41 395.81 669.12 395.82 671.18 397.12 672.45 398.99 673.31 399.68 673.9 399.14 674.52 400.01 673.45 400.8 674.62 401.47 675.78 401.69 676.66 400.59 677.4 400.88 677.77 402.24 678.55 402.66 679.36 402.18 679.75 403.23 681.26 404.52 682.34 404.64 682.8 405.19 683.18 407.26 683.92 407.11 685.99 409.02 684.65 409.54 684.65 410.24 686.12 410.81 685.29 412.21 685.61 413.14 685.55 414.6 685.03 415.81 684.7 417.67 684.26 417.88 682.77 416.84 683.22 419.95 684.79 421.46 684.3 423.41 685.55 424.16 687.58 426.12 686.9 426.92 687.91 427.57 688.28 429.37 688 430.46 689.5 431.74 689.58 430.49 690.24 430.31 690.67 431.4 688.78 432.93 688.27 434.32 688.88 435 690.22 435.19 690.72 434.34 691.86 435.73 692.71 435.74 693.06 436.8 692.79 438.61 692.12 440.47 693.12 440.96 694.19 440.34 694.97 442.32 695.91 441.83 697.33 442.38 698.17 443.5 697.83 444.88 698.73 447.42 697.4 448.59 698.11 449.96 697.32 450.14 697.61 451.76 697.25 452.94 698.06 453.42 697.96 454.92 699.47 454.98 698.98 455.95 696.85 456.21 696.99 457.06 698.72 457.1 699.94 458.2 698.59 460.7 699.15 461.07 700.97 460.81 700.95 462.33 699.83 462.85 700.02 463.9 699.15 464.93 698.72 467.02 699.46 467.81 698.41 468.32 697.35 470.29 698.53 470.76 698.83 471.49 699.74 471.63 701.08 472.98 701.9 475.24 701.36 477.2 702.51 478.24 702.08 479.38 703.3 480.46 701.25 482.26 700.11 482.93 701.67 483.39 700.9 484.47 699.04 483.79 699.18 485.35 699.92 485.87 699.95 486.76 700.88 487.52 701.07 488.23 703.25 490.37 704.03 491.76 705.8 493.06 706.78 492.41 707.35 492.59 707.36 493.83 709.96 494.76 709.42 495.8 709.75 496.52 711.02 496.96 714.42 498.6 716.04 498.89 719.34 498.16 720.05 498.46 719.64 499.71 720.8 499.55 721.03 498.35 722.03 499.49 722.81 499.76 722.56 500.83 723.61 501.81 723.59 502.76 722.82 503.22 724.15 504.79 725.02 505.21 727.73 507.21 729.02 506.62 729.69 507.48 730.46 507.01 730.97 508 729.98 508.6 729.94 509.61 730.63 510.24 730.83 511.16 732.25 512.42 733.24 513.75 736.47 517.1 737.41 517.72 738.49 517.69 738.55 518.46 737.51 518.99 737.99 519.74 735.78 520.26 735.44 521.29 736.64 521.85 736.53 522.63 735.15 523.59 735.75 525.48 735.66 526.06 737.44 528.47 738.4 529.47 738.98 530.57 740.38 532.25 740.48 533.61 739.93 535.11 742.04 536.87 742.36 539.13 743.41 539.69 743.32 540.79 744.51 540.85 744.32 542.28 746 541.86 745.76 540.83 746.79 540.83 747.14 541.85 748.99 543.17 747.39 545.22 747.8 546 748.65 545.74 748.5 547.15 748.83 548.03 748.29 549.19 750.07 549.48 749.88 551.54 750.59 553.63 749.31 554.6 750.01 555.53 746.92 556.55 747.7 557.74 746.08 558.35 746.38 559.37 745.82 559.79 745.98 561.09 744.51 561.86 744.4 562.55 745.07 563.73 746.55 564.98 746.72 566.69 747.45 567.08 748.12 568.62 749.11 569.13 750.18 570.77 750.53 572.52 751.05 573.2 750.8 575.55 752.15 575.45 752.3 576.51 751.14 576.76 750.58 576.09 749.39 577.27 749.35 578.21 750.45 578.73 750.81 580.44 752.16 581.23 751.29 581.86 750.89 584.43 751.69 586.03 751.36 587.62 751.98 588.49 753.18 589.2 755.1 588.74 755.87 589 756.57 590.3 756.36 591.14 758.58 591.5 761.28 593.36 763.66 593.76 765 594.31 767.02 593.41 767.81 592.68 768.53 591.24 769.36 590.64 770.76 590.5 772.86 591.97 774.37 595.05 776.37 596.02 778.5 596.36 779.45 596.86 784.48 602.52 785.18 602.9 787.48 603.25 787.66 603.92 790.4 604.71 792.97 607.49 794.64 606.94 796.54 605.7 796.93 605.02 798.53 606.04 799 608.45 798.85 610.27 797.96 613.32 796.06 614 795.92 616.11 795.34 617.02 792.1 619.61 789.4 621.17 785.36 623.3 784.22 623.36 783.79 619.7 783.39 618.65 781.63 618.31 780.49 618.81 780.66 619.63 776.59 622.89 774.54 623.14 774.68 624.84 777.31 628.01 779.73 628.8 781.98 628.53 783.92 629.5 781 631.92 776.89 635.65 773.28 639.78 771.97 639.97 769.52 637.83 767.12 637.73 766.59 636.77 764.84 636.13 760.77 635.99 761.95 639.86 761.89 641.41 761.26 642.5 758.97 644.26 759.05 645.69 760.52 646.26 761.42 647.27 763.11 647.66 763.85 646.48 765.26 646.84 766.14 648.16 765.95 649.38 764.17 651.31 760.1 657.29 758.61 659.06 755.89 661.81 753.01 664.24 749.83 667.2 748.48 667.57 744.64 666.15 742.34 666.31 739.11 665.17 737.27 667.97 738.71 669.09 740.28 671.56 744.64 673.55 745.75 673.05 746.21 672.13 748.36 671.8 749.79 672.63 749.04 675.11 748.92 676.85 749.27 679.44 749.41 683.67 750.31 685.58 746.74 693.26 744.99 697.92 743.03 700.25 741.84 700.42 741.18 699.7 740.24 697.49 740.34 696.02 738.9 695.96 737.6 698.13 735.4 700.43 731.17 701.69 728.83 700.98 727.98 702.12 724.99 702.52 722.74 704.8 721.27 705.56 721.82 707.97 725.07 707.19 725.96 706.02 727.28 706.03 728.08 706.4 727.23 709.07 724.86 710.37 724.07 711.4 724.69 712.78 727.43 713.11 729.39 711.1 730.7 708.43 731.9 706.34 733.31 706.78 735.9 706.52 737.49 704.91 738.51 704.71 740.54 706.27 741.56 707.62 741.81 708.86 740.06 711.43 737.48 717.59 730.31 727.79 728.32 731.51 727.79 733.7 726.63 735.84 722.22 738.78 723.69 742.57 724.25 747.24 723.46 750.46 724.32 754.46 724.92 758.26 726.37 759.43 726.67 760.87 725.41 761.69 724.39 763.79 723.34 767.59 723.12 769.17 722.22 769.71 720.94 769.35 718.73 770.92 716.11 773.4 712.04 779.42 710.18 783.31 708.44 784.86 706.4 786.06 704.33 786.14 702.64 788.87 703.66 791.58 704.13 795.81 704.14 798.5 701.8 807.79 700.88 809.81 700.15 810.43 698.81 810.58 698.38 809.61 695.51 810.09 694.42 811.15 693.88 813.4 692.44 814.03 688.76 816.29 688.24 817.79 689.41 819.37 691.35 820.09 691.95 819.3 692.9 819.09 695.21 820.15 696.17 820.16 696.29 821.92 699.85 821.92 701.01 818.4 701.74 817.77 703.02 817.65 703.93 821.64 703.88 832.55 702.45 836.18 699.72 846.15 699.33 847.2 697.73 849.18 696.56 851.4 695.14 855.33 694.33 859.57 694.18 862.83 694.47 865.19 696.2 869.67 697.19 871.68 695.94 871.73 693.72 871.44 691.8 870.76 690.08 868.61 689.2 868.41 686.49 869.02 685.07 869.17 682.12 868.86 681.43 869.79 681.57 871.29 680.73 871.98 679.9 871.36 679.43 870.3 678.54 870.14 677.01 871.39 676.46 870.33 674.84 869.35 672.34 868.99 671.25 870.01 670.58 869.94 670.73 868.68 670.41 868.01 669.48 867.86 668.99 868.41 668.99 870.03 668.09 870.46 667.42 869.23 666.09 869.13 666.43 867.79 665.89 866.54 664.95 867.07 664.32 868.02 663.5 867.03 662.89 867.86 661.78 868.31 660.65 867.47 661.06 865.63 660.43 864.91 659.44 865.31 658.98 864.6 659.59 863.45 658.99 862.88 657.91 863.43 656.48 863.54 655.58 864.05 656.27 864.82 657.7 864.3 657.97 865.52 657.24 866.03 656.09 865.47 654.72 865.51 653.94 864.26 652.45 864.65 651.14 864.22 649.47 864.85 648.03 864.47 646.98 863.8 647.02 862.77 645.59 862.19 645.48 860.77 643.9 860.38 642.48 859.65 641.87 858.66 640.42 858.39 639.81 860.28 640.03 861.1 638.45 861.55 638.23 860.55 637.54 859.9 637.98 859.07 636.25 856.36 635.12 856.97 634.05 855.81 631.92 855.83 631.12 856.43 629.98 855.95 628.34 856.51 628.23 855.73 626.83 855.48 626 854.85 623.28 855.25 622.96 854.33 620.96 853.84 620.48 851.66 619.31 850.53 619.35 849.34 617.61 847.84 616.53 848.76 617.06 849.65 616.79 850.47 615.99 850.64 614.61 850.27 612.91 850.34 611.93 849.71 611.33 848.04 610.44 848.71 609.13 848.28 607.47 849.55 606.6 850.5 606.96 852.19 606.5 852.46 607.08 853.7 606.98 854.53 605.91 855.44 605.22 857.91 604.36 858.53 602.43 857.86 601.2 856.52 599.8 855.55 597.53 855.59 596.55 856.27 596.3 857.25 597.7 859.39 598.42 861.55 596.92 862.49 597.42 862.89 594.83 863.79 594.04 863.06 593.52 864.5 593.39 865.99 593.64 866.79 592.61 868.7 593.48 869.07 593.66 871.04 594.2 872.77 593.17 874.75 593.28 875.77 592.85 877.25 591.78 878.7 592.36 881.93 591.93 883.03 593.14 884.19 593.75 885.91 593.64 887.32 594.56 888.13 595.49 890.07 595.89 891.39 595.74 892.71 597.61 893.65 598.36 895.49 598.26 896.09 599.41 898.73 599.07 900.32 599.35 901.83 598.62 902.26 598.98 903.36 598.2 904.23 598.16 905.71 597.21 907.72 597.8 910.25 597.95 912.04 597.53 913.87 597.87 914.33 597.44 915.66 597.64 916.53 597.23 917.73 597.57 919.31 596.3 921.37 596.6 922.13 595.61 923.36 595.58 924.99 594.15 926.76 594.54 930.45 593.06 931.22 592.75 933.58 593.76 936.65 594.05 940.11 591.83 942 590.39 942.66 589.1 942.88 587.78 942.21 586.58 942.71 584.79 942.26 584 942.35 582.2 940.73 579.92 941.63 578.69 941.18 577.1 942.08 576.11 941.51 572.32 942.93 570.58 942.52 570.25 941.56 569.15 940.77 568.31 938.72 567.32 939.23 566.92 938.71 566.79 936.86 566.18 936.8 565.11 934.67 565.05 933.73 564.43 931.98 564.49 931.05 563.76 929.29 564.83 925.87 564.85 923.3 564.29 922.28 565.45 919.41 565.42 917.31 564.53 915.82 562.66 913.55 561.26 912.76 560.35 910.79 560.26 908.92 558.86 907.47 558.59 906.7 558.95 905.01 559.63 904.49 559.68 902.7 561.48 901.16 562.62 901.18 563.08 900.5 544.59 899.07 527.49 897.8 508.64 896.41 498.73 895.74 496.65 895.53 478.72 894.3 473.61 893.88 469.85 893.68 449.22 892.05 445.95 891.84 433.43 890.89 413.34 889.39 403.42 888.7 397.86 888.19 383.04 887.08 372.46 886.23 358.14 885.09 342.75 883.94 339.27 883.6 317.53 882.08 308.5 881.35 296.85 880.48 285.53 879.65 273.2 878.65 267.18 878.25 256.5 877.46 239.61 876.16 234.03 875.81 230.54 875.48 208.71 873.86 197.4 873.13 187.05 872.31 179.08 871.83 169.74 871.35 158.86 870.34 146.78 869.44 140.19 868.87 121.83 867.55 106.8 866.35 101.87 866.06 101.3 864.52 100.08 862.8 98.57 861.63 97.82 859.54 96.33 857.89 93.98 857.87 93.42 857.32 93.35 855.84 92.5 854.89 92.91 852.42 91.2 849.36 91.32 847.22 90.83 845.84 89.84 844.2 90.09 841.12 90.76 840.23 91.64 840.11 91.72 838.62 90.55 837.44 90.21 835.7 90.77 834.75 89.76 833.65 89.64 832.95 90.47 831.76 90.45 830.85 89.2 830.07 88.01 828.25 86.94 826.16 85.14 824.16 84.38 821.87 82.81 821 82.3 820.32 82.6 818.13 83.07 816.71 82.99 815.08 81.88 813.76 78.95 812.68 78.65 811.39 79.28 809.98 79.36 807.2 Z M 724.89 750.98 725.27 750.31 726.39 750.44 726.19 751.73 724.89 750.98 Z" fill-rule="evenodd" fill="none" stroke="currentColor" stroke-width="54.752"/>
</g>
</svg>