<?xml version="1.0"?>
<svg xmlns="http://www.w3.org/2000/svg" version="1.2" baseProfile="tiny" viewBox="-40.0 -40.0 880.0 404.0" stroke-linecap="round" stroke-linejoin="round">
<g id="state">
<path d="M 702.59 241.52 702.6 241.72 702.53 241.92 702.41 241.95 702.3 242.11 701.76 242.38 701.65 242.54 701.35 242.71 701.23 242.94 701.1 242.8 701.01 243 701.16 243.1 700.91 243.22 700.56 243.25 700.48 243.17 700.57 242.93 700.55 242.65 700.44 242.53 700.21 242.41 700.11 242.51 699.78 242.49 699.7 242.57 699.39 242.57 699.02 242.69 698.69 242.72 698.31 242.88 698.16 243.06 697.82 243.25 697.78 243.39 697.62 243.34 697.27 243.41 696.97 243.37 696.76 243.22 696.69 242.85 696.47 242.68 696.19 242.52 695.92 242.5 695.11 242.05 695.08 241.94 694.85 241.84 694.64 241.88 694.54 241.66 693.93 241.7 693.86 241.77 692.49 241.76 692.41 241.66 692.49 241.36 692.33 241.25 692.03 241.15 691.87 240.95 691.7 240.92 691.7 241.11 691.43 241.34 691.32 241.34 689.97 241.64 689.19 241.76 688.99 241.85 688 241.95 687.78 242.03 687.21 242.03 687.02 241.96 686.87 241.82 686.67 241.43 686.61 241.17 686.87 241.07 686.75 240.91 686.52 241.01 686.5 240.73 686.34 240.5 686.27 240.13 686.29 240.01 686.07 239.53 685.92 239.45 685.91 239.29 685.73 239.18 685.62 238.99 685.2 238.63 684.83 238.54 684.62 238.35 684.66 238.16 684.6 237.52 684.5 237.47 684.26 237.02 684.26 236.91 683.99 236.84 683.82 236.67 683.79 236.53 683.46 236.35 683.3 236.2 683.22 235.91 682.86 235.69 682.89 235.26 682.93 234.25 682.9 233.94 682.84 233.84 682.19 233.15 682 233.09 681.38 232.65 681.28 232.49 681.89 232.44 682.73 232.32 682.97 232.38 683.37 232.38 683.6 232.32 684.2 232.3 684.7 232.36 684.85 232.32 685.01 232.4 685.14 232.35 685.46 232.36 686.07 232.23 686.22 232.31 686.53 232.27 686.69 232.04 686.87 232.05 687.17 231.69 687.08 231.61 687.48 231.26 687.78 231.09 687.78 230.97 687.98 230.88 688.27 230.58 688.38 230.4 688.49 230.38 688.58 229.83 689.1 229.33 689.34 229.16 689.44 228.95 689.6 228.9 689.75 228.67 690.38 228.31 690.69 228.26 690.79 228.13 691.07 228.12 691.25 227.95 691.8 227.96 691.98 228.2 692.12 228.24 692.42 228.55 692.8 229.1 692.89 229.45 692.99 229.56 693.2 229.62 693.13 229.88 693.52 230.1 693.48 230.52 693.38 230.7 693.43 230.82 693.66 231 693.66 231.21 693.83 231.45 694.15 231.62 694.25 231.9 694.45 232.05 694.54 232.37 694.93 232.62 694.93 232.96 694.87 233.15 694.99 233.24 695.14 233.2 695.31 233.06 695.62 233.15 695.89 233.41 695.9 233.58 696.06 233.68 696.31 234.19 696.27 234.53 696.3 234.8 695.76 234.89 695.69 235.1 695.88 235.36 695.81 235.53 696.02 235.62 696.07 235.76 695.98 236.12 696.09 236.47 696.19 236.57 696.46 236.53 696.72 236.71 696.92 236.64 697.1 236.98 697.19 237.04 697.3 237.3 697.28 237.47 697.59 237.63 697.74 237.51 697.85 237.63 697.91 238.03 698.22 238.09 698.5 238.04 698.7 237.77 698.65 237.66 698.79 237.53 698.9 237.24 698.4 237.03 698.22 236.92 698.25 236.73 698.4 236.56 698.56 236.58 698.73 236.47 699.31 236.68 699.85 236.45 700.11 236.48 700 236.8 699.87 236.91 699.66 236.96 699.65 237.39 699.55 237.67 699.36 237.73 699.4 238.03 699.56 238.35 699.72 238.47 700.33 238.72 700.67 239.16 700.57 239.54 700.56 239.84 700.65 240.08 701.08 240.77 701.26 240.92 701.62 241.06 702.03 241.36 702.11 241.33 702.25 241.54 702.59 241.52 Z M 756.44 295.2 756.73 294.91 756.68 294.53 756.81 294.44 756.85 294.18 756.81 294.06 756.86 293.71 756.94 293.55 757.15 293.38 757.23 293.19 757.81 292.9 758.1 292.55 758.3 292.42 758.32 292.3 758.5 292.26 758.64 292.02 758.62 291.9 758.88 291.73 759.17 291.42 759.22 291.29 759.45 291.13 759.84 290.99 760.38 290.95 760.48 291.05 760.66 291.08 761.17 290.82 761.11 290.54 761.13 290.37 761.4 290.21 761.5 289.91 761.73 289.77 761.72 289.47 761.89 289.36 761.97 289.06 762.23 288.96 762.24 288.4 762.53 288.16 762.67 288.19 762.66 287.96 763.17 287.6 763.31 287.23 763.52 287.05 763.7 287.03 763.89 286.89 764.21 286.86 764.26 286.43 764.41 286.29 764.35 285.96 764.46 285.44 764.53 285.33 764.53 285.04 764.32 284.98 764.39 284.81 763.84 284.17 763.82 284.06 763.44 283.68 763.3 283.45 763.12 283.38 763.08 283.25 762.91 283.04 762.62 282.48 762.48 282.37 762.5 282.19 762.21 281.72 762.17 281.29 762.06 281.11 762.09 280.92 761.92 280.21 761.86 279.69 761.77 279.32 761.87 278.99 761.83 278.74 761.96 278.35 761.94 278.17 762.18 277.79 762.29 277.72 762.34 277.5 762.51 277.26 763 276.98 763.59 276.88 763.7 276.99 764.06 276.92 764.53 277.19 765.06 277.29 765.39 277.56 765.57 277.52 765.93 277.68 766.03 277.77 766.29 277.62 766.6 277.88 766.76 277.88 767.05 278.15 767.2 278.2 767.45 278.42 767.65 278.51 767.64 278.69 767.55 278.83 767.86 279.14 768.51 279.51 769.2 279.9 770.34 280.37 770.73 280.7 770.79 280.98 770.93 281.08 771.39 281.14 771.64 281.32 771.83 281.3 772.16 281.75 772.47 281.93 772.85 281.88 773.23 281.66 773.58 281.59 774.92 282.07 775.59 282.17 776.68 282.55 777.6 282.83 778.45 283.22 778.81 283.41 778.93 283.56 779.21 283.71 780 284.02 780.55 284.3 780.73 284.31 780.89 284.47 781.25 284.67 782.58 285.26 782.94 285.33 783.33 285.56 783.66 285.83 783.91 285.95 784.03 286.14 784.27 286.18 784.36 286.4 784.62 286.5 785.2 286.82 785.6 287.12 785.77 287.33 785.79 287.48 786.05 287.51 786.43 287.75 786.49 287.83 786.91 288.14 787.34 288.56 787.65 288.78 787.93 289.14 788.19 289.35 788.41 289.77 788.41 289.94 788.73 290.09 788.7 290.18 788.88 290.4 789.3 290.56 789.44 290.74 789.51 290.95 789.62 290.97 789.71 291.14 789.59 291.28 789.66 291.54 789.48 292.12 789.3 292.44 789.51 292.64 789.39 292.95 789.41 293.14 789.53 293.32 789.37 294.35 789.39 294.98 789.49 295.2 789.67 295.34 790.05 295.33 790.06 295.23 790.28 295.17 790.38 295.26 790.63 295.05 790.88 295.04 791.05 294.84 791.39 294.83 791.73 295.02 791.95 294.85 792.33 294.92 792.68 295.36 792.88 295.86 792.98 296 793.09 296.35 793.19 296.52 793.16 296.79 793.04 297.06 793.02 297.56 793.17 297.76 793.07 297.89 793.14 298.26 793.32 298.42 793.67 298.61 793.8 298.74 794.14 298.7 794.3 298.79 794.2 299.14 794.24 299.38 794.5 299.56 794.96 299.83 795.1 300.12 795.43 300.23 795.75 300.62 796.23 300.82 796.39 301 796.7 301.04 796.96 301.27 797.53 301.36 798.13 301.75 798.38 301.75 798.84 302.03 798.99 302.27 799 302.39 798.83 302.52 798.85 302.71 798.66 303.3 798.58 303.4 798.54 303.65 798.32 303.91 798.16 304.01 798.03 304.23 797.03 305.1 796.73 305.25 796.53 305.46 796.32 305.55 796.2 305.8 795.53 306.1 795.03 306.51 794.87 306.5 794.68 306.86 794.18 307.25 793.61 307.74 793.4 308.02 792.28 308.59 792.03 308.63 791.86 308.77 791.08 309.02 790.8 309.23 790.34 309.34 790.03 309.32 789.44 309.8 789.12 309.89 788.64 310.2 788.37 310.42 788.04 310.6 787.62 310.62 787.12 310.9 786.92 310.93 786.68 310.89 786.18 310.96 786.02 311.07 785.94 311.21 785.74 311.14 785.4 311.19 784.91 311.05 784.55 310.99 784.5 310.88 784.2 310.78 784 310.81 783.78 310.72 783.54 310.69 783.11 310.87 782.5 310.94 782.11 311.23 781.9 311.5 781.66 311.67 781.12 311.92 780.95 312.06 780.68 312.62 780.3 312.89 779.76 313.11 779.35 313.16 779.08 313.29 778.91 313.51 778.64 313.54 778.38 313.63 778.27 313.78 778.06 313.92 777.86 314.22 777.42 314.54 777.18 314.84 776.71 315.01 776.53 314.99 776.03 315.2 775.45 315.32 775.15 315.52 775.16 315.77 774.99 315.87 774.9 316.05 774.61 316.11 774.08 316.82 774.03 316.98 773.82 317 773.62 317.25 773.68 317.42 773.73 318.14 773.5 318.62 773.28 318.92 772.92 319.09 772.77 319.28 772.61 319.75 772.31 320.05 772.31 320.65 772.2 320.75 772.12 320.97 771.89 320.95 771.77 321.05 771.66 320.95 771.43 320.99 771.34 321.33 771.17 321.65 771 321.75 770.99 321.88 770.8 322.06 770.54 322.16 770.41 322.36 770.24 322.52 769.93 322.69 769.75 322.73 769.62 322.87 769.29 322.93 769.25 322.68 769.29 322.45 769.25 322.13 769.11 321.95 768.81 321.71 768.51 321.58 768.46 321.45 768.2 321.24 768.05 321.22 767.9 321.03 767.52 320.91 767.3 320.91 766.85 320.7 766.7 320.66 766.56 320.47 766.14 320.23 765.79 319.96 765.66 319.92 765.28 319.55 765.06 319.55 764.12 319.27 763.6 319.24 763.47 319.12 763.24 319.06 763.04 318.88 762.61 318.76 762.55 318.65 762.55 318.31 762.49 318.13 762.26 317.85 762.01 317.48 761.69 317.18 761.55 316.64 761.3 316 761.35 315.56 761.3 315.34 761.54 314.94 761.57 314.76 761.42 314.72 761.36 314.58 761.51 314.28 761.63 314.18 761.66 313.9 761.57 313.74 761.65 313.56 761.73 313.02 761.95 312.76 761.85 312.33 761.9 312.01 762.01 311.75 761.9 311.5 761.94 311.19 762.06 310.98 762.21 310.52 762.22 310.24 762.3 310.09 762.32 309.83 762.26 309.69 762.34 309.49 762.34 309.27 762.24 309.09 762.27 308.9 762.42 308.72 762.42 308.4 762.37 308.17 761.96 307.07 761.55 306.44 761.57 306.33 761.76 305.98 761.43 305.63 761.48 305.47 761.34 305.44 761.19 305.11 761.23 304.77 761.18 304.52 760.98 304.33 761.16 304.11 761.25 303.77 761.1 303.57 760.79 303.53 760.66 303.64 760.53 303.51 760.34 303.51 760.21 303.39 760.29 303.09 760.16 302.77 759.88 302.25 760.02 302.08 760.03 301.83 759.85 301.21 759.66 301.1 759.75 300.82 759.62 300.62 759.61 300.3 759.67 300.2 759.5 299.96 759.48 299.73 759.33 299.54 759.42 299.41 759.01 298.97 759.02 298.75 758.82 298.45 758.82 298.32 758.68 298.22 758.5 298.28 758.05 298.01 757.96 297.93 757.71 297.94 757.55 297.84 757.43 297.64 757.48 297.27 757.58 297.22 757.62 296.96 757.43 296.84 757.37 296.59 757.2 296.41 757.02 296.39 756.9 296.19 756.85 295.66 756.44 295.2 Z M 734.87 254.9 734.94 254.5 735.02 254.33 735.05 253.85 735.25 253.55 735.47 252.97 735.69 252.65 735.93 252.19 735.95 251.93 736.17 251.93 736.29 251.87 736.5 251.88 736.64 251.7 736.9 251.62 736.78 251.42 736.79 251.27 737.02 251.21 737.33 251.32 737.54 251.23 737.72 251.27 737.9 251.22 738.07 251 738.57 251.01 738.58 251.24 738.74 251.43 738.9 251.49 739.08 251.45 739.34 251.66 739.53 251.59 739.71 251.77 739.8 252.03 739.89 252.12 740.09 252.01 740.36 252.57 740.52 252.58 740.71 252.49 740.72 253.27 740.86 253.35 741.03 253.68 741.28 253.84 741.32 254.2 741.69 254.4 741.82 254.68 741.85 254.93 742.07 255.08 742.21 255.29 742.26 255.52 742.54 255.43 742.66 255.5 743.27 255.55 744.1 255.12 744.32 255.17 744.8 255.03 745.07 255.01 745.19 254.94 745.52 254.91 745.6 254.8 745.86 254.65 746 254.46 746.68 254.14 747.11 254.14 747.38 253.93 747.51 253.97 747.62 253.85 747.85 253.92 748.12 254.1 748.96 253.91 749.06 253.99 749.25 254.28 749.41 254.27 749.63 254.11 749.86 254.29 749.97 254.16 750.38 254.23 750.66 254.48 750.82 254.48 750.86 254.73 750.81 254.92 751.08 254.93 751.26 255.01 751.26 255.26 751.8 255.62 751.94 255.65 752.05 255.87 752.23 255.98 752.38 256.15 752.61 256.24 752.87 256.42 752.87 256.62 753.36 256.81 753.55 256.63 753.64 256.87 754.11 256.83 754.21 257.45 754.42 257.55 754.61 257.81 754.59 257.94 754.91 258.06 755.56 257.88 756.08 258.21 756.3 258.29 756.38 258.44 756.6 258.6 756.88 258.6 757.02 258.67 757.22 258.63 757.78 258.79 758.05 258.95 758.2 258.95 758.51 259.13 758.51 259.32 758.64 259.35 759.03 259.74 759.09 259.98 758.99 260.2 759.11 260.54 759.07 261.09 759.09 261.5 758.94 261.68 758.95 261.96 758.75 262.05 758.58 262.41 758.1 262.84 757.96 262.78 757.83 262.87 757.56 262.94 757.15 263.34 757.16 263.56 756.95 263.84 756.65 263.91 756.34 264.05 756.06 264 755.86 263.89 755.35 264.21 754.77 264.28 754.72 264.44 754.48 264.6 754.33 264.61 754.19 264.84 753.98 264.82 753.81 265.01 753.63 264.81 753.29 264.73 752.98 264.88 752.88 264.79 752.75 264.91 752.53 264.86 752.47 264.71 752.19 264.71 752.04 264.66 751.29 264.84 750.97 264.98 750.59 265.25 750.45 265.26 750.09 265.42 749.66 265.7 749.56 265.67 748.92 265.9 748.67 266.12 748.37 266.2 747.57 266.13 747.25 266.18 747.01 266.29 746.94 266.2 746.7 266.18 746.65 266.29 746.15 266.39 745.85 266.48 745.51 266.28 745.41 266.32 744.89 266.3 744.84 266.19 744.54 266.21 744.48 266.09 744.48 265.8 744.27 265.65 744.07 265.81 743.76 265.69 743.58 265.48 743.6 265.3 743.71 265.15 743.63 264.9 743.4 264.62 743.19 264.48 743.14 264.37 743.35 264.28 743.38 264.11 743.51 264.02 743.56 263.83 743.48 263.73 743.54 263.59 743.44 263.34 743.42 262.7 743.45 262.52 743.4 262.16 743.34 262.05 743.39 261.85 743.33 261.49 743.05 261.02 742.93 260.45 742.94 259.85 742.88 259.57 742.46 259.17 741.93 259 741.58 258.96 741.36 259.01 741.05 259.26 740.91 259.53 740.69 259.66 740.29 259.7 740.09 259.52 739.32 259.1 738.73 259.01 738.47 258.87 738.2 258.65 737.9 258.51 737.56 258.59 737.4 258.54 737.24 258.37 737.15 258.09 736.8 257.75 736.6 257.69 736.36 257.36 735.88 256.88 735.68 256.76 735.52 256.52 735.47 256.31 735.15 256.06 735.28 255.89 735.29 255.38 735.08 255.03 734.87 254.9 Z M 734.79 268.07 734.84 267.9 735 267.71 735.45 267.34 735.55 267.15 735.95 267.05 736.15 266.95 736.63 266.86 736.96 266.6 737.08 266.56 737.37 266.32 737.71 266.16 737.88 265.96 738.58 265.62 738.86 265.53 739.25 265.52 739.46 265.67 739.75 265.8 740.25 266.43 740.28 266.69 739.94 266.82 739.99 266.99 739.95 267.25 739.76 267.47 739.74 267.77 739.85 267.86 740.09 267.75 740.24 267.86 740.43 267.85 740.49 268.06 740.17 268.33 740.18 268.47 740.04 268.61 739.76 268.42 739.56 268.49 739.29 268.47 738.61 268.73 738.42 268.5 738.07 268.48 737.87 268.58 737.82 268.46 737.42 268.55 737.13 268.66 736.81 268.85 736.7 268.77 736.62 268.48 736.27 268.83 735.93 268.99 735.72 268.98 735.48 268.9 735.27 268.73 735.36 268.6 735.29 268.5 735.07 268.46 734.75 268.18 734.79 268.07 Z M 722.57 255.39 722.7 255.1 722.98 254.95 723.41 254.69 723.87 254.57 724.36 254.56 724.56 254.51 725.05 254.47 725.68 254.66 726.57 254.7 726.74 254.66 727.22 254.77 727.49 254.78 727.99 254.95 728.23 255.05 728.52 255.3 728.6 255.3 730.14 256.69 730.42 256.95 730.67 257.25 730.99 257.81 731.2 258.11 731.18 258.62 730.92 259.12 730.65 259.42 730.38 259.96 730.14 260.19 729.95 260.28 729.64 260.27 729.46 260.38 729.14 260.48 728.96 260.66 728.66 260.81 728.52 260.72 728.33 261.05 728.21 260.9 728.08 260.88 727.77 261.02 727.37 260.97 727.27 261.05 726.97 261.01 726.83 261.08 726.72 261 726.11 261.07 725.86 261.15 725.53 260.7 725.23 260.42 724.97 259.54 724.88 259.28 724.95 259.14 724.95 258.83 725.01 258.61 725.02 258.25 724.89 257.94 724.4 257.16 724.23 257.01 723.53 256.7 723.41 256.71 723.25 256.55 722.93 256.46 722.64 256.01 722.54 255.77 722.57 255.39 Z M 714.22 248.39 714.41 248.17 714.48 247.96 714.42 247.85 714.55 247.55 714.7 247.45 714.74 247.21 714.83 247.08 715.21 246.69 715.46 246.62 715.9 246.26 716.09 246.03 716.05 245.87 716.19 245.66 716.21 245.39 716.12 245.01 715.83 244.75 715.78 244.63 715.99 244.46 716.51 244.67 717.11 244.69 717.3 244.66 717.42 244.53 717.73 244.76 717.95 244.79 718.09 245.02 718.28 245.16 718.56 245.16 718.81 245.23 719.28 245.22 719.31 245.32 719.76 245.37 719.76 245.3 720.21 245.29 720.8 245.44 721.17 245.41 721.47 245.45 722.11 245.66 722.4 245.66 722.57 245.76 722.92 245.76 723.15 245.67 723.74 245.75 724.67 245.98 724.99 245.88 725.11 245.75 725.21 245.23 725.21 245.01 725.41 244.84 725.61 244.75 725.87 244.86 726.06 245.11 726.08 245.24 726.37 245.67 726.4 245.99 726.51 246.19 726.86 246.31 727.06 246.23 727.16 246.31 727.54 246.43 728.13 246.52 728.27 246.34 728.51 246.34 728.57 246.57 728.71 246.6 728.8 246.43 729.09 246.48 729.16 246.59 729.69 246.48 729.95 246.4 730.11 246.48 730.36 246.49 730.47 246.35 730.74 246.25 731.26 246.12 731.43 246.18 731.53 246.33 731.72 246.35 731.93 246.15 732.31 246.17 732.41 246.08 732.78 246.14 733.46 246.17 733.6 246.33 733.58 246.65 733.82 246.72 734.21 246.62 734.48 246.68 734.37 247.17 734.24 247.28 734.01 247.69 733.77 247.85 733.57 248.19 733.31 248.3 733.27 248.43 732.82 248.78 732.56 248.93 732.27 249.16 732.25 249.27 732.02 249.28 731.83 249.38 731.71 249.61 731.49 249.65 731.32 249.78 730.82 249.84 730.66 250 730.49 250 730.17 250.23 729.75 250.2 729.66 250.12 729.44 250.17 729.34 250.3 729.17 250.38 728.92 250.41 728.87 250.52 728.25 250.39 728.17 250.17 727.99 250.21 727.52 250.14 727.3 250.04 726.82 250 726.36 249.91 726.18 249.82 725.78 249.75 725.55 249.65 725.26 249.67 725.21 249.57 724.87 249.41 724.59 249.46 724.5 249.34 723.98 249.16 723.61 249.08 723.46 248.86 723.22 248.8 722.97 248.81 722.58 248.69 722.34 248.65 722.2 248.7 721.88 248.6 721.49 248.59 721.37 248.55 721.18 248.65 721.04 248.61 720.63 248.71 720.31 248.74 719.92 248.88 719.56 248.95 719.27 248.91 718.69 248.93 718.56 248.97 718.28 248.95 717.74 249.01 717.28 249.01 716.39 249.07 716.14 249.18 716.05 249.09 714.99 248.9 714.48 248.89 714.3 248.83 714.07 248.61 714.22 248.39 Z M 630.05 217.12 630.19 216.52 630.22 216.15 630.2 215.94 630.62 215.63 630.81 215.41 631.5 214.83 631.73 214.29 631.74 214.09 631.91 213.85 632 213.39 632.29 213.04 633.09 212.62 633.39 212.59 634.01 212.43 634.45 212.27 634.78 212.02 634.96 212 635.39 211.61 635.64 211.46 635.84 211.4 636.22 211.22 636.54 210.99 637.07 210.56 637.46 210.57 637.58 210.66 637.82 210.45 638.16 210.51 638.33 210.62 638.5 210.89 638.72 210.75 638.78 210.82 639.22 210.88 639.2 210.98 639.45 211.24 639.7 211.22 639.87 211.08 639.91 210.88 639.79 210.71 639.9 210.57 640.08 210.51 640.23 210.36 640.64 210.36 641 210.57 641.37 210.46 641.7 210.55 642.03 210.56 642.23 210.76 642.32 210.75 642.39 210.53 642.54 210.57 642.98 210.49 643.13 210.25 643.36 210.5 643.56 210.59 643.79 210.52 643.82 210.78 644.04 210.75 644.29 210.85 644.66 210.9 644.91 210.85 645.25 211.07 645.53 211.36 645.64 211.53 646.07 211.81 646.22 212.1 646.18 212.28 646.51 212.72 646.39 213.04 646.51 213.15 646.73 213.07 646.83 213.25 646.86 213.72 646.84 213.97 646.71 214.24 646.78 214.38 646.72 214.58 646.47 214.78 646.43 215.07 646.23 215.28 646.04 215.58 646.05 215.75 645.98 216.06 645.87 216.25 645.49 216.42 645.4 216.58 645.43 216.73 645.29 217.35 645.32 217.6 645.5 218.16 645.41 218.4 645.61 218.42 645.46 218.66 645.47 218.88 645.58 219.28 645.59 219.49 645.39 219.66 645.24 219.55 644.62 219.71 644.65 219.92 644.89 219.87 644.99 219.92 644.9 220.13 645.02 220.3 644.77 220.29 644.73 220.46 644.5 220.47 644.3 220.66 643.89 220.82 643.71 221.11 643.6 221.11 643.54 221.28 643.57 221.47 643.32 221.43 643.08 221.58 643.05 221.76 642.86 221.88 642.65 221.93 642.57 222.13 642.29 222.17 642.06 222.41 641.93 222.38 641.69 222.6 641.42 222.46 640.66 222.14 640.41 222.14 640.22 222.02 639.77 222.05 639.41 221.94 639.15 221.98 638.91 222.08 638.74 221.98 638.31 221.94 638.06 221.96 637.75 221.88 637.45 221.74 637.29 221.78 636.99 221.59 636.84 221.58 636.77 221.44 636.51 221.45 636.52 221.71 636.32 221.8 636.18 221.7 636.15 221.54 635.86 221.46 635.68 221.31 635.46 221.23 635.28 221.09 634.74 220.39 634.73 220.2 634.63 220.12 634.37 220.08 634.1 219.72 633.91 219.65 632.77 219.46 632.51 219.26 631.33 218.95 631.02 218.84 630.81 218.6 630.52 217.94 630.3 217.79 630.1 217.5 630.05 217.12 Z M 619.4 217.52 619.57 217.41 619.88 217.42 619.71 217.59 619.47 217.64 619.4 217.52 Z M 614.54 223.32 614.7 223.18 614.96 222.79 614.97 222.34 615.08 222.22 615.1 222.04 615.22 221.87 615.47 221.75 615.99 221.3 616.21 221.01 616.36 220.92 616.52 220.69 616.91 220.59 617.27 220.41 617.35 220.23 617.64 220.22 618.22 219.98 618.6 219.71 618.73 219.53 618.8 219.3 618.97 218.99 619 218.66 619.12 218.53 619.07 218.36 619.3 218.2 619.44 218.28 619.69 218.1 619.74 217.96 619.91 218.04 619.93 218.21 620.42 218.14 620.48 218.03 621.06 218.4 621.14 218.66 621.13 218.84 621.01 218.93 620.72 218.95 620.53 219.25 620.46 219.55 620.27 219.68 620.05 220.59 620.17 221.02 620.38 221.52 620.32 221.71 620.19 221.73 619.96 221.89 619.8 221.93 619.58 222.09 619.51 222.05 619.22 222.26 619.08 222.18 618.5 222.4 618.12 222.47 617.98 222.45 617.47 222.71 617.27 223 617.19 223.21 616.99 223.44 616.96 223.6 616.81 223.74 616.35 224.44 616.28 224.67 616.32 224.77 616.07 225.09 615.99 225.37 616.13 225.44 615.96 225.63 615.81 225.52 615.57 225.52 615.27 225.22 615.04 225.25 614.94 225.18 614.97 225.01 614.82 224.8 614.6 223.84 614.5 223.54 614.54 223.32 Z M 557.42 182.1 557.66 182.16 557.78 182.32 557.54 182.38 557.42 182.1 Z M 411.74 154.89 411.93 155.01 411.88 155.22 411.7 155 411.74 154.89 Z M 409.45 154.81 409.77 154.7 409.81 154.79 409.49 154.89 409.45 154.81 Z M 351.45 116.39 351.6 116.24 351.66 116.45 351.45 116.39 Z M 224.5 90.24 224.55 90.04 224.84 89.87 225.16 89.96 225.02 90.52 224.91 90.7 224.59 90.74 224.48 90.61 224.5 90.24 Z M 148.94 79.76 149.15 79.79 149.26 80.02 149.24 80.36 149.04 80.28 148.83 79.81 148.94 79.76 Z M 88.96 17.21 89.13 17.03 89.25 17.09 89.08 17.29 88.96 17.21 Z M 86.41 22.02 86.72 22.06 86.56 22.18 86.41 22.02 Z M 83.41 22.55 83.74 22.61 83.72 22.71 83.41 22.69 83.41 22.55 Z M 82.35 22.78 82.55 23.12 82.36 23.19 82.09 22.88 82.35 22.78 Z M 1.06 1.26 1.91 1.41 2.25 1.36 2.55 1 2.58 1.33 2.41 1.44 2.02 1.57 1 1.43 1.06 1.26 Z" fill-rule="evenodd" fill="none" stroke="currentColor" stroke-width="1"/>
</g>
</svg>