<?xml version="1.0"?>
<svg width="200" height="200" xmlns="http://www.w3.org/2000/svg" version="1.2" baseProfile="tiny" viewBox="-64.000 -255.500 928.000 928.000" stroke-linecap="round" stroke-linejoin="round">
<g id="state">
<path vector-effect="non-scaling-stroke" d="M 697.55 326.67 697.56 326.89 697.49 327.12 697.36 327.15 697.24 327.32 696.69 327.63 696.58 327.8 696.27 327.98 696.14 328.24 696 328.09 695.91 328.31 696.07 328.42 695.81 328.55 695.44 328.59 695.36 328.5 695.46 328.24 695.43 327.92 695.32 327.79 695.08 327.66 694.98 327.78 694.63 327.75 694.55 327.84 694.23 327.84 693.85 327.98 693.5 328.01 693.11 328.19 692.95 328.39 692.6 328.59 692.55 328.75 692.39 328.69 692.03 328.77 691.72 328.73 691.5 328.56 691.43 328.15 691.2 327.96 690.91 327.79 690.62 327.77 689.78 327.27 689.75 327.15 689.51 327.04 689.29 327.08 689.19 326.83 688.56 326.88 688.48 326.96 687.06 326.94 686.98 326.84 687.06 326.5 686.89 326.38 686.58 326.27 686.42 326.05 686.25 326.02 686.24 326.23 685.96 326.49 685.85 326.49 684.45 326.82 683.64 326.94 683.43 327.04 682.4 327.15 682.17 327.24 681.58 327.25 681.39 327.17 681.23 327.01 681.02 326.58 680.96 326.29 681.23 326.18 681.11 326 680.87 326.12 680.84 325.8 680.68 325.55 680.61 325.14 680.63 325.01 680.4 324.48 680.25 324.38 680.23 324.21 680.05 324.09 679.93 323.88 679.5 323.48 679.11 323.38 678.89 323.16 678.94 322.96 678.88 322.25 678.77 322.19 678.52 321.69 678.52 321.57 678.24 321.49 678.06 321.3 678.03 321.15 677.69 320.94 677.53 320.78 677.45 320.46 677.07 320.21 677.11 319.74 677.15 318.62 677.12 318.27 677.06 318.17 676.39 317.41 676.19 317.33 675.54 316.85 675.44 316.67 676.08 316.61 676.95 316.49 677.19 316.55 677.61 316.55 677.85 316.48 678.47 316.46 678.98 316.53 679.14 316.49 679.31 316.57 679.45 316.52 679.77 316.53 680.41 316.39 680.56 316.47 680.88 316.43 681.05 316.18 681.23 316.19 681.55 315.79 681.45 315.7 681.86 315.31 682.18 315.12 682.18 314.99 682.39 314.89 682.68 314.56 682.8 314.36 682.91 314.34 683.01 313.73 683.55 313.18 683.79 312.98 683.9 312.76 684.06 312.7 684.22 312.44 684.87 312.04 685.19 311.99 685.3 311.85 685.59 311.84 685.78 311.65 686.34 311.66 686.53 311.92 686.68 311.97 686.99 312.32 687.38 312.92 687.47 313.3 687.58 313.43 687.79 313.5 687.72 313.79 688.12 314.03 688.08 314.49 687.98 314.69 688.03 314.82 688.27 315.02 688.27 315.26 688.44 315.52 688.78 315.71 688.89 316.02 689.09 316.19 689.18 316.54 689.59 316.82 689.59 317.2 689.53 317.41 689.65 317.5 689.81 317.46 689.99 317.31 690.3 317.41 690.59 317.69 690.59 317.88 690.76 317.99 691.02 318.55 690.98 318.93 691.01 319.23 690.45 319.33 690.38 319.57 690.58 319.86 690.5 320.04 690.73 320.15 690.77 320.3 690.68 320.69 690.79 321.09 690.9 321.19 691.18 321.15 691.45 321.35 691.65 321.27 691.84 321.65 691.94 321.71 692.05 322 692.03 322.19 692.35 322.37 692.51 322.24 692.62 322.37 692.69 322.81 693.01 322.88 693.29 322.82 693.5 322.52 693.45 322.4 693.6 322.25 693.71 321.94 693.19 321.7 693 321.57 693.03 321.37 693.19 321.18 693.35 321.2 693.53 321.08 694.14 321.31 694.7 321.05 694.96 321.09 694.85 321.44 694.72 321.56 694.5 321.62 694.49 322.1 694.38 322.41 694.19 322.48 694.23 322.8 694.4 323.16 694.56 323.3 695.2 323.57 695.55 324.06 695.45 324.48 695.44 324.81 695.53 325.08 695.98 325.84 696.17 326 696.54 326.16 696.96 326.49 697.05 326.46 697.19 326.69 697.55 326.67 Z M 754.18 385.75 754.47 385.43 754.42 385.01 754.55 384.9 754.59 384.62 754.55 384.49 754.59 384.1 754.68 383.92 754.89 383.73 754.98 383.52 755.58 383.19 755.88 382.8 756.09 382.66 756.11 382.52 756.29 382.47 756.44 382.21 756.42 382.07 756.69 381.88 756.99 381.54 757.04 381.39 757.27 381.21 757.68 381.04 758.25 380.99 758.36 381.11 758.55 381.14 759.08 380.84 759.01 380.53 759.03 380.34 759.3 380.16 759.41 379.83 759.65 379.67 759.63 379.34 759.81 379.21 759.89 378.89 760.16 378.77 760.16 378.14 760.47 377.88 760.62 377.91 760.59 377.65 761.13 377.25 761.27 376.84 761.49 376.63 761.68 376.6 761.87 376.45 762.21 376.41 762.25 375.94 762.41 375.78 762.34 375.41 762.45 374.84 762.52 374.71 762.52 374.39 762.3 374.33 762.37 374.14 761.79 373.44 761.76 373.32 761.36 372.9 761.21 372.65 761.02 372.58 760.98 372.42 760.79 372.2 760.48 371.58 760.33 371.47 760.35 371.26 760.04 370.74 759.99 370.27 759.87 370.07 759.9 369.86 759.72 369.07 759.64 368.5 759.55 368.09 759.65 367.72 759.6 367.45 759.73 367.01 759.71 366.81 759.96 366.39 760.06 366.31 760.12 366.06 760.29 365.8 760.8 365.49 761.42 365.37 761.53 365.48 761.9 365.4 762.41 365.69 762.96 365.79 763.31 366.09 763.5 366.04 763.88 366.21 763.98 366.31 764.25 366.14 764.57 366.43 764.75 366.42 765.05 366.72 765.22 366.77 765.48 367.01 765.69 367.11 765.68 367.31 765.58 367.47 765.92 367.8 766.6 368.21 767.33 368.62 768.53 369.13 768.95 369.5 769.01 369.8 769.16 369.91 769.64 369.97 769.91 370.17 770.11 370.14 770.46 370.64 770.78 370.83 771.19 370.77 771.58 370.52 771.95 370.44 773.35 370.95 774.06 371.05 775.2 371.45 776.17 371.75 777.07 372.17 777.45 372.37 777.58 372.54 777.88 372.69 778.71 373.02 779.29 373.33 779.48 373.34 779.65 373.51 780.02 373.73 781.43 374.36 781.81 374.43 782.23 374.67 782.58 374.97 782.84 375.11 782.97 375.31 783.22 375.35 783.32 375.6 783.59 375.7 784.21 376.04 784.63 376.37 784.81 376.6 784.84 376.77 785.11 376.79 785.52 377.05 785.58 377.14 786.02 377.47 786.48 377.94 786.81 378.18 787.12 378.57 787.39 378.8 787.63 379.25 787.63 379.45 787.96 379.61 787.94 379.7 788.13 379.94 788.58 380.12 788.73 380.32 788.8 380.55 788.92 380.57 789.01 380.75 788.89 380.91 788.97 381.2 788.8 381.85 788.62 382.21 788.84 382.42 788.72 382.77 788.74 382.98 788.87 383.17 788.72 384.33 788.76 385.01 788.87 385.26 789.05 385.41 789.46 385.39 789.47 385.29 789.69 385.21 789.8 385.31 790.05 385.07 790.32 385.06 790.5 384.83 790.85 384.82 791.21 385.02 791.44 384.82 791.84 384.9 792.22 385.37 792.44 385.93 792.55 386.08 792.66 386.47 792.78 386.66 792.75 386.96 792.62 387.26 792.62 387.81 792.78 388.03 792.68 388.18 792.76 388.58 792.95 388.76 793.32 388.96 793.46 389.11 793.82 389.06 793.99 389.15 793.89 389.54 793.94 389.81 794.21 390 794.7 390.29 794.86 390.61 795.2 390.73 795.55 391.15 796.06 391.37 796.22 391.56 796.55 391.6 796.83 391.85 797.43 391.94 798.07 392.36 798.34 392.36 798.83 392.65 798.99 392.93 799 393.06 798.83 393.21 798.85 393.41 798.66 394.08 798.58 394.18 798.54 394.46 798.32 394.75 798.15 394.87 798.02 395.12 796.98 396.1 796.67 396.27 796.47 396.5 796.25 396.61 796.13 396.89 795.42 397.24 794.9 397.7 794.74 397.69 794.55 398.1 794.03 398.54 793.44 399.09 793.22 399.41 792.06 400.06 791.8 400.1 791.61 400.27 790.79 400.56 790.51 400.8 790.03 400.92 789.7 400.91 789.09 401.45 788.75 401.56 788.25 401.9 787.97 402.15 787.63 402.36 787.18 402.39 786.66 402.71 786.45 402.74 786.21 402.71 785.68 402.8 785.51 402.91 785.42 403.07 785.21 403 784.86 403.07 784.35 402.91 783.96 402.85 783.9 402.73 783.59 402.63 783.37 402.66 783.14 402.56 782.89 402.54 782.44 402.74 781.8 402.83 781.4 403.16 781.18 403.46 780.93 403.65 780.36 403.95 780.19 404.09 779.91 404.72 779.52 405.03 778.96 405.28 778.52 405.34 778.23 405.5 778.06 405.73 777.78 405.78 777.51 405.88 777.39 406.04 777.17 406.2 776.97 406.55 776.51 406.91 776.26 407.24 775.77 407.44 775.58 407.42 775.06 407.66 774.44 407.8 774.13 408.02 774.15 408.3 773.97 408.41 773.88 408.62 773.58 408.69 773.03 409.49 772.98 409.66 772.76 409.68 772.56 409.97 772.61 410.15 772.68 410.95 772.45 411.49 772.22 411.82 771.84 412.02 771.69 412.23 771.52 412.75 771.21 413.09 771.22 413.75 771.1 413.87 771.03 414.11 770.78 414.09 770.66 414.2 770.54 414.1 770.3 414.14 770.21 414.52 770.03 414.88 769.86 414.99 769.85 415.14 769.65 415.33 769.37 415.45 769.25 415.68 769.06 415.86 768.74 416.05 768.56 416.09 768.41 416.25 768.07 416.33 768.02 416.04 768.06 415.79 768.01 415.43 767.86 415.23 767.55 414.98 767.23 414.84 767.17 414.69 766.9 414.46 766.74 414.44 766.58 414.24 766.18 414.11 765.95 414.11 765.46 413.88 765.3 413.85 765.16 413.63 764.71 413.38 764.34 413.08 764.2 413.03 763.79 412.63 763.57 412.63 762.57 412.34 762.02 412.3 761.88 412.18 761.64 412.11 761.42 411.92 760.97 411.79 760.9 411.67 760.9 411.3 760.83 411.09 760.58 410.79 760.32 410.38 759.98 410.05 759.82 409.45 759.55 408.75 759.59 408.26 759.55 408.01 759.79 407.57 759.82 407.37 759.67 407.32 759.6 407.17 759.75 406.84 759.87 406.72 759.9 406.41 759.8 406.24 759.89 406.04 759.96 405.44 760.19 405.15 760.08 404.67 760.13 404.32 760.25 404.02 760.12 403.75 760.16 403.41 760.29 403.17 760.43 402.66 760.44 402.36 760.53 402.18 760.54 401.9 760.48 401.75 760.55 401.52 760.55 401.27 760.45 401.08 760.48 400.86 760.64 400.67 760.63 400.31 760.57 400.06 760.13 398.85 759.69 398.15 759.7 398.03 759.9 397.63 759.55 397.26 759.6 397.07 759.45 397.05 759.3 396.68 759.33 396.31 759.27 396.03 759.06 395.82 759.24 395.57 759.34 395.2 759.18 394.97 758.85 394.93 758.71 395.06 758.57 394.91 758.38 394.91 758.24 394.78 758.31 394.45 758.18 394.1 757.87 393.53 758.02 393.34 758.02 393.06 757.83 392.37 757.63 392.26 757.72 391.95 757.58 391.72 757.57 391.37 757.63 391.26 757.45 391 757.42 390.74 757.26 390.54 757.35 390.39 756.92 389.9 756.93 389.66 756.72 389.33 756.72 389.18 756.56 389.07 756.38 389.14 755.89 388.85 755.81 388.76 755.55 388.77 755.37 388.67 755.24 388.45 755.29 388.04 755.4 387.98 755.43 387.69 755.23 387.57 755.17 387.28 754.99 387.08 754.8 387.07 754.67 386.84 754.61 386.27 754.18 385.75 Z M 731.19 341.31 731.26 340.87 731.34 340.68 731.36 340.16 731.57 339.82 731.79 339.17 732.02 338.82 732.27 338.3 732.28 338.02 732.51 338.02 732.64 337.94 732.86 337.96 733 337.75 733.27 337.66 733.15 337.45 733.15 337.28 733.39 337.21 733.72 337.33 733.94 337.23 734.12 337.27 734.31 337.22 734.48 336.97 735 336.98 735.01 337.23 735.18 337.44 735.35 337.5 735.54 337.46 735.81 337.69 736.01 337.61 736.19 337.8 736.29 338.1 736.39 338.19 736.59 338.08 736.88 338.69 737.05 338.7 737.24 338.6 737.26 339.46 737.41 339.55 737.59 339.92 737.85 340.09 737.9 340.49 738.29 340.71 738.43 341.01 738.45 341.29 738.68 341.45 738.83 341.68 738.89 341.93 739.18 341.83 739.3 341.91 739.94 341.96 740.8 341.47 741.03 341.53 741.53 341.37 741.81 341.34 741.93 341.27 742.27 341.23 742.36 341.1 742.62 340.93 742.77 340.72 743.48 340.37 743.92 340.36 744.2 340.13 744.33 340.17 744.45 340.04 744.69 340.11 744.97 340.31 745.85 340.08 745.96 340.17 746.15 340.49 746.32 340.48 746.54 340.29 746.78 340.5 746.9 340.35 747.33 340.43 747.62 340.7 747.79 340.69 747.84 340.97 747.79 341.18 748.06 341.19 748.26 341.27 748.26 341.55 748.82 341.94 748.97 341.97 749.08 342.22 749.27 342.34 749.43 342.52 749.68 342.62 749.95 342.83 749.96 343.04 750.47 343.25 750.66 343.05 750.76 343.31 751.24 343.26 751.36 343.94 751.58 344.06 751.78 344.34 751.76 344.48 752.1 344.61 752.77 344.41 753.31 344.77 753.54 344.86 753.63 345.02 753.86 345.19 754.16 345.18 754.3 345.26 754.51 345.22 755.09 345.39 755.38 345.56 755.54 345.56 755.86 345.76 755.87 345.96 756 346 756.42 346.42 756.47 346.69 756.38 346.94 756.51 347.3 756.47 347.92 756.5 348.37 756.35 348.57 756.36 348.88 756.15 348.99 755.98 349.39 755.48 349.87 755.33 349.81 755.21 349.91 754.92 349.99 754.5 350.44 754.51 350.68 754.3 351 753.99 351.08 753.66 351.23 753.38 351.19 753.16 351.07 752.63 351.42 752.03 351.51 751.98 351.68 751.74 351.87 751.57 351.88 751.43 352.14 751.22 352.12 751.04 352.33 750.84 352.11 750.49 352.03 750.17 352.2 750.06 352.09 749.93 352.23 749.7 352.18 749.63 352.01 749.35 352.02 749.19 351.96 748.41 352.17 748.08 352.33 747.68 352.64 747.53 352.64 747.16 352.83 746.71 353.14 746.61 353.11 745.95 353.38 745.68 353.62 745.37 353.71 744.54 353.65 744.21 353.7 743.96 353.82 743.89 353.72 743.64 353.71 743.58 353.82 743.06 353.94 742.75 354.04 742.39 353.83 742.29 353.88 741.74 353.86 741.69 353.74 741.38 353.76 741.31 353.63 741.32 353.31 741.1 353.15 740.88 353.33 740.56 353.19 740.37 352.96 740.39 352.77 740.5 352.6 740.42 352.32 740.17 352.01 739.95 351.86 739.9 351.74 740.12 351.63 740.15 351.45 740.28 351.35 740.33 351.14 740.25 351.02 740.31 350.87 740.2 350.6 740.18 349.88 740.2 349.69 740.15 349.29 740.08 349.16 740.13 348.94 740.06 348.54 739.77 348.03 739.64 347.39 739.64 346.73 739.58 346.42 739.13 345.98 738.58 345.8 738.22 345.76 737.99 345.81 737.66 346.1 737.52 346.39 737.29 346.54 736.88 346.59 736.67 346.39 735.86 345.93 735.25 345.84 734.97 345.69 734.69 345.44 734.38 345.3 734.02 345.38 733.86 345.33 733.69 345.14 733.59 344.83 733.23 344.46 733.01 344.39 732.76 344.03 732.26 343.5 732.05 343.38 731.88 343.11 731.83 342.87 731.49 342.61 731.63 342.41 731.63 341.84 731.41 341.46 731.19 341.31 Z M 731.22 355.91 731.28 355.72 731.43 355.52 731.9 355.1 732.01 354.89 732.42 354.77 732.63 354.66 733.13 354.56 733.47 354.26 733.6 354.22 733.89 353.96 734.25 353.77 734.43 353.55 735.16 353.17 735.44 353.07 735.85 353.05 736.07 353.22 736.38 353.36 736.9 354.05 736.94 354.34 736.59 354.48 736.63 354.67 736.6 354.96 736.41 355.21 736.38 355.53 736.5 355.63 736.75 355.51 736.9 355.64 737.11 355.62 737.17 355.85 736.84 356.16 736.85 356.31 736.7 356.46 736.42 356.26 736.2 356.34 735.92 356.32 735.21 356.61 735.01 356.36 734.64 356.34 734.44 356.45 734.39 356.32 733.98 356.42 733.67 356.55 733.34 356.76 733.22 356.67 733.13 356.35 732.77 356.75 732.42 356.92 732.2 356.92 731.95 356.83 731.72 356.64 731.82 356.5 731.74 356.38 731.52 356.34 731.18 356.03 731.22 355.91 Z M 718.38 341.95 718.52 341.62 718.81 341.47 719.25 341.17 719.74 341.03 720.24 341.02 720.45 340.96 720.96 340.92 721.62 341.12 722.54 341.16 722.72 341.11 723.22 341.24 723.5 341.25 724.02 341.42 724.28 341.54 724.58 341.81 724.66 341.81 726.28 343.34 726.57 343.62 726.83 343.96 727.17 344.58 727.39 344.9 727.38 345.47 727.1 346.03 726.83 346.36 726.56 346.97 726.31 347.22 726.11 347.32 725.78 347.31 725.59 347.44 725.26 347.55 725.08 347.75 724.77 347.91 724.62 347.82 724.42 348.18 724.3 348.02 724.16 347.99 723.84 348.16 723.43 348.1 723.32 348.2 723.01 348.15 722.86 348.22 722.74 348.14 722.11 348.22 721.85 348.31 721.5 347.82 721.18 347.51 720.92 346.54 720.81 346.24 720.89 346.09 720.89 345.74 720.95 345.5 720.96 345.11 720.82 344.76 720.3 343.9 720.13 343.74 719.39 343.39 719.27 343.41 719.1 343.23 718.76 343.14 718.46 342.64 718.35 342.37 718.38 341.95 Z M 709.65 334.24 709.85 334 709.92 333.77 709.86 333.64 709.99 333.3 710.15 333.2 710.19 332.93 710.28 332.78 710.68 332.35 710.94 332.27 711.4 331.87 711.59 331.61 711.55 331.44 711.69 331.2 711.71 330.9 711.62 330.49 711.31 330.2 711.26 330.06 711.48 329.87 712.02 330.11 712.65 330.12 712.84 330.1 712.96 329.95 713.28 330.2 713.51 330.24 713.66 330.48 713.86 330.64 714.15 330.64 714.41 330.72 714.9 330.7 714.93 330.81 715.4 330.87 715.4 330.78 715.87 330.78 716.48 330.94 716.86 330.9 717.17 330.94 717.84 331.18 718.15 331.17 718.33 331.28 718.68 331.27 718.92 331.18 719.54 331.26 720.51 331.51 720.83 331.4 720.96 331.26 721.06 330.68 721.06 330.43 721.26 330.25 721.47 330.14 721.75 330.27 721.94 330.54 721.97 330.69 722.27 331.16 722.31 331.51 722.42 331.74 722.78 331.86 723 331.78 723.09 331.87 723.5 331.99 724.11 332.09 724.25 331.89 724.5 331.88 724.56 332.14 724.71 332.17 724.8 331.98 725.1 332.03 725.18 332.15 725.73 332.03 726 331.94 726.16 332.03 726.42 332.04 726.54 331.88 726.82 331.76 727.36 331.61 727.53 331.68 727.64 331.85 727.84 331.87 728.05 331.65 728.45 331.66 728.55 331.57 728.94 331.63 729.65 331.66 729.79 331.84 729.77 332.19 730.02 332.26 730.42 332.14 730.71 332.21 730.59 332.76 730.47 332.88 730.23 333.33 729.98 333.52 729.77 333.89 729.51 334.02 729.46 334.17 729 334.56 728.73 334.73 728.44 334.98 728.41 335.1 728.17 335.11 727.98 335.23 727.85 335.48 727.63 335.53 727.45 335.68 726.93 335.74 726.76 335.93 726.58 335.93 726.26 336.18 725.82 336.15 725.72 336.07 725.49 336.12 725.4 336.26 725.21 336.35 724.95 336.39 724.9 336.51 724.27 336.37 724.17 336.13 723.99 336.18 723.5 336.1 723.27 335.99 722.77 335.95 722.29 335.85 722.1 335.75 721.68 335.68 721.45 335.58 721.14 335.6 721.09 335.48 720.74 335.31 720.45 335.36 720.35 335.24 719.81 335.04 719.43 334.95 719.27 334.71 719.02 334.65 718.75 334.66 718.36 334.52 718.11 334.49 717.96 334.54 717.62 334.43 717.22 334.43 717.09 334.38 716.9 334.49 716.75 334.45 716.33 334.56 715.99 334.6 715.58 334.75 715.21 334.84 714.92 334.79 714.31 334.81 714.17 334.86 713.88 334.84 713.32 334.91 712.85 334.91 711.92 334.99 711.66 335.11 711.56 335 710.46 334.81 709.93 334.8 709.74 334.73 709.5 334.49 709.65 334.24 Z M 622.54 299.28 622.7 298.62 622.73 298.21 622.71 297.98 623.15 297.63 623.35 297.4 624.07 296.76 624.32 296.17 624.33 295.94 624.5 295.68 624.6 295.17 624.9 294.79 625.73 294.33 626.04 294.3 626.69 294.13 627.14 293.96 627.49 293.68 627.67 293.66 628.13 293.23 628.39 293.07 628.59 293.01 628.99 292.81 629.32 292.57 629.87 292.09 630.27 292.1 630.39 292.21 630.64 291.98 630.99 292.05 631.17 292.17 631.34 292.47 631.57 292.32 631.63 292.4 632.08 292.46 632.06 292.58 632.32 292.87 632.58 292.84 632.76 292.7 632.79 292.47 632.67 292.28 632.79 292.13 632.98 292.06 633.13 291.9 633.55 291.91 633.93 292.14 634.31 292.03 634.65 292.13 634.99 292.14 635.19 292.36 635.28 292.35 635.36 292.11 635.52 292.16 635.97 292.07 636.13 291.81 636.36 292.08 636.57 292.18 636.81 292.11 636.83 292.4 637.06 292.37 637.32 292.48 637.7 292.54 637.96 292.49 638.3 292.74 638.6 293.06 638.7 293.25 639.15 293.56 639.3 293.88 639.25 294.08 639.59 294.57 639.46 294.93 639.59 295.05 639.81 294.96 639.92 295.16 639.95 295.69 639.92 295.97 639.79 296.26 639.86 296.42 639.79 296.64 639.53 296.86 639.49 297.18 639.28 297.42 639.08 297.75 639.09 297.93 639.02 298.27 638.9 298.48 638.51 298.67 638.41 298.85 638.44 299.01 638.29 299.69 638.32 299.98 638.49 300.6 638.4 300.86 638.6 300.89 638.45 301.15 638.46 301.39 638.57 301.83 638.58 302.07 638.37 302.26 638.21 302.14 637.57 302.31 637.6 302.53 637.85 302.49 637.95 302.54 637.86 302.77 637.98 302.96 637.72 302.95 637.68 303.14 637.44 303.14 637.23 303.35 636.81 303.52 636.62 303.85 636.5 303.85 636.44 304.04 636.46 304.24 636.21 304.2 635.96 304.37 635.93 304.56 635.73 304.69 635.51 304.75 635.43 304.97 635.14 305.01 634.9 305.27 634.76 305.24 634.51 305.48 634.24 305.32 633.45 304.96 633.19 304.96 633 304.82 632.53 304.86 632.16 304.72 631.89 304.77 631.64 304.88 631.47 304.76 631.03 304.71 630.77 304.74 630.45 304.64 630.14 304.48 629.97 304.52 629.66 304.32 629.51 304.3 629.44 304.14 629.17 304.16 629.17 304.45 628.96 304.54 628.82 304.43 628.8 304.25 628.49 304.16 628.31 303.99 628.09 303.9 627.9 303.74 627.35 302.95 627.34 302.75 627.24 302.66 626.97 302.62 626.69 302.21 626.49 302.13 625.32 301.9 625.05 301.68 623.84 301.33 623.52 301.19 623.3 300.93 623.02 300.2 622.79 300.03 622.58 299.71 622.54 299.28 Z M 611.53 299.58 611.71 299.47 612.02 299.47 611.84 299.67 611.6 299.71 611.53 299.58 Z M 606.42 305.95 606.58 305.79 606.85 305.36 606.87 304.87 606.99 304.74 607.01 304.53 607.13 304.35 607.4 304.21 607.94 303.72 608.17 303.4 608.33 303.3 608.5 303.06 608.91 302.95 609.28 302.76 609.37 302.56 609.66 302.55 610.28 302.3 610.67 302 610.81 301.81 610.89 301.55 611.07 301.21 611.1 300.84 611.22 300.7 611.18 300.51 611.42 300.34 611.56 300.43 611.82 300.24 611.87 300.07 612.05 300.17 612.07 300.36 612.57 300.29 612.64 300.16 613.23 300.59 613.31 300.87 613.29 301.08 613.18 301.17 612.88 301.19 612.67 301.52 612.59 301.85 612.4 301.99 612.15 302.99 612.27 303.47 612.48 304.03 612.42 304.24 612.28 304.26 612.05 304.43 611.88 304.48 611.65 304.65 611.57 304.61 611.27 304.83 611.13 304.74 610.52 304.98 610.12 305.06 609.98 305.03 609.45 305.31 609.24 305.62 609.15 305.86 608.95 306.11 608.91 306.29 608.75 306.44 608.27 307.21 608.19 307.46 608.23 307.58 607.97 307.93 607.88 308.23 608.02 308.32 607.84 308.53 607.69 308.4 607.44 308.39 607.14 308.06 606.9 308.09 606.8 308.01 606.82 307.82 606.68 307.59 606.46 306.52 606.37 306.19 606.42 305.95 Z M 548.46 259.01 548.7 259.08 548.82 259.26 548.58 259.32 548.46 259.01 Z M 400.21 222.37 400.4 222.52 400.34 222.75 400.16 222.49 400.21 222.37 Z M 397.87 222.15 398.21 222.04 398.24 222.15 397.91 222.23 397.87 222.15 Z M 341.38 175.25 341.55 175.09 341.59 175.33 341.38 175.25 Z M 214.43 134.16 214.51 133.94 214.82 133.78 215.14 133.91 214.93 134.53 214.79 134.73 214.46 134.74 214.36 134.57 214.43 134.16 Z M 138.47 113.32 138.68 113.38 138.77 113.66 138.69 114.04 138.5 113.93 138.35 113.36 138.47 113.32 Z M 87.17 33.78 87.37 33.6 87.48 33.68 87.28 33.89 87.17 33.78 Z M 83.77 38.87 84.07 38.96 83.9 39.08 83.77 38.87 Z M 80.63 39.01 80.96 39.13 80.93 39.25 80.61 39.17 80.63 39.01 Z M 79.52 39.12 79.67 39.54 79.46 39.59 79.24 39.2 79.52 39.12 Z M 1.09 1.03 1.93 1.35 2.28 1.35 2.66 1 2.62 1.38 2.43 1.47 2.01 1.56 1 1.22 1.09 1.03 Z" fill-rule="evenodd" fill="none" stroke="currentColor" stroke-width="1"/>
</g>
</svg>