<svg viewBox="-180.6874905 -30.7549155 28.233509999999995 14.197346999999997" xmlns="http://www.w3.org/2000/svg">
  <path d="M -157.6492805884014,21.310600452905668 L -157.65935,21.31019 L -157.66339,21.31639 L -157.665879,21.31557 L -157.677831,21.32438 L -157.688368,21.328496 L -157.6938,21.3329 L -157.706621,21.353114 L -157.70903,21.360332 L -157.708719,21.369058 L -157.705887,21.380298 L -157.715864,21.393332 L -157.733934,21.40055 L -157.7386,21.4043 L -157.743289,21.413746 L -157.744483,21.422356 L -157.739001,21.424245 L -157.735831,21.432404 L -157.735669,21.445242 L -157.729503,21.446749 L -157.725758,21.449973 L -157.722506,21.459225 L -157.729976,21.460281 L -157.745892,21.453386 L -157.76319,21.459501 L -157.768236,21.456324 L -157.772748,21.456936 L -157.77731,21.451817 L -157.778277,21.446491 L -157.772744,21.443085 L -157.758031,21.43685 L -157.761353,21.42843 L -157.765533,21.424504 L -157.764122,21.421414 L -157.769957,21.413283 L -157.778044,21.411816 L -157.7872,21.413706 L -157.789103,21.425297 L -157.792286,21.428852 L -157.796741,21.425297 L -157.8059,21.4301 L -157.805175,21.435147 L -157.808537,21.442889 L -157.811227,21.444536 L -157.816587,21.454642 L -157.8223,21.452517 L -157.830082,21.457981 L -157.838085,21.456703 L -157.84099,21.459483 L -157.844316,21.469991 L -157.841664,21.480449 L -157.842865,21.484557 L -157.849256,21.487447 L -157.847029,21.492244 L -157.852625,21.499971 L -157.850624,21.506294 L -157.834829,21.508969 L -157.835682,21.516927 L -157.834505,21.526916 L -157.841885,21.541954 L -157.846641,21.544938 L -157.846683,21.54983 L -157.854859,21.557518 L -157.863849,21.56017 L -157.868866,21.555964 L -157.87347,21.554984 L -157.876932,21.557402 L -157.875052,21.562975 L -157.875191,21.573056 L -157.886735,21.580607 L -157.889273,21.589869 L -157.895126,21.594489 L -157.898094,21.602617 L -157.907711,21.607763 L -157.912647,21.614573 L -157.912716,21.620967 L -157.919371,21.62627 L -157.920754,21.629838 L -157.917945,21.635108 L -157.916779,21.647437 L -157.928184,21.653803 L -157.926264,21.661617 L -157.932206,21.663384 L -157.935296,21.666698 L -157.93791,21.676858 L -157.949081,21.692981 L -157.957876,21.702256 L -157.962011,21.703499 L -157.967383,21.710427 L -157.983491,21.710734 L -157.988888,21.705678 L -157.997173,21.705396 L -158.000183,21.701594 L -158.009252,21.70034 L -158.027753,21.689668 L -158.032309,21.682772 L -158.0371,21.681248 L -158.04006,21.675251 L -158.046966,21.67006 L -158.062258,21.655376 L -158.065069,21.639084 L -158.06816,21.638686 L -158.071627,21.633382 L -158.080043,21.624502 L -158.085985,21.621851 L -158.085831,21.618367 L -158.094896,21.613216 L -158.106689,21.603024 L -158.103811,21.600637 L -158.112843,21.589809 L -158.117998,21.590237 L -158.122823,21.583513 L -158.131943,21.582382 L -158.136379,21.58453 L -158.154337,21.580846 L -158.163706,21.581189 L -158.167509,21.579642 L -158.172263,21.581852 L -158.176865,21.58066 L -158.191402,21.582673 L -158.209103,21.582073 L -158.215996,21.580084 L -158.22788,21.580084 L -158.234772,21.581852 L -158.259491,21.578537 L -158.277555,21.57699 L -158.274717,21.572117 L -158.256378,21.559335 L -158.250671,21.557373 L -158.231531,21.537183 L -158.229781,21.534326 L -158.229068,21.52504 L -158.230022,21.495318 L -158.231144,21.482685 L -158.220384,21.476097 L -158.218112,21.467604 L -158.213388,21.463276 L -158.203698,21.457944 L -158.20281,21.453703 L -158.197694,21.448739 L -158.189851,21.446527 L -158.18986,21.443426 L -158.182648,21.430073 L -158.179631,21.428607 L -158.177825,21.409751 L -158.1792,21.4043 L -158.172952,21.398603 L -158.162042,21.395858 L -158.149719,21.385208 L -158.146259,21.379714 L -158.141127,21.376383 L -158.140745,21.371896 L -158.136475,21.369254 L -158.129813,21.355133 L -158.130326,21.351593 L -158.128263,21.340696 L -158.123826,21.334059 L -158.123089,21.325712 L -158.116219,21.328811 L -158.112837,21.324101 L -158.120509,21.321048 L -158.118562,21.313297 L -158.1127,21.3019 L -158.108298,21.297614 L -158.102891,21.295675 L -158.0860071733129,21.295784518654642 L -158.079443,21.298127 L -158.050248,21.301118 L -158.044333,21.303763 L -158.021336,21.30709 L -157.981525,21.315898 L -157.978313,21.315929 L -157.970473,21.322811 L -157.970235,21.328346 L -157.965244,21.327461 L -157.960728,21.321704 L -157.951881,21.318742 L -157.94718,21.315505 L -157.949323,21.306477 L -157.94718,21.303769 L -157.906734,21.303319 L -157.904635,21.305319 L -157.886688,21.306646 L -157.883771,21.300011 L -157.877621,21.30117 L -157.870727,21.298201 L -157.869842,21.29513 L -157.846003,21.281684 L -157.83793,21.281161 L -157.829722,21.276623 L -157.823164,21.271436 L -157.8211,21.2606 L -157.814901,21.256114 L -157.806201,21.255043 L -157.795879,21.257156 L -157.791215,21.25553 L -157.789798,21.259836 L -157.779944,21.265252 L -157.775454,21.270499 L -157.764404,21.275199 L -157.754532,21.276102 L -157.743605,21.279722 L -157.734592,21.279669 L -157.732169,21.282014 L -157.722367,21.281395 L -157.719411,21.284359 L -157.712658,21.280938 L -157.709474,21.277469 L -157.708729,21.269119 L -157.71152,21.261982 L -157.709276,21.259719 L -157.698719,21.260682 L -157.691516,21.26428 L -157.695952,21.267227 L -157.693338,21.272986 L -157.689325,21.268974 L -157.685775,21.275763 L -157.676938,21.280737 L -157.673764,21.285287 L -157.657985,21.293322 L -157.654658,21.297963 L -157.651032,21.298816 L -157.648929,21.304716 L -157.6492805884014,21.310600452905668 Z M -156.061472300793,19.7281342390482 L -156.049471,19.714373 L -156.04796,19.698938 L -156.044356,19.692885 L -156.039135,19.692486 L -156.034204,19.687124 L -156.03242,19.679579 L -156.02684,19.676198 L -156.027904,19.668388 L -156.030994,19.667046 L -156.032438,19.656 L -156.028982,19.650098 L -156.024019,19.647366 L -156.016706,19.647573 L -156.014268,19.645107 L -156.000792,19.637245 L -155.99566,19.639145 L -155.991302,19.636156 L -155.991311,19.63225 L -155.985564,19.623315 L -155.985913,19.616935 L -155.973787,19.603859 L -155.976427,19.599954 L -155.971982,19.594587 L -155.97139,19.587635 L -155.966417,19.580518 L -155.968004,19.577679 L -155.967911,19.568245 L -155.963984,19.56228 L -155.966682,19.553979 L -155.961169,19.550853 L -155.955858,19.532626 L -155.955965,19.525153 L -155.960213,19.520158 L -155.951847,19.504922 L -155.948198,19.495474 L -155.950425,19.486648 L -155.94652,19.48316 L -155.941043,19.483078 L -155.937253,19.479067 L -155.933308,19.482517 L -155.924124,19.481406 L -155.91976,19.475346 L -155.922487,19.465415 L -155.927767,19.458812 L -155.921919,19.453177 L -155.920235,19.445765 L -155.921415,19.435899 L -155.917193,19.426038 L -155.913105,19.425368 L -155.914351,19.420419 L -155.904876,19.410315 L -155.910416,19.399926 L -155.910858,19.396513 L -155.898792,19.377984 L -155.886722,19.345552 L -155.885241,19.338821 L -155.885179,19.329395 L -155.889657,19.324221 L -155.890671,19.318544 L -155.887691,19.313249 L -155.887782,19.306795 L -155.89005,19.300693 L -155.888335,19.296554 L -155.888696,19.289042 L -155.891289,19.28453 L -155.891539,19.276491 L -155.895813,19.262795 L -155.899355,19.256578 L -155.900633,19.247464 L -155.897291,19.240221 L -155.900722,19.232385 L -155.902206,19.223091 L -155.899276,19.21028 L -155.905643,19.202559 L -155.908037,19.186729 L -155.91049,19.181311 L -155.90775,19.176786 L -155.908631,19.168591 L -155.912048,19.165565 L -155.916432,19.156616 L -155.914626,19.152666 L -155.910253,19.151227 L -155.911176,19.146057 L -155.918183,19.134375 L -155.916933,19.127639 L -155.91829,19.114805 L -155.911072,19.096056 L -155.906779,19.079894 L -155.897244,19.071014 L -155.890102,19.060201 L -155.883292,19.052066 L -155.881436,19.046574 L -155.88155,19.036644 L -155.879592,19.033534 L -155.867049,19.029784 L -155.861052,19.024657 L -155.854444,19.022859 L -155.85045,19.019404 L -155.835195,19.018327 L -155.807314,19.010245 L -155.801011,19.010114 L -155.789726,18.999249 L -155.785865,18.998032 L -155.775587,18.989942 L -155.763109,18.983011 L -155.759188,18.977259 L -155.75474,18.976207 L -155.741315,18.970149 L -155.734836,18.969956 L -155.723613,18.966437 L -155.719225,18.961019 L -155.714848,18.960305 L -155.707307,18.954153 L -155.705716,18.95019 L -155.6969,18.9463 L -155.688084,18.939498 L -155.683982,18.934193 L -155.682867,18.924571 L -155.684023,18.917933 L -155.682793,18.910361 L -155.673073,18.912205 L -155.66905,18.916474 L -155.663833,18.917547 L -155.65477,18.92245 L -155.649604,18.927277 L -155.645988,18.933226 L -155.638115,18.936246 L -155.632643,18.941388 L -155.632254,18.945209 L -155.627416,18.948116 L -155.622366,18.957637 L -155.61957,18.967688 L -155.612915,18.968812 L -155.609508,18.966026 L -155.606125,18.968856 L -155.599188,18.968396 L -155.596991,18.974656 L -155.593764,18.977782 L -155.593728,18.995253 L -155.584899,19.004218 L -155.580017,19.018045 L -155.575837,19.023648 L -155.565147,19.02873 L -155.558505,19.037482 L -155.551756,19.051739 L -155.553359,19.072865 L -155.554922,19.077791 L -155.549217,19.085428 L -155.54288,19.085806 L -155.541536,19.090501 L -155.525848,19.111466 L -155.517368,19.113278 L -155.51474,19.118664 L -155.509672,19.121625 L -155.509994,19.129003 L -155.501258,19.134858 L -155.483869,19.13833 L -155.469408,19.144543 L -155.463853,19.143988 L -155.450074,19.149054 L -155.443147,19.15773 L -155.430084,19.167193 L -155.42422,19.176178 L -155.41794,19.180382 L -155.41469,19.184747 L -155.407101,19.187315 L -155.399156,19.188329 L -155.394224,19.194565 L -155.38614,19.198637 L -155.373923,19.200006 L -155.357979,19.206535 L -155.347037,19.214548 L -155.338861,19.231076 L -155.333988,19.234936 L -155.317876,19.242461 L -155.31084,19.247491 L -155.304632,19.255334 L -155.293236,19.263901 L -155.275206,19.266148 L -155.262532,19.271205 L -155.255627,19.270529 L -155.249102,19.267855 L -155.243137,19.26868 L -155.234295,19.26579 L -155.232903,19.262602 L -155.222056,19.260705 L -155.207765,19.256463 L -155.197788,19.258077 L -155.191933,19.256122 L -155.189493,19.260274 L -155.184716,19.263258 L -155.16988,19.265471 L -155.162988,19.264349 L -155.157097,19.265271 L -155.142375,19.273317 L -155.129839,19.273985 L -155.120162,19.279443 L -155.112302,19.285915 L -155.097983,19.294936 L -155.088531,19.297609 L -155.071216,19.311657 L -155.061974,19.311236 L -155.048592,19.314273 L -155.04042,19.320538 L -155.017329,19.327825 L -155.012131,19.332185 L -155.004793,19.333257 L -154.971873,19.349944 L -154.965599,19.358315 L -154.948898,19.372623 L -154.934035,19.384177 L -154.928592,19.394837 L -154.923882,19.394657 L -154.909144,19.406536 L -154.88919,19.415574 L -154.885694,19.422831 L -154.879518,19.425621 L -154.873701,19.431778 L -154.864973,19.436098 L -154.835227,19.461677 L -154.831399,19.468262 L -154.826813,19.471227 L -154.820265,19.478865 L -154.819105,19.486307 L -154.816912,19.489098 L -154.811185,19.506574 L -154.811697,19.512091 L -154.806773,19.516041 L -154.806947,19.519499 L -154.811349,19.526784 L -154.825049,19.53488 L -154.832456,19.535065 L -154.850098,19.54646 L -154.866839,19.549052 L -154.874682,19.555995 L -154.883833,19.55718 L -154.88838,19.562397 L -154.902634,19.568362 L -154.911998,19.579734 L -154.921629,19.583115 L -154.926021,19.591602 L -154.939569,19.599439 L -154.947106,19.604856 L -154.948258,19.611956 L -154.945273,19.622276 L -154.950027,19.624739 L -154.959992,19.623638 L -154.963933,19.627605 L -154.974342,19.633201 L -154.979574,19.637884 L -154.981645,19.648637 L -154.978548,19.652497 L -154.982973,19.658504 L -154.982629,19.673144 L -154.979024,19.681145 L -154.978073,19.688978 L -154.981163,19.694125 L -154.984197,19.704512 L -154.987168,19.708524 L -154.99303,19.723471 L -155.003524,19.73633 L -155.014676,19.738427 L -155.021093,19.733281 L -155.031079,19.738833 L -155.041058,19.73865 L -155.046099,19.732637 L -155.05366,19.732581 L -155.060785,19.726345 L -155.063972,19.728917 L -155.070293,19.727017 L -155.07053,19.724332 L -155.081939,19.723884 L -155.087118,19.728013 L -155.09002,19.734623 L -155.090733,19.752967 L -155.08609,19.783538 L -155.089464,19.788751 L -155.089983,19.79429 L -155.086501,19.803469 L -155.092635,19.809328 L -155.087406,19.81872 L -155.082289,19.835942 L -155.084303,19.843688 L -155.080751,19.847785 L -155.083223,19.852634 L -155.086693,19.853374 L -155.08852,19.859461 L -155.092707,19.864712 L -155.105125,19.869685 L -155.110525,19.876198 L -155.109697,19.878699 L -155.119028,19.883127 L -155.118992,19.888246 L -155.125421,19.900528 L -155.133066,19.906622 L -155.14147,19.917284 L -155.150633,19.92371 L -155.163341,19.936322 L -155.175643,19.945365 L -155.177263,19.947792 L -155.188604,19.954787 L -155.196147,19.955644 L -155.196891,19.960143 L -155.201817,19.966208 L -155.213512,19.975106 L -155.230736,19.984674 L -155.238328,19.987403 L -155.241164,19.994031 L -155.248034,19.995059 L -155.251596,20.00066 L -155.258942,20.004313 L -155.268705,20.012398 L -155.280276,20.018988 L -155.290959,20.021073 L -155.33021,20.038517 L -155.340772,20.044397 L -155.345476,20.049103 L -155.350756,20.049307 L -155.366917,20.057793 L -155.39021,20.066947 L -155.398528,20.071189 L -155.402056,20.075786 L -155.412551,20.081234 L -155.437823,20.092682 L -155.464905,20.101027 L -155.496842,20.112228 L -155.516795,20.11523 L -155.55611,20.129221 L -155.566568,20.127213 L -155.577666,20.120729 L -155.589068,20.119186 L -155.598033,20.124539 L -155.607797,20.137987 L -155.613391,20.137255 L -155.620759,20.142611 L -155.634307,20.144396 L -155.638606,20.147342 L -155.640184,20.155413 L -155.651653,20.165355 L -155.68525,20.179273 L -155.705848,20.190579 L -155.724918,20.201632 L -155.734132,20.210654 L -155.731359,20.214876 L -155.731,20.220033 L -155.737004,20.222773 L -155.744232,20.229361 L -155.748868,20.230727 L -155.757187,20.238756 L -155.762178,20.238756 L -155.771293,20.24644 L -155.778787,20.241984 L -155.781772,20.244643 L -155.792307,20.24934 L -155.797581,20.24817 L -155.807304,20.256105 L -155.822994,20.258994 L -155.837039,20.26703 L -155.847543,20.265045 L -155.850709,20.268043 L -155.868207,20.265088 L -155.882582,20.256834 L -155.887575,20.250029 L -155.889204,20.243496 L -155.892276,20.241269 L -155.899378,20.230087 L -155.898872,20.224865 L -155.902797,20.213327 L -155.901364,20.206102 L -155.904373,20.196116 L -155.901845,20.185199 L -155.899919,20.170028 L -155.895082,20.149063 L -155.895998,20.143418 L -155.892655,20.138079 L -155.89139,20.125511 L -155.882829,20.11177 L -155.88353,20.10619 L -155.879441,20.102965 L -155.870886,20.086523 L -155.865717,20.080516 L -155.864504,20.076434 L -155.859297,20.074493 L -155.855107,20.067594 L -155.843952,20.05646 L -155.843305,20.053169 L -155.827068,20.034253 L -155.829203,20.029317 L -155.823078,20.027628 L -155.82303,20.019016 L -155.824998,20.01577 L -155.82839,20.000547 L -155.826643,19.990816 L -155.83108,19.98649 L -155.832396,19.973927 L -155.841956,19.973075 L -155.847422,19.969054 L -155.852889,19.968384 L -155.858959,19.962928 L -155.863249,19.952147 L -155.878343,19.941625 L -155.877845,19.934649 L -155.881971,19.935472 L -155.89068,19.928616 L -155.890848,19.91197 L -155.89853,19.908991 L -155.900952,19.900326 L -155.905938,19.896999 L -155.90549,19.888261 L -155.912355,19.884072 L -155.915494,19.875252 L -155.923261,19.870486 L -155.924028,19.865462 L -155.9221,19.85717 L -155.93709,19.84957 L -155.942475,19.850291 L -155.945297,19.853443 L -155.961363,19.852296 L -155.972992,19.848029 L -155.979585,19.843196 L -155.981142,19.839432 L -155.989694,19.8304 L -155.997347,19.825398 L -155.996668,19.821719 L -156.000963,19.814694 L -156.006058,19.813614 L -156.006803,19.809925 L -156.01257,19.806086 L -156.021262,19.795905 L -156.038259,19.787242 L -156.040658,19.781799 L -156.046814,19.776834 L -156.049248,19.771897 L -156.050692,19.76169 L -156.049408,19.758086 L -156.050692,19.750592 L -156.054522,19.747697 L -156.053088,19.736702 L -156.061472300793,19.7281342390482 Z M -156.697418,20.916368 L -156.691334,20.91244 L -156.685117,20.902218 L -156.685379,20.887156 L -156.68926,20.881948 L -156.679842,20.874723 L -156.678327,20.868401 L -156.673573,20.861294 L -156.667676,20.85797 L -156.653701,20.843763 L -156.646549,20.834078 L -156.640519,20.832249 L -156.630462,20.822192 L -156.627683,20.813951 L -156.622925,20.808975 L -156.618366,20.807581 L -156.608139,20.809736 L -156.5995,20.805743 L -156.591383,20.799176 L -156.583683,20.794971 L -156.566495,20.792383 L -156.543657,20.780135 L -156.537675,20.774587 L -156.525974,20.775984 L -156.519557,20.779762 L -156.515384,20.787675 L -156.506182,20.79512 L -156.499709,20.796466 L -156.489473,20.795425 L -156.473922,20.790428 L -156.461259,20.778465 L -156.459671,20.770369 L -156.459977,20.752675 L -156.456377,20.735735 L -156.448229,20.722078 L -156.446319,20.711303 L -156.447777,20.705523 L -156.446005,20.702163 L -156.444565,20.69153 L -156.445401,20.686401 L -156.444821,20.667244 L -156.441862,20.660089 L -156.443673,20.656018 L -156.44136,20.652822 L -156.442794,20.647343 L -156.446668,20.644604 L -156.447463,20.639813 L -156.453719,20.63703 L -156.452238,20.633686 L -156.446114,20.62969 L -156.439256,20.621268 L -156.436904,20.614004 L -156.440171,20.609462 L -156.4407,20.604285 L -156.435515,20.598247 L -156.426425,20.594474 L -156.420284,20.599177 L -156.41409,20.594744 L -156.414215,20.586402 L -156.412305,20.582901 L -156.403625,20.583227 L -156.402234,20.580178 L -156.386719,20.579512 L -156.383795,20.580824 L -156.373794,20.574916 L -156.365084,20.577535 L -156.350252,20.580525 L -156.348655,20.583512 L -156.341543,20.583108 L -156.339674,20.580416 L -156.33244,20.583563 L -156.323043,20.585018 L -156.299613,20.583083 L -156.290756,20.585482 L -156.283242,20.591767 L -156.264576,20.598668 L -156.261627,20.597833 L -156.248748,20.605925 L -156.238239,20.610826 L -156.234103,20.611004 L -156.222795,20.618988 L -156.213313,20.623145 L -156.191312,20.628503 L -156.186783,20.62693 L -156.178729,20.626997 L -156.176928,20.622557 L -156.170516,20.621088 L -156.1667,20.624699 L -156.163512,20.621904 L -156.154391,20.626317 L -156.144588,20.624032 L -156.139031,20.618123 L -156.13404,20.623684 L -156.128008,20.623091 L -156.123857,20.630056 L -156.119252,20.63017 L -156.112299,20.635057 L -156.110748,20.639699 L -156.093706,20.641757 L -156.078742,20.651103 L -156.072667,20.647875 L -156.064677,20.646529 L -156.055401,20.650459 L -156.046622,20.652595 L -156.040394,20.661051 L -156.040805,20.667248 L -156.02851,20.679286 L -156.020538,20.68126 L -156.016919,20.683796 L -156.012798,20.682123 L -155.998588,20.694906 L -155.993532,20.705443 L -155.987629,20.708191 L -155.987756,20.716374 L -155.983351,20.721752 L -155.984067,20.733737 L -155.982852,20.750082 L -155.986401,20.759852 L -155.983543,20.766355 L -155.985115,20.773546 L -155.996747,20.785069 L -156.000433,20.786055 L -156.000478,20.791474 L -156.009675,20.796889 L -156.014038,20.796834 L -156.022229,20.801574 L -156.038615,20.806166 L -156.044427,20.805205 L -156.048546,20.807288 L -156.056898,20.807078 L -156.063426,20.811844 L -156.065858,20.816155 L -156.072263,20.818618 L -156.087663,20.828257 L -156.106659,20.823032 L -156.116091,20.826631 L -156.115408,20.830464 L -156.121163,20.838048 L -156.127385,20.841082 L -156.130357,20.859452 L -156.144196,20.85811 L -156.146922,20.865185 L -156.152347,20.859801 L -156.166746,20.865646 L -156.16684,20.871288 L -156.174446,20.87684 L -156.181418,20.879512 L -156.185802,20.884468 L -156.191127,20.887631 L -156.194273,20.894228 L -156.19846,20.895058 L -156.214221,20.9056 L -156.214185,20.913127 L -156.219711,20.915391 L -156.227519,20.915757 L -156.226076,20.921231 L -156.227414,20.92866 L -156.231964,20.928575 L -156.240283,20.935901 L -156.252362,20.937966 L -156.255732,20.934125 L -156.262495,20.939618 L -156.268785,20.934809 L -156.27356,20.934639 L -156.279065,20.943108 L -156.282135,20.945568 L -156.307035,20.939755 L -156.314985,20.945037 L -156.321763,20.947099 L -156.325031,20.943621 L -156.328733,20.944726 L -156.336702,20.938655 L -156.349303,20.938553 L -156.369326,20.929339 L -156.373621,20.923691 L -156.38123,20.919232 L -156.383699,20.915983 L -156.393295,20.915065 L -156.396834,20.913136 L -156.404753,20.91236 L -156.418826,20.908254 L -156.425321,20.9098 L -156.44977,20.897104 L -156.467972,20.898607 L -156.47147,20.90072 L -156.47969,20.898075 L -156.481123,20.904859 L -156.485367,20.910908 L -156.491774,20.915368 L -156.49251,20.922798 L -156.496415,20.930872 L -156.507263,20.936846 L -156.508439,20.947385 L -156.515978,20.952108 L -156.520934,20.961917 L -156.525159,20.964262 L -156.525405,20.987306 L -156.530978,20.984642 L -156.53569,20.984966 L -156.543674,21.001301 L -156.549504,20.998267 L -156.552119,21.000707 L -156.554946,21.00863 L -156.560135,21.013881 L -156.565684,21.011853 L -156.573365,21.017872 L -156.578704,21.016858 L -156.583475,21.018602 L -156.588209,21.024212 L -156.588534,21.030817 L -156.603319,21.031191 L -156.60811,21.024686 L -156.613386,21.023323 L -156.618697,21.024342 L -156.624951,21.021811 L -156.634045,21.025137 L -156.641085,21.023277 L -156.641099,21.018847 L -156.637781,21.013026 L -156.64538,21.010723 L -156.649468,21.005172 L -156.655553,21.005714 L -156.659375,21.003737 L -156.665726,21.003793 L -156.666213,20.996211 L -156.673348,20.982598 L -156.679917,20.973153 L -156.686476,20.956051 L -156.692294,20.947096 L -156.693175,20.933115 L -156.69544,20.928131 L -156.697418,20.916368 Z M -156.700001,20.527924 L -156.700986,20.524817 L -156.691703,20.516458 L -156.685223,20.515314 L -156.6832,20.5122 L -156.685852,20.508432 L -156.679534,20.503393 L -156.672608,20.501009 L -156.666309,20.500913 L -156.656394,20.505465 L -156.646105,20.515914 L -156.643604,20.507303 L -156.640295,20.505008 L -156.630819,20.510438 L -156.622231,20.513929 L -156.610619,20.51649 L -156.609159,20.512986 L -156.603332,20.515744 L -156.592954,20.515278 L -156.587343,20.508417 L -156.56735,20.516114 L -156.559341,20.515405 L -156.553274,20.51747 L -156.545203,20.512031 L -156.541005,20.516022 L -156.541267,20.520161 L -156.531786,20.528257 L -156.533582,20.534426 L -156.539334,20.534019 L -156.543633,20.537373 L -156.550716,20.534211 L -156.554044,20.536882 L -156.55331,20.545518 L -156.547858,20.552112 L -156.546708,20.559823 L -156.547994,20.56488 L -156.537974,20.568579 L -156.539028,20.576176 L -156.553604,20.594729 L -156.562333,20.598585 L -156.568405,20.60309 L -156.579921,20.602735 L -156.588112,20.600152 L -156.608726,20.590123 L -156.61378,20.58419 L -156.623964,20.579433 L -156.632383,20.572533 L -156.636082,20.571361 L -156.645643,20.563503 L -156.659889,20.560923 L -156.665684,20.557987 L -156.677457,20.554975 L -156.680561,20.549424 L -156.693822,20.538458 L -156.698337,20.533021 L -156.700001,20.527924 Z M -157.060242,20.901924 L -157.061128,20.890635 L -157.058258,20.883547 L -157.049665,20.870196 L -157.040072,20.86772 L -157.035356,20.862881 L -157.031848,20.863259 L -157.011197,20.854009 L -157.006243,20.849603 L -156.991834,20.826603 L -156.987905,20.817396 L -156.988139,20.806982 L -156.989976,20.800453 L -156.990046,20.791138 L -156.992229,20.78717 L -156.989359,20.77929 L -156.981926,20.753522 L -156.973045,20.745182 L -156.963338,20.731927 L -156.955827,20.734436 L -156.937992,20.736468 L -156.934724,20.734133 L -156.930446,20.736129 L -156.921599,20.734762 L -156.918539,20.737404 L -156.906922,20.73579 L -156.897824,20.740024 L -156.894021,20.739357 L -156.890384,20.735022 L -156.884752,20.744692 L -156.880525,20.74205 L -156.87184,20.746387 L -156.866548,20.751644 L -156.857202,20.754613 L -156.851897,20.757898 L -156.84268,20.757557 L -156.836869,20.760285 L -156.829848,20.766917 L -156.821917,20.783035 L -156.814151,20.791774 L -156.806234,20.806604 L -156.805908,20.821668 L -156.812037,20.830352 L -156.821438,20.846839 L -156.828816,20.855883 L -156.837047,20.863575 L -156.882539,20.904463 L -156.884757,20.904394 L -156.893285,20.911689 L -156.900389,20.9149 L -156.915287,20.919647 L -156.923166,20.919961 L -156.937387,20.923416 L -156.942392,20.922148 L -156.968415,20.923291 L -156.986954,20.928841 L -157.001452,20.927731 L -157.007394,20.926399 L -157.021734,20.926044 L -157.035473,20.922419 L -157.048027,20.914618 L -157.056357,20.910459 L -157.060242,20.901924 Z M -157.306472,21.108191 L -157.310748,21.101627 L -157.304092,21.09517 L -157.298841,21.09337 L -157.283576,21.093038 L -157.252534,21.08767 L -157.249701,21.084802 L -157.242414,21.088038 L -157.21608,21.089991 L -157.202562,21.089774 L -157.186768,21.091653 L -157.178496,21.091011 L -157.174484,21.092383 L -157.157375,21.092766 L -157.149064,21.091538 L -157.138428,21.093867 L -157.126818,21.097842 L -157.117308,21.098843 L -157.105392,21.101649 L -157.101104,21.100442 L -157.095583,21.103584 L -157.091981,21.102158 L -157.08066,21.101976 L -157.07109,21.099124 L -157.066866,21.100502 L -157.059775,21.099436 L -157.04852,21.095821 L -157.040938,21.09603 L -157.034027,21.094282 L -157.029426,21.087793 L -157.018684,21.08542 L -157.003253,21.080036 L -157.00052,21.076755 L -156.992298,21.078185 L -156.982467,21.073481 L -156.980955,21.070442 L -156.97233,21.070902 L -156.965629,21.068193 L -156.953872,21.066128 L -156.948526,21.063388 L -156.934859,21.060795 L -156.920814,21.05949 L -156.914283,21.056704 L -156.900464,21.054446 L -156.89517,21.055771 L -156.892595,21.049338 L -156.874496,21.045478 L -156.873078,21.048659 L -156.865737,21.04956 L -156.860508,21.052 L -156.857751,21.055731 L -156.851239,21.057102 L -156.848387,21.054884 L -156.836006,21.053916 L -156.826778,21.06067 L -156.821766,21.060651 L -156.817056,21.065421 L -156.8022,21.067095 L -156.797071,21.070954 L -156.790868,21.072184 L -156.787121,21.079036 L -156.781592,21.081964 L -156.774944,21.082164 L -156.77409,21.085346 L -156.765592,21.092139 L -156.757979,21.096564 L -156.744769,21.106899 L -156.743412,21.110861 L -156.735964,21.114095 L -156.730074,21.124044 L -156.722892,21.12895 L -156.716023,21.140946 L -156.712434,21.144025 L -156.709106,21.158655 L -156.717084,21.160504 L -156.72865,21.157535 L -156.735726,21.159542 L -156.735013,21.168851 L -156.739054,21.173505 L -156.759183,21.174547 L -156.77016,21.17622 L -156.773022,21.173722 L -156.784295,21.174085 L -156.790393,21.168408 L -156.796097,21.168851 L -156.798964,21.173358 L -156.803869,21.175219 L -156.819188,21.171376 L -156.827163,21.168358 L -156.830658,21.164116 L -156.837952,21.164492 L -156.842651,21.166826 L -156.850137,21.164412 L -156.865863,21.161389 L -156.867944,21.16452 L -156.876433,21.16597 L -156.879285,21.161093 L -156.883325,21.161758 L -156.884989,21.168629 L -156.89212,21.168629 L -156.89616,21.16331 L -156.913553,21.165912 L -156.925015,21.169379 L -156.927694,21.171729 L -156.933844,21.169447 L -156.943908,21.172949 L -156.947155,21.178855 L -156.948212,21.188354 L -156.956589,21.200906 L -156.957338,21.204897 L -156.962847,21.212131 L -156.970613,21.215519 L -156.976519,21.21279 L -156.982343,21.207798 L -156.982438,21.201207 L -156.985351,21.185919 L -156.988997,21.182192 L -156.998212,21.179188 L -157.025694,21.186146 L -157.043198,21.188288 L -157.049924,21.185827 L -157.060073,21.185781 L -157.06515,21.188576 L -157.073775,21.188596 L -157.092742,21.194852 L -157.101605,21.196148 L -157.112425,21.195193 L -157.129807,21.199534 L -157.143016,21.1994 L -157.143128,21.197217 L -157.156419,21.19877 L -157.157135,21.201577 L -157.171172,21.201322 L -157.178558,21.203276 L -157.186795,21.203334 L -157.192439,21.207644 L -157.196473,21.214228 L -157.202957,21.215298 L -157.212082,21.221848 L -157.215592,21.218054 L -157.22107,21.217406 L -157.238832,21.217828 L -157.254104,21.224145 L -157.260286,21.219155 L -157.258914,21.215413 L -157.25026,21.207739 L -157.24765,21.196767 L -157.248309,21.188723 L -157.252443,21.182337 L -157.251375,21.177816 L -157.25672,21.171067 L -157.269854,21.16043 L -157.27722,21.158431 L -157.288435,21.146829 L -157.291064,21.143019 L -157.292371,21.13585 L -157.296737,21.133047 L -157.300567,21.124027 L -157.298753,21.120752 L -157.300894,21.114642 L -157.306472,21.108191 Z M -159.787943,22.030102 L -159.786702,22.018801 L -159.780783,22.010373 L -159.774173,22.005865 L -159.765735,21.986593 L -159.759405,21.97951 L -159.750181,21.976032 L -159.715623,21.96715 L -159.707795,21.961229 L -159.674364,21.955577 L -159.668715,21.953585 L -159.660793,21.942747 L -159.652927,21.941618 L -159.64995,21.939195 L -159.649766,21.933848 L -159.633738,21.913171 L -159.628476,21.908921 L -159.622114,21.906445 L -159.616819,21.902049 L -159.608138,21.899797 L -159.607265,21.895121 L -159.603279,21.892248 L -159.597408,21.894706 L -159.597509,21.902412 L -159.589903,21.902853 L -159.587708,21.898767 L -159.583486,21.898222 L -159.574521,21.892806 L -159.569812,21.894056 L -159.560989,21.889747 L -159.551802,21.887293 L -159.544431,21.888106 L -159.531785,21.886868 L -159.526918,21.883886 L -159.519682,21.886877 L -159.512206,21.888085 L -159.501401,21.884634 L -159.488266,21.885687 L -159.482666,21.882179 L -159.475342,21.882122 L -159.452793,21.872808 L -159.444868,21.868627 L -159.437788,21.875064 L -159.433957,21.874198 L -159.427169,21.881207 L -159.418825,21.882339 L -159.416669,21.888302 L -159.410263,21.889807 L -159.404617,21.893367 L -159.40378,21.8985 L -159.396883,21.902963 L -159.389539,21.901971 L -159.390304,21.907343 L -159.388593,21.912449 L -159.385271,21.912439 L -159.379884,21.921174 L -159.36789,21.925841 L -159.362029,21.931486 L -159.355088,21.931613 L -159.354125,21.936589 L -159.346757,21.936368 L -159.350184,21.941425 L -159.347617,21.947575 L -159.350398,21.948964 L -159.357457,21.947708 L -159.358598,21.95366 L -159.340201,21.958421 L -159.33578,21.955115 L -159.329882,21.960177 L -159.330095,21.966562 L -159.333494,21.97825 L -159.33383,21.984781 L -159.329406,21.991696 L -159.335111,21.992357 L -159.332564,21.999352 L -159.337792,22.01593 L -159.338591,22.023442 L -159.334489,22.041698 L -159.335457,22.04601 L -159.33271,22.050713 L -159.321596,22.055823 L -159.31828,22.061417 L -159.316308,22.070433 L -159.316634,22.075422 L -159.310867,22.084228 L -159.305006,22.090449 L -159.303892,22.099139 L -159.296633,22.105107 L -159.294633,22.110872 L -159.296723,22.115059 L -159.293013,22.12296 L -159.292328,22.130251 L -159.293279,22.144341 L -159.296369,22.149624 L -159.302786,22.147203 L -159.306351,22.150285 L -159.302786,22.15997 L -159.312604,22.1729 L -159.311249,22.178254 L -159.315613,22.186817 L -159.328456,22.194966 L -159.331575,22.200016 L -159.339964,22.208519 L -159.349768,22.215005 L -159.357215,22.21345 L -159.368278,22.215104 L -159.375516,22.217851 L -159.382171,22.216971 L -159.38292,22.224771 L -159.389728,22.222787 L -159.395602,22.225451 L -159.402466,22.232603 L -159.406741,22.22568 L -159.419725,22.223132 L -159.424241,22.224452 L -159.42638,22.218071 L -159.428994,22.217631 L -159.434936,22.223428 L -159.444435,22.223701 L -159.454296,22.226351 L -159.46509,22.223241 L -159.475938,22.2293 L -159.487939,22.229512 L -159.492187,22.225076 L -159.497684,22.223352 L -159.500924,22.219173 L -159.497446,22.21411 L -159.498397,22.208169 L -159.503388,22.204208 L -159.510756,22.203548 L -159.518348,22.211182 L -159.517807,22.214216 L -159.530594,22.215754 L -159.532457,22.217885 L -159.53904,22.21389 L -159.543924,22.221695 L -159.549022,22.224892 L -159.559005,22.226652 L -159.566118,22.220588 L -159.569701,22.223352 L -159.581058,22.223488 L -159.596609,22.21074 L -159.606042,22.20406 L -159.617313,22.19869 L -159.623209,22.196982 L -159.630566,22.19271 L -159.643323,22.181024 L -159.64861,22.18044 L -159.658368,22.173134 L -159.671201,22.168414 L -159.689667,22.163574 L -159.698523,22.162832 L -159.722073,22.150323 L -159.730544,22.139953 L -159.733328,22.126538 L -159.738216,22.119462 L -159.738429,22.113501 L -159.745247,22.097508 L -159.76555,22.080485 L -159.771111,22.07412 L -159.783746,22.064897 L -159.782975,22.058641 L -159.783863,22.047809 L -159.787943,22.030102 Z M -160.102013,22.018463 L -160.099823,22.01492 L -160.092996,22.016154 L -160.087972,22.021409 L -160.096946,22.021488 L -160.102013,22.018463 Z M -160.245183,21.847205 L -160.246499,21.840726 L -160.243642,21.831907 L -160.236945,21.803666 L -160.232773,21.797489 L -160.233428,21.792471 L -160.230576,21.790485 L -160.223683,21.791367 L -160.214859,21.782556 L -160.20787,21.782556 L -160.203537,21.77916 L -160.198563,21.784733 L -160.202423,21.786972 L -160.200234,21.795176 L -160.192703,21.804438 L -160.194151,21.807544 L -160.191834,21.814318 L -160.178513,21.835075 L -160.17395,21.839066 L -160.172974,21.843914 L -160.167236,21.850569 L -160.164902,21.856878 L -160.159034,21.865281 L -160.143951,21.872912 L -160.139893,21.872303 L -160.128677,21.874453 L -160.111374,21.881041 L -160.107239,21.878618 L -160.098897,21.884711 L -160.096695,21.883715 L -160.090103,21.888348 L -160.085388,21.889526 L -160.07872,21.894329 L -160.074843,21.894793 L -160.073164,21.900454 L -160.079408,21.915141 L -160.082977,21.927913 L -160.076322,21.954589 L -160.070855,21.958557 L -160.068627,21.967256 L -160.063012,21.976191 L -160.054455,21.976631 L -160.051128,21.979276 L -160.050619,21.984673 L -160.053029,21.99228 L -160.070142,22.003298 L -160.072044,21.999993 L -160.086352,21.997928 L -160.087017,22.002858 L -160.092009,22.005502 L -160.093435,22.001095 L -160.100803,21.995806 L -160.104944,21.998235 L -160.111736,21.993602 L -160.110399,21.988502 L -160.113695,21.984754 L -160.114588,21.974868 L -160.11958,21.965831 L -160.121719,21.958998 L -160.125522,21.953707 L -160.136692,21.945771 L -160.154043,21.938716 L -160.162362,21.938496 L -160.164976,21.932984 L -160.175434,21.927913 L -160.187002,21.924882 L -160.191596,21.918211 L -160.196112,21.915565 L -160.20253,21.906965 L -160.217979,21.893733 L -160.225347,21.889984 L -160.228912,21.885132 L -160.229388,21.879618 L -160.232715,21.876089 L -160.232953,21.862855 L -160.240559,21.851384 L -160.245183,21.847205 Z M -161.929492,23.062555 L -161.925773,23.054248 L -161.918856,23.05611 L -161.922465,23.060729 L -161.929492,23.062555 Z M -166.224666,23.864837 L -166.225847,23.861635 L -166.220378,23.855087 L -166.21908,23.861348 L -166.224666,23.864837 Z M -166.291981,23.867203 L -166.29091,23.86503 L -166.281564,23.8678 L -166.282634,23.870474 L -166.291981,23.867203 Z M -168.002069,24.999967 L -167.995834,24.998215 L -167.997711,25.004431 L -168.002069,24.999967 Z M -171.7452,25.7709 L -171.745809,25.760138 L -171.742436,25.756145 L -171.733093,25.757305 L -171.729889,25.762855 L -171.725554,25.779315 L -171.73506,25.781772 L -171.743621,25.776892 L -171.7452,25.7709 Z M -173.972954,26.079864 L -173.976077,26.078607 L -173.969938,26.064554 L -173.964157,26.062327 L -173.96332,26.072359 L -173.966808,26.079034 L -173.972954,26.079864 Z M -175.741258,27.924056 L -175.737645,27.921872 L -175.732827,27.927865 L -175.736313,27.92949 L -175.741258,27.924056 Z M -175.816559,27.782473 L -175.811966,27.777546 L -175.807434,27.781155 L -175.816559,27.782473 Z M -175.905075,27.766842 L -175.904953,27.762661 L -175.895706,27.762028 L -175.895187,27.765072 L -175.905075,27.766842 Z M -175.936199,27.759988 L -175.943848,27.75689 L -175.935898,27.747883 L -175.930285,27.749854 L -175.936199,27.759988 Z M -178.333034,28.394464 L -178.334698,28.389446 L -178.304504,28.385405 L -178.2932,28.389271 L -178.288113,28.392374 L -178.288927,28.402123 L -178.297975,28.391614 L -178.30784,28.390074 L -178.333034,28.394464 Z" fill="none" stroke=currentColor stroke-width="1" vector-effect="non-scaling-stroke"/>
</svg>