<svg viewBox="-97.2849559 -44.1507319 7.794430800000001 4.424608799999994" xmlns="http://www.w3.org/2000/svg">
  <path d="M -91.419422,40.378264 L -91.413011,40.382277 L -91.39217662186081,40.383942614617276 L -91.384201,40.38643 L -91.375712,40.391925 L -91.372921,40.399108 L -91.37328,40.416496 L -91.381457,40.437308 L -91.381045,40.44849 L -91.378144,40.456394 L -91.369572,40.47138 L -91.366463,40.478869 L -91.36391,40.490122 L -91.363879,40.498062 L -91.369059,40.512532 L -91.381857,40.528247 L -91.388067,40.533069 L -91.400725,40.536789 L -91.406202,40.542698 L -91.405241,40.554641 L -91.401482,40.559458 L -91.379752,40.57445 L -91.359873,40.601805 L -91.348733,40.609695 L -91.310048,40.625041 L -91.303486,40.626923 L -91.264953,40.633893 L -91.256788,40.637113 L -91.247851,40.63839 L -91.218437,40.638437 L -91.197906,40.636107 L -91.185295,40.637803 L -91.154293,40.653596 L -91.138055,40.660893 L -91.125144,40.668738 L -91.12082,40.672777 L -91.115407,40.691825 L -91.11194,40.697018 L -91.111095,40.708282 L -91.115735,40.725168 L -91.108765,40.75004 L -91.098105,40.763233 L -91.092476,40.776838 L -91.091262,40.78306 L -91.09256348384811,40.79352266700311 L -91.097031,40.802471 L -91.097456,40.808865 L -91.092993,40.821079 L -91.090072,40.824638 L -91.078276580071,40.83284520018511 L -91.067159,40.841997 L -91.05643,40.848387 L -91.044653,40.868356 L -91.036789,40.875038 L -91.02809715386647,40.87885691982852 L -91.021562,40.884021 L -91.012135,40.898121 L -90.9985,40.90812 L -90.985462,40.912141 L -90.968995,40.919127 L -90.962916,40.924957 L -90.959947,40.937736 L -90.953542,40.95062 L -90.951967,40.958238 L -90.958142,40.979767 L -90.949634,40.995248 L -90.945949,41.006495 L -90.945324,41.019279 L -90.942253,41.034702 L -90.943652,41.048637 L -90.945999,41.056336 L -90.945549,41.06173 L -90.949322,41.074484 L -90.946625,41.096628 L -90.957265,41.111067 L -90.965908,41.119559 L -90.970856,41.130109 L -90.981327,41.142675 L -90.989662,41.155707 L -90.997905,41.162562 L -91.009435,41.16624 L -91.030045,41.163553 L -91.041875,41.166484 L -91.055068,41.185789 L -91.065899,41.199517 L -91.081452,41.214429 L -91.09303,41.222634 L -91.097477,41.2275 L -91.112348,41.239002 L -91.114186,41.250029 L -91.104462,41.262104 L -91.09894,41.271524 L -91.094162,41.282605 L -91.08688,41.294371 L -91.077505,41.301828 L -91.073232,41.31344 L -91.07204902291475,41.333360642300555 L -91.069763,41.350302 L -91.065058,41.369101 L -91.052389,41.383898 L -91.048259,41.409748 L -91.043988,41.415897 L -91.027787,41.423603 L -91.005846,41.426135 L -90.985886,41.433689 L -90.975168,41.433985 L -90.949032,41.424053 L -90.930691,41.421368 L -90.919351,41.425589 L -90.902667,41.430313 L -90.890471,41.435593 L -90.86924,41.447204 L -90.857554,41.452751 L -90.847458,41.455019 L -90.833817,41.455512 L -90.824736,41.454467 L -90.795066,41.453808 L -90.777583,41.451261 L -90.751706,41.449678 L -90.737537,41.450127 L -90.707858,41.453743 L -90.690951,41.456643 L -90.676439,41.460832 L -90.666239,41.460632 L -90.655839,41.462132 L -90.650238,41.465032 L -90.630738,41.479732 L -90.618537,41.485032 L -90.605936,41.494232 L -90.602137,41.506032 L -90.595237,41.511032 L -90.581615,41.515188 L -90.566223,41.518008 L -90.556235,41.524232 L -90.540935,41.526133 L -90.533035,41.524933 L -90.513189,41.519548 L -90.503633,41.518233 L -90.489487,41.518277 L -90.474332,41.519733 L -90.461432,41.523533 L -90.445231,41.536133 L -90.432731,41.549533 L -90.42223,41.554233 L -90.41297368860572,41.56521044495864 L -90.39793,41.572233 L -90.381329,41.576633 L -90.364128,41.579633 L -90.343228,41.587833 L -90.339528,41.598633 L -90.34194,41.623476 L -90.343452,41.646959 L -90.336729,41.664532 L -90.334525,41.679559 L -90.330222,41.683954 L -90.319924,41.689721 L -90.314687,41.69483 L -90.313052,41.699631 L -90.31332,41.709494 L -90.317474,41.718878 L -90.315549,41.734426 L -90.309973,41.74342 L -90.302782,41.750031 L -90.278633,41.767358 L -90.264696,41.771475 L -90.222263,41.793133 L -90.216889,41.795335 L -90.187969,41.803163 L -90.181973,41.80707 L -90.180643,41.811979 L -90.181889,41.827755 L -90.183973,41.83307 L -90.1816241195148,41.84378427120947 L -90.173009,41.857393 L -90.173213,41.864693 L -90.170041,41.876439 L -90.157019,41.898019 L -90.153584,41.906614 L -90.1516,41.931002 L -90.163847,41.944934 L -90.164939,41.948861 L -90.162141,41.961293 L -90.153828,41.974121 L -90.146225,41.981329 L -90.146033,41.988139 L -90.140613,41.995999 L -90.140061,42.003252 L -90.143776,42.014881 L -90.147194,42.018479 L -90.151579,42.030633 L -90.164485,42.042105 L -90.166808,42.055933 L -90.165526,42.061518 L -90.16813836229588,42.07647378909647 L -90.162615,42.090995 L -90.16113,42.104298 L -90.162895,42.116718 L -90.17097,42.125198 L -90.190452,42.125779 L -90.201404,42.130937 L -90.20536,42.139079 L -90.209479,42.15268 L -90.216107,42.15673 L -90.234919,42.165431 L -90.250129,42.171469 L -90.26908,42.1745 L -90.282173,42.178846 L -90.298442,42.187576 L -90.3173935206202,42.193645041044576 L -90.328273,42.201047 L -90.338169,42.203321 L -90.356964,42.205445 L -90.365138,42.210526 L -90.375129,42.214811 L -90.391108,42.225473 L -90.400653,42.239293 L -90.419326,42.254467 L -90.423242,42.264411 L -90.430884,42.27823 L -90.431039,42.282452 L -90.424326,42.293326 L -90.418915,42.308328 L -90.421182,42.315255 L -90.415937,42.322699 L -90.419027,42.328505 L -90.430546,42.33686 L -90.445167,42.356441 L -90.452724,42.359303 L -90.464788,42.369452 L -90.473798,42.381458 L -90.477941,42.384151 L -90.490334,42.387093 L -90.500128,42.395539 L -90.517516,42.403019 L -90.555018,42.416138 L -90.558168,42.420984 L -90.558985,42.429445 L -90.565248,42.438742 L -90.570736,42.441701 L -90.606328,42.451505 L -90.624328,42.458904 L -90.6448413172762,42.47037999550887 L -90.65112,42.475189 L -90.656302,42.483691 L -90.656046,42.491706 L -90.642799698288,42.50847685693497 L -90.635986,42.515452 L -90.637084,42.521186 L -90.641921,42.530141 L -90.644033,42.53986 L -90.648885,42.546323 L -90.654127,42.5499 L -90.659127,42.5579 L -90.661527,42.567999 L -90.679375,42.581503 L -90.686975,42.591774 L -90.687999,42.599198 L -90.693999,42.614509 L -90.700095,42.622461 L -90.702671,42.630756 L -90.711749,42.637472 L -90.720209,42.640758 L -90.750126,42.647057 L -90.756946,42.647756 L -90.769495,42.651443 L -90.84391,42.663071 L -90.862493,42.66769 L -90.892682,42.673763 L -90.903351,42.677549 L -90.9134,42.682949 L -90.921155,42.685406 L -90.937045,42.683399 L -90.952415,42.686778 L -90.965048,42.693233 L -90.974237,42.695249 L -90.980578,42.698932 L -90.988776,42.708724 L -91.000128,42.716189 L -91.010572,42.720269 L -91.017239,42.719566 L -91.029692,42.726774 L -91.033389,42.736025 L -91.039383,42.738478 L -91.051275,42.737001 L -91.054801,42.740529 L -91.055127,42.745806 L -91.060172,42.750481 L -91.06468,42.750914 L -91.065606,42.756766 L -91.060261,42.761847 L -91.069369,42.769283 L -91.07083,42.782225 L -91.0756033289927,42.79593743624753 L -91.078569,42.809626 L -91.078665,42.827678 L -91.08277,42.829977 L -91.089942,42.829263 L -91.095114,42.834966 L -91.091586,42.848664 L -91.09882,42.864421 L -91.098238,42.875798 L -91.100565,42.883078 L -91.120369,42.897187 L -91.137386,42.903523 L -91.143491,42.904698 L -91.146203,42.909868 L -91.143875,42.92072 L -91.144315,42.926592 L -91.149784,42.940244 L -91.14909,42.946554 L -91.14554,42.95651 L -91.14655,42.963345 L -91.155519,42.975774 L -91.15749,42.991475 L -91.169572,43.022153 L -91.174692,43.038713 L -91.179382,43.068624 L -91.177264,43.072983 L -91.175305,43.104968 L -91.177728,43.118733 L -91.177932,43.128875 L -91.175253,43.134665 L -91.1562,43.142945 L -91.143283,43.156413 L -91.138649,43.169993 L -91.134173,43.174405 L -91.124428,43.187886 L -91.123896,43.193536 L -91.119115,43.200366 L -91.107931,43.206578 L -91.079278,43.228259 L -91.062562,43.243165 L -91.05791,43.253968 L -91.061798,43.259952 L -91.071698,43.261014 L -91.071724,43.271392 L -91.082099,43.285507 L -91.085652,43.29187 L -91.107237,43.313645 L -91.129121,43.32635 L -91.137343,43.329757 L -91.154806,43.334826 L -91.17146457747329,43.341168898080525 L -91.181115,43.345926 L -91.201847,43.349103 L -91.20662,43.352524 L -91.214971,43.366389 L -91.207367,43.373659 L -91.200701,43.38593 L -91.19767,43.395334 L -91.203144,43.419805 L -91.207145,43.425031 L -91.218182,43.434688 L -91.22875,43.445537 L -91.233367,43.455168 L -91.232241,43.460018 L -91.224586,43.465525 L -91.220399,43.471306 L -91.215282,43.484798 L -91.217615,43.491008 L -91.217706,43.50055 L -91.267696,43.500923 L -91.376629,43.500501 L -91.397319,43.500887 L -91.445684,43.500633 L -91.625611,43.500727 L -91.632178,43.500441 L -91.761252,43.500829 L -91.807175,43.500647 L -91.90972,43.500819 L -92.03047093624102,43.50062513645947 L -92.117583,43.500806 L -92.222514,43.500614 L -92.38741646413067,43.500494081469434 L -92.418822,43.500615 L -92.464386,43.500281 L -92.55268400363893,43.50021838678449 L -92.732568,43.500043 L -92.828605,43.49992 L -92.946722,43.499775 L -93.06828144350604,43.499642262061975 L -93.300617,43.499461 L -93.497353,43.499622 L -93.70008,43.499675 L -93.868404,43.499749 L -94.010752,43.499916 L -94.106864,43.500128 L -94.251081,43.50012 L -94.377367,43.500236 L -94.560835,43.500549 L -94.74746,43.501035 L -94.824375,43.500877 L -94.914582,43.500853 L -95.082454,43.50101 L -95.154936,43.500448 L -95.167907,43.501019 L -95.21128,43.500815 L -95.244844,43.501196 L -95.251028,43.500603 L -95.433839,43.500113 L -95.454614,43.500647 L -95.52205779378302,43.499975733253606 L -95.5854696215618,43.49990637264345 L -95.754034,43.499917 L -95.978286,43.500067 L -96.120224,43.500146 L -96.22829950607655,43.50025915576794 L -96.356196,43.500295 L -96.45326004165615,43.50040514201162 L -96.599191,43.500456 L -96.599452,43.496104 L -96.584858,43.489689 L -96.58652,43.478528 L -96.585319,43.471257 L -96.582402,43.466739 L -96.591106,43.462675 L -96.59358,43.459163 L -96.600148,43.45692 L -96.602547,43.449249 L -96.593141,43.433045 L -96.57433,43.43112 L -96.569766,43.426799 L -96.573726,43.419185 L -96.568258,43.416903 L -96.554241,43.404455 L -96.548781,43.403892 L -96.537459,43.394909 L -96.525242,43.396072 L -96.521671,43.385762 L -96.524405,43.379175 L -96.521349,43.375696 L -96.523125,43.371738 L -96.530907,43.365997 L -96.527569,43.362556 L -96.527766,43.348543 L -96.524376,43.347134 L -96.535022,43.336674 L -96.531458,43.331883 L -96.533189,43.328714 L -96.528848,43.324337 L -96.530939,43.320638 L -96.525824,43.316899 L -96.524522,43.312067 L -96.531612,43.304467 L -96.530691,43.299713 L -96.541156,43.295392 L -96.553082,43.292835 L -96.554712,43.296509 L -96.56438,43.294639 L -96.574542,43.299064 L -96.582947,43.298125 L -96.579176,43.292473 L -96.581351,43.288884 L -96.577754,43.278373 L -96.586525,43.273715 L -96.58407,43.26783 L -96.575947,43.267823 L -96.569859,43.262794 L -96.561514,43.25933 L -96.553484,43.259451 L -96.552567,43.251817 L -96.549534,43.248372 L -96.564855,43.244498 L -96.571414,43.239078 L -96.568261,43.231314 L -96.557888,43.223288 L -96.555281,43.226666 L -96.540119,43.225655 L -96.535823,43.227606 L -96.526524,43.224052 L -96.51754,43.217825 L -96.496639,43.223716 L -96.48504,43.224061 L -96.476729,43.221987 L -96.47624,43.212695 L -96.470811,43.207543 L -96.474896,43.202774 L -96.472148,43.196023 L -96.47407,43.190309 L -96.465247,43.182916 L -96.468757,43.170373 L -96.467019,43.159769 L -96.464422,43.153311 L -96.46829,43.151552 L -96.460824,43.144177 L -96.450598,43.142521 L -96.443236,43.133756 L -96.439864,43.122194 L -96.436567,43.119818 L -96.439832,43.113423 L -96.446374,43.109542 L -96.454063,43.097331 L -96.459706,43.095466 L -96.462672,43.089662 L -96.455432,43.088258 L -96.45413,43.08338 L -96.455324,43.075469 L -96.460742,43.064337 L -96.467345,43.06196 L -96.47674,43.062697 L -96.488727,43.054165 L -96.489341,43.05143 L -96.504363,43.048735 L -96.50881,43.050183 L -96.513681,43.04703 L -96.515759,43.041383 L -96.509333,43.037962 L -96.513952,43.030075 L -96.510209,43.024229 L -96.499619,43.019403 L -96.491981,43.010197 L -96.497359,42.998276 L -96.507373,42.996604 L -96.512732,42.992189 L -96.51243,42.985596 L -96.52082,42.979923 L -96.515992,42.972988 L -96.50516,42.971095 L -96.503005,42.968279 L -96.502357,42.957216 L -96.508886,42.953742 L -96.509138,42.945417 L -96.519345,42.94053 L -96.51647,42.93281 L -96.524458,42.935798 L -96.534592,42.92698 L -96.539926,42.925066 L -96.538087,42.917982 L -96.5401,42.912318 L -96.536467,42.905643 L -96.54293,42.903756 L -96.528536,42.897666 L -96.527163,42.890628 L -96.534598,42.890582 L -96.543095,42.8842 L -96.53767,42.878462 L -96.546561,42.874524 L -96.546819,42.857436 L -96.541142,42.858167 L -96.544831,42.850193 L -96.554554,42.849588 L -96.554287,42.843925 L -96.548598,42.840891 L -96.552778,42.835961 L -96.558942,42.83965 L -96.562809,42.836422 L -96.569737,42.835135 L -96.574424,42.837978 L -96.581378,42.83781 L -96.582391,42.834282 L -96.577531,42.828136 L -96.585808,42.823776 L -96.584109,42.819005 L -96.59577017544991,42.81467732491053 L -96.595697,42.810437 L -96.590485,42.808447 L -96.592353,42.801272 L -96.597198,42.791924 L -96.602404,42.788323 L -96.605008,42.783009 L -96.616148,42.785066 L -96.619849,42.783792 L -96.621985,42.77683 L -96.626073,42.771801 L -96.632335,42.768041 L -96.635409,42.763381 L -96.625601,42.754433 L -96.631911,42.744789 L -96.63542,42.7421 L -96.630985,42.730863 L -96.624465,42.721113 L -96.628011,42.717798 L -96.62426,42.714717 L -96.62992,42.705255 L -96.621642,42.704963 L -96.619194,42.699812 L -96.612956,42.699168 L -96.605596,42.70202 L -96.596635,42.695057 L -96.596453,42.691472 L -96.586342,42.689794 L -96.585833,42.683059 L -96.576692,42.683109 L -96.566184,42.675287 L -96.560278,42.669152 L -96.559919,42.659025 L -96.554316,42.658407 L -96.546302,42.661534 L -96.537976,42.655976 L -96.538164,42.647686 L -96.533822,42.643535 L -96.526414,42.641213 L -96.51514,42.628228 L -96.518114,42.619816 L -96.528131,42.61844 L -96.531615,42.615318 L -96.529937,42.610471 L -96.525718,42.609276 L -96.519694,42.616083 L -96.509453,42.612704 L -96.504653,42.604998 L -96.500183,42.594104 L -96.49944231303131,42.58858316299887 L -96.491492,42.586103 L -96.496026,42.580382 L -96.486146,42.573149 L -96.498997,42.560832 L -96.497265,42.556981 L -96.47696,42.555972 L -96.476733,42.545383 L -96.479949,42.524246 L -96.49077831850049,42.52023825692538 L -96.49357,42.515626 L -96.488971,42.511761 L -96.479023,42.510843 L -96.473334,42.503536 L -96.476913,42.497879 L -96.477186,42.491011 L -96.464466,42.490491 L -96.455424,42.492498 L -96.445483,42.49063 L -96.421678,42.488763 L -96.401962,42.48644 L -96.396124,42.484361 L -96.386013,42.474506 L -96.381305,42.461695 L -96.380705,42.446393 L -96.387608,42.432494 L -96.410307,42.412965 L -96.415186,42.404203 L -96.414606,42.392247 L -96.409153,42.381491 L -96.408436,42.376092 L -96.41685841002264,42.3617828070662 L -96.417786,42.351449 L -96.413895,42.343393 L -96.407998,42.337408 L -96.396269,42.330857 L -96.384169,42.325874 L -96.375307,42.318339 L -96.369969,42.310878 L -96.367977,42.290681 L -96.365751,42.285814 L -96.35647247931199,42.27655281067444 L -96.341387,42.269087 L -96.331312,42.259408 L -96.327706,42.249992 L -96.329529,42.239461 L -96.322868,42.233637 L -96.323723,42.229887 L -96.337025,42.217463 L -96.345033,42.217495 L -96.358146,42.214086 L -96.35987,42.210553 L -96.351203,42.200401 L -96.347374,42.193075 L -96.347278,42.185774 L -96.350268,42.177943 L -96.349688,42.170702 L -96.346688,42.164686 L -96.3363,42.155674 L -96.326855,42.152324 L -96.32074,42.147928 L -96.31482,42.137688 L -96.305012,42.129295 L -96.285952,42.125926 L -96.273411,42.11928 L -96.267486,42.10978 L -96.267303,42.099027 L -96.26977,42.092437 L -96.275798,42.083743 L -96.279201,42.073544 L -96.279379,42.065495 L -96.274908,42.050215 L -96.27052903379537,42.04383908308986 L -96.265332,42.040266 L -96.256203,42.038201 L -96.246832,42.041616 L -96.234356,42.040712 L -96.225656,42.035217 L -96.221901,42.029558 L -96.222823,42.023817 L -96.227867,42.018651 L -96.238382,42.012602 L -96.241972,42.006732 L -96.241372,41.999987 L -96.236488,41.996429 L -96.228349,41.994257 L -96.222641,41.996451 L -96.215225,42.006701 L -96.207051,42.009064 L -96.194556,42.008662 L -96.184711,42.004972 L -96.184784,41.99546 L -96.191971,41.985347 L -96.187219,41.977946 L -96.177204,41.976308 L -96.158049,41.980275 L -96.142715,41.978491 L -96.133203,41.974944 L -96.1289,41.969727 L -96.129186,41.965136 L -96.135393,41.952223 L -96.142597,41.945908 L -96.143493,41.937387 L -96.136613,41.927167 L -96.136743,41.920826 L -96.139863,41.91672 L -96.159098,41.910057 L -96.162067,41.903047 L -96.158198,41.897184 L -96.148186,41.887166 L -96.144359,41.871971 L -96.136525,41.864151 L -96.120152,41.857188 L -96.111252,41.850229 L -96.107617,41.8404 L -96.110797,41.832157 L -96.109746,41.823992 L -96.102332,41.816215 L -96.092851,41.812521 L -96.080161,41.810023 L -96.073117,41.806233 L -96.065881,41.798623 L -96.064897,41.791673 L -96.077546,41.777822 L -96.07893485597167,41.77301112749269 L -96.078635,41.761945 L -96.083114,41.755002 L -96.087361,41.752176 L -96.0997818440388,41.74818876244951 L -96.105471,41.741546 L -96.105194,41.731195 L -96.099441,41.726086 L -96.08647,41.72186 L -96.077498,41.716485 L -96.0731,41.709169 L -96.073225,41.704062 L -96.083822,41.69786 L -96.092888,41.697761 L -96.108559,41.699279 L -96.119861,41.692649 L -96.122604,41.68304 L -96.121048,41.677002 L -96.112454,41.668486 L -96.100055,41.661077 L -96.096116,41.654472 L -96.095131,41.647767 L -96.100709,41.635451 L -96.109437,41.62883 L -96.115995,41.622024 L -96.118277,41.614967 L -96.115811,41.605659 L -96.105829,41.593574 L -96.087186,41.58655 L -96.083963,41.583683 L -96.081188,41.574296 L -96.084859,41.567859 L -96.091259,41.562244 L -96.096018,41.551038 L -96.09658243630146,41.545432392294806 L -96.091908,41.534049 L -96.084031,41.526875 L -96.07457,41.524157 L -96.057331,41.511051 L -96.048311,41.507262 L -96.037882,41.507899 L -96.03429,41.513036 L -96.034441,41.521051 L -96.02931,41.527981 L -96.026657,41.540366 L -96.01915,41.54514 L -96.005112,41.54325 L -95.999966,41.53948 L -95.994308,41.523743 L -95.992777,41.514596 L -95.996194,41.50696 L -96.000649,41.50254 L -96.01738,41.492139 L -96.017836,41.483584 L -96.008519,41.474039 L -96.004047,41.472146 L -95.984279,41.470939 L -95.968334,41.46389 L -95.958372,41.463218 L -95.945007,41.466485 L -95.93634,41.465304 L -95.92451,41.458914 L -95.919989,41.452604 L -95.920857,41.443428 L -95.932311,41.432071 L -95.932255,41.423073 L -95.929478,41.415329 L -95.932439,41.404 L -95.935793,41.399632 L -95.937791,41.390752 L -95.936411,41.385876 L -95.930575,41.377676 L -95.928774,41.37008 L -95.930845,41.364806 L -95.936923,41.359247 L -95.950965,41.355479 L -95.95713,41.349593 L -95.956038,41.343063 L -95.951657,41.337502 L -95.940121,41.328843 L -95.925185,41.321355 L -95.915091,41.319918 L -95.899943,41.321481 L -95.885554,41.318097 L -95.879868,41.314381 L -95.874184,41.307924 L -95.871871,41.301813 L -95.871442,41.293408 L -95.877481,41.284583 L -95.891066,41.278019 L -95.90284,41.274374 L -95.912581,41.279527 L -95.907177,41.284938 L -95.904576,41.293255 L -95.905899,41.301038 L -95.920247,41.301191 L -95.927642,41.29844 L -95.929651,41.292262 L -95.928646,41.281332 L -95.916045,41.272802 L -95.922318,41.265617 L -95.919093,41.252698 L -95.911296,41.239442 L -95.910778,41.23189 L -95.914272,41.223858 L -95.923045,41.215824 L -95.927183,41.208971 L -95.927975,41.200069 L -95.923678,41.190984 L -95.916119,41.185279 L -95.898155,41.184775 L -95.880658,41.187663 L -95.867624,41.188416 L -95.856125,41.186949 L -95.847241,41.183351 L -95.84170282417229,41.175676267991 L -95.843443,41.169096 L -95.853451,41.165518 L -95.865929,41.168129 L -95.870574,41.167784 L -95.879171,41.161968 L -95.882944,41.154572 L -95.882883,41.146657 L -95.878302,41.136947 L -95.871168,41.128795 L -95.867228,41.121493 L -95.867072,41.108379 L -95.862427,41.089687 L -95.864782,41.081611 L -95.877441,41.070357 L -95.882225,41.063539 L -95.881588,41.054378 L -95.860862,41.038547 L -95.859102,41.031599 L -95.859918,41.025403 L -95.865886,41.017418 L -95.869502,41.009429 L -95.8687,41.004395 L -95.863492,40.99734 L -95.856071,40.993206 L -95.844351,40.989524 L -95.832055,40.98114 L -95.828329,40.972378 L -95.829829,40.963857 L -95.837951,40.950618 L -95.840275,40.939942 L -95.839743,40.93278 L -95.836438,40.921642 L -95.830699,40.915004 L -95.818709,40.906818 L -95.809775,40.895447 L -95.812083,40.884239 L -95.815933,40.879846 L -95.824989,40.875 L -95.836996,40.872644 L -95.844073,40.869248 L -95.847785,40.864328 L -95.847084,40.854174 L -95.84177842263888,40.84638408867559 L -95.837186,40.835347 L -95.838601,40.826175 L -95.843921,40.817686 L -95.84522,40.809831 L -95.843745,40.803783 L -95.835815,40.79063 L -95.8341289013687,40.7837830997166 L -95.836903,40.776477 L -95.850144,40.766663 L -95.869982,40.759645 L -95.881529,40.750611 L -95.88669,40.742101 L -95.888907,40.731855 L -95.883178,40.717579 L -95.857901,40.70713 L -95.851336,40.700523 L -95.847931,40.694197 L -95.846712,40.685171 L -95.842801,40.677496 L -95.832397,40.671309 L -95.822913,40.66724 L -95.805641,40.665061 L -95.789485,40.659388 L -95.776251,40.647463 L -95.770559,40.63635 L -95.768926,40.621264 L -95.766823,40.61878 L -95.751271,40.609057 L -95.748626,40.603355 L -95.753148,40.59284 L -95.765645,40.585208 L -95.68631,40.584328 L -95.647973,40.584398 L -95.610881,40.583491 L -95.488144,40.581733 L -95.373923,40.580503 L -95.316264,40.57969 L -95.249191,40.579206 L -95.131592,40.577503 L -95.087726,40.577118 L -94.99166,40.575692 L -94.966491,40.575839 L -94.815863,40.573683 L -94.674848,40.571803 L -94.594196,40.57096 L -94.489109,40.570706 L -94.389203,40.571453 L -94.37204113897897,40.57125244206012 L -94.29417,40.571656 L -94.282994,40.571469 L -94.110406,40.572901 L -94.07214,40.573026 L -94.003323,40.574096 L -93.863037,40.57642 L -93.815485,40.577277 L -93.728355,40.577547 L -93.625221,40.578812 L -93.547578,40.580407 L -93.485195,40.580386 L -93.441647,40.579951 L -93.317486,40.580674 L -93.275488,40.580748 L -93.18371,40.581999 L -93.120004,40.583272 L -93.0135,40.586297 L -92.961591,40.587337 L -92.8752,40.588392 L -92.781317,40.58859 L -92.714596,40.589427 L -92.659409,40.590341 L -92.587073,40.591966 L -92.557642,40.592972 L -92.461461,40.595377 L -92.436705,40.59537 L -92.379576,40.596469 L -92.298774,40.598468 L -92.201819,40.59998 L -92.17978,40.600529 L -92.096611,40.601831 L -92.012646,40.604299 L -91.947709,40.605471 L -91.936804,40.606211 L -91.8684,40.608056 L -91.824199,40.610304 L -91.750164,40.612724 L -91.729115,40.61364 L -91.720058,40.601527 L -91.712025,40.595046 L -91.696359,40.588148 L -91.68882,40.583409 L -91.685723,40.576785 L -91.691557,40.564839 L -91.690804,40.559893 L -91.681714,40.553035 L -91.670993,40.550937 L -91.654345,40.549189 L -91.625161,40.5435 L -91.618999,40.539084 L -91.618793,40.526286 L -91.622192,40.517039 L -91.621353,40.510072 L -91.616948,40.504794 L -91.608347,40.50004 L -91.594644,40.494997 L -91.586884,40.487233 L -91.580355,40.471015 L -91.574734,40.465655 L -91.563844,40.460988 L -91.548366,40.45823 L -91.526155,40.458625 L -91.523864,40.456331 L -91.524053,40.448437 L -91.533548,40.440804 L -91.532603,40.436647 L -91.527645,40.433772 L -91.519935,40.433673 L -91.519517,40.429917 L -91.526555,40.419872 L -91.524612,40.410765 L -91.509063,40.406775 L -91.505272,40.403512 L -91.498093,40.401926 L -91.487829,40.403866 L -91.490912,40.39298 L -91.48480440147245,40.384215654942366 L -91.480251,40.381783 L -91.464017,40.385636 L -91.465891,40.378365 L -91.463895,40.375659 L -91.448742,40.376804 L -91.441243,40.386255 L -91.425662,40.382491 L -91.419422,40.378264 Z" fill="none" stroke=currentColor stroke-width="1" vector-effect="non-scaling-stroke"/>
</svg>