<?xml version="1.0"?>
<svg width="200" height="200" xmlns="http://www.w3.org/2000/svg" version="1.2" baseProfile="tiny" viewBox="-64.000 -202.000 928.000 928.000" stroke-linecap="round" stroke-linejoin="round">
<g id="state">
<path vector-effect="non-scaling-stroke" d="M 647.6 522 646.79 521.32 644.8 520.74 643.89 522.33 641.97 522.57 641.71 522.13 641.92 520.92 639.88 521.6 639.29 521.21 638.48 519.78 638.83 517.97 637.54 518.32 636.62 518.08 636.13 517.55 634.14 516.93 633.86 515.43 634.71 513.74 634.65 513.12 633.67 513.13 633.03 512.67 632.89 511.98 634.07 510.69 634.06 509.38 633.76 509.01 630.95 509.14 628.98 508.73 627.59 507.98 626.85 507.11 625.97 504.44 624.96 503.18 623.2 502.38 622.1 501.62 621.52 500.76 621.39 499.6 621.79 498.06 621.71 495.94 620.92 495.23 617.21 494.37 615.1 494.12 613.73 493.8 612.56 492.69 612.45 491.87 613.14 489.88 612.73 488.79 611.76 488.02 609.75 486.92 608.72 485.87 607.53 483.89 604.88 484.09 595.53 484.68 589.96 485.17 581.33 485.64 579.95 485.78 571.75 486.13 561.15 486.72 550.65 487.1 547.87 487.23 535.62 487.67 525.42 488.14 518.21 488.41 515.08 488.45 502.93 488.99 499.22 489.2 490.08 489.56 483.11 489.78 474.68 490 462.82 490.12 451.9 490.37 445.34 490.59 431.89 491.16 423.84 491.4 412.24 491.64 406.93 491.67 391.24 491.81 385.74 491.74 377.85 491.74 368.04 491.99 355.01 492.17 344 492.18 337.99 492.3 320.25 492.59 311.55 492.72 306.72 492.7 284.9 492.76 283.49 492.72 273.65 492.69 271.48 492.63 258.85 492.61 245.57 492.41 235.38 492.13 217.56 491.56 198.53 490.89 195.35 490.86 183.22 490.4 177.68 490.23 162.82 489.65 154.35 489.39 147.07 489.1 132.64 488.56 117.14 487.9 112.46 487.63 107.62 487.52 97.6 487.11 99.21 485.88 99.83 484.16 99.52 483.2 97.6 481.54 97.35 481.12 97.21 478.62 96.54 476.76 94.92 474.73 92.91 473.74 90.74 473.32 89.56 472.61 88.28 471.55 87.82 470.26 87.71 468.77 87.31 467.71 86.51 466.59 83.37 464.77 82.72 462.38 83.04 460.69 83.73 459.3 85.23 457.84 87.76 456.75 89.48 455.17 89.86 453.97 89.68 452.83 88.74 450.62 88.58 449.62 88.78 448.32 89.49 446.93 89.71 445.42 89.18 443.57 88.55 442.26 88.51 440.58 89 439.78 89.9 439.24 91.42 438.89 92.59 438.12 93.09 437.4 93.43 435.56 92.36 433.64 90.89 432.24 90.2 431.12 89.83 429.27 89.8 428.08 90.14 426.32 91.22 424.15 91.45 422.75 91.02 421.28 89.52 419.85 88.06 419.2 87.15 418.49 86.53 417.3 86.45 416.47 86.94 415.16 87.73 413.85 87.86 412.83 87.67 411.67 85.15 408.98 85.11 407.46 85.74 406.34 87.38 404.53 87.71 403.2 87.22 400.08 87.26 397.91 86.8 396.69 85.94 395.31 85.41 393.69 85.44 392.38 85.95 391.16 87.05 390.23 87.64 390.19 89.19 390.67 90.46 390.11 90.7 389.02 90.05 387.73 88.95 387.11 87.52 386.82 85.88 386.9 83.68 387.32 81.43 387.17 80.52 386.2 80.02 384.68 80.16 383.21 80.71 382.09 81.85 380.79 82.32 379.47 82.29 378.22 81.38 375.99 81.04 373.84 81.86 372.67 80.32 371.22 80.25 369.4 80.53 368.38 81.47 367.96 83.26 368.03 83.39 369.33 83.02 370.69 82.32 371.57 83.52 372.46 85 371.9 86.73 370.86 87.53 369.42 87.51 368.02 87.25 367 86.57 365.91 85.88 365.28 84.1 364.67 82.2 364.87 80.95 364.6 79.12 363.3 77.72 361.83 77.2 360.89 77.09 359.81 77.89 358.85 79.66 358.28 80.45 357.38 80.73 356.51 80.54 355.25 79.85 353.87 79.7 353.06 80 351.59 80.44 350.88 80.86 349.02 80.55 347.72 80.59 346.23 82.07 344.39 82.22 342.88 81.69 341.82 80.24 340.71 79.17 340.49 77.49 340.98 76.25 340.83 74.3 339.61 71.84 339.34 71.29 339 70.18 337.39 70.28 335.97 72.41 334.31 72.99 333.6 73.45 332.35 73.31 330.82 72.68 328.2 72.06 327.55 70.32 327.19 69.36 327.95 68.97 329.99 68.3 331.12 68.28 332.45 67.8 333.29 66.5 333.35 65.4 332.69 63.32 330.46 62.15 329.97 61.21 328.75 60.69 326.85 60.78 325.92 61.43 324.09 62.26 323.18 62.75 322.13 62.45 320.56 62.06 320.08 59.78 318.84 58.6 316.8 58.34 315.25 58.66 314.09 59.51 312.99 60.63 311.92 61.39 309.91 61.3 308.79 60.84 307.68 59.34 306.41 58.32 304.96 58.15 303.96 58.54 302.38 59.98 301.32 61.92 301.63 63.05 301.65 64.39 300.67 64.43 299.82 63.92 298.59 62.84 297.67 61.25 296.92 60.56 296.05 60.58 294.33 61.32 293.26 62.88 292.64 63.42 292.19 64.01 291.06 64.03 289.22 64.23 288.43 65.87 286.19 65.78 285.03 64.92 283.74 64.07 283.09 62.51 282.63 61.35 281.98 60.47 280.66 60.38 279.31 60.82 277.95 60.42 276.31 59.35 275.13 57.36 273.91 56.43 272.58 56.04 270.05 54.85 268.36 54.4 267.37 54.81 266.22 57.22 265.19 57.63 264.52 57.68 263.47 56.88 261.75 57.03 260.35 57.96 259.33 58.79 257.21 58.85 256.45 58.35 255.57 57.19 254.95 55.3 254.6 52.91 255.18 51.69 254.87 51.14 253.62 52.08 251.98 52.14 250.4 50.94 249.75 49.4 249.64 48.38 249.99 47.41 251.66 46.69 252 45.7 251.61 45.11 251 45.07 249.88 45.55 248.92 46.88 247.96 47.53 247.13 47.68 246.18 47.24 245.23 46.2 244.29 44.66 244.09 43.49 244.61 42.37 244.23 41.75 243.62 41.24 242.55 40.77 240 40.84 238.67 41.32 236.99 42.11 235.58 42.45 234.5 42.48 232.71 41.8 231.12 40.29 229.97 37.96 229.33 36.8 227.9 36.13 226.18 35.4 225.43 34.25 224.83 33.02 223.3 32.69 222.29 32.66 221.09 33.07 219.8 33.1 218.59 32.67 217.36 31.66 215.65 31.89 215.07 33.52 214.56 34.51 214.6 36.21 212.6 36.34 211.98 35.55 210.99 35.83 209.25 35.44 207.68 34.26 206.03 32.44 204.73 31.35 203.16 31.11 202.34 30.98 198.99 30.36 197.73 29.32 196.45 27.86 195.57 26.45 194.44 25.76 193.42 25.33 192.07 25.5 190.36 26.62 188.03 26.56 187.13 25.95 185.33 25.95 183.35 26.6 181.92 29.5 178.78 30.42 176.51 30.43 173.97 29.93 171.83 28.75 170.15 28.04 169.78 25.64 169.32 22.73 168.91 21.52 168.55 20.4 168.85 18.85 168.71 18.92 167.57 19.39 166.65 18.74 165.41 17.53 165.22 16.99 164.56 17.35 163.81 18.7 163.19 19.22 159.7 19.26 157.95 16.78 157.7 16.59 157.05 18.23 155.07 17.06 153.83 17.65 152.9 16.69 152.45 16.64 151.54 16.15 149.71 15.61 148.41 14.38 147.81 13.6 148.91 13.09 148.7 12.92 147.89 13.36 147.38 14.59 147.2 15.01 145.82 13.71 143.62 12.81 143.2 12.31 142.5 12.38 141.12 11.4 140.17 10.4 140.65 9.72 140.52 9.73 138.84 9.05 137.8 7.81 136.46 6.7 136.43 6.67 135.31 5.45 134.99 5.45 134.39 4.4 133.2 3.48 133.64 2.72 133.5 2.45 132.64 1.45 132.55 2.19 131.01 1.76 130.49 2.21 129.95 1.47 128.31 1 126.43 1.44 126 2.27 124.43 1.13 122.9 1.54 122.15 2.32 121.55 2.85 120.74 3.16 119.59 3.61 119.4 4.96 119.79 5.31 118.92 5.97 118.35 6.62 116.82 6.89 115.64 6.26 115.29 6.28 114.59 7.73 113.92 7.55 113.13 8.58 112.44 8.03 111.4 8.17 110.82 9.02 110.82 9.58 111.32 10.43 111.13 10.92 110.62 11.65 111.25 12.19 110.46 11.51 109.93 11.51 108.99 12.7 108.93 13.2 107.63 12.5 107.72 12.64 104.9 13.74 104.28 13.12 103.31 14.19 102.29 15.09 102.31 14.97 101.14 13.25 100.07 14.05 99.79 13.65 98.67 13.93 97.74 13.75 96.55 14.41 96.26 15.69 94.85 16.65 95.37 16.34 94.08 17.61 93.32 17.69 91.94 18.51 91.39 18.49 89.56 18.25 89.08 16.94 88.72 16.4 87.55 17.45 86.65 17.45 85.56 18.13 84.85 19.36 84.62 20.08 82.66 19.21 81.11 17.95 80.26 17.53 79.28 18.13 77.99 17.37 77.4 17.66 76.47 18.27 75.97 18.8 76.23 20.64 75.85 20.73 75.4 22.24 74.04 23.38 74.2 24.19 73.83 24.91 72.01 25.1 70.71 24.97 69.89 24.1 69.63 24.5 68.68 25.19 68.4 26.2 66.41 27.01 65.79 27.45 64.75 27.06 64.34 26.72 62.41 25.87 60.93 24.64 60.61 23.78 59.36 24.26 59.08 23.98 58 23.83 56.24 24.33 54.17 23.31 52.91 23.57 51.97 23.28 50.84 23.8 50.07 23.17 49.2 23.17 47.65 22.17 47.28 20.77 47.28 18.2 48.17 17.15 47.1 16.05 46.47 15.51 46.77 13.68 46.54 13.35 47.09 12.14 45.71 11.8 44.41 12.63 43.54 14.51 42.97 14.16 42.39 14.1 41.12 13.12 41.1 12.13 40.49 11.43 39.63 10.45 39.6 10.18 38.61 11.27 37.88 10.9 36.12 11.19 35.54 10.76 34.58 11.79 34.46 12.99 35.24 14.17 34.97 14.35 35.59 15.8 35.22 17.09 34.55 17.01 33.76 17.91 32.53 17.79 31.72 17.19 31.08 17.46 30.48 16.97 29.73 17.19 29.22 16.79 28.41 18.14 26.72 17.74 26.47 17.85 24.15 17.46 23.57 18.44 22.65 18.67 22 18.33 21.41 18.7 20.34 18.33 18.61 16.84 18.75 15.53 17.22 14.87 17.1 13.26 14.98 12.61 14.57 13.13 13.33 12.61 12.59 10.35 12.19 9.31 9.47 9.65 8.21 10.45 7.86 10.77 7.29 11.85 6.66 11.52 5.9 11.42 4.69 11.69 2.85 9.97 1.72 10.03 1 27.62 1.64 39.33 2.06 54.75 2.57 67.78 3.01 84.9 3.54 111.94 4.32 132.27 4.84 139.92 5.02 148.06 5.1 150.57 5.24 172.62 5.64 173.37 5.56 177.41 5.7 182.65 5.77 184.21 5.9 192.95 5.97 213.2 6.36 224.09 6.53 233.37 6.65 255.88 7.03 278.01 7.34 293.25 7.51 310.65 7.64 322.24 7.76 339.42 7.87 359.73 7.95 384.19 7.99 407.92 7.99 435.95 7.86 450.62 7.75 464.87 7.62 476.46 7.5 498.16 7.25 508.81 7.12 514.31 6.99 518.1 6.96 537.99 6.66 550.65 6.43 561.16 6.28 575.72 5.99 588.09 5.78 593.63 5.63 609.2 5.37 610 5.3 631.7 4.81 637.53 4.63 640.03 4.63 653.16 4.22 659.2 4.12 659.25 5.7 659.56 6.72 659 8.97 658.52 9.95 657.62 10.88 657.51 11.69 658.11 13.27 659.43 15.03 660.81 16.6 661.32 17.45 662.09 21.49 661.76 23.06 661.01 25.11 660.13 26.34 661.2 28.61 661.79 29.16 664.31 29.62 665.5 30.37 667.54 31.37 669.68 32.15 670.69 32.69 673.4 34.72 676.11 38.25 676.57 39.29 677.89 41.59 677.94 43.31 679.15 43.45 679.65 44.43 679.14 46.24 677.18 48.77 673.81 52.46 672.49 53.52 671.94 54.67 671.9 55.61 670.78 57.88 670.26 58.62 669.76 60.89 668.26 63.16 665.98 64.6 665.68 65.57 665.75 67.24 666.11 69.52 666.02 74.82 665.78 75.55 666.49 80.49 667.19 83.22 668.8 88.26 669.11 90.85 670.26 92.88 670.41 94.01 670.02 95.67 669.97 96.72 670.7 98.96 670.78 99.93 670.54 101.74 670.9 102.58 671.65 102.76 673.75 103.75 676.23 106.02 676.54 107.22 676.53 109.1 677.48 111.69 677.12 113.97 677.78 114.9 678.65 114.75 679.16 115.12 679.26 118.11 679.68 120.37 680.33 122.62 680.57 124.76 681.72 125.96 681.09 126.82 681.23 127.79 681.78 127.84 682.42 128.6 682.48 129.47 682.93 130.04 684.38 129.76 685.12 130.14 685.62 131.66 687.17 132.81 687.98 132.67 689.28 133.31 690.7 134.5 691.75 136.09 692.54 136.68 693.68 136.98 695.25 138 697.15 138.51 699.08 138.12 700.04 138.49 701.3 139.35 702.62 139.94 706.34 140.83 708.63 141.52 717.79 143.16 719.35 143.72 720.18 143.81 723.88 144.73 724.93 145.24 726.08 146.32 726.44 147.68 727.23 148.97 728.04 151.48 728.21 152.71 729.2 154.38 731.46 156.54 731.81 158.2 732.46 159.51 733.12 160.08 733.75 161.13 734.07 162.73 734.71 164.19 734.88 165.14 734.08 166.32 732.55 169.15 732.57 170.48 733.25 171.87 734.04 172.64 736.62 174.45 738.87 175.6 743.29 177.08 743.98 177.54 744.81 179.06 744.96 180.45 745.37 181.24 750.05 183.25 752.23 184.42 753.48 185.77 755.02 186.21 755.54 186.63 756.72 188.58 758.26 190.21 759.21 190.65 761.12 193.83 762.58 195.16 763 196.11 762.4 197.36 762.72 198.5 762.15 201.01 761.39 202.84 761.43 203.54 762.45 205.79 763 207.42 765.38 209.85 766.64 212.09 768.67 213.79 769.93 214.45 770.97 215.25 773.3 215.52 774.53 215.85 775.91 217.03 778.28 217.94 780.34 219.31 781.98 219.97 784.34 220.38 786.25 221.31 788.62 222.66 789.46 223.3 790.06 225.53 790.6 226.86 791.98 227.66 794.39 227.66 795.44 229.03 795.74 231.08 795.64 233.29 795.05 235.72 795.47 238.18 795.35 239.11 795.73 241.39 797.4 243.23 798.02 245.22 798.46 245.8 799 247.7 798.98 248.91 798.36 250.23 798.38 251.36 797.49 252.59 796.55 254.76 796.28 256.83 796.44 257.47 798.05 259.72 797.96 263.77 797.6 265.21 796.13 268.85 795.81 270.81 795.88 272.01 794.9 274.31 794.68 276.09 794.98 276.96 795.23 279.57 795.1 280.39 794.38 281.06 790.85 282.5 790.2 282.89 785.08 286.68 783.38 287.43 780.49 290.41 779.64 291.54 779.01 293.05 778.86 295.64 779.44 297.17 779.53 298.8 779.36 299.61 778.74 300.48 777.5 301.48 776.99 302.23 776.81 304.73 776.09 307.67 776.42 311.55 776.87 315.65 776.48 317.46 773.93 318.91 771.81 319.49 769.77 320.29 767.95 321.52 766.86 323.38 765.58 324.21 764.11 326.48 762.17 328.64 760.58 329.33 758.71 329.64 756.95 329.71 755.75 329.53 753.25 328.73 752.26 328.56 750.37 328.94 749.16 330.02 747.26 330.55 745.59 331.3 744.76 332.16 744.35 334.13 742.83 335.7 741.34 336.63 739 339.15 738.32 339.65 737.03 339.94 735.76 339.95 733.97 340.71 731.88 341.26 728.2 341.98 726.44 342.11 723.21 341.95 721.02 341.6 717.31 341.61 716.18 341.47 714.48 341.61 713.23 342.02 711.81 342.99 709.22 344.99 707.73 345.91 705.67 346.76 704.28 347.5 701.98 347.13 698.67 345.58 697.34 345.67 694.89 346.99 692.16 347.49 690.18 348.83 689.68 349.86 689.29 354.16 687.78 356.65 687.28 359.79 687.07 362.6 687.02 365.9 686.54 367.84 685.41 369.11 684.55 371.09 684.01 372.94 683.36 374.52 682.2 376.55 682.48 378.37 684.4 380.23 684.98 381.02 686.46 382.33 688.48 384.75 689.9 386.98 691.65 390.13 693.14 390.57 695.71 390.05 697.17 390.62 698.23 391.73 699.34 393.85 700.72 395.9 701.39 397.62 702.51 399 703.92 401.35 703.69 405.03 704.23 407.13 704.2 408.02 704.53 409.29 704.78 411.59 704.47 414.16 704.45 416.28 704.05 418.15 703.06 420.75 703.94 424.29 703.78 425.56 703.04 427.72 702.73 429.85 702 430.84 699.96 432.06 698.34 432.77 696.68 434.48 695.56 436.85 694.76 437.73 693.69 438.39 692.73 439.53 691.35 442.88 690.03 443.98 688.67 445.53 687.23 446.93 686.88 447.54 686.37 449.57 686.46 450.63 687.06 452.1 687.27 453.83 687.15 454.86 686.51 457.14 685.22 459.36 684.46 463.51 685.13 466.29 685.07 468.16 684.66 469.03 684.07 472.2 683.54 472.89 681.95 474.23 679.93 475.5 676.09 478.22 674.51 478.55 671.91 478.23 668.19 478.34 667.07 478.58 666.05 479.14 661.22 480.43 660.4 480.76 655.58 483.43 654.21 484.77 651.81 489.37 649.13 491.92 648.67 492.73 648.6 494.71 649.32 495.67 650.93 496.25 651.74 497.03 653.42 499.59 654.14 501.97 654.17 503.29 653.89 505.16 653.53 506.41 652.5 508.92 652.17 510.24 652.16 512.1 653.29 515.52 653.4 518.4 653.08 519.6 652.03 520.54 651.03 520.97 648.39 521.31 647.6 522 Z" fill="none" stroke="currentColor" stroke-width="1"/>
</g>
</svg>