<?xml version="1.0"?>
<svg xmlns="http://www.w3.org/2000/svg" version="1.2" baseProfile="tiny" viewBox="-40.0 -40.0 880.0 466.0" stroke-linecap="round" stroke-linejoin="round">
<g id="state">
<path d="M 641.82 384.67 641.05 384.15 639.14 383.69 638.22 384.85 636.36 384.99 636.11 384.66 636.34 383.77 634.35 384.24 633.79 383.94 633.04 382.87 633.42 381.53 632.16 381.77 631.27 381.57 630.81 381.17 628.9 380.68 628.66 379.56 629.52 378.33 629.47 377.87 628.53 377.85 627.92 377.5 627.8 376.99 628.97 376.05 628.99 375.08 628.71 374.8 625.98 374.85 624.08 374.51 622.74 373.94 622.05 373.28 621.25 371.29 620.29 370.33 618.61 369.71 617.55 369.13 617.01 368.48 616.91 367.62 617.33 366.49 617.3 364.92 616.55 364.37 612.96 363.67 610.91 363.46 609.6 363.2 608.48 362.36 608.39 361.75 609.1 360.28 608.72 359.47 607.8 358.89 605.87 358.04 604.89 357.24 603.77 355.76 601.19 355.87 592.09 356.17 586.66 356.44 578.26 356.67 576.92 356.76 568.94 356.9 558.62 357.21 548.41 357.37 545.7 357.43 533.79 357.62 523.86 357.87 516.84 358 513.8 358 501.98 358.3 498.37 358.42 489.48 358.62 482.7 358.73 474.5 358.83 462.97 358.86 452.36 358.99 445.98 359.12 432.89 359.49 425.07 359.64 413.79 359.8 408.63 359.81 393.38 359.9 388.03 359.84 380.36 359.84 370.82 360.04 358.15 360.19 347.45 360.22 341.61 360.33 324.37 360.61 315.92 360.75 311.22 360.76 290.01 360.94 288.64 360.91 279.07 360.96 276.96 360.94 264.69 361.03 251.78 361 241.87 360.9 224.55 360.67 206.04 360.4 202.95 360.42 191.14 360.24 185.76 360.2 171.31 359.99 163.07 359.93 155.98 359.83 141.95 359.68 126.87 359.46 122.31 359.35 117.6 359.36 107.86 359.25 109.39 358.31 109.95 357.02 109.62 356.32 107.71 355.12 107.45 354.82 107.25 352.97 106.55 351.6 104.93 350.14 102.94 349.44 100.82 349.17 99.66 348.67 98.38 347.91 97.9 346.97 97.75 345.86 97.33 345.08 96.52 344.27 93.42 342.99 92.71 341.23 92.99 339.97 93.62 338.93 95.04 337.82 97.48 336.96 99.1 335.75 99.44 334.85 99.24 334.01 98.26 332.4 98.08 331.65 98.24 330.69 98.89 329.64 99.07 328.52 98.5 327.16 97.85 326.21 97.77 324.96 98.22 324.35 99.09 323.94 100.57 323.65 101.68 323.05 102.15 322.51 102.44 321.13 101.34 319.74 99.87 318.73 99.16 317.92 98.75 316.55 98.69 315.67 98.97 314.36 99.97 312.73 100.16 311.68 99.7 310.61 98.19 309.58 96.75 309.12 95.84 308.62 95.2 307.75 95.1 307.13 95.54 306.15 96.28 305.17 96.38 304.41 96.16 303.55 93.61 301.61 93.54 300.48 94.12 299.65 95.68 298.26 95.97 297.27 95.4 294.97 95.38 293.36 94.89 292.47 94.02 291.46 93.45 290.27 93.45 289.3 93.91 288.39 94.97 287.68 95.54 287.63 97.07 287.95 98.3 287.51 98.51 286.71 97.83 285.76 96.74 285.32 95.33 285.14 93.73 285.23 91.58 285.59 89.37 285.53 88.44 284.83 87.91 283.71 88.01 282.62 88.52 281.77 89.6 280.79 90.03 279.8 89.96 278.87 89.01 277.24 88.61 275.66 89.38 274.77 87.83 273.73 87.71 272.38 87.96 271.62 88.86 271.29 90.63 271.3 90.79 272.26 90.47 273.28 89.81 273.95 91 274.58 92.45 274.13 94.12 273.33 94.86 272.24 94.81 271.21 94.52 270.46 93.82 269.67 93.13 269.21 91.36 268.79 89.5 268.99 88.26 268.81 86.42 267.89 85.01 266.82 84.47 266.14 84.33 265.34 85.09 264.62 86.82 264.15 87.56 263.47 87.82 262.82 87.6 261.89 86.88 260.88 86.71 260.28 86.95 259.19 87.37 258.66 87.73 257.26 87.39 256.31 87.38 255.21 88.79 253.81 88.9 252.68 88.34 251.91 86.89 251.12 85.82 250.98 84.18 251.38 82.96 251.3 81 250.43 78.57 250.28 78.02 250.05 76.87 248.88 76.93 247.83 78.99 246.55 79.53 246.01 79.95 245.07 79.77 243.94 79.07 242.01 78.44 241.55 76.71 241.32 75.79 241.9 75.46 243.42 74.83 244.27 74.85 245.26 74.41 245.89 73.13 245.97 72.02 245.5 69.9 243.89 68.74 243.56 67.77 242.68 67.2 241.28 67.27 240.59 67.85 239.21 68.64 238.52 69.09 237.73 68.75 236.58 68.35 236.23 66.06 235.36 64.84 233.88 64.53 232.74 64.81 231.87 65.62 231.03 66.69 230.22 67.38 228.71 67.26 227.88 66.77 227.07 65.25 226.16 64.19 225.11 64 224.37 64.34 223.19 65.73 222.38 67.65 222.56 68.77 222.55 70.07 221.79 70.08 221.16 69.54 220.26 68.44 219.6 66.85 219.08 66.14 218.46 66.11 217.19 66.81 216.37 68.33 215.88 68.85 215.53 69.4 214.68 69.37 213.32 69.54 212.73 71.09 211.03 70.97 210.17 70.08 209.24 69.22 208.77 67.66 208.47 66.49 208.01 65.58 207.06 65.45 206.05 65.84 205.04 65.4 203.83 64.3 202.98 62.29 202.12 61.33 201.16 60.86 199.29 59.63 198.06 59.15 197.34 59.52 196.48 61.88 195.66 62.27 195.16 62.28 194.38 61.44 193.12 61.55 192.08 62.43 191.3 63.19 189.72 63.23 189.15 62.7 188.51 61.53 188.07 59.65 187.86 57.3 188.34 56.06 188.14 55.48 187.23 56.36 185.99 56.37 184.82 55.16 184.37 53.63 184.32 52.62 184.61 51.71 185.87 51.01 186.14 50.01 185.87 49.41 185.43 49.34 184.61 49.78 183.88 51.07 183.14 51.69 182.51 51.8 181.8 51.34 181.11 50.27 180.43 48.74 180.32 47.59 180.74 46.47 180.49 45.83 180.05 45.29 179.26 44.74 177.39 44.76 176.4 45.18 175.14 45.92 174.08 46.23 173.27 46.2 171.95 45.48 170.78 43.93 169.96 41.59 169.55 40.39 168.52 39.66 167.26 38.91 166.72 37.75 166.31 36.47 165.2 36.1 164.46 36.03 163.57 36.4 162.61 36.39 161.71 35.92 160.81 34.85 159.56 35.07 159.13 36.68 158.71 37.66 158.72 39.29 157.19 39.4 156.73 38.58 156.01 38.8 154.72 38.36 153.56 37.12 152.37 35.27 151.46 34.13 150.32 33.86 149.72 33.61 147.24 32.96 146.32 31.87 145.4 30.38 144.78 28.94 143.98 28.22 143.24 27.74 142.25 27.85 140.98 28.89 139.23 28.8 138.56 28.13 137.24 28.06 135.77 28.66 134.7 31.45 132.3 32.29 130.59 32.22 128.71 31.64 127.14 30.4 125.93 29.68 125.67 27.26 125.38 24.34 125.16 23.11 124.93 22 125.17 20.44 125.11 20.47 124.26 20.91 123.57 20.21 122.67 18.99 122.56 18.43 122.08 18.77 121.52 20.1 121.03 20.5 118.43 20.47 117.13 17.97 117 17.76 116.53 19.34 115.02 18.13 114.13 18.68 113.43 17.71 113.12 17.61 112.44 17.07 111.1 16.48 110.16 15.22 109.74 14.48 110.58 13.96 110.43 13.75 109.84 14.18 109.45 15.41 109.28 15.78 108.25 14.39 106.65 13.48 106.37 12.95 105.86 12.97 104.84 11.95 104.16 10.96 104.54 10.28 104.47 10.23 103.22 9.51 102.47 8.22 101.51 7.09 101.51 7.03 100.69 5.79 100.48 5.77 100.04 4.66 99.18 3.76 99.53 2.99 99.46 2.69 98.82 1.68 98.79 2.37 97.62 1.91 97.25 2.35 96.84 1.54 95.64 1 94.26 1.43 93.93 2.21 92.75 1 91.65 1.38 91.07 2.15 90.61 2.65 89.99 2.91 89.14 3.37 88.98 4.74 89.23 5.06 88.58 5.7 88.14 6.29 86.99 6.52 86.11 5.88 85.86 5.87 85.34 7.3 84.81 7.1 84.23 8.11 83.69 7.51 82.94 7.64 82.5 8.49 82.48 9.07 82.83 9.92 82.67 10.4 82.28 11.15 82.73 11.67 82.12 10.97 81.75 10.93 81.05 12.13 80.98 12.58 80 11.89 80.09 11.92 77.99 13.01 77.51 12.34 76.8 13.39 76.02 14.3 76.01 14.13 75.15 12.36 74.4 13.16 74.17 12.71 73.35 12.96 72.65 12.73 71.78 13.39 71.55 14.63 70.46 15.61 70.83 15.26 69.88 16.51 69.28 16.55 68.26 17.35 67.83 17.27 66.47 17 66.13 15.67 65.89 15.08 65.04 16.11 64.35 16.07 63.54 16.73 62.99 17.96 62.79 18.62 61.32 17.68 60.19 16.38 59.6 15.92 58.88 16.49 57.91 15.7 57.49 15.96 56.8 16.55 56.41 17.1 56.59 18.95 56.26 19.02 55.92 20.49 54.87 21.65 54.96 22.46 54.67 23.13 53.3 23.27 52.33 23.11 51.73 22.22 51.56 22.59 50.85 23.28 50.62 24.23 49.12 25.03 48.64 25.43 47.85 25.03 47.56 24.61 46.14 23.71 45.07 22.45 44.86 21.53 43.96 22.01 43.74 21.69 42.95 21.48 41.64 21.91 40.1 20.82 39.19 21.06 38.49 20.72 37.66 21.22 37.08 20.56 36.44 20.5 35.3 19.48 35.05 18.05 35.09 15.48 35.81 14.38 35.05 13.24 34.61 12.71 34.85 10.85 34.73 10.53 35.14 9.25 34.16 8.86 33.2 9.67 32.54 11.55 32.06 11.18 31.64 11.07 30.7 10.08 30.71 9.05 30.29 8.31 29.67 7.31 29.67 7.01 28.95 8.08 28.38 7.64 27.08 7.91 26.64 7.45 25.95 8.48 25.83 9.73 26.38 10.92 26.15 11.12 26.6 12.58 26.28 13.87 25.75 13.75 25.17 14.62 24.24 14.46 23.64 13.84 23.18 14.09 22.73 13.56 22.19 13.77 21.8 13.33 21.21 14.64 19.93 14.23 19.75 14.25 18.03 13.84 17.61 14.8 16.9 15.01 16.42 14.64 15.99 14.97 15.18 14.54 13.92 13.04 14.06 11.64 12.95 10.97 12.89 9.25 11.36 8.58 11.08 9.07 10.14 8.51 9.61 6.19 9.37 5.04 7.38 5.33 6.44 6.14 6.16 6.44 5.73 7.51 5.23 7.16 4.68 7.01 3.78 7.21 2.41 5.42 1.63 5.45 1.09 23.38 1.1 35.3 1.11 51.02 1.12 64.3 1.13 81.73 1.14 109.28 1.16 129.99 1.16 137.78 1.15 146.07 1.07 148.62 1.13 171.08 1.07 171.84 1 175.97 1.05 181.29 1.02 182.89 1.09 191.79 1.02 212.42 1.04 223.5 1.04 232.95 1.02 255.88 1.08 278.42 1.12 293.93 1.13 311.65 1.13 323.46 1.16 340.95 1.18 361.63 1.19 386.53 1.19 410.7 1.21 439.25 1.19 454.18 1.17 468.69 1.16 480.49 1.14 502.59 1.12 513.44 1.11 519.04 1.07 522.9 1.09 543.16 1.07 556.05 1.05 566.75 1.07 581.59 1.05 594.18 1.07 599.83 1.05 615.68 1.09 616.49 1.06 638.6 1.07 644.54 1.04 647.08 1.09 660.46 1.03 666.6 1.08 666.62 2.25 666.9 3.01 666.27 4.67 665.76 5.38 664.82 6.06 664.68 6.65 665.25 7.84 666.55 9.17 667.9 10.36 668.39 11 669.07 14.01 668.69 15.16 667.87 16.67 666.94 17.56 667.97 19.27 668.55 19.69 671.1 20.08 672.28 20.66 674.33 21.44 676.48 22.06 677.49 22.48 680.18 24.04 682.83 26.72 683.26 27.5 684.54 29.23 684.54 30.51 685.76 30.64 686.24 31.37 685.66 32.7 683.61 34.53 680.09 37.2 678.72 37.96 678.13 38.8 678.06 39.49 676.87 41.15 676.32 41.69 675.75 43.36 674.16 45.01 671.82 46.03 671.49 46.74 671.52 47.99 671.81 49.68 671.57 53.61 671.31 54.14 671.89 57.82 672.52 59.85 674 63.62 674.24 65.55 675.35 67.08 675.47 67.92 675.03 69.14 674.95 69.92 675.62 71.59 675.67 72.32 675.39 73.65 675.72 74.28 676.47 74.43 678.56 75.21 681 76.94 681.28 77.83 681.21 79.23 682.1 81.17 681.67 82.85 682.3 83.55 683.18 83.46 683.69 83.75 683.7 85.96 684.06 87.65 684.65 89.33 684.83 90.92 685.95 91.83 685.29 92.46 685.4 93.18 685.96 93.23 686.58 93.8 686.62 94.45 687.05 94.89 688.51 94.71 689.25 95.01 689.7 96.14 691.23 97.03 692.05 96.94 693.33 97.44 694.73 98.36 695.74 99.56 696.52 100.02 697.64 100.26 699.2 101.06 701.08 101.47 703.04 101.23 703.99 101.53 705.22 102.19 706.54 102.66 710.24 103.4 712.53 103.97 721.67 105.4 723.21 105.85 724.05 105.94 727.72 106.71 728.76 107.11 729.88 107.94 730.2 108.96 730.94 109.94 731.68 111.82 731.81 112.73 732.74 113.99 734.93 115.65 735.23 116.89 735.84 117.87 736.49 118.31 737.08 119.11 737.34 120.3 737.94 121.4 738.07 122.11 737.24 122.96 735.61 125.02 735.58 126.01 736.21 127.05 736.98 127.64 739.5 129.05 741.72 129.96 746.09 131.17 746.76 131.53 747.53 132.67 747.63 133.71 748.02 134.31 752.63 135.92 754.76 136.84 755.97 137.88 757.49 138.24 758 138.57 759.11 140.04 760.59 141.29 761.52 141.64 763.31 144.05 764.73 145.07 765.11 145.79 764.46 146.7 764.74 147.55 764.08 149.4 763.25 150.73 763.27 151.25 764.21 152.95 764.69 154.17 766.98 156.03 768.16 157.73 770.12 159.04 771.35 159.57 772.35 160.19 774.66 160.45 775.88 160.73 777.21 161.64 779.54 162.39 781.54 163.46 783.15 163.99 785.48 164.37 787.35 165.11 789.66 166.18 790.47 166.67 790.98 168.35 791.46 169.35 792.81 169.98 795.2 170.05 796.19 171.09 796.41 172.62 796.23 174.25 795.55 176.04 795.87 177.87 795.71 178.56 796 180.26 797.58 181.67 798.12 183.16 798.54 183.6 799 185.03 798.93 185.92 798.27 186.89 798.24 187.73 797.31 188.61 796.29 190.19 795.94 191.72 796.08 192.2 797.58 193.91 797.34 196.91 796.92 197.96 795.32 200.61 794.93 202.06 794.95 202.95 793.89 204.62 793.61 205.94 793.86 206.59 794.01 208.53 793.85 209.14 793.11 209.62 789.56 210.58 788.9 210.85 783.69 213.51 781.98 214.01 779.01 216.14 778.13 216.95 777.44 218.06 777.2 219.97 777.71 221.12 777.75 222.33 777.55 222.92 776.9 223.55 775.64 224.26 775.11 224.8 774.84 226.65 774.01 228.81 774.2 231.69 774.49 234.74 774.04 236.07 771.47 237.08 769.36 237.45 767.32 237.99 765.47 238.85 764.33 240.2 763.04 240.78 761.51 242.42 759.52 243.97 757.93 244.44 756.07 244.62 754.33 244.62 753.16 244.46 750.72 243.8 749.75 243.65 747.87 243.88 746.64 244.65 744.75 244.99 743.08 245.51 742.23 246.12 741.76 247.57 740.22 248.7 738.72 249.35 736.32 251.16 735.63 251.51 734.36 251.7 733.1 251.67 731.32 252.19 729.24 252.54 725.6 252.99 723.86 253.04 720.68 252.85 718.53 252.54 714.88 252.45 713.77 252.33 712.09 252.39 710.85 252.67 709.42 253.35 706.81 254.77 705.31 255.42 703.26 256 701.87 256.52 699.61 256.19 696.4 254.97 695.08 255.01 692.63 255.94 689.94 256.25 687.95 257.19 687.42 257.95 686.91 261.12 685.36 262.94 684.78 265.25 684.5 267.33 684.35 269.78 683.83 271.21 682.68 272.12 681.78 273.57 681.2 274.93 680.52 276.09 679.32 277.57 679.55 278.93 681.37 280.34 681.92 280.94 683.34 281.95 685.25 283.78 686.59 285.46 688.21 287.84 689.66 288.2 692.19 287.87 693.61 288.32 694.62 289.16 695.64 290.76 696.93 292.3 697.54 293.6 698.6 294.64 699.91 296.42 699.58 299.14 700.04 300.71 699.98 301.37 700.27 302.31 700.45 304.03 700.07 305.92 699.99 307.49 699.54 308.87 698.49 310.78 699.25 313.42 699.06 314.36 698.27 315.94 697.91 317.51 697.16 318.23 695.14 319.08 693.53 319.58 691.86 320.81 690.7 322.54 689.9 323.17 688.83 323.64 687.86 324.46 686.42 326.92 685.1 327.7 683.73 328.83 682.28 329.83 681.93 330.27 681.38 331.77 681.43 332.56 681.98 333.66 682.14 334.94 681.99 335.71 681.3 337.38 679.99 339 679.13 342.05 679.7 344.13 679.6 345.51 679.17 346.15 678.51 348.49 677.98 348.99 676.39 349.95 674.39 350.85 670.59 352.79 669.04 353 666.51 352.71 662.9 352.72 661.8 352.87 660.8 353.27 656.07 354.12 655.26 354.36 650.51 356.24 649.14 357.21 646.7 360.57 644.03 362.41 643.56 363 643.45 364.47 644.12 365.2 645.67 365.66 646.44 366.25 648.01 368.18 648.65 369.96 648.64 370.93 648.33 372.31 647.95 373.23 646.89 375.08 646.54 376.05 646.49 377.42 647.49 379.98 647.53 382.11 647.19 383 646.15 383.67 645.17 383.98 642.61 384.18 641.82 384.67 Z" fill="none" stroke="currentColor" stroke-width="1"/>
</g>
</svg>