<svg viewBox="-117.94429339999999 -49.702112400000004 7.602012799999983 8.415196800000004" xmlns="http://www.w3.org/2000/svg">
  <path d="M -116.917487,45.995442 L -116.911469,45.989049 L -116.893606,45.97758 L -116.894906,45.968922 L -116.891298,45.960327 L -116.880506,45.958508 L -116.87598,45.954775 L -116.875125,45.9422 L -116.870067,45.930472 L -116.870398,45.926913 L -116.866544,45.916958 L -116.857254,45.904159 L -116.846959,45.896646 L -116.844369,45.892966 L -116.819182,45.880938 L -116.814131,45.877641 L -116.803741,45.864934 L -116.796459,45.861224 L -116.795976,45.858094 L -116.787792,45.844267 L -116.788329,45.831928 L -116.782139,45.825116 L -116.774224,45.823369 L -116.763402,45.81658 L -116.753923,45.817429 L -116.734543,45.826527 L -116.716942,45.826708 L -116.70845,45.825117 L -116.698079,45.820852 L -116.693097,45.811144 L -116.688711,45.808116 L -116.680818,45.794388 L -116.665268,45.782059 L -116.66117,45.780313 L -116.649172,45.779734 L -116.639641,45.781274 L -116.632032,45.784979 L -116.623742,45.781813 L -116.616935,45.782464 L -116.59421,45.77908 L -116.575129,45.765863 L -116.567339,45.763004 L -116.559444,45.755189 L -116.54809,45.752364 L -116.541771,45.744449 L -116.535698,45.734231 L -116.538201,45.716161 L -116.535117,45.691277 L -116.528272,45.681473 L -116.517675,45.675039 L -116.505429,45.661914 L -116.496826,45.657251 L -116.488818,45.650799 L -116.487849,45.644238 L -116.482495,45.639916 L -116.482806,45.633595 L -116.471504,45.628467 L -116.472877,45.624877 L -116.463504,45.615785 L -116.463635,45.602785 L -116.475967,45.59009 L -116.480788,45.587942 L -116.483617,45.582962 L -116.481943,45.577898 L -116.494228,45.572225 L -116.503534,45.565819 L -116.503957,45.560953 L -116.51175,45.556445 L -116.51851,45.556689 L -116.526166,45.553549 L -116.524172,45.548565 L -116.528394,45.539267 L -116.532609,45.534758 L -116.536339,45.523935 L -116.540933,45.520111 L -116.546876,45.511584 L -116.556029,45.507019 L -116.557621,45.503495 L -116.553089,45.49621 L -116.558802,45.480073 L -116.554981,45.472798 L -116.55483,45.46293 L -116.564944,45.459585 L -116.568251,45.45582 L -116.575949,45.452522 L -116.588195,45.44292 L -116.59304,45.425036 L -116.597447,45.41277 L -116.619057,45.39821 L -116.623385,45.393963 L -116.632344,45.377415 L -116.655255,45.34886 L -116.671057,45.32383 L -116.674648,45.315082 L -116.672327,45.295234 L -116.672305,45.285202 L -116.67473,45.275844 L -116.691388,45.263739 L -116.696047,45.254679 L -116.698765,45.245182 L -116.703697,45.240099 L -116.704111,45.228154 L -116.70975,45.217243 L -116.709536,45.203015 L -116.717676,45.184364 L -116.724205,45.171501 L -116.724188,45.162924 L -116.728018,45.154237 L -116.728757,45.144381 L -116.733296,45.138486 L -116.745535,45.133038 L -116.74686,45.124223 L -116.752839,45.121768 L -116.754643,45.113972 L -116.774847,45.105536 L -116.783537,45.093605 L -116.78371,45.076972 L -116.790878,45.069947 L -116.797329,45.060267 L -116.808576,45.050652 L -116.814375,45.048285 L -116.825133,45.03784 L -116.842499,45.029898 L -116.847944,45.022602 L -116.844935,45.0138 L -116.844625,45.001435 L -116.857549,44.982567 L -116.857485,44.976728 L -116.85202,44.97203 L -116.84355,44.975408 L -116.840497,44.982549 L -116.836592,44.984037 L -116.826271,44.982493 L -116.836449,44.969239 L -116.849561,44.963593 L -116.851406,44.959841 L -116.846461,44.951521 L -116.835702,44.940633 L -116.83199,44.933007 L -116.838467,44.923601 L -116.838956,44.917826 L -116.842922,44.908907 L -116.848893,44.900719 L -116.852427,44.887578 L -116.865338,44.870603 L -116.876001,44.866684 L -116.883591,44.858277 L -116.889882,44.855171 L -116.89862,44.853744 L -116.896589,44.846545 L -116.900146,44.836672 L -116.905772,44.834793 L -116.922999,44.81098 L -116.928099,44.808381 L -116.932199,44.802781 L -116.933599,44.795681 L -116.9308,44.790981 L -116.9347,44.783881 L -116.9433,44.781681 L -116.949001,44.777981 L -116.966801,44.775181 L -116.990303,44.760082 L -117.000303,44.756082 L -117.014805,44.756603 L -117.021618,44.750749 L -117.02942,44.751102 L -117.044217,44.74514 L -117.047821,44.741527 L -117.050227,44.732546 L -117.058302,44.730482 L -117.062273,44.727143 L -117.060454,44.721668 L -117.063824,44.703623 L -117.072221,44.700517 L -117.07912,44.692175 L -117.080772,44.684161 L -117.078574,44.680328 L -117.080796,44.673768 L -117.091223,44.668807 L -117.095868,44.664737 L -117.096791,44.657385 L -117.094968,44.652011 L -117.098206,44.647651 L -117.098221,44.640689 L -117.108231,44.62711 L -117.1159,44.623339 L -117.120522,44.614658 L -117.125409,44.59224 L -117.124754,44.583834 L -117.133963,44.57524 L -117.146032,44.568603 L -117.147934,44.562143 L -117.14293,44.557236 L -117.144161,44.545647 L -117.152406,44.531802 L -117.161033,44.525166 L -117.167187,44.523431 L -117.181583,44.52296 L -117.19163,44.509886 L -117.192494,44.503272 L -117.200237,44.492027 L -117.208454,44.485928 L -117.216372,44.48616 L -117.224104,44.483734 L -117.225371,44.475476 L -117.221548,44.470146 L -117.220383,44.463037 L -117.217015,44.459042 L -117.214741,44.44923 L -117.216562,44.442276 L -117.215072,44.427162 L -117.227259,44.405236 L -117.233077,44.4008 L -117.242675,44.396548 L -117.243027,44.390974 L -117.23783,44.382386 L -117.235117,44.373853 L -117.216911,44.360163 L -117.206962,44.355206 L -117.202666,44.349813 L -117.196149,44.346362 L -117.189842,44.335007 L -117.192203,44.32863 L -117.195767,44.327119 L -117.200686,44.316899 L -117.2055,44.311789 L -117.217843,44.30718 L -117.22274,44.298326 L -117.217626,44.289056 L -117.207505,44.282722 L -117.200389,44.275442 L -117.184309,44.267146 L -117.170341,44.258889 L -117.157053,44.257493 L -117.141264,44.258515 L -117.134666,44.26217 L -117.130866,44.269492 L -117.119861,44.278272 L -117.111616,44.280666 L -117.104207,44.279942 L -117.093574,44.269374 L -117.090933,44.260311 L -117.07835,44.249885 L -117.067284,44.24401 L -117.058635,44.236328 L -117.05651,44.230874 L -117.051431,44.228748 L -117.046148,44.230669 L -117.042283,44.242775 L -117.031862,44.248635 L -117.025277,44.248505 L -117.016917,44.24539 L -117.007987,44.246417 L -116.986133,44.245354 L -116.975382,44.242392 L -116.971987,44.234655 L -116.974322,44.228606 L -116.970219,44.217493 L -116.973701,44.208017 L -116.972073,44.197998 L -116.967259,44.194581 L -116.94951014087812,44.19156122779721 L -116.935443,44.193962 L -116.924636,44.191043 L -116.922952,44.187358 L -116.914871,44.18269 L -116.903607,44.179985 L -116.895757,44.171267 L -116.894202,44.162317 L -116.895931,44.154295 L -116.900834,44.150099 L -116.903327,44.144422 L -116.911218,44.139992 L -116.914236,44.127304 L -116.925642,44.118929 L -116.929525,44.113059 L -116.928305,44.107327 L -116.933701,44.100043 L -116.944811,44.093574 L -116.967203,44.090936 L -116.977085,44.08582 L -116.974927,44.072973 L -116.975255,44.063657 L -116.973185,44.049425 L -116.959001,44.045254 L -116.955131,44.041458 L -116.943361,44.035645 L -116.936833,44.028433 L -116.934499,44.021218 L -116.93761,44.009494 L -116.944882,44.003593 L -116.935847,43.990875 L -116.938516,43.985032 L -116.958585,43.983425 L -116.967365,43.977047 L -116.976045,43.975058 L -116.97088,43.968302 L -116.961683,43.968168 L -116.960478,43.963413 L -116.97049,43.959764 L -116.971574,43.956964 L -116.961264,43.956 L -116.96254,43.946993 L -116.968214,43.941881 L -116.968577,43.936051 L -116.961806,43.932797 L -116.959151,43.928738 L -116.961535,43.918388 L -116.96461,43.916954 L -116.980544,43.91483 L -116.977354,43.905816 L -116.976181,43.894649 L -116.98362481095228,43.881203757668196 L -116.982347,43.86884 L -116.991415,43.863864 L -116.997391,43.864874 L -117.007189,43.863641 L -117.019337,43.859418 L -117.020116,43.853958 L -117.010701,43.849754 L -117.012831,43.840001 L -117.023201,43.841892 L -117.031887,43.834156 L -117.032289,43.828767 L -117.022224,43.82214 L -117.022076,43.815856 L -117.026634,43.80811 L -117.02638,43.749883 L -117.02677,43.733959 L -117.026902,43.6408 L -117.02662,43.573841 L -117.027003,43.545738 L -117.026733,43.484177 L -117.026651,43.374877 L -117.026685,43.299182 L -117.026643,43.198987 L -117.026872,43.154238 L -117.026592,43.076211 L -117.026658,43.025441 L -117.026279,42.97227 L -117.026534,42.904722 L -117.026231,42.831194 L -117.026483,42.734043 L -117.026665,42.624878 L -117.026452,42.577075 L -117.026434,42.456621 L -117.02652955997344,42.37541304999595 L -117.026129,42.357192 L -117.026377,42.308474 L -117.026166,42.200677 L -117.026579,42.124888 L -117.026097,42.117647 L -117.026341,42.061881 L -117.02619937862309,42.000194948290456 L -117.008908,41.998756 L -116.932562,41.998896 L -116.875964,41.998765 L -116.697532,41.997864 L -116.576393,41.997413 L -116.498188,41.997443 L -116.440954,41.996683 L -116.368477,41.99628 L -116.334654,41.997268 L -116.25764,41.997361 L -116.243962,41.997651 L -116.066625,41.9975 L -116.04565132812246,41.99634464642293 L -115.950455,41.996418 L -115.909272,41.997119 L -115.84918780991192,41.99678867362608 L -115.748045,41.996797 L -115.624883,41.996922 L -115.454789,41.996739 L -115.343822,41.996306 L -115.219421,41.996371 L -115.11810619870471,41.99613127133444 L -115.038157,41.996279 L -115.013765,41.9966 L -114.993499,41.997565 L -114.972414,41.997518 L -114.936234,41.999042 L -114.900304,41.999882 L -114.85625,42.001702 L -114.816425,42.001791 L -114.792441,42.000829 L -114.682694,41.997082 L -114.640258,41.996248 L -114.598281,41.994594 L -114.54886,41.994238 L -114.514212,41.994565 L -114.37886,41.994457 L -114.250855,41.994314 L -114.234654,41.994114 L -114.04147667458298,41.99382195691949 L -113.990091,41.993095 L -113.932742,41.989966 L -113.901578,41.988552 L -113.873349,41.988182 L -113.814884,41.988654 L -113.67170032696363,41.990865183866354 L -113.481818,41.993242 L -113.341712,41.994853 L -113.237405,41.996089 L -113.157611,41.996785 L -113.0002473771601,41.998202257908275 L -112.937572,41.99862 L -112.77562981197299,41.9997913457909 L -112.637897,42.000295 L -112.50888126447046,42.00076984006902 L -112.455113,42.000748 L -112.364813,42.001053 L -112.286995,42.001025 L -112.189751,42.001133 L -112.173148,42.001515 L -112.153848,41.997226 L -112.119088,41.997731 L -112.01218,41.99835 L -111.954463,41.998297 L -111.933595,41.998634 L -111.85703,41.998563 L -111.750764,41.99933 L -111.541643,41.999393 L -111.483516,41.999541 L -111.445515,42.000337 L -111.407875,42.000716 L -111.311026,42.001223 L -111.221717,42.001366 L -111.04673031996128,42.001701954188185 L -111.046997,42.056234 L -111.04689,42.096716 L -111.047164,42.140944 L -111.047274,42.274628 L -111.047042,42.314905 L -111.04723,42.370956 L -111.046939,42.484263 L -111.046017,42.582723 L -111.043547,42.719502 L -111.043781,42.809621 L -111.043836,42.886374 L -111.044068,42.97527 L -111.044041,43.067849 L -111.044102,43.152376 L -111.043925,43.212919 L -111.044988,43.334095 L -111.044743,43.380963 L -111.045492,43.509784 L -111.045282,43.528851 L -111.045439,43.6204 L -111.046571,43.739691 L -111.046784,43.845224 L -111.046612,43.914095 L -111.047349,43.999921 L -111.049074,44.020032 L -111.048452,44.114831 L -111.049119,44.124923 L -111.049078,44.219895 L -111.049496,44.270594 L -111.049695,44.353626 L -111.049148,44.374925 L -111.049298,44.42783 L -111.048974,44.474072 L -111.052434,44.478411 L -111.055782,44.476798 L -111.064672,44.478638 L -111.070163,44.482197 L -111.100918,44.487783 L -111.107213,44.486929 L -111.115061,44.493848 L -111.119675,44.494349 L -111.130659,44.500131 L -111.138618,44.516854 L -111.131382,44.532429 L -111.140806,44.535844 L -111.150571,44.534971 L -111.158894,44.546264 L -111.173755,44.549333 L -111.180747,44.554883 L -111.18103,44.569231 L -111.201491,44.575896 L -111.218865,44.575306 L -111.227606,44.577841 L -111.232058,44.585043 L -111.23186,44.597137 L -111.235598,44.601036 L -111.235091,44.605415 L -111.240889,44.614525 L -111.226644,44.61836 L -111.219319,44.622521 L -111.242644,44.6434 L -111.249236,44.644104 L -111.254685,44.651001 L -111.270788,44.646975 L -111.277051,44.649846 L -111.277577,44.655275 L -111.266804,44.667512 L -111.276925,44.675973 L -111.278519,44.681511 L -111.29104,44.686188 L -111.296879,44.691444 L -111.29626,44.702271 L -111.318088,44.714708 L -111.322484,44.718776 L -111.324378,44.729548 L -111.337113,44.733204 L -111.348067,44.725314 L -111.357717,44.729406 L -111.366703,44.738524 L -111.366253,44.742012 L -111.374931,44.748107 L -111.375806,44.751038 L -111.383621,44.754013 L -111.392969,44.75231 L -111.397844,44.746383 L -111.394524,44.744797 L -111.399383,44.734267 L -111.397132,44.727528 L -111.399852,44.721993 L -111.404361,44.721054 L -111.414273,44.710739 L -111.424213,44.714023 L -111.431733,44.720694 L -111.442733,44.720232 L -111.446874,44.717401 L -111.457362,44.716051 L -111.466651,44.713177 L -111.479477,44.706806 L -111.488784,44.705643 L -111.489716,44.699657 L -111.482691,44.692375 L -111.484779,44.687868 L -111.476664,44.681437 L -111.468514,44.678733 L -111.47666,44.673093 L -111.472255,44.666896 L -111.478352,44.662134 L -111.482653,44.655509 L -111.487619,44.653593 L -111.491671,44.644745 L -111.501627,44.647473 L -111.516167,44.644059 L -111.509056,44.633099 L -111.502489,44.62682 L -111.516659,44.619969 L -111.519712,44.612155 L -111.52561,44.60474 L -111.519337,44.601768 L -111.524477,44.597628 L -111.518914,44.583345 L -111.50134,44.57249 L -111.502577,44.568717 L -111.509975,44.565159 L -111.507408,44.562079 L -111.489515,44.55985 L -111.480656,44.555735 L -111.469453,44.557004 L -111.467495,44.544333 L -111.468082,44.540048 L -111.479665,44.542135 L -111.493537,44.540651 L -111.499615,44.542009 L -111.507681,44.536298 L -111.514547,44.536567 L -111.518443,44.543567 L -111.523594,44.547864 L -111.539167,44.551313 L -111.545942,44.556585 L -111.556561,44.554687 L -111.564798,44.557607 L -111.581842,44.559979 L -111.584981,44.562364 L -111.601083,44.554085 L -111.614345,44.548671 L -111.632731,44.553268 L -111.640589,44.552741 L -111.645905,44.554687 L -111.660266,44.553076 L -111.663551,44.555797 L -111.672567,44.556676 L -111.682997,44.561657 L -111.689995,44.5562 L -111.704152,44.559648 L -111.707252,44.552491 L -111.714757,44.544044 L -111.727362,44.543996 L -111.732371,44.542117 L -111.749914,44.53958 L -111.758943,44.533234 L -111.76288,44.52578 L -111.77151,44.530868 L -111.777986,44.524559 L -111.785451,44.523598 L -111.795361,44.526594 L -111.801119,44.525985 L -111.80816,44.519748 L -111.806082,44.516121 L -111.810659,44.511478 L -111.82153,44.508941 L -111.831316,44.517517 L -111.829947,44.51954 L -111.842422,44.526876 L -111.849235,44.53997 L -111.856732,44.546107 L -111.857201,44.549378 L -111.863657,44.551244 L -111.866447,44.5631 L -111.869747,44.564533 L -111.879459,44.560409 L -111.889924,44.564645 L -111.895178,44.559401 L -111.903328,44.556644 L -111.919297,44.557464 L -111.948909,44.556301 L -111.951158,44.549918 L -111.961155,44.54917 L -111.962422,44.544478 L -111.967216,44.544063 L -111.971542,44.537646 L -111.975369,44.536145 L -111.992039,44.537529 L -111.994275,44.53515 L -112.004427,44.537703 L -112.011473,44.543451 L -112.018513,44.542406 L -112.023437,44.545099 L -112.032707,44.546642 L -112.035069,44.54198 L -112.032286,44.529215 L -112.038792,44.532806 L -112.052702,44.534736 L -112.055842,44.536667 L -112.069068,44.537151 L -112.076129,44.533255 L -112.081181,44.53365 L -112.093902,44.529522 L -112.096484,44.522992 L -112.106755,44.520829 L -112.110027,44.524431 L -112.127046,44.52889 L -112.130839,44.537608 L -112.139787,44.539119 L -112.151708,44.538355 L -112.164648,44.541533 L -112.183657,44.532953 L -112.201163,44.53887 L -112.221051,44.54326 L -112.229739,44.549886 L -112.227146,44.557316 L -112.231066,44.558993 L -112.229225,44.564089 L -112.243669,44.568292 L -112.259184,44.56826 L -112.26904526402315,44.56551101193542 L -112.288673,44.56791 L -112.298204,44.558936 L -112.307642,44.557651 L -112.313741,44.553041 L -112.31521,44.541435 L -112.31965414867832,44.538909647846886 L -112.34762,44.538742 L -112.354402,44.535567 L -112.358805,44.528705 L -112.35664,44.524782 L -112.358307,44.519914 L -112.358357,44.509156 L -112.35669892323598,44.49269883376929 L -112.358855,44.484885 L -112.36449,44.480305 L -112.366489,44.468535 L -112.386524,44.447308 L -112.390184,44.450379 L -112.408116,44.457442 L -112.416062,44.453001 L -112.42276,44.454642 L -112.43408,44.454348 L -112.433539,44.459834 L -112.443636,44.466765 L -112.455232,44.466254 L -112.455914,44.471757 L -112.473419,44.479359 L -112.48503,44.470867 L -112.491454,44.470293 L -112.500389,44.462773 L -112.51129,44.466382 L -112.513891,44.475117 L -112.535493,44.478328 L -112.539071,44.482355 L -112.549541,44.484696 L -112.559708,44.482635 L -112.569669,44.482711 L -112.578447,44.480688 L -112.58485,44.481107 L -112.601489,44.490619 L -112.617141,44.487603 L -112.624741,44.483084 L -112.632666,44.491 L -112.640959,44.490352 L -112.660867,44.485952 L -112.674051,44.491883 L -112.683521,44.492506 L -112.688755,44.498367 L -112.706837,44.502841 L -112.71793,44.504273 L -112.733555,44.499941 L -112.740352,44.48997 L -112.749759,44.490134 L -112.762435,44.487677 L -112.772152,44.483605 L -112.780185,44.482228 L -112.785604,44.478985 L -112.787412,44.474614 L -112.798197,44.466045 L -112.797666,44.461397 L -112.807706,44.453122 L -112.815157,44.452999 L -112.818189,44.447052 L -112.824645,44.444677 L -112.828402,44.44033 L -112.826879,44.432056 L -112.839706,44.424021 L -112.821793,44.407165 L -112.820297,44.400521 L -112.812291,44.398983 L -112.815045,44.395453 L -112.811943,44.387905 L -112.813356,44.378387 L -112.822905,44.369136 L -112.844565,44.357969 L -112.855465,44.360142 L -112.863899,44.369802 L -112.872925,44.372134 L -112.876179,44.377515 L -112.881581,44.379256 L -112.881736,44.385708 L -112.885485,44.395545 L -112.884406,44.402034 L -112.891811,44.405251 L -112.901649,44.398849 L -112.913624,44.402282 L -112.921147,44.41092 L -112.932357,44.4135 L -112.937881,44.412298 L -112.950997,44.41726 L -112.953213,44.422951 L -112.963468,44.423373 L -112.980429,44.433753 L -112.98904,44.443329 L -113.001978,44.449857 L -113.005931,44.455237 L -113.008731,44.463681 L -113.006093,44.470709 L -113.019987,44.483696 L -113.026824,44.495512 L -113.016841,44.504123 L -113.015945,44.515987 L -113.005518,44.519845 L -113.006788,44.526208 L -113.015788,44.529424 L -113.024167,44.537026 L -113.030138,44.536925 L -113.038591,44.539695 L -113.047765,44.548283 L -113.045096,44.555984 L -113.036369,44.561239 L -113.03955,44.567302 L -113.055707,44.573531 L -113.067345,44.5793 L -113.062297,44.585923 L -113.068039,44.590599 L -113.080507,44.597221 L -113.088292,44.599663 L -113.077091,44.609664 L -113.071888,44.615871 L -113.057452,44.618341 L -113.049838,44.628799 L -113.051758,44.637096 L -113.065384,44.648856 L -113.064038,44.652735 L -113.068194,44.658234 L -113.069548,44.669769 L -113.067978,44.679015 L -113.076277,44.680632 L -113.082057,44.683969 L -113.079566,44.687647 L -113.082112,44.691657 L -113.093951,44.695307 L -113.1015456395782,44.70660250527961 L -113.10024798943203,44.71832659972977 L -113.101618,44.729465 L -113.112447,44.733437 L -113.117271,44.732923 L -113.116466,44.740052 L -113.120261,44.745951 L -113.125727,44.749698 L -113.134824,44.752763 L -113.137748,44.759906 L -113.131345,44.765035 L -113.133444,44.773954 L -113.150128,44.779262 L -113.160365,44.780739 L -113.163409,44.778779 L -113.179538,44.787165 L -113.18392,44.793932 L -113.194359,44.80215 L -113.203604,44.803982 L -113.209355,44.809125 L -113.222591,44.810794 L -113.231401,44.814206 L -113.237711,44.813874 L -113.247192,44.822954 L -113.258272,44.819997 L -113.263828,44.81621 L -113.274108,44.814339 L -113.28460696294873,44.80863670569721 L -113.298978,44.803031 L -113.301506,44.799031 L -113.318681,44.794914 L -113.328053,44.789097 L -113.340471,44.784682 L -113.352992,44.790877 L -113.354689,44.795437 L -113.346492,44.79893 L -113.354329,44.816377 L -113.357242,44.820651 L -113.365445,44.823737 L -113.376908,44.83079 L -113.376914,44.834446 L -113.385116,44.8376 L -113.39431,44.83694 L -113.409413,44.840757 L -113.422244,44.83781 L -113.422376,44.842595 L -113.42908,44.854858 L -113.440261,44.856174 L -113.444648,44.862163 L -113.455071,44.865424 L -113.457267,44.875408 L -113.462556,44.881858 L -113.4612,44.886754 L -113.466737,44.890696 L -113.478595,44.895595 L -113.475848,44.898086 L -113.473121,44.908467 L -113.483698,44.919724 L -113.491542,44.924541 L -113.491983,44.930383 L -113.498734,44.942029 L -113.496225,44.947675 L -113.486846,44.946778 L -113.48028928491055,44.95019074148875 L -113.472823,44.948254 L -113.464211,44.948386 L -113.459878,44.952354 L -113.452686,44.952309 L -113.44641,44.955773 L -113.443877,44.960014 L -113.44954628511421,44.97038545796555 L -113.445346,44.972327 L -113.447089,44.985058 L -113.445037,44.991845 L -113.446861,44.998276 L -113.438563,45.005573 L -113.438725,45.009596 L -113.448689,45.020016 L -113.446291,45.033892 L -113.45579,45.040169 L -113.449336,45.046515 L -113.452044,45.059174 L -113.460325,45.064869 L -113.466455,45.062551 L -113.476336,45.061854 L -113.484902,45.063405 L -113.486818,45.074048 L -113.495949,45.080818 L -113.514123,45.08481 L -113.52214196795245,45.09141366087644 L -113.512799,45.098734 L -113.505967,45.108034 L -113.512824,45.116852 L -113.52024,45.114999 L -113.530343,45.116237 L -113.536599,45.112506 L -113.549663,45.112879 L -113.553712,45.118366 L -113.569739,45.124522 L -113.576725,45.131237 L -113.565372,45.146853 L -113.58038,45.148467 L -113.583519,45.153747 L -113.590707,45.155886 L -113.590593,45.16136 L -113.594189,45.169633 L -113.589449,45.177301 L -113.592133,45.184779 L -113.596217,45.185619 L -113.599579,45.192067 L -113.605388,45.192715 L -113.613179,45.197483 L -113.623884,45.206161 L -113.636796,45.212243 L -113.636915,45.216761 L -113.647288,45.225642 L -113.649403,45.234367 L -113.655425,45.240006 L -113.666611,45.246833 L -113.679611,45.249746 L -113.685024,45.253505 L -113.692937,45.264197 L -113.691908,45.272356 L -113.683478,45.272955 L -113.678962,45.275889 L -113.687264,45.285962 L -113.70057,45.292518 L -113.703753,45.299178 L -113.710035,45.301015 L -113.718855,45.314242 L -113.718582,45.316805 L -113.728575,45.319908 L -113.738729,45.329741 L -113.740375,45.344726 L -113.734478,45.348574 L -113.731321,45.357798 L -113.733707,45.364271 L -113.738876,45.368657 L -113.73292,45.373141 L -113.734335,45.379885 L -113.732577,45.384001 L -113.734402,45.392353 L -113.743367,45.396199 L -113.749116,45.402831 L -113.761794,45.406579 L -113.773753,45.406359 L -113.77716,45.416563 L -113.766359,45.421272 L -113.759733,45.42711 L -113.765033,45.431062 L -113.773545,45.431705 L -113.776727,45.434698 L -113.774427,45.44651 L -113.783541,45.451978 L -113.784224,45.45501 L -113.77618,45.461104 L -113.774257,45.46555 L -113.776222,45.470905 L -113.76929,45.473271 L -113.759932,45.480642 L -113.760065,45.486226 L -113.763259,45.490786 L -113.764786,45.49921 L -113.770969,45.507829 L -113.772669,45.514255 L -113.766013,45.520526 L -113.778718,45.523159 L -113.781571,45.521881 L -113.802274,45.523148 L -113.810104,45.519777 L -113.81946,45.523055 L -113.833427,45.520536 L -113.829466,45.537012 L -113.826039,45.543694 L -113.821656,45.547213 L -113.817408,45.557033 L -113.818748,45.563672 L -113.806929,45.57819 L -113.79906,45.5815 L -113.798386,45.586437 L -113.803711,45.592631 L -113.806431,45.60163 L -113.811029,45.605743 L -113.818194,45.607872 L -113.826316,45.613163 L -113.834272,45.610076 L -113.843496,45.612743 L -113.848453,45.619992 L -113.862118,45.623799 L -113.879273,45.618587 L -113.88795,45.617477 L -113.904499,45.624682 L -113.901452,45.630241 L -113.902392,45.637547 L -113.895278,45.643847 L -113.907338,45.653249 L -113.912868,45.653844 L -113.919514,45.657859 L -113.920618,45.664065 L -113.931477,45.673235 L -113.93085,45.678172 L -113.934274,45.682005 L -113.932816,45.687173 L -113.93526,45.694341 L -113.939105,45.69578 L -113.953399,45.690966 L -113.962688,45.689737 L -113.968149,45.691321 L -113.972476,45.702545 L -113.980008,45.70237 L -113.988214,45.705928 L -113.994087,45.70298 L -113.996374,45.697062 L -114.005346,45.694155 L -114.019168,45.692631 L -114.014366,45.683769 L -114.02831,45.675237 L -114.01912,45.669654 L -114.013704,45.658292 L -114.01527,45.652766 L -114.021463,45.648001 L -114.034556,45.647616 L -114.051838,45.632705 L -114.066962,45.627967 L -114.072453,45.621254 L -114.073561,45.615082 L -114.081166,45.611457 L -114.082653,45.60761 L -114.082263,45.596699 L -114.086352,45.591305 L -114.097216,45.587029 L -114.119757,45.584181 L -114.125278,45.581349 L -114.132125,45.572095 L -114.128987,45.565385 L -114.136182,45.557019 L -114.150601,45.557708 L -114.153718,45.552932 L -114.165453,45.552312 L -114.169407,45.550503 L -114.180273,45.551238 L -114.187183,45.544666 L -114.190688,45.538388 L -114.194691,45.536154 L -114.205262,45.535923 L -114.207105,45.537781 L -114.221733,45.542733 L -114.227873,45.546129 L -114.240055,45.54645 L -114.248358,45.545107 L -114.25159,45.537504 L -114.248734,45.534571 L -114.24721,45.524719 L -114.253474,45.515051 L -114.258502,45.511233 L -114.261475,45.494931 L -114.270022,45.490868 L -114.269892,45.484552 L -114.280684,45.479742 L -114.292276,45.479977 L -114.299171,45.476912 L -114.301596,45.472961 L -114.30939887634734,45.46936742868419 L -114.315365,45.469119 L -114.324358,45.46589 L -114.329707,45.462027 L -114.344184,45.459683 L -114.350651,45.466471 L -114.351107,45.470519 L -114.358803,45.472838 L -114.361199,45.480495 L -114.364561,45.483613 L -114.36823,45.492366 L -114.375339,45.493959 L -114.38887,45.503003 L -114.392332,45.502459 L -114.413038,45.508812 L -114.423415,45.509299 L -114.429533,45.517539 L -114.431274,45.526342 L -114.436338,45.530477 L -114.439942,45.536983 L -114.448802,45.53888 L -114.455143,45.544161 L -114.463912,45.545029 L -114.462763,45.55395 L -114.456349,45.560989 L -114.465732,45.560507 L -114.4738,45.563464 L -114.485517,45.561682 L -114.497261,45.555687 L -114.506863,45.559305 L -114.517705,45.568271 L -114.52756,45.570824 L -114.532982,45.565772 L -114.548583,45.561058 L -114.552638,45.55702 L -114.560766,45.559296 L -114.56496830843334,45.5578138250671 L -114.565491,45.562601 L -114.559175,45.565492 L -114.556776,45.572926 L -114.552956,45.576603 L -114.558498,45.584463 L -114.547644,45.599679 L -114.538053,45.606143 L -114.544688,45.616976 L -114.55331,45.618869 L -114.56323,45.631669 L -114.563987,45.637621 L -114.551713,45.642411 L -114.541921,45.642126 L -114.539495,45.650567 L -114.52932,45.652457 L -114.522732,45.649295 L -114.507558,45.65796 L -114.506362,45.661827 L -114.499667,45.668513 L -114.502281,45.673939 L -114.49903,45.678874 L -114.501189,45.682436 L -114.513841,45.683797 L -114.509158,45.689447 L -114.501386,45.693706 L -114.4952,45.70419 L -114.497555,45.710936 L -114.502927,45.717167 L -114.504182,45.721814 L -114.515367,45.727454 L -114.526654,45.727634 L -114.535723,45.739155 L -114.54785,45.743264 L -114.547315,45.751892 L -114.544511,45.759178 L -114.551243,45.76391 L -114.55752,45.764291 L -114.566348,45.772739 L -114.561918,45.78025 L -114.555619,45.78654 L -114.544431,45.790026 L -114.544967,45.797898 L -114.531029,45.809868 L -114.531018,45.818898 L -114.515376,45.826262 L -114.512927,45.829718 L -114.517239,45.835747 L -114.509644,45.845357 L -114.5036,45.846003 L -114.500349,45.849987 L -114.485339,45.851604 L -114.475386,45.846563 L -114.470325,45.851465 L -114.461551,45.855134 L -114.453108,45.856093 L -114.44568,45.861637 L -114.437715,45.862608 L -114.42406,45.855809 L -114.409654,45.851573 L -114.405917,45.8704 L -114.3956,45.87167 L -114.392516,45.87924 L -114.387868,45.883926 L -114.387285,45.889061 L -114.392698,45.892147 L -114.39512,45.901303 L -114.404546,45.903748 L -114.413563,45.911631 L -114.416164,45.918433 L -114.4150549429004,45.922317796669695 L -114.431396,45.93604 L -114.424902,45.943981 L -114.414966,45.94839 L -114.411169,45.95311 L -114.402524,45.957944 L -114.40197,45.963644 L -114.411598,45.974388 L -114.411755,45.97787 L -114.421344,45.981411 L -114.424857,45.984758 L -114.435327,45.987811 L -114.4485,45.987603 L -114.453645,45.990995 L -114.457826,45.997478 L -114.463704,45.99759 L -114.475253,45.992022 L -114.48482,45.996307 L -114.487771,46.004176 L -114.473652,46.012787 L -114.473033,46.014552 L -114.480537,46.030439 L -114.489313,46.027869 L -114.497234,46.027886 L -114.507315,46.031163 L -114.506648,46.038519 L -114.495402,46.045434 L -114.493349,46.05258 L -114.479968,46.055411 L -114.469649,46.061686 L -114.466988,46.065781 L -114.472122,46.069208 L -114.472352,46.076806 L -114.46218,46.078473 L -114.45948,46.093931 L -114.461039,46.098486 L -114.470882,46.105614 L -114.474454,46.113108 L -114.488456,46.112986 L -114.498788,46.118842 L -114.504994,46.11839 L -114.518078,46.123328 L -114.521304,46.126515 L -114.517696,46.135585 L -114.527359,46.145411 L -114.521825,46.150766 L -114.514676,46.153581 L -114.515533,46.166592 L -114.507484,46.164635 L -114.498483,46.16733 L -114.489206,46.167659 L -114.483065,46.163241 L -114.474864,46.160934 L -114.457702,46.170191 L -114.445234,46.167946 L -114.444462,46.199356 L -114.443304,46.203049 L -114.450305,46.210923 L -114.451769,46.215309 L -114.445635,46.219748 L -114.447752,46.230506 L -114.45209,46.241291 L -114.466964,46.247305 L -114.464832,46.252242 L -114.470795,46.265377 L -114.464921,46.273219 L -114.453657,46.270947 L -114.444767,46.272698 L -114.435292,46.276695 L -114.427616,46.283365 L -114.425441,46.287856 L -114.428232,46.291079 L -114.433434,46.305549 L -114.43162,46.310497 L -114.422514,46.324052 L -114.421007,46.330985 L -114.414022,46.335564 L -114.414691,46.339549 L -114.410162,46.365498 L -114.416036,46.373457 L -114.422447,46.387046 L -114.410039,46.396394 L -114.408254,46.400886 L -114.401337,46.40158 L -114.393495,46.409216 L -114.384843,46.411359 L -114.383661,46.418465 L -114.38491,46.427594 L -114.378831,46.43505 L -114.368786,46.436508 L -114.371952,46.44254 L -114.375889,46.442756 L -114.384444,46.44804 L -114.379431,46.46029 L -114.383127,46.466245 L -114.394655,46.469426 L -114.401096,46.478586 L -114.400884,46.488383 L -114.403096,46.492347 L -114.402355,46.500582 L -114.394632,46.503469 L -114.383692,46.505102 L -114.375594,46.501754 L -114.368,46.505113 L -114.359683,46.504925 L -114.348337,46.510334 L -114.342985,46.51804 L -114.343211,46.522784 L -114.347183,46.525736 L -114.348711,46.533829 L -114.343901,46.541532 L -114.347888,46.551471 L -114.343023,46.554884 L -114.339533,46.564039 L -114.331209,46.572501 L -114.33371,46.578999 L -114.339558,46.587131 L -114.344197,46.589969 L -114.336027,46.593717 L -114.330256,46.599477 L -114.328493,46.604586 L -114.322711,46.610618 L -114.328013,46.619998 L -114.322149,46.625848 L -114.320326,46.638524 L -114.322815,46.643591 L -114.320705,46.64695 L -114.324615,46.653417 L -114.330836,46.659248 L -114.337005,46.662308 L -114.353,46.663557 L -114.357919,46.668695 L -114.378613,46.66682 L -114.382746,46.662836 L -114.39452,46.664917 L -114.403856,46.659487 L -114.408448,46.660646 L -114.413892,46.656768 L -114.424178,46.660629 L -114.453726,46.648452 L -114.454454,46.640894 L -114.466834,46.631801 L -114.481017,46.631887 L -114.497614,46.637467 L -114.501217,46.64135 L -114.508486,46.639404 L -114.523847,46.640588 L -114.541704,46.649944 L -114.546387,46.645046 L -114.557463,46.644052 L -114.563182,46.640823 L -114.569824,46.643324 L -114.584527,46.633407 L -114.593767,46.632942 L -114.599742,46.636296 L -114.605732,46.6359 L -114.61311,46.63847 L -114.616378,46.643433 L -114.611656,46.647453 L -114.615026,46.655414 L -114.621023,46.657982 L -114.635234,46.659247 L -114.639843,46.665377 L -114.633057,46.669979 L -114.639702,46.67222 L -114.641443,46.679492 L -114.631841,46.683947 L -114.623543,46.690933 L -114.624683,46.696113 L -114.620787,46.707262 L -114.624932,46.712258 L -114.633342,46.715571 L -114.639272,46.721786 L -114.64508,46.723323 L -114.647183,46.731387 L -114.658855,46.734535 L -114.664572,46.739084 L -114.671928,46.73657 L -114.681043,46.738847 L -114.68682,46.736521 L -114.699132,46.740178 L -114.702777,46.730421 L -114.708634,46.727206 L -114.710425,46.717704 L -114.716783,46.714053 L -114.728096,46.714484 L -114.739773,46.711941 L -114.752198,46.697142 L -114.766507,46.696864 L -114.768548,46.704763 L -114.782189,46.708026 L -114.788451,46.714059 L -114.782081,46.719499 L -114.782755,46.72635 L -114.777859,46.731519 L -114.773741,46.731749 L -114.767252,46.738751 L -114.767774,46.74684 L -114.76509,46.75815 L -114.77384,46.762663 L -114.773916,46.765513 L -114.783634,46.768666 L -114.78647,46.778288 L -114.800867,46.776412 L -114.809643,46.782391 L -114.818876,46.781247 L -114.830671,46.783605 L -114.837328,46.792821 L -114.843656,46.793804 L -114.856906,46.801647 L -114.860604,46.8057 L -114.861142,46.811638 L -114.865779,46.814529 L -114.887113,46.809457 L -114.890731,46.802958 L -114.895516,46.801965 L -114.89855,46.809351 L -114.894791,46.817183 L -114.898448,46.822354 L -114.90678,46.822525 L -114.922312,46.828602 L -114.928672,46.836408 L -114.928666,46.843635 L -114.92410842624024,46.848237768213124 L -114.928683,46.854767 L -114.942964,46.856814 L -114.948421,46.860637 L -114.944273,46.868077 L -114.940551,46.868404 L -114.93226,46.875802 L -114.931009,46.882195 L -114.936741,46.897279 L -114.929333,46.909889 L -114.922062,46.912487 L -114.926248,46.919469 L -114.934874,46.919721 L -114.941931,46.924075 L -114.952681,46.926649 L -114.960964,46.930408 L -114.958793,46.933626 L -114.964543,46.938076 L -114.970201,46.93872 L -114.980395,46.947386 L -114.986516,46.950148 L -114.985686,46.953941 L -114.993387,46.959605 L -115.00091,46.967703 L -115.001274,46.971901 L -115.011728,46.974306 L -115.028599,46.975675 L -115.031968,46.971574 L -115.047857,46.969532 L -115.051956,46.974903 L -115.049944,46.981057 L -115.056724,46.984845 L -115.061139,46.991934 L -115.067775,46.995212 L -115.065212,47.000325 L -115.072778,47.013823 L -115.069561,47.01481 L -115.073764,47.025651 L -115.079799,47.02824 L -115.081856,47.038186 L -115.088363,47.041121 L -115.087426,47.045716 L -115.098008,47.048581 L -115.106065,47.048563 L -115.121998,47.063333 L -115.131134,47.068956 L -115.139296,47.079247 L -115.142571,47.092628 L -115.140162,47.096613 L -115.143964,47.101754 L -115.160126,47.102099 L -115.172175,47.107151 L -115.172902,47.112239 L -115.186565,47.124919 L -115.186128,47.129561 L -115.198231,47.137123 L -115.214386,47.142957 L -115.222452,47.149085 L -115.243106,47.150729 L -115.249008,47.159148 L -115.254853,47.162749 L -115.256196,47.174977 L -115.261822,47.181431 L -115.286849,47.183485 L -115.290964,47.186815 L -115.299278,47.187613 L -115.301226,47.193452 L -115.295986,47.205658 L -115.291529,47.210854 L -115.294928,47.220277 L -115.298784,47.225504 L -115.311053,47.229701 L -115.318489,47.236348 L -115.324431,47.245746 L -115.318382,47.251892 L -115.323517,47.256321 L -115.340849,47.26285 L -115.345786,47.260584 L -115.353849,47.262148 L -115.359219,47.259643 L -115.370918,47.26518 L -115.376122,47.264615 L -115.384928,47.267789 L -115.389489,47.265903 L -115.411585,47.264369 L -115.421024,47.27163 L -115.420432,47.277357 L -115.426354,47.280348 L -115.436625,47.280326 L -115.445095,47.277019 L -115.457255,47.278321 L -115.457109,47.281596 L -115.466308,47.287412 L -115.481669,47.281355 L -115.490186,47.289209 L -115.507436,47.292061 L -115.514192,47.296409 L -115.528509,47.299244 L -115.528912,47.30719 L -115.537062,47.317838 L -115.541122,47.325214 L -115.53879,47.328922 L -115.550179,47.333741 L -115.548841,47.346958 L -115.557045,47.353876 L -115.565827,47.352456 L -115.576433,47.357087 L -115.577375,47.367251 L -115.59578,47.371719 L -115.601915,47.377489 L -115.617247,47.38252 L -115.630004,47.379348 L -115.636949,47.379661 L -115.642921,47.377367 L -115.648318,47.382252 L -115.646294,47.387769 L -115.649954,47.392329 L -115.655288,47.393886 L -115.657304,47.400208 L -115.675821,47.402499 L -115.675245,47.409393 L -115.68567,47.411178 L -115.691553,47.41515 L -115.712261,47.415442 L -115.720834,47.421076 L -115.721112,47.425698 L -115.731206,47.424809 L -115.738704,47.426426 L -115.750807,47.422113 L -115.759304,47.423862 L -115.752414,47.432153 L -115.746619,47.442311 L -115.731075,47.444863 L -115.717039,47.452575 L -115.702113,47.452501 L -115.691209,47.457206 L -115.680513,47.456195 L -115.676973,47.453385 L -115.656708,47.454582 L -115.640163,47.459687 L -115.635033,47.467198 L -115.629488,47.47961 L -115.634603,47.481616 L -115.64724,47.478009 L -115.661025,47.477848 L -115.662027,47.483137 L -115.667775,47.488786 L -115.673779,47.486388 L -115.686264,47.48494 L -115.690241,47.500939 L -115.698118,47.502132 L -115.70891466017999,47.51532385090977 L -115.71131,47.523108 L -115.6954,47.527713 L -115.698314,47.531375 L -115.706577,47.53502 L -115.711876,47.532507 L -115.730071,47.535592 L -115.736436,47.539793 L -115.740746,47.538287 L -115.751793,47.541987 L -115.755663,47.5483 L -115.754514,47.552454 L -115.74428,47.558997 L -115.740953,47.563447 L -115.730402,47.569662 L -115.722224,47.572095 L -115.721195,47.576254 L -115.706418,47.577523 L -115.702827,47.586483 L -115.696464,47.588897 L -115.691626,47.593447 L -115.692831,47.601795 L -115.697217,47.603741 L -115.698877,47.610944 L -115.693502,47.618191 L -115.694444,47.623761 L -115.707672,47.634715 L -115.713142,47.635445 L -115.730393,47.642331 L -115.736379,47.655166 L -115.730947,47.664345 L -115.732289,47.66757 L -115.726327,47.673707 L -115.728282,47.681708 L -115.722714,47.694855 L -115.731354,47.704942 L -115.753026,47.71695 L -115.760472,47.718906 L -115.773442,47.717568 L -115.779988,47.723252 L -115.784258,47.729963 L -115.783712,47.737147 L -115.780868,47.741925 L -115.786543,47.748656 L -115.79373,47.751944 L -115.797498,47.757334 L -115.804609,47.758142 L -115.823774,47.752611 L -115.83091,47.755036 L -115.835424,47.761482 L -115.835069,47.77006 L -115.840544,47.780355 L -115.847493,47.786485 L -115.845795,47.793164 L -115.848945,47.800187 L -115.848771,47.810091 L -115.845122,47.814673 L -115.850761,47.821423 L -115.852312,47.827857 L -115.870741,47.834962 L -115.874555,47.842178 L -115.881496,47.849612 L -115.901401,47.843097 L -115.906821,47.846383 L -115.910081,47.853017 L -115.918587,47.853472 L -115.919422,47.857448 L -115.935302,47.876115 L -115.938009,47.881093 L -115.949749,47.889004 L -115.953363,47.894053 L -115.968005,47.901982 L -115.96563059387982,47.91110575908502 L -115.969603,47.914393 L -115.983058,47.91629 L -115.985315,47.923062 L -115.991025,47.924602 L -115.998528,47.9389 L -116.006659,47.943341 L -116.007484,47.950783 L -116.023231,47.964852 L -116.030387,47.972619 L -116.038505,47.971345 L -116.049108,47.976842 L -116.049028,48.119446 L -116.048943,48.237089 L -116.04899,48.384699 L -116.049068,48.480873 L -116.049098,48.586972 L -116.048956,48.691733 L -116.049059,48.760472 L -116.04908327094911,48.90559801858843 L -116.049086,49.000846 L -116.1811,49.00056 L -116.29000329679027,49.00069042788033 L -116.417503,49.000099 L -116.499572,48.999881 L -116.757185,48.999791 L -117.03234497473571,48.999188013203785 L -117.032107,48.874926 L -117.033335,48.74992 L -117.033276,48.705136 L -117.0337072238018,48.655425538615845 L -117.0345,48.620844 L -117.035425,48.499914 L -117.03531,48.366616 L -117.038369,48.218153 L -117.041107,48.124904 L -117.041794,48.064997 L -117.042308,47.962656 L -117.042054,47.921522 L -117.042301,47.890685 L -117.04214,47.7582 L -117.041787,47.700986 L -117.04085,47.614367 L -117.041092,47.585279 L -117.04019,47.521301 L -117.039799,47.45434 L -117.039775,47.347214 L -117.039938,47.28869 L -117.039683,47.259269 L -117.039752,47.127269 L -117.039724,47.04749 L -117.039973,47.034118 L -117.039455,46.913636 L -117.039784,46.860895 L -117.039658,46.773571 L -117.039939,46.749285 L -117.039691,46.638087 L -117.039649,46.57204 L -117.039836,46.47999 L -117.039571,46.425379 L -117.034626,46.417845 L -117.03535724435983,46.41071697500094 L -117.03857,46.405482 L -117.042145,46.39126 L -117.048229,46.377676 L -117.060075,46.369213 L -117.062778,46.365175 L -117.062788,46.353605 L -117.060297,46.348381 L -117.049505,46.34301 L -117.033484,46.341237 L -117.022925,46.334627 L -117.023073,46.319858 L -117.020581,46.314789 L -117.006387,46.304789 L -116.99555,46.302272 L -116.988766,46.298808 L -116.984804,46.293088 L -116.985583,46.288497 L -116.990867,46.280855 L -116.990825,46.276203 L -116.974809,46.265499 L -116.964467,46.253762 L -116.957742,46.239197 L -116.955381,46.230314 L -116.956655,46.225026 L -116.966306,46.209195 L -116.965384,46.203122 L -116.960857,46.198336 L -116.94963,46.191676 L -116.932734,46.173243 L -116.927475,46.173294 L -116.922341,46.168774 L -116.92135,46.164514 L -116.924371,46.159618 L -116.93461,46.154151 L -116.935321,46.136411 L -116.950365,46.12337 L -116.951335,46.110887 L -116.955424,46.101861 L -116.959694,46.099013 L -116.974041,46.097658 L -116.982465,46.091935 L -116.979353,46.080487 L -116.97104,46.077034 L -116.957866,46.075457 L -116.949286,46.068406 L -116.942793,46.061115 L -116.943451,46.055157 L -116.94028,46.046687 L -116.931633,46.039628 L -116.929589,46.034176 L -116.929944,46.023648 L -116.921719,46.015942 L -116.919275,45.999799 L -116.917487,45.995442 Z" fill="none" stroke=currentColor stroke-width="1" vector-effect="non-scaling-stroke"/>
</svg>