<?xml version="1.0"?>
<svg xmlns="http://www.w3.org/2000/svg" version="1.2" baseProfile="tiny" width="800" height="905" viewBox="0 0 800 905" stroke-linecap="round" stroke-linejoin="round">
<g id="state">
<path d="M 42.9 387.86 42.67 387.3 42.36 385.22 41.3 384.23 41.35 382.87 41.08 382.17 39.97 381.26 39.56 380.17 39.65 379.4 38.81 378.47 37.71 377.56 36.01 377.35 34.94 376.91 34.54 375.44 35.62 374.7 37.47 374.53 38.02 374.16 38.55 373 38.67 371.39 40.61 369.71 40.7 367.43 42.02 366.72 42.41 366.09 42.28 365.55 41.62 364.96 40.94 364.97 38.77 362.6 37.32 361.74 36.74 361.12 36.62 360.34 37.86 358.3 38.03 357.62 37.72 356.48 36.86 354.61 35.53 353.1 33.46 351.72 33.46 351.12 34.14 350.13 34.24 349.54 33.73 348.81 32.86 348.36 31.46 348.04 29.63 346.75 29.31 346.1 29.33 344.2 27.97 343.35 25.91 343.12 24.52 342.43 24.2 341.75 24.2 340.26 24.55 339.75 26.07 338.66 26.86 336.91 27.32 335.08 27.73 334.4 27.83 333.49 27.19 332.52 27.15 325.49 27.18 313.64 27.17 305.14 27.14 290.82 27.18 287.7 27.16 276.46 27.2 269.67 27.14 254.16 27.17 252.44 27.17 242.17 27.17 225.18 27.14 221.39 27.16 213.86 27.16 200.07 27.11 191.45 26.99 183.21 27.02 179.47 26.9 168.32 26.86 160.95 26.84 143.9 26.87 139.93 26.84 134.64 26.9 121.46 26.99 113.75 27.34 101.75 27.74 82.64 27.72 65.48 27.84 49.91 27.94 45.46 28 39.06 27.99 33.3 28.15 17.21 28.12 1.21 63.54 1.14 96.7 1.12 107.26 1.1 123.67 1.02 137.69 1.04 154.68 1 154.69 13.26 154.69 31.94 154.7 40.79 154.68 54.27 154.69 67.93 154.7 80.31 154.7 99.31 154.69 114.45 154.68 132.81 156.05 133.52 157.09 133.35 158.01 134.35 160.04 136.16 160.15 137.12 161.19 137.69 162.16 139.53 162.89 139.73 163.18 140.6 164.92 140.85 165.43 141.27 165.12 142.45 167.01 143.47 167.47 144.12 168.98 145.14 169.33 145.78 171.38 148.18 171.48 148.69 172.58 148.75 173 149.6 173.69 150.03 176.26 149.19 177.15 150.14 177.64 151.07 180.01 151.99 180.21 152.82 180.94 153.68 180.47 154.27 180.45 155.55 180.85 156.45 180.63 157.31 181.53 158.1 182.23 159.43 182.19 160.53 182.77 161.36 183.69 161.67 186.15 160.96 187.07 161.07 187.55 161.76 188.48 162.18 189.21 163.05 188.84 163.66 188.77 164.59 189.32 165.45 190.17 166.18 191.84 166.01 192.79 166.26 195.58 167.81 196.7 169.11 195.98 170.8 196.23 171.83 195.46 172.62 195.64 173.04 194.94 174.22 195.71 175.87 197.93 176.76 198.63 176.85 200.33 178.26 200.46 178.98 199.76 179.91 199.98 180.84 200.54 181.09 200.7 182.16 200.07 182.75 199.26 183.06 198.79 184.21 196.89 184.37 196.76 184.91 195.71 185.22 194.35 186.02 193.92 186.6 192.6 187.44 192.45 187.97 192.95 188.79 194.37 189.26 194.93 189.07 195.75 189.61 198.09 190.01 198.77 189.68 199.84 190.15 200.21 190.62 198.16 191.22 198.47 192.22 199.86 193.92 200.88 194.07 201.39 196.13 202.99 195.94 203.77 195.63 204.51 196.36 204.64 197.04 206.41 197.02 208.04 196.56 208.7 196.81 207.98 198.41 207.32 199.38 205.19 200.04 202.58 200.19 202.13 199.83 200.75 199.7 199.35 200.3 197.43 200.29 195.62 201.29 193.62 201.62 192.87 202.92 191.99 203.99 193.08 204.22 194.64 203.66 195.6 203.87 196.9 203.75 196.94 204.35 198.04 205.07 200.71 205.11 201.46 205.62 202.81 205.85 202.73 206.74 205.12 207.03 205.37 207.85 206.06 208.05 206.53 208.64 206.27 209.35 206.97 209.97 207.74 209.68 208.63 209.72 210.27 209.31 212.24 209.96 213.03 210.7 215.4 211.28 215.52 212.59 216.89 213.18 218.02 213 219.08 213.89 218.9 215.59 220.37 216.21 220.07 216.69 220.59 217.64 221.64 219.01 221.69 220.03 223.54 220.4 224.41 220.96 226.63 221.32 227.72 222.33 229.7 221.55 230.88 222.3 230.87 222.72 232.43 222.89 233.52 222.47 234.84 222.46 235.61 222.85 235.53 223.59 236.74 224.52 239.59 224.32 240.18 224.08 241.31 224.49 241.98 224.42 243.48 225.13 244.18 224.81 245.21 225.01 245.85 224.72 248.08 225.56 248.74 226.13 247.96 226.92 248.73 228.13 249.68 228.98 251.26 229.52 251.76 230.2 252.2 231.41 251.62 232.08 250.95 233.65 251.2 234.4 252.27 234.5 252.8 234.93 256.02 235.2 256.75 236.03 256.92 237.6 257.67 238.06 258.43 239.15 261.09 239.36 262.13 240.15 264.21 240.9 265.77 241.87 265.71 242.47 267.47 244.1 267.56 244.76 269.11 245.41 271.19 245.45 271.68 246.11 271.37 246.63 271.79 248.35 272.84 249.67 274.02 250.4 276.07 252.3 277.11 252.3 278.47 252.67 278.35 253.26 279.19 253.63 279.45 254.91 280.23 255.25 280.77 256.64 280.36 256.77 281.33 258.51 281 259.17 281.85 259.59 282.42 260.5 283.29 260.99 283.04 261.78 283.56 262.47 285.61 262.21 286.04 261.68 288.21 261.86 289.56 262.17 289.61 262.71 290.57 263.75 291.57 264.48 291.46 264.97 292.25 265.32 293.56 266.44 294.29 266.52 295.03 267.09 294.75 267.51 295.81 267.99 297.2 268.32 298.11 268.88 299.22 268.92 299.76 269.81 298.82 270.15 297.87 271.77 298.6 273.71 298.44 274.54 297.38 275.49 296.9 275.53 296.36 276.49 297.07 276.98 298.9 277.24 299.49 278.08 298.91 278.68 298.9 279.61 299.72 280.61 301.72 281.39 302.8 281.42 303.27 282.08 302.78 283.09 303.17 284.04 303.79 283.91 304.25 283.08 307 282.42 307.6 282.8 307.67 283.56 308.14 284.08 309.85 285.09 310.66 285.22 311.52 286.4 313.04 286.71 314.23 286.56 315.36 287.33 317.21 287.09 317.57 288.33 318.83 288.73 318.83 289.1 319.96 289.68 319.62 291.14 319.68 292.18 318.85 293.08 318.32 293.11 317.69 293.77 317.77 294.66 316.95 295.36 317.76 296.13 319.52 296.55 319.78 297.57 321.62 297.53 323.22 295.63 324.72 295.3 326.18 295.36 327 294.89 327.23 293.66 327.98 293.25 328.45 291.99 330.04 292.46 330.78 292.17 331.95 292.46 332.9 292.14 333.64 292.72 335.14 293.13 335.41 294.16 336.16 294.36 336.92 295.16 338 295.59 338.54 296.23 338.03 297.67 338.18 298.33 337.11 299.23 335.88 299.81 336.1 300.74 336.96 301.03 336.08 301.62 336.68 302.41 338.51 302.57 339.28 302.91 339.71 303.93 339.1 304.45 339.52 305.09 340.47 305.42 341.24 305.37 342.01 305.8 343.2 305.74 345.1 304.46 345.95 304.78 346.69 304.37 348.11 304.24 348.72 303.61 351.01 304.81 352.99 304.97 353.93 304.72 354.39 305.22 356.53 305.93 358.35 305.94 359.95 304.77 360.04 303.8 363.84 302.23 365.17 302.73 365.87 302.23 366.46 302.38 367.66 301.68 369.18 301.95 369.71 301.44 372.37 301.2 373.01 301.86 375.06 302.02 375.86 302.41 376.66 303.16 377.16 303.99 376.89 304.43 377.21 305.08 376.98 306.71 376.22 307.46 376.9 308.67 376.16 309.45 375.93 310.11 375.19 310.85 374.14 311.33 374.74 311.69 375.49 312.74 375.81 313.58 374.74 314.67 374.29 315.85 373.66 316.28 374.18 317.56 373.56 318.56 373.75 319.6 374.27 319.98 374.29 320.59 373.61 321.58 372.15 322.28 371.07 322.25 370.1 322.68 369.05 322.25 367.65 322.46 366.65 322.84 366.56 323.9 366.84 324.41 366.81 325.67 367.64 326.85 369.13 327.26 369.6 328.02 368.96 329.6 370.06 330.28 370.57 330.31 370.97 331.08 369.68 331.27 368.9 332.23 369.06 333.41 368.91 334.32 367.79 334.6 366.78 335.58 365.89 335.67 365.66 336.25 364.07 337.45 364.89 339.2 365.65 340.22 365.06 343.56 365.15 344.08 364.25 344.67 364.06 345.56 362.89 347.3 362.65 347.94 363.32 349.8 363.68 350.22 363.4 350.8 362.41 351.65 361.19 352.17 360.05 352.39 358.6 352.1 357.84 353.11 358.61 354.8 358.34 355.44 360.25 356.21 360.81 357.6 361.08 358.98 360.29 359.56 360.48 360.12 361.38 361.13 361.23 361.61 361.13 365.65 359.53 365.36 357.32 366.55 356.26 366.26 355.47 365.69 354.28 365.73 353.12 366.08 352.08 365.83 352.19 367.5 351.27 367.86 350.56 368.55 351.81 369.82 351.34 370.99 351.76 371.4 353.44 372.03 354.24 371.97 355.57 372.73 357.37 372.71 357.83 373.68 359.1 374.59 359.3 375.18 358.95 377.17 357.64 377.38 357.67 378.36 358.33 378.8 357.99 379.33 356.66 380.14 354.94 380.5 354.68 381.42 353.23 382.31 353.14 383.26 354.44 383.68 355.46 383.68 356.59 383.35 357.55 385.4 357.48 385.62 355.66 386.73 356.04 387.75 357.27 388.3 358.76 387.58 359.51 387.59 360.05 388.43 360.71 388.87 362.41 388.84 363.76 389.23 364.21 389.66 365.44 390.12 365.46 390.57 366.7 391.95 366.63 392.68 365.52 393.31 365.03 393.91 363.75 394.48 362.91 395.5 365.02 397.27 364.88 397.77 365.21 398.65 366.37 399.66 367.58 399.97 367.9 401.15 368.59 401.55 368.52 402.21 367.92 402.81 367.52 403.79 366.19 403.95 365.71 406.38 363.86 405.83 362.1 404.96 361.08 405.08 360.12 405.79 359.03 405.92 357.9 406.39 357.25 407.02 355.97 406.37 354.04 406.58 353.62 407.09 352.84 407.18 351.86 408.41 352.42 409.19 352.1 409.63 350.09 410.58 350.09 411.74 348.3 413.28 348.36 414.3 346.92 414.75 346.11 415.56 345.54 416.52 346.68 417.61 347.49 417.66 348.35 418.27 347.99 419.21 347.92 420.32 349.49 420.85 350.65 422.33 352.11 422.35 353.55 423.08 353.71 423.68 354.4 424.48 354.7 425.35 353.91 426.7 352.9 427.24 352.3 427.97 353.93 428.15 354.21 428.61 353.79 429.24 354.13 429.94 353.26 430.8 353.11 431.3 351.16 432.41 350.31 432.01 349 432.25 348.69 433.34 347.43 433.3 345.85 433.92 345.94 434.68 347.22 436.33 348.33 436.57 349.19 437.97 347.95 438.8 346.55 440.76 347.27 441.77 346.78 442.24 346.47 443.2 345.65 443.57 345.72 444.19 346.26 444 347.31 444.29 347.83 443.77 349.84 443.16 350.54 442.51 351.8 442.84 353.2 444 354.44 444.46 355.95 443.69 357.46 443.46 358.49 443.84 359.7 443.78 358.88 444.69 358.73 445.83 359.86 445.95 360.67 446.63 361.81 446.87 362.28 447.71 362.93 448.24 363.15 449.37 363.94 450.43 365.28 450.5 367.94 451.31 368.39 451.24 370.13 452.41 371.05 452.61 371.52 453.74 371.95 454.14 372.26 455.13 373.25 455.43 373.31 455.95 374.14 456.82 376 456.52 376.69 456.02 377.85 455.61 378.62 455.57 379.62 455.11 379.93 454.6 380.82 454.21 382.31 454.24 383.7 453.62 383.69 452.81 384.79 452.28 385.17 450.18 385.82 449.69 386.62 448.45 386.43 447.18 386.06 446.8 386.48 445.82 387.54 445.65 389.11 445.69 389.9 446.13 391.79 446.77 392.02 447.01 393.38 446.98 393.9 446.69 394.35 445.88 395.24 445.04 396.64 445.13 397.15 444.9 398.66 444.82 399.06 444.2 400.91 444.29 401.84 443.21 401.44 442.35 402.32 441.16 403.03 440.79 405.93 440.43 407.33 439.88 407.86 439.18 407.8 437.78 408 437.28 408.98 436.82 409.12 436.02 409.82 435.16 411.77 434.55 414 432.63 415.68 432.58 416.48 431.97 416.68 431.26 415.98 429.79 414.8 429.07 416.59 427.98 415.98 426.84 417.76 426.64 418.91 426.26 419.21 425.5 419.96 425.12 421.02 425.58 421.99 425.56 422.54 427 423.25 427.21 424.44 427.05 426.28 426.43 426.78 426.61 427.09 427.54 426.9 428.2 427.34 428.7 427.26 429.33 428.66 430.51 428.8 431.31 429.66 431.83 430.37 431.9 431.92 433.11 431.01 433.93 431.13 434.87 430.74 435.58 432.87 436.51 433.98 436.37 436.19 435.7 437.95 436.19 438.59 437.12 439.78 437.46 440.8 437.06 441.85 437.75 442.77 438.02 443.36 438.55 443.71 439.71 444.4 440.5 444.31 441.14 443.3 441.57 441.77 443.43 441.95 444.29 441.4 445.55 440.84 446.01 440.4 446.87 439.89 448.99 441.68 448.66 442.89 449.08 443.9 448.65 446.56 448.81 446.93 448.65 448.56 448.99 447.71 449.8 447.92 450.62 448.72 451.73 448.92 452.82 449.33 453.4 449.35 454.12 448.14 455.07 447.25 455.38 447.5 456.06 447.25 456.64 446.22 457.42 446.31 457.81 447.48 458.52 447.18 460.04 447.59 460.42 448.69 460.5 449.37 461.01 448.52 461.76 447.13 462.37 447.57 463.68 449.11 463.66 450.74 464.14 451.48 464.99 452.63 465.49 452.87 466.56 452.64 467.09 452.82 467.96 452.06 468.54 452.72 469.1 453.03 469.93 452.62 471.12 451.86 471.62 452.07 473.55 453.38 474.81 454.67 475.21 454.63 475.54 455.77 477.24 456.58 477.48 456.99 478.34 458.7 479.18 459.77 480.48 459.19 480.86 458.1 480.93 457.97 481.98 458.99 483.36 459.68 483.84 461.36 484.22 462.8 485.1 463.57 485.82 463.85 486.95 465.18 488.09 465.2 488.67 466.86 489.45 468.24 490.57 469.24 491.18 469.99 491.27 470.42 492.1 470.94 492.21 471.29 493.17 470.68 494.16 471.14 495.22 471.13 495.93 472.05 496.2 472.46 496.88 474.39 497.09 472.93 499.1 473.83 499.96 475.89 500.75 476.41 501.46 478.09 501.51 478.9 501.03 480.2 501.19 481.15 500.95 482.04 502.08 481.16 503.28 479.95 504.22 480.99 505.07 483.33 505.59 484.5 506.46 484.75 507.83 485.85 508.03 487.12 507.94 487.91 507.64 488.98 508.37 489.33 510 488.49 510.82 489.72 511.63 489.41 513.41 490.69 514.76 490.71 515.27 489.64 516.21 489.88 517.04 489.61 517.91 489.84 519.55 489.3 519.8 490.03 521.14 489.7 521.68 488.89 522.13 487.97 522.12 487.41 522.63 486.3 522.65 485.34 522.4 484.5 522.84 483.29 522.73 482.97 523.45 483.84 524.95 483.89 525.7 484.9 526.32 486.26 527.77 485.91 529.11 485.56 529.43 487.09 530.06 487.8 530.57 487.62 531.2 488.3 532.03 488.59 533.31 489.93 533.73 490.49 534.5 491.93 534.67 492.8 536.25 492.81 536.87 494.46 536.49 496.41 536.98 497.59 536.89 498.65 537.3 498.65 537.77 500.12 538.68 501.18 539.08 501.56 539.63 502.56 541.87 501.51 542.32 501.73 542.91 503.34 543.71 504.94 543.14 506.14 542.39 508.35 541.86 508.68 541.34 510.53 540.62 511.88 539.89 513.2 539.65 513.92 539.16 515.35 538.78 516.57 539.95 517.38 539.91 518.51 540.35 520.22 540.56 520.96 541.22 522.15 541.46 523.49 542.52 524.05 543.39 526.13 544.47 526.52 544.21 527.84 544.4 529.99 545.09 530.26 546.24 529.43 546.9 529.81 547.82 530.98 548.21 531.68 548.69 532.17 549.45 532.07 550.37 532.69 550.3 534.08 550.81 534.26 552.25 534.09 553.76 535.07 555.21 536.59 555.68 536.92 556.2 536.6 556.67 537.35 557.1 538.41 557.31 538.21 558.5 538.39 559.98 538.92 560.69 538.75 561.19 540.5 562.7 540.75 563.77 539.77 565.12 537.91 565.44 537.24 566.24 535.8 567.52 536.8 567.84 538.41 568.69 539.15 569.29 538.5 570.14 539.99 570.89 542.07 571.69 542.48 572.47 541.36 573.14 541.02 574.14 542.2 575.24 543.29 575.6 544.05 575.59 545.13 576.56 546.29 576.98 546.45 577.8 545.11 578.29 545 579.82 543.71 580.93 544.59 582.45 546.38 584.12 546.04 585.03 546.4 586.11 546.91 586.81 548.58 587.65 549.68 588.88 551.87 590.21 553.19 590.27 553.47 591 555.16 591.64 555.87 591.49 557.31 591.82 558.28 592.93 559.82 593.37 561.09 592.55 562.04 592.96 561.9 593.8 562.39 595.06 562.41 595.89 563.1 596.12 563.52 596.81 564.68 597.11 565.77 598.35 567.17 598.63 569.96 597.2 571.19 596.01 571.37 594.78 570.97 593.81 571.33 593.35 570.3 593.16 570.1 592.3 567.8 590.13 569.45 589.1 569.25 588.03 569.74 587.47 570.57 587.17 570.96 586.4 571.92 586.39 573.21 585.32 573.14 584.72 574.53 583.62 574.76 583.06 575.46 582.64 576.49 582.46 577.74 581.94 579.38 581.62 580.59 581.64 581.46 580.36 583.47 579.8 584.9 579.99 587.23 580.56 587.9 581.32 589.12 581.4 590.82 582.16 593.38 581.59 594.45 581.51 595.47 582.53 596.45 581.95 598.46 581.56 600.6 582.78 601.43 582.84 602.56 582.58 603.84 582.59 605.15 582.32 606.5 582.62 606.96 583.14 609.74 583.55 610.07 584.68 611.47 585.14 612.62 584.17 613.45 584.1 614.95 583.01 617.2 583.99 617.29 584.69 618.78 584.63 620.08 585.52 620.01 586.23 621.47 586.19 622.33 586.4 623.35 585.83 625.66 586.74 626.13 587.13 628.71 584.4 628.97 582.89 629.69 582.3 629.97 581.29 629.76 579.17 629.76 577.79 629.98 577.16 629.7 576.66 630.27 575.77 631.14 575.36 634.74 575.34 635.31 575.02 635.5 573.52 636.29 572.93 637.5 572.76 638.73 571.61 641.25 571.92 642.52 571.56 644.52 571.56 646.38 572.1 646.14 572.76 646.65 572.97 646.31 573.93 647.43 574.78 649.99 575.35 652.24 576.11 654.69 575 656.36 575.41 657.89 575.32 659.04 575.51 659.53 576.63 661.72 577.21 662.14 577.67 663.47 577.39 663.8 576.55 665.44 576.02 666.09 576.07 666.99 575.57 668.7 575.63 669.1 575.88 670.89 576.13 671.73 576.59 671.37 574.95 671.67 574.35 672.87 574.55 673.5 574.89 674.41 574.76 675.32 575.5 676.62 575.83 676.91 575.52 679.06 575.7 679.55 575.51 680.1 574.68 680.72 574.63 680.89 574.02 682.17 573.93 682.46 573.1 686.27 572.95 688.33 573.06 689.38 572.7 690.05 572.03 691.4 572.58 692.65 572.04 693.08 572.23 693.44 573.75 694.27 574 694.33 574.42 695.29 575.21 696.17 576.89 697.77 577.84 697.6 578.1 698.86 579.2 700.26 578.87 700.85 578.28 700.58 577.81 701.48 577.01 702.23 576.93 703.5 577.31 704.46 577.19 705.3 576.38 706.41 577.03 706.91 576.07 708.08 575.26 710.33 574.93 710.98 574.69 712.6 574.68 713.57 573.59 713.97 572.67 715.79 573.12 716.69 572.41 718.03 573.06 719.19 573.17 719.62 573.52 721.46 573.31 722.15 573.56 723.16 573.49 725.53 574.09 727.23 573.39 729.31 572.32 729.71 572.63 731.9 572.94 732.96 573.31 734.33 573.07 735.2 573.75 737.21 574.19 737.87 574.74 738.37 575.64 739.26 575.68 740.29 574.94 741.08 575.12 742.86 574.93 744.35 575.2 744.43 574.64 744.18 573.01 742.74 573.18 741.59 572.65 739.29 572.36 738.96 571.96 739.91 571.51 740.07 571.02 737.81 569.62 737.09 567.78 737.76 567.25 736.95 566.87 737.71 565.91 738.1 564.91 739.92 564.03 739.08 563.22 738.16 561.81 740.04 561.37 741.32 561.72 741.84 560.58 742.48 560.33 743.03 559.48 743.82 558.87 743.25 558.07 744.3 557.34 743.25 557 742.2 556.17 742.47 555.59 741.57 554.65 741.69 553.88 742.89 553.73 744.54 552.91 745.73 552.54 747.08 552.37 747.62 552 749.03 551.94 750 552.8 751.28 553.22 752.56 551.9 753.14 551.78 753.49 551.06 753.2 550.2 753.82 548.84 753.39 548.64 754.02 547.87 755.23 547.65 756.23 548.04 756.34 548.41 757.46 549.2 757.4 549.65 758.56 550.82 759.8 551.35 761.21 550.33 762.85 550.8 763.1 552.19 763.66 552.71 766.47 554.31 766.39 555.71 767.14 556.38 768.75 556.99 768.96 557.7 770.26 558.79 768.88 560.36 768.94 561.06 769.75 561.43 771.82 560.91 772.52 561.8 773.37 561.89 776.37 564.58 775.43 565.12 773.6 565.61 774.34 566.78 774.28 567.35 774.76 567.85 774.73 569.4 775.31 570.33 776.43 570.66 778.67 570.58 781.3 571.44 781.34 573.29 782.24 574 784.15 574.4 785.22 575.85 786.48 575.74 787.69 576.18 786.76 578.18 787.79 580.33 789.2 581.08 789.79 581.14 790.8 582.03 791.62 581.92 795.57 582.64 796.28 583.1 797.43 583.34 797.86 583.13 798.3 583.69 798.26 589.64 798.28 596.45 798.21 599.19 798.23 609.88 798.29 616.41 798.28 628.63 798.37 629.93 798.29 642.13 798.51 644.72 798.61 655.77 798.58 664.63 798.61 678.22 798.76 693.57 798.78 705.36 798.75 707.81 798.85 724.39 798.81 730.43 798.95 746.02 798.93 753.82 798.94 764.7 798.93 776.61 798.96 788.06 798.97 797.94 799 809.54 798.68 827.14 798.56 839.82 798.53 854.4 798.55 861.62 798.52 866.8 798.53 884.01 798.57 889.7 798.56 894.91 798.59 901.93 776.07 901.98 764.57 901.99 752.1 902.06 747.26 902.11 742.37 902.21 734.88 902.23 707.97 902.24 694.29 902.34 684.43 902.33 681.75 902.37 674.32 902.36 660.56 902.44 656.08 902.51 653.6 901.96 651.46 902.01 638.94 902.02 628.93 902.02 617.3 902.06 610.38 902.05 593.77 902.11 576.05 902.18 555.2 902.33 547.13 902.38 526.88 902.57 516.61 902.66 503.18 902.81 485.14 903.02 460.7 903.33 442.27 903.61 434.75 903.67 431.11 903.63 427.1 903.44 419.72 903.04 413.11 902.95 388.24 902.91 386.15 902.88 369.68 902.87 352.25 902.85 347.79 902.89 341.43 902.85 336.03 902.64 330.57 902.53 316.44 902.05 313.35 901.92 308.23 901.93 302.56 902.17 297.93 902.28 293.27 902.47 290.56 902.47 287.95 902.59 284.81 902.63 274.52 902.65 261.48 902.62 245.47 902.63 231.18 902.57 209.29 902.55 193.43 902.56 180.42 902.57 172.68 902.52 167.38 902.61 155.13 902.62 152.43 902.47 129.6 902.45 127.84 902.49 117.93 902.5 113.57 902.63 104.24 902.58 96.88 902.48 86.81 902.49 71.22 902.43 48.25 902.31 40.96 902.29 31.14 902.31 28.91 902.13 28.89 894.19 28.92 887.01 28.86 886.08 28.91 876.32 28.89 862.45 28.92 856.17 28.87 853.83 28.88 843.38 28.88 827.87 28.85 821.72 28.87 807.67 28.91 795.16 28.87 785.7 28.9 777 28.85 770.16 28.86 763.62 28.82 753.58 28.85 747.82 28.85 734.92 28.85 725.18 28.84 711.11 28.81 703.18 28.86 699.57 28.82 690.95 28.84 678.96 28.89 676.91 28.85 669.41 29.44 668.41 29.42 667.61 28.13 666.75 28.18 666.06 29.3 665.06 30.63 665.31 30.91 664.05 29.69 663.51 29.79 662.81 31.36 662.26 32.62 662.1 33.39 662.23 34.55 661.59 34.39 660 35.35 658.27 35.2 656.83 34.79 655.67 36.84 655.4 37.23 655.22 37.54 653.88 37.2 653.36 36.33 652.94 36.37 652.19 37.1 651.53 37.27 650.37 35.94 650.25 36.08 649.89 37.37 649.42 37.21 648.81 36.03 648.79 35.37 647.92 36.48 647.67 37.61 646.84 40.2 646.64 40.54 645.89 39.38 644.25 40.31 643.49 40.71 641.98 40.41 641.05 39.57 640.12 38.06 639.37 37.56 638.89 35.73 638.35 35.47 636.52 35.51 635.32 35.23 633.66 36.5 633.01 39.39 632.67 40.82 631.83 41.51 630.9 41.35 630.16 41.85 629.4 43.32 628.32 43.71 626.69 44.73 626.12 45.05 625.39 45.68 624.85 45.9 623.82 45.7 622.67 44.69 621.54 43.24 621.2 42.2 620.59 41.98 620.12 40.59 619.74 38.78 620.05 36.5 619.66 35.88 619.22 35.67 617.94 36.12 616.72 35.59 615.28 35.89 614.51 35.45 613.51 34.07 613.13 31.25 612.99 30.1 613.12 29.03 612.72 28.18 612.71 26.84 613.46 26.34 615.02 25.66 615.27 25.01 614.99 24.74 614.29 23.62 613.3 22.2 612.55 20.58 611.2 20.24 610.04 18.87 608.68 17.92 608.58 16.85 608.89 15.44 610.02 14.95 610.96 14.1 611.44 12.07 611.57 10.36 611.39 8.56 610.32 6.49 609.26 5.57 608.32 4.27 607.5 3.61 606.31 4.24 605.17 5.83 604.58 6.45 603.92 7.08 602.6 7.54 602.41 7.85 601.59 7.03 600.13 6.2 599.68 5.64 598.99 4.36 598.35 2.02 596.59 1.67 595.49 1 594.38 1.05 593.67 2.28 593.12 3.03 592.55 4.6 589.73 4.41 587.78 4.64 586.89 4.35 585.62 3.91 585.11 3.76 584.19 3.27 583.51 3.44 582.44 4.43 582.13 5.45 582.16 6.51 581.38 7.5 579.93 7.62 579.08 8.91 577.4 10.76 577.33 11.55 577.11 12.66 576.26 13.73 574.48 13.88 572.98 13.24 572.35 13.49 571.52 15.04 570.67 16.22 569.56 16.14 568.48 16.77 565.59 17.36 564.47 18.35 563.99 19.64 562.24 19.64 561.35 20.06 560.78 19.82 560.09 19.94 559.15 20.54 558.62 21.88 557.98 22.17 557.14 21.89 556.65 22.1 555.61 22.99 554.54 24.07 554.14 24.5 551.82 24.27 551.11 24.78 550.68 25.82 550.42 26.13 549.26 26.59 548.8 28.5 548.03 29.5 548.07 30.38 547.32 32.24 547.39 33.53 546.87 36.56 544.93 38.85 544.57 39.58 544.09 40.69 543.81 41.19 542.9 40.83 542.29 41.01 541.38 41.54 540.66 42.19 540.32 44.41 537.26 45.14 537.01 45.59 535.74 45.33 534.82 46.46 534.63 47.27 534.23 48.24 533.15 49.62 532.65 51.28 530.46 51.73 528.77 52.5 527.72 53.01 526.57 53.08 525.82 53.91 524.61 53.43 523.63 52.05 522.23 51.41 521.16 51.65 520.68 53.33 519.95 54.65 518.24 53.32 518.05 52.81 518.24 52.42 519.16 51.33 519.59 50.63 518.99 50.62 518.23 52.28 515.81 52.24 514.21 51.86 513.08 52.56 512.14 54.79 511.12 56.18 509.78 56.92 509.47 58.37 508.23 59.2 506.99 60.12 506.08 60.15 503.94 61.26 502.41 63.87 501.32 64.1 500.32 64.87 500 65.04 498.87 66.61 498.16 67.2 497.41 67.29 496.14 67.79 495.02 67.78 493.92 68.62 492.26 69.67 489.86 69.64 488.03 70.37 486.62 70.42 485.09 71.06 484.43 71.41 483.21 72.01 482.04 74.15 480.48 74.46 479.28 74.46 477.99 74.16 475.43 74.62 474.31 76.66 471.09 79.61 467.41 80.76 465.28 81.32 464.73 84.1 462.86 84.67 461.28 85.29 458.98 86.87 457.74 87.86 457.32 88.28 456.83 89.59 456.4 89.57 455.13 89.07 454.2 89.81 452.12 89.23 451.18 89.43 450.73 90.61 450.14 91.37 449.04 91.97 448.55 92.45 447.16 92.99 446.58 93.53 445.38 93.27 444.74 94.26 444.33 95.13 444.36 96.13 443.78 96.19 443.16 97.39 442.33 98.97 441.6 98.75 440.95 99.12 440.31 99.74 440.03 101.32 438.4 101.34 436.73 100.13 435.56 100.31 435.09 98.86 434.43 98.9 433.62 98.21 433.06 98.08 432.22 97.05 431.39 95.94 430.79 94.37 429.1 93 428.27 92.12 427.01 91.73 423.81 92.05 421.48 91.27 420.16 90.45 419.15 88.99 418.78 87.97 417.78 86.97 417.41 84.52 415.71 81.59 415.27 80.71 415.36 79.65 414.95 78.67 415.42 77.44 415.62 75.9 415.55 75.37 415.32 73.37 413.74 72.35 411.97 71.79 411.58 71.15 410.33 69.81 409.78 68.72 409.58 66.45 409.6 63.96 410.77 62.74 410.88 61.34 410.01 60.33 409.78 59.53 408.9 59.6 407.32 58.54 405.54 58.48 405.13 57.55 404.66 56.21 403.02 55.56 402.6 52.32 401.05 51.98 400.57 50.66 399.61 49.46 397.96 48.96 396.68 49.01 396.22 48.36 394.71 48.25 393.09 47.66 392.61 46.27 392.38 45.81 391.27 45.98 390.16 43.68 388.68 42.9 387.86 Z" fill="none" stroke="currentColor" stroke-width="1"/>
</g>
</svg>