<?xml version="1.0"?>
<svg width="20" height="20" xmlns="http://www.w3.org/2000/svg" version="1.2" baseProfile="tiny" viewBox="-322.100 -99.600 1444.200 1444.200" stroke-linecap="round" stroke-linejoin="round">
<g id="state">
<path d="M 52.37 531.19 52.18 530.42 51.98 527.56 51.02 526.16 51.14 524.31 50.92 523.34 49.9 522.05 49.57 520.55 49.69 519.5 48.94 518.18 47.93 516.9 46.33 516.56 45.33 515.92 45.03 513.88 46.1 512.91 47.86 512.74 48.41 512.26 48.97 510.69 49.17 508.49 51.1 506.26 51.3 503.13 52.59 502.22 52.99 501.37 52.9 500.61 52.3 499.79 51.65 499.78 49.71 496.45 48.38 495.22 47.85 494.36 47.78 493.28 49.07 490.54 49.26 489.61 49.03 488.03 48.3 485.44 47.11 483.32 45.22 481.36 45.25 480.54 45.95 479.21 46.07 478.41 45.63 477.38 44.82 476.74 43.51 476.25 41.85 474.42 41.58 473.51 41.69 470.91 40.45 469.69 38.5 469.31 37.22 468.31 36.95 467.37 37.04 465.34 37.39 464.64 38.9 463.2 39.73 460.83 40.26 458.34 40.69 457.43 40.83 456.18 40.28 454.83 40.61 445.2 41.26 428.97 41.71 417.33 42.43 397.72 42.63 393.44 43.21 378.04 43.62 368.74 44.38 347.5 44.5 345.14 45.04 331.07 45.96 307.8 46.13 302.61 46.55 292.29 47.29 273.4 47.7 261.59 48.04 250.31 48.27 245.18 48.76 229.9 49.11 219.81 50.01 196.44 50.26 191.01 50.51 183.75 51.29 165.71 51.78 155.15 52.76 138.71 54.15 112.55 55.07 89.04 56.03 67.72 56.37 61.62 56.76 52.86 57.07 44.96 58.09 22.92 58.94 1 90.88 2.11 120.77 3.13 130.3 3.4 145.1 3.76 157.74 4.15 173.06 4.53 172.61 21.33 171.92 46.93 171.61 59.05 171.09 77.53 170.59 96.24 170.15 113.2 169.46 139.24 168.9 159.99 168.22 185.14 169.45 186.14 170.41 185.94 171.23 187.33 173.03 189.86 173.09 191.18 174.03 191.98 174.86 194.53 175.53 194.82 175.76 196.02 177.35 196.39 177.81 196.99 177.48 198.59 179.19 200.03 179.59 200.93 180.95 202.36 181.25 203.25 183.05 206.59 183.13 207.29 184.14 207.4 184.5 208.58 185.13 209.17 187.52 208.08 188.31 209.41 188.73 210.69 190.89 212 191.05 213.14 191.69 214.35 191.24 215.14 191.17 216.89 191.52 218.14 191.29 219.31 192.09 220.41 192.7 222.24 192.62 223.75 193.13 224.9 193.97 225.35 196.27 224.43 197.11 224.59 197.54 225.55 198.38 226.15 199.03 227.35 198.67 228.19 198.57 229.45 199.06 230.65 199.81 231.67 201.36 231.47 202.24 231.83 204.77 234.01 205.76 235.81 205.04 238.12 205.25 239.53 204.51 240.6 204.66 241.17 203.98 242.77 204.64 245.05 206.67 246.31 207.32 246.46 208.85 248.42 208.94 249.41 208.27 250.67 208.44 251.95 208.96 252.3 209.07 253.78 208.48 254.57 207.71 254.98 207.24 256.55 205.48 256.73 205.34 257.46 204.35 257.87 203.07 258.94 202.65 259.71 201.41 260.84 201.25 261.57 201.69 262.69 202.99 263.37 203.51 263.12 204.26 263.88 206.42 264.47 207.06 264.04 208.03 264.71 208.37 265.36 206.45 266.13 206.7 267.51 207.94 269.86 208.88 270.09 209.29 272.93 210.79 272.7 211.52 272.3 212.19 273.31 212.29 274.24 213.93 274.25 215.46 273.64 216.06 274.01 215.35 276.19 214.71 277.5 212.71 278.36 210.29 278.51 209.87 278.01 208.6 277.8 207.27 278.61 205.49 278.55 203.78 279.88 201.91 280.28 201.18 282.06 200.32 283.5 201.33 283.83 202.8 283.11 203.69 283.41 204.9 283.28 204.91 284.1 205.92 285.11 208.39 285.22 209.08 285.94 210.32 286.28 210.23 287.49 212.44 287.94 212.66 289.06 213.29 289.35 213.71 290.16 213.45 291.13 214.08 292.01 214.8 291.62 215.63 291.69 217.17 291.16 218.99 292.09 219.7 293.12 221.89 293.95 221.97 295.75 223.22 296.59 224.28 296.36 225.24 297.6 225.03 299.93 226.38 300.81 226.09 301.45 226.55 302.76 227.49 304.66 227.51 306.06 229.22 306.6 230.01 307.38 232.07 307.92 233.07 309.33 234.93 308.29 236.02 309.34 235.99 309.92 237.44 310.17 238.47 309.61 239.7 309.63 240.4 310.17 240.32 311.18 241.43 312.48 244.08 312.25 244.64 311.93 245.68 312.51 246.31 312.42 247.7 313.42 248.35 312.99 249.31 313.28 249.91 312.9 251.97 314.08 252.58 314.87 251.83 315.95 252.52 317.61 253.39 318.8 254.85 319.57 255.3 320.5 255.68 322.16 255.13 323.07 254.46 325.21 254.68 326.25 255.68 326.4 256.16 327 259.17 327.41 259.82 328.56 259.95 330.72 260.64 331.37 261.33 332.86 263.81 333.19 264.76 334.29 266.69 335.35 268.13 336.7 268.06 337.52 269.67 339.78 269.75 340.68 271.19 341.59 273.13 341.68 273.58 342.59 273.28 343.29 273.64 345.66 274.59 347.49 275.68 348.49 277.56 351.13 278.53 351.14 279.8 351.66 279.68 352.47 280.45 353 280.68 354.75 281.4 355.22 281.88 357.14 281.49 357.31 282.37 359.7 282.05 360.6 282.84 361.19 283.36 362.44 284.17 363.12 283.91 364.2 284.39 365.16 286.31 364.82 286.73 364.11 288.76 364.37 290.02 364.81 290.05 365.55 290.94 366.99 291.86 368 291.75 368.67 292.49 369.17 293.7 370.71 294.38 370.83 295.06 371.63 294.8 372.19 295.79 372.87 297.08 373.34 297.92 374.11 298.97 374.17 299.46 375.41 298.57 375.86 297.65 378.07 298.31 380.74 298.15 381.86 297.13 383.16 296.68 383.21 296.16 384.51 296.81 385.2 298.54 385.58 299.08 386.73 298.52 387.54 298.5 388.81 299.25 390.2 301.12 391.29 302.13 391.33 302.56 392.25 302.09 393.63 302.44 394.93 303.02 394.77 303.48 393.62 306.07 392.76 306.62 393.28 306.68 394.32 307.12 395.04 308.71 396.44 309.47 396.62 310.26 398.26 311.68 398.69 312.81 398.5 313.86 399.56 315.6 399.25 315.93 400.95 317.1 401.52 317.11 402.02 318.16 402.83 317.82 404.82 317.86 406.25 317.07 407.47 316.57 407.51 315.96 408.41 316.03 409.62 315.25 410.57 316 411.65 317.65 412.24 317.88 413.63 319.62 413.6 321.15 411 322.57 410.57 323.94 410.66 324.72 410.02 324.95 408.35 325.67 407.79 326.12 406.07 327.61 406.73 328.32 406.32 329.42 406.74 330.31 406.3 331 407.11 332.41 407.67 332.65 409.1 333.36 409.38 334.07 410.48 335.08 411.07 335.58 411.95 335.09 413.92 335.22 414.83 334.2 416.05 333.03 416.83 333.23 418.12 334.04 418.52 333.21 419.32 333.76 420.41 335.48 420.64 336.2 421.1 336.6 422.51 336.02 423.21 336.41 424.09 337.31 424.55 338.03 424.49 338.76 425.08 339.88 425.01 341.68 423.28 342.48 423.72 343.18 423.16 344.52 422.99 345.1 422.13 347.26 423.8 349.12 424.02 350.01 423.68 350.44 424.37 352.45 425.36 354.17 425.39 355.68 423.79 355.78 422.46 359.38 420.34 360.63 421.02 361.29 420.34 361.85 420.55 362.98 419.6 364.41 419.97 364.92 419.27 367.43 418.95 368.02 419.86 369.96 420.09 370.71 420.63 371.46 421.66 371.93 422.81 371.67 423.4 371.97 424.29 371.74 426.53 371.03 427.56 371.66 429.21 370.96 430.27 370.74 431.17 370.03 432.19 369.04 432.84 369.6 433.35 370.3 434.78 370.6 435.93 369.58 437.42 369.15 439.03 368.56 439.63 369.03 441.38 368.44 442.74 368.62 444.17 369.1 444.69 369.13 445.53 368.47 446.88 367.09 447.83 366.07 447.79 365.15 448.38 364.16 447.78 362.83 448.07 361.89 448.57 361.79 450.02 362.05 450.72 362.02 452.45 362.8 454.07 364.2 454.64 364.64 455.69 364.02 457.85 365.06 458.78 365.54 458.82 365.92 459.89 364.69 460.14 363.95 461.45 364.09 463.06 363.94 464.31 362.88 464.69 361.92 466.03 361.08 466.15 360.86 466.94 359.33 468.58 360.1 470.98 360.81 472.38 360.23 476.96 360.31 477.66 359.46 478.46 359.27 479.68 358.14 482.07 357.91 482.94 358.54 485.49 358.87 486.06 358.6 486.85 357.66 488.02 356.5 488.72 355.41 489.03 354.03 488.62 353.31 490 354.02 492.32 353.76 493.18 355.57 494.26 356.09 496.16 356.34 498.06 355.58 498.84 355.76 499.61 356.61 501 356.46 501.65 356.34 507.19 354.81 506.79 352.7 508.41 351.7 507.99 350.95 507.21 349.81 507.26 348.71 507.73 347.72 507.38 347.81 509.67 346.93 510.16 346.25 511.1 347.42 512.84 346.97 514.44 347.36 515 348.96 515.89 349.72 515.81 350.98 516.85 352.7 516.84 353.13 518.16 354.33 519.43 354.51 520.23 354.17 522.96 352.92 523.24 352.94 524.58 353.56 525.19 353.23 525.91 351.96 527.01 350.31 527.5 350.06 528.76 348.67 529.97 348.58 531.26 349.81 531.85 350.78 531.86 351.86 531.41 352.77 534.22 352.69 534.53 350.95 536.04 351.3 537.43 352.47 538.19 353.9 537.22 354.62 537.24 355.13 538.39 355.76 538.99 357.38 538.96 358.66 539.5 359.09 540.1 360.26 540.73 360.28 541.34 361.45 543.24 361.38 544.25 360.31 545.09 359.84 545.92 358.62 546.69 357.81 548.09 359.81 550.52 359.67 551.2 359.98 552.4 361.08 553.8 362.24 554.24 362.53 555.85 363.19 556.4 363.12 557.3 362.54 558.13 362.16 559.46 360.88 559.68 360.41 563 358.64 562.24 356.96 561.03 355.98 561.2 355.06 562.17 354.02 562.33 352.93 562.97 352.3 563.83 351.08 562.94 349.23 563.21 348.83 563.91 348.08 564.02 347.13 565.71 347.66 566.78 347.35 567.38 345.42 568.67 345.4 570.26 343.67 572.36 343.73 573.75 342.34 574.35 341.56 575.46 341 576.78 342.08 578.27 342.86 578.35 343.68 579.19 343.33 580.47 343.25 581.99 344.74 582.72 345.85 584.76 347.24 584.8 348.62 585.81 348.77 586.63 349.42 587.73 349.71 588.92 348.93 590.76 347.97 591.51 347.38 592.5 348.94 592.75 349.21 593.38 348.8 594.25 349.12 595.21 348.28 596.38 348.13 597.06 346.24 598.58 345.43 598.01 344.17 598.34 343.86 599.82 342.65 599.77 341.13 600.6 341.21 601.65 342.42 603.91 343.49 604.26 344.3 606.17 343.1 607.3 341.74 609.98 342.42 611.37 341.94 612.01 341.63 613.32 340.85 613.82 340.91 614.67 341.43 614.41 342.43 614.82 342.94 614.11 344.88 613.29 345.55 612.41 346.77 612.86 348.1 614.45 349.29 615.1 350.75 614.05 352.2 613.75 353.2 614.27 354.36 614.19 353.56 615.43 353.41 617 354.49 617.16 355.27 618.1 356.37 618.44 356.81 619.59 357.43 620.32 357.64 621.87 358.39 623.33 359.68 623.42 362.24 624.55 362.67 624.46 364.34 626.06 365.22 626.35 365.67 627.89 366.08 628.44 366.37 629.8 367.33 630.21 367.38 630.92 368.18 632.12 369.97 631.72 370.64 631.04 371.76 630.47 372.5 630.43 373.47 629.8 373.77 629.11 374.63 628.57 376.07 628.62 377.41 627.77 377.4 626.66 378.46 625.95 378.84 623.08 379.46 622.4 380.24 620.7 380.06 618.96 379.71 618.45 380.11 617.11 381.14 616.87 382.65 616.93 383.41 617.54 385.22 618.41 385.45 618.74 386.76 618.7 387.25 618.31 387.69 617.21 388.55 616.05 389.89 616.18 390.38 615.86 391.84 615.76 392.23 614.92 394.01 615.04 394.9 613.57 394.52 612.38 395.37 610.75 396.05 610.26 398.84 609.76 400.19 609 400.7 608.05 400.65 606.13 400.83 605.45 401.78 604.81 401.91 603.73 402.59 602.54 404.47 601.71 406.6 599.08 408.22 599.01 408.99 598.17 409.18 597.2 408.51 595.2 407.38 594.21 409.1 592.71 408.51 591.15 410.22 590.88 411.32 590.37 411.61 589.32 412.33 588.8 413.35 589.43 414.28 589.4 414.81 591.38 415.49 591.66 416.63 591.44 418.4 590.59 418.88 590.84 419.18 592.11 419 593.02 419.42 593.69 419.35 594.56 420.69 596.18 420.83 597.27 421.65 597.98 422.33 598.08 423.83 599.74 422.95 600.85 423.07 602.14 422.69 603.12 424.74 604.39 425.81 604.19 427.93 603.27 429.62 603.94 430.24 605.21 431.38 605.68 432.37 605.13 433.37 606.06 434.26 606.44 434.83 607.16 435.17 608.75 435.83 609.84 435.75 610.71 434.78 611.29 433.32 613.86 433.49 615.03 432.97 616.76 432.43 617.38 432 618.56 431.52 621.47 433.25 621.02 434.41 621.59 435.38 621 437.95 621.21 438.3 620.99 439.87 621.45 439.05 622.55 439.27 623.69 440.04 625.2 440.23 626.69 440.63 627.49 440.65 628.48 439.49 629.78 438.63 630.2 438.88 631.14 438.64 631.93 437.65 633 437.74 633.54 438.87 634.5 438.59 636.58 438.99 637.11 440.04 637.22 440.7 637.91 439.88 638.94 438.54 639.78 438.97 641.58 440.46 641.53 442.03 642.19 442.75 643.36 443.87 644.03 444.1 645.5 443.88 646.23 444.06 647.42 443.32 648.21 443.97 648.98 444.27 650.12 443.88 651.75 443.15 652.43 443.37 655.07 444.63 656.8 445.88 657.34 445.85 657.79 446.95 660.12 447.73 660.44 448.13 661.61 449.79 662.76 450.84 664.54 450.28 665.06 449.23 665.17 449.1 666.6 450.1 668.49 450.77 669.15 452.39 669.65 453.79 670.85 454.55 671.84 454.82 673.38 456.12 674.94 456.13 675.73 457.75 676.8 459.09 678.32 460.06 679.16 460.79 679.27 461.21 680.4 461.72 680.55 462.06 681.87 461.48 683.22 461.94 684.68 461.93 685.64 462.83 686.01 463.22 686.94 465.1 687.22 463.69 689.98 464.57 691.16 466.58 692.23 467.09 693.2 468.72 693.25 469.5 692.59 470.76 692.8 471.68 692.47 472.55 694.02 471.71 695.66 470.55 696.96 471.55 698.12 473.83 698.81 474.98 699.99 475.23 701.87 476.3 702.13 477.53 702 478.3 701.59 479.34 702.59 479.69 704.82 478.89 705.94 480.09 707.04 479.8 709.49 481.06 711.32 481.09 712.02 480.06 713.32 480.29 714.45 480.05 715.65 480.28 717.89 479.76 718.24 480.48 720.06 480.17 720.81 479.38 721.43 478.48 721.42 477.95 722.13 476.87 722.16 475.93 721.82 475.12 722.43 473.94 722.28 473.63 723.28 474.49 725.32 474.55 726.35 475.54 727.2 476.88 729.17 476.55 731 476.21 731.44 477.7 732.3 478.4 732.99 478.23 733.85 478.9 734.99 479.19 736.74 480.5 737.31 481.06 738.36 482.46 738.58 483.32 740.74 483.34 741.58 484.94 741.05 486.84 741.71 488 741.59 489.03 742.13 489.03 742.78 490.48 744.01 491.52 744.55 491.89 745.3 492.89 748.36 491.87 748.99 492.09 749.79 493.67 750.87 495.22 750.08 496.39 749.04 498.54 748.3 498.85 747.59 500.65 746.59 501.96 745.57 503.24 745.23 503.93 744.56 505.32 744.02 506.52 745.61 507.31 745.55 508.43 746.14 510.09 746.41 510.82 747.31 511.98 747.63 513.31 749.06 513.87 750.25 515.91 751.71 516.29 751.36 517.58 751.6 519.68 752.52 519.96 754.09 519.17 755 519.55 756.25 520.7 756.78 521.39 757.44 521.88 758.47 521.79 759.73 522.39 759.63 523.76 760.32 523.96 762.28 523.82 764.35 524.79 766.33 526.29 766.95 526.62 767.66 526.31 768.31 527.04 768.89 528.09 769.16 527.91 770.79 528.11 772.82 528.64 773.79 528.48 774.47 530.22 776.53 530.48 777.99 529.54 779.84 527.73 780.3 527.08 781.4 525.69 783.18 526.68 783.6 528.26 784.75 528.99 785.56 528.37 786.74 529.85 787.74 531.9 788.81 532.31 789.87 531.22 790.81 530.9 792.18 532.08 793.68 533.15 794.15 533.9 794.12 534.97 795.45 536.12 796 536.29 797.12 534.98 797.82 534.89 799.91 533.65 801.45 534.54 803.52 536.32 805.79 536 807.03 536.38 808.51 536.89 809.46 538.53 810.59 539.64 812.26 541.81 814.06 543.1 814.12 543.4 815.12 545.06 815.97 545.76 815.75 547.18 816.19 548.15 817.7 549.67 818.28 550.9 817.14 551.85 817.69 551.72 818.84 552.22 820.57 552.26 821.7 552.94 822 553.37 822.94 554.52 823.34 555.61 825.03 556.99 825.39 559.7 823.38 560.88 821.73 561.04 820.05 560.63 818.73 560.97 818.1 559.95 817.85 559.74 816.68 557.44 813.74 559.04 812.3 558.83 810.84 559.29 810.07 560.1 809.64 560.47 808.59 561.41 808.55 562.65 807.07 562.57 806.26 563.91 804.73 564.13 803.95 564.8 803.37 565.81 803.11 567.03 802.38 568.62 801.92 569.81 801.93 570.64 800.16 572.6 799.36 574 799.59 576.3 800.35 576.97 801.37 578.17 801.46 579.85 802.48 582.35 801.66 583.39 801.53 584.42 802.91 585.36 802.09 587.33 801.53 589.46 803.17 590.27 803.23 591.37 802.85 592.62 802.85 593.9 802.46 595.23 802.85 595.69 803.55 598.43 804.07 598.79 805.6 600.17 806.21 601.28 804.87 602.09 804.75 603.52 803.23 605.76 804.52 605.86 805.49 607.33 805.37 608.62 806.57 608.57 807.54 610 807.46 610.85 807.73 611.84 806.93 614.13 808.13 614.6 808.66 617.06 804.87 617.27 802.79 617.96 801.97 618.21 800.59 617.94 797.69 617.91 795.8 618.1 794.93 617.81 794.25 618.34 793.03 619.19 792.45 622.71 792.35 623.26 791.89 623.41 789.84 624.16 789.01 625.34 788.76 626.51 787.16 628.99 787.53 630.23 787.01 632.18 786.97 634.02 787.67 633.8 788.57 634.3 788.86 634.01 790.17 635.13 791.32 637.65 792.04 639.88 793.03 642.24 791.47 643.89 791.99 645.39 791.82 646.52 792.06 647.04 793.59 649.2 794.32 649.63 794.95 650.91 794.54 651.21 793.38 652.8 792.61 653.44 792.67 654.31 791.96 655.98 792.01 656.38 792.34 658.15 792.63 658.98 793.25 658.58 791.01 658.86 790.18 660.03 790.42 660.66 790.88 661.55 790.67 662.46 791.67 663.75 792.08 664.02 791.66 666.13 791.85 666.6 791.57 667.12 790.43 667.72 790.34 667.86 789.51 669.12 789.35 669.38 788.21 673.1 787.92 675.12 788.01 676.13 787.5 676.77 786.55 678.11 787.27 679.31 786.51 679.74 786.75 680.14 788.83 680.97 789.14 681.04 789.71 682.01 790.77 682.93 793.06 684.54 794.31 684.38 794.67 685.65 796.15 687.01 795.66 687.57 794.83 687.29 794.2 688.15 793.07 688.87 792.95 690.13 793.44 691.07 793.25 691.86 792.11 692.97 792.98 693.43 791.65 694.54 790.5 696.74 789.99 697.36 789.64 698.95 789.59 699.85 788.08 700.21 786.8 702.01 787.36 702.86 786.37 704.2 787.21 705.34 787.34 705.77 787.8 707.57 787.47 708.25 787.79 709.24 787.67 711.58 788.41 713.22 787.41 715.21 785.89 715.62 786.3 717.78 786.65 718.83 787.14 720.16 786.76 721.04 787.67 723.02 788.22 723.7 788.95 724.22 790.17 725.09 790.19 726.08 789.16 726.85 789.37 728.59 789.06 730.06 789.38 730.11 788.62 729.8 786.39 728.39 786.66 727.25 785.97 724.99 785.65 724.65 785.11 725.56 784.46 725.7 783.79 723.42 781.94 722.65 779.45 723.27 778.7 722.47 778.2 723.17 776.87 723.51 775.48 725.26 774.22 724.4 773.14 723.44 771.23 725.25 770.57 726.52 771.02 726.98 769.44 727.6 769.08 728.1 767.9 728.84 767.04 728.26 765.96 729.25 764.93 728.21 764.49 727.15 763.39 727.39 762.58 726.47 761.33 726.55 760.27 727.72 760.03 729.3 758.86 730.45 758.31 731.76 758.03 732.26 757.52 733.64 757.39 734.62 758.54 735.89 759.08 737.08 757.22 737.64 757.04 737.95 756.05 737.63 754.87 738.18 753 737.76 752.73 738.34 751.66 739.5 751.33 740.5 751.82 740.62 752.33 741.75 753.37 741.71 753.99 742.89 755.56 744.13 756.24 745.46 754.81 747.08 755.4 747.38 757.29 747.96 757.99 750.78 760.09 750.76 762 751.53 762.9 753.13 763.67 753.36 764.64 754.68 766.09 753.4 768.29 753.5 769.25 754.3 769.73 756.31 768.95 757.03 770.14 757.87 770.24 760.93 773.82 760.03 774.59 758.26 775.32 759.05 776.9 759.01 777.68 759.5 778.35 759.55 780.48 760.15 781.73 761.27 782.14 763.45 781.96 766.07 783.05 766.2 785.58 767.11 786.52 769 787 770.12 788.95 771.35 788.76 772.56 789.32 771.74 792.09 772.85 795.01 774.27 795.98 774.86 796.05 775.89 797.23 776.68 797.05 780.59 797.9 781.31 798.5 782.44 798.78 782.85 798.48 783.32 799.23 783.57 807.39 783.93 816.71 783.99 820.47 784.55 835.1 784.92 844.04 785.52 860.78 785.66 862.55 786.18 879.26 786.53 882.8 787.17 897.92 787.58 910.06 788.27 928.66 789.16 949.68 789.76 965.82 789.85 969.18 790.75 991.88 791.01 1000.14 791.91 1021.49 792.26 1032.16 792.79 1047.06 793.37 1063.37 793.95 1079.04 794.43 1092.57 795.02 1108.45 795.54 1132.56 796.02 1149.92 796.68 1169.88 797.05 1179.76 797.26 1186.86 798.09 1210.42 798.4 1218.21 798.63 1225.34 799 1234.95 776 1235.78 764.27 1236.18 751.54 1236.66 746.59 1236.88 741.6 1237.17 733.96 1237.41 706.48 1238.18 692.52 1238.67 682.45 1238.91 679.71 1239.03 672.13 1239.2 658.08 1239.63 653.51 1239.82 650.96 1239.12 648.78 1239.23 636 1239.51 625.77 1239.71 613.9 1239.98 606.84 1240.1 589.88 1240.47 571.78 1240.83 550.5 1241.32 542.27 1241.5 521.59 1241.97 511.1 1242.19 497.4 1242.52 478.98 1242.93 454.03 1243.47 435.21 1243.92 427.52 1244.02 423.81 1243.96 419.72 1243.71 412.18 1243.16 405.43 1243.03 380.04 1242.94 377.91 1242.9 361.08 1242.81 343.29 1242.7 338.74 1242.73 332.24 1242.62 326.73 1242.29 321.15 1242.1 306.74 1241.32 303.59 1241.12 298.35 1241.08 292.56 1241.35 287.84 1241.44 283.08 1241.66 280.31 1241.62 277.64 1241.76 274.43 1241.77 263.93 1241.67 250.61 1241.44 234.26 1241.21 219.68 1240.9 197.32 1240.46 181.14 1240.17 167.84 1239.89 159.95 1239.66 154.53 1239.66 142.02 1239.38 139.27 1239.11 115.96 1238.5 114.16 1238.5 104.04 1238.24 99.59 1238.3 90.06 1237.96 82.54 1237.61 72.26 1237.31 56.34 1236.74 32.9 1235.81 25.46 1235.54 15.42 1235.21 13.16 1234.88 13.52 1224.01 13.91 1214.18 13.89 1212.91 14.42 1199.55 15.06 1180.56 15.4 1171.97 15.46 1168.76 15.99 1154.45 16.74 1133.22 17.02 1124.8 17.73 1105.56 18.38 1088.44 18.8 1075.48 19.26 1063.58 19.55 1054.21 19.89 1045.26 20.35 1031.51 20.66 1023.62 21.3 1005.96 21.78 992.62 22.47 973.36 22.83 962.51 23.06 957.56 23.46 945.75 24.07 929.33 24.23 926.53 24.57 916.27 25.2 914.92 25.22 913.81 23.98 912.6 24.07 911.65 25.23 910.33 26.54 910.71 26.87 909 25.7 908.22 25.83 907.26 27.41 906.57 28.67 906.4 29.42 906.6 30.61 905.77 30.52 903.58 31.56 901.25 31.48 899.27 31.13 897.67 33.17 897.37 33.58 897.13 33.94 895.32 33.63 894.59 32.79 893.98 32.87 892.96 33.63 892.08 33.85 890.5 32.54 890.29 32.7 889.8 34 889.2 33.87 888.36 32.7 888.29 32.09 887.08 33.2 886.76 34.36 885.68 36.93 885.49 37.3 884.47 36.23 882.19 37.2 881.18 37.67 879.13 37.41 877.85 36.63 876.55 35.17 875.47 34.7 874.78 32.92 873.98 32.75 871.46 32.85 869.82 32.66 867.55 33.95 866.69 36.81 866.33 38.26 865.24 38.99 863.98 38.87 862.96 39.4 861.95 40.9 860.52 41.37 858.3 42.4 857.55 42.75 856.56 43.4 855.85 43.67 854.44 43.52 852.86 42.58 851.28 41.17 850.76 40.17 849.9 39.98 849.24 38.63 848.68 36.83 849.04 34.6 848.42 34.01 847.8 33.87 846.03 34.37 844.37 33.92 842.39 34.26 841.34 33.88 839.96 32.53 839.39 29.77 839.1 28.63 839.24 27.59 838.65 26.76 838.6 25.4 839.58 24.83 841.7 24.15 842.01 23.52 841.61 23.29 840.64 22.24 839.24 20.88 838.16 19.35 836.26 19.08 834.65 17.8 832.74 16.87 832.57 15.81 832.95 14.36 834.45 13.83 835.72 12.97 836.33 10.96 836.44 9.29 836.13 7.57 834.6 5.59 833.06 4.74 831.74 3.5 830.57 2.92 828.92 3.6 827.38 5.2 826.63 5.84 825.75 6.53 823.97 7 823.73 7.34 822.61 6.62 820.58 5.82 819.94 5.31 818.97 4.09 818.04 1.88 815.54 1.6 814.02 1 812.48 1.08 811.5 2.33 810.8 3.09 810.05 4.78 806.24 4.7 803.57 4.98 802.36 4.76 800.62 4.36 799.89 4.26 798.64 3.82 797.68 4.04 796.23 5.03 795.84 6.03 795.92 7.11 794.88 8.16 792.94 8.31 791.78 9.67 789.52 11.49 789.51 12.28 789.24 13.41 788.11 14.54 785.71 14.78 783.67 14.18 782.78 14.46 781.65 16.03 780.54 17.25 779.07 17.22 777.59 17.99 773.66 18.63 772.15 19.62 771.52 20.97 769.18 21.02 767.95 21.46 767.2 21.26 766.24 21.43 764.95 22.04 764.25 23.39 763.43 23.71 762.28 23.46 761.6 23.72 760.19 24.64 758.75 25.72 758.25 26.26 755.08 26.07 754.11 26.59 753.54 27.62 753.21 27.98 751.64 28.46 751.02 30.36 750.04 31.33 750.14 32.23 749.14 34.05 749.3 35.33 748.64 38.38 746.08 40.63 745.67 41.37 745.05 42.46 744.7 43 743.46 42.68 742.62 42.9 741.38 43.45 740.41 44.1 739.97 46.41 735.85 47.13 735.55 47.64 733.82 47.43 732.54 48.54 732.33 49.34 731.81 50.35 730.36 51.71 729.72 53.43 726.79 53.96 724.48 54.76 723.07 55.31 721.51 55.4 720.5 56.27 718.87 55.86 717.51 54.58 715.54 54.01 714.05 54.26 713.4 55.94 712.46 57.29 710.17 56.01 709.85 55.51 710.1 55.09 711.34 54.01 711.9 53.35 711.05 53.38 710.02 55.11 706.75 55.15 704.57 54.83 703 55.56 701.74 57.78 700.42 59.18 698.62 59.92 698.23 61.39 696.58 62.25 694.91 63.19 693.7 63.31 690.77 64.47 688.7 67.04 687.3 67.32 685.93 68.08 685.53 68.29 683.98 69.85 683.07 70.46 682.05 70.61 680.32 71.14 678.8 71.19 677.29 72.08 675.05 73.2 671.79 73.26 669.29 74.03 667.39 74.15 665.28 74.79 664.41 75.19 662.74 75.82 661.17 77.96 659.1 78.32 657.46 78.38 655.69 78.2 652.18 78.7 650.66 80.81 646.31 83.83 641.37 85.03 638.49 85.6 637.76 88.36 635.28 88.98 633.13 89.68 630 91.26 628.35 92.23 627.8 92.66 627.15 93.93 626.6 93.97 624.86 93.54 623.57 94.34 620.74 93.82 619.44 94.03 618.83 95.19 618.06 95.98 616.58 96.57 615.92 97.09 614.03 97.64 613.25 98.21 611.63 97.99 610.74 98.96 610.22 99.8 610.29 100.79 609.52 100.86 608.67 102.05 607.57 103.6 606.62 103.42 605.72 103.8 604.85 104.41 604.49 106.01 602.3 106.09 600.01 104.98 598.37 105.17 597.74 103.8 596.8 103.87 595.68 103.24 594.9 103.15 593.74 102.2 592.57 101.16 591.72 99.72 589.36 98.44 588.18 97.65 586.43 97.41 582.03 97.82 578.85 97.13 577.03 96.39 575.6 95.01 575.06 94.08 573.65 93.13 573.12 90.85 570.71 88.07 570.02 87.23 570.11 86.22 569.52 85.26 570.14 84.08 570.37 82.6 570.22 82.11 569.9 80.26 567.66 79.37 565.21 78.85 564.66 78.29 562.92 77.04 562.13 76 561.81 73.83 561.77 71.39 563.29 70.21 563.4 68.92 562.16 67.95 561.82 67.23 560.59 67.38 558.42 66.45 555.94 66.41 555.39 65.54 554.7 64.34 552.42 63.74 551.81 60.71 549.58 60.42 548.92 59.2 547.55 58.13 545.26 57.72 543.48 57.79 542.86 57.24 540.77 57.21 538.55 56.68 537.87 55.36 537.5 54.98 535.97 55.19 534.45 53.07 532.35 52.37 531.19 Z" fill="none" stroke="currentColor" stroke-width="72.210"/>
</g>
</svg>