<?xml version="1.0"?>
<svg width="20" height="20" xmlns="http://www.w3.org/2000/svg" version="1.2" baseProfile="tiny" viewBox="-239.160 -88.160 1278.320 1278.320" stroke-linecap="round" stroke-linejoin="round">
<g id="state">
<path d="M 793.25 159.92 793.12 164.17 793.13 169.68 793.03 181.16 792.96 195.67 792.97 206.21 792.86 218.4 792.74 238.6 792.78 254.85 792.77 267.61 792.74 270.96 792.8 295.76 792.88 307.2 792.86 313.79 792.95 333.17 792.82 364.39 792.88 379.15 792.81 395.72 792.85 398.76 792.46 425.58 792.16 443.21 791.8 469.79 791.65 487.54 791.65 499.22 791.54 505.26 791.53 513.04 791.44 524.03 791.44 538.14 791.54 563.97 791.63 571.52 791.73 591.57 791.76 603.07 791.82 610.93 791.76 628.56 790.64 627.9 788.93 627.89 788.06 629.63 786.58 630.43 784 630.05 782.49 630.23 780.35 631.52 778.83 633.87 777.01 636.04 774.18 636.77 774.42 637.91 775.4 638.06 777.12 637.6 778.22 638.06 778.72 638.85 776.45 640.89 776.31 642.51 777.91 643.33 777.08 645.96 779.7 648.74 782.03 647.13 783.19 647.15 783.73 648.61 782.29 649.45 783.23 653.35 782.75 655.89 781.17 657.06 781.02 658.03 779.35 659.11 777.58 659.83 777.16 660.9 773.99 661.3 774.29 663.87 773.5 664.16 770.65 664.37 769.83 665.56 770.57 666.22 772.35 666.44 771.36 667.36 769.93 666.62 767.91 667.91 767.62 669.23 766.52 670.82 767.21 671.55 769.62 672.29 769.81 673.35 771.24 673.98 770.09 675.11 768.05 674.7 767.33 676.16 768.42 677.01 770.52 676.79 774.53 677.11 775.41 677.77 775.11 678.81 774.14 679.65 774.16 680.63 775.01 681.43 777.97 681.66 778.91 682.01 779.87 683.29 781.45 684.33 782.76 685.87 783.63 686.45 783.69 687.78 782.12 689.5 784.01 692.87 784.2 693.97 783.4 696.1 782.33 697.51 782.63 698.24 784.72 699.11 782.49 700.05 783.46 700.72 788.51 702.1 789.62 702.68 792.19 703.4 793.21 705.18 795.4 706.57 795.2 708.19 793.88 709.32 793.83 709.96 794.74 711.13 794.25 713.2 792.54 713.87 792.87 715.09 792.51 715.86 793.22 716.66 791.51 717.39 790.78 718.57 789.29 718.66 789.25 719.88 790.55 720.64 791.1 721.54 790.73 722.17 789.07 722.31 788.59 723.15 789.45 724.05 789.26 724.96 787.92 724.72 787.71 725.57 790.65 726.9 792.45 727.28 792.9 727.86 792.74 729.89 793.74 732.27 792.72 734.1 794.23 735.47 796.42 738.4 797.82 739.26 799 741.13 798.33 742.22 797.3 742.72 795.7 742.8 795.19 743.67 796.42 744.04 797.95 743.67 798.66 744.14 798.26 745.94 797.25 747.54 798.74 748.92 798.83 749.47 796.81 750.75 796.36 752.29 794.73 754.17 794.17 755.33 794.15 757.97 791.84 760.58 789 761.86 784.22 762.5 780.63 763.37 778.73 764.3 777.62 766.08 777.6 767.1 776.62 768.34 774.75 768.9 774.02 769.79 775.11 772.13 773.74 773.52 774.14 774.73 772.75 775.83 773.14 777.43 773.69 778.14 775.51 778.26 776.02 778.73 775.3 779.75 773.93 780.03 770.77 778.74 770.2 779.3 770.63 781.79 769.78 782.73 768.67 782.96 767.71 784.21 768.23 785.67 767.86 786.17 765.79 786.94 764.27 788.15 764.52 788.97 766.02 790.67 767.03 792.83 769.17 794.38 769.09 795.33 767.78 796.49 766.36 796.78 764.32 795.71 763.44 796 762.62 797.44 761.12 798.75 758.79 799.89 755.53 801.13 751.4 801.1 749.46 801.65 747.17 804.57 747.22 805.9 748.39 806.23 750.28 806.13 752.2 807.22 752.23 808.47 750.62 809.26 749.82 811.56 749.63 814.39 748.39 816.39 744.48 820.83 742.3 822.88 741.44 823.35 737.26 824.31 735.72 826.17 733.95 827.54 733.28 829.4 731.96 831.92 731.84 833.75 732.34 835.74 732.32 836.98 731.21 839.74 730.32 840.81 728.31 841.8 726.62 841.48 725.94 840.79 725.31 838.84 726.46 836.24 725.7 834.73 724.45 834.43 722.91 835.3 720.94 839.85 719.04 840.93 717.24 842.89 716.39 843.2 715.1 842.8 714.77 841.64 716.91 838.65 716.34 837.34 715.33 836.98 713.64 837.12 711.68 837.82 711.19 838.36 710.67 840.52 708.81 841.35 708.24 842.71 708.89 843.98 710.25 844.74 709.45 845.73 707.87 846.18 706.91 847.45 707.1 848.52 706.64 849.34 705.18 849.42 704.25 847.37 702.34 845.51 701.09 845.63 702.11 846.78 702.75 848.44 702.68 849.54 701.75 851.05 701.6 853.14 702.16 855.38 704.73 858.35 706.78 859.82 710.56 861.7 711.36 862.41 711.9 863.8 711.6 864.8 712.4 865.39 713.72 864.38 713.46 863.37 713.79 862.23 715.17 861.85 716.46 863.14 716.41 864.22 715.08 865.48 712.99 866.56 713.48 867.91 711.62 868.75 709.23 871.23 707.5 870.04 705.83 870.09 704.81 870.47 703.8 872.68 703.75 874.49 702.1 875.16 699.26 874.87 696.13 875.88 695.4 877.43 696.48 879.62 697.81 879.76 703.65 877.74 706.47 876.56 707.35 879.32 705.25 883.11 702.96 884.56 700.97 885.4 697.8 886.3 692.78 886.08 691.72 886.28 690.37 887.23 690.37 888.7 691.96 890.07 693.23 890.13 695.24 889.54 696.33 889.72 697.22 890.65 694.98 892.08 693.89 893.85 693.61 895 694.2 896.84 696.24 900.99 696.17 903.08 695.5 904.07 694.6 904.51 691.83 904.78 691.39 905.12 691.57 907.81 692.64 909.93 692.57 910.56 691.25 911.41 689.08 910.99 687.39 909.52 686.16 909.79 684.91 910.97 685.19 911.79 686.38 912.74 688.14 913.11 691.51 913.34 692.2 913.59 694.27 913.37 694.73 913.71 695.2 915.76 696.09 917.32 695.35 918.44 693.81 918.51 692.95 917.76 689.82 918.04 687.74 918.04 684.55 917.13 681.61 915.17 679.74 915.15 679.3 916 679.88 917.55 681.98 919.16 683.14 920.45 685.13 924.64 686.94 926.48 688.92 927.19 691.59 927.69 693.14 928.5 693.57 929.47 693.04 930.78 692.18 931.32 690.03 931.89 687.21 931.7 686.09 931.42 684.03 930.37 682.68 930.02 680.85 931.07 680.86 932.83 683.39 935.12 684.7 935.82 686.38 936.05 689.65 934.55 691.27 934.2 692.63 934.71 693.18 936.32 691.53 937.92 690.47 942.25 688.97 945.08 686.96 947.49 684.91 949.33 682.2 950.19 680.05 951.22 678.73 952.33 674.91 953.77 673.92 954.59 672.51 956.52 672.14 957.55 669.91 959.4 668.84 960.64 667.37 962.95 666.97 964.02 667.24 967.5 667.54 969.27 668.44 971.39 670.53 975.17 670.46 977.28 670.78 978.82 672.02 980.86 674.28 981.94 677.74 984.5 680.54 988.11 681.35 988.79 683.31 989.39 685.03 990.7 686.26 992.79 686.46 995.92 685.75 997.98 684.17 998.64 683.99 999.4 682.67 1000.93 681.77 1001.39 680.55 1001.03 674.16 1001.35 672.11 1001.34 666.97 1002.38 664.55 1002.56 659.71 1003.55 657.22 1003.65 653.56 1004.26 648.08 1004.33 642.81 1005.13 639.21 1006.41 636.75 1007.48 635.56 1008.48 633.17 1009.67 630.48 1012.3 629.9 1013.1 626.37 1015.26 624.59 1014.79 623.83 1013.69 620.53 1011.67 617.46 1010.58 615.01 1011.37 612.39 1011.95 608.46 1013.65 605.97 1015.64 604.47 1017.44 602.9 1022.81 602.87 1024.76 602.48 1026.48 600.94 1029.49 599.74 1031.25 598.41 1033.94 597.24 1035.61 596.55 1037.18 596.28 1038.63 597.49 1040.43 598.07 1042.36 598.05 1043.47 599.37 1044.75 601.05 1045.78 602.45 1047.25 603.77 1049.96 605.14 1051.43 607.86 1052.82 609.75 1054.6 611.49 1059 611.75 1059.23 612.93 1063.02 614.26 1064.43 614.38 1065.11 612.41 1069.9 610.76 1072.82 611.23 1073.48 610.2 1075.3 610.4 1076.13 609.49 1077.65 607.67 1079.94 606.82 1080.5 602.97 1081.67 601.54 1081.45 598.84 1082.01 596.12 1082.06 593.68 1081.78 588.99 1080.63 587.35 1079.85 584.96 1079.23 584.63 1078.2 582.79 1076.78 581.54 1075.21 579.5 1073.83 576.28 1072.04 574.15 1071.21 571.77 1070.92 568.13 1069.71 563.44 1067.77 561.18 1067.03 558.88 1066.68 555.9 1067.1 554.36 1066.83 552.18 1065.95 550.65 1064.96 547.52 1063.36 542.86 1060.18 542.5 1059.66 539.87 1058.02 532.88 1056.02 527.87 1054.03 524.52 1052.89 521.63 1052.12 516.78 1050.56 513.73 1049.88 513.16 1050.4 511.68 1050.5 506.93 1050.11 506.43 1049.47 504.11 1049.54 499.95 1050.48 497.52 1052.06 494.2 1053.13 492.83 1054.41 492.02 1054.71 488.9 1057.37 486 1059.51 482.79 1062.35 481.71 1063.92 480.46 1067.16 478.38 1070.6 475.13 1073.51 471.76 1075.38 470.84 1075.41 470.04 1077.07 469.21 1077.63 466.89 1080.15 465.6 1081.88 464.8 1083.57 463.89 1087.27 464.21 1089.89 464.76 1091.21 466.33 1093.65 468.29 1095.22 471.53 1097.44 473.73 1098.61 472.01 1099.24 470.36 1099.49 466.36 1100.95 463.29 1100.31 461.98 1099.02 461.34 1096.36 461.39 1095.04 460.71 1092.72 459.73 1091.31 455.34 1088.88 453.04 1086.91 451.34 1083.57 449.5 1080.75 448.5 1082.33 444.44 1082.1 439.01 1081.22 438.4 1083.55 439.08 1085.03 440.27 1086.12 442.3 1087.03 444.97 1087.87 447.24 1089.35 448.49 1090.43 448.96 1091.97 447.79 1095.04 447.25 1095.79 444.79 1097.3 442.11 1096.6 437.13 1092.52 434.35 1091.09 431.41 1089.98 428.15 1089.06 425.32 1087.41 423.73 1085.47 423.65 1083.54 425.36 1079.62 425.53 1077.98 424.91 1076.26 423.83 1074.54 422.87 1073.55 419.01 1071.23 417.81 1070.21 415.6 1067.6 413.69 1064.84 413.08 1063.02 409.54 1057.69 408.4 1055.42 407.25 1051.71 407.28 1050.99 409.2 1046.87 408.63 1045.28 406.68 1044.73 402.83 1045.14 400.36 1042.67 397.77 1039.66 397.15 1038.2 398.27 1033.78 399.2 1032.36 401.36 1030.93 402.57 1029.24 403.96 1028.39 405.87 1027.89 410.49 1027.6 413.53 1026.64 414.36 1025.87 415.09 1024.31 416.6 1017.99 416.52 1016.81 415.42 1013.82 413.9 1010.27 412.78 1008.22 410.56 1005.66 406.54 1002.4 402.87 997.65 401.28 994.76 400.8 993.21 399.16 990.63 397.56 988.68 396.51 984.36 396.69 979.63 398.05 978.9 402 979.83 404.57 979.27 405.58 977.82 405.11 976.11 403.25 974.06 401.4 972.67 399.52 970.91 398.73 969.58 397.71 968.64 397.3 967.7 397.67 966.84 397.48 964.74 397.62 962.38 398.43 959.8 398.44 958.9 397.51 957.46 395.71 956.33 386.22 954.22 384.62 953.57 383.5 952.54 381.91 949.83 381.23 949.18 377.83 947.54 377.37 946.13 375.73 946.28 374.33 946.93 371.12 946.99 369.03 946.44 367.94 945.68 367.48 944.05 368.9 940.64 368.97 938.88 367.13 936.18 365.55 935.15 359.76 932.38 357.64 931.05 355.69 929.56 353.18 926.84 350.35 926.95 348.15 925.88 346.34 925.81 344.82 925.23 343.95 925.89 342.48 924.83 341.73 923.82 341.27 921.99 341.7 921.39 341.37 919.97 338.53 918.74 333.86 915.84 332.34 915.19 331.2 915.47 328.95 916.76 325.41 920.13 321.71 922.07 320.26 922.38 316.35 922.03 313.86 921.27 311.85 920.27 310.73 919.26 306.64 912.43 306.52 911.09 308.31 909.74 308.99 909.59 309.53 908.35 311.98 908.3 314.03 907.01 315.17 906.71 316.46 905.34 316.39 904.38 314.25 904.47 313.3 902.22 308.46 903.51 303.88 904.04 302.14 903.74 299.94 902.38 296.7 898.8 295.2 897.41 291.2 895.36 290.14 893.59 288.6 893.09 285.44 893.37 283.7 893.22 281.83 892.43 279.52 891.14 277.86 889.83 276.39 888.16 276.49 886.39 276.06 884.59 275.54 884.06 270.08 881.55 269.06 881.67 267.31 882.61 266 882.16 258.41 877.88 253.34 874.17 251.33 871.05 246.93 865.15 243.79 862.6 241.87 861.65 238.58 860.79 236.53 859.83 235.15 858.73 231.53 854.37 230.29 852.35 229.57 850.52 228.64 847.11 228.49 845.17 227.55 840.09 227.52 836.77 227.73 835.63 227.51 833.64 227.87 830.19 229.15 827.42 230.82 824.85 232.16 821.5 233.7 819.32 236.8 816.8 239.71 813.88 242.55 812.07 243.94 810.41 244.78 807.92 246.07 802.72 246.2 801.57 246.95 799.79 248.14 795.7 249.06 793.02 250.32 790.77 252.08 788.24 256.88 782.35 258.48 781.49 261.46 779.37 263.42 777.47 264.77 775.14 265.99 771.53 266.22 768.92 265.26 764.34 264.5 762.43 262.75 759.88 261.36 758.71 259.97 756.86 259.41 755.07 259.83 752.24 260.77 751.01 263.52 748.87 265.05 748.13 266.5 746.59 266.73 745.46 268.47 742.98 272.38 740.92 277.07 737.94 278.14 736.41 278.73 734.56 279.85 730.11 279.79 728.9 279.01 727.76 275.32 726.04 273.69 725.09 271.42 724.21 268.47 722.39 264.39 720.66 263.25 720.37 262.27 720.14 257.22 716.22 253.51 714.74 251.81 713.85 249.32 713.65 247.92 713.21 245.17 712.91 243.02 713.03 240.05 712.9 238.04 711.95 236.43 711.52 232.71 709.59 223.52 705.96 220.81 705.26 216.16 705.02 214.22 704.32 211.98 704.23 209.68 704.91 207.75 706 205.82 708.66 205.64 710.79 204.78 712.55 202.27 715.58 200.73 717.14 198.84 717.92 194.55 721.71 192.91 722.85 190.09 723.75 186.8 723.97 185 723.37 177.71 720.24 176.69 719.35 175.22 716.9 172.96 715.29 169.83 712.47 169.75 710.63 168.83 709.15 168.6 708.12 167.59 706.22 167.19 704.89 167.27 701.28 166.65 699.04 164.71 696.37 164 694.52 162.37 692.05 160.92 689.43 160.19 688.53 160 686.49 161.9 685.01 162.83 683 165.22 680.95 166.06 679.94 166.24 677.85 165.56 675.27 164.99 674.01 162.4 670.93 161.46 669.39 160.67 667.02 160.51 663.48 159.63 661.02 159.03 658.62 159.09 655.34 158.22 653.51 158.28 652.11 157.13 647.94 156.54 647 155.34 646.11 152.24 645.11 148.81 641.91 147.23 639.51 145.85 638.81 144.48 637.67 143.92 636.36 142.76 635.64 139.28 634.17 138.39 633.54 134.66 630.21 133.19 629.25 127.52 626.43 124.65 625.23 123.47 624.5 121.41 622.28 118.6 621.62 117.06 620.86 116.01 619.95 115.12 617.96 113.84 617.14 111.35 616.59 108.37 615.57 106.28 614.32 104.14 613.82 102.39 613 98.21 610.7 95.3 608.76 91.56 605.26 90.51 603.66 90.13 599.58 87.95 597.96 85.77 595.12 84.46 592.71 82.86 590.77 77.75 590.13 73.27 589.36 72.39 588.94 69.45 585.62 68.22 579.99 66.77 578.13 65.98 577.64 63.36 576.85 58.55 575.16 55.29 572.97 53.49 570.54 51.17 568.92 50.4 567.86 48.06 565.6 46.63 564.73 43 562.96 41.99 561.8 39.78 560.27 37.04 558.71 33.94 556.72 32.5 555.57 29.86 553.03 29.4 552.18 29.45 549.72 30.36 546.97 30.23 545.9 30.44 543.03 31.06 541.9 30.72 540.37 29.82 538.86 28.13 536.94 21.91 533.46 17.8 531.46 16.75 530.62 16.2 529.59 15.25 526.63 14.19 524.71 13.96 523.45 14.82 520.35 19.31 516.12 19.72 514.68 19.51 513.3 18 511.22 16.09 509.86 14.83 508.41 13.57 506.11 11.63 503.21 10.81 502.82 9.71 500.14 8.29 497.68 6.16 494.71 4.61 491.97 5.66 487.81 4.52 485.12 1.49 474.38 1.3 469.57 1.96 467.9 1.22 465.36 1 463.75 1.7 461.21 2.71 459.84 2.27 458.55 2.22 456.4 2.75 454.67 2.75 453.19 2.31 452.28 2.96 450.86 3.82 450.21 5.48 447.67 5.01 445.6 5.04 443.96 5.61 442.4 7.08 439.51 8.15 437.99 9.62 435.18 10.15 433.02 11.12 431.21 14.26 427.35 15.65 426.41 18.17 425.33 19.6 424.09 20.87 423.29 25.01 422.96 26.6 422.46 28.28 421.37 28.84 419.95 28.77 416.49 27.14 412.36 27.22 410.14 27.8 408.57 29.5 405.59 30.12 404.1 30.63 401.87 30.63 400.29 29.6 397.42 27.06 394.3 25.83 393.34 23.31 392.6 22.23 391.43 22.42 389.06 23.16 388.1 27.48 385.12 31.43 379.69 33.64 378.12 41.32 375.07 42.63 374.7 50.28 373.32 51.9 372.68 53.68 372.42 59.52 372.41 63.6 372.88 66.1 372.54 72.26 369.4 75.48 367.95 78.05 366.39 78.91 365.59 79.98 361.81 80.67 360.78 80.84 358.54 79.92 355.19 81.3 350.25 83.42 347.63 84.54 344.92 84.78 343.69 84.52 341.61 83.63 339.83 83.55 338.56 84.43 336.14 85.01 335.43 87.36 333.8 89.57 331.98 91.7 330.71 94.04 326.75 95.6 325.42 97.32 324.66 98.62 323.64 100.49 320.84 103.2 318.85 105.79 318.05 109.06 316.66 110.27 315.51 110.86 312.97 112.13 310.41 112.44 308.9 111.22 304.62 112.91 301.55 113.64 299.31 113.76 296.77 114.37 293.71 114.1 290.94 113.63 289.41 113.72 288.34 112.97 285.81 113.5 281.41 111.39 278.54 109.67 276.86 108.69 274.76 106.61 272.26 104.96 269.68 103.32 268.32 101.03 267.58 96.94 268.12 94.59 267.54 91.97 263.7 89.82 260.98 86.73 258.01 84.43 256.38 83.54 255.42 80.59 253.13 80.23 250.94 82.16 248.54 83.25 246.67 84.2 244.47 85.65 242.14 87.51 240.66 88.36 238.35 88.59 234.39 89.05 231.03 89.98 227.29 92.5 224.36 93.32 219.22 94.17 218 97.38 216.47 101.74 215.97 105.71 214.47 107.84 214.41 113.03 216.38 116.67 216.91 118.92 216.07 122.24 215.14 124.66 214.09 128.87 211.78 131.2 210.68 133.2 210.23 135.91 210.13 137.71 210.34 143.61 210.47 147.08 210.98 152.22 211.29 155.03 211.2 160.93 210.48 164.28 209.91 167.17 209.08 169.19 209.11 171.26 208.82 172.37 208.24 176.24 205.32 178.67 204.27 181.17 202.44 181.92 200.1 183.29 199.1 186 198.28 189.06 197.72 191.04 196.48 194.08 196.11 195.65 196.34 199.59 197.41 201.49 197.67 204.3 197.67 207.31 197.38 209.87 196.62 213.09 194.12 215.57 191.46 217.66 190.52 219.49 188.34 222.48 186.95 225.78 186.08 229.2 185.48 233.35 183.85 234.08 181.71 233.6 176.77 233.3 172.11 234.64 168.62 235.08 165.63 235.93 164.76 237.98 163.61 239.02 162.6 239.34 161.65 239.29 159.69 238.46 157.82 238.84 154.74 239.95 152.95 241.38 151.64 246.18 148.2 248.94 147.38 257.37 143.08 258.44 142.64 264.18 141.08 265.37 140.31 265.64 139.33 265.39 136.2 264.98 135.14 265.44 133.02 267.15 130.31 267.11 128.86 267.74 126.53 270.33 122.24 271.01 120.54 271.41 115.69 268.97 112.93 268.76 112.15 269.31 109.68 270.96 107.13 272.47 105.7 272.51 104.35 273.59 102.78 273.7 101.34 272.96 99.03 272.28 98.32 271.41 95.91 268.85 93.63 268.39 90.88 268.64 89.77 268.12 86.8 269.22 83.92 269.51 81.27 269.16 78.81 267.56 77.12 263.69 77.01 261.51 75.98 260.73 74.37 259.91 71.67 258.59 70.86 254.86 69.13 251.84 67.93 248.07 67.33 245.47 66.47 242.24 64.73 238.48 63.53 236.32 62.06 234.35 61.61 230.62 61.19 229 60.18 227.01 59.33 223.84 57.21 221.94 54.46 218.23 51.45 217.45 49.47 215.94 46.73 215.91 45.89 217.24 43.73 218.31 40.75 217.86 39.38 218.91 37.9 218.29 36.74 216 35.09 213.1 31.2 211.6 30.63 209.2 28.61 207.41 26.23 206.59 25.69 204.13 25.11 202.18 23.43 198.73 21.95 191.28 19.34 190.66 18.38 190.49 16.7 189.25 14.85 188.16 14.26 181.09 12.32 177.52 10.85 173.44 8.57 172.2 7.61 171.17 5.92 171.22 4.33 173.85 1 188.4 1.17 193.29 1.13 216.83 1.26 221.49 1.31 241.47 1.19 251.39 1.18 270.25 1.03 282.6 1.12 286.88 1.04 295.2 1.15 310.44 1.56 335.1 1.55 367.09 1.68 380.99 1.95 388.22 2.17 403.97 2.38 429.92 2.69 447.96 3.04 467.43 3.23 475.06 3.27 486.73 3.43 501.76 3.48 527.79 3.97 534.77 4.19 544.5 4.29 550.37 4.19 567.5 3.72 578.24 3.66 605.07 3.75 607.02 3.72 621.28 3.77 638.61 3.75 651.49 3.7 669.53 3.57 682.18 3.55 697.73 3.69 704.38 3.71 718.96 3.89 737.96 4.19 738.59 5.86 738.28 6.89 738.85 8.3 738.3 13.6 737.55 16.34 737.71 18.56 737.82 24.44 737.31 25.79 735.48 28.63 735.13 30.17 734.45 30.19 733.33 31.39 733.06 34.97 732.22 36.34 732.43 39.97 731.56 42.1 732.79 48.38 733.36 49.87 734.57 51.98 736.03 55.95 738.08 60.17 739.28 62 743.03 67.02 744.62 68.76 746.14 71.15 751.13 78 753.26 80.43 756.15 83.06 760.11 85.57 762.01 86.41 761.83 86.95 763.99 90.4 764.18 91.47 763.65 92.47 764.07 93.5 764.48 96.2 766.05 99.54 766.73 100.61 767.46 104.18 768.27 106.26 769.12 107.66 770.4 108.7 769.88 109.5 770.03 110.96 771.48 113.3 772.69 118.41 773.71 119.31 773.11 119.77 773.63 121.45 775.03 122.67 776.26 123.21 775.57 125.11 774.9 125.35 774.96 128.03 777.02 128.44 776.63 131.23 776.31 132.73 778.08 136.38 779.68 138.35 781.72 140.85 782.96 144.94 783.59 145.83 786.06 147.98 786.04 148.56 787.28 149.54 789.95 150.2 789.45 151.25 791.88 152.03 792.24 155.07 793.16 156.9 793.04 158.09 792.28 158.52 793.25 159.92 Z" fill="none" stroke="currentColor" stroke-width="63.916"/>
</g>
</svg>