<?xml version="1.0"?>
<svg width="200" height="200" xmlns="http://www.w3.org/2000/svg" version="1.2" baseProfile="tiny" viewBox="-432.300 -114.800 1664.600 1664.600" stroke-linecap="round" stroke-linejoin="round">
<g id="state">
<path vector-effect="non-scaling-stroke" d="M 786.27 212.64 786.2 218.16 786.28 225.31 786.32 240.23 786.43 259.06 786.57 272.75 786.61 288.57 786.73 314.81 786.97 335.9 787.11 352.48 787.13 356.83 787.48 389.02 787.7 403.88 787.76 412.43 788.07 437.59 788.32 478.12 788.55 497.29 788.68 518.8 788.76 522.75 788.69 557.56 788.6 580.45 788.55 614.97 788.61 638 788.74 653.17 788.71 661.01 788.79 671.11 788.83 685.38 788.99 703.69 789.39 737.22 789.57 747.02 789.9 773.05 790.07 787.97 790.21 798.18 790.36 821.06 789.22 820.21 787.5 820.21 786.64 822.48 785.16 823.53 782.56 823.06 781.03 823.31 778.89 825 777.39 828.06 775.57 830.9 772.72 831.87 772.98 833.34 773.97 833.52 775.7 832.92 776.81 833.5 777.32 834.52 775.05 837.19 774.93 839.29 776.55 840.35 775.75 843.77 778.41 847.35 780.75 845.25 781.92 845.27 782.48 847.15 781.04 848.26 782.03 853.31 781.57 856.62 779.99 858.14 779.85 859.4 778.17 860.82 776.39 861.77 775.98 863.16 772.78 863.71 773.11 867.03 772.31 867.42 769.44 867.72 768.62 869.26 769.38 870.11 771.18 870.39 770.18 871.58 768.73 870.64 766.71 872.34 766.42 874.04 765.33 876.11 766.04 877.06 768.47 878 768.68 879.38 770.13 880.18 768.98 881.66 766.92 881.14 766.2 883.04 767.31 884.14 769.43 883.84 773.49 884.22 774.38 885.07 774.1 886.41 773.12 887.52 773.15 888.79 774.02 889.82 777.01 890.09 777.97 890.54 778.96 892.2 780.57 893.53 781.9 895.53 782.79 896.26 782.87 897.99 781.3 900.23 783.25 904.59 783.46 906.02 782.66 908.8 781.6 910.63 781.91 911.58 784.04 912.69 781.79 913.93 782.77 914.79 787.9 916.53 789.04 917.27 791.65 918.19 792.71 920.5 794.94 922.27 794.76 924.38 793.43 925.87 793.39 926.7 794.33 928.21 793.85 930.89 792.13 931.77 792.48 933.36 792.12 934.36 792.84 935.39 791.12 936.35 790.39 937.89 788.88 938.03 788.86 939.61 790.18 940.59 790.75 941.75 790.39 942.57 788.7 942.76 788.22 943.85 789.11 945.02 788.93 946.2 787.56 945.9 787.36 947 790.36 948.71 792.18 949.19 792.65 949.93 792.52 952.56 793.55 955.65 792.54 958.03 794.09 959.79 796.34 963.58 797.78 964.68 799 967.1 798.33 968.52 797.29 969.17 795.67 969.3 795.16 970.43 796.41 970.9 797.96 970.41 798.69 971.01 798.3 973.34 797.3 975.43 798.83 977.22 798.93 977.92 796.89 979.6 796.44 981.61 794.81 984.06 794.26 985.58 794.27 988.99 791.95 992.41 789.07 994.09 784.22 994.97 780.57 996.13 778.65 997.35 777.54 999.66 777.53 1000.98 776.54 1002.6 774.64 1003.35 773.91 1004.51 775.05 1007.54 773.67 1009.36 774.09 1010.92 772.68 1012.36 773.09 1014.43 773.66 1015.34 775.52 1015.48 776.04 1016.1 775.32 1017.43 773.93 1017.8 770.7 1016.15 770.12 1016.88 770.58 1020.11 769.73 1021.34 768.6 1021.65 767.63 1023.28 768.17 1025.16 767.8 1025.81 765.7 1026.82 764.16 1028.41 764.43 1029.48 765.97 1031.67 767.02 1034.46 769.22 1036.47 769.14 1037.69 767.82 1039.21 766.37 1039.59 764.28 1038.22 763.39 1038.6 762.56 1040.48 761.05 1042.19 758.68 1043.69 755.37 1045.32 751.15 1045.3 749.18 1046.03 746.86 1049.84 746.92 1051.56 748.12 1051.99 750.05 1051.84 752.02 1053.24 752.06 1054.87 750.42 1055.9 749.63 1058.9 749.46 1062.56 748.21 1065.17 744.25 1070.95 742.04 1073.64 741.17 1074.24 736.9 1075.52 735.34 1077.94 733.54 1079.72 732.87 1082.15 731.54 1085.42 731.43 1087.79 731.95 1090.38 731.94 1091.99 730.83 1095.57 729.93 1096.96 727.87 1098.26 726.14 1097.86 725.45 1096.97 724.78 1094.44 725.94 1091.05 725.16 1089.1 723.88 1088.72 722.31 1089.85 720.32 1095.77 718.38 1097.18 716.56 1099.73 715.69 1100.15 714.37 1099.62 714.02 1098.12 716.19 1094.23 715.6 1092.53 714.56 1092.07 712.84 1092.26 710.84 1093.18 710.34 1093.88 709.82 1096.69 707.93 1097.78 707.35 1099.54 708.02 1101.19 709.41 1102.17 708.6 1103.45 706.99 1104.05 706.01 1105.69 706.21 1107.09 705.75 1108.16 704.26 1108.26 703.29 1105.61 701.33 1103.19 700.05 1103.35 701.09 1104.84 701.76 1107 701.69 1108.43 700.74 1110.39 700.6 1113.11 701.19 1116.01 703.83 1119.85 705.95 1121.75 709.82 1124.18 710.65 1125.09 711.21 1126.89 710.91 1128.19 711.73 1128.95 713.08 1127.64 712.8 1126.34 713.13 1124.85 714.55 1124.34 715.88 1126.01 715.83 1127.42 714.48 1129.06 712.35 1130.48 712.85 1132.22 710.95 1133.31 708.51 1136.55 706.74 1135.01 705.02 1135.09 703.97 1135.58 702.96 1138.46 702.91 1140.8 701.23 1141.68 698.31 1141.31 695.11 1142.63 694.37 1144.64 695.48 1147.48 696.84 1147.66 702.82 1145.01 705.71 1143.47 706.63 1147.05 704.49 1151.98 702.16 1153.87 700.12 1154.97 696.87 1156.15 691.71 1155.88 690.63 1156.14 689.25 1157.39 689.25 1159.29 690.89 1161.07 692.2 1161.14 694.25 1160.36 695.37 1160.59 696.3 1161.8 694 1163.66 692.89 1165.96 692.6 1167.45 693.22 1169.84 695.33 1175.22 695.27 1177.93 694.59 1179.22 693.66 1179.79 690.82 1180.15 690.37 1180.6 690.56 1184.08 691.67 1186.83 691.6 1187.65 690.24 1188.76 688.01 1188.21 686.28 1186.31 685.01 1186.67 683.74 1188.2 684.02 1189.27 685.25 1190.5 687.06 1190.97 690.53 1191.26 691.23 1191.58 693.36 1191.29 693.83 1191.72 694.33 1194.39 695.25 1196.41 694.49 1197.86 692.91 1197.96 692.03 1196.99 688.8 1197.37 686.67 1197.37 683.38 1196.2 680.36 1193.66 678.43 1193.64 677.98 1194.74 678.58 1196.76 680.75 1198.84 681.95 1200.51 684.01 1205.94 685.87 1208.33 687.91 1209.23 690.66 1209.88 692.26 1210.92 692.71 1212.18 692.17 1213.88 691.29 1214.59 689.08 1215.33 686.17 1215.1 685.02 1214.74 682.9 1213.38 681.51 1212.93 679.62 1214.29 679.64 1216.58 682.25 1219.54 683.61 1220.45 685.34 1220.74 688.7 1218.78 690.36 1218.33 691.76 1218.98 692.33 1221.07 690.64 1223.15 689.58 1228.78 688.04 1232.46 685.97 1235.58 683.87 1237.97 681.08 1239.11 678.87 1240.45 677.51 1241.88 673.58 1243.77 672.56 1244.83 671.11 1247.34 670.73 1248.68 668.44 1251.08 667.34 1252.69 665.83 1255.7 665.41 1257.09 665.71 1261.6 666.02 1263.9 666.95 1266.65 669.12 1271.54 669.05 1274.28 669.39 1276.28 670.67 1278.93 673.01 1280.32 676.59 1283.64 679.5 1288.31 680.33 1289.19 682.36 1289.96 684.15 1291.66 685.43 1294.37 685.65 1298.42 684.91 1301.1 683.29 1301.97 683.1 1302.95 681.75 1304.94 680.81 1305.54 679.55 1305.07 672.94 1305.5 670.82 1305.5 665.51 1306.86 663.01 1307.09 658 1308.39 655.43 1308.53 651.65 1309.31 645.97 1309.42 640.52 1310.46 636.8 1312.12 634.26 1313.51 633.02 1314.81 630.55 1316.35 627.77 1319.76 627.17 1320.8 623.51 1323.6 621.67 1322.99 620.89 1321.57 617.48 1318.94 614.3 1317.52 611.76 1318.54 609.05 1319.3 604.98 1321.5 602.4 1324.07 600.84 1326.41 599.21 1333.37 599.17 1335.91 598.76 1338.14 597.16 1342.05 595.92 1344.32 594.53 1347.81 593.32 1349.97 592.59 1352.01 592.3 1353.89 593.55 1356.22 594.15 1358.73 594.13 1360.18 595.5 1361.84 597.24 1363.18 598.69 1365.09 600.06 1368.61 601.47 1370.52 604.29 1372.32 606.25 1374.64 608.05 1380.34 608.32 1380.64 609.53 1385.56 610.91 1387.4 611.04 1388.28 608.99 1394.48 607.27 1398.28 607.75 1399.13 606.68 1401.49 606.9 1402.57 605.94 1404.54 604.05 1407.5 603.17 1408.23 599.16 1409.75 597.67 1409.46 594.87 1410.18 592.03 1410.25 589.5 1409.87 584.62 1408.37 582.92 1407.36 580.44 1406.54 580.1 1405.2 578.19 1403.35 576.9 1401.32 574.78 1399.53 571.44 1397.19 569.23 1396.11 566.77 1395.72 562.98 1394.14 558.12 1391.61 555.78 1390.63 553.4 1390.17 550.3 1390.7 548.69 1390.34 546.44 1389.2 544.85 1387.9 541.61 1385.81 536.8 1381.67 536.43 1380.99 533.71 1378.84 526.46 1376.22 521.28 1373.6 517.81 1372.11 514.81 1371.09 509.79 1369.04 506.63 1368.14 506.03 1368.81 504.5 1368.93 499.58 1368.39 499.06 1367.56 496.66 1367.63 492.33 1368.82 489.79 1370.84 486.34 1372.21 484.91 1373.86 484.06 1374.25 480.8 1377.67 477.76 1380.43 474.4 1384.08 473.26 1386.11 471.94 1390.31 469.74 1394.76 466.33 1398.49 462.8 1400.9 461.85 1400.92 461 1403.07 460.13 1403.79 457.69 1407.04 456.33 1409.28 455.48 1411.46 454.49 1416.26 454.79 1419.65 455.35 1421.37 456.95 1424.55 458.97 1426.6 462.33 1429.52 464.6 1431.06 462.8 1431.86 461.08 1432.17 456.9 1434.02 453.71 1433.17 452.36 1431.49 451.73 1428.02 451.8 1426.31 451.11 1423.3 450.11 1421.45 445.58 1418.26 443.2 1415.68 441.48 1411.34 439.6 1407.65 438.54 1409.69 434.33 1409.35 428.69 1408.15 428.02 1411.17 428.71 1413.1 429.94 1414.52 432.03 1415.72 434.8 1416.85 437.14 1418.79 438.43 1420.2 438.9 1422.21 437.64 1426.18 437.07 1427.14 434.49 1429.08 431.71 1428.15 426.59 1422.79 423.72 1420.91 420.67 1419.44 417.29 1418.21 414.37 1416.03 412.74 1413.5 412.69 1410.99 414.52 1405.93 414.72 1403.81 414.1 1401.57 413 1399.32 412.02 1398.02 408.04 1394.96 406.81 1393.64 404.56 1390.21 402.61 1386.62 402.01 1384.24 398.41 1377.28 397.26 1374.33 396.13 1369.5 396.16 1368.56 398.22 1363.24 397.66 1361.18 395.64 1360.44 391.64 1360.91 389.13 1357.68 386.48 1353.74 385.87 1351.84 387.1 1346.12 388.08 1344.28 390.35 1342.46 391.63 1340.28 393.08 1339.19 395.07 1338.57 399.86 1338.26 403.02 1337.05 403.89 1336.06 404.67 1334.04 406.33 1325.86 406.27 1324.32 405.17 1320.43 403.66 1315.81 402.53 1313.13 400.27 1309.79 396.16 1305.51 392.44 1299.3 390.84 1295.53 390.37 1293.51 388.72 1290.14 387.09 1287.59 386.08 1281.97 386.35 1275.83 387.76 1274.9 391.83 1276.16 394.49 1275.46 395.56 1273.6 395.1 1271.37 393.2 1268.69 391.32 1266.86 389.41 1264.55 388.62 1262.81 387.58 1261.59 387.17 1260.36 387.57 1259.24 387.4 1256.53 387.58 1253.46 388.47 1250.12 388.49 1248.95 387.55 1247.07 385.72 1245.59 375.97 1242.72 374.33 1241.86 373.19 1240.51 371.6 1236.97 370.92 1236.12 367.44 1233.93 366.99 1232.1 365.3 1232.27 363.85 1233.09 360.54 1233.12 358.39 1232.38 357.28 1231.37 356.84 1229.26 358.36 1224.85 358.47 1222.57 356.62 1219.03 355.01 1217.69 349.1 1213.99 346.94 1212.24 344.97 1210.28 342.44 1206.71 339.53 1206.81 337.28 1205.38 335.42 1205.26 333.86 1204.48 332.97 1205.34 331.47 1203.93 330.72 1202.61 330.29 1200.23 330.73 1199.45 330.43 1197.61 327.53 1195.97 322.78 1192.12 321.24 1191.26 320.07 1191.6 317.72 1193.23 314.01 1197.54 310.16 1200.01 308.66 1200.38 304.65 1199.86 302.11 1198.83 300.05 1197.5 298.93 1196.16 294.88 1187.22 294.78 1185.48 296.65 1183.77 297.35 1183.58 297.94 1181.98 300.46 1181.96 302.6 1180.32 303.77 1179.96 305.13 1178.19 305.08 1176.95 302.88 1177.03 301.95 1174.1 296.95 1175.68 292.23 1176.28 290.45 1175.87 288.22 1174.05 284.98 1169.35 283.47 1167.52 279.41 1164.79 278.37 1162.46 276.79 1161.79 273.54 1162.1 271.76 1161.86 269.87 1160.8 267.53 1159.08 265.85 1157.35 264.38 1155.16 264.53 1152.87 264.14 1150.52 263.61 1149.81 258.08 1146.45 257.03 1146.59 255.21 1147.77 253.87 1147.16 246.2 1141.44 241.1 1136.53 239.12 1132.44 234.77 1124.68 231.63 1121.31 229.68 1120.04 226.34 1118.85 224.26 1117.56 222.87 1116.1 219.3 1110.35 218.08 1107.71 217.4 1105.32 216.54 1100.87 216.45 1098.35 215.63 1091.73 215.69 1087.42 215.94 1085.94 215.77 1083.37 216.23 1078.89 217.62 1075.32 219.41 1072.02 220.87 1067.7 222.51 1064.91 225.74 1061.71 228.8 1057.98 231.75 1055.69 233.21 1053.58 234.13 1050.36 235.59 1043.64 235.76 1042.14 236.58 1039.86 237.9 1034.58 238.91 1031.11 240.25 1028.22 242.12 1024.97 247.17 1017.42 248.82 1016.34 251.92 1013.66 253.96 1011.24 255.4 1008.23 256.73 1003.57 257.03 1000.2 256.18 994.22 255.46 991.74 253.74 988.38 252.36 986.83 250.99 984.41 250.47 982.07 250.97 978.4 251.96 976.84 254.82 974.12 256.39 973.18 257.91 971.21 258.17 969.75 260.01 966.56 264.03 963.97 268.86 960.19 269.99 958.23 270.64 955.85 271.88 950.09 271.85 948.52 271.09 947.02 267.39 944.72 265.76 943.45 263.49 942.27 260.53 939.84 256.45 937.51 255.3 937.11 254.3 936.8 249.29 931.6 245.57 929.6 243.87 928.4 241.35 928.09 239.94 927.49 237.16 927.05 234.98 927.16 231.97 926.92 229.95 925.65 228.34 925.05 224.62 922.46 215.41 917.54 212.68 916.58 207.98 916.15 206.04 915.2 203.77 915.03 201.41 915.86 199.42 917.23 197.39 920.64 197.14 923.4 196.22 925.66 193.58 929.53 191.97 931.52 190.03 932.49 185.55 937.3 183.86 938.74 180.97 939.84 177.62 940.04 175.81 939.22 168.52 934.97 167.51 933.79 166.1 930.58 163.86 928.42 160.78 924.68 160.76 922.29 159.87 920.34 159.68 919 158.72 916.51 158.35 914.78 158.56 910.09 158.01 907.17 156.13 903.65 155.47 901.23 153.91 897.98 152.53 894.54 151.82 893.36 151.69 890.7 153.67 888.83 154.68 886.24 157.17 883.64 158.05 882.35 158.31 879.65 157.7 876.28 157.17 874.63 154.65 870.56 153.75 868.55 153.04 865.44 152.99 860.85 152.19 857.63 151.67 854.49 151.84 850.24 151.02 847.84 151.13 846.03 150.11 840.58 149.55 839.35 148.36 838.16 145.27 836.77 141.92 832.53 140.42 829.37 139.04 828.42 137.7 826.9 137.19 825.19 136.04 824.23 132.59 822.22 131.72 821.38 128.07 816.95 126.63 815.66 121.01 811.84 118.17 810.2 117 809.22 115.01 806.27 112.2 805.34 110.67 804.3 109.65 803.09 108.83 800.49 107.57 799.39 105.09 798.61 102.13 797.19 100.06 795.5 97.93 794.79 96.2 793.68 92.09 790.56 89.23 787.96 85.6 783.29 84.6 781.19 84.39 775.89 82.25 773.71 80.17 769.95 78.95 766.78 77.43 764.23 72.31 763.24 67.84 762.1 66.98 761.52 64.16 757.12 63.15 749.76 61.77 747.3 60.99 746.65 58.4 745.53 53.64 743.19 50.46 740.24 48.76 737.02 46.49 734.85 45.77 733.44 43.51 730.43 42.12 729.25 38.55 726.83 37.59 725.3 35.44 723.24 32.76 721.12 29.73 718.43 28.34 716.9 25.81 713.51 25.38 712.38 25.54 709.19 26.57 705.65 26.49 704.25 26.82 700.54 27.49 699.09 27.22 697.09 26.39 695.1 24.78 692.56 18.71 687.82 14.68 685.09 13.66 683.96 13.17 682.59 12.34 678.72 11.37 676.19 11.2 674.55 12.2 670.55 16.88 665.22 17.36 663.36 17.2 661.56 15.79 658.81 13.95 656.97 12.75 655.06 11.59 652.02 9.79 648.18 8.99 647.65 8.01 644.14 6.71 640.89 4.71 636.95 3.3 633.35 4.54 627.98 3.52 624.45 1 610.39 1.03 604.14 1.77 602 1.15 598.68 1 596.58 1.82 593.3 2.89 591.55 2.52 589.86 2.56 587.08 3.17 584.84 3.23 582.93 2.84 581.73 3.55 579.9 4.44 579.1 6.21 575.86 5.84 573.15 5.95 571.02 6.58 569.02 8.18 565.32 9.31 563.38 10.91 559.78 11.53 557 12.57 554.68 15.87 549.78 17.29 548.6 19.85 547.29 21.33 545.73 22.63 544.73 26.75 544.45 28.35 543.86 30.07 542.5 30.68 540.67 30.77 536.18 29.34 530.76 29.52 527.88 30.16 525.86 31.98 522.05 32.66 520.14 33.27 517.26 33.34 515.21 32.45 511.44 30.07 507.3 28.89 506.02 26.44 504.97 25.41 503.41 25.71 500.34 26.49 499.12 30.9 495.4 35.05 488.48 37.31 486.52 45.05 482.82 46.35 482.38 53.98 480.84 55.62 480.06 57.38 479.79 63.16 479.97 67.18 480.7 69.67 480.34 75.89 476.47 79.14 474.69 81.74 472.75 82.62 471.73 83.84 466.85 84.56 465.53 84.82 462.64 84.05 458.25 85.62 451.88 87.82 448.54 89.03 445.07 89.32 443.47 89.15 440.77 88.35 438.43 88.31 436.78 89.29 433.66 89.89 432.76 92.27 430.71 94.52 428.42 96.67 426.84 99.14 421.76 100.73 420.08 102.46 419.15 103.78 417.86 105.74 414.28 108.48 411.78 111.07 410.82 114.34 409.12 115.58 407.65 116.26 404.37 117.61 401.09 117.98 399.13 116.94 393.54 118.72 389.6 119.53 386.72 119.75 383.43 120.47 379.47 120.3 375.87 119.9 373.87 120.03 372.48 119.39 369.17 120.09 363.47 118.13 359.69 116.51 357.45 115.62 354.7 113.68 351.39 112.16 347.98 110.61 346.16 108.39 345.15 104.35 345.72 102.07 344.89 99.65 339.83 97.65 336.22 94.75 332.28 92.56 330.09 91.73 328.81 88.93 325.75 88.66 322.9 90.66 319.84 91.81 317.45 92.83 314.62 94.34 311.63 96.23 309.76 97.15 306.8 97.54 301.66 98.13 297.31 99.19 292.49 101.78 288.75 102.79 282.11 103.67 280.55 106.87 278.66 111.15 278.14 115.09 276.31 117.17 276.3 122.17 279.01 125.7 279.81 127.94 278.79 131.21 277.67 133.62 276.38 137.83 273.5 140.14 272.14 142.12 271.61 144.77 271.56 146.52 271.88 152.27 272.22 155.65 272.97 160.66 273.52 163.41 273.48 169.19 272.71 172.49 272.05 175.34 271.04 177.32 271.15 179.34 270.82 180.45 270.1 184.33 266.41 186.74 265.1 189.24 262.79 190.06 259.77 191.43 258.52 194.1 257.51 197.1 256.86 199.08 255.31 202.06 254.89 203.58 255.24 207.39 256.73 209.24 257.11 211.98 257.17 214.93 256.87 217.45 255.95 220.67 252.78 223.18 249.38 225.24 248.22 227.1 245.43 230.06 243.69 233.3 242.63 236.65 241.94 240.75 239.92 241.53 237.15 241.21 230.73 241.06 224.67 242.46 220.16 242.98 216.3 243.84 215.18 245.86 213.74 246.91 212.45 247.25 211.22 247.26 208.67 246.51 206.23 246.98 202.23 248.11 199.94 249.53 198.26 254.3 193.9 257.01 192.9 265.33 187.5 266.38 186.95 272.01 185.05 273.18 184.07 273.47 182.81 273.32 178.74 272.94 177.36 273.46 174.6 275.19 171.13 275.19 169.24 275.87 166.23 278.5 160.72 279.21 158.51 279.72 152.23 277.44 148.59 277.25 147.57 277.86 144.38 279.53 141.1 281.03 139.27 281.11 137.52 282.19 135.51 282.34 133.64 281.69 130.63 281.05 129.69 280.27 126.53 277.85 123.52 277.48 119.95 277.76 118.51 277.34 114.64 278.48 110.92 278.84 107.5 278.57 104.28 277.07 102.06 273.33 101.83 271.26 100.46 270.54 98.34 269.83 94.81 268.58 93.74 265.02 91.42 262.14 89.8 258.52 88.93 256.03 87.75 252.96 85.43 249.36 83.78 247.32 81.82 245.44 81.19 241.85 80.56 240.31 79.21 238.42 78.06 235.42 75.24 233.68 71.63 230.2 67.63 229.51 65.04 228.13 61.44 228.13 60.35 229.48 57.58 230.62 53.73 230.23 51.94 231.28 50.04 230.72 48.53 228.57 46.32 225.9 41.2 224.47 40.43 222.23 37.75 220.58 34.61 219.81 33.9 217.46 33.08 215.64 30.85 212.37 28.84 205.28 25.27 204.72 24 204.62 21.81 203.48 19.38 202.45 18.59 195.72 15.88 192.33 13.88 188.5 10.82 187.33 9.54 186.4 7.32 186.51 5.26 189.16 1 203.14 1.59 207.84 1.66 230.45 2.41 234.93 2.59 254.13 2.89 263.66 3.09 281.79 3.3 293.65 3.66 297.77 3.65 305.76 3.95 320.39 4.77 344.09 5.19 374.83 5.88 388.17 6.43 395.12 6.82 410.25 7.3 435.19 8.03 452.52 8.69 471.22 9.12 478.56 9.24 489.77 9.55 504.22 9.73 529.23 10.55 535.93 10.88 545.29 11.05 550.93 10.96 567.39 10.42 577.72 10.37 603.5 10.56 605.37 10.51 619.08 10.6 635.74 10.58 648.12 10.5 665.45 10.3 677.6 10.25 692.55 10.38 698.95 10.37 712.96 10.55 731.22 10.83 731.84 12.99 731.55 14.34 732.11 16.16 731.62 23.04 730.93 26.62 731.1 29.5 731.25 37.12 730.77 38.88 729.03 42.58 728.7 44.59 728.05 44.61 726.98 46.17 726.75 50.83 725.95 52.62 726.18 57.33 725.36 60.1 726.59 68.25 727.15 70.18 728.34 72.91 729.77 78.05 731.79 83.53 732.96 85.89 736.63 92.39 738.17 94.64 739.67 97.73 744.55 106.6 746.63 109.73 749.45 113.13 753.3 116.37 755.15 117.44 754.98 118.14 757.11 122.61 757.3 123.99 756.8 125.3 757.21 126.63 757.64 130.14 759.2 134.46 759.87 135.84 760.61 140.47 761.42 143.17 762.25 144.99 763.5 146.32 763.01 147.37 763.17 149.26 764.6 152.29 765.83 158.92 766.82 160.08 766.25 160.68 766.77 162.85 768.14 164.43 769.34 165.11 768.69 167.59 768.05 167.9 768.13 171.38 770.14 171.9 769.79 175.53 769.49 177.48 771.25 182.21 772.83 184.75 774.84 187.97 776.09 193.28 776.71 194.42 779.14 197.2 779.12 197.95 780.35 199.22 782.95 200.05 782.48 201.41 784.84 202.4 785.23 206.35 786.15 208.72 786.05 210.26 785.32 210.83 786.27 212.64 Z" fill="none" stroke="currentColor" stroke-width="1"/>
</g>
</svg>