<svg viewBox="-92.0668968856935 -43.06229474262847 5.125515771386986 6.645814628321965" xmlns="http://www.w3.org/2000/svg">
  <path d="M -87.524165,41.708314 L -87.529018,41.715376 L -87.525215,41.717551 L -87.524622,41.723522 L -87.529255,41.732758 L -87.531061,41.748068 L -87.543265,41.751997 L -87.540749,41.75726 L -87.554196,41.760577 L -87.560473,41.765524 L -87.560363,41.768448 L -87.57280013365983,41.77929198945511 L -87.575955,41.783756 L -87.582187,41.804364 L -87.5924628110734,41.8169381857645 L -87.600549,41.826833 L -87.60945,41.845233 L -87.60782058687417,41.852779363008544 L -87.605855,41.866849 L -87.616257,41.8689 L -87.616537,41.882396 L -87.613178,41.883596 L -87.609685,41.893177 L -87.61588159936312,41.895873598827876 L -87.622944,41.90202 L -87.625542,41.910471 L -87.622539,41.912786 L -87.627651,41.917313 L -87.63374004878654,41.943060100904745 L -87.641078,41.954846 L -87.641801,41.96217 L -87.639202,41.966205 L -87.645645,41.971431 L -87.649907,41.978518 L -87.653996,41.988977 L -87.657656,42.006969 L -87.661084,42.012348 L -87.668982,42.029142 L -87.671085,42.042742 L -87.673173,42.047937 L -87.670512,42.05298 L -87.671462,42.058334 L -87.682359,42.075729 L -87.681465,42.078441 L -87.691019,42.082665 L -87.71096,42.095328 L -87.725517,42.108569 L -87.736218,42.120785 L -87.76135,42.15529 L -87.76901513131632,42.16733050874951 L -87.777002,42.176081 L -87.7959,42.201352 L -87.801904,42.210539 L -87.812267,42.231823 L -87.819589,42.251785 L -87.825711,42.262403 L -87.828569,42.269922 L -87.834769,42.301522 L -87.830391,42.312253 L -87.831424,42.330526 L -87.827196,42.337434 L -87.825831,42.355489 L -87.82020893141825,42.36151853223901 L -87.816804,42.361586 L -87.815009,42.369359 L -87.805812,42.383663 L -87.80326,42.390478 L -87.80379010674478,42.42004792465443 L -87.804582,42.431218 L -87.800836,42.445059 L -87.798071,42.471721 L -87.800921,42.478812 L -87.799371,42.484022 L -87.802532,42.492394 L -87.898195,42.493902 L -87.971581,42.494843 L -88.005079,42.494912 L -88.0834,42.495637 L -88.14705896680643,42.49556042627533 L -88.23789,42.494895 L -88.302734,42.494622 L -88.389994,42.494516 L -88.461814,42.494798 L -88.471622,42.494618 L -88.606694,42.495094 L -88.660794,42.494759 L -88.747028,42.492411 L -88.77659,42.491913 L -88.8256,42.492401 L -88.860733,42.493506 L -88.991785,42.496005 L -89.06744398305806,42.49625111053975 L -89.126192,42.497069 L -89.164656,42.497259 L -89.262669,42.49819 L -89.353489,42.499951 L -89.48416,42.501548 L -89.56345440567874,42.50260412278338 L -89.599875,42.5037 L -89.66982,42.505044 L -89.830882,42.505717 L -89.95507782760619,42.50567747199337 L -90.031804,42.507712 L -90.07367,42.508275 L -90.095234,42.507886 L -90.157406,42.508325 L -90.252379,42.507567 L -90.3023122488318,42.50750120516501 L -90.4029035098644,42.50689809808894 L -90.426377,42.507173 L -90.544889,42.507841 L -90.569516,42.507645 L -90.642799698288,42.50847685693497 L -90.656046,42.491706 L -90.656302,42.483691 L -90.65112,42.475189 L -90.6448413172762,42.47037999550887 L -90.624328,42.458904 L -90.606328,42.451505 L -90.570736,42.441701 L -90.565248,42.438742 L -90.558985,42.429445 L -90.558168,42.420984 L -90.555018,42.416138 L -90.517516,42.403019 L -90.500128,42.395539 L -90.490334,42.387093 L -90.477941,42.384151 L -90.473798,42.381458 L -90.464788,42.369452 L -90.452724,42.359303 L -90.445167,42.356441 L -90.430546,42.33686 L -90.419027,42.328505 L -90.415937,42.322699 L -90.421182,42.315255 L -90.418915,42.308328 L -90.424326,42.293326 L -90.431039,42.282452 L -90.430884,42.27823 L -90.423242,42.264411 L -90.419326,42.254467 L -90.400653,42.239293 L -90.391108,42.225473 L -90.375129,42.214811 L -90.365138,42.210526 L -90.356964,42.205445 L -90.338169,42.203321 L -90.328273,42.201047 L -90.3173935206202,42.193645041044576 L -90.298442,42.187576 L -90.282173,42.178846 L -90.26908,42.1745 L -90.250129,42.171469 L -90.234919,42.165431 L -90.216107,42.15673 L -90.209479,42.15268 L -90.20536,42.139079 L -90.201404,42.130937 L -90.190452,42.125779 L -90.17097,42.125198 L -90.162895,42.116718 L -90.16113,42.104298 L -90.162615,42.090995 L -90.16813836229588,42.07647378909647 L -90.165526,42.061518 L -90.166808,42.055933 L -90.164485,42.042105 L -90.151579,42.030633 L -90.147194,42.018479 L -90.143776,42.014881 L -90.140061,42.003252 L -90.140613,41.995999 L -90.146033,41.988139 L -90.146225,41.981329 L -90.153828,41.974121 L -90.162141,41.961293 L -90.164939,41.948861 L -90.163847,41.944934 L -90.1516,41.931002 L -90.153584,41.906614 L -90.157019,41.898019 L -90.170041,41.876439 L -90.173213,41.864693 L -90.173009,41.857393 L -90.1816241195148,41.84378427120947 L -90.183973,41.83307 L -90.181889,41.827755 L -90.180643,41.811979 L -90.181973,41.80707 L -90.187969,41.803163 L -90.216889,41.795335 L -90.222263,41.793133 L -90.264696,41.771475 L -90.278633,41.767358 L -90.302782,41.750031 L -90.309973,41.74342 L -90.315549,41.734426 L -90.317474,41.718878 L -90.31332,41.709494 L -90.313052,41.699631 L -90.314687,41.69483 L -90.319924,41.689721 L -90.330222,41.683954 L -90.334525,41.679559 L -90.336729,41.664532 L -90.343452,41.646959 L -90.34194,41.623476 L -90.339528,41.598633 L -90.343228,41.587833 L -90.364128,41.579633 L -90.381329,41.576633 L -90.39793,41.572233 L -90.41297368860572,41.56521044495864 L -90.42223,41.554233 L -90.432731,41.549533 L -90.445231,41.536133 L -90.461432,41.523533 L -90.474332,41.519733 L -90.489487,41.518277 L -90.503633,41.518233 L -90.513189,41.519548 L -90.533035,41.524933 L -90.540935,41.526133 L -90.556235,41.524232 L -90.566223,41.518008 L -90.581615,41.515188 L -90.595237,41.511032 L -90.602137,41.506032 L -90.605936,41.494232 L -90.618537,41.485032 L -90.630738,41.479732 L -90.650238,41.465032 L -90.655839,41.462132 L -90.666239,41.460632 L -90.676439,41.460832 L -90.690951,41.456643 L -90.707858,41.453743 L -90.737537,41.450127 L -90.751706,41.449678 L -90.777583,41.451261 L -90.795066,41.453808 L -90.824736,41.454467 L -90.833817,41.455512 L -90.847458,41.455019 L -90.857554,41.452751 L -90.86924,41.447204 L -90.890471,41.435593 L -90.902667,41.430313 L -90.919351,41.425589 L -90.930691,41.421368 L -90.949032,41.424053 L -90.975168,41.433985 L -90.985886,41.433689 L -91.005846,41.426135 L -91.027787,41.423603 L -91.043988,41.415897 L -91.048259,41.409748 L -91.052389,41.383898 L -91.065058,41.369101 L -91.069763,41.350302 L -91.07204902291475,41.333360642300555 L -91.073232,41.31344 L -91.077505,41.301828 L -91.08688,41.294371 L -91.094162,41.282605 L -91.09894,41.271524 L -91.104462,41.262104 L -91.114186,41.250029 L -91.112348,41.239002 L -91.097477,41.2275 L -91.09303,41.222634 L -91.081452,41.214429 L -91.065899,41.199517 L -91.055068,41.185789 L -91.041875,41.166484 L -91.030045,41.163553 L -91.009435,41.16624 L -90.997905,41.162562 L -90.989662,41.155707 L -90.981327,41.142675 L -90.970856,41.130109 L -90.965908,41.119559 L -90.957265,41.111067 L -90.946625,41.096628 L -90.949322,41.074484 L -90.945549,41.06173 L -90.945999,41.056336 L -90.943652,41.048637 L -90.942253,41.034702 L -90.945324,41.019279 L -90.945949,41.006495 L -90.949634,40.995248 L -90.958142,40.979767 L -90.951967,40.958238 L -90.953542,40.95062 L -90.959947,40.937736 L -90.962916,40.924957 L -90.968995,40.919127 L -90.985462,40.912141 L -90.9985,40.90812 L -91.012135,40.898121 L -91.021562,40.884021 L -91.02809715386647,40.87885691982852 L -91.036789,40.875038 L -91.044653,40.868356 L -91.05643,40.848387 L -91.067159,40.841997 L -91.078276580071,40.83284520018511 L -91.090072,40.824638 L -91.092993,40.821079 L -91.097456,40.808865 L -91.097031,40.802471 L -91.09256348384811,40.79352266700311 L -91.091262,40.78306 L -91.092476,40.776838 L -91.098105,40.763233 L -91.108765,40.75004 L -91.115735,40.725168 L -91.111095,40.708282 L -91.11194,40.697018 L -91.115407,40.691825 L -91.12082,40.672777 L -91.125144,40.668738 L -91.138055,40.660893 L -91.154293,40.653596 L -91.185295,40.637803 L -91.197906,40.636107 L -91.218437,40.638437 L -91.247851,40.63839 L -91.256788,40.637113 L -91.264953,40.633893 L -91.303486,40.626923 L -91.310048,40.625041 L -91.348733,40.609695 L -91.359873,40.601805 L -91.379752,40.57445 L -91.401482,40.559458 L -91.405241,40.554641 L -91.406202,40.542698 L -91.400725,40.536789 L -91.388067,40.533069 L -91.381857,40.528247 L -91.369059,40.512532 L -91.363879,40.498062 L -91.36391,40.490122 L -91.366463,40.478869 L -91.369572,40.47138 L -91.378144,40.456394 L -91.381045,40.44849 L -91.381457,40.437308 L -91.37328,40.416496 L -91.372921,40.399108 L -91.375712,40.391925 L -91.384201,40.38643 L -91.39217662186081,40.383942614617276 L -91.413011,40.382277 L -91.419422,40.378264 L -91.426632,40.371988 L -91.439342,40.366569 L -91.446308,40.361823 L -91.46214,40.342414 L -91.466999,40.333285 L -91.469656,40.322409 L -91.477083,40.308254 L -91.48245,40.300583 L -91.489868,40.286048 L -91.492727,40.278217 L -91.492891,40.269923 L -91.490524,40.259498 L -91.498869,40.246715 L -91.503231,40.243474 L -91.506501,40.236304 L -91.504289,40.231712 L -91.504282,40.224299 L -91.506947,40.21555 L -91.506664,40.204758 L -91.504477,40.198262 L -91.509551,40.191338 L -91.513079,40.178537 L -91.511956,40.170441 L -91.508224,40.157665 L -91.51159,40.149269 L -91.510604,40.125045 L -91.495365,40.070951 L -91.489606,40.057435 L -91.494878,40.036453 L -91.487122,40.022692 L -91.47636,40.007725 L -91.469247,39.995327 L -91.463683,39.981845 L -91.459533,39.979892 L -91.449806,39.965278 L -91.443447,39.953675 L -91.43709,39.946417 L -91.427499,39.93954 L -91.41989589694775,39.929084609010665 L -91.418807,39.922126 L -91.420878,39.914865 L -91.443513,39.893583 L -91.447844,39.877951 L -91.446685,39.871642 L -91.441343,39.861983 L -91.436529,39.847078 L -91.433798,39.841865 L -91.428469,39.837626 L -91.407793,39.827581 L -91.376488,39.810033 L -91.367966,39.800403 L -91.363444,39.792804 L -91.361744,39.785079 L -91.364848,39.779388 L -91.365906,39.764956 L -91.36522815694835,39.75954627433934 L -91.369839,39.745702 L -91.370102,39.733321 L -91.367753,39.729029 L -91.354473,39.716229 L -91.347253,39.71048 L -91.331603,39.700433 L -91.317814,39.692591 L -91.306693,39.684865 L -91.301603,39.679068 L -91.283329,39.670134 L -91.27614,39.665759 L -91.264329,39.654374 L -91.260475,39.649024 L -91.248779,39.64088 L -91.23974,39.628648 L -91.223328,39.617603 L -91.199099,39.609127 L -91.185921,39.605119 L -91.181936,39.602677 L -91.174651,39.593313 L -91.168419,39.564928 L -91.153628,39.548248 L -91.149218,39.546099 L -91.126638,39.542227 L -91.100911,39.539001 L -91.092869,39.529275 L -91.086292,39.517141 L -91.075309,39.502845 L -91.064305,39.494643 L -91.062414,39.474122 L -91.057114,39.466086 L -91.03827,39.448435 L -91.02361,39.438694 L -91.002603,39.427082 L -90.993789,39.422959 L -90.98302,39.420462 L -90.972465,39.414144 L -90.957459,39.408996 L -90.944942,39.406247 L -90.93851093144285,39.402122700454896 L -90.934007,39.392127 L -90.928745,39.387544 L -90.920976,39.383687 L -90.906798,39.380394 L -90.896462,39.369176 L -90.89049,39.365524 L -90.87608,39.359478 L -90.8475,39.345272 L -90.840106,39.340438 L -90.821306,39.323659 L -90.816851,39.320496 L -90.799346,39.313087 L -90.793461,39.309498 L -90.790675,39.302908 L -90.783789,39.297164 L -90.776798,39.29362 L -90.768877,39.281512 L -90.751599,39.265432 L -90.736005,39.260386 L -90.72996,39.255894 L -90.726981,39.251173 L -90.721188,39.230176 L -90.721475,39.223135 L -90.717113,39.213912 L -90.717404,39.197414 L -90.71437,39.185308 L -90.709953,39.172924 L -90.709146,39.155111 L -90.705168,39.143152 L -90.700464,39.135439 L -90.68739,39.11991 L -90.684518,39.113567 L -90.681086,39.10059 L -90.681994,39.090066 L -90.686237,39.084989 L -90.698282,39.074649 L -90.702943,39.064545 L -90.712541,39.057064 L -90.71158,39.046798 L -90.707885,39.042262 L -90.700595,39.029074 L -90.692403,39.016656 L -90.688813,39.007342 L -90.679027,38.993867 L -90.675941,38.982611 L -90.676342,38.964414 L -90.674322,38.95773 L -90.669229,38.948176 L -90.668089,38.943003 L -90.663424,38.935551 L -90.663018,38.926283 L -90.64729,38.912095 L -90.635896,38.903941 L -90.628485,38.891617 L -90.623356,38.887149 L -90.586652,38.871387 L -90.577576,38.868384 L -90.561021,38.869476 L -90.546831,38.874009 L -90.538587,38.879742 L -90.516963,38.898818 L -90.507451,38.902767 L -90.499672,38.910605 L -90.487058,38.925862 L -90.482725,38.934712 L -90.48184,38.945431 L -90.472122,38.958838 L -90.462411,38.964322 L -90.450813,38.967769 L -90.4395219339112,38.96728456662835 L -90.42978,38.963778 L -90.406367,38.962554 L -90.392721,38.959071 L -90.346442,38.94079 L -90.327688,38.931061 L -90.319617,38.928873 L -90.309454,38.92412 L -90.2945,38.923434 L -90.283712,38.924048 L -90.269872,38.922556 L -90.262792,38.920344 L -90.250248,38.919344 L -90.241703,38.914828 L -90.223041,38.907389 L -90.19761,38.887648 L -90.19266294262802,38.88648814921731 L -90.186909,38.885048 L -90.166409,38.876348 L -90.151508,38.867148 L -90.140108,38.862748 L -90.131907,38.857948 L -90.113327,38.849306 L -90.109407,38.843548 L -90.109107,38.837448 L -90.114707,38.815048 L -90.117707,38.805748 L -90.123107,38.798048 L -90.146708,38.783049 L -90.166364,38.772675 L -90.175121,38.760179 L -90.176301,38.754478 L -90.183609,38.746749 L -90.191301,38.742978 L -90.205177,38.7322 L -90.20991,38.72605 L -90.212002,38.711779 L -90.209202,38.702779 L -90.202202,38.693479 L -90.195202,38.687579 L -90.186375,38.674702 L -90.182537,38.66512 L -90.177727,38.642027 L -90.178889,38.628917 L -90.1849962016957,38.610730969255094 L -90.191803,38.59898 L -90.201658,38.589434 L -90.216704,38.57878 L -90.224717,38.574451 L -90.248905,38.544781 L -90.257782,38.532012 L -90.264123,38.520728 L -90.26876,38.507189 L -90.274711,38.486607 L -90.278531,38.477682 L -90.279191,38.471872 L -90.285673,38.445663 L -90.289901,38.433136 L -90.29687,38.424808 L -90.31117,38.415679 L -90.325839,38.400963 L -90.341446,38.388298 L -90.349222,38.377333 L -90.355942,38.36046 L -90.364361,38.347514 L -90.370819,38.333554 L -90.372626,38.316162 L -90.371516,38.306191 L -90.372554,38.300418 L -90.372422,38.283725 L -90.367673,38.258115 L -90.366948,38.248344 L -90.362244,38.231173 L -90.358628,38.221981 L -90.352362,38.211828 L -90.334172,38.189857 L -90.327218,38.184311 L -90.316876,38.179477 L -90.300329,38.175139 L -90.290629,38.170363 L -90.274843,38.157559 L -90.252666,38.127812 L -90.242574,38.112125 L -90.217019,38.093466 L -90.17883,38.071886 L -90.17222,38.069636 L -90.163413,38.074346 L -90.158273,38.07495 L -90.130788,38.062341 L -90.128159,38.059645 L -90.126006,38.050569 L -90.126532,38.041665 L -90.119106,38.033268 L -90.11073272584912,38.026702878299716 L -90.099098,38.020196 L -90.08972,38.016216 L -90.080959,38.015428 L -90.065045,38.016875 L -90.057269,38.014362 L -90.051941,38.005432 L -90.031795,37.995126 L -90.024242,37.988131 L -90.007936,37.97011 L -89.996848,37.963219 L -89.988108,37.961749 L -89.965046,37.964393 L -89.940687,37.970874 L -89.935885,37.959581 L -89.925085,37.960021 L -89.924738,37.9552 L -89.931267,37.948277 L -89.936973,37.946773 L -89.947322,37.940283 L -89.9596686839505,37.94002567223573 L -89.962383,37.933775 L -89.965813,37.933011 L -89.97481322832772,37.926233243660874 L -89.974186,37.919509 L -89.9536,37.885091 L -89.94799,37.879997 L -89.937826,37.87498 L -89.9253,37.871153 L -89.905631,37.869393 L -89.898338,37.870931 L -89.879688,37.880736 L -89.861877,37.897684 L -89.850524,37.904172 L -89.844786,37.905572 L -89.837169,37.90232 L -89.813636,37.887696 L -89.799329,37.881516 L -89.797696,37.874392 L -89.799821,37.871343 L -89.797542,37.862128 L -89.793737,37.857063 L -89.786326,37.851689 L -89.781991,37.855053 L -89.774305,37.852127 L -89.7652,37.851763 L -89.754099,37.846353 L -89.739875,37.846921 L -89.727243,37.833212 L -89.717442,37.825723 L -89.706751,37.81906 L -89.677605,37.805066 L -89.669644,37.799922 L -89.66038,37.786296 L -89.660714,37.777462 L -89.667868,37.760257 L -89.665546,37.752095 L -89.660061,37.74824 L -89.64953,37.745496 L -89.63337,37.745782 L -89.626332,37.749046 L -89.618067,37.74982 L -89.615744,37.742725 L -89.598628,37.734429 L -89.595238,37.731169 L -89.587211,37.717509 L -89.581585,37.712341 L -89.573516,37.709065 L -89.52573,37.698441 L -89.516685,37.692762 L -89.512009,37.685525 L -89.51204,37.680985 L -89.516146,37.667975 L -89.516827,37.656089 L -89.51586,37.645555 L -89.517718,37.641217 L -89.515649,37.636445 L -89.510526,37.631754 L -89.506563,37.62505 L -89.497097,37.616177 L -89.487793,37.609167 L -89.478399,37.598869 L -89.47603,37.590226 L -89.481118,37.582973 L -89.494051,37.580116 L -89.513943,37.584815 L -89.520804,37.581154 L -89.521697,37.557325 L -89.516447,37.535558 L -89.508372,37.525756 L -89.500096,37.512762 L -89.497689,37.504948 L -89.489696,37.490402 L -89.471201,37.466473 L -89.450969,37.450069 L -89.439769,37.4372 L -89.43413,37.426847 L -89.426522,37.408998 L -89.420939,37.393952 L -89.420542,37.388007 L -89.428185,37.356158 L -89.431858,37.348309 L -89.43604,37.344441 L -89.451303,37.339596 L -89.474569,37.338165 L -89.484211,37.335646 L -89.491194,37.331361 L -89.497279,37.322828 L -89.508174,37.315662 L -89.512833,37.308478 L -89.518469,37.286256 L -89.515362,37.278909 L -89.502303,37.263738 L -89.489915,37.251315 L -89.470525,37.253357 L -89.460692,37.250577 L -89.457832,37.242594 L -89.4675,37.221844 L -89.467631,37.2182 L -89.461862,37.199517 L -89.456105,37.18812 L -89.438275,37.161287 L -89.435202,37.15209 L -89.42558,37.138235 L -89.414471,37.12505 L -89.408419,37.119949 L -89.388976,37.108277 L -89.384175,37.103267 L -89.37871,37.094586 L -89.375615,37.085936 L -89.376432,37.077696 L -89.38506450109168,37.05797731511708 L -89.384681,37.048251 L -89.376632,37.038482 L -89.362397,37.030156 L -89.345996,37.025521 L -89.331164,37.019936 L -89.317168,37.012767 L -89.29213,36.992189 L -89.278628,36.98867 L -89.266242,36.996302 L -89.263527,37.00005 L -89.257608,37.015496 L -89.260003,37.023288 L -89.266286,37.028683 L -89.277715,37.03614 L -89.291185,37.040408 L -89.301368,37.044982 L -89.307397,37.050432 L -89.310819,37.057897 L -89.307726,37.069654 L -89.280362,37.065222 L -89.259935,37.06407 L -89.25493,37.072014 L -89.245648,37.057783 L -89.237111,37.041012 L -89.225482,37.031077 L -89.203408,37.018856 L -89.198488,37.011723 L -89.195029,37.000051 L -89.195279,36.993407 L -89.192097,36.979995 L -89.185491,36.973518 L -89.170009,36.970298 L -89.149882,36.977636 L -89.141562,36.978897 L -89.132915,36.982057 L -89.143969,36.987966 L -89.160322,36.999158 L -89.170173,37.007067 L -89.178083,37.019346 L -89.18084510895805,37.026004849786986 L -89.182467,37.039164 L -89.177857,37.057796 L -89.173825,37.066308 L -89.167355,37.075041 L -89.155655,37.087729 L -89.151487,37.090554 L -89.14746,37.098906 L -89.142852,37.099019 L -89.12585,37.108476 L -89.1095,37.123093 L -89.099011,37.140406 L -89.092755,37.156763 L -89.087296,37.164664 L -89.071141,37.178924 L -89.056529,37.18973 L -89.040808,37.203114 L -89.036743,37.204647 L -89.029866,37.211065 L -89.013154,37.216478 L -89.0009,37.224405 L -88.97995,37.229119 L -88.968271,37.229479 L -88.965733,37.226271 L -88.94186,37.224305 L -88.934405,37.224789 L -88.931513,37.227427 L -88.91618,37.223991 L -88.891731,37.216172 L -88.877188,37.212261 L -88.860303,37.206543 L -88.83509,37.196493 L -88.79988,37.186471 L -88.786641,37.178179 L -88.784836,37.175571 L -88.761394,37.15956 L -88.745642,37.151525 L -88.737905,37.146497 L -88.726969,37.14211 L -88.719172,37.140737 L -88.704174,37.142863 L -88.692608,37.141105 L -88.681238,37.137339 L -88.657629,37.127596 L -88.639263,37.121489 L -88.627321,37.120031 L -88.61658262373109,37.115838864626305 L -88.600384,37.106826 L -88.59007682955256,37.09989080061937 L -88.583792,37.092 L -88.574516,37.084844 L -88.572863,37.079656 L -88.560839,37.076512 L -88.552596,37.072593 L -88.528983,37.066826 L -88.516686,37.065384 L -88.502972,37.06564 L -88.489406,37.068456 L -88.48218,37.067368 L -88.462796,37.073262 L -88.458517,37.076098 L -88.44938,37.087608 L -88.444767,37.095256 L -88.445804,37.09943 L -88.440626,37.1086 L -88.442984,37.111918 L -88.434664,37.126651 L -88.424756,37.150732 L -88.425368,37.154159 L -88.43207205250779,37.16126618868996 L -88.43799,37.180355 L -88.439291,37.18153 L -88.448038,37.203642 L -88.457559,37.212642 L -88.471287,37.219613 L -88.47815,37.227024 L -88.484808,37.240664 L -88.491871,37.248051 L -88.500303,37.253244 L -88.506973,37.259688 L -88.506875,37.265313 L -88.509811,37.275033 L -88.515903,37.284091 L -88.514538,37.291373 L -88.511029,37.299296 L -88.505168,37.307667 L -88.498447,37.321236 L -88.492412,37.330072 L -88.484683,37.345234 L -88.482678,37.353903 L -88.482547,37.363731 L -88.474645,37.390783 L -88.467079,37.399839 L -88.454542,37.409848 L -88.43476,37.418398 L -88.421591,37.421342 L -88.409229,37.425315 L -88.39377,37.419817 L -88.377147,37.409644 L -88.373361,37.404106 L -88.36439,37.401754 L -88.346601,37.412637 L -88.343697,37.416651 L -88.330138,37.429874 L -88.318122,37.435859 L -88.31211728674437,37.4409040036317 L -88.299719,37.446305 L -88.281631,37.452729 L -88.255078,37.456758 L -88.227457,37.457142 L -88.209044,37.460172 L -88.196539,37.460703 L -88.17212152112536,37.46570697251824 L -88.159982,37.466595 L -88.134088,37.471837 L -88.12378,37.471788 L -88.091578,37.473405 L -88.085457,37.471564 L -88.080892,37.473911 L -88.074256,37.481614 L -88.073348,37.485422 L -88.06543,37.48876 L -88.061815,37.499134 L -88.062827,37.514861 L -88.069011,37.525399 L -88.077703,37.532002 L -88.087584,37.535022 L -88.091622,37.538442 L -88.10574,37.556594 L -88.123179,37.569509 L -88.134535,37.574943 L -88.140783,37.585217 L -88.14239,37.592977 L -88.142028,37.603609 L -88.152563,37.622611 L -88.157068,37.633275 L -88.158591,37.642214 L -88.159986,37.659715 L -88.157937,37.665094 L -88.150547,37.676753 L -88.145138,37.682994 L -88.133954,37.692296 L -88.132093,37.697482 L -88.124993,37.707223 L -88.120002,37.711334 L -88.100751,37.718613 L -88.094116,37.724175 L -88.083299,37.729341 L -88.069638,37.733716 L -88.059333,37.742967 L -88.049183,37.755073 L -88.041622,37.769324 L -88.036316,37.791157 L -88.02802002297258,37.799197311646985 L -88.030781,37.807329 L -88.037623,37.809864 L -88.045753,37.808129 L -88.062223,37.800581 L -88.07067,37.801704 L -88.07730666828266,37.8052584823548 L -88.090039,37.816771 L -88.090092,37.825642 L -88.080854,37.830902 L -88.074042,37.82916 L -88.063672,37.823862 L -88.058055,37.822449 L -88.043831,37.821525 L -88.033011,37.824383 L -88.028693,37.827109 L -88.026053,37.833688 L -88.028217,37.838585 L -88.036021,37.842644 L -88.049453,37.845187 L -88.059425,37.848732 L -88.068534,37.858011 L -88.078529,37.879118 L -88.084385,37.885582 L -88.094956,37.893689 L -88.097892,37.901517 L -88.095662,37.905808 L -88.086237,37.905713 L -88.071449,37.895813 L -88.055373,37.891238 L -88.044926,37.891216 L -88.029138,37.892637 L -88.024818,37.88886 L -88.017073,37.889222 L -88.013355,37.894854 L -88.017816,37.902696 L -88.020204,37.913062 L -88.022513,37.914756 L -88.032944,37.91366 L -88.036382,37.914897 L -88.053372,37.916067 L -88.062242,37.917898 L -88.068225,37.922705 L -88.069613,37.926848 L -88.063341,37.932778 L -88.057127,37.934151 L -88.048661,37.926757 L -88.037735,37.924599 L -88.031067,37.928889 L -88.030704,37.932067 L -88.036125,37.942745 L -88.037013,37.956276 L -88.0348,37.957993 L -88.020868,37.959351 L -88.016311,37.961574 L -88.012929,37.966544 L -88.012574,37.977062 L -88.022864,37.997983 L -88.025831,38.007245 L -88.024431,38.013045 L -88.018931,38.021945 L -88.007631,38.029145 L -88.012131,38.033845 L -88.017631,38.034745 L -88.027731,38.031745 L -88.034132,38.032045 L -88.042132,38.038945 L -88.042132,38.046345 L -88.035332,38.051145 L -88.030032,38.052145 L -88.004731,38.051045 L -87.98877,38.055591 L -87.978735,38.059815 L -87.967226,38.067105 L -87.956664,38.086202 L -87.96108,38.1001 L -87.9753,38.094168 L -88.004697,38.083965 L -88.01139,38.084691 L -88.016806,38.095717 L -88.013118,38.103527 L -87.997383,38.10858 L -87.983068,38.107139 L -87.974781,38.110515 L -87.974502,38.1196 L -87.969464,38.130744 L -87.964306,38.132644 L -87.955872,38.132897 L -87.947208,38.126924 L -87.935135,38.139428 L -87.925811,38.143633 L -87.928234,38.150416 L -87.917719,38.155889 L -87.911034,38.162194 L -87.910792,38.167666 L -87.91729,38.174169 L -87.924241,38.17223 L -87.925896,38.166473 L -87.924581,38.161412 L -87.931211,38.156348 L -87.935234,38.159315 L -87.933759,38.164351 L -87.936443,38.171355 L -87.940491,38.174902 L -87.9595,38.184376 L -87.969865,38.191786 L -87.982763,38.206705 L -87.985627,38.217993 L -87.98487,38.228523 L -87.980158,38.236115 L -87.979789,38.241661 L -87.983058,38.250046 L -87.988164,38.255838 L -87.981868,38.256444 L -87.972259,38.247039 L -87.967556,38.236729 L -87.960225,38.237118 L -87.957897,38.241256 L -87.958883,38.246666 L -87.954032,38.253032 L -87.946065,38.255319 L -87.942067,38.260301 L -87.948903,38.264116 L -87.952163,38.270512 L -87.949279,38.277345 L -87.93992,38.281528 L -87.937329,38.292431 L -87.934844,38.295145 L -87.924973,38.298659 L -87.916489,38.299372 L -87.911394,38.297576 L -87.908529,38.290957 L -87.919292,38.275908 L -87.917615,38.270078 L -87.91111,38.268031 L -87.906841,38.269634 L -87.897803,38.279482 L -87.888223,38.284917 L -87.878303,38.307849 L -87.870537,38.31222 L -87.864271,38.310703 L -87.860453,38.303113 L -87.866248,38.28998 L -87.863032,38.280172 L -87.859651,38.276711 L -87.85113,38.27512 L -87.840984,38.280105 L -87.836495,38.285486 L -87.830953,38.299365 L -87.830849,38.305608 L -87.833344,38.315649 L -87.832723,38.324853 L -87.826076,38.337529 L -87.822721,38.346912 L -87.813791,38.353792 L -87.806075,38.363143 L -87.784994,38.368011 L -87.78066,38.370343 L -87.769721,38.380695 L -87.75003,38.403027 L -87.743772,38.413115 L -87.742828,38.427335 L -87.738812,38.438929 L -87.730699,38.442908 L -87.73082,38.449228 L -87.740525,38.454716 L -87.750026,38.45418 L -87.755931,38.455876 L -87.756179,38.462538 L -87.744644,38.477266 L -87.73486,38.48004 L -87.714047,38.47988 L -87.697652,38.486103 L -87.685921,38.491843 L -87.678374,38.498438 L -87.674239,38.505724 L -87.669811,38.507178 L -87.65953,38.501791 L -87.652365,38.503219 L -87.64581,38.509082 L -87.645371,38.513835 L -87.656144,38.521668 L -87.66124,38.532526 L -87.668788,38.541078 L -87.670071,38.545237 L -87.662401,38.551337 L -87.651999,38.555209 L -87.650141,38.557735 L -87.652738,38.565039 L -87.647886,38.571341 L -87.642308,38.572505 L -87.638049,38.577263 L -87.64021,38.589795 L -87.63731158224437,38.59260020908845 L -87.621401,38.586118 L -87.614508,38.58751 L -87.610886,38.592632 L -87.613461,38.595042 L -87.622636,38.595648 L -87.625406,38.599188 L -87.627345,38.607237 L -87.620352,38.612786 L -87.622375,38.618873 L -87.615469,38.625889 L -87.62098,38.637655 L -87.617315,38.642157 L -87.607896,38.644984 L -87.60295,38.651236 L -87.602863,38.656363 L -87.597247,38.665314 L -87.587684,38.66998 L -87.569607,38.674358 L -87.545538,38.677613 L -87.531231,38.684036 L -87.51961,38.697198 L -87.519519,38.710455 L -87.516707,38.716332 L -87.508515,38.725768 L -87.5062157994966,38.73354147292899 L -87.496041,38.739981 L -87.496494,38.742728 L -87.504006,38.74971 L -87.498948,38.757774 L -87.496906,38.766818 L -87.500494,38.769176 L -87.508183,38.767312 L -87.514373,38.769172 L -87.511798,38.773558 L -87.503768,38.773981 L -87.498587,38.77648 L -87.495199,38.781979 L -87.501123,38.79138 L -87.508211,38.795716 L -87.51922,38.810478 L -87.526816,38.817369 L -87.521681,38.826576 L -87.526695,38.838578 L -87.525893,38.848795 L -87.528194,38.851691 L -87.537248,38.853592 L -87.552028,38.860318 L -87.550985,38.864601 L -87.544235,38.863375 L -87.543271,38.867941 L -87.547611,38.872516 L -87.545203,38.87673 L -87.536816,38.877408 L -87.534992,38.880594 L -87.537746,38.88512 L -87.544292,38.888953 L -87.544089,38.895093 L -87.536591,38.895566 L -87.53293,38.901519 L -87.524314,38.905194 L -87.527887,38.909201 L -87.526046,38.913073 L -87.527715,38.919232 L -87.519119,38.922603 L -87.516628,38.932995 L -87.52124,38.93889 L -87.521,38.942107 L -87.514311,38.947837 L -87.513346,38.956 L -87.524335,38.962964 L -87.529496,38.971925 L -87.542437,38.975587 L -87.548034,38.978504 L -87.573466,38.985441 L -87.578319,38.988786 L -87.567085,38.993544 L -87.577627,38.997914 L -87.579117,39.001607 L -87.573761,39.008684 L -87.569696,39.019413 L -87.570686,39.024967 L -87.580207,39.04194 L -87.57229,39.050587 L -87.572588,39.057286 L -87.576984,39.060182 L -87.583546,39.067947 L -87.591515,39.073181 L -87.596373,39.079639 L -87.601101,39.081405 L -87.615964,39.082566 L -87.620258,39.086572 L -87.620387,39.091522 L -87.615465,39.095771 L -87.613996,39.100995 L -87.618385,39.104284 L -87.638585,39.105894 L -87.649166,39.104803 L -87.654636,39.109111 L -87.651022,39.116439 L -87.640761,39.114372 L -87.634971,39.120089 L -87.64217,39.123212 L -87.643145,39.128562 L -87.655239,39.132283 L -87.658745,39.135997 L -87.653201,39.143993 L -87.651719,39.150602 L -87.641581,39.157132 L -87.634379,39.153419 L -87.629377,39.158023 L -87.638324,39.159139 L -87.642065,39.162477 L -87.637934,39.168428 L -87.623607,39.16949 L -87.619618,39.170975 L -87.62114,39.183898 L -87.605173,39.185897 L -87.603045,39.191304 L -87.594151,39.194932 L -87.585725,39.200396 L -87.584977,39.205276 L -87.577029,39.211123 L -87.574615,39.223931 L -87.579319,39.243552 L -87.572088,39.247825 L -87.574791,39.255129 L -87.580652,39.255237 L -87.592394,39.247146 L -87.605543,39.261122 L -87.601393,39.27439 L -87.609438,39.278535 L -87.608753,39.286689 L -87.597323,39.296957 L -87.599835,39.300934 L -87.605348,39.303217 L -87.614015,39.300938 L -87.618964,39.301691 L -87.620178,39.307395 L -87.60592,39.311076 L -87.596729,39.322029 L -87.589084,39.333831 L -87.578331,39.340343 L -87.570705,39.341267 L -87.557744,39.339335 L -87.55026,39.343348 L -87.545882,39.352147 L -87.537271,39.352089 L -87.531647,39.34876 L -87.531355,39.437511 L -87.53164,39.477105 L -87.531811,39.534969 L -87.53230049417576,39.63593665463395 L -87.532736,39.673944 L -87.533238,39.80402 L -87.533269,39.875036 L -87.532799,39.930374 L -87.532773,39.969569 L -87.53223,39.99997 L -87.53218445932707,40.05880191275285 L -87.531449,40.148127 L -87.529631,40.282001 L -87.528108,40.370747 L -87.526168,40.505761 L -87.52637,40.521071 L -87.52603,40.604491 L -87.526301,40.678849 L -87.525668,40.836016 L -87.526098,40.933603 L -87.525995,40.966757 L -87.526428,41.024366 L -87.526696,41.149222 L -87.52658219837443,41.16609037605854 L -87.526517,41.230379 L -87.52672845446742,41.3121555770945 L -87.526109,41.413894 L -87.525538,41.475247 L -87.525607,41.528344 L -87.525244,41.60136 L -87.524743,41.659198 L -87.524813,41.686938 L -87.524165,41.708314 Z" fill="none" stroke=currentColor stroke-width="1" vector-effect="non-scaling-stroke"/>
</svg>