<?xml version="1.0"?>
<svg width="20" height="20" xmlns="http://www.w3.org/2000/svg" version="1.2" baseProfile="tiny" viewBox="-158.540 -77.040 1117.080 1117.080" stroke-linecap="round" stroke-linejoin="round">
<g id="state">
<path d="M 139.18 13.62 139.87 13.2 141.4 14.52 141.11 15.25 143.07 17.04 145.38 18.47 148.58 19.57 150.12 20.49 150.7 21.58 152.7 22.26 153.99 20.87 157.06 19.43 157.81 19.66 158.83 22.24 158.78 23.37 159.92 24.15 160.98 23.29 159.61 20.4 163.09 18.01 165.27 18.46 167.17 20.37 165.59 21.46 166.98 22.78 163.99 25.37 160.16 26.42 161.9 28.62 164.08 29.83 166.3 29.18 168.68 30.23 176.58 32.47 181.75 33.3 188.68 34.02 190.25 34.72 191.73 34.34 193.4 35.1 193.7 34.1 195.87 34.68 198.45 34.85 202.41 34.76 212.28 33.84 222.17 32.25 223.03 31.55 226.38 31.18 227.34 29.69 229.18 29.73 229.89 28.73 231.26 28.74 234.07 28.05 236.42 28.36 241.56 27.23 249.52 24.81 258.7 21.72 266.77 18.69 274.3 15.72 279.06 14.03 284.03 12.55 285.56 11.67 287.31 9.13 291.73 7.88 295.42 6.48 307.63 1.1 337.75 1.22 363.78 1.29 385.35 1.23 399.43 1.28 419.35 1.2 426.5 1.12 464.88 1.05 480.14 1 526.33 1.23 538.05 1.33 566.4 1.42 588.21 1.4 616.18 1.3 632.19 1.35 632.77 1.3 658.4 1.2 709.49 1.28 733.01 1.26 743.14 1.22 751.69 1.29 793.86 1.13 793.84 16.55 793.84 32.13 794.12 52.99 794.25 68.95 794.34 85.86 794.32 105.95 794.41 118.87 794.44 153.85 794.51 175.64 794.5 186.76 794.6 207.75 794.71 222 794.72 246.24 794.73 275.15 794.61 301.35 794.32 320.89 794.26 328.12 794.34 340.09 794.41 347.05 794.27 358.89 793.71 381.66 793.14 401.67 792.98 411.53 792.57 426.58 792.28 443.9 792.1 457.5 791.86 469.85 791.82 494.43 791.67 522.43 791.58 540.19 791.48 550.62 791.39 550.93 791.02 572.69 790.76 581.93 790.59 592.4 790.44 606.34 790.5 627.71 790.42 640.51 787.46 641.69 784.46 643.81 783.42 644.97 780.25 647.33 777.82 648.49 773.66 650.08 771.85 652.05 772.08 653.27 774.34 656.48 777.84 659.08 781.46 662.88 783.32 665.16 784.04 666.68 785.98 668.33 787.27 670.46 788.08 673.27 786.78 676.06 783.47 678.31 781.72 680.18 779.22 681.98 776.51 685.13 776.17 686.1 776.93 688.07 778.34 689.81 780.69 690.53 785.57 690.56 791.77 691.07 794.82 691.94 796.92 693.01 798.77 694.58 799 695.98 798.61 697.52 797.58 699.31 794.67 701.72 791.02 703.68 789.58 704.69 788.06 706.77 788.85 709.73 791.3 712.8 792.48 716 791.5 717.89 788.64 718.12 786.72 717.85 784.09 717.03 780.35 716.21 776.77 715.87 774.14 715.32 770.36 716.47 766.95 718.09 763 719.54 759.91 720.02 756.13 719.35 751.27 719.05 748.34 719.55 744.29 722.2 740.4 723.97 737.38 724.8 734.48 726.55 729.52 728.26 725.4 730.59 722.69 731.77 721.32 733.08 717.33 735.74 715.32 737.45 711.04 739.5 705.35 741.04 701.62 741.14 700.58 740.63 697.79 740.1 695.79 739.24 692.58 736.71 689.94 732.98 687.79 730.55 684.77 729.04 679.88 728.1 674.38 728.04 670.78 728.61 662.18 730.56 657.35 730.81 651.41 729.6 648.75 729.2 645.32 729.8 641.83 731.5 640.37 733.59 638.65 735.34 637.3 739.04 637.06 740.87 637.6 742.79 640.31 745.79 641.47 748.05 641.23 754.8 641.53 760.77 642.12 762.5 644.68 766.36 646.54 769.58 647.15 772.78 647.02 775.49 646.07 777.81 644.15 779.64 642.52 780.71 638.76 782.06 634.6 783.89 632.45 786 631.11 789.32 629.36 791.7 627.14 793.83 625.31 794.81 620.6 796.54 614.17 797.46 609.27 797.68 606.09 798.3 601.58 800.55 598.08 804.2 597.05 806.94 594.87 810.96 593.5 815.16 593.3 819.11 591.88 823.41 589.23 828.77 585.49 832.75 584.84 833.94 582.08 835.76 568.5 842.27 566.8 842.35 563.71 841.17 562.34 839.99 562.58 839.24 560.92 837.92 557.59 837.25 554.72 838.04 550.93 838.58 548.72 839.26 547.43 840.13 545.58 843.29 545.49 845.9 545.02 848.98 544.11 850.56 541.99 853.13 536.41 856.7 533.67 859.27 531.5 861.84 529.48 864.85 528.67 866.91 528.16 872.46 528.4 875.53 529.22 880.6 529.13 885.07 526.7 890.45 525.37 898.96 524.71 900.66 523.52 902.27 520.06 905.1 519 905.52 514.81 906.02 511.7 905.92 503.98 907.13 500.03 908.11 498.5 909.06 497.75 911.25 498.19 913.93 497.82 915.67 496.89 916.62 494.92 916.61 492.3 914.53 490.73 912.69 489.3 910.46 487.77 907.4 485.37 905.48 480.81 903.61 476.52 902.85 472.64 902.94 470.39 903.21 466.96 904.32 463.17 904.14 460.67 902.9 453.22 900 449.83 897.1 446.3 895.78 441.76 892.98 440.88 891.81 439.76 888.85 439.18 885.93 439.04 882.43 440.87 876.72 441.17 874.89 440.55 872.82 437.16 868.73 435.19 867.3 429.48 864.88 426.88 862.95 422.32 859.61 420.49 858.93 418.16 859.08 416.42 859.96 415.4 861.39 415.11 863.33 415.58 865.94 416.59 867.09 418.27 867.87 423.28 868.43 427.78 869.64 428.92 871.43 428.26 873.43 427.37 874.6 425.3 875.83 422.39 875.99 420.16 875.59 415.93 875.28 412.99 876.7 410.78 880.99 409.47 881.61 404.18 877.51 402.04 876.29 398.13 876.07 396.49 876.63 394.35 878.47 393.95 879.41 394.15 881.62 396.01 883.8 400.67 885.35 402.33 886.57 402.56 888.61 401.76 890.91 400.68 892.14 398.39 893.93 396.25 894.93 393.79 895.51 390.03 895.8 386.27 895.7 383.72 895.89 380.61 897.2 379.79 899.82 379.98 902.38 379.57 905.65 379.84 914.81 381.19 918.16 383.6 920.64 384.23 923.42 383.37 924.4 381.15 925.49 377.81 926.67 375.73 926.72 369.78 925.47 365.01 925.46 362.78 927.25 361.72 929.76 362.22 934.5 361.92 936.9 362.27 938.6 360.55 940.95 355.44 943.64 352.54 944.63 349.24 944.89 347.76 944.29 346.88 942.81 346.71 941.16 347.74 938.06 350.07 934.12 350.99 932.03 351.16 930.25 350.76 929.13 349.61 928.21 343.97 927.22 342.3 927.2 338.48 929.35 335.01 931.62 332.28 932.58 329.63 931.94 325.08 927.25 318.88 918.3 318.25 916.15 316.68 914.25 315.89 911.6 314.78 909.32 310.05 907.05 307.59 907.09 305.7 908.02 300.48 909.62 298.92 910.5 295.2 913.85 292.92 915.5 291.79 917 289.03 919.64 284.53 922.1 278.25 922.8 273.13 922.87 271.16 923.33 265.42 925.15 262.44 926.32 257.48 929.12 255.63 930.72 254.52 932.24 254.28 933.39 255.05 936.13 255.03 938.32 253.56 941.9 251.77 948.28 250.91 949.81 250.19 952.14 248.64 954.54 246.75 956.12 243.38 958.1 239.89 958.99 237.43 959.14 234.4 958.38 233.16 956.66 232.79 954.3 231.43 951.17 228.16 946.67 226.62 945.43 224.37 944.74 223.07 945.03 216.09 944.16 212.32 943.09 208.36 940.82 203.58 938.39 200.88 936.26 198.03 934.38 193.34 931.68 192.46 931.36 188.11 929.39 184.04 928.86 178.31 925.77 176.07 923.88 175.9 923.31 172.41 921.72 167.68 920.38 165.68 920.04 159.93 920.18 157.25 920.74 153.42 922.69 149.63 925.14 145.57 928.25 143.42 929.22 142.27 929.27 139.7 927.62 137.35 926.9 133.32 925.07 131.5 924.04 129.42 922.19 127.47 919.15 126.9 917.46 126.92 914.95 126.26 913.92 123.95 912.69 122.16 912.73 120.58 913.65 119.51 918.87 116.72 921.61 115.89 923.25 114.99 923.53 114.33 925.91 115.62 928.5 116.54 929.49 120.35 931.74 124.01 934.47 124.74 935.88 124.79 937.45 123.8 938.29 123.26 940.8 121.43 943.43 119.25 945.65 117.31 947.17 114.34 948 111.11 948.54 107.95 948.62 103.97 948.17 101.79 946.11 101.13 943.51 101.24 941.35 104.85 935.63 105.49 933.84 104.82 931.84 103.11 930.54 100.57 929.94 97.82 931.1 93.6 932.44 91.06 932.66 87.65 932.1 82.56 932.83 79.82 934.05 76.73 936.17 74.15 936.76 70.93 936.79 65.7 936.5 63.49 935.66 61.56 933.72 61.55 932.38 58.81 930.4 57.85 928.45 56.56 926.92 54.65 925.32 52.8 924.51 49.41 924.11 47.73 924.67 46.59 925.6 40.59 931.74 39.01 933.81 38.79 935.77 39.51 937.98 42.42 941.11 44.88 942.78 46.26 944.54 47.78 950.86 46.99 953.08 45.37 953.95 41.07 955.32 40.13 957.23 37.61 961.23 35.73 961.71 34.44 961.46 31.9 959.43 31.08 958.43 24.25 955.17 21.04 954.45 17.83 955.1 17.16 953.14 15.52 952.53 13.56 952.95 9.59 954.77 7.56 954.5 5.96 953.64 2.89 950.87 2.88 948.73 5.1 947.46 6.74 947.88 9.24 949.16 10.59 949.5 14.02 949.72 16.63 949.04 17.67 948.38 18.3 946.79 17.78 945.61 15.9 944.64 12.67 944.02 10.26 943.17 8.07 940.94 5.66 935.85 4.25 934.3 1.71 932.34 1 930.46 1.54 929.42 3.81 929.45 7.37 931.83 11.24 932.93 13.76 932.94 17.56 932.6 18.6 933.51 20.46 933.42 21.36 932.06 20.29 930.17 19.71 927.68 19.15 927.27 16.64 927.53 15.81 927.24 11.72 926.95 9.59 926.51 8.15 925.35 7.81 924.36 9.32 922.93 10.82 922.6 12.86 924.38 15.49 924.9 17.09 923.87 17.18 923.1 15.88 920.53 15.66 917.27 16.2 916.86 19.55 916.53 20.65 915.99 21.46 914.8 21.55 912.26 19.07 907.22 18.36 904.99 18.69 903.6 20.02 901.45 22.74 899.72 21.65 898.59 20.33 898.37 17.9 899.09 16.36 899.02 14.43 897.36 14.43 895.58 16.07 894.42 17.34 894.18 23.44 894.45 27.28 893.35 29.7 892.33 32.47 890.58 35.01 885.98 33.95 882.63 30.53 884.06 23.45 886.52 21.83 886.34 20.53 883.69 21.42 881.81 25.21 880.59 28.65 880.94 30.65 880.12 30.72 877.93 31.93 875.25 33.17 874.79 35.2 874.73 37.29 876.17 40.2 873.16 42.44 872.15 41.86 870.51 44.39 869.19 46 867.68 46.06 866.36 44.5 864.79 42.82 865.26 42.42 866.64 42.74 867.86 41.14 869.08 40.18 868.37 40.53 867.16 39.88 865.47 38.91 864.61 34.33 862.33 31.83 860.55 28.73 856.96 28.04 854.24 28.22 851.7 29.36 849.87 29.44 848.54 28.66 846.52 27.43 845.12 28.94 844.98 31.26 847.24 32.39 849.72 34.16 849.63 34.72 848.63 34.48 847.33 35.65 845.8 37.57 845.25 38.53 844.05 36.88 843.13 36.1 841.59 36.79 839.94 39.05 838.93 39.67 836.31 40.27 835.66 42.65 834.81 44.69 834.64 45.92 835.07 46.61 836.66 44.01 840.29 44.42 841.69 45.99 842.19 47.01 841.8 49.19 839.43 51.5 838.12 53.89 832.6 55.76 831.54 57.27 831.91 58.19 833.74 56.79 836.9 57.56 839.26 58.38 840.09 60.43 840.48 62.87 839.28 63.96 837.98 65.29 834.64 65.32 833.14 64.71 830.72 64.86 828.5 66.47 825.45 67.27 823.19 69.42 821.53 71.28 819.28 76.36 818.11 77.4 817.54 80.04 815.05 84.78 809.67 86.29 807.24 86.51 803.82 87.48 801.03 89.44 800.07 89.41 798.55 87.07 797.22 84.78 797.35 83.36 796.94 83.3 795.34 86.08 791.79 88.43 791.12 93.45 791.16 97.4 789.66 100.22 788.28 102.04 786.69 103.03 784.94 104.1 784.59 106.58 785.89 108.3 785.54 109.88 784.13 109.99 782.99 107.39 781.1 106.16 778.48 104.35 776.42 104.04 775.42 105.89 773.95 108.39 773.02 108.84 772.41 108.21 770.65 109.38 769.14 110.72 768.85 111.75 767.71 111.23 764.69 111.93 764.02 115.76 765.58 117.42 765.24 118.29 764.01 117.67 763.43 115.46 763.28 114.8 762.43 114.33 760.49 116.01 759.15 115.53 757.69 117.19 756 115.86 753.16 116.74 752.08 119.01 751.4 120.2 749.89 120.22 748.66 121.58 746.5 123.88 745.38 128.23 744.32 134.03 743.54 137.48 741.99 140.28 738.82 140.3 735.63 140.97 734.22 142.95 731.94 143.5 730.07 145.95 728.52 145.84 727.86 144.03 726.18 145.25 724.23 145.74 722.06 144.88 721.49 143.03 721.94 141.54 721.49 142.16 720.43 144.09 720.33 145.34 719.73 146.15 718.4 144.73 716.14 143.02 715.1 140.37 711.54 138.54 709.88 139.78 707.66 138.57 704.77 138.76 702.31 138.21 701.61 136.03 701.16 132.47 699.54 132.72 698.51 134.34 698.8 134.58 697.7 133.53 696.6 134.11 695.58 136.13 695.42 136.57 694.65 135.91 693.56 134.33 692.64 134.38 691.16 136.19 691.05 137.07 689.61 139.14 688.73 138.28 687.76 138.73 686.83 138.32 685.35 140.39 684.54 140.99 682.03 139.88 680.61 139.94 679.84 141.55 678.46 141.78 676.49 139.14 674.82 137.89 672.66 134.78 671.78 133.43 671.07 127.3 669.4 126.14 668.6 128.84 667.45 126.3 666.4 125.94 665.51 127.23 663.8 128.21 661.22 127.97 659.88 125.68 655.79 127.59 653.71 127.52 652.1 126.46 651.4 124.88 649.53 122.96 648.27 121.79 646.71 120.65 646.29 117.07 646.01 116.03 645.05 116 643.85 117.19 642.83 117.54 641.57 116.49 640.78 111.62 640.39 109.07 640.65 107.76 639.62 108.63 637.85 111.1 638.35 112.49 636.97 110.76 636.22 110.52 634.93 107.61 634.04 106.77 633.14 108.1 631.22 108.46 629.62 110.9 628.05 112.63 628.95 113.84 627.84 111.68 627.57 110.78 626.76 111.78 625.33 115.23 625.07 116.19 624.72 115.82 621.6 119.67 621.12 120.18 619.82 122.32 618.95 124.35 617.63 124.53 616.46 126.45 615.05 127.03 611.96 125.89 607.24 127.64 606.21 126.99 604.45 125.57 604.42 122.75 606.37 119.58 603.01 120.58 599.81 118.64 598.81 118.81 596.85 121.56 594.38 120.95 593.42 119.63 592.87 117.54 593.42 116.35 593.24 116.05 591.86 119.49 590.97 121.7 588.34 123.54 585.49 126.13 583.93 127.97 583.7 131.09 584.17 132.89 583.2 133.95 581.08 136.02 581.1 137.38 581.9 137.45 560.52 137.38 550.99 137.34 537.05 137.22 512.73 137.11 503.58 136.99 472.25 136.99 455.15 137.1 441.82 137.11 432.38 137.24 425.06 137.25 410.89 137.42 389.38 137.86 357.13 138.23 335.76 138.7 303.24 138.65 299.56 138.73 279.46 138.66 261.56 138.82 223.7 138.71 200.2 138.74 192.22 138.63 178.34 138.57 148.27 138.6 144.21 138.61 128.72 138.56 109.03 138.71 84.53 138.85 69.75 138.83 56.96 138.92 39.38 139.04 25.45 139.02 18.76 139.18 13.62 Z" fill="none" stroke="currentColor" stroke-width="55.854"/>
</g>
</svg>