<?xml version="1.0"?>
<svg width="20" height="20" xmlns="http://www.w3.org/2000/svg" version="1.2" baseProfile="tiny" viewBox="-304.700 -97.200 1409.400 1409.400" stroke-linecap="round" stroke-linejoin="round">
<g id="state">
<path d="M 163.8 14.06 164.46 13.55 165.88 15.25 165.59 16.18 167.4 18.48 169.56 20.34 172.57 21.8 174 22.99 174.53 24.39 176.41 25.29 177.68 23.56 180.63 21.79 181.34 22.1 182.24 25.39 182.16 26.81 183.22 27.83 184.25 26.76 183.02 23.08 186.39 20.11 188.46 20.73 190.21 23.18 188.68 24.53 189.97 26.22 187.06 29.45 183.39 30.71 184.98 33.53 187.03 35.1 189.16 34.33 191.39 35.71 198.85 38.69 203.74 39.84 210.31 40.88 211.79 41.8 213.2 41.34 214.78 42.34 215.09 41.07 217.14 41.85 219.58 42.11 223.35 42.06 232.76 41.07 242.2 39.22 243.03 38.34 246.23 37.93 247.17 36.06 248.92 36.14 249.62 34.89 250.92 34.92 253.61 34.1 255.84 34.52 260.75 33.18 268.35 30.23 277.15 26.46 284.87 22.74 292.08 19.08 296.63 17.01 301.38 15.21 302.84 14.11 304.55 10.91 308.78 9.39 312.31 7.66 323.99 1 352.56 1.52 377.26 1.89 397.73 2.02 411.09 2.21 430 2.27 436.77 2.22 473.2 2.39 487.68 2.4 531.5 2.86 542.62 3.02 569.53 3.18 590.22 3.16 616.76 3.02 631.95 3.06 632.5 2.99 656.82 2.79 705.3 2.67 727.61 2.5 737.23 2.38 745.34 2.4 785.35 1.84 785.53 21.39 785.73 41.12 786.25 67.56 786.58 87.79 786.88 109.21 787.12 134.67 787.37 151.05 787.83 195.37 788.17 222.98 788.3 237.07 788.66 263.67 788.94 281.72 789.26 312.43 789.63 349.07 789.84 382.26 789.8 407.03 789.83 416.19 790.05 431.35 790.21 440.16 790.23 455.17 789.96 484.02 789.65 509.38 789.61 521.87 789.4 540.95 789.32 562.89 789.31 580.12 789.23 595.77 789.48 626.91 789.67 662.38 789.8 684.88 789.83 698.09 789.75 698.49 789.64 726.05 789.49 737.76 789.45 751.03 789.47 768.69 789.78 795.77 789.85 811.97 786.95 813.5 784.01 816.21 783 817.69 779.89 820.71 777.5 822.2 773.41 824.25 771.65 826.76 771.89 828.29 774.15 832.35 777.64 835.61 781.26 840.4 783.12 843.26 783.85 845.18 785.79 847.25 787.09 849.94 787.93 853.49 786.67 857.04 783.43 859.92 781.72 862.31 779.26 864.6 776.61 868.62 776.29 869.85 777.06 872.34 778.48 874.54 780.81 875.43 785.64 875.42 791.78 876.01 794.81 877.08 796.91 878.42 798.76 880.39 799 882.16 798.63 884.12 797.63 886.4 794.78 889.47 791.19 891.98 789.78 893.28 788.29 895.93 789.11 899.67 791.58 903.54 792.78 907.58 791.83 909.99 789 910.3 787.09 909.97 784.48 908.96 780.75 907.96 777.21 907.56 774.6 906.88 770.86 908.37 767.49 910.45 763.59 912.31 760.54 912.94 756.78 912.13 751.96 911.79 749.06 912.44 745.06 915.82 741.23 918.09 738.24 919.17 735.37 921.41 730.47 923.61 726.4 926.58 723.72 928.09 722.37 929.76 718.43 933.15 716.45 935.33 712.22 937.95 706.58 939.93 702.88 940.08 701.85 939.44 699.07 938.78 697.08 937.71 693.87 934.51 691.23 929.81 689.08 926.73 686.08 924.83 681.23 923.67 675.76 923.61 672.21 924.35 663.68 926.85 658.89 927.18 652.99 925.66 650.35 925.17 646.95 925.94 643.49 928.1 642.05 930.75 640.35 932.97 639.02 937.66 638.79 939.97 639.33 942.41 642.03 946.2 643.18 949.06 642.97 957.62 643.29 965.18 643.88 967.37 646.43 972.25 648.3 976.32 648.91 980.37 648.8 983.8 647.85 986.74 645.95 989.07 644.34 990.43 640.6 992.15 636.47 994.48 634.32 997.15 633 1001.36 631.27 1004.37 629.07 1007.08 627.24 1008.33 622.55 1010.52 616.16 1011.69 611.28 1011.97 608.1 1012.77 603.62 1015.62 600.14 1020.25 599.11 1023.71 596.94 1028.8 595.57 1034.13 595.37 1039.13 593.96 1044.57 591.32 1051.37 587.58 1056.41 586.93 1057.92 584.18 1060.22 570.62 1068.46 568.92 1068.55 565.84 1067.05 564.47 1065.57 564.71 1064.62 563.06 1062.93 559.73 1062.09 556.87 1063.09 553.08 1063.76 550.88 1064.62 549.59 1065.72 547.73 1069.72 547.64 1073.03 547.16 1076.92 546.25 1078.92 544.12 1082.17 538.54 1086.68 535.79 1089.93 533.61 1093.19 531.59 1096.99 530.77 1099.6 530.24 1106.62 530.47 1110.51 531.27 1116.94 531.17 1122.6 528.72 1129.4 527.36 1140.18 526.69 1142.33 525.49 1144.37 522.02 1147.94 520.96 1148.47 516.75 1149.09 513.64 1148.96 505.9 1150.45 501.93 1151.68 500.39 1152.88 499.63 1155.66 500.06 1159.05 499.68 1161.25 498.74 1162.44 496.77 1162.43 494.14 1159.78 492.59 1157.44 491.17 1154.61 489.65 1150.73 487.25 1148.3 482.69 1145.91 478.4 1144.92 474.52 1145.01 472.26 1145.34 468.81 1146.72 465.01 1146.48 462.51 1144.9 455.08 1141.19 451.7 1137.48 448.17 1135.8 443.66 1132.21 442.78 1130.73 441.68 1126.98 441.12 1123.27 441.02 1118.84 442.9 1111.62 443.21 1109.3 442.61 1106.68 439.25 1101.47 437.3 1099.65 431.6 1096.55 429.02 1094.09 424.49 1089.82 422.67 1088.95 420.34 1089.12 418.6 1090.22 417.57 1092.02 417.25 1094.48 417.7 1097.79 418.7 1099.26 420.37 1100.26 425.37 1101 429.86 1102.57 430.99 1104.85 430.31 1107.37 429.41 1108.85 427.33 1110.38 424.42 1110.57 422.18 1110.04 417.95 1109.62 415 1111.4 412.75 1116.82 411.43 1117.59 406.18 1112.35 404.05 1110.79 400.14 1110.48 398.5 1111.18 396.33 1113.49 395.92 1114.67 396.1 1117.47 397.94 1120.25 402.59 1122.25 404.23 1123.81 404.45 1126.39 403.61 1129.31 402.53 1130.85 400.21 1133.1 398.06 1134.35 395.59 1135.06 391.82 1135.39 388.05 1135.23 385.5 1135.45 382.37 1137.08 381.51 1140.39 381.68 1143.64 381.23 1147.77 381.39 1159.38 382.7 1163.64 385.09 1166.79 385.69 1170.33 384.82 1171.56 382.58 1172.92 379.22 1174.38 377.13 1174.43 371.18 1172.78 366.39 1172.73 364.13 1174.98 363.03 1178.14 363.47 1184.15 363.15 1187.19 363.48 1189.34 361.72 1192.3 356.55 1195.66 353.62 1196.87 350.31 1197.17 348.83 1196.4 347.96 1194.51 347.82 1192.42 348.9 1188.5 351.28 1183.54 352.23 1180.9 352.43 1178.65 352.05 1177.23 350.9 1176.05 345.25 1174.73 343.58 1174.7 339.71 1177.37 336.2 1180.21 333.45 1181.4 330.8 1180.55 326.31 1174.57 320.21 1163.15 319.62 1160.42 318.07 1158 317.32 1154.64 316.24 1151.73 311.53 1148.8 309.07 1148.82 307.16 1149.97 301.9 1151.93 300.32 1153.03 296.54 1157.22 294.23 1159.28 293.07 1161.17 290.25 1164.47 285.7 1167.53 279.39 1168.33 274.25 1168.35 272.27 1168.9 266.48 1171.13 263.47 1172.56 258.44 1176.04 256.55 1178.04 255.41 1179.95 255.14 1181.4 255.87 1184.89 255.81 1187.66 254.27 1192.17 252.35 1200.22 251.45 1202.14 250.68 1205.09 249.08 1208.11 247.15 1210.07 243.73 1212.53 240.21 1213.6 237.73 1213.76 234.69 1212.75 233.49 1210.55 233.16 1207.56 231.86 1203.57 228.67 1197.82 227.14 1196.22 224.89 1195.31 223.58 1195.66 216.59 1194.44 212.83 1193.02 208.9 1190.08 204.15 1186.92 201.48 1184.18 198.67 1181.74 194.01 1178.25 193.14 1177.82 188.82 1175.25 184.74 1174.52 179.06 1170.49 176.87 1168.05 176.71 1167.33 173.24 1165.25 168.53 1163.47 166.53 1163 160.77 1163.07 158.06 1163.73 154.17 1166.12 150.31 1169.16 146.16 1173.01 143.98 1174.19 142.82 1174.24 140.28 1172.1 137.94 1171.13 133.94 1168.74 132.15 1167.4 130.11 1165.02 128.23 1161.12 127.7 1158.97 127.79 1155.79 127.15 1154.47 124.86 1152.87 123.07 1152.88 121.46 1154.01 120.26 1160.61 117.38 1164.01 116.5 1166.08 115.59 1166.41 114.87 1169.41 116.1 1172.71 116.99 1174 120.75 1176.92 124.36 1180.46 125.05 1182.25 125.06 1184.25 124.04 1185.29 123.44 1188.45 121.54 1191.75 119.28 1194.52 117.3 1196.4 114.3 1197.39 111.03 1198.01 107.85 1198.05 103.87 1197.39 101.73 1194.73 101.15 1191.43 101.31 1188.69 105.09 1181.52 105.79 1179.27 105.16 1176.72 103.48 1175.04 100.95 1174.23 98.15 1175.63 93.89 1177.24 91.33 1177.46 87.92 1176.67 82.8 1177.48 80.01 1178.97 76.85 1181.59 74.24 1182.27 71 1182.23 65.76 1181.75 63.57 1180.63 61.69 1178.12 61.72 1176.43 59.02 1173.85 58.12 1171.37 56.87 1169.4 55 1167.32 53.17 1166.26 49.78 1165.67 48.08 1166.34 46.91 1167.48 40.7 1175.11 39.05 1177.7 38.77 1180.17 39.42 1182.99 42.24 1187.03 44.67 1189.2 46 1191.47 47.34 1199.52 46.47 1202.3 44.82 1203.37 40.45 1205 39.45 1207.4 36.79 1212.4 34.89 1212.96 33.6 1212.61 31.11 1209.98 30.32 1208.69 23.56 1204.39 20.35 1203.39 17.1 1204.14 16.5 1201.64 14.86 1200.83 12.88 1201.31 8.83 1203.51 6.8 1203.11 5.22 1201.99 2.23 1198.4 2.28 1195.69 4.56 1194.14 6.2 1194.72 8.66 1196.4 10.01 1196.86 13.45 1197.23 16.09 1196.43 17.15 1195.62 17.84 1193.63 17.36 1192.12 15.5 1190.84 12.27 1189.98 9.89 1188.84 7.76 1185.95 5.5 1179.45 4.14 1177.44 1.65 1174.9 1 1172.49 1.57 1171.2 3.85 1171.28 7.35 1174.4 11.2 1175.89 13.72 1175.96 17.55 1175.63 18.57 1176.81 20.44 1176.74 21.38 1175.05 20.37 1172.63 19.87 1169.45 19.32 1168.92 16.79 1169.19 15.97 1168.79 11.88 1168.33 9.75 1167.72 8.34 1166.21 8.04 1164.94 9.6 1163.17 11.11 1162.79 13.1 1165.1 15.72 1165.82 17.37 1164.56 17.48 1163.59 16.25 1160.3 16.14 1156.16 16.69 1155.65 20.07 1155.33 21.18 1154.68 22.04 1153.18 22.21 1149.97 19.88 1143.53 19.24 1140.68 19.62 1138.92 21.02 1136.24 23.8 1134.11 22.75 1132.65 21.43 1132.34 18.97 1133.2 17.43 1133.07 15.55 1130.91 15.61 1128.65 17.29 1127.23 18.57 1126.96 24.67 1127.45 28.55 1126.16 31 1124.93 33.84 1122.78 36.53 1117.01 35.57 1112.75 32.09 1114.47 24.93 1117.41 23.32 1117.14 22.1 1113.75 23.05 1111.39 26.88 1109.94 30.32 1110.47 32.34 1109.49 32.48 1106.72 33.78 1103.35 35.04 1102.8 37.07 1102.77 39.11 1104.65 42.12 1100.9 44.39 1099.67 43.86 1097.59 46.43 1095.98 48.09 1094.1 48.19 1092.43 46.67 1090.41 44.98 1090.96 44.54 1092.71 44.82 1094.26 43.19 1095.76 42.24 1094.83 42.63 1093.31 42.04 1091.15 41.09 1090.05 36.58 1087.04 34.14 1084.72 31.15 1080.09 30.55 1076.63 30.81 1073.42 32 1071.14 32.13 1069.45 31.41 1066.87 30.23 1065.07 31.75 1064.92 33.99 1067.85 35.04 1071.02 36.81 1070.95 37.4 1069.7 37.2 1068.04 38.42 1066.13 40.35 1065.48 41.35 1063.98 39.74 1062.78 39 1060.81 39.74 1058.74 42.03 1057.52 42.73 1054.21 43.35 1053.4 45.75 1052.38 47.79 1052.21 49.01 1052.79 49.65 1054.83 46.95 1059.36 47.31 1061.15 48.86 1061.81 49.89 1061.34 52.14 1058.39 54.48 1056.79 57.04 1049.85 58.94 1048.56 60.43 1049.06 61.29 1051.4 59.8 1055.37 60.51 1058.38 61.3 1059.46 63.33 1059.99 65.81 1058.53 66.93 1056.91 68.36 1052.71 68.43 1050.8 67.9 1047.73 68.12 1044.92 69.8 1041.09 70.68 1038.25 72.87 1036.2 74.79 1033.39 79.89 1032.02 80.95 1031.33 83.65 1028.24 88.53 1021.53 90.1 1018.49 90.42 1014.15 91.47 1010.64 93.44 1009.47 93.46 1007.54 91.16 1005.81 88.88 1005.92 87.48 1005.37 87.46 1003.34 90.33 998.91 92.7 998.12 97.69 998.28 101.66 996.46 104.51 994.78 106.37 992.8 107.41 990.6 108.48 990.18 110.91 991.88 112.63 991.48 114.24 989.73 114.38 988.28 111.85 985.83 110.7 982.49 108.95 979.84 108.67 978.57 110.55 976.75 113.06 975.62 113.53 974.86 112.95 972.62 114.16 970.72 115.5 970.39 116.55 968.96 116.11 965.13 116.83 964.29 120.59 966.35 122.25 965.96 123.15 964.41 122.55 963.67 120.36 963.43 119.72 962.34 119.31 959.87 121.02 958.22 120.57 956.35 122.27 954.24 121.03 950.63 121.94 949.27 124.21 948.46 125.43 946.57 125.49 945.01 126.89 942.31 129.2 940.93 133.56 939.69 139.33 938.81 142.79 936.92 145.65 932.96 145.76 928.92 146.47 927.14 148.48 924.3 149.08 921.94 151.55 920.02 151.46 919.18 149.71 917.02 150.96 914.58 151.51 911.83 150.66 911.1 148.82 911.63 147.35 911.03 147.99 909.7 149.91 909.61 151.16 908.88 152.01 907.21 150.65 904.32 148.98 902.96 146.45 898.4 144.68 896.27 145.96 893.48 144.84 889.8 145.09 886.68 144.56 885.79 142.41 885.16 138.93 883.04 139.21 881.74 140.81 882.14 141.07 880.76 140.06 879.34 140.66 878.06 142.67 877.9 143.12 876.94 142.49 875.54 140.95 874.34 141.04 872.47 142.83 872.36 143.74 870.56 145.82 869.48 144.99 868.24 145.46 867.07 145.1 865.18 147.17 864.2 147.82 861.04 146.76 859.22 146.84 858.24 148.47 856.52 148.75 854.03 146.17 851.86 145 849.1 141.94 847.92 140.63 847 134.61 844.76 133.48 843.71 136.19 842.32 133.7 840.93 133.37 839.8 134.69 837.66 135.73 834.41 135.53 832.71 133.37 827.48 135.31 824.89 135.28 822.84 134.26 821.94 132.74 819.53 130.88 817.9 129.77 815.9 128.66 815.34 125.13 814.91 124.13 813.66 124.14 812.15 125.33 810.88 125.72 809.3 124.7 808.27 119.9 807.67 117.38 807.95 116.11 806.61 117.02 804.39 119.44 805.08 120.86 803.36 119.17 802.37 118.97 800.73 116.12 799.54 115.31 798.39 116.68 795.97 117.08 793.97 119.53 792.03 121.22 793.2 122.44 791.82 120.32 791.43 119.45 790.39 120.47 788.6 123.88 788.35 124.84 787.91 124.56 783.96 128.37 783.44 128.91 781.8 131.04 780.73 133.08 779.11 133.29 777.62 135.21 775.88 135.87 771.98 134.88 765.97 136.62 764.71 136.03 762.46 134.64 762.4 131.8 764.81 128.77 760.48 129.84 756.45 127.96 755.15 128.18 752.66 130.96 749.59 130.39 748.36 129.09 747.64 127.02 748.29 125.86 748.03 125.61 746.29 129.01 745.24 131.26 741.94 133.15 738.38 135.74 736.45 137.55 736.2 140.61 736.86 142.41 735.67 143.5 733.01 145.54 733.07 146.85 734.11 147.48 707.03 147.66 694.95 147.99 677.29 148.51 646.48 148.65 634.88 149.36 595.19 149.8 573.52 150.27 556.63 150.52 544.67 150.85 535.4 151.23 517.45 151.98 490.19 153.26 449.35 154.19 422.27 155.51 381.08 155.56 376.41 156.17 350.95 156.59 328.26 157.76 280.29 158.29 250.51 158.53 240.39 158.8 222.81 159.55 184.7 159.69 179.55 160.12 159.93 160.61 134.97 161.42 103.92 161.95 85.2 162.28 68.99 162.85 46.7 163.34 29.05 163.51 20.59 163.8 14.06 Z" fill="none" stroke="currentColor" stroke-width="70.470"/>
</g>
</svg>