<svg viewBox="-88.4967851 -42.1595901 4.111143199999987 4.786717200000005" xmlns="http://www.w3.org/2000/svg">
  <path d="M -87.524165,41.708314 L -87.524813,41.686938 L -87.524743,41.659198 L -87.525244,41.60136 L -87.525607,41.528344 L -87.525538,41.475247 L -87.526109,41.413894 L -87.52672845446742,41.3121555770945 L -87.526517,41.230379 L -87.52658219837443,41.16609037605854 L -87.526696,41.149222 L -87.526428,41.024366 L -87.525995,40.966757 L -87.526098,40.933603 L -87.525668,40.836016 L -87.526301,40.678849 L -87.52603,40.604491 L -87.52637,40.521071 L -87.526168,40.505761 L -87.528108,40.370747 L -87.529631,40.282001 L -87.531449,40.148127 L -87.53218445932707,40.05880191275285 L -87.53223,39.99997 L -87.532773,39.969569 L -87.532799,39.930374 L -87.533269,39.875036 L -87.533238,39.80402 L -87.532736,39.673944 L -87.53230049417576,39.63593665463395 L -87.531811,39.534969 L -87.53164,39.477105 L -87.531355,39.437511 L -87.531647,39.34876 L -87.537271,39.352089 L -87.545882,39.352147 L -87.55026,39.343348 L -87.557744,39.339335 L -87.570705,39.341267 L -87.578331,39.340343 L -87.589084,39.333831 L -87.596729,39.322029 L -87.60592,39.311076 L -87.620178,39.307395 L -87.618964,39.301691 L -87.614015,39.300938 L -87.605348,39.303217 L -87.599835,39.300934 L -87.597323,39.296957 L -87.608753,39.286689 L -87.609438,39.278535 L -87.601393,39.27439 L -87.605543,39.261122 L -87.592394,39.247146 L -87.580652,39.255237 L -87.574791,39.255129 L -87.572088,39.247825 L -87.579319,39.243552 L -87.574615,39.223931 L -87.577029,39.211123 L -87.584977,39.205276 L -87.585725,39.200396 L -87.594151,39.194932 L -87.603045,39.191304 L -87.605173,39.185897 L -87.62114,39.183898 L -87.619618,39.170975 L -87.623607,39.16949 L -87.637934,39.168428 L -87.642065,39.162477 L -87.638324,39.159139 L -87.629377,39.158023 L -87.634379,39.153419 L -87.641581,39.157132 L -87.651719,39.150602 L -87.653201,39.143993 L -87.658745,39.135997 L -87.655239,39.132283 L -87.643145,39.128562 L -87.64217,39.123212 L -87.634971,39.120089 L -87.640761,39.114372 L -87.651022,39.116439 L -87.654636,39.109111 L -87.649166,39.104803 L -87.638585,39.105894 L -87.618385,39.104284 L -87.613996,39.100995 L -87.615465,39.095771 L -87.620387,39.091522 L -87.620258,39.086572 L -87.615964,39.082566 L -87.601101,39.081405 L -87.596373,39.079639 L -87.591515,39.073181 L -87.583546,39.067947 L -87.576984,39.060182 L -87.572588,39.057286 L -87.57229,39.050587 L -87.580207,39.04194 L -87.570686,39.024967 L -87.569696,39.019413 L -87.573761,39.008684 L -87.579117,39.001607 L -87.577627,38.997914 L -87.567085,38.993544 L -87.578319,38.988786 L -87.573466,38.985441 L -87.548034,38.978504 L -87.542437,38.975587 L -87.529496,38.971925 L -87.524335,38.962964 L -87.513346,38.956 L -87.514311,38.947837 L -87.521,38.942107 L -87.52124,38.93889 L -87.516628,38.932995 L -87.519119,38.922603 L -87.527715,38.919232 L -87.526046,38.913073 L -87.527887,38.909201 L -87.524314,38.905194 L -87.53293,38.901519 L -87.536591,38.895566 L -87.544089,38.895093 L -87.544292,38.888953 L -87.537746,38.88512 L -87.534992,38.880594 L -87.536816,38.877408 L -87.545203,38.87673 L -87.547611,38.872516 L -87.543271,38.867941 L -87.544235,38.863375 L -87.550985,38.864601 L -87.552028,38.860318 L -87.537248,38.853592 L -87.528194,38.851691 L -87.525893,38.848795 L -87.526695,38.838578 L -87.521681,38.826576 L -87.526816,38.817369 L -87.51922,38.810478 L -87.508211,38.795716 L -87.501123,38.79138 L -87.495199,38.781979 L -87.498587,38.77648 L -87.503768,38.773981 L -87.511798,38.773558 L -87.514373,38.769172 L -87.508183,38.767312 L -87.500494,38.769176 L -87.496906,38.766818 L -87.498948,38.757774 L -87.504006,38.74971 L -87.496494,38.742728 L -87.496041,38.739981 L -87.5062157994966,38.73354147292899 L -87.508515,38.725768 L -87.516707,38.716332 L -87.519519,38.710455 L -87.51961,38.697198 L -87.531231,38.684036 L -87.545538,38.677613 L -87.569607,38.674358 L -87.587684,38.66998 L -87.597247,38.665314 L -87.602863,38.656363 L -87.60295,38.651236 L -87.607896,38.644984 L -87.617315,38.642157 L -87.62098,38.637655 L -87.615469,38.625889 L -87.622375,38.618873 L -87.620352,38.612786 L -87.627345,38.607237 L -87.625406,38.599188 L -87.622636,38.595648 L -87.613461,38.595042 L -87.610886,38.592632 L -87.614508,38.58751 L -87.621401,38.586118 L -87.63731158224437,38.59260020908845 L -87.64021,38.589795 L -87.638049,38.577263 L -87.642308,38.572505 L -87.647886,38.571341 L -87.652738,38.565039 L -87.650141,38.557735 L -87.651999,38.555209 L -87.662401,38.551337 L -87.670071,38.545237 L -87.668788,38.541078 L -87.66124,38.532526 L -87.656144,38.521668 L -87.645371,38.513835 L -87.64581,38.509082 L -87.652365,38.503219 L -87.65953,38.501791 L -87.669811,38.507178 L -87.674239,38.505724 L -87.678374,38.498438 L -87.685921,38.491843 L -87.697652,38.486103 L -87.714047,38.47988 L -87.73486,38.48004 L -87.744644,38.477266 L -87.756179,38.462538 L -87.755931,38.455876 L -87.750026,38.45418 L -87.740525,38.454716 L -87.73082,38.449228 L -87.730699,38.442908 L -87.738812,38.438929 L -87.742828,38.427335 L -87.743772,38.413115 L -87.75003,38.403027 L -87.769721,38.380695 L -87.78066,38.370343 L -87.784994,38.368011 L -87.806075,38.363143 L -87.813791,38.353792 L -87.822721,38.346912 L -87.826076,38.337529 L -87.832723,38.324853 L -87.833344,38.315649 L -87.830849,38.305608 L -87.830953,38.299365 L -87.836495,38.285486 L -87.840984,38.280105 L -87.85113,38.27512 L -87.859651,38.276711 L -87.863032,38.280172 L -87.866248,38.28998 L -87.860453,38.303113 L -87.864271,38.310703 L -87.870537,38.31222 L -87.878303,38.307849 L -87.888223,38.284917 L -87.897803,38.279482 L -87.906841,38.269634 L -87.91111,38.268031 L -87.917615,38.270078 L -87.919292,38.275908 L -87.908529,38.290957 L -87.911394,38.297576 L -87.916489,38.299372 L -87.924973,38.298659 L -87.934844,38.295145 L -87.937329,38.292431 L -87.93992,38.281528 L -87.949279,38.277345 L -87.952163,38.270512 L -87.948903,38.264116 L -87.942067,38.260301 L -87.946065,38.255319 L -87.954032,38.253032 L -87.958883,38.246666 L -87.957897,38.241256 L -87.960225,38.237118 L -87.967556,38.236729 L -87.972259,38.247039 L -87.981868,38.256444 L -87.988164,38.255838 L -87.983058,38.250046 L -87.979789,38.241661 L -87.980158,38.236115 L -87.98487,38.228523 L -87.985627,38.217993 L -87.982763,38.206705 L -87.969865,38.191786 L -87.9595,38.184376 L -87.940491,38.174902 L -87.936443,38.171355 L -87.933759,38.164351 L -87.935234,38.159315 L -87.931211,38.156348 L -87.924581,38.161412 L -87.925896,38.166473 L -87.924241,38.17223 L -87.91729,38.174169 L -87.910792,38.167666 L -87.911034,38.162194 L -87.917719,38.155889 L -87.928234,38.150416 L -87.925811,38.143633 L -87.935135,38.139428 L -87.947208,38.126924 L -87.955872,38.132897 L -87.964306,38.132644 L -87.969464,38.130744 L -87.974502,38.1196 L -87.974781,38.110515 L -87.983068,38.107139 L -87.997383,38.10858 L -88.013118,38.103527 L -88.016806,38.095717 L -88.01139,38.084691 L -88.004697,38.083965 L -87.9753,38.094168 L -87.96108,38.1001 L -87.956664,38.086202 L -87.967226,38.067105 L -87.978735,38.059815 L -87.98877,38.055591 L -88.004731,38.051045 L -88.030032,38.052145 L -88.035332,38.051145 L -88.042132,38.046345 L -88.042132,38.038945 L -88.034132,38.032045 L -88.027731,38.031745 L -88.017631,38.034745 L -88.012131,38.033845 L -88.007631,38.029145 L -88.018931,38.021945 L -88.024431,38.013045 L -88.025831,38.007245 L -88.022864,37.997983 L -88.012574,37.977062 L -88.012929,37.966544 L -88.016311,37.961574 L -88.020868,37.959351 L -88.0348,37.957993 L -88.037013,37.956276 L -88.036125,37.942745 L -88.030704,37.932067 L -88.031067,37.928889 L -88.037735,37.924599 L -88.048661,37.926757 L -88.057127,37.934151 L -88.063341,37.932778 L -88.069613,37.926848 L -88.068225,37.922705 L -88.062242,37.917898 L -88.053372,37.916067 L -88.036382,37.914897 L -88.032944,37.91366 L -88.022513,37.914756 L -88.020204,37.913062 L -88.017816,37.902696 L -88.013355,37.894854 L -88.017073,37.889222 L -88.024818,37.88886 L -88.029138,37.892637 L -88.044926,37.891216 L -88.055373,37.891238 L -88.071449,37.895813 L -88.086237,37.905713 L -88.095662,37.905808 L -88.097892,37.901517 L -88.094956,37.893689 L -88.084385,37.885582 L -88.078529,37.879118 L -88.068534,37.858011 L -88.059425,37.848732 L -88.049453,37.845187 L -88.036021,37.842644 L -88.028217,37.838585 L -88.026053,37.833688 L -88.028693,37.827109 L -88.033011,37.824383 L -88.043831,37.821525 L -88.058055,37.822449 L -88.063672,37.823862 L -88.074042,37.82916 L -88.080854,37.830902 L -88.090092,37.825642 L -88.090039,37.816771 L -88.07730666828266,37.8052584823548 L -88.07067,37.801704 L -88.062223,37.800581 L -88.045753,37.808129 L -88.037623,37.809864 L -88.030781,37.807329 L -88.02802002297258,37.799197311646985 L -88.014685,37.801916 L -88.00134,37.798907 L -87.972985,37.785378 L -87.96961,37.781205 L -87.959065,37.772803 L -87.953673,37.771766 L -87.94588355411302,37.77375720897121 L -87.935413,37.790337 L -87.931522,37.798276 L -87.913666,37.80397 L -87.906939,37.807593 L -87.903647,37.816785 L -87.909967,37.843028 L -87.915703,37.850365 L -87.925924,37.857304 L -87.937986,37.870287 L -87.940977,37.879473 L -87.94006,37.887599 L -87.933505,37.896208 L -87.908586,37.921691 L -87.903864,37.925537 L -87.896892,37.927859 L -87.882802,37.926198 L -87.87513,37.922865 L -87.867206,37.916203 L -87.861831,37.909843 L -87.857878,37.901776 L -87.846489,37.893534 L -87.846443,37.887992 L -87.838425,37.879907 L -87.829246,37.876414 L -87.807541,37.875234 L -87.794177,37.875356 L -87.783447,37.877785 L -87.770609,37.886597 L -87.759239,37.891662 L -87.738125,37.894698 L -87.723967,37.892358 L -87.713412,37.893284 L -87.695908,37.898858 L -87.684488,37.903649 L -87.673928,37.901159 L -87.66684,37.895763 L -87.664033,37.887477 L -87.666714,37.880038 L -87.681684,37.856273 L -87.682127,37.847305 L -87.679411,37.836525 L -87.670344,37.827962 L -87.653838,37.826087 L -87.640711,37.82644 L -87.627275,37.828671 L -87.61494498049923,37.83212561896166 L -87.60691803912547,37.83843697883836 L -87.597841,37.847652 L -87.590267,37.85859 L -87.588036,37.868984 L -87.583925,37.872485 L -87.58411806044069,37.87902246313303 L -87.587141,37.884858 L -87.602351,37.896202 L -87.618153,37.905522 L -87.621971,37.909666 L -87.627317,37.920402 L -87.624597,37.930278 L -87.620868,37.931425 L -87.617404,37.93827 L -87.605813,37.949611 L -87.601391,37.971306 L -87.594844,37.975109 L -87.587408,37.975276 L -87.577809,37.970198 L -87.575046,37.965909 L -87.575141,37.955489 L -87.572792,37.948477 L -87.564664,37.935834 L -87.556045,37.928168 L -87.548498,37.92388 L -87.531767,37.916303 L -87.521999,37.913308 L -87.51130926720273,37.90643504054709 L -87.506538,37.906677 L -87.497631,37.910699 L -87.480767,37.923581 L -87.465018,37.933766 L -87.449131,37.941854 L -87.437984,37.944183 L -87.414134,37.944772 L -87.405809,37.943342 L -87.386179,37.937804 L -87.371688,37.931189 L -87.37098,37.928844 L -87.361701,37.920997 L -87.33791,37.908131 L -87.321013,37.905969 L -87.30292593214256,37.89777518154796 L -87.299292,37.896436 L -87.279797,37.885246 L -87.267977,37.877434 L -87.256779,37.868588 L -87.236911,37.858487 L -87.220466,37.849065 L -87.204836,37.844629 L -87.175836,37.841017 L -87.170457,37.842207 L -87.161096,37.839359 L -87.154689,37.834186 L -87.141115,37.815518 L -87.1355,37.80251 L -87.133941,37.792718 L -87.128813,37.785581 L -87.116216,37.782428 L -87.105986,37.783062 L -87.091518,37.78676 L -87.077535,37.794971 L -87.069675,37.801513 L -87.063249,37.811481 L -87.060261,37.821173 L -87.056664,37.827531 L -87.049233,37.853995 L -87.043131,37.868857 L -87.043051,37.877956 L -87.04626570745647,37.88934268061549 L -87.045261,37.894109 L -87.040668,37.900422 L -87.032978,37.907058 L -87.012373,37.918708 L -86.999998,37.923556 L -86.97618,37.931112 L -86.967986,37.933009 L -86.94674,37.933327 L -86.920658,37.936214 L -86.901983,37.946448 L -86.890503,37.95739 L -86.885814,37.963619 L -86.876368,37.970472 L -86.860914,37.984368 L -86.854446,37.988052 L -86.832764,37.994685 L -86.824926,37.998543 L -86.81471122626395,37.99871639538465 L -86.795045,37.989279 L -86.790439,37.979801 L -86.787168,37.968801 L -86.780646,37.960941 L -86.778039,37.952001 L -86.752269,37.914817 L -86.733403,37.895373 L -86.722386,37.8927 L -86.711076,37.8967 L -86.696665,37.906129 L -86.680788,37.915035 L -86.67387223447595,37.91497295833565 L -86.650426,37.910861 L -86.645647,37.907035 L -86.644008,37.902397 L -86.644719,37.894991 L -86.648541,37.886311 L -86.658181,37.869964 L -86.662481,37.857084 L -86.661787,37.850241 L -86.658104,37.84409 L -86.651961,37.841601 L -86.638279,37.84269 L -86.626212,37.846769 L -86.605017,37.857951 L -86.597857,37.867728 L -86.599304,37.874767 L -86.598098,37.884738 L -86.600173,37.9044 L -86.595747,37.914821 L -86.586481,37.922267 L -86.566673,37.922236 L -86.541991,37.917034 L -86.533331,37.91725 L -86.519477,37.922131 L -86.510246,37.92666 L -86.506694,37.930736 L -86.509318,37.942297 L -86.519316,37.95257 L -86.524937,37.966495 L -86.52602,38.004538 L -86.52433,38.018108 L -86.525138,38.028734 L -86.521712,38.039617 L -86.50882,38.045046 L -86.49824003153624,38.04585303340029 L -86.4826,38.045429 L -86.466998,38.046638 L -86.456793,38.049031 L -86.447898,38.053171 L -86.438379,38.060619 L -86.433923,38.065705 L -86.430575,38.075283 L -86.431551,38.083736 L -86.438429,38.088822 L -86.457786,38.095231 L -86.465503,38.104306 L -86.466352,38.113474 L -86.46468,38.117375 L -86.4557832087729,38.124997963009235 L -86.448991,38.127321 L -86.432738,38.126429 L -86.42387339064845,38.12137573425001 L -86.401879,38.104329 L -86.396463,38.106891 L -86.387293,38.124703 L -86.375083,38.130638 L -86.357522,38.129345 L -86.348239,38.127654 L -86.33615,38.128343 L -86.327578,38.133428 L -86.323889,38.138312 L -86.321133,38.146586 L -86.325874,38.154029 L -86.344573,38.159071 L -86.365342,38.161367 L -86.372331,38.164606 L -86.376511,38.169397 L -86.378493,38.180221 L -86.377256,38.188302 L -86.373033,38.194241 L -86.365831,38.197887 L -86.356153,38.198496 L -86.348553,38.195685 L -86.3296,38.181805 L -86.31883,38.173792 L -86.295085,38.163754 L -86.286921,38.15783 L -86.272847,38.140835 L -86.270256,38.13225 L -86.271513,38.124642 L -86.279116,38.100938 L -86.278554,38.086418 L -86.276125,38.074275 L -86.271478,38.061989 L -86.267805,38.057148 L -86.248988,38.045499 L -86.234319,38.040041 L -86.220242,38.027964 L -86.189324,38.01592 L -86.17893,38.01081 L -86.163186,38.010064 L -86.148929,38.014657 L -86.13959,38.015779 L -86.123507,38.016157 L -86.105688,38.012975 L -86.086771,38.005207 L -86.076779,37.997252 L -86.07042,37.984551 L -86.064484,37.975299 L -86.057997,37.967671 L -86.047088,37.959014 L -86.038906,37.95899 L -86.035056,37.962901 L -86.03352,37.970142 L -86.035348,37.981251 L -86.032249,37.99036 L -86.025894,37.994309 L -86.009467,37.99839 L -85.977415,38.003382 L -85.964506,38.002974 L -85.947104,38.005072 L -85.942699,38.006816 L -85.928365,38.018547 L -85.923428,38.025247 L -85.920652,38.032306 L -85.915142,38.067638 L -85.905052,38.089957 L -85.904694,38.108516 L -85.908088,38.129592 L -85.909096,38.142341 L -85.906966,38.165365 L -85.903584,38.173928 L -85.89522580704687,38.186407144264884 L -85.886224,38.197103 L -85.874834,38.20778 L -85.851674,38.222607 L -85.842852,38.233259 L -85.839097,38.239822 L -85.837132,38.252591 L -85.836771,38.263427 L -85.829065,38.276554 L -85.823698,38.280181 L -85.814546,38.28301 L -85.798801,38.285231 L -85.786904,38.288533 L -85.773074,38.285761 L -85.766176,38.280249 L -85.767157,38.27713 L -85.761488,38.272267 L -85.748646,38.267366 L -85.741595,38.267668 L -85.685208,38.294692 L -85.673762,38.302247 L -85.671064,38.30719 L -85.655517,38.323722 L -85.644523,38.346007 L -85.638634,38.363857 L -85.63780570566071,38.38023283977746 L -85.63209295223417,38.39769840148451 L -85.623051,38.414388 L -85.618751,38.425733 L -85.604228,38.440915 L -85.585518,38.450246 L -85.572296,38.452835 L -85.55195,38.453741 L -85.525263,38.457544 L -85.505707,38.464717 L -85.498094,38.468802 L -85.488889,38.477652 L -85.48163,38.48753 L -85.476083,38.501314 L -85.46711712444285,38.5100640531289 L -85.449853,38.517672 L -85.434234,38.523264 L -85.427473,38.527724 L -85.419532,38.53533 L -85.415555,38.544969 L -85.415022,38.556206 L -85.417555,38.569487 L -85.425296,38.582857 L -85.435901,38.598874 L -85.438354,38.606063 L -85.439597,38.630846 L -85.438629,38.65889 L -85.443419,38.668265 L -85.454661,38.680716 L -85.456913,38.688717 L -85.455927,38.696287 L -85.450329,38.711667 L -85.443183,38.718924 L -85.437108,38.727607 L -85.422626,38.734651 L -85.408365,38.737144 L -85.39734583051245,38.73550651400265 L -85.372657,38.730474 L -85.352603,38.731494 L -85.316894,38.739586 L -85.301987,38.741961 L -85.279126,38.74172 L -85.25882,38.737818 L -85.24629973248338,38.73154410873609 L -85.237359,38.721447 L -85.226418,38.705993 L -85.213053,38.695453 L -85.204771,38.6919 L -85.193163,38.689677 L -85.188871,38.687585 L -85.17339,38.687996 L -85.149755,38.694383 L -85.13199,38.702916 L -85.123642,38.710019 L -85.107085,38.721045 L -85.10139527361781,38.726494096492516 L -85.090114,38.731385 L -85.073036,38.74104 L -85.052446,38.748142 L -85.040366,38.755436 L -85.027843,38.758891 L -85.011703,38.766235 L -84.99488284918053,38.77721591065467 L -84.982728,38.779293 L -84.962514,38.778069 L -84.946832,38.775287 L -84.93402,38.777281 L -84.917628,38.78327 L -84.903435,38.790017 L -84.887742,38.794793 L -84.876831,38.792484 L -84.861989,38.791086 L -84.84644,38.787687 L -84.835537,38.784296 L -84.827547,38.783156 L -84.815681,38.784098 L -84.811599,38.79196 L -84.816489,38.805239 L -84.82667,38.818016 L -84.82996178070522,38.830296022892384 L -84.823645,38.838921 L -84.817675,38.843127 L -84.802534,38.851257 L -84.790436,38.861246 L -84.786161,38.868685 L -84.784535,38.875082 L -84.785483,38.880894 L -84.793159,38.887418 L -84.801884,38.891876 L -84.814553,38.895468 L -84.840292,38.897585 L -84.86055501443249,38.89770390284196 L -84.87030435594376,38.9006857129101 L -84.876169,38.907924 L -84.879309,38.916102 L -84.877934,38.920149 L -84.866647,38.933226 L -84.856263,38.940677 L -84.849,38.948451 L -84.835277,38.957805 L -84.829855,38.969391 L -84.833226,38.981049 L -84.838579,38.989902 L -84.846656,38.996741 L -84.849654,39.003072 L -84.857378,39.012508 L -84.872407,39.028288 L -84.886925,39.039096 L -84.896299,39.052441 L -84.897265,39.057479 L -84.889762,39.065662 L -84.872481,39.072258 L -84.862388,39.077084 L -84.849207,39.08689 L -84.844887,39.091685 L -84.832435,39.100489 L -84.820155,39.105419 L -84.819815,39.158529 L -84.82006899123401,39.24728337382648 L -84.81945,39.305153 L -84.818745,39.348642 L -84.81765,39.387014 L -84.81611514696078,39.47734508696512 L -84.815754,39.478652 L -84.815353,39.52195 L -84.814985,39.595678 L -84.814363,39.711933 L -84.81417817120935,39.81400107649316 L -84.813187,39.865275 L -84.81244,39.921728 L -84.81123600257808,39.99364850690041 L -84.809549,40.056142 L -84.808851,40.097078 L -84.8065,40.180167 L -84.804154,40.274716 L -84.803603,40.323891 L -84.803894,40.352758 L -84.804216,40.402458 L -84.803957,40.432478 L -84.802756,40.513619 L -84.802272,40.6224 L -84.802321,40.742455 L -84.802359,40.84309 L -84.802812,40.902248 L -84.80323432522738,40.989394096076246 L -84.803198,41.035563 L -84.803478,41.126036 L -84.803589,41.271273 L -84.803971,41.324942 L -84.803893,41.408365 L -84.804249,41.478549 L -84.80481,41.544823 L -84.805959,41.631457 L -84.80597792485197,41.69611871542863 L -84.805885,41.760171 L -84.980969,41.759491 L -85.016453,41.759781 L -85.058543,41.75961 L -85.156179,41.759538 L -85.368309,41.75987 L -85.474743,41.759456 L -85.477156,41.759235 L -85.543599,41.759433 L -85.65975031327235,41.75904576297293 L -85.750291,41.758969 L -85.868016,41.759321 L -85.916693,41.759762 L -86.108465,41.760697 L -86.171812,41.760469 L -86.3312,41.760206 L -86.360854,41.759859 L -86.443566,41.759553 L -86.502044,41.759743 L -86.591616,41.759487 L -86.699681,41.759791 L -86.82472041535621,41.76029537328571 L -86.875429,41.737939 L -86.890743,41.732116 L -86.90913,41.726938 L -86.916394,41.716385 L -86.922742,41.712723 L -86.943383,41.7066 L -86.963138,41.699583 L -86.994408,41.687247 L -87.027888,41.674661 L -87.066033,41.661845 L -87.09905,41.65177 L -87.120393,41.647102 L -87.130147,41.64837 L -87.141847,41.645525 L -87.147503,41.645563 L -87.150469,41.641418 L -87.158097,41.641591 L -87.162094,41.635394 L -87.176019,41.633871 L -87.179595,41.63096 L -87.22066,41.624356 L -87.261634,41.620523 L -87.278081,41.620145 L -87.288757,41.620846 L -87.297774,41.623273 L -87.299023,41.619093 L -87.305976,41.622281 L -87.312105,41.620692 L -87.318649,41.623607 L -87.347398,41.626581 L -87.36886,41.630039 L -87.4016915495656,41.6393238684527 L -87.41154,41.643695 L -87.420765,41.641011 L -87.42984,41.646035 L -87.437033,41.655159 L -87.421152,41.659516 L -87.408736,41.670285 L -87.414493,41.675749 L -87.407927,41.68027 L -87.415816,41.688183 L -87.424877,41.690073 L -87.439336,41.680131 L -87.433639,41.668144 L -87.438033,41.664563 L -87.442767,41.66783 L -87.442558,41.672508 L -87.446803,41.683212 L -87.449914,41.684184 L -87.462655,41.678177 L -87.468013,41.672432 L -87.476309,41.675234 L -87.478746,41.679787 L -87.485109,41.683585 L -87.498423,41.68816 L -87.507999,41.694107 L -87.516147,41.701517 L -87.514948,41.704562 L -87.521308,41.710031 L -87.524165,41.708314 Z" fill="none" stroke=currentColor stroke-width="1" vector-effect="non-scaling-stroke"/>
</svg>