<?xml version="1.0"?>
<svg xmlns="http://www.w3.org/2000/svg" version="1.2" baseProfile="tiny" viewBox="-40.0 -40.0 880.0 404.0" stroke-linecap="round" stroke-linejoin="round">
<g id="state">
<path d="M 2.03 322.86 2.04 310.88 2.05 298.39 2.02 297.99 2.06 290.6 2.05 284.41 2.09 282.02 2.06 278.26 2.08 274.13 2.04 264.88 2.08 260.25 2.08 247.62 1.95 236.89 1.92 228.55 1.77 216.84 1.75 211.02 1.8 203.11 1.8 195.15 1.74 187.25 1.77 177.84 1.73 174.09 1.75 168 1.72 165.92 1.73 154.6 1.7 153.48 1.71 143.59 1.68 135.83 1.68 123.49 1.61 111.13 1.55 103.26 1.47 92.43 1.41 81.2 1.27 68.17 1.21 54.79 1.23 50.64 1.16 42.93 1.18 38.32 1.13 37.59 1.08 27.96 1.04 14.71 1 1.01 16.39 1.02 19.85 1 23.53 1.04 39.5 1.03 46.67 1.05 63.59 1.06 82.83 1.07 94.54 1.08 107 1.09 120.14 1.11 127.25 1.11 139.25 1.09 151.32 1.14 153.03 1.12 170.3 1.15 178.25 1.14 195.59 1.17 207.84 1.16 226.68 1.17 233.71 1.16 239.93 1.18 247.48 1.14 258.12 1.14 273.84 1.12 282.02 1.1 283.04 1.13 294.19 1.14 296.6 1.12 308.16 1.12 328.21 1.1 341.92 1.08 357.26 1.1 360.34 1.07 364.31 1.1 372.7 1.07 386.83 1.09 405.3 1.07 417.78 1.1 427.01 1.09 441.23 1.12 452.11 1.12 475.75 1.12 486.51 1.13 488.99 1.16 491.67 1.12 501.69 1.13 513.29 1.13 517.53 1.21 519.47 1.14 522.76 1.18 527.77 1.13 535.85 1.2 540.61 1.18 554.77 1.18 568.27 1.19 581.57 1.2 582.39 1.24 590.43 1.22 602.55 1.23 615.9 1.25 622.51 1.24 631.52 1.26 642.76 1.26 655.84 1.28 662.25 1.26 673.35 1.29 691.3 1.31 705.43 1.34 706.34 1.31 711.63 1.34 722.05 1.34 722.05 2 722.77 3.05 724.05 3.71 725.9 4.44 727.02 5.55 727.47 6.16 728.26 6.83 729.21 7.22 730.3 7.35 731.47 7.28 733.07 7.78 733.51 8.32 733.58 9.27 732.98 10.74 733.26 11.43 734.75 12.02 735.83 12.02 736.6 11.85 737.93 11.28 738.62 11.3 739.4 11.58 739.81 12.35 739.68 13.17 740.08 14.11 740.61 14.51 742.06 15.02 743.16 15.13 745.93 16.11 746.99 16.14 751.25 15.68 752.16 15 752.35 14.46 752.24 13.45 752.41 12.97 753.4 12.07 754.45 11.97 756.4 12.42 757.39 12.32 758.92 11.92 759.81 11.89 761.02 12.23 761.98 12.7 762.73 13.52 762.78 14.19 762.45 14.86 761.36 15.75 761.12 16.37 761.45 17.16 763.17 18.48 763.92 18.9 765.03 19.12 766.62 19.02 767.46 19.34 768.21 20.32 768.24 21.96 767.78 22.95 766.72 23.64 765.73 23.75 763 23.81 762.07 24.32 761.88 24.98 762.01 25.6 763.5 26.69 764.39 27.07 765.13 27.05 766.6 26.5 767.45 25.89 768.95 25.62 769.58 26.13 769.92 26.68 770.09 27.63 769.69 28.9 769.16 29.56 768.31 30.16 766.59 30.75 765.43 30.83 763.89 30.4 762.78 29.8 761.24 28.78 759.8 28.53 758.73 29.24 758.18 29.98 758.08 30.67 758.39 32.62 758.3 34.41 757.64 35.33 756.99 35.7 755.87 35.9 754.27 35.98 753.38 36.17 752.39 36.79 751.73 37.48 750.84 38.8 749.72 40.06 749.31 40.86 749.12 41.79 749.28 42.47 749.89 43.44 750.02 44.46 749.61 45.44 748.93 46.19 748.24 46.52 747.3 46.66 745.16 46.13 743.98 46.48 743.52 46.92 742.94 48.43 742.92 49.23 743.62 50.78 745.1 52.21 746.74 53.35 748.68 54.11 749.61 55.07 749.84 56.9 750.24 57.88 751.44 58.99 753.43 59.84 754.99 60.17 756.07 60.56 756.93 61.16 757.36 61.81 757.52 62.64 757.91 63.17 758.81 63.71 759.85 64.01 760.76 64.89 760.77 65.96 761.21 66.62 762.44 67.09 763.65 67.08 765.51 66.26 766.89 66.3 767.74 67.22 767.95 68.09 767.32 69.08 765.64 69.63 764.82 70.24 764.57 71.02 764.86 73.68 765.28 75.27 765.87 76.35 767.41 77.84 767.81 78.09 770.23 78.96 771.45 79.56 772.98 80.79 773.46 81.54 773.66 82.42 773.51 83.08 772.67 84.33 773.01 85.18 774.06 85.85 775.5 86.19 778.22 86.11 778.77 86.5 779.92 88.5 780.37 89.02 781.45 89.71 783.27 90.17 784.57 90.19 785.58 90.04 786.5 89.68 788.29 88.67 789.89 88.64 790.81 88.98 791.46 89.65 791.22 90.86 791.46 91.39 792.37 91.79 793.99 91.79 795.27 91.5 796.13 91.14 797.1 91.07 798.45 91.5 799 92.1 798.97 92.97 798.74 93.63 797.24 95.09 796.88 95.84 797 96.13 797.01 98.67 797.02 101.36 796.93 109.59 796.89 110.54 796.93 115.02 796.93 124.6 796.97 126.89 796.91 128.46 796.87 133.01 796.51 150.86 796.46 161.05 796.36 166.22 796.37 173.63 796.43 181.27 796.45 191.63 796.35 197.23 796.28 207.96 796.28 217.99 796.11 228.17 795.9 239.16 795.87 245.7 795.92 254.04 795.95 263.25 796 267.71 795.92 278.7 795.91 283.18 795.88 288.65 795.83 301.3 795.88 315.69 795.87 322.23 794.49 322.26 788.02 322.24 781.46 322.27 767.33 322.24 759.12 322.17 736.48 322.16 718.59 322.19 706.05 322.2 693.34 322.2 686.33 322.18 668.64 322.21 651.91 322.21 648 322.24 636.36 322.2 632.99 322.23 628.34 322.19 626.7 322.22 616.16 322.18 599.82 322.21 594.6 322.26 581.32 322.23 569.33 322.19 546.88 322.22 536.96 322.23 523.49 322.22 517.65 322.23 502.15 322.24 491.42 322.26 480.82 322.26 477.54 322.27 473.07 322.22 463 322.25 451.26 322.26 433.91 322.28 416.68 322.34 408.84 322.34 407.47 322.36 401.11 322.36 394.1 322.3 385.63 322.29 377.9 322.24 376 322.25 364.54 322.24 357.34 322.22 349.02 322.18 343.98 322.18 324.13 322.16 322 322.2 316.01 322.18 298.81 322.17 286.02 322.11 283.79 322.16 276.9 322.17 275.52 322.15 269.45 322.16 267.62 322.13 259.86 322.12 250.05 322.07 233.9 321.94 221.13 321.95 218.84 321.92 208.85 321.87 186.89 321.93 174.51 322 166.88 322.01 160.16 322.07 148.22 322.12 141.87 322.22 133.32 322.22 132.39 322.24 113.41 322.3 100.95 322.37 90.48 322.44 73.43 322.53 58.63 322.59 46.44 322.66 34.74 322.71 17.32 322.8 2.03 322.86 Z" fill="none" stroke="currentColor" stroke-width="1"/>
</g>
</svg>