<?xml version="1.0"?>
<svg width="20" height="20" xmlns="http://www.w3.org/2000/svg" version="1.2" baseProfile="tiny" viewBox="-64.000 -257.000 928.000 928.000" stroke-linecap="round" stroke-linejoin="round">
<g id="state">
<path d="M 1 404 1.68 388.98 2.38 373.35 2.38 372.85 2.83 363.6 3.17 355.84 3.35 352.85 3.52 348.15 3.77 342.98 4.25 331.39 4.55 325.6 5.26 309.78 5.73 296.34 6.16 285.9 6.67 271.23 6.98 263.95 7.47 254.05 7.91 244.08 8.29 234.19 8.85 222.41 9.02 217.72 9.38 210.09 9.47 207.48 10.11 193.31 10.15 191.91 10.71 179.53 11.11 169.81 11.81 154.37 12.43 138.89 12.81 129.04 13.34 115.47 13.91 101.42 14.5 85.1 15.2 68.34 15.45 63.15 15.81 53.5 16.08 47.72 16.08 46.81 16.57 34.75 17.28 18.15 18 1 32.83 1.67 36.16 1.78 39.7 1.99 55.08 2.61 61.98 2.92 78.28 3.57 96.82 4.27 108.09 4.68 120.1 5.11 132.75 5.56 139.6 5.77 151.16 6.11 162.79 6.52 164.44 6.54 181.09 7.06 188.74 7.24 205.45 7.7 217.26 7.98 235.42 8.4 242.19 8.53 248.19 8.67 255.46 8.77 265.71 8.97 280.87 9.2 288.75 9.3 289.73 9.36 300.47 9.53 302.8 9.54 313.94 9.69 333.27 9.9 346.48 10.01 361.27 10.16 364.24 10.15 368.07 10.21 376.15 10.23 389.77 10.32 407.57 10.38 419.61 10.44 428.5 10.44 442.21 10.47 452.7 10.46 475.49 10.39 485.85 10.35 488.25 10.38 490.83 10.32 500.49 10.26 511.67 10.18 515.76 10.25 517.63 10.14 520.8 10.17 525.62 10.06 533.42 10.06 538 9.99 551.65 9.83 564.66 9.67 577.49 9.5 578.27 9.54 586.03 9.39 597.7 9.21 610.57 9 616.95 8.87 625.63 8.71 636.46 8.49 649.07 8.24 655.24 8.07 665.94 7.85 683.24 7.43 696.85 7.09 697.72 7.03 702.83 6.93 712.87 6.63 712.89 7.46 713.62 8.75 714.88 9.55 716.69 10.4 717.81 11.76 718.27 12.52 719.06 13.33 719.99 13.8 721.05 13.92 722.17 13.8 723.73 14.38 724.18 15.05 724.29 16.24 723.77 18.09 724.06 18.94 725.52 19.63 726.56 19.61 727.3 19.37 728.56 18.62 729.22 18.62 729.99 18.95 730.41 19.9 730.33 20.93 730.75 22.09 731.27 22.58 732.7 23.18 733.76 23.28 736.47 24.42 737.5 24.43 741.59 23.71 742.44 22.83 742.61 22.16 742.46 20.89 742.6 20.29 743.52 19.13 744.52 18.97 746.43 19.48 747.38 19.31 748.84 18.76 749.69 18.7 750.87 19.08 751.82 19.63 752.58 20.64 752.66 21.48 752.37 22.33 751.35 23.48 751.14 24.26 751.5 25.24 753.22 26.84 753.95 27.34 755.04 27.58 756.57 27.4 757.39 27.77 758.16 28.97 758.26 31.03 757.86 32.29 756.87 33.19 755.92 33.36 753.28 33.53 752.4 34.19 752.25 35.02 752.39 35.79 753.88 37.11 754.77 37.56 755.47 37.51 756.87 36.77 757.67 35.98 759.11 35.59 759.74 36.21 760.09 36.89 760.3 38.07 759.97 39.68 759.48 40.52 758.69 41.3 757.05 42.1 755.93 42.23 754.42 41.75 753.32 41.04 751.79 39.8 750.38 39.54 749.38 40.46 748.88 41.41 748.81 42.27 749.19 44.71 749.18 46.95 748.58 48.13 747.97 48.61 746.89 48.9 745.34 49.05 744.49 49.31 743.56 50.12 742.95 51.01 742.14 52.69 741.11 54.3 740.75 55.32 740.6 56.49 740.79 57.34 741.42 58.53 741.58 59.8 741.22 61.05 740.6 62 739.94 62.44 739.03 62.65 736.94 62.05 735.81 62.53 735.38 63.09 734.88 65 734.89 66 735.63 67.92 737.13 69.67 738.76 71.05 740.67 71.94 741.62 73.11 741.92 75.39 742.34 76.6 743.56 77.95 745.52 78.96 747.05 79.33 748.11 79.77 748.97 80.5 749.42 81.31 749.61 82.34 750.01 82.99 750.91 83.63 751.93 83.98 752.85 85.05 752.9 86.39 753.36 87.2 754.58 87.75 755.75 87.7 757.53 86.61 758.87 86.62 759.74 87.73 759.97 88.82 759.41 90.07 757.79 90.82 757.03 91.61 756.81 92.6 757.21 95.92 757.69 97.9 758.3 99.24 759.87 101.05 760.26 101.35 762.66 102.35 763.88 103.06 765.42 104.55 765.92 105.48 766.15 106.57 766.04 107.41 765.27 109 765.65 110.04 766.69 110.85 768.11 111.23 770.76 111.04 771.31 111.51 772.52 113.97 772.99 114.6 774.07 115.44 775.86 115.95 777.13 115.93 778.11 115.71 778.99 115.22 780.69 113.89 782.24 113.79 783.15 114.18 783.82 115 783.65 116.53 783.9 117.18 784.81 117.65 786.38 117.59 787.62 117.19 788.45 116.7 789.38 116.57 790.72 117.06 791.29 117.8 791.3 118.89 791.11 119.73 789.71 121.6 789.39 122.55 789.53 122.92 789.66 126.1 789.79 129.46 790.09 139.77 790.09 140.96 790.35 146.57 790.79 158.57 790.94 161.43 790.96 163.41 791.13 169.1 791.62 191.47 792.04 204.23 792.18 210.71 792.54 219.98 792.96 229.55 793.46 242.52 793.62 249.54 794.07 262.98 794.53 275.54 794.84 288.29 795.14 302.06 795.43 310.26 795.86 320.7 796.32 332.24 796.58 337.82 797.02 351.58 797.21 357.19 797.44 364.04 797.98 379.89 798.71 397.92 799 406.12 797.62 406.2 791.12 406.42 784.53 406.69 770.33 407.15 762.08 407.35 739.32 408.07 721.35 408.65 708.74 409.03 695.97 409.37 688.92 409.54 671.14 410.02 654.32 410.42 650.39 410.54 638.69 410.75 635.3 410.85 630.62 410.89 628.97 410.97 618.38 411.12 601.95 411.46 596.7 411.61 583.35 411.77 571.3 411.91 548.73 412.23 538.76 412.35 525.21 412.47 519.34 412.54 503.76 412.68 492.96 412.77 482.31 412.82 479.01 412.86 474.51 412.8 464.39 412.89 452.59 412.92 435.14 412.96 417.81 413.02 409.93 413 408.56 413.03 402.16 413.01 395.11 412.9 386.6 412.85 378.83 412.75 376.91 412.75 365.39 412.66 358.15 412.58 349.78 412.46 344.71 412.41 324.76 412.19 322.62 412.21 316.6 412.11 299.3 411.87 286.45 411.6 284.2 411.64 277.27 411.54 275.89 411.49 269.79 411.4 267.95 411.34 260.15 411.18 250.28 410.93 234.05 410.46 221.21 410.19 218.92 410.1 208.87 409.81 186.8 409.35 174.35 409.11 166.68 408.92 159.93 408.8 147.93 408.52 141.54 408.45 132.95 408.18 132.01 408.19 112.94 407.65 100.41 407.31 89.89 407.03 72.75 406.51 57.88 406.03 45.62 405.63 33.87 405.22 16.36 404.59 1 404 Z" fill="none" stroke="currentColor" stroke-width="46.400"/>
</g>
</svg>