<svg viewBox="-102.7980526 -40.7494746 8.955703200000016 4.502767200000001" xmlns="http://www.w3.org/2000/svg">
  <path d="M -102.042089,36.993016 L -101.89909,36.993631 L -101.736218,36.994432 L -101.6268,36.994922 L -101.51278,36.995566 L -101.374381,36.996179 L -101.214917,36.996997 L -101.117017,36.997608 L -101.000446,36.998276 L -100.822984,36.998824 L -100.814277,36.999085 L -100.734276,36.999062 L -100.6749,36.99993 L -100.563271,37.000474 L -100.500428,37.000981 L -100.429077,37.001076 L -100.313228,37.001767 L -100.107891,37.002312 L -100.014413,37.001876 L -99.99306,37.001609 L -99.873651,37.001642 L -99.722588,37.000479 L -99.630799,36.999972 L -99.558221,36.99987 L -99.54111606329218,36.99961851668369 L -99.484385,36.999729 L -99.471493,36.999476 L -99.407015,36.999579 L -99.386137,37.000115 L -99.266568,36.999513 L -99.105701,36.999451 L -99.049695,36.999221 L -99.029734,36.999588 L -98.844159,36.999448 L -98.797019,36.999459 L -98.719192,36.999068 L -98.651842,36.998871 L -98.544661,36.998759 L -98.52686,36.998875 L -98.454587,36.99841 L -98.37535,36.998317 L -98.309827,36.997733 L -98.250334,36.997698 L -98.237538,36.997961 L -98.164216,36.997937 L -98.003045,36.998501 L -97.840796,36.998675 L -97.73099298466074,36.99873587195431 L -97.636844,36.999085 L -97.595028,36.998546 L -97.564356,36.998712 L -97.465239,36.998685 L -97.364866,36.998813 L -97.219886,36.998931 L -97.165328,36.999066 L -97.039307,36.998965 L -96.94657,36.99905 L -96.73659,36.999286 L -96.624488,36.998985 L -96.500289,36.998643 L -96.451464,36.999103 L -96.298598,36.99941 L -96.200083,36.999031 L -96.184708,36.999338 L -96.141196,36.998973 L -96.109674,36.999194 L -96.00081,36.99886 L -95.9642698721952,36.999106711428055 L -95.807798,36.999147 L -95.64237,36.999377 L -95.576784,36.999266 L -95.45793,36.999234 L -95.34063,36.999364 L -95.17338,36.99962 L -94.961591,36.999464 L -94.88484,36.99886 L -94.752677,36.998591 L -94.691309,36.998841 L -94.630846,36.998677 L -94.617964,36.998905 L -94.617835,37.060072 L -94.618313,37.194687 L -94.617867,37.313022 L -94.61756986308355,37.36416999821243 L -94.617464,37.406092 L -94.61673,37.508811 L -94.617207,37.550501 L -94.617503,37.636691 L -94.61788843613391,37.714656382431556 L -94.617663,37.775865 L -94.615716,37.878645 L -94.614111,37.973797 L -94.61406,38.067602 L -94.613474,38.167994 L -94.612503,38.220379 L -94.612724,38.31721 L -94.613232,38.388718 L -94.613356,38.457967 L -94.612399,38.506343 L -94.611902,38.601628 L -94.60858898502333,38.76857110365626 L -94.608172,38.811095 L -94.607673,38.825816 L -94.608033,38.847207 L -94.607981,38.936847 L -94.608437,38.978724 L -94.607994,38.987619 L -94.607167,39.064601 L -94.607223,39.089709 L -94.607354,39.113444 L -94.608519,39.116244 L -94.605116,39.123259 L -94.591081,39.136839 L -94.588964,39.143007 L -94.588658,39.151163 L -94.593846,39.156828 L -94.606455,39.160827 L -94.61548,39.160147 L -94.623565,39.156755 L -94.635552,39.154082 L -94.650647,39.154092 L -94.65921,39.157841 L -94.661397,39.162742 L -94.659162,39.174126 L -94.665277,39.180378 L -94.673903,39.183554 L -94.688788,39.183228 L -94.705523,39.1738 L -94.714137,39.170403 L -94.723637,39.169003 L -94.735743,39.169191 L -94.752803,39.173493 L -94.762858,39.179991 L -94.76709,39.184842 L -94.777838,39.203522 L -94.782951,39.207162 L -94.80848,39.206478 L -94.821935,39.209669 L -94.831679,39.215938 L -94.834896,39.223842 L -94.827055,39.235489 L -94.825663,39.241729 L -94.827479,39.249896 L -94.832002,39.256978 L -94.84632,39.268481 L -94.857718,39.274106 L -94.880399,39.282207 L -94.884093,39.284512 L -94.898516,39.29845 L -94.903976,39.308586 L -94.907904,39.323451 L -94.910641,39.348335 L -94.908289,39.355639 L -94.900656,39.361359 L -94.884922,39.366511 L -94.879088,39.375703 L -94.880979,39.383899 L -94.888972,39.392432 L -94.901823,39.392798 L -94.919225,39.385174 L -94.930574,39.38506 L -94.942039,39.389499 L -94.946227,39.395648 L -94.946293,39.405646 L -94.954817,39.413844 L -94.964489,39.416718 L -94.972952,39.421705 L -94.976606,39.426701 L -94.978052,39.43441 L -94.982144,39.440552 L -94.990172,39.446192 L -95.000241,39.449763 L -95.014861,39.452868 L -95.033408,39.460876 L -95.044668,39.471256 L -95.04837,39.48042 L -95.050552,39.497514 L -95.0593,39.506473 L -95.077441,39.513552 L -95.092704,39.524241 L -95.106596,39.537657 L -95.113117,39.55211 L -95.1129,39.559621 L -95.107474,39.573743 L -95.103228,39.577783 L -95.09215,39.581116 L -95.07216,39.576122 L -95.063392,39.577474 L -95.056897,39.580567 L -95.05059,39.587563 L -95.046688,39.596752 L -95.047911,39.606288 L -95.05361,39.615322 L -95.055152,39.621657 L -95.053367,39.630347 L -95.049518,39.637876 L -95.039049,39.649639 L -95.030731,39.661963 L -95.024595,39.668485 L -95.01531,39.674262 L -95.00703,39.67604 L -94.99199,39.676758 L -94.981565,39.678636 L -94.975445,39.682058 L -94.969333,39.69073 L -94.968453,39.707402 L -94.971334,39.725706 L -94.970422,39.732121 L -94.965318,39.739065 L -94.955286,39.745689 L -94.941804,39.743367 L -94.927381,39.733786 L -94.916989,39.728209 L -94.902612,39.724202 L -94.891744,39.724894 L -94.875634,39.730492 L -94.86774,39.736042 L -94.862735,39.742195 L -94.859035,39.754116 L -94.860639,39.762983 L -94.863767,39.768138 L -94.869655,39.772899 L -94.883691,39.770375 L -94.891669,39.764705 L -94.905444,39.759514 L -94.912293,39.759338 L -94.920693,39.762938 L -94.934644,39.773144 L -94.93578,39.778909 L -94.934021,39.785083 L -94.925301,39.789795 L -94.89977269348167,39.79040681116296 L -94.890528,39.791425 L -94.880644,39.797894 L -94.87632679569893,39.8071692688172 L -94.87666,39.822522 L -94.883658,39.831665 L -94.891481,39.834644 L -94.90634,39.833736 L -94.916766,39.835807 L -94.92375,39.839674 L -94.939854,39.852044 L -94.94296,39.859457 L -94.940671,39.865197 L -94.930471,39.873562 L -94.927351,39.879836 L -94.927897,39.886112 L -94.934907,39.893784 L -94.943867,39.89813 L -94.955178,39.901288 L -94.963486,39.90105 L -94.977788,39.89732 L -94.987059,39.89632 L -95.005329,39.900574 L -95.015135,39.899643 L -95.024389,39.891202 L -95.025947,39.886747 L -95.024901,39.877255 L -95.026747,39.872273 L -95.035246,39.865921 L -95.075046,39.861562 L -95.085003,39.861883 L -95.110849,39.870989 L -95.121137,39.872009 L -95.134747,39.876852 L -95.139679,39.880592 L -95.143403,39.889356 L -95.142251,39.897033 L -95.146055,39.904183 L -95.15335814162884,39.906864850717994 L -95.159834,39.906984 L -95.172222,39.901685 L -95.179453,39.900062 L -95.189561,39.900145 L -95.203477,39.905654 L -95.206063,39.912061 L -95.200463,39.925784 L -95.201109,39.934664 L -95.205266,39.93975 L -95.220248,39.944431 L -95.231114,39.943784 L -95.241383,39.944949 L -95.250254,39.948644 L -95.257652,39.954886 L -95.261854,39.960618 L -95.272335,39.971038 L -95.289654,39.977799 L -95.301613,39.984 L -95.308326,39.993796 L -95.30829,39.999998 L -95.405734,39.999975 L -95.455283,40.000307 L -95.463741,39.999991 L -95.59588,40.000254 L -95.763794,40.000429 L -95.867546,40.000693 L -95.927493,40.000512 L -96.04983548177567,40.00072646218812 L -96.15497,40.000773 L -96.2392,40.000881 L -96.30103,40.000837 L -96.425922,40.001001 L -96.53922,40.001079 L -96.614463,40.000939 L -96.622081,40.0013 L -96.746544,40.001414 L -96.872749,40.001478 L -97.005217,40.001516 L -97.049663,40.001323 L -97.125311,40.001938 L -97.172135,40.001451 L -97.202866,40.00185 L -97.221013,40.001179 L -97.260661,40.001969 L -97.369199,40.001966 L -97.462901,40.002016 L -97.487946,40.001697 L -97.511182,40.001994 L -97.611744,40.002063 L -97.832834,40.002036 L -97.934623,40.002076 L -98.067605,40.002328 L -98.153874,40.002204 L -98.27065989665819,40.002484364642406 L -98.443388,40.002367 L -98.575553,40.00247 L -98.653945,40.002267 L -98.69108977802298,40.002502700572954 L -98.719927,40.002205 L -98.863378,40.002395 L -98.991593,40.002194 L -99.179134,40.002013 L -99.287219,40.002026 L -99.309801,40.001812 L -99.414065,40.00192 L -99.423611,40.00227 L -99.50006723784051,40.00201039612721 L -99.647121,40.001818 L -99.746629,40.00182 L -99.817173,40.001489 L -99.875399,40.001676 L -99.941105,40.001567 L -100.11733685,40.001655 L -100.231898,40.001604 L -100.39409913886847,40.00187964827659 L -100.468365,40.001724 L -100.62996366272976,40.002050634390386 L -100.645917,40.001889 L -100.75883,40.002302 L -100.871047,40.002157 L -100.937523,40.002144 L -101.060361,40.002359 L -101.176982,40.002463 L -101.286425,40.002554 L -101.466366,40.002583 L -101.624635,40.00269 L -101.691649,40.002893 L -101.841025,40.002784 L -101.875456,40.003166 L -101.907779,40.002975 L -102.051744,40.003078 L -102.051357,39.874991 L -102.050956,39.751023 L -102.050508,39.660936 L -102.05010200790386,39.65414656877002 L -102.050246,39.611015 L -102.049552,39.538895 L -102.049749,39.500134 L -102.049204,39.374988 L -102.047901,39.253122 L -102.047305,39.148122 L -102.0465696633364,39.04682046146722 L -102.046042,38.973214 L -102.045369,38.857566 L -102.045395,38.742217 L -102.045074,38.669617 L -102.045178,38.577142 L -102.044901,38.566687 L -102.045052,38.460822 L -102.044728,38.441346 L -102.044946,38.384358 L -102.04452654264311,38.349291262685604 L -102.044833,38.261283 L -102.0443,38.18744 L -102.044258,38.112946 L -102.044686,38.03901 L -102.044515,37.984575 L -102.043185,37.87502 L -102.042824,37.797113 L -102.041626,37.696699 L -102.041683,37.578556 L -102.042016,37.535261 L -102.04163550361773,37.44877457123486 L -102.04182,37.410149 L -102.041522,37.375021 L -102.041923,37.352659 L -102.041842,37.294754 L -102.04218,37.225661 L -102.041962,37.22191 L -102.042032,37.10514 L -102.042089,36.993016 Z" fill="none" stroke=currentColor stroke-width="1" vector-effect="non-scaling-stroke"/>
</svg>