<?xml version="1.0"?>
<svg width="200" height="200" xmlns="http://www.w3.org/2000/svg" version="1.2" baseProfile="tiny" viewBox="-64.000 -294.000 928.000 928.000" stroke-linecap="round" stroke-linejoin="round">
<g id="state">
<path vector-effect="non-scaling-stroke" d="M 50.07 270.36 48.96 269.52 47.32 267.97 46.35 266.89 45.61 265.24 45.36 264.36 45.29 262.63 45.9 260.23 46.38 259.14 47.12 258.04 48.43 256.45 48.88 256.1 49.36 255.04 49.84 255.05 51.68 253.91 53.49 252.09 54.71 249.89 55.47 247.79 56.1 246.79 57.88 245.02 59.48 243.69 61.21 242.03 61.64 241.85 62.41 241.05 64.19 240.44 65.52 239.47 67.73 238.97 68.95 238.98 69.2 239.42 71.67 239.8 72.45 239.78 72.77 239.45 74.35 239.98 76.85 241.13 78.34 241.71 80.06 242.55 82.63 243.99 86.24 245.48 87.57 246.63 87.74 246.98 90.08 249.19 91.68 250.31 92.45 251.01 93.57 251.64 94.37 251.86 95.95 251.66 97.15 251.94 98.31 252.49 100.72 253.88 102.6 254.77 103.83 255.02 104.93 255.62 106.57 256.87 107.6 257.83 108.21 258.89 109.14 259.87 109.28 260.55 110.51 261.02 111.35 261.58 113.78 262.44 115.06 262.69 116.5 262.72 117.93 262.42 118.68 262.6 120.74 261.92 121.21 261.57 122.23 260.11 122.76 259.14 122.67 258.59 123.27 257.42 123.04 256.97 124 255.09 125.18 252 125.13 251.55 124.48 250.59 123.97 248.07 123.84 247.91 123.06 244.98 122.12 243.76 120.73 242.79 120.06 241.79 119.45 239.98 118.75 238.98 117.91 238.26 117.25 237.39 117.29 236.66 117.05 235.37 116.47 234.16 116.65 233.22 117.07 232.2 117.73 231.14 118.51 229.4 119.19 228.28 120.09 226.34 120.35 225.22 120.42 223.93 121.41 220.44 122.25 219.3 123.61 218.05 125.72 217.03 127.11 216.71 128.42 216.25 129.99 217.04 131.66 218.44 132.03 219.18 132.95 219.53 134.86 218.19 135.19 217.68 136.67 216.02 137.96 215.3 138.61 214.67 139.93 214.02 141.85 213.26 144.63 212.86 147.51 212.93 149.44 212.62 150.75 212.61 153.31 212.06 154.58 212 157.3 211.43 158.37 211.48 161.73 211.41 162.36 211.68 162.84 211.39 163.58 210.41 163.69 209.92 164.53 209.52 164.96 208.18 164.94 206.13 164.36 204.72 163.49 203.83 162.48 203.39 162.08 202.92 160.71 200.5 158.97 198.73 157.82 197.98 157.23 196.61 157.11 195.59 157.2 194.2 156.21 191.68 155.81 190.27 155.7 189.09 155.65 186.8 155.89 186.11 156.72 184.62 157.32 183.83 158.53 182.67 158.75 182 159.54 180.76 160.08 180.24 162.11 179.38 162.83 178.68 163.98 178.05 165.42 177.54 166.54 176.38 167.66 174.84 168.52 173.02 169.18 170.19 170.08 169.18 171.48 168.88 172.84 169.33 175.71 171.21 176.04 171.77 177.08 172.91 177.64 173.07 178.45 172.84 179.63 170.72 180.07 169.7 181.95 169.03 182.66 168.59 183.05 167.4 182.53 163.95 181.98 162.97 180.96 162.02 179.78 160.28 179.52 159.07 179.65 158.01 180.38 156.92 183.08 153.69 183.59 153.21 184.33 152.94 185.77 153.21 186.55 153.68 187.33 154.58 187.86 155.43 188.22 156.5 189.36 157.62 189.34 158.34 190.12 159.43 191.06 159.92 193.29 160.16 194.68 160.2 195.8 159.93 197.17 158.83 198.37 158.21 200.57 157.9 202.02 158.26 203.12 158.18 204.96 157.52 206.16 156.94 207.24 157.31 207.95 158.04 208.2 159.13 207.88 160.09 206.22 163.13 206.13 164.3 206.36 165.72 207.26 166.87 208.96 167.18 210.32 167.18 211.72 166.94 213.01 166.54 213.87 165.75 214.85 164.58 215.69 163.18 215.97 161.83 216.41 161.39 216.42 160.53 216.14 159.76 214.62 158.22 213.03 156.95 212.65 156.39 212.15 154.97 212.48 153.69 212.87 153.56 213.26 152.68 214.51 151.24 215.07 148.43 215.77 147.96 216.54 147.96 217.51 148.66 217.77 149.23 217.71 150.59 217.92 151.51 218.7 153.19 219.56 154.23 220.32 154.81 222.01 155.86 223.01 156.29 224.08 157.23 224.58 157.21 225.51 156.72 227.32 155.1 228.99 153.83 230.67 152.83 231.83 152.57 234.3 152.57 235.15 152.79 237.16 153.58 238.63 154.5 238.69 154.81 239.61 155.86 242.02 157.62 243.76 157.96 245.59 159.1 245.96 159.28 247.93 160.81 249.12 161.87 250.24 163.06 252.25 164.45 253.91 165.73 255.51 166.36 258.5 166.93 259.06 166.79 260.02 167.2 260.66 167.89 261.99 170.37 262.52 172.09 262.64 173.37 263.14 174.32 264.43 174.77 265.49 174.72 267.01 174.29 268.49 173.26 269.33 172.43 270.03 171.15 270.38 169.89 270.78 169.08 271.65 165.64 272.35 163.72 272.39 162.54 272.1 161.04 272.22 160.42 272.72 159.61 273.55 158.77 275.72 157.31 277.02 156.72 279.51 155.81 280.37 155.58 282.57 155.61 285.27 155.31 287.24 154.03 288.47 152.63 288.98 151.83 289.98 150.97 291.63 149.2 292.31 148.74 294.57 147.93 295.4 147.45 296.45 147.46 298.45 148.75 298.89 150 299.19 151.44 299.84 152.49 300.07 153.66 302.61 158.59 304.49 161.18 305.62 161.56 306.8 161.07 308.33 159.88 310 158.76 310.71 158.79 313.12 159.39 313.61 159.9 313.76 160.51 313.66 161.47 313.24 162.6 312.18 164.7 311.69 166.37 311.74 167.27 312.1 168.08 312.73 168.42 314.15 168.32 315.41 167.82 317.64 166.41 318.42 165.16 318.29 164.23 318.45 162.94 318.3 160.36 318.79 159.02 319.78 158.07 321.82 158.12 324.36 158.87 325.26 158.86 326.7 158.26 327.67 157.69 328.05 157.17 327.82 155.65 326.82 154.29 326.28 152.45 326.29 147.48 326.51 145.72 326.46 144.33 326.85 142.92 328.2 142.24 329.29 142.16 330.91 142.26 332.52 142.14 333.58 141.85 334.51 141.33 335.52 140.38 336 139.73 336.37 138.49 336.3 137.38 335.6 136.7 333.62 135.82 332.86 134.61 332.8 133.41 332.98 132.91 333.92 131.94 334.63 131.65 336.31 131.81 337.2 132.49 339.42 134.77 339.99 134.44 340.99 132.14 342.26 131.39 344.07 131.61 345.02 131.85 346.27 131.79 347.17 131.14 347.57 130.51 347.87 129.44 347.41 128.46 345.49 127.75 343.36 127.41 342.65 126.97 342.23 126.33 342.06 124.91 342.21 123.86 342.67 123.1 343.42 122.64 344.42 122.58 345.19 122.97 347.1 124.82 348.19 125.89 350.61 127.26 351.43 128.05 352.84 130.3 353.08 131.43 352.93 132.42 352.07 135.5 352.09 137.39 352.31 138.98 352.75 140.6 353.12 141.24 355.03 142.8 356.52 143.55 357.94 145.15 361.1 146.79 362.16 147.48 363.79 147.62 365.27 147.05 366.24 146.92 367.9 146.9 369.73 147.36 371.67 148.41 372.68 149.47 373.3 151.14 373.89 152.36 374.54 153.37 375.65 154.52 376.5 154.54 376.9 154.04 377.08 153.1 376.92 151.64 377.26 150.46 377.93 149.96 379.64 149.46 382.96 148.87 384.29 148.95 386.1 148.7 386.56 148.49 388.06 146.98 388.59 146.12 388.89 145.2 389.55 140.6 390.64 137.7 390.72 135.28 390.42 132.52 390.35 130.85 390.62 127.85 390.99 126.74 391.88 125.13 392.83 123.75 394.03 122.37 396.45 120.48 397.38 119.1 397.78 118.25 398.01 116.59 398.08 115.18 398.9 113.48 399.46 113.01 400.41 112.66 402.03 112.4 403.26 111.98 404.68 112.37 405.38 113.1 405.27 113.51 405.84 114.15 407.16 114.81 407.88 114.79 413.74 111.35 414.94 110.38 415.22 109.74 416.86 107.61 418.03 104.71 418.67 102.39 418.79 100.26 419.41 97.98 420.37 95.82 420.84 94.34 422.36 92.38 424.3 91.19 425.66 90.87 427.75 90.79 430.5 90.33 432.52 89.42 433.3 88.9 434.27 87.75 435.03 86.47 435.62 84.68 436.56 83.55 438.34 82.58 439.95 81.87 440.65 81.3 441.48 80.31 441.9 79.06 441.98 77.59 441.74 75.86 440.97 74.1 439.91 72 439.67 71.05 439.58 67.82 439.73 64.15 439.26 62.92 438.13 61.28 437.91 60.24 438.02 59.25 438.62 57.25 439.37 56.31 440 55.18 441.49 54.28 442.96 53.98 444.08 54.2 446.6 54.89 448.65 54.78 452.32 53.77 453.84 53.48 456.18 53.53 458.25 54.07 459.52 54.9 460.43 56.23 461.52 58.26 462.88 59.65 463.72 60.12 464.9 60.42 465.34 60.7 466.93 60.66 469.35 59.85 471.18 58.76 472.04 57.84 473.75 56.41 474.34 55.71 475.5 55.08 477.26 53.84 479.37 52.93 480.62 51.98 481.9 51.54 483.56 50.6 485.29 49.18 486.54 48.92 488.6 49.09 490.2 49.47 491.51 49.22 493.19 48.45 494.65 47.58 496.26 46.97 497.37 47.27 498.89 47.47 500.47 47.92 501.59 48.37 502.4 48.53 503.62 48.41 504.04 47.39 503.55 45.65 502.52 43.97 502.19 42.37 502.85 41.25 503.46 40.7 505.01 39.65 506.25 38.35 506.7 37.38 506.87 36.55 506.78 35.79 506 34.93 505.11 34.34 503.82 33.87 501.19 33.57 499.13 33.54 498.13 33.15 497.54 32.2 497.23 31.13 497.37 30.6 498.54 28.9 499.6 27.94 500.35 26.92 501.76 25.71 502.32 24.2 501.98 22.68 501.45 21.52 500.63 20.62 500.33 19.79 499.55 18.55 498.03 16.48 496.56 15.06 495.62 13.31 495.53 12.65 496.3 11.59 498.06 10.74 499.1 10.12 500.45 8.84 500.89 8.22 502.16 7.08 503.42 6.44 504.39 5.95 506.07 5.48 507.06 4.86 508.48 2.6 509.64 1.4 510.24 1.04 511.34 1 512.88 1.62 513.84 2.46 514.52 3.36 516.73 6.81 517.64 7.39 519.04 7.5 519.86 7.78 520.76 8.41 522.47 10.26 523.94 10.74 525.72 10.59 526.14 10.31 528.2 9.74 529.45 8.88 530.51 7.5 531.3 7.28 532.22 7.58 533.38 8.27 534.96 8.08 535.77 7.7 536.6 6.93 537.1 6 537.82 5.15 538.89 4.5 540.2 4.51 540.83 4.79 541.72 5.63 542.37 6.73 542.74 8.02 542.56 9.01 542.74 9.39 542.74 10.7 543.05 12.7 543.65 13.55 545.03 14.29 546.09 14.31 547.22 14.56 547.66 14.48 550.1 14.95 552.18 15.81 553.35 16.6 554.31 17.56 554.93 18.22 555.72 19.38 556.3 20.77 556.77 24.41 557.71 26.59 558.54 27.75 559.42 28.7 560.37 30.22 560.72 30.49 562.16 33.05 562.81 33.96 563.17 35.07 563.28 37.13 563.11 40.32 563.46 43.04 564.01 44.31 565.21 45.75 565.95 46.16 567.48 46.54 571.01 47.15 573.07 47.82 575.57 48.9 575.85 49.19 577.63 49.86 579.76 50.36 581.77 50.22 582.44 50.33 584.34 49.83 586.35 49.06 588.07 48.62 589.23 48.12 590.84 48.1 592.03 48.33 593.02 48.79 594.14 49.68 594.34 50.11 598.5 50.91 600.05 51.36 601.46 52.1 602.09 52.71 602.74 53.96 603.32 56.61 603.9 57.32 605.15 58.17 606.87 58.61 608.31 59.16 609.13 59.96 609.62 61.71 610 63.79 610.57 65.21 611.29 65.68 613.22 66.14 615.63 66.38 616.42 67.03 617.43 67.34 619.36 68.36 620.97 68.97 621.85 68.88 623.07 68.27 623.44 67.61 624.03 65.41 624.19 63.89 624.7 62.77 625.38 62.1 626.48 61.46 627.78 61.43 628.84 60.79 631.21 60.2 632.54 59.65 634.74 59 636.05 58.88 637.61 59.29 638.52 59.76 639.57 60.52 641.14 62.17 641.57 62.46 642.81 62.73 643.81 63.13 646.56 63.35 650.02 63.97 651.3 64.29 652.29 64.72 654.56 66.16 655.92 67.24 656.47 68.18 656.73 70.16 657.23 71.3 658.19 72.17 659.37 72.56 659.96 72.37 661.83 70.26 662.09 69.69 662.79 69.1 663.31 69.06 664.32 68.34 665.5 68.41 666.53 68.86 667.56 69.52 668.89 69.85 671.19 69.49 673.78 69.49 674.79 68.76 675.68 67.76 676.57 65.85 676.9 64.17 677.3 63.36 678.38 62.11 679.15 61.72 680.74 61.32 683.01 60.14 683.94 59.33 684.97 57.77 685.92 55.69 686.58 55.15 688.12 54.82 688.95 54.81 690.81 55.24 692.23 55.07 693.26 54.23 695.39 52.82 697.11 52.04 698.74 51.61 699.84 51.19 700.89 51.32 701.6 51.85 702.31 52.99 702.62 54.91 701.98 58.77 701.91 59.85 702.1 60.59 703.05 61.86 703.69 63.26 704.13 65.33 704.15 67.19 704.3 69.03 704.65 70.62 705.18 72.15 705.76 73.05 707.91 74.97 709.07 75.71 710.53 76.44 712.15 76.76 713.56 76.56 717.51 76.71 719.36 77.97 720.48 78.57 721.57 79.72 722.91 82.2 724.03 83.54 725.27 85.07 727.14 86.37 728.9 87.18 729.59 87.71 730.42 89.41 730.91 92.59 731.61 94.37 731.36 94.89 731.28 95.97 731.55 97.45 731.09 98.18 731.13 98.77 731.64 99.65 731.79 100.47 731.32 101.81 731.31 104.29 731.59 104.73 732.25 105.01 732.73 105.85 733.55 106.52 734 107.76 734.08 108.49 733.01 110.47 733.37 111.58 733.39 112.39 733.91 113.49 733.93 114.87 733.29 116.91 732.79 117.35 731.92 117.39 730.95 117.13 730.52 117.5 730.12 118.63 730.32 119.78 730.62 120.42 731.59 121.07 731.53 123.79 731.21 124.44 730.33 127.11 729.88 127.37 727.69 127.15 726.96 127.79 727.58 129.17 727.63 130.52 728.03 131.64 729.31 132.04 729.48 133.46 729.71 133.77 730.98 133.7 731.75 134.19 732.45 135.03 733.19 135.51 733.19 136.97 733.43 137.67 734.26 138.55 735.36 138.93 736.03 139.94 736.59 140.04 737.01 140.49 736.99 141.1 737.44 141.55 737.57 142.48 738.29 143.44 738.26 144.67 738.95 145.55 739.53 145.93 739.58 146.92 740.2 148.21 740.29 149.02 740.92 149.39 741.38 149.08 742.51 149.42 743.43 149.38 743.71 149.81 743.88 151.19 744.14 151.36 744.99 150.98 745.73 151.11 745.99 152.09 745.54 152.7 744.27 152.74 743.96 152.97 743.91 153.93 745.27 154.39 744.98 155.1 744.26 155.96 743.61 156.4 742.91 156.2 742.8 156.91 743.45 157.18 743.23 157.64 742.54 157.48 742.2 158.01 742.86 158.79 743.94 158.76 744.48 158.94 743.73 159.69 743.77 160.12 744.61 160.36 745.06 160.85 744.95 161.96 745.54 162.29 745.77 161.84 745.79 160.44 746.3 160.31 746.57 160.93 747.46 161.11 747.95 161.71 748.91 162.17 749.47 163.4 750.77 164.06 750.91 165.47 751.17 166.11 752.07 166.26 751.98 166.62 750.69 166.86 750.45 167.32 751.44 167.95 750.86 168.97 751.74 169.47 752.12 170.48 753.13 171.42 753.24 172.36 752.86 173.76 753.37 174.05 754.2 172.88 754.57 172.86 755.09 173.56 755.58 174.86 756.32 174.94 756.78 175.64 757.73 175.92 758.39 176.73 759.31 176.87 759.66 178.32 760.46 178.2 761.16 178.58 760.08 179.32 760.62 179.97 761.46 179.6 762.22 179.54 762.45 179.99 761.52 180.41 761.37 181.37 760.8 181.6 760.12 182.64 760.93 183.39 761.63 183.59 762.08 185.36 762.56 185.74 762.93 186.99 763.81 187.33 764.09 188.03 763.56 188.44 763.55 189.11 764.22 189.76 763.39 190.86 763.57 191.21 764.38 190.95 764.46 191.94 765.05 192.15 765.4 191.31 766.92 192.76 768.22 193.55 768.95 193.51 769.99 192.91 770.85 193.7 771.54 194 771.86 195.14 772.56 195.6 772.18 196.35 772.83 197.56 773.84 197.56 774.27 197.2 775.23 197.47 775.79 196.95 775.56 195.67 775.24 194.93 775.75 194.47 776.59 194.42 776.87 194.77 776.64 195.56 777.17 196.33 777.11 196.66 776.24 197.26 776.35 198.05 776.85 198.4 777.67 197.92 778.06 198.25 777.53 199.07 777.66 199.64 778.85 199.52 778.82 201.14 778.98 201.74 779.84 201.93 780.54 201.35 781.44 201.55 782.06 202.61 782.32 203.68 781.96 204.28 780.55 204.48 780.35 205.14 781.37 205.6 781.26 206.26 781.49 206.85 782.56 206.97 783.13 205.97 784.72 206.04 784.94 206.77 786.08 206.32 787.44 206.31 787.77 206.53 788.73 207.95 788.65 208.72 789.53 208.75 790.9 209.58 791.03 208.84 790.74 208.1 790.74 207.35 791.33 207.35 791.57 208.01 792.32 208.56 793.49 208.22 793.69 208.97 794.24 209.15 794.82 208.87 795.27 207.97 795.76 208.41 796.5 207.8 797.32 207.85 797.85 207.37 798.47 207.24 799 207.66 798.71 208.37 793.18 213.47 790.29 216.08 789.13 217.29 782.83 223.11 773.82 231.22 768.08 236.51 763.24 240.91 762.79 242.04 762.32 242.51 760.34 242.85 760.54 243.68 759.81 244.01 759.86 244.49 759.14 244.89 758.19 245.04 756.95 245.64 756.25 245.62 753.66 246.57 753.3 246.56 751.13 247.51 750.44 247.43 750.05 247.93 749.54 247.85 748.61 248.62 747.84 248.95 746.97 249.01 745.58 249.61 745.05 250.43 744.29 250.2 743.31 250.78 743.07 251.34 741.86 252.12 741.46 251.86 740.88 252.15 740.74 252.92 739.91 252.93 739.45 253.39 739 253.21 736.9 254.79 734.69 256.08 734.12 256.9 733.18 257.32 732.55 257.88 731.41 258.59 730.36 259.95 729.72 260.03 728.84 260.48 728.19 260.5 728.07 261.1 726.79 261.68 725.92 262.55 725.28 262.29 724.27 262.83 721.94 264.32 721.29 264.46 720.75 265.26 721.25 266.52 721.22 269.17 721.68 269.67 721.73 270.32 720.86 270.66 720.92 271.52 721.34 272.67 721.35 274.37 721.08 274.71 720.19 274.45 719.22 274.69 718.73 277.08 717.56 276.72 716.79 277.3 716.23 278.28 715.66 278.26 715.1 279.32 714.51 279.22 713.97 279.65 713.62 279.19 712.89 279.43 711.64 279.44 710.98 279.87 710.3 279.66 710.18 281.13 709.4 282.13 708.64 282.56 707.72 282.4 707.39 283.23 706.77 283.06 706.34 283.32 705.95 284.6 706.47 285.89 707.56 286.6 707.15 287.11 706.91 288.14 707.42 289.76 705.97 291.79 705.39 292.45 706.4 293.54 705.31 294.31 705.25 294.96 704.69 295.07 704.18 295.58 702.24 296.38 702.26 296.9 700.7 297.05 700.12 297.5 699.58 297.5 699.15 297.92 697.67 298.1 696.66 298.58 695.85 299.18 694.77 298.97 693.78 299.06 692.77 299.41 691.95 300.59 691.34 300.69 690.34 300.32 689.87 299.6 688.88 299.78 688.32 299.67 687.62 300.12 686.25 299.84 685.62 300.11 684.99 299.79 684.68 300.28 684.87 300.92 684.75 301.59 683.48 301.93 683.12 302.41 682.18 302.87 681.99 303.42 682.33 303.8 682.36 305.17 681.94 305.47 681.76 306.42 681.1 306.89 680.25 308.31 679.76 308.73 679.11 308.82 678.78 309.25 679.22 310.14 678.81 310.7 679.29 312.23 679.14 313.57 678.63 314.47 676.38 314.63 675.69 314.94 675.17 314.78 674.45 314.98 672.42 314.95 669.33 316.2 667.47 316.8 667.05 316.79 665.95 317.31 662.57 318.43 661.77 318.46 660.32 318.86 657.67 319.92 656.34 320.26 655.23 321.12 654.53 321.08 653.89 321.53 652.24 322.07 651.3 323.02 651.33 323.29 648.91 324.44 647.05 324.79 646.29 324.67 645.23 324.99 643.46 324.99 642.32 324.86 641.11 324.32 639.38 324.52 639.08 324.41 636.95 325.07 636.91 325.47 635.75 326.28 633.8 326.85 633.24 327.53 632.12 328.09 631.19 328.04 629.54 328.72 628.4 329.03 627.95 329.85 627.34 330.26 626.2 330.61 625.58 330.37 624.81 330.62 624.69 331.42 623.88 331.9 623.2 332.71 622.21 333 621.95 333.52 620.35 335.91 611.7 335.82 601.09 335.57 587.78 335.1 580.11 335.02 576.75 334.94 563.83 334.85 560.24 334.89 559.24 334.9 548.11 334.51 541.09 334.3 536.06 334.23 530.85 334.25 521.96 333.79 515.58 333.53 508.79 333.33 500.45 333.03 489.19 332.01 485.12 331.49 483.35 331.27 479.71 330.95 470.83 330.39 464.41 330.08 453.33 329.71 451.51 329.76 450.85 329.99 448.29 329.95 447.26 330.14 442.21 330.36 437.27 330.52 431.04 330.93 429.66 330.98 411.24 330.27 399.44 329.58 394.89 329.5 379.7 328.39 373.81 327.99 369.52 327.52 359.87 326.79 346.41 325.51 342.32 324.98 339.53 324.78 333.99 324.49 323.85 324.06 320.02 325.53 320.08 325.08 319.39 324.94 319.23 325.82 317.88 326.37 315.21 323.84 304.4 323.9 300.01 323.9 296.95 323.81 287.4 323.8 283.19 323.73 274.05 323.76 272.04 323.71 264.63 323.69 258.36 323.56 245.79 323.22 236.32 322.92 232.7 322.83 221.98 322.59 214.53 322.52 205 322.27 197.66 322.17 185.6 322.04 182.22 322.06 182.77 318.09 177.11 317.42 174.67 317.09 165.64 315.64 162.5 315.39 159.61 315.26 159.72 317.39 159.98 318.52 160.67 319.84 160.93 320.78 160.92 321.57 161.91 325.18 162.22 328.62 162.74 331.19 162.83 333.86 162.31 335.53 162.22 336.54 161.93 337.42 160.45 338.98 159.2 338.85 146.77 338.09 136.16 337.51 125.99 337.04 119.68 336.66 114.21 336.42 109 336.05 99.26 335.61 94.28 335.3 84.22 334.79 64.99 333.91 60.01 333.57 46.33 332.69 41.15 332.25 33.78 331.71 29.12 331.33 19.55 331.85 16.78 331.72 18.27 327.87 19.09 326.12 19.59 323.7 21.04 320.88 21.34 319.88 21.77 317.51 22.44 316.18 23.12 315.58 24.89 314.94 26.72 314.76 27.71 315.23 28.3 316.01 29.84 318.89 30.37 320.08 32.01 322.42 32.84 323.36 33.73 323.97 34.18 324.06 36.32 323.92 37.31 323.63 38.77 322.35 39.7 320.57 40.09 319.58 40.36 317.64 40.81 316.04 42.05 314.4 43.38 313.37 45.13 311.38 44.16 310.61 44.32 308.81 43.59 307.59 42.86 306.92 41.5 305.12 41.14 304.32 41.24 302.51 41.58 301.59 42.32 300.6 43.35 299.64 44.66 299.16 45.82 299.66 47.18 299.76 48.18 300.37 49.21 300.42 49.88 299.59 50.24 298.65 50.31 297.37 49.77 296.17 49.17 295.73 46.79 295.47 45.65 295.02 44.85 294.21 44.12 292.72 44.23 289.49 45.17 288.43 46.37 288.38 47.07 287.85 48.6 287.9 49.31 286.59 49.78 285.16 51.08 282.62 52.14 278.49 52.96 276.25 53.45 273.93 53.3 272.48 52.51 271.22 51.77 270.57 50.87 270.21 50.07 270.36 Z M 3.94 331.13 1.91 327.55 1.44 326.12 1 324.31 1.06 323.19 1.71 321.93 2.58 321.06 3.29 320.61 4.2 320.32 5.47 320.26 6.71 320.84 8.27 321.17 9.88 321.66 10.65 322.16 11.38 323.59 11.82 325.17 11.98 326.81 11.79 327.77 11.31 329.03 10.79 329.98 9.6 331.51 3.94 331.13 Z" fill-rule="evenodd" fill="none" stroke="currentColor" stroke-width="1"/>
</g>
</svg>