<?xml version="1.0"?>
<svg xmlns="http://www.w3.org/2000/svg" version="1.2" baseProfile="tiny" width="800" height="280" viewBox="0 0 800 280" stroke-linecap="round" stroke-linejoin="round">
<g id="state">
<path d="M 46.94 228.19 45.78 227.57 44.06 226.4 43.03 225.57 42.2 224.28 41.91 223.58 41.74 222.2 42.22 220.25 42.65 219.35 43.33 218.44 44.55 217.11 44.99 216.81 45.41 215.93 45.9 215.92 47.68 214.93 49.4 213.4 50.5 211.58 51.15 209.86 51.73 209.04 53.42 207.54 54.95 206.41 56.6 205 57.03 204.84 57.75 204.17 59.51 203.6 60.79 202.77 62.99 202.27 64.21 202.23 64.48 202.57 66.99 202.78 67.77 202.73 68.07 202.45 69.68 202.81 72.25 203.63 73.77 204.04 75.54 204.64 78.19 205.7 81.88 206.75 83.27 207.62 83.46 207.89 85.92 209.57 87.57 210.41 88.38 210.94 89.53 211.4 90.35 211.55 91.92 211.32 93.14 211.51 94.33 211.9 96.81 212.92 98.73 213.56 99.99 213.72 101.11 214.16 102.81 215.1 103.9 215.83 104.55 216.66 105.53 217.41 105.7 217.95 106.96 218.28 107.83 218.7 110.31 219.3 111.6 219.45 113.03 219.42 114.46 219.13 115.22 219.24 117.25 218.63 117.7 218.33 118.66 217.12 119.14 216.32 119.03 215.88 119.58 214.92 119.33 214.57 120.2 213.02 121.24 210.5 121.18 210.14 120.47 209.39 119.85 207.39 119.72 207.27 118.8 204.95 117.8 204 116.36 203.27 115.64 202.49 114.94 201.06 114.2 200.29 113.31 199.74 112.61 199.06 112.62 198.47 112.32 197.45 111.68 196.5 111.82 195.74 112.19 194.91 112.8 194.03 113.51 192.61 114.14 191.68 114.95 190.09 115.16 189.18 115.18 188.15 116.01 185.31 116.8 184.36 118.12 183.31 120.19 182.41 121.57 182.1 122.87 181.69 124.49 182.26 126.24 183.33 126.63 183.91 127.57 184.16 129.44 183.02 129.75 182.6 131.17 181.21 132.43 180.58 133.06 180.05 134.36 179.48 136.26 178.81 139.04 178.39 141.94 178.35 143.87 178.03 145.19 177.97 147.75 177.45 149.02 177.36 151.74 176.81 152.82 176.81 156.2 176.64 156.84 176.83 157.32 176.59 158.02 175.78 158.11 175.38 158.94 175.03 159.32 173.94 159.21 172.29 158.57 171.19 157.65 170.49 156.62 170.18 156.19 169.82 154.71 167.91 152.88 166.56 151.69 165.99 151.04 164.91 150.87 164.1 150.9 162.98 149.8 160.99 149.33 159.87 149.17 158.93 149.02 157.09 149.24 156.53 150.01 155.31 150.58 154.65 151.75 153.68 151.95 153.13 152.69 152.11 153.22 151.68 155.24 150.91 155.93 150.33 157.07 149.79 158.5 149.33 159.58 148.36 160.65 147.09 161.44 145.59 162 143.3 162.87 142.46 164.27 142.17 165.67 142.49 168.64 143.91 169 144.35 170.1 145.23 170.67 145.34 171.48 145.13 172.58 143.39 172.99 142.56 174.86 141.96 175.57 141.58 175.92 140.61 175.25 137.86 174.65 137.09 173.58 136.36 172.31 135 172 134.04 172.1 133.18 172.78 132.28 175.4 129.61 175.89 129.2 176.62 128.96 178.1 129.13 178.91 129.48 179.74 130.18 180.3 130.85 180.72 131.7 181.91 132.56 181.92 133.14 182.76 133.99 183.72 134.36 186 134.48 187.4 134.47 188.53 134.21 189.87 133.29 191.07 132.76 193.28 132.44 194.77 132.68 195.88 132.59 197.71 132 198.91 131.5 200.02 131.76 200.76 132.33 201.06 133.2 200.78 133.98 199.2 136.47 199.16 137.41 199.44 138.54 200.39 139.44 202.13 139.64 203.5 139.6 204.91 139.37 206.21 139 207.05 138.34 208 137.38 208.8 136.23 209.03 135.14 209.46 134.77 209.44 134.08 209.12 133.47 207.53 132.28 205.87 131.3 205.47 130.87 204.91 129.74 205.19 128.71 205.59 128.59 205.95 127.87 207.17 126.68 207.63 124.4 208.32 124 209.1 123.98 210.1 124.52 210.39 124.97 210.38 126.06 210.63 126.8 211.48 128.12 212.39 128.93 213.18 129.38 214.93 130.17 215.96 130.49 217.08 131.21 217.58 131.18 218.52 130.76 220.29 129.41 221.94 128.34 223.6 127.49 224.77 127.25 227.28 127.19 228.15 127.34 230.21 127.92 231.73 128.61 231.8 128.86 232.78 129.68 235.27 131.03 237.05 131.26 238.94 132.12 239.33 132.26 241.37 133.43 242.61 134.25 243.79 135.18 245.87 136.24 247.6 137.23 249.24 137.69 252.28 138.07 252.84 137.95 253.83 138.25 254.5 138.79 255.92 140.75 256.51 142.11 256.67 143.14 257.21 143.89 258.53 144.22 259.61 144.15 261.13 143.76 262.59 142.9 263.42 142.22 264.09 141.17 264.41 140.15 264.78 139.49 265.56 136.71 266.2 135.15 266.21 134.2 265.87 133 265.98 132.5 266.46 131.84 267.27 131.14 269.43 129.92 270.73 129.41 273.23 128.62 274.09 128.42 276.32 128.39 279.05 128.08 281.01 127.01 282.22 125.86 282.71 125.21 283.7 124.49 285.32 123.03 286 122.64 288.27 121.95 289.1 121.54 290.17 121.53 292.23 122.52 292.72 123.51 293.06 124.66 293.74 125.49 294.02 126.43 296.72 130.33 298.7 132.37 299.86 132.65 301.04 132.23 302.55 131.24 304.22 130.31 304.95 130.31 307.41 130.74 307.91 131.14 308.08 131.63 308 132.41 307.6 133.32 306.59 135.03 306.14 136.39 306.21 137.1 306.6 137.75 307.24 138.01 308.68 137.9 309.95 137.47 312.17 136.29 312.92 135.27 312.77 134.53 312.9 133.48 312.68 131.42 313.14 130.33 314.11 129.55 316.19 129.55 318.78 130.1 319.69 130.07 321.14 129.56 322.11 129.09 322.49 128.66 322.21 127.44 321.16 126.37 320.57 124.91 320.46 120.91 320.64 119.49 320.55 118.38 320.91 117.23 322.26 116.66 323.37 116.58 325.01 116.62 326.65 116.5 327.72 116.25 328.66 115.81 329.65 115.03 330.12 114.5 330.47 113.49 330.37 112.6 329.65 112.07 327.62 111.4 326.81 110.45 326.72 109.48 326.89 109.08 327.83 108.28 328.54 108.03 330.25 108.13 331.18 108.66 333.48 110.44 334.05 110.18 335.01 108.31 336.29 107.68 338.14 107.82 339.11 108 340.38 107.92 341.28 107.39 341.67 106.88 341.96 106.01 341.46 105.23 339.5 104.7 337.32 104.46 336.58 104.12 336.15 103.62 335.94 102.48 336.07 101.63 336.51 101.01 337.27 100.63 338.28 100.56 339.08 100.86 341.07 102.32 342.2 103.16 344.69 104.21 345.54 104.83 347.02 106.61 347.29 107.51 347.16 108.31 346.36 110.8 346.42 112.32 346.68 113.6 347.17 114.89 347.55 115.39 349.52 116.62 351.06 117.19 352.54 118.46 355.78 119.72 356.88 120.26 358.53 120.33 360.02 119.85 361 119.73 362.69 119.7 364.56 120.03 366.54 120.84 367.59 121.68 368.26 123.01 368.88 123.98 369.56 124.78 370.71 125.69 371.57 125.69 371.97 125.28 372.13 124.52 371.94 123.36 372.27 122.4 372.93 121.99 374.66 121.56 378.02 121.04 379.37 121.08 381.2 120.86 381.66 120.68 383.17 119.44 383.68 118.74 383.97 118 384.55 114.29 385.61 111.95 385.65 110 385.29 107.79 385.19 106.46 385.41 104.04 385.77 103.14 386.64 101.83 387.59 100.71 388.78 99.59 391.21 98.03 392.14 96.92 392.53 96.23 392.74 94.89 392.78 93.75 393.58 92.37 394.15 91.99 395.11 91.7 396.76 91.46 398.01 91.12 399.46 91.41 400.18 91.99 400.08 92.31 400.67 92.82 402.02 93.34 402.76 93.31 408.68 90.47 409.88 89.68 410.16 89.16 411.79 87.43 412.95 85.09 413.56 83.21 413.65 81.5 414.25 79.66 415.2 77.91 415.65 76.72 417.17 75.13 419.14 74.15 420.52 73.88 422.66 73.78 425.46 73.38 427.51 72.63 428.31 72.2 429.28 71.27 430.04 70.24 430.62 68.79 431.56 67.87 433.37 67.08 435.01 66.49 435.72 66.02 436.55 65.22 436.97 64.21 437.03 63.03 436.76 61.64 435.95 60.24 434.84 58.56 434.58 57.8 434.45 55.2 434.55 52.26 434.05 51.28 432.87 49.97 432.63 49.13 432.73 48.34 433.32 46.72 434.07 45.96 434.71 45.05 436.23 44.31 437.72 44.05 438.88 44.22 441.47 44.75 443.57 44.64 447.32 43.79 448.89 43.54 451.28 43.57 453.41 43.98 454.73 44.64 455.67 45.7 456.81 47.32 458.22 48.42 459.09 48.8 460.3 49.03 460.75 49.25 462.38 49.21 464.86 48.53 466.72 47.64 467.6 46.89 469.33 45.74 469.93 45.17 471.12 44.65 472.91 43.64 475.07 42.89 476.34 42.13 477.65 41.77 479.34 41 481.11 39.84 482.38 39.63 484.5 39.75 486.15 40.05 487.49 39.84 489.21 39.21 490.7 38.5 492.35 38 493.49 38.24 495.05 38.39 496.68 38.75 497.83 39.1 498.66 39.22 499.91 39.12 500.34 38.3 499.82 36.9 498.76 35.56 498.41 34.27 499.07 33.37 499.7 32.93 501.29 32.08 502.56 31.03 503.01 30.25 503.18 29.58 503.08 28.97 502.27 28.28 501.36 27.81 500.03 27.44 497.33 27.21 495.2 27.2 494.18 26.89 493.56 26.13 493.23 25.27 493.38 24.85 494.56 23.48 495.65 22.69 496.41 21.88 497.85 20.9 498.42 19.68 498.07 18.46 497.51 17.53 496.66 16.81 496.34 16.15 495.53 15.16 493.96 13.5 492.43 12.37 491.45 10.97 491.35 10.44 492.14 9.58 493.95 8.89 495.01 8.38 496.39 7.35 496.84 6.85 498.15 5.93 499.44 5.41 500.43 5.01 502.17 4.63 503.18 4.12 504.64 2.29 505.83 1.33 506.44 1.03 507.58 1 509.17 1.49 510.17 2.16 510.87 2.88 513.16 5.64 514.11 6.11 515.55 6.19 516.4 6.42 517.33 6.92 519.1 8.4 520.61 8.78 522.45 8.65 522.88 8.42 525 7.96 526.29 7.27 527.38 6.16 528.19 5.98 529.14 6.21 530.34 6.77 531.97 6.61 532.79 6.3 533.66 5.68 534.17 4.94 534.9 4.25 536 3.72 537.36 3.73 538.01 3.96 538.92 4.63 539.61 5.51 539.98 6.55 539.81 7.35 539.99 7.65 539.99 8.7 540.32 10.31 540.93 10.99 542.35 11.58 543.45 11.59 544.61 11.8 545.07 11.73 547.58 12.1 549.73 12.8 550.93 13.42 551.92 14.2 552.56 14.73 553.38 15.66 553.97 16.77 554.46 19.7 555.43 21.45 556.28 22.39 557.18 23.15 558.17 24.37 558.52 24.59 560 26.64 560.67 27.37 561.04 28.26 561.15 29.91 560.98 32.48 561.34 34.67 561.9 35.69 563.13 36.84 563.89 37.17 565.47 37.48 569.09 37.97 571.2 38.51 573.76 39.38 574.05 39.61 575.88 40.16 578.07 40.56 580.13 40.45 580.81 40.54 582.77 40.14 584.83 39.53 586.59 39.18 587.79 38.78 589.44 38.76 590.66 38.95 591.68 39.33 592.82 40.04 593.03 40.39 597.29 41.04 598.88 41.41 600.32 42.02 600.97 42.51 601.63 43.51 602.21 45.64 602.8 46.22 604.08 46.91 605.84 47.26 607.32 47.71 608.15 48.36 608.64 49.76 609.02 51.44 609.6 52.58 610.34 52.96 612.31 53.34 614.78 53.54 615.59 54.07 616.62 54.32 618.59 55.15 620.23 55.65 621.14 55.58 622.39 55.09 622.78 54.57 623.39 52.8 623.56 51.58 624.1 50.68 624.8 50.16 625.93 49.64 627.26 49.63 628.35 49.12 630.78 48.66 632.16 48.22 634.42 47.72 635.76 47.62 637.36 47.97 638.28 48.35 639.36 48.97 640.95 50.31 641.38 50.54 642.65 50.77 643.68 51.09 646.5 51.29 650.03 51.82 651.34 52.08 652.35 52.43 654.66 53.61 656.04 54.48 656.6 55.25 656.84 56.84 657.34 57.76 658.32 58.46 659.52 58.79 660.13 58.64 662.06 56.96 662.34 56.51 663.06 56.04 663.6 56.01 664.64 55.44 665.84 55.51 666.89 55.88 667.94 56.42 669.3 56.7 671.66 56.42 674.31 56.45 675.35 55.88 676.27 55.08 677.21 53.56 677.57 52.21 677.99 51.56 679.12 50.57 679.91 50.26 681.54 49.96 683.89 49.03 684.85 48.39 685.93 47.15 686.93 45.49 687.61 45.06 689.19 44.81 690.05 44.82 691.94 45.18 693.4 45.06 694.48 44.4 696.68 43.29 698.46 42.68 700.13 42.35 701.27 42.03 702.34 42.15 703.06 42.58 703.77 43.51 704.06 45.05 703.35 48.15 703.26 49.01 703.45 49.61 704.39 50.64 705.03 51.77 705.46 53.44 705.44 54.94 705.57 56.41 705.9 57.7 706.42 58.93 707 59.66 709.17 61.23 710.35 61.84 711.83 62.44 713.48 62.72 714.92 62.58 718.96 62.75 720.84 63.79 721.97 64.29 723.07 65.22 724.4 67.24 725.52 68.32 726.76 69.58 728.64 70.64 730.43 71.32 731.13 71.76 731.94 73.13 732.38 75.7 733.07 77.13 732.8 77.55 732.7 78.41 732.95 79.61 732.47 80.19 732.49 80.66 733 81.37 733.13 82.04 732.63 83.1 732.58 85.09 732.85 85.46 733.52 85.69 734 86.37 734.82 86.92 735.26 87.92 735.33 88.51 734.2 90.09 734.55 90.99 734.55 91.63 735.06 92.52 735.05 93.64 734.36 95.27 733.84 95.61 732.96 95.63 731.97 95.41 731.53 95.7 731.1 96.6 731.29 97.52 731.58 98.04 732.56 98.58 732.44 100.77 732.11 101.28 731.16 103.41 730.7 103.62 728.48 103.41 727.72 103.91 728.33 105.03 728.35 106.12 728.74 107.02 730.03 107.36 730.19 108.51 730.41 108.76 731.71 108.72 732.48 109.12 733.18 109.81 733.92 110.2 733.89 111.38 734.13 111.94 734.96 112.66 736.06 112.98 736.72 113.81 737.29 113.89 737.71 114.26 737.68 114.76 738.13 115.12 738.24 115.87 738.96 116.65 738.91 117.64 739.59 118.35 740.17 118.67 740.2 119.47 740.8 120.51 740.88 121.16 741.51 121.47 741.99 121.23 743.13 121.52 744.06 121.5 744.34 121.85 744.48 122.96 744.74 123.1 745.62 122.81 746.36 122.93 746.61 123.72 746.14 124.2 744.84 124.22 744.52 124.39 744.46 125.16 745.83 125.56 745.52 126.12 744.77 126.8 744.1 127.14 743.4 126.97 743.28 127.54 743.93 127.77 743.69 128.13 743.01 127.99 742.64 128.41 743.3 129.05 744.4 129.05 744.94 129.19 744.16 129.79 744.2 130.13 745.05 130.34 745.49 130.74 745.35 131.63 745.95 131.9 746.19 131.55 746.23 130.42 746.76 130.33 747.02 130.83 747.92 130.99 748.4 131.48 749.37 131.86 749.91 132.85 751.22 133.41 751.33 134.55 751.58 135.06 752.49 135.2 752.39 135.49 751.08 135.65 750.83 136.02 751.81 136.54 751.21 137.35 752.09 137.77 752.46 138.59 753.46 139.36 753.55 140.12 753.14 141.23 753.64 141.48 754.52 140.55 754.88 140.54 755.4 141.11 755.87 142.16 756.61 142.24 757.06 142.81 758.02 143.05 758.67 143.71 759.6 143.84 759.93 145.01 760.74 144.92 761.44 145.24 760.33 145.82 760.87 146.35 761.72 146.07 762.5 146.03 762.71 146.4 761.76 146.72 761.59 147.49 761.01 147.67 760.3 148.49 761.1 149.1 761.8 149.27 762.23 150.7 762.7 151.02 763.05 152.03 763.93 152.32 764.21 152.88 763.65 153.2 763.63 153.74 764.29 154.28 763.43 155.14 763.6 155.43 764.43 155.24 764.49 156.03 765.09 156.21 765.45 155.54 766.96 156.74 768.26 157.39 768.99 157.37 770.06 156.9 770.91 157.55 771.61 157.81 771.9 158.73 772.59 159.11 772.2 159.71 772.83 160.69 773.84 160.71 774.28 160.43 775.25 160.66 775.83 160.26 775.63 159.22 775.32 158.62 775.84 158.26 776.69 158.24 776.97 158.52 776.71 159.15 777.24 159.78 777.17 160.04 776.27 160.51 776.37 161.15 776.86 161.44 777.7 161.07 778.09 161.34 777.54 161.99 777.65 162.45 778.86 162.37 778.79 163.68 778.94 164.16 779.8 164.33 780.53 163.88 781.42 164.05 782.03 164.91 782.27 165.78 781.89 166.25 780.46 166.39 780.24 166.92 781.27 167.31 781.14 167.83 781.35 168.31 782.43 168.42 783.03 167.64 784.64 167.72 784.84 168.31 786 167.97 787.37 167.99 787.7 168.17 788.63 169.33 788.53 169.95 789.42 169.99 790.79 170.68 790.93 170.09 790.66 169.49 790.67 168.89 791.27 168.89 791.5 169.43 792.24 169.89 793.42 169.64 793.61 170.24 794.16 170.4 794.75 170.19 795.23 169.48 795.71 169.83 796.48 169.36 797.3 169.42 797.85 169.04 798.47 168.95 799 169.3 798.69 169.86 792.99 173.85 790.01 175.89 788.81 176.84 782.33 181.4 773.07 187.75 767.18 191.9 762.22 195.35 761.74 196.25 761.26 196.61 759.26 196.86 759.44 197.53 758.71 197.78 758.75 198.17 758.01 198.48 757.06 198.58 755.8 199.04 755.1 199.02 752.47 199.73 752.11 199.72 749.91 200.45 749.22 200.38 748.82 200.77 748.31 200.7 747.36 201.3 746.58 201.55 745.7 201.59 744.29 202.05 743.74 202.7 742.98 202.5 741.99 202.95 741.74 203.4 740.51 204.01 740.11 203.8 739.53 204.02 739.37 204.64 738.54 204.63 738.07 205 737.62 204.84 735.48 206.08 733.24 207.08 732.65 207.74 731.7 208.06 731.06 208.5 729.9 209.06 728.82 210.14 728.18 210.19 727.28 210.54 726.63 210.54 726.51 211.03 725.21 211.48 724.32 212.16 723.68 211.94 722.66 212.36 720.3 213.53 719.64 213.63 719.09 214.27 719.57 215.29 719.49 217.41 719.95 217.82 719.99 218.35 719.11 218.61 719.15 219.29 719.56 220.22 719.54 221.6 719.26 221.86 718.37 221.64 717.4 221.82 716.87 223.74 715.7 223.43 714.92 223.89 714.35 224.66 713.78 224.64 713.2 225.49 712.6 225.4 712.06 225.74 711.72 225.36 710.98 225.55 709.73 225.54 709.06 225.88 708.38 225.7 708.24 226.88 707.44 227.67 706.68 228.01 705.76 227.87 705.42 228.53 704.8 228.39 704.36 228.59 703.95 229.62 704.46 230.66 705.53 231.24 705.11 231.64 704.86 232.47 705.35 233.78 703.86 235.39 703.28 235.92 704.26 236.8 703.16 237.41 703.1 237.93 702.54 238.01 702.02 238.41 700.06 239.03 700.08 239.45 698.52 239.55 697.93 239.91 697.39 239.9 696.95 240.23 695.47 240.36 694.46 240.74 693.64 241.21 692.56 241.03 691.57 241.09 690.56 241.36 689.72 242.3 689.11 242.37 688.11 242.06 687.65 241.48 686.67 241.62 686.11 241.52 685.4 241.87 684.04 241.64 683.4 241.85 682.77 241.58 682.45 241.98 682.64 242.49 682.52 243.03 681.24 243.29 680.88 243.67 679.93 244.03 679.73 244.47 680.07 244.78 680.08 245.88 679.65 246.11 679.47 246.88 678.8 247.24 677.93 248.38 677.43 248.71 676.79 248.78 676.45 249.12 676.88 249.84 676.46 250.28 676.92 251.52 676.76 252.59 676.24 253.32 673.99 253.42 673.3 253.66 672.78 253.52 672.06 253.68 670.03 253.64 666.94 254.61 665.07 255.08 664.66 255.07 663.56 255.47 660.16 256.35 659.37 256.37 657.92 256.67 655.27 257.5 653.94 257.77 652.82 258.45 652.12 258.41 651.48 258.77 649.83 259.19 648.88 259.95 648.91 260.16 646.48 261.07 644.63 261.33 643.88 261.23 642.81 261.48 641.05 261.47 639.91 261.36 638.71 260.92 636.98 261.06 636.68 260.97 634.55 261.49 634.51 261.81 633.35 262.46 631.4 262.9 630.83 263.45 629.72 263.89 628.79 263.84 627.14 264.38 626 264.62 625.54 265.28 624.94 265.6 623.79 265.88 623.19 265.68 622.41 265.88 622.29 266.52 621.48 266.91 620.79 267.55 619.81 267.78 619.55 268.2 617.93 270.11 609.32 270 598.76 269.76 585.5 269.34 577.86 269.26 574.51 269.19 561.64 269.11 558.07 269.14 557.07 269.15 545.98 268.85 538.99 268.69 533.98 268.64 528.78 268.67 519.93 268.33 513.57 268.14 506.81 268.01 498.5 267.81 487.27 267.05 483.21 266.66 481.45 266.49 477.81 266.26 468.96 265.87 462.56 265.67 451.52 265.47 449.71 265.52 449.05 265.72 446.49 265.71 445.47 265.87 440.44 266.1 435.52 266.28 429.32 266.66 427.94 266.72 409.59 266.37 397.82 265.97 393.28 265.96 378.12 265.29 372.25 265.06 367.96 264.75 358.33 264.32 344.9 263.53 340.8 263.17 338.02 263.06 332.49 262.94 322.37 262.78 318.59 264.04 318.64 263.68 317.95 263.58 317.81 264.29 316.48 264.76 313.76 262.78 302.99 263.06 298.62 263.15 295.56 263.14 286.04 263.35 281.84 263.39 272.73 263.62 270.73 263.63 263.35 263.8 257.1 263.85 244.57 263.9 235.12 263.91 231.51 263.94 220.82 264.04 213.4 264.2 203.9 264.28 196.58 264.41 184.57 264.68 181.2 264.8 181.59 261.6 175.92 261.24 173.48 261.05 164.43 260.18 161.28 260.08 158.41 260.07 158.61 261.78 158.9 262.68 159.65 263.72 159.94 264.46 159.97 265.1 161.1 267.96 161.56 270.71 162.18 272.75 162.38 274.89 161.92 276.25 161.88 277.07 161.63 277.78 160.22 279.08 158.97 279.02 146.58 278.83 136.01 278.74 125.88 278.71 119.59 278.64 114.15 278.65 108.95 278.54 99.25 278.56 94.29 278.5 84.26 278.49 65.11 278.55 60.14 278.49 46.5 278.36 41.34 278.22 33.99 278.11 29.33 278.01 19.86 278.85 17.1 278.88 18.37 275.72 19.08 274.28 19.45 272.32 20.73 269.99 20.97 269.17 21.27 267.25 21.86 266.16 22.51 265.64 24.23 265.06 26.05 264.83 27.06 265.16 27.68 265.76 29.37 268 29.97 268.93 31.72 270.74 32.6 271.46 33.52 271.91 33.97 271.96 36.09 271.76 37.06 271.48 38.45 270.39 39.28 268.92 39.61 268.11 39.77 266.54 40.14 265.24 41.28 263.87 42.55 262.98 44.19 261.32 43.17 260.74 43.25 259.29 42.45 258.34 41.69 257.84 40.23 256.45 39.83 255.82 39.84 254.37 40.13 253.62 40.81 252.79 41.79 251.97 43.07 251.53 44.25 251.89 45.62 251.91 46.64 252.36 47.67 252.35 48.3 251.66 48.6 250.89 48.61 249.86 48.01 248.92 47.38 248.59 44.99 248.48 43.84 248.17 42.99 247.55 42.19 246.39 42.12 243.8 43 242.91 44.2 242.81 44.87 242.35 46.39 242.33 47.04 241.25 47.43 240.08 48.6 237.99 49.44 234.63 50.14 232.8 50.5 230.92 50.28 229.77 49.43 228.78 48.65 228.29 47.73 228.04 46.94 228.19 Z M 4.31 278.99 2.09 276.21 1.54 275.08 1 273.65 1 272.75 1.57 271.72 2.38 270.98 3.06 270.58 3.95 270.3 5.21 270.2 6.48 270.6 8.05 270.8 9.67 271.12 10.47 271.48 11.27 272.6 11.8 273.84 12.06 275.16 11.92 275.94 11.52 276.97 11.05 277.75 9.95 279.04 4.31 278.99 Z" fill-rule="evenodd" fill="none" stroke="currentColor" stroke-width="1"/>
</g>
</svg>