<svg viewBox="-90.33133536923289 -39.90800748811208 9.126845857344975 4.171519976224154" xmlns="http://www.w3.org/2000/svg">
  <path d="M -89.132915,36.982057 L -89.125352,36.983529 L -89.116609,36.981103 L -89.1092,36.976451 L -89.101038,36.967085 L -89.098968,36.956067 L -89.102451,36.938177 L -89.109099,36.920729 L -89.117115,36.888685 L -89.128248,36.868741 L -89.131934,36.857596 L -89.138109,36.847323 L -89.152681,36.847105 L -89.159005,36.842729 L -89.170443,36.84184 L -89.178855,36.833336 L -89.178223,36.808614 L -89.170563,36.797538 L -89.162494,36.79168 L -89.151465,36.788669 L -89.128711,36.787675 L -89.122725,36.784537 L -89.116983,36.775595 L -89.117076,36.765769 L -89.119992,36.758437 L -89.125967,36.751809 L -89.135789,36.751777 L -89.145521,36.756059 L -89.158554,36.756229 L -89.169785,36.759641 L -89.182027,36.755408 L -89.191296,36.747669 L -89.197856,36.739772 L -89.200552,36.732567 L -89.200647,36.718751 L -89.196835,36.712753 L -89.182953,36.699552 L -89.175711,36.694722 L -89.16811,36.685729 L -89.168798,36.671892 L -89.159118,36.666354 L -89.174727,36.650475 L -89.186856,36.642022 L -89.197753,36.628971 L -89.201265,36.616545 L -89.202771,36.601665 L -89.205966,36.593866 L -89.213874,36.579911 L -89.227046,36.569537 L -89.236308,36.566881 L -89.256538,36.564961 L -89.260855,36.565397 L -89.269546,36.569716 L -89.277943,36.576588 L -89.294675,36.593779 L -89.300379,36.602624 L -89.31645,36.624044 L -89.322433,36.629754 L -89.332034,36.632881 L -89.34935,36.630718 L -89.365797,36.625126 L -89.371915,36.620196 L -89.377608,36.609791 L -89.380447,36.591514 L -89.38271,36.583722 L -89.394918,36.561518 L -89.398453,36.542849 L -89.405246,36.529058 L -89.417275,36.499011 L -89.391057,36.499216 L -89.300731,36.507227 L -89.256345,36.506316 L -89.186324,36.505227 L -89.13706,36.503936 L -89.007058,36.502709 L -88.959746,36.502076 L -88.777192,36.502717 L -88.681665,36.502589 L -88.634301,36.502023 L -88.541874,36.502176 L -88.492384,36.501153 L -88.440481,36.50123 L -88.380505,36.500554 L -88.28397367269191,36.50035200514939 L -88.183246,36.49944 L -88.065207,36.497633 L -88.053293,36.497058 L -88.039823,36.509437 L -88.037415,36.516268 L -88.037021,36.524029 L -88.032675,36.536985 L -88.034573,36.557363 L -88.040497,36.576824 L -88.044862,36.60307 L -88.055625,36.63034 L -88.055883,36.636421 L -88.058662,36.643506 L -88.065792,36.653395 L -88.068635,36.661962 L -88.070541,36.678255 L -88.043097,36.678125 L -88.01313487856586,36.677220628131735 L -87.926875,36.668936 L -87.903564,36.667103 L -87.849544,36.663695 L -87.853319,36.63316 L -87.821178,36.63433 L -87.70667,36.63688 L -87.636914,36.638162 L -87.546351,36.638912 L -87.475678,36.640396 L -87.37376,36.641406906492136 L -87.339338,36.641637 L -87.24933,36.641721 L -87.12991,36.642221 L -87.070339,36.642734 L -86.999989,36.644296 L -86.980882,36.64437 L -86.894064,36.646611 L -86.85404,36.647006 L -86.763296,36.648954 L -86.734208,36.648898 L -86.692534,36.649771 L -86.589906,36.652443 L -86.563909,36.633562 L -86.551222,36.637998 L -86.549943,36.644759 L -86.543352,36.643855 L -86.543822,36.640427 L -86.507781,36.652379 L -86.411379,36.650924 L -86.358661,36.649726 L -86.332126,36.648701 L -86.293112,36.645296 L -86.165091,36.637748 L -86.073242,36.633619 L -86.032405,36.630708 L -85.976418,36.628493 L -85.831974,36.622101 L -85.788726,36.622048 L -85.67653,36.618223 L -85.501599,36.614857 L -85.488497,36.615395 L -85.429361,36.619095 L -85.382476,36.620826 L -85.334549,36.622979 L -85.324791,36.624508 L -85.300415,36.624449 L -85.294158,36.626278 L -85.276922,36.626823 L -85.171624,36.624884 L -85.110636,36.622935 L -85.026279,36.619261 L -84.991632,36.617041 L -84.974811,36.615465 L -84.936145,36.611729 L -84.829123,36.604514 L -84.749949,36.60257 L -84.685446,36.601363 L -84.624902,36.599539 L -84.540474,36.596304 L -84.4909328920553,36.596581916271774 L -84.443183,36.596097 L -84.376548,36.594598 L -84.270904,36.591708 L -84.26133704214033,36.5917819260937 L -84.227292,36.592045 L -84.104641,36.591317 L -84.072731,36.590654 L -83.999943,36.589857 L -83.873541,36.585923 L -83.772871,36.58363 L -83.690789,36.582596 L -83.67537920636775,36.60078403907826 L -83.67296,36.604762 L -83.663548,36.606928 L -83.656993,36.613083 L -83.649313,36.616774 L -83.648086,36.622839 L -83.640727,36.624763 L -83.634932,36.622887 L -83.624017,36.625509 L -83.618261,36.628587 L -83.613896,36.63485 L -83.603068,36.637147 L -83.587296,36.642301 L -83.578467,36.64184 L -83.567853,36.646051 L -83.562426,36.651249 L -83.543857,36.655455 L -83.532832,36.661625 L -83.532404,36.664689 L -83.512108,36.669628 L -83.509259,36.668774 L -83.492805,36.670187 L -83.481328,36.665974 L -83.470473,36.664923 L -83.45369,36.664793 L -83.443545,36.667179 L -83.436354,36.666221 L -83.418682,36.668729 L -83.395555,36.677404 L -83.39587,36.679426 L -83.386809,36.686614 L -83.371092,36.690686 L -83.364973,36.694096 L -83.358281,36.693686 L -83.347635,36.700199 L -83.334967,36.702732 L -83.309711,36.710639 L -83.295901,36.713546 L -83.288296,36.71371 L -83.255969,36.722057 L -83.24548,36.72594 L -83.241517,36.725836 L -83.223719,36.730258 L -83.194252,36.739519 L -83.174935,36.739178 L -83.168024,36.740641 L -83.163124,36.739298 L -83.156499,36.741622 L -83.13512,36.742629 L -83.13013,36.749539 L -83.128569,36.759718 L -83.132965,36.771546 L -83.128987,36.775784 L -83.133043,36.782576 L -83.129834,36.785845 L -83.1237,36.786503 L -83.11893,36.789688 L -83.110649,36.800487 L -83.104331,36.803997 L -83.102564,36.81127 L -83.09848,36.813517 L -83.098607,36.823985 L -83.10180531819339,36.826930141356314 L -83.099904,36.831147 L -83.0909,36.834594 L -83.087459,36.838224 L -83.075253,36.840699 L -83.074067,36.845793 L -83.075849,36.850694 L -83.072836,36.854457 L -83.066854,36.851949 L -83.060749,36.853948 L -83.0478,36.85168 L -83.041028,36.855013 L -83.035704,36.854117 L -83.02631,36.855422 L -83.021913,36.84988 L -83.012437,36.84693 L -83.006577,36.847643 L -82.998587,36.856567 L -82.988996,36.859156 L -82.979502,36.859698 L -82.969243,36.858019 L -82.961435,36.86248 L -82.951754,36.866108 L -82.937678,36.867319 L -82.933486,36.870468 L -82.928307,36.870412 L -82.922747,36.873809 L -82.907823,36.874764 L -82.908007,36.878747 L -82.889343,36.884661 L -82.884461,36.888498 L -82.87908,36.889255 L -82.878467,36.894218 L -82.867978,36.900048 L -82.877379,36.908471 L -82.871819,36.913501 L -82.857644,36.92885 L -82.8623,36.941338 L -82.859882,36.949172 L -82.855912,36.953012 L -82.866144,36.958556 L -82.870982,36.968483 L -82.867082,36.978247 L -82.862861,36.98019 L -82.856981,36.978848 L -82.853759,36.985152 L -82.844952,36.983825 L -82.837683,36.987049 L -82.830066,36.994625 L -82.82872,37.005798 L -82.822253,37.004158 L -82.815865,37.007356 L -82.803945,37.007254 L -82.79692,37.009026 L -82.793665,37.005471 L -82.788498,37.008672 L -82.782863,37.007821 L -82.777324,37.015887 L -82.771853,37.015707 L -82.766409,37.023084 L -82.758976,37.027453 L -82.747813,37.024538 L -82.742759,37.042796 L -82.733506,37.044521 L -82.72502,37.042419 L -82.722433,37.044949 L -82.722232,37.058032 L -82.726083,37.066877 L -82.726486,37.073411 L -82.718078,37.075918 L -82.718471,37.080945 L -82.722844,37.084801 L -82.722094,37.10509 L -82.726688,37.114794 L -82.721413,37.12083 L -82.715149,37.121848 L -82.692635,37.132967 L -82.682892,37.136951 L -82.676828,37.134888 L -82.668332,37.141405 L -82.655973,37.145674 L -82.65477,37.15031 L -82.648593,37.150332 L -82.640013,37.153645 L -82.633918,37.154179 L -82.623609,37.164438 L -82.612576,37.169727 L -82.606513,37.173989 L -82.597462,37.177045 L -82.59185,37.183256 L -82.57051,37.192788 L -82.550087,37.204602 L -82.545802,37.203145 L -82.541349,37.206618 L -82.533359,37.206567 L -82.531862,37.212433 L -82.526299,37.214596 L -82.522526,37.212539 L -82.510845,37.218332 L -82.50843,37.222625 L -82.498952,37.226924 L -82.491711,37.225 L -82.486471,37.231212 L -82.473049,37.235591 L -82.464668,37.235975 L -82.457244,37.238386 L -82.448205,37.244099 L -82.443329,37.243419 L -82.439515,37.247161 L -82.432908,37.246483 L -82.411919,37.253449 L -82.408511,37.253313 L -82.383473,37.260149 L -82.376771,37.259923 L -82.364781,37.264269 L -82.355689,37.265296 L -82.348726,37.268232 L -82.34907,37.271914 L -82.342066,37.274355 L -82.343825,37.28075 L -82.324725,37.283042 L -82.320185,37.286505 L -82.315623,37.295116 L -82.268331,37.328 L -82.21221,37.367534 L -82.123969,37.428049 L -82.062159,37.471544 L -82.050717,37.480578 L -82.022367,37.499978 L -81.968012,37.538035 L -81.96506,37.543411 L -81.970092,37.546724 L -81.976045,37.545827 L -81.981244,37.542245 L -81.989106,37.54278 L -81.996396,37.538299 L -82.001015,37.541696 L -82.005573,37.534922 L -82.011169,37.532881 L -82.016388,37.534393 L -82.018206,37.540146 L -82.029479,37.53779 L -82.036546,37.542133 L -82.038706,37.54724 L -82.044413,37.547332 L -82.044541,37.541589 L -82.04196,37.535864 L -82.043342,37.530218 L -82.056353,37.536804 L -82.064835,37.537196 L -82.06391,37.543125 L -82.072797,37.554152 L -82.07587532922344,37.55589698417962 L -82.08895524573857,37.55608222050021 L -82.100028,37.552804 L -82.10196,37.55842 L -82.117304,37.559226 L -82.122948,37.551718 L -82.133247,37.552832 L -82.135324,37.557351 L -82.134068,37.562367 L -82.143854,37.56609 L -82.141764,37.571086 L -82.128175,37.572407 L -82.12453954715451,37.576918146131504 L -82.126797,37.585185 L -82.13257462554493,37.593383327357564 L -82.141143,37.595044 L -82.148065,37.590779 L -82.156297,37.592365 L -82.1577,37.596979 L -82.157057,37.609383 L -82.168534,37.608692 L -82.169614,37.613027 L -82.16435,37.619257 L -82.16806,37.621823 L -82.176033,37.618275 L -82.180778,37.621079 L -82.181691,37.627147 L -82.173107,37.631593 L -82.172484,37.634076 L -82.177467,37.640077 L -82.17500585324731,37.64607649891165 L -82.177663,37.648786 L -82.185806,37.648595 L -82.190756,37.645137 L -82.187821,37.639415 L -82.185929,37.629556 L -82.191431,37.625695 L -82.20063847684949,37.62790179288759 L -82.204854,37.625235 L -82.214499,37.6254 L -82.220503,37.634769 L -82.216765,37.640502 L -82.223323,37.644143 L -82.226156,37.652913 L -82.232792,37.655338 L -82.240894,37.661531 L -82.251049,37.657093 L -82.258068,37.656883 L -82.270436,37.663133 L -82.284802,37.674536 L -82.288292,37.668129 L -82.293982,37.669861 L -82.294498,37.677426 L -82.302411,37.675592 L -82.304068,37.678307 L -82.295848,37.686544 L -82.302158,37.691657 L -82.301958,37.696804 L -82.296689,37.699859 L -82.299268,37.705232 L -82.307678,37.708006 L -82.311036,37.71765 L -82.31552,37.720625 L -82.319566,37.734238 L -82.326258,37.735897 L -82.33387,37.741725 L -82.327154,37.749566 L -82.321634,37.751272 L -82.319951,37.758558 L -82.310908,37.761674 L -82.312977,37.765131 L -82.320342,37.764796 L -82.32852,37.762118 L -82.333605,37.76715 L -82.323058,37.772678 L -82.32972,37.775697 L -82.337465,37.774914 L -82.340596,37.786028 L -82.34944,37.787233 L -82.355656,37.793535 L -82.364741,37.795866 L -82.369037,37.801259 L -82.376169,37.80203 L -82.380627,37.812065 L -82.385531,37.817499 L -82.389025,37.81741 L -82.397347,37.80856 L -82.402143,37.810891 L -82.39825157984858,37.82151792767864 L -82.399074,37.828715 L -82.408657,37.836069 L -82.412119,37.843891 L -82.420592,37.847855 L -82.4147804809661,37.855564229878006 L -82.424207,37.860528 L -82.421797,37.864063 L -82.409298,37.865638 L -82.408392,37.868429 L -82.417049,37.869728 L -82.419392,37.874614 L -82.420484,37.885446 L -82.432906,37.890734 L -82.438118,37.900213 L -82.447331,37.903857 L -82.451896,37.908551 L -82.460492,37.910041 L -82.462991,37.91482 L -82.467965,37.913927 L -82.468382,37.903207 L -82.470646,37.899787 L -82.476352,37.902439 L -82.475056,37.910859 L -82.479289,37.914701 L -82.48739,37.916678 L -82.487714,37.919992 L -82.480287,37.925618 L -82.485456,37.927038 L -82.495941,37.926954 L -82.502198,37.933052 L -82.49874,37.937053 L -82.492172,37.935739 L -82.489917,37.939231 L -82.496141,37.941398 L -82.49497,37.946775 L -82.488277,37.94519 L -82.48188,37.948407 L -82.474741,37.954895 L -82.47183,37.960291 L -82.484851,37.964056 L -82.48426,37.971383 L -82.481224,37.973072 L -82.468851,37.97323 L -82.464415,37.977831 L -82.466758,37.985329 L -82.473859,37.986486 L -82.482173,37.983695 L -82.484652,37.985001 L -82.486058,37.995647 L -82.488655,37.998912 L -82.497556,37.998777 L -82.508424,38.001507 L -82.512993,37.999264 L -82.518956,38.002153 L -82.519755,38.008375 L -82.525457,38.018329 L -82.525802,38.025898 L -82.531321,38.028945 L -82.537813,38.03578 L -82.537334,38.045191 L -82.544155,38.052592 L -82.545193,38.059765 L -82.5495,38.063234 L -82.54924,38.067952 L -82.553229,38.071471 L -82.558648,38.072253 L -82.564898,38.080113 L -82.575458,38.083201 L -82.583357,38.090032 L -82.585599,38.095422 L -82.585342,38.106634 L -82.592412,38.110416 L -82.599037,38.116916 L -82.60643184258065,38.120798155301024 L -82.618772,38.120388 L -82.620902,38.122787 L -82.622383,38.133735 L -82.634702,38.136941 L -82.6384,38.145577 L -82.638628,38.155915 L -82.644443,38.166561 L -82.637216,38.17139 L -82.61604834636407,38.1694004350858 L -82.611601,38.171339 L -82.602602,38.191661 L -82.59942,38.196577 L -82.598295,38.217361 L -82.607668,38.222518 L -82.610416,38.227466 L -82.612216,38.236297 L -82.608128,38.24483 L -82.603905,38.247639 L -82.594509,38.245503 L -82.58608284396307,38.24571325897674 L -82.581131,38.248967 L -82.574518,38.264505 L -82.57447779140809,38.27512849677873 L -82.57932,38.283613 L -82.579367,38.289775 L -82.582655,38.298365 L -82.571923,38.313347 L -82.572581,38.31896 L -82.57672,38.328515 L -82.584588,38.333733 L -82.589161,38.34026 L -82.595507,38.342489 L -82.598121,38.345933 L -82.597594,38.364912 L -82.592841,38.375063 L -82.594094,38.381399 L -82.598937,38.388194 L -82.599192,38.392707 L -82.59458467220851,38.39822721624739 L -82.596931,38.409613 L -82.595972,38.41788 L -82.59348,38.421821 L -82.599993,38.435499 L -82.604235,38.459966 L -82.611942,38.473067 L -82.618629,38.477214 L -82.635662,38.483659 L -82.653595,38.493843 L -82.66543852699066,38.505767245111464 L -82.676082,38.516125 L -82.68874822563616,38.535312460483766 L -82.69925066848369,38.54425451339982 L -82.710016,38.54899 L -82.727905,38.558871 L -82.7664052442994,38.56055686115868 L -82.780183,38.559183 L -82.795871,38.56181 L -82.809984,38.567573 L -82.821214,38.573393 L -82.841893,38.588333 L -82.847393,38.595328 L -82.85239,38.607074 L -82.85557,38.619292 L -82.856769,38.633371 L -82.856613,38.647646 L -82.860668,38.66357 L -82.866738,38.674334 L -82.875762,38.684169 L -82.87755,38.68984 L -82.876696,38.69808 L -82.86991232918325,38.727601672037224 L -82.872651,38.742293 L -82.87941299634765,38.75113639698498 L -82.886311,38.755254 L -82.896482,38.756395 L -82.907374,38.753296 L -82.92334395098568,38.75017878801719 L -82.940251,38.744392 L -82.96123,38.733802 L -82.971484,38.727529 L -82.985405,38.726365 L -83.00349,38.729827 L -83.01161031687826,38.72985602280743 L -83.02673,38.72749 L -83.033211,38.723385 L -83.042745,38.70762 L -83.053042,38.695788 L -83.06218,38.689669 L -83.084569,38.680801 L -83.100145,38.677905 L -83.107646,38.674986 L -83.118377,38.665514 L -83.122393,38.659362 L -83.125827,38.646522 L -83.134754,38.632013 L -83.143548,38.624421 L -83.153468,38.618902 L -83.178774,38.619188 L -83.201247,38.616602 L -83.214145,38.619216 L -83.224154,38.624379 L -83.234187,38.627947 L -83.245664,38.628564 L -83.255598,38.623149 L -83.260739,38.622835 L -83.26757535642255,38.61837769354829 L -83.270182,38.614083 L -83.288654,38.598048 L -83.29443,38.596621 L -83.305912,38.599746 L -83.3152,38.606473 L -83.319956,38.615269 L -83.322271,38.630377 L -83.327566,38.637675 L -83.340756,38.646022 L -83.362775,38.65722 L -83.372436,38.660616 L -83.384858,38.663111 L -83.418555,38.668116 L -83.445399,38.66999 L -83.455208,38.673111 L -83.467292,38.675238 L -83.471413,38.677499 L -83.486613,38.690275 L -83.496857,38.696137 L -83.505665,38.699773 L -83.520883,38.703062 L -83.533677,38.702181 L -83.555233,38.697368 L -83.568337,38.693185 L -83.59151755179005,38.688786329844994 L -83.601861,38.683981 L -83.614576,38.683839 L -83.62534378816545,38.6789377983237 L -83.632061,38.673903 L -83.637167,38.665361 L -83.638816,38.653689 L -83.644651,38.636889 L -83.648301,38.631861 L -83.66027,38.627242 L -83.668893,38.626562 L -83.68456,38.631321 L -83.70332536917574,38.63925284276847 L -83.713176,38.641651 L -83.720862,38.646674 L -83.744423,38.648607 L -83.763196,38.652241 L -83.770178,38.655857 L -83.775732,38.666713 L -83.779346,38.682713 L -83.78405048980517,38.69608987385839 L -83.791941,38.702244 L -83.80603025117321,38.70650310214279 L -83.822813,38.709915 L -83.835028,38.716468 L -83.840657,38.721976 L -83.846207,38.742257 L -83.852499,38.751839 L -83.858642,38.756523 L -83.872415,38.762255 L -83.887525,38.765772 L -83.928143,38.771973 L -83.930113,38.775338 L -83.941012,38.782117 L -83.950699,38.785715 L -83.962367,38.787521 L -83.978095,38.787363 L -83.98952,38.783537 L -84.006278,38.780194 L -84.025955,38.774349 L -84.044576,38.770557 L -84.051111,38.771465 L -84.070779,38.770414 L -84.091623,38.774236 L -84.109065,38.779413 L -84.11179680885654,38.781624140321654 L -84.136241,38.789924 L -84.156364,38.795053 L -84.190856,38.799739 L -84.205879,38.802685 L -84.213115,38.805835 L -84.224868,38.816846 L -84.23022,38.826561 L -84.233652,38.847425 L -84.231955,38.871861 L -84.233022,38.887632 L -84.236567,38.896125 L -84.242979,38.903065 L -84.257039,38.922649 L -84.260445,38.924715 L -84.269821,38.93635 L -84.278453,38.943615 L -84.286536,38.952542 L -84.295796,38.969209 L -84.300398,38.997105 L -84.306074,39.007753 L -84.313835,39.016588 L -84.31997988043457,39.02162491448058 L -84.329442,39.029019 L -84.340879,39.035012 L -84.361293,39.041631 L -84.385295,39.045201 L -84.389639,39.044526 L -84.400681,39.046465 L -84.411144,39.046603 L -84.424686,39.052239 L -84.430561,39.05874 L -84.43365258137021,39.07404769791501 L -84.433706,39.084099 L -84.43542196926063,39.08696122502031 L -84.433746,39.094574 L -84.43734,39.104482 L -84.443836,39.112818 L -84.452534,39.119239 L -84.458762,39.121385 L -84.471677,39.121466 L -84.482146,39.116432 L -84.489142,39.10992 L -84.494029,39.102839 L -84.502249,39.096932 L -84.51013,39.093938 L -84.525626,39.092478 L -84.537088,39.097747 L -84.546146,39.099977 L -84.553887,39.098285 L -84.56427703108209,39.087715958029705 L -84.576525,39.08109 L -84.596765,39.076696 L -84.600807,39.074508 L -84.618343,39.073304 L -84.63274920069131,39.07694696785045 L -84.64963,39.091038 L -84.658517,39.095812 L -84.666597,39.097952 L -84.680335,39.098781 L -84.689354,39.103192 L -84.711176,39.129502 L -84.717917,39.136349 L -84.727462,39.142727 L -84.742583,39.147437 L -84.753401,39.147114 L -84.75924,39.144267 L -84.770602,39.135099 L -84.784484,39.117719 L -84.794116,39.112875 L -84.810679,39.109204 L -84.820155,39.105419 L -84.832435,39.100489 L -84.844887,39.091685 L -84.849207,39.08689 L -84.862388,39.077084 L -84.872481,39.072258 L -84.889762,39.065662 L -84.897265,39.057479 L -84.896299,39.052441 L -84.886925,39.039096 L -84.872407,39.028288 L -84.857378,39.012508 L -84.849654,39.003072 L -84.846656,38.996741 L -84.838579,38.989902 L -84.833226,38.981049 L -84.829855,38.969391 L -84.835277,38.957805 L -84.849,38.948451 L -84.856263,38.940677 L -84.866647,38.933226 L -84.877934,38.920149 L -84.879309,38.916102 L -84.876169,38.907924 L -84.87030435594376,38.9006857129101 L -84.86055501443249,38.89770390284196 L -84.840292,38.897585 L -84.814553,38.895468 L -84.801884,38.891876 L -84.793159,38.887418 L -84.785483,38.880894 L -84.784535,38.875082 L -84.786161,38.868685 L -84.790436,38.861246 L -84.802534,38.851257 L -84.817675,38.843127 L -84.823645,38.838921 L -84.82996178070522,38.830296022892384 L -84.82667,38.818016 L -84.816489,38.805239 L -84.811599,38.79196 L -84.815681,38.784098 L -84.827547,38.783156 L -84.835537,38.784296 L -84.84644,38.787687 L -84.861989,38.791086 L -84.876831,38.792484 L -84.887742,38.794793 L -84.903435,38.790017 L -84.917628,38.78327 L -84.93402,38.777281 L -84.946832,38.775287 L -84.962514,38.778069 L -84.982728,38.779293 L -84.99488284918053,38.77721591065467 L -85.011703,38.766235 L -85.027843,38.758891 L -85.040366,38.755436 L -85.052446,38.748142 L -85.073036,38.74104 L -85.090114,38.731385 L -85.10139527361781,38.726494096492516 L -85.107085,38.721045 L -85.123642,38.710019 L -85.13199,38.702916 L -85.149755,38.694383 L -85.17339,38.687996 L -85.188871,38.687585 L -85.193163,38.689677 L -85.204771,38.6919 L -85.213053,38.695453 L -85.226418,38.705993 L -85.237359,38.721447 L -85.24629973248338,38.73154410873609 L -85.25882,38.737818 L -85.279126,38.74172 L -85.301987,38.741961 L -85.316894,38.739586 L -85.352603,38.731494 L -85.372657,38.730474 L -85.39734583051245,38.73550651400265 L -85.408365,38.737144 L -85.422626,38.734651 L -85.437108,38.727607 L -85.443183,38.718924 L -85.450329,38.711667 L -85.455927,38.696287 L -85.456913,38.688717 L -85.454661,38.680716 L -85.443419,38.668265 L -85.438629,38.65889 L -85.439597,38.630846 L -85.438354,38.606063 L -85.435901,38.598874 L -85.425296,38.582857 L -85.417555,38.569487 L -85.415022,38.556206 L -85.415555,38.544969 L -85.419532,38.53533 L -85.427473,38.527724 L -85.434234,38.523264 L -85.449853,38.517672 L -85.46711712444285,38.5100640531289 L -85.476083,38.501314 L -85.48163,38.48753 L -85.488889,38.477652 L -85.498094,38.468802 L -85.505707,38.464717 L -85.525263,38.457544 L -85.55195,38.453741 L -85.572296,38.452835 L -85.585518,38.450246 L -85.604228,38.440915 L -85.618751,38.425733 L -85.623051,38.414388 L -85.63209295223417,38.39769840148451 L -85.63780570566071,38.38023283977746 L -85.638634,38.363857 L -85.644523,38.346007 L -85.655517,38.323722 L -85.671064,38.30719 L -85.673762,38.302247 L -85.685208,38.294692 L -85.741595,38.267668 L -85.748646,38.267366 L -85.761488,38.272267 L -85.767157,38.27713 L -85.766176,38.280249 L -85.773074,38.285761 L -85.786904,38.288533 L -85.798801,38.285231 L -85.814546,38.28301 L -85.823698,38.280181 L -85.829065,38.276554 L -85.836771,38.263427 L -85.837132,38.252591 L -85.839097,38.239822 L -85.842852,38.233259 L -85.851674,38.222607 L -85.874834,38.20778 L -85.886224,38.197103 L -85.89522580704687,38.186407144264884 L -85.903584,38.173928 L -85.906966,38.165365 L -85.909096,38.142341 L -85.908088,38.129592 L -85.904694,38.108516 L -85.905052,38.089957 L -85.915142,38.067638 L -85.920652,38.032306 L -85.923428,38.025247 L -85.928365,38.018547 L -85.942699,38.006816 L -85.947104,38.005072 L -85.964506,38.002974 L -85.977415,38.003382 L -86.009467,37.99839 L -86.025894,37.994309 L -86.032249,37.99036 L -86.035348,37.981251 L -86.03352,37.970142 L -86.035056,37.962901 L -86.038906,37.95899 L -86.047088,37.959014 L -86.057997,37.967671 L -86.064484,37.975299 L -86.07042,37.984551 L -86.076779,37.997252 L -86.086771,38.005207 L -86.105688,38.012975 L -86.123507,38.016157 L -86.13959,38.015779 L -86.148929,38.014657 L -86.163186,38.010064 L -86.17893,38.01081 L -86.189324,38.01592 L -86.220242,38.027964 L -86.234319,38.040041 L -86.248988,38.045499 L -86.267805,38.057148 L -86.271478,38.061989 L -86.276125,38.074275 L -86.278554,38.086418 L -86.279116,38.100938 L -86.271513,38.124642 L -86.270256,38.13225 L -86.272847,38.140835 L -86.286921,38.15783 L -86.295085,38.163754 L -86.31883,38.173792 L -86.3296,38.181805 L -86.348553,38.195685 L -86.356153,38.198496 L -86.365831,38.197887 L -86.373033,38.194241 L -86.377256,38.188302 L -86.378493,38.180221 L -86.376511,38.169397 L -86.372331,38.164606 L -86.365342,38.161367 L -86.344573,38.159071 L -86.325874,38.154029 L -86.321133,38.146586 L -86.323889,38.138312 L -86.327578,38.133428 L -86.33615,38.128343 L -86.348239,38.127654 L -86.357522,38.129345 L -86.375083,38.130638 L -86.387293,38.124703 L -86.396463,38.106891 L -86.401879,38.104329 L -86.42387339064845,38.12137573425001 L -86.432738,38.126429 L -86.448991,38.127321 L -86.4557832087729,38.124997963009235 L -86.46468,38.117375 L -86.466352,38.113474 L -86.465503,38.104306 L -86.457786,38.095231 L -86.438429,38.088822 L -86.431551,38.083736 L -86.430575,38.075283 L -86.433923,38.065705 L -86.438379,38.060619 L -86.447898,38.053171 L -86.456793,38.049031 L -86.466998,38.046638 L -86.4826,38.045429 L -86.49824003153624,38.04585303340029 L -86.50882,38.045046 L -86.521712,38.039617 L -86.525138,38.028734 L -86.52433,38.018108 L -86.52602,38.004538 L -86.524937,37.966495 L -86.519316,37.95257 L -86.509318,37.942297 L -86.506694,37.930736 L -86.510246,37.92666 L -86.519477,37.922131 L -86.533331,37.91725 L -86.541991,37.917034 L -86.566673,37.922236 L -86.586481,37.922267 L -86.595747,37.914821 L -86.600173,37.9044 L -86.598098,37.884738 L -86.599304,37.874767 L -86.597857,37.867728 L -86.605017,37.857951 L -86.626212,37.846769 L -86.638279,37.84269 L -86.651961,37.841601 L -86.658104,37.84409 L -86.661787,37.850241 L -86.662481,37.857084 L -86.658181,37.869964 L -86.648541,37.886311 L -86.644719,37.894991 L -86.644008,37.902397 L -86.645647,37.907035 L -86.650426,37.910861 L -86.67387223447595,37.91497295833565 L -86.680788,37.915035 L -86.696665,37.906129 L -86.711076,37.8967 L -86.722386,37.8927 L -86.733403,37.895373 L -86.752269,37.914817 L -86.778039,37.952001 L -86.780646,37.960941 L -86.787168,37.968801 L -86.790439,37.979801 L -86.795045,37.989279 L -86.81471122626395,37.99871639538465 L -86.824926,37.998543 L -86.832764,37.994685 L -86.854446,37.988052 L -86.860914,37.984368 L -86.876368,37.970472 L -86.885814,37.963619 L -86.890503,37.95739 L -86.901983,37.946448 L -86.920658,37.936214 L -86.94674,37.933327 L -86.967986,37.933009 L -86.97618,37.931112 L -86.999998,37.923556 L -87.012373,37.918708 L -87.032978,37.907058 L -87.040668,37.900422 L -87.045261,37.894109 L -87.04626570745647,37.88934268061549 L -87.043051,37.877956 L -87.043131,37.868857 L -87.049233,37.853995 L -87.056664,37.827531 L -87.060261,37.821173 L -87.063249,37.811481 L -87.069675,37.801513 L -87.077535,37.794971 L -87.091518,37.78676 L -87.105986,37.783062 L -87.116216,37.782428 L -87.128813,37.785581 L -87.133941,37.792718 L -87.1355,37.80251 L -87.141115,37.815518 L -87.154689,37.834186 L -87.161096,37.839359 L -87.170457,37.842207 L -87.175836,37.841017 L -87.204836,37.844629 L -87.220466,37.849065 L -87.236911,37.858487 L -87.256779,37.868588 L -87.267977,37.877434 L -87.279797,37.885246 L -87.299292,37.896436 L -87.30292593214256,37.89777518154796 L -87.321013,37.905969 L -87.33791,37.908131 L -87.361701,37.920997 L -87.37098,37.928844 L -87.371688,37.931189 L -87.386179,37.937804 L -87.405809,37.943342 L -87.414134,37.944772 L -87.437984,37.944183 L -87.449131,37.941854 L -87.465018,37.933766 L -87.480767,37.923581 L -87.497631,37.910699 L -87.506538,37.906677 L -87.51130926720273,37.90643504054709 L -87.521999,37.913308 L -87.531767,37.916303 L -87.548498,37.92388 L -87.556045,37.928168 L -87.564664,37.935834 L -87.572792,37.948477 L -87.575141,37.955489 L -87.575046,37.965909 L -87.577809,37.970198 L -87.587408,37.975276 L -87.594844,37.975109 L -87.601391,37.971306 L -87.605813,37.949611 L -87.617404,37.93827 L -87.620868,37.931425 L -87.624597,37.930278 L -87.627317,37.920402 L -87.621971,37.909666 L -87.618153,37.905522 L -87.602351,37.896202 L -87.587141,37.884858 L -87.58411806044069,37.87902246313303 L -87.583925,37.872485 L -87.588036,37.868984 L -87.590267,37.85859 L -87.597841,37.847652 L -87.60691803912547,37.83843697883836 L -87.61494498049923,37.83212561896166 L -87.627275,37.828671 L -87.640711,37.82644 L -87.653838,37.826087 L -87.670344,37.827962 L -87.679411,37.836525 L -87.682127,37.847305 L -87.681684,37.856273 L -87.666714,37.880038 L -87.664033,37.887477 L -87.66684,37.895763 L -87.673928,37.901159 L -87.684488,37.903649 L -87.695908,37.898858 L -87.713412,37.893284 L -87.723967,37.892358 L -87.738125,37.894698 L -87.759239,37.891662 L -87.770609,37.886597 L -87.783447,37.877785 L -87.794177,37.875356 L -87.807541,37.875234 L -87.829246,37.876414 L -87.838425,37.879907 L -87.846443,37.887992 L -87.846489,37.893534 L -87.857878,37.901776 L -87.861831,37.909843 L -87.867206,37.916203 L -87.87513,37.922865 L -87.882802,37.926198 L -87.896892,37.927859 L -87.903864,37.925537 L -87.908586,37.921691 L -87.933505,37.896208 L -87.94006,37.887599 L -87.940977,37.879473 L -87.937986,37.870287 L -87.925924,37.857304 L -87.915703,37.850365 L -87.909967,37.843028 L -87.903647,37.816785 L -87.906939,37.807593 L -87.913666,37.80397 L -87.931522,37.798276 L -87.935413,37.790337 L -87.94588355411302,37.77375720897121 L -87.953673,37.771766 L -87.959065,37.772803 L -87.96961,37.781205 L -87.972985,37.785378 L -88.00134,37.798907 L -88.014685,37.801916 L -88.02802002297258,37.799197311646985 L -88.036316,37.791157 L -88.041622,37.769324 L -88.049183,37.755073 L -88.059333,37.742967 L -88.069638,37.733716 L -88.083299,37.729341 L -88.094116,37.724175 L -88.100751,37.718613 L -88.120002,37.711334 L -88.124993,37.707223 L -88.132093,37.697482 L -88.133954,37.692296 L -88.145138,37.682994 L -88.150547,37.676753 L -88.157937,37.665094 L -88.159986,37.659715 L -88.158591,37.642214 L -88.157068,37.633275 L -88.152563,37.622611 L -88.142028,37.603609 L -88.14239,37.592977 L -88.140783,37.585217 L -88.134535,37.574943 L -88.123179,37.569509 L -88.10574,37.556594 L -88.091622,37.538442 L -88.087584,37.535022 L -88.077703,37.532002 L -88.069011,37.525399 L -88.062827,37.514861 L -88.061815,37.499134 L -88.06543,37.48876 L -88.073348,37.485422 L -88.074256,37.481614 L -88.080892,37.473911 L -88.085457,37.471564 L -88.091578,37.473405 L -88.12378,37.471788 L -88.134088,37.471837 L -88.159982,37.466595 L -88.17212152112536,37.46570697251824 L -88.196539,37.460703 L -88.209044,37.460172 L -88.227457,37.457142 L -88.255078,37.456758 L -88.281631,37.452729 L -88.299719,37.446305 L -88.31211728674437,37.4409040036317 L -88.318122,37.435859 L -88.330138,37.429874 L -88.343697,37.416651 L -88.346601,37.412637 L -88.36439,37.401754 L -88.373361,37.404106 L -88.377147,37.409644 L -88.39377,37.419817 L -88.409229,37.425315 L -88.421591,37.421342 L -88.43476,37.418398 L -88.454542,37.409848 L -88.467079,37.399839 L -88.474645,37.390783 L -88.482547,37.363731 L -88.482678,37.353903 L -88.484683,37.345234 L -88.492412,37.330072 L -88.498447,37.321236 L -88.505168,37.307667 L -88.511029,37.299296 L -88.514538,37.291373 L -88.515903,37.284091 L -88.509811,37.275033 L -88.506875,37.265313 L -88.506973,37.259688 L -88.500303,37.253244 L -88.491871,37.248051 L -88.484808,37.240664 L -88.47815,37.227024 L -88.471287,37.219613 L -88.457559,37.212642 L -88.448038,37.203642 L -88.439291,37.18153 L -88.43799,37.180355 L -88.43207205250779,37.16126618868996 L -88.425368,37.154159 L -88.424756,37.150732 L -88.434664,37.126651 L -88.442984,37.111918 L -88.440626,37.1086 L -88.445804,37.09943 L -88.444767,37.095256 L -88.44938,37.087608 L -88.458517,37.076098 L -88.462796,37.073262 L -88.48218,37.067368 L -88.489406,37.068456 L -88.502972,37.06564 L -88.516686,37.065384 L -88.528983,37.066826 L -88.552596,37.072593 L -88.560839,37.076512 L -88.572863,37.079656 L -88.574516,37.084844 L -88.583792,37.092 L -88.59007682955256,37.09989080061937 L -88.600384,37.106826 L -88.61658262373109,37.115838864626305 L -88.627321,37.120031 L -88.639263,37.121489 L -88.657629,37.127596 L -88.681238,37.137339 L -88.692608,37.141105 L -88.704174,37.142863 L -88.719172,37.140737 L -88.726969,37.14211 L -88.737905,37.146497 L -88.745642,37.151525 L -88.761394,37.15956 L -88.784836,37.175571 L -88.786641,37.178179 L -88.79988,37.186471 L -88.83509,37.196493 L -88.860303,37.206543 L -88.877188,37.212261 L -88.891731,37.216172 L -88.91618,37.223991 L -88.931513,37.227427 L -88.934405,37.224789 L -88.94186,37.224305 L -88.965733,37.226271 L -88.968271,37.229479 L -88.97995,37.229119 L -89.0009,37.224405 L -89.013154,37.216478 L -89.029866,37.211065 L -89.036743,37.204647 L -89.040808,37.203114 L -89.056529,37.18973 L -89.071141,37.178924 L -89.087296,37.164664 L -89.092755,37.156763 L -89.099011,37.140406 L -89.1095,37.123093 L -89.12585,37.108476 L -89.142852,37.099019 L -89.14746,37.098906 L -89.151487,37.090554 L -89.155655,37.087729 L -89.167355,37.075041 L -89.173825,37.066308 L -89.177857,37.057796 L -89.182467,37.039164 L -89.18084510895805,37.026004849786986 L -89.178083,37.019346 L -89.170173,37.007067 L -89.160322,36.999158 L -89.143969,36.987966 L -89.132915,36.982057 Z M -89.539232,36.497934 L -89.485427,36.497491 L -89.474986,36.509735 L -89.470526,36.51721 L -89.466646,36.527041 L -89.46539,36.534451 L -89.46782,36.546974 L -89.472861,36.55884 L -89.48052811142063,36.569466010382385 L -89.488106,36.572925 L -89.503568,36.575951 L -89.518509,36.577854 L -89.530638,36.58171 L -89.542616,36.580703 L -89.551119,36.578074 L -89.557574,36.574297 L -89.565328,36.567259 L -89.57076488112081,36.557359452640725 L -89.570763,36.548823 L -89.565619,36.535154 L -89.560412,36.524406 L -89.539232,36.497934 Z" fill="none" stroke=currentColor stroke-width="1" vector-effect="non-scaling-stroke"/>
</svg>