<svg viewBox="-94.5659833 -33.542253300000006 6.271599599999988 5.136277600000003" xmlns="http://www.w3.org/2000/svg">
  <path d="M -89.52814392729061,30.188924934062555 L -89.533737,30.195039 L -89.538635,30.19589 L -89.549034,30.191705 L -89.554626,30.185911 L -89.567207,30.180917 L -89.571907,30.180721 L -89.580696,30.186332 L -89.585693,30.192241 L -89.588386,30.199552 L -89.596572,30.211965 L -89.601165,30.216268 L -89.610542,30.218271 L -89.616828,30.225772 L -89.613945,30.241674 L -89.615341,30.246973 L -89.626754,30.251871 L -89.631614,30.257013 L -89.630485,30.262182 L -89.625892,30.265913 L -89.632316,30.268604 L -89.631294,30.279769 L -89.637527,30.285083 L -89.643371,30.287719 L -89.646965,30.29181 L -89.640434,30.295503 L -89.641647,30.303825 L -89.639816,30.30731 L -89.631599,30.309379 L -89.626502,30.313903 L -89.629714,30.31752 L -89.632698,30.32796 L -89.630622,30.337491 L -89.636512,30.34727 L -89.645622,30.348903 L -89.646026,30.352043 L -89.65142,30.356012 L -89.657287,30.357183 L -89.661003,30.363994 L -89.658493,30.367347 L -89.660087,30.372943 L -89.664581,30.374883 L -89.669265,30.381248 L -89.673789,30.392858 L -89.683708,30.405586 L -89.68441,30.411912 L -89.678581,30.4136 L -89.681167,30.424764 L -89.680313,30.433374 L -89.685005,30.440078 L -89.683631,30.451787 L -89.689514,30.453018 L -89.690035,30.459333 L -89.701911,30.465223 L -89.705426,30.472121 L -89.710838,30.478385 L -89.71585,30.477855 L -89.721828,30.483836 L -89.721405,30.488883 L -89.724627,30.491938 L -89.733113,30.492448 L -89.737996,30.495881 L -89.742298,30.494544 L -89.747375,30.501455 L -89.752807,30.502962 L -89.760307,30.515556 L -89.767486,30.513036 L -89.771514,30.525829 L -89.769966,30.529907 L -89.777351,30.533384 L -89.774047,30.537403 L -89.779159,30.544029 L -89.78968,30.544656 L -89.799693,30.547065 L -89.791519,30.550876 L -89.794774,30.556845 L -89.80326,30.558002 L -89.803413,30.56208 L -89.796714,30.561519 L -89.790908,30.563053 L -89.78749,30.566696 L -89.788551,30.570379 L -89.80127,30.569134 L -89.806205,30.567377 L -89.809509,30.578077 L -89.813224,30.581901 L -89.811943,30.591308 L -89.818771,30.59288 L -89.819633,30.6018 L -89.822013,30.607109 L -89.822235,30.615396 L -89.824562,30.618432 L -89.820068,30.632808 L -89.814094,30.636425 L -89.815788,30.639215 L -89.822952,30.639078 L -89.824707,30.649026 L -89.830314,30.650766 L -89.833702,30.657695 L -89.841072,30.652431 L -89.840476,30.659877 L -89.850387,30.660575 L -89.84233,30.666015 L -89.847267,30.670908 L -89.841678,30.67667 L -89.841556,30.682243 L -89.845444,30.687293 L -89.844172,30.691504 L -89.836797,30.690573 L -89.838033,30.696302 L -89.835938,30.699902 L -89.838065,30.704036 L -89.843605,30.702511 L -89.846392,30.706852 L -89.840111,30.711818 L -89.842525,30.719942 L -89.831439,30.715396 L -89.831438,30.72188 L -89.825758,30.727045 L -89.829645,30.7299 L -89.832421,30.737106 L -89.822039,30.736686 L -89.825163,30.741263 L -89.825774,30.747305 L -89.830233,30.751357 L -89.826121,30.759014 L -89.829873,30.760946 L -89.831537,30.76761 L -89.827459,30.773467 L -89.830418,30.779842 L -89.824384,30.77962 L -89.819024,30.784371 L -89.82135,30.791888 L -89.815675,30.795687 L -89.808065,30.791636 L -89.809544,30.800197 L -89.804065,30.803247 L -89.803734,30.807807 L -89.797809,30.813196 L -89.798654,30.820855 L -89.791745,30.820387 L -89.785894,30.815962 L -89.781502,30.818945 L -89.787493,30.824193 L -89.783985,30.827385 L -89.784092,30.832889 L -89.790432,30.830985 L -89.790121,30.837983 L -89.787827,30.845282 L -89.780228,30.846235 L -89.784416,30.853744 L -89.778755,30.8558 L -89.771722,30.854677 L -89.772582,30.85964 L -89.767789,30.865577 L -89.778005,30.873411 L -89.779216,30.87658 L -89.773555,30.886369 L -89.771798,30.892258 L -89.77329635871837,30.897696366809907 L -89.770269,30.89939 L -89.760701,30.896306 L -89.756671,30.901069 L -89.764202,30.911906 L -89.759403,30.915134 L -89.750073,30.91293 L -89.744789,30.918933 L -89.745161,30.922416 L -89.750741,30.923246 L -89.753087,30.926592 L -89.749333,30.934957 L -89.755241,30.938937 L -89.755948,30.944119 L -89.750074,30.952293 L -89.743301,30.955669 L -89.743134,30.959993 L -89.735686,30.966573 L -89.728041,30.966518 L -89.729282,30.971772 L -89.736086,30.974446 L -89.730964,30.9789 L -89.730621,30.986509 L -89.727924,30.992188 L -89.734818,30.996504 L -89.728119,31.0023 L -89.731673,31.004817 L -89.737331,31.002619 L -89.752642,31.001853 L -89.858803,31.002043 L -89.89746,31.001914 L -89.923119,31.001446 L -89.98209,31.00161 L -90.09747,31.001112 L -90.16480933042482,31.00097954632759 L -90.210877,31.000654 L -90.259525,31.000678 L -90.437555,30.99999 L -90.448935,30.999613 L -90.515872,30.999868 L -90.547616,30.99972 L -90.62339,30.999399 L -90.649564,30.999494 L -90.7335,30.999218 L -90.770379,30.999474 L -90.870308,30.999311 L -90.884215,30.999638 L -91.004452,30.998909 L -91.122154,30.998908 L -91.176139,30.999183 L -91.209352,30.999076 L -91.246513,30.999475 L -91.287885,30.999094 L -91.33592,30.999192 L -91.430768,30.998962 L -91.49739,30.999006 L -91.500116,30.998691 L -91.538661,30.999388 L -91.60818,30.99903 L -91.636942,30.999416 L -91.625118,31.005374 L -91.60649,31.011216 L -91.590463,31.01727 L -91.578413,31.02403 L -91.571695,31.029782 L -91.564397,31.038965 L -91.561232,31.046225 L -91.559907,31.054119 L -91.56415,31.06683 L -91.577373,31.078179 L -91.594693,31.091444 L -91.613208,31.103521 L -91.625199,31.115963 L -91.628066,31.125717 L -91.624217,31.133729 L -91.599732,31.159592 L -91.589046,31.178586 L -91.590051,31.193693 L -91.595029,31.201969 L -91.607622,31.213399 L -91.625119,31.226071 L -91.644356,31.234414 L -91.652019,31.242691 L -91.654907,31.250175 L -91.654027,31.255753 L -91.648669,31.262238 L -91.641253,31.266917 L -91.621358,31.267811 L -91.587749,31.262563 L -91.574493,31.261289 L -91.558684,31.262176 L -91.547594,31.264446 L -91.533739,31.268753 L -91.518578,31.275283 L -91.515614,31.27821 L -91.508858,31.291644 L -91.507977,31.312943 L -91.50866,31.315131 L -91.523011,31.326524 L -91.533206,31.333225 L -91.534014,31.337268 L -91.548213,31.346084 L -91.547211,31.351427 L -91.550868,31.360576 L -91.550028,31.375058 L -91.546384,31.382763 L -91.55568,31.386413 L -91.560524,31.384559 L -91.568953,31.377629 L -91.573931,31.390886 L -91.578334,31.399067 L -91.576265,31.410498 L -91.570092,31.419487 L -91.565179,31.423447 L -91.548465,31.432668 L -91.541,31.431098 L -91.537137,31.424161 L -91.539458,31.414021 L -91.5358,31.403737 L -91.532336,31.390275 L -91.525386,31.378904 L -91.518034,31.371712 L -91.504756,31.36498 L -91.478848,31.364946 L -91.472542,31.371069 L -91.470983,31.376244 L -91.472652,31.384804 L -91.472067,31.397076 L -91.477652,31.397904 L -91.48002,31.404204 L -91.499812,31.4201 L -91.513366,31.444396 L -91.516999,31.460574 L -91.518148,31.483483 L -91.51714,31.498394 L -91.514981,31.501903 L -91.514917,31.510113 L -91.520526,31.513161 L -91.522536,31.522078 L -91.515919,31.530729 L -91.511013,31.532607 L -91.499918,31.532466 L -91.490118,31.534266 L -91.480918,31.530466 L -91.475917,31.531266 L -91.443916,31.542466 L -91.435816,31.547366 L -91.414915,31.562166 L -91.40781167422526,31.569572651549485 L -91.405415,31.576466 L -91.403915,31.589766 L -91.413015,31.595365 L -91.422716,31.597065 L -91.436316,31.594965 L -91.455317,31.588166 L -91.462017,31.586666 L -91.479418,31.585466 L -91.486518,31.586566 L -91.502783,31.595727 L -91.51301,31.606885 L -91.517233,31.61346 L -91.516659,31.627332 L -91.512336,31.634722 L -91.497665,31.645371 L -91.492748,31.644279 L -91.482218,31.631065 L -91.475718,31.626165 L -91.4649706011889,31.620883284592114 L -91.436216,31.612465 L -91.423016,31.611265 L -91.416498,31.613133 L -91.405415,31.619165 L -91.400815,31.620465 L -91.398315,31.626265 L -91.395715,31.644165 L -91.397815,31.659465 L -91.400115,31.687264 L -91.400115,31.696764 L -91.397115,31.711364 L -91.387115,31.723064 L -91.380915,31.732464 L -91.369375,31.746903 L -91.351929,31.749956 L -91.320913,31.750064 L -91.306912,31.748664 L -91.29438,31.74523 L -91.27956131682163,31.74476222262119 L -91.267411,31.750464 L -91.260011,31.758663 L -91.260011,31.762763 L -91.263719,31.767669 L -91.270411,31.770763 L -91.28742,31.771964 L -91.30442,31.765964 L -91.313658,31.764825 L -91.328813,31.760763 L -91.348114,31.758163 L -91.357514,31.758263 L -91.365614,31.760763 L -91.363514,31.783363 L -91.360514,31.795762 L -91.354114,31.813762 L -91.348114,31.832761 L -91.345714,31.842861 L -91.338414,31.851261 L -91.327914,31.854761 L -91.311013,31.855961 L -91.294713,31.86046 L -91.289312,31.846861 L -91.290135,31.833658 L -91.287812,31.824161 L -91.283212,31.815762 L -91.271712,31.809762 L -91.262011,31.809362 L -91.254311,31.813662 L -91.246618,31.823428 L -91.245624,31.833165 L -91.250111,31.836061 L -91.266612,31.851161 L -91.269012,31.858661 L -91.265812,31.86486 L -91.248144,31.869848 L -91.233903,31.877607 L -91.226951,31.885105 L -91.20511,31.904159 L -91.20101,31.909159 L -91.19261,31.910159 L -91.191046,31.914039 L -91.182277,31.915814 L -91.18041,31.918559 L -91.18491,31.923759 L -91.18371,31.933158 L -91.19111,31.934158 L -91.19291,31.937258 L -91.18951,31.946358 L -91.18811,31.961358 L -91.17811,31.972557 L -91.16441,31.982557 L -91.117409,31.987057 L -91.106908,31.989357 L -91.096108,31.994857 L -91.090105,32.000157 L -91.075908,32.016827 L -91.0798,32.018252 L -91.084408,32.031456 L -91.093408,32.036855 L -91.111509,32.040554 L -91.14511,32.046554 L -91.15631,32.052655 L -91.16201,32.061855 L -91.16131,32.068654 L -91.15741,32.074154 L -91.14861,32.080154 L -91.139309,32.081753 L -91.128609,32.076554 L -91.124109,32.071854 L -91.114309,32.058255 L -91.105908,32.051654 L -91.098708,32.048355 L -91.082308,32.047555 L -91.079308,32.049455 L -91.081508,32.074954 L -91.080008,32.079154 L -91.038607,32.098253 L -91.034707,32.101053 L -91.030507,32.108153 L -91.030891,32.120558 L -91.020006,32.123553 L -91.011106,32.132153 L -91.005006,32.142851 L -91.002906,32.162052 L -91.016606,32.160852 L -91.024907,32.162551 L -91.041807,32.174551 L -91.058307,32.180951 L -91.058907,32.17125 L -91.055707,32.163752 L -91.049707,32.157352 L -91.048507,32.150152 L -91.051207,32.144152 L -91.052754,32.125777 L -91.061555,32.126907 L -91.069081,32.131478 L -91.08163,32.133992 L -91.091656,32.133604 L -91.101181,32.131135 L -91.11099,32.124644 L -91.113866,32.125731 L -91.131403,32.126213 L -91.1444,32.13039 L -91.162822,32.132694 L -91.165452,32.13429 L -91.17273,32.146479 L -91.174577,32.157311 L -91.171046,32.176526 L -91.16488,32.195743 L -91.158026,32.201956 L -91.133587,32.213431 L -91.124677,32.21154 L -91.11727,32.206668 L -91.108509,32.20815 L -91.100409,32.21785 L -91.092108,32.22385 L -91.083708,32.22645 L -91.071108,32.22605 L -91.061408,32.21865 L -91.053107,32.22795 L -91.050307,32.237949 L -91.046507,32.241149 L -91.034302,32.241548 L -91.021537,32.236156 L -91.012606,32.22835 L -91.002906,32.22305 L -91.005006,32.21285 L -91.003206,32.19805 L -90.999697,32.191103 L -90.994944,32.193141 L -90.983381,32.211767 L -90.98255,32.220923 L -90.983135,32.231371 L -90.98029,32.243601 L -90.969515,32.252053 L -90.971344,32.257742 L -90.980678,32.266353 L -90.982985,32.270294 L -90.984077,32.279953 L -90.980747,32.29141 L -90.976199,32.29645 L -90.971643,32.297497 L -90.963079,32.296284 L -90.954893,32.285771 L -90.947834,32.283486 L -90.93451852379118,32.29006499085838 L -90.916157,32.303582 L -90.905724,32.314819 L -90.90124,32.323386 L -90.900722,32.330379 L -90.885771,32.3508 L -90.877289,32.366945 L -90.875621,32.373526 L -90.878604,32.374636 L -90.88854616379476,32.37334664783682 L -90.891598,32.371451 L -90.89481,32.360019 L -90.900957,32.349876 L -90.912363,32.339454 L -90.93076,32.344254 L -90.942981,32.345956 L -90.954583,32.345858 L -90.986672,32.35176 L -91.000106,32.357695 L -91.004706,32.367244 L -91.000606,32.381644 L -90.996237,32.388061 L -90.99378,32.396777 L -90.99408,32.403861 L -90.975342,32.410951 L -90.965987,32.420654 L -90.966441,32.433874 L -90.969587,32.439492 L -90.977212,32.446005 L -90.984124,32.449063 L -90.993863,32.450851 L -90.998974,32.450165 L -91.003706,32.44634 L -91.016506,32.440342 L -91.027406,32.433942 L -91.031906,32.433742 L -91.049307,32.437342 L -91.067807,32.444141 L -91.081807,32.45044 L -91.093508,32.457441 L -91.103108,32.46604 L -91.111508,32.47534 L -91.115708,32.48234 L -91.117308,32.495039 L -91.116708,32.500138 L -91.106985,32.514933 L -91.101304,32.525599 L -91.097949,32.537214 L -91.097878,32.544751 L -91.093742,32.549127 L -91.074844,32.533489 L -91.053904,32.503669 L -91.049307,32.498539 L -91.038106,32.49044 L -91.024106,32.485239 L -91.007106,32.48234 L -91.000106,32.48229 L -90.990089,32.488561 L -90.987579,32.492387 L -90.987669,32.498481 L -90.994867,32.508611 L -91.007075,32.516371 L -91.018469,32.521019 L -91.045539,32.529169 L -91.057706,32.533777 L -91.0754,32.546743 L -91.080411,32.556468 L -91.069354,32.563052 L -91.045337,32.575626 L -91.03617,32.579555 L -91.030991,32.583347 L -91.025423,32.590401 L -91.013723,32.598419 L -91.008245,32.604239 L -91.003545,32.612271 L -91.0035,32.624845 L -91.00682,32.631261 L -91.014286,32.640482 L -91.025769,32.646572 L -91.031761,32.640315 L -91.037182,32.637861 L -91.040042,32.633555 L -91.043263,32.620787 L -91.048903,32.613554 L -91.049802,32.607185 L -91.061352,32.605373 L -91.079507,32.600676 L -91.087784,32.59707 L -91.107235,32.590255 L -91.114141,32.590344 L -91.11746,32.586039 L -91.125108,32.585186 L -91.13528,32.591651 L -91.142782,32.598899 L -91.146204,32.604143 L -91.151318,32.615918 L -91.153556,32.626181 L -91.152699,32.640757 L -91.142038,32.649265 L -91.138712,32.649774 L -91.130928,32.65887 L -91.126201,32.667135 L -91.118258,32.674075 L -91.098762,32.685291 L -91.081145,32.691127 L -91.076061,32.693751 L -91.063946,32.702925 L -91.057043,32.712576 L -91.054481,32.722259 L -91.060766,32.727494 L -91.090573,32.7361 L -91.110111,32.739271 L -91.125107,32.743195 L -91.1495,32.741931 L -91.15861,32.743449 L -91.163389,32.747009 L -91.165814,32.757841 L -91.164397,32.763491 L -91.155476,32.779909 L -91.164397,32.785821 L -91.16087,32.80307 L -91.161669,32.812465 L -91.157781,32.823255 L -91.152174,32.826673 L -91.143559,32.844738 L -91.127886,32.855058 L -91.116091,32.855641 L -91.105631,32.858396 L -91.089024,32.871433 L -91.070602,32.888658 L -91.068186,32.891928 L -91.06380106198321,32.90387760347595 L -91.064804,32.926464 L -91.072075,32.937832 L -91.080431,32.943206 L -91.083084,32.947909 L -91.078904,32.951818 L -91.080355,32.962794 L -91.086802,32.976266 L -91.09693,32.986412 L -91.106581,32.988937 L -91.115951,32.987346 L -91.127894,32.983646 L -91.135095,32.980108 L -91.137524,32.969549 L -91.130721,32.962257 L -91.136628,32.957349 L -91.137863,32.952756 L -91.133113,32.93784 L -91.131304,32.926918 L -91.13528,32.916026 L -91.145076,32.905493 L -91.15169,32.901935 L -91.163877,32.899476 L -91.170235,32.899391 L -91.181631,32.901446 L -91.196785,32.906784 L -91.207046,32.914091 L -91.212837,32.922103 L -91.214027,32.93032 L -91.21282,32.936076 L -91.20744,32.944392 L -91.198825,32.951828 L -91.202056,32.960324 L -91.188317,32.974899 L -91.173308,32.986088 L -91.168973,32.992131 L -91.165892,33.004298 L -91.235826,33.004987 L -91.279262,33.005122 L -91.362839,33.005952 L -91.394044,33.005882 L -91.460375,33.006189 L -91.512107,33.006794 L -91.591657,33.00658 L -91.716514,33.007298 L -91.768682,33.007138 L -91.875128,33.007728 L -91.915352,33.007655 L -92.044963,33.007751 L -92.06893,33.00799 L -92.136531,33.008553 L -92.169078,33.009019 L -92.221365,33.009317 L -92.305377,33.010315 L -92.449627,33.01169 L -92.469978,33.012064 L -92.581862,33.012942 L -92.598678,33.013453 L -92.627159,33.013416 L -92.692075,33.014209 L -92.7797,33.014876 L -92.852908,33.016108 L -92.936751,33.016745 L -93.000017,33.017617 L -93.017234,33.017316 L -93.051698,33.017802 L -93.179751,33.017789 L -93.215756,33.018446 L -93.250028,33.017844 L -93.318621,33.018281 L -93.392917,33.0183 L -93.467098,33.018697 L -93.506092,33.01854 L -93.559501,33.018763 L -93.64026917517513,33.01935193750299 L -93.705037,33.019516 L -93.772944,33.019274 L -93.926873,33.01962 L -94.000219,33.019566 L -94.04297750315034,33.019261736966754 L -94.043127,32.937721 L -94.042956,32.864033 L -94.04319,32.797117 L -94.04311,32.635229 L -94.042837,32.57537 L -94.04335,32.522378 L -94.042931,32.492856 L -94.042946,32.340572 L -94.042649,32.263022 L -94.042833,32.25016 L -94.042567,32.185042 L -94.042751,32.125163 L -94.04235201036376,32.12010431255887 L -94.042719,32.086236 L -94.04272,31.999271 L -94.039099,31.992286 L -94.028622,31.996246 L -94.022893,31.99045 L -94.018765,31.989118 L -94.016515,31.981174 L -94.007858,31.974569 L -94.00019,31.960585 L -93.994501,31.952648 L -93.989706,31.948783 L -93.987878,31.944315 L -93.982321,31.939764 L -93.976523,31.925 L -93.970826,31.919968 L -93.962948,31.924156 L -93.959768,31.923226 L -93.953546,31.910563 L -93.937537,31.909222 L -93.929903,31.912719 L -93.922109,31.905324 L -93.932135,31.893672 L -93.920711,31.889731 L -93.914999,31.892948 L -93.910399,31.892022 L -93.898464,31.894099 L -93.896458,31.886286 L -93.902069,31.879104 L -93.893438,31.871731 L -93.881678,31.868581 L -93.881894,31.864835 L -93.889193,31.856819 L -93.882878,31.854672 L -93.884117,31.847606 L -93.878997,31.845145 L -93.872988,31.836696 L -93.874836,31.822314 L -93.867319,31.815316 L -93.861384,31.812297 L -93.85339,31.805467 L -93.851481,31.80015 L -93.846188,31.802021 L -93.839343,31.80033 L -93.835613,31.794489 L -93.837696,31.787858 L -93.832821,31.781316 L -93.822598,31.773559 L -93.829821,31.760619 L -93.831622,31.754592 L -93.836884,31.750171 L -93.831698,31.745514 L -93.824579,31.734397 L -93.815483,31.729771 L -93.81276,31.714415 L -93.816918,31.708765 L -93.812206,31.707582 L -93.807047,31.702813 L -93.797407,31.705615 L -93.794548,31.702076 L -93.806879,31.681571 L -93.810975,31.679846 L -93.817425,31.672146 L -93.823169,31.672893 L -93.826462,31.666919 L -93.825661,31.661022 L -93.818427,31.651479 L -93.816369,31.639258 L -93.819992,31.630626 L -93.816892,31.622401 L -93.825956,31.619535 L -93.833103,31.609038 L -93.838057,31.606795 L -93.839416,31.5992 L -93.834918,31.586212 L -93.830363,31.579355 L -93.82715,31.578477 L -93.818434,31.570943 L -93.82221,31.568834 L -93.820764,31.558221 L -93.813973,31.550556 L -93.803337,31.543622 L -93.803359,31.538787 L -93.798828,31.534817 L -93.790298,31.530773 L -93.785028,31.525962 L -93.760062,31.523933 L -93.7547,31.529865 L -93.743403,31.52726 L -93.740529,31.518142 L -93.737376,31.513864 L -93.71249,31.513361 L -93.711402,31.510652 L -93.719708,31.50584 L -93.724081,31.496401 L -93.722596,31.492769 L -93.731346,31.487274 L -93.741894,31.483537 L -93.748492,31.485117 L -93.745401,31.47812 L -93.748474,31.474808 L -93.749476,31.46869 L -93.741864,31.465872 L -93.731513,31.457474 L -93.721931,31.453447 L -93.715619,31.457054 L -93.709128,31.456746 L -93.703771,31.453831 L -93.709416,31.442995 L -93.708203,31.441557 L -93.693272,31.440078 L -93.692631,31.437192 L -93.704678,31.4189 L -93.704879,31.410881 L -93.695866,31.409392 L -93.690326,31.406591 L -93.682097,31.398332 L -93.674117,31.397681 L -93.670182,31.387184 L -93.668987,31.372654 L -93.673322,31.368682 L -93.667273,31.365413 L -93.658343,31.366845 L -93.647211,31.371109 L -93.639257,31.371535 L -93.644124,31.365528 L -93.647638,31.358097 L -93.668439,31.353012 L -93.669671,31.337975 L -93.676973,31.329612 L -93.673838,31.323855 L -93.683478,31.318109 L -93.687511,31.310813 L -93.68622,31.30399 L -93.683561,31.301507 L -93.67544,31.30104 L -93.669811,31.29869 L -93.659285,31.282106 L -93.648648,31.28423 L -93.644235,31.276612 L -93.643926,31.27123 L -93.639694,31.269163 L -93.620829,31.271299 L -93.619924,31.265178 L -93.613942,31.259375 L -93.614288,31.251631 L -93.621757,31.249127 L -93.616522,31.24487 L -93.616205,31.237548 L -93.618255,31.233105 L -93.610705,31.232152 L -93.607035,31.227922 L -93.598391,31.231097 L -93.599353,31.224949 L -93.595678,31.219798 L -93.603139,31.217056 L -93.603379,31.211343 L -93.607011,31.204272 L -93.601986,31.19991 L -93.602315,31.181742 L -93.600308,31.176158 L -93.589119,31.165889 L -93.57718,31.168571 L -93.569563,31.177574 L -93.560846,31.18251 L -93.550582,31.186437 L -93.542367,31.183193 L -93.53428,31.185425 L -93.531318,31.179806 L -93.532807,31.174265 L -93.542309,31.17164 L -93.536481,31.158471 L -93.540164,31.156054 L -93.5487,31.155839 L -93.548515,31.148229 L -93.544735,31.136066 L -93.53787,31.12657 L -93.539366,31.115207 L -93.545935,31.111197 L -93.550341,31.099651 L -93.562415,31.097529 L -93.563269,31.093592 L -93.551436,31.085735 L -93.552205,31.078931 L -93.54013,31.07794 L -93.532627,31.074552 L -93.527645,31.07451 L -93.528732,31.069214 L -93.520126,31.065816 L -93.518912,31.061863 L -93.521145,31.057275 L -93.532215,31.055236 L -93.527743,31.048317 L -93.519961,31.045168 L -93.519941,31.041876 L -93.524739,31.039007 L -93.508292,31.032352 L -93.50896,31.029017 L -93.522314,31.020098 L -93.53343,31.018971 L -93.539184,31.008212 L -93.54576,31.010033 L -93.551466,31.009237 L -93.555927,31.003744 L -93.562664,31.008907 L -93.565631,31.013156 L -93.571465,31.009599 L -93.574588,31.002363 L -93.578207,30.999995 L -93.572216,30.99121 L -93.56543,30.990579 L -93.566858,30.979403 L -93.574332,30.973708 L -93.568511,30.969139 L -93.558861,30.970861 L -93.547314,30.964755 L -93.546327,30.957802 L -93.539274,30.95652 L -93.531758,30.958217 L -93.532367,30.948977 L -93.529814,30.942172 L -93.526013,30.937535 L -93.527471,30.928035 L -93.531234,30.924388 L -93.544116,30.921214 L -93.549283,30.924372 L -93.552085,30.918119 L -93.558375,30.913537 L -93.553026,30.9081 L -93.553995,30.902773 L -93.549202,30.897439 L -93.566316,30.894839 L -93.57408,30.884529 L -93.570604,30.875193 L -93.563233,30.874867 L -93.564651,30.870113 L -93.558502,30.867905 L -93.561911,30.858332 L -93.557314,30.852081 L -93.56797,30.843026 L -93.558024,30.840075 L -93.553626,30.83514 L -93.55732,30.828419 L -93.554057,30.824941 L -93.564579,30.816402 L -93.560707,30.809639 L -93.56298,30.806009 L -93.574677,30.801373 L -93.582229,30.803117 L -93.584205,30.798084 L -93.581388,30.791627 L -93.583693,30.787762 L -93.589381,30.786676 L -93.58445,30.781164 L -93.590049,30.777662 L -93.593505,30.772275 L -93.592101,30.763675 L -93.600501,30.762012 L -93.609178,30.75726 L -93.614777,30.756064 L -93.608364,30.748127 L -93.609946,30.744649 L -93.61913,30.741997 L -93.61282,30.736707 L -93.609134,30.730039 L -93.608875,30.719117 L -93.613038,30.716664 L -93.619655,30.708939 L -93.624384,30.698643 L -93.620442,30.694142 L -93.627228,30.687412 L -93.631345,30.677872 L -93.63964,30.672505 L -93.645306,30.673481 L -93.646847,30.668727 L -93.654972,30.670185 L -93.661251,30.661203 L -93.665753,30.661581 L -93.670358,30.658007 L -93.670536,30.652626 L -93.6831,30.640763 L -93.680415,30.634877 L -93.684715,30.63081 L -93.685121,30.625201 L -93.681983,30.618584 L -93.689072,30.610836 L -93.683372,30.608249 L -93.678767,30.598629 L -93.678662,30.594097 L -93.685066,30.592086 L -93.693976,30.594217 L -93.703297,30.588773 L -93.713782,30.587584 L -93.714032,30.580284 L -93.717911,30.577767 L -93.721493,30.580553 L -93.727474,30.574724 L -93.727818,30.565919 L -93.7243,30.562015 L -93.725403,30.557104 L -93.731423,30.552861 L -93.729179,30.544851 L -93.738788,30.540975 L -93.738053,30.537309 L -93.732209,30.535805 L -93.733821,30.531735 L -93.72668,30.525211 L -93.721385,30.524567 L -93.718693,30.520851 L -93.711022,30.517275 L -93.707653,30.511066 L -93.709726,30.506511 L -93.715145,30.501268 L -93.716602,30.494424 L -93.70955,30.485093 L -93.712853,30.479032 L -93.710303,30.47394 L -93.711061,30.468749 L -93.70603179987451,30.466376642153573 L -93.699426,30.459512 L -93.706339,30.458141 L -93.706936,30.455341 L -93.702103,30.449759 L -93.70744,30.445933 L -93.704633,30.443118 L -93.699332,30.4452 L -93.698135,30.43888 L -93.708255,30.430252 L -93.711254,30.433149 L -93.716472,30.428442 L -93.722953,30.432097 L -93.726106,30.43072 L -93.727724,30.415158 L -93.733917,30.414935 L -93.734892,30.408339 L -93.745971,30.396478 L -93.751016,30.396484 L -93.757409,30.390813 L -93.75844,30.383692 L -93.755576,30.380214 L -93.755356,30.368956 L -93.757264,30.364282 L -93.756064,30.356558 L -93.75787,30.350527 L -93.765297,30.342448 L -93.762382,30.339153 L -93.764252,30.330229 L -93.755584,30.331505 L -93.756198,30.326555 L -93.748305,30.319153 L -93.745648,30.311744 L -93.739643,30.303507 L -93.734228,30.298813 L -93.72625,30.298179 L -93.722808,30.29491 L -93.70933,30.29221 L -93.704578,30.289721 L -93.704917,30.28083 L -93.708005,30.271818 L -93.708717,30.265081 L -93.703544,30.259321 L -93.709081,30.246017 L -93.706993,30.243736 L -93.703218,30.239759 L -93.713075,30.22991 L -93.711154,30.222976 L -93.71332,30.218602 L -93.718463,30.219998 L -93.720689,30.215481 L -93.717119,30.212626 L -93.720931,30.208461 L -93.715003,30.204488 L -93.717927,30.200539 L -93.706044,30.193978 L -93.70983,30.191005 L -93.710541,30.179729 L -93.707356,30.179449 L -93.703,30.171695 L -93.701667,30.165622 L -93.706996,30.157465 L -93.706157,30.151517 L -93.697737,30.152946 L -93.693303,30.141899 L -93.688834,30.139945 L -93.692849,30.135213 L -93.701255,30.137378 L -93.700692,30.125105 L -93.70426,30.110657 L -93.712997,30.107857 L -93.714597,30.101825 L -93.724101,30.09301 L -93.723077,30.084546 L -93.727418,30.082871 L -93.72591,30.078469 L -93.715462,30.068917 L -93.703105,30.066261 L -93.699421,30.060323 L -93.7041005575042,30.05423566475548 L -93.711074,30.054391 L -93.713772,30.065687 L -93.719453,30.063808 L -93.721298,30.052349 L -93.73671,30.038387 L -93.739158,30.032627 L -93.739734,30.023987 L -93.744544,30.019281 L -93.755014,30.015363 L -93.768391,30.001812 L -93.771575,29.995924 L -93.783175,29.99322 L -93.790087,29.986564 L -93.796151,29.972037 L -93.806551,29.957445 L -93.810375,29.947349 L -93.817286,29.918422 L -93.830374,29.894358 L -93.842918,29.877285 L -93.859896,29.859921 L -93.872446,29.85165 L -93.886215,29.845719 L -93.903576,29.835 L -93.91636,29.824968 L -93.922744,29.818808 L -93.927992,29.80964 L -93.928808,29.79708 L -93.926504,29.78956 L -93.922407,29.785048 L -93.89847,29.771577 L -93.892246,29.765241 L -93.890789,29.760873 L -93.893829,29.753033 L -93.892805,29.747129 L -93.888821,29.742234 L -93.873941,29.73777 L -93.87002,29.735482 L -93.863204,29.724059 L -93.839084,29.692085 L -93.81429,29.708321 L -93.78003,29.72323 L -93.765707,29.728228 L -93.73968,29.735817 L -93.711209,29.741576 L -93.682043,29.746445 L -93.635304,29.752806 L -93.590892,29.757072 L -93.570095,29.760167 L -93.510319,29.767388 L -93.49285,29.768729 L -93.471569,29.769272 L -93.438973,29.768949 L -93.416436,29.768214 L -93.390528,29.766666 L -93.366285,29.764087 L -93.346439,29.762643 L -93.320175,29.767801 L -93.301399,29.772134 L -93.283446,29.775296 L -93.250645,29.777867 L -93.235442,29.777644 L -93.213441,29.775622 L -93.17693,29.770487 L -93.133359,29.760683 L -93.07798,29.747683 L -93.064907,29.74562 L -93.031157,29.736333 L -93.011786,29.730038 L -93.008047,29.724451 L -92.993128,29.723846 L -92.981838,29.721472 L -92.966032,29.716312 L -92.935134,29.704235 L -92.879992,29.680285 L -92.851233,29.668101 L -92.836972,29.663041 L -92.799419,29.646517 L -92.794428,29.644864 L -92.778028,29.636704 L -92.772442,29.635052 L -92.762697,29.634535 L -92.757825,29.630197 L -92.741306,29.622139 L -92.726095,29.616767 L -92.704109,29.610568 L -92.693651,29.608295 L -92.676539,29.601165 L -92.651701,29.593829 L -92.641956,29.592589 L -92.636133,29.596515 L -92.625794,29.593622 L -92.622704,29.587008 L -92.609513,29.584941 L -92.599649,29.582358 L -92.568038,29.577397 L -92.575525,29.581634 L -92.573861,29.585665 L -92.565304,29.589385 L -92.556273,29.580084 L -92.557461,29.576053 L -92.546092,29.574024 L -92.536902,29.573779 L -92.531435,29.570989 L -92.498467,29.566294 L -92.467737,29.562616 L -92.459418,29.560032 L -92.430065,29.553726 L -92.416992,29.548764 L -92.397503,29.545249 L -92.380746,29.542974 L -92.345213,29.535426 L -92.323465,29.531497 L -92.303857,29.534186 L -92.28401,29.534289 L -92.264877,29.537494 L -92.255489,29.540183 L -92.21259,29.562479 L -92.200202,29.568551 L -92.170075,29.57986 L -92.145391,29.58647 L -92.10272,29.588321 L -92.077434,29.584357 L -92.065998,29.586326 L -92.057287,29.584501 L -92.045619,29.585101 L -92.043732,29.591334 L -92.049302,29.592016 L -92.054295,29.589705 L -92.060731,29.593216 L -92.066603,29.592029 L -92.070455,29.595172 L -92.070693,29.600029 L -92.058809,29.609431 L -92.042766,29.616973 L -92.034803,29.61842 L -92.013769,29.61532 L -92.02696,29.624412 L -92.031119,29.631126 L -92.039913,29.630817 L -92.047519,29.623585 L -92.058872,29.62235 L -92.069388,29.619795 L -92.084136,29.622876 L -92.095055,29.6178 L -92.099718,29.619916 L -92.100403,29.611601 L -92.105751,29.611808 L -92.112049,29.618317 L -92.116989,29.628828 L -92.121675,29.633399 L -92.126429,29.643108 L -92.126191,29.653436 L -92.128687,29.653643 L -92.136293,29.662628 L -92.135461,29.671095 L -92.103179,29.69313 L -92.103867,29.699145 L -92.110267,29.700003 L -92.119179,29.69844 L -92.137124,29.699487 L -92.145681,29.695771 L -92.150553,29.695564 L -92.164458,29.700829 L -92.169092,29.70021 L -92.178124,29.707435 L -92.185658,29.716885 L -92.200076,29.72571 L -92.204831,29.734488 L -92.208904,29.745929 L -92.203312,29.753402 L -92.196533,29.751913 L -92.189574,29.747505 L -92.183472,29.74562 L -92.176385,29.741181 L -92.171106,29.739782 L -92.166273,29.741294 L -92.16664,29.746108 L -92.173538,29.748266 L -92.175755,29.752172 L -92.17494,29.759475 L -92.171289,29.762531 L -92.164116,29.762956 L -92.158084,29.758739 L -92.157327,29.752945 L -92.151222,29.754154 L -92.146869,29.757588 L -92.149771,29.763048 L -92.142368,29.767759 L -92.131899,29.765837 L -92.123577,29.753461 L -92.126072,29.744691 L -92.130945,29.736952 L -92.13933,29.729779 L -92.149758,29.726025 L -92.152097,29.721418 L -92.149604,29.71681 L -92.144431,29.716418 L -92.137443,29.722628 L -92.115852,29.739532 L -92.083646,29.759135 L -92.056398,29.772313 L -92.035666,29.781662 L -92.020284,29.78548 L -92.001053,29.793381 L -91.989525,29.794412 L -91.98287,29.796166 L -91.977512,29.803345 L -91.985624,29.81968 L -91.97947,29.828853 L -91.968015,29.835141 L -91.961717,29.825965 L -91.948288,29.822975 L -91.937507,29.816765 L -91.931175,29.822254 L -91.917627,29.821223 L -91.91525,29.819367 L -91.90689,29.83094 L -91.901043,29.833447 L -91.889118,29.836023 L -91.881975,29.83545 L -91.862485,29.826481 L -91.859514,29.826068 L -91.845502,29.829244 L -91.841269,29.828351 L -91.830808,29.82927 L -91.830843,29.821795 L -91.824576,29.812768 L -91.822946,29.800414 L -91.823471,29.792781 L -91.826018,29.782399 L -91.828803,29.777929 L -91.836448,29.775475 L -91.845967,29.77987 L -91.851671,29.791834 L -91.854761,29.779457 L -91.868573,29.767017 L -91.868903,29.761508 L -91.879242,29.756556 L -91.877459,29.747993 L -91.860228,29.745929 L -91.855355,29.740976 L -91.854404,29.734682 L -91.856306,29.730141 L -91.862961,29.724465 L -91.878331,29.716087 L -91.88075,29.710839 L -91.870448,29.713525 L -91.86617,29.710325 L -91.860703,29.710016 L -91.858326,29.706093 L -91.85179,29.708261 L -91.836103,29.716725 L -91.833726,29.720337 L -91.809008,29.73107 L -91.792251,29.737365 L -91.786666,29.74046 L -91.77288,29.74562 L -91.752915,29.74985 L -91.737109,29.750263 L -91.718073,29.738128 L -91.713823,29.737137 L -91.697417,29.74273 L -91.672936,29.746239 L -91.662597,29.746651 L -91.648455,29.74562 L -91.627896,29.741079 L -91.621512,29.735429 L -91.616843,29.719718 L -91.617913,29.706403 L -91.621716,29.700519 L -91.622072,29.687512 L -91.624925,29.683178 L -91.623023,29.670992 L -91.629559,29.654882 L -91.635858,29.647859 L -91.637046,29.641352 L -91.643891,29.639009 L -91.647504,29.635465 L -91.640968,29.631953 L -91.636096,29.632263 L -91.626113,29.62875 L -91.596047,29.634742 L -91.585232,29.638564 L -91.578102,29.639597 L -91.558761,29.637561 L -91.554571,29.635775 L -91.550303,29.624641 L -91.545222,29.606166 L -91.542175,29.597839 L -91.538885,29.594242 L -91.535557,29.584838 L -91.538281,29.574575 L -91.537445,29.565888 L -91.529217,29.558598 L -91.525523,29.551904 L -91.52584,29.545946 L -91.534963,29.532221 L -91.533656,29.528188 L -91.517274,29.52974 L -91.496136,29.538931 L -91.465613,29.545181 L -91.449002,29.545857 L -91.434254,29.543426 L -91.427269,29.539779 L -91.42525,29.529919 L -91.4282,29.524381 L -91.424474,29.518572 L -91.414694,29.513709 L -91.398394,29.512628 L -91.389234,29.513438 L -91.387372,29.520058 L -91.378368,29.519788 L -91.371382,29.514654 L -91.366283,29.512811 L -91.356323,29.51506 L -91.352132,29.513844 L -91.344091,29.50284 L -91.343689,29.498285 L -91.349419,29.496105 L -91.339574,29.490497 L -91.321008,29.489928 L -91.31543,29.486584 L -91.31293,29.481525 L -91.2935,29.477801 L -91.281022,29.482612 L -91.266404,29.476094 L -91.258204,29.456384 L -91.256524,29.445005 L -91.248624,29.444363 L -91.233082,29.436574 L -91.221166,29.436421 L -91.217448,29.432549 L -91.211999,29.420931 L -91.218463,29.407235 L -91.219579,29.397117 L -91.206388,29.394736 L -91.200087,29.38955 L -91.198251,29.37578 L -91.19284,29.371126 L -91.17953,29.367397 L -91.177391,29.363669 L -91.169785,29.363358 L -91.160991,29.361079 L -91.149701,29.353518 L -91.153148,29.350955 L -91.150533,29.344921 L -91.138531,29.343159 L -91.133064,29.341088 L -91.12629,29.333421 L -91.125577,29.325962 L -91.127241,29.322335 L -91.120942,29.316118 L -91.118922,29.30617 L -91.120229,29.30047 L -91.124928,29.295576 L -91.125696,29.290728 L -91.132113,29.285753 L -91.132945,29.281399 L -91.128084,29.273518 L -91.121536,29.271241 L -91.117734,29.258282 L -91.121655,29.251439 L -91.129261,29.247913 L -91.144829,29.25175 L -91.148275,29.241795 L -91.156951,29.243455 L -91.165032,29.241277 L -91.170261,29.23547 L -91.172519,29.237959 L -91.165507,29.253823 L -91.162536,29.255897 L -91.168597,29.265124 L -91.176559,29.271137 L -91.171806,29.273521 L -91.1724,29.279637 L -91.168003,29.288241 L -91.170855,29.294667 L -91.168835,29.308864 L -91.162061,29.318191 L -91.167052,29.324925 L -91.171687,29.325133 L -91.177985,29.320988 L -91.188562,29.310419 L -91.192246,29.310004 L -91.199258,29.305134 L -91.203655,29.314253 L -91.208884,29.313942 L -91.214945,29.319227 L -91.216608,29.324718 L -91.224571,29.328448 L -91.225521,29.336529 L -91.240376,29.355901 L -91.238475,29.361494 L -91.241208,29.369779 L -91.2511,29.367326 L -91.253924,29.36429 L -91.265452,29.360976 L -91.269373,29.356729 L -91.272463,29.346992 L -91.276276,29.34236 L -91.275078,29.332178 L -91.279149,29.32678 L -91.289814,29.319952 L -91.28965,29.314542 L -91.295743,29.309524 L -91.306451,29.308346 L -91.315127,29.304616 L -91.318929,29.306377 L -91.326524,29.306069 L -91.334141,29.307621 L -91.335567,29.302958 L -91.314651,29.282643 L -91.302648,29.267716 L -91.288324,29.255743 L -91.268461,29.246608 L -91.215182,29.226966 L -91.20413,29.225099 L -91.179411,29.222817 L -91.170974,29.223855 L -91.155762,29.223025 L -91.136867,29.217942 L -91.129855,29.220743 L -91.112623,29.209956 L -91.108965,29.205583 L -91.101215,29.200413 L -91.094916,29.192424 L -91.087905,29.190661 L -91.079111,29.191906 L -91.071386,29.189104 L -91.064731,29.184124 L -91.057838,29.186199 L -91.052015,29.193047 L -91.046073,29.206844 L -91.038349,29.210371 L -91.031931,29.201554 L -91.027059,29.201139 L -91.027059,29.187859 L -91.017552,29.181842 L -91.010778,29.181531 L -91.010778,29.175824 L -91.000439,29.173022 L -90.990931,29.175616 L -90.983207,29.173956 L -90.968827,29.179974 L -90.9613492155302,29.1848811538382 L -90.952427,29.183294 L -90.949337,29.176654 L -90.944109,29.175097 L -90.937691,29.170428 L -90.939355,29.16607 L -90.931699,29.159065 L -90.916538,29.148219 L -90.90703,29.143549 L -90.899187,29.142822 L -90.900732,29.135867 L -90.890155,29.130262 L -90.888848,29.122372 L -90.881123,29.1177 L -90.869121,29.118323 L -90.874944,29.111056 L -90.874944,29.10711 L -90.867813,29.106279 L -90.869834,29.098803 L -90.866744,29.097142 L -90.860921,29.100465 L -90.85997,29.094961 L -90.853723,29.083716 L -90.851528,29.074295 L -90.843693,29.069269 L -90.836107,29.066063 L -90.826272,29.066282 L -90.82077,29.067739 L -90.814769,29.065189 L -90.805933,29.06446 L -90.803683,29.067666 L -90.802214,29.093819 L -90.794133,29.094857 L -90.787953,29.107629 L -90.773692,29.107525 L -90.763472,29.118012 L -90.751113,29.119154 L -90.744814,29.117597 L -90.735782,29.134622 L -90.729959,29.138047 L -90.723185,29.135971 L -90.71142,29.116351 L -90.706666,29.121438 L -90.694307,29.125071 L -90.689197,29.140435 L -90.681354,29.156003 L -90.685038,29.165551 L -90.675887,29.17406 L -90.649504,29.171777 L -90.647484,29.179974 L -90.64487,29.182776 L -90.643206,29.192736 L -90.6438,29.197197 L -90.635719,29.213897 L -90.611832,29.214831 L -90.606128,29.224373 L -90.615992,29.236403 L -90.595789,29.239929 L -90.574635,29.229351 L -90.561801,29.234951 L -90.567148,29.238373 L -90.579508,29.241484 L -90.585093,29.241277 L -90.592699,29.245943 L -90.589728,29.253305 L -90.587945,29.271344 L -90.600067,29.288551 L -90.597571,29.303268 L -90.590489,29.305258 L -90.582954,29.312181 L -90.577012,29.313217 L -90.566198,29.30389 L -90.554314,29.285235 L -90.55063,29.286582 L -90.54647,29.293837 L -90.536963,29.296014 L -90.53221,29.303165 L -90.523178,29.304201 L -90.513314,29.302025 L -90.505233,29.305134 L -90.493111,29.294252 L -90.479088,29.292179 L -90.474097,29.297258 L -90.466491,29.30047 L -90.466016,29.30845 L -90.455796,29.314564 L -90.451636,29.321506 L -90.45128,29.326583 L -90.455201,29.32907 L -90.460311,29.337462 L -90.455201,29.343263 L -90.447358,29.347614 L -90.440227,29.349375 L -90.429294,29.345749 L -90.430126,29.341606 L -90.424897,29.329173 L -90.406239,29.313631 L -90.397564,29.310004 L -90.397683,29.306481 L -90.392929,29.296636 L -90.398515,29.285338 L -90.397207,29.281503 L -90.398871,29.274869 L -90.395187,29.257141 L -90.402555,29.251542 L -90.400535,29.241173 L -90.403981,29.238685 L -90.401367,29.234122 L -90.3959,29.241588 L -90.390552,29.243247 L -90.386393,29.258489 L -90.380689,29.257245 L -90.372608,29.264813 L -90.374153,29.268027 L -90.372013,29.274662 L -90.377837,29.275076 L -90.37855,29.283784 L -90.376648,29.293319 L -90.362744,29.298916 L -90.354069,29.305445 L -90.343611,29.29819 L -90.344324,29.289277 L -90.337788,29.286582 L -90.331727,29.279326 L -90.326973,29.287515 L -90.322695,29.284302 L -90.322101,29.273003 L -90.316515,29.273003 L -90.313069,29.268753 L -90.307602,29.270722 L -90.303799,29.262947 L -90.301066,29.260977 L -90.297738,29.253616 L -90.295956,29.245736 L -90.29037,29.24024 L -90.286621,29.225694 L -90.280744,29.222403 L -90.276704,29.210786 L -90.270286,29.205599 L -90.272832,29.199032 L -90.259234,29.199583 L -90.263869,29.191076 L -90.260542,29.185162 L -90.267197,29.177691 L -90.273852,29.175305 L -90.275634,29.170117 L -90.263275,29.172918 L -90.258165,29.171466 L -90.258759,29.165551 L -90.270881,29.159428 L -90.26993,29.155484 L -90.25864,29.155899 L -90.251034,29.151125 L -90.24735,29.147078 L -90.253887,29.143652 L -90.263631,29.142095 L -90.26901,29.139242 L -90.248629,29.13837 L -90.243435,29.136311 L -90.240814,29.130573 L -90.234405,29.128824 L -90.233446,29.121023 L -90.234235,29.110268 L -90.238319,29.108564 L -90.246519,29.110121 L -90.250044,29.108067 L -90.24533,29.101918 L -90.248063,29.096623 L -90.245924,29.093403 L -90.24022,29.092884 L -90.222869,29.087069 L -90.192689,29.099852 L -90.18665,29.102994 L -90.179849,29.108979 L -90.17058,29.115209 L -90.116627,29.148012 L -90.095592,29.162853 L -90.066357,29.180389 L -90.047854,29.18958 L -90.047553,29.193946 L -90.055163,29.205124 L -90.05517,29.2083 L -90.070531,29.208215 L -90.073813,29.211416 L -90.075033,29.219706 L -90.082638,29.229144 L -90.099514,29.239307 L -90.099989,29.246669 L -90.10605,29.25372 L -90.10807,29.265021 L -90.103138,29.273625 L -90.096008,29.275076 L -90.089828,29.284405 L -90.07533,29.296014 L -90.05691,29.294874 L -90.04764,29.285546 L -90.032428,29.281607 L -90.02411,29.283473 L -90.018643,29.286789 L -90.012939,29.294459 L -90.016266,29.30047 L -90.034805,29.303579 L -90.037657,29.309175 L -90.036352,29.31438 L -90.038608,29.322853 L -90.03837,29.332592 L -90.031815,29.344251 L -90.017514,29.350825 L -90.014424,29.350514 L -90.007413,29.343159 L -90.003491,29.343885 L -89.996123,29.341191 L -89.982694,29.341295 L -89.97699,29.353207 L -89.98614,29.357661 L -89.997549,29.370504 L -90.004917,29.370194 L -90.008601,29.366983 L -90.01585,29.354036 L -90.023694,29.354761 L -90.027853,29.358801 L -90.03843,29.356833 L -90.041995,29.360665 L -90.042827,29.368019 L -90.03736,29.372679 L -90.030764,29.375008 L -90.015553,29.376097 L -90.008898,29.379203 L -90.006046,29.387073 L -90.000579,29.392251 L -90.003194,29.399291 L -90.002481,29.403433 L -89.987269,29.405503 L -89.985843,29.412129 L -89.980377,29.418961 L -89.975623,29.427656 L -89.970394,29.431796 L -89.981422,29.438089 L -89.983942,29.443388 L -89.991548,29.446079 L -89.991785,29.450632 L -89.980614,29.458289 L -89.96873,29.463256 L -89.963977,29.463049 L -89.957797,29.457048 L -89.944725,29.45891 L -89.934267,29.439662 L -89.919293,29.448355 L -89.905686,29.446958 L -89.905329,29.439714 L -89.89095,29.445095 L -89.886196,29.440231 L -89.883819,29.434643 L -89.875857,29.436713 L -89.873956,29.444992 L -89.86433,29.45503 L -89.863022,29.470344 L -89.85197,29.475734 L -89.836402,29.474906 L -89.826301,29.469216 L -89.823211,29.465077 L -89.815962,29.460318 L -89.829628,29.453178 L -89.835333,29.452246 L -89.841393,29.435791 L -89.843553,29.421677 L -89.826049,29.415589 L -89.822243,29.4095 L -89.817625,29.405979 L -89.814654,29.400078 L -89.790886,29.410845 L -89.780191,29.40277 L -89.769733,29.398007 L -89.76801,29.389362 L -89.726654,29.389776 L -89.716433,29.388119 L -89.694804,29.392468 L -89.66961,29.39019 L -89.644892,29.389983 L -89.651689,29.395574 L -89.65283,29.400171 L -89.650548,29.410359 L -89.642135,29.40601 L -89.637286,29.397231 L -89.621361,29.393711 L -89.608764,29.387498 L -89.595454,29.356015 L -89.623263,29.346278 L -89.628251,29.356207 L -89.639663,29.373 L -89.646793,29.376314 L -89.668422,29.364715 L -89.688625,29.358915 L -89.725937,29.357964 L -89.759691,29.350214 L -89.769198,29.336332 L -89.790589,29.328251 L -89.800572,29.34317 L -89.801523,29.353321 L -89.816081,29.357309 L -89.82535,29.35503 L -89.827846,29.345086 L -89.835095,29.342289 L -89.836996,29.336591 L -89.833907,29.331515 L -89.836164,29.325402 L -89.844067,29.322553 L -89.842641,29.318823 L -89.820299,29.316543 L -89.814595,29.314471 L -89.782149,29.311132 L -89.726162,29.304026 L -89.697258,29.296679 L -89.671781,29.289028 L -89.639663,29.290531 L -89.633262,29.279439 L -89.62659,29.27602 L -89.623976,29.269178 L -89.613756,29.268141 L -89.604962,29.260677 L -89.605974,29.25365 L -89.5366,29.236212 L -89.482844,29.215053 L -89.47231,29.20755 L -89.455531,29.191714 L -89.446904,29.181645 L -89.42738,29.144453 L -89.417718,29.13869 L -89.399648,29.123677 L -89.390515,29.123576 L -89.359617,29.127521 L -89.350585,29.129598 L -89.346366,29.135359 L -89.331868,29.148645 L -89.329728,29.162552 L -89.325688,29.177079 L -89.32854,29.190567 L -89.318557,29.201564 L -89.307624,29.203224 L -89.295027,29.198867 L -89.276488,29.173551 L -89.281479,29.159853 L -89.277914,29.146361 L -89.278627,29.137642 L -89.29574,29.133698 L -89.296216,29.126431 L -89.30192,29.120618 L -89.312378,29.117503 L -89.311189,29.111481 L -89.303821,29.108366 L -89.302633,29.097775 L -89.304059,29.088637 L -89.312853,29.087391 L -89.313091,29.082198 L -89.310001,29.070981 L -89.319746,29.057477 L -89.329728,29.056023 L -89.343038,29.057685 L -89.343751,29.052906 L -89.340899,29.045841 L -89.351892,29.043504 L -89.350585,29.034257 L -89.351535,29.029373 L -89.358785,29.019501 L -89.362112,29.012123 L -89.368173,29.00755 L -89.370347,29.000538 L -89.38077,28.989152 L -89.388019,28.985514 L -89.393011,28.987073 L -89.393367,28.976469 L -89.399622,28.971763 L -89.402993,28.955674 L -89.406199,28.950741 L -89.410718,28.949851 L -89.41155,28.945172 L -89.41889,28.933334 L -89.417901,28.928609 L -89.405172,28.93164 L -89.378083,28.956458 L -89.36437,28.964721 L -89.363776,28.971999 L -89.33371,29.003808 L -89.315289,29.017734 L -89.293066,29.041322 L -89.283215,29.053325 L -89.259354,29.058358 L -89.25364,29.064954 L -89.254964,29.075947 L -89.251727,29.083172 L -89.241225,29.084473 L -89.221489,29.064574 L -89.217514,29.055675 L -89.215583,29.045582 L -89.222,29.02823 L -89.218673,29.022515 L -89.182308,29.007446 L -89.158183,28.996428 L -89.15431,28.992732 L -89.153667,28.987489 L -89.142866,28.991623 L -89.148795,29.003288 L -89.137743,29.018878 L -89.140357,29.019709 L -89.151454,29.013195 L -89.158593,29.021761 L -89.156339,29.028782 L -89.147983,29.040979 L -89.146953,29.051659 L -89.149805,29.056023 L -89.14624,29.065164 L -89.146953,29.070981 L -89.140298,29.072643 L -89.13079,29.070773 L -89.11653,29.074097 L -89.110825,29.081159 L -89.113915,29.086975 L -89.112727,29.092375 L -89.106785,29.092998 L -89.106309,29.111481 L -89.103695,29.116673 L -89.091573,29.117711 L -89.085869,29.111689 L -89.078739,29.109405 L -89.07446,29.10006 L -89.073034,29.088014 L -89.066617,29.090714 L -89.056397,29.106082 L -89.049029,29.121137 L -89.039521,29.135463 L -89.065429,29.133802 L -89.09704,29.138784 L -89.106785,29.146258 L -89.11035,29.152693 L -89.111776,29.159957 L -89.101794,29.165354 L -89.090147,29.157674 L -89.089434,29.166391 L -89.080165,29.170957 L -89.051173,29.170483 L -89.047127,29.184446 L -89.026687,29.179258 L -89.018368,29.176353 L -89.017417,29.171165 L -89.010525,29.17075 L -89.003869,29.179881 L -89.006154,29.186274 L -89.02122,29.207269 L -89.025974,29.215153 L -89.031678,29.21536 L -89.035956,29.208929 L -89.047127,29.206439 L -89.055112,29.212583 L -89.05402,29.201668 L -89.056634,29.198348 L -89.066379,29.197518 L -89.071133,29.193576 L -89.082066,29.192331 L -89.08777,29.195028 L -89.096327,29.187974 L -89.102744,29.1998 L -89.112727,29.20229 L -89.121996,29.202083 L -89.115341,29.212663 L -89.116653,29.219532 L -89.126512,29.220753 L -89.130553,29.226561 L -89.129602,29.231954 L -89.11962,29.233406 L -89.120808,29.243569 L -89.115104,29.252901 L -89.120336,29.260122 L -89.129688,29.265632 L -89.136979,29.275239 L -89.134337,29.27934 L -89.140275,29.291085 L -89.157593,29.296691 L -89.165015,29.303039 L -89.172859,29.324368 L -89.178221,29.32697 L -89.182129,29.337679 L -89.187834,29.34203 L -89.200389,29.344418 L -89.204703,29.338674 L -89.219734,29.324412 L -89.224444,29.32183 L -89.224192,29.313792 L -89.229665,29.307424 L -89.23537,29.304315 L -89.253545,29.322802 L -89.257852,29.336872 L -89.2667,29.349914 L -89.272543,29.351195 L -89.280387,29.35704 L -89.308403,29.371513 L -89.310546,29.370996 L -89.310536,29.361349 L -89.320756,29.355134 L -89.338582,29.355445 L -89.348329,29.366075 L -89.336771,29.378242 L -89.337504,29.379483 L -89.360448,29.379265 L -89.366034,29.383408 L -89.383741,29.388378 L -89.399071,29.387653 L -89.407628,29.3861 L -89.408341,29.379576 L -89.415353,29.379265 L -89.421651,29.376262 L -89.429138,29.378748 L -89.422141,29.388362 L -89.42795,29.390035 L -89.438051,29.387964 L -89.446964,29.38931 L -89.457303,29.393148 L -89.470142,29.401471 L -89.478456,29.395833 L -89.484354,29.397471 L -89.487308,29.393346 L -89.505038,29.38604 L -89.512326,29.382269 L -89.521833,29.384547 L -89.538589,29.386721 L -89.546433,29.392727 L -89.561288,29.395212 L -89.556891,29.400596 L -89.55285,29.409499 L -89.545482,29.406808 L -89.543987,29.40415 L -89.535024,29.404841 L -89.525042,29.402459 L -89.519624,29.402584 L -89.521833,29.413847 L -89.53443,29.422957 L -89.538827,29.431651 L -89.539297,29.441893 L -89.5355,29.450798 L -89.545244,29.451108 L -89.552256,29.455454 L -89.551088,29.463446 L -89.55903,29.461663 L -89.572102,29.475217 L -89.567349,29.48339 L -89.569607,29.494044 L -89.593137,29.494251 L -89.604189,29.489493 L -89.60918,29.489803 L -89.621896,29.499009 L -89.629145,29.502422 L -89.640198,29.50356 L -89.65018,29.516178 L -89.65731,29.522693 L -89.657192,29.532309 L -89.672403,29.535101 L -89.677157,29.537686 L -89.683455,29.549266 L -89.680306,29.555313 L -89.684486,29.563263 L -89.677929,29.567304 L -89.663668,29.56441 L -89.644654,29.572472 L -89.641802,29.575573 L -89.650358,29.586942 L -89.671082,29.588243 L -89.682683,29.596862 L -89.673651,29.598309 L -89.671036,29.601615 L -89.6727,29.609055 L -89.68197,29.616907 L -89.6877,29.616232 L -89.684486,29.624804 L -89.674736,29.626633 L -89.657677,29.624195 L -89.649269,29.625185 L -89.637999,29.611741 L -89.637761,29.596655 L -89.629443,29.597275 L -89.611141,29.586528 L -89.60127,29.583612 L -89.60924,29.597069 L -89.618272,29.600995 L -89.620395,29.605341 L -89.611854,29.610088 L -89.612567,29.614221 L -89.621124,29.610295 L -89.628967,29.613807 L -89.634434,29.621453 L -89.629918,29.628891 L -89.645486,29.628684 L -89.659034,29.637154 L -89.661648,29.64645 L -89.632651,29.644178 L -89.62457,29.637567 L -89.62053,29.636121 L -89.600802,29.641079 L -89.593831,29.643542 L -89.582761,29.655034 L -89.565388,29.659256 L -89.557762,29.657344 L -89.551561,29.653864 L -89.537047,29.651196 L -89.528547,29.651614 L -89.520618,29.640724 L -89.503037,29.639838 L -89.507972,29.646774 L -89.511437,29.656881 L -89.522605,29.659339 L -89.531542,29.666444 L -89.532303,29.673383 L -89.514527,29.668834 L -89.516521,29.673052 L -89.524887,29.675365 L -89.524887,29.682799 L -89.519563,29.692215 L -89.50772,29.692016 L -89.509942,29.69765 L -89.518803,29.702125 L -89.524887,29.726566 L -89.511957,29.727722 L -89.501817,29.722811 L -89.497514,29.717949 L -89.491612,29.723924 L -89.485147,29.719961 L -89.476448,29.706421 L -89.467599,29.699019 L -89.465993,29.687721 L -89.46252,29.679826 L -89.471182,29.673158 L -89.465562,29.651738 L -89.455675,29.650912 L -89.445648,29.651879 L -89.433808,29.656365 L -89.443125,29.671235 L -89.440273,29.681973 L -89.426667,29.678625 L -89.431907,29.688746 L -89.42421,29.697638 L -89.411942,29.686433 L -89.403956,29.681808 L -89.387794,29.679991 L -89.387705,29.683751 L -89.39609,29.69572 L -89.406428,29.694362 L -89.43025,29.712606 L -89.429231,29.72704 L -89.425542,29.731243 L -89.430766,29.740765 L -89.417498,29.752447 L -89.411971,29.75964 L -89.401557,29.769645 L -89.400267,29.785732 L -89.394697,29.790152 L -89.383726,29.790874 L -89.376005,29.788632 L -89.373475,29.783573 L -89.367346,29.777507 L -89.360629,29.781416 L -89.353873,29.783161 L -89.343859,29.782383 L -89.332822,29.779888 L -89.324036,29.773428 L -89.314741,29.762939 L -89.306982,29.762226 L -89.304921,29.758744 L -89.295136,29.760367 L -89.285742,29.763391 L -89.291303,29.766973 L -89.292944,29.775329 L -89.290489,29.785504 L -89.292515,29.799166 L -89.298992,29.798782 L -89.303605,29.796401 L -89.308313,29.788962 L -89.318391,29.783682 L -89.329039,29.782691 L -89.336455,29.785167 L -89.339687,29.792098 L -89.344631,29.797708 L -89.35699,29.800018 L -89.358702,29.809752 L -89.353187,29.814372 L -89.345012,29.815418 L -89.349338,29.820829 L -89.352997,29.819981 L -89.360266,29.822878 L -89.362314,29.826744 L -89.36992,29.825755 L -89.379427,29.822125 L -89.385702,29.835487 L -89.38361,29.840105 L -89.363289,29.84576 L -89.340828,29.849671 L -89.329419,29.843239 L -89.33056,29.840105 L -89.336835,29.836311 L -89.327518,29.82328 L -89.324095,29.826414 L -89.319342,29.82394 L -89.312241,29.826422 L -89.31744,29.830868 L -89.319532,29.837136 L -89.302989,29.843568 L -89.315159,29.852804 L -89.306032,29.858246 L -89.306032,29.865666 L -89.299377,29.865502 L -89.293292,29.863358 L -89.285876,29.85066 L -89.27643,29.848928 L -89.270916,29.852093 L -89.269897,29.859997 L -89.26439,29.866986 L -89.258136,29.867036 L -89.253362,29.87457 L -89.243807,29.875976 L -89.240271,29.878649 L -89.241189,29.885113 L -89.260545,29.884222 L -89.290443,29.879505 L -89.312664,29.881104 L -89.327328,29.874076 L -89.335124,29.872757 L -89.341969,29.883143 L -89.324666,29.888913 L -89.320545,29.89207 L -89.315729,29.902266 L -89.310785,29.90721 L -89.305081,29.910012 L -89.298797,29.909252 L -89.29569,29.918879 L -89.286222,29.92264 L -89.279806,29.927246 L -89.263062,29.929472 L -89.255453,29.928635 L -89.242651,29.931107 L -89.232436,29.930428 L -89.23796,29.937039 L -89.235216,29.946845 L -89.225545,29.967126 L -89.227883,29.970482 L -89.246517,29.973777 L -89.249969,29.975597 L -89.25146,29.981353 L -89.246517,29.992552 L -89.247848,29.997328 L -89.257165,29.990576 L -89.266482,29.99107 L -89.273315,29.99382 L -89.27523,29.989989 L -89.272947,29.983165 L -89.275799,29.977565 L -89.283562,29.97332 L -89.29082,29.95994 L -89.298236,29.952527 L -89.307944,29.93501 L -89.31763,29.921219 L -89.327014,29.918034 L -89.334363,29.906881 L -89.342349,29.90787 L -89.344251,29.911496 L -89.3539,29.911494 L -89.351999,29.902431 L -89.359842,29.890892 L -89.370063,29.892128 L -89.372439,29.901194 L -89.376005,29.906345 L -89.378601,29.919588 L -89.380521,29.94157 L -89.389315,29.944865 L -89.397871,29.954751 L -89.395019,29.958869 L -89.386463,29.955986 L -89.381234,29.959487 L -89.394818,29.963474 L -89.410231,29.964635 L -89.416648,29.960516 L -89.423541,29.963399 L -89.425917,29.97143 L -89.433998,29.974312 L -89.436613,29.983165 L -89.433411,29.991205 L -89.442793,29.997369 L -89.453488,29.99387 L -89.457766,29.998192 L -89.453964,30.007661 L -89.448735,30.011777 L -89.435425,30.009513 L -89.434949,30.013012 L -89.447309,30.014247 L -89.448972,30.019186 L -89.444456,30.023302 L -89.4359,30.027623 L -89.429958,30.028858 L -89.42568,30.0268 L -89.423541,30.016922 L -89.413597,30.023185 L -89.40928,30.020009 L -89.40928,30.009513 L -89.39906,30.000868 L -89.397158,30.005602 L -89.402149,30.009307 L -89.404289,30.01507 L -89.402862,30.019186 L -89.407834,30.023868 L -89.405239,30.028652 L -89.393831,30.031121 L -89.389311,30.03003 L -89.381709,30.035031 L -89.374579,30.032562 L -89.372375,30.036671 L -89.380283,30.041615 L -89.377668,30.047376 L -89.380521,30.052153 L -89.390491,30.05207 L -89.401938,30.049046 L -89.415491,30.043861 L -89.423065,30.036677 L -89.430433,30.033796 L -89.437088,30.03606 L -89.441604,30.040381 L -89.442555,30.046347 L -89.431075,30.051763 L -89.444618,30.060959 L -89.452136,30.060851 L -89.456356,30.058878 L -89.463517,30.066093 L -89.480441,30.0745 L -89.484423,30.078833 L -89.492505,30.070685 L -89.493037,30.064505 L -89.496741,30.0606 L -89.492714,30.04521 L -89.489378,30.041821 L -89.491517,30.0375 L -89.501587,30.034037 L -89.507093,30.02853 L -89.534087,30.015515 L -89.551292,30.005709 L -89.559753,29.998587 L -89.576008,29.996161 L -89.580086,29.990455 L -89.574425,29.983738 L -89.570642,29.97569 L -89.571865,29.97113 L -89.570419,29.961465 L -89.575162,29.957069 L -89.581608,29.945867 L -89.58189,29.929424 L -89.592346,29.917253 L -89.590916,29.88896 L -89.596429,29.879554 L -89.613666,29.869751 L -89.634825,29.863191 L -89.650027,29.862144 L -89.665435,29.862796 L -89.672153,29.866968 L -89.688621,29.86762 L -89.705278,29.874344 L -89.711158,29.879287 L -89.720501,29.890042 L -89.727524,29.895835 L -89.738813,29.902065 L -89.744939,29.907905 L -89.746614,29.91721 L -89.747176,29.930761 L -89.742727,29.935894 L -89.736311,29.936263 L -89.729165,29.940594 L -89.714774,29.947048 L -89.719843,29.952132 L -89.729395,29.957532 L -89.747341,29.945486 L -89.761279,29.940796 L -89.790089,29.932997 L -89.80783,29.931735 L -89.81926,29.933132 L -89.836497,29.942685 L -89.843386,29.950379 L -89.84624,29.956415 L -89.854565,29.982786 L -89.85987955322295,30.00172515206229 L -89.858546,30.008321 L -89.853987,30.010489 L -89.845897,30.021244 L -89.833475,30.033596 L -89.821053,30.041092 L -89.818327,30.04573 L -89.793608,30.046965 L -89.77117205222747,30.04553030116206 L -89.767938,30.04573 L -89.748592,30.035899 L -89.746505,30.032599 L -89.733323,30.022054 L -89.724649,30.022454 L -89.717678,30.025272 L -89.717207,30.028419 L -89.726384,30.041479 L -89.73086,30.045113 L -89.733,30.052725 L -89.73086,30.060748 L -89.720878,30.068359 L -89.698229,30.070705 L -89.684919,30.075226 L -89.684275,30.084608 L -89.68071,30.104555 L -89.674633,30.110406 L -89.669182,30.110667 L -89.656986,30.118381 L -89.648619,30.130557 L -89.640989,30.138612 L -89.631273,30.144437 L -89.624142,30.157385 L -89.598027,30.152409 L -89.595021,30.149891 L -89.587062,30.150648 L -89.572093,30.160362 L -89.572871,30.166053 L -89.569126,30.172732 L -89.557554,30.179813 L -89.546421,30.182454 L -89.533505,30.180705 L -89.52814392729061,30.188924934062555 Z M -88.870476,30.049212 L -88.86972,30.043798 L -88.857368,30.027826 L -88.848373,30.01333 L -88.840866,29.995613 L -88.83979,29.983803 L -88.835495,29.974138 L -88.835495,29.967695 L -88.838715,29.962326 L -88.837379,29.944878 L -88.828247,29.920717 L -88.8312,29.878839 L -88.843277,29.86381 L -88.83683,29.858978 L -88.836296,29.855221 L -88.84301,29.82596 L -88.846497,29.817101 L -88.853033,29.811117 L -88.863756,29.793564 L -88.865062,29.781019 L -88.875091,29.759818 L -88.867874,29.762305 L -88.845846,29.799052 L -88.83271,29.824062 L -88.826538,29.847092 L -88.818146,29.889109 L -88.817017,29.93425 L -88.824158,29.970461 L -88.833725,29.998821 L -88.841225,30.012789 L -88.855583,30.034414 L -88.870476,30.049212 Z M -89.262222,29.827524 L -89.262928,29.824734 L -89.248902,29.823159 L -89.249505,29.828649 L -89.262222,29.827524 Z M -89.32734,29.951816 L -89.326627,29.946976 L -89.319377,29.948933 L -89.319496,29.952331 L -89.325914,29.955317 L -89.32734,29.951816 Z M -89.342163,30.059172 L -89.340115,30.052931 L -89.340342,30.044636 L -89.333221,30.034767 L -89.328706,30.038323 L -89.323953,30.047788 L -89.312069,30.044496 L -89.308504,30.039763 L -89.287588,30.040587 L -89.280933,30.036883 L -89.281646,30.028241 L -89.275826,30.023081 L -89.275466,30.037089 L -89.268811,30.043467 L -89.259779,30.049433 L -89.253362,30.060542 L -89.24433,30.05828 L -89.238863,30.052931 L -89.240052,30.045113 L -89.237994,30.033488 L -89.227217,30.021244 L -89.224365,30.007043 L -89.2295,30.000433 L -89.215675,29.993523 L -89.201584,30.001429 L -89.211473,30.010119 L -89.213045,30.027352 L -89.202974,30.03462 L -89.188031,30.031773 L -89.183959,30.032768 L -89.173401,30.04336 L -89.176829,30.060748 L -89.192096,30.067325 L -89.207257,30.070584 L -89.2208,30.071445 L -89.223204,30.080116 L -89.227001,30.086033 L -89.227085,30.095126 L -89.229058,30.098906 L -89.236927,30.094953 L -89.243079,30.100663 L -89.22769,30.119732 L -89.218528,30.122606 L -89.212815,30.131873 L -89.200229,30.144306 L -89.190896,30.149137 L -89.185715,30.157001 L -89.190475,30.16176 L -89.195734,30.156955 L -89.202036,30.147558 L -89.210989,30.141374 L -89.232632,30.128249 L -89.245516,30.121595 L -89.263736,30.110902 L -89.283384,30.101757 L -89.303026,30.09157 L -89.318755,30.065141 L -89.328724,30.061229 L -89.342163,30.059172 Z M -89.347424,29.975187 L -89.340412,29.976217 L -89.343502,29.981261 L -89.347424,29.975187 Z M -89.360615,29.92741 L -89.362516,29.922672 L -89.356218,29.919891 L -89.352534,29.927925 L -89.357763,29.934001 L -89.360615,29.92741 Z M -89.368577,29.953772 L -89.361684,29.951713 L -89.353722,29.959641 L -89.35907,29.964377 L -89.363229,29.971893 L -89.361922,29.973746 L -89.351821,29.972922 L -89.364418,29.980025 L -89.366795,29.976731 L -89.362041,29.962318 L -89.363705,29.955214 L -89.368577,29.953772 Z M -89.381412,30.00905 L -89.36727,30.004933 L -89.364774,30.00905 L -89.375945,30.011005 L -89.381412,30.00905 Z M -89.440919,30.135182 L -89.446564,30.130278 L -89.439003,30.127527 L -89.429031,30.128559 L -89.423882,30.133026 L -89.417694,30.143682 L -89.426971,30.148495 L -89.429813,30.144429 L -89.442093,30.144369 L -89.440919,30.135182 Z M -89.626769,29.535205 L -89.626412,29.529518 L -89.61429,29.517212 L -89.605259,29.510283 L -89.599673,29.507594 L -89.597415,29.511938 L -89.590404,29.518867 L -89.590404,29.523934 L -89.578401,29.532309 L -89.574241,29.5381 L -89.565447,29.539961 L -89.565447,29.545854 L -89.575192,29.549886 L -89.583867,29.545337 L -89.593256,29.546784 L -89.602882,29.53903 L -89.617143,29.535722 L -89.626769,29.535205 Z M -89.645783,29.565289 L -89.631285,29.567253 L -89.632354,29.569837 L -89.642931,29.567356 L -89.645783,29.565289 Z M -89.666699,29.553091 L -89.660044,29.547095 L -89.656835,29.551023 L -89.663371,29.556089 L -89.666699,29.553091 Z M -89.900932,29.316533 L -89.90117,29.314875 L -89.883463,29.307103 L -89.873124,29.308035 L -89.86124,29.311662 L -89.869677,29.316533 L -89.872648,29.321092 L -89.88679,29.321299 L -89.894515,29.322439 L -89.900932,29.316533 Z M -89.950233,29.277044 L -89.944221,29.271717 L -89.93599,29.276942 L -89.928925,29.279623 L -89.915836,29.286477 L -89.907706,29.292594 L -89.910558,29.295599 L -89.928622,29.286893 L -89.93397,29.285649 L -89.943016,29.276529 L -89.950233,29.277044 Z M -89.979129,29.281089 L -89.979485,29.277564 L -89.965581,29.274869 L -89.966888,29.282643 L -89.971523,29.284924 L -89.979129,29.281089 Z M -89.984035,29.320814 L -89.981587,29.308802 L -89.973163,29.301022 L -89.969097,29.311407 L -89.970341,29.316907 L -89.973869,29.320851 L -89.984035,29.320814 Z M -90.022268,29.242521 L -90.021436,29.239721 L -90.01181,29.240655 L -90.011691,29.248328 L -90.014543,29.25092 L -90.022268,29.242521 Z M -90.028804,29.264502 L -90.026902,29.260044 L -90.02203,29.260977 L -90.022624,29.267198 L -90.028804,29.264502 Z M -90.042659,29.202661 L -90.040019,29.200129 L -90.021035,29.216485 L -89.998244,29.230006 L -89.955643,29.252769 L -89.949067,29.261867 L -89.952104,29.266627 L -89.970216,29.263466 L -89.973781,29.257141 L -89.984833,29.261599 L -89.991132,29.256312 L -89.993984,29.249158 L -90.000639,29.248121 L -90.001299,29.239707 L -90.005294,29.233946 L -90.01531,29.22975 L -90.023933,29.219523 L -90.042659,29.202661 Z M -90.330439,29.067606 L -90.328561,29.065252 L -90.32077,29.067436 L -90.321602,29.070864 L -90.330439,29.067606 Z M -90.361688,29.103076 L -90.350503,29.102957 L -90.348483,29.107525 L -90.357753,29.106383 L -90.361688,29.103076 Z M -90.372609,29.111149 L -90.369755,29.110225 L -90.354544,29.114482 L -90.34373,29.118531 L -90.339808,29.122268 L -90.339582,29.126718 L -90.351454,29.131092 L -90.352524,29.119777 L -90.361435,29.115006 L -90.372609,29.111149 Z M -90.414439,29.207985 L -90.413132,29.204147 L -90.407784,29.20394 L -90.410755,29.210682 L -90.414439,29.207985 Z M -90.444387,29.262532 L -90.441416,29.252061 L -90.435117,29.253409 L -90.444387,29.262532 Z M -90.550316,29.092142 L -90.529175,29.078049 L -90.47332,29.05949 L -90.442734,29.056053 L -90.42366,29.060863 L -90.428986,29.064129 L -90.470055,29.066879 L -90.520241,29.081831 L -90.550316,29.092142 Z M -90.759316,29.046888 L -90.755997,29.045203 L -90.7409,29.046794 L -90.719594,29.050538 L -90.686295,29.058026 L -90.665417,29.061021 L -90.670235,29.064952 L -90.673982,29.062144 L -90.688436,29.062612 L -90.696788,29.061302 L -90.70546,29.05812 L -90.711777,29.062331 L -90.716489,29.060553 L -90.721307,29.05578 L -90.734904,29.054095 L -90.737046,29.051287 L -90.745397,29.048666 L -90.754498,29.049415 L -90.759316,29.046888 Z M -90.868142,29.057199 L -90.865256,29.054088 L -90.849291,29.050052 L -90.834335,29.044923 L -90.822073,29.045554 L -90.814282,29.047782 L -90.806155,29.053794 L -90.808897,29.055685 L -90.820342,29.057325 L -90.836788,29.051229 L -90.843911,29.05005 L -90.853763,29.054172 L -90.868142,29.057199 Z M -92.03185,29.57763 L -92.026977,29.568844 L -92.01747,29.564296 L -92.015139,29.561328 L -91.993095,29.550983 L -91.971954,29.543414 L -91.969051,29.538521 L -91.963597,29.535937 L -91.953534,29.538141 L -91.943076,29.533281 L -91.939117,29.529334 L -91.934635,29.528508 L -91.928712,29.524015 L -91.915321,29.518513 L -91.905998,29.518598 L -91.896456,29.510462 L -91.888054,29.508256 L -91.883018,29.50122 L -91.87819,29.503602 L -91.862503,29.503291 L -91.8526,29.494984 L -91.846463,29.479308 L -91.83101,29.47981 L -91.821579,29.473925 L -91.814606,29.482061 L -91.803558,29.487879 L -91.786202,29.483108 L -91.774945,29.48657 L -91.768263,29.490362 L -91.773135,29.496361 L -91.774205,29.504946 L -91.765411,29.524802 L -91.745921,29.5369 L -91.735344,29.540106 L -91.71324,29.55551 L -91.709206,29.561012 L -91.711081,29.569328 L -91.720608,29.563263 L -91.725481,29.561609 L -91.73677,29.562332 L -91.737797,29.571591 L -91.740573,29.574219 L -91.755184,29.57467 L -91.759588,29.572979 L -91.769451,29.574426 L -91.768501,29.567914 L -91.775869,29.567811 L -91.776582,29.583831 L -91.784663,29.594062 L -91.795121,29.588585 L -91.802727,29.588688 L -91.806173,29.593855 L -91.806631,29.600197 L -91.821028,29.603465 L -91.824118,29.602845 L -91.830945,29.611618 L -91.840518,29.61576 L -91.84337,29.620306 L -91.843013,29.627744 L -91.853233,29.623715 L -91.861909,29.624955 L -91.866425,29.629707 L -91.879497,29.62826 L -91.8915,29.628157 L -91.903146,29.637351 L -91.912535,29.634252 L -91.9161,29.631153 L -91.928459,29.635078 L -91.926082,29.62888 L -91.928103,29.618653 L -91.932737,29.612454 L -91.939903,29.610291 L -91.960887,29.608937 L -91.965027,29.608019 L -91.98265,29.61421 L -92.005348,29.603052 L -92.007963,29.593235 L -92.017827,29.590962 L -92.020917,29.57732 L -92.024957,29.575769 L -92.03185,29.57763 Z" fill="none" stroke=currentColor stroke-width="1" vector-effect="non-scaling-stroke"/>
</svg>