<?xml version="1.0"?>
<svg xmlns="http://www.w3.org/2000/svg" version="1.2" baseProfile="tiny" width="800" height="627" viewBox="0 0 800 627" stroke-linecap="round" stroke-linejoin="round">
<g id="state">
<path d="M 690.42 433.21 689.6 434.47 687.63 434.2 685.93 434.61 684.16 435.69 683.59 436.71 683.71 437.58 681.42 439.06 680.21 439.17 679.75 438.79 675.76 438.03 674.67 440.01 673.19 440.9 672.02 442.13 670.75 443.99 668.88 445.16 668.05 445.2 667.12 446.1 666.58 449.14 666.48 450.57 664.45 451.26 660.99 451.62 659.47 452.79 659.14 454.01 659.47 455.17 660.15 455.73 661.55 457.72 661.48 458.2 660.42 458.63 659.09 458.69 657.08 457.08 656.76 456.58 653.81 455.08 653.31 455.11 649.89 454.89 646.11 455.08 645.7 455.79 643.8 456.93 641.9 458.82 640.67 460.46 639.97 460.79 639.77 461.8 640.58 464.69 641.85 468.72 642.29 469.64 643.34 470.81 645.97 472.27 647.71 472.48 650.42 472.29 654.82 471.1 656.95 470.38 659.69 468.55 661.15 469.37 661.92 470.15 659.73 471.13 658.63 471.79 657.65 471.85 656.98 472.63 657.06 474.7 657.32 476.12 658.25 477.01 659.98 477.97 661.05 478.85 662.48 480.49 663.37 481.25 665.92 482.27 668.43 482.37 669.46 483.01 671.81 483.11 674.13 482.95 677.36 481.95 679.99 480.45 680.83 479.02 680.62 474.7 682.21 472.84 682.26 470.33 683.24 468.62 683.96 467.94 683.74 466.47 683.93 465.77 683.35 464.54 682.49 463.52 683.11 462.65 685.59 462.28 686.88 461.19 689.51 459.69 693.63 457.7 694.47 456.86 696.01 456.33 696.34 455.68 695.83 455.16 695.21 452.81 695.78 452.21 695.86 451.27 697.09 450.02 697.7 450.69 700.29 451.97 701.38 453.07 702.02 452.77 703.17 452.75 705.24 454.16 703.49 454.98 703.63 455.89 704.32 456.55 705.34 456.9 706.46 456.46 707.62 455.36 709.69 454.57 711.44 454.11 712.96 454.1 713.4 454.83 713 455.71 714.2 456.46 713.87 457.09 712.78 456.71 711.62 457.48 710.93 457.31 709.19 457.69 708.79 458.42 709.55 459.13 709.33 459.76 709.66 460.64 710.42 461.21 710.13 461.93 708.57 460.61 708.57 459.01 707.91 458.52 706.39 459.48 706.06 457.97 705.41 457.65 704.5 457.84 703.2 458.5 702.51 459.13 702.76 459.89 704.65 460.07 704.58 460.61 702.54 460.26 701.75 460.89 701.17 462.34 701.82 463 703.45 462.46 704.88 463.4 704.39 464.63 704.79 465.98 706.03 466.42 706.39 467.65 707.44 468.09 708.42 467.46 710.78 467.64 712.85 468.25 712.05 468.78 710.75 468.34 710.31 468.97 711.62 470.48 712.96 470.98 713.25 474.34 713.65 476.36 714.19 477.15 714.56 478.53 716.12 478.72 717.31 476.96 717.02 475.57 718.5 475.57 718.79 476.13 720.01 476.28 721.13 474.58 722.56 474.09 724.04 471.98 725.52 469.31 726.66 468.18 727.76 466.13 728.95 465.49 729.38 464.63 729.04 463.59 729.33 463 730.37 463.42 731.79 463.5 733.22 462.47 733.42 463.2 732.67 464.91 732.89 465.79 733.42 466.06 736.27 466.57 736.62 467.08 735.15 470.18 734.73 471.67 735.57 472.68 734.01 472.58 732.06 472.96 730.89 472.83 728.34 473.17 727.36 473.87 725.91 474.45 725.44 475.92 724.48 475.8 723.61 476.23 722.85 476.98 722.12 478.54 721.49 479.02 718.85 479.9 719.89 481.49 721.08 481.29 723.32 480.21 726.71 480.46 731.28 479.74 734.23 479.6 734.37 480.59 733.83 481 732.38 481.21 731.65 482.36 730.69 482.37 729.85 483.44 729.69 484.64 728.85 485.13 727.41 484.86 726.28 482.92 725.35 482.6 724.33 482.57 724.33 483.7 722.94 484.54 724.8 485.95 722.27 486.93 722.59 487.89 723.39 488.56 722.3 488.94 721.58 488.57 721.05 489.04 719.63 487.05 720.59 486.47 720.76 486 719.02 485.01 715.59 485.61 712.49 486.47 712.17 487.18 713.13 489.22 714.58 488.67 715.74 488.51 716.05 489.11 717.16 489.55 717.72 489.42 718.38 490.24 717.13 490.4 716.29 491.11 716.55 492.6 718.44 492.95 719.19 493.8 719.69 494.86 720.82 495.24 722.45 495.09 723.98 494.28 724.7 493.15 725.41 492.78 726.4 492.73 726.71 494.81 726.33 496.37 726.58 497.64 727.43 498.19 726 498.65 724.5 498.9 724.19 498.37 723 498.26 721.58 496.66 720.24 495.67 718.56 495.29 717.03 495.17 716 495.44 714.97 496.03 714.04 495.11 713.65 494.33 712.47 493.99 710.8 494.1 709.94 494.78 709.75 497.23 708.16 498.76 707.31 499.86 705.29 501.64 706.09 503.1 705.52 503.74 705.37 505.94 709 508.73 710.58 508.52 711.86 510.35 711.85 510.92 709.38 510.64 708.16 509.94 706.29 508.23 705.11 509.59 705.91 511.13 703.84 510.62 703.4 512.26 704.82 514.53 703.02 515.21 701.48 515.36 699.97 515.24 699.12 511.97 700.44 510.95 699.91 509.74 699.66 508.02 698.31 506.89 696.98 504.82 696 504.21 695.1 505.13 694.44 504.38 692.89 503.63 690.92 503.81 691.85 507.54 693.2 508.23 693.54 509.09 691.73 509.06 690.92 510.49 690.92 511.63 692.19 511.98 692.5 512.63 689.78 511.93 689.9 512.99 691.26 514.08 692.97 514.45 693.5 515.99 694.25 517.05 691.57 516.92 690.36 515.26 689.06 515.32 686.84 514.91 685.9 514.38 684.73 514.09 682.08 514.73 680.39 516.49 679.33 516.86 676.31 517.62 675.7 517.4 674.46 516.39 670.03 516.04 670.43 517.46 672.5 518.76 674.88 518.72 674.19 519.86 675.02 521.03 676.22 521.56 677.53 520.96 677.64 521.6 676.33 522.32 676.66 522.98 678.04 523.58 679.25 525.64 677.75 525.19 674.95 523.55 673.68 523.65 673.65 521.34 671.92 519.29 670.64 519.44 668.04 519.07 666.55 519.35 666.06 520.66 666.93 520.55 668.35 521.75 668.6 522.89 668.2 523.39 666.82 523.62 668.59 524.93 671.76 525.13 673.06 526.87 672.63 527.34 669.73 528.57 667.55 528.13 666.55 528.75 667.19 529.96 666.71 530.88 667.67 532.65 668.39 533.05 670.72 533.47 670.7 534.94 671.79 535.93 673.31 537.86 675 538.04 676.1 538.56 678.05 539.96 678.81 540.01 680.5 539.28 684.09 539.31 684.43 540.94 683.71 542.19 685.7 544.26 686.92 543.99 686.74 545.21 687.81 545.87 689.3 545.92 688.72 547.28 688.79 548.84 689.46 550.17 691.38 551.56 691.72 553.28 690.89 553.3 689.37 552.93 688 553.04 687.77 552.63 686.65 552.22 686.03 553.58 685.36 554.4 687.63 554.78 688.82 555.7 691.38 556.03 692.83 556.38 693.95 555.81 696.65 554.69 697.11 554.06 698.01 554.31 699.28 553.45 701.24 554.72 702.81 555.31 704.18 555.51 705.72 555.2 706.6 555.45 705.54 556.92 706.68 557.3 707.64 556.84 708.71 556.79 708.82 555.8 710.13 555.56 712.47 555.45 715.17 556.21 716.02 556.84 719.53 556.81 719.64 557 717.87 558.85 719.36 560.48 722.08 560.52 723.65 559.58 723.64 558.1 723.97 558.02 728.25 560.23 729.45 561.13 730.34 561.32 731.69 563.31 732.35 565.46 735.12 568.28 735.99 567.81 736.83 566.84 736.79 565.61 737.51 565.22 739.8 563.04 740.46 562.16 742.38 562.53 743.25 563.19 743.85 564.82 744.67 565.22 745.86 568.48 747 569.45 749.64 570.3 750.55 572.1 750.15 572.72 751.26 574.19 752.69 575.03 753.49 576.13 752.61 577.56 752.8 579.11 751.27 579.33 751.13 580.16 751.74 581.04 753.25 581.23 753.45 582.28 752.43 583.89 753.85 583.86 755.37 584.24 756.35 586.05 757.66 584.97 758.53 585.38 760.2 585.19 760.93 584.59 762.41 584.46 762.81 583.96 762.65 582.29 763.86 583.23 765.57 582.85 766.22 581.87 767.09 581.9 767.82 583.1 770.12 586.31 770.47 587.28 769.45 588.68 768.4 588.61 768.26 587.82 766.99 587.38 763.86 586.59 763.25 588.72 758.82 588.65 757.41 589.34 757.3 590.67 755.52 589.5 753.99 590.33 754.21 591.43 754.76 592.42 756.24 593.56 761.07 594.32 765.03 594.07 763.57 596.25 762.45 598.55 760.89 600.9 759.91 601.31 759.69 599.47 759.04 598.04 757.95 597.7 757.08 596.78 755.23 596.93 754.83 597.73 754.76 600.55 753.85 600.64 753.67 601.47 754.14 602.36 753.27 603.44 751.09 603.94 749.64 603.66 748.62 603.91 748.73 604.8 748.19 606.19 748.62 606.86 748.47 608.49 747.19 610.35 746.85 611.43 747.94 612.73 749.63 611.74 750.03 611.87 748.34 614.25 749.25 616.03 747.6 616.66 747.5 615.86 746.91 615.29 743.22 613.61 737.67 611.31 737.16 610.44 738.14 607.79 737.85 606.25 737.24 604.89 734.23 601.85 732.62 602.05 732.13 603.15 732.33 604.83 731.46 605.84 727.82 606.61 726.31 608.44 722.92 612.04 720.11 614.17 715.52 619.02 715.43 620.14 713.33 621.4 709.2 625.19 707.25 625.65 707.1 624.93 708.22 623.12 708.35 622.41 709.04 622.27 709.53 621.52 710.04 619.06 711 618.34 711.05 616.72 711.81 616.96 712.92 616.41 714.51 614.67 714.84 613.6 715.77 612.9 716.28 611.77 717.39 610.26 717.53 609.52 717.33 608.11 719.01 607.75 718.57 606.67 718.68 605.94 720.72 606.19 722.24 605.97 723.73 603.91 723.26 602.2 723.29 601.41 724.63 601.22 724.85 599.82 724.67 598.2 723.55 597.73 723.36 596.81 724.96 596.33 725.83 595.44 725.9 594.33 728.52 593.73 728.63 592.4 728.08 590.34 728.84 588.25 726.01 584.38 724.09 583.72 722.42 583.97 720.9 585.65 721.33 587.71 720.72 589.93 720.39 592.05 718.17 594.08 717.53 594.96 716.15 595.28 711.43 595.88 710.04 595.86 707.28 593.57 705.8 592.69 702.82 587.01 701.51 585.48 698.94 583.06 697.34 581.91 689.13 578.68 678.54 576.02 678.69 574.95 677.35 573.81 675.79 573.65 675.39 572.6 674.37 572.08 673.39 570.39 668.49 570.62 664.6 569.45 660.18 568.33 651.64 567.24 646.68 566.73 645.81 566.42 642.4 566.07 642.18 565.5 643.39 565.06 643.73 564.13 643.26 563.36 643.55 562.49 644.66 562.06 645.04 560.54 646.45 560.19 648.68 560.8 648.82 562.35 650.35 564.63 653.61 563.4 655.06 561.28 660.22 560.09 665.92 559.95 669 559.06 672.3 557.29 673.39 557.8 675.13 560.36 675.9 561.88 680.14 560.39 678.11 555.58 676.19 554.63 673.75 554.1 673.01 552.76 671.73 552.09 671.38 553.65 671.56 554.35 672.59 555.2 668.82 555.17 664.97 554.82 661.67 555.49 660.11 555.23 653.79 555.3 653.53 553.98 651.93 553.25 650.3 552.02 646.67 553.66 646.22 552.76 645.51 552.22 644.93 551.29 642.26 550.36 642.59 548.21 643.52 545.7 644.39 545.55 646.47 544.46 645.37 543.74 644.89 543.11 643.35 542.24 640.97 542.11 639.29 542.93 639.09 545.27 637.62 546.8 637.33 548.07 636.11 548.38 635.75 547.53 635.02 546.79 632.83 547.61 632.77 546.5 630.7 546.29 628.41 547.62 626.81 544.68 624.82 544.96 623.87 544.05 623.15 544.02 621.33 544.77 619.63 545.94 619.66 546.64 620.82 547.05 621.21 547.86 622.89 548.82 622.09 549.45 621.37 550.78 620.53 551.82 620.32 552.83 617.99 553.15 617.88 553.78 618.28 554.86 617.45 555.65 617.01 556.85 616 557.32 613.68 557.49 612.67 557.85 611.83 558.56 611.96 559.68 612.5 560.26 614.12 559.96 614.75 560.58 615.95 560.69 617.06 558.72 617.62 558.22 618.75 558.18 620.49 560.14 621.89 560.82 621.01 562.64 618.96 562.65 617.84 562.24 617.24 562.35 616.17 561.23 615.7 561.18 613.51 562.19 612.51 563.97 612.48 565.45 612.82 566.75 612.62 567.54 613.06 568.4 615.89 568.87 616.4 569.79 615.53 570.96 614.69 571.47 613.42 571.75 611.1 571.15 609.68 569.73 606.87 569.55 604.66 571.32 603.71 572.75 602.62 572.97 601.87 574.28 602.18 576.01 603.11 577.09 603.18 578.21 605.75 579.76 606.92 581.2 607.1 582.47 607.6 582.96 609.95 582.94 609.95 583.43 611.11 585.14 611.07 585.8 608.24 587.21 603.78 589.88 600.56 592.15 592.33 597.16 590.91 598.11 589.87 599.02 588.95 599.5 584.34 601.45 581.69 600.57 580.82 600.49 580.5 600 580.91 599.19 580.19 598.25 580.73 597.93 581.98 598.17 582.61 597.91 582.73 596.27 582.58 595.08 581.6 594.81 581.2 593.94 580.41 593.62 577.3 593.49 578.12 593.05 579.61 592.82 580.6 592.29 580.04 591.67 578.88 590.95 577.16 591.01 577.01 590.41 578.86 589.47 578.95 588.57 578.17 588.35 576.29 588.77 576.56 587.98 577.57 587.62 578.59 586.48 578.08 585.57 578.79 584.28 576.71 584.36 577.1 583.36 576.12 582.56 575.51 580.79 574.61 580.29 574.04 578.07 573.18 577.23 572.91 576.02 572.4 574.9 571.99 574.6 571.41 573.41 570.57 573.71 570.04 573.06 569.19 573.06 569.1 571.34 568.45 570.85 567.72 572.1 566.8 570.99 565.8 570.58 565.91 569.22 564.31 568.11 562.99 569.11 560.86 569.96 560.57 571.42 560.68 572.75 561.57 572.81 561.24 573.82 561.48 574.32 560.25 575.47 559.37 575.28 558.74 577.61 557.92 577.86 557.09 579 556.69 578.3 557.22 577.92 556.91 576.34 558.03 575.49 557.47 572.78 557.72 571.77 557.52 571.18 558.38 569.46 557.65 567.95 557.67 567.42 556.34 566.86 553.5 564.49 552.7 562.59 552.82 561.96 551.15 561.4 550.07 561.67 548.87 562.34 548.09 563.22 548.87 564.5 549.47 564.88 549.41 565.66 548.78 566.72 547.22 567.65 547.14 568.87 545.98 569.36 545.22 570.14 543.08 569.82 541.23 568.16 540 568.63 538.49 568.3 537.11 568.46 536.38 569.55 534.93 569.88 534.3 570.99 533.74 571.2 531.92 568.35 530.27 566.92 529.36 567.08 528.21 568.14 527.13 568.44 526.75 570.69 528.6 573.32 528.33 576.07 527.87 577.2 529.04 577.91 529.89 577.88 531.78 578.35 532.59 578.87 530.63 579.73 527.4 578.11 524.32 578.65 525.82 580.49 524.95 581.95 521.31 582.09 520.07 584.64 520.16 585.32 519.91 586.84 519.51 587.27 519.2 588.52 515.17 588.17 513.78 589.47 514.34 590.93 513.14 593.31 512.36 595.65 510.47 596.21 509.75 596.98 507.95 593.99 506.92 593.67 506.03 594.19 504.65 596.79 503.69 596.56 501.8 596.73 500.24 598.33 498.06 598.32 497.12 600.27 495.88 600.42 495.66 604.42 495.32 604.91 493.97 604.8 493.05 604.41 492.21 604.63 490.71 604.66 489.55 604.17 488.35 603.41 488.02 601.97 487.06 600.25 486.92 599.41 486.03 599.92 485.56 599.66 485.87 598.52 484.78 598.39 484.78 597.79 485.67 596.68 483.84 596.78 482.66 596.06 482.46 594.86 480.84 594 481.08 592.94 479.88 592.83 478.43 592.12 476.11 590.46 474.94 589.39 475.2 588.73 474.22 588.01 473.42 587.78 472.95 586.76 471.59 586.52 470.44 587.27 468.25 588.19 467.07 587.93 465.62 588.33 464.04 587.9 464.04 587.03 463 586.98 461.55 586.07 461.55 584.04 460.81 583.97 459.83 582.63 458.65 583.17 457.74 585.27 456.85 586.32 455.8 586.64 454.78 585.88 453.6 585.45 452.26 585.64 451.19 585.37 450.23 584.15 449.05 583.36 448.49 582.69 445.86 581.04 444.79 581.47 441.9 580.7 439.58 580.57 438.29 580.73 434.52 580.38 432.83 580.09 424.69 577.09 421.66 575.7 419.47 573.87 417.64 571.59 414.45 568.49 414.66 567.78 415.83 568.02 416.99 567.97 417.57 568.24 418.89 567.67 420.53 567.49 421.46 566.72 421.43 565.9 423.06 564.85 423.68 564.03 423.5 562.47 424.08 561.77 424.55 560.28 425.15 559.63 426.91 559.13 427.34 558.66 428.85 558.29 429.27 559.55 428.98 560.41 431.25 563.36 431.39 564.6 432.61 565.17 432.86 566.01 433.79 566.81 434.59 566.77 435.26 568.16 436.33 567.42 436.89 567.35 438.51 565.74 439.47 565.11 440.18 565.14 440.94 566.16 439.9 567.59 439.6 569.76 440.03 570.74 439.36 572.05 439.45 572.99 438.73 573.35 439.94 574.27 440.87 575.68 440.41 575.99 439.34 578.42 439.69 578.8 440.49 577.91 441.72 577.58 443.04 577.83 443.57 576.31 445.95 576.9 447.11 576.36 447.71 575.31 447.13 573.33 446.13 572.99 445.38 571.78 445.51 571.12 446.49 570.36 446.61 569.62 447.33 568.87 447.53 568 447.22 566.48 446.26 565.53 446.51 564.98 446.4 563.84 445.37 562.67 444.53 562.35 442.7 562.08 442.3 561.16 442.83 560.77 441.1 559.62 439.76 559.27 438.6 559.22 438.27 558.65 436.24 558.08 435.41 557.37 435.13 555.27 434.17 554.48 432.16 554.11 432.33 552.57 433.31 550.48 432.48 548.7 431.91 548.11 430.1 548.09 427.72 546.9 426.52 546.8 426.26 545.06 425.01 542.06 422.78 541.06 420.87 541.79 417.9 541.23 417.52 540.45 416.67 539.94 413.84 539.86 412.33 539 413.21 538.67 413.15 537.97 411.92 536.29 411.28 536.11 409.76 536.45 408.98 536.17 407.91 535.38 406.54 535.34 406.25 536.35 404.85 536.48 402.37 536.31 400.87 535.57 400.3 534.68 400.75 533.84 400.45 532.33 399.38 531.77 397.13 531.4 394.59 531.51 389.93 532.46 386.7 533.86 384.2 534.1 384 533.49 385.39 531.39 385.44 530.48 384.88 529.46 383.62 528.34 383.49 527.02 383.91 525.45 383.4 524.02 382.9 523.47 382.43 522.19 381.66 519.37 381.01 517.67 380.37 517.4 377.41 517.09 376.33 517.25 374.67 517.83 370.08 518.75 368.56 518.21 367.82 518.26 366.82 517.72 367.37 517.18 368.41 516.82 368.6 515.83 369.56 514.76 370.56 512.3 370.27 510.44 370.7 509.77 370.76 507.79 371.34 506.89 371.5 504.86 370.79 502.46 369.81 501.59 366.67 500.9 364.51 500.74 362.93 500.81 359.2 501.34 356.69 502.2 356.04 502.05 353.14 500.19 350.72 500.26 347.67 500.9 345.57 501.69 344.72 502.16 342.16 503.12 338.38 504.76 338.02 505.31 335.63 506.61 334.63 506.94 334.26 506.34 333.43 506.29 332.78 505.8 331.2 506.21 331.57 505.41 333.92 504.13 334.94 503.27 335.23 502.57 335.08 501.61 334.34 500.85 331.71 500.54 331.43 499.23 333.01 498.48 333.06 497.63 335.17 495.74 335.64 493.85 336.51 495.67 337.97 496.34 339.14 495.97 339.56 495.29 339.95 493.7 340.03 492.54 339.78 490.65 338.82 489.27 338.83 488.13 337.23 488.27 336.59 488.13 334.45 488.62 333.99 488.56 331.02 487.19 329.93 487.1 328.11 487.49 327.21 487.87 325.94 489.64 325.57 489.36 323.5 489.2 322.54 490.04 320.89 489.09 318.84 488.63 317.88 487.23 316.13 488.19 315.19 489.59 316.43 492.09 315.61 493.18 314.6 493.45 312.83 493.61 309.9 494.82 307.55 495.4 304.38 496.83 300.22 498.84 295.31 501.83 292.01 504.41 290.94 505.36 290.15 505.3 289.77 504.6 290.13 503.89 291.72 503.32 293 502.23 293.75 501.04 294.13 499.7 292.86 497.81 291.26 497.52 290.13 498.24 290.57 499.07 289.91 499.6 288.97 499.78 288.86 498.9 287.94 498.25 286.84 498.32 286.28 498.79 286.16 499.9 286.5 500.5 287.55 500.83 287.61 501.56 286.87 501.79 286.06 501.58 284.98 500.9 284.05 500.61 282.99 499.94 281.95 499.71 281.1 500.85 281.72 502.6 282.45 503.94 284.65 505.29 285.8 506.73 287.18 507.84 287.88 507.74 290.01 508.54 290.75 508.51 292.06 507.95 294.8 508.11 296.16 507.87 297.14 508 297.24 508.92 292.31 512.28 292.19 513.57 293.35 514.95 293.73 514.98 293.69 516.55 294.42 518.04 295.13 518.73 295.89 520.34 296.85 521.33 297.67 521.36 297.77 520.1 298.48 520.42 300.15 519.64 302.4 520.11 304.01 519.72 305.74 519.53 306.9 518.43 308.24 518.38 308.88 519.41 310.89 520.8 307.68 520.32 306.47 520.54 304.02 521.7 302.2 523.13 302.24 523.87 302.83 524.35 303.72 524.17 304.71 524.71 305.47 524.36 306.32 524.46 306.03 525.41 304.25 525.5 302.92 525.22 301.17 525.52 297.31 524.92 290.8 525.2 287.03 526.21 282.43 527.94 280.54 528.87 273.99 532.27 272.55 532.68 269.63 533.17 266.6 533.19 263.61 533.6 260.29 533 254.86 531.84 252.3 531.5 249.33 530.96 247.33 530.2 242.85 529.24 241.58 528.84 236.89 528.28 231.85 527.57 231.02 527.14 229.61 527.1 227.88 526.79 228.06 526.18 226.68 524.76 225.37 525.32 225.12 525.94 226.26 526.59 221.44 525.83 219.93 525.44 217.92 525.12 217.44 524.11 215.87 523.67 214.98 524.27 213.49 524.08 209.7 522.96 207.08 521.87 205.49 521.52 202.13 520.58 199.81 519.76 197.28 518.53 196.54 517.86 195.05 517.78 194.2 517.53 191.7 516.29 190.93 516.03 185.2 513.51 183.02 512.74 178.63 510.88 170.21 507.22 165.49 505.38 163.08 504.59 161.36 504.23 159.08 504.13 158.51 503.28 155.55 502.32 150.4 500.9 148.4 500.59 139.94 498.6 133.29 497.1 127.72 496.32 124.36 496.01 122.04 495.98 117.03 496.37 114.29 496.85 111.42 497.51 107.41 498.3 104.38 498.08 100.68 497.69 96.72 497.45 93.28 497.34 88.3 497.29 85.05 497.37 82.39 497.58 73.26 498.68 70.09 499.15 63.3 499.8 56.17 500.78 51.71 501.52 47.37 502.4 43.39 503.56 41.21 504.32 35.97 506.6 32.19 509.08 28.51 504.19 27.47 502.45 26.87 502.1 24.59 501.42 23.99 500.67 23.83 499.77 24.29 498.57 24.07 497.91 23.12 496.94 19.47 494.88 18.84 494.19 18.49 493.04 18.61 491.13 19.42 489.73 20.39 488.79 22.34 487.25 24.99 485.62 27.1 484.71 29.01 483.45 31.6 480.8 33.52 478.19 35.52 474.52 36.57 470.1 37.16 468.56 38.74 466.33 39.67 464.11 40.73 463.1 42.5 462.68 42.98 461.78 45.03 459.71 46.62 459.12 47.36 458.4 47.45 457.08 47.82 456.2 50.17 454.07 50.46 452.32 51.32 452.03 51.73 453.76 52.8 453.78 53.51 452.85 52.95 451.94 51.06 451.54 49.47 450.08 49.24 449.41 49.9 449.15 49.75 447.86 51.2 446.51 51.44 445.59 52.78 445.16 53.32 442.96 53.23 441.08 54.52 441.42 55.13 440.69 54.45 440.39 53.77 438.71 52.49 438.93 52.36 438.02 53.17 436.77 52.97 435.84 52.3 434.66 51.82 434.62 51.92 432.9 52.5 432.44 50.69 431.44 51.13 430.84 50.23 430.23 50.81 429.6 50.27 429.16 50.61 428.47 51.39 428.68 51.72 428.01 51.43 426.96 52.93 425.45 52.36 424.85 52.04 424.5 52.88 422.47 52.09 421.59 52.2 420.56 52.67 419.18 52.73 417.82 52 417.44 49.94 417.03 49.42 416.53 48.2 416.44 47.37 415.72 46.46 414.46 46.05 413.33 44.84 412.2 44.94 411.44 43.62 411.64 43.9 410.28 43.46 409.77 44.59 408.54 44.87 407.62 44.68 406.44 44.97 405.73 44.94 404.01 44.5 403.48 44.66 402.39 45.64 401.52 46.41 401.52 48.1 399.71 48.25 398.7 49.19 398.67 49.44 396.29 49.92 396.08 50.91 396.64 51.71 395.92 52.17 396.37 53.71 395.05 53.53 394.08 52.72 394.4 52.29 393.97 53.1 393.39 52.37 392.54 52.46 392.11 53.51 391.9 52.5 390.85 51.74 390.49 51.85 389.7 51.46 388.92 51.97 387.99 50.89 386.57 51.11 385.52 51.94 384.72 52.26 384.03 51.74 383.08 50.57 382.53 50.16 381.97 49.35 381.87 48.26 380.87 48.51 380.25 47.62 380.02 47.5 379.46 48.97 378.87 48.63 377.65 49.55 377 49.72 376.25 49.18 375.65 49.23 374.31 50.14 373.42 50.69 373.84 51.28 373.46 51.32 372.34 52.92 372.16 54.35 371.33 55.71 371.66 56.68 371.35 56.67 370.66 55.96 369.19 55.09 368.79 56.18 367.61 55.7 366.6 55.76 365.74 56.42 365.12 56.01 364.22 57.92 362.41 57.95 361.59 58.65 361.05 59.34 361.1 60.3 359.73 61.54 359.95 61.78 359.23 62.64 359.38 63.91 358.56 64.54 357.1 65.57 356.07 64.97 355.39 65.69 353.81 66.7 352.63 67.34 352.26 67.3 350.59 66.74 349.57 65.77 348.77 67.18 348.36 67.42 347.83 66.44 346.62 67.29 346.44 68.62 345.71 69.9 345.46 69.69 344.14 70.21 343.32 71.07 342.79 70.32 341.94 71.18 341.78 71.54 341.19 71.11 340.2 71.41 339.43 72.56 339.7 74.35 338.99 74.69 338.44 74.1 337.41 75.71 336.1 75.21 335.57 75.78 334.54 75.1 333.79 73.58 333.34 75.21 331.96 74.51 331 75.03 329.54 74.09 329.2 74.31 328.48 73.18 328.43 72.65 327 73.84 325.43 76.45 325.03 75.72 324.22 75.87 323.4 75.05 322.57 76.01 321.87 76.44 320.92 77.23 321.4 79.19 320.92 79.77 320.36 79.99 318.91 79.41 318.2 79.02 317.16 79.11 315.75 77.97 316.01 76.89 315.82 76.74 314.75 74.98 313.82 73.5 314.08 72.61 313.39 73.75 312.52 73.97 310.81 72.94 310.71 72.02 309.37 72.57 309.01 73.05 307.91 73.94 307.36 74.4 308.01 75.42 308.8 76.1 307.96 76.98 307.84 77.98 308.12 78.86 306.48 80.56 306.3 82.6 304.94 82.7 304.43 80.19 303.42 80.92 302.98 80.92 302.48 79.73 301.99 79.04 300.94 80.73 300.63 81.08 299.93 80.89 299.32 79.58 298.8 79.74 298 78.98 297.99 77.84 297.47 75.99 297.32 76.11 296.28 74.3 295.08 74.43 294.48 76.28 294.16 76.95 292.39 77.95 291.78 78.18 290.05 77.13 288.6 76.56 286.74 76.53 285.58 77.83 285.54 78.39 285.18 77.5 283.16 78.95 282.76 79.18 281.92 78.73 281.06 77.49 281.4 76.24 280.91 74.67 281.51 73.34 282.26 72.18 283.63 70.36 284.04 68.65 282.48 68.34 281.62 68.39 278.85 67.62 278.18 68.18 277.1 68.22 276.23 69.35 275.81 68.79 275.03 68.94 274.09 67.62 274.57 67.06 273.93 65.91 273.78 66.22 273.1 66.17 271.98 65.37 271.33 66.51 270.95 66.57 269.77 65.65 268.88 65.51 267.95 62.63 268.27 61.99 267.96 61.94 267.14 61.27 265.97 59.64 266.3 58.04 263.77 57.18 263.41 55.94 263.34 55.53 262.96 55.33 261.91 55.95 260.8 57.42 259.92 56.94 259.04 58.06 257.77 58.24 255.47 61.42 254.7 61.96 253.56 62.7 252.64 61.49 252.71 59.79 253.36 58.42 253.58 57.5 253.08 58.16 252.47 57.98 250.25 57.38 248.65 56.16 248.55 54.9 247.29 54.06 246.86 52.68 246.64 52.71 245.41 54.55 242.62 54.45 242.18 52.17 241.95 51.99 241.73 52.85 240.08 52.03 239.63 51.04 239.59 50.08 240.14 48.61 239.52 47.03 238.24 45.87 237.81 46.02 236.87 46.49 236.37 46.02 235.3 47.03 235.54 48.64 234.97 49.98 234.13 49.75 233.58 50.42 232.14 51.68 231.4 51.52 230.99 47.72 230.91 47.24 230.26 46.8 228.87 45.07 228.47 44.25 229.37 40.44 229.06 39.64 228.33 38.34 227.71 37.64 227.11 37.65 226.37 36.02 225.31 34.99 224.14 34.77 222.52 35.34 222.2 34.01 221.05 33.52 220.91 32.83 219.86 32.14 217.88 32.35 216.72 33.1 216.38 34.19 214.78 35.58 214.34 35.1 213.08 35.66 211.77 35.34 209.9 34.24 208.44 34.12 207.54 34.62 206.63 35.5 206.74 36.48 205.57 37.11 205.3 38.99 202.17 38.55 201.63 37.08 202.06 36.29 201.33 35.57 201.15 36.21 200.29 35.79 197.94 34.4 197.24 33.32 195.54 32.52 194.83 33.33 194.15 33.6 193.23 34.71 191.26 33.15 190.07 32.4 189.08 32.72 188.06 32.15 187.17 31.1 186.91 30.3 187.2 30 186.39 28.78 185.34 27.88 184.88 26.73 183.81 27.01 181.62 26.09 180.33 25.31 179.95 25.5 178.87 24.54 178.55 25.65 177.32 25.69 176.75 23.89 176.27 22.57 175.14 23.43 174.05 23.12 172.85 21.3 173.17 20.6 173.03 19.73 173.52 17.98 172.92 19.51 171.14 18.32 170.01 17.16 170.54 14.71 170.34 13.76 168.41 13.28 168.26 12.07 168.9 11.2 168.14 10.32 165.88 9.47 165.19 9.19 164.5 8.46 163.91 7.59 162.7 6.42 160.57 5.1 159.56 4.75 158.35 4.12 158.14 3.25 157.26 1.65 157.86 1.1 156.8 1.1 143.52 1.15 138.35 1.09 137.57 1.12 128.43 1.08 118.49 1.11 116.52 1.06 104.68 1.06 81.43 1 76.92 1.08 68.83 1.04 59.69 1.02 34.97 1.06 24.76 1.03 13.51 1.06 1.05 7.59 1.01 18.78 1 42.29 1.05 52.66 1.02 62.55 1.04 74.88 1.13 83.03 1.16 88.99 1.14 100.31 1.2 111.66 1.2 122.13 1.27 127.36 1.18 132.86 1.28 152.41 1.28 157.68 1.35 160.3 1.31 169.96 1.44 182.77 1.54 193.94 1.72 207.32 1.83 217.24 1.95 221.58 1.94 224.15 2.02 241.24 2.15 244.34 2.21 266.37 2.42 279.2 2.57 287.18 2.62 292.15 2.69 302.47 2.78 306.13 2.81 325.92 2.83 332.06 2.82 348.32 2.91 356.28 2.88 375.34 2.99 387.49 2.96 395.39 3.05 405.52 3.1 410.28 3.09 423.04 3.21 429.68 3.23 440.35 3.34 439.88 5.2 439.22 6.12 436.93 7.83 434.83 10.05 435.33 11.35 434.01 12.49 433.19 13.76 433 14.64 433.19 15.89 434.07 17.11 435.64 18.23 437.95 19.04 439.69 19.36 440.66 19.34 442.52 18.97 443.53 18.43 445.03 16.82 445.64 15.15 445.36 13.49 444.63 11.21 444.82 10.51 445.72 9.76 444.69 8.65 445.06 7.03 446.16 6.49 447.98 5.93 449.41 5.68 450.88 6.07 452.43 7.62 453.41 9.68 453.64 11.35 453 11.95 453.4 12.67 454.68 13.49 455.79 15.22 455.94 18.67 455.27 20.5 454.9 21 452.09 23.63 449.56 25.62 447.96 26.04 446.16 26.13 443.76 27.7 442.45 30.46 441.59 30.98 441 32.63 441.12 34.06 440.58 36.7 441.94 37.6 440.58 40.11 440.37 40.97 440.74 42.62 441.47 43.17 442.86 43.4 446.58 43.21 448.87 43.81 451.85 44.29 456.41 45.6 457.37 46.4 456.97 47.88 455.92 49.36 454.07 50.76 453.29 51.16 450.6 52.05 447.63 53.76 446.41 54.82 445.69 56.08 444.5 57.47 444 57.55 442.37 58.85 442.24 61.07 442.58 62.64 443.36 64.44 443.88 65.24 445.03 66.35 446.58 67.33 447.75 67.2 448.26 66.55 449.31 66.56 452.28 65.52 453.54 64.97 456.32 64.25 458.08 63.97 458.22 63 459.08 61.9 459.57 59.95 460.01 59.29 460.83 58.92 461.75 57.96 463.5 58.89 464.64 60.3 465.15 61.28 465.14 63.2 464.43 64.42 463.59 65.31 461.8 66.54 460.95 67.61 460.16 68.19 458.76 68.79 455.09 70.71 453.41 71.72 454.17 73.2 456.87 75.18 458.73 75.89 462.86 77.13 464.6 77.84 466.47 79.03 467.57 80.57 467.58 81.5 467.2 82.09 465.67 83.04 464.6 83.04 462 82.59 459.87 81.8 458.16 80.56 457.45 79.78 454.26 75.23 451.37 72.84 450.74 73.51 450.73 74.66 450.22 76.43 449.35 78.06 447.86 80.32 447.77 81.1 448.02 83.04 448.66 84.11 449.94 85.53 451.41 86.84 453.19 87.91 455.33 88.87 458.16 89.91 460.81 90.46 461.5 90.43 463.16 89.45 465.12 88.53 465.84 87.95 466.62 87.84 468.11 88.12 469.16 88.58 470.33 89.58 470.81 90.44 470.88 92.46 469.45 93.94 466.59 95.02 466.63 96.1 466.26 97.43 465.59 98.41 464.97 100.61 465.67 102.07 467.72 102.97 472.62 103.88 474.39 103.86 476.26 104.12 479.07 104.85 480.81 103.26 481.75 101.71 482.24 99.97 482.7 99.68 484.22 99.48 484.68 99.65 484.42 100.66 483.13 103.12 480.84 106.24 480.76 107.31 480.08 108.61 478.49 110.33 475.68 112.39 473.65 113.4 472.57 113.05 471.32 111.44 470.01 111.26 469.32 111.42 468.62 112.19 468.12 113.94 468.28 115.41 468.63 116.02 470.06 117.33 470.34 118.2 468.69 119.49 468.26 121.36 468.35 122.95 468.22 124.35 466.46 127.19 465.73 127.5 465.19 126.44 464.92 124.18 465.24 122.63 463.76 121.82 462.4 120.63 460.45 119.8 458.58 119.86 458 120.35 457.58 121.88 456.31 123.3 454.83 122.17 452.9 122.11 451.62 122.5 450.35 123.42 449.12 124.9 447.78 125.13 446.65 124.38 445.29 124.1 441.56 125.85 440.51 126.8 439.57 129.73 439.03 132.66 439.31 134.32 440.42 136.18 440.82 136.42 443.64 136.78 445.62 137.41 448.3 137.49 448.74 137.65 450.23 136.66 451.69 136.28 453.22 136.23 455.14 136.61 456.29 137.31 457.63 137.48 457.87 134.67 458.28 133.76 458.09 132.66 457.18 131.68 456.69 130.54 456.78 129.05 459.3 130.03 461.88 131.86 463.15 132.12 465.24 131.94 464.92 134.87 463.99 136.51 462.63 137.82 460.97 138.28 461.03 140.17 460.38 141.25 459.79 141.68 453.47 144.6 453.24 145.24 453.57 149.13 453.12 149.42 450.61 149.3 449.51 148.8 448.23 147.79 446.73 145.71 446.05 145 444.41 144.2 442.99 144.45 441.65 145.36 441.05 146.2 440.95 147.24 441.82 148.64 443.53 149.58 448.66 150.49 451.42 151.06 452.8 151.88 453.5 153.9 454.09 154.11 451.93 156.66 451.01 157.47 449.36 158.31 447.76 158.66 440.58 159.35 438.49 160.87 436.96 162.58 436.75 164.87 436.23 166.26 436.5 166.74 437.63 166.89 437.45 168.33 438.14 169.12 437.85 169.54 436.51 169.81 436.27 170.4 434.99 170.55 434.37 171.32 431.03 174.23 429.97 175.37 427.8 176.56 425.1 177.32 424.61 178.26 424.98 179.41 427.49 181.72 428.18 182.16 428.03 183.64 426.85 185.14 425.68 185.79 424.2 185.73 422.44 184.82 421.74 183.53 421.38 182.08 421.51 180.07 420.68 177.99 418.2 178.68 415.62 178.86 414.01 179.39 412.9 180.68 412.53 182.22 411.61 185.12 410.64 187.87 410.18 189.76 409.86 193.21 411.1 193.59 412.53 193.61 415.48 193.21 417.79 192.59 419.2 192.42 421.8 191.5 424.4 191.69 425.42 192.16 425.98 192.91 425.98 193.53 424.85 194.79 423 195.66 420.74 195.58 418.82 195.06 416.68 194.85 411.95 194.86 409.28 195.33 407.52 197.53 406.58 198.97 405.05 200.76 404.59 202.98 404.59 204.44 404.94 208.68 405.26 211.02 404.87 213.75 404.48 214.63 403.78 214.83 402.09 215.75 401.09 216.04 399.08 215.86 394.69 214.57 393.05 213.76 392.05 213.02 390.45 211 389.7 210.83 387.46 212.46 386.8 213.59 386.71 215.7 387.35 216.71 388.91 218.41 391.4 219.81 392.48 219.98 395.14 219.8 396.16 219.57 399.06 218.53 401.14 218.21 402.62 218.47 404.01 219.32 403.78 221.35 403.42 222.41 402.33 223.54 399.14 225.8 397.9 226.54 393.02 228.25 392.25 228.38 390.85 227.8 389.35 228.07 387.66 228.05 386.91 228.34 385.9 229.66 386.21 231.02 387.06 231.48 387.05 232.74 386.72 233.27 386.57 235.55 386.74 239.05 387.3 241.52 389.37 245.23 392.39 247.66 392.75 248.62 393.6 248.74 393.52 250.62 393.77 251.92 393.53 252.71 392.57 253.65 388.61 253.64 386.59 252.62 385.46 251.52 384.4 249.78 383.87 247.73 383.32 246.16 383.67 244.61 383.08 243.55 381.94 243.31 379.39 244.72 378.64 245.32 377.7 246.69 377.38 248.44 378.05 249.69 378.81 251.71 380.1 250.65 380.84 250.37 382.26 250.93 381.7 252.11 381.57 254.32 382.13 255.71 381.98 256.53 384.15 257.88 384.27 258.49 385.83 259.52 388.02 261.26 388.12 261.59 387.99 264.84 386.96 266.89 386.5 267.34 384.19 268.34 382.07 268.99 380.38 269.34 377.97 269.48 375.94 269.28 370.81 268.48 367.77 268.62 366.64 269.33 365.82 270.32 365.69 271.17 366.13 272.32 367.3 273.58 370.24 274.85 372.91 276.79 374.83 278.53 375.59 279.8 375.74 282.1 374.11 285 370.37 288.95 369.79 290.18 370.22 291.67 372.05 293.57 374.88 295.41 377.53 297.44 379.54 299.17 380.19 301.11 379.99 302.31 379.51 303.42 378.39 304.83 377.37 305.7 375.53 306.74 373.08 307.66 370.24 308.55 368.43 309.46 372.82 309.52 383.44 309.47 389.32 309.57 389.74 309.52 399.91 309.53 414.39 309.5 421.73 309.51 428.04 309.45 433.72 309.51 438.79 309.5 447.03 309.54 465 309.54 483.36 309.43 485.49 309.48 500.74 309.45 506.38 309.49 519.19 309.45 523.19 309.46 534.76 309.42 539.6 309.39 549.83 309.43 551.56 309.37 578.75 309.27 586.17 309.27 593.21 309.22 603.49 309.2 621.11 309.13 630.11 309.15 634.03 309.08 639.93 309.06 656.14 309.09 658.48 308.97 659.34 308.64 659.89 309.02 658.86 309.91 659.92 310.57 659.5 311.43 659.45 312.59 658.67 313.27 659.71 313.68 659.9 314.48 658.73 314.48 657.59 315.48 657.57 316.14 656.53 316.66 655.64 317.9 655.74 318.7 656.65 319.3 656.07 320.58 656.43 321.09 657.28 321.22 657.34 321.75 656.53 322.67 655.11 322.33 654.38 322.82 655.53 324.48 654.91 325.21 653.45 324.73 652.99 324.99 653.22 325.82 652.95 326.72 652.08 328.22 652.27 328.7 653.83 329.9 653.1 330.8 653.23 331.56 652.15 331.39 651.29 331.7 651.93 332.85 650.77 333 650.42 334.11 650.37 335.18 651.34 334.89 651.36 335.73 650.82 336.22 651.73 337.02 651.06 337.47 650.17 336.8 649.12 336.73 649.24 337.9 648.34 338.72 648.29 339.41 647.45 339.88 647.68 341.19 646.52 340.57 645.65 341.15 646.01 342.3 645.19 343.02 644.27 342.99 644.72 343.96 644.09 344.86 644.35 345.87 644.92 346.17 644.29 347.34 644.97 347.96 645.07 348.88 645.54 349.58 643.96 349.51 644.38 350.61 644.98 351.05 644.11 351.84 644.11 352.83 642.42 352.13 642.79 353.37 641.83 354.13 642.25 354.8 643.1 354.56 643.42 355.19 643.1 355.74 643.29 356.62 642.17 356.48 641.97 357.12 642.56 357.89 642.55 358.74 641.69 359.62 642.45 360.37 641.22 361.2 642.73 361.31 642.64 362.44 643.76 361.64 644.28 362.7 645.14 362.96 645.41 364.48 646.5 364.46 646.76 364.89 645.85 365.44 645.16 367.63 645.51 368.1 645.55 369.36 645.91 370.17 646.04 371.53 647.09 371.77 646.89 373.21 647.46 373.8 647.96 375.43 648.72 375.16 650.66 374.97 650.82 375.53 650.3 376.09 649.41 376.32 648.39 376.24 648.41 376.86 649.71 377.04 650.2 377.95 648.96 378.53 650.49 378.9 652.09 378.99 652.87 380.01 652.37 380.62 653.5 381.15 653.26 381.77 653.87 383.73 654.97 383.34 656.12 385.26 656.95 385.49 657.72 386.55 658.38 386.35 659.12 386.87 660.42 386.95 660.91 387.41 660.85 388.18 661.76 389.1 662.52 389.02 663.35 389.97 663.89 391.03 665.7 391.93 665.78 392.89 666.68 393.08 666.47 394.87 667.18 395.89 667.05 397.2 667.45 398.91 666.56 399.17 666.67 400.13 668.18 402.08 668.87 403.85 669.59 404.82 670.27 405.12 670.52 405.97 670.13 406.48 670.7 407.52 671.6 407.7 672.42 408.31 672.48 408.79 673.87 409.04 674.77 410.53 674.46 411.99 674.91 413.58 675.4 414.13 674.62 414.82 673.37 415.14 673.09 415.67 673.27 416.94 672.28 417.5 672.83 418.13 673.72 418.53 674.67 419.34 674.51 421.05 675.49 421.46 674.79 422.03 674.62 422.82 675.36 423.6 677.11 424.35 677.32 425.16 676.88 427.59 677.84 428.73 679.27 429.04 679.97 429.7 681.22 431.59 681.63 432.71 682.4 433.61 683.74 434.47 684.45 434.44 686.38 433.67 687.23 432.79 688.82 432.15 689.57 432.28 690.42 433.21 Z M 790.84 454.55 793.11 456.81 795.3 460.11 796.45 462.24 797.91 466.57 799 472.1 798.83 478.99 797.55 485.41 796.6 488.92 794.6 492.74 791.23 498.35 790.13 498.73 791.66 495.5 791.86 493.58 793.5 490.9 794.5 489.99 795.03 488.63 796.06 484.17 795.97 483.59 794.99 482.86 796.83 480.56 797.29 474.17 795.89 470.48 795.69 467.81 796.18 466.99 796.18 466.01 795.52 464.53 795.36 462.73 794.21 460.03 792.84 457.81 790.95 455.37 790.84 454.55 Z M 731.02 488.4 732.96 488.22 733.06 489.06 730.91 488.82 731.02 488.4 Z M 721.08 469.42 721.3 468.88 722.28 469.34 722.3 469.86 721.19 470.16 721.08 469.42 Z M 718.82 453.03 720.87 452.71 722.39 452.11 724.79 448.08 727.79 446.52 730.79 445.13 733.57 443.49 735.54 442.48 738.85 440.47 740.21 439.53 741.17 438.1 741.98 437.36 742.7 438.09 741.91 439.29 740.49 440.03 738.57 441.93 737.69 443.34 736.3 443.78 733.95 446.69 734.88 447.56 736.09 446.96 736.39 447.54 736.4 448.92 736.98 449.83 737.35 451.15 739.41 451.28 741.73 451.78 744.06 452.79 744.58 455.44 742.97 457.06 742.35 457.21 740.07 456.77 738.53 457.88 738.77 460.52 740.28 461.84 738.13 463.05 736.02 461.99 736.8 460.99 736.37 458.82 734.72 456.95 734.41 455.17 734.59 453.98 733.75 453.16 732.38 452.82 731.4 454.51 730.02 455.42 729 456.4 728.95 458.54 728.06 457.75 728.17 456.43 727.15 455.86 723.96 455.99 723.41 455.27 721.6 454.76 720.87 456.21 720.18 456.75 719.09 455.25 719.13 453.98 718.82 453.03 Z M 718.01 465.85 718.61 464.92 719.08 465.69 718.01 465.85 Z M 716 473.14 716.43 472.14 717.23 473.07 716.67 474.29 715.71 473.87 716 473.14 Z M 714.78 469.12 715.53 468.9 715.78 467.81 715.06 465.61 715.42 465.11 717.34 466.2 715.8 466.07 715.6 466.35 716.23 467.5 717.05 468.22 715.84 469.43 714.78 469.12 Z M 712.82 460.68 713.66 460.38 715.36 460.68 714.98 461.31 712.82 460.68 Z M 703.74 441.42 703.56 440.02 705.43 440.01 705.87 439.39 707.28 440.12 706.34 441.75 705.55 442.43 704.03 442.59 702.88 442.17 703.74 441.42 Z M 675.36 533.03 676.83 532.95 679.01 532.45 680.48 531.26 681.91 531.48 683.24 530.79 684.72 531.4 684.72 532.3 683.38 532.59 682.75 533.47 680.91 534.75 680.91 535.52 679.84 536.58 679.5 537.25 678.64 536.83 677.27 535.78 675.41 533.9 675.36 533.03 Z M 672.46 528.44 672.89 528.12 674.51 527.74 674.67 528.14 672.46 528.44 Z M 669.26 530.3 669.77 529.84 670.77 530.61 670.28 531.21 669.26 530.3 Z M 633.5 566.42 634.48 565.52 635.66 565.69 637.82 565.72 638.27 566.42 639.56 567.16 637.74 567.72 636.17 567.86 633.46 566.67 633.5 566.42 Z M 625.97 572.45 627.07 572.53 628.45 571.13 629.27 570.94 632.03 569.61 632.46 570.07 631.22 571.01 629.22 572.05 628.15 572.46 626.89 573.26 625.97 572.45 Z M 621.56 571.83 622.72 571.24 623.43 571.59 623.63 572.78 621.5 572.37 621.56 571.83 Z M 620.81 565.76 622.36 565.76 622.9 566.36 623.09 567.2 622.47 568.79 621.18 567.6 620.81 565.76 Z M 614.97 577.72 616.15 576.44 616.59 576.83 616.57 578 615.1 578.15 614.97 577.72 Z M 613.97 574.36 614.92 573.95 615.01 574.9 614.26 575.04 613.97 574.36 Z M 611.86 583.81 614.72 581.23 616.03 579.67 617.56 579.03 618.17 578.15 618.27 576.86 619.29 576.71 619.73 575.61 620.69 574.81 622.38 575.49 622.92 574.52 625.69 574.04 626.15 574.76 625.15 576.15 618.64 579.63 615.16 581.69 612.26 584.19 611.86 583.81 Z M 567.92 604.43 569.27 603.93 569.39 604.45 568.2 604.79 567.92 604.43 Z M 563.15 599.01 563.75 598.51 565.16 598.33 564.85 599.03 563.15 599.01 Z M 561.48 597.78 563.19 597.19 564.55 596.46 564.71 594.73 566.52 595.4 566.49 596.08 565.89 596.65 564.24 597.27 561.92 597.92 561.48 597.78 Z M 555.09 582.99 555.65 582.58 556.11 583.61 555.29 583.58 555.09 582.99 Z M 550.52 574.66 551.94 576.06 550.97 576.26 550.52 574.66 Z M 534.35 600.68 538.94 602.25 546.6 604.54 552.87 604.96 553.68 605.46 550.77 606.19 546.1 605.67 537.57 602.83 534.35 600.68 Z M 502.43 607.59 503.17 607.2 504.56 607.32 505.83 606.92 506.16 606.49 508.24 606.23 508.97 605.5 509.69 605.23 510.66 605.87 511.98 605.39 513.26 605.19 515.46 605.26 516.04 604.83 516.77 605.43 513.58 605.89 508.5 607.03 505.25 607.6 502.94 607.85 502.43 607.59 Z M 485.82 606.02 488.01 606.48 489.52 607.11 490.6 606.93 493.12 606 494.86 606.25 495.28 606.54 494.04 607.45 492.85 607.79 490.98 607.89 488.7 607.11 486.26 606.49 485.82 606.02 Z M 308.13 526.55 309.19 526.84 309.8 526.6 310.27 524.52 311.78 524.17 312.18 522.67 315.64 520.97 318.34 521.91 318.97 521.77 322.17 521.56 323.27 521.23 323.97 520.29 324.28 518.73 323.92 517.78 325.81 518.38 326.35 517.91 327.78 517.43 329.56 518.84 331.4 518.82 333.39 518.6 334.08 519.33 335.41 519.52 336.97 518.9 336.91 520.04 337.35 520.73 338.81 521.36 339.85 522.7 340.32 522.61 342.52 523.11 342.59 524.07 343.12 524.86 344.28 524.88 345.88 524.04 347.11 525.6 347.22 528.05 348.34 528.04 348.2 527.04 349.7 527.26 350.38 527 352.61 527.07 353.03 527.47 353.19 528.89 354.91 529 355.66 528.75 357.11 527.82 357.4 529.09 356.78 529.93 353.41 532.28 351.79 532.77 348.81 534.62 347.47 537.65 347.64 538.96 348.38 539.88 347.36 540.46 345.64 540.98 342.99 540.26 341.3 541.14 340.24 542.39 338.8 541.49 336.44 541.56 335.5 539.17 333.99 537.9 331.59 537.85 330.86 538.22 330.09 537.14 328.81 536.81 327.35 535.57 325.93 535.58 323.88 534.74 322.98 534.05 322.29 533.93 321.69 533.32 320.09 532.58 318.55 532.92 317.72 532.52 317.28 531.78 314.05 530.62 310.68 529.04 310.33 528.59 308.88 527.89 308.13 526.55 Z" fill-rule="evenodd" fill="none" stroke="currentColor" stroke-width="1"/>
</g>
</svg>