<?xml version="1.0"?>
<svg width="20" height="20" xmlns="http://www.w3.org/2000/svg" version="1.2" baseProfile="tiny" viewBox="-64.000 -104.500 928.000 928.000" stroke-linecap="round" stroke-linejoin="round">
<g id="state">
<path d="M 688.42 495.75 687.64 497.22 685.65 496.97 683.96 497.48 682.22 498.78 681.68 499.97 681.82 500.97 679.57 502.75 678.36 502.91 677.88 502.48 673.86 501.71 672.83 504.02 671.36 505.09 670.23 506.54 669 508.72 667.17 510.13 666.33 510.2 665.43 511.26 664.97 514.79 664.92 516.45 662.9 517.3 659.43 517.8 657.93 519.18 657.64 520.61 658.01 521.94 658.71 522.56 660.18 524.83 660.12 525.39 659.06 525.91 657.73 526.02 655.66 524.21 655.33 523.63 652.31 521.98 651.82 522.02 648.37 521.86 644.58 522.17 644.18 523 642.31 524.37 640.45 526.59 639.26 528.52 638.57 528.92 638.39 530.09 639.29 533.41 640.68 538.03 641.15 539.08 642.24 540.42 644.93 542.04 646.69 542.24 649.41 541.95 653.8 540.46 655.92 539.58 658.63 537.38 660.12 538.3 660.92 539.18 658.74 540.37 657.66 541.16 656.67 541.25 656.01 542.18 656.16 544.57 656.46 546.2 657.43 547.21 659.19 548.26 660.3 549.26 661.78 551.12 662.71 551.96 665.3 553.08 667.84 553.13 668.89 553.84 671.26 553.9 673.59 553.65 676.82 552.41 679.42 550.61 680.22 548.92 679.87 543.94 681.42 541.75 681.38 538.85 682.32 536.84 683.03 536.05 682.76 534.35 682.92 533.54 682.31 532.14 681.4 530.97 682 529.95 684.49 529.46 685.75 528.16 688.35 526.36 692.43 523.95 693.25 522.96 694.77 522.3 695.08 521.53 694.55 520.95 693.86 518.25 694.41 517.55 694.46 516.45 695.66 514.98 696.29 515.73 698.93 517.14 700.06 518.38 700.7 518.02 701.86 517.96 703.98 519.53 702.24 520.53 702.42 521.58 703.13 522.32 704.17 522.69 705.28 522.15 706.41 520.85 708.46 519.88 710.21 519.3 711.73 519.24 712.2 520.07 711.82 521.1 713.06 521.93 712.75 522.67 711.64 522.26 710.5 523.18 709.8 523.01 708.06 523.49 707.69 524.35 708.47 525.15 708.27 525.88 708.63 526.89 709.42 527.52 709.15 528.37 707.54 526.89 707.48 525.03 706.8 524.49 705.31 525.64 704.93 523.91 704.26 523.56 703.36 523.81 702.07 524.61 701.39 525.35 701.67 526.22 703.58 526.38 703.52 527 701.47 526.66 700.69 527.41 700.15 529.09 700.83 529.84 702.45 529.17 703.92 530.22 703.47 531.65 703.92 533.2 705.17 533.68 705.58 535.08 706.65 535.56 707.62 534.81 709.99 534.94 712.1 535.59 711.31 536.23 709.98 535.76 709.56 536.49 710.93 538.2 712.3 538.74 712.7 542.61 713.17 544.94 713.74 545.83 714.15 547.42 715.73 547.59 716.88 545.52 716.54 543.93 718.02 543.89 718.33 544.52 719.57 544.66 720.64 542.66 722.06 542.05 723.48 539.58 724.88 536.44 725.98 535.1 727.03 532.71 728.2 531.92 728.6 530.92 728.22 529.73 728.49 529.04 729.55 529.5 730.99 529.54 732.38 528.31 732.61 529.15 731.91 531.14 732.17 532.15 732.71 532.46 735.59 532.95 735.97 533.53 734.59 537.16 734.22 538.9 735.1 540.04 733.53 539.97 731.58 540.46 730.4 540.35 727.84 540.82 726.88 541.66 725.45 542.37 725.02 544.08 724.05 543.97 723.19 544.49 722.45 545.39 721.77 547.21 721.15 547.78 718.52 548.88 719.62 550.68 720.82 550.41 723.03 549.11 726.46 549.29 731.03 548.32 734 548.07 734.18 549.21 733.65 549.7 732.19 549.99 731.49 551.34 730.53 551.38 729.72 552.63 729.6 554.03 728.77 554.62 727.31 554.35 726.11 552.15 725.16 551.8 724.13 551.8 724.17 553.11 722.8 554.11 724.72 555.68 722.21 556.89 722.56 557.99 723.38 558.75 722.3 559.22 721.56 558.8 721.05 559.37 719.55 557.12 720.5 556.42 720.65 555.86 718.87 554.78 715.43 555.57 712.34 556.66 712.04 557.48 713.07 559.81 714.52 559.13 715.68 558.92 716.01 559.59 717.15 560.07 717.71 559.9 718.4 560.84 717.15 561.06 716.32 561.9 716.64 563.61 718.55 563.96 719.34 564.93 719.87 566.14 721.03 566.54 722.66 566.32 724.18 565.34 724.87 564.01 725.57 563.57 726.56 563.47 726.94 565.87 726.62 567.68 726.91 569.14 727.79 569.75 726.36 570.32 724.86 570.66 724.53 570.05 723.33 569.96 721.84 568.15 720.46 567.05 718.75 566.66 717.2 566.57 716.17 566.91 715.16 567.63 714.18 566.58 713.77 565.7 712.57 565.34 710.88 565.52 710.05 566.32 709.93 569.16 708.38 570.98 707.56 572.27 705.58 574.39 706.43 576.04 705.89 576.8 705.8 579.35 709.56 582.47 711.15 582.18 712.5 584.26 712.5 584.92 710.01 584.67 708.75 583.89 706.81 581.97 705.66 583.57 706.52 585.33 704.41 584.8 704.02 586.71 705.53 589.29 703.73 590.13 702.19 590.35 700.66 590.24 699.69 586.49 700.99 585.28 700.42 583.9 700.12 581.91 698.72 580.64 697.31 578.29 696.3 577.62 695.42 578.7 694.73 577.86 693.14 577.04 691.16 577.3 692.21 581.58 693.6 582.33 693.97 583.32 692.15 583.33 691.37 585.02 691.41 586.33 692.71 586.7 693.03 587.44 690.27 586.71 690.42 587.93 691.84 589.15 693.57 589.53 694.15 591.3 694.95 592.5 692.23 592.42 690.96 590.54 689.65 590.64 687.4 590.24 686.43 589.65 685.24 589.34 682.59 590.16 680.94 592.23 679.87 592.7 676.86 593.65 676.23 593.41 674.95 592.28 670.47 592 670.92 593.63 673.04 595.07 675.44 594.97 674.78 596.3 675.66 597.62 676.88 598.21 678.19 597.48 678.31 598.21 677.02 599.08 677.37 599.84 678.78 600.5 680.07 602.84 678.54 602.36 675.66 600.54 674.38 600.69 674.28 598.02 672.48 595.7 671.18 595.91 668.54 595.55 667.05 595.91 666.59 597.43 667.47 597.29 668.94 598.64 669.23 599.94 668.84 600.54 667.46 600.83 669.28 602.3 672.49 602.45 673.86 604.42 673.43 604.98 670.54 606.48 668.32 606.03 667.33 606.77 668.01 608.15 667.55 609.23 668.58 611.25 669.32 611.69 671.68 612.12 671.71 613.81 672.84 614.94 674.44 617.12 676.15 617.28 677.29 617.85 679.29 619.42 680.07 619.46 681.75 618.57 685.38 618.51 685.78 620.38 685.09 621.84 687.17 624.18 688.39 623.83 688.25 625.25 689.35 625.98 690.86 626 690.31 627.58 690.43 629.39 691.16 630.9 693.15 632.46 693.54 634.44 692.71 634.48 691.15 634.1 689.77 634.26 689.53 633.8 688.37 633.36 687.79 634.94 687.14 635.91 689.45 636.29 690.69 637.32 693.29 637.63 694.77 637.99 695.88 637.29 698.58 635.93 699.02 635.19 699.94 635.45 701.19 634.42 703.22 635.83 704.83 636.47 706.22 636.66 707.77 636.26 708.67 636.52 707.64 638.25 708.81 638.66 709.77 638.1 710.85 638.01 710.93 636.86 712.24 636.55 714.61 636.35 717.37 637.15 718.25 637.86 721.8 637.71 721.92 637.93 720.2 640.13 721.76 641.96 724.51 641.94 726.06 640.79 726.01 639.09 726.34 638.99 730.74 641.41 731.99 642.41 732.9 642.61 734.33 644.87 735.07 647.33 737.98 650.51 738.85 649.93 739.66 648.79 739.58 647.37 740.29 646.89 742.54 644.3 743.18 643.27 745.13 643.63 746.04 644.37 746.7 646.24 747.54 646.68 748.87 650.4 750.05 651.49 752.76 652.39 753.74 654.44 753.36 655.17 754.54 656.83 756.02 657.76 756.87 659.01 756.03 660.68 756.27 662.47 754.74 662.78 754.62 663.73 755.28 664.74 756.81 664.91 757.05 666.11 756.08 668.01 757.51 667.93 759.07 668.32 760.13 670.38 761.42 669.09 762.32 669.54 764 669.26 764.72 668.55 766.22 668.35 766.61 667.75 766.38 665.83 767.65 666.88 769.36 666.38 769.99 665.23 770.87 665.23 771.65 666.6 774.1 670.23 774.49 671.35 773.51 672.99 772.45 672.95 772.27 672.04 770.96 671.57 767.77 670.76 767.22 673.24 762.73 673.3 761.32 674.15 761.26 675.69 759.41 674.39 757.89 675.4 758.15 676.67 758.74 677.79 760.29 679.06 765.22 679.78 769.22 679.36 767.83 681.94 766.77 684.63 765.28 687.39 764.3 687.9 764.01 685.78 763.29 684.15 762.17 683.79 761.26 682.75 759.38 682.99 759.01 683.92 759.04 687.19 758.12 687.33 757.97 688.28 758.48 689.3 757.63 690.57 755.44 691.22 753.95 690.94 752.93 691.27 753.07 692.29 752.57 693.92 753.04 694.68 752.94 696.57 751.71 698.76 751.39 700.01 752.55 701.49 754.23 700.28 754.64 700.42 753.02 703.22 754 705.25 752.35 706.03 752.22 705.11 751.6 704.48 747.79 702.65 742.07 700.16 741.52 699.17 742.43 696.07 742.07 694.3 741.41 692.75 738.24 689.33 736.62 689.61 736.16 690.9 736.42 692.83 735.57 694.02 731.9 695.02 730.43 697.19 727.11 701.45 724.32 703.99 719.82 709.74 719.77 711.03 717.68 712.55 713.6 717.05 711.64 717.64 711.46 716.81 712.54 714.69 712.65 713.86 713.34 713.68 713.82 712.8 714.26 709.94 715.21 709.09 715.21 707.21 715.99 707.47 717.1 706.79 718.66 704.73 718.96 703.49 719.87 702.65 720.35 701.34 721.43 699.56 721.55 698.69 721.3 697.07 722.99 696.61 722.51 695.37 722.6 694.53 724.67 694.76 726.21 694.46 727.65 692.03 727.12 690.06 727.13 689.15 728.48 688.89 728.66 687.27 728.42 685.4 727.26 684.89 727.04 683.83 728.65 683.23 729.5 682.18 729.54 680.9 732.17 680.12 732.23 678.58 731.61 676.21 732.31 673.77 729.31 669.39 727.33 668.68 725.65 669.02 724.16 671.01 724.67 673.38 724.12 675.96 723.86 678.42 721.68 680.83 721.06 681.87 719.67 682.28 714.9 683.11 713.49 683.13 710.61 680.56 709.09 679.59 705.88 673.11 704.49 671.37 701.81 668.65 700.15 667.37 691.72 663.87 680.9 661.08 681.02 659.84 679.63 658.55 678.04 658.41 677.61 657.22 676.56 656.64 675.52 654.71 670.55 655.11 666.58 653.86 662.07 652.68 653.38 651.64 648.35 651.18 647.46 650.83 643.99 650.52 643.76 649.86 644.97 649.33 645.29 648.24 644.79 647.36 645.06 646.35 646.17 645.83 646.51 644.06 647.93 643.62 650.2 644.27 650.39 646.06 652 648.65 655.27 647.14 656.68 644.66 661.86 643.16 667.63 642.84 670.72 641.74 674.01 639.6 675.13 640.16 676.97 643.07 677.79 644.81 682.05 642.97 679.84 637.47 677.86 636.43 675.39 635.87 674.6 634.34 673.28 633.61 672.97 635.42 673.17 636.22 674.24 637.18 670.42 637.24 666.52 636.94 663.2 637.8 661.61 637.55 655.22 637.78 654.92 636.26 653.28 635.46 651.59 634.08 647.97 636.07 647.48 635.04 646.75 634.44 646.14 633.38 643.41 632.37 643.68 629.87 644.54 626.94 645.42 626.76 647.5 625.45 646.36 624.63 645.86 623.91 644.28 622.95 641.87 622.86 640.19 623.85 640.05 626.56 638.61 628.37 638.35 629.84 637.13 630.23 636.74 629.26 635.98 628.41 633.79 629.42 633.7 628.14 631.59 627.94 629.32 629.53 627.62 626.17 625.61 626.55 624.63 625.51 623.9 625.49 622.08 626.41 620.39 627.81 620.44 628.61 621.63 629.06 622.04 629.98 623.77 631.05 622.98 631.8 622.28 633.35 621.46 634.58 621.27 635.75 618.93 636.17 618.83 636.91 619.27 638.14 618.44 639.07 618.03 640.47 617.02 641.04 614.67 641.29 613.66 641.72 612.83 642.56 612.99 643.86 613.56 644.52 615.19 644.14 615.85 644.84 617.06 644.94 618.13 642.63 618.69 642.05 619.82 641.97 621.64 644.19 623.07 644.95 622.24 647.07 620.16 647.13 619.01 646.69 618.41 646.83 617.3 645.55 616.82 645.51 614.63 646.72 613.67 648.8 613.67 650.52 614.05 652.01 613.87 652.93 614.33 653.91 617.21 654.39 617.75 655.44 616.9 656.82 616.07 657.42 614.79 657.78 612.42 657.14 610.95 655.52 608.09 655.39 605.9 657.48 604.98 659.15 603.88 659.43 603.15 660.97 603.51 662.96 604.47 664.18 604.57 665.48 607.23 667.21 608.44 668.85 608.66 670.31 609.18 670.86 611.56 670.8 611.58 671.36 612.8 673.3 612.77 674.07 609.94 675.76 605.48 678.96 602.28 681.65 594.04 687.62 592.63 688.75 591.6 689.83 590.68 690.41 586.04 692.76 583.33 691.79 582.45 691.72 582.1 691.16 582.51 690.21 581.75 689.14 582.29 688.77 583.57 689.02 584.2 688.7 584.28 686.8 584.1 685.43 583.1 685.14 582.67 684.14 581.86 683.79 578.7 683.7 579.52 683.18 581.03 682.87 582.03 682.25 581.44 681.55 580.25 680.73 578.5 680.84 578.34 680.14 580.19 679.02 580.26 677.98 579.47 677.74 577.56 678.27 577.82 677.35 578.84 676.91 579.85 675.57 579.31 674.53 580 673.02 577.89 673.16 578.26 671.99 577.25 671.1 576.58 669.06 575.66 668.5 575.03 665.94 574.14 664.99 573.84 663.6 573.3 662.31 572.87 661.98 572.25 660.62 571.41 660.98 570.86 660.24 570 660.26 569.87 658.27 569.19 657.71 568.49 659.17 567.52 657.91 566.5 657.45 566.58 655.88 564.94 654.63 563.62 655.81 561.49 656.84 561.23 658.53 561.37 660.06 562.27 660.12 561.96 661.3 562.21 661.86 560.99 663.22 560.1 663.02 559.51 665.72 558.69 666.03 557.87 667.36 557.44 666.57 557.97 666.12 557.62 664.29 558.74 663.28 558.11 660.16 558.35 658.99 558.13 658.31 558.96 656.3 558.19 654.58 558.19 653.96 556.84 653.34 553.9 650.66 553.05 648.48 553.17 647.74 551.46 647.14 550.37 647.47 549.17 648.26 548.4 649.3 549.21 650.76 549.83 651.19 549.79 652.09 549.17 653.33 547.61 654.43 547.56 655.84 546.4 656.43 545.64 657.34 543.47 657.02 541.55 655.13 540.31 655.7 538.78 655.35 537.39 655.56 536.67 656.83 535.21 657.24 534.59 658.53 534.02 658.78 532.13 655.52 530.42 653.91 529.51 654.11 528.36 655.35 527.28 655.72 526.93 658.32 528.86 661.33 528.64 664.52 528.21 665.82 529.4 666.63 530.26 666.57 532.19 667.09 533.02 667.68 531.06 668.7 527.75 666.89 524.63 667.57 526.19 669.67 525.34 671.37 521.64 671.6 520.44 674.57 520.55 675.35 520.32 677.11 519.93 677.62 519.64 679.07 515.54 678.73 514.15 680.26 514.75 681.94 513.58 684.7 512.83 687.43 510.93 688.1 510.21 689.01 508.33 685.58 507.27 685.23 506.38 685.85 505.03 688.88 504.05 688.62 502.13 688.85 500.58 690.73 498.37 690.74 497.44 693.01 496.19 693.22 496.04 697.84 495.7 698.41 494.33 698.3 493.39 697.87 492.54 698.14 491.01 698.2 489.83 697.65 488.6 696.78 488.23 695.12 487.24 693.15 487.07 692.18 486.18 692.78 485.7 692.5 485.99 691.17 484.88 691.04 484.87 690.35 485.76 689.05 483.9 689.19 482.69 688.38 482.46 686.99 480.81 686.03 481.03 684.79 479.81 684.68 478.33 683.88 475.95 682 474.75 680.78 474.99 680.01 473.99 679.2 473.17 678.94 472.68 677.77 471.29 677.51 470.15 678.39 467.93 679.49 466.73 679.21 465.27 679.69 463.66 679.22 463.64 678.21 462.59 678.17 461.11 677.13 461.07 674.78 460.32 674.72 459.3 673.18 458.12 673.81 457.23 676.26 456.34 677.48 455.28 677.86 454.24 677 453.03 676.52 451.67 676.76 450.58 676.46 449.59 675.06 448.38 674.16 447.8 673.4 445.11 671.53 444.03 672.04 441.09 671.18 438.73 671.06 437.43 671.26 433.6 670.9 431.88 670.59 423.59 667.22 420.5 665.64 418.26 663.55 416.37 660.94 413.1 657.39 413.31 656.56 414.49 656.82 415.66 656.76 416.26 657.06 417.59 656.39 419.25 656.16 420.18 655.27 420.14 654.31 421.78 653.09 422.4 652.13 422.19 650.33 422.77 649.51 423.23 647.78 423.83 647.03 425.6 646.42 426.03 645.88 427.56 645.43 428 646.89 427.72 647.88 430.05 651.27 430.22 652.7 431.46 653.34 431.73 654.31 432.67 655.23 433.48 655.16 434.18 656.77 435.26 655.89 435.83 655.81 437.44 653.93 438.4 653.18 439.12 653.21 439.91 654.39 438.88 656.05 438.6 658.56 439.05 659.69 438.39 661.22 438.5 662.29 437.77 662.72 439.01 663.77 439.97 665.39 439.52 665.76 438.46 668.57 438.82 669.01 439.62 667.97 440.86 667.57 442.21 667.85 442.72 666.09 445.14 666.73 446.31 666.09 446.9 664.88 446.28 662.6 445.26 662.21 444.49 660.83 444.61 660.06 445.6 659.17 445.7 658.31 446.42 657.44 446.61 656.43 446.27 654.68 445.29 653.59 445.54 652.95 445.41 651.63 444.34 650.29 443.49 649.94 441.63 649.65 441.22 648.59 441.74 648.13 439.98 646.82 438.62 646.43 437.44 646.39 437.1 645.74 435.03 645.1 434.19 644.29 433.88 641.87 432.89 640.96 430.85 640.57 431 638.78 431.97 636.35 431.1 634.31 430.52 633.63 428.68 633.63 426.26 632.28 425.04 632.18 424.76 630.18 423.45 626.71 421.18 625.59 419.26 626.46 416.25 625.83 415.86 624.94 414.99 624.36 412.12 624.29 410.59 623.32 411.47 622.93 411.4 622.12 410.14 620.19 409.49 619.99 407.96 620.4 407.17 620.08 406.08 619.19 404.69 619.15 404.41 620.32 403 620.48 400.48 620.32 398.96 619.47 398.38 618.45 398.82 617.47 398.49 615.73 397.41 615.1 395.13 614.69 392.57 614.84 387.87 615.99 384.62 617.64 382.09 617.93 381.89 617.22 383.27 614.79 383.31 613.74 382.73 612.56 381.45 611.29 381.31 609.75 381.71 607.94 381.18 606.28 380.67 605.65 380.19 604.19 379.37 600.93 378.7 598.97 378.05 598.67 375.07 598.33 373.97 598.52 372.31 599.21 367.68 600.31 366.13 599.7 365.38 599.76 364.37 599.15 364.92 598.52 365.98 598.1 366.15 596.95 367.11 595.7 368.09 592.85 367.78 590.7 368.22 589.93 368.25 587.64 368.83 586.59 368.98 584.24 368.24 581.47 367.24 580.49 364.07 579.71 361.89 579.54 360.3 579.63 356.53 580.28 354.02 581.28 353.36 581.11 350.41 578.99 347.98 579.08 344.91 579.85 342.79 580.77 341.94 581.33 339.36 582.45 335.57 584.37 335.2 585.01 332.8 586.52 331.79 586.91 331.42 586.22 330.58 586.17 329.92 585.61 328.33 586.09 328.7 585.16 331.06 583.67 332.08 582.66 332.37 581.86 332.21 580.75 331.46 579.88 328.8 579.53 328.52 578.02 330.1 577.14 330.15 576.16 332.26 573.96 332.73 571.77 333.62 573.88 335.09 574.64 336.26 574.2 336.69 573.41 337.07 571.58 337.14 570.23 336.87 568.05 335.9 566.46 335.9 565.14 334.29 565.32 333.64 565.16 331.48 565.74 331.03 565.66 328.02 564.1 326.92 564 325.09 564.47 324.19 564.92 322.91 566.97 322.55 566.64 320.46 566.47 319.49 567.44 317.83 566.36 315.76 565.84 314.78 564.22 313.02 565.34 312.08 566.97 313.35 569.84 312.53 571.11 311.5 571.43 309.73 571.62 306.78 573.03 304.41 573.71 301.23 575.37 297.04 577.72 292.09 581.19 288.78 584.19 287.7 585.29 286.91 585.22 286.52 584.41 286.88 583.6 288.48 582.93 289.77 581.66 290.52 580.29 290.89 578.74 289.61 576.56 287.99 576.23 286.86 577.06 287.31 578.02 286.64 578.63 285.7 578.85 285.58 577.83 284.65 577.08 283.54 577.16 282.98 577.7 282.86 578.99 283.2 579.68 284.27 580.06 284.33 580.91 283.58 581.18 282.77 580.93 281.67 580.15 280.73 579.82 279.66 579.05 278.62 578.79 277.76 580.11 278.39 582.13 279.13 583.67 281.35 585.23 282.52 586.89 283.91 588.16 284.63 588.05 286.77 588.97 287.52 588.93 288.84 588.27 291.61 588.45 292.98 588.17 293.96 588.31 294.07 589.38 289.11 593.28 288.99 594.78 290.17 596.36 290.55 596.39 290.52 598.22 291.26 599.93 291.99 600.73 292.76 602.58 293.73 603.73 294.56 603.76 294.66 602.3 295.38 602.67 297.06 601.76 299.33 602.3 300.95 601.84 302.7 601.62 303.87 600.34 305.23 600.27 305.87 601.46 307.91 603.05 304.67 602.52 303.44 602.78 300.97 604.12 299.15 605.79 299.19 606.65 299.78 607.2 300.69 606.98 301.68 607.6 302.45 607.19 303.31 607.31 303.02 608.41 301.22 608.52 299.88 608.2 298.12 608.56 294.21 607.87 287.63 608.22 283.83 609.4 279.18 611.41 277.28 612.49 270.67 616.44 269.22 616.92 266.27 617.49 263.2 617.51 260.18 617.99 256.82 617.31 251.33 615.98 248.75 615.58 245.74 614.96 243.72 614.09 239.19 612.98 237.9 612.52 233.16 611.87 228.08 611.04 227.23 610.55 225.81 610.51 224.06 610.15 224.24 609.44 222.85 607.8 221.53 608.45 221.27 609.16 222.43 609.91 217.55 609.03 216.03 608.57 214 608.21 213.52 607.04 211.93 606.53 211.03 607.22 209.53 607 205.7 605.7 203.06 604.43 201.45 604.03 198.06 602.93 195.71 601.98 193.17 600.55 192.42 599.78 190.92 599.69 190.06 599.39 187.53 597.94 186.76 597.65 180.98 594.72 178.79 593.82 174.36 591.65 165.88 587.39 161.13 585.24 158.7 584.32 156.96 583.89 154.66 583.78 154.09 582.79 151.12 581.66 145.93 580 143.91 579.62 135.4 577.28 128.7 575.51 123.08 574.57 119.7 574.19 117.36 574.13 112.31 574.55 109.54 575.09 106.64 575.83 102.59 576.71 99.54 576.43 95.81 575.95 91.82 575.64 88.35 575.48 83.33 575.38 80.06 575.45 77.37 575.66 68.15 576.84 64.94 577.36 58.09 578.04 50.89 579.09 46.38 579.9 41.99 580.86 37.96 582.15 35.75 583.01 30.44 585.58 26.58 588.4 22.94 582.71 21.91 580.68 21.31 580.27 19.03 579.45 18.43 578.58 18.29 577.54 18.77 576.16 18.56 575.38 17.61 574.25 13.96 571.83 13.34 571.02 13 569.69 13.16 567.48 13.99 565.87 14.98 564.8 16.97 563.05 19.67 561.19 21.8 560.17 23.75 558.74 26.4 555.71 28.36 552.72 30.43 548.5 31.55 543.41 32.16 541.63 33.79 539.08 34.75 536.52 35.83 535.36 37.61 534.91 38.11 533.87 40.2 531.51 41.81 530.83 42.56 530.01 42.67 528.49 43.05 527.47 45.45 525.04 45.75 523.02 46.63 522.7 47.02 524.7 48.09 524.73 48.82 523.67 48.27 522.61 46.38 522.12 44.79 520.42 44.57 519.64 45.24 519.35 45.1 517.86 46.57 516.32 46.83 515.26 48.18 514.78 48.75 512.24 48.69 510.07 49.98 510.47 50.6 509.64 49.92 509.29 49.26 507.33 47.97 507.57 47.85 506.52 48.68 505.09 48.49 504.01 47.84 502.64 47.35 502.58 47.48 500.59 48.07 500.07 46.26 498.9 46.72 498.2 45.81 497.49 46.41 496.77 45.87 496.26 46.22 495.46 47 495.72 47.34 494.95 47.06 493.72 48.59 492 48.02 491.29 47.7 490.89 48.58 488.55 47.8 487.52 47.92 486.34 48.41 484.75 48.48 483.18 47.76 482.74 45.7 482.24 45.18 481.65 43.96 481.53 43.14 480.69 42.24 479.23 41.84 477.92 40.65 476.6 40.76 475.72 39.43 475.93 39.73 474.36 39.29 473.78 40.44 472.36 40.73 471.3 40.57 469.94 40.87 469.12 40.86 467.13 40.43 466.51 40.6 465.26 41.59 464.27 42.36 464.28 44.08 462.2 44.24 461.04 45.19 461.01 45.47 458.27 45.95 458.03 46.93 458.69 47.74 457.87 48.19 458.38 49.76 456.88 49.59 455.76 48.77 456.12 48.35 455.62 49.17 454.95 48.44 453.96 48.54 453.47 49.6 453.24 48.6 452.01 47.84 451.59 47.97 450.67 47.59 449.77 48.1 448.71 47.04 447.05 47.28 445.84 48.12 444.93 48.44 444.13 47.94 443.03 46.78 442.38 46.37 441.72 45.57 441.6 44.49 440.44 44.74 439.72 43.85 439.45 43.75 438.8 45.22 438.13 44.9 436.71 45.83 435.97 46 435.11 45.47 434.42 45.54 432.86 46.47 431.84 47.01 432.34 47.61 431.91 47.66 430.62 49.26 430.43 50.7 429.48 52.05 429.87 53.03 429.53 53.03 428.73 52.34 427.02 51.48 426.56 52.57 425.2 52.11 424.03 52.18 423.04 52.84 422.33 52.44 421.29 54.38 419.22 54.42 418.27 55.13 417.64 55.82 417.72 56.79 416.14 58.03 416.41 58.27 415.58 59.13 415.76 60.41 414.83 61.05 413.15 62.1 411.97 61.51 411.17 62.25 409.36 63.27 408.01 63.91 407.58 63.89 405.66 63.34 404.48 62.39 403.53 63.79 403.08 64.04 402.47 63.08 401.06 63.93 400.85 65.26 400.03 66.54 399.75 66.35 398.23 66.88 397.29 67.74 396.68 67 395.7 67.87 395.51 68.23 394.83 67.81 393.69 68.12 392.81 69.27 393.13 71.05 392.33 71.41 391.69 70.83 390.49 72.45 389 71.96 388.38 72.53 387.2 71.87 386.32 70.36 385.79 72 384.21 71.31 383.1 71.84 381.41 70.91 381.01 71.14 380.18 70.01 380.11 69.5 378.46 70.7 376.65 73.31 376.22 72.59 375.27 72.75 374.33 71.94 373.36 72.91 372.56 73.34 371.47 74.12 372.03 76.09 371.49 76.67 370.85 76.9 369.18 76.33 368.35 75.96 367.15 76.06 365.52 74.92 365.81 73.85 365.57 73.71 364.34 71.97 363.25 70.5 363.54 69.62 362.72 70.77 361.73 71 359.76 69.97 359.64 69.08 358.08 69.63 357.67 70.12 356.4 71.01 355.78 71.45 356.53 72.47 357.45 73.16 356.49 74.02 356.36 75.02 356.69 75.91 354.8 77.6 354.62 79.65 353.06 79.75 352.48 77.27 351.28 78 350.78 78 350.2 76.83 349.63 76.16 348.4 77.84 348.06 78.19 347.25 78.01 346.56 76.71 345.94 76.88 345.01 76.13 345 74.99 344.39 73.16 344.2 73.29 343 71.51 341.59 71.64 340.9 73.48 340.54 74.17 338.51 75.17 337.81 75.42 335.81 74.39 334.13 73.84 331.98 73.83 330.63 75.12 330.61 75.68 330.19 74.82 327.86 76.27 327.41 76.5 326.43 76.06 325.44 74.83 325.82 73.59 325.23 72.03 325.91 70.7 326.77 69.53 328.34 67.71 328.8 66.03 326.97 65.74 325.98 65.82 322.78 65.07 322 65.63 320.76 65.68 319.75 66.81 319.28 66.27 318.37 66.42 317.28 65.11 317.83 64.56 317.08 63.41 316.9 63.73 316.12 63.7 314.82 62.91 314.07 64.05 313.64 64.12 312.27 63.22 311.24 63.09 310.16 60.23 310.5 59.59 310.13 59.56 309.18 58.9 307.83 57.29 308.19 55.73 305.25 54.88 304.82 53.65 304.73 53.25 304.28 53.07 303.08 53.69 301.8 55.16 300.8 54.7 299.78 55.82 298.32 56.04 295.67 59.19 294.8 59.74 293.5 60.49 292.44 59.28 292.51 57.59 293.24 56.24 293.48 55.33 292.89 55.99 292.2 55.84 289.63 55.26 287.78 54.06 287.65 52.83 286.18 51.99 285.67 50.63 285.4 50.68 283.98 52.54 280.78 52.45 280.27 50.19 279.98 50.01 279.72 50.89 277.82 50.08 277.3 49.1 277.23 48.14 277.86 46.7 277.13 45.15 275.63 44 275.12 44.17 274.05 44.64 273.47 44.19 272.23 45.18 272.52 46.78 271.88 48.12 270.92 47.9 270.28 48.58 268.62 49.84 267.79 49.68 267.31 45.92 267.18 45.46 266.41 45.04 264.8 43.34 264.32 42.52 265.36 38.75 264.96 37.96 264.1 36.68 263.37 36.01 262.66 36.02 261.81 34.43 260.57 33.42 259.2 33.22 257.33 33.8 256.96 32.5 255.62 32.01 255.46 31.34 254.24 30.69 251.94 30.91 250.6 31.66 250.21 32.77 248.38 34.14 247.89 33.69 246.43 34.26 244.91 33.97 242.76 32.9 241.06 32.79 240.02 33.3 238.97 34.17 239.11 35.16 237.76 35.78 237.47 37.68 233.87 37.26 233.24 35.8 233.72 35.03 232.87 34.32 232.65 34.96 231.66 34.58 228.95 33.22 228.12 32.17 226.14 31.4 225.31 32.2 224.54 32.49 223.48 33.6 221.21 32.08 219.83 31.36 218.66 31.69 217.5 31.14 216.46 30.11 216.15 29.31 216.47 29.03 215.53 27.85 214.31 26.96 213.76 25.84 212.51 26.15 209.98 25.27 208.48 24.5 208.03 24.7 206.79 23.76 206.4 24.87 205 24.92 204.34 23.15 203.76 21.87 202.44 22.73 201.19 22.45 199.81 20.65 200.15 19.96 199.98 19.09 200.53 17.38 199.81 18.91 197.78 17.76 196.46 16.6 197.06 14.2 196.79 13.29 194.55 12.81 194.37 11.62 195.1 10.77 194.2 9.94 191.58 9.11 190.77 8.85 189.98 8.14 189.28 7.3 187.87 6.18 185.39 4.89 184.21 4.58 182.8 3.96 182.56 3.11 181.52 1.53 182.2 1 180.96 1.22 165.62 1.36 159.64 1.31 158.75 1.49 148.19 1.61 136.7 1.67 134.43 1.82 120.75 2.21 93.88 2.22 88.67 2.43 79.32 2.54 68.76 2.93 40.2 3.14 28.39 3.3 15.39 3.52 1 9.88 1.04 20.79 1.17 43.67 1.52 53.77 1.59 63.39 1.73 75.4 1.95 83.34 2.07 89.14 2.09 100.17 2.26 111.21 2.35 121.41 2.5 126.51 2.43 131.86 2.58 150.9 2.68 156.02 2.79 158.58 2.75 167.99 2.95 180.45 3.1 191.34 3.35 204.37 3.5 214.02 3.65 218.25 3.65 220.75 3.74 237.39 3.9 240.42 3.97 261.87 4.19 274.36 4.33 282.13 4.37 286.97 4.43 297.03 4.49 300.59 4.52 319.86 4.45 325.84 4.4 341.67 4.41 349.43 4.32 368 4.31 379.82 4.16 387.52 4.2 397.38 4.16 402.02 4.09 414.45 4.11 420.91 4.06 431.31 4.05 430.88 6.21 430.25 7.28 428.04 9.28 426.03 11.88 426.52 13.37 425.26 14.7 424.47 16.18 424.31 17.19 424.5 18.64 425.38 20.05 426.92 21.32 429.19 22.23 430.89 22.57 431.84 22.55 433.65 22.09 434.62 21.45 436.06 19.57 436.63 17.64 436.33 15.72 435.59 13.1 435.77 12.28 436.63 11.41 435.6 10.13 435.94 8.26 437.01 7.63 438.77 6.95 440.16 6.65 441.6 7.08 443.13 8.85 444.12 11.22 444.37 13.15 443.75 13.85 444.16 14.67 445.41 15.6 446.52 17.6 446.72 21.58 446.1 23.7 445.75 24.28 443.04 27.35 440.6 29.69 439.05 30.19 437.29 30.32 434.98 32.17 433.74 35.37 432.91 35.99 432.36 37.9 432.5 39.55 432.01 42.6 433.35 43.63 432.06 46.54 431.86 47.54 432.24 49.45 432.96 50.07 434.32 50.32 437.96 50.05 440.2 50.71 443.12 51.24 447.59 52.7 448.54 53.61 448.18 55.32 447.17 57.04 445.39 58.68 444.63 59.15 442.02 60.22 439.14 62.23 437.97 63.47 437.28 64.94 436.14 66.56 435.64 66.66 434.07 68.18 433.97 70.75 434.33 72.56 435.12 74.62 435.64 75.54 436.78 76.81 438.31 77.93 439.45 77.76 439.94 77 440.97 77 443.86 75.76 445.09 75.11 447.79 74.24 449.51 73.9 449.63 72.78 450.45 71.49 450.9 69.23 451.32 68.46 452.12 68.02 453 66.9 454.73 67.96 455.87 69.57 456.38 70.69 456.4 72.91 455.72 74.34 454.92 75.38 453.19 76.81 452.38 78.07 451.61 78.75 450.25 79.46 446.69 81.73 445.06 82.91 445.83 84.62 448.5 86.87 450.33 87.66 454.4 89.04 456.11 89.84 457.95 91.18 459.06 92.95 459.08 94.03 458.72 94.71 457.24 95.84 456.19 95.84 453.64 95.37 451.53 94.48 449.84 93.07 449.14 92.17 445.94 86.95 443.08 84.23 442.47 85.01 442.48 86.34 442 88.4 441.18 90.29 439.76 92.92 439.68 93.82 439.95 96.06 440.59 97.28 441.87 98.91 443.32 100.41 445.09 101.62 447.2 102.7 449.98 103.87 452.6 104.47 453.27 104.42 454.88 103.27 456.78 102.19 457.48 101.5 458.25 101.37 459.71 101.67 460.75 102.19 461.91 103.32 462.39 104.31 462.49 106.64 461.12 108.37 458.33 109.66 458.39 110.91 458.04 112.45 457.41 113.59 456.83 116.14 457.54 117.82 459.57 118.84 464.39 119.81 466.12 119.77 467.96 120.04 470.73 120.85 472.41 118.98 473.3 117.18 473.75 115.16 474.2 114.82 475.69 114.57 476.14 114.76 475.91 115.92 474.68 118.79 472.49 122.42 472.43 123.66 471.78 125.18 470.25 127.19 467.53 129.61 465.55 130.8 464.49 130.41 463.24 128.57 461.95 128.38 461.27 128.57 460.6 129.47 460.13 131.5 460.32 133.2 460.67 133.89 462.1 135.39 462.38 136.39 460.79 137.9 460.39 140.07 460.51 141.91 460.4 143.53 458.72 146.84 458.01 147.21 457.46 145.99 457.16 143.38 457.45 141.58 455.98 140.66 454.62 139.3 452.7 138.38 450.87 138.47 450.31 139.05 449.91 140.82 448.69 142.47 447.21 141.19 445.32 141.14 444.07 141.62 442.84 142.69 441.65 144.42 440.34 144.7 439.21 143.85 437.87 143.53 434.23 145.6 433.22 146.71 432.33 150.11 431.85 153.51 432.15 155.42 433.27 157.55 433.66 157.83 436.43 158.2 438.39 158.92 441.03 158.97 441.46 159.15 442.92 157.99 444.34 157.54 445.85 157.45 447.74 157.87 448.88 158.66 450.2 158.84 450.39 155.59 450.78 154.53 450.59 153.26 449.67 152.15 449.17 150.83 449.24 149.12 451.73 150.21 454.29 152.3 455.54 152.58 457.6 152.34 457.33 155.73 456.44 157.63 455.12 159.17 453.5 159.72 453.58 161.9 452.97 163.16 452.39 163.67 446.22 167.12 446 167.86 446.39 172.36 445.95 172.7 443.48 172.59 442.39 172.02 441.11 170.87 439.61 168.49 438.92 167.67 437.31 166.77 435.91 167.07 434.6 168.15 434.03 169.13 433.94 170.33 434.82 171.94 436.51 172.99 441.57 173.99 444.3 174.61 445.67 175.54 446.39 177.86 446.98 178.11 444.88 181.07 443.99 182.02 442.38 183.01 440.81 183.44 433.75 184.32 431.71 186.11 430.23 188.1 430.06 190.75 429.56 192.36 429.84 192.91 430.96 193.07 430.8 194.73 431.48 195.64 431.21 196.13 429.89 196.46 429.67 197.14 428.4 197.33 427.8 198.22 424.55 201.62 423.52 202.96 421.39 204.35 418.74 205.26 418.27 206.36 418.65 207.68 421.16 210.32 421.85 210.82 421.72 212.54 420.58 214.28 419.43 215.05 417.96 214.99 416.22 213.95 415.51 212.48 415.14 210.81 415.24 208.48 414.4 206.09 411.95 206.91 409.41 207.15 407.84 207.78 406.75 209.28 406.41 211.06 405.54 214.42 404.61 217.61 404.18 219.8 403.91 223.79 405.13 224.22 406.55 224.22 409.46 223.73 411.73 222.99 413.12 222.77 415.67 221.69 418.24 221.87 419.25 222.4 419.82 223.26 419.83 223.99 418.73 225.45 416.91 226.47 414.68 226.42 412.78 225.83 410.67 225.61 405.99 225.68 403.37 226.24 401.65 228.81 400.74 230.48 399.25 232.55 398.82 235.13 398.84 236.81 399.24 241.71 399.58 244.41 399.22 247.57 398.85 248.6 398.16 248.83 396.5 249.91 395.52 250.25 393.52 250.06 389.17 248.62 387.54 247.7 386.55 246.85 384.94 244.53 384.19 244.34 382 246.24 381.36 247.55 381.29 250 381.94 251.15 383.5 253.11 385.97 254.7 387.05 254.89 389.67 254.65 390.68 254.37 393.54 253.15 395.59 252.76 397.06 253.04 398.44 254.02 398.24 256.36 397.89 257.58 396.83 258.9 393.7 261.54 392.48 262.42 387.67 264.44 386.91 264.59 385.52 263.93 384.04 264.26 382.36 264.25 381.62 264.59 380.64 266.13 380.95 267.7 381.81 268.23 381.81 269.68 381.49 270.3 381.36 272.93 381.57 276.97 382.15 279.82 384.24 284.09 387.26 286.86 387.63 287.97 388.47 288.11 388.4 290.27 388.67 291.78 388.44 292.7 387.5 293.79 383.58 293.82 381.56 292.65 380.43 291.39 379.36 289.39 378.82 287.02 378.25 285.21 378.58 283.42 377.99 282.2 376.86 281.93 374.34 283.58 373.61 284.29 372.69 285.88 372.39 287.9 373.07 289.34 373.84 291.67 375.11 290.44 375.84 290.1 377.25 290.74 376.71 292.1 376.6 294.66 377.17 296.26 377.03 297.21 379.19 298.74 379.32 299.46 380.88 300.62 383.07 302.62 383.17 303 383.08 306.76 382.07 309.14 381.63 309.66 379.34 310.83 377.25 311.61 375.57 312.02 373.18 312.2 371.17 311.99 366.07 311.11 363.05 311.29 361.94 312.13 361.13 313.28 361.01 314.26 361.46 315.58 362.63 317.03 365.56 318.48 368.23 320.69 370.15 322.69 370.92 324.15 371.1 326.81 369.5 330.17 365.83 334.77 365.25 336.18 365.7 337.9 367.54 340.08 370.37 342.19 373.02 344.51 375.04 346.49 375.71 348.73 375.52 350.12 375.05 351.41 373.95 353.04 372.94 354.06 371.12 355.27 368.69 356.36 365.87 357.41 364.08 358.48 368.45 358.51 379.02 358.36 384.88 358.43 385.29 358.37 395.41 358.28 409.83 358.09 417.13 358.03 423.41 357.89 429.06 357.89 434.11 357.81 442.31 357.76 460.2 357.52 478.47 357.13 480.58 357.15 495.76 356.89 501.37 356.85 514.12 356.58 518.1 356.53 529.61 356.27 534.43 356.16 544.6 356.01 546.33 355.91 573.38 355.26 580.77 355.11 587.77 354.9 598 354.65 615.53 354.17 624.49 353.98 628.38 353.81 634.25 353.64 650.38 353.28 652.71 353.08 653.56 352.67 654.11 353.1 653.12 354.15 654.18 354.89 653.8 355.9 653.78 357.24 653.02 358.05 654.07 358.49 654.28 359.41 653.12 359.43 652.02 360.62 652.01 361.39 651 362.01 650.14 363.47 650.27 364.38 651.19 365.06 650.65 366.55 651.02 367.13 651.88 367.26 651.95 367.87 651.17 368.95 649.74 368.6 649.03 369.18 650.22 371.07 649.63 371.92 648.16 371.42 647.71 371.73 647.96 372.68 647.72 373.72 646.9 375.47 647.1 376.03 648.69 377.37 647.99 378.43 648.14 379.31 647.06 379.14 646.21 379.52 646.88 380.83 645.73 381.02 645.41 382.32 645.4 383.56 646.35 383.2 646.39 384.17 645.87 384.74 646.81 385.65 646.15 386.19 645.24 385.43 644.19 385.37 644.35 386.72 643.47 387.69 643.44 388.5 642.62 389.06 642.88 390.56 641.71 389.88 640.86 390.57 641.25 391.89 640.45 392.74 639.53 392.73 640.01 393.84 639.42 394.89 639.7 396.06 640.28 396.38 639.68 397.75 640.38 398.45 640.5 399.51 641 400.31 639.41 400.27 639.87 401.53 640.47 402.02 639.63 402.95 639.66 404.1 637.95 403.34 638.35 404.76 637.42 405.66 637.86 406.42 638.7 406.13 639.04 406.85 638.73 407.49 638.95 408.5 637.82 408.36 637.64 409.11 638.26 409.98 638.26 410.97 637.44 412 638.21 412.85 637.01 413.84 638.52 413.92 638.46 415.24 639.56 414.28 640.11 415.49 640.97 415.78 641.28 417.53 642.37 417.47 642.65 417.96 641.75 418.62 641.13 421.17 641.5 421.7 641.57 423.16 641.95 424.09 642.12 425.66 643.17 425.91 643.02 427.57 643.6 428.23 644.15 430.11 644.9 429.78 646.83 429.51 647.01 430.16 646.51 430.81 645.63 431.11 644.6 431.03 644.64 431.75 645.94 431.92 646.47 432.96 645.23 433.67 646.77 434.05 648.38 434.12 649.19 435.27 648.71 435.99 649.85 436.58 649.63 437.3 650.3 439.55 651.39 439.07 652.59 441.27 653.43 441.51 654.23 442.71 654.88 442.46 655.64 443.04 656.94 443.1 657.45 443.63 657.41 444.52 658.35 445.55 659.11 445.44 659.97 446.52 660.53 447.72 662.38 448.72 662.48 449.83 663.39 450.02 663.23 452.09 663.98 453.26 663.89 454.78 664.34 456.74 663.45 457.06 663.59 458.17 665.16 460.38 665.91 462.4 666.65 463.51 667.35 463.83 667.62 464.81 667.25 465.42 667.85 466.6 668.76 466.78 669.6 467.46 669.68 468.02 671.08 468.27 672.02 469.97 671.75 471.66 672.26 473.49 672.76 474.11 672 474.93 670.76 475.33 670.49 475.95 670.72 477.41 669.73 478.09 670.3 478.8 671.21 479.24 672.19 480.15 672.09 482.12 673.08 482.57 672.4 483.25 672.25 484.17 673.02 485.05 674.79 485.87 675.02 486.8 674.66 489.62 675.66 490.91 677.1 491.23 677.83 491.97 679.14 494.13 679.59 495.4 680.38 496.43 681.75 497.38 682.47 497.32 684.38 496.39 685.21 495.35 686.78 494.56 687.53 494.69 688.42 495.75 Z M 790.01 517.32 792.38 519.85 794.72 523.59 795.95 526.02 797.59 530.97 798.9 537.32 799 545.28 797.96 552.74 797.15 556.83 795.28 561.31 792.11 567.91 791.01 568.38 792.43 564.59 792.56 562.37 794.1 559.22 795.07 558.13 795.55 556.55 796.41 551.36 796.31 550.7 795.29 549.88 797.06 547.16 797.26 539.76 795.71 535.55 795.4 532.48 795.86 531.51 795.83 530.38 795.11 528.7 794.87 526.62 793.62 523.53 792.15 521.02 790.16 518.27 790.01 517.32 Z M 731.07 558.33 733.02 558.07 733.14 559.04 730.98 558.82 731.07 558.33 Z M 720.41 536.7 720.61 536.07 721.62 536.57 721.65 537.17 720.55 537.55 720.41 536.7 Z M 717.58 517.83 719.64 517.41 721.15 516.67 723.42 511.94 726.38 510.05 729.35 508.35 732.08 506.38 734.02 505.15 737.27 502.73 738.61 501.6 739.53 499.91 740.31 499.04 741.06 499.86 740.31 501.27 738.9 502.16 737.04 504.42 736.22 506.08 734.83 506.63 732.57 510.06 733.54 511.04 734.73 510.31 735.05 510.96 735.11 512.57 735.72 513.59 736.14 515.11 738.22 515.2 740.57 515.7 742.94 516.79 743.56 519.84 742 521.76 741.38 521.96 739.07 521.52 737.57 522.85 737.9 525.88 739.46 527.37 737.34 528.83 735.18 527.68 735.94 526.49 735.42 524 733.7 521.89 733.33 519.84 733.47 518.46 732.6 517.54 731.2 517.18 730.28 519.17 728.92 520.27 727.93 521.42 727.95 523.89 727.03 523.01 727.1 521.48 726.06 520.86 722.85 521.1 722.28 520.28 720.44 519.76 719.76 521.45 719.08 522.09 717.94 520.38 717.93 518.92 717.58 517.83 Z M 717.21 532.67 717.78 531.58 718.28 532.45 717.21 532.67 Z M 715.43 541.15 715.83 539.98 716.67 541.03 716.14 542.46 715.16 542 715.43 541.15 Z M 714.07 536.54 714.81 536.26 715.03 535 714.23 532.48 714.57 531.89 716.54 533.09 714.99 532.99 714.8 533.32 715.47 534.63 716.32 535.44 715.14 536.87 714.07 536.54 Z M 711.82 526.84 712.65 526.48 714.37 526.77 714.01 527.51 711.82 526.84 Z M 702.05 504.86 701.83 503.24 703.71 503.18 704.12 502.45 705.57 503.26 704.68 505.16 703.91 505.97 702.38 506.2 701.21 505.75 702.05 504.86 Z M 676.37 611.48 677.85 611.35 680.03 610.71 681.48 609.3 682.94 609.52 684.25 608.68 685.78 609.35 685.8 610.39 684.46 610.75 683.84 611.79 682.03 613.32 682.05 614.22 681.01 615.47 680.68 616.24 679.8 615.79 678.38 614.61 676.45 612.48 676.37 611.48 Z M 673.29 606.25 673.72 605.88 675.34 605.39 675.52 605.85 673.29 606.25 Z M 670.12 608.49 670.62 607.95 671.65 608.81 671.18 609.52 670.12 608.49 Z M 634.99 651.14 635.95 650.07 637.15 650.25 639.34 650.23 639.82 651.02 641.15 651.85 639.32 652.54 637.73 652.74 634.96 651.43 634.99 651.14 Z M 627.53 658.29 628.64 658.35 630.01 656.71 630.83 656.47 633.59 654.87 634.04 655.39 632.81 656.5 630.81 657.76 629.73 658.26 628.48 659.21 627.53 658.29 Z M 623.04 657.68 624.2 656.98 624.93 657.36 625.16 658.73 623 658.3 623.04 657.68 Z M 622.12 650.69 623.69 650.64 624.25 651.33 624.47 652.29 623.88 654.14 622.54 652.8 622.12 650.69 Z M 616.52 664.64 617.68 663.13 618.13 663.58 618.15 664.93 616.66 665.13 616.52 664.64 Z M 615.42 660.78 616.36 660.29 616.48 661.38 615.73 661.56 615.42 660.78 Z M 613.52 671.75 616.35 668.71 617.65 666.87 619.18 666.09 619.78 665.06 619.84 663.58 620.87 663.37 621.28 662.1 622.24 661.14 623.96 661.89 624.49 660.76 627.28 660.13 627.77 660.96 626.79 662.59 620.29 666.76 616.82 669.23 613.94 672.19 613.52 671.75 Z M 569.43 696.54 570.79 695.94 570.93 696.54 569.73 696.95 569.43 696.54 Z M 564.46 690.37 565.06 689.78 566.5 689.55 566.2 690.36 564.46 690.37 Z M 562.74 688.98 564.46 688.27 565.83 687.4 565.95 685.4 567.81 686.13 567.79 686.92 567.19 687.59 565.53 688.34 563.19 689.14 562.74 688.98 Z M 555.93 672.02 556.49 671.53 556.97 672.71 556.15 672.69 555.93 672.02 Z M 551.11 662.48 552.58 664.06 551.6 664.32 551.11 662.48 Z M 535.26 692.86 539.95 694.59 547.78 697.09 554.16 697.45 555 698.01 552.06 698.92 547.3 698.4 538.58 695.28 535.26 692.86 Z M 502.98 701.4 503.72 700.94 505.13 701.05 506.42 700.56 506.75 700.06 508.85 699.73 509.58 698.88 510.31 698.55 511.3 699.28 512.64 698.69 513.93 698.44 516.17 698.49 516.74 697.98 517.5 698.66 514.27 699.24 509.13 700.65 505.84 701.37 503.5 701.69 502.98 701.4 Z M 486.07 699.84 488.31 700.34 489.85 701.04 490.95 700.82 493.48 699.7 495.26 699.96 495.69 700.29 494.45 701.37 493.25 701.79 491.35 701.93 489.01 701.06 486.53 700.38 486.07 699.84 Z M 305.15 609.72 306.22 610.04 306.84 609.76 307.31 607.35 308.83 606.95 309.22 605.21 312.71 603.23 315.44 604.31 316.07 604.14 319.31 603.89 320.41 603.5 321.12 602.4 321.42 600.59 321.05 599.5 322.96 600.18 323.51 599.63 324.95 599.08 326.76 600.69 328.61 600.66 330.62 600.4 331.32 601.23 332.66 601.44 334.23 600.72 334.19 602.03 334.63 602.83 336.11 603.56 337.18 605.1 337.65 604.99 339.88 605.55 339.95 606.67 340.49 607.58 341.66 607.59 343.27 606.61 344.53 608.41 344.66 611.23 345.8 611.21 345.64 610.06 347.16 610.3 347.84 610 350.1 610.06 350.53 610.53 350.7 612.16 352.44 612.27 353.19 611.98 354.65 610.9 354.95 612.36 354.34 613.34 350.95 616.08 349.32 616.66 346.32 618.81 344.99 622.33 345.17 623.84 345.92 624.9 344.9 625.57 343.16 626.19 340.48 625.37 338.78 626.41 337.71 627.85 336.25 626.82 333.86 626.92 332.9 624.16 331.36 622.7 328.94 622.66 328.19 623.09 327.41 621.85 326.11 621.47 324.63 620.04 323.19 620.06 321.12 619.1 320.2 618.32 319.51 618.17 318.89 617.48 317.27 616.63 315.72 617.03 314.88 616.58 314.42 615.71 311.16 614.39 307.75 612.58 307.38 612.06 305.91 611.26 305.15 609.72 Z" fill-rule="evenodd" fill="none" stroke="currentColor" stroke-width="46.400"/>
</g>
</svg>