<svg viewBox="-73.8661917 -43.244758700000006 4.295780399999998 2.364776400000011" xmlns="http://www.w3.org/2000/svg">
  <path d="M -73.487319,42.049525 L -73.426168,42.050426 L -73.340544,42.048357 L -73.233362,42.045055 L -73.127228,42.042127 L -73.036802,42.039294 L -72.979038,42.038237 L -72.874505,42.037682 L -72.813784,42.036744 L -72.817053,41.997685 L -72.77469159330657,42.00238277761439 L -72.766733,42.003266 L -72.766253,42.007871 L -72.752598,42.028238 L -72.757301,42.033381 L -72.755894,42.036349 L -72.699405,42.036957 L -72.673032,42.035195 L -72.639759,42.032033 L -72.607978,42.031083 L -72.607169,42.025148 L -72.583951,42.024774 L -72.572778,42.030219 L -72.531549,42.034578 L -72.492319,42.034215 L -72.460119,42.034357 L -72.391907,42.032954 L -72.338849,42.032161 L -72.143228,42.030522 L -72.071826,42.027637 L -71.987648,42.026883 L -71.903251,42.024584 L -71.845712,42.023994 L -71.800671,42.023514 L -71.799188,42.008053 L -71.77127595514742,42.00948438982276 L -71.606731,42.01328 L -71.5911,42.013646 L -71.527702,42.015095 L -71.49903578022362,42.01721443151642 L -71.396578,42.018748 L -71.381401,42.018798 L -71.381463,41.893546 L -71.338787,41.898593 L -71.34089,41.881804 L -71.33404,41.862604 L -71.34255,41.844656 L -71.335417,41.835645 L -71.345198,41.827676 L -71.347496,41.823158 L -71.339325,41.808461 L -71.340495,41.797074 L -71.334112,41.794388 L -71.329432,41.788274 L -71.328472,41.780694 L -71.261067,41.752082 L -71.226826,41.713114 L -71.22247131137792,41.70767940235097 L -71.195594,41.675201 L -71.17581025936708,41.67123939391016 L -71.17612,41.668248 L -71.132597,41.660023 L -71.135302,41.628565 L -71.140185,41.623869 L -71.141926,41.612738 L -71.138346,41.603676 L -71.13162,41.593716 L -71.122437,41.522075 L -71.12056102526076,41.49744624028395 L -71.106814,41.502469 L -71.093052,41.504214 L -71.085663,41.509292 L -71.070687,41.508877 L -71.048593,41.502659 L -71.041013,41.497534 L -71.041214,41.490541 L -71.038362,41.481105 L -71.033609,41.486802 L -71.038349,41.492182 L -71.035514,41.499047 L -71.022336,41.504346 L -71.019354,41.508857 L -71.003275,41.511912 L -70.99389,41.511256 L -70.983956,41.5089 L -70.981557,41.513682 L -70.984647,41.520445 L -70.980131,41.527563 L -70.966583,41.531655 L -70.961354,41.529698 L -70.956601,41.515462 L -70.952617,41.51812 L -70.954884,41.527567 L -70.947929,41.529802 L -70.946302,41.537564 L -70.941785,41.540121 L -70.92852,41.539776 L -70.934562,41.548746 L -70.93783,41.565239 L -70.947014,41.572722 L -70.950245,41.584598 L -70.943891,41.586015 L -70.942468,41.58154 L -70.937618,41.577481 L -70.931338,41.5842 L -70.927393,41.594064 L -70.931169,41.606873 L -70.930456,41.613271 L -70.922375,41.614337 L -70.916581,41.607483 L -70.910814,41.595506 L -70.902051,41.591583 L -70.898607,41.592654 L -70.904522,41.610361 L -70.913202,41.619266 L -70.908827,41.623577 L -70.894566,41.62411 L -70.889209,41.632904 L -70.872665,41.627816 L -70.86836,41.622664 L -70.868904,41.614664 L -70.862955,41.603852 L -70.863661,41.597594 L -70.860237,41.594635 L -70.856723,41.583709 L -70.847414,41.595403 L -70.843227,41.596565 L -70.847981,41.602963 L -70.849645,41.61025 L -70.853665,41.613969 L -70.855126,41.621832 L -70.859654,41.624124 L -70.844165,41.628983 L -70.835296,41.624532 L -70.827774,41.624635 L -70.822074,41.627485 L -70.817683,41.623432 L -70.810279,41.624873 L -70.801063,41.629513 L -70.800215,41.631753 L -70.804664,41.641157 L -70.823262,41.648979 L -70.821598,41.654839 L -70.809001,41.658391 L -70.795216,41.650932 L -70.790829,41.653231 L -70.776709,41.650756 L -70.769318,41.641145 L -70.766457,41.648446 L -70.762416,41.652708 L -70.757065,41.652891 L -70.758198,41.661225 L -70.756712,41.666914 L -70.763842,41.676856 L -70.758376,41.680584 L -70.749106,41.680406 L -70.755347,41.694326 L -70.744353,41.697978 L -70.739599,41.691766 L -70.729395,41.68814 L -70.721535,41.681471 L -70.715045,41.681008 L -70.718355,41.690157 L -70.717451,41.69398 L -70.723199,41.696026 L -70.727477,41.702414 L -70.722724,41.703834 L -70.71423,41.701731 L -70.712028,41.707028 L -70.721302,41.712968 L -70.728526,41.722875 L -70.720949,41.72322 L -70.720822,41.727608 L -70.726331,41.732731 L -70.718739,41.73574 L -70.715118,41.732397 L -70.706166,41.728984 L -70.697054,41.729204 L -70.68826,41.723705 L -70.685883,41.727076 L -70.679228,41.727431 L -70.664005,41.716201 L -70.656206,41.713387 L -70.676138,41.692654 L -70.674064,41.691371 L -70.660452,41.705076 L -70.650469,41.713416 L -70.648805,41.718029 L -70.639725,41.717355 L -70.633831,41.714125 L -70.626529,41.712995 L -70.620816,41.700529 L -70.631492,41.696305 L -70.636667,41.696631 L -70.645962,41.693794 L -70.657655,41.684431 L -70.657339,41.68148 L -70.645213,41.681391 L -70.636347,41.680002 L -70.632742,41.675594 L -70.632917,41.670448 L -70.648613,41.670328 L -70.653754,41.66709 L -70.651956,41.663044 L -70.645715,41.659456 L -70.640724,41.659456 L -70.631725,41.663695 L -70.620533,41.657266 L -70.633734,41.648933 L -70.640477,41.648914 L -70.650724,41.64613 L -70.64616,41.640704 L -70.646782,41.635028 L -70.640003,41.624616 L -70.646128,41.619716 L -70.646849,41.613502 L -70.651986,41.610184 L -70.652449,41.60521 L -70.64204,41.583066 L -70.640948,41.577325 L -70.642748,41.572385 L -70.64878,41.56987 L -70.653899,41.56516 L -70.655365,41.557498 L -70.654302,41.549926 L -70.658659,41.543385 L -70.666508,41.539958 L -70.668057,41.5329 L -70.676376,41.528986 L -70.683269,41.5329 L -70.686981,41.52949 L -70.685408,41.521335 L -70.673049,41.523648 L -70.668295,41.517953 L -70.662828,41.517953 L -70.656625,41.514779 L -70.643627,41.532357 L -70.633607,41.538254 L -70.611081,41.542989 L -70.601839,41.542082 L -70.59381,41.545098 L -70.580555,41.54424 L -70.573768,41.546867 L -70.559689,41.54833 L -70.546823,41.551411 L -70.538821,41.551256 L -70.528623,41.546721 L -70.522327,41.548965 L -70.493244,41.552044 L -70.476256,41.558502 L -70.461278,41.57182 L -70.45069,41.584992 L -70.450177,41.589043 L -70.445289,41.591815 L -70.442618,41.599053 L -70.437246,41.605329 L -70.426812,41.604719 L -70.408535,41.607345 L -70.400581,41.606382 L -70.379151,41.611361 L -70.369854,41.615888 L -70.360352,41.631069 L -70.351634,41.634687 L -70.338067,41.636338 L -70.329924,41.634578 L -70.321588,41.630508 L -70.316626,41.625448 L -70.300653,41.62951 L -70.300248,41.63246 L -70.29062,41.635196 L -70.28132,41.635125 L -70.274522,41.632927 L -70.26913,41.625742 L -70.269687,41.617775 L -70.267587,41.610912 L -70.259601,41.610863 L -70.25542,41.617541 L -70.25621,41.620698 L -70.245867,41.628479 L -70.219773,41.636469 L -70.207082,41.642503 L -70.198,41.644152 L -70.195193,41.647913 L -70.168336,41.651998 L -70.140877,41.650423 L -70.116506,41.655503 L -70.089238,41.662813 L -70.075974,41.663954 L -70.065702,41.662357 L -70.062114,41.664446 L -70.040515,41.667401 L -70.029346,41.667744 L -70.014211,41.671971 L -70.007011,41.671579 L -69.996359,41.667184 L -69.985322,41.658213 L -69.975719,41.653738 L -69.970489,41.645458 L -69.975916,41.638863 L -69.977478,41.630786 L -69.98556,41.619668 L -69.985211,41.613124 L -69.992215,41.603319 L -69.991306,41.588721 L -69.993879,41.576299 L -69.99885,41.565904 L -70.008615,41.557982 L -70.013606,41.551046 L -70.011229,41.543931 L -70.003861,41.540551 L -69.997682,41.54233 L -69.991977,41.547488 L -69.988215,41.554704 L -69.989363,41.581455 L -69.988412,41.594432 L -69.983183,41.608295 L -69.976053,41.611671 L -69.967192,41.611956 L -69.957775,41.620364 L -69.956801,41.629795 L -69.947531,41.651465 L -69.943966,41.65555 L -69.943728,41.664783 L -69.933746,41.678631 L -69.930418,41.691944 L -69.928393,41.708449 L -69.928652,41.74125 L -69.938024,41.809507 L -69.941352,41.822793 L -69.945314,41.845222 L -69.968598,41.9117 L -69.986085,41.949597 L -70.011898,41.98972 L -70.033501,42.017736 L -70.058531,42.040363 L -70.082624,42.054657 L -70.115968,42.067638 L -70.160166,42.078628 L -70.189305,42.082337 L -70.206899,42.0819 L -70.225626,42.078601 L -70.238087,42.072878 L -70.245385,42.063733 L -70.228617,42.053932 L -70.218701,42.045848 L -70.208741,42.030749 L -70.196312,42.021984 L -70.186708,42.019904 L -70.179601,42.021858 L -70.171008,42.028045 L -70.189461,42.024236 L -70.19662,42.025452 L -70.205889,42.032691 L -70.19497,42.036399 L -70.194456,42.03947 L -70.186816,42.05045 L -70.178468,42.05642 L -70.169781,42.059736 L -70.155415,42.062409 L -70.148608,42.060931 L -70.123043,42.051668 L -70.10806,42.043601 L -70.095595,42.032832 L -70.089578,42.024896 L -70.083775,42.012041 L -70.077421,41.985497 L -70.077225,41.943358 L -70.074006,41.93865 L -70.073039,41.899783 L -70.06901,41.884924 L -70.066371,41.886348 L -70.068986,41.896256 L -70.065723,41.899641 L -70.065671,41.911658 L -70.058947,41.917105 L -70.061617,41.923496 L -70.054962,41.927917 L -70.044995,41.930049 L -70.027392,41.929331 L -70.032024,41.924207 L -70.032305,41.920441 L -70.025553,41.911699 L -70.020089,41.907582 L -70.013369,41.905986 L -70.013606,41.90121 L -70.021212,41.900148 L -70.02424,41.896343 L -70.018497,41.891528 L -70.002922,41.890315 L -70.000188,41.886938 L -70.009013,41.876625 L -70.004486,41.838826 L -70.003842,41.80852 L -70.008462,41.800786 L -70.015508,41.796042 L -70.024734,41.787364 L -70.064314,41.772845 L -70.072457,41.772937 L -70.082994,41.768961 L -70.096061,41.766549 L -70.121978,41.758841 L -70.141533,41.760072 L -70.14991,41.756982 L -70.183804,41.75058 L -70.189254,41.751982 L -70.216073,41.742981 L -70.234648,41.732042 L -70.240777,41.727528 L -70.235304,41.722457 L -70.241087,41.714632 L -70.248368,41.711682 L -70.250238,41.707737 L -70.26855,41.712927 L -70.278019,41.709985 L -70.294277,41.710837 L -70.300552,41.708495 L -70.306541,41.710304 L -70.319804,41.709666 L -70.327362,41.711263 L -70.328503,41.703916 L -70.34205,41.701361 L -70.357309,41.702532 L -70.362871,41.705088 L -70.362586,41.711901 L -70.382123,41.721482 L -70.385546,41.72063 L -70.395243,41.725101 L -70.394245,41.729996 L -70.38412,41.730954 L -70.382836,41.734679 L -70.373139,41.732976 L -70.363299,41.732976 L -70.340795,41.730776 L -70.332496,41.731806 L -70.31924,41.728887 L -70.303262,41.727486 L -70.293193,41.725345 L -70.288168,41.729208 L -70.281774,41.72242 L -70.275248,41.725807 L -70.295561,41.734412 L -70.375341,41.738779 L -70.399988,41.741721 L -70.428309,41.747669 L -70.429816,41.748878 L -70.471552,41.761563 L -70.494048,41.773883 L -70.494519,41.778237 L -70.517411,41.790953 L -70.532656,41.804796 L -70.54103,41.815754 L -70.543168,41.824446 L -70.542065,41.831263 L -70.536264,41.834659 L -70.53255,41.840662 L -70.525567,41.85873 L -70.530494,41.865492 L -70.532084,41.889568 L -70.545949,41.907158 L -70.546386,41.916751 L -70.53787,41.920946 L -70.543975,41.926279 L -70.552941,41.929641 L -70.565974,41.936227 L -70.567767,41.939499 L -70.583572,41.950007 L -70.598078,41.947772 L -70.608166,41.940701 L -70.616491,41.940204 L -70.623945,41.943061 L -70.631573,41.953022 L -70.645546,41.975197 L -70.648686,41.972286 L -70.638466,41.95638 L -70.630321,41.947048 L -70.639757,41.949376 L -70.646785,41.949309 L -70.664482,41.960062 L -70.676257,41.972286 L -70.681357,41.979145 L -70.690986,41.981298 L -70.698981,41.987103 L -70.700025,41.998256 L -70.710034,41.999544 L -70.712204,42.007586 L -70.695809,42.013346 L -70.686798,42.012764 L -70.678798,42.00551 L -70.670934,42.007786 L -70.667512,42.01232 L -70.671666,42.02139 L -70.66936,42.037116 L -70.664373,42.041164 L -70.656054,42.042047 L -70.650874,42.046247 L -70.644337,42.045895 L -70.617788,42.017507 L -70.614223,42.011149 L -70.624205,42.006028 L -70.629857,42.001456 L -70.634426,42.004968 L -70.63395,42.012032 L -70.639655,42.010796 L -70.641199,42.005925 L -70.639137,41.993895 L -70.631919,41.992864 L -70.622542,42.002142 L -70.614046,42.006612 L -70.602704,42.002144 L -70.597892,42.00455 L -70.610983,42.015737 L -70.620277,42.027087 L -70.63086,42.036045 L -70.643208,42.050821 L -70.64819,42.068441 L -70.647349,42.076331 L -70.63848,42.081579 L -70.640169,42.088633 L -70.663931,42.108336 L -70.685315,42.133025 L -70.706264,42.163137 L -70.714301,42.168783 L -70.714761,42.176584 L -70.718707,42.184853 L -70.71595,42.190145 L -70.715895,42.195899 L -70.712993,42.204431 L -70.718089,42.208985 L -70.722269,42.207959 L -70.73056,42.21094 L -70.739145,42.219619 L -70.74723,42.221816 L -70.760158,42.235035 L -70.760683,42.241241 L -70.764757,42.244062 L -70.762773,42.250343 L -70.766338,42.254742 L -70.773944,42.254214 L -70.776307,42.248953 L -70.784402,42.248584 L -70.788724,42.25392 L -70.811742,42.262935 L -70.82466085670546,42.265934676602264 L -70.831075,42.267424 L -70.851093,42.26827 L -70.861807,42.275965 L -70.870873,42.285668 L -70.881242,42.300663 L -70.88268,42.310393 L -70.889456,42.310484 L -70.895862,42.305934 L -70.907556,42.307889 L -70.92392,42.305035 L -70.910372,42.299058 L -70.903954,42.301695 L -70.887317,42.297652 L -70.886842,42.292553 L -70.883039,42.288158 L -70.878285,42.278311 L -70.884702,42.277783 L -70.893972,42.281476 L -70.882801,42.26811 L -70.87876,42.258963 L -70.875529,42.256863 L -70.877753,42.248417 L -70.884269,42.245549 L -70.897893,42.256001 L -70.895879,42.259846 L -70.90752,42.262306 L -70.909421,42.268286 L -70.918236,42.271861 L -70.925897,42.26917 L -70.92483,42.263339 L -70.927227,42.257381 L -70.936164,42.256818 L -70.943172,42.252103 L -70.959495,42.245328 L -70.962402,42.248354 L -70.95727,42.254988 L -70.965811,42.257765 L -70.959361,42.262597 L -70.951803,42.260558 L -70.949284,42.274205 L -70.956219,42.270794 L -70.964885,42.268972 L -70.973357,42.263009 L -70.980714,42.265318 L -70.985278,42.264347 L -70.996002,42.266837 L -70.998341,42.272409 L -71.016138,42.279838 L -71.02231,42.288188 L -71.012769,42.290187 L -71.004616,42.294481 L -71.005206,42.300599 L -71.014251,42.300573 L -71.021523,42.294346 L -71.025837,42.299698 L -71.03905,42.300138 L -71.033373,42.290036 L -71.043697,42.292899 L -71.047616,42.303378 L -71.044832,42.309193 L -71.037293,42.310132 L -71.033099,42.316116 L -71.047426,42.323428 L -71.047648,42.328087 L -71.042333,42.330142 L -71.034704,42.328762 L -71.024151,42.333159 L -71.015664,42.330518 L -71.010177,42.337557 L -71.013895,42.34168 L -71.049673,42.356598 L -71.05048,42.368073 L -71.0526194076875,42.370697 L -71.04466,42.372189 L -71.042626,42.367188 L -71.037999,42.363753 L -71.029638,42.363352 L -71.0277,42.358625 L -71.007807,42.347145 L -71.003741,42.356037 L -70.994337,42.353909 L -70.98573982665495,42.35793432727413 L -70.98588530253986,42.35906119140992 L -70.988035,42.36188 L -70.997719,42.360562 L -71.00162484481761,42.36468215729044 L -71.00024,42.372418 L -70.988128,42.368512 L -70.972828,42.371928 L -70.97066,42.370579 L -70.975377,42.362286 L -70.96997055086327,42.355240215540434 L -70.960047,42.346506 L -70.953022,42.343973 L -70.953292,42.349698 L -70.958599,42.35551 L -70.96704085866678,42.35713288312109 L -70.969214,42.364254 L -70.966627,42.367599 L -70.971573,42.377381 L -70.972513,42.385042 L -70.968605,42.390112 L -70.979791,42.390561 L -70.985068,42.402041 L -70.990595,42.407098 L -70.987694,42.416696 L -70.982994,42.423996 L -70.97551,42.431584 L -70.959698,42.440667 L -70.9661335086343,42.44350587090375 L -70.962607,42.445105 L -70.943664,42.458338 L -70.938528,42.45409 L -70.940475,42.44376 L -70.939771,42.438472 L -70.935546,42.431532 L -70.937432,42.4258 L -70.936393,42.418097 L -70.927971,42.41713 L -70.928046,42.420663 L -70.919934,42.423587 L -70.910852,42.416516 L -70.905692,42.416197 L -70.902872,42.420053 L -70.913192,42.427697 L -70.925085,42.430299 L -70.928628,42.428834 L -70.93748,42.440088 L -70.934993,42.457896 L -70.927713,42.460892 L -70.921993,42.466696 L -70.908092,42.466896 L -70.894292,42.460896 L -70.887292,42.464896 L -70.886493,42.470197 L -70.879692,42.478796 L -70.857791,42.490296 L -70.847391,42.491496 L -70.841591,42.487596 L -70.835991,42.490496 L -70.83381,42.505868 L -70.847387,42.493891 L -70.853329,42.493015 L -70.851665,42.5002 L -70.842395,42.508786 L -70.845623,42.517475 L -70.857125,42.521492 L -70.864024,42.518597 L -70.87472,42.504931 L -70.88185,42.505632 L -70.886366,42.508611 L -70.885178,42.515269 L -70.877572,42.523502 L -70.86632,42.526729 L -70.864207,42.533429 L -70.867589,42.536288 L -70.878922,42.532144 L -70.882563,42.534887 L -70.875195,42.544344 L -70.868648,42.54852 L -70.861115,42.545128 L -70.85013,42.551144 L -70.845485,42.548196 L -70.836591,42.551279 L -70.823798,42.551866 L -70.815391,42.554195 L -70.804091,42.561595 L -70.794419,42.5645 L -70.777476,42.559357 L -70.763723,42.561678 L -70.757283,42.570455 L -70.74014,42.574807 L -70.730934,42.574487 L -70.729688,42.57151 L -70.710349,42.572568 L -70.708191,42.575575 L -70.698574,42.577393 L -70.692932,42.584214 L -70.688076,42.585946 L -70.680803,42.593464 L -70.684338,42.596155 L -70.676495,42.603329 L -70.676733,42.607527 L -70.665562,42.609102 L -70.658907,42.603504 L -70.657005,42.598255 L -70.65962,42.592131 L -70.666037,42.584082 L -70.664887,42.580436 L -70.654727,42.582234 L -70.64804,42.587549 L -70.646087,42.592205 L -70.635635,42.600243 L -70.632332,42.607876 L -70.632217,42.616795 L -70.627173,42.621338 L -70.620485,42.623032 L -70.61842,42.62864 L -70.605611,42.634898 L -70.594014,42.63503 L -70.591469,42.639821 L -70.595865,42.642514 L -70.591742,42.648508 L -70.597103,42.651468 L -70.595052,42.656071 L -70.598585,42.659876 L -70.607175,42.658556 L -70.623927,42.661635 L -70.621475,42.672739 L -70.624059,42.67691 L -70.620851,42.68684 L -70.627243,42.688418 L -70.630077,42.692699 L -70.636292,42.690293 L -70.64138,42.685053 L -70.647111,42.687857 L -70.654389,42.68169 L -70.663548,42.677603 L -70.666848,42.671722 L -70.679918,42.660336 L -70.68463,42.651813 L -70.691231,42.65579 L -70.705832,42.658245 L -70.719153,42.66375 L -70.730547,42.666563 L -70.732534,42.670237 L -70.744602,42.681308 L -70.752742,42.684329 L -70.764421,42.68565 L -70.776083,42.691264 L -70.775791,42.700669 L -70.770453,42.704824 L -70.772267,42.711064 L -70.792867,42.747118 L -70.80522,42.781798 L -70.80854,42.814942 L -70.812686,42.822871 L -70.817731,42.850613 L -70.81730322133912,42.87193014490074 L -70.829693,42.868725 L -70.836725,42.86468 L -70.847718,42.860867 L -70.88546459094526,42.88275414941626 L -70.903589,42.886777 L -70.914525,42.886647 L -70.929594,42.885032 L -70.948984,42.876191 L -70.967018,42.8688 L -71.016339,42.861682 L -71.031201,42.859087 L -71.04492,42.848667 L -71.05399017547452,42.83327578448549 L -71.064407,42.806289 L -71.115752,42.817693 L -71.132805,42.821476 L -71.166647,42.808881 L -71.18614,42.790935 L -71.181786,42.737341 L -71.22383,42.746484 L -71.237432,42.744895 L -71.24547482635694,42.74251582624477 L -71.25514329843625,42.736556311682556 L -71.267873,42.726026 L -71.279071,42.711246 L -71.294637,42.697042 L -71.351635,42.697901 L -71.449112,42.700338 L -71.514894,42.702084 L -71.699369,42.705818 L -71.750577,42.707481 L -71.92161,42.71191 L -71.981578,42.713232 L -72.111059,42.717206 L -72.262501,42.721061 L -72.355728,42.723655 L -72.429224,42.725837 L -72.458412,42.726933 L -72.598496,42.730918 L -72.721365,42.734101 L -72.809113,42.736581 L -72.864319,42.737838 L -73.006044,42.740725 L -73.117969,42.743043 L -73.264827,42.745851 L -73.322704,42.590209 L -73.374514,42.450267 L -73.400761,42.379029 L -73.443116,42.264018 L -73.483232,42.154932 L -73.50821,42.086134 L -73.497018,42.049624 L -73.487319,42.049525 Z M -70.95108,42.289726 L -70.94902,42.285946 L -70.942561,42.287522 L -70.937332,42.284916 L -70.935311,42.291927 L -70.926638,42.299204 L -70.929357,42.303321 L -70.935272,42.302101 L -70.9357,42.296523 L -70.941654,42.292214 L -70.95108,42.289726 Z M -70.977402,42.312294 L -70.971169,42.311171 L -70.965732,42.313469 L -70.95913,42.324572 L -70.953693,42.327921 L -70.957268,42.331661 L -70.967545,42.322895 L -70.970392,42.316245 L -70.977402,42.312294 Z M -70.989162,42.328304 L -70.988774,42.319212 L -70.983984,42.321317 L -70.983078,42.327156 L -70.989162,42.328304 Z M -71.016643,42.313731 L -71.011487,42.309299 L -71.003251,42.319524 L -71.006364,42.320911 L -71.016643,42.313731 Z M -70.234054,41.285653 L -70.22134,41.277039 L -70.170356,41.257428 L -70.118669,41.242351 L -70.100495,41.240553 L -70.083489,41.244775 L -70.05318,41.244026 L -70.015225,41.237964 L -70.001603,41.239916 L -69.974983,41.246528 L -69.964129,41.255382 L -69.960181,41.264546 L -69.960277,41.278731 L -70.02038,41.369006 L -70.04274,41.389311 L -70.049564,41.3879 L -70.045586,41.383598 L -70.034641,41.378994 L -70.024031,41.368613 L -70.024421,41.360622 L -70.031332,41.339332 L -70.046088,41.321651 L -70.062565,41.308726 L -70.082072,41.299093 L -70.104415,41.297327 L -70.109613,41.295379 L -70.12446,41.293851 L -70.186991,41.294513 L -70.193411,41.296726 L -70.199115,41.29619 L -70.205692,41.291246 L -70.202205,41.287975 L -70.195788,41.290654 L -70.191747,41.286546 L -70.193886,41.280295 L -70.20173,41.276544 L -70.211712,41.275651 L -70.21504,41.279581 L -70.234054,41.285653 Z M -70.276653,41.311283 L -70.276653,41.308631 L -70.268616,41.30177 L -70.252541,41.293033 L -70.24767,41.288641 L -70.239816,41.295823 L -70.24281,41.303384 L -70.246552,41.306186 L -70.26295,41.311452 L -70.276653,41.311283 Z M -70.30897,41.336057 L -70.307001,41.332391 L -70.29086,41.333663 L -70.292027,41.337788 L -70.304319,41.33842 L -70.30897,41.336057 Z M -70.8071,41.458576 L -70.805199,41.450381 L -70.799996,41.446167 L -70.790395,41.446535 L -70.776308,41.457664 L -70.767883,41.457685 L -70.761128,41.461112 L -70.755664,41.467146 L -70.76099,41.473002 L -70.756712,41.479057 L -70.747205,41.47781 L -70.73437,41.486891 L -70.712266,41.49063 L -70.704541,41.49681 L -70.707037,41.50149 L -70.693727,41.50683 L -70.689894,41.504529 L -70.681562,41.507269 L -70.674712,41.512347 L -70.678278,41.51733 L -70.687309,41.512347 L -70.699431,41.513593 L -70.702521,41.519644 L -70.710222,41.518915 L -70.730166,41.503176 L -70.737602,41.504261 L -70.747152,41.499889 L -70.754901,41.491016 L -70.761751,41.488076 L -70.767993,41.487788 L -70.775489,41.477098 L -70.784153,41.47796 L -70.792447,41.469289 L -70.798351,41.468806 L -70.802964,41.46487 L -70.802584,41.459288 L -70.8071,41.458576 Z M -70.832039,41.259495 L -70.825508,41.252277 L -70.804236,41.249458 L -70.801561,41.25841 L -70.814154,41.26228 L -70.819665,41.260064 L -70.832039,41.259495 Z M -70.835735,41.602349 L -70.838452,41.59646 L -70.829548,41.584598 L -70.823145,41.582865 L -70.81844,41.59084 L -70.823506,41.591748 L -70.824036,41.599554 L -70.830003,41.604539 L -70.835735,41.602349 Z M -70.838777,41.347209 L -70.819415,41.327212 L -70.802083,41.314207 L -70.775665,41.300982 L -70.768687,41.303702 L -70.766166,41.308962 L -70.768015,41.311959 L -70.764188,41.318706 L -70.747541,41.329952 L -70.733253,41.336226 L -70.709826,41.341723 L -70.691112,41.344297 L -70.648805,41.346973 L -70.579165,41.350007 L -70.495026,41.347509 L -70.482429,41.348401 L -70.463292,41.347479 L -70.452244,41.349828 L -70.448262,41.353651 L -70.449268,41.380422 L -70.446233,41.39648 L -70.450431,41.420703 L -70.463833,41.419145 L -70.473035,41.408757 L -70.471687,41.3962 L -70.484503,41.38629 L -70.490758,41.383634 L -70.501306,41.385391 L -70.502372,41.392005 L -70.506984,41.400242 L -70.517584,41.403769 L -70.528581,41.4051 L -70.538301,41.409241 L -70.547567,41.415831 L -70.553096,41.423952 L -70.555588,41.430882 L -70.552943,41.443394 L -70.553277,41.452955 L -70.56328,41.469127 L -70.567356,41.471208 L -70.57485,41.468259 L -70.583681,41.460713 L -70.592,41.455904 L -70.59913,41.455369 L -70.599843,41.461426 L -70.595803,41.468728 L -70.598444,41.481151 L -70.603555,41.482384 L -70.620025,41.474592 L -70.64215,41.462316 L -70.659652,41.460677 L -70.665083,41.456226 L -70.665918,41.451094 L -70.67186,41.442364 L -70.679255,41.440598 L -70.686881,41.441334 L -70.689924,41.436841 L -70.700964,41.43401 L -70.706561,41.419198 L -70.711493,41.41546 L -70.712432,41.40885 L -70.719709,41.404664 L -70.724366,41.398942 L -70.731859,41.397797 L -70.736979,41.391526 L -70.740428,41.382777 L -70.745066,41.376586 L -70.749086,41.375188 L -70.758637,41.366948 L -70.768901,41.353246 L -70.774974,41.349176 L -70.783291,41.347829 L -70.800289,41.3538 L -70.812309,41.355745 L -70.819852,41.353576 L -70.833802,41.353386 L -70.838777,41.347209 Z M -70.840375,41.452875 L -70.841564,41.449134 L -70.836868,41.441968 L -70.830868,41.441295 L -70.822883,41.445311 L -70.814468,41.445928 L -70.808288,41.449491 L -70.820595,41.458507 L -70.82268,41.456783 L -70.832508,41.457951 L -70.840375,41.452875 Z M -70.903598,41.430782 L -70.9055,41.425253 L -70.902347,41.421718 L -70.889371,41.422631 L -70.884405,41.421498 L -70.871216,41.422085 L -70.862663,41.424115 L -70.853725,41.428505 L -70.848563,41.432844 L -70.855824,41.440583 L -70.854636,41.4486 L -70.857103,41.450253 L -70.863668,41.442542 L -70.8803,41.437969 L -70.882207,41.432564 L -70.894566,41.432742 L -70.901011,41.434453 L -70.903598,41.430782 Z M -70.949185,41.415776 L -70.948996,41.409551 L -70.937155,41.412093 L -70.929039,41.415589 L -70.923341,41.422463 L -70.919085,41.423382 L -70.923088,41.430248 L -70.927475,41.431811 L -70.932356,41.425068 L -70.941099,41.421739 L -70.943735,41.415014 L -70.949185,41.415776 Z" fill="none" stroke=currentColor stroke-width="1" vector-effect="non-scaling-stroke"/>
</svg>