<?xml version="1.0"?>
<svg xmlns="http://www.w3.org/2000/svg" version="1.2" baseProfile="tiny" width="800" height="370" viewBox="0 0 800 370" stroke-linecap="round" stroke-linejoin="round">
<g id="state">
<path d="M 5.66 187.64 3.49 187.62 1 179.48 6.57 164.14 15.51 139.82 24.95 114.19 30.8 98.31 42.35 67.11 55.25 32.41 87.99 33.04 112.94 33.56 144.53 34.2 156.84 34.48 176.4 35.03 203.79 35.74 235.02 36.63 241.52 36.88 257.91 37.36 278.69 37.94 312.45 38.8 341.31 39.69 354.68 39.98 392.81 40.97 404.22 41.34 445.34 42.17 460.01 42.56 481.74 43.1 494.44 43.3 497.91 40.13 500.41 36.83 503.25 34.49 505.4 33.16 507.19 32.63 510.23 32.27 519.6 34.31 518.63 22.36 522.97 18.36 530.52 15.56 534.32 16.4 545.76 18.94 548.09 12.93 550.11 9.5 553.17 7.17 556.48 6.59 567.47 5.01 571.49 3.36 575.82 1.39 579.17 1.03 581.61 1 585.65 1.9 594.07 6.78 596.52 5.93 598.09 5.02 600.85 4.31 600.75 9.06 601.88 15.25 602.8 17.01 603.54 24.4 606.29 32.13 610.89 40.17 611.29 41.56 610.1 42.49 610.04 44.58 612.64 45.83 615.24 46.13 617.05 46.8 619.74 49.27 620.19 50.09 622.73 50.72 625.7 51.94 628.95 52.49 630.42 53.38 631.47 51.48 634.39 48.94 635.12 47.63 637.16 46.72 638.79 45.34 640.06 45.97 641.2 44.8 642.58 44.26 643.21 45.22 644.64 45.57 643.92 47.78 644.5 48.71 643.95 51.19 647.69 51.87 649.6 51.58 650.39 52.43 649.93 53.45 651.13 54.11 650.21 55.45 651.19 56.05 650.62 57.12 648.04 57.15 645.18 58.54 644.72 59.79 643.23 60.17 642.11 61.18 642.08 63.17 641.34 64.87 639.01 66.66 638.58 67.7 637.09 68.89 634.82 69.29 634.57 68.48 636 66.68 636.58 65.32 636.16 64.15 634.67 62.9 632.18 63.25 632.24 64.19 630.49 65.78 631.28 66.38 629.65 68.06 628.57 68.45 627.31 69.97 625.17 70.37 624.69 71.04 620.38 71.28 620.1 70.61 618.05 70.54 614.23 71.51 612.79 73.47 609.73 73.99 605.95 72.84 603.79 73.49 601.27 75.14 599.4 75.66 596.55 75.79 594.57 76.48 593.53 75.82 591.08 77.16 589.4 76.4 587.94 77.33 586.3 79.44 587.11 80.05 589.64 79.13 590.39 79.77 589.92 81.26 587.41 81.98 585.72 83.82 585.45 85.3 586.46 85.96 588.05 86.12 590.43 83.07 591.97 82.43 594.53 83.32 595.25 85.26 593.19 87.17 592.82 88.78 594.14 88.58 597.17 85.91 596.68 89.34 595.43 89.98 594.14 89.11 591.82 89.38 586.94 91.95 585.42 93.86 585.25 95.04 583.69 95.94 580.61 94.6 577.51 94.64 576.24 95.94 574.61 96.6 574.06 100.57 576.03 103.08 576.82 102.76 579.47 103.34 581.77 105.04 581.14 105.9 579.99 105.83 577.97 104.25 576.16 104.9 576.18 105.69 574.3 105.48 574.07 103.76 574.49 102.48 573.55 100.93 573.39 99.76 573.82 97.45 572.68 96.51 568.46 99.46 567.67 99.81 569.11 100.45 565.58 102.47 563.91 104.16 562.86 105.79 562.22 107.93 563.45 109.06 564.63 111.61 567.12 111.71 566.25 112.84 566.46 114.55 567.56 116.73 566.98 117.48 567.47 119.07 569.35 119.43 570.53 120.72 570.59 122 569.03 121.44 566.82 119.49 565.61 117.92 566.66 116.07 566.18 115.77 562.77 116.53 560.07 115.66 559.76 117.38 560.63 118.3 562.79 118.01 563.27 118.64 563.3 118.89 561.38 119.79 559.29 119.31 558.38 121.29 553.95 118.73 553.51 117.68 551.65 117.59 550.62 116.82 550.17 115.71 548.39 116.04 548.87 116.63 549.05 119.19 557.02 122.51 557.85 123.43 556.63 125 554.74 124.41 552.39 125.39 550.68 125.08 549.5 125.54 549.55 126.58 552.74 128.21 551.81 129.54 550.13 129.75 549.51 131.05 550.38 133.39 552.68 134.02 551.42 131.77 554.36 131.87 555.32 133.06 556.94 131.67 558.96 131.67 559.09 133.03 557.27 133.99 555.15 134.44 556.52 136.3 560.49 137.95 561.01 139.19 563.4 139.75 564.42 139.53 566.06 140.05 567.95 138.72 569.88 138.31 571.43 137.55 570.87 140.59 569.18 140.14 567.74 141.22 569.65 141.84 568.5 143.31 569.15 143.99 572.79 142.48 574.35 141.43 576.34 141.3 576.88 139.97 576.64 138.67 578.35 138.07 580.31 138.87 580.74 140.2 583.33 140.75 582.88 141.61 585.92 143.94 587.37 143.3 587.87 141.42 587.15 140.95 586.25 138.91 583.76 135.93 585.82 136.75 587.25 136.64 586.19 134.44 585.35 133.46 585.24 132.33 581.53 131.42 580.1 132.01 577.08 130.68 580.73 130.04 583.34 130.48 584.76 129.47 586.27 129.49 586.59 131.65 588.91 135 590.93 137.16 593.32 138.88 597.78 139.06 599.21 139.4 602.09 140.06 607.22 142.07 608.18 143.26 609.99 143.18 610.51 142.01 612.21 141.89 613 142.87 612.56 144.27 613.47 144.9 613.59 146.28 616.47 149.23 618.27 149.72 620.18 151.66 622.03 152.32 622.96 152.09 624.1 153.11 623.45 155.01 623.44 156.29 622.83 157.47 623.71 159.31 623.81 161.05 625.6 162.31 630.27 169.02 635.04 174.53 640.33 178.92 640.71 180.49 638.73 181.66 638.55 183.42 639.66 187.35 642.41 190.64 644.77 192.64 646.84 195.17 649.76 197.66 648.69 198.2 646.16 197.2 644.26 198.2 642.17 200.27 640.56 200.04 640.1 197.36 640.45 196.27 641.72 196 641.61 197.57 642.63 198.35 643.89 197.33 646.12 196.19 645.32 194.77 639.4 188.45 637.95 188.37 636.79 189.3 634.94 189.5 633.83 190.4 633.31 193.91 634.24 195.93 633.48 196.94 631.72 197.45 629.94 195.83 627.93 195.7 624.28 196.99 624.76 198.78 626.99 199.07 627.22 201.55 629.01 202.85 631.15 203.33 632.29 204.86 634.91 207.58 638.86 209.98 640.43 209.96 642.53 210.48 640.71 208.4 638.43 204.86 639.13 204.21 642.25 209.15 643.95 211.37 645.61 212.01 647.47 211.9 649.72 210.32 652.95 209.82 656.47 212.16 656.87 212.89 659.78 214.36 661.78 215.11 663.14 216.3 661.24 217.23 661.34 219.37 664.43 223.29 664.78 228.66 665.88 230.17 664.32 234.2 663.5 235.53 662.2 236.29 661.96 237.81 662.43 239.75 664.3 242.19 667.7 245.28 672.8 248.11 672.91 249.08 677.92 251.83 687.22 254.66 687.56 254.93 693.87 256.25 699.37 256.91 717.15 257.88 721.68 259.8 720.23 260.55 718.8 259.04 717.68 259.9 715.44 259.43 711.87 259.11 708.92 258.46 707.07 258.69 702.05 258.2 699.86 258.2 697.7 257.82 697.41 258.65 695.15 258.87 694.93 259.96 697.09 260.95 697.86 260.76 702.21 262.9 702.15 264.42 703.39 264.99 706.79 265.25 709.81 264.68 710.06 263.04 711.75 263.4 714.7 263.26 716.04 263.66 717.44 263.14 721.06 263.33 723.17 262.67 727.26 263.83 727.67 262.95 729.3 262.29 730.58 260.55 729.36 259.42 730.73 258.41 734.87 255.97 740.85 253.96 742.06 254.28 749.62 252.85 751.49 252.16 755.85 252.44 761.62 250.72 764.54 250.18 766.89 249.29 768.7 249.31 777.52 246.08 779.58 244.14 781.15 243.09 782.18 241.36 782.04 234.61 781.03 226.18 783 223.88 782.39 223.13 778.91 222.86 777.63 221.78 778.31 220.94 780 220.7 780.06 219.63 778.56 219.28 777.34 218.36 775.84 216.41 775.9 215.57 776.93 214.43 773.01 214.27 770.79 214.75 769.3 215.73 769.9 217.16 768.4 218.37 768.39 221.05 767.66 221.8 768.24 224.01 767.65 224.33 766.76 221.02 766.54 212.35 765.82 211.3 765.78 201.91 764.36 195.99 763.07 193.13 761.73 191.36 758.95 188.96 755.61 187.16 749.91 185.09 748.39 184.77 745.19 185.36 743.25 186.1 741.39 187.43 739.69 189.88 739.58 190.56 737.14 191.39 739.21 193 740.8 193.27 744.92 192.43 743 193.8 741.42 194.24 739.28 193.78 736.51 191.82 734.29 188.46 732.08 186.65 728.34 184.47 729.96 182.43 732.74 181.16 736.92 180.42 740.84 180.32 747.33 181.15 757.19 183.6 764.62 186.49 769.99 189.68 775.57 194.72 780.39 200.97 786.14 209.91 790.04 218.36 795.23 233.18 796.11 238.18 796.85 241.14 798.94 256.36 799 263.67 798.55 267.35 797.81 270.32 795.58 273.4 795.53 275.46 794.73 276.37 792.67 281.2 792.45 283.3 790.35 285.18 788.38 285.24 786.79 285.99 785.62 289.08 785.41 291.98 785.66 297.94 784.83 299.55 783.55 300.7 782.18 301.1 780.53 300.34 780 298.76 781.12 297.21 783.29 295.44 784.4 293.13 784.98 290.36 784.77 287.1 786.33 284.92 786.26 283.46 788.06 280.98 788.41 279.18 789.62 277.71 788.45 275.86 786.31 274.87 783.85 272.87 781.47 271.89 779.87 271.8 776.5 272.74 774.01 272.82 769.19 273.48 768.39 273.94 766.1 273.59 763.15 273.84 757.07 275.47 751.63 276.6 745.51 276.25 739.53 277.16 738.9 278 736.88 278.37 734.05 279.71 728.23 281.5 725.92 283.23 726.1 283.93 725.17 285.42 723.39 285.41 722.92 283.88 723.04 282.11 721.84 280.5 720.33 280.01 718.25 280 716.11 280.61 716.02 281.27 712.46 282.17 711.35 281.04 709.49 280.14 707.68 279.74 704.65 280.11 702.71 280.92 700.59 284.3 698.52 285.31 693.74 286.42 691.97 286.21 687.89 286.79 685.57 286.66 684.37 288.05 683.78 289.67 682.69 290.29 682.57 291.19 680.21 294.13 676.87 297.09 673.09 298.53 666.6 299.22 665.2 299.72 662.93 298.71 661.14 298.68 658.27 299.36 655.14 299.69 653.62 300.27 650.67 300.08 648.88 300.75 646.82 300.55 641.8 301.61 639.56 302.92 636.67 306.84 635.28 306.13 634.06 306.13 633 304.86 630.25 305.38 629.9 303.56 630.73 302.8 632.26 303.67 634.12 302.8 634.46 301.23 636.21 300.46 637.18 299.01 636.95 297.32 637.27 295.61 638.41 294.56 639.76 294 640.16 292.9 639.92 291.62 637.6 286.68 637.7 285.57 638.84 284.83 639.01 283.45 640.37 282.36 638.86 280.04 639 278.77 637.98 277.56 640.26 276.94 641.77 276.94 644.71 275.08 642.22 273.65 640.21 274.59 639.1 274.59 637.71 273.79 637.31 272.89 638.45 272.17 641.95 272.14 641.99 270.99 641.19 270.01 639.21 269.7 636.51 269.68 636.44 269.02 639.04 266.94 641.11 266.3 642.27 266.38 644.65 265.43 643.37 262.66 641.75 262.4 640.43 261.68 638.41 261.53 638.04 262.56 635.81 264.42 632.78 267.48 632.32 267.19 636.76 262.57 635.02 261.94 631.63 259.44 630.14 259.52 629.61 260.27 627.65 259.04 625.62 259.09 623.63 258.33 622.82 257.59 621.13 258.26 622.35 259.4 622.33 260.38 620.64 260.45 622.25 262.66 624.31 263.99 623.82 265.17 621.93 264.7 620.87 265.01 621.82 266.44 623.11 266.89 622.9 267.75 623.64 269.79 622.2 269.68 620.44 268.2 618.17 267.39 617.11 266 614.66 266.82 616.05 269.92 613.98 269.88 612.76 270.71 614.35 272.93 614.02 274.2 614.28 276.05 613.08 276.09 612.18 277.04 611.54 278.67 609.9 276.53 606.75 275.98 605.77 276.49 602.7 274.83 599.89 275.62 599.52 276.93 603.66 278.67 604.66 280.77 604.47 281.26 602.41 282.3 600.76 282.62 599.78 281.72 598.51 282.35 596.84 282.38 594.86 281.38 591.41 282.47 592.42 282.98 592.74 284.73 593.64 285.56 594.01 287.18 595.07 288.61 594.14 288.87 592.06 291.48 591.28 289.04 590.51 288.38 590.67 286.99 589.34 284.57 589.47 282.79 588.51 281.64 584.82 280.51 583.62 282.47 580.45 282.59 579.47 283.55 581.4 285.53 582.72 289.48 581.96 289.72 580 288.85 578.72 286.18 577.43 284.65 575.62 284.89 575.46 286.31 576.31 289.17 575.43 291.37 574.03 292.86 572.95 291.96 572.63 290.96 571.21 291.28 571.93 293.92 573.98 295.59 574.71 299.27 576.06 301.27 573.1 301.19 572.09 301.76 571.73 303.49 570.18 303.99 570.68 306.1 569.8 306.69 568.74 303.52 567.57 303.08 564.55 303.99 563.54 305.58 564.23 307.09 563.7 308.15 561.48 307.63 559.39 307.48 555.81 308.16 555.14 309.17 552.2 310.35 551.57 311.88 552.63 313.08 551.57 314.35 550.93 312.24 550.98 310.69 549.29 309.54 544.36 308.16 541.03 308.06 539.38 309.2 536.31 309.58 533.25 310.7 532.83 305.21 530.78 289.24 529.28 287.02 528.48 285 528.87 282.52 529.96 281.48 530.56 274.46 520.86 272.63 520.93 271.96 516.52 271.08 510.53 263.84 509.56 262.63 501.93 253.94 486.9 247.56 486.69 245.87 485.64 244.51 484.22 243.91 484.48 241.37 482.66 238.1 483.17 237.09 485.35 235.31 483.76 233.31 485.66 229.3 484.13 225.02 484.6 221.28 475.09 222.41 475.1 194.49 471.72 194.5 448.88 194.84 442.49 195.31 428.36 195.64 424.87 195.72 388.19 196.56 381.97 196.88 381.64 193.44 371.6 193.33 358.77 193.2 339.96 192.68 321.19 192.52 305.28 191.87 261.67 191.51 249.84 191.33 234.64 191.02 227.46 191.05 218.71 190.97 209.52 191.94 207.03 193.15 201.86 193.07 201.68 191.75 194.59 191.54 187.17 190.83 181.3 190.44 168.7 190.57 168.39 191.24 169.44 192.38 166.39 196.92 166.29 197.95 164.51 198.15 155.07 199.19 155.8 190.49 142.26 190.28 118.96 190.15 106.08 189.92 85.93 189.29 62.27 188.63 38.38 187.9 19.29 187.44 5.66 187.64 Z M 571.03 134.09 573.13 133.54 574.45 132.58 574.55 131.33 575.87 131.06 576.47 131.98 574.54 133.6 574.09 135.16 572.93 134.58 571.49 134.94 571.03 134.09 Z M 565.16 129.06 566.72 128.18 567.36 126.7 569.65 124.74 570.44 125.58 569.23 126.32 567.76 128.8 566.55 129.31 565.16 129.06 Z M 562.54 125.49 563.89 125.75 563.69 127.05 562.62 127.52 562.54 125.49 Z M 556.41 128.74 558.7 127.14 559.4 127.45 557.56 129.73 556.41 128.74 Z M 730.86 357.92 735.1 359.27 735.84 360.15 738.07 359.95 739.82 359.11 740.29 357.72 739.39 356.8 737.96 357.4 737.19 356.67 738.65 355.57 739.92 355.45 741.35 355.94 755.29 356.09 758.6 355.75 759.76 355.31 764.74 354.92 769.09 352.77 772.76 349.89 776.05 345.95 777.59 341.21 777.68 339.42 775.32 337.11 772.88 336.08 771.99 335.12 773.51 334.81 778.49 339.34 791.89 359.46 791.91 362.62 791.03 364.66 788.61 366.64 782.68 368.11 779.64 368.55 771.18 367.2 764.43 367.03 760.64 367.97 756.58 367.57 745.06 364.21 733.7 359.84 730.86 357.92 Z M 721.37 352.2 724.42 352.17 728.08 353.34 728.91 353.96 729.58 355.65 727.83 357.25 726.74 356.27 723.16 354.32 721.37 352.79 721.37 352.2 Z M 714.16 346.68 715.2 346.15 717.94 346.3 718.2 347.21 714.6 347.5 714.16 346.68 Z M 603.12 319.37 604.13 319.21 604.04 317.97 605.07 317.09 606.39 316.98 608.24 315.05 610.17 315.24 611.84 312.86 613.23 312.79 614.76 312.14 616.49 310.16 618.61 309.19 620.27 309.43 624.72 305.92 626.43 305.76 627.12 307.11 629.83 307.38 631.84 306.27 632.63 307.38 631.11 308.51 629.25 309.13 628.39 308.61 625.43 309.8 625.98 310.85 624.26 312.22 619.33 313.06 616.47 315.08 614.35 314.8 613.4 316.15 614.59 317.46 613.37 318.8 611.86 319.57 609.99 319.57 606.85 322.05 604.71 322.14 603.55 321.2 603.12 319.37 Z M 597.56 363.75 600.32 363.62 601.55 363.13 604.36 363.99 603.76 365.99 599.02 365.36 597.56 363.75 Z M 596.74 287.32 598.02 286.83 599.35 287.94 599.46 289.68 600.59 289.89 599.55 291.66 598.12 291.28 596.13 288.63 596.74 287.32 Z M 596.06 344.19 597.17 342.82 600.28 342.78 601.96 342.29 604.64 342.73 608.43 344.06 610.28 343.76 611.64 342.85 613.92 339.79 616.05 337.96 616.95 337.65 617.98 336.27 618.75 334.32 619.89 332.92 621.56 332.66 622.6 331.39 624.22 330.45 624.43 328.98 625.53 328.15 626.78 324.85 629.24 324.21 629.92 323.21 631.62 323.38 633.27 322.98 634.59 321.04 634.78 319.89 635.99 318.9 639.89 318.54 644.82 315.8 648.5 314.06 649.63 314.34 650.22 317.11 649.32 318.73 649.48 320.08 651.07 319.97 652.93 318.89 654.89 317.21 656.56 316.55 657.47 317.02 659.7 320.62 659.78 322.75 659.19 325.54 659.74 327.09 660.98 328.9 663.04 330.37 665.21 331.29 667.66 331.59 670.02 332.37 671.05 334.21 671.29 335.68 673.64 336.08 675.03 335.48 677.89 333.27 677.59 330.47 679.64 328.16 682.63 327.81 683.56 333.21 682.89 336.79 683.11 342.76 682.23 343.61 679.76 344.13 675.5 343.93 672.69 344.13 653.93 343.57 638.41 344.25 628.98 344.84 624.81 345.42 619.58 346.64 616.4 348.04 612.69 350.55 611.83 352.05 612.25 352.72 611.68 353.89 610.13 354.5 604.24 351.55 600.38 348.65 596.06 344.19 Z M 595.7 320.64 597.46 319.51 599.65 319.77 600.11 319.38 602.86 321.39 601.48 322.19 599.6 322.33 597.82 323.22 596.49 323.07 595.44 321.47 595.7 320.64 Z M 581.61 325.57 582.19 324.75 583.62 325.13 586.38 325.17 586.8 323.96 590.51 322.94 591.98 321.22 592.53 321.59 592.26 323.38 593.88 325.11 592.73 326.07 590.74 327.05 588.83 327.5 585.89 327.63 584.78 327.38 581.89 327.59 581.19 326.8 581.61 325.57 Z M 571.45 328.91 572.66 329.08 573.25 327.58 575.2 326.84 576.29 325.34 577.27 325.68 578.16 327.21 577.21 327.42 575.94 328.95 574.13 329.73 571.49 330.3 571.45 328.91 Z" fill-rule="evenodd" fill="none" stroke="currentColor" stroke-width="1"/>
</g>
</svg>