<?xml version="1.0"?>
<svg width="200" height="200" xmlns="http://www.w3.org/2000/svg" version="1.2" baseProfile="tiny" viewBox="-64.000 -218.000 928.000 928.000" stroke-linecap="round" stroke-linejoin="round">
<g id="state">
<path vector-effect="non-scaling-stroke" d="M 5.39 246.25 3.23 246.17 1 235.22 7.03 214.82 16.68 182.47 26.83 148.35 33.11 127.22 45.45 85.7 59.18 39.52 91.47 40.99 116.08 42.14 147.25 43.52 159.4 44.09 178.7 45.12 205.72 46.43 236.54 48 242.96 48.39 259.13 49.21 279.64 50.18 312.97 51.6 341.47 52.97 354.67 53.44 392.32 54.91 403.59 55.43 444.21 56.6 458.7 57.12 480.16 57.82 492.71 58.05 496.13 53.8 498.59 49.38 501.38 46.23 503.5 44.44 505.27 43.73 508.26 43.25 517.52 45.94 516.5 29.95 520.77 24.57 528.19 20.78 531.95 21.89 543.25 25.24 545.5 17.18 547.46 12.57 550.46 9.44 553.72 8.65 564.54 6.46 568.49 4.23 572.73 1.56 576.03 1.06 578.43 1 582.42 2.17 590.76 8.65 593.16 7.49 594.7 6.27 597.41 5.29 597.37 11.66 598.54 19.93 599.47 22.29 600.28 32.18 603.09 42.51 607.71 53.23 608.13 55.09 606.96 56.34 606.92 59.15 609.5 60.81 612.08 61.18 613.88 62.06 616.57 65.35 617.02 66.44 619.53 67.26 622.48 68.87 625.71 69.57 627.17 70.75 628.19 68.19 631.03 64.77 631.74 63 633.75 61.76 635.33 59.91 636.6 60.73 637.71 59.16 639.07 58.42 639.71 59.7 641.12 60.15 640.44 63.12 641.03 64.36 640.52 67.68 644.22 68.56 646.11 68.15 646.9 69.28 646.46 70.66 647.65 71.53 646.76 73.33 647.74 74.12 647.2 75.56 644.64 75.62 641.84 77.52 641.4 79.2 639.93 79.72 638.83 81.09 638.83 83.75 638.13 86.04 635.85 88.46 635.43 89.85 633.97 91.46 631.73 92.01 631.47 90.93 632.86 88.51 633.42 86.68 632.98 85.11 631.5 83.46 629.04 83.95 629.11 85.2 627.4 87.36 628.18 88.16 626.6 90.42 625.54 90.95 624.31 92.99 622.19 93.56 621.73 94.46 617.46 94.81 617.18 93.93 615.15 93.85 611.38 95.18 609.98 97.81 606.95 98.53 603.2 97.03 601.07 97.91 598.59 100.14 596.74 100.85 593.92 101.05 591.96 101.99 590.93 101.11 588.52 102.93 586.85 101.93 585.41 103.19 583.81 106.02 584.62 106.83 587.11 105.58 587.86 106.43 587.41 108.43 584.94 109.41 583.27 111.88 583.03 113.87 584.03 114.75 585.61 114.95 587.94 110.85 589.46 109.98 592 111.16 592.74 113.75 590.71 116.32 590.36 118.47 591.67 118.2 594.64 114.6 594.19 119.19 592.96 120.07 591.67 118.92 589.38 119.29 584.56 122.76 583.08 125.34 582.92 126.92 581.38 128.13 578.31 126.36 575.24 126.44 573.99 128.18 572.39 129.08 571.87 134.4 573.85 137.75 574.63 137.31 577.27 138.07 579.57 140.33 578.95 141.49 577.81 141.4 575.78 139.3 574 140.19 574.02 141.24 572.15 140.97 571.91 138.67 572.32 136.96 571.37 134.89 571.2 133.31 571.61 130.23 570.47 128.96 566.31 132.94 565.53 133.42 566.96 134.26 563.48 137 561.84 139.27 560.81 141.46 560.19 144.33 561.42 145.83 562.61 149.25 565.08 149.37 564.23 150.89 564.45 153.17 565.56 156.08 565 157.09 565.49 159.21 567.36 159.68 568.55 161.41 568.62 163.12 567.06 162.37 564.84 159.78 563.63 157.68 564.66 155.2 564.18 154.8 560.8 155.84 558.11 154.69 557.82 157 558.69 158.23 560.83 157.82 561.31 158.66 561.35 159 559.45 160.21 557.37 159.59 556.48 162.24 552.06 158.84 551.62 157.43 549.77 157.32 548.74 156.3 548.28 154.81 546.52 155.27 547 156.05 547.2 159.47 555.14 163.88 555.97 165.11 554.77 167.22 552.89 166.44 550.56 167.77 548.86 167.36 547.69 167.98 547.75 169.37 550.93 171.54 550.01 173.33 548.34 173.62 547.74 175.36 548.62 178.48 550.91 179.32 549.64 176.32 552.57 176.43 553.53 178.02 555.13 176.16 557.14 176.14 557.28 177.96 555.48 179.25 553.37 179.86 554.75 182.35 558.71 184.54 559.24 186.2 561.62 186.93 562.63 186.64 564.26 187.31 566.13 185.52 568.05 184.97 569.58 183.94 569.05 188.02 567.37 187.42 565.95 188.87 567.85 189.69 566.72 191.67 567.37 192.57 570.98 190.53 572.52 189.11 574.5 188.93 575.02 187.15 574.78 185.41 576.47 184.59 578.43 185.65 578.86 187.43 581.45 188.15 581.01 189.3 584.06 192.39 585.49 191.53 585.97 189 585.25 188.38 584.33 185.66 581.83 181.69 583.89 182.77 585.31 182.61 584.24 179.67 583.38 178.37 583.27 176.85 579.57 175.67 578.16 176.46 575.14 174.7 578.76 173.82 581.36 174.39 582.77 173.02 584.27 173.04 584.61 175.94 586.94 180.4 588.97 183.28 591.36 185.56 595.8 185.78 597.23 186.21 600.1 187.08 605.23 189.73 606.2 191.32 607.99 191.19 608.5 189.62 610.19 189.44 610.99 190.75 610.57 192.63 611.48 193.46 611.61 195.31 614.51 199.23 616.31 199.87 618.24 202.45 620.09 203.32 621.01 203.01 622.16 204.36 621.54 206.91 621.54 208.63 620.94 210.21 621.84 212.67 621.96 215 623.76 216.67 628.5 225.61 633.33 232.94 638.67 238.76 639.06 240.87 637.11 242.45 636.94 244.81 638.1 250.06 640.9 254.44 643.28 257.09 645.38 260.46 648.33 263.76 647.27 264.49 644.73 263.19 642.85 264.54 640.79 267.33 639.18 267.04 638.69 263.45 639.01 262 640.28 261.61 640.2 263.72 641.22 264.76 642.47 263.38 644.68 261.83 643.86 259.94 637.87 251.53 636.41 251.44 635.27 252.7 633.42 252.99 632.33 254.21 631.86 258.9 632.81 261.6 632.06 262.96 630.32 263.66 628.51 261.51 626.51 261.36 622.87 263.11 623.38 265.51 625.61 265.87 625.87 269.2 627.67 270.91 629.82 271.54 630.98 273.57 633.64 277.19 637.61 280.37 639.18 280.33 641.29 281 639.44 278.24 637.12 273.51 637.81 272.64 640.99 279.22 642.72 282.18 644.39 283.01 646.24 282.85 648.47 280.71 651.69 280.01 655.25 283.11 655.66 284.08 658.59 286.02 660.6 287 661.98 288.57 660.09 289.85 660.22 292.71 663.37 297.92 663.81 305.11 664.93 307.11 663.43 312.52 662.62 314.32 661.34 315.35 661.12 317.39 661.62 319.98 663.53 323.23 666.98 327.32 672.14 331.06 672.26 332.35 677.33 335.97 686.71 339.64 687.05 340 693.4 341.69 698.92 342.5 716.78 343.56 721.35 346.06 719.91 347.1 718.45 345.09 717.34 346.26 715.08 345.65 711.5 345.28 708.53 344.45 706.68 344.79 701.64 344.2 699.44 344.23 697.26 343.75 696.99 344.86 694.73 345.18 694.53 346.64 696.71 347.95 697.47 347.68 701.88 350.49 701.84 352.52 703.1 353.27 706.52 353.57 709.54 352.77 709.76 350.57 711.46 351.02 714.42 350.79 715.77 351.31 717.16 350.59 720.8 350.8 722.91 349.89 727.02 351.38 727.43 350.19 729.04 349.29 730.3 346.93 729.05 345.44 730.4 344.07 734.51 340.74 740.46 337.97 741.69 338.37 749.23 336.34 751.09 335.39 755.46 335.68 761.22 333.29 764.12 332.52 766.46 331.29 768.28 331.29 777.05 326.81 779.06 324.18 780.61 322.74 781.6 320.41 781.3 311.37 780.09 300.11 782.01 296.99 781.38 296 777.9 295.69 776.59 294.28 777.25 293.13 778.94 292.79 778.97 291.36 777.46 290.91 776.22 289.7 774.67 287.12 774.72 285.99 775.72 284.45 771.79 284.3 769.58 284.97 768.12 286.32 768.75 288.22 767.28 289.87 767.33 293.45 766.62 294.48 767.25 297.42 766.67 297.86 765.7 293.44 765.29 281.84 764.55 280.45 764.29 267.87 762.75 259.97 761.39 256.16 760.01 253.81 757.19 250.64 753.81 248.29 748.08 245.62 746.56 245.2 743.38 246.05 741.46 247.07 739.63 248.88 737.98 252.18 737.88 253.1 735.47 254.24 737.57 256.37 739.17 256.71 743.25 255.51 741.37 257.39 739.8 257.99 737.65 257.41 734.85 254.83 732.56 250.36 730.32 247.98 726.55 245.11 728.13 242.35 730.87 240.61 735.02 239.56 738.93 239.37 745.43 240.37 755.31 243.5 762.79 247.25 768.22 251.43 773.91 258.08 778.86 266.36 784.82 278.24 788.92 289.48 794.47 309.22 795.48 315.9 796.29 319.85 798.76 340.19 799 349.97 798.64 354.91 797.97 358.89 795.81 363.07 795.81 365.82 795.03 367.06 793.07 373.56 792.9 376.38 790.84 378.93 788.86 379.05 787.28 380.09 786.18 384.24 786.04 388.12 786.43 396.1 785.63 398.27 784.38 399.83 783 400.39 781.33 399.41 780.76 397.29 781.84 395.2 783.99 392.8 785.05 389.68 785.56 385.96 785.28 381.61 786.8 378.65 786.69 376.7 788.44 373.35 788.74 370.93 789.92 368.94 788.71 366.49 786.53 365.2 784.02 362.56 781.61 361.29 780 361.2 776.63 362.52 774.13 362.67 769.32 363.63 768.52 364.27 766.22 363.83 763.25 364.22 757.19 366.5 751.76 368.11 745.6 367.74 739.61 369.05 739 370.18 736.97 370.7 734.16 372.55 728.35 375.02 726.07 377.37 726.26 378.31 725.35 380.32 723.56 380.33 723.06 378.29 723.15 375.91 721.91 373.78 720.38 373.15 718.3 373.16 716.16 374 716.08 374.89 712.52 376.15 711.39 374.65 709.5 373.46 707.67 372.96 704.64 373.5 702.7 374.6 700.63 379.16 698.57 380.54 693.79 382.09 692 381.83 687.92 382.66 685.58 382.51 684.4 384.4 683.83 386.57 682.74 387.41 682.64 388.62 680.32 392.58 677.01 396.59 673.22 398.57 666.71 399.56 665.31 400.25 663.01 398.92 661.21 398.89 658.34 399.84 655.19 400.32 653.67 401.12 650.7 400.89 648.91 401.81 646.83 401.56 641.79 403.03 639.56 404.81 636.7 410.09 635.3 409.15 634.07 409.16 632.99 407.47 630.23 408.19 629.85 405.76 630.67 404.74 632.23 405.89 634.08 404.7 634.41 402.59 636.16 401.55 637.12 399.59 636.86 397.33 637.16 395.04 638.3 393.62 639.64 392.86 640.03 391.38 639.77 389.67 637.37 383.08 637.46 381.6 638.6 380.6 638.74 378.74 640.1 377.26 638.55 374.17 638.67 372.48 637.63 370.87 639.92 370.01 641.43 369.99 644.36 367.47 641.83 365.58 639.83 366.87 638.72 366.88 637.31 365.82 636.89 364.62 638.04 363.64 641.55 363.57 641.57 362.03 640.75 360.72 638.76 360.33 636.05 360.33 635.97 359.45 638.56 356.63 640.63 355.76 641.79 355.85 644.16 354.56 642.85 350.85 641.21 350.53 639.88 349.58 637.85 349.4 637.49 350.78 635.28 353.29 632.28 357.42 631.81 357.04 636.21 350.8 634.46 349.98 631.02 346.66 629.53 346.78 629.01 347.79 627.03 346.17 624.99 346.26 622.98 345.26 622.16 344.27 620.47 345.18 621.72 346.7 621.7 348.01 620.01 348.13 621.65 351.07 623.74 352.82 623.26 354.41 621.36 353.8 620.3 354.23 621.27 356.13 622.56 356.73 622.37 357.87 623.14 360.59 621.68 360.47 619.91 358.5 617.62 357.43 616.54 355.59 614.09 356.7 615.52 360.84 613.44 360.81 612.23 361.93 613.85 364.89 613.53 366.59 613.81 369.07 612.61 369.14 611.72 370.42 611.1 372.6 609.42 369.75 606.25 369.03 605.27 369.73 602.17 367.53 599.36 368.61 599 370.36 603.18 372.66 604.2 375.46 604.02 376.13 601.96 377.53 600.31 377.98 599.32 376.78 598.05 377.64 596.36 377.68 594.37 376.37 590.91 377.84 591.93 378.52 592.27 380.87 593.18 381.97 593.57 384.14 594.65 386.04 593.71 386.4 591.66 389.9 590.84 386.65 590.07 385.77 590.21 383.9 588.86 380.68 588.96 378.29 587.99 376.76 584.27 375.27 583.09 377.91 579.9 378.09 578.92 379.38 580.89 382.03 582.25 387.3 581.48 387.63 579.51 386.47 578.19 382.9 576.88 380.87 575.07 381.2 574.93 383.11 575.8 386.92 574.93 389.87 573.54 391.89 572.44 390.69 572.12 389.35 570.69 389.78 571.44 393.32 573.51 395.54 574.28 400.46 575.65 403.13 572.68 403.05 571.67 403.82 571.32 406.14 569.76 406.81 570.29 409.63 569.4 410.43 568.31 406.19 567.13 405.61 564.1 406.85 563.1 408.98 563.81 411 563.28 412.43 561.04 411.74 558.94 411.55 555.33 412.49 554.67 413.84 551.72 415.43 551.1 417.49 552.17 419.09 551.11 420.79 550.46 417.98 550.49 415.89 548.78 414.37 543.82 412.54 540.46 412.43 538.81 413.96 535.72 414.49 532.64 416.01 532.19 408.66 530.04 387.28 528.52 384.31 527.7 381.61 528.08 378.29 529.17 376.88 529.73 367.49 519.98 365.07 520.05 364.18 515.61 363.01 509.57 353.34 508.59 351.72 500.9 340.11 485.81 331.61 485.59 329.35 484.55 327.52 483.12 326.72 483.37 323.33 481.54 318.94 482.05 317.59 484.23 315.21 482.63 312.52 484.52 307.16 482.98 301.43 483.44 296.42 473.93 297.94 473.89 260.56 470.51 260.57 447.71 261.05 441.32 261.68 427.21 262.1 423.73 262.21 387.1 263.26 380.88 263.66 380.57 259.05 370.55 258.87 357.74 258.63 338.96 257.85 320.23 257.51 304.34 256.53 260.81 255.67 249.01 255.31 233.84 254.73 226.67 254.69 217.94 254.48 208.75 255.66 206.24 257.26 201.08 257.08 200.92 255.31 193.85 254.93 186.46 253.88 180.6 253.28 168.03 253.28 167.7 254.16 168.73 255.71 165.6 261.74 165.47 263.12 163.7 263.35 154.24 264.61 155.15 252.97 141.65 252.47 118.39 251.92 105.54 251.38 85.44 250.16 61.85 248.82 38.03 247.33 19 246.29 5.39 246.25 Z M 569.15 179.31 571.24 178.55 572.55 177.26 572.63 175.59 573.94 175.22 574.55 176.44 572.64 178.63 572.21 180.72 571.05 179.95 569.62 180.43 569.15 179.31 Z M 563.28 172.61 564.82 171.42 565.44 169.43 567.7 166.8 568.5 167.91 567.3 168.92 565.86 172.24 564.66 172.94 563.28 172.61 Z M 560.64 167.84 561.99 168.18 561.8 169.92 560.75 170.56 560.64 167.84 Z M 554.58 172.23 556.85 170.07 557.54 170.48 555.73 173.55 554.58 172.23 Z M 732.51 477.3 736.82 479.05 737.59 480.21 739.83 479.91 741.58 478.76 742.03 476.89 741.11 475.68 739.67 476.5 738.87 475.53 740.33 474.04 741.61 473.86 743.07 474.49 757.15 474.47 760.48 473.96 761.64 473.36 766.66 472.75 771 469.8 774.65 465.88 777.88 460.55 779.32 454.17 779.37 451.78 776.93 448.72 774.44 447.39 773.53 446.12 775.05 445.67 780.19 451.65 794.18 478.35 794.28 482.58 793.44 485.34 791.05 488.02 785.08 490.1 782.03 490.74 773.44 489.08 766.61 488.97 762.8 490.29 758.7 489.82 746.99 485.51 735.41 479.83 732.51 477.3 Z M 722.81 469.79 725.9 469.69 729.61 471.21 730.46 472.04 731.17 474.28 729.44 476.45 728.32 475.16 724.66 472.6 722.83 470.58 722.81 469.79 Z M 715.44 462.5 716.47 461.78 719.24 461.93 719.52 463.16 715.9 463.59 715.44 462.5 Z M 603.08 427.17 604.09 426.94 603.99 425.28 605.02 424.1 606.34 423.94 608.18 421.34 610.13 421.58 611.79 418.37 613.19 418.28 614.72 417.38 616.43 414.72 618.56 413.4 620.23 413.71 624.67 408.97 626.39 408.73 627.1 410.53 629.82 410.88 631.84 409.37 632.65 410.85 631.13 412.38 629.27 413.22 628.4 412.54 625.43 414.16 626 415.55 624.29 417.41 619.33 418.57 616.48 421.31 614.34 420.96 613.4 422.77 614.61 424.51 613.4 426.32 611.89 427.36 610 427.38 606.86 430.73 604.7 430.86 603.53 429.61 603.08 427.17 Z M 597.94 486.63 600.73 486.44 601.97 485.77 604.81 486.9 604.23 489.58 599.43 488.78 597.94 486.63 Z M 596.32 384.3 597.59 383.64 598.94 385.12 599.08 387.45 600.22 387.71 599.18 390.1 597.74 389.59 595.72 386.07 596.32 384.3 Z M 596.22 460.46 597.33 458.61 600.47 458.53 602.16 457.87 604.87 458.43 608.7 460.18 610.57 459.76 611.93 458.53 614.2 454.42 616.32 451.95 617.23 451.52 618.25 449.66 619 447.04 620.14 445.16 621.82 444.81 622.85 443.09 624.47 441.82 624.67 439.85 625.76 438.72 626.98 434.29 629.45 433.42 630.12 432.07 631.84 432.28 633.49 431.73 634.8 429.12 634.97 427.58 636.18 426.24 640.11 425.71 645.04 422 648.71 419.63 649.86 419.99 650.49 423.69 649.61 425.88 649.79 427.69 651.39 427.51 653.24 426.05 655.2 423.78 656.87 422.88 657.79 423.49 660.09 428.3 660.2 431.15 659.65 434.89 660.23 436.95 661.5 439.36 663.6 441.31 665.8 442.52 668.28 442.89 670.67 443.91 671.73 446.36 672 448.33 674.37 448.83 675.77 448.02 678.62 445.02 678.27 441.28 680.3 438.15 683.3 437.65 684.34 444.87 683.71 449.67 684.04 457.66 683.16 458.81 680.68 459.54 676.37 459.32 673.54 459.62 654.61 459.09 638.96 460.16 629.45 461.05 625.24 461.85 619.99 463.54 616.79 465.44 613.08 468.83 612.23 470.86 612.65 471.75 612.1 473.32 610.54 474.15 604.56 470.25 600.63 466.4 596.22 460.46 Z M 595.62 428.93 597.38 427.4 599.59 427.73 600.05 427.21 602.83 429.88 601.46 430.95 599.57 431.15 597.78 432.37 596.43 432.18 595.36 430.05 595.62 428.93 Z M 581.47 435.63 582.04 434.53 583.49 435.03 586.27 435.06 586.69 433.44 590.41 432.05 591.87 429.74 592.43 430.23 592.18 432.62 593.83 434.92 592.68 436.22 590.68 437.55 588.76 438.17 585.8 438.37 584.68 438.04 581.77 438.33 581.05 437.28 581.47 435.63 Z M 571.26 440.17 572.48 440.39 573.06 438.38 575.02 437.38 576.1 435.36 577.09 435.82 578.01 437.86 577.05 438.14 575.78 440.2 573.97 441.26 571.31 442.03 571.26 440.17 Z" fill-rule="evenodd" fill="none" stroke="currentColor" stroke-width="1"/>
</g>
</svg>