<?xml version="1.0"?>
<svg width="20" height="20" xmlns="http://www.w3.org/2000/svg" version="1.2" baseProfile="tiny" viewBox="-64.000 -300.000 928.000 928.000" stroke-linecap="round" stroke-linejoin="round">
<g id="state">
<path d="M 666.02 1.15 666.04 14.47 668.01 38.73 669.33 55.1 671.09 76.82 672.15 90.1 673.83 111.04 675.49 131.82 676.59 145.61 677.99 163.28 679.13 177.72 681.05 202.1 683.09 228.06 699.59 228.65 715.96 229.09 737.01 229.49 741.12 229.47 765.96 229.65 783.14 229.66 799 229.64 797.98 236.19 796.77 240.75 795.96 242.96 794.77 246.9 793.16 250.37 792.42 252.47 790.92 252.62 789.29 254.76 785.95 262.3 784.38 266.38 781.19 272.98 779.22 277.65 775.59 288.05 772.96 293.51 768.94 299.66 764.21 305.91 756.63 306.52 736.16 308.39 725.16 309.25 695.55 311.81 695.32 312.6 694.08 313.16 693.5 314.45 692.57 314.86 691.89 316.2 691.26 316.74 690.4 316.89 689.48 318.06 687.97 317.53 687.04 316.78 686.08 316.53 683.67 316.72 679.23 314.69 679.63 312.84 679.06 312.75 677.65 313.71 678.03 314.35 677.88 315.93 675.39 317.38 674.76 316.46 674.72 315.36 675.3 314.96 674.91 313.66 673.29 313.21 673.84 314.28 672.24 315.13 672.92 316.37 668.95 315.73 666.88 315.7 665.49 317.07 663.3 318.75 662.31 318.83 661.52 318.06 661.6 316.81 660.62 316.66 659.66 317.82 659.27 319.25 660.62 320.41 660.21 321.76 658.6 321.82 658.01 323.22 654 324.68 653.06 325.46 650 325.85 648.69 326.64 647.31 325.72 646.48 324.01 647.24 323.6 647.25 321.57 647.81 319.1 649.98 319.72 652.16 319.49 652.97 318.8 652.24 317.05 652.84 315.55 651.77 314.82 650.7 315.26 649.83 316.2 647.78 314.91 646.28 315.3 648.12 312.95 648.61 311.47 650.77 308.41 651.9 306.19 650.63 305.66 651.25 304.48 653.63 303.8 654.89 304.17 656.15 305.83 658.57 303.9 658.42 303.36 659.22 302.52 660.58 302.84 661.86 302.23 662.97 301.26 664.55 301.14 665.38 300.62 665.9 299.69 667.52 299.07 667.54 298.6 668.69 296.92 667.24 296.56 666.58 295.22 665.77 295.7 665.81 297.79 664.85 298.08 663.46 297.69 663.35 298.66 663.87 299.64 662.07 299.59 660.45 298.76 659.27 298.5 658.03 298.63 656.01 297.78 653.89 298.4 653.17 298.95 653.39 299.96 651.21 300.12 650.69 299.66 651.17 298.33 650.41 297.1 650.38 296.34 652.48 296.33 652.16 294.95 653.94 291.95 655.3 291.33 656.31 290.43 657.22 290.32 657.1 288.08 657.86 287.9 659 286.78 660.25 288.19 660.64 287.15 661.49 286.63 662.31 286.83 663.01 287.69 664.59 286.39 666.17 286.06 666.04 284.56 664.44 284.83 662.52 285.52 659.98 284.19 657.41 283.7 656.52 284.74 655 284.81 653.27 285.5 651.09 285.23 651.63 286.61 649.54 286.14 649.94 285.65 649.44 284.16 647.03 284.14 645.73 284.59 645.13 285.18 642.86 284.74 641.37 283.62 640.13 283.94 640.64 285.16 642.09 286.16 642.29 287.14 640.81 287.95 639.33 288.44 639.77 289.69 638.48 290.65 637.41 289.31 637.86 288.39 636 287.29 635.28 286.11 636.09 284.43 636.78 281.67 637.49 280.06 636.72 278.75 638.38 277.14 639.39 276.7 641.62 276.56 643.7 275.8 644.23 275.37 646.73 274.77 648.14 274.13 648.76 274.86 649.99 275.12 652.45 274.66 656.58 272.58 657.28 271.54 658.8 271.93 660.62 270.12 660.32 269.28 659.4 269.58 655.83 269.19 654.73 270.06 653.08 269.56 652.95 268.94 653.74 268.36 657.33 266.34 659.76 265.32 663.4 265.35 661.09 263.98 660.04 263.69 657.82 264.5 655.77 264.51 654.7 266.19 652.5 266.29 651.46 266.97 650.83 266.53 651.39 265.52 650.19 264.97 649.25 265.84 648.97 266.82 648.06 267.37 647.95 268.24 648.39 269.53 646.77 269.68 646.05 268.91 644.58 266.28 644.34 264.77 642.93 263.44 644.62 261.76 645.75 259.35 644.51 258.22 646.07 256.65 647.39 254.72 649.14 251.6 649.91 251.92 651.39 249.22 653.85 247.93 654.64 245.8 655.11 245.15 653.82 243.84 652.67 243.12 652.22 242.24 651.17 242.92 651.62 244.13 652.61 245.59 652.54 246.14 650.92 246.83 647.16 247.86 645.98 247.93 645.43 248.48 643.8 249.07 643.38 249.77 643.56 251.97 642.46 252.17 641.09 252.99 640.21 254.63 639.1 255.61 639.37 256.18 638.65 257.12 638.63 257.92 639.52 259.04 639.02 259.63 639.18 261.11 638.76 262.06 637.14 262.61 636.12 263.31 636.71 264.72 636.19 265.3 637.22 266.04 638.68 266.38 637.14 268.07 633.36 268.74 634.47 267.43 634.86 265.57 634.07 264.93 631.16 263.23 631.41 262.48 631.09 260.97 630.57 261.07 629.75 259.91 627.67 257.68 626.69 256.06 625.09 255.54 626.46 254.63 631.37 254.11 632.33 253.86 634.25 252.79 634.94 251.27 634.85 249.04 635.54 248.53 633.96 247.55 632.71 245 630.13 244.35 629.28 244.33 628.44 243.49 625.69 243.37 626.07 244.06 627.1 244.53 626.16 245.41 625.81 247.58 624.92 250.91 623.53 251.37 621.91 252.66 620.53 252.86 619.82 253.55 619.1 255.11 616.86 255.86 618.99 256.1 620.64 257.19 621.65 258.69 622.53 259 623.17 260.18 622.13 261.3 622.12 262.42 621.24 264.09 620.72 265.78 618.96 265.79 618.53 266.22 620.09 267.32 621.6 269.32 621.45 270.36 620.62 270.84 619.7 269.95 617.56 269.71 615.21 267.11 615.21 266.43 613.91 264.85 613.14 265.35 612.09 264.99 610.91 265.13 611.1 263.52 612.46 263.61 614.04 262.7 613.81 262.06 612.65 261.81 612.44 260.55 610.91 260.67 610.54 259.56 609.64 258.22 609.11 258.79 608 258.81 607.35 258.14 609.02 257.65 607.4 256.71 604.79 257.23 604.24 258.73 605.18 259.82 603.11 260.18 602.65 260.92 601.31 260.64 601.07 259.59 602.95 258.14 602.85 257.42 604.21 256.51 603.94 255.09 602.1 254.35 601.93 255 599.32 254 598.47 254 596.61 252.41 594.83 252.61 594.66 253.24 593.27 253.88 592.55 252.54 594.26 252.36 594.77 251.8 594 250.91 595.18 250.23 596.03 250.7 596.63 251.68 597.91 252.93 599.41 252.87 598.94 251.37 597.1 250.51 597.38 249.46 597.08 248.57 595.33 246.84 595.22 246.12 593.94 245.94 592.57 245.37 592.83 244.88 591.22 244.06 590.48 244.9 588.98 245.18 588.75 243.88 589.58 242.75 589.26 240.73 587.78 239.81 586.48 240.06 586.25 240.83 587.19 242.29 586.16 243.37 586.4 244.76 585.97 245.1 586.82 247.19 588.38 249.22 589.92 249.99 590.13 251.58 588.68 251.97 588.1 254.38 588.87 255.44 590.97 256.78 591.86 258.34 593.04 257.85 594.36 257.79 595.62 258.26 597.08 257.33 597.42 258.02 596.05 258.54 596.81 259.49 595.6 260 595.48 262.11 596.41 263.75 598.22 265.08 598.67 266.02 601.71 265.88 605.25 267.09 605.41 267.8 604.65 268.59 602.75 269.09 601.07 268.25 599.36 266.69 597.14 266.21 595.8 264.25 594.62 263.31 593.76 260.95 593 259.77 592.11 259.31 590.9 257.12 590 256.36 587.7 255.46 586.73 254.25 586.66 253 586.06 252.68 586.63 251.58 585.99 250.36 586.14 248.7 585.15 248.21 584.13 246.3 583.13 245.29 581.84 244.76 580.63 243.75 579.44 243.42 579.28 242.52 578.02 242.02 577.34 240.79 577.81 238.27 577.17 236.02 576.24 234.72 575.3 234.25 573.02 230.2 571.97 229.8 571.72 228.64 570.19 227.73 569.41 226.42 568.31 225.2 568.05 224.1 569.86 222.1 570.07 221.07 572.14 221.53 574.14 220.64 576.32 220.24 576.2 221.12 578.81 221.8 580.31 221.33 580.71 220.4 582.72 217.44 583.56 216.6 586.25 216.07 587.25 216.3 588.42 215.15 587.95 213.73 585.78 213.46 584.08 214.23 582.14 213.41 579.94 213.23 578.66 214.56 577.81 214.48 578.52 212.4 578.48 211.44 577.44 209.89 575.87 208.45 574.22 208.38 574.13 207.39 575.42 206.24 575.9 206.98 577.51 207.45 578.47 206.33 580.16 205.41 580.03 204.72 579.09 204.33 579.72 203.3 580.71 203.12 580.54 202.19 578.89 202.53 577.88 200.83 577.53 199.4 578.32 199.1 579.15 200.08 578.7 200.78 580.35 200.88 580.53 200.18 583.08 200.15 582.26 198.9 585.14 197.98 585.8 198.53 585.2 199.9 589.29 201.21 589.83 201.69 591.51 200.97 593.52 199.36 594.49 199.11 596.26 197.93 597.71 197.88 598.4 198.96 598.47 200.22 597.7 202.5 599.02 203.78 600.58 203.65 602.61 201.82 604.11 203.69 606.35 205.37 607.46 205.96 609.75 205.14 611.82 204.17 612.46 205.44 614.02 205.59 614.02 206.59 616.95 208.33 618.36 208.75 620.26 209.72 623.25 208.87 622.33 206.26 620.96 205.61 619.45 204.37 618.51 203.96 618.42 202.22 614.9 200.58 613.57 200.27 613.08 198.68 612.1 198.25 610.11 198.43 607.63 199.06 605.82 197.69 605.07 196.56 603.81 195.91 601.56 196.28 600.77 194.6 600.04 192.46 598.79 191.74 598.05 190.72 596.89 190.14 596.14 189.24 596.91 187.18 596.16 186.18 594.83 185.82 592.89 188.1 592.31 189.1 591.31 189.33 589.76 188.18 589.25 187.22 589.65 186.29 588.53 185.42 587.22 185.27 585.1 182.61 585.04 181.43 585.45 180.6 586.76 180.21 586.34 179.25 585.41 178.95 585.2 178.28 586.8 177.88 588.02 178.4 589.3 179.8 590.45 178.95 591.07 177.88 589.64 177.23 587.63 175.7 588 174.57 587.63 174.07 585.56 173.52 584.41 174.17 584.09 176.02 582.21 176.08 581.76 177.27 582.16 178.36 579.96 179.85 579.43 180.54 579.19 182.55 577.25 182.01 576.93 181.2 574.81 180.58 574.26 179.92 575.03 179.35 575.07 178.5 574.32 175.98 571.67 176.1 571.78 176.68 569.6 177.71 571.44 178.16 571.79 179.4 570.61 179.68 569.68 181.6 568.42 182.54 567.97 184.36 569.16 186.02 570.15 186.81 569.42 188.87 568.09 188.75 566.87 189.24 566.22 188.21 565.73 186.35 566.36 185.2 565.99 184.23 566.44 182.4 567.16 180.91 566.79 179.47 567.05 178.05 566.44 176.11 567.38 174 568.68 173.52 568.79 172.55 567.86 171.81 568.65 171.1 569.81 170.67 570.69 169.15 572.27 167.51 572.48 164.54 573.5 163.19 573.68 162.42 574.48 161.85 576.16 162.03 578.01 160.56 577.4 160.12 580.1 157.44 580.23 158.4 581.37 159.19 582.14 161.04 583.05 161.52 583.01 162.37 584.49 163.82 584.98 163.33 586.78 163.1 589.98 165.95 588.85 166.92 589.45 167.87 588.83 168.77 589.11 169.34 591.65 171.22 592.87 171.77 593.17 172.37 594.34 172.77 595.3 174.77 597.36 175.27 598.23 174.38 598.79 172.9 599.88 172.53 600.09 171.92 599.21 171.43 597.29 172.23 595.62 171.08 595.88 170.45 594.51 169.45 594.19 168.37 592.53 167.24 592.01 166.4 592.19 164.77 593.24 163.03 593.66 161.61 592.89 160.56 592.47 159.09 590.97 157.42 591.59 155.69 592.05 152.04 592.63 149.85 591.39 149.71 591.12 147.38 591.34 144.64 591.15 143.42 589.72 142.93 590.52 141.05 588.28 140.42 587.66 140.47 587.11 141.49 585.8 141.32 585.35 140.09 585.5 139.23 584.24 137.17 582.46 137.3 582.73 138.41 582.87 141.74 581.12 143.08 581.97 144.1 583.43 144.69 581.92 145.58 580.87 145.37 578.92 141.43 574.82 143.81 574.18 145.63 575.18 147.15 575.28 148.38 574.15 148.49 573.58 145.01 572.46 144.53 571.1 144.83 570.84 146.94 569.75 146.96 569.2 145.71 567.98 145.71 566.85 146.84 567.59 147.89 567.58 149.56 567.16 150.32 568.03 152.46 568.5 155.38 566.79 156.92 565.02 156.62 562.67 157.96 561.82 160.45 560.58 159.85 560.66 157 561.65 155.63 562.45 153.67 562.6 151.82 562.36 150.33 562.28 147.62 562.88 143.7 562.98 141.92 564.4 138.68 566.74 135.56 567.61 135.4 568.15 133.36 569.67 131.76 570.24 130.37 569.85 129.38 570.44 126.85 571.97 124.65 573.75 123.86 573.19 126.24 574.53 127.53 575.17 130.28 576.06 131.58 577.49 133 578.13 134.14 581.29 133.91 580.95 134.94 581.89 135.41 582.57 134.49 584.13 134.46 585.11 135.76 587.35 135.56 588.66 136.28 590.6 135.76 591.64 135.83 593.6 134.65 597.09 131.83 598.53 131.07 598.6 129.18 597.38 126.72 595.96 125.3 596.48 123.95 596.17 123.05 594.9 122.67 596.5 120.42 597.62 119.7 599.44 119.21 600.95 116.71 602.29 115.19 601.92 114.3 598.38 113.73 594.95 113.67 591.45 115.59 591.23 117.14 589.95 118.45 590.38 120.45 589.85 122.07 590.27 122.83 589.79 123.59 590.76 125.06 590.34 126.12 591.79 128.56 590.9 128.63 590.29 129.41 589.19 129.19 588.95 128.58 586.35 127.66 585.75 126.77 584.39 125.79 584.71 123.83 585.4 122.8 586.59 122.78 587.14 121.44 586.47 120.02 586.35 116.1 585.59 113.03 584.36 111.4 583.56 109.65 584.07 109.05 584 107.5 581.81 106.59 580.31 105.1 578.38 104.7 578.15 103.72 578.64 101.24 580.09 98.53 582.02 96.54 582.89 95.17 584.62 91.24 586.3 89.04 587.26 87.07 588.02 84.65 590.04 82.48 591.3 82.69 592.04 80.64 593.83 80.41 594.64 79.68 595.09 78.67 595.86 78.58 596.97 79.17 597.76 78.02 596.97 77.36 595.82 77.04 596.26 76.33 595.82 75.24 594.57 74.81 594.65 73.58 596.44 72.82 597.38 71.28 599.31 70.6 601.85 70.87 602.27 71.97 604.02 71.14 604.07 69.77 603.39 69.07 604.23 67.57 607.1 66.1 608.15 64.06 612.58 64.4 616.81 64.11 619.06 64.35 622.1 64.93 623.88 65.93 625.94 65.08 627.58 64.92 629.23 64.1 630.51 62.76 628.89 61.82 626.41 61.61 622.48 61.69 621.18 61.46 620.59 60.76 621.26 59.17 622.07 58.51 625.04 57.55 626.78 56.46 627.57 54.85 628.48 53.63 631.15 52.73 632.2 51.05 633.1 48.85 634.02 47.78 631.92 46.39 630.62 46.51 630.41 48.06 628.53 48.85 628.74 49.4 627.56 50.05 626.32 50.23 625.8 49.53 626.29 48.73 628.13 47.22 629.1 45.38 628.77 43.9 628.95 42.95 630.15 41.64 630.48 39.23 631.35 38.18 631.52 35.87 632.83 35.22 634.08 35.31 634.79 34.61 633.55 33.61 634.03 32.81 633.35 30.73 633.55 30.08 634.64 29.93 635.9 28.96 635.88 27.83 637.27 26.75 637.2 24.35 635.62 24.46 634.34 25.55 634.26 26.92 632.86 28.43 628.08 30.22 626.87 32.79 627.58 33.59 626.82 34.11 625.85 34.03 624.84 32.73 622.89 32.38 621.39 31.59 619.83 31.64 619.55 32.75 616.54 32.72 612.99 33.57 612.09 34.23 610.74 34.46 610.36 35.8 609.17 37.21 608.05 39.4 608.02 40.02 606.94 41.8 605.88 43.1 604.98 43.49 606.01 44.45 607.08 44.45 607.87 43.57 609.2 44.91 610.34 45.39 613.04 45.08 613.71 45.59 615.08 45.58 615.55 46.91 617.23 50.1 613.42 52.47 611.97 50.96 609.98 51.31 609.17 53.1 607.01 54.11 606.1 55.26 603.51 57.1 601.7 58.12 599.47 57.94 596.71 61.01 596.38 62.27 595.64 63.1 594.45 62.5 592.61 64.86 591.41 65.55 588.16 66.92 587.21 68.08 585.99 67.7 584.89 66.01 583.05 66.03 582.59 64.47 583.75 64.42 582.46 62.9 584.02 62.02 583.11 61.07 584.58 58.36 584.39 57.73 586.65 55.81 587.63 54.46 585.41 52.23 585.52 50.9 586.48 48.93 586.14 48.39 584.6 48.06 584.09 49.11 582.78 50.15 582.42 51.42 583.53 52.78 582.31 56.08 582.21 56.94 580.65 57.61 579.64 58.52 580.35 60.45 578.47 62.52 579.08 63.01 578.08 64.2 576.44 64.65 578.85 66 580.28 66.42 580.32 68.06 581.55 68.61 581.8 70.25 580.63 70.89 580.04 71.72 578.08 73.07 578.09 74.26 577.45 75.19 577.36 77.11 574.69 76.69 575.81 75.29 575.95 73.97 575.25 72.55 574.3 71.8 574.3 69.82 574.98 68.67 574.86 68.06 572.39 67.32 572.4 66.33 573.53 64.35 573.64 63.16 572.81 61.69 572.04 61.15 569.94 60.88 568.83 61.3 567.72 60.8 563.81 60.14 563.77 61.66 565.07 63.54 566.18 63.46 567.29 63.87 566.72 66.28 565.99 66.68 567.08 68.1 567.93 69.91 565.99 69.8 565.21 70.42 564.62 71.77 568.08 72.72 567.98 73.43 568.84 74.35 567.59 74.46 566.89 75.02 565.58 74.52 564.1 74.87 564.07 74.2 562.34 73.16 561.33 73.34 562.51 74.92 561.3 76.31 559.67 77.31 558.81 76.71 559 75.54 556.87 75.97 555.59 75.01 554.52 74.94 554.13 75.57 554.65 77.04 556.29 77.59 556.25 78.43 557.32 79.52 559.24 79.49 559.19 81.09 557.32 81.06 556.25 82.4 556.92 83.02 555.22 85.05 555.29 86.17 553.28 86.44 551.25 85.16 549.52 85.43 549.11 86.29 548.69 87.31 550.69 88.01 552.06 89.18 554.26 89.36 555.91 89.15 556.26 89.81 554.36 90.51 552.92 91.47 551.56 94.01 549.53 94.64 548.47 95.86 547.53 95.44 547.19 94.35 548.17 93.16 547.68 91.75 545.69 91.6 544.86 92.2 544.69 93.97 541.71 94.11 539.55 94.77 538.9 94.69 537.95 93.35 538.69 92.33 538.6 90.19 537.55 89.27 535.87 89.91 535.14 89.23 535.03 87.56 534.11 87.41 532.15 87.97 531.12 86.85 530.89 85.97 528.64 84.7 526.74 84.8 525.27 84.12 522.58 84 522.94 85.36 524.01 86.25 526.34 87.63 526.94 88.69 526.53 90.61 528.17 91.98 530.61 92.82 531.96 92.66 532.18 93.66 531.76 94.35 532.57 94.86 533.12 95.84 532.12 96.75 533.43 98.45 533.49 99 534.95 99.85 535.9 99.97 538.02 101.85 537.96 103.04 539.22 103.09 540.18 102.69 540.61 101.78 541.67 101.03 543.25 103.17 546.61 105.19 550.52 107.23 550.12 109.09 550.14 110.99 552.12 115.91 552.16 117.15 550.72 119.69 549.11 121.5 550.49 122.55 553.64 124 555.19 125.02 556.5 126.92 557.09 128.71 553.59 130.73 553.72 131.53 551.76 132.04 551.8 131.07 550.48 130.72 549.9 131.59 547.72 131.9 547.04 132.6 547.34 133.33 547.03 135.01 545.59 133.75 544.75 134.39 543.66 134.11 542.4 134.31 541.68 134.99 542.76 135.91 542.64 136.86 543.29 138.81 544.76 140.23 545.72 140.26 547.06 141.57 545.38 142.87 544.67 144.03 545.54 146.23 545.27 147.68 543.63 147.6 543.61 146.9 542.04 146.01 542.02 145.56 540.01 144.05 538.62 144.38 537.01 145.15 536.49 145.39 536.81 146.64 538.17 147.42 539.11 147.29 539.23 149.04 539.77 149.95 539.8 151.7 534.63 155.59 531.94 155.65 531.21 155.9 531.57 157.63 534.54 157.93 535.44 157.57 537.53 158.76 538.17 157.56 539.12 157.82 539.95 159.98 538.89 161.54 538.5 164.28 536.93 165.18 536.31 166.73 533.69 167.84 533.28 169.28 531.05 171.49 529.21 171.82 527.36 172.81 527.49 174.37 528.38 175.22 527.78 176.89 528.64 178.57 530.13 179.94 532.76 179.81 533.42 180.56 532.94 182.96 532.28 184.98 532.3 188.81 533.7 194.64 535.33 197.62 535.4 198.63 536.1 200.07 535.19 204.66 535.03 207.73 535.41 210.85 534.98 213.84 535.3 215.67 537.04 220.05 539.44 223.96 541 225.53 542.88 226.91 546.07 229.65 546.95 231.23 549.58 232.85 553.34 236.22 553.67 237.18 554.74 238.32 555.65 239.86 557.03 240.76 559.36 241.31 557.74 243.34 558.44 245.82 555.22 249.45 552.65 252.72 551.27 252.74 549.26 252.29 546.87 252.66 546.08 253.86 544.95 252.34 543.84 251.63 542.66 252.86 542.38 254.4 543.37 255.2 545.46 257.84 548.58 258.34 550.84 257.84 552.02 255.98 554.5 256.03 556.87 255.28 559.43 256.27 560.59 256.94 560.31 257.82 557.15 260.75 556.31 262.77 556.23 264.16 558.76 271.62 562.96 276.24 564.46 278.74 567.9 282.06 568.98 283.99 569.47 284.23 570.46 285.9 568 288.19 566.74 289.84 568.34 292.86 568.73 297.75 570.16 301.84 567.35 301.15 564.6 301.21 564.18 300.55 563.07 300.07 561.18 296.47 561.21 296.07 558.94 294.24 557.78 293.86 557.48 292.27 555.14 291.54 552.29 291.71 551.53 290.16 550.63 289.31 550.67 288.12 549.35 286.3 549.73 284.41 548.64 283.62 549.8 282.91 549.11 281.85 547.1 282.14 545.03 282.96 543.58 283.2 543.73 283.97 545.1 285.72 544.98 287.15 543.56 289.33 544.33 291.6 542.93 292.25 541.53 289.94 537.75 285.8 536.54 285.47 534.8 285.43 532.76 286.66 532.2 284.41 530.87 283.26 529.98 281.04 529.62 279.19 528.6 277.11 527.31 275.9 525.08 274.16 523.63 273.54 521.83 272.26 516.62 270.71 514.3 270.2 511.64 270.3 509.38 269.32 506.94 268.63 505.06 268.68 504.46 268.42 504.48 267.38 502.34 267.5 501.29 268.77 498.6 268.85 498.71 268 498.18 267.43 496.4 266.54 495.7 267.13 494.97 268.48 494.14 268.96 494.12 269.82 492.77 270.84 490.68 270.14 488.03 269.69 487.99 268.62 488.55 268.41 488.18 267.1 486.8 266.63 486.8 265.94 485.88 265.59 484.04 265.84 483.25 265.17 483.16 263.61 482.57 262.41 483.8 261.02 483.77 260.3 482.92 259.46 481.82 259.21 481.67 258.39 479.62 256.3 480.04 255.2 479.04 254.4 477.89 250.75 476.71 250.23 478.08 249.37 478.83 249.31 479.32 248.32 474.1 246.31 472.72 248.95 471.73 249.87 471.63 251.11 472.31 251.9 473.63 252.37 474.92 253.96 474.4 254.5 474.66 255.98 475.79 256.78 475.88 258.32 476.93 258.78 477.47 260.95 477.93 261.51 476.9 263.25 477.4 263.74 476.62 265.02 475.73 264.72 474.65 263.76 472.63 262.42 468.23 260.69 464.88 258.91 462.96 258.36 461.73 258.51 462.23 254.8 460.77 252.68 457.94 251.11 456.78 250.86 454.14 249.36 452.14 249.23 452.71 248.07 452.53 246.78 451.19 245.51 451.06 243.41 450.34 239.76 448.49 237.19 447.94 234.91 446.89 233.23 445.99 232.26 445.29 230.66 440.93 230.84 436.6 233.28 435.67 234.16 434.66 234.41 432.7 236.2 431.86 237.5 430.28 237.45 429.07 237.74 428.35 237.2 426.06 236.94 425.27 238.71 423.65 240.33 421.75 241.34 420.11 241.91 418.38 243.17 417.39 243.43 415.97 244.51 414.67 245.03 410.96 246.07 409.27 245.48 407.97 244.5 405.74 243.49 403.26 241.95 402.63 240.02 401.98 239.33 401.93 238.45 400.57 236.43 400.89 235.11 402.08 233.38 401.94 232.75 400.43 230.98 400.96 229.98 400.65 228.78 399.54 227.34 400.18 226.72 400.38 225.58 398.93 224.16 399.26 222.69 400.23 221.14 400.16 220.63 400.84 218.66 402.08 217.47 401.93 216.96 405.5 211.55 406.91 211.1 408.48 210.95 410.42 208.71 411.09 207.66 413.76 205.52 413.83 205.04 415.3 202.83 417.73 201.67 421.51 201.89 422.91 201.02 425.03 200.32 425.83 199.34 427.44 198.68 428.98 197.38 428.45 196.89 424.89 196.61 423.73 194.41 423.71 193.87 424.42 189.57 426.19 187.57 429.52 185.38 430.52 185.11 432.24 184.01 433.56 183.5 433.89 182.64 435.39 183.13 438.7 183.14 440.44 181.6 440.78 180.28 440.68 176.52 440.8 169.57 441.16 168.46 464.52 150.25 447.6 137 440.88 131.73 426.7 142.79 425.19 141.62 423.87 139.31 422.15 137.61 421.23 137.21 418.47 136.78 417.49 137.01 415.94 136.69 412.68 136.97 410.81 136.34 410.21 136.5 407.97 135.98 407.1 134.81 406.01 135.31 404.18 134.08 403.55 132.34 402.75 131.79 402.25 130.63 402.7 129.34 403.85 128.32 403.95 126.55 402.5 125.67 398.79 124.82 395.55 122.63 393.46 121.75 390.67 121.36 389.21 120.62 388.15 119.97 386.73 119.67 383.1 119.74 382.05 119.91 378.69 119.8 376.51 119.36 372.73 119.06 368.83 118.17 366.48 117.9 365.43 117.53 363.95 115.64 363.93 114.87 363.23 114.24 361.76 111.99 360.17 110.96 355.03 109.45 353.91 108.03 353.5 106.61 353.43 104.57 353.96 103.99 354.51 101.89 355.18 100.53 356.98 98.38 361.72 97.21 362.53 96.52 362.66 94.7 363.22 93.33 365.38 91.77 365.95 90.54 365.4 89.85 363.54 88.86 361.88 87.63 361.09 86.75 358.6 85.75 356.43 85.46 354.64 84.53 352.78 84.05 351 83.3 349.2 81.42 348.56 80.36 347.27 79.21 347.09 76.51 346.05 75.91 344.2 76.12 342.38 76.77 340.51 76.71 339.11 76.39 337.55 76.59 334.35 75.69 332.37 75.45 328.21 73.75 326.8 72.67 325.67 72.76 324.81 73.42 322.97 73.72 321.01 73.15 318.84 73.26 317.41 73.08 316.53 72.37 313.2 71.1 312.37 70.95 311.45 69.86 311.67 69 313.44 68.14 314.1 67.5 314.48 65.31 312.86 62.85 313.71 61.85 315.42 61.64 315.94 60.66 315.02 58.43 314.04 57.39 312.87 54.93 311.77 54.21 306.87 53.88 305.03 53.38 303.82 52.25 304.58 51.65 306.75 51.25 306.77 50.43 304.7 48.95 304.77 48.15 305.62 47.91 307.6 48.32 307.95 47.45 305.99 46.75 304.95 45.95 304.81 44.84 306.45 43.77 310.29 42.67 310.46 41.77 309.03 41.22 307.62 41.27 306.28 42.47 304.98 42.97 303.09 42.87 301.02 42.28 299.5 42.34 296.26 41.44 295.98 40.34 299.38 38.42 300.18 36.82 299.74 35.76 298.38 35.24 297.12 35.86 296.87 37.78 295.52 38.29 293.41 38.53 292.47 37.29 292.74 35.82 292.67 34.19 291.81 33.35 288.66 31.55 288.78 30.32 291.06 29.58 297.02 29.46 297.87 29.15 298.41 28.04 299.04 25.47 298.6 22.83 297.57 22.04 294.78 21.84 292.82 21.51 291.06 20.59 289.21 20.28 288.9 20.88 289.84 22.04 289.64 23.26 288.38 23.58 282.15 22.17 281.35 20.69 280.39 19.86 279.08 19.69 278.4 20.38 279.57 20.89 280.05 21.59 279.77 24.72 278.97 25.78 277.56 25.51 277.04 24.12 277.2 22.09 275.87 21.53 273.96 22.06 272.48 23.19 271.01 23.24 267.24 22.85 266.51 22.48 264.21 19.2 263.01 18.1 261.73 16.46 259.6 15.12 258.71 13.95 257.16 12.93 254.82 10.93 253.5 10.26 252.38 10.28 250.79 8.93 249.68 8.48 244.86 7.53 242.66 6.85 240.71 6.83 239.47 6.31 237.64 5.93 235.6 6.02 233.84 7.17 232.3 9.17 231.5 9.45 227.68 9.41 226.5 10.17 228.24 11.84 227.67 12.81 225.51 13.87 222.74 15.93 221.29 17.64 221.21 19.01 220.51 19.71 216.98 19.29 212.24 17.54 208.11 16.39 204.57 15.81 203.87 16.43 204.85 17.47 204.66 18.35 203.92 18.57 202.23 17.87 200.02 17.87 199.49 18.81 201.52 20.96 200.42 21.68 199.43 21.5 197.46 20.31 192.85 18.79 191.12 18.91 190.49 19.53 190.88 20.51 192.62 22.36 194.45 23.58 197.07 24.88 197.39 25.98 196.16 26.78 195.13 26.96 193 26.44 191.36 25.43 188.37 24.66 186.23 25.47 186.11 26.77 186.73 27.71 189.7 29.68 191.81 30.45 193.43 32.18 192.66 33 191.82 32.83 191.06 31.83 189.51 31.79 190.31 33.56 189.38 34.07 187.89 32.38 186.12 31.85 185.82 32.91 187.77 33.46 187.36 34.28 186.11 34.2 185.22 35.09 185.61 36.54 185.19 37.44 184.19 38.11 182.93 38.15 181.18 37.59 180.36 37.92 177.97 37.76 175.86 36.94 173.65 36.64 170.92 37.22 168.71 37.2 166.68 37.61 164.49 36.32 162.96 36.07 162.09 35.52 161.79 34.47 160.29 35.28 157 34.04 153.75 34.56 150.75 34.88 149.05 34.45 148.37 33.87 147.05 33.88 145.99 33.22 144.44 32.83 143.5 31.42 141.35 31.06 139.82 29.76 138.29 29.64 136.93 27.68 136.64 25.6 135.57 25.49 134.28 26.75 132.6 26.6 130.55 25.36 129.96 24.02 128.58 22.89 128.93 22.31 130.42 21.54 132.69 21.25 134.22 22.08 136.57 20.64 135.99 19.13 133.81 18.34 131.08 19.73 128.53 19.04 129.55 16.49 130.87 15.27 130.2 14.79 128.87 15.04 128.01 16.49 126.29 16.24 124.41 18.5 125.48 21.19 124.34 21.9 122.89 21.99 122.49 23.48 121.37 24.14 121.15 24.94 120 25.06 119.92 27.19 121.05 27.37 122.24 29.07 121.46 30.06 120.81 30.21 119.33 29.41 117.69 29.01 117.01 29.7 115.44 30.32 115.29 31.89 113.56 33.75 111.99 34.06 112.12 35.46 111.21 36.92 110.47 37.27 107.81 36.89 108.18 37.61 107.89 38.83 105.66 39.02 105.92 40.36 104.88 41.85 104.27 42.07 103.68 43.49 100.48 43.56 99 44.58 99.72 45.67 98.33 47.17 96.3 47.59 96.02 48.27 96.87 49.33 95.8 49.98 96.58 50.46 96.47 51.81 94.86 52.14 94.17 51.3 92.75 50.44 90.58 49.68 87.99 48.49 86.71 48.09 85.43 46.91 83.52 47.43 82.61 47.03 82.03 45.32 80.68 44.73 80.21 44.09 79.08 44.58 78.84 45.93 77.74 46.18 77.12 44.97 76.44 45.55 73.88 46.19 72.29 46.04 70.66 45.23 69.9 46.35 71.32 46.86 71.3 47.86 69.69 47.76 70.19 48.68 70.13 50.12 67.88 51.53 67.69 52.19 68.51 52.69 68.45 53.53 66.37 53.11 65.41 53.84 65.82 55.24 65.35 55.96 64.13 55.68 63.09 56.07 63.3 57.21 62.95 58.08 61.71 57.98 61.77 56.48 60.74 55.79 59.85 56.21 60.09 57.02 58.7 58.91 58.93 59.89 59.61 60.62 58.97 61.39 56.78 59.66 56.11 59.95 56.91 60.92 55.78 61.69 53.15 61.15 52.34 62.8 50.37 64.62 50.12 65.65 47.02 65.44 46.8 66.33 45.05 66.37 43.36 67.04 42.49 67.08 43.1 68.44 42.42 69.6 43.03 70.38 41.79 70.89 40.22 70.73 40.27 71.55 37.95 72.87 37.63 75.28 36.62 76.25 36.53 77.08 33.96 77.06 32.42 76.22 30.91 77.05 28.83 77.05 27.54 78.16 26.31 78.26 26.89 79.38 25.51 79.74 25.02 81.01 23.64 81.58 21.28 81.79 20.02 83.01 16.84 85.14 16.71 85.89 15.15 86.68 15.05 87.34 13.01 88.12 12.21 88.97 12.4 90.21 10.83 90.74 9.45 92.06 8.27 92.2 7.17 93.15 5.87 92.95 4.62 93.47 4.21 94.36 1.14 93.97 1.31 83.58 1.07 83.31 1 80.66 1.15 77.7 1.28 69.09 1.59 69.09 1.81 49.9 1.95 35.4 2.58 35.4 2.78 15.52 2.99 15.48 2.94 4.81 2.98 1.35 12.94 1.27 31.56 1.19 48.19 1.19 72.95 1.1 80.48 1.03 90.34 1.08 116.46 1.01 123.12 1.02 138.41 1 156.14 1.02 171.8 1.1 178.47 1.04 187.2 1.03 189.56 1.1 194.98 1.04 206.53 1.1 211.93 1.03 220.01 1.1 250.58 1.17 271.18 1.11 290.74 1.15 312.42 1.32 317.43 1.32 327.86 1.43 346.22 1.47 357.96 1.56 362.79 1.54 377.83 1.58 409.22 1.57 414.85 1.58 443.33 1.55 448.36 1.53 449.87 1.58 459.65 1.42 467.93 1.47 485.09 1.44 502.59 1.35 519.89 1.31 520.96 1.46 523.05 1.31 541.88 1.34 558.88 1.31 590.23 1.31 602.17 1.27 603.66 1.34 623.03 1.23 656.47 1.19 666.02 1.15 Z M 629.11 319.13 619.83 319.1 619.03 312.55 619.44 311.96 619.34 310.06 619.9 309.2 619.43 308.54 619.51 307.27 620.65 305.02 621.67 305.12 624.15 303.86 625.66 303.62 626.7 304.17 626.71 304.91 627.52 306.29 630.06 307.29 631.6 309.89 630.85 310.05 630.73 311.2 631.23 312.83 629.98 312.49 629.23 313.47 629.27 315.12 628.42 316.59 629.7 317.43 629.11 319.13 Z M 618.27 293.82 619.58 294.09 620.05 294.71 621.99 294.41 622.14 292.59 620.84 292.51 619.39 291.23 620.47 291.18 620.47 289.7 621.58 289.16 623.42 288.81 623.83 287.57 624.68 287.05 625.69 287.53 625.59 289.04 624.19 289.84 623.96 291.69 625.22 292.18 626.56 294.32 626.49 295.55 626.89 296.65 625.73 297.81 625.26 296.97 623.72 295.72 620.39 296.04 618.75 294.69 618.27 293.82 Z M 612.05 281.44 612.29 280.12 613.44 279.15 612.87 278.21 612.82 276.65 616.22 276.95 617.44 276.43 617.93 275.32 616.41 274.72 619.21 274.13 621.43 276.2 620.3 276.93 620.45 277.66 621.73 277.45 623.33 278.04 623.99 279.53 622.83 280.49 621.01 280.71 621.69 282.04 622.82 283.05 622.22 284.11 620.81 284.02 618.82 284.25 618.27 283.74 617.18 280.43 616.56 280.04 615.39 281.4 614.23 282.32 612.78 282.61 612.05 281.44 Z M 580.49 249.29 581.37 249.42 581.5 250.21 582.74 251.89 581.69 252.37 581.68 251.16 580.49 249.29 Z M 579.07 81.63 579.49 80.04 580.12 78.75 581.21 78.41 581.63 79.25 580.15 80.29 580.38 80.74 579.07 81.63 Z M 557.78 173.01 559.73 170.5 560.55 170.08 561.52 170.78 561.08 171.61 561.35 173.12 562.54 175.16 562.71 176.54 560.17 177.23 559.05 176.75 558.92 175.9 557.84 174.67 557.78 173.01 Z M 558.45 86.18 563.9 84.09 566.2 84.74 565.46 86.02 561.23 88.21 559.49 87.91 558.85 87.44 558.45 86.18 Z M 422.03 245.79 421.02 247.04 420.33 247.66 419.76 248.12 419.02 248.54 420.33 247.66 422.03 245.79 Z" fill-rule="evenodd" fill="none" stroke="currentColor" stroke-width="46.400"/>
</g>
</svg>