<svg viewBox="-79.93152102395867 -40.16690107362145 5.326452883457421 2.699055147242902" xmlns="http://www.w3.org/2000/svg">
  <path d="M -75.788596,39.722199 L -75.841731,39.721971 L -76.027713,39.721729 L -76.135484,39.721147 L -76.143742,39.721522 L -76.210176,39.721309 L -76.384583,39.721303 L -76.479138,39.721116 L -76.583876,39.721302 L -76.595462,39.720449 L -76.601427,39.721299 L -76.69765768089788,39.72108702998037 L -76.794989,39.720601 L -76.890423,39.72039 L -76.936519,39.720706 L -76.990903,39.719799 L -76.999318,39.720106 L -77.027261,39.719957 L -77.185669,39.719824 L -77.217024,39.719861 L -77.391594,39.71982 L -77.475257,39.720033 L -77.502113,39.719893 L -77.56746,39.720409 L -77.669563,39.720664 L -77.727585,39.721244 L -77.755438,39.721245 L -77.876018,39.722213 L -77.98480262152475,39.722394969056545 L -78.099403,39.722099 L -78.269442,39.722494 L -78.314414,39.722862 L -78.344435,39.722468 L -78.408653,39.722793 L -78.438841,39.722479 L -78.45195578988297,39.722844986543016 L -78.50050073676765,39.7228280693151 L -78.537597,39.722472 L -78.62474,39.722946 L -78.723362,39.72303 L -78.808387,39.722911 L -78.845405,39.722988 L -78.99072,39.722561 L -79.045548,39.722883 L -79.087425,39.722483 L -79.225157,39.72198 L -79.317643,39.721955 L -79.421224,39.721539 L -79.476662,39.721078 L -79.476862,39.701819 L -79.476565,39.642471 L -79.477764,39.642282 L -79.478866,39.531689 L -79.482366,39.531689 L -79.483148,39.451018 L -79.484372,39.3443 L -79.486072,39.3443 L -79.486812,39.29638 L -79.48764995033721,39.27995357664351 L -79.487274,39.265205 L -79.485903,39.263674 L -79.486875,39.205896 L -79.469793,39.203734 L -79.467522,39.208683 L -79.460555,39.211556 L -79.453304,39.21047 L -79.447205,39.215765 L -79.440647,39.216506 L -79.432984,39.223887 L -79.42423,39.226842 L -79.425299,39.233726 L -79.420836,39.238453 L -79.409478,39.242796 L -79.408964,39.24646 L -79.400243,39.250858 L -79.39956,39.255042 L -79.381857,39.266865 L -79.37487,39.273643 L -79.361714,39.27484 L -79.35404,39.278009 L -79.351308,39.285071 L -79.343626,39.287042 L -79.346842,39.29326 L -79.340049,39.293844 L -79.332864,39.300014 L -79.321265,39.300005 L -79.312867,39.304633 L -79.304304,39.299958 L -79.290013,39.299871 L -79.289517,39.304444 L -79.283884,39.309844 L -79.282132,39.323273 L -79.269243,39.330595 L -79.269494,39.335175 L -79.260754,39.334303 L -79.253878,39.3371 L -79.257255,39.34144 L -79.25348,39.347896 L -79.256882,39.355459 L -79.252037,39.355676 L -79.24261,39.359415 L -79.232919,39.359622 L -79.231648,39.36457 L -79.214443,39.363405 L -79.21303,39.369178 L -79.202106,39.379273 L -79.197556,39.388461 L -79.182964,39.385478 L -79.176636,39.389741 L -79.181091,39.395131 L -79.177372,39.396742 L -79.165187,39.387147 L -79.161655,39.391396 L -79.165448,39.395472 L -79.166705,39.400943 L -79.158996,39.411441 L -79.160305,39.415923 L -79.15535,39.418299 L -79.149649,39.414451 L -79.149979,39.406077 L -79.143065,39.405521 L -79.141094,39.410349 L -79.14231,39.416687 L -79.136499,39.418887 L -79.12970621268867,39.41734691531463 L -79.127108,39.42135 L -79.129372,39.429108 L -79.124036,39.433204 L -79.112456,39.430832 L -79.11212,39.435511 L -79.116703,39.438287 L -79.115665,39.441944 L -79.10313328434165,39.449811631534786 L -79.102805,39.457796 L -79.105599,39.462924 L -79.096595,39.462372 L -79.096512,39.467956 L -79.10442,39.470765 L -79.100194,39.476999 L -79.09113,39.47252 L -79.08225290362331,39.47164444060144 L -79.068018,39.475202 L -79.064224,39.478442 L -79.060776,39.471739 L -79.054694,39.473101 L -79.053369,39.480617 L -79.04705,39.483351 L -79.044432,39.479795 L -79.036912,39.476499 L -79.033719,39.46698 L -79.028668,39.464779 L -79.018031,39.467656 L -79.010924,39.461121 L -79.003763,39.458865 L -78.989405,39.452273 L -78.977285,39.448029 L -78.969434,39.443259 L -78.96556686254887,39.438570521408465 L -78.956637351113,39.440399096230124 L -78.956003,39.447929 L -78.960336,39.450578 L -78.954368,39.454218 L -78.95913,39.460124 L -78.95754,39.463903 L -78.946289,39.466203 L -78.93852,39.474572 L -78.942539,39.48063 L -78.934298,39.486284 L -78.91651729325014,39.4866878752127 L -78.913244,39.494594 L -78.90985,39.495834 L -78.904081,39.504072 L -78.905513,39.511545 L -78.89311,39.512594 L -78.891501,39.519368 L -78.893548,39.523421 L -78.878744,39.521274 L -78.874653,39.523218 L -78.869594,39.531373 L -78.870293,39.539156 L -78.861569,39.540886 L -78.851955,39.551227 L -78.851078,39.559945 L -78.842343,39.563395 L -78.83859,39.567227 L -78.829459,39.564994 L -78.821238,39.560579 L -78.817641,39.561388 L -78.81328247086729,39.56687779308794 L -78.819905,39.576333 L -78.826205,39.577335 L -78.825722,39.589177 L -78.819332,39.589889 L -78.818132,39.594316 L -78.811871,39.597994 L -78.80968141306644,39.60625939536791 L -78.801575,39.606763 L -78.795268,39.6107 L -78.801225,39.6257 L -78.790771,39.638275 L -78.781195,39.636846 L -78.776373,39.644933 L -78.768993,39.646307 L -78.765294,39.643658 L -78.772635,39.636885 L -78.778275,39.622703 L -78.764101,39.618844 L -78.748894,39.62656 L -78.736796,39.622187 L -78.733574,39.613775 L -78.746652,39.605752 L -78.755169,39.61037 L -78.767763,39.608792 L -78.776088,39.604508 L -78.778022,39.601285 L -78.77031,39.595001 L -78.767061,39.587511 L -78.755628,39.580662 L -78.746332,39.579778 L -78.739155,39.586834 L -78.73316,39.586208 L -78.731594,39.57461 L -78.72402509532974,39.563714381632536 L -78.715476,39.563032 L -78.70697517930306,39.5558111488791 L -78.695024,39.553835 L -78.689803,39.545956 L -78.68119,39.543813 L -78.675291,39.540161 L -78.667909,39.540201 L -78.66415,39.536987 L -78.654697,39.534605 L -78.638005,39.536376 L -78.61991,39.539236 L -78.601648,39.532381 L -78.593262,39.536851 L -78.59163,39.530995 L -78.586787,39.527976 L -78.578244,39.526567 L -78.566115,39.519371 L -78.554809,39.521649 L -78.542496,39.521538 L -78.527333,39.524801 L -78.515028,39.523144 L -78.503279,39.518582 L -78.490003,39.51765 L -78.485425,39.519513 L -78.475685,39.516393 L -78.46867469387536,39.51660406421896 L -78.463134,39.520327 L -78.460804,39.525361 L -78.462969,39.533398 L -78.458004,39.538349 L -78.45106924683533,39.53794192319434 L -78.448763,39.542496 L -78.459612,39.545552 L -78.457983,39.551432 L -78.448112,39.548458 L -78.439837,39.539082 L -78.434647,39.541903 L -78.439099,39.551768 L -78.430505,39.551565 L -78.426237,39.54596 L -78.42157692028842,39.545033947818844 L -78.417295,39.549603 L -78.42632,39.559222 L -78.43802,39.563477 L -78.454577,39.574444 L -78.45804,39.579708 L -78.457368,39.586916 L -78.445456,39.591446 L -78.428833,39.587125 L -78.419668,39.581547 L -78.407865,39.578629 L -78.402112,39.579632 L -78.395284,39.584109 L -78.39704,39.590225 L -78.411617,39.597442 L -78.421776,39.604207 L -78.431468,39.614518 L -78.433654,39.619952 L -78.430139,39.623416 L -78.420507,39.624073 L -78.394909,39.615623 L -78.383941,39.608981 L -78.37840654943672,39.607978897302544 L -78.37230488958721,39.61202639692032 L -78.383617,39.623945 L -78.380623,39.629219 L -78.368328,39.629201 L -78.358934,39.625286 L -78.354824,39.62655 L -78.353784,39.631403 L -78.359254,39.637208 L -78.355323,39.640663 L -78.335648,39.637413 L -78.312674,39.631054 L -78.28628488540782,39.6213054442757 L -78.266648,39.618951 L -78.262791,39.622874 L -78.262338,39.630495 L -78.254252,39.639976 L -78.238881,39.65146 L -78.226841,39.657338 L -78.223663,39.66274 L -78.233342,39.672046 L -78.226809,39.676269 L -78.205549,39.676038 L -78.201103,39.677575 L -78.192544,39.688701 L -78.182758,39.69511 L -78.171392,39.695605 L -78.161219,39.693517 L -78.154301,39.690623 L -78.143459,39.690493 L -78.13125,39.686733 L -78.104433,39.68144 L -78.098252,39.678912 L -78.089392,39.67139 L -78.083185,39.671528 L -78.075812,39.667781 L -78.062794,39.656662 L -78.054211,39.650986 L -78.049221,39.644471 L -78.037405,39.637044 L -78.030295,39.627893 L -78.023598,39.62182 L -78.01079,39.603571 L -78.006719,39.601483 L -77.985785,39.599347 L -77.977612,39.599608 L -77.969393,39.605884 L -77.958716,39.608862 L -77.951343,39.605735 L -77.952247,39.594445 L -77.94936699245689,39.586705441035676 L -77.941505,39.585182 L -77.937037,39.59111 L -77.935506,39.608476 L -77.938182,39.612405 L -77.944647,39.615248 L -77.940886,39.619068 L -77.933619,39.618136 L -77.928268,39.613509 L -77.923784,39.605281 L -77.889135,39.597453 L -77.882125,39.59924 L -77.881048,39.606007 L -77.886274,39.612458 L -77.884519,39.615811 L -77.874265,39.614079 L -77.864482,39.608931 L -77.85356,39.607125 L -77.838027,39.605972 L -77.83232,39.601632 L -77.829839,39.5869 L -77.833388,39.572645 L -77.836357,39.566442 L -77.8411,39.564701 L -77.874231,39.564072 L -77.886918,39.55997 L -77.887589,39.553104 L -77.870106,39.543086 L -77.865275,39.538412 L -77.86492,39.529366 L -77.866409,39.521166 L -77.861176,39.514293 L -77.849437,39.515595 L -77.841945,39.518428 L -77.84056,39.529142 L -77.833539,39.532569 L -77.825987,39.529669 L -77.823498,39.523785 L -77.827982,39.514909 L -77.846876,39.504235 L -77.845321,39.498098 L -77.827301,39.493075 L -77.818841,39.493418 L -77.807346,39.49013 L -77.79680824709612,39.489567971985316 L -77.789593,39.492379 L -77.782153,39.499036 L -77.774274,39.499325 L -77.76634,39.496238 L -77.767278,39.491271 L -77.788632,39.485144 L -77.797756,39.479168 L -77.79697,39.472998 L -77.791206,39.468543 L -77.780302,39.464658 L -77.78223,39.459839 L -77.793283,39.462086 L -77.798006,39.460769 L -77.798396,39.456328 L -77.786885,39.448066 L -77.786979,39.443526 L -77.79907,39.441316 L -77.803269,39.43799 L -77.79654160928199,39.431699829948094 L -77.786332,39.428876 L -77.759034,39.427072 L -77.752943,39.423041 L -77.746403,39.409369 L -77.741,39.403591 L -77.735869,39.391172 L -77.738737,39.385736 L -77.748271,39.384573 L -77.752987,39.379023 L -77.743967,39.365332 L -77.746092,39.353145 L -77.749771,39.349579 L -77.759629,39.344775 L -77.760862,39.340027 L -77.755728,39.333938 L -77.751078,39.333117 L -77.732596,39.32604 L -77.727685,39.322114 L -77.719708,39.321088 L -77.707674,39.321728 L -77.69674,39.318546 L -77.6865,39.320199 L -77.681722,39.323888 L -77.675467,39.32436 L -77.667602,39.318392 L -77.644463,39.308929 L -77.633483,39.307605 L -77.615641,39.302559 L -77.606958,39.303682 L -77.599192,39.301885 L -77.588777,39.301591 L -77.578646,39.305167 L -77.56838739832148,39.30637913889957 L -77.562612,39.303039 L -77.561587,39.288002 L -77.554439,39.281629 L -77.550832,39.275688 L -77.54084,39.265269 L -77.530971,39.261102 L -77.520624,39.258413 L -77.510668,39.253256 L -77.498573,39.25161 L -77.484731,39.246052 L -77.480332,39.24117 L -77.471105,39.234303 L -77.460726,39.228799 L -77.45771,39.224979 L -77.46084346438185,39.21814836979369 L -77.472866,39.20948 L -77.475995,39.201827 L -77.476711,39.191747 L -77.481202,39.187909 L -77.507558,39.181367 L -77.517622,39.169417 L -77.521298,39.161873 L -77.52436531346048,39.15016249062115 L -77.527322,39.146961 L -77.526946,39.135605 L -77.524664,39.12772 L -77.518447,39.119782 L -77.489835,39.111374 L -77.481015,39.105689 L -77.472831,39.093182 L -77.468909,39.089679 L -77.468824,39.085346 L -77.460602,39.074843 L -77.454729,39.072807 L -77.441698,39.071313 L -77.420005,39.066369 L -77.398968,39.064697 L -77.386818,39.062241 L -77.368153,39.06159 L -77.362289,39.06256 L -77.342108,39.062926 L -77.334191,39.061303 L -77.328318,39.057678 L -77.320171,39.053558 L -77.304662,39.05137 L -77.293066,39.046469 L -77.275037,39.034284 L -77.254378,39.029567 L -77.246317,39.024681 L -77.246868,39.014866 L -77.253259,39.009158 L -77.255759,39.001991 L -77.252972,38.995521 L -77.248543,38.992466 L -77.245067,38.982782 L -77.234875,38.975976 L -77.228781,38.978746 L -77.223953,38.972219 L -77.21152,38.969344 L -77.20817,38.970252 L -77.197774,38.96674 L -77.179617,38.968301 L -77.17101,38.96649 L -77.165549,38.967764 L -77.15019417414489,38.96541690022093 L -77.145081,38.963146 L -77.13550260912466,38.95372179196902 L -77.1282,38.940874 L -77.11978772555305,38.93436788254807 L -77.040882,38.995845 L -77.003555,38.966548 L -76.909393,38.892852 L -77.039366,38.79159 L -77.041362,38.785415 L -77.042022,38.746721 L -77.041469,38.725847 L -77.043338,38.718468 L -77.053017,38.709932 L -77.071433,38.709981 L -77.079814,38.712672 L -77.081614,38.707926 L -77.088961,38.705084 L -77.098546,38.698934 L -77.10408,38.697429 L -77.122632,38.685256 L -77.132439,38.674143 L -77.136423,38.650226 L -77.136293,38.647231 L -77.12986729246762,38.634990480552766 L -77.110064,38.633412 L -77.107093,38.630719 L -77.115649,38.623478 L -77.12463,38.619778 L -77.129084,38.614364 L -77.140843,38.610478 L -77.148651,38.6056 L -77.169671,38.60687 L -77.183207,38.600381 L -77.191372,38.5881 L -77.191736,38.585424 L -77.206619,38.57355 L -77.210349,38.567667 L -77.221117,38.555217 L -77.22987,38.554408 L -77.237724,38.55187 L -77.25756,38.521793 L -77.256725,38.51896 L -77.263599,38.512344 L -77.26741,38.501376 L -77.267014,38.498573 L -77.272399,38.489935 L -77.27422,38.48177 L -77.266161,38.473867 L -77.267285,38.467498 L -77.27087,38.464073 L -77.264674,38.456045 L -77.262929,38.449357 L -77.265881,38.443802 L -77.257506,38.433979 L -77.256718,38.430446 L -77.263354,38.420844 L -77.265125,38.413501 L -77.257567,38.402261 L -77.257256,38.397387 L -77.25365,38.393536 L -77.250172,38.382781 L -77.236367,38.374246 L -77.223976,38.368614 L -77.216729,38.363159 L -77.207312,38.359867 L -77.18668,38.365636 L -77.179466,38.368537 L -77.171573,38.374559 L -77.166048,38.376003 L -77.15646,38.383001 L -77.147306,38.386195 L -77.136728,38.391799 L -77.127737,38.400833 L -77.123325,38.410646 L -77.110586,38.40921 L -77.106571,38.406237 L -77.099851,38.407811 L -77.091073,38.407546 L -77.086393,38.414755 L -77.075489,38.42471 L -77.069894,38.426126 L -77.06473,38.431003 L -77.040638,38.444618 L -77.016371,38.445572 L -77.01246,38.43671 L -77.007481,38.431321 L -77.001638,38.421952 L -76.998585,38.409294 L -76.98828,38.394975 L -76.984297,38.374686 L -76.983582,38.362999 L -76.976081,38.355941 L -76.975099,38.348748 L -76.978251,38.342283 L -76.967154,38.341571 L -76.952456,38.333229 L -76.946013,38.331866 L -76.930264,38.323091 L -76.922177,38.311339 L -76.924919,38.290707 L -76.918069,38.291499 L -76.907406,38.288467 L -76.888781,38.278549 L -76.864292,38.268945 L -76.853084,38.261475 L -76.847074,38.25616 L -76.842139,38.254491 L -76.837789,38.261609 L -76.84055,38.264311 L -76.834803,38.274012 L -76.83741,38.277104 L -76.840383,38.289184 L -76.84622,38.291768 L -76.846715,38.300301 L -76.853013,38.304778 L -76.854439,38.312984 L -76.851587,38.315968 L -76.858718,38.324825 L -76.866086,38.327436 L -76.869889,38.331817 L -76.869294,38.338715 L -76.863828,38.343842 L -76.856103,38.358567 L -76.827106,38.347384 L -76.82984,38.341884 L -76.833999,38.341512 L -76.841605,38.336758 L -76.835068,38.333868 L -76.828651,38.313543 L -76.823066,38.309068 L -76.825439,38.302962 L -76.814034,38.291348 L -76.813202,38.286777 L -76.807051,38.285414 L -76.802347,38.280743 L -76.80215,38.276702 L -76.809004,38.268972 L -76.805725,38.262343 L -76.805224,38.253648 L -76.800843,38.249922 L -76.790622,38.251322 L -76.785512,38.249362 L -76.785512,38.245536 L -76.777788,38.242922 L -76.775767,38.235642 L -76.778857,38.234428 L -76.778625,38.22847 L -76.763906,38.226003 L -76.752286,38.222121 L -76.744788,38.227768 L -76.744661,38.232562 L -76.740055,38.235227 L -76.735986,38.242736 L -76.732064,38.246003 L -76.7222,38.241056 L -76.719229,38.237882 L -76.719857,38.233154 L -76.704888,38.233635 L -76.699026,38.240683 L -76.687142,38.241336 L -76.687261,38.235549 L -76.683932,38.234116 L -76.673462,38.234401 L -76.65991,38.23054 L -76.6473,38.225126 L -76.632544,38.225657 L -76.619633,38.222805 L -76.590637,38.214212 L -76.580619,38.2071 L -76.572581,38.203618 L -76.560132,38.193977 L -76.552957,38.187209 L -76.547333,38.175673 L -76.545335,38.165373 L -76.54038,38.152991 L -76.532974,38.146624 L -76.529868,38.134083 L -76.518488,38.140951 L -76.508825,38.140713 L -76.502115,38.138882 L -76.481036,38.115873 L -76.473266,38.103035 L -76.46548,38.106602 L -76.469798,38.119264 L -76.461872,38.13139 L -76.461228,38.139339 L -76.468834,38.149059 L -76.469666,38.153358 L -76.461584,38.154667 L -76.450057,38.159245 L -76.438886,38.160834 L -76.435083,38.154947 L -76.4415,38.151022 L -76.43544,38.146629 L -76.43757,38.136107 L -76.430203,38.126001 L -76.430425,38.119383 L -76.425457,38.114659 L -76.421214,38.106039 L -76.405368,38.106974 L -76.392335,38.102896 L -76.390665,38.094067 L -76.38422,38.091935 L -76.371623,38.08174 L -76.37179,38.079565 L -76.361237,38.059542 L -76.355104,38.056853 L -76.35275,38.053182 L -76.337453,38.053497 L -76.321804,38.049665 L -76.329764,38.072406 L -76.33193,38.099604 L -76.340843,38.116436 L -76.333832,38.125598 L -76.320136,38.138339 L -76.32566,38.147608 L -76.328365,38.148966 L -76.334364,38.159676 L -76.353516,38.178135 L -76.361877,38.192048 L -76.385244,38.217751 L -76.39932,38.259284 L -76.398852,38.266997 L -76.394171,38.278233 L -76.376622,38.294525 L -76.375023,38.299419 L -76.381493,38.30313 L -76.395728,38.308632 L -76.408938,38.304498 L -76.422724,38.304778 L -76.42926,38.294426 L -76.441857,38.291628 L -76.459208,38.294426 L -76.470854,38.309068 L -76.476321,38.313544 L -76.474776,38.322122 L -76.468239,38.328927 L -76.46206,38.325012 L -76.455761,38.316527 L -76.451364,38.323241 L -76.438054,38.325292 L -76.426883,38.322774 L -76.419221,38.322916 L -76.40494,38.341089 L -76.387002,38.361267 L -76.390914,38.375055 L -76.381866,38.386381 L -76.394842,38.389403 L -76.402516,38.394402 L -76.407569,38.402967 L -76.413535,38.40933 L -76.415384,38.414682 L -76.436271,38.433429 L -76.450937,38.442422 L -76.455799,38.451233 L -76.473543,38.466438 L -76.483987,38.474109 L -76.492699,38.482849 L -76.506023,38.50461 L -76.515706,38.528988 L -76.517506,38.539149 L -76.515106,38.555763 L -76.517209,38.573114 L -76.51634,38.590229 L -76.511278,38.615745 L -76.515133,38.623755 L -76.515554,38.629361 L -76.52462,38.645956 L -76.532398,38.678363 L -76.532537,38.699669 L -76.528821,38.710892 L -76.526198,38.724287 L -76.529868,38.728435 L -76.544475,38.727705 L -76.552743,38.73535 L -76.557535,38.744687 L -76.554227,38.753955 L -76.55917,38.758677 L -76.559884,38.767361 L -76.549578,38.772852 L -76.539365,38.774694 L -76.526979,38.787016 L -76.524679,38.795016 L -76.510078,38.801216 L -76.506661,38.809793 L -76.497944,38.814802 L -76.49576,38.830067 L -76.489878,38.838715 L -76.494444,38.850724 L -76.49977,38.852212 L -76.503297,38.845498 L -76.514944,38.852162 L -76.519935,38.850125 L -76.536454,38.851791 L -76.538474,38.861416 L -76.534433,38.862804 L -76.519442,38.863135 L -76.49068,38.884814 L -76.49088,38.894514 L -76.49388,38.899614 L -76.494503,38.909334 L -76.499732,38.908594 L -76.507338,38.91294 L -76.50912,38.919875 L -76.50621946882515,38.921235156866736 L -76.497236,38.925515 L -76.489512,38.927364 L -76.478341,38.91895 L -76.478222,38.916454 L -76.46948,38.911513 L -76.46938,38.907613 L -76.460256,38.907145 L -76.458783,38.915214 L -76.463617,38.927477 L -76.459659,38.933927 L -76.45028,38.941113 L -76.457781,38.948412 L -76.463081,38.948612 L -76.471281,38.956512 L -76.474882,38.967312 L -76.474198,38.972647 L -76.480242,38.977731 L -76.476202,38.981519 L -76.46919,38.982628 L -76.463129,38.981057 L -76.458495,38.98466 L -76.450481,38.977612 L -76.44875,38.986969 L -76.450413,38.991034 L -76.446611,38.994913 L -76.434489,38.996668 L -76.43128,39.00147 L -76.423912,38.999531 L -76.42415,38.994174 L -76.413248,38.996967 L -76.413967,39.001442 L -76.394498,39.012684 L -76.39778,39.022611 L -76.405081,39.033211 L -76.41373,39.038872 L -76.431223,39.046958 L -76.438928,39.052788 L -76.42994,39.062853 L -76.421936,39.076991 L -76.422158,39.083849 L -76.433144,39.111234 L -76.433278,39.121774 L -76.431043,39.132123 L -76.452782,39.143509 L -76.471483,39.154709 L -76.48026,39.166637 L -76.486184,39.162445 L -76.488561,39.157376 L -76.493909,39.155165 L -76.50092,39.155441 L -76.500564,39.162076 L -76.512387,39.172502 L -76.517677,39.173225 L -76.525785,39.177908 L -76.52612,39.181003 L -76.533406,39.190413 L -76.527859,39.19552 L -76.530875,39.200979 L -76.535385,39.203808 L -76.53307360008534,39.20764763381423 L -76.534285,39.213208 L -76.541801,39.212277 L -76.555349,39.216972 L -76.5645,39.224614 L -76.562242,39.235292 L -76.565569,39.241183 L -76.578523,39.248822 L -76.584465,39.253792 L -76.586485,39.261337 L -76.571511,39.260693 L -76.563311,39.25692 L -76.552735,39.257472 L -76.540256,39.250387 L -76.538949,39.245509 L -76.533245,39.23925 L -76.522312,39.24238 L -76.517201,39.241551 L -76.516607,39.232255 L -76.512567,39.22848 L -76.503178,39.232071 L -76.497355,39.226915 L -76.49688,39.215039 L -76.500984,39.209376 L -76.495705,39.201876 L -76.492049,39.201442 L -76.480083,39.205108 L -76.463483,39.205908 L -76.462535,39.215775 L -76.4579,39.21909 L -76.446848,39.218261 L -76.444115,39.210435 L -76.449582,39.203805 L -76.447674,39.197735 L -76.442482,39.195408 L -76.436539,39.202168 L -76.425281,39.205708 L -76.417681,39.219808 L -76.409697,39.225122 L -76.399123,39.229047 L -76.401095,39.232715 L -76.410246,39.231518 L -76.422486,39.232531 L -76.430092,39.239066 L -76.441263,39.242932 L -76.4388736320949,39.2486117411106 L -76.436628,39.253423 L -76.427002,39.254896 L -76.415712,39.24781 L -76.404541,39.249282 L -76.404898,39.25554 L -76.395432,39.266823 L -76.399194,39.270262 L -76.393252,39.277714 L -76.38282,39.277549 L -76.382556,39.286452 L -76.393252,39.286268 L -76.399194,39.292339 L -76.398956,39.297029 L -76.408106,39.300064 L -76.410959,39.308248 L -76.40882,39.311743 L -76.402878,39.311375 L -76.395747,39.306042 L -76.383863,39.308432 L -76.384933,39.301903 L -76.380179,39.298593 L -76.371079,39.304157 L -76.36439,39.31184 L -76.37091,39.320661 L -76.365324,39.321672 L -76.355698,39.31588 L -76.355495,39.312155 L -76.347288,39.314099 L -76.340011,39.311283 L -76.33609,39.314409 L -76.329184,39.315036 L -76.333951,39.320145 L -76.333387,39.324075 L -76.352608,39.329394 L -76.34934631842432,39.33690715907643 L -76.345003,39.340332 L -76.334243,39.339708 L -76.338942,39.349798 L -76.345003,39.357701 L -76.340962,39.359906 L -76.337753,39.37332 L -76.343933,39.375617 L -76.350113,39.375158 L -76.357362,39.385629 L -76.357124,39.394079 L -76.335377,39.390405 L -76.329197,39.38765 L -76.323017,39.389946 L -76.311371,39.388477 L -76.307093,39.385446 L -76.302458,39.37727 L -76.303052,39.370656 L -76.309351,39.359631 L -76.309422,39.354152 L -76.295678,39.350008 L -76.294978,39.346608 L -76.298778,39.340208 L -76.298778,39.329208 L -76.293518,39.325048 L -76.289623,39.317167 L -76.29039,39.309784 L -76.296616,39.302032 L -76.281747,39.29966 L -76.281255,39.310365 L -76.277718,39.315549 L -76.277739,39.322132 L -76.266835,39.329677 L -76.263577,39.334308 L -76.257061,39.337851 L -76.258487,39.34695 L -76.265277,39.350008 L -76.265499,39.359171 L -76.273461,39.361468 L -76.28689,39.369002 L -76.277739,39.371483 L -76.272204,39.378096 L -76.2756,39.380853 L -76.265142,39.392334 L -76.269064,39.403079 L -76.263478,39.408129 L -76.254803,39.411894 L -76.254209,39.416668 L -76.247435,39.435027 L -76.253615,39.442553 L -76.251594,39.44962 L -76.244345,39.455401 L -76.241493,39.461273 L -76.232937,39.459438 L -76.231035,39.45641 L -76.236383,39.44549 L -76.236977,39.438056 L -76.224618,39.425665 L -76.230084,39.418137 L -76.242681,39.407486 L -76.241612,39.403997 L -76.24978,39.388889 L -76.244741,39.383598 L -76.253393,39.378748 L -76.246247,39.370289 L -76.252664,39.370013 L -76.250107,39.36132 L -76.239877,39.361408 L -76.233776,39.352008 L -76.226976,39.349908 L -76.22168,39.356362 L -76.203613,39.363974 L -76.196933,39.367844 L -76.186708,39.380945 L -76.180074,39.377609 L -76.175949,39.382236 L -76.174108,39.389239 L -76.158774,39.40631 L -76.146373,39.40531 L -76.136331,39.411013 L -76.121889,39.421226 L -76.11682,39.427614 L -76.104807,39.433222 L -76.100311,39.443196 L -76.089259,39.445123 L -76.081176,39.436712 L -76.060025,39.449895 L -76.069322,39.467674 L -76.071975,39.475047 L -76.079592,39.474994 L -76.083286,39.47786 L -76.098315,39.476116 L -76.104665,39.478792 L -76.112058,39.486221 L -76.116473,39.481364 L -76.122415,39.481364 L -76.12812,39.486683 L -76.123129,39.488885 L -76.117253,39.496068 L -76.111231,39.505994 L -76.111068,39.509463 L -76.104836,39.521636 L -76.098195,39.529476 L -76.096072,39.536912 L -76.088581,39.538222 L -76.083555,39.541875 L -76.063811,39.54661 L -76.04708,39.546437 L -76.045526,39.552597 L -76.036851,39.552872 L -76.0285,39.548502 L -76.017685,39.546564 L -76.012077,39.539333 L -76.006657,39.538873 L -76.002438,39.541767 L -76.006374,39.54621 L -75.999669,39.560488 L -75.973034,39.570463 L -75.965265,39.578871 L -75.964834,39.586492 L -75.957703,39.592536 L -75.948909,39.593177 L -75.948553,39.579806 L -75.95625,39.573778 L -75.956158,39.567531 L -75.96317,39.562126 L -75.969231,39.561301 L -75.970337,39.557637 L -75.966555,39.54611 L -75.969239,39.541622 L -75.962338,39.536101 L -75.96626,39.53216 L -75.973217,39.532677 L -75.980501,39.529095 L -75.981485,39.516242 L -75.986298,39.510398 L -75.98812,39.497005 L -75.994826,39.489681 L -75.99579,39.484394 L -75.993994,39.47619 L -75.999389,39.465941 L -76.009587,39.457536 L -76.012312,39.453115 L -76.009452,39.449201 L -76.002513,39.450204 L -75.99597,39.453841 L -75.997158,39.456869 L -75.9867,39.461273 L -75.985512,39.469897 L -75.978263,39.470539 L -75.966616,39.462833 L -75.971727,39.456869 L -75.976747,39.444627 L -75.982585,39.435287 L -75.997396,39.430314 L -76.002509,39.423512 L -76.00688,39.414527 L -76.016531,39.408465 L -76.033062,39.403143 L -76.037599,39.399451 L -76.041313,39.390636 L -76.038029,39.386729 L -76.030818,39.385459 L -76.008923,39.385905 L -75.995138,39.384711 L -75.986106,39.379475 L -75.993237,39.372034 L -76.002408,39.367501 L -76.011538,39.366614 L -76.02299,39.361896 L -76.032923,39.367414 L -76.049846,39.370644 L -76.062313,39.371992 L -76.085846,39.370373 L -76.110527,39.372257 L -76.116356,39.360925 L -76.132323,39.352736 L -76.136971,39.344414 L -76.133225,39.340491 L -76.133468,39.332887 L -76.143212,39.328291 L -76.145524,39.334399 L -76.159673,39.335909 L -76.170422,39.332094 L -76.175627,39.323529 L -76.185581,39.319334 L -76.186024,39.312462 L -76.179092,39.310098 L -76.176633,39.304003 L -76.179093,39.300069 L -76.172685,39.298317 L -76.168288,39.294638 L -76.172685,39.2882 L -76.178864,39.291511 L -76.183131,39.290997 L -76.185674,39.285367 L -76.190181,39.281344 L -76.200092,39.280028 L -76.204218,39.268636 L -76.211253,39.269812 L -76.222479,39.257748 L -76.226696,39.244306 L -76.232051,39.233341 L -76.241362,39.221074 L -76.251032,39.199214 L -76.255831,39.191595 L -76.266602,39.180523 L -76.274637,39.16549 L -76.277367,39.151647 L -76.276075,39.146225 L -76.265384,39.143994 L -76.257035,39.135733 L -76.244859,39.130644 L -76.244423,39.122005 L -76.24729,39.118712 L -76.242806,39.108925 L -76.235996,39.099873 L -76.231748,39.082826 L -76.231117,39.061017 L -76.227376,39.053098 L -76.230421,39.04568 L -76.237065,39.045521 L -76.240905,39.039798 L -76.242687,39.028926 L -76.235092,39.023456 L -76.231765,39.018518 L -76.217302,39.0134 L -76.215965,39.009975 L -76.209838,39.008766 L -76.206467,39.013103 L -76.201492,39.013508 L -76.20958,39.027089 L -76.207253,39.032993 L -76.212616,39.041158 L -76.20998,39.045384 L -76.212306,39.049608 L -76.209336,39.058622 L -76.211743,39.069727 L -76.204621,39.077023 L -76.203383,39.085626 L -76.183908,39.096344 L -76.164841,39.095978 L -76.145174,39.092824 L -76.143094,39.087861 L -76.150528,39.079421 L -76.15896,39.065486 L -76.16906,39.062787 L -76.175284,39.058805 L -76.184207,39.046264 L -76.177142,39.044173 L -76.17541,39.039169 L -76.178281,39.031663 L -76.170427,39.023724 L -76.163616,39.010057 L -76.163988,38.999541 L -76.172013,38.995314 L -76.191431,38.979632 L -76.20236,38.973079 L -76.208121,38.973479 L -76.218929,38.970538 L -76.226177,38.974572 L -76.238641,38.973482 L -76.244092,38.980692 L -76.252783,38.980503 L -76.256586,38.975422 L -76.261815,38.978009 L -76.259913,38.983762 L -76.277478,38.982492 L -76.28107,38.988799 L -76.288988,38.996689 L -76.293962,39.003948 L -76.297494,39.019255 L -76.304953,39.026402 L -76.301847,39.039651 L -76.311766,39.035257 L -76.320274,39.023013 L -76.323557,39.008961 L -76.321353,39.00341 L -76.324528,38.995695 L -76.332988,38.9868 L -76.335987,38.97548 L -76.340851,38.974585 L -76.353828,38.957234 L -76.361727,38.939175 L -76.362306,38.929288 L -76.365658,38.907477 L -76.365219,38.892409 L -76.363869,38.8841 L -76.364678,38.873831 L -76.369157,38.862953 L -76.374677,38.855319 L -76.375086,38.839474 L -76.368195,38.836125 L -76.363478,38.849976 L -76.35039,38.857399 L -76.340587,38.85574 L -76.33103,38.86432 L -76.333641,38.88055 L -76.338501,38.892474 L -76.336177,38.896692 L -76.336104,38.905977 L -76.340249,38.91183 L -76.33395,38.918118 L -76.327177,38.918118 L -76.324097,38.911174 L -76.318024,38.911288 L -76.3166,38.923018 L -76.308994,38.924683 L -76.302814,38.922001 L -76.299606,38.902675 L -76.293308,38.903241 L -76.293867,38.910121 L -76.299431,38.918542 L -76.295911,38.928663 L -76.273083,38.941927 L -76.262226,38.919976 L -76.256397,38.918829 L -76.248023,38.92379 L -76.25611,38.927086 L -76.260864,38.932726 L -76.251119,38.940213 L -76.25188,38.958714 L -76.253377,38.964889 L -76.243513,38.965628 L -76.236502,38.954169 L -76.237334,38.949364 L -76.234838,38.942524 L -76.227515,38.941594 L -76.224499,38.947238 L -76.221053,38.947515 L -76.208574,38.944003 L -76.213002,38.933563 L -76.205054,38.930862 L -76.203991,38.924044 L -76.205231,38.908803 L -76.203744,38.895852 L -76.196809,38.895091 L -76.200082,38.882885 L -76.202598,38.862616 L -76.206081,38.853003 L -76.197705,38.843712 L -76.195402,38.835489 L -76.19109,38.82966 L -76.19343,38.821787 L -76.199305,38.812077 L -76.200256,38.803001 L -76.197403,38.798371 L -76.188134,38.792072 L -76.186351,38.786051 L -76.178746,38.780493 L -76.180172,38.776972 L -76.170902,38.77058 L -76.160207,38.775027 L -76.155334,38.77234 L -76.156523,38.768912 L -76.162583,38.766873 L -76.165673,38.758626 L -76.170546,38.753714 L -76.181954,38.756495 L -76.187302,38.767615 L -76.193838,38.769838 L -76.195502,38.773174 L -76.202276,38.776231 L -76.216418,38.7867 L -76.217963,38.789849 L -76.214516,38.794851 L -76.217844,38.80013 L -76.211545,38.805502 L -76.229372,38.821372 L -76.239377,38.820097 L -76.242087,38.817355 L -76.250364,38.825438 L -76.250107,38.830157 L -76.255204,38.83286 L -76.259478,38.84312 L -76.265808,38.847512 L -76.266515,38.852848 L -76.281548,38.837956 L -76.278151,38.835494 L -76.288455,38.827347 L -76.2978,38.828314 L -76.302235,38.82516 L -76.303261,38.8209 L -76.308922,38.813346 L -76.310081,38.796846 L -76.318841,38.787758 L -76.323768,38.779287 L -76.330202,38.776908 L -76.334619,38.772911 L -76.329435,38.768819 L -76.330029,38.763445 L -76.337261,38.76073 L -76.34253,38.749016 L -76.339116,38.738245 L -76.340543,38.730338 L -76.338503,38.722294 L -76.342529,38.714055 L -76.345034,38.70384 L -76.342973,38.698463 L -76.346475,38.692048 L -76.34372,38.68169 L -76.34013,38.676009 L -76.333356,38.6787 L -76.325939,38.678015 L -76.321865,38.689512 L -76.327401,38.693912 L -76.334017,38.703127 L -76.331479,38.713266 L -76.324496,38.718461 L -76.319333,38.729151 L -76.312756,38.730708 L -76.314698,38.737587 L -76.324919,38.74009 L -76.312797,38.745836 L -76.313391,38.74908 L -76.298655,38.749729 L -76.294496,38.735733 L -76.294733,38.731005 L -76.299009,38.727819 L -76.295957,38.724162 L -76.284157,38.720714 L -76.282354,38.716204 L -76.271596,38.713216 L -76.270277,38.724385 L -76.267277,38.72823 L -76.255093,38.736476 L -76.257299,38.742592 L -76.254803,38.749173 L -76.244345,38.749544 L -76.242563,38.759831 L -76.236145,38.763445 L -76.224618,38.760387 L -76.222597,38.757607 L -76.224618,38.751305 L -76.213447,38.742778 L -76.205485,38.739163 L -76.208931,38.73323 L -76.215348,38.728502 L -76.222479,38.736289 L -76.229253,38.739163 L -76.238165,38.736938 L -76.236977,38.73323 L -76.231807,38.731547 L -76.22949,38.726184 L -76.236742,38.72404 L -76.239069,38.719441 L -76.238725,38.712845 L -76.226932,38.69809 L -76.219644,38.697211 L -76.21343,38.692365 L -76.215639,38.687221 L -76.212808,38.681892 L -76.204151,38.675498 L -76.198592,38.676751 L -76.195383,38.682318 L -76.184569,38.695026 L -76.177201,38.692985 L -76.173041,38.68742 L -76.177319,38.676009 L -76.173137,38.670965 L -76.166692,38.667742 L -76.162568,38.662076 L -76.155611,38.658083 L -76.151563,38.646143 L -76.147158,38.63684 L -76.134656,38.638889 L -76.127644,38.635268 L -76.123485,38.628956 L -76.113384,38.621343 L -76.099598,38.624871 L -76.088546,38.625892 L -76.083079,38.623478 L -76.080346,38.614657 L -76.072978,38.612893 L -76.05337,38.603792 L -76.052894,38.594133 L -76.047665,38.591811 L -76.039228,38.584937 L -76.031622,38.581314 L -76.026512,38.56682 L -76.043149,38.562081 L -76.053726,38.56747 L -76.061569,38.569793 L -76.077851,38.579456 L -76.077851,38.58503 L -76.086526,38.585866 L -76.090091,38.592925 L -76.101618,38.587538 L -76.114334,38.582986 L -76.120514,38.586237 L -76.132992,38.595619 L -76.141311,38.606021 L -76.152601,38.595805 L -76.161276,38.595117 L -76.168644,38.602213 L -76.164366,38.614936 L -76.164722,38.6219 L -76.168548,38.627902 L -76.176612,38.627647 L -76.186492,38.621074 L -76.191902,38.619697 L -76.203065,38.610741 L -76.212427,38.606738 L -76.215393,38.609413 L -76.238165,38.6167 L -76.234802,38.624309 L -76.238471,38.627368 L -76.254538,38.622248 L -76.249931,38.615307 L -76.264155,38.615109 L -76.265142,38.611221 L -76.274293,38.611779 L -76.271827,38.615661 L -76.276432,38.621157 L -76.280829,38.619486 L -76.278861,38.611518 L -76.273229,38.602039 L -76.264073,38.603978 L -76.263122,38.598777 L -76.268633,38.597753 L -76.272125,38.592075 L -76.266925,38.58986 L -76.266212,38.586052 L -76.2756,38.580942 L -76.280948,38.574718 L -76.289861,38.577319 L -76.292572,38.58142 L -76.299705,38.575042 L -76.299232,38.569507 L -76.290043,38.569158 L -76.281303,38.561119 L -76.275558,38.552474 L -76.275337,38.547145 L -76.279273,38.535575 L -76.27453,38.535128 L -76.2674,38.542564 L -76.25516,38.541542 L -76.244396,38.536966 L -76.234957,38.541263 L -76.222835,38.539776 L -76.220221,38.531874 L -76.226757,38.525459 L -76.232342,38.526761 L -76.2473,38.523818 L -76.251976,38.519107 L -76.263122,38.502677 L -76.26538,38.497469 L -76.273699,38.494865 L -76.288197,38.498678 L -76.287551,38.503536 L -76.299659,38.501304 L -76.310813,38.496368 L -76.32232,38.498916 L -76.323493,38.493191 L -76.333549,38.482086 L -76.332124,38.47597 L -76.325988,38.469189 L -76.321647,38.461914 L -76.313153,38.456813 L -76.311752,38.450378 L -76.305904,38.448158 L -76.293206,38.425622 L -76.288017,38.423 L -76.282844,38.415779 L -76.279251,38.403244 L -76.281875,38.389232 L -76.278068,38.382392 L -76.271084,38.379624 L -76.270195,38.374591 L -76.263583,38.372763 L -76.256843,38.367172 L -76.249666,38.364214 L -76.244094,38.3586 L -76.238452,38.347986 L -76.232937,38.34524 L -76.233768,38.336012 L -76.230203,38.329207 L -76.233398,38.323123 L -76.230026,38.321315 L -76.229644,38.314384 L -76.224273,38.30767 L -76.211446,38.302656 L -76.206474,38.298435 L -76.199744,38.286221 L -76.194763,38.283695 L -76.190531,38.277139 L -76.185745,38.263984 L -76.179222,38.258781 L -76.171734,38.247869 L -76.159375,38.245163 L -76.149867,38.236482 L -76.140556,38.231838 L -76.129974,38.234611 L -76.125717,38.239017 L -76.126623,38.242949 L -76.146297,38.249678 L -76.163249,38.248913 L -76.165763,38.254123 L -76.175783,38.261551 L -76.181004,38.270638 L -76.18029,38.282393 L -76.173555,38.28523 L -76.177795,38.290508 L -76.170189,38.2934 L -76.172091,38.297224 L -76.180172,38.292094 L -76.187183,38.294706 L -76.194551,38.294333 L -76.201087,38.291628 L -76.206079,38.300302 L -76.217725,38.307762 L -76.222003,38.313637 L -76.218795,38.327063 L -76.210713,38.329207 L -76.211902,38.338063 L -76.220458,38.342351 L -76.229134,38.353628 L -76.233887,38.365276 L -76.23151,38.36714 L -76.232818,38.374873 L -76.227113,38.380929 L -76.232342,38.389033 L -76.231035,38.393318 L -76.223786,38.394715 L -76.215586,38.389592 L -76.213803,38.37832 L -76.218438,38.372078 L -76.217131,38.36481 L -76.208812,38.366394 L -76.204653,38.371053 L -76.19574,38.366488 L -76.197166,38.363785 L -76.18956,38.360617 L -76.18243,38.359592 L -76.181835,38.355585 L -76.172091,38.345986 L -76.170427,38.341046 L -76.171972,38.335173 L -76.161751,38.330419 L -76.159137,38.322028 L -76.167456,38.321749 L -76.174586,38.328648 L -76.177914,38.334148 L -76.182667,38.336758 L -76.189203,38.332936 L -76.184925,38.327995 L -76.187777,38.324919 L -76.197285,38.323893 L -76.193244,38.316434 L -76.185519,38.319977 L -76.184569,38.32352 L -76.174705,38.324639 L -76.164366,38.315782 L -76.159612,38.315782 L -76.145114,38.310187 L -76.144163,38.313823 L -76.133943,38.30972 L -76.132398,38.301794 L -76.140004,38.296758 L -76.13941,38.292747 L -76.149876,38.284663 L -76.14856,38.278848 L -76.14109,38.27729 L -76.138524,38.281385 L -76.12705,38.283419 L -76.132279,38.289482 L -76.129189,38.297783 L -76.114691,38.300675 L -76.105659,38.295452 L -76.114929,38.292747 L -76.111363,38.289016 L -76.105184,38.289109 L -76.102213,38.292281 L -76.097221,38.284818 L -76.095142,38.278669 L -76.086645,38.279315 L -76.085456,38.272318 L -76.079039,38.270918 L -76.077732,38.267373 L -76.086526,38.262334 L -76.094073,38.262808 L -76.095146,38.253875 L -76.088577,38.254631 L -76.082723,38.252653 L -76.078445,38.255429 L -76.071258,38.246623 L -76.071219,38.242824 L -76.058166,38.228385 L -76.046239,38.227054 L -76.041137,38.22211 L -76.036529,38.224765 L -76.035695,38.230556 L -76.044108,38.241682 L -76.052775,38.247776 L -76.050399,38.250202 L -76.040596,38.250259 L -76.037689,38.259643 L -76.032805,38.268934 L -76.03276,38.275146 L -76.026962,38.28141 L -76.030532,38.28796 L -76.035423,38.289703 L -76.041053,38.298046 L -76.05022,38.304101 L -76.062045,38.305431 L -76.04958,38.309594 L -76.045599,38.318246 L -76.041618,38.322137 L -76.033947,38.323211 L -76.024967,38.330419 L -76.017242,38.332936 L -76.012251,38.351485 L -76.010348,38.363561 L -76.005121,38.368444 L -76.010825,38.371053 L -76.012964,38.374873 L -75.997634,38.374221 L -75.992999,38.369562 L -75.988245,38.369469 L -75.973876,38.36585 L -75.966937,38.351646 L -75.958179,38.346172 L -75.961982,38.343376 L -75.961506,38.330978 L -75.965309,38.322495 L -75.976005,38.316527 L -75.981345,38.315147 L -76.008647,38.312261 L -76.016291,38.307206 L -76.007375,38.304318 L -76.00193,38.295276 L -75.990385,38.282915 L -75.985815,38.276466 L -75.982897,38.276982 L -75.981115,38.268585 L -75.982528,38.264457 L -75.966354,38.254989 L -75.961948,38.251388 L -75.964119,38.241085 L -75.97026,38.233806 L -75.949226,38.237506 L -75.940697,38.246902 L -75.948796,38.248802 L -75.954542,38.252894 L -75.951622,38.256137 L -75.954908,38.263998 L -75.949243,38.267888 L -75.940234,38.270918 L -75.93793,38.276194 L -75.938808,38.284445 L -75.935992,38.287758 L -75.940947,38.293959 L -75.940828,38.298436 L -75.936848,38.303632 L -75.938333,38.30683 L -75.932153,38.312238 L -75.92728,38.321376 L -75.919675,38.325944 L -75.913559,38.327057 L -75.914565,38.339275 L -75.912188,38.34319 L -75.903156,38.346452 L -75.900066,38.349527 L -75.89353,38.3499 L -75.872614,38.355678 L -75.863582,38.359499 L -75.863226,38.362574 L -75.868692,38.37068 L -75.871188,38.377389 L -75.865365,38.381208 L -75.862869,38.376271 L -75.856452,38.372264 L -75.849321,38.364997 L -75.851936,38.361363 L -75.856333,38.349527 L -75.87,38.342351 L -75.8782,38.327343 L -75.882478,38.329114 L -75.892223,38.311772 L -75.899591,38.301048 L -75.908266,38.292281 L -75.901373,38.286031 L -75.907672,38.272597 L -75.917024,38.263246 L -75.909214,38.255838 L -75.907882,38.247469 L -75.89971,38.232842 L -75.895689,38.228561 L -75.886692,38.229399 L -75.889133,38.236575 L -75.888513,38.241423 L -75.883435,38.244445 L -75.881884,38.249922 L -75.876655,38.254775 L -75.87,38.251696 L -75.873089,38.246096 L -75.869625,38.2436 L -75.86382,38.247403 L -75.851579,38.247963 L -75.845637,38.257295 L -75.834229,38.257388 L -75.821869,38.261867 L -75.816046,38.260281 L -75.803212,38.252629 L -75.823414,38.252816 L -75.836962,38.247123 L -75.856927,38.235922 L -75.861324,38.232655 L -75.860611,38.229201 L -75.851396,38.226432 L -75.845281,38.231255 L -75.825435,38.229108 L -75.820325,38.230788 L -75.818661,38.22612 L -75.828762,38.216037 L -75.8372,38.218184 L -75.841122,38.212395 L -75.864104,38.200858 L -75.877751,38.198292 L -75.884603,38.199751 L -75.888073,38.203813 L -75.895905,38.200256 L -75.909824,38.19692 L -75.912744,38.19453 L -75.924319,38.190263 L -75.936746,38.189514 L -75.942375,38.187066 L -75.951566,38.178093 L -75.94728,38.170792 L -75.951273,38.161887 L -75.955109,38.146532 L -75.959616,38.137141 L -75.955603,38.130599 L -75.945225,38.124476 L -75.947774,38.119381 L -75.94178,38.111913 L -75.934607,38.117268 L -75.937089,38.124209 L -75.928825,38.126907 L -75.920618,38.131418 L -75.921695,38.136909 L -75.929776,38.142424 L -75.932628,38.149246 L -75.925735,38.151022 L -75.917445,38.144812 L -75.90482,38.14233 L -75.901492,38.145601 L -75.894243,38.148125 L -75.880814,38.148031 L -75.878081,38.139713 L -75.880293,38.137022 L -75.868636,38.134381 L -75.871663,38.14205 L -75.85954,38.140542 L -75.849919,38.144414 L -75.841478,38.14476 L -75.836487,38.150555 L -75.822226,38.147844 L -75.808084,38.140461 L -75.797388,38.144293 L -75.788475,38.145788 L -75.787762,38.13747 L -75.796557,38.1356 L -75.805351,38.128403 L -75.809272,38.13317 L -75.813788,38.134292 L -75.818542,38.131394 L -75.820681,38.125598 L -75.827674,38.133438 L -75.833991,38.127187 L -75.838252,38.126198 L -75.837563,38.113753 L -75.842604,38.113111 L -75.848246,38.10813 L -75.855822,38.104661 L -75.865721,38.088007 L -75.863939,38.080337 L -75.875585,38.080243 L -75.875466,38.076033 L -75.871188,38.069204 L -75.873876,38.061774 L -75.870988,38.059226 L -75.858881,38.060135 L -75.860072,38.065743 L -75.856095,38.06883 L -75.844265,38.072272 L -75.833058,38.067543 L -75.82618,38.068272 L -75.819591,38.066814 L -75.81058,38.062187 L -75.800597,38.061906 L -75.803449,38.067333 L -75.802855,38.072759 L -75.79513,38.070607 L -75.789783,38.072198 L -75.79002,38.083798 L -75.785504,38.08651 L -75.78182,38.079027 L -75.773739,38.077062 L -75.780157,38.067707 L -75.780275,38.065087 L -75.789307,38.061625 L -75.792159,38.056479 L -75.796794,38.053578 L -75.805588,38.052923 L -75.811768,38.047495 L -75.818898,38.044126 L -75.826439,38.045873 L -75.830876,38.04123 L -75.830069,38.038229 L -75.843498,38.027465 L -75.850531,38.036697 L -75.857507,38.038778 L -75.87075,38.034984 L -75.874231,38.02841 L -75.867147,38.025499 L -75.873462,38.013113 L -75.885476,37.996078 L -75.888189,37.987864 L -75.898429,37.974828 L -75.890084,37.976991 L -75.878675,37.969777 L -75.873802,37.975023 L -75.86786,37.977459 L -75.861918,37.973431 L -75.865246,37.965093 L -75.861205,37.955348 L -75.865721,37.951506 L -75.877843,37.950194 L -75.889915,37.953685 L -75.893039,37.939917 L -75.893055,37.928638 L -75.897285,37.926338 L -75.892686,37.916848 L -75.885032,37.911717 L -75.877709,37.91613 L -75.860727,37.91831 L -75.855499,37.922649 L -75.833154,37.930761 L -75.829901,37.938556 L -75.820949,37.938896 L -75.818643,37.946387 L -75.826148,37.952818 L -75.824009,37.960783 L -75.818661,37.967248 L -75.813194,37.966404 L -75.813669,37.959471 L -75.809272,37.955161 L -75.803746,37.955634 L -75.791549,37.964933 L -75.783815,37.972594 L -75.772308,37.972422 L -75.750244,37.968873 L -75.754012,37.975773 L -75.745099,37.980457 L -75.748189,37.986451 L -75.739157,37.983922 L -75.737018,37.97671 L -75.740226,37.974461 L -75.739989,37.968372 L -75.736514,37.963227 L -75.722662,37.97131 L -75.721806,37.980082 L -75.723945,37.983641 L -75.716102,37.98898 L -75.712893,37.988512 L -75.715151,37.978208 L -75.690424,37.966929 L -75.677019,37.967959 L -75.671681,37.966576 L -75.666507,37.962395 L -75.658108,37.959471 L -75.652998,37.965936 L -75.648228,37.966771 L -75.644725,37.969775 L -75.640914,37.977235 L -75.635735,37.979534 L -75.632532,37.986691 L -75.625611,37.989798 L -75.624343,37.994208 L -75.459648,38.008429 L -75.398498,38.013258 L -75.284622,38.023656 L -75.24247825800708,38.027017505416815 L -75.216117,38.061786 L -75.193796,38.096013 L -75.179155,38.126364 L -75.15897,38.184242 L -75.148017,38.210192 L -75.130256,38.246902 L -75.121551,38.269606 L -75.102947,38.311525 L -75.093888,38.323432 L -75.085518,38.32427 L -75.081428,38.335967 L -75.072476,38.355278 L -75.065863,38.377154 L -75.06137,38.389466 L -75.054591,38.41483 L -75.0489392141227,38.4512616197572 L -75.137146,38.451177 L -75.232706,38.451226 L -75.370891,38.452238 L -75.39377,38.452127 L -75.510843,38.454323 L -75.601871,38.456761 L -75.69367,38.46008 L -75.705007,38.604442 L -75.715684,38.740062 L -75.722055,38.820367 L -75.729841,38.918655 L -75.735941,38.995361 L -75.745172,39.110931 L -75.754494,39.227418 L -75.760431,39.30128 L -75.770186,39.422134 L -75.777569,39.513182 L -75.788521,39.648133 L -75.788596,39.722199 Z M -75.99392080033972,37.953475776313006 L -75.990629,37.962941 L -75.997752,37.967622 L -75.993005,37.975828 L -75.993237,37.984953 L -75.9891,37.990443 L -75.982121,37.988548 L -75.984918,37.997597 L -75.984251,38.004006 L -75.980089,38.004891 L -75.988648,38.019354 L -76.002744,38.024937 L -76.00726,38.032613 L -76.007337,38.036706 L -76.013128,38.039762 L -76.0215,38.038449 L -76.035313,38.031433 L -76.041,38.031956 L -76.047318,38.019489 L -76.047752,38.01238 L -76.04517,38.00874 L -76.048238,38.003968 L -76.047677,37.993402 L -76.049977,37.990106 L -76.045541,37.95364 L -75.99392080033972,37.953475776313006 Z M -76.054201,38.094273 L -76.051566,38.089423 L -76.042411,38.081934 L -76.023897,38.083704 L -76.015341,38.076782 L -76.012731,38.072105 L -76.006279,38.078561 L -76.008464,38.084646 L -76.008083,38.091484 L -76.015553,38.103402 L -76.02259,38.10615 L -76.021283,38.116436 L -76.013489,38.120846 L -76.012929,38.129272 L -76.018569,38.131929 L -76.023303,38.129057 L -76.025561,38.122139 L -76.035781,38.120176 L -76.041961,38.117184 L -76.041961,38.108956 L -76.047982,38.108702 L -76.039941,38.101568 L -76.032691,38.1011 L -76.033523,38.091 L -76.044338,38.089316 L -76.046952,38.092777 L -76.054201,38.094273 Z M -76.088813,38.163127 L -76.084743,38.156629 L -76.076662,38.158218 L -76.070245,38.163357 L -76.063709,38.170925 L -76.060262,38.168776 L -76.054201,38.150368 L -76.051155,38.147529 L -76.040092,38.148811 L -76.032257,38.148265 L -76.0289,38.154182 L -76.035187,38.159806 L -76.03899,38.167188 L -76.028854,38.168399 L -76.022377,38.173767 L -76.026069,38.18206 L -76.034949,38.185311 L -76.04208,38.184191 L -76.042912,38.188207 L -76.036659,38.19231 L -76.048988,38.203777 L -76.06454,38.200536 L -76.056103,38.197174 L -76.058836,38.191009 L -76.06561,38.188114 L -76.084506,38.189795 L -76.084251,38.181095 L -76.081059,38.175876 L -76.087477,38.170458 L -76.088813,38.163127 Z M -76.264358,38.341991 L -76.257728,38.331569 L -76.257667,38.324855 L -76.251832,38.327529 L -76.258725,38.336851 L -76.259438,38.341232 L -76.264358,38.341991 Z M -76.272255,39.274555 L -76.264951,39.279515 L -76.266221,39.282009 L -76.257988,39.287788 L -76.260355,39.292453 L -76.266411,39.290539 L -76.269945,39.283405 L -76.272255,39.274555 Z M -76.390694,38.766281 L -76.39035,38.757004 L -76.384337,38.750165 L -76.383625,38.745466 L -76.377362,38.742797 L -76.363261,38.746611 L -76.364212,38.754314 L -76.370836,38.765642 L -76.372337,38.774052 L -76.369887,38.778638 L -76.375241,38.782578 L -76.37982,38.780201 L -76.390694,38.766281 Z M -76.386932,39.249214 L -76.384697,39.242241 L -76.381163,39.239628 L -76.371477,39.237951 L -76.347967,39.250108 L -76.343826,39.257256 L -76.356609,39.260856 L -76.386932,39.249214 Z M -77.145769,38.361463 L -77.155191,38.351047 L -77.16249531678957,38.34612649436906 L -77.158367,38.348502 L -77.155191,38.351046 L -77.151384,38.354478 L -77.145769,38.361463 Z" fill="none" stroke=currentColor stroke-width="1" vector-effect="non-scaling-stroke"/>
</svg>