<?xml version="1.0"?>
<svg width="200" height="200" xmlns="http://www.w3.org/2000/svg" version="1.2" baseProfile="tiny" viewBox="-64.000 -252.500 928.000 928.000" stroke-linecap="round" stroke-linejoin="round">
<g id="state">
<path vector-effect="non-scaling-stroke" d="M 661.34 5.28 661.58 22.32 663.94 53.35 665.54 74.28 667.66 102.06 668.95 119.03 670.99 145.81 673.01 172.37 674.35 190 676.07 212.59 677.47 231.05 679.84 262.21 682.36 295.39 698.97 295.91 715.45 296.21 736.63 296.35 740.77 296.26 765.76 296.02 783.05 295.69 799 295.34 798.16 303.74 797.05 309.6 796.3 312.45 795.21 317.5 793.68 321.98 793 324.68 791.48 324.91 789.9 327.68 786.73 337.39 785.26 342.65 782.21 351.16 780.34 357.16 776.94 370.55 774.42 377.58 770.51 385.53 765.88 393.62 758.22 394.54 737.55 397.31 726.44 398.61 696.51 402.36 696.3 403.38 695.05 404.11 694.49 405.77 693.55 406.31 692.89 408.04 692.26 408.74 691.39 408.94 690.48 410.45 688.94 409.79 687.99 408.85 687.01 408.54 684.57 408.82 680.03 406.28 680.41 403.91 679.83 403.81 678.42 405.06 678.82 405.87 678.69 407.89 676.19 409.78 675.54 408.61 675.48 407.21 676.06 406.68 675.65 405.03 673.99 404.47 674.57 405.84 672.97 406.94 673.67 408.52 669.65 407.76 667.55 407.75 666.17 409.53 663.97 411.7 662.97 411.82 662.15 410.84 662.22 409.24 661.22 409.06 660.27 410.56 659.9 412.4 661.29 413.86 660.89 415.59 659.26 415.69 658.69 417.49 654.64 419.4 653.7 420.41 650.61 420.95 649.29 421.99 647.88 420.82 647.02 418.65 647.78 418.11 647.75 415.52 648.28 412.34 650.49 413.12 652.7 412.79 653.51 411.9 652.74 409.66 653.33 407.74 652.23 406.83 651.16 407.4 650.29 408.62 648.19 406.98 646.67 407.5 648.5 404.48 648.97 402.58 651.11 398.64 652.23 395.77 650.93 395.12 651.54 393.6 653.94 392.7 655.22 393.16 656.52 395.27 658.93 392.76 658.78 392.07 659.57 390.99 660.95 391.38 662.24 390.59 663.34 389.32 664.94 389.15 665.78 388.47 666.28 387.28 667.91 386.46 667.92 385.86 669.06 383.69 667.59 383.26 666.89 381.55 666.08 382.18 666.16 384.85 665.19 385.23 663.78 384.75 663.69 386 664.22 387.24 662.41 387.2 660.76 386.16 659.55 385.84 658.3 386.02 656.25 384.96 654.11 385.78 653.4 386.5 653.63 387.79 651.43 388.02 650.9 387.44 651.37 385.73 650.57 384.17 650.53 383.2 652.65 383.15 652.31 381.39 654.06 377.54 655.42 376.72 656.44 375.56 657.35 375.4 657.19 372.54 657.96 372.31 659.09 370.85 660.38 372.64 660.75 371.3 661.61 370.62 662.43 370.87 663.16 371.96 664.74 370.28 666.33 369.83 666.17 367.92 664.56 368.29 662.63 369.19 660.04 367.53 657.44 366.94 656.55 368.28 655.02 368.38 653.28 369.29 651.07 368.97 651.64 370.73 649.52 370.15 649.91 369.53 649.39 367.62 646.95 367.63 645.64 368.22 645.05 368.98 642.75 368.44 641.23 367.03 639.98 367.45 640.51 369.01 642 370.27 642.21 371.53 640.73 372.58 639.23 373.22 639.7 374.81 638.41 376.06 637.31 374.35 637.76 373.18 635.85 371.79 635.11 370.29 635.9 368.12 636.56 364.58 637.26 362.53 636.46 360.86 638.11 358.77 639.12 358.2 641.38 358 643.47 356.99 643.99 356.44 646.51 355.64 647.92 354.8 648.56 355.73 649.81 356.05 652.28 355.43 656.41 352.72 657.11 351.38 658.65 351.86 660.45 349.51 660.13 348.44 659.21 348.84 655.61 348.39 654.51 349.52 652.83 348.9 652.69 348.11 653.48 347.35 657.07 344.73 659.51 343.38 663.17 343.38 660.82 341.65 659.76 341.3 657.53 342.36 655.46 342.41 654.41 344.57 652.2 344.72 651.15 345.61 650.52 345.04 651.06 343.75 649.85 343.06 648.91 344.18 648.65 345.45 647.73 346.15 647.63 347.27 648.1 348.92 646.47 349.13 645.73 348.15 644.2 344.8 643.94 342.88 642.5 341.2 644.17 339.02 645.28 335.92 644.01 334.5 645.56 332.46 646.86 329.98 648.58 325.97 649.36 326.37 650.8 322.9 653.26 321.21 654.02 318.48 654.48 317.64 653.17 315.99 652 315.08 651.53 313.95 650.49 314.84 650.96 316.38 651.97 318.23 651.92 318.94 650.29 319.84 646.52 321.21 645.34 321.31 644.79 322.03 643.16 322.8 642.74 323.7 642.95 326.51 641.85 326.78 640.48 327.85 639.63 329.96 638.52 331.22 638.8 331.95 638.09 333.15 638.08 334.18 639 335.6 638.49 336.37 638.67 338.26 638.27 339.48 636.65 340.2 635.63 341.1 636.25 342.9 635.72 343.66 636.78 344.59 638.25 345.01 636.73 347.18 632.92 348.08 634.02 346.39 634.38 344.02 633.58 343.2 630.62 341.05 630.86 340.1 630.52 338.17 629.99 338.3 629.15 336.82 627.02 334 626.01 331.93 624.39 331.29 625.76 330.11 630.7 329.39 631.67 329.06 633.59 327.67 634.26 325.71 634.14 322.86 634.82 322.21 633.22 320.97 631.93 317.71 629.31 316.91 628.45 316.9 627.6 315.84 624.82 315.72 625.22 316.59 626.26 317.18 625.33 318.31 625.01 321.09 624.15 325.37 622.76 325.96 621.15 327.64 619.76 327.9 619.05 328.8 618.35 330.8 616.1 331.78 618.25 332.07 619.92 333.44 620.96 335.35 621.85 335.74 622.52 337.24 621.48 338.69 621.49 340.12 620.63 342.27 620.12 344.43 618.34 344.47 617.92 345.03 619.51 346.41 621.06 348.96 620.92 350.29 620.09 350.91 619.15 349.78 616.99 349.5 614.58 346.2 614.57 345.33 613.24 343.32 612.47 343.96 611.41 343.52 610.22 343.7 610.39 341.65 611.76 341.74 613.35 340.57 613.1 339.75 611.93 339.44 611.7 337.84 610.16 338 609.77 336.59 608.85 334.88 608.32 335.62 607.2 335.65 606.54 334.8 608.22 334.16 606.57 332.97 603.95 333.66 603.4 335.58 604.37 336.96 602.29 337.45 601.83 338.4 600.48 338.05 600.22 336.72 602.1 334.84 601.99 333.92 603.36 332.75 603.06 330.93 601.2 330 601.03 330.84 598.39 329.57 597.53 329.58 595.64 327.56 593.85 327.84 593.69 328.65 592.3 329.48 591.55 327.77 593.27 327.52 593.78 326.81 593 325.68 594.17 324.79 595.04 325.38 595.65 326.64 596.96 328.21 598.47 328.14 597.98 326.21 596.11 325.13 596.38 323.78 596.07 322.65 594.28 320.46 594.17 319.53 592.87 319.31 591.49 318.59 591.74 317.97 590.12 316.93 589.38 318.01 587.87 318.39 587.62 316.72 588.45 315.28 588.1 312.69 586.61 311.52 585.3 311.85 585.07 312.84 586.03 314.7 585.01 316.1 585.26 317.88 584.84 318.31 585.72 320.98 587.31 323.56 588.87 324.53 589.11 326.57 587.65 327.07 587.09 330.17 587.88 331.51 590 333.21 590.93 335.2 592.11 334.57 593.44 334.47 594.72 335.06 596.17 333.86 596.52 334.74 595.15 335.42 595.93 336.63 594.72 337.29 594.61 339.99 595.58 342.08 597.41 343.77 597.88 344.96 600.95 344.76 604.53 346.27 604.71 347.17 603.94 348.2 602.03 348.85 600.33 347.8 598.59 345.82 596.34 345.22 594.96 342.72 593.76 341.53 592.87 338.51 592.09 337.01 591.18 336.44 589.94 333.64 589.03 332.68 586.69 331.54 585.7 330.01 585.62 328.41 585.01 328 585.57 326.6 584.92 325.04 585.05 322.92 584.04 322.29 583 319.86 581.98 318.58 580.68 317.91 579.45 316.63 578.24 316.22 578.07 315.06 576.8 314.44 576.1 312.87 576.55 309.64 575.88 306.76 574.93 305.11 573.99 304.51 571.65 299.35 570.59 298.84 570.32 297.37 568.78 296.2 567.98 294.54 566.86 292.98 566.59 291.58 568.39 289.01 568.59 287.69 570.68 288.26 572.69 287.11 574.87 286.58 574.76 287.7 577.39 288.56 578.89 287.95 579.29 286.74 581.27 282.95 582.11 281.86 584.8 281.16 585.82 281.45 586.98 279.96 586.5 278.15 584.3 277.83 582.61 278.83 580.65 277.79 578.44 277.58 577.17 279.3 576.31 279.2 577 276.53 576.95 275.31 575.9 273.33 574.3 271.49 572.64 271.42 572.55 270.15 573.82 268.67 574.32 269.61 575.93 270.2 576.89 268.76 578.57 267.57 578.44 266.7 577.5 266.19 578.12 264.88 579.11 264.64 578.93 263.44 577.28 263.9 576.24 261.73 575.87 259.9 576.67 259.51 577.51 260.77 577.07 261.66 578.72 261.78 578.89 260.88 581.46 260.82 580.61 259.23 583.5 258.02 584.17 258.72 583.58 260.48 587.7 262.12 588.24 262.73 589.93 261.8 591.92 259.72 592.9 259.39 594.67 257.86 596.12 257.79 596.82 259.17 596.9 260.77 596.16 263.7 597.5 265.32 599.07 265.15 601.08 262.78 602.61 265.16 604.88 267.29 606 268.03 608.29 266.96 610.36 265.7 611.02 267.32 612.59 267.5 612.6 268.78 615.56 270.97 616.98 271.49 618.91 272.71 621.9 271.59 620.94 268.26 619.56 267.45 618.02 265.88 617.07 265.36 616.96 263.14 613.4 261.08 612.07 260.69 611.55 258.66 610.56 258.12 608.57 258.37 606.09 259.21 604.25 257.47 603.49 256.03 602.21 255.21 599.96 255.7 599.15 253.57 598.39 250.83 597.13 249.92 596.37 248.62 595.2 247.89 594.44 246.74 595.19 244.11 594.42 242.83 593.09 242.38 591.17 245.32 590.6 246.6 589.6 246.9 588.03 245.44 587.51 244.22 587.89 243.03 586.76 241.93 585.45 241.74 583.29 238.36 583.22 236.85 583.63 235.78 584.93 235.28 584.5 234.05 583.57 233.67 583.35 232.82 584.95 232.29 586.18 232.94 587.48 234.73 588.62 233.63 589.23 232.26 587.79 231.44 585.76 229.49 586.11 228.04 585.74 227.4 583.66 226.72 582.51 227.56 582.21 229.93 580.33 230.03 579.89 231.55 580.3 232.95 578.12 234.87 577.59 235.75 577.37 238.33 575.42 237.65 575.09 236.62 572.96 235.84 572.4 235 573.17 234.27 573.2 233.18 572.43 229.96 569.77 230.13 569.89 230.88 567.71 232.22 569.56 232.78 569.92 234.36 568.74 234.73 567.83 237.19 566.58 238.4 566.14 240.73 567.34 242.84 568.35 243.85 567.63 246.5 566.3 246.35 565.08 246.98 564.42 245.68 563.91 243.3 564.53 241.82 564.15 240.58 564.58 238.23 565.3 236.33 564.91 234.48 565.16 232.66 564.53 230.19 565.45 227.49 566.75 226.85 566.85 225.61 565.91 224.68 566.7 223.75 567.85 223.2 568.73 221.24 570.29 219.14 570.47 215.34 571.47 213.6 571.65 212.62 572.44 211.89 574.13 212.09 575.97 210.21 575.35 209.64 578.03 206.2 578.16 207.42 579.31 208.42 580.1 210.78 581.02 211.39 580.98 212.48 582.49 214.33 582.97 213.69 584.77 213.38 588.01 217.01 586.89 218.25 587.5 219.46 586.88 220.62 587.17 221.34 589.74 223.73 590.96 224.42 591.27 225.18 592.45 225.68 593.44 228.23 595.5 228.85 596.36 227.72 596.9 225.81 597.99 225.33 598.2 224.54 597.31 223.93 595.4 224.97 593.71 223.52 593.96 222.71 592.58 221.44 592.25 220.06 590.57 218.62 590.05 217.56 590.2 215.47 591.24 213.23 591.64 211.42 590.85 210.08 590.42 208.19 588.9 206.07 589.5 203.85 589.92 199.19 590.48 196.37 589.23 196.21 588.94 193.23 589.13 189.72 588.93 188.16 587.49 187.55 588.27 185.14 586.02 184.35 585.4 184.42 584.87 185.72 583.55 185.52 583.09 183.95 583.23 182.84 581.95 180.22 580.18 180.4 580.46 181.82 580.63 186.08 578.89 187.81 579.76 189.1 581.22 189.85 579.72 191 578.67 190.75 576.68 185.71 572.6 188.8 571.99 191.13 573 193.06 573.12 194.64 571.99 194.78 571.38 190.34 570.26 189.73 568.9 190.12 568.66 192.83 567.57 192.86 567 191.27 565.79 191.28 564.67 192.73 565.42 194.07 565.42 196.21 565.01 197.18 565.91 199.92 566.4 203.65 564.7 205.63 562.93 205.26 560.59 206.99 559.76 210.18 558.52 209.42 558.57 205.77 559.55 204.01 560.34 201.5 560.46 199.14 560.21 197.23 560.11 193.76 560.67 188.74 560.76 186.47 562.15 182.3 564.45 178.29 565.32 178.08 565.84 175.47 567.35 173.42 567.91 171.64 567.5 170.36 568.07 167.13 569.57 164.3 571.34 163.27 570.81 166.33 572.16 167.96 572.82 171.48 573.73 173.14 575.16 174.94 575.82 176.39 578.97 176.07 578.64 177.4 579.58 177.99 580.26 176.81 581.82 176.75 582.81 178.41 585.05 178.14 586.35 179.05 588.29 178.36 589.33 178.44 591.27 176.92 594.73 173.28 596.16 172.29 596.2 169.87 594.95 166.74 593.53 164.93 594.03 163.2 593.71 162.05 592.43 161.58 594.01 158.68 595.12 157.75 596.92 157.11 598.41 153.89 599.72 151.94 599.34 150.8 595.8 150.11 592.39 150.06 588.92 152.55 588.71 154.53 587.45 156.22 587.9 158.77 587.39 160.85 587.81 161.82 587.35 162.8 588.33 164.67 587.92 166.03 589.4 169.14 588.51 169.24 587.91 170.24 586.81 169.98 586.56 169.19 583.96 168.03 583.35 166.9 581.98 165.66 582.28 163.15 582.95 161.83 584.15 161.78 584.68 160.07 583.99 158.26 583.84 153.24 583.04 149.32 581.8 147.25 580.98 145.01 581.49 144.25 581.39 142.26 579.2 141.11 577.69 139.22 575.77 138.72 575.53 137.47 575.99 134.29 577.41 130.82 579.31 128.25 580.16 126.49 581.85 121.45 583.49 118.61 584.43 116.08 585.15 112.98 587.14 110.19 588.4 110.45 589.11 107.82 590.88 107.51 591.68 106.57 592.12 105.27 592.89 105.15 594 105.9 594.77 104.41 593.98 103.57 592.83 103.18 593.26 102.27 592.81 100.87 591.56 100.34 591.63 98.76 593.4 97.78 594.31 95.8 596.22 94.9 598.75 95.23 599.18 96.63 600.91 95.55 600.94 93.8 600.26 92.91 601.07 90.99 603.91 89.07 604.92 86.46 609.33 86.85 613.53 86.43 615.76 86.72 618.79 87.43 620.58 88.68 622.61 87.57 624.24 87.35 625.87 86.29 627.12 84.56 625.49 83.38 623.03 83.13 619.12 83.27 617.83 83 617.24 82.1 617.88 80.07 618.68 79.21 621.62 77.95 623.32 76.54 624.08 74.47 624.98 72.89 627.61 71.72 628.62 69.56 629.49 66.73 630.38 65.35 628.29 63.6 627 63.76 626.81 65.75 624.95 66.78 625.17 67.47 624.01 68.32 622.78 68.57 622.26 67.67 622.73 66.65 624.53 64.7 625.47 62.33 625.13 60.45 625.28 59.23 626.46 57.53 626.75 54.44 627.59 53.09 627.74 50.13 629.03 49.29 630.27 49.4 630.95 48.48 629.71 47.23 630.18 46.19 629.47 43.54 629.66 42.7 630.74 42.5 631.97 41.24 631.94 39.8 633.29 38.4 633.2 35.32 631.63 35.49 630.38 36.89 630.32 38.65 628.96 40.6 624.24 42.95 623.08 46.24 623.8 47.26 623.05 47.93 622.09 47.84 621.07 46.18 619.14 45.76 617.64 44.77 616.09 44.85 615.83 46.27 612.85 46.26 609.35 47.38 608.46 48.23 607.13 48.55 606.77 50.26 605.6 52.08 604.52 54.89 604.5 55.69 603.44 57.98 602.41 59.65 601.53 60.16 602.56 61.38 603.62 61.36 604.39 60.24 605.73 61.94 606.87 62.54 609.54 62.11 610.21 62.77 611.57 62.74 612.06 64.43 613.76 68.5 610.01 71.58 608.55 69.66 606.58 70.12 605.81 72.42 603.67 73.73 602.78 75.21 600.23 77.58 598.45 78.91 596.23 78.7 593.53 82.66 593.22 84.27 592.49 85.34 591.3 84.59 589.5 87.62 588.32 88.52 585.1 90.3 584.17 91.79 582.95 91.32 581.84 89.16 580.02 89.2 579.54 87.2 580.69 87.13 579.4 85.19 580.93 84.06 580.02 82.85 581.45 79.37 581.26 78.56 583.48 76.1 584.44 74.36 582.21 71.52 582.31 69.81 583.24 67.29 582.89 66.6 581.36 66.19 580.87 67.54 579.59 68.88 579.24 70.51 580.35 72.24 579.18 76.47 579.08 77.57 577.54 78.45 576.55 79.62 577.27 82.08 575.43 84.74 576.04 85.37 575.06 86.9 573.43 87.48 575.85 89.2 577.27 89.71 577.33 91.82 578.55 92.52 578.82 94.61 577.66 95.43 577.09 96.5 575.15 98.25 575.17 99.77 574.55 100.96 574.48 103.43 571.82 102.9 572.92 101.11 573.04 99.41 572.33 97.6 571.38 96.65 571.36 94.12 572.03 92.65 571.9 91.86 569.44 90.93 569.44 89.67 570.55 87.12 570.64 85.6 569.8 83.73 569.03 83.04 566.95 82.71 565.85 83.25 564.74 82.62 560.85 81.81 560.82 83.75 562.13 86.15 563.24 86.04 564.34 86.56 563.79 89.65 563.08 90.16 564.17 91.97 565.03 94.29 563.1 94.16 562.33 94.95 561.76 96.68 565.21 97.88 565.11 98.79 565.97 99.96 564.74 100.11 564.04 100.83 562.74 100.19 561.28 100.65 561.23 99.8 559.5 98.47 558.51 98.71 559.69 100.74 558.5 102.51 556.88 103.8 556.03 103.05 556.21 101.54 554.09 102.11 552.81 100.89 551.75 100.81 551.37 101.62 551.89 103.5 553.53 104.19 553.5 105.26 554.57 106.65 556.48 106.6 556.45 108.65 554.58 108.62 553.53 110.34 554.21 111.13 552.53 113.74 552.6 115.18 550.61 115.53 548.58 113.91 546.86 114.26 546.46 115.37 546.04 116.68 548.05 117.56 549.42 119.05 551.61 119.27 553.25 118.98 553.6 119.83 551.72 120.74 550.3 121.97 548.96 125.23 546.95 126.05 545.89 127.61 544.96 127.08 544.61 125.69 545.58 124.16 545.08 122.36 543.1 122.18 542.27 122.95 542.12 125.22 539.15 125.42 537.01 126.28 536.36 126.18 535.4 124.46 536.13 123.15 536.03 120.42 534.98 119.24 533.31 120.08 532.58 119.21 532.46 117.07 531.54 116.89 529.59 117.62 528.56 116.18 528.33 115.06 526.09 113.44 524.19 113.58 522.72 112.72 520.04 112.58 520.41 114.32 521.48 115.46 523.81 117.2 524.41 118.56 524.02 121.01 525.66 122.76 528.09 123.83 529.44 123.61 529.66 124.89 529.25 125.77 530.06 126.42 530.61 127.67 529.62 128.85 530.94 131.01 531 131.72 532.46 132.79 533.41 132.96 535.54 135.34 535.48 136.87 536.74 136.93 537.69 136.41 538.11 135.24 539.17 134.27 540.75 137.01 544.12 139.57 548.03 142.16 547.65 144.54 547.68 146.97 549.69 153.26 549.74 154.83 548.33 158.1 546.73 160.42 548.12 161.75 551.27 163.59 552.83 164.89 554.16 167.32 554.76 169.6 551.28 172.21 551.42 173.23 549.47 173.89 549.5 172.66 548.18 172.22 547.61 173.33 545.43 173.74 544.76 174.64 545.06 175.57 544.76 177.73 543.31 176.12 542.49 176.95 541.4 176.59 540.14 176.86 539.42 177.73 540.51 178.9 540.39 180.12 541.06 182.6 542.54 184.41 543.49 184.45 544.85 186.12 543.17 187.79 542.47 189.28 543.36 192.09 543.1 193.95 541.46 193.85 541.44 192.95 539.86 191.83 539.84 191.25 537.82 189.33 536.43 189.76 534.82 190.75 534.3 191.07 534.63 192.66 536.01 193.66 536.94 193.48 537.07 195.72 537.61 196.89 537.66 199.12 532.52 204.13 529.82 204.22 529.1 204.55 529.47 206.76 532.44 207.13 533.34 206.65 535.44 208.18 536.07 206.63 537.03 206.96 537.87 209.72 536.82 211.72 536.45 215.23 534.88 216.39 534.28 218.37 531.66 219.81 531.25 221.65 529.04 224.5 527.2 224.93 525.35 226.2 525.49 228.2 526.38 229.28 525.8 231.42 526.67 233.56 528.17 235.31 530.8 235.13 531.47 236.08 531.01 239.16 530.35 241.75 530.41 246.65 531.85 254.1 533.5 257.91 533.58 259.2 534.29 261.04 533.41 266.91 533.27 270.85 533.67 274.84 533.26 278.66 533.6 281 535.38 286.6 537.81 291.59 539.4 293.59 541.3 295.34 544.53 298.82 545.42 300.84 548.09 302.9 551.89 307.19 552.24 308.41 553.33 309.87 554.25 311.84 555.65 312.98 558 313.66 556.38 316.27 557.11 319.44 553.89 324.1 551.33 328.3 549.95 328.34 547.92 327.77 545.51 328.26 544.72 329.81 543.57 327.86 542.44 326.97 541.27 328.54 541 330.52 542 331.54 544.13 334.9 547.28 335.52 549.56 334.86 550.73 332.48 553.22 332.52 555.61 331.56 558.2 332.81 559.38 333.65 559.1 334.78 555.94 338.55 555.11 341.14 555.04 342.91 557.65 352.45 561.94 358.33 563.48 361.52 566.98 365.75 568.09 368.2 568.59 368.51 569.61 370.63 567.14 373.58 565.88 375.7 567.53 379.56 567.97 385.81 569.45 391.03 566.6 390.17 563.82 390.27 563.38 389.43 562.27 388.81 560.31 384.22 560.34 383.72 558.03 381.39 556.86 380.91 556.54 378.88 554.17 377.96 551.29 378.19 550.5 376.21 549.6 375.13 549.63 373.61 548.27 371.29 548.65 368.87 547.54 367.87 548.7 366.96 548 365.61 545.97 365.98 543.88 367.05 542.42 367.36 542.58 368.35 543.97 370.58 543.86 372.4 542.44 375.2 543.24 378.11 541.83 378.94 540.4 375.99 536.54 370.72 535.32 370.31 533.57 370.26 531.51 371.85 530.93 368.97 529.57 367.51 528.66 364.67 528.29 362.3 527.25 359.65 525.94 358.1 523.67 355.9 522.21 355.1 520.38 353.47 515.11 351.52 512.77 350.87 510.09 351.01 507.8 349.77 505.33 348.89 503.43 348.96 502.83 348.63 502.85 347.3 500.69 347.46 499.63 349.09 496.92 349.21 497.03 348.12 496.49 347.39 494.69 346.26 493.98 347.01 493.25 348.74 492.42 349.35 492.4 350.46 491.04 351.76 488.93 350.87 486.26 350.31 486.21 348.94 486.77 348.66 486.4 346.99 485 346.39 484.99 345.51 484.07 345.06 482.21 345.39 481.42 344.53 481.32 342.53 480.72 341.01 481.96 339.23 481.92 338.3 481.07 337.22 479.95 336.91 479.8 335.86 477.73 333.19 478.16 331.79 477.14 330.76 475.97 326.09 474.78 325.43 476.16 324.33 476.91 324.24 477.41 322.98 472.15 320.41 470.75 323.8 469.77 324.98 469.66 326.57 470.35 327.58 471.69 328.18 472.98 330.21 472.47 330.9 472.73 332.79 473.87 333.81 473.97 335.78 475.02 336.37 475.57 339.15 476.04 339.86 475 342.09 475.51 342.71 474.72 344.35 473.82 343.97 472.73 342.75 470.7 341.03 466.25 338.83 462.87 336.55 460.94 335.85 459.7 336.04 460.19 331.29 458.72 328.59 455.87 326.57 454.7 326.26 452.04 324.34 450.03 324.18 450.6 322.69 450.42 321.04 449.06 319.41 448.93 316.72 448.21 312.06 446.34 308.76 445.79 305.85 444.73 303.7 443.83 302.46 443.12 300.42 438.73 300.64 434.37 303.77 433.44 304.89 432.42 305.21 430.45 307.5 429.6 309.16 428.01 309.1 426.79 309.46 426.07 308.77 423.76 308.44 422.96 310.69 421.33 312.77 419.41 314.06 417.75 314.79 416.02 316.39 415.01 316.73 413.58 318.11 412.27 318.77 408.54 320.09 406.83 319.33 405.52 318.07 403.28 316.77 400.79 314.8 400.16 312.33 399.51 311.44 399.46 310.32 398.1 307.73 398.42 306.04 399.63 303.83 399.49 303.02 397.98 300.76 398.52 299.48 398.21 297.94 397.09 296.09 397.74 295.3 397.95 293.84 396.5 292.02 396.84 290.14 397.81 288.16 397.75 287.51 398.44 284.99 399.69 283.47 399.54 282.82 403.14 275.91 404.56 275.33 406.14 275.15 408.1 272.29 408.77 270.94 411.47 268.21 411.53 267.6 413.01 264.77 415.46 263.28 419.25 263.58 420.66 262.46 422.79 261.57 423.59 260.33 425.21 259.48 426.76 257.82 426.23 257.2 422.65 256.83 421.5 254.01 421.47 253.32 422.2 247.82 423.97 245.27 427.32 242.47 428.32 242.13 430.05 240.71 431.37 240.06 431.7 238.97 433.21 239.59 436.53 239.6 438.27 237.64 438.61 235.94 438.51 231.14 438.64 222.24 439 220.82 462.37 197.52 445.45 180.57 438.75 173.83 424.56 187.96 423.05 186.46 421.74 183.5 420.03 181.33 419.11 180.81 416.35 180.26 415.37 180.56 413.83 180.14 410.57 180.49 408.7 179.68 408.1 179.88 405.87 179.22 405 177.71 403.91 178.35 402.08 176.78 401.46 174.55 400.67 173.84 400.17 172.35 400.63 170.7 401.78 169.39 401.88 167.14 400.44 166.01 396.74 164.91 393.51 162.1 391.43 160.97 388.65 160.45 387.19 159.5 386.14 158.66 384.73 158.28 381.11 158.35 380.05 158.57 376.71 158.41 374.53 157.83 370.76 157.43 366.87 156.28 364.54 155.92 363.49 155.45 362.03 153.02 362.02 152.03 361.32 151.22 359.86 148.33 358.29 147.02 353.17 145.05 352.07 143.22 351.67 141.4 351.62 138.79 352.15 138.06 352.72 135.37 353.39 133.64 355.2 130.9 359.93 129.42 360.74 128.54 360.88 126.22 361.45 124.46 363.61 122.48 364.18 120.91 363.64 120.03 361.79 118.75 360.15 117.16 359.37 116.04 356.9 114.75 354.74 114.35 352.96 113.16 351.12 112.53 349.36 111.56 347.59 109.15 346.95 107.78 345.68 106.31 345.52 102.85 344.49 102.07 342.66 102.34 340.84 103.15 338.98 103.07 337.59 102.65 336.04 102.9 332.86 101.71 330.9 101.39 326.78 99.19 325.38 97.8 324.26 97.9 323.4 98.75 321.57 99.11 319.62 98.37 317.47 98.5 316.05 98.25 315.18 97.34 311.89 95.68 311.06 95.49 310.15 94.08 310.38 92.99 312.15 91.9 312.82 91.08 313.22 88.28 311.63 85.12 312.49 83.85 314.19 83.6 314.71 82.35 313.82 79.48 312.87 78.15 311.72 74.99 310.65 74.06 305.78 73.6 303.96 72.93 302.77 71.48 303.53 70.72 305.69 70.23 305.72 69.18 303.68 67.26 303.76 66.24 304.6 65.95 306.57 66.48 306.92 65.38 304.99 64.47 303.97 63.43 303.84 62.01 305.48 60.65 309.3 59.27 309.48 58.13 308.07 57.41 306.66 57.46 305.32 58.98 304.03 59.62 302.15 59.47 300.11 58.7 298.6 58.76 295.4 57.58 295.14 56.16 298.53 53.74 299.34 51.7 298.91 50.35 297.57 49.67 296.32 50.44 296.05 52.91 294.7 53.55 292.61 53.83 291.69 52.24 291.98 50.35 291.93 48.27 291.08 47.19 287.99 44.85 288.12 43.27 290.39 42.35 296.29 42.26 297.14 41.87 297.68 40.45 298.35 37.17 297.94 33.78 296.93 32.77 294.17 32.48 292.23 32.05 290.5 30.85 288.68 30.43 288.36 31.2 289.27 32.69 289.07 34.25 287.81 34.65 281.66 32.78 280.89 30.88 279.94 29.81 278.65 29.58 277.97 30.45 279.12 31.12 279.59 32.03 279.27 36.02 278.46 37.38 277.07 37.01 276.57 35.22 276.76 32.63 275.46 31.89 273.55 32.56 272.07 33.99 270.61 34.03 266.89 33.5 266.17 33.01 263.94 28.79 262.77 27.38 261.53 25.26 259.44 23.52 258.57 22.02 257.06 20.69 254.78 18.11 253.48 17.23 252.37 17.25 250.82 15.5 249.72 14.9 244.97 13.63 242.81 12.73 240.89 12.68 239.66 12 237.86 11.5 235.84 11.58 234.08 13.03 232.53 15.57 231.73 15.92 227.95 15.81 226.78 16.77 228.47 18.93 227.89 20.17 225.73 21.49 222.96 24.1 221.49 26.26 221.39 28.01 220.69 28.91 217.2 28.32 212.54 26.01 208.47 24.48 204.98 23.68 204.27 24.47 205.22 25.82 205.02 26.93 204.29 27.21 202.63 26.29 200.44 26.25 199.89 27.45 201.86 30.23 200.76 31.14 199.78 30.9 197.85 29.34 193.33 27.32 191.61 27.45 190.97 28.24 191.34 29.49 193.03 31.89 194.81 33.48 197.38 35.18 197.67 36.59 196.44 37.6 195.42 37.81 193.32 37.11 191.71 35.8 188.77 34.76 186.63 35.77 186.49 37.43 187.08 38.65 189.99 41.22 192.06 42.23 193.63 44.47 192.85 45.51 192.03 45.28 191.29 43.98 189.76 43.91 190.51 46.19 189.58 46.82 188.14 44.64 186.39 43.93 186.08 45.28 188 46.01 187.58 47.05 186.34 46.94 185.44 48.07 185.79 49.92 185.36 51.07 184.36 51.91 183.11 51.94 181.39 51.2 180.56 51.61 178.2 51.36 176.13 50.27 173.94 49.86 171.22 50.56 169.03 50.5 167.01 50.99 164.88 49.3 163.36 48.95 162.51 48.24 162.24 46.88 160.73 47.89 157.5 46.25 154.27 46.85 151.29 47.21 149.61 46.63 148.96 45.87 147.64 45.86 146.61 45 145.08 44.48 144.19 42.65 142.07 42.16 140.58 40.47 139.06 40.28 137.76 37.75 137.54 35.07 136.47 34.91 135.16 36.51 133.51 36.27 131.51 34.66 130.96 32.92 129.62 31.45 129.98 30.72 131.48 29.76 133.73 29.44 135.22 30.53 137.58 28.73 137.05 26.78 134.91 25.74 132.17 27.46 129.67 26.52 130.74 23.28 132.07 21.75 131.43 21.13 130.11 21.42 129.21 23.26 127.52 22.9 125.6 25.75 126.59 29.23 125.45 30.11 124.01 30.2 123.58 32.09 122.45 32.91 122.21 33.93 121.07 34.07 120.93 36.79 122.05 37.05 123.19 39.24 122.38 40.49 121.74 40.67 120.3 39.62 118.68 39.07 118 39.94 116.42 40.7 116.23 42.71 114.47 45.05 112.9 45.42 112.99 47.21 112.05 49.07 111.31 49.5 108.69 48.95 109.03 49.89 108.71 51.44 106.5 51.64 106.72 53.36 105.65 55.24 105.04 55.51 104.42 57.32 101.25 57.34 99.75 58.61 100.44 60.02 99.01 61.92 96.99 62.4 96.69 63.26 97.51 64.64 96.43 65.46 97.19 66.08 97.04 67.81 95.44 68.2 94.77 67.1 93.39 65.98 91.25 64.95 88.73 63.38 87.46 62.83 86.23 61.3 84.32 61.92 83.43 61.4 82.91 59.19 81.58 58.41 81.13 57.58 79.99 58.18 79.72 59.91 78.63 60.19 78.05 58.64 77.35 59.37 74.8 60.13 73.22 59.89 71.63 58.82 70.84 60.24 72.24 60.92 72.19 62.2 70.59 62.04 71.06 63.23 70.96 65.07 68.68 66.82 68.48 67.66 69.28 68.32 69.2 69.39 67.14 68.8 66.17 69.72 66.53 71.51 66.05 72.42 64.84 72.04 63.79 72.52 63.98 73.99 63.6 75.09 62.37 74.93 62.47 73.01 61.48 72.1 60.58 72.62 60.79 73.66 59.36 76.04 59.55 77.3 60.2 78.26 59.55 79.22 57.43 76.96 56.76 77.32 57.52 78.58 56.37 79.53 53.78 78.78 52.92 80.87 50.91 83.15 50.63 84.47 47.56 84.13 47.31 85.26 45.58 85.27 43.87 86.08 43 86.11 43.57 87.87 42.86 89.34 43.44 90.35 42.19 90.96 40.64 90.72 40.66 91.78 38.31 93.4 37.92 96.48 36.88 97.7 36.77 98.75 34.21 98.67 32.71 97.55 31.18 98.58 29.11 98.52 27.79 99.91 26.57 100.01 27.11 101.46 25.73 101.88 25.2 103.49 23.81 104.18 21.45 104.4 20.16 105.92 16.92 108.56 16.77 109.52 15.19 110.49 15.07 111.33 13.02 112.27 12.19 113.34 12.34 114.93 10.75 115.57 9.34 117.23 8.16 117.37 7.04 118.55 5.74 118.27 4.48 118.9 4.04 120.02 1 119.44 1.54 106.16 1.3 105.8 1.33 102.41 1.58 98.63 2.01 87.62 2.31 87.62 3.2 63.09 3.84 44.53 4.47 44.55 5.36 19.12 5.57 19.08 5.89 5.43 6.04 1 15.89 1.16 34.3 1.54 50.72 1.94 75.19 2.41 82.64 2.48 92.37 2.77 118.19 3.22 124.77 3.37 139.87 3.63 157.4 3.97 172.88 4.35 179.47 4.38 188.09 4.51 190.42 4.63 195.79 4.64 207.2 4.89 212.53 4.88 220.52 5.08 250.73 5.56 271.09 5.72 290.42 5.96 311.85 6.38 316.8 6.42 327.11 6.63 345.25 6.81 356.86 7 361.63 6.99 376.5 7.11 407.52 7.2 413.09 7.22 441.24 7.23 446.21 7.19 447.7 7.26 457.37 7.05 465.56 7.12 482.52 7.04 499.81 6.88 516.91 6.76 517.97 6.96 520.03 6.75 538.64 6.7 555.44 6.55 586.43 6.31 598.24 6.15 599.7 6.23 618.85 5.9 651.9 5.46 661.34 5.28 Z M 629.34 412.61 619.94 412.67 619.04 404.29 619.45 403.53 619.33 401.1 619.87 400 619.39 399.17 619.46 397.53 620.58 394.65 621.61 394.76 624.11 393.12 625.63 392.8 626.69 393.49 626.71 394.43 627.55 396.19 630.13 397.45 631.73 400.76 630.97 400.97 630.87 402.44 631.4 404.52 630.12 404.1 629.39 405.37 629.45 407.47 628.61 409.36 629.92 410.43 629.34 412.61 Z M 618.03 380.34 619.35 380.67 619.83 381.46 621.79 381.05 621.92 378.73 620.6 378.64 619.12 377.01 620.21 376.94 620.2 375.05 621.31 374.35 623.16 373.88 623.56 372.28 624.41 371.61 625.44 372.21 625.36 374.15 623.95 375.18 623.74 377.55 625.03 378.17 626.42 380.89 626.36 382.47 626.78 383.86 625.62 385.36 625.13 384.29 623.56 382.71 620.2 383.16 618.52 381.45 618.03 380.34 Z M 611.58 364.57 611.8 362.88 612.95 361.62 612.36 360.42 612.3 358.42 615.73 358.78 616.95 358.1 617.43 356.67 615.9 355.92 618.71 355.14 620.98 357.76 619.85 358.71 620.01 359.63 621.3 359.36 622.92 360.09 623.61 361.99 622.45 363.24 620.61 363.54 621.32 365.23 622.48 366.51 621.88 367.88 620.46 367.77 618.45 368.08 617.89 367.44 616.75 363.21 616.12 362.73 614.95 364.48 613.79 365.67 612.33 366.05 611.58 364.57 Z M 579.36 323.71 580.25 323.88 580.39 324.88 581.66 327.02 580.61 327.64 580.58 326.1 579.36 323.71 Z M 576.22 109.19 576.62 107.15 577.24 105.51 578.32 105.06 578.75 106.13 577.29 107.47 577.52 108.04 576.22 109.19 Z M 555.82 226.28 557.76 223.06 558.58 222.51 559.55 223.41 559.12 224.47 559.4 226.4 560.61 229 560.79 230.77 558.26 231.66 557.13 231.06 556.99 229.98 555.9 228.41 555.82 226.28 Z M 555.75 115.17 561.16 112.46 563.45 113.27 562.72 114.92 558.54 117.74 556.8 117.37 556.16 116.77 555.75 115.17 Z M 419.68 319.75 418.66 321.35 417.97 322.14 417.4 322.72 416.65 323.27 417.97 322.14 419.68 319.75 Z" fill-rule="evenodd" fill="none" stroke="currentColor" stroke-width="1"/>
</g>
</svg>