<?xml version="1.0"?>
<svg width="20" height="20" xmlns="http://www.w3.org/2000/svg" version="1.2" baseProfile="tiny" viewBox="-102.860 -69.360 1005.720 1005.720" stroke-linecap="round" stroke-linejoin="round">
<g id="state">
<path d="M 74.39 850.32 73.9 847.46 67.79 847.77 66.81 846.95 64.37 846.57 62.85 844.55 61.33 843.73 59.74 843.42 58.95 842.53 55.96 840.74 54.97 839.92 51.07 837.86 50.19 836.62 50.07 835.42 49.33 833.79 50.22 831.4 50.45 829.1 51.27 828.36 50.39 825.66 51.88 824.98 51.87 823.21 52.68 820.4 53.96 818.46 52.29 815.98 50.56 815.02 48.34 815.06 48.18 813.49 47.51 812.91 44.26 812.19 44.07 811.29 42.35 810.65 41.55 809.56 39.95 809.39 39.86 808.15 38.98 807.42 37.07 806.85 35.75 804.71 37.22 804.39 35.7 802.83 34.33 802.07 33.54 801.1 32.81 799.36 30.64 798.46 30.48 797.67 28.77 797.24 26.3 797.63 25.52 797.38 25.2 796.34 23.39 795.48 23.45 794.56 22.33 794.45 22.58 793.5 21.43 792.71 22.12 791.92 20.03 788.86 19.68 786.03 20.55 785.79 19.99 784.47 19.79 782.04 20.74 780.81 22.05 780.47 23.28 779.12 23.18 778.14 24.34 777.73 24.62 776.42 23.79 775.55 23.71 774.49 24.86 772 24.05 770.64 22.05 769.92 23.47 769.15 23.13 768.13 24.07 766.73 24.08 766.04 25.15 765.57 25.54 763 26.11 761.77 25.47 760.67 25.36 759.44 24.45 758.86 24.31 757.96 26.37 756.73 26.73 755.56 25.93 755.07 25.36 753.57 24.27 753.11 23.63 752.07 22.46 751.86 21.68 738.07 20.72 726.89 20.66 724.57 20.06 716.07 19.3 709.07 19.1 698.54 18.69 690.9 18.67 687.04 18.32 678.85 17.62 664.75 17.56 661.73 17.22 656.84 16.62 643.44 16.29 637.26 16.09 630.13 15.79 625.46 15.28 613.94 15.03 610.83 14.72 603.12 14.3 597.23 13.68 585.56 12.46 566.54 12.15 562.9 11.61 548.82 10.72 534.09 9.79 520.86 8.85 508.98 8.5 506.17 7.67 495.95 5.96 477.71 5.72 473.07 3.79 447.62 2.82 436.44 2.3 427.54 1 416.9 2.73 416.6 5.76 415.3 7.08 415.82 9 415.44 10.94 416.01 11.3 415.51 13 415.17 15.56 414.24 16.79 412.53 15.16 411.48 14.73 409.36 16.27 409.19 20.1 411.8 22.35 411.47 23.51 411.74 24.7 410.87 26.4 410.41 27.78 413 28.94 414.06 30.73 414.39 31.25 415.09 33.04 415.68 32.67 416.92 34.17 418.69 32.9 420.41 32.32 421.92 33.33 422.33 34.33 423.75 35.5 424.64 35.22 425.38 36.79 426.05 37.45 427.17 36.8 428.75 39.4 430.53 41.36 430.68 44.8 431.63 48.33 430.01 46.49 428.63 46.84 427.04 46.3 426.37 46.44 425.04 48.28 423.92 48.77 422.66 49.73 421.9 50.09 419.82 48.97 419.17 51.06 418.38 52.68 418.32 53.43 417.57 53.13 416.28 54.15 415.72 54.64 413.79 54.16 412.48 53.32 412.54 52.32 411.66 52.06 409.96 52.74 409.11 53.92 408.56 53.03 407.04 53.92 406.76 54.35 405.71 55.3 405.42 54.52 403 53.42 401.85 53.16 401.01 50.96 399.95 50.87 398.59 52.09 397.79 53.36 396.41 53.63 395.53 55.39 395.18 56.79 393.22 58.21 393.54 59.36 392.66 61.95 393.15 62.69 393.64 64.45 393.19 65.34 394.07 66.61 394.58 66.67 396.35 69.17 397.76 69.34 398.77 72.8 400.49 74.11 399.93 75.78 400.16 79.34 399.76 82.62 401.43 82.69 402.86 84.69 403.05 87.74 401.81 86.92 400.8 87.96 399.01 89.92 398.61 89.82 397.5 88.56 397.25 87.62 396.31 89.13 394.47 88.54 393.48 86.44 392.51 84.64 389.98 82.27 389.66 79.97 388.53 78.78 388.58 78.63 386.74 76.97 386.37 76.53 385.76 76.72 384.31 75.22 383.4 73.59 383.04 71.68 381.24 72.91 379.71 72.83 378.94 71.01 378.19 70.6 377.34 70.97 376.42 72.98 375.57 73.98 373.91 75.09 372.92 75.86 371.54 77.64 369.82 79.54 369.26 77.3 367.44 78.18 366.04 79.35 365.73 80.53 364.19 82.98 362.57 84.01 361.43 85.72 358.78 87.68 358.09 90.73 357.72 91.14 356.85 92.78 355.83 93.19 355.03 96.19 354.16 96.44 353.47 98.38 351.62 101.23 349.39 101.43 347.92 102.58 347.14 105.74 347.16 107.23 346.39 108.64 347.23 109.89 346.7 110.71 345.57 115.09 342.85 117.71 341.72 119.7 340.41 120.3 339.52 122.07 339.39 123.21 339.97 125.48 339.98 127.21 339.34 127.35 338.78 129.57 338.17 132.97 336.92 133.61 335.23 134.95 335.23 136.22 334 135.06 333.77 134.12 332.41 135.28 331.04 133.84 329.8 132.8 329.59 131.78 328.74 131.95 325.96 129.77 322.34 131.5 321.89 133.11 322.15 133.78 321.68 133.68 319.86 135.4 318.65 135.37 317.78 138.95 315.41 138.53 314.79 140.87 314.58 144.24 311.34 148.52 310.68 150.84 310.06 155.21 307.62 157.41 306.04 157.58 305.5 159.69 304.41 158.99 303.39 161.25 301.64 161.35 300.7 160.26 300.31 160.58 298.6 159.47 297.49 161.48 295.76 164.03 294.43 163.9 293.8 161.46 291.42 160.93 291.96 159.04 289.99 157.69 290.29 156.71 289.28 154.6 289.86 152.64 289.96 151.32 289.59 150.04 290.1 150.14 287.87 150.99 286.99 151 286.15 153.38 285.48 155 284.26 153.72 283.31 151.86 283.03 151.11 280.83 148.95 279.1 152.08 277.48 152.49 275.43 156.28 272.71 156.56 271.29 155.4 270.7 153.73 271.1 151.14 270.97 150.31 270.37 151.96 268.55 152.24 266.71 153.97 265.96 154.32 264.6 155.27 263.5 158.07 263.3 161.22 263.58 161.48 262.07 161.02 261.66 161.76 260.03 163.22 257.96 164.59 254.55 163.88 253.84 162.58 253.48 161.5 252.28 159.21 251.02 158.86 250.12 156.59 249.03 154.16 246.96 153.77 245.84 154.68 245.37 156.63 243.51 157.96 241.89 157.37 241.26 158.49 240.6 159.48 238.59 160 238.36 160.98 235.34 161.75 234.8 161.16 233.76 162.31 231.25 164.04 229.57 163.95 228.92 165.34 227.9 165.61 226.61 168.87 225.8 170.55 224.92 170.46 223.08 171.07 222.22 170.29 221.17 170.22 218.85 172.43 217.06 173.29 215.64 175.19 214.82 176.41 213.68 178.23 213.79 179.06 213.17 181.53 213.52 183.17 212.6 183.97 211.42 185.75 211.22 185.64 209.69 186.04 209.19 188.94 208.27 189.35 207.27 190.93 205.89 191 204.55 192.06 203.7 195.57 203.77 199.35 202.39 205.15 175.23 205.4 173.9 210.83 148.59 220.78 138.52 240.52 118.74 262.01 97.31 289.69 69.87 300.58 59.12 318.54 41.48 339.97 20.54 360 1 364.27 2.44 365.53 1.81 366.56 2.18 368.88 1.59 371.6 2.67 375.06 3.09 381.53 5.18 382.62 6.51 384.29 6.5 385.55 7.31 387.62 7.94 390.13 7.23 390.97 6.16 392.04 6.22 393.34 7.4 394.82 7.21 395.72 8.65 395.15 9.37 396.43 9.74 396.18 10.87 396.88 11.67 395.08 12.54 394.51 14.4 395.58 15.22 394.36 15.62 392.81 17.13 392.91 26.41 392.72 28.88 393.78 30.67 392.99 32.38 393.7 33.87 393.51 35.99 394.27 37.32 393.52 40.23 395.43 42.45 396.8 43.34 399.1 44.06 407.11 47.25 407.46 47.72 409.81 48.68 410.83 50.06 412.34 49.83 413.04 50.72 414.4 49.96 417.12 51.8 418.73 52.12 418.79 53.09 420.8 53.81 421.67 54.91 423.83 54.45 426.08 54.44 428.25 53.25 430.86 53 432.4 51.81 435.86 50.39 439.72 48.21 441.12 48.17 445.54 47.07 447.94 47.05 451.23 46.05 454.54 44.3 455.43 44.25 458.3 43.25 460.07 43.83 462.52 42.82 466.01 42.96 468.34 44.14 469.94 43.62 471.62 43.52 473.78 42.97 477.17 42.76 479.12 42.05 481.8 39.79 481 37.59 482.03 36.82 482.59 35.59 484.78 34.24 490.22 35.29 492.37 34.66 494.16 33.32 496.44 32.61 499.2 32.6 501.72 33.02 504.72 32.38 506.82 33.32 507.88 34.86 509.75 35.3 511.06 35.02 513.4 35.44 516.25 34.26 517.23 34.14 521.09 34.54 523.42 34.27 524.03 33.57 523.74 32.75 522.24 31.54 522.82 29.85 522.14 27.44 522.99 24.19 524.58 22.32 526.28 21.28 528.16 20.83 532.93 20.24 537.45 21.17 540.33 20.27 542.42 20.44 545.23 21.76 548.51 21.77 551.1 21.2 553.02 22.14 553.2 23.19 555.58 24.33 557.32 24.22 562.36 26.25 565.51 26.6 566.96 27.67 566.69 29.26 566.99 29.98 569.93 32.59 571.66 32.97 573.04 34.26 578.62 36.38 580.58 37.43 582.17 39.73 585.05 40.52 588.89 42.19 593.28 44.49 595.17 46.03 596.73 47.84 598.37 49.21 601.47 49.81 604.46 51.13 605.8 52.72 605.76 54.34 608.23 56.83 608.77 57.92 610.41 59.83 613.79 61.34 614.81 63.19 616.81 64.55 617.64 65.78 617.84 68.5 619 69.61 621.65 70.34 625.61 71.74 627.59 72.82 631.54 73.95 632.81 75.06 636.84 76.8 636.98 89.55 637.04 107.53 637.04 118.02 636.98 129.35 637.05 134.82 637.24 166.63 637.96 196.93 638.19 210.81 638.46 230.05 638.53 246.87 638.59 264.24 638.66 281.95 638.63 293.73 639.24 295.38 640.11 295.4 641.59 296.72 644.3 298.46 643.57 299.85 641.77 300.6 641.05 301.5 641.04 302.51 639.03 303.06 637.84 302.96 634.25 305.42 634.12 306.86 634.55 308.37 635.64 308.77 635.81 310.01 638.27 312.44 640.23 313.37 641.72 314.8 642 315.86 643.59 316.89 641.41 317.85 639.23 317.72 638.78 318.3 634.62 320.74 633.73 322.44 634.29 325.07 633.95 327.26 633.24 327.72 633.79 330.03 636.34 330.97 638.5 334.71 633.11 335.08 634.4 341.48 631.53 341.92 634.33 345.04 641.06 345.07 643.83 346.99 645.74 345.95 647.73 347.54 650.41 348.01 650.83 346.91 648.39 344.97 647.63 342.86 648.97 342.96 650.87 344.7 651.8 344.36 654.04 346.7 654.71 348.53 656.02 349.7 655.74 350.31 658.26 352.68 659.06 354.06 660.79 355.31 661.43 355.13 664.82 357.47 665.95 356.94 665.12 355.58 666.11 355.2 667.46 355.91 671.98 358.84 675.59 358.73 676.88 359.6 680.99 361.06 682.03 360.61 684.04 360.55 686.27 361.08 689.22 362.44 693.12 362.62 695.15 361.07 694.71 359.89 697.36 359.29 698.27 359.94 699.66 359.4 701.29 359.21 702.58 359.56 703.1 360.69 706.24 363.1 707.29 364.21 707.67 365.41 706.73 366.05 707.1 367.64 707.96 368.42 708.18 369.69 707.33 371.47 706.01 371.42 705.48 373.9 705.9 375.51 708.24 377.18 707.55 378.2 705.94 378.6 702.58 378.39 701.4 378.91 700.09 377.67 698.64 378.32 698.48 379.88 695.04 380.69 694.93 381.44 693.03 381.08 692.21 381.92 692.74 383.42 695.21 385.43 696.34 387.13 695.84 387.85 696.07 389.1 697.18 389.69 696.72 390.76 697.97 393.87 700.29 394.35 700.88 395.7 703.12 397.3 707.04 400.61 707.18 401.51 708.51 403.07 706.2 404.29 705.56 405.43 705.74 406.22 707.22 406.82 706.15 408.36 706.66 409.42 704.12 411.28 703.47 412.12 701.91 412.5 701.23 413.1 702.14 414.2 701.93 415.2 701.07 416.09 700.54 417.88 699.12 418.15 699.47 419.08 697.81 419.57 695.53 419.76 694.96 421.31 696.02 421.91 696.38 422.73 697.44 422.8 698.14 425.98 699.96 428.75 701.86 429.32 703.1 430.89 704.51 432.04 705.05 433.47 706.85 436.93 706.61 438.55 708.73 439.2 710.97 441.35 712.17 441.63 712.4 443.27 711.33 443.64 711.35 445 713.66 446.09 716.07 446.58 718.01 448.54 720.56 450.16 721.23 450.94 723.84 451.63 725.78 450.46 727.47 450.52 728.15 449.21 727.69 448.38 729.72 448.12 731.88 447.56 732.66 446.22 731.24 445.55 731.05 444.76 731.68 443.26 733.18 442.85 732.75 441.56 733.35 439.66 734.72 438.84 737.33 439.06 738.84 439.6 740.16 440.56 741.79 440.97 742.57 442.56 744.44 443.32 745.59 444.32 750.08 442.78 752.69 443.89 757.05 444.1 758.93 444.76 761.34 447.56 764.56 450.36 767.73 454.16 771.19 461.44 771.91 462.61 769.01 463.17 768.49 464.39 766.74 464.92 770.2 467.19 770.92 468.28 768.95 469.48 772.46 469.15 773.61 470.16 774.99 472.16 775.41 474.27 776.28 475.68 778.91 478.43 779.86 480.84 778.08 481.91 781.01 482.85 781.84 483.86 782.06 486.41 783.17 486.62 782.99 487.47 786.71 488.02 787.35 488.8 786.66 490.19 788.54 490.71 788.72 491.17 791.21 491.74 792.46 492.76 792.72 493.7 792.53 495.52 790.47 496.76 791.32 498.55 791.89 498.97 792.67 502.38 793.31 503.68 790.82 504.99 790.13 505.87 791.66 507.29 791.39 508.5 791.62 509.67 792.85 512.27 795.93 510.81 798.7 510.61 799 511.68 796.97 513.08 795.24 513.39 794.04 512.88 791.51 514.72 789.93 516.68 787.62 516.93 787.12 518.68 784.73 519.57 784.41 520.63 781.09 521.23 780.19 521.98 779.68 520.29 778.54 519.96 776.15 520.48 777.48 521.17 777.67 522.27 777.03 523.77 775.88 523.87 775.28 525.69 773.34 526.09 771.59 525.55 769.36 526.09 770.42 527.29 769.85 528.41 769.31 530.54 768.34 531.59 766.74 531.5 766.53 533.37 765.69 533.49 764.59 534.68 762.58 534.98 760.87 536.86 759.51 539.69 759.63 539.95 756.66 541.11 754.36 540.8 753.43 541.01 752.38 542.38 752.89 544.31 748.33 545.53 744.23 545.92 742.13 545.2 741.87 543.18 742.97 540.4 741.83 539.75 738.34 540.21 736.78 540.73 737.74 543.34 737.24 544.26 737.42 545.37 738.94 545.53 740.36 547.19 739.67 547.88 738.25 547.16 736.53 548.01 736.34 548.58 733.98 548.47 734.12 547.32 733.25 547.16 732.51 545.95 732.99 543.75 731.45 543.42 731.84 542.6 729.68 541.65 727.16 541.51 727.65 540.83 729.99 541.25 729.83 538.84 730.63 537.79 730.01 535.48 731.51 534.42 731.7 532.69 729.89 532.36 725.86 533.22 725.31 533.78 723.56 533.98 720.12 533.88 718.97 535.04 719.89 536.26 718.7 536.33 717.51 535.41 715.44 535.93 714.34 534.6 712.92 535.09 713.24 536.42 711.27 537.34 712.23 537.83 714.11 537.63 714.25 538.25 716.13 537.89 715.99 538.88 714.34 539.07 714.71 540.47 716.28 540.46 717.25 540.94 718.33 542.33 719.57 545.33 719.34 546.96 718.36 548.34 716.56 549.29 714.82 547.89 714.25 548.63 714.34 550.3 713.03 550.61 712.87 552.22 711.17 554.21 710.53 554.15 708.58 552.43 708.25 551.58 708.24 549.55 706.63 547.49 708.38 546.87 706.95 545.17 706.04 545.89 704.89 545.07 702.78 546.25 703.28 547.81 704.93 548.08 704.98 549.32 706.49 550.53 705.94 551.77 705.12 552.16 703.47 551.96 702.87 553.04 700.67 552.91 699.3 552.46 699.57 551.8 697.78 551.67 696.61 550.97 694.66 551.7 693.51 550.23 694.4 549.64 694.15 547.53 693.37 546.74 691.8 545.99 688.52 546.72 688.28 547.97 686.98 548.87 684.55 547.97 682.81 549.31 682.72 550.89 681.53 550.33 681.07 551.31 682.08 553.24 680.89 555.1 680.48 556.86 679.62 557.62 679.37 559.35 678.43 560.7 680.28 562.48 681.35 564.71 680.36 565.57 680.43 566.22 677.81 566.64 674.69 566.18 673.87 566.71 672.4 566.64 670.61 567.13 666.11 567.23 663.36 567.42 662.72 565.25 659.51 564.79 658.78 565.64 657.81 565.05 655.02 565.88 653.8 567.02 654.6 567.64 654.69 570.58 653.14 571.92 653.36 572.45 651.79 573.65 649.9 572.69 647.75 573.13 645.94 572.91 646.2 569.17 645.74 566.39 644.32 564.89 643.72 563.35 642.94 562.96 640.03 563.25 639.82 564.07 638.77 565.28 638.91 568.03 639.55 569.66 638.41 569.52 637.44 568.68 636.24 568.72 634.52 567.79 634.13 566.49 634.13 564.17 631.52 564.4 630.65 564 631.11 562.83 629.41 561.88 629.36 561 627.34 560.28 625.78 560.24 625.19 561.29 626.06 561.94 626.88 563.91 625.09 565.48 625.14 566.85 622.43 567.96 623.72 568.68 624.36 570.48 624.96 571.04 624.86 572.87 625.42 573.23 625.03 575.32 623.17 577.52 620.73 578.01 619.91 576.11 619.22 575.42 617.34 576.08 618.44 577.85 618.44 578.83 619.22 580.4 620.09 581.12 619.13 581.58 617.94 583.58 618.44 584.17 617.94 585.32 618.02 587.09 616.97 589.31 617.7 590.08 616.56 590.92 615.59 592.57 613.85 588.63 613.3 588.36 613.44 586.04 612.98 585.35 613.85 581.65 612.43 579.88 611.01 579.45 610.81 582.21 608.77 582.27 609.81 583.54 610.16 584.92 609.37 587.28 609.55 589.37 608.42 589.7 606.53 588.39 605.16 586.21 604.17 582.6 604.35 581.29 602.1 578.04 599.67 577.49 597.79 579.98 596.05 579.03 595.4 579.42 593.89 578.4 593.98 577.06 592.33 576.54 591.09 577.03 591.6 579.68 592.97 580.34 593.57 581.29 596.74 581.74 596.92 582.4 599.86 583.78 601 586.13 601.42 587.68 602.2 588.04 601.87 589.61 603.34 589.87 604.35 591.94 602.1 592.59 600.96 593.41 600.41 594.69 599.53 594.72 597.48 592.5 595.63 589.61 594.4 589.22 594.17 591.08 592.88 591.02 592.61 591.94 593.69 593.6 593.66 594.43 591.45 596.37 591 597.97 591.6 598.92 591.48 600.09 589.67 598.86 587.56 599.84 587.56 601.45 588.08 602.59 587.74 604.34 586.87 605.09 586.04 603.75 584.74 604.84 583.45 604.13 581.71 601.77 581.36 596.92 581.96 596.33 581.41 593.94 580.12 594.36 578.2 594.17 579.44 596.2 579.39 597.15 578.44 597.32 576.82 595.64 576.27 593.97 577.1 593.28 574.71 591.41 574.48 589.97 575.21 588.46 573.98 586.53 573.26 582.9 573.34 580.22 573.98 579.81 574.15 578.6 572.97 576.47 570.95 577.06 569.48 576.56 569.48 574.74 569.07 573.95 567.23 572.77 565.16 572.18 565.35 573.23 563.97 575.03 565.21 577.52 563.37 578.16 558.83 577.83 559.8 577.16 561.54 577.23 560.33 575.84 560.21 574.77 559.17 574.59 558.37 573.69 557.43 570.48 558.01 569.96 557.46 568.55 555.57 568.52 555.39 569.86 554.24 572.48 554.2 573.69 552.68 573.69 553.16 574.92 552 576.44 553.19 579.06 552.11 579.45 549.43 577.68 547.54 575.52 546.03 574.7 545.34 574.87 545.66 576.31 544.65 577.92 543.37 577.68 542.04 578.04 541.4 577.49 539.93 577.32 539.61 577.88 541.58 580.34 542.5 579.71 544.29 580.6 543 580.93 542.22 581.76 538.83 582.11 536.62 580.63 534.01 579.68 532.86 581.29 532.81 582.11 529.97 581.58 528.68 580.6 528.09 581.25 527.95 583.22 526.53 584.04 525.47 585.71 527.12 586.59 528.91 586.27 529.33 587.41 531.16 587.48 532.22 586.56 532.26 584.96 534.83 583.15 536.16 583.15 538.66 584.4 539.58 585.34 541.58 585.25 544.56 584.04 548.62 585.29 549.19 585.94 549.47 587.84 548.14 588.85 550.16 589.9 552.87 592 554.52 592.92 554.78 593.55 557.1 593.19 558.37 594.35 559.87 596.77 560.77 597.67 561.26 598.95 561.13 600.04 561.72 601.48 562.7 602.3 562.5 604.83 562.16 606.11 561.13 605.49 559.8 607.59 559.92 609.61 557.64 609.95 557.32 610.8 554.93 611.79 554.29 611.26 553.1 612.91 551.81 613.37 550.85 613.14 550.21 611.82 549.56 611.89 548.46 613.28 547.45 612.45 546.31 613.33 542.97 612.74 542.08 610.6 541.13 611.71 541.91 612.12 542.29 613.64 539.51 613.6 538.37 612.12 536.71 611.56 535.15 612.12 534.6 613.33 536.62 615.3 535.84 616.75 537.91 616.91 539.39 618.41 540.2 621.42 538.92 622.11 538.28 623.29 536.99 623.39 536.43 624.89 535.08 625.48 532.65 625.58 531.94 626.22 530.85 625.91 530.15 624.63 528.5 623.16 526.89 623.69 526.76 625.01 526.01 625.24 525.06 624.15 525.85 623.01 525.01 621.96 523.42 621.14 521.18 621.61 520.2 620.66 518.29 619.93 517.76 619.38 518.31 618.56 517.07 617.73 515.37 615.92 516.66 615.96 517.58 614.58 516.11 613.73 514.6 614.12 513.86 613.07 514.13 611.97 513.19 611.29 513.21 608.59 516.86 606.72 517.81 603.84 516.48 603.48 515.91 604.57 514.99 604.05 515.88 603.35 515.85 602.41 517.26 600.16 517.99 600.08 519.83 598.68 520.03 597.59 519.55 596.31 521.29 595.48 523.55 595.15 523.59 593.48 525.29 592.95 526.17 593.85 527.58 593.22 528 591.61 526.48 590.66 525.24 587.74 523.87 587.05 522.44 585.35 520.56 584.89 520.92 586.43 520.6 588.23 518.44 590.05 517.4 590.46 516.62 591.81 514.96 592.41 513.22 592.3 512.62 591.42 513.48 589.9 512.62 589.02 513.11 585.61 513.95 583.71 513.31 580.76 513.77 578.14 514.96 578.04 514.23 576.54 514.41 575.39 514.28 572.74 513.5 572.81 511.98 574.31 511.98 575.75 508.37 574.95 506.25 574.28 505.05 574.97 505.88 575.92 505.97 578.5 507.9 581.32 507.9 582.63 507.12 583.35 505.42 583.94 506.52 585.18 507.9 587.84 508.04 590.23 506.79 592.08 506.76 593.44 507.22 594.36 507.17 595.69 503.97 595.78 503.08 594 503.81 591.77 505.11 590.92 503.63 585.81 504.5 585.71 504.36 583.02 504.82 581.84 503.77 581.25 502.39 583.02 501.93 585.46 501.11 585.51 500.79 587.18 499.92 588.98 498.79 589.46 497.06 589.14 495.8 590.15 494.5 592 493.2 592.14 489.23 591 488.09 591.16 487.04 592.78 487.36 594.57 488.58 595.67 488.42 596.67 490.2 597.16 491.09 600.4 489.46 602.09 489.28 603.08 487.66 604.64 487.75 605.98 486.94 607.62 487.5 609.47 489.97 611.48 490.19 612.58 492.85 612.71 492.41 611.04 493.9 610.94 493.63 613.66 494.32 614.58 494.34 615.63 496.2 617.74 496.15 618.92 494.87 618.82 493.95 618.26 492.3 618.29 489.18 616.06 488.95 617.24 489.59 618.95 491.65 619.05 493.49 619.84 494.11 620.75 494.43 622.36 495.51 623.19 495.46 624.9 493.18 624.66 489.82 623.29 490.46 621.91 488.76 621.45 484.95 619.87 483.3 618.82 482.66 618.03 479.9 615.9 477.86 615.8 475.81 615.04 475.59 613.62 476.88 612.26 475.87 610.61 474.54 611.84 474.76 613.31 474.32 613.64 472.13 613 470.96 613.03 469.89 612.47 467.8 612.32 466.83 611.92 465.21 610.42 464.23 611.73 463.3 611.66 461.69 610.08 461.83 609.33 456.3 606.85 454.81 605.81 454.81 605.07 453.66 604.62 451.46 605.34 449.27 605.31 446.97 607.38 444.3 607.5 443.71 609.07 442.9 609.5 439.79 609.22 436.69 608.67 436.61 606.95 438.15 605.86 437.03 604.35 437.82 602.23 437.78 600.97 438.54 600.77 439.08 599.01 438.87 598.21 440.08 596.74 439.89 595.36 438.1 595.3 437.83 592.94 439.43 592.54 439.66 591.85 438.42 591.33 437.73 590.35 438.65 586.81 439.62 585.86 441.63 584.99 442.04 582.27 443.63 581.45 445.17 582.61 445.26 581.07 444.48 579.47 445.09 577.45 446.23 575.31 446.23 573.41 444.71 570.07 443.06 568.54 442.46 567.42 440.81 567.72 440.26 570.66 440.9 571.41 440.03 573.18 439.16 573.05 436.59 574.23 435.26 575.31 435.17 576 436.86 577.9 437.05 578.55 439.43 578.09 439.8 578.94 437.77 579.15 436.31 579.7 435.9 580.52 433.6 581.74 430.55 583.04 427.43 585.94 425.67 586.28 424.41 584.38 424.17 583.01 423.2 581.94 421.14 581.86 418.46 580.78 417.45 581.83 417.29 582.95 416.47 584.24 415.16 585.1 414.19 586.24 412.96 585.82 409.8 586.34 408.69 586.77 405.84 586.77 404.79 586.18 403.64 586.77 404.4 587.42 406.9 591.95 405.71 592.97 406.67 594.41 407.42 594.35 409.64 595.36 411.89 597.79 413.34 600.23 413.01 603.3 412.12 606.38 411.27 608.25 410.39 609.41 407.15 612.02 406.67 611.38 404.28 611.49 402.62 612.07 403.12 612.82 401.94 614.4 402.35 616.03 400.04 619.31 397.85 620.86 397.24 622.12 395.57 623.83 394.91 625.49 395.07 627.4 394.36 628 392.77 628.11 391.89 628.8 392.77 629.69 393.33 631.11 392.31 633.62 392.8 635.82 391.51 636.99 391.25 635.64 389.42 633.34 389.19 634.98 387.7 638.67 388.25 639.82 387.44 642.06 385.38 642.82 388.68 642.95 388.59 644.83 387.52 646.64 386.75 646.9 385.47 646.11 383.86 646.38 383.18 647.6 383.86 648.76 382.95 649.31 383.81 650.87 382.63 651.45 384.37 652.9 386.13 652.47 388.57 651.44 390.97 651.24 392.46 650.57 394.95 651.15 394.23 652.31 393.27 652.47 393.04 654.02 391.8 655.57 390.92 655.44 389.71 656.43 389.88 657.65 388.54 657.52 387.92 658.27 389.09 660.03 388.45 660.78 385.15 661.41 384.37 662.17 381.49 663.36 381.07 664.15 378.61 665.6 379.96 668.27 382.07 668.87 381.48 669.99 379.03 669.71 378.72 668.47 377.07 668.83 377.21 669.53 375.97 670.85 375.93 671.54 378.82 672.27 379.49 672.99 377.93 673.56 375.51 672.89 374.54 671.67 374.55 670.55 373.68 670.45 372.31 671.03 371.95 669.13 370.88 669.82 370.45 670.71 369.11 671.72 369.55 673.39 368.03 673.79 367.6 675.17 367.67 676.73 366.29 677.07 365.76 678.21 364.01 680.17 362.5 681.11 361.85 682.31 360.46 681.75 358.95 682.14 356.17 682.38 356.47 683.33 352.92 684.89 350.44 685.5 349.4 685.22 349.31 683.93 350.33 682.86 350.6 681.22 351.68 679.81 349.95 678.91 349.18 677.16 347.63 677.11 346.44 678.28 343.91 679.86 342.04 680.43 341.6 679.58 342.91 678.31 344.41 677.3 344.58 676.26 342.86 675.77 340.52 674.55 338.87 675.57 339.56 676.92 340.89 677.62 341.12 678.38 340.06 679.4 338.37 679.37 337.63 678.64 336.65 679.13 335.89 681.02 334.88 682.41 333.78 682.14 332.72 683.44 330.89 683.5 331.07 682.77 333.55 680.85 332.93 679.85 334.33 678.61 335.52 678.01 336.44 676.06 339.61 674.38 338.51 673.88 337.45 674.88 336.53 674.25 337.13 672.86 335.66 672.13 334.56 673.32 334.97 674.28 332.53 675.74 332.13 675.44 331.67 673.29 333.37 670.12 332.59 669.86 330.15 669.82 329.97 671.41 329.14 673.09 329.19 673.92 327.22 674.84 326.43 674.6 326.21 672.33 324.92 671.67 322.98 673.33 321.62 676.36 320.2 676.99 319.99 675.78 320.84 674.15 320.93 673.13 318.82 673.62 317.81 675.21 318.07 675.84 316.94 679.1 316.24 680.15 316.39 681.25 315.38 683.47 314.59 687.61 314.05 688.62 311.52 691.33 310.24 692.38 309.45 694.21 306.16 700.28 305.05 700.6 303.67 700.37 304.24 698.9 303.4 696.54 302.62 695.83 303.08 693.81 301.89 693.62 301.89 692.66 299.78 692.62 298.32 691.79 297.25 692.1 297.03 693.54 298.1 695.73 296.82 700.87 296.02 701.24 295.58 699.7 293.61 698.97 292.23 699.45 291.56 701.99 291.43 703.39 290.2 703.99 288.86 705.35 286.35 704.68 286.6 702.57 287.78 702.63 288.96 701.59 288.58 700.63 289.18 697.52 288.51 696.18 286.6 696.35 286.15 698.35 284.08 698.81 284.97 700.32 284.27 701.96 282.98 702.29 281.88 701.16 281.51 699.8 282.66 698.65 282.25 698.12 280 698.31 279.49 700 277.88 700.55 278.67 703.81 277.23 704.23 277.8 705.43 277.19 709.28 277.4 710.58 276.76 711.21 275.64 710.76 274.31 708.48 274.23 707.28 270.91 705.6 270.97 703.59 270.04 702.65 270.68 702.09 270.84 700.75 271.59 699.85 272.01 696.65 271 695.99 270.6 694.48 271.14 692.86 270.64 691.07 271.06 688.82 272.34 685.78 273.44 684.59 273.71 683.7 272.61 683.04 271.14 683.63 269.81 684.92 269.58 688.23 268.99 689.22 268.94 690.67 268.4 692.89 267.24 694.21 267.22 695.44 267.84 697.75 266.92 700.76 267.33 702.39 267.06 703.61 265.31 705.57 264.75 707.35 264.89 709.02 264.02 711.03 261.83 712.79 260.27 713.48 259.33 714.92 257.74 718.39 255.45 718.02 254.53 719.68 253 719.74 253.06 718.65 250.81 719.25 250.13 719.98 250.75 720.57 248.29 721.24 247.79 721.77 246.36 721.57 243.75 722.5 242.42 723.43 243.29 725.55 241.77 726.91 241.21 725.88 239.88 725.63 238.24 725.94 239.16 723.43 238.24 723.26 237.7 722.24 238.15 720.55 239.48 718.72 238.33 718.25 236.77 718.55 236.36 720.08 235.15 720.75 235.62 718.61 235.57 716.59 237 715.4 236.39 714.39 234.77 714.03 235.03 712.59 234.71 711.73 232.65 711.79 229.22 713.03 227.6 711.86 225.55 711.91 224.7 711.06 223.42 710.7 221.18 714.27 220.01 713.83 219.72 712.89 218.71 712.89 215.61 716.54 214.15 716.46 213.42 718.29 211.33 721.37 211.69 722.07 210.25 723.91 210.53 724.65 209.06 724.89 208.87 723.45 210.99 721.08 210.48 720 211.31 718.45 209.93 717.89 208.05 718.49 207.4 719.31 205.16 721.27 206.21 717.89 203.32 718.52 201.9 717.59 203.46 716.2 204.7 714.54 206.54 713.85 207.06 711.67 207.58 710.98 209.45 710.14 210.15 709.2 210.17 708.28 211.49 705.8 212.54 705.13 213.87 705.2 214.88 703.88 214.7 702.25 217.15 700.07 218.17 698.56 219.12 698.34 219.57 696.61 220.88 695.98 220.46 695.1 218.13 696.14 217.96 696.73 215.51 697.34 214.37 697.16 211.67 698.22 210.94 699.57 209.75 700.53 207.54 701.66 206.95 702.35 205.21 703.19 205.8 701.66 208.69 699.67 209.71 698.24 211.12 697.49 212.5 694.74 211.31 694.61 210.02 695.1 208.32 696.3 206.56 696.21 204.08 697.9 202.17 699.51 201.76 700.8 199.93 701.72 198.99 702.79 199.82 703.32 199.1 704.27 197.02 705.36 197.98 702.6 196.12 702.9 194.72 702.22 194.69 703.72 192.05 704.47 191.11 705.8 189.6 706.09 188.38 707.38 187.19 707.27 183.97 708.51 182.24 708.59 182.81 709.62 180.5 711.39 180.67 712.27 178.95 713.18 176.28 715.12 175.42 714.97 176.39 712.79 176.4 711.97 174.18 712.69 172.76 713.61 173.13 714.28 172.12 716.59 173.08 717.52 172.85 718.82 168.18 723 169 724.39 168.4 725.93 168.81 727.37 165.48 725.93 164.78 727.08 165.37 728.27 166.61 729.03 164.97 729.64 163.44 728.15 161.73 729.72 161.43 731.68 163.86 732.55 164.27 733.45 163.74 734.75 164.91 735.41 165.55 736.3 166.79 736.47 167.53 739.82 170.21 741.63 169.73 743.61 169.05 744.38 168.86 745.75 168.28 746.73 168.79 748.07 171.06 748.81 170.15 750.37 171.09 751.09 172.25 752.89 170.47 754.35 168.41 754.49 167.14 753.11 165.48 753.67 163.09 755.46 160.5 755.1 159.27 755.2 158.16 754.33 157.66 753.38 152.5 755.7 150.85 756.92 149.61 758.66 150.92 759.87 149.82 760.27 147.84 759.83 148.85 758.76 148.13 757.96 146.79 757.6 144.28 757.65 142.15 758.55 140.53 759.84 137.07 764.08 135.96 766.24 135.82 767.97 136.34 771.33 136.86 772.38 138.4 774.14 140.09 774.71 141.24 773.61 145.15 773.73 147.08 773.48 145.63 774.84 144.86 776.38 143.89 777.03 142.75 776.66 140.37 777.23 138.73 778.19 137.55 779.44 137.47 780.78 136.28 781.11 135.55 781.94 136.72 782.57 135.11 783.63 134.79 784.45 133.45 785.9 133.05 784.61 131.58 784.6 130.83 785.14 128.93 785.59 127.7 786.85 128.33 788.7 129.48 790.08 129.89 792.3 127.53 793.5 124.22 793.69 123.16 795.07 120.95 795.49 120.34 796.21 119.04 795.84 118.69 794.99 116.87 794.95 113.64 795.94 113.15 795.49 110.32 795.58 106.93 796.98 103.34 799.86 101.61 802.03 100.03 805.94 100.03 807.14 98.89 807.58 97.29 809.85 95.6 813.87 96.63 814.92 96.77 816.33 99.1 819.17 98.93 819.98 96.74 821.72 96.78 823.42 95.62 825.49 94.11 826.53 92.73 828.1 95.33 828.91 96.28 829.85 95.16 830.44 92.28 829.48 90.77 830.41 89.42 833.55 90.12 834.53 90.08 836.02 88.24 836.29 87.78 837.37 87.78 838.78 87.02 839.96 84.53 842.43 83.93 842.53 83.57 844.02 82.27 844.94 81.69 847.28 79.33 848.84 74.39 850.32 Z M 411.41 629.78 412.03 629.78 411.26 630.69 411.31 631.85 410.07 631.89 410.2 630.18 411.41 629.78 Z M 482.06 655.9 482.84 654.98 483.62 655.12 482.38 657.61 482.06 655.9 Z M 469.2 647.66 471.08 647.6 473.31 648.81 473.38 649.75 470.66 649.36 470.63 648.52 469.2 647.66 Z M 466.83 654.29 471.59 653.51 472.3 653.65 474.76 652.72 476.27 650.5 478.9 650.73 478.48 651.75 480.3 652.27 480.5 656.59 480.2 659.42 480.34 660.2 479.22 662.79 478.63 663.6 478.08 666.45 476.92 666.75 476.69 665.14 475.18 664.77 475.04 665.8 473.92 665.54 472.39 665.81 471.51 666.43 469.99 668.54 469.54 668.2 469.54 666.27 468.77 665.65 469.78 663.67 470.2 661.62 472.38 659.73 471.92 658.54 469.67 659.63 469.96 657.49 470.77 656.36 470.36 655.57 469.04 655.61 466.83 654.29 Z M 436.82 642.61 437.32 641.98 439.2 641.78 437.83 643.07 436.82 642.61 Z M 436.82 698.35 438.88 695.67 440.08 696.56 438.8 696.94 437.29 698.53 436.82 698.35 Z M 423.96 661.87 424.75 661.33 425.67 663 423.83 662.55 423.96 661.87 Z M 422.81 703.32 423.65 702.49 423.86 701.17 425.66 700.16 426.95 700.13 426.86 700.99 425.8 701.33 425.2 703.27 424.29 703.64 422.81 703.32 Z M 421.49 697.16 422.33 696.38 422.5 694.84 422.18 694.2 424.55 692.98 426.17 694.31 426.65 695.41 425.25 697.02 423.37 698.18 421.15 698.02 421.49 697.16 Z M 421.03 657.11 422.78 656.02 424.11 656.94 422.72 658.11 421.03 657.11 Z M 420.35 650.33 420.94 649.72 420.53 648.73 420.9 647.28 422.82 645.11 425.07 644.71 427.96 645.24 429.66 645.9 430.12 647.41 429.2 649.49 431.04 648.63 431.72 647.45 432.83 646.89 432.87 645.67 431.95 644.58 434.62 644.32 434.16 645.9 434.75 646.43 436.18 646.13 437.51 645.21 439.16 646.03 440.76 646.39 441.27 647.12 440.63 648.4 441.69 649.25 442.92 649.33 444.76 650.85 444.66 651.67 447.33 653.71 445.86 655.72 446.87 656.51 444.94 658.51 443.82 658.5 442.28 660.63 440.54 660.53 441.09 661.62 439.11 662.68 436.46 662.84 433.42 661.13 432.29 662.06 432.31 663.48 431.35 663.72 428.42 662.81 427.7 661.32 428.33 659.12 426.31 657.47 426.03 656.18 426.54 654.43 425.12 653.68 424.15 652 423.51 652.16 423.6 654.86 421.3 653.78 421.58 651.6 421.31 650.74 420.35 650.33 Z M 419.52 659.78 420.62 658.69 421.41 660.28 420.15 660.6 419.52 659.78 Z M 414.09 647.18 414.65 646.33 416.49 644.98 415.89 644 416.31 643.2 417.94 642.5 418.14 641.69 419.56 640.17 421.35 639.25 422.12 639.39 425.16 637.93 429.58 635.11 433.04 633.33 434.08 633.68 437.17 633 438.23 634.25 436.86 634.87 438.24 635.89 438.26 637.47 439.8 637.67 440.58 638.47 439.02 639.05 439.48 639.97 440.99 639.48 441.04 640.37 438.06 641.16 436.22 639.84 435.35 640.53 433.15 640.63 433.65 641.42 431.54 642.31 430.67 641.62 429.98 642.61 430.9 644.32 427.46 644.42 425.71 643.96 423.37 644.48 425.35 642.34 427.09 641.88 427.18 640.93 424.93 640.96 423.97 642.05 422.59 642.51 421.17 643.66 420.07 643.46 419.2 644.32 417.5 644.75 416.44 646.03 415.71 647.84 414.09 647.18 Z M 400.52 686.57 401.82 686.84 402.4 687.99 401.16 688.29 400.52 686.57 Z M 394.42 654.22 394.88 653.1 395.98 652.37 397.14 653.62 396.35 654.58 394.51 654.78 394.42 654.22 Z M 391.76 668.64 391.85 667.55 393.86 666.79 395.11 667.58 393.66 669.02 392.77 670.32 391.34 668.93 391.76 668.64 Z M 389.32 666.59 391.23 666.06 392.49 666.59 389.51 668.01 389.32 666.59 Z M 387.28 672.51 388.36 672 389.32 673.06 388.18 674.15 387.28 672.51 Z M 384.78 672.04 390.7 670.02 389.89 671.66 388.27 671.61 387.03 671.97 385.35 672.96 384.78 672.04 Z M 377.75 693.79 378.6 690.65 378.63 689.22 380.37 688.58 379.69 692 379.09 693.35 377.75 693.79 Z M 359.73 684.62 360.37 683.33 361.29 683.3 362.14 684.42 360.82 685.36 359.73 684.62 Z M 346.08 693.78 348.6 693.32 348.79 695.08 346.31 695.47 345.76 695.01 346.08 693.78 Z M 345.35 681.09 346.76 680.06 346.76 681.81 345.54 681.89 345.35 681.09 Z M 342.58 684.91 343.98 684.75 344.01 686.57 342.41 685.62 342.58 684.91 Z M 340.98 687.93 342.69 687.81 343.74 689.18 341.72 688.89 340.98 687.93 Z M 340.87 695.86 341.72 694.64 342.47 691.56 344.28 692.61 343.32 696.07 341.35 696.6 340.87 695.86 Z M 340.86 715.47 341.33 714.16 342.78 712.81 344.83 712.46 345.25 713.61 342.64 715.91 341.06 716.07 340.86 715.47 Z M 335.43 683 337.08 681.52 337.58 681.71 337 683.32 335.43 683 Z M 329.05 686.47 330.05 685.57 331.58 685.45 331.12 686.84 329.37 688.03 329.05 686.47 Z M 326.94 676.55 327.1 675.72 328.55 675.67 327.75 677.11 326.94 676.55 Z M 320.7 683.96 321.85 683.8 321.75 684.96 320.52 685.05 320.7 683.96 Z M 318.02 685.09 318.72 682.24 318.5 680.69 320.22 678.38 320.47 679.63 321.66 680.16 322.21 681.32 321.44 681.66 318.76 686.4 317.9 686.5 318.02 685.09 Z M 289.63 712.42 290.79 711.59 291.06 712.98 289.63 712.42 Z M 287.07 708.58 287.57 706.92 288.33 707.29 287.07 708.58 Z M 283.85 715.77 284.91 713.48 285.41 711.63 286.7 711.76 285.64 713.12 285.69 714.87 285.25 716.34 283.85 715.77 Z M 280.61 706.5 281.12 705.12 281.93 704.9 282.33 706.56 280.61 706.5 Z M 221.55 721.05 222.36 720.91 223.56 722.2 222.04 722.26 221.55 721.05 Z M 211.4 700.33 212.13 699.34 213 699.54 212.13 701.39 210.75 701.19 211.4 700.33 Z M 206.81 704.27 207.5 703.08 210.3 701.86 210.85 703.25 208.46 705.37 206.81 704.27 Z M 203 723.99 204.7 721.77 206.21 722.1 204.24 724.02 203 723.99 Z M 200.84 708.91 201.35 708.25 203.14 707.29 203.73 705.76 205.05 705.79 204.74 706.82 203.41 708.51 202.31 709.37 202.72 710.43 201.28 711.03 200.84 708.91 Z M 198.44 717.92 200.38 715.9 201.35 715.8 198.43 718.73 198.44 717.92 Z M 198.5 714.81 199.19 713.22 199.97 714.28 198.5 714.81 Z M 195.06 708.18 196.58 706.92 197.4 707.65 196.76 708.18 195.06 708.18 Z M 194.51 724.42 196.35 723.2 196.5 724.2 194.96 725.51 194.51 724.42 Z M 190.72 731.59 192.34 729.21 193.19 730.44 191.72 732.21 190.72 731.59 Z M 188.13 711.29 189.9 710.33 190.52 710.66 191.72 709.8 192.96 710.41 190.57 712.03 188.13 711.29 Z M 187.45 729.49 190.29 726.68 191.5 726.68 192.52 727.22 192.18 728.44 191.04 727.75 190.11 727.9 187.89 730.14 187.45 729.49 Z M 186.39 726.58 187.9 724.99 188.64 725.42 186.39 726.58 Z M 183.6 721.54 185.29 719.75 185.98 718.08 188.06 717.37 189.43 717.61 190.3 716.03 191.28 716.65 191.44 717.52 188.82 720.94 189.54 721.95 187.72 722.43 187.99 723.53 186.97 724.43 183.78 722.82 183.6 721.54 Z M 179.32 717.26 182.17 715.04 181.89 713.98 182.17 712.22 184.82 712.39 185.84 711.49 187.03 712.82 185.01 713.18 184.42 714.51 187.08 714.28 186.43 715.73 182.95 717.29 179.32 717.26 Z M 176.76 730 177.19 729.26 178.63 728.32 180 727.88 182.06 726.54 183.13 725.38 184.46 726.41 183.41 727.01 182.18 728.73 180.56 729.53 180.97 730.39 179.35 731 177.62 730.96 176.76 730 Z M 172.3 723.92 173.49 722.56 174.37 722.8 173.04 724.26 172.3 723.92 Z M 171.43 736.14 172.07 733.98 174.14 731.89 175.15 731.99 175.1 733.48 176.16 734.63 174.73 736.3 173.54 736.2 171.7 736.63 171.43 736.14 Z M 169.77 738.16 170.99 737.05 172.14 737.55 172.15 738.68 170.51 739.67 170.49 738.57 169.77 738.16 Z M 168.96 733.39 170.47 732.32 170.7 730.36 171.29 729.66 175.1 727.84 173.72 730.89 172.99 731.99 171.61 732.55 169.56 734.25 168.96 733.39 Z M 164.32 756.34 166.94 756.36 166.28 758.08 164.96 758.27 162.87 757.82 164.32 756.34 Z M 91.1 863.54 92.32 864.12 94.17 865.65 92.92 866.3 90.85 864.77 91.1 863.54 Z M 727.18 550.86 729.67 550.75 729.39 549.88 731.59 549.02 732.47 549.02 733.52 549.87 734.58 549.28 735.59 550.04 739.07 551.43 738.56 552.4 736.6 551.18 735.31 551.21 735.36 552.44 733.89 552.23 733.02 553.27 730.95 553.6 728.81 553.59 728.88 552.32 727.19 551.35 727.18 550.86 Z M 720.03 557.03 720.81 556.24 721.67 556.66 720.86 557.7 720.03 557.03 Z M 718.15 539.75 719.16 540.05 720.99 539.78 720.72 540.83 718.65 540.67 718.15 539.75 Z M 699.71 558.7 701.09 557.84 701.86 558.43 700.54 558.96 699.71 558.7 Z M 691.49 548.7 693.14 548.86 692.18 549.81 691.49 548.7 Z M 684.89 555.16 686.29 555.18 686.49 556.31 688.46 556.15 689.84 555.56 689.37 553.9 690.17 553.55 692.41 555.36 694.79 555.69 696.49 556.88 696.38 557.46 694.7 557.88 692.93 557.34 690.53 556.08 689.06 557.03 688.78 558.17 689.68 558.4 690.71 559.64 693.19 560 694.86 560.64 694.52 561.57 690.89 562.16 689.37 561.94 686.5 559.98 684.89 557.34 684.89 555.16 Z M 680.61 570.37 681.22 569.74 682.78 569.38 685.31 569.44 686.95 568.83 687.22 569.88 688.32 570.17 689.83 571.12 690.87 573.1 690.03 574.09 687.76 575.57 686.83 577.41 685.39 577.8 684.61 577.47 684.47 576.16 683.78 574.23 684.19 573.25 682.36 572.27 680.64 571.01 680.61 570.37 Z M 669.51 570.89 670.15 568.24 673.78 568.05 672.68 569.42 673.09 570.67 674.79 570.14 675.99 569.28 676.35 568.15 678 568.21 677.54 569.55 676.12 570.27 676.85 570.83 675.69 572.25 675.43 573.54 677.45 574.2 677.72 575.28 678.96 575.67 679.15 576.39 680.83 577.79 679.33 577.83 679.47 580.65 678.6 581.73 676.37 582.43 675.87 582.11 674.53 579.71 674.83 578.69 673.78 577.08 673.01 575.3 672.23 571.72 670.7 571.97 669.65 571.68 669.51 570.89 Z M 666.89 574.2 667.26 572.56 667.9 572.66 667.77 574.33 666.89 574.2 Z M 664.42 569.62 665.7 569.75 668.18 569.52 664.92 571.52 664.19 570.27 664.42 569.62 Z M 658.64 575.75 660 576.04 659.49 577.06 658.1 576.2 658.64 575.75 Z M 636.52 576.11 638.91 576.83 638.08 577.65 637.12 577.74 636.52 576.11 Z M 631.24 570.35 632.99 569.96 634.09 570.84 634.5 572.84 636.13 573.53 635.65 575.72 633.81 575.13 633.54 574.12 632.21 573.07 631.24 570.35 Z M 628.08 565.35 629.45 565.44 630.51 568.72 629.27 569.24 628.67 568.55 628.08 565.35 Z M 628.26 575.23 630.65 575.36 628.81 576.34 628.26 575.23 Z M 627.39 563.84 628.4 563.15 630 562.86 630 563.71 627.39 563.84 Z M 626.88 579.68 627.64 579.32 629.09 580.78 627.58 581.88 626.88 579.68 Z M 620.41 582.89 621.61 580.76 622.85 581.19 622.66 582.47 623.63 582.99 623.85 584.96 624.59 585.12 625.23 587.09 622.25 587.28 621.56 586.59 620.32 583.91 620.41 582.89 Z M 576.36 598.59 577 598.4 578.29 600.17 576.45 599.78 576.36 598.59 Z M 569.71 588.36 572.05 588.13 573.65 589.87 573.01 590.46 571.68 590.43 570.85 588.86 569.71 588.36 Z M 568.97 584.79 569.48 583.19 570.4 582.04 572.28 582.96 570.53 586.43 569.34 586.79 568.79 586.13 568.97 584.79 Z M 567.6 594.23 567.86 593.17 568.65 592.95 570.26 591.12 571.41 590.79 572.05 591.97 572.14 594.2 570.53 595.71 569.26 596.19 567.6 594.23 Z M 565.44 578.76 567.69 579.88 567.09 580.47 565.44 578.76 Z M 559.7 578.47 562.82 578.73 563.15 579.42 559.7 578.47 Z M 557.09 622.07 558.23 621.38 559.02 621.81 559.12 622.79 557.98 623.24 557.09 622.07 Z M 549.87 620.13 550.39 618.98 550.11 617.82 551.88 617.53 553.53 617.98 554.45 619.22 551.72 619.5 549.87 620.13 Z M 548.33 635.01 550.21 635.23 549 636.07 548.33 635.01 Z M 547.55 639 548.77 639.66 549.36 641.37 548.16 641.15 547.55 639 Z M 544.24 615.7 547.13 615.76 548.46 615.47 548.37 616.78 545.57 616.75 544.24 615.7 Z M 543.35 619 544.88 619.25 545.79 618.59 548 619.21 548.23 620.3 549.45 622.41 548.34 623.48 546.12 623.16 544.91 623.76 543.41 623.16 542.94 622.45 543.35 619 Z M 537.68 614.15 539.74 615.14 537.91 615.47 537.68 614.15 Z M 530.29 631.55 531.76 630.3 531.39 629.05 532.03 628.65 533.55 628.88 534.37 629.6 534.39 630.51 533.15 631.46 531.44 632.2 530.29 631.55 Z M 529.74 584.69 531.3 584.82 531.8 585.41 530.43 586.2 529.74 584.69 Z M 528.04 634.14 529.14 632.96 530.98 633.29 531.76 634.8 530.8 636.05 528.64 636.22 528.04 634.14 Z M 523.91 646.49 525.19 645.63 526.69 645.59 527.2 644.79 528.75 644.14 529.29 645.13 531.06 646.11 530.26 647.43 532.59 647.85 531.3 649.35 529.08 648.74 527.43 648.86 526.72 648.51 525.23 649.96 525.29 648.26 524.04 647.54 523.91 646.49 Z M 523.81 632.76 526.03 630.8 528.02 630.42 528.87 631.22 526.44 633.36 524.88 634.14 523.25 633.32 523.81 632.76 Z M 520.29 589.84 521.25 589.15 522.21 590.49 520.98 591.08 520.29 589.84 Z M 508.32 608.74 509.46 608.37 510.01 610.61 509.73 611.49 508.4 611.07 508.82 609.93 508.32 608.74 Z M 508.19 602.47 509.27 600.89 509.5 599.95 511.18 599.12 512.33 597.56 514.18 597.12 516.34 599.97 514.32 601.97 513.54 603.25 513.73 605.42 513.04 606.34 511.34 606.93 510.34 606.21 511.02 603.94 509.5 604.11 508.55 603.47 508.19 602.47 Z M 505.63 630.01 506.66 628.98 507.9 629.28 508.77 630 507.74 630.77 505.63 630.01 Z M 503.22 624.97 504.5 624.31 505.65 624.77 506.11 625.56 505.01 626.58 503.81 626.51 503.03 625.59 503.22 624.97 Z M 501.66 629.8 502.54 627.73 503.45 627.07 504.36 627.43 505.42 628.91 505.19 629.74 504.04 630.69 501.74 630.34 501.66 629.8 Z M 501.15 614.38 503.31 615.01 505.79 616.72 505.88 618.06 502.45 616.99 501.15 614.38 Z M 499.64 639.21 499.67 638.08 500.62 637.64 500.97 636.77 502.36 635.98 502.99 637.63 504.13 637.9 504.55 636.05 503.68 634.03 505.6 634.01 507.21 632.09 509.23 631.94 510.42 635.03 509.87 635.56 512.26 636.48 514.96 635.17 514.32 633.75 514.73 632.93 516.62 632.7 517.58 634.9 518.77 635.72 520.2 636.19 520.31 636.93 522.4 638.85 520.54 639.17 520.21 639.65 520.61 641.5 518.57 642.86 515.53 643.72 514.55 645.7 511.73 646.51 509.78 644.69 510 643.17 508.45 642.5 507.99 641.09 508.82 639.97 507.9 638.98 504.5 639.08 503.56 640.68 502.32 641.34 501.75 640.18 500.41 640.56 499.09 639.84 499.64 639.21 Z M 496.25 647.08 497.69 644.79 499.41 644.42 501.23 646.37 501.5 647.73 499.59 648.5 499.78 649.26 498.26 649.33 496.44 648.73 496.25 647.08 Z M 493.99 604.54 494.33 602.41 495.87 599.75 495.63 597.97 496.28 595.38 498.38 594.57 499.6 595.13 500.12 597.57 501.57 600.23 502.57 603.19 502.16 604.76 502.77 605.61 503.95 606.21 503.96 607.24 501.52 608.75 499.82 606.54 496.93 606.23 495.01 606.39 493.4 605.24 493.99 604.54 Z M 489.63 625 490.23 624.84 492.43 625.33 491.19 626.41 489.63 625 Z M 482.61 624.28 484.13 624.08 484.77 625.16 483.03 625.23 482.61 624.28 Z M 478.58 641.3 480.09 641.5 480.27 642.16 478.9 642.46 478.58 641.3 Z M 476.46 639.86 477.2 638.74 478.29 638.97 478.21 640.74 477.15 640.88 476.46 639.86 Z M 475.27 644.76 476.56 644.53 476.92 643.77 478.91 644.48 477.66 645.68 476.1 645.89 475.27 644.76 Z M 473.8 639.72 475.41 639.69 474.03 640.94 473.8 639.72 Z M 455.14 625.95 458.02 624.44 460.44 623.67 461.55 623.95 461.46 622.27 461.77 621.24 462.84 619.77 465.36 617.83 465.91 614.75 466.92 614.91 468.48 616.82 469.63 616.88 469.99 618.16 471.1 617.64 473.03 617.95 474.9 619.41 475.78 618.98 477.06 620.92 478.78 621.74 479.59 623.78 480.04 625.89 483.94 626.48 483.72 627.5 485.05 628.52 487.34 629.24 487.48 631.94 486.74 632.53 484.52 633.17 480.37 631.87 480.41 631.41 482.29 631.15 482.66 629.97 481.19 629.37 480.09 628.32 479.54 629.34 476.6 630.3 477.11 631.94 477.93 633.36 475.16 636.18 472.2 635.46 471.6 636.91 473.12 636.98 472.56 638.46 470.64 639.05 467.43 639.54 467.77 642.88 464.74 642.26 463.71 639.54 461.77 638.93 461.61 638.42 459.5 638.55 460.36 637.24 459.26 636.48 457.15 635.92 457.7 634.84 457.41 633.96 457.81 632.82 458.89 632.2 458.57 630.39 456.55 630.77 455.14 629.89 457.51 629.05 457.47 628.2 455.14 625.95 Z M 452.91 610.72 453.55 609.53 454.72 609.36 455.78 610.12 460.19 611.85 460.34 612.41 462.26 612.64 463.87 614.12 463.13 614.54 463.2 615.6 460.86 616.61 459.12 616.02 457.45 614.69 455.9 613.85 455.93 612.71 453.94 611.62 452.91 610.72 Z M 450.16 616.7 452.41 617.42 452.05 618.42 450.12 617.05 450.16 616.7 Z M 448.75 621.52 449.2 621.05 451.01 621.41 451.64 622.04 449.53 622.63 448.75 621.52 Z M 444.39 628.12 446.88 626.58 448.19 626.99 447.91 627.63 446.28 628.93 445.33 628.92 444.39 628.12 Z M 442.05 623.39 443.46 623.25 445.05 624.26 444.74 625.53 442.63 624.88 442.05 623.39 Z M 435.87 623.81 436.61 622.54 438.42 621.98 438.93 623.03 438.09 623.48 437.83 624.74 436.51 624.71 435.87 623.81 Z M 414.47 614.04 414.79 613.09 416.61 612.29 417.19 610.4 419.52 608.69 420.02 607.64 422.13 606.29 420.85 605.27 419.15 606.29 418.88 603.76 420.21 603.34 420.93 602.26 420.93 601.1 420.34 600.7 420.39 598.47 421.95 595.84 422.93 595.53 425.44 595.99 426.08 595.66 426.13 594.35 428.73 595.3 429.48 596.58 429.43 598.1 430.27 598.49 429.31 599.71 429.57 600.43 427.96 602.53 425.81 603.67 424.43 603.99 424.02 604.84 424.38 605.86 423.16 605.88 423.84 607.63 422.64 608 422.69 608.72 423.83 609.87 425.25 610.16 422.04 614.89 421.16 617.93 421.4 618.95 419.99 620.32 420.21 621.73 419.01 622.75 416.56 623.24 417.55 621.66 417.96 618.97 417.36 617.75 418.37 617.42 418.46 616.37 417.68 615.62 417.91 614.2 417.18 614.14 414.93 614.96 414.47 614.04 Z M 412.61 626.54 415.21 622.91 414.84 621.66 416.49 620.94 416.35 622.29 415.34 623.77 414.98 625.21 414.15 626.33 412.61 626.54 Z M 409.97 619.63 410.52 618.47 411.76 618.44 412.27 616.27 415.62 615.71 416.17 616.9 413.92 618.41 415.48 618.84 415.43 619.69 413.78 621.01 411.49 621.3 409.73 620.5 409.97 619.63 Z" fill-rule="evenodd" fill="none" stroke="currentColor" stroke-width="50.286"/>
</g>
</svg>