<svg viewBox="-71.53211628357482 -47.9078782 5.029739483574815 5.3783064" xmlns="http://www.w3.org/2000/svg">
  <path d="M -70.703792,43.060515 L -70.678226,43.068185 L -70.665958,43.076234 L -70.662973,43.088353 L -70.656223,43.093164 L -70.654376,43.100869 L -70.651288,43.10139 L -70.638355,43.114182 L -70.634452,43.120283 L -70.634455,43.127603 L -70.632067,43.133157 L -70.62251,43.134573 L -70.62233,43.142312 L -70.625953,43.147382 L -70.618973,43.163625 L -70.611105,43.168431 L -70.596185,43.163466 L -70.590423,43.166563 L -70.595331,43.171409 L -70.608783,43.1756 L -70.601664,43.183752 L -70.593809,43.189118 L -70.587814,43.199858 L -70.588037,43.208662 L -70.576692,43.217651 L -70.575787,43.221859 L -70.587867,43.236582 L -70.58858,43.243854 L -70.593907,43.249295 L -70.585184,43.270113 L -70.576873,43.281903 L -70.570991,43.284182 L -70.570966,43.290365 L -70.562779,43.310614 L -70.553854,43.321886 L -70.535244,43.336771 L -70.517695,43.344037 L -70.50304,43.344518 L -70.500491,43.34216 L -70.483763,43.347302 L -70.474323,43.347123 L -70.472494,43.342714 L -70.465795,43.340806 L -70.462615,43.344495 L -70.45119,43.346698 L -70.445676,43.353811 L -70.428534,43.354818 L -70.416311,43.361059 L -70.418461,43.372538 L -70.424421,43.379656 L -70.427672,43.389254 L -70.421282,43.395777 L -70.411439,43.398107 L -70.407556,43.400918 L -70.39996,43.400843 L -70.39786,43.394171 L -70.390951,43.401679 L -70.389306,43.405917 L -70.380949,43.411446 L -70.387027,43.414673 L -70.383224,43.418989 L -70.377045,43.420715 L -70.376638,43.427644 L -70.370514,43.434133 L -70.362015,43.439077 L -70.349684,43.442032 L -70.343813,43.440114 L -70.338778,43.443499 L -70.334783,43.45149 L -70.327303,43.458521 L -70.337262,43.457243 L -70.357549,43.457833 L -70.363497,43.452126 L -70.37223,43.45508 L -70.380233,43.46423 L -70.382928,43.469674 L -70.385615,43.487031 L -70.384885,43.49604 L -70.379123,43.507202 L -70.361214,43.52919 L -70.352826,43.535855 L -70.341793,43.540484 L -70.328796,43.540749 L -70.321826,43.538924 L -70.3181350658472,43.5347640742141 L -70.323329,43.529204 L -70.313109,43.526964 L -70.307405,43.529032 L -70.314154,43.535259 L -70.307764,43.544315 L -70.299184,43.550589 L -70.272497,43.562616 L -70.269881,43.557731 L -70.264167,43.553179 L -70.257768,43.55373 L -70.244331,43.551849 L -70.231963,43.561118 L -70.223376,43.564033 L -70.216782,43.556874 L -70.206123,43.557627 L -70.196911,43.565146 L -70.202913,43.574497 L -70.207781,43.578228 L -70.203068,43.586286 L -70.214849,43.590152 L -70.217486,43.597091 L -70.214466,43.602158 L -70.213491,43.609223 L -70.209956,43.613239 L -70.207491,43.623483 L -70.221365,43.632854 L -70.225167,43.650226 L -70.231592,43.651077 L -70.234912,43.655729 L -70.240987,43.659132 L -70.23824,43.665874 L -70.240379,43.670516 L -70.252961,43.67501 L -70.251408,43.685176 L -70.242548,43.693333 L -70.234621,43.685611 L -70.226118,43.688736 L -70.232536,43.692689 L -70.235625,43.698876 L -70.23199,43.704822 L -70.21471,43.697329 L -70.216832,43.704822 L -70.213759,43.712793 L -70.217998,43.71998 L -70.193794,43.741648 L -70.192605,43.748344 L -70.197593,43.753211 L -70.192368,43.765168 L -70.194269,43.768601 L -70.186901,43.773407 L -70.17544,43.777113 L -70.175492,43.772892 L -70.180484,43.761564 L -70.176023,43.76079 L -70.162182,43.770832 L -70.153275,43.775583 L -70.154159,43.780145 L -70.142191,43.789288 L -70.145151,43.794611 L -70.13622,43.795022 L -70.119515,43.801439 L -70.113381,43.800903 L -70.107041,43.80755 L -70.099197,43.809094 L -70.094332,43.815956 L -70.080683,43.819852 L -70.080548,43.827601 L -70.073275,43.824103 L -70.063633,43.825629 L -70.068588,43.811362 L -70.057841,43.816983 L -70.054088,43.821939 L -70.058384,43.824682 L -70.053563,43.830187 L -70.044055,43.834988 L -70.041916,43.841674 L -70.032023,43.849988 L -70.019197,43.858733 L -70.010067,43.8583 L -70.001273,43.86447 L -69.994618,43.86704 L -69.988438,43.866355 L -69.995569,43.85213 L -70.002874,43.848239 L -70.008166,43.840817 L -70.02314,43.83053 L -70.026193,43.822587 L -70.017198,43.82693 L -70.014108,43.83053 L -70.002699,43.83636 L -69.99652,43.841331 L -69.992717,43.84836 L -69.978739,43.853845 L -69.972848,43.852879 L -69.960141,43.856054 L -69.959263,43.859107 L -69.947206,43.864473 L -69.94504,43.859959 L -69.951809,43.856677 L -69.954123,43.847693 L -69.95904,43.846577 L -69.964332,43.838741 L -69.97703,43.827444 L -69.976079,43.819041 L -69.981308,43.812181 L -69.988201,43.812524 L -69.993667,43.809094 L -70.000478,43.796254 L -70.00059,43.791465 L -70.004247,43.786573 L -70.013905,43.782242 L -70.016627,43.778667 L -70.019277,43.767353 L -70.028852,43.763779 L -70.035261,43.755212 L -70.043342,43.748001 L -70.035974,43.743193 L -70.021001,43.746456 L -70.026467,43.72894 L -70.014821,43.739072 L -70.011493,43.743365 L -70.001748,43.746456 L -69.994618,43.743537 L -69.998901,43.735538 L -69.996249,43.729944 L -70.007206,43.717629 L -70.006264,43.710216 L -69.998659,43.711418 L -70.000105,43.715291 L -69.992615,43.724793 L -69.994479,43.728451 L -69.983685,43.744395 L -69.979882,43.753838 L -69.972304,43.753466 L -69.956255,43.772367 L -69.951028,43.772356 L -69.949547,43.767488 L -69.943459,43.765216 L -69.931871,43.783703 L -69.925216,43.781816 L -69.920859,43.777447 L -69.910242,43.777697 L -69.901804,43.771615 L -69.884066,43.778035 L -69.873401,43.778384 L -69.871738,43.773922 L -69.873058,43.766429 L -69.864701,43.764572 L -69.861517,43.759332 L -69.868913,43.753178 L -69.868673,43.742701 L -69.871116,43.731644 L -69.864845,43.735122 L -69.862706,43.743022 L -69.854625,43.744567 L -69.848683,43.742163 L -69.855595,43.73266 L -69.857927,43.723915 L -69.8551,43.718634 L -69.850347,43.717775 L -69.855081,43.704746 L -69.846617,43.706347 L -69.839704,43.705061 L -69.836799,43.699735 L -69.828955,43.70678 L -69.833471,43.717775 L -69.826579,43.722584 L -69.813031,43.727394 L -69.805663,43.726363 L -69.803048,43.729111 L -69.790309,43.732596 L -69.793541,43.735638 L -69.789976,43.739416 L -69.77833,43.742506 L -69.778633,43.73689 L -69.770724,43.737183 L -69.76597,43.745769 L -69.754091,43.743866 L -69.745872,43.761852 L -69.741014,43.769288 L -69.732933,43.772892 L -69.721559,43.782 L -69.717074,43.792403 L -69.717804,43.801047 L -69.714873,43.810264 L -69.705837,43.820413 L -69.704411,43.826758 L -69.70655,43.83516 L -69.701797,43.850759 L -69.70501,43.86275 L -69.704887,43.869096 L -69.698877,43.875946 L -69.696092,43.887428 L -69.695855,43.894965 L -69.692765,43.900103 L -69.691576,43.917226 L -69.684684,43.923903 L -69.677078,43.926984 L -69.671374,43.923561 L -69.6728,43.918938 L -69.678504,43.912774 L -69.685115,43.897015 L -69.687298,43.885372 L -69.684684,43.876121 L -69.687485,43.867701 L -69.685408,43.859865 L -69.680196,43.85645 L -69.68234,43.839898 L -69.686229,43.835229 L -69.687061,43.828301 L -69.690388,43.825386 L -69.685579,43.820546 L -69.685872,43.810123 L -69.668668,43.801399 L -69.6683,43.795192 L -69.661376,43.783385 L -69.655611,43.781039 L -69.652247,43.784311 L -69.653337,43.79103 L -69.65022,43.810981 L -69.65315,43.817194 L -69.645704,43.819384 L -69.649798,43.836287 L -69.641426,43.839103 L -69.638812,43.847845 L -69.627165,43.848874 L -69.625026,43.846131 L -69.630968,43.840131 L -69.629067,43.833102 L -69.623362,43.827272 L -69.616707,43.828987 L -69.613069,43.837453 L -69.617658,43.845274 L -69.606962,43.847674 L -69.604616,43.858004 L -69.594705,43.858878 L -69.591276,43.851959 L -69.594365,43.835845 L -69.592373,43.830895 L -69.598495,43.825502 L -69.604616,43.825793 L -69.605928,43.814862 L -69.592916,43.811382 L -69.585975,43.818451 L -69.579602,43.821571 L -69.578916,43.828816 L -69.575466,43.841972 L -69.568325,43.844449 L -69.558122,43.84066 L -69.555805,43.832688 L -69.551703,43.834628 L -69.545028,43.861241 L -69.550616,43.872579 L -69.54945,43.880012 L -69.543912,43.881615 L -69.536372,43.877321 L -69.525438,43.877149 L -69.525438,43.872181 L -69.519259,43.871153 L -69.521635,43.8607 L -69.517623,43.85704 L -69.513267,43.84479 L -69.516212,43.837222 L -69.509038,43.836017 L -69.50329,43.837673 L -69.486243,43.869118 L -69.482186,43.87861 L -69.475526,43.884002 L -69.462453,43.898047 L -69.459637,43.903316 L -69.45556,43.924759 L -69.450332,43.936227 L -69.45107,43.941955 L -69.447479,43.947352 L -69.441596,43.964254 L -69.442963,43.967541 L -69.437734,43.975751 L -69.426801,43.978317 L -69.427277,43.973015 L -69.431686,43.964546 L -69.430604,43.958302 L -69.423236,43.961553 L -69.416165,43.977267 L -69.406123,43.985842 L -69.399468,43.982422 L -69.398325,43.970694 L -69.394239,43.969422 L -69.384019,43.974212 L -69.384257,43.978488 L -69.379978,43.98721 L -69.379028,43.995418 L -69.366431,43.995247 L -69.36239,43.993879 L -69.371184,43.977462 L -69.368807,43.966343 L -69.366702,43.964755 L -69.354071,43.97233 L -69.35621,43.977291 L -69.350506,43.983448 L -69.3429,43.979685 L -69.34599,43.972501 L -69.341237,43.969251 L -69.335762,43.974404 L -69.330066,43.971817 L -69.346465,43.963093 L -69.351219,43.952998 L -69.357399,43.949918 L -69.364633,43.943472 L -69.361439,43.938281 L -69.374274,43.928354 L -69.375225,43.924588 L -69.365728,43.924876 L -69.360251,43.931606 L -69.354547,43.930237 L -69.349318,43.937426 L -69.345356,43.947235 L -69.340286,43.949747 L -69.336483,43.945983 L -69.327689,43.945811 L -69.322222,43.951116 L -69.323411,43.955052 L -69.330303,43.958645 L -69.333868,43.965659 L -69.325334,43.970941 L -69.31319,43.964633 L -69.304301,43.962068 L -69.305176,43.956676 L -69.312953,43.951458 L -69.319751,43.94487 L -69.317469,43.940506 L -69.307776,43.943451 L -69.294651,43.951629 L -69.288513,43.957665 L -69.280498,43.95744 L -69.276469,43.948378 L -69.267515,43.943667 L -69.273141,43.936399 L -69.274544,43.927897 L -69.279796,43.922362 L -69.279321,43.915685 L -69.273949,43.914215 L -69.261119,43.917388 L -69.24271,43.925465 L -69.244276,43.930399 L -69.229884,43.931606 L -69.22204,43.93366 L -69.214866,43.930751 L -69.211474,43.936979 L -69.203668,43.941806 L -69.19461,43.951986 L -69.191842,43.957877 L -69.184724,43.959671 L -69.185077,43.967736 L -69.182823,43.974896 L -69.17498,43.976949 L -69.17725,43.985575 L -69.170327,43.990844 L -69.168087,43.995418 L -69.162559,43.999003 L -69.160693,43.989168 L -69.153588,43.992169 L -69.149072,43.991656 L -69.149103,43.985845 L -69.144081,43.979514 L -69.131536,43.976089 L -69.123502,43.979015 L -69.126968,43.982764 L -69.141942,43.986526 L -69.141704,43.990117 L -69.135287,43.996957 L -69.136,44.000547 L -69.127444,44.002428 L -69.125878,43.995992 L -69.113183,43.994563 L -69.110093,44.000376 L -69.121026,44.003454 L -69.128052,44.017309 L -69.115322,44.02482 L -69.113113,44.028881 L -69.098209,44.035073 L -69.094177,44.038981 L -69.077056,44.04225 L -69.073767,44.046135 L -69.079805,44.055256 L -69.076627,44.05915 L -69.069687,44.058478 L -69.070566,44.064814 L -69.064299,44.069911 L -69.059705,44.069238 L -69.053288,44.077264 L -69.052099,44.085288 L -69.047108,44.086142 L -69.043403,44.092164 L -69.056303,44.095162 L -69.064016,44.091688 L -69.076452,44.090634 L -69.089078,44.085326 L -69.098209,44.083069 L -69.107241,44.090581 L -69.101107,44.093601 L -69.105577,44.101676 L -69.100863,44.104529 L -69.104389,44.11055 L -69.100823,44.116864 L -69.092505,44.118229 L -69.085865,44.114137 L -69.081905,44.115495 L -69.076342,44.124884 L -69.075867,44.134608 L -69.09298,44.13529 L -69.082284,44.139213 L -69.078133,44.150812 L -69.080978,44.156768 L -69.073253,44.175875 L -69.072064,44.184397 L -69.062557,44.172465 L -69.06124,44.165498 L -69.054546,44.171542 L -69.057081,44.182945 L -69.05181,44.19592 L -69.054714,44.203313 L -69.05923,44.207913 L -69.054714,44.211491 L -69.046443,44.212057 L -69.042807,44.215173 L -69.043599,44.225029 L -69.040193,44.233673 L -69.031531,44.242483 L -69.028368,44.249007 L -69.017051,44.257086 L -69.005071,44.274071 L -69.007178,44.282489 L -69.001103,44.290654 L -69.003682,44.294582 L -68.995059,44.297568 L -68.982697,44.298141 L -68.980195,44.29483 L -68.963443,44.308317 L -68.958889,44.314353 L -68.954465,44.32405 L -68.949883,44.339993 L -68.948164,44.355882 L -68.955639,44.368531 L -68.9673,44.381106 L -68.978815,44.38634 L -68.982697,44.386023 L -68.987688,44.393496 L -68.981508,44.398761 L -68.994473,44.422215 L -68.998384,44.425586 L -68.992442,44.428641 L -68.986975,44.425586 L -68.972239,44.425586 L -68.966509,44.427836 L -68.950135,44.430508 L -68.943733,44.428367 L -68.93874,44.434238 L -68.931934,44.43869 L -68.927675,44.445392 L -68.926842,44.451211 L -68.921613,44.45664 L -68.907724,44.451032 L -68.897104,44.450643 L -68.892073,44.445075 L -68.890826,44.437995 L -68.884297,44.428132 L -68.875153,44.429898 L -68.858993,44.444923 L -68.843189,44.451636 L -68.831295,44.457998 L -68.829153,44.462242 L -68.821631,44.465077 L -68.811092,44.46614 L -68.812993,44.47055 L -68.825353,44.468176 L -68.826303,44.471568 L -68.835098,44.481404 L -68.834622,44.484965 L -68.827729,44.490561 L -68.814419,44.496664 L -68.809903,44.495986 L -68.805388,44.505141 L -68.808715,44.509039 L -68.805863,44.524292 L -68.797306,44.525817 L -68.794217,44.520056 L -68.78566,44.51209 L -68.777817,44.494799 L -68.777817,44.484965 L -68.783679,44.473879 L -68.786849,44.463426 L -68.782808,44.455114 L -68.783283,44.447139 L -68.791237,44.453178 L -68.799514,44.448921 L -68.801634,44.434803 L -68.812013,44.430342 L -68.817034,44.425416 L -68.821827,44.407081 L -68.818222,44.401987 L -68.811805,44.39927 L -68.812993,44.395704 L -68.821275,44.39367 L -68.819886,44.381437 L -68.810617,44.381097 L -68.809666,44.373962 L -68.815913,44.366371 L -68.814811,44.362194 L -68.817647,44.353093 L -68.82155,44.352042 L -68.821374,44.345524 L -68.825419,44.334547 L -68.819648,44.326713 L -68.82763,44.321094 L -68.827197,44.31216 L -68.811146,44.309302 L -68.795063,44.30786 L -68.790849,44.310124 L -68.787799,44.318211 L -68.773975,44.318832 L -68.762021,44.329597 L -68.750721,44.329433 L -68.739313,44.333174 L -68.733371,44.330794 L -68.733371,44.326968 L -68.725657,44.321591 L -68.697006,44.308772 L -68.697719,44.30486 L -68.6894,44.296695 L -68.684568,44.296331 L -68.679464,44.303104 L -68.671099,44.295334 L -68.666078,44.293288 L -68.655239,44.292476 L -68.649682,44.289605 L -68.643614,44.289733 L -68.632292,44.286417 L -68.629995,44.288125 L -68.631148,44.29577 L -68.62425,44.302107 L -68.619023,44.293594 L -68.625726,44.286542 L -68.624572,44.279183 L -68.613953,44.275225 L -68.603385,44.27471 L -68.589099,44.263684 L -68.585772,44.259599 L -68.577215,44.254151 L -68.557488,44.245979 L -68.548693,44.243595 L -68.552021,44.236444 L -68.534595,44.229331 L -68.522786,44.228099 L -68.522549,44.236955 L -68.528153,44.241263 L -68.529802,44.249594 L -68.533007,44.254321 L -68.542514,44.258407 L -68.553209,44.258918 L -68.556537,44.267769 L -68.555349,44.273896 L -68.539186,44.262322 L -68.53063,44.262492 L -68.525876,44.259599 L -68.519221,44.259088 L -68.518984,44.265216 L -68.528611,44.276117 L -68.528728,44.281553 L -68.532266,44.28634 L -68.530867,44.300438 L -68.538595,44.299902 L -68.536334,44.291251 L -68.55012,44.291932 L -68.551216,44.297642 L -68.564005,44.308022 L -68.566936,44.317603 L -68.562717,44.326118 L -68.563209,44.333039 L -68.554798,44.341134 L -68.553873,44.346256 L -68.545434,44.355 L -68.550051,44.371788 L -68.559285,44.374307 L -68.558438,44.379483 L -68.564741,44.385219 L -68.56642,44.394453 L -68.560964,44.402847 L -68.555088,44.403687 L -68.534522,44.397811 L -68.527778,44.398506 L -68.521038,44.408092 L -68.51452,44.41334 L -68.505562,44.411661 L -68.499686,44.414179 L -68.495216,44.423464 L -68.493552,44.432121 L -68.48928,44.432394 L -68.486897,44.445018 L -68.479766,44.45418 L -68.4743,44.451127 L -68.476677,44.445018 L -68.475963,44.431102 L -68.480479,44.430593 L -68.472824,44.404106 L -68.479529,44.399695 L -68.483317,44.388157 L -68.478708,44.37894 L -68.462152,44.379396 L -68.4619,44.386279 L -68.464262,44.391081 L -68.464106,44.398078 L -68.457662,44.407676 L -68.458375,44.420069 L -68.465506,44.433818 L -68.47121,44.440267 L -68.462416,44.443321 L -68.458375,44.447054 L -68.458375,44.453841 L -68.468358,44.46843 L -68.468833,44.481828 L -68.473111,44.486746 L -68.466932,44.490307 L -68.45592,44.486828 L -68.437222,44.482676 L -68.437222,44.490137 L -68.429378,44.497936 L -68.425338,44.498275 L -68.424625,44.484541 L -68.425575,44.478606 L -68.421772,44.470805 L -68.427952,44.470296 L -68.430329,44.456725 L -68.427001,44.441455 L -68.431396,44.431597 L -68.433894,44.413958 L -68.429462,44.409386 L -68.433901,44.401534 L -68.430804,44.396978 L -68.421783,44.396411 L -68.413216,44.399525 L -68.409175,44.406487 L -68.403778,44.408618 L -68.392559,44.41807 L -68.390932,44.427387 L -68.392776,44.435345 L -68.383031,44.432969 L -68.375663,44.424143 L -68.368532,44.420578 L -68.362115,44.405468 L -68.354271,44.400544 L -68.356411,44.392222 L -68.36372,44.388935 L -68.368295,44.393581 L -68.377089,44.390864 L -68.377326,44.382201 L -68.389032,44.380481 L -68.398035,44.376191 L -68.395516,44.369561 L -68.396552,44.363941 L -68.406089,44.356679 L -68.409867,44.356259 L -68.417166,44.344619 L -68.417019,44.339719 L -68.421619,44.336113 L -68.416865,44.333396 L -68.413929,44.339039 L -68.407036,44.337169 L -68.411965,44.322262 L -68.430853,44.312609 L -68.430946,44.298624 L -68.426107,44.295102 L -68.427477,44.28938 L -68.423674,44.283935 L -68.415831,44.285977 L -68.408225,44.281553 L -68.412978,44.274406 L -68.41965,44.274612 L -68.41087,44.265259 L -68.404445,44.26096 L -68.407274,44.256705 L -68.404544,44.253869 L -68.394677,44.250065 L -68.389595,44.245168 L -68.377982,44.247563 L -68.369759,44.243311 L -68.365364,44.237871 L -68.369483,44.232016 L -68.364558,44.226369 L -68.360671,44.227531 L -68.359976,44.2344 L -68.351657,44.237125 L -68.343132,44.229505 L -68.339498,44.222893 L -68.333831,44.221286 L -68.330182,44.224596 L -68.317588,44.225101 L -68.310592,44.228164 L -68.307686,44.235933 L -68.301031,44.236444 L -68.297704,44.242574 L -68.291049,44.246149 L -68.295265,44.261722 L -68.302933,44.269471 L -68.313628,44.270322 L -68.309588,44.27781 L -68.320046,44.288019 L -68.317193,44.294314 L -68.309112,44.297206 L -68.300556,44.294314 L -68.294614,44.286658 L -68.280237,44.28645 L -68.28222,44.294318 L -68.286259,44.296424 L -68.281303,44.302169 L -68.276703,44.291072 L -68.259437,44.288019 L -68.253495,44.292612 L -68.248261,44.288317 L -68.242562,44.295505 L -68.239234,44.295845 L -68.235907,44.28904 L -68.230916,44.287849 L -68.224261,44.290231 L -68.218081,44.298737 L -68.214745,44.296001 L -68.202394,44.301118 L -68.20073,44.305541 L -68.188931,44.307315 L -68.189559,44.317786 L -68.182667,44.328668 L -68.177304,44.325448 L -68.175536,44.332069 L -68.174496,44.345181 L -68.179577,44.349407 L -68.182667,44.356885 L -68.181983,44.362534 L -68.184532,44.369145 L -68.189155,44.373833 L -68.196937,44.386352 L -68.20354,44.392365 L -68.21554,44.390466 L -68.216893,44.393751 L -68.225449,44.398506 L -68.239472,44.409373 L -68.249956,44.414809 L -68.243037,44.420069 L -68.2445,44.429919 L -68.247438,44.433276 L -68.268469,44.439758 L -68.283918,44.433478 L -68.294266,44.433028 L -68.299063,44.437893 L -68.311964,44.444339 L -68.318857,44.444339 L -68.332167,44.435006 L -68.332405,44.426689 L -68.337872,44.421936 L -68.347379,44.422276 L -68.349518,44.428217 L -68.358787,44.42652 L -68.367344,44.431102 L -68.361877,44.439758 L -68.354509,44.444 L -68.353796,44.45418 L -68.350706,44.457574 L -68.344051,44.452484 L -68.329315,44.449769 L -68.329077,44.454011 L -68.323135,44.462323 L -68.309588,44.457404 L -68.298179,44.449769 L -68.280572,44.451573 L -68.27655,44.455877 L -68.269895,44.457574 L -68.279165,44.462154 L -68.283918,44.458931 L -68.294138,44.471653 L -68.292475,44.474536 L -68.284869,44.473688 L -68.281541,44.470805 L -68.274649,44.47267 L -68.268004,44.47147 L -68.262765,44.479793 L -68.264429,44.487254 L -68.260863,44.488102 L -68.25302,44.483863 L -68.243275,44.47267 L -68.22939,44.463496 L -68.223785,44.465546 L -68.229965,44.479115 L -68.223934,44.487 L -68.2264,44.493358 L -68.218556,44.493358 L -68.218319,44.499631 L -68.212377,44.513192 L -68.211426,44.52014 L -68.201681,44.519971 L -68.198829,44.512683 L -68.20182,44.50999 L -68.196927,44.493358 L -68.19279,44.488716 L -68.18742,44.487763 L -68.186817,44.482244 L -68.180528,44.475045 L -68.189559,44.475384 L -68.194554,44.47189 L -68.17105,44.470211 L -68.161513,44.473518 L -68.167931,44.486407 L -68.1608,44.495732 L -68.161751,44.501157 L -68.151055,44.498105 L -68.141548,44.492002 L -68.139409,44.487933 L -68.139387,44.47847 L -68.131803,44.475893 L -68.121345,44.478945 L -68.115228,44.467903 L -68.116116,44.461645 L -68.119425,44.459508 L -68.119845,44.445658 L -68.116116,44.426859 L -68.109699,44.416844 L -68.113502,44.409034 L -68.11229,44.401588 L -68.099954,44.391883 L -68.104232,44.388316 L -68.10138,44.379653 L -68.092983,44.370949 L -68.08807,44.371838 L -68.087832,44.376765 L -68.09425,44.387297 L -68.084267,44.386278 L -68.077612,44.388486 L -68.07476,44.376085 L -68.077873,44.373047 L -68.076066,44.347925 L -68.067047,44.335692 L -68.060356,44.331988 L -68.053607,44.337679 L -68.049334,44.33073 L -68.044812,44.334619 L -68.043037,44.343667 L -68.045763,44.349577 L -68.045763,44.357905 L -68.03483,44.363003 L -68.025457,44.356608 L -68.024847,44.362663 L -68.027937,44.367591 L -68.025606,44.375899 L -68.014152,44.385938 L -68.01399,44.390255 L -68.019618,44.398846 L -68.018192,44.4036 L -68.011537,44.403261 L -68.010349,44.412939 L -68.003932,44.410902 L -67.994376,44.395934 L -67.983729,44.384409 L -67.979213,44.384579 L -67.976361,44.391203 L -67.970419,44.395449 L -67.958772,44.398846 L -67.964001,44.409543 L -67.971607,44.410902 L -67.969943,44.419051 L -67.973984,44.420918 L -67.976123,44.428896 L -67.982065,44.441115 L -67.997277,44.448242 L -67.998227,44.451636 L -68.014627,44.454011 L -68.017717,44.458931 L -68.024847,44.462323 L -68.027462,44.476062 L -68.021044,44.478606 L -68.012488,44.475893 L -68.012963,44.468939 L -68.00512,44.463681 L -68.001792,44.465716 L -67.992761,44.460797 L -67.983016,44.473688 L -67.970419,44.470805 L -67.958772,44.454011 L -67.959723,44.447224 L -67.954604,44.428524 L -67.947512,44.417201 L -67.937706,44.410445 L -67.931868,44.412151 L -67.932806,44.422948 L -67.928695,44.435167 L -67.930525,44.442347 L -67.935892,44.448898 L -67.925309,44.449232 L -67.924309,44.463511 L -67.916941,44.461306 L -67.909573,44.452145 L -67.914089,44.432969 L -67.911712,44.429405 L -67.912425,44.417353 L -67.909573,44.415995 L -67.900589,44.395545 L -67.895527,44.4041 L -67.889662,44.408485 L -67.893413,44.412442 L -67.888002,44.423948 L -67.888419,44.433139 L -67.885805,44.439079 L -67.888419,44.442133 L -67.88224,44.452484 L -67.877248,44.454859 L -67.881764,44.458591 L -67.885805,44.466734 L -67.885805,44.471822 L -67.891509,44.48098 L -67.881764,44.484372 L -67.878199,44.480811 L -67.873921,44.470974 L -67.861324,44.473518 L -67.851648,44.484901 L -67.849677,44.495732 L -67.85253,44.497597 L -67.852054,44.50709 L -67.855133,44.509972 L -67.858472,44.519293 L -67.865127,44.523021 L -67.851103,44.528782 L -67.851341,44.535899 L -67.842072,44.54403 L -67.84635,44.554193 L -67.850866,44.55758 L -67.847776,44.563 L -67.839695,44.56283 L -67.829237,44.559105 L -67.828999,44.554532 L -67.820205,44.54962 L -67.822582,44.543522 L -67.818066,44.541489 L -67.804518,44.542675 L -67.804518,44.530646 L -67.802541,44.523934 L -67.793585,44.519123 L -67.787405,44.519293 L -67.782363,44.51497 L -67.776472,44.514209 L -67.7798,44.522682 L -67.780513,44.536915 L -67.775046,44.543183 L -67.774001,44.547438 L -67.758884,44.548942 L -67.754843,44.54691 L -67.751753,44.538948 L -67.744385,44.531155 L -67.742009,44.516765 L -67.743353,44.497418 L -67.733986,44.496252 L -67.722876,44.498524 L -67.713077,44.493553 L -67.70493,44.499801 L -67.706095,44.5025 L -67.698038,44.509463 L -67.698513,44.524716 L -67.702649,44.527922 L -67.696354,44.533798 L -67.681876,44.538101 L -67.676884,44.535051 L -67.673081,44.539456 L -67.656444,44.537084 L -67.653123,44.525823 L -67.638875,44.526816 L -67.615582,44.527324 L -67.606312,44.529866 L -67.598707,44.529527 L -67.594428,44.532238 L -67.578266,44.529866 L -67.564718,44.532068 L -67.565057,44.535425 L -67.559965,44.539862 L -67.565485,44.551419 L -67.575056,44.560659 L -67.570185,44.567638 L -67.568932,44.576599 L -67.564481,44.580506 L -67.562342,44.589647 L -67.556162,44.599294 L -67.561391,44.609278 L -67.559014,44.614354 L -67.552834,44.611478 L -67.552392,44.619629 L -67.543368,44.626554 L -67.530777,44.621938 L -67.524061,44.626554 L -67.522802,44.63306 L -67.505804,44.636837 L -67.497693,44.632962 L -67.493632,44.628863 L -67.492373,44.61795 L -67.49698,44.614862 L -67.491038,44.607248 L -67.480918,44.611055 L -67.474876,44.607417 L -67.465606,44.60674 L -67.467001,44.603343 L -67.459902,44.600986 L -67.448513,44.600322 L -67.445403,44.605894 L -67.436847,44.604879 L -67.432569,44.606909 L -67.429716,44.613339 L -67.43756,44.619599 L -67.437797,44.626027 L -67.446354,44.627381 L -67.448968,44.635499 L -67.438035,44.641588 L -67.432093,44.63736 L -67.42734,44.64108 L -67.419972,44.632286 L -67.429003,44.629072 L -67.420685,44.618415 L -67.420602,44.607877 L -67.418923,44.60347 L -67.408824,44.594581 L -67.405492,44.594236 L -67.396679,44.60454 L -67.395839,44.612914 L -67.389073,44.614523 L -67.389549,44.623151 L -67.386605,44.626974 L -67.377554,44.619757 L -67.368269,44.624672 L -67.363158,44.631825 L -67.361978,44.640235 L -67.368395,44.655791 L -67.374014,44.662965 L -67.37905,44.665483 L -67.387172,44.665428 L -67.389073,44.672696 L -67.380541,44.673677 L -67.379804,44.678781 L -67.389549,44.676922 L -67.390262,44.680133 L -67.400006,44.679119 L -67.404998,44.681654 L -67.394777,44.686385 L -67.396441,44.693313 L -67.389073,44.695848 L -67.383369,44.68892 L -67.372673,44.691624 L -67.366494,44.686892 L -67.360314,44.68723 L -67.365107,44.693551 L -67.359126,44.699564 L -67.3413,44.699058 L -67.332268,44.700071 L -67.32942,44.702956 L -67.308538,44.707454 L -67.299176,44.705705 L -67.300144,44.696752 L -67.307909,44.691295 L -67.304697,44.679288 L -67.308844,44.673876 L -67.308024,44.661371 L -67.320146,44.663568 L -67.322687,44.660026 L -67.309627,44.659316 L -67.298449,44.654377 L -67.30046,44.650164 L -67.292462,44.648455 L -67.294952,44.637022 L -67.291149,44.630763 L -67.286633,44.629918 L -67.287346,44.623997 L -67.275141,44.623433 L -67.274122,44.626345 L -67.265242,44.630763 L -67.257874,44.627042 L -67.254309,44.630594 L -67.261677,44.63922 L -67.26952,44.640066 L -67.270471,44.645815 L -67.267856,44.65055 L -67.272848,44.664075 L -67.264767,44.66678 L -67.246703,44.669147 L -67.240761,44.665766 L -67.246465,44.651395 L -67.245138,44.640935 L -67.234275,44.637201 L -67.213025,44.63922 L -67.189427,44.645533 L -67.192068,44.655515 L -67.186612,44.66265 L -67.181785,44.663699 L -67.169857,44.662105 L -67.154479,44.668114 L -67.155119,44.66944 L -67.148061,44.684114 L -67.139209,44.693849 L -67.128792,44.695421 L -67.123087,44.701597 L -67.118755,44.702215 L -67.117643,44.711896 L -67.10939,44.711436 L -67.104352,44.716848 L -67.101565,44.727897 L -67.098629,44.733681 L -67.104095,44.739928 L -67.092542,44.742693 L -67.083477,44.739899 L -67.073439,44.741957 L -67.070345,44.751407 L -67.064378,44.751932 L -67.061075,44.759677 L -67.062026,44.765415 L -67.068919,44.768959 L -67.056559,44.771659 L -67.050617,44.769971 L -67.048003,44.761196 L -67.04335,44.765071 L -67.02615,44.768199 L -67.024472,44.773683 L -67.012116,44.778282 L -67.009499,44.787349 L -66.997549,44.788659 L -66.989351,44.79878 L -66.97626,44.808315 L -66.970026,44.805713 L -66.961068,44.807269 L -66.950569,44.814539 L -66.952112,44.82007 L -66.966468,44.819063 L -66.982403,44.811466 L -66.98882,44.824954 L -66.990009,44.831022 L -66.988583,44.837259 L -66.996523,44.844654 L -66.99296,44.849181 L -66.980033,44.85597 L -66.983354,44.862703 L -66.987394,44.880389 L -66.990351,44.882551 L -66.994762,44.89184 L -66.984067,44.898238 L -66.983116,44.907666 L -66.984466,44.912557 L -66.990937,44.917835 L -67.003794,44.920795 L -67.004745,44.923151 L -67.01449,44.925843 L -67.010925,44.933079 L -67.014252,44.937117 L -67.033474,44.939923 L -67.032554,44.944351 L -67.038299,44.945433 L -67.039446,44.958649 L -67.043725,44.963863 L -67.058936,44.968739 L -67.049684,44.974285 L -67.05461,44.986764 L -67.068274,45.001014 L -67.072753,45.008329 L -67.074914,45.019254 L -67.082074,45.029608 L -67.088056,45.034821 L -67.106234,45.033107 L -67.096014,45.039322 L -67.099749,45.04501 L -67.117688,45.05673 L -67.108611,45.059472 L -67.105899,45.065786 L -67.09090714576546,45.06869747304825 L -67.094597,45.074793 L -67.11254316782468,45.112478156193994 L -67.128935,45.132168 L -67.145652,45.146667 L -67.15811088630221,45.16115743161622 L -67.16787,45.164595 L -67.190446,45.165658 L -67.203933,45.171407 L -67.227194,45.163462 L -67.23315624900646,45.168624106692555 L -67.242864,45.172553 L -67.24689535171845,45.180812013060454 L -67.255332,45.182921 L -67.262193,45.187913 L -67.26999624841892,45.19070771898349 L -67.283536,45.191823 L -67.290603,45.187589 L -67.2937137396236,45.17776313869347 L -67.29147,45.171041 L -67.299238,45.168937 L -67.30253498298954,45.161181576952096 L -67.30156214167035,45.15705394281547 L -67.294199,45.153618 L -67.298209,45.146672 L -67.309418,45.14374 L -67.319925,45.142419 L -67.317564,45.138113 L -67.32106,45.131327 L -67.329829,45.131654 L -67.339869,45.125594 L -67.3534,45.129183 L -67.3568461415197,45.133222247491254 L -67.370057,45.141597 L -67.38012382979502,45.15172602599245 L -67.39259,45.154294 L -67.40457135441311,45.1599021540106 L -67.404658,45.166944 L -67.399128,45.168861 L -67.400338,45.177376 L -67.406509,45.17883 L -67.418159,45.189947 L -67.429103,45.193338 L -67.427848,45.201738 L -67.437177,45.219662 L -67.43998,45.227047 L -67.447295,45.23301 L -67.4537360957884,45.241158082882585 L -67.46357,45.244097 L -67.472968,45.258434 L -67.47658822285491,45.27492604071984 L -67.482106,45.275294 L -67.483985,45.279541 L -67.489464,45.282653 L -67.486524,45.290633 L -67.474716,45.291633 L -67.466091,45.29416 L -67.467889,45.299017 L -67.460554,45.300379 L -67.457789,45.30966 L -67.453336,45.314256 L -67.45226793607739,45.31944971984867 L -67.45697,45.325159 L -67.453469,45.328246 L -67.44537980614795,45.33024722946338 L -67.442029,45.334601 L -67.428872,45.344228 L -67.431518,45.349688 L -67.42595887339775,45.357672081065466 L -67.433605,45.360797 L -67.434535,45.364896 L -67.431232,45.370787 L -67.419286,45.377122 L -67.426178,45.385201 L -67.42690143114426,45.38982817689575 L -67.44717878518905,45.40698997074262 L -67.458772,45.415264 L -67.46183876793154,45.422271133620676 L -67.473883,45.424739 L -67.480332,45.440856 L -67.477965,45.446428 L -67.483727,45.449443 L -67.484921,45.455918 L -67.482292,45.459672 L -67.488167,45.468499 L -67.500966,45.478889 L -67.503705,45.486661 L -67.499445,45.491013 L -67.48962453503185,45.489138 L -67.489049,45.493039 L -67.471242,45.497231 L -67.470416,45.505307 L -67.462882,45.508691 L -67.45612727285666,45.50223210400213 L -67.449968,45.504933 L -67.432566,45.503849 L -67.424242,45.505907 L -67.42065740096425,45.51118714917474 L -67.432776,45.519834 L -67.434955,45.528217 L -67.432236,45.541023 L -67.425399,45.540795 L -67.420976,45.550029 L -67.422142,45.556569 L -67.426603,45.5606 L -67.4285,45.568835 L -67.423646,45.572153 L -67.425581,45.578395 L -67.431055,45.584114 L -67.447302,45.596609 L -67.449977,45.602464 L -67.456667,45.60431 L -67.4651222455956,45.60331064183173 L -67.472329,45.600502 L -67.477042,45.603877 L -67.490779,45.600774 L -67.488452,45.594643 L -67.499006,45.586643 L -67.519216,45.587568 L -67.534465,45.594619 L -67.546014,45.59736 L -67.55640842634278,45.5970225300408 L -67.561822,45.594719 L -67.583103,45.602281 L -67.589773,45.606765 L -67.608505,45.606198 L -67.631892,45.621355 L -67.638891,45.625075 L -67.644013,45.623097 L -67.639721,45.616025 L -67.645563,45.613282 L -67.663148,45.625411 L -67.666456,45.624461 L -67.675417,45.630959 L -67.679542,45.638095 L -67.692623,45.650366 L -67.691155,45.653521 L -67.697927,45.65962 L -67.701386,45.669101 L -67.713036,45.681213 L -67.717837,45.679449 L -67.727648,45.688468 L -67.734603703066,45.688980033192955 L -67.73067036260956,45.67806968274552 L -67.718056,45.667986 L -67.720238,45.662284 L -67.734103,45.664729 L -67.744381,45.672993 L -67.754303,45.667575 L -67.768657,45.677524 L -67.803503,45.677696 L -67.818008,45.693819 L -67.803148,45.696127 L -67.809833,45.729274 L -67.781892,45.731189 L -67.79308661036745,45.75056032293692 L -67.806308,45.755405 L -67.809157,45.767372 L -67.805457,45.76976 L -67.803731,45.781123 L -67.806598,45.794723 L -67.801989,45.803546 L -67.780443,45.816206 L -67.778102,45.819208 L -67.766842,45.818533 L -67.75553465691543,45.823490021387364 L -67.763773,45.828839 L -67.76524363067733,45.83430315274602 L -67.77293819756383,45.841699150103125 L -67.783108,45.846517 L -67.79581766716427,45.85912476886408 L -67.7966949663882,45.86556927595238 L -67.802348,45.86763 L -67.80459425722616,45.87545045469853 L -67.803911,45.882898 L -67.785344,45.895648 L -67.7791774262281,45.89512023094364 L -67.768745,45.897951 L -67.768671,45.903184 L -67.76497148976105,45.90786328021057 L -67.75566632070985,45.91172794683519 L -67.75188069041275,45.91895375489691 L -67.765901,45.927953 L -67.773564,45.934823 L -67.77804313689948,45.93490682763968 L -67.781248,45.94345 L -67.781096,46.004479 L -67.7814355963656,46.0961840295727 L -67.7817688120185,46.1861660034429 L -67.78209150808755,46.27330725568025 L -67.7835304655852,46.3729416568925 L -67.78468153297318,46.44484651381134 L -67.788406,46.601795 L -67.78940082709455,46.766532779006035 L -67.789799,46.794868 L -67.789465,46.853564 L -67.789454,46.907885 L -67.78977375453518,47.0010061094606 L -67.7905019823527,47.06707685327311 L -67.811395,47.076066 L -67.817931,47.081834 L -67.838389,47.087704 L -67.84865207314569,47.0932664627432 L -67.8691547212683,47.10054254949459 L -67.882895,47.104317 L -67.888914,47.110063 L -67.88994522816957,47.12413030949413 L -67.894247,47.130542 L -67.9046,47.137556 L -67.909913,47.147164 L -67.927419,47.154955 L -67.935868,47.164843 L -67.93870056579368,47.17050727323416 L -67.951505,47.183425 L -67.95128641223882,47.191801992296206 L -67.95821028266445,47.200015108403775 L -67.97371776169278,47.2068582808962 L -67.989778,47.209995 L -67.998232,47.217066 L -68.006314,47.226444 L -68.016103,47.234446 L -68.038849335089,47.246343684576395 L -68.058769,47.254995 L -68.073659,47.259085 L -68.081905,47.270984 L -68.092061,47.276446 L -68.120956,47.287402 L -68.12812315473873,47.29411575732292 L -68.137059,47.296068 L -68.15228,47.309594 L -68.153869,47.313299 L -68.1524690842572,47.32155080273278 L -68.159978,47.327094 L -68.176301,47.328886 L -68.202369,47.339391 L -68.211388,47.338846 L -68.223718,47.34473 L -68.224655,47.350171 L -68.234604,47.355035 L -68.247998,47.352086 L -68.265027,47.352174 L -68.27955236994161,47.358993210992914 L -68.290413,47.359892 L -68.305293,47.355219 L -68.32871025436033,47.360004486765604 L -68.353447,47.356991 L -68.363184,47.354651 L -68.37196,47.349278 L -68.380225,47.339578 L -68.384589924667,47.32273945027893 L -68.38106,47.310275 L -68.3840921204782,47.301496303647994 L -68.376334,47.295213 L -68.374819,47.290967 L -68.377969,47.28738 L -68.390042,47.285969 L -68.410057,47.288008 L -68.415137,47.287409 L -68.429882,47.281293 L -68.441979,47.283458 L -68.448781,47.282001 L -68.458484,47.284288 L -68.463964,47.29228 L -68.474812,47.29716 L -68.490386,47.293815 L -68.503433,47.296019 L -68.517699,47.29594 L -68.52955152444406,47.29230193770833 L -68.538825,47.285351 L -68.549931,47.282101 L -68.57809079830935,47.28752001954557 L -68.589445,47.28054 L -68.592357,47.274134 L -68.597675,47.270155 L -68.593546,47.258769 L -68.607429,47.247057 L -68.617532,47.243366 L -68.635093,47.242312 L -68.646276,47.239448 L -68.65499418789338,47.23892154155716 L -68.663256,47.236221 L -68.67533820080826,47.24234136712884 L -68.693434,47.243072 L -68.706104,47.237837 L -68.715278,47.24083 L -68.730146,47.235673 L -68.734774,47.235414 L -68.751893,47.22636 L -68.768941,47.221149 L -68.781377,47.221048 L -68.804267,47.215366 L -68.811529,47.215131 L -68.831481,47.203878 L -68.84941236386983,47.19653352552703 L -68.857423,47.190325 L -68.870946,47.189059 L -68.882152,47.182907 L -68.893802,47.182815 L -68.904981,47.180436 L -68.90948951560729,47.18614493514919 L -68.919917,47.189896 L -68.92023883365779,47.19490127515017 L -68.928558,47.196569 L -68.942647,47.206089 L -68.949727,47.202155 L -68.95335,47.206749 L -68.96113,47.205582 L -68.966433,47.212712 L -68.978628,47.217704 L -68.980428,47.220125 L -69.021909,47.236655 L -69.033804,47.240368 L -69.040918,47.244973 L -69.050817,47.256492 L -69.046942,47.271566 L -69.050883,47.278439 L -69.04987975438571,47.28942723454705 L -69.053539,47.297145 L -69.04944166350494,47.305982702879426 L -69.054932,47.315298 L -69.053965,47.328058 L -69.05448304091267,47.376115442213035 L -69.046448,47.383934 L -69.040138,47.386012 L -69.045685,47.390285 L -69.042729,47.39993 L -69.033409,47.404441 L -69.037054,47.408545 L -69.035718,47.414435 L -69.042375,47.416331 L -69.039422,47.420053 L -69.044078,47.427528 L -69.051739,47.426558 L -69.058485,47.432666 L -69.06404017828135,47.432975513171364 L -69.068393,47.427406 L -69.081363,47.423739 L -69.09210249870894,47.4270168514391 L -69.09863716904778,47.43120558187455 L -69.10726,47.431159 L -69.112895,47.438013 L -69.146439,47.44886 L -69.164362,47.451037 L -69.178412,47.456615 L -69.190442,47.453551 L -69.19581363198196,47.45548674612685 L -69.202337,47.452227 L -69.22442,47.459686 L -69.328192,47.358494 L -69.439198,47.250033 L -69.53219606848982,47.15863187911864 L -69.58862798479683,47.10297817621841 L -69.73199792031023,46.96084028211475 L -69.843307,46.849839 L -69.9455656366737,46.74736476521933 L -69.997086,46.69523 L -70.02518596573323,46.56410482293901 L -70.026521,46.557217 L -70.056556,46.41655 L -70.076128,46.409389 L -70.09430306710338,46.40977823885482 L -70.09977116877616,46.40539085014585 L -70.100177,46.398435 L -70.108315125,46.391269984375 L -70.11044,46.38611 L -70.125459,46.381352 L -70.127542,46.378747 L -70.126992,46.370808 L -70.13620984435201,46.36980675809983 L -70.140353,46.363686 L -70.148856,46.358892 L -70.16166262723289,46.360736497758054 L -70.165926,46.357496 L -70.17534695791555,46.358086505680475 L -70.181692,46.352181 L -70.19153331700491,46.34792897033264 L -70.195964,46.340581 L -70.207415,46.331316 L -70.20705118899261,46.31927691839813 L -70.203019,46.313858 L -70.20615627450125,46.30940352259136 L -70.205719,46.299865 L -70.214423,46.295314 L -70.23128775540158,46.291098484235015 L -70.232682,46.284428 L -70.239878,46.27915 L -70.239436,46.275756 L -70.248421,46.267072 L -70.25433805220865,46.254065651519376 L -70.251303,46.248681 L -70.255284,46.245896 L -70.260367,46.230228 L -70.26307558084837,46.229067460146396 L -70.268197,46.218654 L -70.27399681372043,46.21524701363306 L -70.270942,46.21194 L -70.277814,46.203567 L -70.287914,46.193914 L -70.29263420143727,46.19148943806673 L -70.29062209357184,46.185675342062396 L -70.278034,46.175001 L -70.26626,46.16935 L -70.26446988685828,46.164687474598125 L -70.252614,46.158156 L -70.246989,46.151917 L -70.240264,46.150076 L -70.236567,46.146397 L -70.24367649664308,46.12872668050602 L -70.25124004750798,46.118006461476675 L -70.25505836190085,46.10956445936679 L -70.252697,46.107458 L -70.254021,46.0996 L -70.270354,46.10107 L -70.28488233641578,46.10003995323308 L -70.28978,46.094325 L -70.291587,46.087284 L -70.30054013563057,46.08342670410468 L -70.30202,46.073854 L -70.31054223658023,46.06445942758031 L -70.30625301680935,46.06132097070906 L -70.292845,46.060679 L -70.284176,46.062758 L -70.278169,46.059671 L -70.279614,46.052326 L -70.299256,46.038242 L -70.301374,46.02762 L -70.31761586952682,46.019243931968134 L -70.306427,46.010272 L -70.30251053422381,45.99889469442646 L -70.292868,45.997397 L -70.286275,45.992504 L -70.294671,45.986163 L -70.30699,45.982692 L -70.307032,45.978348 L -70.31144341270571,45.97381950090464 L -70.3119658616609,45.96225297881486 L -70.305326,45.964878 L -70.29846811872493,45.962950911842775 L -70.28831646569024,45.96350086663218 L -70.277384,45.9665 L -70.27231266839966,45.961257923391685 L -70.265356,45.962812 L -70.25556959870175,45.95263802577518 L -70.252794,45.955401 L -70.24017344145061,45.94306829599614 L -70.239507,45.939848 L -70.25271696953942,45.93293094923522 L -70.26309,45.923987 L -70.257373,45.918213 L -70.258992,45.909352 L -70.253386,45.90737 L -70.253867,45.90248 L -70.26560664789653,45.89343127150514 L -70.261944,45.888119 L -70.27290842745971,45.882490177415505 L -70.273788,45.879681 L -70.28515684082579,45.87150854844472 L -70.307806,45.858847 L -70.319824,45.855656 L -70.34200985354178,45.85224632751123 L -70.359426,45.83545 L -70.37158080003847,45.83435095822253 L -70.36939420248873,45.831133968755296 L -70.38792604281876,45.818876804392254 L -70.387793,45.814353 L -70.396693,45.808096 L -70.39616,45.798659 L -70.399634,45.796235 L -70.408,45.797586 L -70.416922,45.795279 L -70.405624,45.776515 L -70.40651621136766,45.76210550389694 L -70.40122402025385,45.75772809613827 L -70.395876,45.756632 L -70.388425,45.750206 L -70.39442960551293,45.743089300601184 L -70.389543,45.736046 L -70.383552,45.734869 L -70.390102,45.728496 L -70.397037,45.728509 L -70.400346,45.719717 L -70.417962,45.713291 L -70.42948038799783,45.710096564896475 L -70.43021504344803,45.707219165342615 L -70.439162,45.703874 L -70.450913,45.703934 L -70.45681532021403,45.70695050320043 L -70.465982,45.706256 L -70.469109,45.701677 L -70.479402,45.694877 L -70.49296737633733,45.689009123674474 L -70.51564949084134,45.674930594844426 L -70.519911,45.669073 L -70.526392,45.666356 L -70.53369550532332,45.670668949973404 L -70.541415,45.666715 L -70.55776027378401,45.666803919750606 L -70.563709,45.662742 L -70.564789,45.65515 L -70.579529,45.643583 L -70.58959916653373,45.634001946166315 L -70.590871,45.630459 L -70.60641091683605,45.62595807824621 L -70.60854,45.621775 L -70.61702325887423,45.61651371678379 L -70.619147,45.612023 L -70.634955,45.610089 L -70.64512232423309,45.606489921003 L -70.653958,45.592808 L -70.659286,45.58688 L -70.6719812605985,45.57849828892956 L -70.678095,45.570501 L -70.684173,45.568928 L -70.688712,45.561636 L -70.677099,45.552211 L -70.686982,45.549313 L -70.696172,45.540404 L -70.70015336451422,45.53325687890248 L -70.70592912246943,45.52814010755815 L -70.711119,45.519534 L -70.72151576726381,45.51512326439263 L -70.723396,45.510394 L -70.72127192415827,45.50598527568405 L -70.711845,45.502113 L -70.711445,45.498123 L -70.717803,45.490188 L -70.707945,45.480877 L -70.699508,45.478971 L -70.691721,45.474266 L -70.692726,45.46678 L -70.690417,45.46361 L -70.681822,45.461691 L -70.681050146095,45.452179775055306 L -70.674903,45.452399 L -70.662954,45.446546 L -70.650684,45.444915 L -70.64140045320167,45.43179392781532 L -70.630485,45.426768 L -70.627459,45.421633 L -70.635271,45.412147 L -70.63038897954414,45.40723841407133 L -70.623849,45.405965 L -70.623341,45.400217 L -70.63347719185924,45.39811922616483 L -70.63886607033811,45.38885331673822 L -70.634661,45.383608 L -70.650436,45.377193 L -70.660775,45.378176 L -70.661141,45.385623 L -70.678171,45.394274 L -70.696605,45.39217 L -70.70523502070868,45.39337255952891 L -70.712014,45.390483 L -70.729972,45.399359 L -70.730844,45.404599 L -70.743775,45.411925 L -70.744077,45.421091 L -70.75064,45.423725 L -70.75529045277422,45.42826151257035 L -70.764396,45.425928 L -70.768227,45.428502 L -70.78164004673634,45.431043270934516 L -70.787579,45.426473 L -70.79496060466008,45.42814524114775 L -70.802216,45.417975 L -70.811334,45.416166 L -70.81272850395544,45.41159735183764 L -70.819309,45.404461 L -70.825612,45.400305 L -70.82514738131158,45.393248036108275 L -70.813773,45.387758 L -70.81242147705902,45.38340437560133 L -70.806734,45.377452 L -70.802648,45.364933 L -70.807577,45.363425 L -70.809836,45.35797 L -70.8144349323294,45.3565486749336 L -70.809801,45.348671 L -70.81594238048854,45.34583642758251 L -70.819471,45.341435 L -70.818084,45.332593 L -70.812911,45.328039 L -70.808555,45.328358 L -70.806092,45.321579 L -70.808613,45.311606 L -70.81390042159352,45.30867721908585 L -70.812338,45.302006 L -70.816224,45.29812 L -70.82463274894424,45.29782366993622 L -70.83545386340985,45.29373909914994 L -70.829661,45.290369 L -70.831535,45.279557 L -70.836483,45.275615 L -70.839042,45.269132 L -70.84855577475315,45.26330761143546 L -70.849261,45.256398 L -70.846505,45.252972 L -70.848319,45.244707 L -70.83877,45.237555 L -70.857042,45.22916 L -70.874899,45.234074 L -70.885029,45.234873 L -70.898482,45.244088 L -70.895146,45.252257 L -70.89853988131682,45.258090822997 L -70.906691,45.261561 L -70.90520884115833,45.26538724507856 L -70.911308,45.269991 L -70.916473,45.27733 L -70.9217,45.279445 L -70.918702,45.287283 L -70.912111,45.296197 L -70.919869,45.305389 L -70.91796196833161,45.311810198300954 L -70.927226,45.314847 L -70.929923,45.318462 L -70.939188,45.320177 L -70.945231,45.325649 L -70.952377,45.339097 L -70.96115881784723,45.33672498897728 L -70.967324,45.332221 L -70.973327,45.333613 L -70.984975,45.331907 L -71.004848,45.345419 L -71.01278405731122,45.34451714818209 L -71.010583,45.333564 L -71.002161,45.328115 L -71.008521,45.319241 L -71.021753,45.314409 L -71.030565,45.312652 L -71.032455,45.310074 L -71.042485,45.313043 L -71.052431,45.311087 L -71.05926397238177,45.313752750427355 L -71.07498,45.307051 L -71.08392408357483,45.305451001274 L -71.077212,45.250336 L -71.074486,45.204288 L -71.069456,45.146359 L -71.05949626161008,45.01454364155251 L -71.058247,44.990515 L -71.049367,44.896014 L -71.045072,44.843061 L -71.04328530339478,44.82851045580538 L -71.03839,44.766982 L -71.033583,44.698492 L -71.02898072036865,44.62217619054997 L -71.026162,44.549268 L -71.024585,44.530373 L -71.018237,44.43189 L -71.015051,44.37141 L -71.012884,44.34091 L -71.011237,44.300967 L -71.009977689256,44.284898944966265 L -71.00733,44.225231 L -71.005749,44.201031 L -71.004721,44.164081 L -71.003037,44.132052 L -70.999888,44.062658 L -70.99816,44.03734 L -70.997848,44.021698 L -70.994205,43.948671 L -70.992425,43.906229 L -70.992277,43.886262 L -70.990196,43.846676 L -70.989122,43.792113 L -70.985217,43.755895 L -70.982082,43.711864 L -70.981797,43.699813 L -70.976804,43.641905 L -70.972774,43.570512 L -70.966712,43.569437 L -70.963419,43.56401 L -70.957728,43.561641 L -70.954783,43.553867 L -70.950632,43.551313 L -70.952532,43.545297 L -70.963161,43.53892 L -70.962479,43.534243 L -70.957744,43.531253 L -70.957164,43.524865 L -70.953868,43.519145 L -70.956798,43.512782 L -70.958812,43.499477 L -70.964397,43.497066 L -70.964428,43.49348 L -70.969295,43.486217 L -70.967526,43.480945 L -70.974911,43.476955 L -70.96453239361264,43.473209394243696 L -70.960338,43.466183 L -70.966289,43.453304 L -70.965896,43.447794 L -70.96159,43.443272 L -70.963024,43.436489 L -70.96902,43.434368 L -70.968517,43.42928 L -70.974904,43.422335 L -70.981655,43.420552 L -70.986586,43.414153 L -70.985562,43.401585 L -70.982678,43.394763 L -70.987179,43.393536 L -70.985348,43.378868 L -70.974514,43.362996 L -70.978115,43.358914 L -70.972164,43.354817 L -70.973461,43.349889 L -70.967657,43.349352 L -70.967953,43.344579 L -70.958599,43.340116 L -70.95692,43.334737 L -70.952877,43.333402 L -70.940105,43.335438 L -70.931223,43.333226 L -70.9304,43.329145 L -70.919154,43.324445 L -70.915354,43.315465 L -70.911295,43.310438 L -70.904184,43.306516 L -70.896311,43.298437 L -70.90394,43.296781 L -70.89707,43.285663 L -70.8872,43.28272 L -70.882654,43.278913 L -70.882181,43.272535 L -70.873864,43.271612 L -70.869744,43.265967 L -70.860848,43.262648 L -70.859837,43.258025 L -70.84301765318399,43.254266070056964 L -70.839547,43.25127 L -70.838722,43.243124 L -70.827216,43.24333 L -70.818264,43.238384 L -70.809608,43.225511 L -70.816245,43.215499 L -70.820457,43.200957 L -70.820365,43.191749 L -70.828117,43.188232 L -70.823569,43.174239 L -70.827782,43.170432 L -70.828972,43.158523 L -70.83361,43.146106 L -70.829766,43.137684 L -70.829135,43.131485 L -70.824577,43.125069 L -70.804353,43.114396 L -70.799235,43.110107 L -70.78375912382074,43.10083982252358 L -70.779688,43.096248 L -70.77142,43.094655 L -70.76356,43.090391 L -70.755699,43.07995 L -70.743033,43.077973 L -70.737969,43.073728 L -70.70631,43.075339 L -70.703792,43.060515 Z M -68.95815417519786,44.202846219037404 L -68.964395,44.200757 L -68.965108,44.191896 L -68.958687,44.192094 L -68.958941,44.198095 L -68.95494082352477,44.20285492730752 L -68.95815417519786,44.202846219037404 Z M -68.592189,44.06753 L -68.590554,44.058659 L -68.584101,44.071589 L -68.588148,44.072312 L -68.592189,44.06753 Z M -68.658794,44.110212 L -68.651384,44.10576 L -68.651267,44.101422 L -68.637174,44.099408 L -68.637511,44.104277 L -68.649082,44.110508 L -68.658794,44.110212 Z M -68.671099,44.075898 L -68.65964,44.069017 L -68.652797,44.069238 L -68.650658,44.065139 L -68.654867,44.05929 L -68.656362,44.048229 L -68.644716,44.053866 L -68.642339,44.047717 L -68.653647,44.037921 L -68.65579,44.027277 L -68.661044,44.017051 L -68.65706,44.013802 L -68.657031,44.003823 L -68.654699,44.002086 L -68.646847,44.01301 L -68.642312,44.016206 L -68.634355,44.017603 L -68.628554,44.016275 L -68.627841,44.021573 L -68.619997,44.019693 L -68.618809,44.011318 L -68.612845,44.0129 L -68.60998,44.027652 L -68.606925,44.031827 L -68.601101,44.045263 L -68.601856,44.049305 L -68.60027,44.063944 L -68.601325,44.08632 L -68.610728,44.089044 L -68.608589,44.094336 L -68.622212,44.095493 L -68.630025,44.083994 L -68.64276,44.079191 L -68.646414,44.079914 L -68.671099,44.075898 Z M -68.826541,44.136399 L -68.821312,44.134011 L -68.814182,44.140663 L -68.823927,44.13964 L -68.826541,44.136399 Z M -68.826541,43.847674 L -68.824086,43.846737 L -68.816254,43.85499 L -68.809666,43.856929 L -68.815845,43.861557 L -68.826541,43.847674 Z M -68.893134,44.036591 L -68.893804,44.033108 L -68.884309,44.030778 L -68.889051,44.03943 L -68.893134,44.036591 Z M -68.899108,43.821925 L -68.891428,43.820242 L -68.886725,43.822195 L -68.883616,43.832245 L -68.878141,43.833968 L -68.877642,43.838417 L -68.884313,43.838296 L -68.89368,43.833047 L -68.894755,43.826244 L -68.899108,43.821925 Z M -68.905926,43.853844 L -68.907704,43.849347 L -68.896181,43.848531 L -68.886436,43.85453 L -68.879198,43.862907 L -68.881683,43.868582 L -68.890073,43.875496 L -68.902377,43.869169 L -68.900697,43.865841 L -68.901589,43.857877 L -68.905926,43.853844 Z M -68.908303,44.061296 L -68.899543,44.056107 L -68.892378,44.06215 L -68.899271,44.066932 L -68.908303,44.061296 Z M -68.911847,44.096399 L -68.906877,44.094251 L -68.905451,44.089812 L -68.906906,44.078523 L -68.894993,44.072909 L -68.895468,44.08691 L -68.892141,44.087764 L -68.887149,44.079056 L -68.879781,44.075129 L -68.882396,44.066078 L -68.88097,44.059418 L -68.870512,44.050877 L -68.87379,44.03945 L -68.870036,44.031741 L -68.854855,44.027042 L -68.849897,44.028286 L -68.84998,44.035636 L -68.844129,44.040456 L -68.828417,44.031566 L -68.814657,44.032425 L -68.804437,44.037893 L -68.807289,44.043531 L -68.798232,44.043042 L -68.790262,44.054079 L -68.784479,44.053999 L -68.774489,44.064371 L -68.779718,44.068469 L -68.772112,44.078886 L -68.785898,44.089471 L -68.78539,44.093688 L -68.79493,44.10159 L -68.801283,44.10199 L -68.806814,44.106369 L -68.803486,44.113025 L -68.806101,44.116779 L -68.814419,44.118656 L -68.822976,44.122922 L -68.829869,44.118144 L -68.837237,44.116608 L -68.840326,44.119338 L -68.83795,44.127528 L -68.851735,44.126163 L -68.846982,44.120533 L -68.847219,44.114219 L -68.852924,44.111318 L -68.856489,44.105175 L -68.865996,44.100737 L -68.861242,44.111489 L -68.863619,44.119338 L -68.872413,44.122751 L -68.887387,44.125481 L -68.899033,44.123433 L -68.909016,44.112172 L -68.910917,44.104663 L -68.908778,44.099542 L -68.911847,44.096399 Z M -68.916146,44.04746 L -68.912859,44.043203 L -68.906334,44.044866 L -68.910442,44.053098 L -68.916146,44.04746 Z M -68.944269,44.112697 L -68.935874,44.109271 L -68.932071,44.118656 L -68.926604,44.12531 L -68.91781,44.127528 L -68.913294,44.131964 L -68.90759,44.13094 L -68.900222,44.136911 L -68.893091,44.139299 L -68.8881,44.144927 L -68.876454,44.145098 L -68.876929,44.140151 L -68.885961,44.137763 L -68.896181,44.126675 L -68.88406,44.129405 L -68.875028,44.127016 L -68.857202,44.127528 L -68.861955,44.136399 L -68.85839,44.141516 L -68.853874,44.137934 L -68.842941,44.142539 L -68.845555,44.146633 L -68.834147,44.147144 L -68.829631,44.150726 L -68.820124,44.143904 L -68.804675,44.147997 L -68.804912,44.152602 L -68.812756,44.150044 L -68.815132,44.154818 L -68.807065,44.157816 L -68.811092,44.16198 L -68.819096,44.163022 L -68.819173,44.171187 L -68.826303,44.176471 L -68.819204,44.17966 L -68.824712,44.186133 L -68.840743,44.182627 L -68.846121,44.184431 L -68.864029,44.175207 L -68.886912,44.160616 L -68.902697,44.153054 L -68.906661,44.153786 L -68.915909,44.14902 L -68.923282,44.141162 L -68.924337,44.136923 L -68.932784,44.133328 L -68.934918,44.129153 L -68.931833,44.124116 L -68.94134,44.11712 L -68.944269,44.112697 Z M -69.014546,43.908665 L -69.011218,43.89976 L -69.004801,43.901301 L -69.007802,43.907278 L -69.014546,43.908665 Z M -69.046157,44.076239 L -69.045682,44.073336 L -69.036175,44.074361 L -69.032036,44.07934 L -69.038094,44.085838 L -69.04378,44.082044 L -69.046157,44.076239 Z M -69.059943,44.001573 L -69.062082,44.000034 L -69.054714,43.992853 L -69.050078,43.999599 L -69.042592,44.007044 L -69.049044,44.011127 L -69.059467,44.007215 L -69.059943,44.001573 Z M -69.07254,44.012172 L -69.071589,44.004821 L -69.05614,44.012172 L -69.062649,44.014931 L -69.07254,44.012172 Z M -69.083126,43.981522 L -69.078482,43.973015 L -69.07254,43.978659 L -69.077531,43.984132 L -69.083126,43.981522 Z M -69.09607,43.983961 L -69.093118,43.97915 L -69.084424,43.984303 L -69.078006,43.986184 L -69.069635,43.985912 L -69.065409,43.994392 L -69.09607,43.983961 Z M -69.13247,43.871263 L -69.125542,43.873551 L -69.122452,43.880576 L -69.118938,43.898262 L -69.127919,43.894965 L -69.128104,43.88755 L -69.13247,43.871263 Z M -69.225843,43.918767 L -69.220195,43.914937 L -69.213324,43.919837 L -69.217762,43.925615 L -69.222516,43.925444 L -69.225843,43.918767 Z M -69.296553,43.871324 L -69.298216,43.864984 L -69.295364,43.862585 L -69.282501,43.864579 L -69.28348,43.873723 L -69.296553,43.871324 Z M -69.300333,43.937055 L -69.299336,43.932915 L -69.292988,43.933318 L -69.292988,43.942389 L -69.300333,43.937055 Z M -69.314666,43.917285 L -69.31552,43.913613 L -69.307237,43.908693 L -69.307401,43.91811 L -69.314666,43.917285 Z M -69.322935,43.901644 L -69.319132,43.896677 L -69.308674,43.895136 L -69.314101,43.902272 L -69.322935,43.901644 Z M -69.323508,43.860573 L -69.321031,43.856708 L -69.310829,43.859486 L -69.305882,43.877418 L -69.315245,43.882835 L -69.319132,43.866869 L -69.323508,43.860573 Z M -69.323569,43.758994 L -69.322559,43.755883 L -69.314325,43.756707 L -69.300818,43.768599 L -69.302995,43.774591 L -69.313631,43.772762 L -69.321141,43.765763 L -69.323569,43.758994 Z M -69.351694,43.927155 L -69.343552,43.925518 L -69.340576,43.933846 L -69.343138,43.934858 L -69.351694,43.927155 Z M -69.384717,43.909183 L -69.383068,43.90113 L -69.374036,43.907295 L -69.37166,43.914487 L -69.379561,43.913873 L -69.384717,43.909183 Z M -69.395655,43.960565 L -69.391473,43.957662 L -69.387346,43.965146 L -69.394828,43.964867 L -69.395655,43.960565 Z M -69.42799,43.922191 L -69.42894,43.916541 L -69.422558,43.917004 L -69.422048,43.923047 L -69.42799,43.922191 Z M -69.441894,43.916331 L -69.442519,43.909055 L -69.438066,43.909539 L -69.424151,43.934114 L -69.420146,43.935885 L -69.422998,43.941875 L -69.429178,43.944614 L -69.430455,43.951094 L -69.439398,43.939137 L -69.438258,43.931099 L -69.441894,43.916331 Z M -69.588899,43.77478 L -69.581531,43.771862 L -69.582924,43.779096 L -69.588899,43.77478 Z M -69.602209,43.794684 L -69.595652,43.801341 L -69.599602,43.803263 L -69.602209,43.794684 Z M -69.618846,43.757444 L -69.611608,43.754473 L -69.609339,43.762079 L -69.609577,43.771176 L -69.60411,43.778212 L -69.610765,43.778899 L -69.61338,43.769288 L -69.618846,43.757444 Z M -69.635667,43.805437 L -69.626732,43.805159 L -69.628789,43.81372 L -69.633001,43.81258 L -69.635667,43.805437 Z M -69.941532,43.730068 L -69.939009,43.723825 L -69.931158,43.72413 L -69.937337,43.730829 L -69.941532,43.730068 Z M -69.994143,43.837388 L -69.99747,43.832931 L -69.99034,43.831902 L -69.985824,43.841503 L -69.99034,43.842531 L -69.994143,43.837388 Z M -70.017911,43.816983 L -70.009354,43.811324 L -69.996995,43.8223 L -69.999847,43.829502 L -70.014346,43.823157 L -70.017911,43.816983 Z M -70.037638,43.714854 L -70.031221,43.714683 L -70.021001,43.724646 L -70.028844,43.726363 L -70.037638,43.714854 Z M -70.048809,43.792969 L -70.046562,43.781998 L -70.039064,43.785076 L -70.041203,43.790567 L -70.035499,43.795028 L -70.028606,43.803777 L -70.027016,43.809128 L -70.033835,43.809265 L -70.036925,43.801375 L -70.046165,43.79636 L -70.048809,43.792969 Z M -70.061236,43.746285 L -70.061325,43.7421 L -70.046165,43.757259 L -70.051186,43.756757 L -70.061236,43.746285 Z M -70.060931,43.762422 L -70.053325,43.765168 L -70.057366,43.770661 L -70.060931,43.762422 Z M -70.078757,43.796743 L -70.069963,43.796743 L -70.066635,43.799488 L -70.070913,43.803262 L -70.078757,43.796743 Z M -70.081609,43.712621 L -70.079285,43.706989 L -70.071304,43.713772 L -70.072098,43.718956 L -70.081609,43.712621 Z M -70.101227,43.675468 L -70.096039,43.672276 L -70.088455,43.681454 L -70.09285,43.687836 L -70.101227,43.675468 Z M -70.114646,43.780615 L -70.10202,43.77681 L -70.089653,43.785187 L -70.096039,43.78838 L -70.102287,43.783875 L -70.105474,43.785587 L -70.114646,43.780615 Z M -70.118174,43.686375 L -70.115908,43.682978 L -70.104426,43.694579 L -70.099594,43.695366 L -70.093704,43.6918 L -70.091929,43.698111 L -70.097184,43.700929 L -70.103475,43.700938 L -70.118174,43.686375 Z M -70.123678,43.701453 L -70.112032,43.707467 L -70.115835,43.7097 L -70.123678,43.701453 Z M -70.138137,43.727555 L -70.137204,43.720913 L -70.120682,43.712569 L -70.115357,43.717235 L -70.116784,43.722944 L -70.107334,43.725414 L -70.111096,43.730678 L -70.097494,43.748344 L -70.098339,43.752851 L -70.10341,43.756111 L -70.107922,43.74791 L -70.115031,43.74915 L -70.125818,43.745451 L -70.129353,43.736831 L -70.138137,43.727555 Z M -70.160281,43.749718 L -70.141504,43.749546 L -70.123441,43.757615 L -70.120113,43.765168 L -70.133898,43.763967 L -70.130809,43.770832 L -70.120351,43.77272 L -70.12653,43.779585 L -70.131786,43.774935 L -70.145545,43.775809 L -70.146971,43.766713 L -70.145545,43.76122 L -70.160281,43.749718 Z M -70.173571,43.683734 L -70.169075,43.678767 L -70.160115,43.678562 L -70.151724,43.681689 L -70.153864,43.686158 L -70.145498,43.690312 L -70.139127,43.699219 L -70.133661,43.702312 L -70.140553,43.707639 L -70.146115,43.701635 L -70.156787,43.694706 L -70.163884,43.692404 L -70.171339,43.687546 L -70.173571,43.683734 Z M -70.196646,43.715198 L -70.192843,43.71348 L -70.18595,43.721039 L -70.190466,43.722241 L -70.196646,43.715198 Z M -70.201162,43.651945 L -70.199736,43.649366 L -70.190229,43.651602 L -70.184049,43.651086 L -70.176664,43.659768 L -70.182147,43.665702 L -70.18191,43.673438 L -70.187139,43.673954 L -70.197834,43.663123 L -70.201162,43.651945 Z M -70.20973,43.641477 L -70.206022,43.639327 L -70.205934,43.633633 L -70.197405,43.638743 L -70.197462,43.644633 L -70.203426,43.647186 L -70.20973,43.641477 Z M -70.213948,43.666161 L -70.210825,43.661695 L -70.200211,43.670516 L -70.193081,43.673438 L -70.189278,43.679111 L -70.182147,43.694923 L -70.201893,43.685483 L -70.204951,43.681855 L -70.206153,43.671719 L -70.213948,43.666161 Z M -70.238002,43.547295 L -70.245499,43.539635 L -70.234675,43.537303 L -70.227842,43.538261 L -70.224401,43.547199 L -70.238002,43.547295 Z M -70.617249,42.99202 L -70.618523,42.985657 L -70.607834,42.977764 L -70.601349,42.981083 L -70.610931,42.989028 L -70.617249,42.99202 Z M -67.322595,44.611595 L -67.322513,44.609069 L -67.313789,44.604048 L -67.314153,44.597468 L -67.303039,44.597402 L -67.292338,44.599125 L -67.287814,44.604534 L -67.280207,44.603448 L -67.280454,44.609786 L -67.273798,44.609955 L -67.263629,44.603611 L -67.260985,44.608656 L -67.279027,44.615877 L -67.284256,44.619768 L -67.289723,44.616723 L -67.29519,44.621121 L -67.299706,44.621121 L -67.311107,44.616706 L -67.309688,44.612155 L -67.322595,44.611595 Z M -67.359601,44.579659 L -67.355283,44.576178 L -67.3511,44.581551 L -67.35556,44.583722 L -67.359601,44.579659 Z M -67.369346,44.669147 L -67.366731,44.664413 L -67.356036,44.663568 L -67.35461,44.668978 L -67.364117,44.667625 L -67.369346,44.669147 Z M -67.464856,44.570979 L -67.460562,44.569652 L -67.453722,44.572379 L -67.457682,44.575464 L -67.464856,44.570979 Z M -67.507438,44.622813 L -67.503872,44.617061 L -67.498881,44.621967 L -67.507438,44.622813 Z M -67.541611,44.58934 L -67.541611,44.578037 L -67.533279,44.564354 L -67.51841,44.554241 L -67.510527,44.553074 L -67.491751,44.556123 L -67.489988,44.560965 L -67.498644,44.564252 L -67.511478,44.566114 L -67.516804,44.572547 L -67.521461,44.573734 L -67.520035,44.579659 L -67.512429,44.584569 L -67.499969,44.578037 L -67.4908,44.575258 L -67.482124,44.577442 L -67.481529,44.580414 L -67.490342,44.586587 L -67.502684,44.588293 L -67.514244,44.597668 L -67.51841,44.595882 L -67.515994,44.587277 L -67.523125,44.58423 L -67.533345,44.583384 L -67.534368,44.589249 L -67.541611,44.58934 Z M -67.563768,44.510547 L -67.563622,44.507248 L -67.554736,44.500715 L -67.545229,44.495629 L -67.547368,44.490543 L -67.543803,44.480538 L -67.54309,44.473755 L -67.539049,44.472059 L -67.531552,44.474105 L -67.526745,44.483638 L -67.514978,44.491263 L -67.510628,44.496414 L -67.516029,44.506653 L -67.523838,44.511564 L -67.529542,44.513089 L -67.530968,44.518512 L -67.539429,44.515385 L -67.552559,44.515663 L -67.560646,44.51379 L -67.563768,44.510547 Z M -67.621286,44.507835 L -67.620573,44.503766 L -67.615107,44.502241 L -67.607199,44.503576 L -67.603162,44.485024 L -67.599182,44.47579 L -67.593715,44.467479 L -67.595286,44.462195 L -67.588346,44.449754 L -67.585764,44.448097 L -67.574206,44.45173 L -67.56971,44.457301 L -67.570423,44.471889 L -67.562651,44.472104 L -67.571374,44.479351 L -67.572324,44.483082 L -67.578742,44.485117 L -67.580168,44.490712 L -67.590627,44.49415 L -67.589259,44.50084 L -67.583257,44.508174 L -67.58706,44.511055 L -67.579692,44.514784 L -67.577315,44.521732 L -67.585872,44.522071 L -67.587738,44.516196 L -67.593953,44.511733 L -67.602747,44.509021 L -67.604886,44.515462 L -67.599182,44.52258 L -67.617959,44.521563 L -67.621286,44.507835 Z M -67.634834,44.490712 L -67.630318,44.490034 L -67.629605,44.498681 L -67.632933,44.499189 L -67.634834,44.490712 Z M -67.647669,44.514445 L -67.648857,44.511055 L -67.645054,44.504614 L -67.628179,44.514953 L -67.641014,44.513767 L -67.647669,44.514445 Z M -67.677597,44.482676 L -67.680389,44.480374 L -67.673171,44.475884 L -67.670554,44.481174 L -67.677597,44.482676 Z M -67.792159,44.480811 L -67.789024,44.472355 L -67.784078,44.47284 L -67.7798,44.47708 L -67.792159,44.480811 Z M -67.819492,44.510649 L -67.814501,44.49658 L -67.807608,44.491154 L -67.806182,44.485898 L -67.796675,44.482846 L -67.794197,44.494205 L -67.802631,44.497746 L -67.804722,44.50814 L -67.81046,44.512683 L -67.819492,44.510649 Z M -67.835892,44.536576 L -67.832802,44.519971 L -67.829712,44.516412 L -67.823295,44.519123 L -67.828762,44.536068 L -67.835892,44.536576 Z M -67.834941,44.485389 L -67.832089,44.479624 L -67.822582,44.484711 L -67.834941,44.485389 Z M -67.839457,44.544369 L -67.825909,44.545047 L -67.825909,44.549451 L -67.834228,44.547926 L -67.839457,44.544369 Z M -67.842072,44.462323 L -67.838475,44.450946 L -67.830634,44.456655 L -67.838163,44.464177 L -67.842072,44.462323 Z M -67.875584,44.445697 L -67.87606,44.440437 L -67.869642,44.42652 L -67.866077,44.422955 L -67.850628,44.423973 L -67.853953,44.434137 L -67.857759,44.435006 L -67.858901,44.445162 L -67.863938,44.447903 L -67.862987,44.45452 L -67.869405,44.456725 L -67.875584,44.445697 Z M -68.103757,44.364362 L -68.103282,44.358245 L -68.093774,44.356206 L -68.10043,44.365382 L -68.103757,44.364362 Z M -68.138221,44.417353 L -68.132279,44.414806 L -68.128,44.406657 L -68.121108,44.406487 L -68.11778,44.409543 L -68.126099,44.418541 L -68.138221,44.417353 Z M -68.142023,44.435854 L -68.142974,44.428896 L -68.140122,44.425501 L -68.133942,44.427368 L -68.124911,44.445358 L -68.134655,44.450109 L -68.139409,44.44417 L -68.142023,44.435854 Z M -68.149154,44.386957 L -68.140549,44.376804 L -68.133942,44.379313 L -68.125624,44.387127 L -68.126099,44.398676 L -68.129426,44.404789 L -68.135368,44.403091 L -68.143687,44.393581 L -68.147774,44.392437 L -68.149154,44.386957 Z M -68.160325,44.467073 L -68.151768,44.458252 L -68.148678,44.461306 L -68.160325,44.467073 Z M -68.190035,44.4686 L -68.172209,44.463681 L -68.173873,44.467243 L -68.190035,44.4686 Z M -68.203582,44.242753 L -68.198985,44.236698 L -68.193068,44.23901 L -68.1936,44.244106 L -68.197696,44.24635 L -68.203582,44.242753 Z M -68.240962,44.2528 L -68.231378,44.256097 L -68.217243,44.257507 L -68.222035,44.263965 L -68.230558,44.266269 L -68.239724,44.264755 L -68.238305,44.258782 L -68.240962,44.2528 Z M -68.248947,44.17576 L -68.245478,44.170228 L -68.239234,44.174596 L -68.248947,44.17576 Z M -68.253009,44.155089 L -68.249805,44.143951 L -68.243608,44.142788 L -68.246666,44.151659 L -68.253009,44.155089 Z M -68.270133,44.275768 L -68.26324,44.270322 L -68.248742,44.270151 L -68.248266,44.276959 L -68.255159,44.275427 L -68.270133,44.275768 Z M -68.274719,44.258675 L -68.276857,44.240794 L -68.274427,44.237099 L -68.266669,44.234033 L -68.260402,44.237143 L -68.248913,44.235443 L -68.243144,44.240987 L -68.249455,44.251938 L -68.250643,44.257556 L -68.262128,44.260774 L -68.266805,44.257386 L -68.274719,44.258675 Z M -68.304121,44.283765 L -68.302933,44.276959 L -68.293425,44.27866 L -68.304121,44.283765 Z M -68.342387,44.193686 L -68.336445,44.190277 L -68.327597,44.194115 L -68.321178,44.199032 L -68.321234,44.203739 L -68.325512,44.207487 L -68.333356,44.20868 L -68.336683,44.206635 L -68.334782,44.200161 L -68.342387,44.193686 Z M -68.34524,44.436364 L -68.341674,44.428556 L -68.334544,44.43263 L -68.337159,44.435685 L -68.34524,44.436364 Z M -68.354034,44.180221 L -68.350944,44.169482 L -68.339773,44.170334 L -68.334782,44.176812 L -68.338822,44.184653 L -68.348329,44.186357 L -68.354034,44.180221 Z M -68.375441,44.11628 L -68.374768,44.110819 L -68.368295,44.107114 L -68.368616,44.098303 L -68.360857,44.105834 L -68.357181,44.103983 L -68.348677,44.104649 L -68.337138,44.101472 L -68.33047,44.109232 L -68.342526,44.111387 L -68.338377,44.118257 L -68.347582,44.123333 L -68.350379,44.12843 L -68.358373,44.12509 L -68.361021,44.120918 L -68.368824,44.120732 L -68.375441,44.11628 Z M -68.375976,44.187399 L -68.37884,44.184473 L -68.370434,44.180221 L -68.362353,44.184312 L -68.349756,44.19539 L -68.354162,44.199491 L -68.364469,44.197534 L -68.375976,44.187399 Z M -68.394202,44.409713 L -68.390636,44.403261 L -68.384219,44.406317 L -68.38921,44.413278 L -68.394202,44.409713 Z M -68.45618,44.31183 L -68.453618,44.305643 L -68.455761,44.299757 L -68.448868,44.297546 L -68.447442,44.302139 L -68.450294,44.313704 L -68.45618,44.31183 Z M -68.456879,44.344288 L -68.454997,44.33912 L -68.450056,44.335809 L -68.442213,44.336659 L -68.445724,44.324921 L -68.440549,44.321187 L -68.431755,44.324248 L -68.42819,44.329008 L -68.429141,44.340229 L -68.4251,44.346858 L -68.414642,44.357225 L -68.425813,44.372008 L -68.4354,44.369718 L -68.441362,44.361645 L -68.450094,44.357323 L -68.451245,44.352467 L -68.456879,44.344288 Z M -68.470143,44.201647 L -68.459182,44.197681 L -68.453843,44.201683 L -68.458375,44.205443 L -68.464793,44.206976 L -68.470143,44.201647 Z M -68.482619,44.227758 L -68.483569,44.224522 L -68.479529,44.219753 L -68.473349,44.219412 L -68.467645,44.224693 L -68.470021,44.22878 L -68.475963,44.231165 L -68.482619,44.227758 Z M -68.4907,44.202717 L -68.490271,44.199911 L -68.47834,44.198116 L -68.472398,44.203057 L -68.47121,44.207317 L -68.476677,44.214983 L -68.48143,44.216857 L -68.486118,44.213428 L -68.4907,44.202717 Z M -68.493314,44.282574 L -68.486568,44.269097 L -68.468833,44.263514 L -68.469308,44.270492 L -68.482143,44.279341 L -68.493314,44.282574 Z M -68.501158,44.153966 L -68.50401,44.150726 L -68.497147,44.147015 L -68.49024,44.148955 L -68.487266,44.142949 L -68.480833,44.14637 L -68.475963,44.154648 L -68.458375,44.155159 L -68.453622,44.150044 L -68.4579,44.144245 L -68.455539,44.136922 L -68.447505,44.133493 L -68.448646,44.125581 L -68.438518,44.11618 L -68.423912,44.120362 L -68.418834,44.130611 L -68.403111,44.135089 L -68.392505,44.142106 L -68.394626,44.151689 L -68.392877,44.154181 L -68.383268,44.155842 L -68.394076,44.165797 L -68.394677,44.169652 L -68.402045,44.172039 L -68.408207,44.176298 L -68.413216,44.187721 L -68.422961,44.186528 L -68.4251,44.182267 L -68.421772,44.174937 L -68.435796,44.168118 L -68.448155,44.172891 L -68.445303,44.175619 L -68.451482,44.191641 L -68.461913,44.190843 L -68.470259,44.180903 L -68.480225,44.180795 L -68.475726,44.170334 L -68.477865,44.160787 L -68.483807,44.162151 L -68.487036,44.170734 L -68.49426,44.166631 L -68.496075,44.162116 L -68.501008,44.15982 L -68.501158,44.153966 Z M -68.518703,44.113222 L -68.517725,44.104678 L -68.508288,44.10159 L -68.500445,44.101932 L -68.501395,44.105857 L -68.491521,44.109833 L -68.492892,44.116921 L -68.502346,44.127016 L -68.511266,44.125082 L -68.518703,44.113222 Z M -68.530394,44.333583 L -68.533481,44.329958 L -68.525112,44.324 L -68.515173,44.324797 L -68.500207,44.323227 L -68.491423,44.311783 L -68.478785,44.319563 L -68.478816,44.324928 L -68.484911,44.328025 L -68.488085,44.332409 L -68.485953,44.340568 L -68.491175,44.355866 L -68.498637,44.369686 L -68.501364,44.382281 L -68.50766,44.385219 L -68.518573,44.381022 L -68.52193,44.367591 L -68.520671,44.358357 L -68.528635,44.344605 L -68.530394,44.333583 Z M -68.552972,44.227588 L -68.544891,44.220264 L -68.538473,44.225885 L -68.549882,44.22844 L -68.552972,44.227588 Z M -68.589337,44.231335 L -68.587198,44.226396 L -68.578166,44.226736 L -68.581493,44.232357 L -68.589337,44.231335 Z M -68.610253,44.143136 L -68.608589,44.137166 L -68.601458,44.138702 L -68.602409,44.142113 L -68.610253,44.143136 Z M -68.621186,44.15064 L -68.617621,44.145354 L -68.612154,44.146036 L -68.611743,44.155246 L -68.617383,44.156438 L -68.621186,44.15064 Z M -68.627365,44.125225 L -68.623099,44.119406 L -68.615006,44.120448 L -68.608542,44.126714 L -68.618809,44.130343 L -68.62071,44.126419 L -68.627365,44.125225 Z M -68.634971,44.151323 L -68.633783,44.145012 L -68.626652,44.151493 L -68.634971,44.151323 Z M -68.731618,44.22269 L -68.71959,44.211009 L -68.719348,44.206635 L -68.731666,44.202246 L -68.724319,44.197722 L -68.713881,44.19965 L -68.712217,44.190277 L -68.717829,44.18709 L -68.719892,44.181189 L -68.718397,44.176642 L -68.721252,44.171016 L -68.710316,44.168118 L -68.704611,44.164197 L -68.709055,44.157423 L -68.698152,44.158097 L -68.697294,44.155421 L -68.687257,44.152289 L -68.681899,44.138212 L -68.666236,44.134953 L -68.668009,44.152261 L -68.651371,44.154818 L -68.641389,44.157888 L -68.638536,44.165561 L -68.64638,44.165902 L -68.64329,44.173403 L -68.627919,44.169689 L -68.61358,44.184312 L -68.617858,44.191641 L -68.620473,44.200161 L -68.605261,44.205102 L -68.602409,44.210384 L -68.596705,44.204932 L -68.589099,44.201865 L -68.591,44.19573 L -68.600745,44.194367 L -68.600983,44.191981 L -68.579445,44.185263 L -68.567946,44.188573 L -68.564143,44.191641 L -68.564856,44.205613 L -68.57674,44.209361 L -68.583632,44.214643 L -68.582444,44.219923 L -68.602647,44.222989 L -68.605024,44.233889 L -68.609216,44.244495 L -68.618096,44.248703 L -68.624751,44.258747 L -68.629267,44.256534 L -68.638965,44.264105 L -68.648994,44.265726 L -68.654699,44.263003 L -68.6566,44.269641 L -68.662542,44.269981 L -68.670623,44.279852 L -68.675852,44.280702 L -68.678704,44.264705 L -68.691766,44.254665 L -68.69731,44.247076 L -68.698907,44.241722 L -68.698432,44.233038 L -68.704173,44.234469 L -68.716722,44.230514 L -68.731618,44.22269 Z M -68.743174,44.301546 L -68.737858,44.29688 L -68.727533,44.291236 L -68.727729,44.285358 L -68.7197,44.281002 L -68.711018,44.274117 L -68.702036,44.271024 L -68.689901,44.276259 L -68.690265,44.28176 L -68.686435,44.283948 L -68.694779,44.291606 L -68.704713,44.292796 L -68.705486,44.295711 L -68.728308,44.304686 L -68.733822,44.308616 L -68.739867,44.307712 L -68.743174,44.301546 Z M -68.757456,44.270597 L -68.757648,44.26879 L -68.747653,44.261653 L -68.74579,44.266862 L -68.757456,44.270597 Z M -68.764744,44.245639 L -68.760704,44.239849 L -68.749771,44.242914 L -68.753024,44.246192 L -68.762407,44.248026 L -68.764744,44.245639 Z M -68.787324,44.211406 L -68.782472,44.207262 L -68.777512,44.207235 L -68.769099,44.213978 L -68.767616,44.217271 L -68.77442,44.2194 L -68.787324,44.211406 Z M -68.799446,44.235933 L -68.796422,44.228209 L -68.785528,44.224827 L -68.78389,44.231431 L -68.792125,44.236647 L -68.799446,44.235933 Z M -68.831439,44.233743 L -68.82813,44.229101 L -68.821312,44.228951 L -68.819957,44.235436 L -68.815608,44.237806 L -68.818222,44.243255 L -68.827624,44.240352 L -68.831439,44.233743 Z M -68.942291,44.284361 L -68.939914,44.279596 L -68.928268,44.28385 L -68.924465,44.28351 L -68.925654,44.276193 L -68.921613,44.272279 L -68.922088,44.266833 L -68.927317,44.265131 L -68.924227,44.258833 L -68.926367,44.244872 L -68.931478,44.236689 L -68.918761,44.239253 L -68.912581,44.244532 L -68.913704,44.251836 L -68.906419,44.258902 L -68.907653,44.264215 L -68.903074,44.279937 L -68.886436,44.304435 L -68.893804,44.305966 L -68.899746,44.311919 L -68.899984,44.31566 L -68.893788,44.317583 L -68.897288,44.326634 L -68.890952,44.326713 L -68.892841,44.33202 L -68.890682,44.336396 L -68.883585,44.338072 L -68.872406,44.343966 L -68.864103,44.354877 L -68.865454,44.358584 L -68.86044,44.364907 L -68.864818,44.366902 L -68.86457,44.374811 L -68.868444,44.38144 L -68.88192,44.386363 L -68.882158,44.379568 L -68.885486,44.377869 L -68.898457,44.380258 L -68.90353,44.378613 L -68.911634,44.365027 L -68.911913,44.353443 L -68.908833,44.351366 L -68.908837,44.345361 L -68.912581,44.339804 L -68.919474,44.337594 L -68.918048,44.324503 L -68.909254,44.329773 L -68.902599,44.324503 L -68.913532,44.317531 L -68.916161,44.312075 L -68.928197,44.303227 L -68.93121,44.293438 L -68.940627,44.289295 L -68.942291,44.284361 Z M -68.951942,44.219623 L -68.943955,44.22069 L -68.939677,44.226481 L -68.937775,44.233974 L -68.932546,44.241637 L -68.931833,44.248618 L -68.94039,44.244872 L -68.938488,44.238402 L -68.951942,44.219623 Z M -68.965584,44.255428 L -68.966841,44.250892 L -68.957744,44.246729 L -68.945856,44.248278 L -68.9373,44.255088 L -68.937062,44.259513 L -68.945143,44.261726 L -68.933497,44.269556 L -68.936349,44.275682 L -68.9537,44.272789 L -68.956314,44.261556 L -68.962732,44.261386 L -68.965584,44.255428 Z" fill="none" stroke=currentColor stroke-width="1" vector-effect="non-scaling-stroke"/>
</svg>