<?xml version="1.0"?>
<svg width="20" height="20" xmlns="http://www.w3.org/2000/svg" version="1.2" baseProfile="tiny" viewBox="-307.600 -97.600 1415.200 1415.200" stroke-linecap="round" stroke-linejoin="round">
<g id="state">
<path d="M 57.74 1195.53 57.34 1191.47 51 1191.74 50.02 1190.56 47.5 1189.95 46.01 1187.06 44.47 1185.86 42.83 1185.38 42.05 1184.11 39.03 1181.5 38.04 1180.3 34.08 1177.28 33.22 1175.5 33.14 1173.81 32.44 1171.49 33.46 1168.13 33.78 1164.89 34.65 1163.88 33.85 1160.04 35.43 1159.12 35.48 1156.61 36.43 1152.67 37.83 1149.98 36.2 1146.42 34.45 1145.02 32.16 1145.01 32.05 1142.79 31.38 1141.95 28.06 1140.83 27.9 1139.57 26.15 1138.61 25.37 1137.05 23.72 1136.75 23.68 1135.01 22.8 1133.95 20.86 1133.09 19.58 1130.02 21.11 1129.61 19.61 1127.36 18.22 1126.25 17.45 1124.86 16.77 1122.39 14.57 1121.04 14.43 1119.92 12.68 1119.27 10.13 1119.75 9.33 1119.36 9.04 1117.89 7.22 1116.61 7.31 1115.31 6.16 1115.13 6.46 1113.8 5.31 1112.65 6.06 1111.55 4.03 1107.16 3.79 1103.15 4.69 1102.84 4.18 1100.97 4.07 1097.54 5.11 1095.82 6.46 1095.37 7.79 1093.52 7.73 1092.13 8.94 1091.58 9.28 1089.74 8.46 1088.49 8.42 1086.98 9.71 1083.5 8.93 1081.56 6.9 1080.48 8.4 1079.44 8.09 1077.99 9.12 1076.04 9.15 1075.06 10.28 1074.44 10.79 1070.82 11.42 1069.1 10.81 1067.52 10.75 1065.78 9.83 1064.94 9.74 1063.66 11.9 1061.98 12.32 1060.35 11.52 1059.63 11 1057.49 9.89 1056.82 9.28 1055.32 8.09 1054.99 7.87 1035.5 7.35 1019.68 7.39 1016.39 7.13 1004.37 6.66 994.47 6.9 979.59 6.81 968.78 6.95 963.34 6.94 951.76 6.83 931.82 6.9 927.56 6.77 920.64 6.72 901.7 6.66 892.96 6.77 882.88 6.66 876.27 6.64 859.99 6.52 855.6 6.53 844.7 6.37 836.37 6.25 819.86 5.84 792.96 5.69 787.8 5.76 767.9 5.51 747.07 5.16 728.36 4.73 711.55 4.51 707.57 4.13 693.11 3.22 667.28 3.19 660.72 2.4 624.72 1.94 608.89 1.81 596.32 1 581.24 2.74 580.86 5.82 579.13 7.11 579.9 9.04 579.43 10.94 580.3 11.33 579.61 13.04 579.18 15.63 577.94 16.93 575.56 15.35 574.02 15.02 571.02 16.56 570.82 20.26 574.63 22.52 574.23 23.66 574.65 24.89 573.45 26.59 572.86 27.86 576.57 28.97 578.1 30.74 578.62 31.23 579.62 32.99 580.5 32.57 582.24 33.99 584.79 32.65 587.19 32.01 589.31 32.99 589.91 33.93 591.94 35.07 593.23 34.75 594.27 36.29 595.26 36.9 596.87 36.19 599.08 38.71 601.67 40.65 601.95 44.05 603.39 47.64 601.2 45.86 599.2 46.27 596.95 45.77 596 45.96 594.12 47.84 592.59 48.38 590.83 49.37 589.79 49.81 586.85 48.72 585.9 50.84 584.84 52.46 584.81 53.24 583.77 52.99 581.94 54.03 581.17 54.59 578.47 54.17 576.61 53.33 576.67 52.37 575.4 52.17 572.98 52.89 571.8 54.09 571.06 53.26 568.89 54.16 568.52 54.63 567.05 55.59 566.66 54.91 563.23 53.86 561.57 53.63 560.38 51.49 558.82 51.46 556.89 52.7 555.79 54.02 553.88 54.32 552.64 56.09 552.2 57.56 549.47 58.97 549.96 60.14 548.75 62.7 549.52 63.42 550.24 65.18 549.65 66.04 550.91 67.28 551.67 67.27 554.17 69.7 556.24 69.82 557.67 73.21 560.19 74.53 559.43 76.18 559.81 79.74 559.33 82.95 561.78 82.96 563.81 84.94 564.13 88.02 562.46 87.25 561.01 88.35 558.51 90.32 557.99 90.26 556.42 89.01 556.04 88.11 554.68 89.68 552.13 89.14 550.71 87.08 549.29 85.39 545.66 83.05 545.15 80.8 543.49 79.61 543.52 79.54 540.92 77.9 540.36 77.48 539.48 77.73 537.44 76.27 536.12 74.67 535.56 72.85 532.96 74.13 530.83 74.08 529.74 72.3 528.64 71.93 527.42 72.32 526.14 74.35 525 75.41 522.68 76.55 521.31 77.37 519.38 79.2 517 81.11 516.26 78.96 513.63 79.88 511.67 81.06 511.27 82.29 509.12 84.78 506.9 85.84 505.31 87.64 501.62 89.61 500.7 92.65 500.25 93.09 499.03 94.75 497.64 95.19 496.51 98.19 495.36 98.46 494.4 100.45 491.84 103.36 488.76 103.62 486.69 104.78 485.61 107.91 485.72 109.41 484.68 110.78 485.89 112.03 485.18 112.89 483.6 117.32 479.87 119.95 478.34 121.97 476.53 122.59 475.3 124.35 475.15 125.46 476 127.7 476.07 129.44 475.2 129.59 474.42 131.82 473.6 135.22 471.93 135.91 469.54 137.24 469.58 138.53 467.87 137.39 467.52 136.5 465.58 137.7 463.67 136.32 461.88 135.3 461.56 134.32 460.34 134.58 456.41 132.55 451.24 134.27 450.66 135.86 451.06 136.53 450.42 136.49 447.84 138.23 446.17 138.24 444.94 141.85 441.68 141.45 440.79 143.78 440.55 147.2 436.04 151.45 435.21 153.76 434.39 158.15 431.04 160.37 428.86 160.55 428.09 162.68 426.6 162.01 425.14 164.3 422.72 164.42 421.39 163.37 420.83 163.73 418.42 162.67 416.82 164.7 414.42 167.26 412.59 167.15 411.71 164.82 408.29 164.28 409.03 162.48 406.22 161.14 406.61 160.21 405.16 158.11 405.93 156.18 406.04 154.89 405.48 153.61 406.17 153.78 403.02 154.65 401.8 154.68 400.62 157.05 399.73 158.68 398.03 157.46 396.67 155.63 396.22 154.96 393.1 152.89 390.6 156.03 388.39 156.49 385.5 160.31 381.74 160.63 379.75 159.51 378.88 157.85 379.41 155.31 379.18 154.51 378.3 156.19 375.78 156.53 373.17 158.25 372.16 158.64 370.25 159.6 368.71 162.37 368.49 165.46 368.96 165.75 366.82 165.32 366.24 166.09 363.95 167.59 361.06 169.05 356.27 168.37 355.25 167.1 354.72 166.07 352.99 163.87 351.16 163.56 349.88 161.36 348.29 159.04 345.33 158.7 343.73 159.6 343.09 161.58 340.5 162.93 338.25 162.37 337.33 163.49 336.43 164.52 333.61 165.04 333.3 166.1 329.05 166.87 328.31 166.33 326.83 167.52 323.3 169.28 320.97 169.21 320.05 170.6 318.64 170.91 316.82 174.12 315.74 175.79 314.54 175.77 311.93 176.39 310.73 175.66 309.24 175.66 305.95 177.88 303.47 178.76 301.48 180.64 300.36 181.87 298.78 183.65 298.98 184.47 298.11 186.88 298.66 188.51 297.39 189.33 295.74 191.07 295.5 191.02 293.33 191.42 292.63 194.28 291.39 194.71 289.99 196.29 288.07 196.41 286.17 197.46 285 200.89 285.17 204.62 283.29 211.03 245.03 211.31 243.16 217.28 207.49 227.21 193.45 246.86 165.84 268.17 135.9 295.48 97.52 306.2 82.49 323.8 57.77 344.73 28.41 364.23 1 368.29 3.07 369.51 2.19 370.5 2.73 372.73 1.91 375.32 3.46 378.63 4.08 384.81 7.09 385.84 8.97 387.44 8.97 388.64 10.12 390.62 11.03 393.03 10.05 393.85 8.53 394.88 8.62 396.11 10.3 397.53 10.05 398.38 12.09 397.83 13.1 399.06 13.63 398.8 15.23 399.46 16.36 397.73 17.58 397.16 20.2 398.18 21.38 397.01 21.94 395.51 24.06 395.51 37.17 395.3 40.65 396.31 43.2 395.53 45.6 396.19 47.71 395.98 50.71 396.7 52.59 395.95 56.7 397.77 59.85 399.08 61.12 401.29 62.14 408.97 66.7 409.3 67.37 411.56 68.74 412.53 70.69 413.98 70.38 414.64 71.64 415.97 70.57 418.57 73.19 420.12 73.65 420.17 75.01 422.1 76.05 422.93 77.61 425.02 76.97 427.18 76.96 429.27 75.29 431.79 74.96 433.29 73.27 436.63 71.28 440.35 68.23 441.7 68.17 445.96 66.63 448.27 66.61 451.45 65.2 454.64 62.74 455.5 62.67 458.26 61.27 459.97 62.1 462.32 60.67 465.68 60.88 467.93 62.56 469.46 61.82 471.08 61.68 473.16 60.9 476.42 60.62 478.3 59.62 480.89 56.43 480.12 53.32 481.11 52.23 481.65 50.49 483.76 48.59 488.99 50.07 491.05 49.18 492.77 47.29 494.97 46.3 497.62 46.27 500.04 46.88 502.93 45.96 504.95 47.29 505.97 49.47 507.77 50.1 509.03 49.7 511.28 50.29 514.01 48.61 514.95 48.45 518.67 49 520.91 48.61 521.49 47.63 521.21 46.48 519.77 44.76 520.33 42.37 519.67 38.97 520.47 34.37 522 31.73 523.62 30.26 525.43 29.62 530.01 28.78 534.35 30.08 537.11 28.8 539.12 29.04 541.82 30.89 544.98 30.9 547.46 30.09 549.31 31.41 549.49 32.89 551.78 34.49 553.45 34.34 558.3 37.18 561.33 37.66 562.73 39.17 562.48 41.42 562.78 42.43 565.62 46.1 567.28 46.63 568.62 48.45 574 51.42 575.89 52.9 577.44 56.13 580.21 57.23 583.93 59.57 588.17 62.79 590 64.96 591.52 67.51 593.11 69.43 596.1 70.27 598.99 72.11 600.3 74.35 600.27 76.63 602.68 80.14 603.22 81.68 604.81 84.37 608.08 86.47 609.09 89.08 611.03 90.98 611.85 92.72 612.07 96.56 613.2 98.12 615.77 99.13 619.61 101.08 621.53 102.58 625.36 104.15 626.59 105.71 630.5 108.13 630.8 126.15 631.09 151.55 631.22 166.37 631.31 182.38 631.45 190.11 632.04 235.05 633.13 277.85 633.53 297.46 634.04 324.64 634.32 348.4 634.61 372.95 634.9 397.96 635.02 414.6 635.65 416.93 636.5 416.94 637.98 418.8 640.67 421.23 639.97 423.21 638.2 424.28 637.51 425.56 637.51 426.99 635.53 427.78 634.36 427.65 630.85 431.16 630.74 433.19 631.18 435.32 632.27 435.87 632.45 437.63 634.9 441.04 636.85 442.34 638.34 444.34 638.63 445.83 640.22 447.27 638.07 448.65 635.92 448.48 635.48 449.3 631.41 452.79 630.55 455.21 631.13 458.91 630.82 462.01 630.12 462.67 630.7 465.93 633.23 467.23 635.42 472.49 630.08 473.06 631.44 482.09 628.6 482.75 631.42 487.12 638.08 487.11 640.85 489.8 642.73 488.3 644.72 490.54 647.37 491.18 647.78 489.62 645.34 486.89 644.56 483.92 645.89 484.05 647.79 486.49 648.7 486 650.96 489.28 651.65 491.86 652.96 493.51 652.69 494.37 655.22 497.7 656.03 499.63 657.77 501.39 658.4 501.12 661.8 504.39 662.91 503.63 662.07 501.71 663.04 501.16 664.39 502.17 668.91 506.25 672.5 506.05 673.79 507.26 677.88 509.28 678.91 508.64 680.9 508.52 683.12 509.24 686.07 511.13 689.94 511.34 691.93 509.13 691.47 507.46 694.08 506.58 695 507.49 696.37 506.71 697.98 506.41 699.27 506.9 699.8 508.49 702.96 511.86 704.03 513.4 704.42 515.1 703.5 516.02 703.9 518.26 704.77 519.35 705.02 521.13 704.2 523.66 702.89 523.61 702.42 527.11 702.86 529.39 705.22 531.72 704.55 533.17 702.96 533.75 699.62 533.5 698.45 534.25 697.13 532.51 695.7 533.45 695.57 535.65 692.17 536.84 692.07 537.9 690.18 537.42 689.38 538.61 689.93 540.73 692.42 543.53 693.58 545.92 693.09 546.95 693.34 548.72 694.45 549.52 694.02 551.05 695.31 555.43 697.64 556.07 698.25 557.98 700.51 560.2 704.46 564.83 704.62 566.09 705.97 568.28 703.7 570.04 703.09 571.65 703.28 572.77 704.76 573.6 703.72 575.79 704.25 577.27 701.75 579.93 701.13 581.13 699.58 581.69 698.91 582.54 699.84 584.09 699.65 585.51 698.81 586.77 698.31 589.31 696.9 589.7 697.27 591.02 695.62 591.73 693.35 592.03 692.81 594.22 693.87 595.05 694.25 596.2 695.31 596.29 696.07 600.78 697.93 604.67 699.83 605.44 701.1 607.65 702.53 609.26 703.1 611.26 704.96 616.13 704.75 618.42 706.87 619.32 709.16 622.32 710.36 622.7 710.62 625.02 709.56 625.56 709.61 627.48 711.94 628.97 714.35 629.64 716.33 632.38 718.92 634.62 719.6 635.72 722.22 636.66 724.14 634.98 725.83 635.04 726.48 633.18 726.01 632.01 728.03 631.62 730.18 630.79 730.93 628.89 729.49 627.97 729.29 626.85 729.89 624.72 731.38 624.13 730.92 622.3 731.48 619.61 732.83 618.44 735.44 618.7 736.96 619.44 738.3 620.78 739.94 621.33 740.75 623.57 742.64 624.61 743.81 626 748.27 623.77 750.89 625.29 755.25 625.51 757.15 626.42 759.62 630.33 762.91 634.23 766.17 639.54 769.81 649.76 770.56 651.41 767.67 652.25 767.18 653.99 765.44 654.76 768.96 657.9 769.71 659.44 767.76 661.17 771.27 660.64 772.45 662.04 773.88 664.84 774.35 667.81 775.26 669.79 777.97 673.63 778.98 677.02 777.22 678.56 780.19 679.84 781.04 681.24 781.33 684.84 782.45 685.12 782.29 686.33 786.03 687.03 786.69 688.12 786.04 690.1 787.94 690.8 788.14 691.44 790.64 692.2 791.92 693.62 792.21 694.95 792.07 697.52 790.03 699.3 790.93 701.82 791.52 702.4 792.39 707.21 793.07 709.03 790.6 710.93 789.93 712.18 791.51 714.17 791.26 715.87 791.52 717.52 792.84 721.18 795.89 719.05 798.67 718.72 799 720.22 797 722.24 795.27 722.7 794.05 722.01 791.55 724.66 790.01 727.45 787.7 727.85 787.23 730.33 784.86 731.63 784.56 733.13 781.23 734.04 780.35 735.12 779.8 732.73 778.64 732.29 776.25 733.07 777.6 734.01 777.82 735.58 777.21 737.7 776.05 737.86 775.5 740.45 773.56 741.05 771.78 740.31 769.55 741.11 770.64 742.79 770.1 744.38 769.61 747.4 768.65 748.89 767.05 748.8 766.88 751.44 766.04 751.62 764.95 753.32 762.94 753.79 761.26 756.47 759.95 760.49 760.08 760.85 757.12 762.54 754.79 762.14 753.85 762.45 752.82 764.41 753.38 767.12 748.81 768.92 744.69 769.53 742.55 768.55 742.25 765.7 743.3 761.76 742.13 760.86 738.63 761.56 737.06 762.32 738.09 765.99 737.6 767.29 737.81 768.86 739.34 769.06 740.81 771.39 740.13 772.37 738.68 771.38 736.97 772.61 736.79 773.41 734.41 773.29 734.52 771.67 733.64 771.46 732.87 769.76 733.31 766.64 731.75 766.19 732.12 765.04 729.93 763.72 727.38 763.57 727.86 762.59 730.23 763.16 730.02 759.75 730.81 758.26 730.13 755 731.62 753.49 731.77 751.04 729.95 750.59 725.9 751.88 725.36 752.67 723.61 752.97 720.14 752.89 719 754.54 719.96 756.25 718.75 756.36 717.53 755.09 715.46 755.85 714.33 753.98 712.91 754.69 713.25 756.58 711.28 757.89 712.26 758.57 714.16 758.27 714.31 759.14 716.2 758.61 716.07 760 714.42 760.29 714.81 762.27 716.39 762.23 717.38 762.91 718.5 764.85 719.81 769.07 719.61 771.37 718.64 773.33 716.86 774.7 715.07 772.75 714.51 773.8 714.63 776.16 713.32 776.61 713.19 778.9 711.51 781.73 710.86 781.65 708.86 779.25 708.51 778.05 708.46 775.18 706.8 772.29 708.55 771.39 707.08 769.01 706.17 770.04 705 768.9 702.89 770.59 703.43 772.8 705.1 773.14 705.17 774.9 706.72 776.58 706.19 778.34 705.36 778.91 703.69 778.65 703.1 780.18 700.88 780.03 699.49 779.4 699.75 778.47 697.94 778.31 696.75 777.33 694.8 778.4 693.61 776.34 694.5 775.48 694.22 772.51 693.41 771.4 691.82 770.36 688.52 771.43 688.3 773.21 687.01 774.49 684.54 773.26 682.81 775.16 682.75 777.39 681.53 776.62 681.09 778.01 682.14 780.72 680.96 783.36 680.57 785.86 679.72 786.93 679.5 789.38 678.57 791.29 680.47 793.79 681.58 796.93 680.6 798.15 680.68 799.07 678.04 799.7 674.88 799.09 674.06 799.84 672.57 799.76 670.77 800.47 666.23 800.66 663.45 800.96 662.77 797.9 659.52 797.28 658.79 798.49 657.81 797.67 655 798.87 653.79 800.48 654.6 801.35 654.74 805.51 653.18 807.42 653.42 808.16 651.84 809.87 649.92 808.54 647.76 809.18 645.92 808.88 646.14 803.6 645.64 799.68 644.18 797.57 643.56 795.4 642.77 794.86 639.82 795.29 639.63 796.45 638.58 798.17 638.75 802.05 639.42 804.36 638.27 804.16 637.28 802.99 636.07 803.05 634.31 801.75 633.91 799.92 633.88 796.64 631.24 796.99 630.36 796.44 630.81 794.77 629.08 793.45 629.03 792.2 626.98 791.2 625.4 791.17 624.81 792.65 625.7 793.57 626.56 796.33 624.77 798.57 624.83 800.51 622.11 802.1 623.41 803.1 624.08 805.64 624.69 806.42 624.62 809.01 625.18 809.52 624.82 812.47 622.95 815.59 620.5 816.3 619.64 813.63 618.94 812.66 617.04 813.6 618.18 816.09 618.19 817.48 618.99 819.69 619.88 820.7 618.91 821.36 617.73 824.19 618.24 825.02 617.75 826.64 617.85 829.15 616.81 832.29 617.55 833.36 616.41 834.57 615.44 836.91 613.65 831.35 613.09 830.98 613.2 827.69 612.73 826.72 613.57 821.49 612.12 819 610.67 818.41 610.51 822.3 608.44 822.41 609.5 824.19 609.87 826.14 609.09 829.48 609.3 832.42 608.16 832.9 606.23 831.07 604.82 827.99 603.79 822.9 603.96 821.05 601.66 816.48 599.19 815.71 597.31 819.24 595.54 817.91 594.89 818.47 593.35 817.04 593.44 815.15 591.76 814.42 590.51 815.12 591.04 818.86 592.44 819.78 593.05 821.11 596.26 821.74 596.45 822.67 599.44 824.59 600.62 827.92 601.05 830.09 601.84 830.59 601.53 832.82 603.02 833.18 604.06 836.09 601.79 837.03 600.64 838.19 600.09 840 599.21 840.06 597.11 836.93 595.21 832.86 593.96 832.31 593.74 834.95 592.44 834.86 592.17 836.16 593.28 838.5 593.26 839.68 591.03 842.43 590.59 844.69 591.2 846.03 591.09 847.69 589.25 845.95 587.12 847.35 587.13 849.63 587.67 851.23 587.34 853.7 586.46 854.77 585.61 852.88 584.3 854.44 582.99 853.43 581.2 850.11 580.82 843.26 581.42 842.43 580.84 839.05 579.55 839.66 577.59 839.39 578.86 842.26 578.82 843.6 577.86 843.85 576.21 841.48 575.64 839.12 576.47 838.15 574.05 835.51 573.8 833.48 574.53 831.35 573.27 828.62 572.51 823.5 572.58 819.72 573.22 819.14 573.39 817.43 572.18 814.43 570.14 815.27 568.66 814.57 568.64 811.99 568.22 810.88 566.36 809.23 564.27 808.4 564.46 809.88 563.08 812.43 564.34 815.94 562.49 816.85 557.9 816.41 558.87 815.45 560.63 815.54 559.39 813.58 559.27 812.08 558.22 811.82 557.41 810.56 556.44 806.03 557.02 805.29 556.46 803.3 554.55 803.27 554.38 805.16 553.23 808.86 553.19 810.57 551.66 810.58 552.14 812.31 550.97 814.46 552.19 818.16 551.1 818.72 548.38 816.23 546.47 813.18 544.94 812.03 544.24 812.27 544.57 814.3 543.55 816.57 542.26 816.25 540.91 816.76 540.26 815.98 538.77 815.75 538.45 816.54 540.46 820 541.38 819.12 543.2 820.36 541.9 820.83 541.12 822 537.68 822.5 535.44 820.43 532.8 819.09 531.64 821.36 531.6 822.52 528.72 821.78 527.41 820.4 526.81 821.32 526.68 824.1 525.24 825.26 524.18 827.62 525.85 828.87 527.66 828.4 528.08 830.02 529.94 830.11 531.01 828.81 531.05 826.54 533.64 823.99 534.99 823.99 537.51 825.74 538.45 827.07 540.47 826.94 543.49 825.22 547.6 826.97 548.18 827.89 548.47 830.57 547.13 832.01 549.18 833.49 551.93 836.44 553.61 837.73 553.87 838.63 556.22 838.1 557.52 839.73 559.05 843.14 559.96 844.42 560.47 846.22 560.34 847.76 560.95 849.8 561.95 850.94 561.76 854.52 561.42 856.33 560.37 855.45 559.03 858.42 559.16 861.28 556.85 861.77 556.53 862.98 554.12 864.38 553.46 863.64 552.26 865.96 550.96 866.62 549.98 866.29 549.32 864.44 548.67 864.54 547.56 866.5 546.53 865.33 545.37 866.59 541.99 865.76 541.08 862.74 540.12 864.31 540.91 864.88 541.3 867.03 538.49 866.98 537.32 864.89 535.64 864.11 534.06 864.9 533.5 866.62 535.56 869.4 534.77 871.44 536.87 871.67 538.38 873.78 539.21 878.02 537.91 879 537.26 880.67 535.96 880.81 535.39 882.93 534.02 883.77 531.55 883.91 530.84 884.82 529.73 884.38 529.01 882.58 527.34 880.51 525.71 881.25 525.58 883.13 524.81 883.44 523.85 881.91 524.65 880.31 523.79 878.83 522.17 877.67 519.9 878.33 518.9 876.99 516.97 875.96 516.43 875.18 516.98 874.02 515.72 872.85 514 870.3 515.31 870.36 516.24 868.41 514.74 867.2 513.21 867.76 512.46 866.28 512.73 864.72 511.78 863.76 511.8 859.95 515.49 857.31 516.45 853.24 515.1 852.74 514.53 854.28 513.6 853.54 514.5 852.55 514.47 851.22 515.89 848.04 516.63 847.92 518.49 845.94 518.69 844.41 518.2 842.6 519.96 841.43 522.25 840.96 522.29 838.6 524.01 837.85 524.9 839.12 526.33 838.22 526.75 835.95 525.21 834.61 523.95 830.49 522.55 829.52 521.11 827.12 519.21 826.47 519.57 828.64 519.26 831.18 517.07 833.76 516.01 834.34 515.22 836.24 513.55 837.09 511.79 836.94 511.18 835.7 512.05 833.56 511.18 832.31 511.66 827.5 512.52 824.81 511.87 820.65 512.33 816.95 513.53 816.81 512.79 814.68 512.97 813.06 512.83 809.32 512.04 809.41 510.51 811.54 510.51 813.58 506.86 812.45 504.71 811.5 503.51 812.47 504.34 813.81 504.44 817.46 506.39 821.44 506.39 823.29 505.6 824.31 503.88 825.14 505 826.9 506.39 830.65 506.53 834.03 505.28 836.65 505.25 838.55 505.71 839.86 505.66 841.74 502.42 841.86 501.52 839.35 502.26 836.21 503.57 835 502.07 827.78 502.96 827.64 502.81 823.85 503.28 822.18 502.21 821.35 500.82 823.85 500.35 827.29 499.52 827.36 499.19 829.73 498.32 832.26 497.17 832.94 495.42 832.49 494.15 833.92 492.83 836.53 491.51 836.72 487.49 835.11 486.34 835.34 485.27 837.63 485.6 840.15 486.83 841.71 486.66 843.12 488.47 843.81 489.37 848.39 487.72 850.77 487.54 852.17 485.89 854.38 485.98 856.26 485.16 858.58 485.73 861.2 488.23 864.03 488.44 865.59 491.14 865.77 490.7 863.41 492.21 863.27 491.94 867.11 492.63 868.42 492.65 869.9 494.54 872.87 494.49 874.54 493.19 874.4 492.26 873.62 490.58 873.66 487.42 870.5 487.18 872.17 487.83 874.59 489.93 874.73 491.79 875.84 492.42 877.13 492.74 879.4 493.84 880.58 493.79 882.99 491.48 882.66 488.06 880.72 488.71 878.77 486.99 878.12 483.13 875.88 481.45 874.4 480.8 873.28 478.01 870.27 475.94 870.13 473.86 869.05 473.63 867.04 474.95 865.12 473.93 862.8 472.58 864.52 472.8 866.61 472.35 867.07 470.13 866.16 468.94 866.2 467.86 865.41 465.73 865.19 464.75 864.63 463.12 862.5 462.12 864.35 461.17 864.25 459.55 862.02 459.69 860.95 454.09 857.44 452.58 855.97 452.58 854.93 451.42 854.28 449.19 855.29 446.98 855.24 444.63 858.17 441.92 858.33 441.32 860.53 440.49 861.14 437.34 860.74 434.2 859.95 434.13 857.51 435.69 855.98 434.57 853.84 435.38 850.85 435.35 849.08 436.11 848.79 436.68 846.31 436.47 845.17 437.7 843.11 437.52 841.16 435.71 841.06 435.45 837.73 437.07 837.18 437.31 836.21 436.05 835.46 435.35 834.07 436.31 829.07 437.3 827.73 439.33 826.52 439.76 822.68 441.38 821.52 442.93 823.17 443.03 821 442.25 818.73 442.87 815.88 444.03 812.86 444.04 810.18 442.52 805.46 440.86 803.28 440.27 801.71 438.59 802.12 438.02 806.28 438.67 807.34 437.78 809.84 436.9 809.65 434.29 811.3 432.94 812.82 432.84 813.79 434.55 816.48 434.73 817.41 437.15 816.77 437.51 817.97 435.45 818.26 433.98 819.02 433.56 820.18 431.23 821.9 428.14 823.72 424.96 827.8 423.17 828.28 421.91 825.58 421.67 823.65 420.7 822.13 418.62 822.01 415.92 820.47 414.89 821.94 414.72 823.53 413.88 825.35 412.54 826.56 411.56 828.15 410.31 827.56 407.11 828.27 405.98 828.88 403.1 828.86 402.04 828.02 400.88 828.85 401.63 829.77 404.13 836.18 402.91 837.61 403.88 839.66 404.64 839.57 406.88 841.01 409.14 844.46 410.58 847.91 410.22 852.24 409.3 856.59 408.42 859.22 407.52 860.87 404.22 864.52 403.74 863.62 401.31 863.76 399.62 864.56 400.12 865.64 398.92 867.86 399.31 870.15 396.94 874.77 394.71 876.96 394.07 878.74 392.36 881.13 391.68 883.48 391.82 886.17 391.1 887.01 389.47 887.16 388.58 888.12 389.46 889.39 390.01 891.4 388.96 894.94 389.43 898.05 388.11 899.69 387.86 897.79 386.02 894.52 385.77 896.84 384.22 902.04 384.76 903.67 383.93 906.82 381.82 907.88 385.18 908.09 385.07 910.74 383.96 913.29 383.18 913.66 381.88 912.53 380.24 912.89 379.53 914.61 380.21 916.26 379.28 917.03 380.14 919.23 378.93 920.05 380.69 922.11 382.49 921.51 384.98 920.08 387.43 919.81 388.95 918.87 391.48 919.71 390.74 921.34 389.76 921.57 389.51 923.75 388.23 925.93 387.33 925.74 386.09 927.13 386.25 928.85 384.89 928.66 384.25 929.72 385.42 932.21 384.77 933.27 381.4 934.14 380.59 935.2 377.65 936.86 377.21 937.97 374.69 940 376.04 943.78 378.19 944.64 377.57 946.22 375.07 945.81 374.78 944.05 373.09 944.55 373.22 945.53 371.94 947.39 371.89 948.37 374.83 949.42 375.5 950.44 373.92 951.23 371.45 950.28 370.48 948.54 370.5 946.96 369.61 946.81 368.2 947.62 367.86 944.93 366.76 945.9 366.31 947.15 364.94 948.57 365.36 950.93 363.82 951.47 363.36 953.42 363.41 955.62 362 956.1 361.44 957.7 359.63 960.46 358.09 961.76 357.4 963.46 356 962.65 354.45 963.2 351.61 963.5 351.9 964.85 348.25 967.02 345.72 967.86 344.66 967.45 344.59 965.63 345.64 964.13 345.93 961.81 347.06 959.84 345.31 958.54 344.54 956.06 342.96 955.99 341.74 957.62 339.13 959.83 337.21 960.61 336.77 959.42 338.13 957.63 339.68 956.22 339.86 954.76 338.12 954.04 335.75 952.3 334.05 953.72 334.73 955.64 336.08 956.63 336.3 957.71 335.21 959.14 333.48 959.08 332.74 958.04 331.74 958.72 330.93 961.39 329.88 963.34 328.76 962.95 327.66 964.77 325.79 964.83 325.99 963.81 328.54 961.13 327.93 959.71 329.37 957.96 330.6 957.14 331.56 954.39 334.82 952.05 333.7 951.33 332.61 952.73 331.68 951.83 332.31 949.88 330.82 948.84 329.68 950.5 330.09 951.86 327.58 953.9 327.17 953.46 326.74 950.43 328.51 945.97 327.72 945.59 325.24 945.51 325.03 947.75 324.16 950.12 324.2 951.28 322.17 952.57 321.37 952.21 321.18 949.01 319.88 948.07 317.88 950.38 316.44 954.65 314.98 955.52 314.78 953.82 315.68 951.52 315.79 950.07 313.63 950.75 312.57 952.97 312.83 953.87 311.62 958.47 310.9 959.93 311.02 961.5 309.96 964.61 309.09 970.45 308.51 971.88 305.89 975.68 304.56 977.13 303.73 979.71 300.26 988.24 299.12 988.68 297.71 988.33 298.32 986.28 297.5 982.93 296.72 981.92 297.22 979.08 296.01 978.78 296.03 977.43 293.87 977.35 292.4 976.16 291.3 976.59 291.04 978.61 292.11 981.72 290.7 988.95 289.88 989.47 289.45 987.29 287.45 986.23 286.03 986.89 285.31 990.47 285.15 992.44 283.88 993.28 282.48 995.19 279.92 994.2 280.22 991.23 281.43 991.32 282.66 989.87 282.28 988.51 282.95 984.13 282.3 982.23 280.34 982.44 279.84 985.26 277.72 985.88 278.6 988.03 277.85 990.32 276.53 990.77 275.42 989.17 275.08 987.25 276.27 985.63 275.86 984.87 273.56 985.12 273.01 987.5 271.34 988.24 272.09 992.86 270.61 993.44 271.17 995.14 270.47 1000.57 270.66 1002.41 269.99 1003.29 268.86 1002.64 267.54 999.4 267.49 997.7 264.12 995.28 264.22 992.44 263.29 991.1 263.96 990.32 264.15 988.43 264.94 987.17 265.42 982.66 264.41 981.72 264.03 979.57 264.62 977.29 264.14 974.76 264.61 971.59 265.98 967.31 267.13 965.65 267.42 964.39 266.31 963.44 264.8 964.26 263.42 966.06 263.12 970.73 262.49 972.12 262.41 974.17 261.82 977.29 260.6 979.14 260.55 980.87 261.14 984.15 260.14 988.39 260.53 990.69 260.22 992.41 258.4 995.16 257.78 997.66 257.89 1000.02 256.96 1002.84 254.68 1005.29 253.07 1006.25 252.08 1008.26 250.38 1013.14 248.04 1012.59 247.07 1014.91 245.5 1014.97 245.58 1013.44 243.27 1014.25 242.55 1015.27 243.17 1016.11 240.64 1017.02 240.11 1017.76 238.66 1017.45 235.96 1018.72 234.58 1020.01 235.42 1023.02 233.84 1024.92 233.29 1023.46 231.93 1023.08 230.24 1023.49 231.24 1019.96 230.3 1019.71 229.77 1018.26 230.27 1015.88 231.68 1013.31 230.51 1012.64 228.91 1013.03 228.45 1015.18 227.19 1016.11 227.73 1013.1 227.73 1010.24 229.22 1008.59 228.61 1007.15 226.97 1006.62 227.26 1004.58 226.95 1003.36 224.85 1003.42 221.31 1005.11 219.67 1003.42 217.57 1003.46 216.73 1002.25 215.43 1001.71 213.05 1006.71 211.86 1006.07 211.59 1004.74 210.56 1004.72 207.3 1009.82 205.8 1009.69 205 1012.25 202.79 1016.56 203.14 1017.56 201.61 1020.13 201.88 1021.19 200.37 1021.49 200.22 1019.46 202.45 1016.14 201.95 1014.61 202.84 1012.44 201.44 1011.62 199.5 1012.43 198.82 1013.59 196.47 1016.31 197.64 1011.55 194.66 1012.39 193.23 1011.05 194.86 1009.11 196.17 1006.8 198.08 1005.86 198.66 1002.79 199.22 1001.82 201.15 1000.68 201.89 999.36 201.94 998.05 203.35 994.57 204.44 993.66 205.8 993.78 206.87 991.92 206.72 989.63 209.28 986.59 210.36 984.48 211.34 984.19 211.84 981.75 213.19 980.88 212.79 979.64 210.38 981.06 210.19 981.89 207.67 982.71 206.51 982.43 203.73 983.87 202.94 985.77 201.7 987.11 199.42 988.66 198.79 989.63 196.99 990.78 197.64 988.62 200.64 985.87 201.72 983.87 203.18 982.83 204.66 978.98 203.45 978.77 202.12 979.45 200.35 981.1 198.56 980.95 195.98 983.29 193.99 985.52 193.53 987.33 191.63 988.61 190.65 990.09 191.48 990.85 190.72 992.19 188.57 993.68 189.62 989.81 187.71 990.19 186.29 989.21 186.22 991.32 183.51 992.33 182.51 994.18 180.95 994.58 179.67 996.36 178.46 996.19 175.13 997.88 173.36 997.96 173.92 999.42 171.5 1001.86 171.65 1003.11 169.87 1004.37 167.08 1007.05 166.2 1006.82 167.25 1003.76 167.28 1002.61 165 1003.57 163.51 1004.85 163.87 1005.79 162.77 1009.03 163.73 1010.38 163.46 1012.2 158.55 1018.01 159.35 1019.99 158.7 1022.15 159.07 1024.2 155.7 1022.09 154.94 1023.69 155.52 1025.39 156.77 1026.5 155.07 1027.31 153.54 1025.17 151.74 1027.36 151.38 1030.13 153.84 1031.4 154.24 1032.68 153.66 1034.51 154.84 1035.46 155.47 1036.74 156.74 1037 157.39 1041.75 160.09 1044.36 159.54 1047.14 158.82 1048.23 158.59 1050.15 157.96 1051.52 158.44 1053.42 160.75 1054.52 159.78 1056.7 160.72 1057.74 161.86 1060.31 159.99 1062.32 157.87 1062.48 156.6 1060.51 154.89 1061.26 152.38 1063.74 149.73 1063.17 148.45 1063.29 147.35 1062.03 146.86 1060.69 141.5 1063.85 139.76 1065.53 138.44 1067.97 139.74 1069.69 138.59 1070.23 136.58 1069.58 137.64 1068.08 136.94 1066.93 135.57 1066.41 132.99 1066.42 130.77 1067.64 129.07 1069.42 125.38 1075.33 124.16 1078.35 123.96 1080.8 124.39 1085.54 124.89 1087.04 126.43 1089.57 128.14 1090.42 129.36 1088.89 133.38 1089.14 135.37 1088.83 133.84 1090.72 133 1092.88 131.98 1093.78 130.82 1093.23 128.36 1093.98 126.64 1095.29 125.38 1097.03 125.26 1098.92 124.02 1099.36 123.24 1100.52 124.43 1101.43 122.73 1102.9 122.38 1104.05 120.96 1106.06 120.58 1104.23 119.07 1104.18 118.28 1104.93 116.31 1105.52 115 1107.27 115.59 1109.9 116.73 1111.87 117.08 1115 114.61 1116.65 111.19 1116.85 110.05 1118.76 107.76 1119.31 107.11 1120.3 105.79 1119.75 105.45 1118.53 103.57 1118.44 100.21 1119.76 99.72 1119.11 96.8 1119.17 93.26 1121.07 89.46 1125.03 87.61 1128.06 85.84 1133.54 85.79 1135.23 84.61 1135.82 82.87 1138.99 80.99 1144.62 82.01 1146.13 82.11 1148.12 84.42 1152.19 84.21 1153.34 81.88 1155.73 81.87 1158.13 80.6 1161.03 79 1162.45 77.52 1164.64 80.17 1165.85 81.12 1167.2 79.95 1168.01 77.01 1166.58 75.4 1167.85 73.9 1172.25 74.59 1173.65 74.5 1175.76 72.58 1176.09 72.06 1177.6 72.01 1179.59 71.19 1181.24 68.52 1184.66 67.9 1184.78 67.48 1186.87 66.09 1188.15 65.41 1191.44 62.9 1193.57 57.74 1195.53 Z M 408.4 889.63 409.03 889.63 408.24 890.92 408.28 892.56 407.02 892.61 407.17 890.19 408.4 889.63 Z M 480.14 926.76 480.93 925.46 481.73 925.66 480.45 929.18 480.14 926.76 Z M 467.06 915.11 468.97 915.03 471.24 916.73 471.31 918.06 468.54 917.51 468.52 916.32 467.06 915.11 Z M 464.63 924.46 469.48 923.37 470.2 923.57 472.7 922.26 474.24 919.13 476.92 919.45 476.5 920.89 478.35 921.64 478.55 927.74 478.23 931.73 478.38 932.83 477.23 936.49 476.62 937.63 476.05 941.65 474.88 942.08 474.65 939.8 473.11 939.28 472.96 940.73 471.82 940.37 470.26 940.74 469.36 941.61 467.81 944.59 467.36 944.11 467.35 941.39 466.57 940.51 467.61 937.72 468.04 934.82 470.27 932.15 469.8 930.47 467.51 932.01 467.81 928.99 468.64 927.4 468.22 926.28 466.88 926.34 464.63 924.46 Z M 434.14 907.87 434.66 906.99 436.57 906.72 435.16 908.52 434.14 907.87 Z M 433.83 986.59 435.95 982.81 437.17 984.08 435.87 984.6 434.31 986.85 433.83 986.59 Z M 420.93 935.03 421.74 934.25 422.66 936.62 420.8 935.97 420.93 935.03 Z M 419.48 993.55 420.34 992.37 420.56 990.52 422.42 989.1 423.73 989.07 423.63 990.28 422.55 990.75 421.92 993.48 420.99 994.01 419.48 993.55 Z M 418.17 984.84 419.03 983.74 419.22 981.57 418.89 980.66 421.33 978.95 422.97 980.84 423.46 982.39 422.02 984.67 420.09 986.3 417.82 986.06 418.17 984.84 Z M 417.98 928.27 419.77 926.75 421.12 928.06 419.7 929.7 417.98 928.27 Z M 417.33 918.7 417.94 917.85 417.53 916.45 417.91 914.4 419.89 911.34 422.18 910.79 425.12 911.55 426.84 912.49 427.3 914.63 426.35 917.56 428.22 916.36 428.93 914.69 430.05 913.9 430.11 912.18 429.18 910.64 431.89 910.28 431.41 912.51 432.02 913.26 433.47 912.84 434.83 911.55 436.5 912.72 438.13 913.23 438.64 914.26 437.98 916.07 439.06 917.27 440.31 917.38 442.18 919.54 442.08 920.69 444.78 923.59 443.27 926.42 444.29 927.55 442.32 930.37 441.18 930.34 439.61 933.34 437.83 933.2 438.38 934.74 436.36 936.23 433.66 936.45 430.58 934.01 429.42 935.32 429.43 937.33 428.45 937.66 425.47 936.37 424.74 934.26 425.4 931.15 423.35 928.81 423.08 927 423.61 924.53 422.17 923.45 421.2 921.07 420.54 921.3 420.62 925.12 418.28 923.58 418.58 920.5 418.31 919.29 417.33 918.7 Z M 416.42 932.04 417.55 930.51 418.35 932.76 417.06 933.2 416.42 932.04 Z M 410.99 914.22 411.57 913.02 413.45 911.12 412.85 909.75 413.27 908.61 414.94 907.64 415.15 906.48 416.61 904.35 418.43 903.06 419.21 903.26 422.32 901.22 426.83 897.26 430.35 894.76 431.4 895.25 434.55 894.31 435.63 896.08 434.23 896.94 435.62 898.39 435.63 900.62 437.2 900.91 437.99 902.04 436.4 902.86 436.86 904.16 438.4 903.47 438.44 904.72 435.41 905.83 433.55 903.96 432.66 904.93 430.42 905.06 430.93 906.18 428.77 907.43 427.89 906.45 427.19 907.84 428.11 910.26 424.61 910.39 422.84 909.73 420.45 910.46 422.47 907.45 424.25 906.8 424.35 905.46 422.06 905.49 421.08 907.02 419.67 907.67 418.22 909.29 417.1 909 416.21 910.21 414.48 910.8 413.39 912.61 412.63 915.17 410.99 914.22 Z M 396.84 969.77 398.16 970.16 398.74 971.79 397.48 972.2 396.84 969.77 Z M 390.91 924.04 391.38 922.46 392.51 921.44 393.69 923.22 392.87 924.57 391 924.84 390.91 924.04 Z M 388.06 944.38 388.16 942.85 390.22 941.79 391.48 942.91 390 944.93 389.07 946.77 387.64 944.8 388.06 944.38 Z M 385.6 941.48 387.55 940.74 388.83 941.5 385.77 943.48 385.6 941.48 Z M 383.46 949.82 384.56 949.11 385.54 950.61 384.36 952.14 383.46 949.82 Z M 380.91 949.14 386.97 946.33 386.12 948.64 384.47 948.55 383.21 949.06 381.49 950.45 380.91 949.14 Z M 373.51 979.81 374.41 975.37 374.46 973.35 376.24 972.47 375.51 977.28 374.88 979.19 373.51 979.81 Z M 355.21 966.71 355.88 964.89 356.82 964.85 357.68 966.44 356.31 967.76 355.21 966.71 Z M 341.15 979.51 343.74 978.88 343.9 981.38 341.36 981.9 340.81 981.24 341.15 979.51 Z M 340.58 961.58 342.04 960.14 342.02 962.62 340.76 962.71 340.58 961.58 Z M 337.7 966.95 339.14 966.74 339.14 969.3 337.52 967.95 337.7 966.95 Z M 336.03 971.19 337.77 971.04 338.82 973 336.77 972.56 336.03 971.19 Z M 335.8 982.39 336.68 980.68 337.49 976.34 339.33 977.83 338.3 982.71 336.28 983.45 335.8 982.39 Z M 335.52 1010.09 336.02 1008.24 337.52 1006.35 339.62 1005.87 340.04 1007.51 337.34 1010.73 335.71 1010.94 335.52 1010.09 Z M 330.43 964.18 332.14 962.1 332.64 962.38 332.03 964.64 330.43 964.18 Z M 323.87 969.01 324.9 967.75 326.46 967.59 325.97 969.55 324.17 971.21 323.87 969.01 Z M 321.87 954.98 322.04 953.81 323.52 953.75 322.68 955.78 321.87 954.98 Z M 315.38 965.37 316.56 965.15 316.44 966.8 315.18 966.91 315.38 965.37 Z M 312.62 966.94 313.39 962.92 313.19 960.73 314.99 957.49 315.22 959.26 316.43 960.02 316.97 961.66 316.17 962.13 313.36 968.8 312.48 968.92 312.62 966.94 Z M 283.14 1005.18 284.34 1004.01 284.59 1005.99 283.14 1005.18 Z M 280.59 999.71 281.13 997.38 281.9 997.92 280.59 999.71 Z M 277.16 1009.82 278.29 1006.61 278.84 1004 280.15 1004.2 279.04 1006.1 279.06 1008.59 278.58 1010.65 277.16 1009.82 Z M 274.02 996.69 274.57 994.75 275.41 994.45 275.78 996.79 274.02 996.69 Z M 213.27 1016.3 214.1 1016.11 215.29 1017.96 213.74 1018.01 213.27 1016.3 Z M 203.39 986.86 204.17 985.47 205.05 985.77 204.12 988.37 202.71 988.06 203.39 986.86 Z M 198.6 992.34 199.33 990.67 202.23 988.99 202.76 990.96 200.26 993.91 198.6 992.34 Z M 194.19 1020.11 195.99 1017 197.53 1017.5 195.46 1020.18 194.19 1020.11 Z M 192.38 998.77 192.92 997.86 194.77 996.52 195.42 994.38 196.76 994.44 196.42 995.9 195.02 998.26 193.87 999.45 194.26 1000.96 192.77 1001.77 192.38 998.77 Z M 189.68 1011.45 191.72 1008.63 192.72 1008.52 189.64 1012.59 189.68 1011.45 Z M 189.83 1007.05 190.57 1004.82 191.34 1006.33 189.83 1007.05 Z M 186.48 997.63 188.07 995.88 188.89 996.93 188.22 997.66 186.48 997.63 Z M 185.48 1020.55 187.4 1018.86 187.53 1020.28 185.91 1022.1 185.48 1020.55 Z M 181.41 1030.61 183.13 1027.27 183.96 1029.02 182.42 1031.5 181.41 1030.61 Z M 179.31 1001.89 181.15 1000.57 181.77 1001.05 183.03 999.84 184.27 1000.74 181.78 1002.98 179.31 1001.89 Z M 178.11 1027.57 181.1 1023.66 182.34 1023.68 183.36 1024.47 182.98 1026.18 181.83 1025.19 180.87 1025.39 178.54 1028.5 178.11 1027.57 Z M 177.1 1023.44 178.7 1021.22 179.44 1021.84 177.1 1023.44 Z M 174.38 1016.26 176.17 1013.77 176.91 1011.43 179.07 1010.47 180.46 1010.83 181.4 1008.61 182.38 1009.52 182.53 1010.75 179.75 1015.52 180.46 1016.97 178.58 1017.6 178.83 1019.17 177.75 1020.42 174.53 1018.08 174.38 1016.26 Z M 170.13 1010.14 173.1 1007.06 172.85 1005.55 173.18 1003.08 175.89 1003.37 176.96 1002.12 178.14 1004.02 176.06 1004.49 175.42 1006.35 178.15 1006.08 177.45 1008.13 173.84 1010.26 170.13 1010.14 Z M 167.14 1028.07 167.6 1027.04 169.1 1025.75 170.52 1025.15 172.67 1023.3 173.8 1021.69 175.13 1023.16 174.03 1023.99 172.73 1026.39 171.05 1027.49 171.45 1028.72 169.77 1029.54 168 1029.44 167.14 1028.07 Z M 162.75 1019.4 164.01 1017.51 164.89 1017.85 163.49 1019.88 162.75 1019.4 Z M 161.5 1036.63 162.22 1033.59 164.4 1030.68 165.43 1030.85 165.34 1032.95 166.39 1034.59 164.88 1036.93 163.66 1036.77 161.77 1037.34 161.5 1036.63 Z M 159.74 1039.45 161.02 1037.92 162.19 1038.64 162.17 1040.24 160.45 1041.6 160.47 1040.05 159.74 1039.45 Z M 159.05 1032.7 160.62 1031.22 160.92 1028.46 161.54 1027.48 165.5 1024.99 164 1029.27 163.22 1030.8 161.79 1031.57 159.64 1033.93 159.05 1032.7 Z M 153.61 1065.01 156.31 1065.09 155.57 1067.51 154.21 1067.75 152.08 1067.07 153.61 1065.01 Z M 74.57 1214.65 75.81 1215.49 77.67 1217.71 76.35 1218.58 74.27 1216.37 74.57 1214.65 Z M 727.59 776.77 730.1 776.58 729.81 775.35 732.01 774.11 732.89 774.1 733.97 775.28 735.03 774.43 736.06 775.48 739.6 777.4 739.11 778.78 737.1 777.08 735.81 777.14 735.88 778.87 734.39 778.6 733.53 780.09 731.46 780.59 729.29 780.6 729.34 778.81 727.62 777.46 727.59 776.77 Z M 720.5 785.58 721.28 784.46 722.15 785.04 721.36 786.52 720.5 785.58 Z M 718.27 761.21 719.29 761.61 721.14 761.21 720.88 762.69 718.79 762.49 718.27 761.21 Z M 700.02 788.22 701.4 786.98 702.19 787.81 700.86 788.57 700.02 788.22 Z M 691.55 774.19 693.22 774.4 692.26 775.75 691.55 774.19 Z M 685 783.4 686.41 783.41 686.63 785 688.62 784.75 690 783.9 689.5 781.56 690.31 781.06 692.59 783.59 695 784.03 696.74 785.69 696.63 786.5 694.95 787.12 693.15 786.38 690.7 784.63 689.24 785.99 688.98 787.61 689.89 787.92 690.95 789.66 693.46 790.14 695.16 791.01 694.83 792.34 691.18 793.22 689.64 792.92 686.71 790.19 685.04 786.48 685 783.4 Z M 680.93 804.93 681.53 804.04 683.1 803.51 685.66 803.56 687.31 802.69 687.6 804.16 688.72 804.57 690.26 805.89 691.35 808.67 690.51 810.08 688.24 812.19 687.33 814.8 685.88 815.37 685.08 814.92 684.92 813.07 684.19 810.35 684.6 808.96 682.72 807.59 680.97 805.83 680.93 804.93 Z M 669.72 805.8 670.33 802.05 673.99 801.73 672.89 803.68 673.33 805.44 675.04 804.68 676.24 803.45 676.58 801.84 678.25 801.91 677.81 803.81 676.39 804.85 677.14 805.62 675.99 807.64 675.74 809.46 677.79 810.38 678.09 811.9 679.35 812.44 679.54 813.46 681.27 815.41 679.75 815.49 679.94 819.47 679.08 820.99 676.83 822.01 676.32 821.56 674.93 818.19 675.22 816.74 674.13 814.49 673.32 811.98 672.48 806.93 670.94 807.31 669.87 806.91 669.72 805.8 Z M 667.12 810.5 667.47 808.18 668.12 808.31 668.01 810.67 667.12 810.5 Z M 664.55 804.05 665.85 804.22 668.35 803.87 665.09 806.73 664.33 804.98 664.55 804.05 Z M 658.8 812.77 660.18 813.17 659.68 814.62 658.26 813.41 658.8 812.77 Z M 636.44 813.49 638.86 814.49 638.04 815.65 637.07 815.79 636.44 813.49 Z M 631.04 805.4 632.79 804.83 633.92 806.06 634.36 808.89 636.01 809.84 635.55 812.94 633.69 812.13 633.4 810.7 632.04 809.23 631.04 805.4 Z M 627.78 798.36 629.17 798.48 630.27 803.1 629.03 803.84 628.42 802.88 627.78 798.36 Z M 628.08 812.31 630.49 812.48 628.65 813.88 628.08 812.31 Z M 627.07 796.24 628.08 795.26 629.7 794.83 629.71 796.03 627.07 796.24 Z M 626.74 818.61 627.5 818.1 628.98 820.14 627.46 821.71 626.74 818.61 Z M 620.23 823.2 621.41 820.18 622.67 820.77 622.5 822.58 623.49 823.32 623.73 826.09 624.48 826.32 625.15 829.08 622.13 829.38 621.43 828.42 620.14 824.63 620.23 823.2 Z M 575.76 845.65 576.41 845.37 577.73 847.87 575.87 847.32 575.76 845.65 Z M 568.96 831.24 571.33 830.9 572.96 833.35 572.32 834.18 570.97 834.14 570.12 831.92 568.96 831.24 Z M 568.19 826.19 568.7 823.92 569.62 822.3 571.53 823.59 569.78 828.5 568.58 829.02 568.02 828.09 568.19 826.19 Z M 566.86 839.53 567.12 838.04 567.92 837.72 569.53 835.12 570.69 834.65 571.35 836.32 571.46 839.47 569.84 841.6 568.55 842.29 566.86 839.53 Z M 564.58 817.7 566.86 819.26 566.26 820.09 564.58 817.7 Z M 558.78 817.3 561.94 817.66 562.27 818.63 558.78 817.3 Z M 556.36 878.89 557.51 877.91 558.31 878.52 558.42 879.91 557.27 880.54 556.36 878.89 Z M 549.02 876.18 549.54 874.55 549.26 872.92 551.05 872.5 552.72 873.12 553.67 874.88 550.9 875.27 549.02 876.18 Z M 547.52 897.19 549.43 897.5 548.21 898.7 547.52 897.19 Z M 546.74 902.83 547.99 903.76 548.6 906.18 547.38 905.86 546.74 902.83 Z M 543.29 869.93 546.22 870.02 547.57 869.6 547.48 871.45 544.64 871.41 543.29 869.93 Z M 542.4 874.6 543.95 874.94 544.87 874.02 547.12 874.89 547.36 876.42 548.61 879.4 547.48 880.92 545.23 880.46 544 881.31 542.48 880.48 542 879.47 542.4 874.6 Z M 536.63 867.77 538.72 869.16 536.86 869.63 536.63 867.77 Z M 529.18 892.35 530.67 890.58 530.29 888.81 530.94 888.26 532.48 888.58 533.32 889.6 533.33 890.88 532.08 892.22 530.34 893.27 529.18 892.35 Z M 528.49 826.18 530.07 826.36 530.58 827.19 529.19 828.31 528.49 826.18 Z M 526.9 896.02 528.02 894.35 529.88 894.81 530.68 896.95 529.7 898.71 527.51 898.95 526.9 896.02 Z M 522.73 913.46 524.02 912.25 525.56 912.19 526.07 911.06 527.64 910.14 528.19 911.53 530 912.91 529.19 914.79 531.56 915.37 530.26 917.49 527.99 916.63 526.32 916.81 525.59 916.31 524.07 918.36 524.13 915.96 522.86 914.95 522.73 913.46 Z M 522.59 894.07 524.84 891.31 526.86 890.77 527.73 891.89 525.27 894.91 523.68 896.03 522.03 894.87 522.59 894.07 Z M 518.94 833.46 519.91 832.49 520.89 834.38 519.64 835.22 518.94 833.46 Z M 506.84 860.16 507.99 859.65 508.55 862.8 508.27 864.06 506.92 863.45 507.34 861.85 506.84 860.16 Z M 506.7 851.31 507.8 849.08 508.02 847.76 509.73 846.58 510.89 844.38 512.77 843.75 514.96 847.78 512.91 850.61 512.12 852.41 512.31 855.47 511.62 856.77 509.9 857.61 508.88 856.59 509.57 853.39 508.03 853.62 507.07 852.72 506.7 851.31 Z M 504.11 890.21 505.16 888.75 506.42 889.17 507.31 890.19 506.27 891.29 504.11 890.21 Z M 501.67 883.09 502.97 882.16 504.14 882.81 504.6 883.92 503.48 885.36 502.27 885.27 501.48 883.97 501.67 883.09 Z M 500.08 889.91 500.98 886.99 501.9 886.06 502.83 886.57 503.91 888.66 503.67 889.82 502.51 891.17 500.17 890.68 500.08 889.91 Z M 499.57 868.14 501.76 869.02 504.27 871.43 504.37 873.34 500.89 871.82 499.57 868.14 Z M 498.03 903.21 498.06 901.61 499.03 900.98 499.39 899.75 500.8 898.63 501.44 900.97 502.6 901.35 503.02 898.74 502.14 895.89 504.09 895.86 505.73 893.15 507.78 892.93 508.99 897.3 508.43 898.04 510.86 899.34 513.61 897.48 512.95 895.48 513.37 894.32 515.28 893.99 516.27 897.11 517.48 898.27 518.93 898.92 519.05 899.97 521.17 902.68 519.29 903.13 518.94 903.81 519.36 906.43 517.28 908.34 514.2 909.57 513.2 912.36 510.34 913.5 508.34 910.94 508.57 908.79 506.99 907.85 506.52 905.86 507.36 904.27 506.43 902.88 502.98 903.02 502.02 905.28 500.76 906.21 500.17 904.57 498.82 905.1 497.47 904.09 498.03 903.21 Z M 494.58 914.32 496.05 911.08 497.8 910.56 499.65 913.31 499.92 915.24 497.98 916.32 498.17 917.39 496.63 917.49 494.78 916.65 494.58 914.32 Z M 492.31 854.23 492.66 851.23 494.22 847.48 493.97 844.96 494.63 841.3 496.76 840.15 497.99 840.95 498.53 844.39 499.99 848.16 501.01 852.33 500.59 854.55 501.21 855.75 502.41 856.59 502.41 858.05 499.94 860.18 498.22 857.06 495.29 856.63 493.34 856.84 491.71 855.22 492.31 854.23 Z M 487.87 883.13 488.48 882.9 490.72 883.6 489.46 885.13 487.87 883.13 Z M 480.74 882.1 482.28 881.83 482.93 883.36 481.16 883.45 480.74 882.1 Z M 476.61 906.15 478.15 906.43 478.34 907.36 476.94 907.77 476.61 906.15 Z M 474.47 904.1 475.22 902.52 476.32 902.84 476.24 905.35 475.17 905.54 474.47 904.1 Z M 473.24 911.02 474.55 910.7 474.93 909.63 476.94 910.62 475.67 912.33 474.08 912.61 473.24 911.02 Z M 471.76 903.91 473.4 903.86 471.99 905.63 471.76 903.91 Z M 452.84 884.4 455.77 882.28 458.23 881.21 459.36 881.6 459.27 879.23 459.59 877.77 460.68 875.71 463.24 872.98 463.81 868.61 464.84 868.85 466.41 871.54 467.58 871.64 467.95 873.45 469.07 872.71 471.03 873.15 472.93 875.22 473.81 874.62 475.11 877.36 476.85 878.51 477.67 881.4 478.13 884.37 482.09 885.22 481.86 886.65 483.21 888.1 485.54 889.12 485.68 892.93 484.93 893.77 482.67 894.67 478.45 892.83 478.5 892.18 480.41 891.81 480.78 890.14 479.29 889.3 478.17 887.81 477.61 889.25 474.63 890.59 475.14 892.92 475.97 894.92 473.15 898.9 470.14 897.88 469.53 899.93 471.07 900.02 470.51 902.11 468.54 902.95 465.28 903.64 465.62 908.36 462.54 907.46 461.5 903.62 459.53 902.76 459.36 902.03 457.22 902.21 458.1 900.37 456.98 899.3 454.84 898.5 455.4 896.97 455.11 895.73 455.52 894.12 456.63 893.25 456.31 890.7 454.26 891.22 452.82 889.98 455.24 888.79 455.19 887.6 452.84 884.4 Z M 450.64 862.9 451.3 861.22 452.48 860.98 453.56 862.05 458.02 864.51 458.17 865.3 460.11 865.63 461.74 867.72 460.99 868.32 461.06 869.82 458.68 871.24 456.92 870.39 455.22 868.51 453.65 867.32 453.7 865.72 451.68 864.17 450.64 862.9 Z M 447.82 871.33 450.1 872.35 449.73 873.77 447.78 871.82 447.82 871.33 Z M 446.37 878.13 446.83 877.48 448.67 877.98 449.3 878.88 447.16 879.71 446.37 878.13 Z M 441.91 887.45 444.45 885.28 445.78 885.86 445.49 886.76 443.83 888.59 442.86 888.58 441.91 887.45 Z M 439.56 880.75 440.99 880.56 442.6 881.99 442.28 883.79 440.14 882.86 439.56 880.75 Z M 433.28 881.32 434.04 879.53 435.89 878.74 436.39 880.23 435.54 880.87 435.26 882.64 433.93 882.59 433.28 881.32 Z M 411.63 867.42 411.96 866.08 413.81 864.96 414.42 862.29 416.78 859.89 417.31 858.41 419.46 856.52 418.16 855.07 416.43 856.5 416.17 852.93 417.52 852.33 418.26 850.82 418.27 849.18 417.67 848.62 417.74 845.46 419.35 841.76 420.34 841.32 422.87 841.98 423.53 841.52 423.58 839.67 426.21 841.02 426.96 842.83 426.9 844.99 427.76 845.54 426.77 847.26 427.03 848.27 425.39 851.24 423.2 852.83 421.8 853.28 421.38 854.47 421.74 855.92 420.5 855.94 421.17 858.41 419.96 858.93 420 859.95 421.15 861.58 422.59 862 419.3 868.67 418.39 872.95 418.62 874.4 417.18 876.32 417.39 878.31 416.17 879.74 413.68 880.43 414.69 878.2 415.13 874.4 414.53 872.68 415.56 872.22 415.66 870.74 414.88 869.66 415.12 867.67 414.37 867.57 412.09 868.72 411.63 867.42 Z M 409.64 885.06 412.31 879.96 411.94 878.19 413.63 877.18 413.48 879.08 412.44 881.16 412.06 883.2 411.21 884.78 409.64 885.06 Z M 407.02 875.28 407.59 873.66 408.85 873.62 409.38 870.56 412.78 869.79 413.33 871.47 411.04 873.59 412.62 874.2 412.56 875.41 410.88 877.25 408.54 877.66 406.77 876.52 407.02 875.28 Z" fill-rule="evenodd" fill="none" stroke="currentColor" stroke-width="70.760"/>
</g>
</svg>