<?xml version="1.0"?>
<svg xmlns="http://www.w3.org/2000/svg" version="1.2" baseProfile="tiny" viewBox="-40.0 -40.0 880.0 734.0" stroke-linecap="round" stroke-linejoin="round">
<g id="state">
<path d="M 282.74 314.43 279.31 313.59 278.81 313.29 277.15 313.27 276.83 313.05 275.85 313.08 275.85 312.7 274.88 311.91 274.13 310.8 274.4 310.47 273.73 309.63 272.48 308.87 271.69 308.73 271.17 308.16 270.2 307.81 269.03 306.87 268.49 306.77 268.47 306.27 267.82 304.23 268.37 303.47 269.2 303.14 269.39 302.77 269.3 302.05 269.86 301.26 269.46 300.86 270.23 300.09 270.88 299.85 271.08 298.49 270.95 298.02 271.4 297.38 272.09 297.04 272.25 295.67 272.97 294.9 273.56 293.87 274.71 292.95 275.8 291.9 275.78 291.37 276.56 290.73 277.19 289.92 277.16 288.81 276.33 288.14 276.16 287.04 274.63 286.3 274.53 285.83 273.7 285.5 273.39 285.12 272.59 285.01 271.82 285.3 271.16 285.87 270.1 286.25 268.66 287.54 268.04 288.34 266.91 288.48 266.59 289.04 265.79 289.14 265.09 288.86 263.83 289.02 262.98 288.64 261.97 288.62 261.01 288.86 259.84 288.72 259.54 288.91 258.77 288.76 258.22 289.47 257.2 289.91 256.99 289.23 255.69 288.68 255.52 287.88 255.02 287.35 254.46 287.55 255.06 288.31 254.06 288.83 253.24 288.52 253.56 287.71 254.84 286.87 254.5 286.06 254.95 285.68 256.1 285.17 256.35 284.73 256.12 284.1 257.1 283.61 256.98 282.83 256.41 282.39 255.99 281.66 255.87 280.56 256.51 279.87 257.29 279.6 257.55 279.17 258.47 278.9 258.91 278.3 260.02 277.97 260.73 277.58 261.39 276.8 261.33 276.11 262.07 275.57 262.19 274.7 262.74 274.03 262.7 273.53 262.07 273.32 261.8 272.73 261.55 270.92 261.68 270.21 261.18 269.58 260.15 268.84 258.73 268.1 258.86 267.25 260.98 267.52 261.41 267.76 262.26 267.84 263.14 267.46 263.26 265.92 264.29 265.21 264.26 264.68 264.54 263.86 264.22 263.62 263.93 262.61 262.82 262.39 262.32 261.71 261.57 261.17 261 260.2 259.59 259.3 259.76 257.81 261.73 257.41 262.48 256.95 263.91 256.69 263.93 256.05 263.24 255.37 261.52 254.51 261.1 254.06 261.51 253.74 260.79 252.97 259.61 252.83 258.09 252.32 257.09 251.63 256.58 251.47 255.61 250.39 255.82 249.6 255.23 249.16 254.06 248.62 252.05 248.76 251.59 248.19 251.05 248.44 250.21 248.2 249.72 248.37 249.07 248.08 248.6 248.3 247.42 248.44 246.62 248.27 245.72 248.29 245.37 247.71 243.43 247.15 243.09 246.82 243.99 246.42 243.28 244.81 242.63 244.56 241.38 244.9 240.54 244.86 239.37 245.2 238.12 245.16 237.92 245.74 237.03 246.02 236.27 246.05 234.96 246.12 234.18 245.63 232.77 245.59 231.79 244.99 231.58 244.14 231.24 243.76 230.49 243.72 229.25 243.24 228.5 242.26 228.88 241.72 230.89 240.26 231.59 239.9 232.26 239.16 233.34 238.45 233.86 237.65 235.05 236.71 234.04 236.17 232.23 236.1 231.94 235.83 231.79 234.68 231.46 234.36 231.54 233.64 232.59 232.55 231.87 232.01 230.75 231.94 229.93 232.07 229.48 231.6 228.17 231.15 227.31 230.41 226.52 230.41 225.12 230.22 224.09 229.34 223.23 228.99 222.43 228.85 221.8 229.37 219.13 229.44 218.44 229.34 217.59 228.73 217.58 227.87 216.66 227.82 216.29 228.19 215.27 228.53 213.64 228.65 213 229.05 212.04 228.53 210.35 228.01 209.62 228.62 209.38 227.82 206.21 225.99 204.96 225.6 204.11 225 203.31 225.93 202.66 226.15 201.96 226.06 201.13 226.24 200.51 226.66 199.91 226.32 199.86 225.97 198.8 225.6 197.97 225.1 197.33 225.21 196.8 224.84 196.79 224.42 195.75 224.11 194.77 224.29 194.75 224.85 193.62 225.07 192.44 224.6 191.58 223.04 191.6 222.43 190.72 222.19 188.83 222.16 188.25 222.77 187.15 222.89 186.74 222.69 185.74 222.62 185.12 222.79 184.1 223.53 183.44 223.68 182.55 222.48 181.88 222.54 181.58 223.34 181.12 223.86 181.09 224.35 180.68 224.85 180.63 225.41 178.86 225.37 178.69 225.67 176.43 225.25 175.55 224.75 175.19 224.3 175.17 223.7 174.4 222.83 173.38 222.79 172.39 222.39 171.09 222.56 170.47 222.87 170.12 222.48 170.18 221.97 169.24 221.51 168.34 221.45 166.26 222.2 165.71 221.72 165.34 222.3 164.68 222.6 164.12 222.57 163.96 221.76 163.6 221.29 162.71 220.82 162.26 221.19 162.68 221.83 161.75 222.04 160.79 221.89 158.8 221.15 158.45 221.2 157.23 220.15 149.02 216.81 136.54 211.73 133.26 210.38 129.92 209.78 123.02 208.44 120.83 207.97 114.87 206.86 104.87 204.89 102.63 204.49 96.19 203.24 89.23 201.85 88.83 201.8 81.73 200.42 66.18 197.46 63.61 196.94 50.79 194.5 34.81 191.41 30.68 190.59 30.74 189.82 31.05 189.22 30.86 188.34 29.77 187.31 29.34 187.08 29.49 186.19 28.77 185.76 28.02 184.76 28.08 184.41 27.43 183.9 26.87 183.22 26.88 182.05 26.52 181.57 26.42 180.87 26.08 180.36 24.99 180.31 25.08 179.56 24.95 178.74 23.93 178.49 23.5 178.13 23.45 177.1 22.46 176.63 22.2 175.89 21.15 174.21 20.69 173.98 19.88 174.19 19.81 173.5 18.25 173.82 17.11 173.86 16.43 174.06 16.13 173.56 15.26 172.81 15.58 172.32 15.11 171.91 14.34 172.47 13.63 172.32 12.8 172.59 11.14 172.66 11.74 171.11 11.72 170.41 10.73 169.69 10.16 169.76 9.64 169.05 8.45 169.11 8.45 169.55 7.74 170.32 7.03 170.47 6.11 170.24 4.23 170.97 3.32 170.97 2.87 169.93 2.23 169.5 1.98 168.85 1.44 168.71 1 167.76 1.38 167.66 4.23 166.07 5.79 165.44 8.11 164.29 9.07 163.65 9.75 163.49 11.75 164.07 12.14 164.1 16.25 162.53 19.01 161.93 21.69 161.08 26.35 159.83 27.54 159.72 29.89 159.3 30.36 159.29 32.66 158.88 35.83 158.08 37.86 157.71 39.92 157.02 42.99 155.23 44.12 154.08 45.54 153.27 46.98 152.71 50.68 150.7 57.74 144.92 59.73 143.98 63.76 142.63 67.54 141.88 70.59 141.4 71.89 141.32 72.7 141.43 73.91 141.37 75.26 141.12 76.53 141.34 78.68 142.04 78.9 142.42 79.61 142.59 81.26 142.49 82.49 142.15 83.06 141.8 84.22 141.51 86.95 140.98 87.41 140.77 88.12 140.94 90.52 140.53 91.16 140.26 92.28 140.44 92.97 140.35 93.42 140.6 94.46 140.56 95.38 140.71 98.82 140.49 101 140.05 103.61 139.18 107.27 138.16 109.21 137.12 111.29 136.53 113 135.67 114.12 135.47 116.8 134.26 117.55 134.13 119.67 133.17 120.58 132.62 122.3 131.36 124.26 129.33 125.12 128.1 126.68 127.56 127.56 126.82 128.18 126 129.56 125.23 130.59 125.07 131.11 125.56 131.8 125.84 133.03 125.98 134.6 125.92 136.1 125.64 138.45 124.55 139.51 124.38 140.1 124.98 140.76 125.09 142.55 124.96 143.67 124.77 145.1 124.29 146.44 123.65 147.29 123.09 149.01 121.43 149.92 120.29 150.95 118.59 151.17 118.01 151.19 117.14 151.52 117.09 152.11 116.24 151.99 115.91 153.14 114.93 153.44 114.47 155.12 113.75 156.19 113.48 156.81 113.1 157.76 113.07 159.28 111.86 160.15 110.82 160.85 110.4 161.83 110.21 162.26 109.87 163.34 109.45 164.8 109.51 166.19 108.87 166.91 108.29 167.28 107.74 169.34 105.97 172.33 104.08 175.05 102.65 176.91 101.99 178.31 101.94 179.71 101.62 180.97 100.74 183 100.5 184.56 100.17 186.05 99.24 187 98.43 189.75 96.85 192.16 95.24 194.46 93.25 195.18 91.83 196.3 90.61 197.66 89.7 198.56 88.97 199.63 87.78 200.21 87.45 200.79 87.43 203.26 86.17 204.09 85.98 204.91 85.42 206.68 85.24 209.77 84.27 211.83 83.4 213.65 82.39 215.87 82.12 217.59 81.82 219.41 81.12 220.31 80.47 220.78 79.64 222.11 79.43 223.96 78.87 224.51 78.93 226.09 78.62 226.2 79.12 227.95 78.89 228.16 78.37 233.07 77.83 235.52 77.85 237.27 77.64 237.29 77.15 238.06 77.04 244.18 76.7 244.49 76.63 246.89 76.73 248.23 76.67 251.81 76.94 252.81 77.53 254.13 77.86 255.47 77.74 256.84 77.84 257.32 77.26 260.33 77.44 261.1 77.25 261.9 77.31 266.33 78.57 268.92 79.72 270.4 80.65 270.69 81.99 270.31 82.45 270.47 83.15 270.94 84 270.75 84.48 269.87 84.52 268.78 84.36 267.76 84.04 266.1 84.32 265.51 84.75 265.27 85.22 264.1 85.39 263.11 85.24 261.99 85.4 260.49 86.14 259.32 86 258.97 85.62 258.18 85.61 257.7 85.28 256.37 85.08 255.4 85.23 253.82 85.06 252.4 85.45 251.04 85.32 247.9 85.61 246.36 85.89 245.56 87.17 245.51 87.75 245.81 88.35 246.59 88.93 247.33 89.06 248.18 89.93 248.24 90.37 247.43 91.17 246.23 91.16 245.21 91.34 243.55 92.27 243.16 92.33 240.44 93.96 238.68 94.4 236.61 94.76 236.09 95.01 234.96 95.91 233.84 97.06 233.2 97.53 232.43 98.44 231.23 98.66 230.37 99.06 228.42 101.06 226.4 101.97 225.5 103.01 224.69 103.37 224.17 103.27 222.72 103.64 220.91 103.62 220.15 104.3 219.25 104.65 218.25 105.93 217.96 107.07 217.89 108.7 218.21 109.43 218.97 109.58 218.94 109.94 218.17 110.6 217.4 110.94 216.94 110.37 216.39 110.07 215.38 110.06 214 110.72 213.27 111.57 213.45 112.49 213.34 113.08 212.41 114.68 209.77 115.84 207.19 116.88 206.87 117.61 206.82 119.03 206.29 120.53 205.47 121.78 205.43 122.58 204.8 123.27 203.64 124.04 201.85 126.01 200.65 126.72 199.65 126.72 198.97 126.93 198.87 126.3 198.34 126.3 197.57 127.47 197.36 129.8 196.68 132.14 195.27 134.98 194.64 135.86 194.8 136.79 194.33 138.28 194.44 139.39 194.09 140.08 193.97 141.82 194.9 143.16 194.95 144 195.96 145.53 195.24 146.36 194.38 145.96 194.02 146.17 192.28 148.51 192.72 148.9 194.16 149.42 195.48 149.23 197.16 148.11 197.31 147.35 198.25 146.23 198.83 145.08 200.48 143.55 200.69 143.27 204.06 140.6 203.99 139.9 203.25 139.26 201.9 139.73 201.81 139.31 203.23 137.74 204.2 137.25 204.96 137.27 204.62 138.28 205.32 138.72 207 138.75 207.94 137.89 209.97 136.41 210.71 136.01 211.15 135.49 214.04 133.8 216 132.92 217.71 131.51 220.45 130.51 222.27 130.09 223.16 129.25 224.3 129 225.41 128.6 226.59 127.98 227.07 128.1 227.65 127.79 228.83 128.44 228.05 128.63 227.42 129.09 227.42 129.76 227.12 130.12 223.39 132.57 222.08 133.01 221.41 133.65 220.95 133.56 218.74 134.99 217.89 135.95 216.69 137.86 216.13 139.15 215.02 140.66 213.89 141.24 213.83 142.14 214.87 142.02 215.67 141.49 215.95 140.8 216.71 140.53 217.89 138.32 218.92 137.19 221.02 136.05 220.62 135.33 221.92 134.74 222.51 134.63 223.66 134 225.94 133.97 228.11 133.57 229.43 133.48 230.76 133.19 231.98 132.75 233.92 132.43 235.06 132.52 238.58 133.6 240.39 133.42 241.35 133.59 242.21 133.93 243.47 133.87 246.47 133.56 249.88 133.61 250.4 133.51 252.28 133.58 254.59 135.2 255.93 135.7 257.41 136.07 259.31 135.49 260.34 135.35 260.7 135.84 261.65 136.32 263.77 136.47 264.32 136.78 264.14 137.41 264.33 137.77 265.41 138.32 266.42 138.41 266.99 138.02 267.9 137.93 268.3 139.11 268.33 139.73 268.74 141.26 269.26 141.86 271.16 142 272.6 141.75 273.27 141.44 273.51 141.01 273.27 140.27 273.92 140.2 274.53 140.75 274.55 142.04 275.19 142.73 276.24 143.11 277.08 143.22 277.78 143.06 278.64 143.23 279.16 143.92 279.93 144.47 281.16 145.59 282.7 146.31 282.41 146.99 282.68 147.66 282.88 149.12 283.66 150.62 283.68 151.36 284.6 152.38 285.73 152.92 286.18 153.38 287.58 154.08 287.88 154.71 288.99 155 289.39 155.35 289.69 156.3 289.45 156.76 290.79 158.19 291.62 159.64 292.64 160.13 295.12 160.82 295.16 161.76 295.65 162.61 295.5 162.89 296.77 163.78 297.65 164.09 297.95 164.89 298.44 164.88 298.78 165.32 300.63 165.2 301.11 165.58 302.36 165.93 303.25 165.82 303.26 165.26 303.89 165.02 304.19 165.33 303.93 166.21 303.29 166.14 302.65 166.64 302.61 167.28 303.13 168.22 303.79 168.8 303.76 169.33 304.24 169.73 302.86 170.1 302.49 171.03 302.96 171.9 303.75 172.62 305.21 173.61 305.94 174 308.5 174.72 310.79 175.14 313.3 175.38 315.98 175.51 319.02 175.46 321.59 175.25 323.85 174.78 324.49 174.45 324.7 173.94 325.56 173.81 325.98 174.48 328.36 174.95 330.14 174.86 331.33 174.55 331.56 174.12 334.07 172.81 335.56 172.66 337.39 172.3 338 171.71 339.26 171.74 339.79 171.54 339.61 170.93 340.9 171.08 341.24 170.96 341.81 171.48 342.35 171.65 343.52 171.51 344.07 171.69 344.69 172.37 345.31 172.69 345.47 173.38 346.22 174.19 346.48 174.9 347.34 176.33 346.82 176.51 347.05 177.13 347.49 177.4 348.98 177.87 349.92 177.87 350.83 177.68 352.8 178.44 352.8 178.84 353.34 179.23 353.11 179.9 354.22 180.59 356.71 180.91 357.98 180.9 360.11 180.53 360.56 179.7 360.49 179.05 360.83 178.27 361.35 177.66 362.91 176.56 366.24 176.37 367.52 176.78 368.1 176.81 368.58 177.16 368.45 177.77 369.85 178.77 370.62 179.83 371.36 180.38 373.34 180.41 374.75 179.76 376.13 180.07 376.38 181.17 375.41 182.12 375.45 182.45 376.54 183.1 377.85 183.14 379.11 181.68 380.9 179.99 380.81 179.06 381.13 178.91 382.07 179.04 383.4 177.54 384.8 176.61 386.5 174.78 386.81 174.82 388.43 174.33 389.13 173.8 389.3 173.42 390.2 172.73 391.06 172.46 392.11 171.86 392.66 171.07 393.21 170.76 393.41 170.08 394.52 169.58 394.83 169.11 395.44 169.01 396.28 169.15 397.21 169.62 399.76 168.85 400.9 168.41 402.54 168.04 406.58 166.56 409.56 165.22 422.72 158.99 425.34 157.45 427.67 157.1 428.84 157.86 429.51 158.66 430.92 158.95 432.69 158.86 435.66 158.25 437.77 157.63 441.95 157.03 444.28 156.4 444.3 156.72 443.1 157.04 443.56 157.36 446.53 156.81 448.18 156.28 450.52 155.71 453.63 155.31 457.31 155.51 461.9 156.29 466.32 156.66 469.93 156.68 474.48 156.36 478.89 156.51 482.6 156.93 486.74 157.01 488.94 156.97 491.25 156.79 493.28 156.35 496.65 155.3 498.37 154.63 500.59 154.15 504.94 152.75 508.4 151.4 510.15 150.66 512.24 150.01 515.54 149.08 517.39 148.86 519.49 148.75 522.11 148.29 524.13 148.01 525.42 147.91 529.92 148.38 532.96 148.62 534.81 148.63 537.53 148.38 538.67 148.13 541.41 147.29 543.92 147.09 545.51 147.24 545.81 147.63 544.51 148.43 542.39 149.87 540.39 151.58 539.14 153.16 538.41 154.66 538.15 155.92 538.33 156.88 537.61 161.88 537.46 164.27 537.61 166.21 538.33 168.39 538.61 169.72 538.45 170.05 537.03 170.37 535.87 171.07 535.55 171.7 535.67 172.87 536.18 173.95 536.97 174.51 537.78 175.57 538.6 176.03 539.63 176.36 544.71 176.65 545.61 176.31 546.41 175.6 547.34 175.71 547.69 176.3 548.93 177.33 549.61 177.58 551.77 177.79 553.6 177.65 554.96 177.34 555.71 177.87 556.49 178.9 556.53 179.26 557.17 179.69 558.16 179.87 559.36 179.89 561.08 179.7 564.16 178.97 568.73 177.5 570.26 176.88 572.24 175.89 573.21 175.57 574.69 175.98 575.65 176.11 577.93 175.85 578.88 176.51 579.38 177.14 580.23 178.65 581.11 179.15 582.99 180.63 583.03 181.03 582.36 181.19 582.29 180.57 581.84 180.16 581.16 180.17 580.58 180.9 580.7 181.74 581.4 182.8 582.69 182.96 585.07 182.66 586.75 182.14 589.22 180.84 589.92 181 590.7 180.26 590.6 179.78 591.28 179.64 591.98 180.39 593.04 181.06 593.8 180.89 594.72 180.23 595.43 178.94 595.46 178.05 594.65 177.59 596.46 175.44 598.94 174.23 601.49 174.42 603.56 173.43 606.8 173.57 608.4 174.34 611.63 175.06 613.34 175.06 614.38 174.9 615.48 174.26 618.3 170.96 621.5 170.34 623.15 171.66 624.29 171.73 625.58 171.52 626.94 171.13 627.99 171.34 628.55 172.26 629.08 172.58 629.75 173.93 626.27 182.46 626.99 187.08 628.96 190.59 630.25 192.09 628.91 192.78 629.32 197.45 631.09 198.61 630.06 200.14 629.13 200.36 628.24 200.34 627.61 200.64 627.15 201.29 626.27 201.18 625.71 201.45 625.28 201.28 624.61 200.58 623.3 199.67 622.52 199.75 622.68 200.66 622.16 200.78 622.02 199.89 619.98 199.55 619.56 199.76 619.81 200.23 619.58 201.09 618.53 201.09 618.27 201.46 617.26 202.23 616.69 201.91 615.13 202.44 614.57 202.82 614.59 203.21 613.97 203.43 614.12 203.77 613.62 204.1 614.68 205.22 615.65 205.55 616.6 205.09 616.45 206.19 615.78 206.65 617.39 207.33 617.91 207.37 618.81 207.93 621.23 207.62 621.8 207.1 623.05 206.67 622.71 206.26 622.98 205.68 623.93 206.08 624.36 206.88 625.37 206.55 625.68 206.05 626.32 206.33 626.58 206.97 627.13 207.26 627.85 207.23 628.6 206.35 629.38 206.83 629.44 207.89 629.98 208.42 630.82 208.7 630.86 209.16 631.94 209.59 632.77 209.27 633.72 209.84 634.82 209.62 637.89 210.77 637.75 211.9 636.98 211.66 635.67 212.24 635.49 212.86 634.65 213.09 633.95 213.82 633.79 214.92 634.57 215.66 635.24 215.93 636.27 216.74 638.17 218.86 638.86 219.4 639.38 219.44 639.88 219.83 640.47 219.65 641.5 220.39 641.95 221 642.71 221.46 643.06 222.25 644.19 222.29 644.56 221.97 644.45 221.41 644.95 221.22 646 221.34 646.43 221.05 647.14 221.18 647.27 222.15 647.91 222.46 649.95 223.04 650.76 224.29 651.26 225.54 650.17 226.17 650.3 226.8 649.77 228.37 648.58 227.44 647.69 227.34 646.47 227.62 644.83 227.46 643.89 227.64 642.97 227.31 641.77 227.67 641.19 228.03 640.79 229.02 640.09 228.82 639.09 228.27 638.11 228.02 637.39 228.02 635.56 227.53 634.04 227.51 632.82 227.2 631.45 227.39 631.37 226.85 629.99 226.47 629.18 225.85 627.65 226.09 627.66 226.59 626.66 226.19 625.93 226.84 624.76 226.75 623.9 226.34 623.51 226.44 622.87 225.95 622.53 226.29 621.61 226.47 621.06 226.89 619.7 226.07 619.3 225.63 618.73 225.66 618.69 226.48 617.85 226.14 617.64 226.51 616.48 226.2 616.26 225.96 615.1 225.91 614.2 225.11 613.57 225.36 614.64 227.08 615.04 227.46 614.92 228.23 614.37 228.64 613.26 228.24 612.66 228.65 611.49 228.79 610.02 227.86 609.15 228.13 608.99 228.54 608.23 228.47 607.62 228.66 607.07 228.42 606.39 228.59 605.64 228.29 605.32 228.44 606.36 229.38 606.42 229.63 605.44 230.19 604.07 230.12 602.93 229.8 602.44 229.21 601.56 229.56 602.15 230.41 600.92 229.82 599.26 228.79 598.94 228.39 599.46 227.58 599.24 226.74 599.72 226.26 598.58 224.95 599.79 225.6 600.06 225.97 600.96 225.93 601.43 225.5 600.91 225.09 599.94 224.78 598.7 223.98 597.16 223.51 596.48 223.49 596.16 223.97 594.91 223.59 594.08 224.12 594.46 224.88 594.48 225.54 595.06 225.99 594.55 226.52 594.67 227.28 593.78 227.02 593.31 226.53 592.84 226.42 592.59 225.36 592.72 224.95 592.15 224.65 591.45 224.72 590.42 224.39 589.65 224.91 589.67 226.06 589.34 226.47 589.59 227.05 588.72 227.33 587.77 227.23 587.52 226.29 587.79 225.88 587.96 225.04 587.49 223.3 586.57 221.91 585.61 221.54 584.63 220.95 582.84 221.15 582.36 221.54 580.42 221.3 579.84 221.47 579.45 220.62 578.88 220.37 577.76 220.21 576.28 219.23 575.39 218.94 574.38 219.15 573.47 219.6 572.32 220.71 572.01 221.4 571.8 222.49 572.66 223.65 572.34 224.94 571.65 225.62 572.62 226.43 572.28 227.05 571.45 227.07 570.28 226.86 570.04 227.47 568.76 227.45 568.05 228.05 567.06 229.98 567.49 230.35 567.75 231 568.84 231.28 569.34 231.67 569.7 232.49 568.55 232.2 567.76 232.44 567.41 232.87 567.62 234.43 568.43 234.94 569.02 236.66 568.1 236.77 568.07 237.16 568.95 237.45 569.6 237.97 570.21 238.1 570.9 238.85 570.44 239.25 568.69 239.44 566.91 239.33 566.2 239.58 565.83 240.16 565.32 239.85 563.57 239.2 561.81 238.27 560.74 237.1 558.97 237.32 557.96 236.94 557.25 236 557.34 235.25 557.16 234.39 555.24 233.93 554.64 233.42 554.25 233.42 553.3 232.8 553.08 232.33 552.29 231.72 550.3 231.85 549.76 231.58 548.02 229.26 546.9 228.04 543.79 225.57 540.79 223.57 539.76 223.11 537.68 222.66 535.68 221.91 533.65 221.7 532.49 221.34 531.79 221.42 528.15 219.59 527.11 219.24 525.99 219.13 524.97 219.42 524.43 219.25 524.36 218.65 523.18 218.03 522.28 218.14 521.9 218.65 522.34 218.85 522.15 219.44 521.42 218.83 520.65 218.84 520.15 218.45 518.48 218.11 517.77 218.33 515.74 217.71 515.32 217.92 513.67 217.27 512.75 216.79 511.83 216.88 511.61 216.45 508.7 215.19 506.74 214.87 505.64 215.01 504.6 215.53 504.29 216 503.24 216.62 502.95 215.81 502.28 215.5 502.18 214.85 500.07 214.07 498.59 214.02 497.09 214.64 497.24 215.11 495.98 215.54 495.5 215.17 493.24 214.58 491.3 214.52 490.04 214.74 489.15 215.09 487.23 216.25 485.78 217.49 484.8 218.14 483.9 219.51 482.62 220.06 481.58 220.88 480.13 222.48 479.57 223.63 478.89 223.89 478.29 224.77 477.77 225.19 477.08 225.37 476.23 226.13 475.85 226.78 476 227.25 475.47 227.59 474.96 227.47 473.44 227.47 472.75 227.61 472.47 228.03 471.75 228.25 470.29 227.81 468.51 227.58 467.55 227.75 465.47 227.28 464.75 227.23 463.8 226.81 462.39 226.4 460.39 226.16 459.71 226.18 458.82 226.55 458.13 227.39 457.23 227.67 456.21 227.35 453.21 227.28 451.99 227.48 451.48 227.91 450.52 228.27 449.48 228.96 448.82 230.36 448.84 230.95 449.72 231.32 450.06 232.22 449.36 232.09 447.99 231.36 447.05 231.21 445.75 230.35 441.57 229.07 439.72 228.63 435.26 227.75 432.01 227.5 430.41 227.69 429.14 227.7 427.85 228.14 427.72 228.51 426.93 228.43 426.45 228.8 425.21 228.76 424.05 228.37 422.45 228.14 421.86 227.86 420.7 227.88 419.47 228.28 419.37 228.59 418.52 229.43 417.88 229.61 417.5 229.36 416.31 229.22 413.97 229.81 413.38 230.31 413.79 230.83 412.98 231.56 412.33 231.55 410.93 232.01 409.96 232.63 409.14 233.55 409.31 234.43 408.91 234.88 409.05 235.45 408.08 237.22 408.09 237.76 408.65 238.15 408.85 238.63 407.53 239.44 407.54 239.91 406.78 240.54 406.63 240.91 406.99 242 406.29 242.72 406.06 243.59 406.66 244.14 406.03 244.64 404.95 244.97 404.52 245.31 402.53 244.53 400.7 244.6 399.11 245.15 398.65 245.93 399.02 246.49 398.63 246.63 397.93 247.94 396.99 247.57 396.53 248.07 395.83 248.4 393.76 247.72 393.42 248.14 393.14 249.14 392.56 249.36 391.4 248.84 390.23 248.92 389.55 249.27 388.38 249.44 388.29 250.16 389.45 250.52 389.31 250.97 388.33 251.17 388.33 251.83 389.11 252.02 388.1 252.55 388.3 253.01 387.9 253.26 387.12 253.13 386.85 252.79 385.82 252.85 384.27 252.52 383.55 252.9 383.14 253.6 383.09 254.3 383.32 254.7 383.39 255.55 382.52 256.13 382.71 256.68 382.47 257.54 380.52 257.11 379.61 257.37 378.91 258.09 379.2 259.8 379.64 260.95 379.97 262.38 380.49 262.66 381.03 263.67 380.22 264.05 379.96 263.38 378.33 262.24 376.64 262.46 376.45 262.26 375.05 261.9 372.95 260.65 372.8 260.08 372.17 259.38 372.14 258.69 371.45 258.48 370.97 258.79 370.41 258.34 369.95 257.54 369.82 256.65 370.1 255.69 370.66 255.19 371.51 254.98 372.76 255.3 374.05 254.9 375.1 253.87 375.12 253.19 374.74 253.01 374.51 252.01 374.95 251.88 375.39 251.2 376.52 251.29 377.29 250.11 378.34 249.34 378.22 248.72 378.98 248.63 379.63 248.07 379.38 247.72 378.56 247.82 377.96 247.64 378.34 247 379.3 246.89 378.68 246.42 378.55 245.91 379.36 245.74 380.16 245.86 380.23 246.28 380.93 246.32 381.22 246.94 381.8 246.83 382.03 246.41 383.01 246.24 383.66 246.42 384.24 246.84 385.4 247.07 385.68 246.63 384.64 245.57 383.65 245.13 383.84 244.08 384.52 243.58 385.3 243.68 385.91 243.31 386.08 242.78 385.63 242.13 386.11 240.96 386.72 240.49 387.53 240.4 387.97 239.52 388.82 238.81 388.69 238.53 388.67 236.65 388.11 235.57 387.48 235.13 385.68 234.23 384.86 234.1 383.41 234.54 382.91 234.9 382.62 235.5 381.76 236.49 380.3 236.55 379.82 237.11 379.21 237.17 378.34 238.14 378.41 239.81 377.22 239.84 376.9 240.78 376.23 240.36 375.48 240.71 374.36 240.3 371.77 239.8 370.98 239.75 369.99 239.93 369.57 239.59 368.51 239.28 368.42 238.64 367.66 238.1 367.44 237.67 366.73 237.36 365.85 237.42 363.5 238.12 363.29 238.51 363.59 239.25 363.46 240.02 362.89 240.57 363.09 240.88 363.98 241.41 364.24 241.96 364.37 242.99 363.8 244.21 363.32 244.66 361.44 244.77 361.07 245.35 361.95 246.63 360.98 246.48 359.56 247.08 359.34 247.56 359.77 248.04 359.63 248.5 358.51 249 357.85 249.92 357.21 250.42 357.67 251.11 357.45 252.13 355.57 252.58 355.09 253.07 354.09 252.97 352.2 252.99 351.41 253.19 350.8 253.9 349.79 254.43 349.22 253.84 348.4 253.71 347.61 253.88 347.23 254.69 346.8 254.92 346.54 255.6 346.06 255.72 345.33 256.81 344.93 256.28 345.03 255.6 344.78 254.9 343.68 254.58 343.31 253.51 343.6 251.66 344 251.22 344.2 248.53 343.68 248.08 343.41 247.18 343.36 246.39 343.66 245.55 343.49 244.72 343.07 244.41 342.92 243.06 342.68 242.76 341.7 242.36 341.79 241.98 341.22 241.25 341.66 240.92 343 240.48 343.39 239.4 344.67 238.67 345.25 237.73 346.47 237.01 346.93 236.47 347.01 235.5 346.92 234.42 345.32 233.71 343.97 233.59 343.35 234.02 343.37 234.48 343.85 234.75 342.68 235.13 341.78 236.44 341.07 237.23 340.38 237.45 339.57 238.13 340.59 238.92 341.87 239.36 339.89 240.25 338.64 240.41 337.8 240.71 337.22 241.43 336.56 241.9 336.04 242.88 335.9 243.97 335.93 245.09 335.69 245.74 336.15 246.53 335.51 246.85 335.36 248.23 335.55 248.78 336.27 249.23 338.05 249.75 336.95 250.33 336.04 250.42 335.7 251.09 334.68 252.24 333.35 252.92 333.66 253.35 334.42 253.29 335.03 253.01 335.37 253.32 333.06 253.75 331.76 254.33 331.76 255.41 330.51 255.51 328.63 255.98 326.83 256.84 326.51 257.14 325.21 257.53 324.37 258.14 324.16 259.08 323.27 259.37 323.13 259.66 322.1 260.2 322.12 260.7 321.76 261.35 321.3 261.66 319.09 264.62 318.38 265.18 317.91 266.44 316.63 267.28 315.5 268.84 315.28 270.03 314.59 270.76 313.97 272.14 313.38 272.77 313.04 273.94 312.64 274.18 311.98 275.15 311.37 275.73 311.25 276.47 310.87 277 309.73 277.75 309.35 278.7 308.56 279.29 308.5 280.35 309.23 281.02 309.1 281.48 308.26 282.47 306.79 283.02 306.01 283.57 305.67 284.81 304.99 285.27 304.51 286.02 304.18 286.09 302.68 287.05 302.42 287.54 302.56 288.45 302.32 289.03 301.37 289.27 300.9 289.75 301.1 290.69 299.71 291.38 298.74 292.33 298.18 293.42 298.25 294.56 297.63 294.84 295.83 296.21 295.15 296.88 295.04 297.36 293.61 298.56 292.36 299.86 291.99 300.1 290.7 301.52 290.68 301.95 288.64 303.31 287.96 304.52 287.46 304.6 285.6 305.53 284.6 306.76 284.13 306.82 283.39 307.29 283.11 307.81 283.35 308.06 281.98 308.87 281.88 309.24 282.36 310 281.24 310.36 280.99 310.83 281.17 311.31 280.76 311.58 280.95 312.5 281.94 313.61 282.85 314.24 282.74 314.43 Z M 695.13 649.58 690.29 649.7 685.93 649.84 680.18 649.98 674.12 650.17 672.2 650.2 669.82 650.33 664.45 650.5 650.85 650.86 643.15 651.12 639.05 651.19 621.65 651.75 613.92 651.93 604.91 652.19 600.05 652.29 593.39 652.47 589.54 652.53 581.78 652.71 569.22 652.95 560.49 653.24 560.5 646.85 543.05 646.92 539.51 646.89 535.31 646.91 525.58 646.92 504.43 646.88 493.82 646.92 493.58 646.95 486.96 646.93 475.38 646.96 466.35 646.97 454.62 646.94 449.77 646.89 430.65 646.8 424.33 646.82 408.44 646.85 405.49 646.88 397.24 646.91 391.41 646.9 382.48 646.92 371.71 646.89 359.24 646.84 363.98 644.4 369.98 640.95 371.09 640.1 373.23 638.88 374.77 637.33 376.59 636.07 379.48 633.72 380.86 632.26 381.86 631.09 383.42 628.7 384.35 626.84 384.77 625.71 385.99 622.94 386.32 622.33 388.47 619.15 389.41 617.78 389.52 617.62 389.56 617.55 390.04 616.84 390.06 616.8 390.34 616.35 391.48 614.52 392.6 612.46 392.71 611.36 393.71 610.63 394.87 609.64 395.11 609.42 397.57 606.96 397.89 606.64 399.35 605.25 399.4 605.19 400.52 604.04 400.63 603.92 401.25 603.27 401.86 602.6 402.08 602.36 402.28 602.15 402.96 601.4 404.42 599.67 405.98 597.6 408.73 593.23 410.68 589.64 411.84 587.23 412.24 585.77 413.1 583.61 413.05 582.89 413.86 581.74 415.36 578.87 415.81 577.73 416.88 574.09 416.9 573.28 417.47 569.11 418.09 566.29 418.59 565.23 418.97 563.65 418.73 561.64 418.63 559.37 418.87 558.65 419.74 557.2 420.14 556.02 420.16 555.46 420.5 554.61 420.86 552.21 420.81 548.45 420.69 546.9 420.51 546.1 420.49 546.04 420.38 545.94 420.3 545.89 420.36 545.66 420.41 545.55 420.43 545.17 420.45 544.57 420.47 544.28 420.48 544.07 420.41 540.08 420.5 537.65 420.42 536.3 420.12 534.89 420.11 534.84 420.13 534.33 420.13 534.32 420.13 534.06 420.1 533.72 419.98 533.26 419.95 532.87 419.98 532.65 419.82 530.64 419.75 530.11 419.61 528.99 419.6 528.94 418.9 524.42 418.26 521.68 417.11 518.3 416.41 517.26 416.49 516.58 416.07 514.94 414.35 511.45 414.23 511.23 413.47 509.69 411.79 506.71 411.16 505.72 410.75 505.07 410.59 504.83 410.47 504.64 410.29 504.36 408.85 502.09 408.71 501.91 408.61 501.77 408.31 501.34 407.82 500.94 407.53 500.48 407.53 500.47 407.11 499.51 406.88 499.06 406.42 498.42 406.06 497.92 405.96 497.77 404.82 495.92 402.01 491.73 400.74 489.12 399.41 486.64 398.89 485.88 398.71 484.9 398.08 483.71 396.73 480.19 395.54 476.49 395.09 474.94 394.41 473.34 393.68 471.88 392.92 470.56 389.6 465.76 388.67 464.09 387.78 461.7 387.54 460.13 387.55 459 387.78 457.58 388.71 455.68 390.59 453.61 393.42 450.97 395.45 448.82 396.18 447.83 397.09 446.34 397.86 444.57 398.24 443.32 398.49 441.91 398.57 440.75 398.47 439.44 398.2 437.96 397.71 436.85 397.05 434.56 396.81 431.73 396.19 429.53 395.57 428.71 395.5 427.44 395.29 426.46 394.2 424.73 393.28 423.45 391.44 421.38 390.74 420.3 390.15 418.79 390.15 417.77 390.74 416.8 391.57 416.03 393.13 415.09 396.91 413 398.61 411.62 400.22 409.76 401.52 407.93 402.24 406.78 402.59 405.93 403.13 405.16 404.81 403.47 405.83 401.91 406.41 400.69 407.19 398.68 408.25 397.94 408.83 397.34 409.96 395.23 411.53 392.84 413.14 390.94 414.01 390.1 414.67 389.14 415 387.82 415.4 386.8 415.66 385.3 416.35 383.59 416.73 381.6 416.71 380.22 416.35 378.54 416.38 377.16 416.65 375.41 417.16 374.82 417.66 373.55 418.06 371.89 418.14 371.31 419.15 368.83 419.49 366.92 419.37 365.88 418.99 364.29 418.35 362.84 417.82 361.9 417.13 361.05 416.19 358.95 415.64 357.41 415.86 355.1 416.04 354.59 416.69 353.88 418.28 353.18 420.46 352.61 423.45 351.92 424.97 351.35 426.03 350.58 428.03 350.95 429.39 350.99 430.88 350.68 431.92 350.11 432.53 349.6 433.69 347.98 434.08 346.82 434 345.75 433.63 344.37 434.31 343.34 434.83 341.83 434.83 340.33 434.37 337.29 434.24 335.36 434.38 334.26 434.81 333.28 435.59 332.75 437.09 332.38 437.92 332.72 438.35 333.11 439.32 333.57 440.53 333.9 442.2 333.84 443.43 333.23 444.17 332.37 444.73 330.9 445.29 330.3 446.17 329.78 447.23 328.43 447.58 327.41 448.28 326.99 449.85 327.03 451.67 327.66 452.27 328.08 453.43 329.53 454.43 329.95 455.98 330.04 457.79 329.83 459.56 329.33 460.66 328.88 461.73 327.69 462.77 326.79 463.56 325.56 463.77 323.82 463.39 322.92 465.09 321.62 466.02 319.79 466.67 318.84 467.3 318.33 470.14 317.33 471.52 316.44 472.11 315.56 473.25 314.63 473.79 313.35 473.79 312.38 474.57 311.48 475.38 310.33 475.75 309.34 477.3 307.68 478.1 306.99 478.37 306.47 479.59 305.23 480.64 306.08 482.03 306.08 482.73 305.89 483.75 305.23 484.86 304.68 485.38 303.82 486.21 302.87 487.24 302.85 487.58 303.85 488.11 304.15 488.64 305 488.17 306.21 487.62 306.65 486.1 307.19 485.85 307.68 485.16 308.03 485.55 309.34 485.14 309.58 484.76 308.74 484.31 308.41 482.67 308.53 481.36 308.99 481.14 309.87 480.32 310.56 479.91 311.16 480.41 312.56 480.78 313.11 481.8 313.98 481.49 314.76 482.53 316.01 483.32 317.26 484.03 317.16 484.71 318.01 484.55 319.7 483.93 319.55 483.41 318.35 482.67 318.29 482.28 318.65 482.32 319.14 481.64 319.38 481.56 320.23 481.31 320.89 481.37 321.71 480.47 322.5 479 323.48 478.62 323.47 477.84 324.06 477.78 324.54 477.26 324.97 477.19 325.41 476.4 326.41 476.49 326.71 477.2 327.07 478.39 327.19 480.45 325.35 480.74 324.79 481.37 324.89 481.43 325.75 481.05 326.76 481.19 327.64 480.94 328 481.1 328.78 480.86 330.02 481.2 331.4 479.3 331.48 478.88 331.64 478.2 333.03 478.29 333.21 476.8 335.47 476.46 336.43 476.57 337.08 476.12 338.92 476.21 340.66 477.18 342.73 478.02 343.77 478 344.57 477.71 345 477.27 346.25 477.46 346.57 478.53 347.08 480.05 347.31 481.41 347.21 481.98 346.92 481.9 346.32 482.3 345.6 482.8 344.05 483.12 343.64 483.42 342.05 484.48 341.28 485.48 339.45 485.93 338.13 486.43 337.51 487.51 336.97 488.02 336.52 488.25 334.86 488.83 334.39 488.5 333.92 487.84 333.68 486.68 333.69 485.86 334.92 485.36 335.07 484.9 334.46 485.22 333.94 486.21 333.18 486.74 332.53 487.35 332.17 487.48 331.65 487.96 331.28 488.41 330.3 488.41 329.17 488.88 328.78 489.29 327.83 489.1 327.19 489.31 326.47 491.3 325.76 492.23 324.82 493.8 324.7 494.25 325.79 494.27 326.27 494.74 327.34 494.63 327.98 493.31 327.63 492.85 327.69 492.56 328.17 492.84 328.61 492.68 329.49 492.39 330.07 492.17 331.09 492.4 332.02 492.06 332.88 492.44 333.67 492 334.79 491.97 335.43 491.31 336.6 491.55 336.9 491.23 337.62 491.33 338.22 490.6 338.58 490.45 339.04 489.41 339.27 489.1 339.63 488.06 339.93 487.33 340.41 485.73 341.99 485.3 343.04 485.51 343.41 485.18 344.6 485.37 345.06 484.83 346.14 484.3 346.53 484.08 347.24 483.67 347.78 484.2 348.27 485.89 348.92 487.49 349.11 488.59 349.05 489.77 347.81 490.64 347.23 490.91 346.51 490.67 345.44 490.38 345.08 490.57 344.28 491.37 343.38 492.17 343.12 494.15 342.16 495 341.31 494.96 340.81 496 339.26 496.15 338.43 496.98 337.85 497.77 337.01 498.7 335.67 498.91 334.36 499.96 333.81 500.68 332.79 500.88 331.92 501.69 330.75 501.87 329.89 502.35 329.05 502.18 328.52 502.79 327.31 503.07 326.09 502.82 324.99 503.68 323.55 503.67 323.13 503.1 322.04 503.13 320.59 503.34 319.89 503.24 319.31 503.58 318.32 504.61 317.06 504.25 316.28 504.55 315.63 504.91 312.75 504.01 311.29 503.58 309.72 503.17 309.36 503.38 308.76 503.39 306.94 503.22 305.84 502.86 305.09 502.46 304.78 502.63 304.2 502.59 303.39 502.36 302.91 502.7 300.1 503.43 298.33 503.77 297.86 504.11 296.88 504.64 296.32 505.23 296.25 505.84 295.72 507.07 295.3 507.56 294.92 507.88 294.24 508.51 293.69 509.31 293.67 509.97 293.36 510.86 292.12 511.36 291.8 512.06 292.55 513.86 292.43 514.93 292.02 515.72 291.41 516.18 290.52 516.25 290.01 517.45 290.1 518.9 289.34 520.85 287.8 521.93 287.97 522.96 287.9 523.92 287.66 524.96 287.2 526.34 287.11 527.4 286.64 528.35 286.81 528.99 287.12 530.25 287.32 531.66 287.34 535.6 287.52 536.85 287.84 537.38 287.78 538.71 287.19 539.86 286.88 541.09 286.95 541.76 287.17 542.42 287.11 544.22 286.42 545.08 286.41 547.42 285.3 548.13 285.3 548.67 284.9 549.54 284.69 549.82 284.07 549.83 283.02 549.51 282.24 548.93 281.81 546.83 281.55 545.55 281.25 543.93 281.27 543.24 281.04 542.06 281.2 541.98 281.82 541.15 281.31 539.86 280.86 537.47 280.52 534.92 278.89 533.08 276.94 531.81 275.87 531.36 274.05 530.98 273.23 530.3 272.19 530.01 270.97 529.64 270.1 529.42 268.72 529.46 267.87 529.21 267.15 529.49 266.09 529.99 265.47 531.83 264.05 532.04 263.47 533.22 262.36 533.68 261.15 535.02 260.12 535.72 260.09 537.87 259.27 539.62 258.92 541.04 257.96 541.52 257.11 541.85 256.09 542.36 255.79 543.07 255.95 544.31 255.18 544.98 254.29 545.7 253.91 546.03 253.35 546.67 253.19 547.08 251.92 546.92 251.25 546.05 250.37 545.04 249.6 544.16 249.61 543.46 248.84 542.74 248.91 541.19 248.58 540.12 248.49 540.32 247.94 541.4 248.27 546.81 248.25 547.3 248.12 548.68 248.43 550.08 249.11 550.56 249.47 551.95 249.14 552.49 248.6 553.24 248.49 555.22 249.16 557.38 249.63 558.39 248.91 558.85 248.86 560.3 249.61 561.48 249.31 562.23 248.9 562.92 248.1 563.19 247.5 563 247 562.41 246.99 561.92 245.91 563.8 245.19 565.92 245.84 566.71 245.76 567.82 245.3 568.76 245.74 568.5 246.66 568.94 247.47 569.46 247.5 571.17 248.06 572.91 248.52 573.02 249.16 574.87 249.74 576.11 249.83 577.79 250.84 578.49 251.03 580.46 251.92 583.43 253.04 585.25 253.19 585.84 254.4 587.08 255.01 587.26 255.29 588.67 255.65 589.34 256.23 590.63 256.76 591.99 257.77 592.71 257.89 593.07 258.4 594.03 258.36 595.04 258.89 596.71 258.6 597.72 259.58 598.53 259.45 599.38 258.78 598.49 257.9 597.74 257.75 598.13 257.2 599.64 257.16 600.94 257.75 603.35 258.54 604.08 258.3 605.61 258.19 607.48 257.66 607.99 257.64 612.18 258.82 613.83 259.61 616.86 260.29 617.98 260.34 619.32 260.59 621.28 262.03 622.18 262.82 622.9 263.66 623.86 264.4 624.3 264.93 625.02 265.12 625.14 265.53 627.04 266.77 628 267.86 628.18 268.44 628.18 269.8 628.55 271.51 628.88 272.27 629.6 273.2 631.18 274.29 632.99 274.95 634.8 275.14 635.72 275.02 637.16 274.56 638.05 274.41 639.91 274.56 640.44 274.82 641.97 274.85 643.63 274.52 644.41 274.7 645.37 274.63 647.21 274.79 648.55 275.21 649.86 275.45 651.08 276.45 652.62 277.23 654.76 279.21 655.41 279.7 656.91 280.61 657.69 280.66 658.32 281.31 659.36 281.58 659.7 281.95 661.87 282.44 661.98 282.83 663.5 283.31 664.38 283.24 664.76 282.78 665.51 282.99 666.3 283.64 666.74 283.62 667.07 282.88 667.4 282.93 669.01 282.57 669.72 282.9 670.17 283.73 670.7 284.22 672.27 284.95 672.6 284.94 673.6 285.52 674.44 285.67 676.05 286.69 676.8 286.95 677.62 287.49 679.16 287.55 680.2 287.94 680.82 288.79 682.48 288.57 682.69 288.89 683.49 289.25 684.13 288.89 685.21 289.05 686.1 288.65 686.09 288.21 686.88 288.18 687.73 288.57 688.79 289.32 689.24 289.35 691.23 290.04 691.61 289.81 691.61 289.01 691.02 288.28 691.77 288.37 692.28 289.14 692.95 289.47 692.9 289.79 691.89 289.8 691.67 290.36 692.11 290.97 692.74 291.4 693.11 291.32 693.15 290.73 693.98 290.74 694.22 291.81 694.72 292.18 695.48 292.03 696.16 293.22 697.27 293.56 698.12 294.31 698.47 294.96 699.92 295.29 700.46 295.65 700.58 296.11 701.88 296.33 702.48 296.98 701.98 297.74 701.86 298.4 701.47 298.69 700.36 298.43 698.95 298.27 698.91 298.78 699.7 299.09 699.35 299.47 699.4 300.03 699.82 300.39 700.2 301.38 701.11 301.95 701.33 302.57 702.22 303.59 702.62 303.56 703.3 304.51 703.74 305.46 703.84 306.68 704.65 307.62 705.77 307.77 706.21 308.55 706.64 308.87 707.14 309.69 707.72 309.35 709.02 309.72 708.36 310.21 708.39 310.56 709.07 311.31 708.59 311.82 708.98 312.66 709.48 312.69 709.3 313.83 710.4 314.41 708.77 315.87 708.71 316.34 709.52 316.76 709.55 317.33 709.09 317.95 709.09 318.63 709.78 318.98 712.19 319.36 712.78 319.31 713.46 319.96 713.58 320.45 714.19 321.53 713.35 321.53 711.85 321.22 710.25 320.51 709.12 320.41 708.66 320.06 707.85 320.04 706.55 319.66 705.74 318.91 704.87 318.79 703.9 317.67 704.25 317.35 703.96 316.28 703.39 316.19 701.79 316.24 701.45 316.99 700.75 316.83 699.49 317.32 698.8 317.34 696.88 318.39 695.88 319.4 695.2 320.59 695.36 321.06 694.96 321.41 695.02 322.16 695.66 322.11 697.14 322.69 697.26 323.33 695.27 322.76 694.44 323.27 694.26 324.26 694.64 324.67 695.57 324.93 696.07 325.79 696.11 327.52 696.3 328.64 696.78 329.77 697.36 330.57 698.13 331.18 700.2 331.97 700.74 332.69 700.75 333.25 701.62 333.67 703.01 333.79 703.21 334.15 704.02 334.79 706.1 335.45 707.47 335.45 709.06 336.01 708.71 336.39 708.99 337.29 708.48 337.98 708.51 338.53 709.13 339.6 710.16 340.43 710.55 340.93 710.65 342.26 711.25 342.98 711.3 344.2 710.95 345.1 711.02 346 711.52 347.25 710.79 348.31 711.19 350.11 711.55 350.86 712.2 351.61 713.27 352.4 713.03 354.55 712.18 356.73 711.9 358.03 711.53 358.87 711.19 359.12 709.87 360.78 709.18 362.88 709.07 364.24 709.32 367.75 709.93 369.51 708.8 372.28 708.72 372.88 708.95 374.36 708.87 375.11 707.95 379.26 707.91 380.77 708.17 382.19 708.58 383 708.04 384.16 707.9 384.85 707.26 386.43 707.11 387.88 707.38 389.62 707.26 390.01 706.58 390.56 704.86 390.36 704.21 390.41 703.28 390.89 701.47 392.44 700.47 393.48 699.23 394.2 698.74 394.87 698.09 396.4 697.33 397.22 695.75 398.46 695.54 398.35 696.33 397.4 696.66 396.81 696.09 396.31 694.37 395.77 692.73 395.64 690.65 395.99 689.8 396.28 689.33 396.8 688.21 397.49 688.12 397.79 686.93 398.82 685.79 400.91 685.41 402.56 685.17 404.63 684.89 405.24 683.93 408.02 683.94 409.47 683.81 410.93 684.26 413.04 683.8 413.12 682.67 414.34 681.87 415.02 681.58 415.67 681.67 416.63 682.72 418.64 680.6 418.11 679.67 417.96 678.61 417.96 676.02 418.26 675.29 418.48 673.59 419.39 672.77 419.94 672.79 420.45 671.8 421.19 672.24 422.38 672.73 424.14 672.68 424.8 671.04 424.32 670.84 423.92 670.11 423.53 669.02 423.7 667.9 423.23 666.73 423.05 665.82 423.32 665.74 424.46 665.02 424.58 664.49 424.98 663.07 424.92 661.72 424.6 660.96 424.91 660.64 424.55 660.65 424.05 659.3 423.89 658.77 424.43 658.18 424.46 657.11 423.92 655.98 424.61 655.45 425.72 654.66 426.97 654.25 427.3 653.25 427.36 652.83 428.41 652.26 428.91 651.83 430.03 651.75 431.16 650.83 431.19 650.97 431.61 650.18 431.72 649.9 432.49 649.52 433.55 649.28 434.81 649 435.2 649.17 436.75 648.41 437.65 648.68 438.73 648.58 438.97 648.73 440.21 648.59 440.8 648.69 441.81 648.08 443.46 648.23 444.73 647.95 445.78 647.45 446.19 647.01 446.13 646.46 447.15 645.42 447.09 645.18 447.41 645.43 448.47 645.97 449.53 646.89 451.94 649.52 455.71 650.28 456.46 651.66 457.22 655.19 458.79 655.77 459.22 656.38 458.17 657.14 458.14 657.36 458.53 658.56 459.03 659.14 459.1 659.31 459.92 660.75 460.15 661.19 460.07 663.75 460.61 664.61 461.01 667.25 461.71 667.86 462.17 669.76 463.3 670.79 464.58 672.22 464.99 672.88 464.54 673.95 464.41 674.39 463.97 676.02 462.97 677.28 461.81 678.23 461.09 680.68 458.78 681.16 458.49 682.39 456.98 683.18 456.26 683.64 456.07 684.58 454.82 685.34 454.95 685.36 454.46 685.83 454.07 685.64 453.63 686.7 452.64 687.22 452.74 688.27 451.76 689.4 452.64 688.87 453.06 688.68 453.72 690.97 453.72 691.63 453.21 693.02 451.56 693.74 451.06 694.54 449.95 694.39 449.65 696.21 447.88 696.87 446.63 696.66 446.42 697.5 445.06 698.27 445.11 698.27 444.36 698.98 443.83 699.36 443.07 700.36 442.71 701.08 441.57 701.46 440.27 701.92 439.23 701.61 438.68 702.15 438.22 703.44 438.32 704.1 438.2 705.13 437.7 706.69 436.31 706.9 435.93 707.66 435.56 708.12 435.13 708.01 433.88 707.69 433.21 706.28 432.98 704.32 432.84 702.96 432.56 701.54 432.62 701.01 432.76 700.29 432.38 700.56 431.83 701.9 432.14 703.96 432.24 707.94 431.99 709.7 431.51 711.02 430.8 712.73 429.42 712.62 429 713.71 427.94 714.43 426.65 714.36 426.03 715.84 425.97 717.66 425.52 718.51 425.49 720.76 425.2 722.07 425.4 723.02 425.25 723.57 424.86 724.14 424.94 725.45 424.78 727.08 424.25 729.32 423.1 730.95 423.38 732.62 423.46 733.95 423.23 734.67 422.94 736.17 421.67 736.86 420.38 737.24 420 737.77 418.96 738.08 419.06 740.34 418.87 741.45 418.7 742.45 418.06 743.59 417.07 744.64 416.78 744.74 417.23 745.78 417.37 747.51 416.76 748.35 416.8 749.29 417.35 750.41 417.56 751.51 418.49 752.9 419.07 754.68 419.34 757.17 419.89 757.78 420.2 759.08 420.34 759.34 420.73 761.14 421.25 761.63 422.2 762.6 422.75 763.83 422.71 764.84 423.37 765.62 424.43 766.28 424.52 766.75 424.97 768.07 427.01 768.4 428.01 768.73 428.46 769.37 428.79 769.81 429.67 770.33 430.06 770.4 430.9 771 431.31 771.23 432.01 772.16 432.81 771.82 433.24 771.89 433.79 772.32 434.37 772.61 435.47 774.88 436.75 774.96 437.32 775.71 438.28 775.47 438.56 775.93 439.76 776.66 440.03 777.27 441.5 777.57 442.63 778.23 443.83 777.98 444.8 778.91 445.57 779.01 446.33 778.59 446.67 778.65 447.6 778.46 447.91 778.72 448.88 779.19 449.31 779.35 449.92 779.2 450.94 779.73 452.37 779.52 452.71 779.4 453.64 779.72 454.44 779.65 454.99 779.9 455.59 779.77 457.32 779.98 458.54 780.27 459.24 780.12 460.02 780.44 460.61 780.71 461.94 780.32 462.3 780.29 462.99 780.61 464.44 780.96 464.96 781.27 466.05 781.43 467.2 781.89 468.09 781.85 469.08 782.74 470.59 783.22 471.78 783.2 472.4 783.76 473.12 783.9 474.35 784.78 475.81 785.04 476.99 785.69 477.76 785.64 478.64 786.13 479.16 786.52 480.17 786.36 481.03 786.57 482.57 786.47 483.59 787 485.02 786.99 486.1 786.79 486.6 786.64 488.05 786.71 488.51 787.3 489.55 787.44 491.73 787.14 492.77 787.56 494.41 787.62 496.16 787.78 496.37 787.64 497.36 787.95 498.18 788.07 500.79 788.47 502.05 789.49 503.64 789.5 504.24 790.21 507.14 790.95 508.93 791.31 511.47 791.64 512.01 791.77 513.04 792.71 514.1 793.26 514.52 794.05 516.34 794.64 517.14 796.32 519.74 797.7 521.54 798.12 522.69 797.85 523.91 798.3 524.83 799 525.56 798.67 526.58 797.48 528.04 795.64 529.46 794.8 530.56 793.95 533.12 793.37 534.47 793.54 537.3 793.47 538.05 793.1 539.53 792.5 540.68 792.11 542.33 792.28 542.93 793.31 544.88 793.66 546.31 793.59 547 792.03 549.83 791.98 551.35 790.92 553.08 789.29 556.65 789.37 559.44 788.5 561.74 787.84 562.57 785.57 563.94 784.96 564.67 782.44 566.59 781.99 567.71 781.37 568.02 779.95 568.27 779.49 568.21 778.7 567.64 777.98 567.4 777.04 567.44 776.11 567.68 774.24 568.94 773.64 569.78 772.52 570.88 772.28 570.07 772.48 569.56 773.33 569.31 773.99 568.49 775.3 567.79 775.63 567.18 775.14 566.64 774.29 566.26 772.83 566.96 772.1 567.57 771.68 566.51 772.33 566.09 772.33 565.65 772.92 565.19 774.26 564.97 774.61 564.04 774.35 563.54 773.47 563.81 772.72 563.39 771.7 564.2 770.32 564.53 769.32 564.04 769.14 563.34 770.35 562.46 771.72 562.49 772.81 561.51 772.27 561.27 772.06 560.83 771.45 560.42 772.89 560.47 773.88 560.72 773.96 559.93 774.84 558.41 775.13 558.09 776.19 558.72 776.52 559.14 777.32 558.93 777.77 558.41 778.11 557.55 778.03 556.61 777.33 555.82 776.89 555.6 775.62 555.63 775.1 555.93 774.45 555.29 773 554.45 771.88 554.15 770.34 554.2 769.53 554.8 767.81 554.88 766.88 555.59 766.9 555.86 765.75 555.87 765.12 556.18 764.45 556.77 764.43 557.49 762.38 557.92 761.22 557.63 760.73 557.74 759.91 558.27 759.12 559.06 758.66 560.04 758.43 560.52 758.41 561.61 759.24 562.07 761.2 562.66 761.15 563.13 761.78 563.9 761.58 564.67 762.3 566.05 762.01 566.76 761.55 566.28 760.79 566.02 758.37 566.05 757.06 566.34 755.97 566.97 755.55 567.54 755.49 568.14 754.55 568.92 753.05 570.75 752.26 573 752.16 575.12 752.06 575.43 752.79 575.89 752.93 577.07 753.65 577.6 753.46 577.98 753.05 578.91 753.11 579.54 752.63 580.18 751.91 582.24 751.63 583.27 751.1 584.12 750.12 584.86 748.99 585.25 748.15 586.3 748.05 586.82 747.25 587.34 744.94 587.59 744.07 587.54 743.81 587.81 745.12 588.36 744.54 589.05 741.61 589.8 739.13 589.91 737.91 590.16 734.19 591.36 732.52 592.36 730.56 594.36 729.72 596.04 729.36 596.97 727.93 599.18 727.42 602.73 727.13 605.54 727.52 606.8 728.04 609.23 728.64 610.46 728.44 611.24 727.82 612.48 727.37 613.96 726.32 613.9 725.34 614.07 724.76 614.4 724.44 613.99 723.3 614.25 723.64 615.32 723.27 615.44 722.78 614.73 722.35 614.63 721.48 615.22 721.37 616.37 721.92 617.76 721.83 618.53 720.61 619.06 719.59 618.59 719.32 618.77 720.28 619.45 721.24 620.3 722.02 620.29 722.42 621.03 722.01 622.05 721.42 621.81 720.53 621.1 719.73 621.46 720.16 622.04 719.78 622.33 719.62 623.34 719.97 623.73 719.01 624.09 718.47 623.32 717.19 623.49 716.97 623.84 717.93 624.11 715.58 625.55 714.91 626.96 714.74 627.62 715.25 628.41 714.33 628.97 714.06 629.83 713.61 628.94 712.17 628.47 710.5 628.52 709.18 629.19 708.66 629.58 707.97 630.49 707.9 631.3 707.48 631.51 707.27 632.19 707.04 633.94 706.36 634.97 705.96 635.21 704.83 635.47 703.53 635.21 702.27 635.94 701.55 637.01 700.85 637.74 699.7 639.86 699.65 640.11 698.7 640.76 697.24 641.03 696.7 641.57 696.23 643.84 696.49 645.09 697.79 647.78 697.91 648.67 697.19 648.22 696.81 648.29 696.62 646.97 694.37 647.04 693.69 646.59 693.46 646.91 692.69 647.13 692.73 647.73 693.68 648.31 693.75 648.78 695.38 648.8 695.13 649.58 Z M 719.37 318.71 720.39 319.28 721.32 320.29 720.82 320.4 720.1 319.81 720.01 319.44 719.37 318.71 Z M 717.71 319.23 718.3 318.82 718.79 318.94 718.76 319.73 717.9 319.84 717.71 319.23 Z M 710.74 317.32 711.53 317.09 711.45 317.86 710.74 317.32 Z M 707 304.77 707.64 304.16 708.21 304.33 708.64 304.99 708.14 305.22 707 304.77 Z M 696.54 419.77 697.82 420.3 697.94 420.7 697.16 420.87 696.52 420.79 696.54 419.77 Z M 663.37 219.05 663.85 218.76 664.43 217.82 665.29 217.59 665.67 217.73 666.11 218.56 667.27 218.84 667.14 219.55 666.18 220.15 666.04 220.72 664.77 220.36 664.16 219.24 663.37 219.05 Z M 658.03 214.04 659.53 213.35 660.05 213.67 661.43 213.48 661.52 214.03 662.43 214.42 662.98 215.03 662.53 215.15 661.3 214.67 661.08 215.04 660.47 214.96 660.57 214.27 659.54 214.21 659.42 214.74 658.03 214.04 Z M 655.73 217.51 655.77 217.05 656.65 217.43 656.33 217.86 655.73 217.51 Z M 653.89 216.4 654.32 216.1 655.47 216.93 654.28 217.07 653.89 216.4 Z M 652.52 226.63 653.01 226.35 652.79 225.81 652.99 225.27 653.49 224.84 654.06 223.49 654.74 223.41 655.68 222.39 656.28 221.54 657.21 221.74 658.03 222.2 658.27 222.57 657.36 223.16 657.95 223.64 658.38 224.43 658.29 224.98 659.06 224.87 660.17 225.79 661.19 225.32 661.37 224.6 661.86 224.31 662.66 224.34 663.34 223.34 662.71 222.89 663.74 222.73 664.24 222.35 664.14 221.71 665.2 221.62 665.88 221.89 666.95 221.79 667.52 221.46 667.97 220.7 669.57 220.17 669.84 220.37 671.86 220.63 672.25 220.14 671.39 219.58 672.1 219.11 672.85 219.02 673.57 218.71 673.56 218.14 672.99 217.87 673.24 217.45 673 216.91 672.16 216.74 670.76 216.67 668.8 216.08 667.54 215.52 668.42 214.83 668.77 214.11 670.27 214.09 670.74 213.83 674.62 214.19 675.8 213.86 677.23 213.82 678.17 214 679.19 214.62 681.45 215.36 682.04 215.1 682.58 215.25 683.1 215.86 683.44 216.72 683.45 217.22 684.01 217.48 684.17 218.01 685.01 218.16 685.98 219.41 686.36 220.48 686.61 222.07 686.5 222.34 687.34 222.82 687.51 223.55 688.76 223.32 690.05 224.66 690.62 224.71 691.85 224.23 692.61 224.57 693.28 225.33 693.35 225.74 692.5 226.99 691.55 227.37 690.71 228.18 690.86 229.21 690.28 229.53 690.21 230.05 689.45 230.36 689.49 231.45 688.56 232.09 687.86 232.38 686.97 231.88 685.73 232.4 684.5 231.95 682.58 232.16 682.48 232.59 680.42 231.7 679.86 231.22 680.3 230.29 679.14 230.17 679.07 230.82 677.52 231.15 677.53 230.42 678.66 229.71 678.43 229.14 677.7 228.47 677.15 228.48 677.55 229.6 676.61 230.08 676.48 229.45 674.97 229.62 674.14 230 673.28 230.06 671.97 230.63 671.08 230.01 670.63 230.02 670.18 230.74 669.54 230.57 668.81 230.76 668.37 229.72 667.82 229.73 666.64 230.44 665.67 230 665.12 229.3 665.06 228.71 663.88 228.78 663.11 229.31 662.93 230.16 662.16 230.87 661.49 230.76 661.44 230.39 660.67 230.41 660.52 230.03 659.17 229.16 658.46 228.92 658.24 229.54 658.4 229.91 657.84 230.31 657.01 230.2 657.73 229.25 657.16 228.85 656.38 228.87 656.31 228.15 655.4 228.2 654.85 227.83 653.75 227.94 652.45 227.24 652.52 226.63 Z M 639.67 215.06 640.5 214.68 641.31 214.73 642.09 215.8 642.79 216.53 643.18 216.67 643.19 217.3 641.26 216.61 639.58 215.48 639.67 215.06 Z M 582.75 227.86 583.28 227.2 584.21 227.37 584.82 227.83 584.78 228.49 584.22 228.92 582.93 228.29 582.75 227.86 Z M 582 242.85 582.12 242.49 583.08 242.14 583.64 242.19 585.97 243.03 587.2 243.34 588.52 243.32 590.09 243.01 590.73 243.09 591.57 243.54 593.55 244.25 596.42 244.98 597.6 245.45 598.56 245.1 598.95 244.62 598.83 243.55 599.75 244.1 600.32 245.32 601 245.84 601.8 245.73 603.62 246.48 604.91 246.75 605.36 247.04 603.9 248.51 604.04 249.21 603.65 249.65 603.12 249.63 601.85 250.16 601.41 250.87 601.6 251.29 600.39 251.87 599.78 251.75 599.01 252.09 598.15 251.73 597.62 251.28 595.83 251.45 594.43 250.97 593.54 250.84 592.85 251.1 590.92 250.38 590.29 249.6 590.13 248.71 589.19 248.17 588.48 247.94 588.38 247.51 587.09 246.35 587.06 246.03 586.27 245.51 586.02 245.11 584.79 244.47 582.84 243.87 582.18 243.38 582 242.85 Z M 579.9 240.68 580.97 240.74 582.1 241.53 581.79 241.94 580.29 241.57 579.9 240.68 Z M 576.88 226.89 577.05 226.34 577.45 226.09 578.07 226.23 580.15 227.43 579.09 228.34 577.88 228.64 577.02 228.34 577.42 227.65 576.88 226.89 Z M 575.89 237.87 576.48 236.68 576.36 235.79 576.86 235.6 578.12 235.93 578.78 236.4 580.81 238.93 580.36 239.28 579.49 239.15 579.05 239.58 578 239.1 577.07 238.88 575.95 238.16 575.89 237.87 Z M 553.07 237.61 554.19 237.7 554.91 238.12 554.63 238.74 553.11 238.02 553.07 237.61 Z M 533.73 247.52 534.7 247.45 535.18 247.93 533.86 247.88 533.73 247.52 Z M 501.8 246.4 502.42 246.14 503.03 245.5 504.02 244.91 504.67 244.23 504.26 243.67 504.43 243.31 503.47 242.72 504.38 242.32 504.95 242.34 505.45 242.72 506.19 243.83 506.23 244.54 505.24 245.17 505.5 246.26 504.86 246.34 503.95 247.14 503.55 247.21 502.09 246.67 501.8 246.4 Z M 488.33 244.08 489.51 243.82 489.55 243.54 488.75 243.06 488.4 242.25 488.87 242.17 488.69 241.35 489.63 241.39 492.05 242.19 494.16 243.48 494.01 243.79 494.51 244.33 495.46 244.37 495.88 245.01 494.78 245.22 494.84 245.9 494.54 246.1 492.82 246.04 492.13 246.7 491.74 246.77 490.73 246.31 491 245.78 491.97 245.24 491.25 244.78 491.03 244.31 490.34 244.54 488.36 244.31 488.33 244.08 Z M 483.01 337.46 483.21 336.84 483.86 336.61 484.26 337.38 483.31 337.68 483.01 337.46 Z M 481.89 240.37 482.63 240.05 482.64 240.74 481.89 240.37 Z M 479.59 243.05 480.14 242.7 480.91 242.94 480.23 243.39 479.59 243.05 Z M 478.75 263.9 479.08 263.76 479.14 262.69 479.36 261.61 480.52 260.91 480.95 260.07 480.89 259.13 480.56 258.51 480.51 257.68 480.86 257.33 480.99 255.88 481.33 255.22 481.86 254.99 482.35 254.28 483.16 253.95 484.15 252.95 484.09 251.33 484.56 251.23 485.11 250.56 485.05 249.8 484.61 249.07 484.53 248.25 485.62 248.16 486.36 248.38 486.94 248.97 488.79 249.06 490.64 248.59 491.18 248.67 491.54 249.48 490.43 249.87 490.4 249.26 489.8 249.16 489.25 249.63 489.23 250.38 489.95 250.45 490.48 251.04 491.43 251.47 491.11 252.02 491.67 252.58 491.9 254.24 491.03 254.99 490.7 255.97 490.93 257.04 491.26 257.65 492.28 258.87 492.3 259.53 492.57 260.34 492.47 261.07 492.6 261.95 492.13 263.31 490.66 263.81 490.38 264.41 489.51 264.77 488.62 264.9 487.89 265.69 487.91 266.23 487.21 266.55 485.16 266.83 483.65 266.59 482.75 266.07 481.64 266.11 481.11 265.82 480.42 265.99 479.35 265.77 478.72 264.55 478.75 263.9 Z M 471.29 250.25 471.58 250.22 472.48 249.38 473.21 249.36 474.98 249.75 476 250.07 475.89 250.82 476.27 251.85 475.87 252.51 474.16 253.79 474.06 254.27 473.32 254.48 471.61 254.33 472.01 253.18 472.65 252.12 472.05 251.53 471.89 250.67 471.29 250.25 Z M 462.44 275.24 463.13 274.87 463.85 275.01 464.33 275.38 464.7 276.44 464.39 277.77 463.65 277.28 463.08 276.32 462.1 275.83 462.44 275.24 Z M 457.01 254.61 457.51 253.08 457.89 253.18 458.07 253.85 457.93 254.45 457.01 254.61 Z M 452.95 279.53 455.47 280.07 456.21 280.32 458.21 281.96 458.75 283.41 458.63 284.67 458.38 285.57 457.56 285.74 457.2 284.89 454.9 282.28 453.91 281.47 452.95 279.53 Z M 435.03 309.96 435.54 308.69 436.43 308.08 437.03 307.97 440.87 308.35 442.52 308.81 442.99 309.53 443.77 310.08 443.77 311.29 443.98 311.65 443.53 312.27 443.23 313.62 443.05 315.19 443.18 315.82 443.75 316.6 445.09 317.54 443.76 317.63 441.51 318.49 440.71 318.18 439.8 316.99 438.2 315.78 437.36 314.86 436.23 314.37 435.61 313.83 435.44 313.08 435.67 312.42 435.38 311.6 435.26 310.57 435.03 309.96 Z M 425.94 322.44 426.05 322.07 426.76 321.13 427.34 319.86 427.69 319.58 429.71 319.04 431.2 319.59 432.47 319.74 432.96 319.93 433.7 320.64 432.72 320.67 431.78 320.87 431.3 321.6 431.72 322.54 432.27 322.87 431.89 323.24 429.93 323.97 429.01 323.92 428.02 324.18 426.08 323.6 425.94 322.44 Z M 375.6 266.19 376.17 265.34 377.05 265.66 377.78 266.73 378.28 266.9 378.97 266.76 379.44 267.69 379.45 268.1 378.9 268.76 378.91 269.1 378.19 269.56 377.55 269.74 376.77 269.61 376.57 268.74 376.1 268.41 376.06 267.88 375.6 266.19 Z M 374.65 271.08 375.55 270.74 375.67 271.79 374.96 271.87 374.65 271.08 Z M 371.51 263.49 371.86 262.7 372.44 262.35 373.94 262.7 374.72 263.23 373.94 264.06 372.66 264.49 371.52 263.74 371.51 263.49 Z M 370.78 169.83 371.9 168.89 373.82 168.27 374.08 168.65 375 168.69 376.33 168.29 377.06 168.97 377.12 169.28 377.82 169.71 378.43 170.56 379.02 170.86 378.74 171.53 378.72 172.59 378.22 173.85 377.68 174.18 376.98 175.59 378.08 176.48 378.83 176.56 379.69 175.54 380.69 174.99 380.95 176.76 380.68 177.46 379.35 178.68 378.14 178.98 377.58 178.89 376.88 178.07 377.55 177.89 378.07 177.19 375.67 177.31 375.22 178.34 374.5 179.26 373.99 179.2 372.91 178.7 372.82 177.96 373.04 176.54 373.05 175.67 373.29 174.98 373.2 174.38 372.03 173.99 371.51 173.22 371.26 171.46 370.73 170.17 370.78 169.83 Z M 366.87 172.79 367.33 172.76 367.96 173.23 368 173.94 367.27 173.81 366.87 172.79 Z M 363.35 273.8 363.56 273.06 364.32 272.92 365.23 273.43 365.94 273.62 365.84 274.79 365.87 276.1 365.14 276.13 364.21 275.26 363.73 275.12 363.27 274.14 363.35 273.8 Z M 351.74 175.55 352.68 175.71 352.26 176.11 351.74 175.55 Z M 299.89 164.07 300.29 163.85 300.89 164.1 300.25 164.62 299.89 164.07 Z M 276.91 82.88 278.01 82.81 279.6 82 280.27 82.32 280.96 82.27 282.23 82.45 282.43 82.98 281.92 83.85 280.21 83.85 279.33 83.22 278 83.1 276.91 82.88 Z M 205.58 2.25 206.09 1.77 206.94 1.33 208.1 1 208.55 1.17 206.41 2.08 205.58 2.25 Z M 116.19 37.78 116.95 37.16 117.89 36.97 118.92 37 120.05 36.74 120.93 35.93 120.76 35.55 120.01 35.46 119.58 35.84 118.17 36.24 117.76 35.92 119.83 35.23 120.2 34.73 120.39 33.68 122.14 33 122.28 32.52 123.62 31.92 124.53 31.28 132.9 28 141.6 25.13 142.23 25.04 142.97 24.58 143.96 24.26 147.31 23.38 148.25 22.9 149.38 22.61 149.98 22.74 151.43 22.41 152.85 21.91 152.99 21.34 158.76 19.11 157.43 20.41 158.8 20.12 160.1 19.63 160.73 19.12 161.29 19.3 161.82 19.02 163.57 18.52 164.55 18.03 165.11 16.94 165.89 16.31 167.87 15.56 171.52 14.32 174.73 12.8 174.87 12.13 175.64 11.29 179.01 9.99 180.87 9.37 183.22 8.81 184.42 8.62 187.55 7.37 189.77 8.33 192.13 8.04 193.04 7.31 194.03 6.87 196.25 6.48 197.5 6.57 199.95 5.77 200.39 6.82 200.22 7.79 197.6 9.33 195.4 10.49 193.75 11.25 191.05 12.67 185.56 15.46 184.59 16.33 184.42 17.03 184.82 17.65 184.79 18.54 183.67 19.4 180.18 21.2 178.58 21.87 178.32 22.16 175.28 23.66 172.89 24.53 170.45 25.29 168.32 25.72 167 26.11 166.6 26.47 165.73 26.35 165.07 26.73 163.13 26.91 161.42 27.6 158.9 28.37 157.05 28.26 155.71 28.61 155.09 28.97 153.37 29.61 152.44 29.46 149.9 30.46 149.92 31.12 147.69 31.75 145.84 32.64 143.78 33.29 142.08 33.92 142.22 34.65 141.88 34.91 142.3 35.71 144.65 35.25 145.5 35.45 146.63 35.33 147.33 35.72 148.34 35.43 152.39 34.53 151.57 35.11 151.2 35.64 147.99 36.51 147.23 36.85 144.73 37.41 142.68 38.12 140.96 38.5 140.12 38.91 138.84 39.16 137.96 39.19 135.16 40.01 133.74 40.54 131.63 41.18 130.02 41.89 128.51 42.04 127.78 42 126.24 42.39 125.49 42.26 124.47 41.65 123.18 41.41 123.23 40.65 122.61 39.94 121.61 39.61 120.88 39.67 119.01 39.59 119.01 39.22 119.58 38.93 120.3 38.16 120.19 37.94 121.55 37.12 122.43 36.43 122.07 36.14 121.41 36.2 119.91 37.08 116.83 37.92 116.19 37.78 Z M 657.58 456.83 657.88 456.16 658.56 455.92 659.15 456.34 658.97 456.87 657.58 456.83 Z M 695.74 441.87 695.98 441.22 697.36 441.57 695.74 441.87 Z M 695.73 437.64 696.17 437.38 697 437.33 697.5 437.86 696.88 437.98 696.75 438.49 696.86 439.57 695.6 437.97 695.73 437.64 Z" fill-rule="evenodd" fill="none" stroke="currentColor" stroke-width="1"/>
</g>
</svg>