<svg viewBox="-91.21879889369109 -49.039284081244645 9.60580897493574 8.14364944706066" xmlns="http://www.w3.org/2000/svg">
  <path d="M -87.592192,45.094762 L -87.591015,45.096672 L -87.60012,45.103011 L -87.610073,45.114141 L -87.612019,45.123377 L -87.607918,45.12608 L -87.60974,45.130819 L -87.607183,45.135522 L -87.595912,45.139161 L -87.600796,45.146842 L -87.599814,45.150474 L -87.586068,45.158644 L -87.588401,45.16114 L -87.585651,45.166394 L -87.578251,45.171105 L -87.573468,45.1717 L -87.563417,45.18407 L -87.54476,45.193351 L -87.539748,45.19415 L -87.53292,45.206334 L -87.512502,45.219931 L -87.512336,45.224252 L -87.499323,45.23849 L -87.495645,45.240901 L -87.48309,45.253934 L -87.468757,45.265943 L -87.467634,45.270817 L -87.460863,45.277491 L -87.442828,45.291211 L -87.436544,45.294046 L -87.437257,45.3055 L -87.431684,45.316383 L -87.421961,45.325939 L -87.407989,45.332887 L -87.409952,45.34234 L -87.405291,45.347175 L -87.395725,45.349527 L -87.393353,45.355333 L -87.394775,45.364492 L -87.392143,45.369394 L -87.377065,45.379072 L -87.373814,45.379753 L -87.368942,45.38725 L -87.3621,45.391871 L -87.358704,45.404287 L -87.350929,45.409815 L -87.336152,45.41536 L -87.327749,45.425307 L -87.32641,45.429911 L -87.333775,45.436631 L -87.333147,45.447208 L -87.325191,45.453199 L -87.321397,45.462697 L -87.309957,45.470255 L -87.306122,45.475513 L -87.304919,45.482944 L -87.298808,45.488733 L -87.292239,45.498512 L -87.288239,45.500897 L -87.284787,45.512647 L -87.278868,45.518974 L -87.272612,45.532786 L -87.265745,45.540119 L -87.263488,45.552032 L -87.252216,45.567703 L -87.239322,45.576127 L -87.234612,45.588817 L -87.227516,45.594354 L -87.205353,45.624056 L -87.200703,45.627224 L -87.197112,45.633692 L -87.197295,45.638703 L -87.186943,45.644116 L -87.185603,45.647047 L -87.176612,45.650015 L -87.174512,45.659434 L -87.166089,45.665468 L -87.153083,45.669454 L -87.149917,45.672428 L -87.131841,45.681038 L -87.112945,45.685812 L -87.100441,45.686817 L -87.100426,45.697592 L -87.087373,45.703384 L -87.064248,45.707749 L -87.067636,45.71083 L -87.073755,45.708055 L -87.081358,45.707419 L -87.084432,45.711805 L -87.071129,45.718591 L -87.060894,45.730092 L -87.057444,45.736822 L -87.048327,45.737733 L -87.037329,45.743586 L -87.055194,45.748817 L -87.062406,45.753296 L -87.064302,45.758828 L -87.0628,45.772612 L -87.056376,45.775854 L -87.061001,45.783758 L -87.058562,45.79029 L -87.058844,45.80151 L -87.057439,45.812483 L -87.052246,45.822257 L -87.045666,45.827008 L -87.039842,45.834245 L -87.031435,45.837238 L -87.018902,45.838886 L -86.998983,45.847744 L -87.011818,45.852214 L -87.022038,45.860077 L -87.013957,45.866946 L -87.007064,45.869097 L -86.999934,45.877041 L -86.990902,45.890194 L -86.97913,45.894045 L -86.984002,45.896774 L -86.984121,45.901323 L -86.977941,45.905623 L -86.964394,45.904466 L -86.94835,45.897353 L -86.9474,45.886518 L -86.948231,45.876756 L -86.952866,45.871378 L -86.965107,45.864096 L -86.97093,45.854743 L -86.983765,45.847376 L -86.987686,45.836531 L -87.001115,45.832143 L -87.005522,45.828798 L -86.99984,45.821464 L -87.000673,45.817695 L -86.990858,45.813689 L -86.988438,45.810621 L -86.98692,45.797092 L -86.982733,45.794063 L -86.98102,45.785673 L -86.984033,45.777216 L -86.983595,45.769374 L -86.980832,45.760305 L -86.975668,45.75582 L -86.977655,45.728768 L -86.981662,45.724422 L -86.984588,45.705812 L -86.980885,45.695057 L -86.969765,45.691895 L -86.967315,45.684923 L -86.968268,45.678059 L -86.964275,45.672761 L -86.956995,45.683709 L -86.952132,45.68485 L -86.949562,45.691674 L -86.945198,45.693985 L -86.941458,45.702156 L -86.933495,45.703816 L -86.925295,45.702571 L -86.919591,45.696595 L -86.909441,45.701911 L -86.903302,45.709066 L -86.895394,45.71101 L -86.876431,45.711298 L -86.8664,45.710231 L -86.861625,45.715189 L -86.842677,45.719684 L -86.840562,45.729953 L -86.84517,45.73681 L -86.838658,45.741831 L -86.832058,45.75108 L -86.820835,45.756078 L -86.819409,45.760721 L -86.823743,45.765486 L -86.821523,45.770356 L -86.807334,45.776309 L -86.797542,45.774896 L -86.806455,45.787743 L -86.802653,45.793543 L -86.783875,45.794606 L -86.779003,45.799177 L -86.773279,45.811385 L -86.774612,45.821696 L -86.777225,45.827183 L -86.786152,45.832529 L -86.788109,45.835608 L -86.782478,45.841131 L -86.781125,45.848861 L -86.784119,45.856299 L -86.78208,45.860195 L -86.758449,45.867274 L -86.749638,45.867796 L -86.742466,45.864719 L -86.740348,45.860399 L -86.7327,45.855016 L -86.731738,45.848591 L -86.721113,45.845431 L -86.716966,45.842049 L -86.706962,45.843822 L -86.699031,45.843369 L -86.673084,45.838316 L -86.661827,45.834213 L -86.65434,45.837773 L -86.647567,45.83355 L -86.644358,45.842989 L -86.632478,45.843309 L -86.633168,45.860068 L -86.624403,45.869782 L -86.618346,45.870384 L -86.613536,45.875982 L -86.598874,45.876576 L -86.59021,45.886534 L -86.587372,45.892481 L -86.582323,45.896113 L -86.567719,45.9005 L -86.559498,45.899249 L -86.541464,45.890234 L -86.535206,45.885805 L -86.529573,45.874974 L -86.529321,45.856151 L -86.528014,45.853254 L -86.53657,45.846135 L -86.541011,45.837299 L -86.549106,45.836483 L -86.555186,45.831696 L -86.560027,45.820034 L -86.555547,45.813499 L -86.557215,45.808172 L -86.563392,45.804469 L -86.571172,45.805452 L -86.578021,45.800464 L -86.579947,45.789897 L -86.569964,45.785505 L -86.559506,45.774896 L -86.562358,45.77042 L -86.574005,45.772741 L -86.579828,45.776969 L -86.586345,45.7788 L -86.596121,45.777055 L -86.598486,45.772824 L -86.604309,45.771746 L -86.607147,45.777987 L -86.61421,45.778404 L -86.614959,45.782565 L -86.622966,45.783734 L -86.631096,45.782116 L -86.629741,45.776969 L -86.623561,45.772244 L -86.633176,45.771166 L -86.636965,45.764738 L -86.630929,45.762876 L -86.622729,45.763954 L -86.620233,45.760389 L -86.62677,45.754751 L -86.634399,45.753912 L -86.633138,45.747654 L -86.643659,45.739971 L -86.65146,45.728123 L -86.662762,45.728964 L -86.667175,45.722154 L -86.671553,45.720847 L -86.669263,45.71086 L -86.665511,45.70903 L -86.665677,45.702217 L -86.676184,45.691862 L -86.689102,45.687862 L -86.701731,45.691095 L -86.71016,45.688988 L -86.715781,45.683949 L -86.718669,45.67437 L -86.717315,45.665433 L -86.712727,45.657437 L -86.707105,45.652834 L -86.702233,45.655991 L -86.69534,45.653831 L -86.695045,45.646926 L -86.688772,45.639969 L -86.687208,45.634253 L -86.666127,45.621689 L -86.652166,45.6181 L -86.650208,45.61607 L -86.633224,45.618249 L -86.616893,45.606796 L -86.614266,45.600121 L -86.606227,45.603902 L -86.61158,45.6141 L -86.61681,45.616864 L -86.620143,45.631224 L -86.62456,45.642757 L -86.62744,45.659876 L -86.62043,45.667098 L -86.611306,45.669733 L -86.591753,45.66537 L -86.589366,45.674075 L -86.591255,45.67959 L -86.582473,45.685389 L -86.583213,45.693949 L -86.585519,45.697889 L -86.585057,45.704895 L -86.580936,45.71192 L -86.57372,45.715813 L -86.558138,45.712484 L -86.547808,45.713018 L -86.545089,45.709681 L -86.537258,45.708361 L -86.53328,45.710849 L -86.535263,45.715434 L -86.525166,45.720797 L -86.533005,45.722652 L -86.533005,45.729289 L -86.523103,45.731322 L -86.521742,45.735792 L -86.533361,45.739492 L -86.532411,45.746624 L -86.520764,45.748366 L -86.513892,45.751891 L -86.502169,45.752709 L -86.490503,45.747425 L -86.484673,45.749682 L -86.48187,45.759708 L -86.478467,45.763938 L -86.457735,45.757121 L -86.450669,45.76039 L -86.446088,45.765454 L -86.436632,45.761697 L -86.429627,45.774888 L -86.425687,45.77627 L -86.429395,45.781862 L -86.424828,45.789747 L -86.408858,45.795228 L -86.390516,45.795946 L -86.370551,45.788074 L -86.366273,45.791554 L -86.355448,45.794863 L -86.34912,45.799812 L -86.355062,45.805355 L -86.352844,45.814052 L -86.345727,45.821311 L -86.349432,45.832252 L -86.347928,45.835945 L -86.340291,45.842285 L -86.340354,45.846947 L -86.327108,45.855065 L -86.329161,45.859925 L -86.334733,45.8638 L -86.334844,45.869262 L -86.325118,45.887011 L -86.326564,45.892744 L -86.32251,45.897251 L -86.324232,45.90608 L -86.315981,45.915247 L -86.306224,45.921501 L -86.292243,45.926089 L -86.2857,45.926049 L -86.277525,45.933302 L -86.281717,45.938608 L -86.275768,45.943551 L -86.252336,45.949504 L -86.240345,45.948072 L -86.236491,45.945611 L -86.230164,45.947361 L -86.221603,45.955815 L -86.220546,45.958883 L -86.208255,45.962978 L -86.196618,45.963185 L -86.190664,45.960285 L -86.17463,45.958055 L -86.163055,45.954078 L -86.150576,45.953736 L -86.145714,45.957372 L -86.137787,45.956652 L -86.136553,45.9603 L -86.123567,45.964748 L -86.11081,45.964847 L -86.094753,45.966704 L -86.062159,45.964277 L -86.01744,45.95546 L -85.998868,45.950968 L -85.956922,45.938118 L -85.943969,45.929525 L -85.934515,45.928036 L -85.920771,45.92068 L -85.913769,45.919439 L -85.917108,45.928404 L -85.926017,45.932104 L -85.926213,45.938093 L -85.91957,45.952104 L -85.9091,45.959074 L -85.899492,45.962594 L -85.894391,45.966949 L -85.882175,45.968989 L -85.852066,45.968242 L -85.841855,45.96506 L -85.832816,45.967845 L -85.825819,45.976292 L -85.81696,45.979985 L -85.810115,45.980222 L -85.790035,45.977804 L -85.775861,45.973672 L -85.766424,45.969487 L -85.759188,45.969004 L -85.738288,45.964216 L -85.72862,45.965986 L -85.710802,45.963594 L -85.696141,45.959202 L -85.688954,45.961404 L -85.686114,45.965635 L -85.679217,45.967026 L -85.663966,45.967013 L -85.658876,45.965802 L -85.653542,45.969287 L -85.654991,45.973981 L -85.651224,45.980472 L -85.642647,45.988146 L -85.635754,45.989963 L -85.630526,45.994091 L -85.624578,46.002927 L -85.617759,46.005586 L -85.612054,46.017089 L -85.597542,46.033164 L -85.587116,46.041343 L -85.574266,46.046875 L -85.565235,46.060667 L -85.55538,46.0672 L -85.540858,46.079581 L -85.52157,46.091257 L -85.512696,46.094727 L -85.5001,46.09694 L -85.480603,46.096379 L -85.457958,46.090473 L -85.453078,46.086677 L -85.440438,46.091078 L -85.441932,46.095793 L -85.426916,46.101964 L -85.412064,46.101437 L -85.390893,46.093607 L -85.389882,46.087128 L -85.383198,46.083991 L -85.380281,46.075876 L -85.369704,46.082078 L -85.366622,46.086778 L -85.356214,46.092086 L -85.345169,46.093453 L -85.325522,46.090245 L -85.296282,46.077598 L -85.294149,46.073285 L -85.284899,46.074163 L -85.275681,46.069364 L -85.25907,46.062815 L -85.254847,46.064948 L -85.234542,46.058765 L -85.227423,46.060912 L -85.210698,46.05752 L -85.205658,46.053625 L -85.197868,46.053704 L -85.19063,46.047622 L -85.188713,46.053495 L -85.193134,46.055573 L -85.189283,46.06062 L -85.180299,46.061708 L -85.168433,46.055561 L -85.167676,46.049467 L -85.162329,46.047773 L -85.152027,46.050725 L -85.140835,46.049601 L -85.130433,46.046076 L -85.093909,46.027726 L -85.086848,46.028575 L -85.075248,46.024933 L -85.054834,46.022805 L -85.03477,46.015348 L -85.01399,46.010774 L -85.003597,46.00613 L -84.973556,45.986134 L -84.9423,45.9613 L -84.931102,45.949062 L -84.913584,45.925868 L -84.908224,45.923086 L -84.888217,45.924463 L -84.880373,45.918346 L -84.878171,45.913613 L -84.868572,45.907332 L -84.864711,45.907342 L -84.858677,45.902203 L -84.839374,45.89759 L -84.837624,45.889054 L -84.838472,45.881512 L -84.831396,45.872038 L -84.82123,45.868217 L -84.803498,45.870436 L -84.792763,45.858691 L -84.775077,45.849358 L -84.757596,45.842887 L -84.752417,45.839738 L -84.74871,45.845575 L -84.741551,45.848121 L -84.723729,45.846989 L -84.706229,45.848919 L -84.701527,45.852863 L -84.708471,45.860421 L -84.714633,45.861762 L -84.721177,45.866952 L -84.729921,45.8698 L -84.72964,45.873729 L -84.720395,45.874841 L -84.72632,45.89207 L -84.734472,45.897246 L -84.736566,45.912833 L -84.733049,45.917149 L -84.725135,45.919596 L -84.713598,45.91672 L -84.717221,45.924931 L -84.722204,45.928872 L -84.733189,45.931624 L -84.735827,45.93812 L -84.740105,45.941839 L -84.730179,45.961198 L -84.723039,45.967279 L -84.710178,45.967078 L -84.707818,45.973132 L -84.696053,45.971076 L -84.687712,45.97126 L -84.684368,45.977499 L -84.694013,45.985606 L -84.687096,45.992434 L -84.683938,46.005417 L -84.6925,46.016968 L -84.690467,46.027947 L -84.687322,46.03488 L -84.675835,46.046009 L -84.66671,46.050486 L -84.656567,46.052654 L -84.647609,46.049704 L -84.632774,46.039866 L -84.62156,46.038286 L -84.615775,46.03575 L -84.611914,46.027204 L -84.606091,46.028937 L -84.586592,46.026584 L -84.581763,46.03049 L -84.563891,46.032459 L -84.554011,46.026499 L -84.544405,46.02286 L -84.535161,46.008879 L -84.530444,45.991385 L -84.532105,45.982999 L -84.5349,45.97891 L -84.532392,45.969448 L -84.52278,45.968413 L -84.514071,45.971292 L -84.516569,45.977096 L -84.51329,45.981177 L -84.513515,45.992703 L -84.50579,45.997987 L -84.495451,45.994685 L -84.488439,45.995345 L -84.482735,45.992373 L -84.484009,45.98825 L -84.481527,45.977579 L -84.476728,45.976519 L -84.472022,45.971552 L -84.463128,45.968925 L -84.464315,45.976601 L -84.459205,45.981886 L -84.465028,45.986428 L -84.465266,45.993033 L -84.469069,46.000629 L -84.46075,46.005994 L -84.448153,46.002197 L -84.444944,46.006985 L -84.43817,46.00682 L -84.422721,46.002032 L -84.410243,45.994024 L -84.400498,45.990969 L -84.395335,45.98686 L -84.400069,45.98253 L -84.4091,45.982115 L -84.411788,45.985767 L -84.423909,45.992373 L -84.412489,45.979175 L -84.41729,45.974363 L -84.415104,45.965996 L -84.420311,45.95778 L -84.417121,45.953783 L -84.400438,45.943459 L -84.388104,45.937558 L -84.39406,45.9461 L -84.385198,45.949556 L -84.380295,45.943638 L -84.368811,45.940501 L -84.355112,45.939753 L -84.345219,45.945346 L -84.345832,45.947935 L -84.35629,45.957355 L -84.353081,45.958842 L -84.345594,45.955785 L -84.338701,45.95752 L -84.333245,45.955113 L -84.327114,45.957065 L -84.319494,45.956335 L -84.317846,45.960454 L -84.30917,45.963179 L -84.294419,45.953815 L -84.282711,45.955164 L -84.276702,45.959354 L -84.26556,45.955331 L -84.25997,45.959461 L -84.258781,45.967144 L -84.262822,45.970943 L -84.273518,45.988203 L -84.267219,45.990763 L -84.258187,45.982671 L -84.246541,45.982175 L -84.244402,45.97978 L -84.232756,45.976725 L -84.230616,45.980359 L -84.222179,45.976973 L -84.221822,45.985231 L -84.216118,45.985478 L -84.212077,45.981102 L -84.198412,45.972854 L -84.192915,45.977036 L -84.183656,45.978851 L -84.180282,45.982291 L -84.173856,45.977415 L -84.169971,45.978385 L -84.161335,45.974248 L -84.149562,45.9734 L -84.1422,45.979863 L -84.132164,45.975881 L -84.132312,45.980904 L -84.117005,45.983348 L -84.108847,45.9771 L -84.094949,45.973306 L -84.094188,45.967821 L -84.080403,45.969803 L -84.06819,45.966606 L -84.052978,45.966401 L -84.0346,45.961493 L -84.027342,45.961541 L -84.017565,45.959046 L -84.007556,45.953492 L -84.000465,45.951517 L -83.996471,45.961461 L -83.990636,45.965068 L -83.978652,45.96868 L -83.969389,45.965298 L -83.959994,45.967193 L -83.943476,45.965541 L -83.931235,45.96835 L -83.922322,45.967359 L -83.910407,45.958037 L -83.90509,45.973801 L -83.906397,45.980078 L -83.895464,45.986436 L -83.900535,45.998918 L -83.908583,46.011471 L -83.92905,46.017269 L -83.93547,46.020385 L -83.93682,46.030183 L -83.943933,46.031465 L -83.948229,46.028533 L -83.958806,46.02977 L -83.963808,46.027833 L -83.962728,46.022261 L -83.966412,46.019043 L -83.977701,46.019373 L -83.981267,46.027295 L -83.988872,46.031915 L -83.993388,46.038021 L -84.003727,46.045527 L -84.009669,46.043712 L -84.014661,46.047589 L -84.01989,46.048002 L -84.026782,46.053445 L -84.045797,46.074719 L -84.056136,46.082798 L -84.06294,46.085557 L -84.070753,46.092936 L -84.069147,46.103978 L -84.062078,46.111311 L -84.05364,46.113618 L -84.0519,46.11981 L -84.038696,46.12562 L -84.031036,46.123186 L -84.029634,46.134539 L -84.060383,46.146138 L -84.071466,46.143927 L -84.080973,46.149608 L -84.089309,46.146432 L -84.100126,46.15077 L -84.100463,46.155288 L -84.108901,46.158169 L -84.114367,46.163437 L -84.114941,46.174114 L -84.122825,46.178881 L -84.130292,46.170104 L -84.137541,46.169775 L -84.143008,46.172655 L -84.145622,46.179156 L -84.152039,46.181871 L -84.155129,46.176852 L -84.16535,46.17356 L -84.169625,46.181665 L -84.179135,46.185656 L -84.181818,46.17983 L -84.178422,46.1757 L -84.191016,46.171357 L -84.196669,46.16615 L -84.221001,46.163062 L -84.229998,46.168705 L -84.235245,46.169067 L -84.251424,46.175888 L -84.244616,46.180473 L -84.24319,46.191498 L -84.252697,46.186973 L -84.262442,46.190264 L -84.273018,46.201451 L -84.268027,46.204741 L -84.269572,46.208195 L -84.263274,46.210416 L -84.263511,46.214363 L -84.257926,46.218146 L -84.242239,46.223408 L -84.236576,46.220249 L -84.22635,46.227989 L -84.223819,46.231629 L -84.213242,46.231629 L -84.210984,46.240342 L -84.213455,46.244987 L -84.209296,46.247123 L -84.188792,46.243714 L -84.18737,46.234797 L -84.182174,46.236018 L -84.183743,46.245071 L -84.175899,46.245952 L -84.16276,46.236797 L -84.156093,46.229778 L -84.151778,46.228093 L -84.146196,46.230816 L -84.137345,46.229714 L -84.132754,46.236203 L -84.126348,46.239157 L -84.117429,46.238983 L -84.108089,46.241238 L -84.097766,46.256512 L -84.115563,46.268225 L -84.119629,46.315013 L -84.106247,46.321963 L -84.119122,46.337014 L -84.138906,46.372221 L -84.146172,46.41852 L -84.111225,46.504119 L -84.117925,46.517619 L -84.123325,46.520919 L -84.128925,46.530119 L -84.139426,46.532219 L -84.153027,46.52832 L -84.166027,46.52622 L -84.177428,46.52692 L -84.19402,46.540149 L -84.226131,46.53392 L -84.254434,46.500821 L -84.265391,46.494393 L -84.275814,46.492821 L -84.293016,46.492803 L -84.325371,46.500021 L -84.341427,46.507689 L -84.37396813306424,46.509097946749485 L -84.394725,46.499242 L -84.420274,46.501077 L -84.445149,46.489016 L -84.46332164299199,46.46743479418705 L -84.455256,46.462785 L -84.455527,46.453897 L -84.462597,46.44094 L -84.471848,46.434289 L -84.479513,46.432573 L -84.490148,46.439267 L -84.497117,46.446835 L -84.503992,46.445443 L -84.50299,46.440629 L -84.510777,46.433165 L -84.517817,46.434753 L -84.542537,46.421722 L -84.559423,46.416537 L -84.583309,46.413505 L -84.596263,46.415144 L -84.603274,46.425794 L -84.604463,46.434231 L -84.59864,46.44152 L -84.591866,46.441601 L -84.58735,46.437507 L -84.586637,46.431282 L -84.579863,46.43292 L -84.580292,46.436912 L -84.599169,46.451797 L -84.607945,46.456747 L -84.616489,46.47187 L -84.621548,46.478193 L -84.63102,46.484868 L -84.65388,46.48225 L -84.663559,46.483603 L -84.678423,46.487694 L -84.688092,46.484453 L -84.707972,46.474557 L -84.723338,46.468266 L -84.769151,46.453523 L -84.800101,46.446219 L -84.817307,46.444319 L -84.829372,46.444488 L -84.839262,46.446292 L -84.845674,46.450678 L -84.846168,46.45431 L -84.853995,46.464605 L -84.861448,46.46993 L -84.87507,46.466781 L -84.893423,46.465406 L -84.915184,46.467515 L -84.921931,46.469962 L -84.934432,46.480315 L -84.937927,46.486214 L -84.947269,46.487399 L -84.955307,46.480269 L -84.964312,46.476787 L -85.015211,46.479712 L -85.025598,46.483028 L -85.033766,46.48767 L -85.041944,46.498335 L -85.049847,46.503963 L -85.054943,46.51475 L -85.056133,46.52652 L -85.052954,46.532827 L -85.041365,46.539799 L -85.027083,46.543038 L -85.025491,46.546397 L -85.028302,46.559735 L -85.035476,46.581547 L -85.037056,46.600995 L -85.035504,46.625021 L -85.028291,46.675125 L -85.030078,46.684769 L -85.027513,46.697451 L -85.020159,46.712463 L -85.007616,46.728339 L -84.987539,46.745483 L -84.966249,46.759958 L -84.953297,46.767915 L -84.956248,46.771894 L -84.972216,46.773315 L -84.997404,46.771317 L -85.024921,46.762886 L -85.036286,46.760435 L -85.063556,46.757856 L -85.082139,46.757964 L -85.112604,46.760445 L -85.157817,46.765147 L -85.170718,46.764168 L -85.191017,46.761306 L -85.21728,46.756749 L -85.238354,46.755644 L -85.25686,46.75338 L -85.290043,46.744073 L -85.310929,46.737526 L -85.32855,46.730128 L -85.363187,46.71653 L -85.406895,46.702511 L -85.429097,46.69767 L -85.446384,46.691032 L -85.480173,46.680456 L -85.500509,46.676038 L -85.523713,46.674246 L -85.545771,46.673816 L -85.587345,46.674627 L -85.624573,46.678862 L -85.668753,46.680404 L -85.714415,46.677156 L -85.750606,46.677368 L -85.794923,46.681083 L -85.841057,46.688896 L -85.877908,46.690914 L -85.90917,46.686885 L -85.932617,46.681179 L -85.949136,46.675879 L -85.978965,46.670335 L -85.983599,46.673515 L -85.971478,46.676776 L -85.971668,46.679934 L -85.995044,46.673676 L -86.036969,46.667627 L -86.058157,46.661412 L -86.087939,46.65532 L -86.105767,46.65436 L -86.119862,46.657256 L -86.12663,46.665303 L -86.138295,46.672935 L -86.161681,46.669475 L -86.188024,46.654008 L -86.319981,46.591481 L -86.34989,46.578035 L -86.390409,46.563194 L -86.406905,46.559453 L -86.418253,46.555076 L -86.443866,46.547303 L -86.453257,46.552017 L -86.461598,46.553474 L -86.467745,46.552456 L -86.470901,46.547746 L -86.481956,46.542709 L -86.484003,46.535965 L -86.489551,46.532823 L -86.495054,46.524874 L -86.505529,46.518852 L -86.514151,46.516154 L -86.523259,46.5092 L -86.524959,46.505381 L -86.531927,46.500122 L -86.548158,46.495152 L -86.551352,46.495564 L -86.568363,46.477236 L -86.582436,46.467935 L -86.595744,46.452901 L -86.605155,46.454199 L -86.608364,46.452656 L -86.607533,46.443321 L -86.625477,46.426367 L -86.638122,46.411686 L -86.651242,46.412112 L -86.662175,46.418667 L -86.662532,46.421944 L -86.652787,46.431528 L -86.655306,46.442502 L -86.66921,46.445614 L -86.683352,46.439145 L -86.70323,46.439378 L -86.710573,46.444908 L -86.718327,46.455581 L -86.732352,46.465598 L -86.731096,46.47176 L -86.735929,46.475231 L -86.741746,46.475565 L -86.754508,46.479593 L -86.787905,46.477729 L -86.803557,46.466669 L -86.808817,46.460611 L -86.812233,46.452752 L -86.811561,46.44621 L -86.816026,46.437892 L -86.837448,46.434186 L -86.850111,46.434114 L -86.875151,46.43728 L -86.886212,46.444222 L -86.883976,46.450976 L -86.889355,46.4549 L -86.889398,46.458907 L -86.909099,46.466529 L -86.918207,46.464557 L -86.927725,46.464566 L -86.942661,46.469274 L -86.947077,46.472064 L -86.949316,46.478277 L -86.944087,46.479995 L -86.952718,46.494391 L -86.955351,46.501524 L -86.962842,46.509646 L -86.964534,46.516549 L -86.970701,46.519784 L -86.976958,46.526581 L -86.98249,46.528396 L -86.994237,46.526948 L -86.999585,46.528665 L -87.005308,46.533953 L -87.008724,46.532723 L -87.02163,46.534214 L -87.019907,46.528092 L -87.025136,46.526048 L -87.037848,46.526403 L -87.043966,46.520506 L -87.062335,46.516869 L -87.077279,46.515339 L -87.102407,46.502218 L -87.104689,46.497891 L -87.116634,46.494808 L -87.134571,46.493918 L -87.15842,46.498561 L -87.162569,46.505352 L -87.171264,46.504041 L -87.173307,46.498913 L -87.179784,46.495568 L -87.202404,46.490827 L -87.22826,46.488797 L -87.258732,46.488255 L -87.285565,46.489583 L -87.310755,46.492017 L -87.333712,46.496201 L -87.35941,46.503452 L -87.366767,46.507303 L -87.381349,46.517292 L -87.38929,46.524472 L -87.393985,46.533183 L -87.3903,46.542577 L -87.376428,46.546213 L -87.381307,46.550217 L -87.381013,46.555609 L -87.387607,46.561389 L -87.392828,46.570852 L -87.39247,46.577291 L -87.386052,46.582273 L -87.379539,46.581601 L -87.37701,46.590337 L -87.38003,46.593508 L -87.38629,46.591094 L -87.386409,46.585459 L -87.395322,46.584397 L -87.407919,46.587827 L -87.412673,46.591666 L -87.431212,46.590441 L -87.434658,46.594932 L -87.43953,46.594769 L -87.442612,46.602776 L -87.451368,46.605923 L -87.464108,46.614811 L -87.462639,46.617644 L -87.467563,46.626228 L -87.467965,46.635623 L -87.49286,46.642561 L -87.503025,46.647497 L -87.511367,46.661962 L -87.524873,46.676313 L -87.522446,46.681013 L -87.525397,46.690536 L -87.529413,46.693998 L -87.540605,46.696948 L -87.543629,46.703283 L -87.557687,46.710298 L -87.562137,46.714916 L -87.573493,46.720239 L -87.582745,46.730527 L -87.582872,46.737904 L -87.590767,46.753009 L -87.592753,46.767658 L -87.595479,46.774332 L -87.592511,46.781156 L -87.607988,46.788408 L -87.620345,46.799587 L -87.628081,46.805157 L -87.6333,46.812107 L -87.641887,46.813733 L -87.64892,46.812124 L -87.657303,46.813309 L -87.667873,46.817095 L -87.674345,46.82405 L -87.674541,46.836964 L -87.680668,46.842496 L -87.687164,46.841742 L -87.684709,46.834387 L -87.687108,46.830007 L -87.69387,46.826965 L -87.708304,46.824426 L -87.727329,46.825854 L -87.732575,46.831878 L -87.736732,46.847216 L -87.737021,46.853448 L -87.741014,46.865247 L -87.750102,46.864309 L -87.755868,46.860453 L -87.765989,46.861316 L -87.776804,46.866823 L -87.778752,46.870422 L -87.77693,46.876726 L -87.782461,46.879859 L -87.803726,46.881383 L -87.813222,46.886157 L -87.816794,46.891154 L -87.827162,46.889713 L -87.846195,46.883905 L -87.86112,46.887605 L -87.874538,46.892578 L -87.897653,46.908907 L -87.916591,46.909606 L -87.921768,46.908538 L -87.956,46.909051 L -87.986113,46.905957 L -87.998715,46.905351 L -88.007319,46.908737 L -88.016995,46.910479 L -88.035102,46.90865 L -88.070419,46.919539 L -88.08187,46.920458 L -88.101315,46.917207 L -88.113572,46.912819 L -88.126927,46.90984 L -88.140122,46.90897 L -88.161913,46.904941 L -88.184786,46.904648 L -88.196313,46.898315 L -88.202255,46.897259 L -88.215327,46.891331 L -88.211287,46.884102 L -88.232352,46.872662 L -88.242661,46.861355 L -88.254545,46.839167 L -88.26215,46.836402 L -88.264884,46.829573 L -88.272965,46.824207 L -88.283423,46.822987 L -88.282829,46.832012 L -88.271465,46.837875 L -88.260368,46.852984 L -88.254663,46.865986 L -88.242661,46.885077 L -88.234104,46.894742 L -88.212,46.909032 L -88.207365,46.908139 L -88.200591,46.914553 L -88.187522,46.918999 L -88.150114,46.94363 L -88.147028,46.947238 L -88.147075,46.953902 L -88.140727,46.95849 L -88.132905,46.960431 L -88.144771,46.967003 L -88.15061,46.963863 L -88.155374,46.965069 L -88.167227,46.958855 L -88.178333,46.954818 L -88.18982,46.952316 L -88.198728,46.943912 L -88.216981,46.939665 L -88.244437,46.929612 L -88.261593,46.915516 L -88.281244,46.906632 L -88.31029,46.889748 L -88.314663,46.884499 L -88.322142,46.880439 L -88.34247,46.86565 L -88.35194,46.857028 L -88.368767,46.857313 L -88.375761,46.861696 L -88.372325,46.871881 L -88.379959,46.872025 L -88.389727,46.8671 L -88.403988,46.851421 L -88.403011,46.847165 L -88.389475,46.851871 L -88.382052,46.845437 L -88.38141,46.838466 L -88.415225,46.811715 L -88.417262,46.808828 L -88.433835,46.793502 L -88.439673,46.781971 L -88.449062,46.77074 L -88.450607,46.76317 L -88.467482,46.751934 L -88.480751,46.749986 L -88.495107,46.755148 L -88.499575,46.759083 L -88.482099,46.782622 L -88.47847,46.784716 L -88.469842,46.780664 L -88.462641,46.788964 L -88.472791,46.804317 L -88.473237,46.812749 L -88.482579,46.826197 L -88.481444,46.843622 L -88.477935,46.85056 L -88.478952,46.861729 L -88.474321,46.87672 L -88.475859,46.886042 L -88.469583,46.894802 L -88.455404,46.923321 L -88.44857,46.946769 L -88.446455,46.970162 L -88.438755,46.981935 L -88.433478,46.981935 L -88.432432,46.975611 L -88.425635,46.977654 L -88.415557,46.977687 L -88.40353,46.984854 L -88.385606,47.004522 L -88.373966,47.012262 L -88.367624,47.019213 L -88.367207,47.027216 L -88.359054,47.039739 L -88.353725,47.054839 L -88.353191,47.069063 L -88.349952,47.076377 L -88.324115,47.086874 L -88.297625,47.098505 L -88.288347,47.114547 L -88.287173,47.12042 L -88.28904,47.129689 L -88.281701,47.138212 L -88.267811,47.144765 L -88.257689,47.144735 L -88.252148,47.141678 L -88.247628,47.135981 L -88.239895,47.139436 L -88.232164,47.145975 L -88.231797,47.149609 L -88.23947,47.151137 L -88.24266,47.158426 L -88.242006,47.174767 L -88.239012,47.186238 L -88.228987,47.199042 L -88.220015,47.202563 L -88.212361,47.209423 L -88.194218,47.209242 L -88.179711,47.212964 L -88.174482,47.211915 L -88.166355,47.215534 L -88.15725,47.225959 L -88.137053,47.235056 L -88.117456,47.255174 L -88.108833,47.259131 L -88.096851,47.261351 L -88.0890940442619,47.2704589372668 L -88.082624,47.275218 L -88.071476,47.286768 L -88.06009,47.295796 L -88.054849,47.29824 L -88.034105,47.301884 L -88.016478,47.306275 L -87.989133,47.322633 L -87.985279,47.323266 L -87.968604,47.332582 L -87.958386,47.334435 L -87.946352,47.334254 L -87.93825,47.342299 L -87.938787,47.346777 L -87.947397,47.355461 L -87.954796,47.356809 L -87.962567,47.362543 L -87.965598,47.368645 L -87.965063,47.37443 L -87.957058,47.38726 L -87.941613,47.390073 L -87.910165,47.392994 L -87.896528,47.391695 L -87.882245,47.395588 L -87.86641,47.393832 L -87.8567,47.395387 L -87.843329,47.393424 L -87.838469,47.390019 L -87.83063,47.389954 L -87.827115,47.38616 L -87.815371,47.38479 L -87.800294,47.392148 L -87.789085,47.393814 L -87.779104,47.392278 L -87.76738,47.393963 L -87.765019,47.398652 L -87.759057,47.403013 L -87.742417,47.405823 L -87.732166,47.402601 L -87.721274,47.401032 L -87.712421,47.4014 L -87.710471,47.4062 L -87.715184,47.414694 L -87.716831,47.421799 L -87.713027,47.426416 L -87.715942,47.439816 L -87.730804,47.449112 L -87.756739,47.460717 L -87.801184,47.473301 L -87.809228,47.473917 L -87.816958,47.471998 L -87.847181,47.473836 L -87.851909,47.468058 L -87.865645,47.469011 L -87.879172,47.467846 L -87.892385,47.471164 L -87.902416,47.477045 L -87.938305,47.479753 L -87.951776,47.479185 L -87.975847,47.480187 L -87.978934,47.47942 L -88.040291,47.475999 L -88.048077,47.474973 L -88.048226,47.470008 L -88.065855,47.467945 L -88.090435,47.46808 L -88.139651,47.462693 L -88.141719,47.457479 L -88.159283,47.455179 L -88.160445,47.460157 L -88.176216,47.457103 L -88.18182,47.457657 L -88.200355,47.452085 L -88.213671,47.449925 L -88.218424,47.441585 L -88.227446,47.435093 L -88.245671,47.428038 L -88.262894,47.425073 L -88.285195,47.422392 L -88.303447,47.412204 L -88.324083,47.403542 L -88.355104,47.393737 L -88.372877,47.391983 L -88.381109,47.386346 L -88.389459,47.384431 L -88.414178,47.371762 L -88.420059,47.371603 L -88.425867,47.368322 L -88.436587,47.3564 L -88.445558,47.348992 L -88.459262,47.339903 L -88.470484,47.327653 L -88.477733,47.31346 L -88.50078,47.293503 L -88.524902,47.277286 L -88.552483,47.261468 L -88.562015,47.253363 L -88.577048,47.244003 L -88.592609,47.240708 L -88.613009,47.238341 L -88.625615,47.229457 L -88.639716,47.226242 L -88.653713,47.225806 L -88.672395,47.219137 L -88.69966,47.204831 L -88.729688,47.185834 L -88.750387,47.168099 L -88.754064,47.162568 L -88.761313,47.15675 L -88.775218,47.150366 L -88.789813,47.150925 L -88.800691,47.146761 L -88.805047,47.143334 L -88.814834,47.141399 L -88.821895,47.137207 L -88.830597,47.126761 L -88.845824,47.114654 L -88.855372,47.114263 L -88.861612,47.110514 L -88.872331,47.107782 L -88.88914,47.100575 L -88.892133,47.095941 L -88.903706,47.086161 L -88.902509,47.082796 L -88.908454,47.074285 L -88.911708,47.073789 L -88.911911,47.065096 L -88.914189,47.059246 L -88.924492,47.042156 L -88.933617,47.030793 L -88.950811,47.014103 L -88.959409,47.008496 L -88.972802,47.002096 L -88.987197,46.997239 L -88.998417,46.995314 L -89.016393,46.99404 L -89.022994,46.99512 L -89.02893,47.00114 L -89.03949,46.999419 L -89.063103,46.988522 L -89.07812,46.985752 L -89.093931,46.985143 L -89.106277,46.98648 L -89.113158,46.989356 L -89.118339,46.99422 L -89.128698,46.992599 L -89.142595,46.984859 L -89.14873,46.97666 L -89.157636,46.969298 L -89.17323,46.963885 L -89.181862,46.951463 L -89.201511,46.931149 L -89.218749,46.918527 L -89.227914,46.912954 L -89.249143,46.903326 L -89.256674,46.902026 L -89.283551,46.889866 L -89.294806,46.887863 L -89.311994,46.87927 L -89.332814,46.873404 L -89.35229,46.862973 L -89.388988,46.852678 L -89.415154,46.843983 L -89.437047,46.839512 L -89.47154,46.837359 L -89.480777,46.838901 L -89.491252,46.838448 L -89.495769,46.840987 L -89.502662,46.840043 L -89.513938,46.841835 L -89.520373,46.839168 L -89.544447,46.835027 L -89.551495,46.836714 L -89.556158,46.834603 L -89.583495,46.829301 L -89.595177,46.826396 L -89.600883,46.822913 L -89.613198,46.819488 L -89.629758,46.818521 L -89.63687,46.820182 L -89.639115,46.823966 L -89.660625,46.831056 L -89.673375,46.833229 L -89.686933,46.830735 L -89.699053,46.830167 L -89.707167,46.8312 L -89.720277,46.830413 L -89.750856,46.825596 L -89.788755,46.818103 L -89.829155,46.804534 L -89.849141,46.795126 L -89.91998,46.737177 L -89.957101,46.716929 L -89.97155,46.711325 L -89.985817,46.70319 L -89.997083,46.691735 L -90.027886,46.673733 L -90.048564,46.666785 L -90.068937,46.663098 L -90.100695,46.655132 L -90.123817,46.650947 L -90.128513,46.650868 L -90.152056,46.646634 L -90.164026,46.645515 L -90.210757,46.632991 L -90.237609,46.624485 L -90.265294,46.618516 L -90.306609,46.602741 L -90.310521,46.603038 L -90.330584,46.608815 L -90.337401,46.607192 L -90.347027,46.600845 L -90.370225,46.589328 L -90.385929,46.582926 L -90.414486,46.566964 L -90.41831481244644,46.56605171352115 L -90.413945,46.556524 L -90.408464,46.55506 L -90.40598,46.548577 L -90.399588,46.544222 L -90.395069,46.533768 L -90.385955,46.533791 L -90.367083,46.541163 L -90.35785,46.538813 L -90.350684,46.540325 L -90.343595,46.54806 L -90.343533,46.552455 L -90.33165,46.553084 L -90.326474,46.545963 L -90.320663,46.546606 L -90.310782,46.539387 L -90.310604,46.532411 L -90.316554,46.516896 L -90.299947,46.517594 L -90.291658,46.520249 L -90.284464,46.518715 L -90.276744,46.524407 L -90.272023,46.520254 L -90.27524,46.515389 L -90.266567,46.507855 L -90.26357,46.502862 L -90.256698,46.504805 L -90.245235,46.505192 L -90.229601,46.508416 L -90.228948,46.501469 L -90.220772,46.503568 L -90.216172,46.501272 L -90.205696,46.484446 L -90.203002,46.477013 L -90.193148,46.472316 L -90.192581,46.461968 L -90.188337,46.458335 L -90.178037,46.455914 L -90.176751,46.447675 L -90.177707,46.440089 L -90.166715,46.439632 L -90.16334896259895,46.43448819043535 L -90.162349,46.427491 L -90.158688,46.422659 L -90.158767,46.41097 L -90.153211,46.404112 L -90.146667,46.399013 L -90.147298,46.395441 L -90.139785,46.385435 L -90.1324989004263,46.38118192019398 L -90.134055,46.372208 L -90.129732,46.369873 L -90.118822,46.359531 L -90.116837,46.350739 L -90.120032,46.344764 L -90.120572,46.337039 L -90.079188,46.328791 L -89.918893,46.29776 L -89.790292,46.273318 L -89.764505,46.268082 L -89.608511,46.238371 L -89.537309,46.224501 L -89.53322,46.224001 L -89.463498,46.210062 L -89.398871,46.19754 L -89.376369,46.19353 L -89.276088,46.173813 L -89.216302,46.162617 L -89.194289,46.157902 L -89.125136,46.144531 L -89.091638,46.138447 L -89.058676,46.124914 L -88.933497,46.073971 L -88.851133,46.040444 L -88.838951,46.029933 L -88.835408,46.030444 L -88.81544,46.022974 L -88.805771,46.021554 L -88.79646,46.023606 L -88.80067,46.030036 L -88.796182,46.033712 L -88.787274,46.029073 L -88.783635,46.024357 L -88.782073,46.016185 L -88.776375,46.015885 L -88.769801,46.018944 L -88.766075,46.024701 L -88.760551,46.019945 L -88.739671,46.027423 L -88.730719,46.026791 L -88.721261,46.022221 L -88.721842,46.017086 L -88.718314,46.013182 L -88.712078,46.016346 L -88.699128,46.018001 L -88.689158,46.013986 L -88.678868,46.013595 L -88.671215,46.004859 L -88.671006,45.998832 L -88.66734,45.994331 L -88.65853558790253,45.98927786858784 L -88.635853,45.98508 L -88.634192,45.988073 L -88.616471,45.987732 L -88.615922,45.993335 L -88.611849,45.99839 L -88.61148,46.003227 L -88.606939,46.008454 L -88.603898,46.016481 L -88.59712,46.017133 L -88.58827,46.005098 L -88.581646,46.006602 L -88.571367,46.013961 L -88.565127,46.015729 L -88.55509,46.015045 L -88.550989,46.012943 L -88.539942,46.014239 L -88.534173,46.020269 L -88.51518217999443,46.020021337225806 L -88.506364,46.01761 L -88.506579,46.01153 L -88.497978,45.995794 L -88.48611,45.991091 L -88.474814,45.993333 L -88.474583,45.998953 L -88.464731,46.000738 L -88.454319,45.997656 L -88.454235,45.993476 L -88.448854,45.989758 L -88.442516,45.990857 L -88.434156,45.98581 L -88.423493,45.982072 L -88.423053,45.978624 L -88.417025,45.975178 L -88.410807,45.979382 L -88.402445,45.981181 L -88.395421,45.980312 L -88.388957,45.982515 L -88.380891,45.991813 L -88.372403,45.985858 L -88.359821,45.981892 L -88.328041,45.963539 L -88.325603,45.955532 L -88.318345,45.961638 L -88.301378,45.956459 L -88.291732,45.951161 L -88.285314,45.955262 L -88.268944,45.956413 L -88.258673,45.959846 L -88.25498,45.963512 L -88.245801,45.963021 L -88.245719,45.954373 L -88.237106,45.948278 L -88.230193,45.947251 L -88.203409,45.948008 L -88.197126,45.953213 L -88.189119,45.951824 L -88.180498,45.948287 L -88.170089,45.939492 L -88.156111,45.937514 L -88.148128,45.937546 L -88.139537,45.930091 L -88.126419,45.925608 L -88.121887,45.920859 L -88.113614,45.922253 L -88.102461,45.921546 L -88.095193,45.916108 L -88.10571,45.905205 L -88.106491,45.897968 L -88.103226,45.894682 L -88.101757,45.883192 L -88.09886,45.88044 L -88.080653,45.879766 L -88.070483,45.874329 L -88.082465,45.864961 L -88.087719,45.85695 L -88.098469,45.84982 L -88.105196,45.842413 L -88.112283,45.838721 L -88.132456,45.824156 L -88.136212,45.818735 L -88.12868,45.808861 L -88.116266,45.804086 L -88.108745,45.803611 L -88.105362,45.799825 L -88.103213,45.791255 L -88.093354,45.785284 L -88.079277,45.784911 L -88.071402,45.779938 L -88.058253,45.780629 L -88.05064,45.780999 L -88.041744,45.783734 L -88.039728,45.789626 L -88.027232,45.789197 L -88.015485,45.792625 L -88.007043,45.792192 L -87.994539,45.795637 L -87.987942,45.793075 L -87.98087,45.776977 L -87.989829,45.772945 L -87.986429,45.769596 L -87.96697,45.764021 L -87.963452,45.75822 L -87.954459,45.758414 L -87.946488,45.756704 L -87.934583,45.758096 L -87.929867,45.760287 L -87.923334,45.757416 L -87.918455,45.759154 L -87.91,45.756716 L -87.904657,45.759163 L -87.900005,45.753497 L -87.879812,45.754843 L -87.868111,45.749477 L -87.862211,45.745018 L -87.86432,45.737139 L -87.854594,45.726301 L -87.849486,45.724721 L -87.839402,45.717814 L -87.82418,45.712655 L -87.812338,45.711303 L -87.805076,45.703556 L -87.809181,45.700337 L -87.804993,45.695796 L -87.787727,45.68718 L -87.780808,45.680349 L -87.781007,45.673934 L -87.795355,45.671334 L -87.8028785866685,45.666755033231055 L -87.822709,45.6627 L -87.824392,45.64771 L -87.810195,45.638732 L -87.80452,45.628987 L -87.796983,45.623613 L -87.792001,45.616753 L -87.780845,45.614599 L -87.777937,45.60444 L -87.774682,45.602024 L -87.777494,45.593835 L -87.777199,45.588498 L -87.787533,45.581374 L -87.788798,45.565947 L -87.797536,45.562124 L -87.806104,45.562863 L -87.81042,45.565308 L -87.831691,45.568036 L -87.832968,45.559461 L -87.818791,45.5521 L -87.808366,45.544662 L -87.80344546603543,45.538335352378745 L -87.80472,45.531244 L -87.802241,45.513059 L -87.799475,45.50715 L -87.793215,45.505028 L -87.792769,45.499967 L -87.798243,45.493264 L -87.799499,45.48452 L -87.806891,45.479092 L -87.806347,45.472262 L -87.812928,45.464421 L -87.82004,45.460453 L -87.831217,45.457185 L -87.835562,45.451102 L -87.844804,45.448406 L -87.847429,45.444177 L -87.855298,45.441379 L -87.861697,45.434473 L -87.860432,45.423504 L -87.856216,45.416101 L -87.850533,45.411685 L -87.849322,45.403872 L -87.859131,45.398967 L -87.856911,45.392624 L -87.859418,45.388227 L -87.870905,45.383116 L -87.875424,45.379373 L -87.871998,45.371192 L -87.884855,45.362792 L -87.888052,45.354697 L -87.879838,45.351493 L -87.869853,45.356757 L -87.875805,45.364422 L -87.870238,45.366436 L -87.865163,45.361115 L -87.863489,45.35302 L -87.850418,45.347492 L -87.848368,45.340676 L -87.838141,45.345101 L -87.832612,45.352249 L -87.824855,45.350713 L -87.821889,45.35269 L -87.810076,45.351269 L -87.800464,45.353608 L -87.79039,45.353445 L -87.781869,45.349627 L -87.769172,45.351195 L -87.762128,45.348401 L -87.754104,45.349442 L -87.750928,45.355037 L -87.739634,45.35644 L -87.733409,45.364432 L -87.718891,45.377462 L -87.708329,45.381218 L -87.70166,45.386916 L -87.693956,45.389893 L -87.685934,45.388711 L -87.682866,45.38495 L -87.67455,45.381649 L -87.673513,45.376946 L -87.658175,45.369476 L -87.656447,45.358413 L -87.64809,45.351719 L -87.647768,45.340563 L -87.654094,45.332479 L -87.662001,45.326088 L -87.661711,45.320736 L -87.672669,45.310213 L -87.684267,45.301023 L -87.69019002400168,45.29061416208568 L -87.697343,45.282968 L -87.698974,45.269145 L -87.705869,45.265738 L -87.71045,45.259324 L -87.709145,45.254649 L -87.711074,45.240952 L -87.717645,45.238634 L -87.72534,45.230848 L -87.721354,45.226847 L -87.726952,45.218949 L -87.72604,45.211706 L -87.72796,45.207956 L -87.736339,45.204653 L -87.741799,45.197051 L -87.735282,45.176565 L -87.735135,45.171538 L -87.729665,45.170566 L -87.71791,45.161191 L -87.708227,45.157624 L -87.702995,45.151953 L -87.695055,45.150522 L -87.682488,45.142894 L -87.675768,45.134481 L -87.678511,45.131204 L -87.671,45.120069 L -87.66128743651805,45.11213409826955 L -87.661211,45.108279 L -87.651412,45.108558 L -87.648191,45.106368 L -87.631535,45.106224 L -87.626527,45.103128 L -87.592192,45.094762 Z M -83.45540096793614,41.73284308724825 L -83.45292,41.740587 L -83.469264,41.740864 L -83.469999,41.745522 L -83.479441,41.751392 L -83.479913,41.757419 L -83.472202,41.75961 L -83.469841,41.762818 L -83.463075,41.75828 L -83.440414,41.758984 L -83.438578,41.745757 L -83.434696,41.746422 L -83.427556,41.741965 L -83.428677,41.750872 L -83.441769,41.777871 L -83.444324,41.790367 L -83.439612,41.813162 L -83.434204,41.818562 L -83.41958,41.821299 L -83.410058,41.827825 L -83.409596,41.830325 L -83.398007,41.851574 L -83.390983,41.858933 L -83.383743,41.869638 L -83.371158,41.876911 L -83.358115,41.874312 L -83.346771,41.876929 L -83.34276,41.879384 L -83.335961,41.889721 L -83.333642,41.907261 L -83.331562,41.91408 L -83.327326,41.916166 L -83.326639,41.924309 L -83.319698,41.933463 L -83.31445,41.937323 L -83.301212,41.944059 L -83.284462,41.944573 L -83.27,41.939862 L -83.265522,41.93088 L -83.262839,41.93951 L -83.253539,41.945188 L -83.258704,41.953072 L -83.257009,41.959686 L -83.250314,41.97382 L -83.226689,41.988308 L -83.236323,41.990983 L -83.234125,41.994504 L -83.221281,41.996246 L -83.215909,41.988478 L -83.206238,41.992085 L -83.209723,41.99607 L -83.208114,42.006166 L -83.204361,42.009022 L -83.208651,42.014932 L -83.200607,42.018451 L -83.191669,42.011413 L -83.185729,42.008965 L -83.181659,42.019248 L -83.185681,42.026618 L -83.193493,42.026542 L -83.203119,42.035016 L -83.21277417368289,42.04190693745902 L -83.210017,42.043678 L -83.199842,42.03895 L -83.187602,42.044309 L -83.186695,42.051968 L -83.192165,42.065985 L -83.19104,42.077441 L -83.182364,42.08338 L -83.178078,42.082355 L -83.173097,42.075288 L -83.169374,42.076433 L -83.172791,42.087161 L -83.161408,42.089858 L -83.158182,42.085705 L -83.152413,42.088985 L -83.142583,42.090761 L -83.13202,42.090166 L -83.127526,42.104968 L -83.12127,42.117454 L -83.119228,42.125263 L -83.125304,42.137556 L -83.13051128561614,42.161983195343126 L -83.134384,42.174621 L -83.131471,42.202772 L -83.126361,42.238412 L -83.11203,42.260587 L -83.108412,42.269917 L -83.099977,42.286698 L -83.080392,42.306794 L -83.063637,42.316857 L -83.026234,42.32891 L -83.014076,42.331321 L -82.989197,42.332481 L -82.959763,42.34003 L -82.953909,42.346926 L -82.96705,42.3524 L -82.964455,42.355166 L -82.955804,42.35467 L -82.932593,42.357185 L -82.924551,42.362329 L -82.923545,42.367587 L -82.915114,42.378137 L -82.903823,42.382037 L -82.894013,42.389437 L -82.888603,42.397993 L -82.88587,42.408317 L -82.878656,42.428995 L -82.873831,42.435423 L -82.874396,42.441664 L -82.87024166677993,42.451006084843314 L -82.86842,42.454803 L -82.87559,42.460197 L -82.877026,42.471982 L -82.884371,42.476573 L -82.883335,42.479694 L -82.882316,42.501035 L -82.874416,42.523535 L -82.859316,42.541935 L -82.849885,42.549789 L -82.849316,42.555734 L -82.845085,42.561444 L -82.834216,42.567849 L -82.821016,42.570734 L -82.796715,42.571034 L -82.789114,42.568434 L -82.784514,42.563634 L -82.781616,42.570661 L -82.788837,42.584603 L -82.786823,42.592249 L -82.793148,42.600028 L -82.792606,42.604761 L -82.812266,42.61067 L -82.820667,42.615265 L -82.820402,42.626229 L -82.81813630643697,42.63103553526931 L -82.813518,42.640833 L -82.805609,42.648765 L -82.797318,42.654032 L -82.792418,42.655132 L -82.780817,42.652232 L -82.760265,42.656572 L -82.760052,42.66383 L -82.753317,42.669732 L -82.746988,42.672793 L -82.735459,42.672897 L -82.735674,42.675646 L -82.726366,42.682768 L -82.709079,42.683606 L -82.700964,42.689548 L -82.6855,42.690036 L -82.674287,42.687049 L -82.659781,42.678618 L -82.653241,42.672232 L -82.647975,42.675225 L -82.635262,42.675552 L -82.630851,42.673341 L -82.623797,42.665395 L -82.623043,42.655951 L -82.626396,42.647385 L -82.630922,42.64211 L -82.638986,42.639999 L -82.642313,42.644283 L -82.65289,42.650577 L -82.655861,42.647342 L -82.664655,42.632131 L -82.665487,42.624174 L -82.675351,42.62671 L -82.689836,42.627148 L -82.68367,42.623037 L -82.681593,42.618672 L -82.676183,42.616216 L -82.687116,42.60642 L -82.700818,42.606687 L -82.713042,42.597904 L -82.711151,42.590884 L -82.701152,42.585991 L -82.687354,42.589274 L -82.677133,42.597411 L -82.669528,42.593211 L -82.660734,42.595923 L -82.658119,42.590849 L -82.661684,42.581574 L -82.675113,42.579299 L -82.681036,42.574695 L -82.680963,42.570284 L -82.687571,42.566091 L -82.683313,42.555493 L -82.675945,42.561533 L -82.661328,42.568623 L -82.652771,42.564771 L -82.647899,42.559345 L -82.651226,42.553304 L -82.664335,42.546244 L -82.670956,42.537989 L -82.679522,42.53552 L -82.681531,42.530364 L -82.67907634385456,42.52222027940649 L -82.66791161190247,42.53331384739235 L -82.661886,42.541746 L -82.64307,42.554321 L -82.633724,42.556802 L -82.62433,42.557134 L -82.617086,42.554718 L -82.609136,42.549011 L -82.604564,42.548394 L -82.590325,42.550918 L -82.584074,42.55405 L -82.579569,42.565306 L -82.55429,42.584603 L -82.548169,42.591848 L -82.525374,42.605653 L -82.518831,42.613973 L -82.51002878948437,42.637045866545606 L -82.510851,42.664992 L -82.494491,42.700823 L -82.483886,42.718163 L -82.483385,42.733462 L -82.46773793349533,42.761779748029134 L -82.467045,42.768747 L -82.47051689879443,42.78309574151638 L -82.480905,42.802646 L -82.482574,42.808644 L -82.47864,42.825187 L -82.472681,42.836784 L -82.46890989750212,42.85155812153476 L -82.46822,42.859107 L -82.469912,42.887459 L -82.464163,42.901058 L -82.45562,42.926713 L -82.447142,42.937752 L -82.428728,42.952021 L -82.416737,42.966613 L -82.413474,42.976887 L -82.420485,42.984191 L -82.424969,42.993383 L -82.422278,43.0057 L -82.42654,43.01724 L -82.440393,43.035242 L -82.457221,43.061285 L -82.463083,43.069388 L -82.471053,43.087581 L -82.476537,43.091779 L -82.486042,43.102486 L -82.487282,43.112769 L -82.490614,43.118172 L -82.494194,43.143736 L -82.501656,43.161656 L -82.508732,43.190713 L -82.508881,43.196748 L -82.519123,43.212737 L -82.523086,43.225361 L -82.524339,43.251554 L -82.527459,43.259782 L -82.526027,43.269707 L -82.52766,43.27178 L -82.52818,43.28934 L -82.532396,43.30577 L -82.529416,43.316243 L -82.530826,43.338119 L -82.536794,43.34851 L -82.537507,43.353163 L -82.53595,43.3677 L -82.53391,43.372673 L -82.533831,43.38353 L -82.539197,43.39787 L -82.538198,43.408076 L -82.540266,43.423511 L -82.538685,43.432142 L -82.542534,43.442361 L -82.547519,43.447545 L -82.54702,43.456345 L -82.55354,43.464111 L -82.556147,43.475958 L -82.564992,43.490593 L -82.566379,43.502858 L -82.571977,43.510159 L -82.571778,43.516357 L -82.576602,43.528299 L -82.585543,43.543438 L -82.585131,43.553329 L -82.58969,43.562238 L -82.591337,43.573831 L -82.594389,43.584803 L -82.597911,43.590016 L -82.601108,43.604511 L -82.600823,43.611481 L -82.596991,43.615039 L -82.599627,43.628368 L -82.602828,43.634318 L -82.601393,43.642139 L -82.604232,43.649174 L -82.606349,43.661357 L -82.605039,43.678703 L -82.607547,43.684722 L -82.606846,43.6903 L -82.610078,43.698297 L -82.60891,43.707593 L -82.606757,43.711081 L -82.612115,43.725441 L -82.6106,43.735632 L -82.612222,43.741793 L -82.616903,43.746044 L -82.619484,43.755778 L -82.61762,43.758924 L -82.618227,43.768221 L -82.613966,43.771606 L -82.614982,43.77925 L -82.624323,43.78694 L -82.621865,43.796688 L -82.628453,43.808729 L -82.631469,43.820057 L -82.637565,43.834859 L -82.644939,43.837578 L -82.649495,43.84961 L -82.647091,43.852377 L -82.654641,43.862018 L -82.655428,43.867761 L -82.67824,43.88059 L -82.681147,43.891563 L -82.685371,43.897432 L -82.68607,43.902906 L -82.682758,43.907241 L -82.691996,43.915276 L -82.694338,43.922315 L -82.700407,43.926375 L -82.701017,43.934809 L -82.706274,43.938782 L -82.710674,43.947624 L -82.717116,43.950875 L -82.720395,43.955389 L -82.723767,43.965393 L -82.736956,43.985889 L -82.741726,43.990388 L -82.748276,43.991273 L -82.756176,44.00193 L -82.766285,44.008569 L -82.778626,44.008132 L -82.788298,44.013712 L -82.793205,44.023247 L -82.811304,44.028387 L -82.813891,44.032374 L -82.82696,44.033712 L -82.833103,44.036851 L -82.858095,44.042358 L -82.875889,44.045046 L -82.889831,44.050952 L -82.900911,44.060233 L -82.912112,44.062339 L -82.921538,44.067896 L -82.930009,44.068231 L -82.947368,44.062187 L -82.957813,44.063549 L -82.958756,44.068102 L -82.969257,44.065109 L -82.980743,44.055214 L -82.990728,44.048846 L -83.001908,44.047096 L -83.024604,44.045174 L -83.027675,44.046204 L -83.03299,44.035745 L -83.036858,44.031918 L -83.043754,44.018986 L -83.058741,44.006224 L -83.066026,44.003366 L -83.079297,44.001079 L -83.09612,44.001811 L -83.112393,44.004698 L -83.134881,43.993147 L -83.151267,43.987764 L -83.164378,43.986215 L -83.17014,43.986985 L -83.175656,43.983142 L -83.185125,43.981586 L -83.198261,43.983598 L -83.220837,43.980678 L -83.229377,43.98038 L -83.247661,43.975869 L -83.262471,43.975315 L -83.26185,43.969021 L -83.26898,43.956132 L -83.280002,43.945498 L -83.278866,43.94125 L -83.29599,43.927446 L -83.30924,43.920256 L -83.32695,43.915492 L -83.366792,43.91302 L -83.387498,43.913936 L -83.400934,43.917071 L -83.403687,43.911546 L -83.396416,43.907714 L -83.391145,43.909138 L -83.376816,43.909816 L -83.363263,43.906935 L -83.343545,43.905528 L -83.329382,43.903239 L -83.326205,43.89657 L -83.325064,43.883999 L -83.329688,43.879656 L -83.337367,43.875939 L -83.339441,43.872141 L -83.35505,43.858186 L -83.365433,43.853205 L -83.372006,43.851967 L -83.385007,43.853033 L -83.390392,43.848386 L -83.387299,43.842838 L -83.391881,43.832469 L -83.395684,43.819341 L -83.402945,43.807984 L -83.412984,43.804293 L -83.416829,43.796737 L -83.423944,43.791432 L -83.423899,43.783911 L -83.43167,43.784364 L -83.44006,43.770744 L -83.437911,43.768615 L -83.444621,43.756052 L -83.462876,43.738301 L -83.461361,43.735289 L -83.469314,43.724239 L -83.476622,43.719194 L -83.490496,43.70259 L -83.497124,43.697469 L -83.520123,43.697513 L -83.518181,43.704094 L -83.512841,43.708305 L -83.524233,43.717173 L -83.534752,43.707301 L -83.539965,43.708366 L -83.550646,43.698394 L -83.548746,43.69397 L -83.55344,43.690103 L -83.553619,43.685205 L -83.561227,43.686511 L -83.570617,43.673958 L -83.57523,43.672036 L -83.58321,43.664834 L -83.59551,43.649659 L -83.600379,43.646764 L -83.624886,43.623602 L -83.634472,43.616349 L -83.647086,43.604713 L -83.663427,43.594687 L -83.667845,43.590303 L -83.678574,43.588991 L -83.685207,43.584437 L -83.69952829717505,43.588617878970744 L -83.709849,43.601431 L -83.729002,43.612722 L -83.735031,43.61732 L -83.761552,43.624413 L -83.770201,43.628387 L -83.795896,43.633816 L -83.80031,43.633011 L -83.814701,43.635271 L -83.816423,43.643581 L -83.822201,43.644205 L -83.834295,43.649217 L -83.836484,43.653138 L -83.844118,43.652896 L -83.850252,43.642379 L -83.856078,43.646646 L -83.891499,43.662355 L -83.905351,43.670039 L -83.912939,43.677574 L -83.939297,43.715369 L -83.948545,43.739529 L -83.953932,43.750219 L -83.956463,43.760767 L -83.954062,43.764001 L -83.943613,43.763392 L -83.938098,43.773624 L -83.933664,43.773051 L -83.928707,43.777135 L -83.925852,43.787684 L -83.927422,43.800464 L -83.921235,43.817019 L -83.922282,43.827149 L -83.920822,43.833022 L -83.92233,43.845482 L -83.92133,43.84785 L -83.924043,43.85873 L -83.916475,43.867721 L -83.918141,43.883331 L -83.915286,43.887241 L -83.912921,43.899882 L -83.90909482872536,43.91045972173807 L -83.90627,43.91819 L -83.898398,43.919247 L -83.899744,43.923512 L -83.89059,43.923812 L -83.889742,43.935181 L -83.885492,43.946399 L -83.879677,43.951354 L -83.875498,43.961945 L -83.865472,43.962541 L -83.861374,43.965867 L -83.853416,43.978352 L -83.848173,43.989535 L -83.836824,43.996473 L -83.826049,43.991028 L -83.820105,43.991336 L -83.814846,43.996688 L -83.801255,43.995178 L -83.801419,43.990136 L -83.798126,43.986536 L -83.790527,43.98961 L -83.777012,43.986354 L -83.762806,43.985767 L -83.757418,43.989798 L -83.750234,43.990997 L -83.749391,44.002487 L -83.740271,44.005199 L -83.728521,44.00337 L -83.717296,43.998639 L -83.706361,44.000297 L -83.699056,43.996431 L -83.697051,43.992416 L -83.680563,43.987646 L -83.680108,43.994196 L -83.685046,44.011894 L -83.689442,44.023865 L -83.679549,44.031212 L -83.679654,44.036365 L -83.671488,44.041842 L -83.654416,44.050991 L -83.647059,44.05322 L -83.621078,44.056186 L -83.610501,44.056243 L -83.601173,44.054686 L -83.579866,44.049439 L -83.590437,44.069569 L -83.591361,44.079237 L -83.588452,44.08572 L -83.580395,44.092581 L -83.569073,44.104793 L -83.564446,44.105537 L -83.568915,44.126734 L -83.567667,44.141335 L -83.567744,44.155899 L -83.55811,44.183824 L -83.555274,44.18992 L -83.552872,44.210718 L -83.549096,44.227282 L -83.53771,44.248171 L -83.525763,44.258554 L -83.524817,44.261558 L -83.513632,44.268499 L -83.508839,44.273711 L -83.500392,44.27661 L -83.479531,44.28009 L -83.463049,44.278838 L -83.445805,44.273378 L -83.44004,44.268375 L -83.443359,44.262412 L -83.451294,44.252946 L -83.449184,44.251796 L -83.433298,44.264291 L -83.425762,44.272487 L -83.419236,44.2878 L -83.414301,44.294543 L -83.401822,44.301831 L -83.391785,44.312246 L -83.373607,44.327784 L -83.364312,44.33259 L -83.357802,44.333059 L -83.340506,44.331048 L -83.333708,44.336579 L -83.332533,44.340464 L -83.335248,44.357995 L -83.333757,44.372486 L -83.32733,44.388385 L -83.325864,44.395267 L -83.320532,44.406932 L -83.324616,44.415039 L -83.327171,44.429234 L -83.326824,44.444411 L -83.31761,44.486058 L -83.31674,44.493621 L -83.319067,44.508458 L -83.318279,44.514416 L -83.306985,44.542235 L -83.313052,44.559856 L -83.315603,44.595079 L -83.314517,44.608725 L -83.307504,44.629816 L -83.2943,44.646502 L -83.290873,44.648983 L -83.287154,44.657345 L -83.284399,44.670436 L -83.275838,44.692276 L -83.273393,44.713901 L -83.284128,44.721766 L -83.290665,44.729265 L -83.294271,44.736819 L -83.298287,44.754907 L -83.291003,44.765505 L -83.295992,44.778075 L -83.296718,44.787106 L -83.29321,44.796146 L -83.293739,44.808307 L -83.299689,44.81555 L -83.30069,44.828948 L -83.304628,44.833932 L -83.315001,44.842288 L -83.321241,44.852962 L -83.321455,44.858487 L -83.316355,44.865425 L -83.319181,44.874478 L -83.315641,44.878232 L -83.331657,44.883841 L -83.345324,44.883853 L -83.366243,44.890496 L -83.374367,44.896929 L -83.376388,44.900546 L -83.390264,44.901789 L -83.399077,44.905959 L -83.399093,44.911557 L -83.404596,44.918761 L -83.425311,44.926741 L -83.433032,44.93289 L -83.438856,44.940843 L -83.443718,44.952247 L -83.445613,44.963457 L -83.445946,44.980781 L -83.450977,44.989418 L -83.460297,44.992022 L -83.464149,44.996164 L -83.4623,45.00608 L -83.45399,45.011203 L -83.434075,45.005454 L -83.435249,45.011883 L -83.450068,45.01769 L -83.456484,45.017219 L -83.457159,45.024743 L -83.453068,45.02823 L -83.454712,45.032985 L -83.447877,45.044916 L -83.437879,45.055014 L -83.418554,45.065512 L -83.411658,45.065705 L -83.399073,45.070624 L -83.392022,45.069087 L -83.38862,45.076555 L -83.372527,45.077096 L -83.366856,45.076166 L -83.363908,45.065473 L -83.367439,45.06225 L -83.357743,45.05098 L -83.348953,45.049783 L -83.34084,45.042323 L -83.327836,45.03849 L -83.319724,45.038284 L -83.315026,45.034759 L -83.303741,45.033732 L -83.287734,45.026681 L -83.272663,45.023482 L -83.264241,45.023554 L -83.270322,45.034331 L -83.271581,45.03926 L -83.278352,45.045785 L -83.284295,45.045317 L -83.308487,45.049081 L -83.315324,45.052571 L -83.31539,45.059463 L -83.310751,45.065672 L -83.311078,45.0714 L -83.319213,45.075611 L -83.318585,45.080277 L -83.302183,45.094982 L -83.313283,45.100796 L -83.311471,45.112211 L -83.31646,45.112541 L -83.320413,45.120956 L -83.315548,45.126023 L -83.322406,45.133517 L -83.322711,45.13708 L -83.316118,45.141958 L -83.329087,45.145728 L -83.334906,45.142338 L -83.339997,45.150492 L -83.344305,45.153692 L -83.348684,45.161516 L -83.359895,45.16302 L -83.368046,45.172478 L -83.369054,45.184707 L -83.373449,45.194226 L -83.380282,45.203756 L -83.384265,45.203472 L -83.39317,45.213725 L -83.395401,45.219897 L -83.404579,45.225659 L -83.4084,45.235544 L -83.412557,45.239215 L -83.413126,45.244847 L -83.409547,45.248608 L -83.417491,45.2517 L -83.41707,45.256865 L -83.402958,45.255289 L -83.39179,45.252587 L -83.387903,45.255546 L -83.386723,45.262165 L -83.381632,45.269772 L -83.387719,45.276288 L -83.400734,45.27854 L -83.401961,45.283153 L -83.40738,45.286744 L -83.421855,45.290068 L -83.425369,45.29654 L -83.433975,45.304101 L -83.445056,45.307465 L -83.451919,45.319397 L -83.459471,45.317935 L -83.464583,45.321667 L -83.466961,45.332363 L -83.47524,45.332527 L -83.475661,45.326608 L -83.479427,45.325769 L -83.485695,45.330028 L -83.490115,45.336144 L -83.48787,45.341767 L -83.477794,45.341891 L -83.477252,45.34512 L -83.484034,45.348391 L -83.489063,45.356166 L -83.496664,45.357086 L -83.4907,45.349723 L -83.490762,45.341666 L -83.494514,45.339366 L -83.51454,45.346352 L -83.518993,45.346614 L -83.529679,45.354154 L -83.538166,45.358055 L -83.546103,45.357749 L -83.545958,45.35331 L -83.554924,45.349342 L -83.565733,45.350938 L -83.572215,45.347365 L -83.58021,45.350924 L -83.582267,45.35419 L -83.598976,45.351979 L -83.605191,45.360456 L -83.615637,45.364356 L -83.631092,45.36502 L -83.6393,45.370424 L -83.646774,45.37302 L -83.662972,45.383272 L -83.671343,45.384723 L -83.681453,45.390525 L -83.684742,45.39043 L -83.700423,45.397739 L -83.705779,45.40272 L -83.710259,45.411001 L -83.717437,45.414321 L -83.733608,45.410696 L -83.736869,45.411268 L -83.740239,45.403808 L -83.744588,45.403579 L -83.752515,45.410075 L -83.760052,45.412274 L -83.763857,45.407586 L -83.772663,45.406918 L -83.787896,45.411735 L -83.788997,45.415637 L -83.810831,45.420582 L -83.814249,45.424218 L -83.824655,45.42693 L -83.830987,45.433472 L -83.838846,45.434041 L -83.853871,45.443084 L -83.86034,45.448061 L -83.881813,45.467907 L -83.897302,45.475701 L -83.909472,45.485784 L -83.922639,45.488176 L -83.93609,45.492353 L -83.954508,45.494018 L -83.964234,45.493272 L -83.971985,45.495124 L -83.98864,45.491777 L -84.004028,45.492058 L -84.009341,45.494722 L -84.027975,45.496188 L -84.036864,45.494689 L -84.051363,45.490057 L -84.060632,45.488857 L -84.078696,45.490757 L -84.096855,45.497354 L -84.112792,45.508286 L -84.120005,45.517676 L -84.123237,45.525269 L -84.126971,45.542428 L -84.126992,45.5561 L -84.128846,45.561891 L -84.138449,45.57284 L -84.157463,45.585283 L -84.158737,45.589386 L -84.165904,45.591328 L -84.170364,45.596609 L -84.179992,45.603985 L -84.187193,45.612446 L -84.196184,45.62035 L -84.215878,45.634817 L -84.229309,45.637347 L -84.240559,45.637865 L -84.270941,45.644609 L -84.287452,45.652535 L -84.329537,45.66438 L -84.334586,45.664173 L -84.353374,45.658942 L -84.368692,45.65784 L -84.376063,45.655432 L -84.400283,45.663345 L -84.413253,45.669177 L -84.428394,45.668857 L -84.432386,45.66331 L -84.424807,45.661776 L -84.415925,45.652985 L -84.424448,45.64628 L -84.43257,45.644924 L -84.442669,45.654759 L -84.459457,45.651893 L -84.46956,45.657154 L -84.479222,45.656791 L -84.482813,45.661858 L -84.490007,45.663112 L -84.503704,45.673241 L -84.51665,45.678544 L -84.523272,45.68434 L -84.537483,45.688004 L -84.539227,45.690783 L -84.551708,45.696937 L -84.557644,45.709023 L -84.575856,45.710528 L -84.605664,45.721746 L -84.62545,45.730712 L -84.632457,45.732624 L -84.649326,45.742793 L -84.661761,45.743674 L -84.680315,45.749456 L -84.681435,45.755909 L -84.69889,45.760552 L -84.715996,45.766174 L -84.721273,45.766401 L -84.725691,45.774536 L -84.723059,45.783785 L -84.732481,45.788211 L -84.743582,45.783599 L -84.751571,45.782733 L -84.772765,45.789301 L -84.791643,45.782038 L -84.786772,45.771268 L -84.780794,45.77119 L -84.778933,45.766115 L -84.781583,45.760135 L -84.78852,45.752069 L -84.796055,45.747956 L -84.807907,45.744918 L -84.82243,45.752512 L -84.827094,45.751951 L -84.837245,45.744788 L -84.858818,45.749458 L -84.878717,45.756238 L -84.886257,45.755095 L -84.891666,45.749668 L -84.905596,45.746362 L -84.910398,45.75001 L -84.924516,45.756778 L -84.938312,45.759892 L -84.943211,45.7586 L -84.99752,45.758404 L -85.008347,45.761669 L -85.010321,45.756161 L -84.999606,45.755335 L -84.984041,45.752029 L -84.976878,45.75264 L -84.969792,45.744978 L -84.960956,45.745082 L -84.950883,45.737292 L -84.942125,45.72846 L -84.940526,45.721832 L -84.944631,45.70904 L -84.951003,45.707421 L -84.954343,45.701817 L -84.961613,45.698065 L -84.96831,45.689057 L -84.980769,45.681388 L -84.987847,45.682997 L -84.992958,45.679983 L -84.996336,45.669685 L -85.001154,45.661225 L -85.015341,45.651564 L -85.03287,45.648064 L -85.054425,45.639855 L -85.061488,45.639505 L -85.07491,45.629242 L -85.079528,45.617083 L -85.091433,45.605929 L -85.093525,45.600121 L -85.111909,45.585829 L -85.116914,45.579649 L -85.119737,45.569026 L -85.117238,45.561804 L -85.117669,45.553258 L -85.115479,45.539406 L -85.111796,45.530673 L -85.108848,45.518485 L -85.102025,45.508014 L -85.098246,45.499802 L -85.093725,45.481564 L -85.08097,45.470769 L -85.06247,45.451289 L -85.03695,45.434902 L -85.012982,45.431532 L -85.000015,45.426973 L -84.991697,45.421813 L -84.990865,45.42812 L -84.979077,45.42972 L -84.972079,45.427366 L -84.955816,45.427586 L -84.943035,45.424578 L -84.922006,45.421914 L -84.916165,45.417639 L -84.912956,45.409776 L -84.912995,45.399239 L -84.91585,45.393115 L -84.924569,45.390988 L -84.929937,45.386995 L -84.93711,45.386915 L -84.960586,45.375813 L -84.969215,45.375686 L -84.987287,45.368817 L -84.993861,45.368151 L -85.000577,45.370363 L -85.012966,45.371091 L -85.024451,45.367984 L -85.037772,45.362091 L -85.043101,45.361506 L -85.055658,45.364674 L -85.095158,45.366523 L -85.109326,45.366697 L -85.12201,45.368706 L -85.128437,45.371762 L -85.137942,45.373488 L -85.1486,45.368784 L -85.16241,45.36793 L -85.172836,45.363253 L -85.182471,45.360824 L -85.19275,45.360187 L -85.203616,45.361887 L -85.223192,45.346466 L -85.237705,45.338826 L -85.249787,45.339689 L -85.250486,45.334607 L -85.25505,45.325675 L -85.262996,45.319507 L -85.273789,45.315443 L -85.291818,45.314188 L -85.298857,45.321796 L -85.30386,45.318563 L -85.312821,45.306097 L -85.319384,45.303009 L -85.327424,45.302757 L -85.333775,45.297317 L -85.33691,45.290455 L -85.341872,45.286682 L -85.354194,45.282388 L -85.3603,45.2771 L -85.366229,45.27644 L -85.371593,45.270834 L -85.374915,45.260956 L -85.378392,45.256252 L -85.38567,45.238515 L -85.389132,45.210321 L -85.386806,45.205464 L -85.386396,45.19732 L -85.38814,45.191531 L -85.384087,45.188384 L -85.380464,45.180876 L -85.378752,45.169846 L -85.378866,45.151602 L -85.380965,45.145559 L -85.376902,45.142006 L -85.372571,45.126241 L -85.36349,45.111624 L -85.367128,45.082695 L -85.370154,45.076185 L -85.36657,45.068355 L -85.376849,45.055727 L -85.380317,45.045789 L -85.379289,45.039979 L -85.381358,45.032978 L -85.381654,45.018407 L -85.375995,45.007429 L -85.37588,45.00329 L -85.384519,44.988811 L -85.381982,44.977746 L -85.38482,44.965561 L -85.390922,44.953439 L -85.389256,44.948057 L -85.39403,44.939672 L -85.3958,44.931018 L -85.403952,44.919263 L -85.40597,44.910538 L -85.413184,44.900312 L -85.423685,44.894822 L -85.425804,44.881646 L -85.4352,44.868216 L -85.44311,44.859818 L -85.451409,44.853951 L -85.452898,44.845687 L -85.463356,44.830154 L -85.462916,44.825067 L -85.471483,44.816596 L -85.49129,44.806925 L -85.49938,44.804344 L -85.507367,44.795363 L -85.509251,44.787334 L -85.506363,44.783651 L -85.503935,44.772951 L -85.506704,44.765749 L -85.515358,44.759893 L -85.527192,44.7475 L -85.538285,44.746821 L -85.554326,44.748744 L -85.571301,44.755293 L -85.576566,44.760208 L -85.572466,44.765655 L -85.570227,44.772769 L -85.564942,44.776674 L -85.559533,44.787453 L -85.561461,44.792116 L -85.558087,44.804077 L -85.56026,44.807793 L -85.555894,44.818256 L -85.539924,44.834166 L -85.532585,44.838902 L -85.522147,44.84196 L -85.518993,44.845548 L -85.508617,44.847872 L -85.507055,44.852513 L -85.499745,44.856088 L -85.500777,44.862167 L -85.497553,44.869345 L -85.499913,44.872317 L -85.493377,44.88413 L -85.49303,44.89051 L -85.488624,44.901707 L -85.492444,44.909619 L -85.488997,44.918287 L -85.491286,44.927585 L -85.489151,44.937864 L -85.486184,44.943669 L -85.484606,44.952548 L -85.487459,44.956921 L -85.484488,44.961714 L -85.479853,44.962303 L -85.46665,44.958844 L -85.465535,44.965211 L -85.470285,44.976022 L -85.470462,44.980745 L -85.474937,44.991721 L -85.490721,44.990538 L -85.50008,44.981049 L -85.520034,44.973996 L -85.5221,44.966727 L -85.520205,44.960347 L -85.524346,44.950752 L -85.529033,44.946918 L -85.529066,44.935577 L -85.533553,44.925762 L -85.538343,44.92204 L -85.539703,44.916779 L -85.545751,44.91317 L -85.551112,44.906669 L -85.561078,44.899045 L -85.564299,44.893829 L -85.559633,44.887748 L -85.554603,44.889184 L -85.546442,44.901551 L -85.534771,44.901619 L -85.528171,44.899224 L -85.524824,44.89452 L -85.530649,44.889763 L -85.532931,44.87319 L -85.538101,44.868684 L -85.548908,44.863209 L -85.553906,44.857009 L -85.5584,44.843747 L -85.568491,44.825358 L -85.579089,44.817725 L -85.582146,44.801737 L -85.585347,44.797585 L -85.590336,44.782121 L -85.594356,44.774807 L -85.593571,44.768783 L -85.599256,44.765919 L -85.612895,44.764924 L -85.628109,44.767226 L -85.638884,44.772335 L -85.640781,44.775561 L -85.636382,44.788104 L -85.633494,44.792433 L -85.633263,44.800437 L -85.641652,44.810816 L -85.651435,44.831624 L -85.652355,44.849092 L -85.647791,44.86754 L -85.648932,44.87401 L -85.645456,44.883645 L -85.630556,44.906315 L -85.631436,44.908207 L -85.624648,44.922139 L -85.620405,44.923719 L -85.601328,44.924475 L -85.604756,44.938386 L -85.602322,44.950787 L -85.603949,44.958611 L -85.60144,44.962218 L -85.602896,44.971039 L -85.599015,44.981239 L -85.599648,44.989786 L -85.606009,44.990825 L -85.608885,44.985183 L -85.629506,44.966719 L -85.641444,44.967986 L -85.648607,44.971557 L -85.649476,44.974589 L -85.641607,44.984608 L -85.640902,44.988983 L -85.635692,44.993358 L -85.635041,44.998116 L -85.627227,45.004064 L -85.623428,45.003987 L -85.608723,45.013808 L -85.599652,45.021749 L -85.600257,45.029918 L -85.597707,45.036552 L -85.596947,45.045065 L -85.590136,45.047504 L -85.590544,45.052426 L -85.586617,45.055973 L -85.579148,45.055454 L -85.573976,45.043361 L -85.567789,45.041858 L -85.566179,45.058866 L -85.572962,45.067336 L -85.580125,45.066378 L -85.58802,45.078906 L -85.598441,45.091461 L -85.595396,45.099248 L -85.605595,45.107989 L -85.609266,45.11351 L -85.614319,45.127562 L -85.610243,45.133547 L -85.60192,45.1405 L -85.599801,45.149286 L -85.586584,45.153972 L -85.570178,45.155145 L -85.565658,45.151828 L -85.561852,45.143393 L -85.557734,45.145757 L -85.56168,45.15894 L -85.554722,45.162502 L -85.552179,45.167352 L -85.536931,45.172779 L -85.531461,45.177247 L -85.526734,45.189316 L -85.532064,45.197874 L -85.537364,45.200866 L -85.540748,45.210906 L -85.551072,45.210742 L -85.559436,45.201169 L -85.564654,45.192546 L -85.575818,45.187055 L -85.585986,45.180381 L -85.593064,45.178527 L -85.606963,45.178477 L -85.617489,45.187048 L -85.629717,45.17463 L -85.632431,45.169366 L -85.640538,45.162424 L -85.656024,45.145788 L -85.65979,45.135844 L -85.667867,45.124343 L -85.67573,45.115355 L -85.675671,45.10554 L -85.681096,45.092693 L -85.692506,45.083435 L -85.698465,45.074608 L -85.712262,45.065622 L -85.740836,45.055575 L -85.747166,45.050502 L -85.753623,45.040957 L -85.762945,45.0226 L -85.780042,45.009625 L -85.776207,45.000574 L -85.778278,44.983075 L -85.786258,44.970786 L -85.796699,44.961779 L -85.807403,44.949814 L -85.818437,44.945271 L -85.83615,44.940256 L -85.854304,44.938147 L -85.869852,44.939031 L -85.879934,44.943305 L -85.891543,44.957783 L -85.897626,44.962014 L -85.915851,44.968307 L -85.9316,44.968788 L -85.938589,44.964559 L -85.942099,44.954317 L -85.952721,44.940758 L -85.961603,44.935567 L -85.967169,44.929484 L -85.972824,44.914781 L -85.980219,44.906136 L -85.992535,44.900026 L -86.009355,44.899454 L -86.021513,44.902774 L -86.031194,44.907349 L -86.035484,44.911317 L -86.043808,44.914729 L -86.058862,44.911012 L -86.066745,44.905685 L -86.07099,44.895876 L -86.072468,44.884788 L -86.071112,44.86542 L -86.066529,44.834925 L -86.066514,44.819869 L -86.071746,44.804717 L -86.078592,44.794393 L -86.074789,44.780521 L -86.073996,44.769876 L -86.077933,44.758234 L -86.089564,44.741984 L -86.095691,44.736841 L -86.106182,44.731088 L -86.121125,44.727972 L -86.134732,44.728424 L -86.154759,44.732085 L -86.165385,44.724429 L -86.180644,44.718675 L -86.210664,44.711747 L -86.232482,44.70605 L -86.248474,44.699046 L -86.254996,44.691935 L -86.256796,44.686769 L -86.259029,44.663654 L -86.253514,44.648132 L -86.244062,44.627113 L -86.237168,44.618518 L -86.231828,44.609107 L -86.22545,44.59459 L -86.221544,44.578643 L -86.220399,44.56817 L -86.223788,44.549043 L -86.233891,44.524204 L -86.234689745516,44.5183049869697 L -86.238743,44.501682 L -86.243745,44.488929 L -86.248914,44.483004 L -86.251605,44.465443 L -86.251843,44.451632 L -86.24832,44.434758 L -86.248083,44.420946 L -86.251926,44.400984 L -86.258829,44.383815 L -86.261369,44.368769 L -86.265455,44.358523 L -86.26871,44.345324 L -86.275383,44.3357 L -86.284048,44.32728 L -86.300264,44.308197 L -86.316025,44.28421 L -86.327287,44.263057 L -86.333182,44.257084 L -86.343793,44.249608 L -86.351638,44.229429 L -86.357461,44.217237 L -86.367686,44.201563 L -86.384515,44.184612 L -86.389887,44.176901 L -86.393384,44.168359 L -86.400645,44.156848 L -86.41368,44.138476 L -86.429871,44.119782 L -86.446883,44.10597 L -86.4848,44.085011 L -86.500453,44.075607 L -86.508764,44.067881 L -86.514702,44.058119 L -86.514742,44.04792 L -86.508827,44.032755 L -86.501738,44.021912 L -86.483331,44.001179 L -86.474068,43.988298 L -86.463136,43.970976 L -86.461036,43.961107 L -86.460345,43.94839 L -86.454092,43.940149 L -86.447915,43.918089 L -86.445455,43.889726 L -86.438836,43.866753 L -86.433915,43.855608 L -86.431198,43.84072 L -86.430202,43.827575 L -86.431043,43.815975 L -86.433576,43.801815 L -86.437391,43.789334 L -86.445123,43.771564 L -86.454254,43.756619 L -86.461554,43.746685 L -86.481854,43.725135 L -86.510319,43.698625 L -86.529179,43.677889 L -86.538482,43.658795 L -86.540787,43.644593 L -86.540916,43.633158 L -86.538497,43.617501 L -86.529507,43.593462 L -86.520205,43.576718 L -86.486915,43.52855 L -86.479276,43.515335 L -86.471985,43.500685 L -86.465144,43.484642 L -86.460634,43.469132 L -86.448743,43.432013 L -86.435124,43.396702 L -86.42883,43.384773 L -86.427044,43.374941 L -86.42178,43.367238 L -86.408433,43.342436 L -86.39575,43.316225 L -86.367524,43.274161 L -86.35614635125657,43.25563732809424 L -86.35506334229667,43.25411359148815 L -86.35152055497203,43.24912907618485 L -86.346929,43.242669 L -86.34460059978875,43.238166022957245 L -86.3403879713844,43.22853983633033 L -86.34034275994863,43.22846817588997 L -86.33741432701163,43.22382658930399 L -86.332543,43.219791 L -86.32948847909284,43.215556651260705 L -86.32847587341462,43.21415292029689 L -86.32716898137105,43.21234123301588 L -86.31265816087353,43.189498550306396 L -86.31086753901157,43.18670610481447 L -86.30964773968448,43.18480384772468 L -86.3080805212799,43.182359796268756 L -86.30393199753775,43.17589024137942 L -86.29759,43.166 L -86.280756,43.136015 L -86.27310511509619,43.12060012251065 L -86.27199544897539,43.11836438540034 L -86.254646,43.083409 L -86.250517,43.066993 L -86.251301,43.060108 L -86.244277,43.049681 L -86.232707,43.015762 L -86.226305,42.988284 L -86.219292725297,42.942986994227056 L -86.21921021769111,42.94245386815833 L -86.21774184290393,42.93120049479908 L -86.21707637135708,42.925906786080155 L -86.215428,42.90575 L -86.2157909455624,42.903582999418404 L -86.21544165323472,42.89965052530252 L -86.2142707770215,42.89501437748982 L -86.21399928752581,42.89165569310401 L -86.21398547376337,42.889007812959214 L -86.21398959083606,42.88886062761083 L -86.21413273400377,42.88374325936531 L -86.21407839244081,42.88327363905711 L -86.211082,42.86913 L -86.210228,42.855631 L -86.211164,42.831266 L -86.21042604096634,42.791178870297884 L -86.2105530686497,42.78904307302175 L -86.21072250121178,42.78619429553482 L -86.21100526494364,42.78017853641281 L -86.21119930532814,42.77638781697072 L -86.21168055121096,42.775213595508305 L -86.212245,42.772966 L -86.21150755527363,42.77241742842495 L -86.21039323178812,42.77145450017431 L -86.21012447100279,42.770874542690144 L -86.208309,42.762789 L -86.207121,42.747272 L -86.206596,42.709536 L -86.210236,42.685485 L -86.213695,42.676968 L -86.213836,42.67129 L -86.217882,42.659437 L -86.226638,42.644922 L -86.22905,42.637693 L -86.227991,42.614978 L -86.225613,42.594765 L -86.229429,42.578976 L -86.234436,42.568327 L -86.240642,42.54 L -86.246404,42.498183 L -86.246597,42.490109 L -86.257272,42.453572 L -86.261852,42.442088 L -86.276878,42.413317 L -86.284969,42.401814 L -86.284448,42.394563 L -86.293083,42.372889 L -86.297168,42.358207 L -86.308748,42.334111 L -86.328276,42.298022 L -86.355945,42.254215 L -86.371564,42.233432 L -86.38622251650342,42.21612913471178 L -86.39305024995939,42.208605560650035 L -86.39499712385391,42.20646027334073 L -86.39719093694286,42.20404288031288 L -86.40330633599135,42.1973042374008 L -86.40955200603895,42.19080369788347 L -86.41072186215224,42.189597206211516 L -86.42190672373577,42.17806207620781 L -86.42246399520482,42.17748735306129 L -86.4370500481923,42.16355797752403 L -86.44029902160312,42.16031567449443 L -86.46497792382858,42.135687439868676 L -86.4674026315864,42.133433446292045 L -86.47903074089048,42.123518798165904 L -86.489023,42.116224 L -86.490122,42.105139 L -86.501322,42.08454 L -86.5127851675114,42.06613320419323 L -86.51560180089773,42.0616104406942 L -86.51581224436528,42.061272524500254 L -86.52061946097496,42.05408352290585 L -86.52106151236362,42.053431008283894 L -86.52216606417181,42.05180057294528 L -86.53150383439267,42.03801703609445 L -86.553087,42.006158 L -86.556421,42.000042 L -86.568622,41.972282 L -86.572871,41.960968 L -86.582197,41.942241 L -86.597899,41.918291 L -86.607935,41.906571 L -86.621769,41.891934 L -86.650751,41.868354 L -86.669009,41.855696 L -86.68445,41.840179 L -86.705912,41.827859 L -86.717037,41.819349 L -86.777227,41.78474 L -86.82472041535621,41.76029537328571 L -86.699681,41.759791 L -86.591616,41.759487 L -86.502044,41.759743 L -86.443566,41.759553 L -86.360854,41.759859 L -86.3312,41.760206 L -86.171812,41.760469 L -86.108465,41.760697 L -85.916693,41.759762 L -85.868016,41.759321 L -85.750291,41.758969 L -85.65975031327235,41.75904576297293 L -85.543599,41.759433 L -85.477156,41.759235 L -85.474743,41.759456 L -85.368309,41.75987 L -85.156179,41.759538 L -85.058543,41.75961 L -85.016453,41.759781 L -84.980969,41.759491 L -84.805885,41.760171 L -84.80597792485197,41.69611871542863 L -84.718391,41.698971 L -84.592451,41.70144 L -84.514609,41.703242 L -84.475933,41.703813 L -84.409212,41.705616 L -84.360416,41.706589 L -84.270006,41.709241 L -84.192531,41.711014 L -84.017945,41.716671 L -83.976831,41.717378 L -83.899566,41.719929 L -83.76315,41.723552 L -83.70926,41.725277 L -83.685444,41.726622 L -83.666165,41.726879 L -83.605408,41.728811 L -83.547671,41.730155 L -83.503995,41.73162 L -83.45540096793614,41.73284308724825 Z M -83.2122736893084,45.0518595552946 L -83.205801,45.044474 L -83.204946,45.040747 L -83.197747,45.034824 L -83.192673,45.035912 L -83.202015,45.046114 L -83.2122736893084,45.0518595552946 Z M -83.228895,45.046623 L -83.226983,45.040481 L -83.218325,45.041531 L -83.218084,45.049529 L -83.222956,45.050704 L -83.228895,45.046623 Z M -83.298775,45.065746 L -83.291702,45.060336 L -83.290946,45.068081 L -83.298775,45.065746 Z M -83.336341,45.191599 L -83.324881,45.187083 L -83.31986,45.189457 L -83.324193,45.196011 L -83.329886,45.197735 L -83.336341,45.191599 Z M -83.441221,44.03805 L -83.441459,44.027812 L -83.435027,44.027009 L -83.427265,44.028701 L -83.428468,44.032701 L -83.441221,44.03805 Z M -83.77401,46.051466 L -83.766048,46.049569 L -83.759987,46.038351 L -83.747226,46.034778 L -83.745845,46.040495 L -83.736171,46.046532 L -83.734912,46.05361 L -83.746558,46.056414 L -83.750955,46.064743 L -83.754758,46.066145 L -83.763314,46.063836 L -83.769137,46.054435 L -83.77401,46.051466 Z M -83.827607,46.101753 L -83.813584,46.094749 L -83.812395,46.100105 L -83.802056,46.099446 L -83.803126,46.092524 L -83.796946,46.0917 L -83.794807,46.095408 L -83.782447,46.090628 L -83.777932,46.091864 L -83.783398,46.097963 L -83.792549,46.101918 L -83.7935,46.107356 L -83.807285,46.105461 L -83.812514,46.108675 L -83.827607,46.101753 Z M -83.850662,46.066969 L -83.844601,46.063424 L -83.841392,46.067794 L -83.850186,46.071586 L -83.850662,46.066969 Z M -83.869082,46.078099 L -83.86516,46.071421 L -83.853276,46.072741 L -83.864804,46.081149 L -83.869082,46.078099 Z M -83.882867,45.975453 L -83.88358,45.969341 L -83.870468,45.962317 L -83.859456,45.963393 L -83.853987,45.959717 L -83.844838,45.960254 L -83.844076,45.952988 L -83.836282,45.953232 L -83.830578,45.949183 L -83.837817,45.939626 L -83.829501,45.938548 L -83.823804,45.942572 L -83.825468,45.946291 L -83.82321,45.952488 L -83.816079,45.950092 L -83.802543,45.941376 L -83.801041,45.93758 L -83.793363,45.937736 L -83.792815,45.934057 L -83.786168,45.932924 L -83.778407,45.940093 L -83.776624,45.948605 L -83.7689,45.953893 L -83.757016,45.954636 L -83.756422,45.948687 L -83.750955,45.941663 L -83.741208,45.937295 L -83.729326,45.94439 L -83.723859,45.944473 L -83.719429,45.934078 L -83.712094,45.935961 L -83.705677,45.934215 L -83.701128,45.941517 L -83.696645,45.941581 L -83.687691,45.93539 L -83.674617,45.941025 L -83.665913,45.941682 L -83.657661,45.945461 L -83.642454,45.9472 L -83.641147,45.940837 L -83.631759,45.945713 L -83.635799,45.95695 L -83.630214,45.957032 L -83.622964,45.950257 L -83.620588,45.944556 L -83.631996,45.937449 L -83.63205,45.930181 L -83.616547,45.933481 L -83.615834,45.939928 L -83.604188,45.938771 L -83.608585,45.929431 L -83.602989,45.924644 L -83.582273,45.915685 L -83.581252,45.920007 L -83.562,45.922074 L -83.549744,45.917592 L -83.537281,45.922818 L -83.528312,45.917769 L -83.521349,45.920666 L -83.512016,45.927116 L -83.512388,45.938045 L -83.504809,45.941155 L -83.504054,45.946349 L -83.498271,45.949556 L -83.499782,45.959937 L -83.491349,45.968048 L -83.481766,45.971874 L -83.473221,45.984421 L -83.473946,45.98856 L -83.480637,45.996162 L -83.48835,45.999542 L -83.500678,45.994776 L -83.506382,45.995188 L -83.519344,46.008699 L -83.531814,46.006415 L -83.5336,46.013663 L -83.541936,46.018501 L -83.540848,46.021248 L -83.543365,46.037197 L -83.547203,46.047867 L -83.556907,46.06047 L -83.565353,46.061897 L -83.566991,46.067299 L -83.572571,46.069897 L -83.572639,46.074921 L -83.576088,46.083511 L -83.581314,46.089615 L -83.586732,46.09113 L -83.59266,46.088568 L -83.615341,46.095978 L -83.625557,46.102211 L -83.634979,46.103954 L -83.649308,46.103614 L -83.661163,46.100258 L -83.700111,46.103867 L -83.704782,46.101245 L -83.719788,46.101032 L -83.723297,46.093811 L -83.732178,46.086919 L -83.719513,46.081326 L -83.699883,46.075375 L -83.685831,46.074637 L -83.677393,46.072988 L -83.675016,46.067546 L -83.677512,46.063341 L -83.671808,46.06062 L -83.671689,46.05493 L -83.678938,46.051796 L -83.686439,46.050861 L -83.693555,46.046187 L -83.68488,46.040578 L -83.688802,46.035628 L -83.709123,46.038268 L -83.711777,46.040279 L -83.727837,46.034924 L -83.732416,46.027295 L -83.73812,46.023994 L -83.748816,46.023004 L -83.75559,46.025727 L -83.766285,46.02482 L -83.765274,46.018364 L -83.770326,46.014587 L -83.780665,46.013018 L -83.774248,46.008479 L -83.78114,45.998491 L -83.789103,45.998738 L -83.794052,45.9958 L -83.795876,45.988666 L -83.806097,45.983876 L -83.817268,45.993124 L -83.824992,45.992051 L -83.824041,45.9975 L -83.82832,46.005425 L -83.834262,46.010295 L -83.825111,46.016237 L -83.827607,46.019951 L -83.835807,46.024572 L -83.845076,46.026552 L -83.851102,46.018037 L -83.860525,46.007736 L -83.867418,46.006993 L -83.873146,45.993427 L -83.878114,45.989079 L -83.880127,45.983709 L -83.877876,45.978261 L -83.882867,45.975453 Z M -84.01169,46.091535 L -84.012634,46.08728 L -83.995794,46.076005 L -83.976394,46.06903 L -83.976513,46.075379 L -83.980435,46.07678 L -83.987446,46.084117 L -83.99529,46.094831 L -84.003371,46.095326 L -84.01169,46.091535 Z M -84.582692,45.96312 L -84.580852,45.958792 L -84.56795,45.952484 L -84.56239,45.956844 L -84.561909,45.963469 L -84.568041,45.968083 L -84.577412,45.969795 L -84.582692,45.96312 Z M -84.59024,45.812801 L -84.588455,45.807449 L -84.58183,45.802512 L -84.562263,45.79651 L -84.549951,45.790073 L -84.547347,45.786039 L -84.53948,45.780836 L -84.539193,45.77771 L -84.526213,45.76602 L -84.52524,45.761691 L -84.518116,45.759411 L -84.508682,45.75401 L -84.507119,45.745092 L -84.500785,45.737227 L -84.481421,45.730052 L -84.474472,45.732655 L -84.46559,45.731351 L -84.451487,45.726475 L -84.433528,45.728217 L -84.428185,45.723677 L -84.419627,45.720094 L -84.411851,45.723528 L -84.405717,45.722259 L -84.393586,45.728073 L -84.395564,45.732275 L -84.391161,45.739404 L -84.378326,45.744795 L -84.373068,45.744532 L -84.369108,45.748993 L -84.370583,45.755953 L -84.355945,45.770691 L -84.360396,45.773693 L -84.373391,45.776352 L -84.391565,45.783896 L -84.399613,45.782828 L -84.406489,45.787964 L -84.412169,45.80019 L -84.421405,45.805723 L -84.420224,45.795025 L -84.424083,45.790178 L -84.433724,45.78671 L -84.445554,45.791445 L -84.47435,45.798685 L -84.494186,45.805837 L -84.502687,45.810323 L -84.509073,45.81112 L -84.524836,45.808061 L -84.538048,45.807855 L -84.550385,45.811016 L -84.573729,45.819442 L -84.579385,45.81985 L -84.58905,45.816372 L -84.59024,45.812801 Z M -84.611245,45.834573 L -84.607343,45.825624 L -84.592357,45.821852 L -84.589247,45.826059 L -84.600517,45.833919 L -84.611245,45.834573 Z M -84.64162,45.972901 L -84.636145,45.965244 L -84.640179,45.958369 L -84.631575,45.95535 L -84.619417,45.958356 L -84.608783,45.967471 L -84.629695,45.97946 L -84.635822,45.980875 L -84.639863,45.978345 L -84.64162,45.972901 Z M -84.651512,45.86277 L -84.650917,45.859798 L -84.639695,45.852618 L -84.630381,45.8504 L -84.619789,45.845548 L -84.615412,45.849855 L -84.606659,45.848548 L -84.602142,45.852062 L -84.622522,45.877518 L -84.629116,45.88222 L -84.641806,45.885467 L -84.64681,45.883571 L -84.645561,45.874668 L -84.651512,45.86277 Z M -84.880387,45.86532 L -84.879985,45.861215 L -84.864827,45.854034 L -84.861969,45.860214 L -84.869234,45.864429 L -84.880387,45.86532 Z M -85.074442,45.76589 L -85.07309,45.762362 L -85.059902,45.76183 L -85.064654,45.76659 L -85.074442,45.76589 Z M -85.394765,45.777136 L -85.391803,45.774446 L -85.377129,45.769012 L -85.373136,45.769689 L -85.364044,45.77776 L -85.357638,45.778529 L -85.360187,45.789529 L -85.350268,45.795773 L -85.350681,45.802976 L -85.358087,45.814112 L -85.36308,45.817907 L -85.368797,45.818099 L -85.377958,45.814067 L -85.368315,45.808113 L -85.370037,45.804512 L -85.365904,45.798894 L -85.372447,45.792123 L -85.382435,45.786167 L -85.388496,45.779778 L -85.394765,45.777136 Z M -85.529878,45.800462 L -85.52956,45.798143 L -85.509718,45.795802 L -85.502754,45.798136 L -85.500509,45.793411 L -85.493359,45.788814 L -85.503058,45.783351 L -85.505752,45.778086 L -85.49562,45.773403 L -85.491748,45.774198 L -85.484855,45.78075 L -85.467571,45.78015 L -85.464558,45.782144 L -85.465157,45.788977 L -85.454152,45.791135 L -85.458294,45.797516 L -85.467826,45.79788 L -85.472861,45.803379 L -85.471346,45.806474 L -85.492486,45.819342 L -85.516819,45.827449 L -85.526216,45.827833 L -85.524469,45.819571 L -85.529131,45.818794 L -85.525676,45.810629 L -85.517584,45.805829 L -85.518025,45.803043 L -85.529878,45.800462 Z M -85.583214,44.863728 L -85.580182,44.861544 L -85.570643,44.86452 L -85.574651,44.872203 L -85.581207,44.869938 L -85.583214,44.863728 Z M -85.594489,45.83768 L -85.586921,45.833923 L -85.587033,45.84084 L -85.594489,45.83768 Z M -85.617538,45.810776 L -85.611124,45.807376 L -85.604309,45.811824 L -85.611967,45.814302 L -85.617538,45.810776 Z M -85.625977,45.601586 L -85.626271,45.595053 L -85.619877,45.582884 L -85.609188,45.580634 L -85.602254,45.582395 L -85.596953,45.579458 L -85.585805,45.579849 L -85.576803,45.574606 L -85.561634,45.572213 L -85.541129,45.575045 L -85.534064,45.578198 L -85.534211,45.583613 L -85.526895,45.59159 L -85.518038,45.592912 L -85.509276,45.596475 L -85.506495,45.602541 L -85.491727,45.607527 L -85.487026,45.621211 L -85.488267,45.629985 L -85.487333,45.63735 L -85.490067,45.645426 L -85.490252,45.652122 L -85.500451,45.664298 L -85.503767,45.670472 L -85.506104,45.681148 L -85.5028,45.690998 L -85.494016,45.698476 L -85.496311,45.715136 L -85.50195,45.720785 L -85.498777,45.726291 L -85.508249,45.730658 L -85.513597,45.736547 L -85.520803,45.737247 L -85.520569,45.744745 L -85.515145,45.749451 L -85.50904,45.748488 L -85.508818,45.742358 L -85.497656,45.746246 L -85.501267,45.754415 L -85.506704,45.755207 L -85.525237,45.750462 L -85.54375,45.751413 L -85.54956,45.757266 L -85.557069,45.759488 L -85.567991,45.758579 L -85.567128,45.750419 L -85.562723,45.74304 L -85.562163,45.735453 L -85.567695,45.728699 L -85.572395,45.727671 L -85.571781,45.711424 L -85.581702,45.701451 L -85.589813,45.698144 L -85.594703,45.690994 L -85.600017,45.688652 L -85.60347,45.68206 L -85.604823,45.667478 L -85.608302,45.663994 L -85.607775,45.655651 L -85.604463,45.649503 L -85.603851,45.640082 L -85.608199,45.631605 L -85.61985,45.624547 L -85.622063,45.613715 L -85.622658,45.603033 L -85.625977,45.601586 Z M -85.700802,45.738525 L -85.694801,45.734293 L -85.693158,45.725656 L -85.687103,45.71979 L -85.69356,45.709189 L -85.697581,45.697649 L -85.680454,45.696062 L -85.673027,45.698167 L -85.67195,45.703051 L -85.654823,45.715882 L -85.650784,45.722502 L -85.654632,45.732865 L -85.653495,45.740309 L -85.663779,45.743605 L -85.681517,45.747495 L -85.68885,45.747238 L -85.697862,45.738803 L -85.700802,45.738525 Z M -85.789516,45.487821 L -85.792961,45.481976 L -85.783099,45.477072 L -85.777422,45.467412 L -85.770027,45.462488 L -85.766838,45.475788 L -85.770611,45.486489 L -85.775375,45.490154 L -85.782646,45.491596 L -85.789516,45.487821 Z M -85.844023,45.694828 L -85.834783,45.69637 L -85.83335,45.70239 L -85.83518,45.709197 L -85.838996,45.710154 L -85.844023,45.694828 Z M -85.884707,45.444814 L -85.875108,45.42541 L -85.865217,45.41721 L -85.842163,45.391094 L -85.838478,45.38258 L -85.830279,45.38425 L -85.827783,45.393264 L -85.826544,45.405876 L -85.831967,45.42048 L -85.852073,45.436947 L -85.859513,45.439395 L -85.884707,45.444814 Z M -86.064483,45.139601 L -86.062159,45.133504 L -86.060975,45.123161 L -86.058125,45.114867 L -86.060398,45.108285 L -86.058653,45.100776 L -86.052424,45.095311 L -86.041172,45.090404 L -86.032708,45.081153 L -86.016694,45.069034 L -86.007527,45.057172 L -85.99951,45.054063 L -85.976883,45.06266 L -85.963577,45.06358 L -85.977082,45.072993 L -85.982799,45.080787 L -85.984095,45.087073 L -85.982285,45.102883 L -85.979276,45.116393 L -85.974679,45.122592 L -85.976872,45.126281 L -85.976803,45.138363 L -85.984616,45.143856 L -85.989412,45.151069 L -86.005946,45.155751 L -86.04443,45.159582 L -86.050473,45.158418 L -86.059393,45.152291 L -86.064483,45.139601 Z M -86.155654,45.01439 L -86.154326,45.002731 L -86.134832,44.996963 L -86.124877,44.999584 L -86.115699,44.999093 L -86.095988,45.006365 L -86.092235,45.010129 L -86.097675,45.013371 L -86.101894,45.022811 L -86.097094,45.030128 L -86.087692,45.032118 L -86.07781,45.03241 L -86.085249,45.039543 L -86.090168,45.04145 L -86.102943,45.042992 L -86.117908,45.048478 L -86.138095,45.043038 L -86.141644,45.040251 L -86.147432,45.02749 L -86.154557,45.018102 L -86.155654,45.01439 Z M -86.660639,45.578604 L -86.656058,45.561652 L -86.655604,45.556417 L -86.650894,45.553062 L -86.648909,45.544344 L -86.641068,45.543015 L -86.634624,45.544795 L -86.627495,45.549456 L -86.627556,45.552816 L -86.622081,45.559472 L -86.622155,45.56363 L -86.62682,45.572934 L -86.633787,45.571543 L -86.638799,45.573191 L -86.64614,45.583927 L -86.654935,45.587171 L -86.660639,45.578604 Z M -86.670204,45.52956 L -86.667056,45.52168 L -86.659915,45.522491 L -86.661179,45.532962 L -86.670204,45.52956 Z M -86.701671,45.605726 L -86.701601,45.603172 L -86.690169,45.595721 L -86.677277,45.60006 L -86.669433,45.608291 L -86.677269,45.613689 L -86.69239,45.617126 L -86.698152,45.613621 L -86.701671,45.605726 Z M -86.70904,46.54521 L -86.709463,46.541851 L -86.704166,46.528942 L -86.701649,46.511217 L -86.696483,46.503523 L -86.684732,46.499641 L -86.683843,46.493538 L -86.686195,46.486696 L -86.686298,46.477966 L -86.688548,46.463695 L -86.687595,46.456228 L -86.676792,46.451264 L -86.671682,46.450609 L -86.664433,46.45986 L -86.659917,46.470256 L -86.635911,46.471402 L -86.64114,46.464363 L -86.647795,46.462562 L -86.640784,46.454375 L -86.635198,46.453475 L -86.623077,46.456504 L -86.609648,46.468701 L -86.606981,46.475707 L -86.609596,46.493456 L -86.619582,46.487951 L -86.628223,46.477781 L -86.63579,46.478529 L -86.646798,46.487497 L -86.639783,46.501622 L -86.634419,46.504959 L -86.629361,46.517574 L -86.629139,46.528223 L -86.626329,46.534903 L -86.63224,46.537892 L -86.638335,46.546491 L -86.645371,46.550788 L -86.646009,46.553875 L -86.653355,46.560698 L -86.66664,46.556695 L -86.67595,46.557119 L -86.678543,46.56089 L -86.697793,46.554688 L -86.70904,46.54521 Z M -86.748185,46.5156 L -86.744167,46.505292 L -86.736916,46.50397 L -86.737287,46.511148 L -86.743582,46.515831 L -86.748185,46.5156 Z M -86.783513,45.502261 L -86.784368,45.4989 L -86.779729,45.489032 L -86.774919,45.487614 L -86.765575,45.47895 L -86.758286,45.479263 L -86.758598,45.492364 L -86.757548,45.504123 L -86.764699,45.506023 L -86.773832,45.511124 L -86.781474,45.509685 L -86.783513,45.502261 Z M -86.899956,46.48783 L -86.894798,46.48225 L -86.890527,46.486226 L -86.899956,46.48783 Z M -87.420134,46.602974 L -87.416508,46.597476 L -87.410079,46.602718 L -87.416062,46.605224 L -87.420134,46.602974 Z M -87.650661,47.417469 L -87.639737,47.415206 L -87.62631,47.414059 L -87.617531,47.407711 L -87.600342,47.407711 L -87.595257,47.416484 L -87.597286,47.421762 L -87.610042,47.423552 L -87.616915,47.423019 L -87.623673,47.426283 L -87.639621,47.418171 L -87.650661,47.417469 Z M -88.366154,48.226247 L -88.3578,48.227927 L -88.336342,48.237138 L -88.340858,48.2388 L -88.352504,48.235476 L -88.361034,48.231039 L -88.366154,48.226247 Z M -89.2628,47.869864 L -89.25638,47.868464 L -89.225543,47.876902 L -89.210451,47.885749 L -89.203796,47.886307 L -89.20023,47.883358 L -89.209025,47.876503 L -89.222691,47.868293 L -89.221622,47.86606 L -89.22885,47.858283 L -89.234535,47.855373 L -89.234533,47.851718 L -89.215802,47.850874 L -89.208439,47.851524 L -89.198386,47.8482 L -89.192207,47.84106 L -89.192681,47.83343 L -89.179766,47.831027 L -89.169544,47.824922 L -89.162048,47.823564 L -89.14653,47.827544 L -89.139258,47.82712 L -89.124134,47.828616 L -89.107991,47.835705 L -89.086794,47.84219 L -89.072577,47.847494 L -89.044463,47.85575 L -89.035627,47.856041 L -89.022736,47.858532 L -89.014404,47.862636 L -88.997132,47.866463 L -88.976576,47.873538 L -88.951425,47.879206 L -88.94382,47.882557 L -88.911665,47.891344 L -88.907891,47.896662 L -88.899698,47.902445 L -88.940359,47.893408 L -88.950429,47.89053 L -88.957465,47.894435 L -88.968792,47.893253 L -88.977378,47.895221 L -89.000936,47.89061 L -89.005095,47.898658 L -89.001768,47.901208 L -89.003075,47.908537 L -88.986058,47.914886 L -88.965417,47.921427 L -88.946874,47.930371 L -88.924486,47.936707 L -88.924641,47.943257 L -88.899184,47.9533 L -88.889872,47.951792 L -88.872601,47.958226 L -88.866377,47.961826 L -88.852923,47.965322 L -88.834389,47.964234 L -88.809162,47.971929 L -88.791959,47.978938 L -88.772472,47.980701 L -88.765871,47.984477 L -88.757165,47.9833 L -88.753112,47.986878 L -88.739911,47.990824 L -88.718555,47.995134 L -88.694059,48.002776 L -88.670073,48.011446 L -88.639601,48.02656 L -88.636987,48.029445 L -88.620928,48.036192 L -88.585889,48.054268 L -88.574672,48.062862 L -88.574434,48.071749 L -88.578395,48.078003 L -88.576712,48.084999 L -88.566938,48.093719 L -88.511902,48.121699 L -88.484814,48.135943 L -88.468252,48.143571 L -88.446192,48.155212 L -88.419875,48.170731 L -88.418244,48.18037 L -88.422601,48.190975 L -88.447236,48.182916 L -88.459735,48.183807 L -88.482039,48.179915 L -88.491961,48.175466 L -88.501088,48.168181 L -88.524753,48.165291 L -88.547033,48.174891 L -88.578413,48.16237 L -88.590433,48.160485 L -88.614026,48.154797 L -88.632712,48.148584 L -88.666521,48.135626 L -88.674192,48.127165 L -88.675628,48.120444 L -88.707758,48.105162 L -88.744458,48.092769 L -88.764256,48.085189 L -88.772065,48.078906 L -88.777713,48.067928 L -88.787556,48.063035 L -88.805157,48.058055 L -88.810461,48.055247 L -88.816084,48.057006 L -88.82232,48.051886 L -88.835392,48.04696 L -88.849178,48.0441 L -88.835806,48.057101 L -88.893701,48.03477 L -88.895069,48.029059 L -88.90933,48.024056 L -88.923856,48.020762 L -88.929857,48.02203 L -88.941249,48.019121 L -88.95069,48.014308 L -88.984215,48.005521 L -88.994163,48.00229 L -89.001638,47.997648 L -89.007922,47.996724 L -89.095207,47.967922 L -89.179154,47.93503 L -89.188252,47.92863 L -89.201711,47.922619 L -89.203153,47.917788 L -89.220716,47.910989 L -89.222572,47.900411 L -89.226327,47.895438 L -89.247127,47.888503 L -89.243013,47.885271 L -89.228871,47.889335 L -89.224474,47.89308 L -89.216987,47.892204 L -89.215323,47.888379 L -89.224117,47.88025 L -89.235407,47.877699 L -89.245746,47.878018 L -89.255202,47.876102 L -89.2628,47.869864 Z M -83.83209,43.666283 L -83.818093,43.665904 L -83.816297,43.671209 L -83.822274,43.675393 L -83.829048,43.673072 L -83.83209,43.666283 Z M -83.449304,43.81636 L -83.432994,43.819419 L -83.446921,43.822904 L -83.449304,43.81636 Z M -83.449414,43.858836 L -83.450721,43.855506 L -83.438092,43.839494 L -83.439143,43.850282 L -83.43782,43.85544 L -83.431585,43.856621 L -83.436631,43.861909 L -83.444974,43.861456 L -83.449414,43.858836 Z" fill="none" stroke=currentColor stroke-width="1" vector-effect="non-scaling-stroke"/>
</svg>