<?xml version="1.0"?>
<svg width="20" height="20" xmlns="http://www.w3.org/2000/svg" version="1.2" baseProfile="tiny" viewBox="-146.940 -75.440 1093.880 1093.880" stroke-linecap="round" stroke-linejoin="round">
<g id="state">
<path d="M 269.8 451.66 266.39 450.33 265.9 449.87 264.22 449.78 263.91 449.45 262.92 449.45 262.94 448.91 262.01 447.74 261.32 446.12 261.61 445.67 260.98 444.44 259.76 443.31 258.97 443.07 258.48 442.24 257.53 441.7 256.4 440.31 255.85 440.15 255.87 439.44 255.34 436.5 255.93 435.44 256.79 435 257.01 434.48 256.96 433.44 257.57 432.34 257.19 431.76 258.01 430.68 258.68 430.38 258.96 428.44 258.85 427.77 259.35 426.88 260.06 426.42 260.31 424.46 261.07 423.41 261.72 421.95 262.94 420.69 264.1 419.24 264.1 418.48 264.93 417.6 265.62 416.48 265.65 414.89 264.85 413.9 264.74 412.32 263.24 411.2 263.17 410.52 262.35 410.02 262.07 409.47 261.27 409.27 260.48 409.66 259.78 410.45 258.7 410.94 257.17 412.73 256.5 413.84 255.36 413.99 255 414.77 254.19 414.89 253.5 414.46 252.22 414.63 251.39 414.05 250.38 413.99 249.4 414.28 248.23 414.03 247.92 414.29 247.15 414.04 246.55 415.04 245.5 415.62 245.33 414.64 244.06 413.8 243.94 412.64 243.46 411.86 242.89 412.13 243.44 413.24 242.41 413.95 241.61 413.46 241.98 412.32 243.32 411.18 243.02 410 243.5 409.49 244.68 408.81 244.96 408.2 244.78 407.29 245.79 406.63 245.72 405.51 245.17 404.86 244.8 403.79 244.74 402.23 245.42 401.27 246.22 400.91 246.51 400.32 247.45 399.97 247.93 399.13 249.06 398.71 249.8 398.18 250.51 397.09 250.49 396.11 251.27 395.37 251.44 394.14 252.03 393.21 252.02 392.48 251.4 392.16 251.16 391.3 251.02 388.71 251.19 387.7 250.74 386.78 249.74 385.68 248.37 384.57 248.55 383.36 250.66 383.84 251.08 384.21 251.93 384.35 252.82 383.84 253.04 381.65 254.12 380.68 254.12 379.92 254.45 378.77 254.14 378.41 253.91 376.95 252.81 376.6 252.35 375.6 251.63 374.81 251.13 373.4 249.77 372.06 250.02 369.94 252.03 369.44 252.8 368.82 254.25 368.51 254.31 367.6 253.66 366.6 251.99 365.3 251.6 364.64 252.03 364.2 251.35 363.07 250.18 362.83 248.7 362.03 247.73 361 247.23 360.76 246.33 359.17 246.59 358.06 246.03 357.4 244.9 356.59 242.88 356.69 242.45 355.87 241.9 356.19 241.08 355.81 240.58 356.03 239.95 355.6 239.47 355.89 238.27 356.03 237.49 355.75 236.59 355.74 236.28 354.9 234.38 354.02 234.06 353.53 234.98 353 234.38 350.68 233.74 350.28 232.47 350.72 231.63 350.62 230.44 351.05 229.2 350.94 228.96 351.76 228.06 352.11 227.3 352.13 225.99 352.17 225.24 351.43 223.84 351.31 222.9 350.42 222.74 349.19 222.43 348.63 221.68 348.53 220.48 347.79 219.8 346.36 220.21 345.6 222.31 343.62 223.04 343.13 223.75 342.11 224.87 341.14 225.44 340.03 226.69 338.75 225.72 337.93 223.91 337.75 223.64 337.35 223.57 335.71 223.27 335.23 223.4 334.2 224.51 332.7 223.83 331.89 222.72 331.74 221.89 331.9 221.47 331.2 220.2 330.5 219.4 329.41 218.61 329.37 217.23 329.03 216.26 327.73 215.43 327.18 214.64 326.95 213.99 327.66 211.32 327.64 210.64 327.46 209.83 326.55 209.88 325.32 208.98 325.21 208.58 325.71 207.54 326.15 205.91 326.24 205.25 326.79 204.33 325.99 202.68 325.17 201.92 326.01 201.73 324.86 198.71 322.09 197.49 321.47 196.69 320.58 195.82 321.86 195.17 322.14 194.48 321.98 193.64 322.2 192.99 322.77 192.42 322.25 192.4 321.75 191.37 321.17 190.57 320.41 189.94 320.53 189.43 319.98 189.45 319.38 188.44 318.89 187.45 319.1 187.39 319.9 186.26 320.16 185.11 319.43 184.38 317.15 184.44 316.28 183.58 315.9 181.71 315.77 181.09 316.59 179.99 316.72 179.6 316.4 178.61 316.25 177.98 316.47 176.9 317.47 176.24 317.65 175.45 315.89 174.77 315.95 174.41 317.07 173.92 317.79 173.85 318.48 173.41 319.17 173.31 319.97 171.56 319.83 171.37 320.24 169.15 319.53 168.32 318.76 167.99 318.1 168.02 317.25 167.32 315.96 166.31 315.85 165.35 315.23 164.06 315.4 163.41 315.81 163.09 315.24 163.19 314.51 162.29 313.81 161.41 313.68 159.28 314.63 158.77 313.92 158.36 314.72 157.68 315.12 157.12 315.05 157.03 313.88 156.71 313.19 155.86 312.48 155.39 312.98 155.75 313.91 154.82 314.15 153.87 313.9 151.95 312.73 151.6 312.78 150.47 311.22 142.59 306 130.62 298.05 127.48 295.94 124.22 294.88 117.5 292.58 115.37 291.78 109.56 289.83 99.83 286.42 97.65 285.71 91.38 283.54 84.63 281.12 84.23 281.02 77.34 278.6 62.24 273.37 59.75 272.46 47.32 268.13 31.85 262.62 27.86 261.16 27.99 260.07 28.36 259.24 28.26 257.98 27.29 256.43 26.89 256.07 27.13 254.81 26.46 254.15 25.82 252.68 25.92 252.17 25.33 251.4 24.85 250.39 24.98 248.73 24.67 248.02 24.64 247.02 24.36 246.26 23.29 246.12 23.46 245.05 23.42 243.87 22.43 243.46 22.05 242.91 22.1 241.44 21.18 240.7 20.99 239.62 20.14 237.16 19.71 236.8 18.89 237.04 18.89 236.05 17.33 236.4 16.2 236.37 15.5 236.6 15.26 235.87 14.49 234.73 14.86 234.07 14.44 233.44 13.62 234.2 12.93 233.93 12.09 234.24 10.45 234.22 11.2 232.06 11.26 231.07 10.36 229.97 9.79 230.02 9.35 228.98 8.18 228.98 8.13 229.6 7.35 230.65 6.64 230.81 5.76 230.41 3.83 231.32 2.94 231.26 2.6 229.74 2.02 229.08 1.85 228.14 1.33 227.89 1 226.5 1.38 226.4 4.35 224.34 5.96 223.55 8.35 222.08 9.36 221.25 10.04 221.07 11.94 222.03 12.32 222.1 16.53 220.16 19.3 219.51 22.02 218.49 26.72 217.04 27.9 216.96 30.25 216.53 30.71 216.55 33.01 216.11 36.2 215.2 38.23 214.82 40.32 213.97 43.51 211.62 44.72 210.07 46.2 209.01 47.67 208.31 51.49 205.69 58.97 197.92 61.01 196.72 65.08 195.05 68.85 194.24 71.88 193.75 73.16 193.72 73.95 193.92 75.13 193.92 76.48 193.65 77.7 194.04 79.74 195.19 79.92 195.74 80.6 196.02 82.22 195.99 83.46 195.58 84.04 195.12 85.21 194.78 87.93 194.2 88.4 193.93 89.07 194.21 91.46 193.77 92.11 193.43 93.19 193.76 93.88 193.66 94.29 194.05 95.32 194.05 96.21 194.33 99.59 194.23 101.77 193.73 104.39 192.65 108.06 191.41 110.05 190.05 112.14 189.34 113.89 188.22 115 188 117.72 186.43 118.47 186.29 120.62 185.04 121.56 184.3 123.35 182.61 125.43 179.83 126.38 178.12 127.94 177.44 128.87 176.44 129.54 175.31 130.95 174.29 131.98 174.12 132.44 174.84 133.08 175.29 134.28 175.55 135.82 175.55 137.3 175.24 139.69 173.83 140.73 173.64 141.26 174.53 141.89 174.72 143.65 174.64 144.76 174.43 146.2 173.82 147.56 172.98 148.44 172.23 150.24 169.95 151.22 168.38 152.36 166.01 152.63 165.19 152.72 163.95 153.04 163.9 153.68 162.72 153.59 162.24 154.8 160.91 155.12 160.27 156.81 159.33 157.88 159 158.51 158.5 159.44 158.5 161.02 156.86 161.94 155.42 162.66 154.86 163.63 154.64 164.08 154.17 165.16 153.64 166.58 153.79 167.97 152.96 168.72 152.17 169.12 151.4 171.27 148.99 174.32 146.44 177.08 144.55 178.94 143.69 180.3 143.7 181.69 143.32 182.98 142.12 184.97 141.88 186.5 141.49 188.03 140.24 189.01 139.13 191.8 137.02 194.25 134.83 196.63 132.1 197.43 130.12 198.61 128.43 200 127.2 200.92 126.19 202.04 124.55 202.62 124.11 203.19 124.11 205.67 122.43 206.49 122.2 207.33 121.43 209.06 121.27 212.13 120.02 214.18 118.88 216.01 117.52 218.19 117.24 219.87 116.9 221.68 115.98 222.59 115.1 223.11 113.93 224.41 113.68 226.24 112.98 226.77 113.08 228.32 112.72 228.4 113.43 230.11 113.18 230.34 112.45 235.13 111.9 237.5 112.03 239.22 111.81 239.26 111.11 240.02 111 245.97 110.78 246.27 110.68 248.59 110.93 249.89 110.9 253.34 111.44 254.27 112.32 255.52 112.85 256.84 112.74 258.16 112.93 258.65 112.13 261.56 112.51 262.31 112.27 263.09 112.39 267.3 114.36 269.74 116.12 271.12 117.5 271.32 119.42 270.93 120.07 271.04 121.09 271.45 122.31 271.23 122.99 270.38 123.01 269.33 122.74 268.36 122.24 266.73 122.57 266.13 123.17 265.88 123.83 264.73 124.02 263.78 123.76 262.68 123.95 261.18 124.94 260.05 124.69 259.74 124.14 258.98 124.1 258.53 123.59 257.25 123.26 256.3 123.44 254.78 123.12 253.38 123.62 252.07 123.37 249.01 123.66 247.5 123.99 246.64 125.78 246.55 126.6 246.81 127.49 247.52 128.34 248.23 128.56 249.01 129.83 249.03 130.47 248.2 131.58 247.03 131.51 246.03 131.72 244.36 132.98 243.98 133.05 241.23 135.26 239.5 135.81 237.46 136.24 236.94 136.56 235.78 137.8 234.62 139.39 233.97 140.04 233.16 141.3 231.98 141.57 231.12 142.09 229.09 144.87 227.07 146.07 226.11 147.51 225.3 147.99 224.8 147.82 223.37 148.28 221.61 148.17 220.82 149.11 219.93 149.57 218.87 151.35 218.5 152.97 218.33 155.29 218.59 156.34 219.32 156.59 219.26 157.11 218.47 158 217.69 158.46 217.29 157.63 216.77 157.17 215.79 157.12 214.4 157.98 213.63 159.16 213.74 160.49 213.59 161.32 212.58 163.56 209.92 165.09 207.34 166.46 206.97 167.48 206.82 169.51 206.2 171.63 205.31 173.37 205.22 174.51 204.55 175.47 203.36 176.51 201.48 179.22 200.26 180.19 199.28 180.14 198.6 180.4 198.54 179.49 198.03 179.47 197.2 181.11 196.82 184.42 195.99 187.73 194.4 191.71 193.73 192.93 193.81 194.26 193.25 196.37 193.27 197.97 192.87 198.94 192.64 201.41 193.45 203.37 193.44 204.57 194.32 206.8 193.55 207.95 192.74 207.33 192.37 207.61 190.49 210.87 190.9 211.45 192.27 212.26 193.58 212.05 195.31 210.53 195.51 209.46 196.51 207.91 197.16 206.3 198.89 204.2 199.11 203.8 202.6 200.16 202.59 199.16 201.91 198.21 200.56 198.82 200.49 198.21 201.99 196.04 202.98 195.39 203.72 195.45 203.32 196.88 203.97 197.54 205.61 197.66 206.59 196.48 208.68 194.47 209.44 193.93 209.9 193.2 212.85 190.94 214.83 189.77 216.6 187.84 219.34 186.54 221.15 186.02 222.07 184.86 223.21 184.56 224.32 184.04 225.51 183.21 225.97 183.4 226.56 182.98 227.67 183.97 226.9 184.21 226.25 184.83 226.21 185.78 225.88 186.28 222.07 189.61 220.77 190.19 220.06 191.07 219.62 190.92 217.37 192.85 216.47 194.19 215.16 196.85 214.52 198.67 213.33 200.77 212.18 201.55 212.06 202.83 213.09 202.7 213.92 201.98 214.23 201.02 214.99 200.66 216.3 197.56 217.39 196 219.52 194.47 219.17 193.42 220.49 192.64 221.08 192.52 222.24 191.67 224.48 191.73 226.63 191.26 227.92 191.19 229.24 190.83 230.47 190.26 232.38 189.89 233.49 190.07 236.87 191.77 238.64 191.59 239.58 191.88 240.39 192.4 241.63 192.37 244.58 192.06 247.92 192.28 248.43 192.15 250.27 192.33 252.43 194.75 253.71 195.52 255.14 196.11 257.03 195.36 258.05 195.2 258.37 195.93 259.27 196.64 261.33 196.95 261.86 197.42 261.64 198.31 261.81 198.83 262.83 199.66 263.81 199.82 264.4 199.29 265.29 199.2 265.61 200.89 265.6 201.78 265.92 203.98 266.4 204.86 268.25 205.14 269.67 204.84 270.35 204.43 270.61 203.82 270.41 202.76 271.05 202.68 271.62 203.49 271.56 205.33 272.15 206.34 273.16 206.93 273.98 207.13 274.67 206.93 275.5 207.19 275.97 208.2 276.7 209.02 277.84 210.66 279.31 211.76 278.98 212.72 279.21 213.68 279.32 215.77 280.01 217.95 279.98 219 280.83 220.5 281.91 221.3 282.32 221.98 283.66 223.03 283.92 223.94 285 224.4 285.37 224.91 285.61 226.28 285.34 226.94 286.59 229.03 287.33 231.12 288.29 231.86 290.7 232.94 290.69 234.28 291.12 235.52 290.96 235.92 292.16 237.23 293.01 237.71 293.26 238.86 293.74 238.86 294.06 239.51 295.88 239.41 296.33 239.97 297.55 240.5 298.43 240.39 298.47 239.58 299.09 239.26 299.37 239.73 299.08 240.96 298.44 240.84 297.79 241.53 297.72 242.44 298.18 243.81 298.8 244.65 298.74 245.42 299.2 246.01 297.82 246.47 297.41 247.8 297.82 249.05 298.56 250.1 299.94 251.58 300.64 252.15 303.13 253.28 305.37 253.96 307.83 254.39 310.46 254.68 313.46 254.71 316.01 254.51 318.26 253.91 318.91 253.45 319.14 252.73 320 252.57 320.37 253.56 322.69 254.3 324.46 254.23 325.65 253.83 325.9 253.22 328.43 251.44 329.9 251.27 331.72 250.81 332.35 249.99 333.6 250.08 334.12 249.81 333.98 248.93 335.24 249.19 335.59 249.02 336.12 249.79 336.64 250.05 337.8 249.89 338.34 250.16 338.92 251.15 339.51 251.63 339.65 252.62 340.35 253.8 340.57 254.82 341.36 256.9 340.83 257.12 341.03 258.01 341.45 258.43 342.89 259.14 343.83 259.17 344.74 258.92 346.64 260.07 346.63 260.64 347.14 261.21 346.89 262.17 347.95 263.19 350.4 263.71 351.64 263.74 353.77 263.28 354.24 262.11 354.2 261.17 354.57 260.07 355.12 259.22 356.7 257.69 359.99 257.52 361.23 258.13 361.8 258.2 362.26 258.71 362.12 259.58 363.45 261.05 364.17 262.59 364.87 263.39 366.83 263.48 368.24 262.6 369.6 263.08 369.8 264.65 368.81 265.99 368.83 266.46 369.88 267.42 371.17 267.52 372.47 265.46 374.3 263.1 374.26 261.77 374.58 261.56 375.5 261.77 376.87 259.66 378.29 258.38 380.03 255.81 380.35 255.88 381.96 255.22 382.67 254.48 382.85 253.95 383.77 252.98 384.63 252.62 385.68 251.79 386.25 250.67 386.8 250.24 387.03 249.28 388.14 248.59 388.46 247.93 389.07 247.8 389.88 248.03 390.79 248.72 393.33 247.68 394.46 247.09 396.1 246.6 400.13 244.58 403.11 242.74 416.26 234.14 418.89 231.99 421.2 231.55 422.32 232.66 422.95 233.82 424.33 234.26 426.08 234.16 429.02 233.36 431.11 232.52 435.24 231.74 437.55 230.89 437.56 231.34 436.36 231.78 436.81 232.25 439.75 231.51 441.38 230.79 443.69 230.02 446.77 229.51 450.37 229.86 454.87 231.05 459.21 231.66 462.75 231.75 467.24 231.36 471.56 231.65 475.2 232.3 479.28 232.48 481.44 232.45 483.72 232.23 485.72 231.63 489.05 230.16 490.76 229.24 492.94 228.58 497.25 226.64 500.67 224.74 502.4 223.71 504.46 222.8 507.72 221.51 509.54 221.21 511.6 221.07 514.18 220.45 516.17 220.06 517.43 219.93 521.85 220.65 524.83 221.03 526.65 221.06 529.32 220.71 530.44 220.37 533.14 219.19 535.61 218.93 537.17 219.14 537.45 219.71 536.18 220.83 534.08 222.88 532.09 225.31 530.85 227.56 530.11 229.69 529.84 231.49 530.01 232.87 529.24 240 529.06 243.42 529.19 246.19 529.87 249.3 530.13 251.2 529.97 251.68 528.56 252.13 527.42 253.11 527.1 254.01 527.2 255.69 527.69 257.23 528.46 258.04 529.25 259.56 530.05 260.23 531.07 260.71 536.07 261.16 536.96 260.67 537.76 259.66 538.68 259.84 539.01 260.68 540.23 262.17 540.89 262.52 543.03 262.83 544.84 262.65 546.18 262.21 546.91 262.97 547.67 264.44 547.72 264.96 548.35 265.59 549.32 265.85 550.51 265.88 552.2 265.62 555.25 264.6 559.77 262.52 561.29 261.63 563.25 260.23 564.2 259.77 565.66 260.36 566.61 260.55 568.86 260.19 569.79 261.14 570.29 262.04 571.12 264.2 571.98 264.91 573.84 267.03 573.88 267.6 573.21 267.83 573.14 266.94 572.7 266.36 572.03 266.37 571.45 267.41 571.57 268.61 572.25 270.13 573.53 270.36 575.88 269.94 577.55 269.2 579.99 267.35 580.68 267.58 581.45 266.52 581.35 265.83 582.03 265.64 582.71 266.71 583.76 267.67 584.51 267.43 585.42 266.48 586.12 264.64 586.15 263.37 585.36 262.71 587.15 259.64 589.6 257.92 592.11 258.18 594.15 256.78 597.35 256.98 598.93 258.07 602.11 259.1 603.8 259.09 604.83 258.87 605.9 257.95 608.68 253.23 611.83 252.34 613.47 254.22 614.59 254.32 615.87 254.01 617.2 253.46 618.23 253.75 618.79 255.06 619.32 255.53 619.99 257.45 616.58 269.65 617.32 276.24 619.28 281.25 620.56 283.39 619.24 284.38 619.66 291.04 621.43 292.7 620.41 294.88 619.49 295.2 618.61 295.18 617.98 295.61 617.53 296.53 616.65 296.38 616.1 296.76 615.67 296.53 615.01 295.53 613.71 294.23 612.94 294.36 613.1 295.64 612.58 295.82 612.44 294.55 610.41 294.07 610 294.37 610.25 295.03 610.03 296.28 608.98 296.28 608.73 296.8 607.72 297.9 607.16 297.45 605.61 298.2 605.06 298.74 605.09 299.3 604.46 299.62 604.62 300.11 604.13 300.58 605.17 302.17 606.14 302.64 607.08 301.99 606.94 303.56 606.27 304.22 607.87 305.19 608.39 305.24 609.28 306.04 611.68 305.6 612.24 304.85 613.49 304.23 613.15 303.64 613.41 302.81 614.35 303.38 614.78 304.53 615.79 304.06 616.09 303.35 616.73 303.73 616.99 304.66 617.53 305.06 618.25 305.02 618.98 303.76 619.77 304.44 619.83 305.96 620.37 306.71 621.21 307.12 621.24 307.76 622.31 308.37 623.14 307.92 624.08 308.72 625.18 308.4 628.23 310.04 628.09 311.66 627.33 311.32 626.03 312.15 625.86 313.03 625.03 313.36 624.33 314.41 624.18 315.98 624.96 317.03 625.63 317.42 626.66 318.57 628.56 321.59 629.24 322.36 629.76 322.42 630.26 322.97 630.85 322.71 631.88 323.77 632.33 324.64 633.09 325.29 633.45 326.42 634.57 326.46 634.93 326 634.82 325.21 635.31 324.93 636.36 325.1 636.79 324.68 637.49 324.86 637.63 326.25 638.27 326.69 640.31 327.51 641.12 329.29 641.63 331.06 640.55 331.97 640.68 332.87 640.17 335.11 638.98 333.79 638.09 333.66 636.88 334.06 635.24 333.84 634.31 334.11 633.39 333.63 632.2 334.15 631.62 334.67 631.23 336.09 630.53 335.81 629.53 335.02 628.56 334.67 627.84 334.68 626.01 333.99 624.5 333.97 623.28 333.52 621.92 333.8 621.84 333.02 620.46 332.49 619.64 331.6 618.13 331.95 618.14 332.67 617.15 332.1 616.42 333.03 615.25 332.91 614.39 332.32 614 332.46 613.37 331.77 613.03 332.26 612.11 332.52 611.57 333.12 610.21 331.94 609.81 331.32 609.24 331.36 609.21 332.53 608.37 332.05 608.16 332.57 607 332.14 606.79 331.8 605.63 331.73 604.74 330.58 604.11 330.94 605.18 333.4 605.58 333.94 605.46 335.03 604.91 335.62 603.8 335.05 603.2 335.65 602.04 335.84 600.58 334.51 599.71 334.9 599.55 335.48 598.79 335.38 598.19 335.66 597.64 335.32 596.96 335.56 596.22 335.13 595.9 335.34 596.94 336.68 597 337.05 596.01 337.84 594.65 337.74 593.51 337.29 593.03 336.45 592.15 336.94 592.74 338.16 591.51 337.32 589.86 335.85 589.54 335.28 590.06 334.11 589.84 332.92 590.32 332.23 589.19 330.35 590.39 331.29 590.66 331.81 591.55 331.75 592.02 331.14 591.51 330.55 590.54 330.12 589.31 328.98 587.77 328.29 587.1 328.27 586.78 328.95 585.53 328.41 584.71 329.17 585.08 330.25 585.11 331.19 585.68 331.84 585.17 332.59 585.29 333.69 584.41 333.31 583.94 332.6 583.47 332.45 583.22 330.93 583.35 330.35 582.78 329.92 582.09 330.01 581.06 329.54 580.29 330.29 580.31 331.93 579.99 332.51 580.23 333.34 579.37 333.75 578.41 333.6 578.17 332.25 578.45 331.67 578.61 330.48 578.15 327.99 577.24 325.99 576.29 325.47 575.31 324.62 573.54 324.9 573.06 325.45 571.12 325.11 570.55 325.36 570.17 324.14 569.59 323.78 568.48 323.55 567.02 322.14 566.13 321.72 565.12 322.03 564.22 322.66 563.07 324.24 562.76 325.23 562.55 326.79 563.39 328.44 563.07 330.28 562.38 331.25 563.33 332.41 563 333.3 562.17 333.32 561 333.02 560.76 333.88 559.49 333.85 558.78 334.71 557.78 337.46 558.2 337.99 558.46 338.92 559.55 339.32 560.04 339.88 560.39 341.05 559.25 340.64 558.46 340.98 558.11 341.59 558.31 343.81 559.11 344.55 559.69 347.01 558.77 347.16 558.74 347.72 559.61 348.13 560.26 348.87 560.87 349.07 561.56 350.15 561.09 350.71 559.34 350.97 557.57 350.8 556.86 351.16 556.49 351.99 555.97 351.54 554.24 350.61 552.48 349.27 551.43 347.6 549.66 347.9 548.65 347.35 547.96 346 548.05 344.93 547.88 343.71 545.97 343.04 545.37 342.31 544.99 342.31 544.04 341.41 543.82 340.73 543.05 339.86 541.06 340.04 540.53 339.64 538.81 336.32 537.72 334.57 534.64 331.02 531.68 328.15 530.65 327.48 528.6 326.81 526.62 325.73 524.59 325.41 523.45 324.88 522.75 325 519.15 322.35 518.12 321.84 517.02 321.67 515.99 322.08 515.46 321.83 515.4 320.96 514.23 320.08 513.34 320.22 512.95 320.94 513.38 321.24 513.19 322.07 512.48 321.2 511.7 321.2 511.21 320.64 509.56 320.14 508.85 320.44 506.85 319.54 506.42 319.84 504.79 318.89 503.88 318.19 502.97 318.31 502.76 317.69 499.89 315.86 497.94 315.38 496.85 315.56 495.81 316.3 495.49 316.97 494.44 317.84 494.16 316.68 493.5 316.22 493.42 315.3 491.33 314.16 489.86 314.06 488.37 314.92 488.5 315.6 487.24 316.21 486.77 315.66 484.54 314.79 482.61 314.68 481.35 314.98 480.47 315.46 478.53 317.1 477.07 318.84 476.08 319.75 475.16 321.7 473.87 322.47 472.82 323.62 471.34 325.89 470.75 327.52 470.07 327.88 469.46 329.13 468.93 329.71 468.25 329.96 467.38 331.04 466.99 331.96 467.12 332.63 466.58 333.11 466.08 332.93 464.57 332.91 463.88 333.09 463.59 333.69 462.87 333.99 461.42 333.35 459.66 332.98 458.7 333.21 456.63 332.49 455.92 332.41 454.99 331.8 453.59 331.19 451.61 330.81 450.93 330.83 450.04 331.34 449.32 332.53 448.42 332.91 447.41 332.44 444.43 332.28 443.21 332.54 442.69 333.16 441.73 333.64 440.67 334.61 439.97 336.59 439.98 337.44 440.85 337.99 441.16 339.27 440.46 339.08 439.12 338.01 438.18 337.78 436.92 336.53 432.79 334.62 430.96 333.94 426.55 332.59 423.32 332.18 421.72 332.41 420.46 332.4 419.15 333 419.02 333.52 418.23 333.4 417.74 333.91 416.5 333.83 415.37 333.24 413.78 332.89 413.2 332.46 412.04 332.46 410.81 333.02 410.7 333.45 409.82 334.64 409.18 334.87 408.81 334.51 407.62 334.28 405.28 335.07 404.67 335.76 405.07 336.53 404.23 337.54 403.58 337.52 402.18 338.14 401.19 339.01 400.34 340.29 400.48 341.55 400.06 342.18 400.18 343 399.16 345.51 399.15 346.28 399.69 346.85 399.88 347.54 398.53 348.67 398.52 349.33 397.74 350.22 397.58 350.74 397.91 352.3 397.17 353.32 396.92 354.55 397.5 355.35 396.85 356.04 395.76 356.49 395.32 356.97 393.36 355.8 391.53 355.86 389.92 356.6 389.44 357.71 389.79 358.51 389.39 358.7 388.65 360.56 387.72 360 387.24 360.71 386.53 361.16 384.49 360.13 384.13 360.73 383.82 362.15 383.23 362.45 382.08 361.67 380.91 361.76 380.22 362.24 379.05 362.46 378.93 363.47 380.07 364.03 379.92 364.66 378.92 364.92 378.9 365.87 379.67 366.15 378.65 366.89 378.83 367.54 378.42 367.89 377.64 367.68 377.39 367.2 376.35 367.25 374.81 366.73 374.08 367.26 373.64 368.25 373.57 369.25 373.78 369.82 373.82 371.04 372.92 371.84 373.09 372.63 372.82 373.86 370.89 373.18 369.97 373.53 369.24 374.54 369.46 376.99 369.85 378.64 370.13 380.69 370.64 381.1 371.13 382.56 370.32 383.08 370.08 382.12 368.49 380.45 366.79 380.71 366.6 380.42 365.22 379.87 363.17 378.02 363.04 377.2 362.44 376.19 362.44 375.21 361.76 374.88 361.26 375.32 360.72 374.65 360.29 373.5 360.19 372.22 360.52 370.87 361.1 370.17 361.95 369.89 363.2 370.39 364.5 369.85 365.59 368.41 365.64 367.44 365.27 367.17 365.08 365.74 365.52 365.57 365.99 364.61 367.11 364.76 367.94 363.1 369.02 362.04 368.92 361.14 369.68 361.04 370.35 360.26 370.12 359.75 369.3 359.88 368.7 359.59 369.11 358.69 370.07 358.56 369.47 357.87 369.36 357.14 370.17 356.93 370.97 357.12 371.02 357.71 371.73 357.79 371.98 358.69 372.57 358.55 372.82 357.95 373.8 357.73 374.44 358.01 375.01 358.63 376.16 358.99 376.46 358.36 375.46 356.82 374.48 356.17 374.71 354.67 375.41 353.98 376.19 354.14 376.81 353.63 377 352.88 376.58 351.94 377.11 350.29 377.73 349.62 378.54 349.53 379.01 348.28 379.89 347.29 379.77 346.88 379.82 344.2 379.3 342.64 378.69 342 376.94 340.67 376.13 340.46 374.66 341.05 374.14 341.55 373.84 342.39 372.94 343.78 371.48 343.83 370.98 344.61 370.37 344.68 369.46 346.04 369.46 348.43 368.28 348.44 367.92 349.77 367.27 349.15 366.51 349.64 365.41 349.02 362.85 348.23 362.06 348.14 361.06 348.37 360.66 347.87 359.61 347.39 359.55 346.48 358.81 345.69 358.61 345.07 357.91 344.61 357.04 344.66 354.66 345.59 354.44 346.14 354.7 347.21 354.54 348.31 353.95 349.07 354.14 349.52 355 350.31 355.24 351.09 355.33 352.57 354.7 354.29 354.2 354.92 352.33 355.02 351.92 355.83 352.76 357.69 351.79 357.45 350.35 358.26 350.11 358.95 350.52 359.64 350.36 360.29 349.22 360.97 348.52 362.27 347.85 362.96 348.28 363.95 348.02 365.4 346.11 365.99 345.62 366.68 344.62 366.49 342.73 366.48 341.93 366.73 341.29 367.73 340.25 368.45 339.71 367.58 338.9 367.38 338.1 367.59 337.69 368.74 337.24 369.06 336.96 370.02 336.47 370.17 335.69 371.7 335.32 370.94 335.44 369.96 335.23 368.96 334.14 368.48 333.82 366.93 334.19 364.3 334.61 363.69 334.93 359.85 334.44 359.19 334.21 357.89 334.2 356.78 334.54 355.58 334.41 354.38 334 353.94 333.91 352.01 333.69 351.57 332.73 350.96 332.83 350.43 332.3 349.37 332.75 348.91 334.11 348.33 334.55 346.8 335.86 345.79 336.48 344.48 337.73 343.48 338.21 342.73 338.34 341.34 338.3 339.8 336.73 338.73 335.39 338.53 334.76 339.12 334.75 339.77 335.22 340.17 334.04 340.68 333.08 342.52 332.33 343.63 331.64 343.91 330.8 344.86 331.78 346.02 333.04 346.69 331.01 347.89 329.76 348.08 328.91 348.48 328.3 349.49 327.62 350.15 327.06 351.52 326.87 353.08 326.84 354.67 326.57 355.6 326.99 356.74 326.34 357.18 326.12 359.13 326.28 359.92 326.98 360.59 328.74 361.39 327.61 362.19 326.7 362.28 326.32 363.23 325.25 364.83 323.89 365.75 324.18 366.39 324.94 366.32 325.56 365.95 325.88 366.4 323.56 366.94 322.23 367.72 322.18 369.26 320.92 369.36 319.02 369.97 317.17 371.13 316.84 371.55 315.53 372.07 314.66 372.9 314.4 374.23 313.49 374.62 313.34 375.03 312.28 375.77 312.27 376.48 311.88 377.39 311.4 377.82 309.04 381.97 308.31 382.73 307.77 384.52 306.44 385.68 305.23 387.86 304.95 389.55 304.22 390.57 303.53 392.51 302.9 393.39 302.5 395.05 302.09 395.37 301.38 396.74 300.74 397.54 300.58 398.6 300.17 399.33 298.98 400.36 298.55 401.7 297.73 402.52 297.61 404.03 298.31 405.01 298.15 405.66 297.26 407.04 295.75 407.78 294.94 408.53 294.54 410.29 293.83 410.92 293.3 411.97 292.97 412.05 291.41 413.37 291.12 414.06 291.21 415.37 290.94 416.18 289.97 416.48 289.48 417.15 289.62 418.51 288.19 419.44 287.16 420.76 286.54 422.29 286.55 423.92 285.9 424.3 284.02 426.18 283.3 427.11 283.16 427.8 281.66 429.45 280.33 431.25 279.94 431.58 278.56 433.56 278.52 434.17 276.39 436.02 275.63 437.73 275.13 437.82 273.2 439.07 272.12 440.79 271.63 440.85 270.86 441.49 270.56 442.23 270.78 442.6 269.35 443.7 269.23 444.21 269.68 445.33 268.52 445.8 268.24 446.46 268.39 447.14 267.96 447.51 268.11 448.83 269.05 450.45 269.93 451.39 269.8 451.66 Z M 692.1 936.14 686.92 936.37 682.26 936.62 676.1 936.87 669.62 937.21 667.56 937.26 665.02 937.48 659.28 937.77 644.72 938.38 636.48 938.78 632.09 938.91 613.45 939.77 605.19 940.04 595.53 940.42 590.32 940.56 583.2 940.81 579.07 940.88 570.76 941.12 557.31 941.43 547.96 941.79 548.02 932.66 529.35 932.64 525.56 932.57 521.07 932.55 510.66 932.47 488.03 932.17 476.68 932.08 476.43 932.11 469.34 931.98 456.95 931.85 447.3 931.7 434.74 931.43 429.55 931.27 409.1 930.72 402.35 930.6 385.35 930.25 382.19 930.22 373.37 930.04 367.13 929.85 357.58 929.63 346.06 929.26 332.73 928.8 337.9 925.47 344.46 920.73 345.68 919.55 348.01 917.86 349.72 915.7 351.72 913.95 354.89 910.68 356.42 908.64 357.54 907 359.3 903.64 360.36 901 360.86 899.4 362.26 895.48 362.64 894.62 365.05 890.15 366.09 888.21 366.22 887.98 366.27 887.89 366.8 886.88 366.83 886.83 367.14 886.2 368.43 883.61 369.69 880.71 369.85 879.13 370.94 878.12 372.21 876.74 372.47 876.43 375.18 872.99 375.53 872.53 377.13 870.59 377.19 870.51 378.41 868.9 378.54 868.73 379.23 867.82 379.9 866.88 380.14 866.54 380.35 866.24 381.1 865.19 382.71 862.76 384.44 859.84 387.52 853.68 389.7 848.59 391.01 845.19 391.49 843.11 392.47 840.05 392.44 839.01 393.34 837.4 395.02 833.34 395.54 831.71 396.78 826.54 396.83 825.39 397.57 819.45 398.32 815.43 398.88 813.93 399.33 811.69 399.15 808.81 399.11 805.57 399.39 804.55 400.36 802.51 400.82 800.83 400.85 800.02 401.25 798.82 401.71 795.4 401.77 790.03 401.7 787.82 401.53 786.66 401.51 786.58 401.39 786.44 401.32 786.36 401.38 786.04 401.44 785.88 401.47 785.34 401.52 784.48 401.55 784.08 401.57 783.77 401.62 778.07 401.8 774.6 401.75 772.68 401.48 770.66 401.48 770.59 401.51 769.86 401.51 769.84 401.52 769.46 401.5 768.99 401.39 768.32 401.37 767.76 401.42 767.46 401.31 764.58 401.26 763.83 401.14 762.22 401.13 762.15 400.55 755.68 399.97 751.76 398.87 746.9 398.17 745.4 398.28 744.42 397.9 742.08 396.21 737.06 396.1 736.74 395.35 734.53 393.7 730.22 393.07 728.8 392.66 727.87 392.51 727.51 392.39 727.24 392.21 726.84 390.78 723.55 390.65 723.29 390.55 723.09 390.25 722.48 389.75 721.89 389.46 721.22 389.46 721.21 389.06 719.83 388.83 719.19 388.37 718.26 388.02 717.54 387.91 717.32 386.8 714.65 384.01 708.59 382.79 704.83 381.49 701.27 380.97 700.16 380.82 698.75 380.21 697.04 378.93 691.98 377.83 686.67 377.42 684.45 376.77 682.15 376.07 680.04 375.33 678.14 372.07 671.2 371.17 668.79 370.33 665.35 370.14 663.11 370.2 661.49 370.49 659.47 371.52 656.78 373.55 653.88 376.58 650.19 378.76 647.18 379.55 645.78 380.54 643.68 381.4 641.17 381.84 639.41 382.16 637.4 382.28 635.75 382.23 633.88 382 631.75 381.54 630.15 380.94 626.87 380.79 622.83 380.24 619.67 379.62 618.48 379.6 616.67 379.42 615.26 378.36 612.77 377.46 610.91 375.64 607.91 374.96 606.35 374.41 604.18 374.45 602.73 375.1 601.35 375.98 600.28 377.62 598.98 381.58 596.1 383.38 594.18 385.1 591.56 386.5 588.98 387.29 587.36 387.68 586.16 388.25 585.07 390.04 582.71 391.14 580.5 391.78 578.78 392.65 575.93 393.76 574.89 394.38 574.06 395.61 571.08 397.3 567.7 399.02 565.03 399.93 563.85 400.65 562.5 401.02 560.63 401.47 559.18 401.78 557.04 402.54 554.62 403 551.79 403.02 549.82 402.72 547.41 402.79 545.45 403.12 542.96 403.67 542.13 404.22 540.32 404.69 537.97 404.79 537.13 405.9 533.62 406.3 530.91 406.22 529.41 405.87 527.14 405.27 525.06 404.76 523.7 404.09 522.47 403.2 519.45 402.69 517.23 402.99 513.95 403.19 513.22 403.88 512.22 405.52 511.26 407.76 510.5 410.82 509.58 412.39 508.8 413.49 507.74 415.51 508.3 416.89 508.39 418.42 507.98 419.5 507.19 420.13 506.47 421.36 504.18 421.8 502.53 421.75 501.02 421.4 499.04 422.13 497.58 422.7 495.44 422.75 493.3 422.37 488.95 422.3 486.19 422.48 484.61 422.94 483.23 423.75 482.49 425.28 481.99 426.11 482.49 426.54 483.06 427.5 483.74 428.72 484.23 430.42 484.19 431.69 483.34 432.46 482.13 433.07 480.05 433.65 479.19 434.56 478.47 435.67 476.56 436.06 475.11 436.78 474.52 438.36 474.62 440.19 475.55 440.79 476.17 441.93 478.25 442.93 478.88 444.5 479.03 446.34 478.76 448.15 478.08 449.27 477.46 450.38 475.77 451.46 474.51 452.3 472.77 452.55 470.29 452.19 468.99 453.94 467.18 454.93 464.58 455.6 463.23 456.25 462.52 459.16 461.14 460.57 459.89 461.19 458.64 462.36 457.34 462.94 455.52 462.96 454.12 463.77 452.86 464.61 451.23 465.01 449.83 466.61 447.48 467.44 446.51 467.73 445.76 468.98 444.01 470.02 445.25 471.42 445.27 472.14 445.01 473.18 444.08 474.31 443.31 474.85 442.09 475.72 440.74 476.76 440.74 477.07 442.17 477.6 442.6 478.12 443.83 477.62 445.54 477.06 446.17 475.51 446.92 475.25 447.6 474.54 448.1 474.91 449.98 474.49 450.31 474.13 449.11 473.68 448.63 472.02 448.77 470.68 449.42 470.45 450.66 469.6 451.64 469.17 452.49 469.65 454.49 470.01 455.28 471.02 456.54 470.69 457.65 471.72 459.45 472.49 461.24 473.21 461.12 473.88 462.33 473.68 464.75 473.06 464.53 472.56 462.8 471.81 462.71 471.41 463.21 471.44 463.91 470.74 464.25 470.65 465.46 470.38 466.4 470.42 467.57 469.49 468.68 467.98 470.06 467.6 470.04 466.8 470.87 466.72 471.55 466.18 472.16 466.1 472.78 465.29 474.2 465.37 474.63 466.08 475.15 467.29 475.35 469.41 472.75 469.71 471.96 470.35 472.11 470.4 473.33 469.98 474.78 470.11 476.03 469.85 476.54 470 477.66 469.72 479.42 470.04 481.4 468.11 481.48 467.68 481.7 466.96 483.67 467.05 483.94 465.49 487.15 465.11 488.51 465.22 489.43 464.71 492.05 464.77 494.54 465.71 497.52 466.54 499.01 466.5 500.14 466.19 500.76 465.72 502.53 465.9 503 466.99 503.74 468.52 504.09 469.91 503.97 470.49 503.57 470.42 502.71 470.85 501.68 471.39 499.49 471.72 498.9 472.06 496.63 473.15 495.56 474.21 492.96 474.69 491.08 475.21 490.2 476.32 489.44 476.85 488.8 477.12 486.45 477.71 485.78 477.39 485.11 476.72 484.76 475.54 484.75 474.69 486.5 474.18 486.69 473.72 485.82 474.06 485.08 475.08 484.01 475.64 483.1 476.25 482.59 476.4 481.85 476.9 481.32 477.37 479.93 477.4 478.32 477.88 477.78 478.31 476.42 478.14 475.51 478.36 474.48 480.39 473.5 481.35 472.17 482.95 472.02 483.38 473.59 483.39 474.26 483.85 475.81 483.72 476.71 482.4 476.2 481.93 476.28 481.62 476.95 481.9 477.58 481.72 478.84 481.41 479.66 481.17 481.12 481.38 482.45 481.02 483.68 481.39 484.81 480.92 486.4 480.87 487.3 480.19 488.98 480.42 489.4 480.08 490.42 480.17 491.29 479.43 491.78 479.26 492.44 478.2 492.76 477.88 493.26 476.82 493.68 476.06 494.35 474.41 496.59 473.95 498.07 474.16 498.6 473.79 500.3 473.98 500.97 473.41 502.49 472.86 503.04 472.62 504.05 472.2 504.82 472.72 505.52 474.43 506.48 476.05 506.78 477.18 506.7 478.4 504.95 479.29 504.13 479.58 503.11 479.36 501.58 479.07 501.06 479.28 499.92 480.11 498.65 480.93 498.29 482.96 496.95 483.84 495.75 483.81 495.03 484.9 492.83 485.06 491.66 485.91 490.83 486.73 489.65 487.71 487.75 487.94 485.88 489.02 485.11 489.77 483.66 489.99 482.43 490.83 480.76 491.03 479.53 491.52 478.35 491.36 477.58 492 475.86 492.31 474.13 492.07 472.55 492.97 470.5 492.97 469.92 492.42 468.35 492.47 466.27 492.69 465.28 492.6 464.45 492.97 463.04 494.03 461.26 493.68 460.14 494 459.22 494.41 455.1 493.52 453.01 493.11 450.76 492.71 450.25 492.93 449.39 492.98 446.8 492.83 445.23 492.47 444.15 492.07 443.7 492.26 442.88 492.23 441.72 492.01 441.03 492.4 437.02 493.17 434.5 493.53 433.84 493.88 432.44 494.43 431.64 495.02 431.56 495.65 430.81 496.89 430.22 497.4 429.69 497.72 428.71 498.37 427.95 499.18 427.92 499.84 427.49 500.76 425.72 501.27 425.27 501.96 426.36 503.78 426.2 504.87 425.64 505.67 424.77 506.15 423.5 506.22 422.78 507.44 422.91 508.9 421.84 510.89 419.67 511.98 419.92 513.01 419.84 513.98 419.5 515.03 418.85 516.42 418.74 517.5 418.08 518.45 418.34 519.09 418.78 520.36 419.08 521.78 419.11 525.74 419.41 527 419.87 527.53 419.79 528.87 418.97 530.03 418.53 531.27 418.65 531.94 418.97 532.6 418.88 534.42 417.91 535.29 417.9 537.66 416.34 538.37 416.33 538.92 415.77 539.79 415.47 540.09 414.6 540.1 413.1 539.79 411.98 539.2 411.37 537.1 410.97 535.82 410.54 534.19 410.56 533.49 410.21 532.31 410.43 532.22 411.33 531.39 410.59 530.1 409.93 527.7 409.43 525.16 407.08 523.33 404.29 522.07 402.74 521.64 400.14 521.27 398.97 520.6 397.47 520.32 395.73 519.97 394.49 519.77 392.51 519.82 391.3 519.58 390.27 519.88 388.76 520.38 387.88 522.24 385.87 522.46 385.04 523.66 383.46 524.14 381.74 525.49 380.29 526.19 380.25 528.36 379.09 530.11 378.61 531.54 377.25 532.03 376.05 532.38 374.58 532.89 374.16 533.59 374.39 534.85 373.31 535.52 372.03 536.25 371.5 536.59 370.71 537.23 370.48 537.65 368.66 537.5 367.72 536.63 366.46 535.64 365.34 534.76 365.35 534.06 364.25 533.34 364.33 531.8 363.85 530.73 363.73 530.93 362.94 532.01 363.42 537.42 363.43 537.91 363.25 539.28 363.7 540.68 364.67 541.16 365.2 542.55 364.74 543.09 363.97 543.84 363.81 545.82 364.79 547.97 365.46 548.98 364.45 549.45 364.37 550.89 365.46 552.07 365.04 552.83 364.45 553.53 363.31 553.79 362.46 553.61 361.74 553.02 361.72 552.54 360.19 554.42 359.16 556.53 360.11 557.33 359.99 558.44 359.34 559.37 359.97 559.1 361.29 559.54 362.45 560.06 362.48 561.76 363.29 563.5 363.96 563.61 364.87 565.46 365.7 566.69 365.83 568.37 367.29 569.07 367.56 571.04 368.84 574.01 370.45 575.82 370.67 576.41 372.39 577.65 373.27 577.83 373.66 579.24 374.19 579.9 375.02 581.19 375.77 582.56 377.22 583.27 377.4 583.63 378.12 584.6 378.07 585.6 378.82 587.28 378.41 588.29 379.81 589.1 379.62 589.95 378.67 589.06 377.41 588.31 377.19 588.71 376.41 590.22 376.36 591.51 377.19 593.93 378.32 594.66 377.98 596.19 377.82 598.07 377.07 598.57 377.04 602.77 378.73 604.42 379.85 607.46 380.81 608.58 380.88 609.92 381.24 611.9 383.29 612.8 384.42 613.52 385.62 614.48 386.67 614.93 387.42 615.65 387.69 615.78 388.28 617.68 390.04 618.65 391.6 618.83 392.42 618.84 394.37 619.22 396.81 619.55 397.89 620.27 399.22 621.87 400.78 623.7 401.71 625.51 401.97 626.43 401.8 627.88 401.13 628.77 400.92 630.64 401.12 631.17 401.49 632.71 401.53 634.38 401.04 635.15 401.3 636.13 401.19 637.97 401.42 639.32 402 640.64 402.34 641.87 403.77 643.43 404.87 645.59 407.68 646.25 408.38 647.76 409.66 648.55 409.74 649.19 410.66 650.23 411.04 650.58 411.56 652.77 412.24 652.89 412.8 654.42 413.47 655.3 413.37 655.68 412.7 656.44 413.01 657.24 413.93 657.67 413.89 658 412.83 658.33 412.91 659.95 412.38 660.67 412.84 661.13 414.02 661.67 414.72 663.25 415.75 663.58 415.74 664.61 416.55 665.45 416.75 667.08 418.2 667.84 418.56 668.67 419.32 670.22 419.4 671.27 419.95 671.91 421.15 673.58 420.82 673.79 421.28 674.6 421.78 675.24 421.26 676.33 421.48 677.23 420.91 677.2 420.27 678 420.22 678.86 420.77 679.94 421.83 680.39 421.86 682.41 422.84 682.78 422.5 682.78 421.36 682.17 420.32 682.93 420.44 683.45 421.54 684.13 422 684.08 422.46 683.07 422.49 682.86 423.29 683.31 424.16 683.94 424.75 684.32 424.63 684.35 423.79 685.19 423.8 685.44 425.32 685.96 425.85 686.72 425.63 687.43 427.32 688.54 427.79 689.42 428.85 689.78 429.77 691.24 430.23 691.79 430.73 691.93 431.39 693.24 431.69 693.86 432.61 693.36 433.7 693.25 434.64 692.87 435.07 691.74 434.7 690.32 434.49 690.29 435.23 691.09 435.66 690.74 436.2 690.8 437 691.23 437.51 691.63 438.92 692.56 439.73 692.8 440.6 693.71 442.05 694.11 442 694.81 443.35 695.27 444.7 695.4 446.44 696.23 447.78 697.36 447.98 697.82 449.08 698.26 449.53 698.79 450.69 699.37 450.2 700.68 450.72 700.02 451.42 700.06 451.93 700.77 452.98 700.28 453.71 700.7 454.9 701.2 454.94 701.04 456.57 702.17 457.38 700.54 459.5 700.49 460.16 701.32 460.75 701.36 461.57 700.9 462.46 700.92 463.44 701.62 463.92 704.07 464.43 704.67 464.35 705.36 465.27 705.5 465.97 706.13 467.5 705.28 467.52 703.76 467.08 702.13 466.1 700.99 465.97 700.51 465.48 699.69 465.46 698.37 464.93 697.54 463.88 696.65 463.72 695.65 462.13 696 461.66 695.68 460.15 695.11 460.02 693.49 460.12 693.16 461.18 692.45 460.97 691.18 461.69 690.49 461.72 688.56 463.24 687.57 464.69 686.89 466.39 687.07 467.07 686.66 467.57 686.74 468.64 687.39 468.57 688.89 469.38 689.02 470.29 687 469.49 686.17 470.23 686 471.65 686.4 472.23 687.34 472.59 687.86 473.81 687.93 476.28 688.13 477.87 688.64 479.49 689.25 480.61 690.04 481.48 692.14 482.59 692.71 483.61 692.72 484.41 693.62 484.99 695.03 485.15 695.24 485.66 696.07 486.57 698.2 487.49 699.58 487.47 701.21 488.25 700.86 488.79 701.16 490.07 700.66 491.06 700.69 491.85 701.34 493.36 702.41 494.54 702.82 495.24 702.94 497.15 703.56 498.17 703.64 499.9 703.3 501.19 703.39 502.47 703.92 504.26 703.2 505.77 703.64 508.34 704.02 509.41 704.7 510.47 705.8 511.57 705.6 514.66 704.77 517.77 704.51 519.64 704.15 520.84 703.81 521.19 702.5 523.59 701.82 526.6 701.74 528.54 702.06 533.55 702.71 536.05 701.62 540.02 701.55 540.87 701.81 542.98 701.74 544.06 700.87 549.99 700.87 552.15 701.15 554.17 701.58 555.32 701.06 556.99 700.92 557.97 700.3 560.24 700.17 562.3 700.48 564.79 700.37 565.35 699.68 566.14 697.91 565.88 697.25 565.95 696.31 566.65 694.48 568.88 693.47 570.38 692.21 571.43 691.71 572.39 691.07 574.58 690.31 575.76 688.71 577.55 688.49 577.39 689.29 576.04 689.62 575.18 689.02 574.48 687.25 573.72 685.56 573.56 683.43 574.08 682.58 574.5 682.09 575.25 680.96 576.25 680.87 576.68 679.66 578.17 678.53 581.15 678.16 583.51 677.95 586.47 677.67 587.34 676.72 591.33 676.75 593.4 676.64 595.48 677.13 598.49 676.65 598.6 675.51 600.35 674.69 601.34 674.4 602.26 674.51 603.64 675.62 606.49 673.43 605.76 672.47 605.55 671.38 605.57 668.72 606.02 667.97 606.34 666.23 607.66 665.4 608.44 665.41 609.18 664.41 610.23 664.87 611.93 665.4 614.44 665.36 615.38 663.66 614.71 663.45 614.14 662.7 613.6 661.58 613.84 660.42 613.18 659.21 612.93 658.27 613.32 658.2 614.96 657.46 615.13 656.91 615.71 655.45 615.64 654.06 615.19 653.28 615.63 652.94 615.12 652.95 614.4 651.56 614.2 651.02 614.96 650.41 615.01 649.3 614.24 648.14 615.24 647.61 616.83 646.8 618.61 646.39 619.09 645.36 619.18 644.94 620.69 644.34 621.4 643.91 623 643.84 624.62 642.89 624.66 643.04 625.27 642.23 625.43 641.94 626.53 641.56 628.03 641.32 629.84 641.03 630.39 641.22 632.61 640.45 633.9 640.73 635.44 640.63 635.78 640.8 637.55 640.65 638.39 640.77 639.83 640.14 642.19 640.31 644.01 640.03 645.51 639.52 646.1 639.06 646.02 638.5 647.48 637.42 647.4 637.18 647.86 637.45 649.36 638.01 650.87 638.98 654.31 641.73 659.67 642.52 660.74 643.96 661.83 647.63 664.04 648.24 664.64 648.86 663.14 649.65 663.1 649.88 663.66 651.14 664.36 651.74 664.45 651.92 665.63 653.41 665.94 653.87 665.82 656.53 666.58 657.43 667.14 660.18 668.12 660.81 668.77 662.8 670.36 663.88 672.18 665.37 672.76 666.05 672.11 667.16 671.91 667.61 671.28 669.29 669.84 670.58 668.18 671.56 667.13 674.06 663.81 674.56 663.4 675.81 661.23 676.62 660.19 677.1 659.91 678.05 658.12 678.84 658.3 678.85 657.6 679.33 657.04 679.12 656.42 680.21 654.99 680.75 655.13 681.82 653.72 683.01 654.97 682.47 655.57 682.28 656.51 684.65 656.49 685.33 655.75 686.74 653.38 687.48 652.65 688.28 651.07 688.12 650.64 689.98 648.09 690.65 646.3 690.43 646 691.27 644.05 692.07 644.1 692.05 643.03 692.78 642.27 693.16 641.19 694.19 640.65 694.92 639.03 695.29 637.16 695.74 635.67 695.41 634.89 695.96 634.22 697.3 634.36 697.98 634.17 699.04 633.45 700.62 631.44 700.83 630.9 701.61 630.36 702.08 629.74 701.94 627.95 701.6 627.01 700.14 626.7 698.1 626.52 696.71 626.13 695.23 626.24 694.69 626.45 693.94 625.92 694.21 625.13 695.6 625.56 697.73 625.66 701.83 625.26 703.64 624.56 704.99 623.52 706.72 621.53 706.6 620.93 707.71 619.4 708.42 617.55 708.34 616.66 709.86 616.56 711.73 615.89 712.61 615.84 714.92 615.39 716.28 615.65 717.25 615.42 717.81 614.86 718.4 614.96 719.74 614.72 721.41 613.93 723.7 612.25 725.38 612.64 727.11 612.71 728.46 612.37 729.21 611.95 730.72 610.11 731.39 608.26 731.78 607.7 732.3 606.21 732.62 606.35 734.95 606.04 736.09 605.77 737.1 604.84 738.25 603.42 739.32 602.97 739.43 603.62 740.51 603.79 742.27 602.9 743.14 602.93 744.12 603.71 745.28 603.99 746.44 605.29 747.88 606.1 749.72 606.45 752.3 607.18 752.94 607.62 754.28 607.78 754.56 608.35 756.43 609.04 756.96 610.39 757.97 611.16 759.24 611.08 760.29 612 761.13 613.5 761.81 613.61 762.31 614.24 763.73 617.13 764.1 618.55 764.45 619.18 765.12 619.63 765.6 620.88 766.15 621.44 766.24 622.63 766.88 623.2 767.14 624.2 768.11 625.32 767.78 625.94 767.87 626.72 768.32 627.55 768.66 629.1 771.04 630.88 771.14 631.69 771.95 633.05 771.71 633.45 772.21 635.15 772.98 635.52 773.65 637.61 774 639.22 774.71 640.92 774.49 642.31 775.48 643.38 775.61 644.47 775.18 644.96 775.27 646.28 775.09 646.73 775.38 648.11 775.88 648.71 776.06 649.58 775.94 651.03 776.54 653.06 776.32 653.56 776.23 654.89 776.59 656.02 776.54 656.82 776.81 657.67 776.73 660.14 776.99 661.87 777.3 662.86 777.18 663.98 777.53 664.82 777.84 666.71 777.46 667.22 777.45 668.21 777.82 670.27 778.2 671 778.55 672.56 778.76 674.2 779.26 675.46 779.25 676.87 780.22 679 780.76 680.69 780.76 681.57 781.36 682.6 781.54 684.34 782.51 686.4 782.81 688.08 783.51 689.17 783.49 690.43 784.02 691.15 784.46 692.6 784.32 693.83 784.58 696.02 784.51 697.48 785.12 699.5 785.14 701.05 784.95 701.76 784.83 703.83 784.92 704.49 785.57 705.96 785.79 709.07 785.51 710.56 786.01 712.89 786.12 715.39 786.29 715.68 786.18 717.1 786.53 718.26 786.74 721.98 787.2 723.77 788.31 726.02 788.35 726.88 789.18 731 790.02 733.53 790.47 737.16 790.84 737.92 791 739.38 792.03 740.88 792.62 741.47 793.51 744.04 794.15 745.17 795.99 748.84 797.5 751.37 797.98 753 797.74 754.76 798.24 756.05 799 757.08 798.69 758.55 797.49 760.65 795.61 762.73 794.76 764.32 793.96 767.99 793.4 769.94 793.67 773.97 793.62 775.05 793.28 777.16 792.69 778.83 792.34 781.19 792.53 782.04 793.68 784.8 794.1 786.83 794.05 787.82 792.5 791.89 792.5 794.07 791.44 796.56 789.84 801.7 790.02 805.68 789.17 808.99 788.51 810.19 786.15 812.2 785.53 813.25 782.93 816.06 782.5 817.67 781.85 818.13 780.36 818.52 779.87 818.44 779.02 817.65 778.25 817.32 777.26 817.39 776.29 817.76 774.34 819.6 773.73 820.81 772.59 822.41 772.31 821.26 772.51 820.52 773.4 820.15 774.07 818.96 775.43 817.93 775.76 817.06 775.23 816.3 774.32 815.77 772.81 816.81 772.05 817.69 771.57 816.19 772.25 815.58 772.23 814.95 772.84 814.28 774.25 813.93 774.59 812.6 774.3 811.88 773.39 812.29 772.57 811.71 771.52 812.89 770.08 813.38 769.02 812.71 768.8 811.71 770.06 810.44 771.5 810.45 772.62 809.03 772.04 808.69 771.81 808.07 771.15 807.5 772.67 807.53 773.72 807.87 773.78 806.74 774.66 804.55 774.96 804.08 776.09 804.96 776.46 805.56 777.3 805.24 777.76 804.48 778.08 803.25 777.97 801.91 777.21 800.8 776.74 800.49 775.41 800.57 774.86 801 774.16 800.11 772.61 798.94 771.42 798.54 769.8 798.64 768.96 799.51 767.15 799.66 766.19 800.7 766.22 801.09 765.01 801.13 764.36 801.57 763.67 802.43 763.66 803.46 761.52 804.12 760.29 803.73 759.78 803.9 758.92 804.67 758.11 805.81 757.65 807.22 757.43 807.9 757.43 809.47 758.33 810.1 760.41 810.9 760.37 811.58 761.05 812.67 760.86 813.77 761.66 815.74 761.37 816.74 760.88 816.07 760.07 815.71 757.51 815.81 756.13 816.24 755.01 817.18 754.58 818 754.53 818.84 753.56 819.98 752.02 822.63 751.25 825.85 751.19 828.89 751.09 829.33 751.88 829.97 752.06 831.65 752.83 832.4 752.65 832.95 752.24 834.28 752.31 835.17 751.82 836.1 751.11 839.05 750.85 840.53 750.3 841.76 749.29 842.83 748.1 843.41 747.24 844.92 747.15 845.67 746.31 846.42 743.87 846.82 742.95 846.77 742.69 847.17 744.09 847.92 743.49 848.91 740.39 850.04 737.77 850.25 736.49 850.62 732.57 852.4 730.82 853.86 728.79 856.75 727.94 859.16 727.58 860.49 726.11 863.67 725.65 868.75 725.4 872.77 725.84 874.56 726.44 878.03 727.11 879.77 726.91 880.89 726.28 882.67 725.83 884.79 724.71 884.72 723.67 884.99 723.07 885.47 722.72 884.88 721.51 885.28 721.9 886.8 721.51 886.97 720.96 885.97 720.51 885.84 719.6 886.69 719.5 888.33 720.11 890.32 720.03 891.41 718.74 892.19 717.65 891.53 717.36 891.79 718.4 892.75 719.44 893.95 720.27 893.92 720.71 894.97 720.3 896.44 719.67 896.1 718.7 895.11 717.86 895.62 718.32 896.46 717.93 896.87 717.78 898.31 718.16 898.87 717.14 899.4 716.55 898.3 715.19 898.57 714.97 899.08 715.99 899.44 713.51 901.54 712.83 903.56 712.66 904.51 713.23 905.62 712.25 906.44 711.98 907.68 711.49 906.4 709.94 905.75 708.16 905.85 706.76 906.83 706.21 907.39 705.49 908.7 705.43 909.86 704.99 910.16 704.78 911.14 704.56 913.64 703.86 915.12 703.44 915.47 702.23 915.86 700.84 915.51 699.51 916.56 698.76 918.1 698.02 919.15 696.83 922.19 696.78 922.55 695.78 923.49 694.22 923.9 693.66 924.68 693.19 927.93 693.48 929.71 694.92 933.53 695.06 934.8 694.29 934.18 693.88 934.28 693.66 932.39 691.24 932.52 690.51 931.88 690.27 932.34 689.45 932.66 689.51 933.52 690.53 934.35 690.61 935.01 692.36 935.03 692.1 936.14 Z M 711.32 463.4 712.37 464.2 713.33 465.64 712.82 465.8 712.08 464.97 711.99 464.44 711.32 463.4 Z M 709.65 464.17 710.24 463.58 710.74 463.74 710.73 464.88 709.86 465.04 709.65 464.17 Z M 702.57 461.54 703.35 461.2 703.29 462.3 702.57 461.54 Z M 698.55 443.68 699.19 442.8 699.77 443.04 700.21 443.96 699.71 444.31 698.55 443.68 Z M 689.87 607.96 691.19 608.71 691.32 609.27 690.53 609.52 689.86 609.42 689.87 607.96 Z M 653.61 321.73 654.09 321.3 654.66 319.96 655.51 319.62 655.89 319.82 656.33 321 657.49 321.39 657.37 322.4 656.42 323.27 656.29 324.08 655.02 323.58 654.41 321.99 653.61 321.73 Z M 648.25 314.6 649.74 313.61 650.26 314.06 651.63 313.78 651.73 314.56 652.64 315.11 653.18 315.98 652.74 316.16 651.51 315.48 651.3 316.01 650.69 315.9 650.79 314.92 649.76 314.83 649.65 315.59 648.25 314.6 Z M 646 319.57 646.05 318.91 646.92 319.45 646.61 320.07 646 319.57 Z M 644.17 318 644.59 317.56 645.74 318.75 644.56 318.95 644.17 318 Z M 642.89 332.62 643.38 332.22 643.15 331.44 643.35 330.68 643.84 330.05 644.39 328.12 645.08 328.01 646 326.54 646.59 325.32 647.51 325.6 648.33 326.25 648.58 326.78 647.68 327.63 648.27 328.32 648.71 329.44 648.62 330.22 649.38 330.06 650.5 331.37 651.51 330.68 651.68 329.67 652.17 329.24 652.96 329.27 653.64 327.85 652.99 327.2 654.02 326.97 654.52 326.43 654.41 325.51 655.47 325.38 656.14 325.76 657.2 325.61 657.76 325.14 658.21 324.05 659.8 323.27 660.06 323.56 662.08 323.91 662.46 323.21 661.6 322.42 662.3 321.74 663.04 321.6 663.75 321.15 663.73 320.34 663.17 319.96 663.41 319.36 663.17 318.59 662.33 318.36 660.93 318.27 658.98 317.43 657.72 316.65 658.59 315.66 658.93 314.63 660.42 314.59 660.88 314.21 664.74 314.69 665.91 314.2 667.33 314.14 668.26 314.38 669.28 315.26 671.54 316.29 672.12 315.92 672.66 316.13 673.19 317 673.54 318.22 673.56 318.93 674.11 319.3 674.28 320.06 675.12 320.26 676.1 322.04 676.5 323.56 676.77 325.83 676.67 326.22 677.5 326.9 677.69 327.93 678.92 327.59 680.23 329.5 680.79 329.55 682.01 328.86 682.78 329.33 683.46 330.41 683.54 331 682.71 332.79 681.76 333.35 680.94 334.51 681.1 335.99 680.53 336.45 680.47 337.19 679.72 337.64 679.77 339.2 678.85 340.12 678.17 340.54 677.27 339.83 676.04 340.59 674.81 339.97 672.9 340.28 672.81 340.89 670.74 339.64 670.17 338.96 670.6 337.63 669.44 337.47 669.38 338.39 667.84 338.88 667.84 337.84 668.96 336.82 668.72 336.01 667.99 335.05 667.44 335.07 667.85 336.67 666.93 337.37 666.79 336.46 665.28 336.72 664.46 337.27 663.6 337.37 662.31 338.18 661.41 337.31 660.97 337.32 660.52 338.37 659.88 338.12 659.16 338.4 658.71 336.92 658.16 336.94 656.99 337.96 656.02 337.34 655.47 336.35 655.4 335.5 654.22 335.61 653.46 336.37 653.29 337.58 652.53 338.61 651.87 338.45 651.81 337.93 651.05 337.96 650.9 337.42 649.54 336.19 648.83 335.85 648.61 336.73 648.78 337.26 648.22 337.84 647.39 337.69 648.1 336.33 647.53 335.75 646.76 335.79 646.68 334.76 645.77 334.84 645.22 334.32 644.13 334.48 642.82 333.49 642.89 332.62 Z M 630.03 316.16 630.85 315.62 631.65 315.68 632.44 317.2 633.14 318.25 633.53 318.44 633.54 319.35 631.61 318.36 629.94 316.77 630.03 316.16 Z M 573.42 334.49 573.95 333.54 574.88 333.79 575.48 334.45 575.43 335.39 574.88 336.01 573.6 335.11 573.42 334.49 Z M 572.61 355.89 572.73 355.38 573.69 354.89 574.26 354.95 576.58 356.15 577.8 356.6 579.12 356.58 580.69 356.14 581.33 356.26 582.17 356.9 584.14 357.92 587.01 358.95 588.19 359.63 589.15 359.14 589.53 358.45 589.42 356.92 590.34 357.71 590.9 359.45 591.59 360.18 592.39 360.03 594.2 361.11 595.49 361.48 595.93 361.91 594.48 364.01 594.62 365 594.23 365.64 593.7 365.6 592.43 366.37 591.99 367.38 592.18 367.98 590.97 368.81 590.36 368.62 589.59 369.11 588.73 368.6 588.2 367.96 586.41 368.2 585.01 367.51 584.12 367.32 583.43 367.69 581.5 366.66 580.87 365.54 580.71 364.27 579.78 363.5 579.07 363.18 578.97 362.56 577.68 360.89 577.65 360.45 576.87 359.71 576.61 359.13 575.39 358.21 573.44 357.35 572.79 356.65 572.61 355.89 Z M 570.53 352.78 571.6 352.88 572.71 354 572.4 354.6 570.91 354.06 570.53 352.78 Z M 567.57 333.08 567.75 332.31 568.15 331.95 568.76 332.15 570.83 333.86 569.77 335.16 568.56 335.58 567.71 335.15 568.11 334.17 567.57 333.08 Z M 566.54 348.75 567.13 347.06 567.01 345.79 567.51 345.53 568.77 345.99 569.43 346.66 571.44 350.29 570.99 350.79 570.12 350.6 569.68 351.22 568.63 350.52 567.71 350.2 566.59 349.18 566.54 348.75 Z M 543.78 348.28 544.88 348.41 545.6 349.02 545.31 349.9 543.81 348.86 543.78 348.28 Z M 524.35 362.29 525.33 362.2 525.8 362.88 524.48 362.79 524.35 362.29 Z M 492.46 360.35 493.09 359.98 493.71 359.08 494.71 358.24 495.37 357.28 494.97 356.48 495.15 355.97 494.2 355.11 495.12 354.55 495.69 354.58 496.18 355.13 496.9 356.72 496.93 357.75 495.93 358.62 496.16 360.19 495.52 360.29 494.6 361.43 494.2 361.52 492.75 360.73 492.46 360.35 Z M 479.05 356.84 480.24 356.49 480.29 356.1 479.49 355.4 479.16 354.24 479.63 354.13 479.47 352.95 480.41 353.02 482.81 354.21 484.89 356.07 484.73 356.51 485.22 357.3 486.17 357.36 486.57 358.28 485.47 358.57 485.52 359.54 485.22 359.82 483.5 359.71 482.8 360.64 482.41 360.74 481.41 360.06 481.69 359.32 482.66 358.55 481.96 357.89 481.75 357.21 481.05 357.54 479.08 357.17 479.05 356.84 Z M 471.74 490.08 471.96 489.2 472.63 488.88 473.02 489.98 472.04 490.39 471.74 490.08 Z M 472.7 351.45 473.45 351.01 473.44 352 472.7 351.45 Z M 470.35 355.25 470.91 354.75 471.67 355.12 470.98 355.74 470.35 355.25 Z M 469.05 385.01 469.38 384.81 469.46 383.29 469.71 381.75 470.89 380.76 471.34 379.56 471.3 378.22 470.98 377.34 470.95 376.15 471.3 375.66 471.47 373.59 471.83 372.65 472.36 372.33 472.87 371.32 473.68 370.86 474.69 369.46 474.67 367.14 475.14 367 475.7 366.05 475.66 364.97 475.24 363.91 475.17 362.75 476.26 362.64 477 362.96 477.57 363.81 479.41 363.97 481.27 363.32 481.81 363.44 482.15 364.61 481.03 365.14 481.02 364.27 480.42 364.13 479.87 364.79 479.83 365.85 480.54 365.96 481.07 366.81 482 367.44 481.67 368.22 482.22 369.04 482.42 371.41 481.53 372.46 481.18 373.86 481.39 375.38 481.71 376.27 482.7 378.01 482.71 378.97 482.97 380.12 482.86 381.17 482.97 382.42 482.47 384.36 480.98 385.05 480.69 385.91 479.81 386.4 478.92 386.58 478.18 387.7 478.18 388.47 477.47 388.91 475.41 389.28 473.9 388.92 473.01 388.16 471.9 388.2 471.37 387.77 470.68 388.01 469.61 387.68 469 385.94 469.05 385.01 Z M 461.89 365.4 462.18 365.36 463.1 364.18 463.83 364.15 465.59 364.73 466.61 365.22 466.48 366.28 466.84 367.76 466.42 368.69 464.68 370.49 464.57 371.19 463.82 371.47 462.12 371.22 462.54 369.58 463.21 368.09 462.62 367.24 462.48 366.01 461.89 365.4 Z M 452.42 400.93 453.12 400.4 453.84 400.62 454.31 401.15 454.66 402.68 454.31 404.57 453.58 403.85 453.04 402.47 452.06 401.75 452.42 400.93 Z M 447.5 371.37 448.04 369.2 448.42 369.34 448.59 370.31 448.43 371.17 447.5 371.37 Z M 442.78 406.87 445.29 407.69 446.03 408.06 448 410.44 448.51 412.52 448.35 414.32 448.08 415.59 447.25 415.82 446.9 414.6 444.66 410.84 443.69 409.65 442.78 406.87 Z M 423.86 449.95 424.41 448.15 425.33 447.3 425.94 447.15 429.8 447.77 431.45 448.47 431.92 449.51 432.69 450.3 432.65 452.02 432.86 452.55 432.38 453.43 432.04 455.34 431.81 457.59 431.92 458.49 432.48 459.61 433.81 460.97 432.47 461.08 430.16 462.25 429.36 461.8 428.47 460.09 426.89 458.33 426.06 457 424.95 456.28 424.33 455.49 424.18 454.41 424.43 453.48 424.17 452.3 424.08 450.82 423.86 449.95 Z M 414.29 467.57 414.41 467.04 415.16 465.72 415.78 463.92 416.15 463.53 418.2 462.8 419.69 463.61 420.98 463.86 421.47 464.14 422.2 465.17 421.2 465.19 420.25 465.46 419.74 466.49 420.14 467.84 420.68 468.31 420.28 468.84 418.27 469.83 417.35 469.74 416.33 470.09 414.38 469.23 414.29 467.57 Z M 365.6 386.01 366.2 384.81 367.07 385.3 367.76 386.84 368.25 387.09 368.95 386.91 369.38 388.25 369.37 388.84 368.8 389.77 368.79 390.25 368.06 390.9 367.41 391.13 366.63 390.92 366.47 389.67 366.01 389.18 365.99 388.44 365.6 386.01 Z M 364.44 392.96 365.36 392.51 365.44 394 364.73 394.09 364.44 392.96 Z M 361.61 382.04 361.99 380.92 362.58 380.44 364.08 380.97 364.84 381.76 364.02 382.91 362.72 383.49 361.61 382.4 361.61 382.04 Z M 364.74 248.31 365.88 247 367.79 246.17 368.03 246.71 368.95 246.8 370.27 246.26 370.96 247.26 371.01 247.7 371.69 248.33 372.25 249.57 372.82 250.01 372.52 250.95 372.45 252.47 371.9 254.25 371.36 254.71 370.62 256.7 371.66 258.01 372.41 258.14 373.3 256.71 374.3 255.96 374.49 258.49 374.2 259.48 372.83 261.18 371.62 261.58 371.08 261.43 370.42 260.25 371.08 260.01 371.62 259.02 369.26 259.12 368.77 260.59 368.02 261.88 367.52 261.78 366.48 261.04 366.42 259.97 366.7 257.95 366.74 256.71 367 255.74 366.94 254.87 365.8 254.28 365.32 253.17 365.15 250.64 364.68 248.79 364.74 248.31 Z M 360.77 252.42 361.22 252.4 361.82 253.08 361.83 254.1 361.12 253.89 360.77 252.42 Z M 353 396.52 353.23 395.47 354 395.29 354.9 396.04 355.6 396.33 355.45 398 355.42 399.86 354.69 399.89 353.79 398.63 353.32 398.41 352.9 396.99 353 396.52 Z M 345.73 255.92 346.65 256.17 346.21 256.73 345.73 255.92 Z M 295.21 237.77 295.62 237.46 296.2 237.84 295.54 238.56 295.21 237.77 Z M 277.3 120.94 278.37 120.89 279.96 119.8 280.59 120.29 281.26 120.24 282.48 120.54 282.65 121.3 282.1 122.53 280.44 122.46 279.63 121.53 278.34 121.31 277.3 120.94 Z M 213.84 2.67 214.36 2.01 215.21 1.42 216.34 1 216.76 1.26 214.65 2.47 213.84 2.67 Z M 125.45 48.72 126.23 47.87 127.15 47.65 128.14 47.76 129.24 47.46 130.15 46.35 130.03 45.8 129.32 45.63 128.86 46.14 127.47 46.64 127.11 46.15 129.16 45.29 129.56 44.6 129.83 43.11 131.57 42.24 131.75 41.56 133.08 40.78 134.01 39.92 142.31 35.71 150.89 32.09 151.5 32 152.25 31.38 153.23 30.97 156.5 29.9 157.44 29.27 158.55 28.91 159.12 29.13 160.53 28.74 161.93 28.1 162.11 27.29 167.81 24.42 166.43 26.2 167.77 25.87 169.06 25.23 169.7 24.54 170.22 24.82 170.75 24.45 172.47 23.83 173.44 23.18 174.07 21.65 174.86 20.8 176.81 19.82 180.4 18.24 183.58 16.23 183.77 15.28 184.57 14.11 187.89 12.44 189.71 11.65 192.01 10.95 193.17 10.74 196.25 9.12 198.3 10.59 200.58 10.3 201.5 9.3 202.48 8.72 204.63 8.27 205.81 8.46 208.22 7.43 208.56 8.96 208.33 10.32 205.71 12.41 203.53 13.96 201.89 14.97 199.21 16.86 193.75 20.58 192.75 21.77 192.54 22.76 192.87 23.67 192.79 24.94 191.65 26.1 188.17 28.5 186.59 29.38 186.31 29.78 183.29 31.78 180.93 32.89 178.53 33.85 176.46 34.36 175.17 34.85 174.75 35.34 173.93 35.13 173.27 35.63 171.39 35.78 169.69 36.69 167.22 37.65 165.46 37.4 164.14 37.83 163.52 38.3 161.82 39.13 160.94 38.86 158.42 40.16 158.38 41.09 156.19 41.87 154.34 43.04 152.32 43.86 150.64 44.67 150.7 45.72 150.36 46.07 150.7 47.24 152.99 46.71 153.79 47.04 154.89 46.93 155.53 47.52 156.52 47.17 160.48 46.1 159.65 46.88 159.25 47.62 156.1 48.7 155.34 49.13 152.89 49.8 150.86 50.7 149.18 51.15 148.35 51.68 147.09 51.97 146.24 51.96 143.48 52.98 142.07 53.66 139.99 54.46 138.38 55.38 136.92 55.51 136.23 55.4 134.71 55.88 134 55.65 133.07 54.72 131.85 54.3 131.96 53.22 131.43 52.17 130.5 51.64 129.79 51.69 128 51.46 128.03 50.94 128.6 50.56 129.36 49.49 129.28 49.17 130.65 48.08 131.55 47.16 131.24 46.72 130.6 46.76 129.08 47.93 126.05 48.95 125.45 48.72 Z M 650.1 661.23 650.4 660.26 651.1 659.93 651.72 660.52 651.54 661.27 650.1 661.23 Z M 689.4 639.52 689.63 638.58 691.07 639.06 689.4 639.52 Z M 689.32 633.47 689.77 633.09 690.63 633.02 691.16 633.77 690.52 633.94 690.39 634.68 690.52 636.21 689.19 633.95 689.32 633.47 Z" fill-rule="evenodd" fill="none" stroke="currentColor" stroke-width="54.694"/>
</g>
</svg>