<?xml version="1.0"?>
<svg xmlns="http://www.w3.org/2000/svg" version="1.2" baseProfile="tiny" viewBox="-40.0 -40.0 880.0 689.0" stroke-linecap="round" stroke-linejoin="round">
<g id="state">
<path d="M 621.5 607.47 616.35 607.43 605.12 607.47 602.99 607.44 598 607.46 579.45 607.45 578.78 607.48 565.47 607.44 560.74 607.46 550.17 607.44 537.72 607.46 528.74 607.44 517.93 607.46 500.93 607.48 497.69 607.46 493 607.5 483.9 607.5 465.36 607.52 455.46 607.53 443.28 607.55 430.75 607.56 406.8 607.58 386.53 607.57 365.63 607.56 348.28 607.55 333.61 607.54 323.7 607.51 308.84 607.51 295.82 607.5 276.91 607.47 257.67 607.42 249.74 607.44 240.45 607.44 223.14 607.42 215.67 607.48 214.33 607.42 209.86 607.44 206.4 607.4 205.77 607.46 186.92 607.51 184.78 607.46 177.83 607.53 171.29 607.54 153.92 607.54 130.8 607.52 116.17 607.51 105.03 607.5 91.85 607.5 81.85 607.48 81.84 598.49 81.83 589.49 81.85 578.99 81.89 574.5 81.88 571.5 81.82 565.64 81.87 555.89 81.86 546.32 81.9 540.04 81.92 526.88 81.97 516.23 81.99 508.5 81.97 501.2 82 499.95 82.03 483.51 82.06 481.95 81.99 474.51 82.03 472.87 81.99 464.23 81.98 452.74 81.97 444.99 81.91 440 81.97 437.34 81.91 434.12 81.95 432.68 81.86 421.92 80.96 420.56 80.33 420.07 80.2 419.42 79.06 417.79 78.16 416.11 76.82 415.24 75.94 414.93 74.78 414.2 73.84 413.9 72.29 413.64 70.62 413.12 68.9 412.48 66.6 411.36 64.69 410.77 63.02 410.66 62.14 410.77 61.52 410.62 60.3 410.76 58.43 410.6 57.18 409.9 55.98 408.73 53.91 406.38 53.18 405.81 52.62 404.8 52.4 404.02 51.93 403.37 51.73 402.54 49.88 399.32 48.06 397.67 46.74 396.15 45.94 395.68 41.74 391.83 40.25 390.52 40.7 389.51 40.94 388.5 41.55 386.99 42.12 386.17 45.67 384.23 46.58 383.86 50.3 381.92 51.22 380.89 55.26 378.95 57.73 378.09 59.23 377.43 60.27 376.78 61.34 375.94 62.4 374.59 62.68 373.33 64.11 371.7 65.29 371.13 65.77 370.73 67.06 369.24 68.38 368.49 68.81 367.79 69.04 366.55 69.35 365.92 69.5 364.11 69.33 363.57 69.58 363.14 69.66 361.6 69.93 361.38 69.96 360.04 70.28 359.05 69.82 358.77 70.44 358.05 70.33 357.05 70.47 356.52 70.71 355.44 70.35 354.96 70.3 354.24 69.78 353.59 69.56 352.21 69.56 350.91 69.42 349.47 69.21 349.02 69.38 348.22 69 347.05 69.38 346.02 70.22 344.5 70.64 344.24 71.17 343.17 71.13 341.82 71.42 341.16 71.14 340.83 71.18 339.85 70.94 339.03 70.13 338.01 69.81 336.57 69.93 336.09 68.76 334.27 69.17 333.39 69.09 332.16 67.92 331.38 67.68 330.88 68.02 330.46 67.86 329.54 68.4 329.15 67.86 328.76 68.06 328.2 67.45 327.75 67.55 327.32 67.02 326.5 66.86 324.83 68.16 324.38 67.23 323.77 67.47 323.35 66.68 322.87 67.05 322.2 67.14 321.27 66.68 320.91 67.15 320.47 66.97 319.75 66.26 319.43 67.01 319.12 66.35 318.67 66.68 318.42 67 317.08 66.6 316.89 66.76 315.78 66.11 315.71 65.8 315.24 64.69 314.8 65.03 314.22 63.23 313.49 62.02 313.65 61.66 312.42 60.88 311.75 59.77 311.07 59.56 310.14 59.7 309.65 58.49 307.94 57.72 308.04 57.45 307.63 57.84 307.11 57.24 306.9 57.04 306.33 55.92 306.68 56.37 305.8 55.63 305.42 56.09 304.82 54.62 304.86 54.58 303.87 55.15 302.9 55.01 301.91 53.61 301.15 53.66 300.76 52.66 300.2 52.63 299.22 52.99 299.03 52.28 298.15 52.7 297.78 52.44 297.4 52.87 297.02 52.25 296.08 51.8 295.76 52.08 295.28 52.12 294.49 51.25 294.09 51.72 293.36 51.56 291.87 51.9 291.38 51.7 290.98 50.89 290.46 51.13 289.57 49.96 289.1 49.56 288.12 48.94 287.92 49.25 287.3 48.39 286.57 48.26 285.98 47.04 285.36 46.52 284.78 47.06 284.01 46.71 283.21 47.07 282.94 46.22 282.42 46.42 281.89 46.23 280.88 46.71 280.62 46.16 280.24 47.38 279.93 47.3 279.58 47.76 279.16 47.16 278.88 47.66 278.27 47.01 277.3 47.77 277.02 47.4 276.25 48.06 275.42 47.7 274.32 48.07 273.73 47.52 273.3 47.69 272.39 47.42 272.01 47.58 270.86 48.29 271.04 48.56 270.7 47.54 270.56 47.74 269.61 46.68 269.87 46.44 269.7 47.43 268.91 47.18 268.46 46.42 268.25 46.68 267.89 45.98 267.58 46.56 267.26 46.09 265.35 46.92 264.93 46.97 264.52 47.81 264.68 47.64 264 47.87 263.64 48.7 263.22 47.98 262.68 48.52 261.97 47.7 262.02 47.92 261.19 47.76 260.88 48.12 260.31 48.13 259.11 49.25 259.37 49.48 258.78 48.78 258.54 48.63 257.21 49.05 256.46 49.71 256.52 49.81 255.82 50.56 255.29 49.92 254.85 50.06 253.51 48.07 254.23 47.04 253.92 46.98 252.44 46.24 252.51 46.12 250.97 46.58 250.26 45.94 250.03 44.74 250.26 43.77 249.86 44.04 249.16 43.57 247.46 43.82 246.84 42.71 246.34 42.52 246.02 42.88 244.88 43.28 244.41 44.57 244.16 43.92 243.61 44.77 242.87 43.78 242.76 44.27 242.1 44.28 241.5 43.52 241.04 43.82 240.49 43.41 238.88 44.38 238.68 44.05 238.29 44.44 237.82 44.33 236.68 43.94 236.37 44.49 235.98 44.44 235.58 43.12 234.3 43.62 233.61 42.92 233.37 43.39 232.86 43.16 232.35 42.54 231.93 43.15 231.67 42.38 230.89 43.73 230.73 43.53 229.55 43.59 228.38 43.83 227.68 42.75 227.87 42.67 227.45 43.35 227.31 43.18 226.9 42.31 226.55 42.86 225.63 42.93 224.94 42.33 224.59 42.72 224.09 42.13 223.79 42.83 223.45 42 223.15 41.83 222.73 43.1 222.57 42.1 221.59 42.78 221.23 42.25 220.68 42.5 219.38 42.15 219.02 41.48 219.06 41.34 218.64 41.97 218.38 41.59 216.57 42.93 215.31 42.42 214.7 41.36 214.09 42.29 213.95 42.48 212.66 42.95 211.93 41.88 211.58 41.34 211.03 41.46 210.32 40.9 209.96 41.12 209.4 40.66 208.11 42.19 207.32 41.8 207.02 42.24 206.61 41.48 206.34 41.18 205.98 42.05 205.57 40.73 204.99 39.75 204.05 39.71 203.22 40.5 202.95 39.52 202.55 40.43 202.08 39.72 201.66 40.34 201.41 39.96 200.79 40.22 200.45 39.69 199.82 40.51 199.15 39.92 198.56 39.82 198.04 40.74 197.37 39.87 197.22 40.68 196.56 39.54 196.28 41.06 195.45 40.58 195 40.64 194.52 41.64 194.45 41.23 193.51 40.55 193.74 39.81 193.63 38.99 192.25 39.67 192.24 40.59 191.5 39.83 191.38 39.74 190.96 40.91 189.89 40.02 189.43 41.01 188.35 39.74 188.77 39.22 188.62 40.71 187.91 39.9 187.56 40.64 186.95 40.96 185.87 40.74 184.95 40.24 184.6 40.34 183.92 39.97 183.68 38.48 183.39 37.97 182.98 38.29 182.5 38.28 181.95 37.03 180.83 37.6 180.6 37.61 179.76 37.09 178.95 37.3 178.34 36.44 177.39 35.89 176.09 35.88 175.69 34.79 175.7 35.05 175.27 34.61 174.5 34.46 173.75 33.77 173.57 33.85 173.05 33.1 173.07 32.66 172.77 33.62 172.42 33.85 172.06 32.41 170.72 32.86 170.03 32.48 168.97 31.86 168.1 32.22 167.76 30.76 166.85 30.24 166.93 29.87 166.38 29.06 165.96 29.75 165.06 28.98 164.41 27.85 164.44 28.12 163.93 26.85 163.58 27.76 163.18 27.5 162.08 27.02 161.71 27.36 161.15 26.28 159.98 25.75 159.2 25.57 158.1 24.93 157.72 24.93 157.07 23.32 156.83 23.64 156.2 22.87 155.47 23.51 155.07 22.93 154.53 23.38 153.75 23.89 153.33 23.74 152.68 23.05 152.4 23.63 151.91 21.95 150.98 21.83 150.26 21.49 149.82 20.52 149.67 19.76 148.94 20.05 147.99 19.17 147.45 19.59 146.72 19.38 146.24 20.02 144.79 19.7 144.36 19.01 144.06 18.43 142.05 18.05 141.56 18.41 140.84 18.14 138.97 17.7 138.26 16.44 137.61 15.31 136.32 14.79 136.28 15.24 135.23 14.96 134.51 14.2 134.16 14.95 133.73 14.29 133.36 14.2 132.9 12.79 132.7 12.96 131.64 12.42 130.88 12.15 129.97 12.88 129.36 11.39 128.92 10.69 129.16 10.39 128.84 11.15 128.07 12.66 127.56 12.97 127.05 12.36 126.92 11.21 127.26 10.62 126.94 10.29 125.92 11.47 125.47 11.4 125.05 10.36 124.93 10.06 124.54 11.51 123.37 10.93 122.77 11.92 122.34 11.13 121.35 11.95 121.31 12.66 122.26 13.35 122.07 12.83 121.38 11.16 120.81 11.5 120.29 12.78 120.7 12.95 120.3 12.06 120.02 11.13 119.97 10.58 119.62 11.49 119.27 11.21 118.8 10.37 118.49 11.74 117.94 12.36 117.98 12.62 117.6 12.09 117.18 12.81 116.66 11.57 116.29 10.66 116.3 10.74 115.82 12.38 115.88 12.54 115.27 13.48 114.87 12.9 113.79 11.26 113.71 12.27 112.89 13.21 113.36 13.84 113 12.69 112.55 12.57 111.56 11.77 111.83 11.28 111.53 11.96 110.76 13.4 110.55 13.09 109.98 12.17 109.87 12.52 108.81 12.43 108.43 11.1 108.21 11.45 107.39 10.7 107.18 10.19 106.51 9.47 106.2 9.54 105.56 11.14 105.51 10.93 104.76 11.52 104.48 11.45 104.12 10.34 104.38 9.29 103.93 9.37 103.45 8.66 103.29 9.14 102.84 10.22 102.8 11.94 101.78 11.86 101.39 10.6 100.69 11.23 100.23 12.36 100.73 12.64 100.17 10.79 99.61 10.53 99.11 11.22 99.01 11.93 99.25 12.64 99 12.68 98.21 11.63 98 10.95 98.49 10.05 98.43 10.11 97.99 11.54 97.42 12.16 96.89 12.03 95.93 10.85 95.93 10.34 95.49 10.43 94.83 10.99 94.76 11.84 95.12 12.2 94.66 11 94.48 9.15 94.72 9.08 94.1 10.49 93.91 11.86 92.94 10.51 92.37 10.05 91.95 10.11 90.88 11.41 90.9 12.43 90.08 11.68 89.82 10.15 90.21 9.62 89.92 9.75 89.03 10.66 88.9 10.92 88.5 10.48 88.23 9.04 87.89 8.65 87.61 8.35 86.89 10.88 86.87 10.88 86.32 8.55 86.27 7.47 85.9 7.77 85.46 9.57 85.28 10.24 84.68 9.58 83.64 10.32 83.81 10.81 83.32 10.85 82.64 9.76 82.47 9.81 82.09 10.67 82.02 11.57 81.22 11.3 80.93 10.11 80.94 10.23 80.42 10.86 80.31 11.83 80.49 12.22 80.26 11.55 79.71 12 79.5 12.74 79.98 13.11 79.61 12.17 79 11.97 78.65 12.69 78.35 13.67 78.72 14.26 78.37 14 77.66 13.58 77.36 14.42 76.85 14.5 76.47 15.19 75.82 14.99 73.52 15.97 73.38 16.02 72.98 14.62 72.61 14.08 72.31 13.21 71.48 13.22 71.07 14.13 70.71 13.23 70.37 12.52 69.41 11.43 68.89 12.21 68.4 12 67.99 11.3 68.01 10.88 67.62 11.4 67.18 11.24 66.36 9.88 66.25 9.53 65.72 10.26 65.22 10.45 64.77 9.85 64.13 9.11 63.86 10 63.44 9.97 63.03 9.11 62.96 9.32 62.27 7.84 62.06 7.99 61.57 6.96 61.15 9.25 60.42 9.14 60.11 7.57 59.99 6.74 59.66 7.15 58.64 6.6 58.18 6.55 57.7 7.5 57.44 7.31 56.57 7.65 55.91 7.06 55.39 7.06 54.85 6.07 54.28 7.15 53.54 6.85 53.27 5.83 53.31 4.89 52.72 5.73 51.77 5.57 51.1 4.17 50.68 3.57 50 3.79 49.38 2.87 48.75 3.36 47.85 2.21 47.28 2.13 46.2 1.36 45.99 1.92 44.34 1.04 44.18 1 42.15 2.14 41.26 1.52 41.13 1.89 40.57 19.07 40.58 32.61 40.59 32.61 40.62 46.08 40.62 59.59 40.62 73.3 40.62 86.78 40.62 107.04 40.62 123.92 40.62 141.24 40.64 163.44 40.69 181.72 40.72 193.64 40.75 198.63 40.74 215.85 40.73 215.84 22.65 215.84 10.92 215.84 1 216.2 1.38 217.71 2.02 218.61 2.54 221.01 3.15 222.38 3.4 225.62 4.21 226.55 4.23 230.16 3.88 232.78 2.59 234.29 2.72 236.03 2.46 236.58 2.62 240.99 4.52 244.17 6.27 246.66 7.21 248.45 7.21 250.55 7.53 249.75 8.77 249.62 10.27 252.53 18.52 252.45 20.22 254.92 27.75 255.02 28.17 257.38 30.38 259.45 36.92 261.39 43.22 264.18 52.58 264.18 53.77 263.33 54.13 263.57 54.7 263.28 55.73 264.04 57.1 262.87 57.55 262.36 57.95 262.12 58.74 263.07 60.29 262.98 61.27 263.15 63.07 263.9 63.81 265.37 64.4 266.65 65.31 267.51 65.78 268.19 66.48 268.19 67 268.61 67.29 270.9 67.7 271.77 68.26 272.75 68.63 273.69 69.57 274.14 69.73 276.11 69.94 277.42 69.87 278.47 70.27 279.2 71.27 282.26 71.5 283.22 71.75 286.07 71.88 288.09 72.32 289.48 72.07 291.84 70.41 292.86 70.46 294.63 70.31 295.69 70.47 296.7 70.87 299.39 71.19 300.86 71.08 302.92 70.49 304.7 70.73 305.56 70.97 306.41 71.55 307.45 71.65 307.8 71.89 308.8 73.23 308.87 73.8 308.45 75.25 308.85 75.98 309.51 76.34 310.64 76.46 311.61 76.75 312.61 76.76 314.14 76.6 317.43 76.89 318.48 77.13 320.42 77.14 321.72 77.28 323.37 77.29 324.41 77.12 325.31 77.35 326.81 77.29 327.93 77.1 328.5 77.41 330.26 77.37 331.68 77.64 334 77.4 334.65 77.44 337.01 77.88 338.87 78.02 339.56 78.33 341.51 78.48 343.27 78.46 343.63 78.22 345.55 78.51 350.76 78.73 351.88 79.21 352.31 80.03 353.12 80.9 353.42 82.33 354.51 83.88 354.79 84.91 354.63 85.79 354.08 86.93 354.18 87.79 353.52 88.46 353.45 89.06 354.08 89.6 355.17 90.04 355.9 90.5 356.91 90.56 359.13 90.49 360.18 90.6 361.32 90.37 364.69 90.3 366.19 90.63 368.26 90.47 370.11 90.53 371.27 90.37 372.01 89.83 372.61 89.05 373.22 88.96 374.06 89.68 374.85 89.92 375.56 89.75 376.52 89.19 378.18 89.42 379.86 89.18 381.39 89.2 382.95 88.81 384.66 88.57 386.24 87.91 388.16 87.71 389.6 87.45 390.29 86.94 390.72 85.78 390.68 85.23 390.2 84.52 389.76 83.16 389.93 82.69 392.59 82.53 393.93 81.71 395.68 80.98 397.07 81.51 398.23 81.32 399.53 81.32 400.46 80.42 401.19 80.67 401.97 79.1 411.52 77.44 416.4 77.47 418.82 78.94 419.4 79.45 428.67 79 439.34 79.4 442.44 78.6 442.93 78.71 442.96 80.99 445.04 81.14 447.07 82.23 448.64 82.37 465.82 88.1 473.06 87.39 475.42 87.77 476.42 90.81 475.73 91.46 476.21 91.81 475.24 92.21 473.44 91.98 472.69 92.51 470.27 92.4 468.83 92.68 468.58 93.74 467.76 94.93 467.4 95.97 469.94 97.96 472.47 98.34 473.22 98.7 481.44 98.28 485.5 97.54 488.57 97.53 490.42 99.34 491.18 99.55 491.86 100.54 493.82 101.01 493.82 102.35 491.72 105.37 492.42 107.43 494.1 109.73 496.34 112.25 496.95 112.31 497.96 113.24 499.45 115.72 501.18 117.95 501.37 119.12 501.8 119.39 501.91 120.02 502.84 120.98 503.55 120.71 504.43 119.97 506.63 119.58 508.43 118.9 511.93 118.51 513.08 118.11 512.65 117.23 510.93 116.32 510.51 115.71 510.39 115.02 509.8 113.96 510.51 112.1 509.31 111.09 509.48 110.42 510.41 110.31 511.09 108.36 513.82 107.11 517.99 107.73 518.5 108.14 519.56 108.06 519.85 107.43 520.99 107.75 522.46 107.43 522.58 106.88 524.16 106.24 525.91 106 526.05 107 531.5 107.15 532.25 107.23 532.81 106.79 533.96 106.64 535.17 106.67 535.83 107.76 536.03 109.19 536.98 109.36 537.69 110.12 540.84 110.59 539.53 113.03 539.62 114.11 540.12 114.79 540.19 116.33 541.94 116.87 542.85 118.15 543.46 118.42 543.91 118.15 543.93 117.55 545.03 117.56 545.56 117.75 546.06 118.49 545.16 118.56 545.16 119.66 546.83 119.95 547.32 119.55 549.03 119.29 549.5 119.09 550.78 119.26 551.84 119.19 552.75 120.26 554.48 121.11 554.85 122.36 557.41 122.08 558.18 122.12 559.85 121.87 559.99 122.18 561.67 122.79 562.32 122.82 562.61 123.43 563.43 123.03 565.12 123.02 565.97 122.48 566.73 123.2 567.5 123.15 567.78 122.65 570.25 123.17 570.7 123.71 570.51 124.37 569.58 125.11 569.25 126.1 570.82 125.89 571.24 126.09 571.26 127.23 570.91 127.95 571.42 128.71 571.97 129.09 571.79 130.1 571.36 130.82 570.98 130.97 570.55 131.87 571.42 131.99 572.52 131.7 572.62 131.38 573.55 131.1 573.06 132.18 574.17 132.64 575.13 132.52 576.6 131.93 576.57 132.4 577.95 133.7 580.52 133.19 583.23 133.16 584.58 132.71 586.29 132.53 586.93 133.06 585.21 134.07 584.62 136.86 584.88 137.79 584.6 138.66 585.47 139.19 588.02 138.2 593.57 136.68 595.96 136.81 597.52 136.6 598.78 138.32 599.65 138.68 601.28 138.18 603.62 137.81 604.89 136.93 605.71 136.54 606.3 136.79 607.81 136.3 608.88 136.14 609.66 136.55 610.46 136.21 614.02 136.07 615.49 135.6 616.48 135.58 618.2 135.02 619.72 133.8 621.84 133.08 624.32 130.82 624.9 131.06 625.78 130.72 627.85 129.21 629.78 128.31 629.65 127.63 631.56 127.16 632.1 126.58 634.43 125.85 635.41 125.06 636.14 125.22 637.18 125.01 638.05 124.38 639.44 124.19 640.68 124.27 643.53 122.79 646.31 121.07 651.66 120 652.7 119.92 653.54 119.23 655.73 118.36 656.15 118.9 656.81 119.18 657.64 119.14 659.67 118.5 660.5 119 660.66 119.5 660.46 120.23 660.72 120.53 660.96 122.89 661.02 124.3 660.8 125.44 661.2 125.81 662.14 125.34 661.9 124.77 662.38 124.66 662.75 125.2 664.12 125.36 664.48 126.87 664.92 127.28 667 127 666.68 128.08 666.82 128.37 664.88 129.31 665.04 129.73 665.79 130.01 665.88 130.53 666.94 130.9 667.34 131.58 667.95 131.89 667.89 132.32 668.51 133.56 669.54 134.32 670.59 133.94 674.56 133.79 676.28 133.34 680.89 133.02 682.38 132.17 683.51 132.13 684.54 131.75 686.07 131.59 687.02 130.95 687.67 131.26 688.73 131.07 689.36 131.15 689.72 131.63 688.28 132.67 688.52 133.26 689.63 133.8 693.73 133.46 694.41 133.66 694.91 133.42 696.85 133.48 697.78 132.84 698.84 132.48 700.41 132.87 701.82 133.52 704.72 132.86 705.46 132.86 707.18 133.57 707.61 134.09 710.54 133.9 711.35 134.01 712.17 133.78 712.28 133.43 712.99 133.15 715.5 132.86 717.19 133.49 718.72 133.06 720.85 133.15 722.91 132.66 723.85 132.55 725.22 132.74 726.91 132.53 727.56 132.57 728.82 132.11 730.08 132.38 731.48 132.33 732.19 132.09 733.35 132.18 734.38 132.81 735.06 132.96 737.57 132.91 739.4 133.27 741.07 133.76 742.71 134.49 743.97 134.67 744.58 134.96 745.07 136.27 745.46 136.77 746.12 136.64 747.22 137.74 747.64 138.62 747.31 140.05 747.65 140.8 748.34 141.08 749.63 141.33 750.28 142.2 750.78 142.18 751.85 142.58 752.34 142.06 752.77 142.2 753.77 142.08 753.96 142.62 754.66 143.04 754.48 143.5 755.06 143.69 756.16 144.39 756.83 144.49 757.59 144.97 760.27 145.15 760.6 144.73 762.86 144.44 763.33 143.39 764.12 143.74 765.28 142.74 765.59 142.14 766.86 141.92 767.12 142.27 768.02 142.16 768.47 141.82 769.78 141.78 770.96 141.36 772.85 141.29 773.55 141.65 774.43 141.44 774.72 141.76 775.46 141.73 775.61 142.29 776.21 142.63 777.1 142.64 777.79 143.05 779.13 142.58 780.78 142.55 781.36 142.94 782.36 142.67 782.78 143.25 785.66 142.5 786.4 142.56 787.16 141.86 787.44 143.02 788.78 143.25 790.2 144.11 791.27 143.9 793.06 143.75 793.89 143.58 795.74 143.75 797.25 143.43 797.37 143.17 798.81 143.07 799 143.41 797.24 143.63 795.36 144.06 794.48 144.09 791.71 144.43 791.02 144.76 790.85 145.28 789.38 145.62 787.31 145.69 786.81 145.24 787.61 144.85 787.53 144.57 786.5 144.05 785.71 144.24 785.14 144.72 784.29 145 783.13 145.83 783.3 146.54 784.14 147.83 784.17 148.48 782.96 147.83 782.31 147.09 780.4 147.26 779.49 147.64 778.91 148.49 779.8 148.87 779.81 149.36 777.6 149.92 776.6 150.48 776.55 150.73 774.88 151.39 774.02 152.23 771.89 153.23 771.76 153.58 770.31 153.79 768.23 154.82 767.25 155 766.53 155.37 765.17 155.7 764.65 156.04 764.16 155.84 763.19 156.11 762.07 156.68 760.2 156.65 759.02 157.33 758.1 157.51 757.76 157.3 756.18 157.66 755.36 157.71 754.43 158.05 754.11 158.45 754.33 159.08 753.42 159.21 753.53 159.58 751.78 160.17 750.98 160.09 749.97 160.29 750.04 160.92 749.64 161.1 745.85 161.88 744.49 162.46 742.66 162.5 741 163.06 739.59 163.16 738.59 163.94 737.44 164.05 736.41 164.45 734.89 164.85 733.4 164.75 731.67 164.87 730.03 165.11 728.59 165.71 727.61 166.67 726.25 166.87 724.99 166.67 723.11 166.78 720.56 167.28 719.1 167.83 718.29 167.95 715.56 168.74 714.89 168.68 712.97 169.37 712.68 169.67 711.77 169.61 711.49 169.97 707.2 170.38 706 170.76 703.58 170.99 701.9 171.36 701.53 172.06 698.5 172.59 695.67 173.38 691.65 174.3 690.19 175.62 686.72 176.6 685.4 177.18 682.08 178.33 681.27 178.75 679.26 179.5 677.82 180.14 676.26 180.43 673.29 181.63 671.91 182.04 668.4 183.82 666.92 184.28 665.68 185.27 660.94 187.67 659.63 188.47 658.1 189.02 655.16 190.77 651.99 192.82 651.14 193.43 650.22 193.73 649.47 194.29 648.96 194.4 645.78 196.4 645.79 196.64 644.82 196.97 643 198.04 642.68 198.38 641.55 198.84 640.54 199.53 639.23 199.71 638.92 200.19 637.25 201.34 636.63 202.07 634.9 203.23 634.08 204.02 632.99 204.32 630.59 205.69 630.53 206.03 629.28 206.76 629.24 207.05 628.4 207.66 627.98 207.56 627.2 208.24 626.33 209.35 625.77 209.82 625.47 210.43 624.79 211.04 624.98 211.34 623.8 211.94 622.65 212.74 622.26 213.77 621.3 213.98 620.31 215.11 619.34 215.33 618.52 216.42 618.25 217.48 617.14 217.98 616.54 217.91 615.72 218.39 615.22 219.3 614.3 219.27 613.36 220.37 612.44 220.62 612 221.11 610.38 222.11 610 222.86 607.57 224.41 607.18 225.29 606.39 225.57 606.14 226.14 605.05 226.36 604.1 227.42 602.83 227.58 602.49 227.99 601.82 227.98 601.63 228.57 600.56 229.19 599.96 229.72 598.95 230.31 598.26 231.18 597.6 231.68 597.12 231.74 596.94 232.33 595.88 233.13 594.35 233.93 592.56 234.13 591.71 234.47 590.46 235.62 590.25 236.01 588.35 236.28 587.76 236.52 587.25 237.13 586.47 237.03 584.79 237.5 583.73 238.66 583.69 239.17 583.16 239.45 582.61 240.33 581.75 240.19 580.28 240.98 579.84 241.49 579.33 241.62 577.67 243.13 578.35 243.57 578.24 243.96 577.4 244.09 576.79 243.69 575.97 243.96 575.86 245.19 574.28 244.95 573.93 245.64 573.11 246.15 572.05 246.01 571.31 246.23 569.78 247.37 567.96 248.53 565.96 250.08 564.87 251.14 563.8 251.66 563.47 252.61 562.19 252.89 560.25 253.92 559.67 254.62 558.79 254.27 557.22 254.47 556.23 255.03 555.78 255.62 554.65 256.18 553.65 256.28 551.6 257.35 549.91 258.67 545.8 260.47 544.43 261.38 543.54 261.66 542.4 262.26 541.02 263.37 538.66 264.14 537.9 264.83 536.9 265.28 536.17 265.41 535.23 266.18 534.73 266.32 534.48 266.86 532.79 267.63 532.07 267.82 531.15 268.58 531.43 269.6 532.94 271.61 534.22 273 535.74 274.5 538.06 276.57 538.86 276.61 539.29 277.02 538.77 277.27 537.36 276.77 531.64 272.61 528.85 272.67 526.65 273.61 526.09 274.12 526.28 275.08 525.79 276.04 524.87 276.05 523.62 275.63 522.9 275.91 521.37 275.88 520.94 276.53 519.66 277.43 519.71 277.86 520.4 278.09 522 278.14 522.7 278.67 522.74 279.08 522.17 279.73 521.02 280.09 519.68 281.32 520.01 282.32 518.97 282.85 517.31 282.54 515.87 282.92 514.63 281.97 514.1 282.11 513.45 282.73 512.97 282.77 512.58 282.08 511.36 281.78 511.24 281.09 510.75 281.22 510.81 284.48 510.77 297.89 510.7 304.36 510.66 311.19 510.66 316.42 510.72 317.47 510.66 319.44 510.6 323.93 510.66 325.48 510.59 333.65 510.6 337.22 510.56 342.17 507.95 342.7 506.87 343.12 506.3 343.72 505.95 344.88 505.49 345.34 505.57 346.28 505.38 347.01 504.86 347.41 504.75 348.15 503.97 348.46 502.45 348.38 502.11 348.2 500.39 347.83 498.41 347.01 497.43 347.1 495.96 347.65 495.28 348.17 495.07 348.9 494.31 349.8 494.13 350.57 492.98 351.38 493.33 351.88 492.99 352.29 492.13 352.63 490.98 352.35 490.14 352.34 489.07 351.9 487.06 351.47 486.18 351.7 485.44 352.13 484.19 353.14 484.05 354.76 481.02 355.38 480.1 355.84 478.94 355.9 477.4 356.61 476.68 356.52 476.16 356.78 474.9 356.69 474.99 357.62 473.29 357.61 471.17 358.9 471.21 359.38 468.64 360.55 468.06 360.62 467.42 361 465.32 363.27 464.75 364.13 464.99 364.36 464.59 365.68 464.02 366.18 463.45 366.27 462.35 366.97 461.94 367.65 462.74 369.3 462.75 369.78 462.34 370.33 461.28 370.95 460.83 371.49 460.51 372.25 459.99 374.15 457.85 375.87 455.84 376.92 455.42 377.29 454.7 377.38 453.96 377.76 453.37 377.8 453.06 378.35 451.95 378.47 451.27 378.95 451.31 379.53 451.01 380.7 451.19 381.04 450.62 381.9 450.27 384.31 449.9 384.94 449.55 386.38 449.23 386.69 449.44 387.28 449.32 388.15 449.47 389.03 449.9 390.02 449.5 391.6 449.82 392.12 449.65 393.25 449.77 393.6 450.96 394.37 453.89 394.56 456 395.1 457.16 395.08 458.25 394.9 459.42 394.48 461.15 394.34 462.06 394.82 462.85 395.45 464.01 395.91 466.02 397.14 466.16 397.4 465.82 398.73 465.96 399.89 467.39 400.88 468.62 402.24 469.64 403.91 470.4 404.4 470.75 405.05 473.24 405.85 473.59 406.06 474.22 407.39 473.84 409.71 474.18 410.21 473.84 411.81 472.41 412.37 471.85 412.81 471.09 413.73 470.96 414.41 469.07 415.44 468.43 415.97 468.29 416.46 468.76 417.62 468.82 418.24 468.22 419.26 467.69 419.79 465.85 421.04 464.89 421.95 462.32 423.21 462.41 423.99 463.16 424.99 463.36 425.51 463.19 426.18 462.65 426.69 462.5 427.19 462.78 428.35 462.79 429.15 463.38 430.38 463.15 430.98 462.12 431.8 461.79 432.9 461.83 433.8 463.23 434.9 463.26 435.69 463.58 436.12 463.46 436.61 463.62 437.7 463.33 438.23 463.62 438.68 464.01 440.23 464.64 440.91 464.08 441.75 463.11 442.28 461.08 443.73 459.19 444.78 458.1 446.17 458.22 447.05 458.71 447.69 459.65 448.43 460.59 448.86 462.04 449.94 462.33 450.64 461.37 452.77 461.59 454.21 461.46 454.63 461.55 455.79 461.78 456.2 462.46 456.52 463.07 457.46 463.49 459.38 462.78 462.07 462.57 462.41 461.18 463.08 461.09 464.25 462.1 465.71 462.17 466.02 461.55 467.14 461.66 468.32 461.94 469.3 461.88 469.9 461.25 470.62 461.2 471.31 460.54 472.04 460.28 472.6 460.15 473.64 459.68 474.64 458.35 475.86 457.83 476.79 457.54 478.52 458.2 479.13 459.19 479.78 461.3 480.53 462.97 481.44 464.68 481.98 465.41 482.36 470.13 485.65 471.17 486.67 472.35 487.61 473.27 488.16 475.72 489.07 476.77 490.12 476.93 491.19 476.61 491.9 476.7 492.49 477.59 492.95 478.85 492.9 480 493.53 480.17 493.97 480.92 494.06 481.37 493.63 482.22 493.8 482.94 494.53 484.13 495.99 484.03 496.93 484.17 497.34 484.99 497.56 486.44 496.9 487.4 496.7 488.61 497.27 489.97 497.64 491.39 497.41 493.56 497.98 495.23 498.88 495.87 499 496.91 498.39 498.02 498.22 500.51 498.51 502.9 498.35 505.04 498.56 506.95 499.21 508.12 500.04 508.54 500.65 508.83 501.49 509.69 502.75 509.64 504.08 510.1 505.01 510.87 505.95 511.76 506.75 513.3 507.76 515.62 508.9 516.76 509.98 518.08 510.6 520.73 511.28 524.12 511.96 526.48 512.22 527.96 512.47 529.23 513.26 531.87 513.85 532.76 514.26 534.51 514.33 535.34 514.62 536.97 515.94 538.61 516.6 540.39 517.01 540.85 517.34 542.19 517.95 543.93 518.28 544.99 518.9 546.91 520.84 548.26 521.41 548.71 521.83 549.5 523.2 549.69 524.22 548.61 525.51 549.08 526.46 550.92 527.16 551.62 527.85 551.58 528.89 552.49 529.96 552.42 530.59 551.9 531.75 552.22 532.67 553.21 533.67 553.61 534.39 553.73 535.32 554.84 535.73 556.87 536.93 558.47 537.61 559.7 539.06 561.82 540.08 564.11 540.78 565.94 541.89 566.45 542.1 568.63 542.29 569.82 542.71 570.69 543.57 571.01 545.27 572.27 545.83 573.69 545.95 575.37 547.22 575.96 548.34 577.31 549.46 578.27 549.51 579.5 550.36 580.51 550.67 581.58 551.32 582.34 552.39 583.89 553.17 586.16 553.36 587.55 553.7 589.54 553.76 591.67 554.03 592.92 554.7 594.44 555.16 596.16 555.06 598.53 555.83 599.64 556.63 600.22 557.78 601.16 558.5 602.09 559.71 604.17 560.71 606.15 562.44 606.5 563.56 607.17 564.59 608.1 565.06 608.65 566.02 609.24 566.62 610.42 567.12 611.44 568.17 611.85 569.61 613.14 570.77 614.03 571.22 614.65 571.75 615.35 572.82 615.52 574.04 615.99 575.37 616.33 575.7 616.89 577.39 618.77 579.22 617.61 582.29 617.62 583.67 617.27 584.5 616.27 585.9 616.34 587.36 615.84 589.45 615.77 590.18 615.93 591.56 616.74 592.31 616.81 593.28 616.27 594.4 616.24 595.64 617.32 596.86 617.87 597.18 619.54 598.49 620.09 599.46 619.94 600.84 618.81 602.46 618.87 603.37 619.54 604.13 619.93 605.06 620.73 605.52 621.53 606.24 621.5 607.47 Z M 789.06 147.13 789.93 146.53 790.27 145.98 792.44 145.82 792.98 146.55 789.64 147.94 789.06 147.13 Z" fill-rule="evenodd" fill="none" stroke="currentColor" stroke-width="1"/>
</g>
</svg>