<?xml version="1.0"?>
<svg width="200" height="200" xmlns="http://www.w3.org/2000/svg" version="1.2" baseProfile="tiny" viewBox="-129.540 -73.040 1059.080 1059.080" stroke-linecap="round" stroke-linejoin="round">
<g id="state">
<path vector-effect="non-scaling-stroke" d="M 647.03 905.25 641.4 905.41 629.14 905.93 626.81 905.95 621.37 906.18 601.11 906.86 600.37 906.93 585.84 907.34 580.67 907.53 569.12 907.85 555.53 908.27 545.72 908.52 533.9 908.86 515.33 909.33 511.79 909.39 506.66 909.56 496.72 909.79 476.46 910.23 465.65 910.45 452.34 910.7 438.65 910.94 412.48 911.32 390.32 911.53 367.49 911.71 348.53 911.81 332.49 911.85 321.66 911.84 305.42 911.85 291.19 911.82 270.53 911.72 249.51 911.54 240.84 911.5 230.68 911.43 211.77 911.22 203.61 911.22 202.15 911.12 197.26 911.09 193.48 910.98 192.78 911.07 172.19 910.86 169.85 910.74 162.26 910.73 155.11 910.62 136.13 910.28 110.87 909.74 94.89 909.36 82.72 909.05 68.32 908.67 57.39 908.36 57.75 894.86 58.11 881.36 58.57 865.61 58.81 858.86 58.92 854.36 59.1 845.56 59.56 830.94 59.95 816.58 60.26 807.16 60.83 787.42 61.33 771.45 61.67 759.86 61.96 748.91 62.03 747.04 62.76 722.38 62.85 720.04 63.09 708.88 63.21 706.42 63.52 693.45 63.98 676.23 64.3 664.61 64.45 657.12 64.62 653.13 64.69 648.3 64.79 646.15 65.15 630 64.25 627.94 63.6 627.19 63.49 626.21 62.36 623.73 61.47 621.18 60.1 619.84 59.18 619.35 57.99 618.21 57 617.74 55.38 617.3 53.64 616.47 51.85 615.45 49.47 613.7 47.47 612.76 45.72 612.54 44.78 612.68 44.14 612.44 42.84 612.6 40.87 612.31 39.59 611.21 38.37 609.42 36.3 605.83 35.55 604.95 35.01 603.42 34.82 602.23 34.35 601.25 34.17 600 32.37 595.1 30.54 592.57 29.22 590.25 28.4 589.52 24.16 583.61 22.66 581.58 23.19 580.09 23.48 578.58 24.2 576.34 24.85 575.13 28.67 572.35 29.64 571.81 33.65 569.04 34.67 567.52 39 564.75 41.63 563.53 43.24 562.59 44.36 561.64 45.52 560.42 46.69 558.44 47.04 556.56 48.62 554.16 49.89 553.34 50.41 552.75 51.83 550.56 53.24 549.48 53.72 548.44 54.02 546.58 54.37 545.64 54.6 542.95 54.46 542.12 54.74 541.5 54.88 539.18 55.18 538.86 55.27 536.85 55.64 535.37 55.17 534.94 55.85 533.89 55.79 532.38 55.95 531.58 56.25 529.98 55.9 529.24 55.87 528.16 55.36 527.18 55.19 525.09 55.25 523.16 55.17 520.99 54.97 520.3 55.18 519.1 54.84 517.35 55.28 515.81 56.22 513.55 56.67 513.18 57.28 511.59 57.29 509.56 57.62 508.59 57.34 508.08 57.43 506.61 57.22 505.38 56.41 503.83 56.15 501.66 56.29 500.94 55.14 498.17 55.61 496.87 55.59 495.02 54.4 493.82 54.17 493.05 54.55 492.44 54.42 491.05 55.01 490.48 54.46 489.88 54.68 489.05 54.08 488.36 54.19 487.72 53.68 486.46 53.59 483.97 54.96 483.32 54.02 482.38 54.29 481.76 53.49 481.02 53.9 480.02 54.04 478.63 53.57 478.08 54.09 477.43 53.93 476.34 53.2 475.85 54 475.39 53.34 474.71 53.68 474.34 54.07 472.34 53.67 472.05 53.89 470.38 53.22 470.27 52.91 469.55 51.78 468.85 52.16 467.99 50.33 466.84 49.06 467.05 48.74 465.18 47.97 464.16 46.85 463.11 46.67 461.7 46.84 460.97 45.66 458.37 44.85 458.49 44.6 457.87 45.02 457.1 44.41 456.77 44.23 455.92 43.05 456.4 43.56 455.1 42.8 454.5 43.32 453.61 41.79 453.62 41.79 452.13 42.43 450.7 42.32 449.21 40.92 448.02 40.99 447.45 39.98 446.57 39.99 445.11 40.38 444.83 39.67 443.49 40.13 442.95 39.88 442.37 40.34 441.81 39.75 440.38 39.29 439.88 39.61 439.18 39.69 437.99 38.81 437.36 39.33 436.28 39.23 434.05 39.6 433.32 39.42 432.72 38.6 431.92 38.9 430.59 37.71 429.84 37.34 428.35 36.71 428.04 37.06 427.12 36.2 426 36.1 425.11 34.87 424.14 34.35 423.25 34.95 422.11 34.63 420.9 35.02 420.51 34.16 419.7 34.39 418.91 34.25 417.39 34.75 417.02 34.2 416.43 35.48 416.01 35.41 415.47 35.91 414.86 35.3 414.43 35.85 413.52 35.23 412.05 36.02 411.66 35.68 410.48 36.39 409.26 36.08 407.6 36.49 406.73 35.94 406.07 36.16 404.71 35.9 404.13 36.12 402.41 36.85 402.7 37.14 402.2 36.1 401.96 36.34 400.54 35.24 400.9 35.01 400.64 36.06 399.48 35.83 398.79 35.05 398.46 35.34 397.92 34.63 397.44 35.25 396.98 34.85 394.1 35.73 393.49 35.8 392.89 36.65 393.15 36.52 392.13 36.77 391.59 37.64 391 36.93 390.15 37.52 389.11 36.67 389.15 36.94 387.92 36.79 387.46 37.18 386.6 37.26 384.8 38.39 385.23 38.65 384.35 37.94 383.98 37.86 381.97 38.33 380.86 39 380.97 39.14 379.93 39.93 379.16 39.3 378.48 39.5 376.47 37.42 377.49 36.38 376.98 36.39 374.77 35.62 374.85 35.57 372.53 36.09 371.48 35.44 371.13 34.19 371.42 33.22 370.79 33.53 369.74 33.13 367.18 33.41 366.27 32.3 365.47 32.12 364.99 32.55 363.29 32.99 362.59 34.32 362.28 33.68 361.42 34.58 360.35 33.58 360.14 34.11 359.17 34.15 358.27 33.4 357.55 33.72 356.75 33.39 354.31 34.39 354.04 34.07 353.45 34.49 352.75 34.44 351.04 34.05 350.56 34.64 350 34.6 349.4 33.31 347.44 33.86 346.42 33.16 346.04 33.66 345.28 33.45 344.51 32.83 343.86 33.48 343.5 32.72 342.3 34.11 342.1 33.97 340.33 34.08 338.58 34.36 337.53 33.25 337.77 33.18 337.15 33.89 336.96 33.73 336.34 32.86 335.79 33.47 334.43 33.58 333.39 32.98 332.84 33.4 332.11 32.82 331.64 33.55 331.16 32.71 330.68 32.56 330.03 33.87 329.84 32.89 328.33 33.6 327.82 33.09 326.98 33.4 325.04 33.07 324.48 32.38 324.52 32.26 323.88 32.92 323.52 32.61 320.79 34.05 318.94 33.56 318.01 32.5 317.07 33.46 316.88 33.72 314.95 34.23 313.87 33.16 313.31 32.63 312.48 32.8 311.41 32.24 310.85 32.49 310.02 32.08 308.07 33.69 306.93 33.3 306.47 33.77 305.86 33.01 305.44 32.72 304.88 33.63 304.31 32.32 303.39 31.36 301.95 31.36 300.7 32.17 300.33 31.2 299.69 32.15 299.02 31.45 298.37 32.09 298.01 31.74 297.07 32.01 296.56 31.51 295.6 32.37 294.62 31.8 293.72 31.73 292.93 32.7 291.96 31.82 291.71 32.67 290.74 31.53 290.29 33.12 289.09 32.65 288.4 32.74 287.68 33.76 287.61 33.38 286.18 32.68 286.52 31.93 286.31 31.17 284.22 31.86 284.24 32.83 283.15 32.07 282.95 32 282.32 33.24 280.75 32.35 280.03 33.41 278.44 32.11 279.04 31.58 278.78 33.13 277.77 32.33 277.22 33.11 276.33 33.49 274.73 33.31 273.33 32.82 272.79 32.96 271.77 32.59 271.4 31.09 270.91 30.59 270.29 30.94 269.58 30.96 268.74 29.75 267.03 30.34 266.71 30.39 265.44 29.9 264.21 30.15 263.3 29.32 261.85 28.83 259.88 28.84 259.27 27.74 259.25 28.02 258.62 27.61 257.46 27.5 256.31 26.81 256.03 26.92 255.25 26.15 255.25 25.73 254.79 26.71 254.29 26.97 253.76 25.58 251.71 26.07 250.68 25.74 249.08 25.16 247.75 25.53 247.26 24.11 245.84 23.57 245.95 23.23 245.1 22.44 244.44 23.18 243.12 22.44 242.12 21.29 242.12 21.59 241.37 20.33 240.8 21.26 240.23 21.05 238.56 20.59 238 20.97 237.17 19.93 235.38 19.44 234.2 19.32 232.53 18.69 231.94 18.72 230.96 17.11 230.55 17.46 229.61 16.73 228.49 17.39 227.91 16.84 227.08 17.33 225.92 17.87 225.32 17.75 224.33 17.07 223.89 17.68 223.18 16.04 221.72 15.95 220.64 15.64 219.97 14.67 219.7 13.94 218.58 14.28 217.18 13.42 216.32 13.89 215.25 13.7 214.51 14.42 212.37 14.12 211.7 13.44 211.24 12.96 208.2 12.61 207.46 13.01 206.38 12.84 203.57 12.43 202.48 11.2 201.46 10.13 199.5 9.61 199.41 10.12 197.85 9.88 196.75 9.14 196.2 9.91 195.58 9.27 195.01 9.2 194.31 7.8 193.96 8.02 192.38 7.52 191.22 7.3 189.85 8.07 188.95 6.6 188.25 5.88 188.58 5.59 188.09 6.4 186.96 7.95 186.24 8.29 185.49 7.68 185.27 6.51 185.74 5.94 185.25 5.65 183.7 6.87 183.08 6.82 182.44 5.78 182.21 5.5 181.62 7.02 179.92 6.47 179 7.49 178.4 6.75 176.87 7.58 176.84 8.23 178.29 8.93 178.04 8.45 176.98 6.81 176.07 7.17 175.29 8.44 175.96 8.63 175.37 7.75 174.91 6.83 174.8 6.3 174.26 7.22 173.77 6.97 173.05 6.14 172.56 7.55 171.77 8.16 171.86 8.45 171.3 7.94 170.65 8.69 169.9 7.47 169.3 6.56 169.28 6.66 168.56 8.3 168.71 8.5 167.8 9.45 167.23 8.94 165.6 7.3 165.42 8.35 164.22 9.27 164.97 9.92 164.44 8.8 163.72 8.73 162.24 7.91 162.61 7.43 162.15 8.16 161.01 9.61 160.74 9.34 159.88 8.42 159.69 8.83 158.11 8.76 157.53 7.44 157.15 7.84 155.94 7.09 155.59 6.62 154.57 5.91 154.07 6.02 153.12 7.62 153.11 7.46 151.98 8.06 151.57 8.01 151.03 6.89 151.38 5.86 150.67 5.97 149.95 5.27 149.68 5.77 149.02 6.86 149 8.63 147.54 8.57 146.95 7.35 145.85 8 145.19 9.1 145.98 9.42 145.15 7.6 144.24 7.37 143.47 8.06 143.35 8.76 143.74 9.49 143.39 9.56 142.21 8.52 141.84 7.82 142.56 6.93 142.43 7.01 141.79 8.47 140.98 9.12 140.21 9.04 138.75 7.86 138.72 7.37 138.04 7.5 137.05 8.06 136.97 8.89 137.53 9.28 136.85 8.09 136.54 6.23 136.83 6.2 135.91 7.61 135.67 9.03 134.27 7.72 133.37 7.29 132.71 7.4 131.12 8.7 131.19 9.75 129.99 9.03 129.58 7.48 130.11 6.96 129.65 7.14 128.33 8.06 128.16 8.34 127.57 7.92 127.14 6.49 126.59 6.12 126.15 5.87 125.06 8.38 125.12 8.42 124.29 6.1 124.14 5.04 123.54 5.36 122.89 7.17 122.69 7.87 121.82 7.28 120.22 8 120.51 8.52 119.79 8.59 118.77 7.51 118.48 7.58 117.9 8.44 117.83 9.39 116.66 9.13 116.22 7.94 116.19 8.1 115.42 8.73 115.28 9.68 115.58 10.08 115.25 9.45 114.4 9.9 114.09 10.62 114.85 11 114.31 10.1 113.35 9.93 112.82 10.65 112.39 11.61 112.99 12.22 112.48 12 111.4 11.59 110.95 12.46 110.21 12.56 109.64 13.28 108.68 13.21 105.23 14.18 105.06 14.26 104.46 12.89 103.85 12.37 103.39 11.54 102.11 11.58 101.48 12.51 100.98 11.63 100.44 10.98 98.96 9.92 98.15 10.72 97.44 10.53 96.83 9.84 96.83 9.45 96.23 9.98 95.58 9.87 94.35 8.53 94.13 8.21 93.32 8.96 92.6 9.17 91.94 8.62 90.94 7.89 90.51 8.8 89.91 8.8 89.3 7.94 89.16 8.19 88.13 6.74 87.76 6.91 87.04 5.91 86.37 8.23 85.36 8.13 84.88 6.58 84.65 5.77 84.12 6.24 82.61 5.72 81.89 5.69 81.18 6.66 80.82 6.51 79.5 6.89 78.52 6.33 77.73 6.36 76.92 5.41 76.02 6.52 74.95 6.24 74.54 5.23 74.56 4.33 73.63 5.22 72.24 5.09 71.22 3.73 70.55 3.18 69.51 3.43 68.59 2.55 67.6 3.09 66.26 1.99 65.37 1.97 63.75 1.21 63.4 1.86 60.95 1 60.66 1.08 57.62 2.26 56.33 1.65 56.11 2.05 55.28 19.02 55.92 32.39 56.4 32.39 56.44 45.7 56.88 59.06 57.3 72.61 57.7 85.92 58.08 105.95 58.6 122.63 59 139.75 59.4 161.69 59.88 179.76 60.24 191.54 60.45 196.48 60.52 213.5 60.71 213.8 33.53 214 15.91 214.17 1 214.52 1.58 215.99 2.56 216.86 3.34 219.21 4.28 220.56 4.67 223.72 5.94 224.63 5.96 228.18 5.48 230.78 3.57 232.25 3.77 233.96 3.4 234.5 3.64 238.81 6.54 241.91 9.2 244.35 10.62 246.11 10.64 248.17 11.13 247.36 12.99 247.22 15.25 250 27.67 249.9 30.22 252.25 41.56 252.35 42.19 254.66 45.52 256.64 55.36 258.5 64.84 261.18 78.91 261.18 80.71 260.33 81.23 260.56 82.09 260.26 83.64 261.01 85.7 259.84 86.37 259.33 86.97 259.09 88.15 260.02 90.49 259.92 91.96 260.07 94.67 260.81 95.78 262.26 96.67 263.54 98.06 264.39 98.76 265.06 99.82 265.05 100.6 265.47 101.04 267.73 101.66 268.6 102.51 269.57 103.07 270.49 104.48 270.95 104.72 272.9 105.05 274.21 104.95 275.25 105.56 275.96 107.06 279.01 107.42 279.96 107.79 282.79 108 284.8 108.67 286.19 108.3 288.53 105.81 289.55 105.88 291.31 105.66 292.36 105.9 293.37 106.51 296.03 106.99 297.5 106.82 299.55 105.93 301.32 106.31 302.18 106.66 303.02 107.54 304.06 107.69 304.4 108.05 305.39 110.06 305.47 110.91 305.04 113.1 305.44 114.19 306.1 114.72 307.23 114.9 308.19 115.34 309.18 115.36 310.71 115.11 313.98 115.55 315.03 115.92 316.96 115.92 318.26 116.13 319.9 116.15 320.94 115.89 321.83 116.23 323.32 116.14 324.43 115.84 325.01 116.31 326.76 116.25 328.17 116.64 330.48 116.28 331.12 116.34 333.47 117 335.33 117.19 336.02 117.66 337.96 117.88 339.72 117.84 340.07 117.47 341.98 117.91 347.17 118.22 348.29 118.93 348.73 120.16 349.54 121.46 349.85 123.61 350.95 125.92 351.23 127.47 351.09 128.79 350.55 130.51 350.65 131.8 350 132.81 349.93 133.71 350.57 134.52 351.66 135.17 352.39 135.87 353.4 135.94 355.61 135.83 356.66 135.98 357.8 135.63 361.17 135.5 362.66 135.99 364.72 135.74 366.57 135.82 367.72 135.57 368.46 134.75 369.05 133.58 369.65 133.43 370.5 134.51 371.29 134.86 372 134.6 372.95 133.75 374.61 134.08 376.28 133.7 377.81 133.72 379.35 133.12 381.06 132.75 382.62 131.74 384.54 131.42 385.97 131.02 386.66 130.25 387.06 128.5 387.02 127.67 386.52 126.62 386.06 124.57 386.23 123.87 388.88 123.6 390.2 122.36 391.93 121.24 393.33 122.02 394.48 121.72 395.78 121.71 396.69 120.35 397.41 120.72 398.16 118.35 407.65 115.74 412.5 115.72 414.94 117.9 415.53 118.66 424.75 117.85 435.38 118.29 438.45 117.04 438.94 117.2 439.02 120.63 441.1 120.81 443.15 122.41 444.72 122.6 462 130.9 469.19 129.68 471.56 130.2 472.65 134.75 471.98 135.74 472.47 136.25 471.51 136.88 469.71 136.57 468.98 137.38 466.56 137.26 465.13 137.71 464.91 139.31 464.12 141.11 463.8 142.68 466.39 145.61 468.94 146.13 469.7 146.66 477.89 145.86 481.92 144.67 484.99 144.58 486.9 147.26 487.67 147.55 488.38 149.03 490.35 149.69 490.4 151.7 488.4 156.29 489.18 159.35 490.93 162.77 493.26 166.5 493.87 166.58 494.91 167.95 496.5 171.64 498.31 174.95 498.54 176.71 498.98 177.09 499.12 178.04 500.08 179.46 500.78 179.04 501.64 177.91 503.84 177.27 505.61 176.2 509.11 175.54 510.24 174.9 509.78 173.59 508.03 172.27 507.58 171.36 507.43 170.34 506.8 168.75 507.44 165.95 506.2 164.45 506.35 163.44 507.28 163.26 507.89 160.31 510.57 158.37 514.77 159.19 515.3 159.79 516.35 159.66 516.62 158.69 517.77 159.14 519.23 158.63 519.33 157.8 520.89 156.8 522.63 156.39 522.81 157.88 528.26 157.97 529.02 158.07 529.56 157.39 530.7 157.14 531.92 157.14 532.62 158.77 532.88 160.9 533.84 161.14 534.58 162.25 537.75 162.87 536.54 166.57 536.69 168.19 537.21 169.19 537.34 171.51 539.13 172.27 540.09 174.16 540.71 174.55 541.16 174.13 541.15 173.23 542.25 173.21 542.79 173.48 543.33 174.57 542.43 174.71 542.47 176.36 544.17 176.74 544.64 176.13 546.34 175.69 546.8 175.38 548.09 175.59 549.16 175.46 550.11 177.04 551.89 178.26 552.31 180.13 554.87 179.63 555.65 179.66 557.31 179.23 557.46 179.7 559.18 180.56 559.83 180.59 560.15 181.5 560.96 180.87 562.65 180.79 563.48 179.96 564.27 181.01 565.05 180.91 565.3 180.15 567.8 180.86 568.28 181.65 568.11 182.65 567.22 183.8 566.94 185.29 568.5 184.92 568.93 185.21 569.01 186.92 568.69 188.02 569.24 189.13 569.82 189.69 569.68 191.21 569.28 192.3 568.91 192.55 568.52 193.9 569.4 194.06 570.5 193.59 570.57 193.1 571.5 192.66 571.06 194.29 572.2 194.94 573.16 194.74 574.61 193.8 574.6 194.5 576.05 196.41 578.61 195.56 581.33 195.43 582.66 194.71 584.37 194.38 585.04 195.16 583.37 196.72 582.91 200.93 583.22 202.31 582.98 203.64 583.88 204.39 586.4 202.83 591.91 200.34 594.31 200.46 595.87 200.09 597.23 202.63 598.13 203.14 599.74 202.32 602.08 201.69 603.3 200.32 604.11 199.7 604.71 200.06 606.2 199.27 607.27 198.99 608.08 199.57 608.87 199.03 612.44 198.69 613.89 197.93 614.88 197.86 616.58 196.96 618.04 195.08 620.12 193.91 622.49 190.43 623.09 190.76 623.95 190.22 625.94 187.87 627.83 186.44 627.65 185.43 629.55 184.64 630.05 183.75 632.34 182.57 633.28 181.34 634.02 181.55 635.06 181.2 635.89 180.22 637.28 179.88 638.52 179.94 641.29 177.61 643.97 174.91 649.27 173.08 650.31 172.92 651.1 171.85 653.24 170.45 653.7 171.24 654.38 171.64 655.21 171.54 657.2 170.49 658.07 171.2 658.26 171.95 658.11 173.05 658.38 173.49 658.78 177.02 658.93 179.14 658.78 180.86 659.2 181.39 660.11 180.64 659.84 179.8 660.32 179.61 660.72 180.41 662.11 180.59 662.56 182.84 663.04 183.44 665.1 182.92 664.85 184.55 665.01 184.98 663.13 186.48 663.32 187.1 664.09 187.5 664.21 188.26 665.3 188.78 665.74 189.78 666.38 190.22 666.35 190.87 667.05 192.7 668.14 193.78 669.17 193.18 673.15 192.78 674.84 192.02 679.46 191.33 680.9 189.99 682.03 189.87 683.03 189.26 684.55 188.94 685.47 187.94 686.14 188.37 687.2 188.04 687.84 188.13 688.23 188.83 686.86 190.46 687.14 191.34 688.29 192.1 692.38 191.38 693.08 191.66 693.57 191.28 695.52 191.28 696.41 190.27 697.44 189.68 699.05 190.18 700.51 191.09 703.38 189.97 704.12 189.93 705.91 190.91 706.38 191.66 709.31 191.24 710.13 191.36 710.93 190.98 711.02 190.44 711.71 189.99 714.21 189.42 715.95 190.29 717.45 189.56 719.6 189.6 721.64 188.75 722.57 188.54 723.96 188.75 725.64 188.35 726.3 188.38 727.53 187.62 728.81 187.97 730.21 187.81 730.91 187.42 732.08 187.5 733.16 188.38 733.86 188.57 736.38 188.37 738.24 188.81 739.96 189.46 741.67 190.47 742.94 190.67 743.58 191.07 744.18 193 744.61 193.73 745.27 193.5 746.46 195.1 746.95 196.4 746.74 198.56 747.13 199.66 747.85 200.04 749.17 200.35 749.9 201.62 750.39 201.56 751.5 202.1 751.96 201.29 752.4 201.49 753.39 201.25 753.63 202.05 754.36 202.64 754.23 203.34 754.82 203.59 755.99 204.57 756.67 204.69 757.47 205.37 760.19 205.49 760.49 204.85 762.74 204.28 763.12 202.68 763.94 203.16 765.03 201.6 765.28 200.67 766.55 200.27 766.84 200.79 767.73 200.57 768.15 200.03 769.47 199.91 770.62 199.21 772.52 198.99 773.25 199.49 774.12 199.12 774.44 199.58 775.18 199.51 775.37 200.34 776.01 200.81 776.9 200.78 777.63 201.35 778.94 200.57 780.6 200.42 781.21 200.97 782.2 200.51 782.67 201.36 785.5 200.07 786.25 200.12 786.96 199.02 787.33 200.73 788.71 201 790.21 202.22 791.26 201.82 793.06 201.5 793.88 201.2 795.76 201.33 797.24 200.76 797.34 200.37 798.78 200.13 799 200.63 797.25 201.06 795.4 201.83 794.52 201.92 791.76 202.6 791.1 203.14 790.97 203.92 789.51 204.52 787.45 204.75 786.9 204.11 787.68 203.47 787.56 203.06 786.48 202.34 785.71 202.67 785.17 203.43 784.35 203.88 783.25 205.2 783.48 206.26 784.44 208.15 784.52 209.11 783.25 208.21 782.53 207.14 780.62 207.5 779.75 208.13 779.23 209.43 780.16 209.95 780.21 210.69 778.04 211.65 777.08 212.55 777.05 212.93 775.42 214.01 774.63 215.32 772.57 216.94 772.47 217.48 771.02 217.87 769.01 219.54 768.04 219.85 767.34 220.45 766 221.02 765.51 221.57 764.99 221.29 764.04 221.76 762.95 222.67 761.07 222.74 759.93 223.82 759.03 224.13 758.67 223.83 757.1 224.47 756.27 224.59 755.37 225.16 755.07 225.76 755.35 226.69 754.44 226.94 754.58 227.5 752.86 228.48 752.05 228.4 751.04 228.75 751.17 229.69 750.78 229.98 747.01 231.35 745.69 232.3 743.85 232.45 742.21 233.39 740.8 233.62 739.86 234.83 738.7 235.06 737.69 235.71 736.19 236.4 734.67 236.32 732.93 236.59 731.29 237.05 729.89 238.01 728.97 239.5 727.61 239.88 726.33 239.64 724.43 239.9 721.89 240.79 720.46 241.68 719.65 241.91 716.95 243.23 716.26 243.17 714.38 244.3 714.11 244.76 713.18 244.71 712.92 245.27 708.62 246.1 707.44 246.73 705 247.19 703.32 247.82 703 248.9 699.97 249.84 697.17 251.16 693.17 252.73 691.78 254.78 688.34 256.41 687.04 257.34 683.76 259.22 682.97 259.9 680.98 261.11 679.56 262.13 678.01 262.64 675.08 264.57 673.7 265.26 670.26 268.08 668.8 268.83 667.6 270.38 662.95 274.17 661.67 275.44 660.15 276.32 657.28 279.07 654.18 282.29 653.36 283.23 652.45 283.73 651.72 284.6 651.21 284.8 648.1 287.92 648.13 288.28 647.16 288.81 645.37 290.49 645.07 291.01 643.96 291.76 642.97 292.84 641.65 293.16 641.36 293.88 639.73 295.69 639.15 296.8 637.45 298.61 636.67 299.84 635.57 300.32 633.21 302.48 633.17 302.99 631.95 304.13 631.92 304.56 631.1 305.51 630.67 305.38 629.91 306.43 629.09 308.14 628.55 308.86 628.28 309.78 627.62 310.74 627.82 311.17 626.66 312.12 625.53 313.36 625.2 314.92 624.23 315.28 623.28 317 622.31 317.38 621.53 319.05 621.32 320.64 620.21 321.43 619.6 321.35 618.78 322.1 618.33 323.48 617.39 323.48 616.49 325.16 615.57 325.58 615.14 326.32 613.54 327.89 613.19 329.02 610.8 331.44 610.45 332.77 609.66 333.23 609.44 334.09 608.33 334.45 607.42 336.09 606.13 336.37 605.8 336.99 605.12 337.01 604.95 337.9 603.9 338.87 603.31 339.68 602.31 340.61 601.65 341.94 601 342.7 600.51 342.82 600.36 343.71 599.31 344.95 597.79 346.2 595.97 346.56 595.12 347.11 593.9 348.88 593.7 349.47 591.77 349.94 591.18 350.32 590.69 351.25 589.88 351.13 588.19 351.89 587.15 353.66 587.14 354.43 586.61 354.88 586.1 356.22 585.21 356.03 583.74 357.26 583.32 358.05 582.8 358.25 581.17 360.58 581.89 361.22 581.8 361.8 580.94 362.03 580.3 361.45 579.47 361.87 579.41 363.73 577.78 363.42 577.46 364.47 576.64 365.26 575.55 365.09 574.8 365.43 573.28 367.21 571.47 369 569.49 371.39 568.43 373.02 567.35 373.83 567.06 375.26 565.75 375.73 563.8 377.33 563.25 378.4 562.33 377.9 560.72 378.26 559.73 379.12 559.29 380.02 558.16 380.89 557.13 381.07 555.08 382.74 553.4 384.78 549.25 387.6 547.88 389.01 546.97 389.45 545.83 390.39 544.45 392.08 542.05 393.32 541.3 394.37 540.29 395.07 539.55 395.28 538.61 396.48 538.1 396.7 537.87 397.52 536.16 398.72 535.42 399.02 534.5 400.18 534.83 401.71 536.48 404.68 537.85 406.74 539.48 408.94 541.96 411.97 542.79 412 543.25 412.62 542.73 413.01 541.25 412.29 535.18 406.22 532.3 406.39 530.07 407.86 529.52 408.63 529.75 410.07 529.28 411.52 528.33 411.56 527.03 410.97 526.3 411.41 524.72 411.4 524.3 412.39 523.02 413.77 523.09 414.42 523.81 414.74 525.46 414.77 526.2 415.55 526.25 416.17 525.69 417.15 524.52 417.72 523.19 419.61 523.57 421.1 522.51 421.92 520.79 421.5 519.31 422.11 517.99 420.72 517.45 420.93 516.8 421.89 516.31 421.95 515.88 420.93 514.62 420.51 514.47 419.49 513.96 419.69 514.14 424.58 514.6 444.7 514.76 454.39 514.98 464.64 515.18 472.48 515.28 474.06 515.28 477.02 515.39 483.75 515.5 486.07 515.74 498.33 515.88 503.68 516.02 511.11 513.32 511.97 512.2 512.63 511.63 513.54 511.31 515.29 510.85 516 510.96 517.4 510.79 518.5 510.26 519.11 510.17 520.23 509.37 520.71 507.77 520.62 507.41 520.37 505.6 519.85 503.51 518.67 502.49 518.84 500.97 519.69 500.28 520.49 500.08 521.58 499.32 522.95 499.16 524.11 497.99 525.36 498.37 526.1 498.02 526.72 497.14 527.25 495.92 526.85 495.05 526.86 493.91 526.23 491.79 525.63 490.89 526 490.12 526.65 488.85 528.2 488.76 530.64 485.61 531.63 484.66 532.34 483.45 532.46 481.85 533.55 481.1 533.43 480.57 533.83 479.24 533.73 479.36 535.11 477.59 535.14 475.4 537.12 475.46 537.83 472.8 539.65 472.19 539.76 471.54 540.35 469.41 543.79 468.83 545.09 469.09 545.43 468.71 547.43 468.12 548.19 467.53 548.33 466.4 549.39 465.99 550.42 466.87 552.89 466.9 553.6 466.48 554.43 465.39 555.39 464.93 556.2 464.61 557.36 464.12 560.21 461.93 562.83 459.84 564.45 459.41 565.01 458.66 565.16 457.89 565.74 457.27 565.82 456.96 566.65 455.8 566.85 455.1 567.58 455.15 568.44 454.87 570.21 455.06 570.72 454.49 572.01 454.18 575.64 453.81 576.59 453.48 578.75 453.15 579.23 453.39 580.11 453.28 581.41 453.46 582.74 453.94 584.21 453.56 586.58 453.91 587.36 453.76 589.06 453.9 589.58 455.17 590.71 458.26 590.95 460.5 591.71 461.72 591.66 462.86 591.37 464.09 590.72 465.9 590.48 466.87 591.18 467.72 592.11 468.97 592.78 471.12 594.58 471.27 594.96 470.95 596.97 471.13 598.7 472.66 600.16 474.01 602.18 475.13 604.66 475.95 605.38 476.34 606.35 478.99 607.5 479.36 607.81 480.07 609.79 479.74 613.27 480.11 614.02 479.8 616.42 478.31 617.3 477.73 617.96 476.95 619.36 476.83 620.37 474.87 621.97 474.21 622.77 474.08 623.51 474.61 625.24 474.69 626.17 474.08 627.71 473.53 628.52 471.63 630.42 470.63 631.81 467.95 633.75 468.06 634.93 468.89 636.4 469.12 637.18 468.95 638.19 468.4 638.97 468.26 639.72 468.59 641.46 468.62 642.66 469.28 644.48 469.04 645.4 467.99 646.64 467.66 648.3 467.72 649.65 469.24 651.27 469.3 652.46 469.66 653.09 469.54 653.84 469.74 655.46 469.45 656.26 469.76 656.93 470.22 659.25 470.91 660.25 470.34 661.53 469.32 662.35 467.22 664.56 465.23 666.17 464.12 668.28 464.26 669.59 464.8 670.55 465.82 671.64 466.83 672.27 468.4 673.85 468.73 674.9 467.77 678.12 468.05 680.27 467.92 680.91 468.05 682.63 468.31 683.26 469.03 683.73 469.71 685.11 470.22 687.98 469.54 692.03 469.33 692.55 467.86 693.59 467.8 695.35 468.92 697.5 469 697.97 468.37 699.67 468.51 701.43 468.85 702.9 468.8 703.8 468.14 704.9 468.11 705.93 467.43 707.04 467.17 707.88 467.06 709.44 466.58 710.96 465.19 712.8 464.66 714.21 464.4 716.81 465.12 717.72 466.2 718.67 468.47 719.76 470.29 721.09 472.13 721.86 472.92 722.42 478.07 727.26 479.22 728.76 480.5 730.15 481.5 730.95 484.16 732.27 485.31 733.82 485.52 735.42 485.2 736.49 485.31 737.38 486.28 738.05 487.63 737.95 488.88 738.87 489.08 739.52 489.88 739.63 490.36 738.98 491.27 739.21 492.07 740.3 493.39 742.47 493.3 743.87 493.47 744.49 494.36 744.79 495.89 743.77 496.91 743.45 498.23 744.27 499.71 744.8 501.21 744.42 503.57 745.23 505.38 746.53 506.08 746.7 507.17 745.76 508.35 745.47 511.03 745.85 513.59 745.55 515.89 745.81 517.97 746.72 519.25 747.95 519.72 748.85 520.06 750.1 521.03 751.97 521.03 753.97 521.56 755.34 522.42 756.74 523.41 757.91 525.1 759.39 527.64 761.04 528.9 762.63 530.34 763.51 533.21 764.46 536.89 765.38 539.43 765.71 541.04 766.04 542.43 767.19 545.3 768 546.27 768.59 548.16 768.65 549.06 769.05 550.86 770.98 552.65 771.93 554.59 772.48 555.1 772.97 556.57 773.84 558.46 774.29 559.62 775.18 561.78 778.03 563.25 778.84 563.76 779.46 564.67 781.49 564.92 783.01 563.81 784.98 564.36 786.39 566.37 787.38 567.16 788.39 567.16 789.96 568.19 791.53 568.14 792.48 567.63 794.24 568.02 795.6 569.13 797.07 569.59 798.14 569.77 799.52 570.98 800.11 573.22 801.85 574.99 802.81 576.38 804.95 578.72 806.41 581.22 807.38 583.25 808.98 583.81 809.27 586.17 809.49 587.48 810.07 588.47 811.34 588.89 813.88 590.28 814.67 591.82 814.8 593.7 816.66 594.39 818.31 595.9 819.94 596.95 819.99 598.32 821.22 599.43 821.64 600.62 822.58 601.49 824.15 603.21 825.26 605.68 825.47 607.2 825.93 609.35 825.95 611.67 826.28 613.06 827.22 614.73 827.86 616.59 827.64 619.2 828.71 620.44 829.87 621.13 831.57 622.19 832.62 623.26 834.39 625.57 835.8 627.8 838.32 628.25 839.99 629.03 841.51 630.06 842.19 630.72 843.6 631.39 844.48 632.7 845.17 633.86 846.71 634.39 848.86 635.85 850.55 636.84 851.19 637.54 851.96 638.37 853.52 638.61 855.35 639.2 857.32 639.59 857.81 640.29 860.32 642.45 862.98 641.35 867.63 641.44 869.71 641.11 870.96 640.1 873.11 640.26 875.3 639.83 878.45 639.79 879.55 640.05 881.61 640.98 882.7 641.11 884.16 640.58 885.86 640.62 887.72 641.86 889.51 642.48 889.97 644.38 891.86 645.03 893.3 644.95 895.37 643.8 897.85 643.93 899.21 644.7 900.33 645.18 901.69 646.08 902.35 647 903.4 647.03 905.25 Z M 789.33 206.8 790.15 205.85 790.45 205.01 792.62 204.64 793.22 205.7 789.99 207.98 789.33 206.8 Z" fill-rule="evenodd" fill="none" stroke="currentColor" stroke-width="1"/>
</g>
</svg>