<svg viewBox="-98.0118153 -50.1585563 9.290379599999994 7.433293600000006" xmlns="http://www.w3.org/2000/svg">
  <path d="M -91.217706,43.50055 L -91.217353,43.512474 L -91.225167,43.519497 L -91.232941,43.523967 L -91.236725,43.53293 L -91.243183,43.540309 L -91.24382,43.54913 L -91.232812,43.564842 L -91.231398,43.578212 L -91.236666,43.587656 L -91.252926,43.600363 L -91.258267,43.603484 L -91.268748,43.615348 L -91.268457,43.627352 L -91.263178,43.638203 L -91.263856,43.647662 L -91.271749,43.654929 L -91.273316,43.668307 L -91.27264,43.67536 L -91.267792,43.695652 L -91.268455,43.709824 L -91.258756,43.723426 L -91.255367,43.731419 L -91.255431,43.744876 L -91.244135,43.774667 L -91.262431,43.79236 L -91.267849,43.808761 L -91.271153,43.811998 L -91.275737,43.824866 L -91.277329,43.836749 L -91.284138,43.847065 L -91.290193,43.852207 L -91.298815,43.856555 L -91.311266,43.867832 L -91.31531,43.881808 L -91.325158,43.89203 L -91.336613,43.89686 L -91.342335,43.902697 L -91.347741,43.911964 L -91.35674,43.916564 L -91.363227,43.926557 L -91.366642,43.937463 L -91.385798,43.954241 L -91.406011,43.963929 L -91.415043,43.975629 L -91.424134,43.982631 L -91.429757,43.993778 L -91.440541,44.001518 L -91.463515,44.009041 L -91.48025,44.008052 L -91.494988,44.012536 L -91.507121,44.01898 L -91.527778,44.021623 L -91.547028,44.022226 L -91.560509,44.025498 L -91.582604,44.027381 L -91.597617,44.034965 L -91.605015,44.045306 L -91.615375,44.051598 L -91.625148,44.054589 L -91.637056,44.062821 L -91.646446,44.063337 L -91.659511,44.074203 L -91.665263,44.085041 L -91.68153,44.0974 L -91.69531,44.09857 L -91.70753037499726,44.10397639105654 L -91.710597,44.12048 L -91.719097,44.128853 L -91.730648,44.1329 L -91.751747,44.134786 L -91.756719,44.136804 L -91.774486,44.147539 L -91.796669,44.154335 L -91.817302,44.164235 L -91.829167,44.17835 L -91.844754,44.184878 L -91.864387,44.196574 L -91.875158,44.200575 L -91.876356,44.209575 L -91.880265,44.216555 L -91.88979,44.226286 L -91.892963,44.235149 L -91.887905,44.246398 L -91.887189,44.252513 L -91.896008,44.262871 L -91.895652,44.273008 L -91.902434,44.279724 L -91.920282,44.286496 L -91.924879,44.29573 L -91.91436,44.30823 L -91.916191,44.318094 L -91.923851,44.331387 L -91.928224,44.335473 L -91.941311,44.340978 L -91.959996,44.359797 L -91.970226,44.365821 L -91.98709758735438,44.369080255539906 L -92.000165,44.374966 L -92.004616,44.378194 L -92.02191,44.382105 L -92.0377985122115,44.3885932104326 L -92.053549,44.401375 L -92.061637,44.404124 L -92.078605,44.404869 L -92.087239,44.40885 L -92.112885,44.414572 L -92.125171,44.42221 L -92.139569,44.424673 L -92.162454,44.427208 L -92.195378,44.433792 L -92.221083,44.440386 L -92.233897,44.446334 L -92.244884,44.456842 L -92.267447,44.467864 L -92.282364,44.477707 L -92.291005,44.485464 L -92.298484,44.494621 L -92.302961,44.503601 L -92.302466,44.516487 L -92.310827,44.528756 L -92.313625,44.536873 L -92.317665,44.542802 L -92.329013,44.550895 L -92.347567,44.557149 L -92.368298,44.559182 L -92.391545,44.557643 L -92.415675,44.560506 L -92.426395,44.558803 L -92.436486,44.552884 L -92.4427413190741,44.554097137906254 L -92.458896,44.562745 L -92.48001,44.568308 L -92.493717,44.566052 L -92.506964,44.56972 L -92.5187,44.575228 L -92.528,44.57325 L -92.542091,44.566898 L -92.550026,44.568968 L -92.55143,44.572984 L -92.5504,44.582055 L -92.561943,44.59622 L -92.568946,44.603372 L -92.577156,44.605037 L -92.581588,44.600851 L -92.588797,44.601698 L -92.590488,44.605944 L -92.601608,44.612038 L -92.613854,44.611592 L -92.622537,44.616054 L -92.623376,44.62182 L -92.620262,44.628654 L -92.621847,44.639018 L -92.632021,44.649187 L -92.655788,44.658082 L -92.664715,44.663379 L -92.67613,44.672529 L -92.686197,44.682375 L -92.732043,44.714345 L -92.739159,44.718039 L -92.755671,44.723243 L -92.771948,44.732077 L -92.792336,44.739362 L -92.802017,44.745673 L -92.808415,44.751604 L -92.805562,44.768383 L -92.80051,44.777439 L -92.787613,44.789208 L -92.78302,44.798945 L -92.781792,44.809025 L -92.779289,44.814462 L -92.772911,44.821503 L -92.772438,44.82819 L -92.7662866450738,44.83524718265362 L -92.765668,44.84101 L -92.768443,44.850548 L -92.769501,44.862001 L -92.763422,44.872867 L -92.764133,44.875905 L -92.773946,44.889997 L -92.773103,44.901367 L -92.759556,44.907857 L -92.757557,44.911214 L -92.750645,44.937299 L -92.754743,44.955952 L -92.7607,44.964979 L -92.767218,44.968084 L -92.769445,44.97215 L -92.770346,44.983328 L -92.769104,44.987467 L -92.771231,45.001378 L -92.761953,45.0221 L -92.76476,45.028886 L -92.778815,45.039327 L -92.78791,45.043516 L -92.797081,45.050648 L -92.801789,45.05692 L -92.802911,45.065403 L -92.79238823275597,45.07894534334228 L -92.77401,45.089138 L -92.754387,45.103146 L -92.744938,45.108309 L -92.739527,45.116515 L -92.745665,45.123073 L -92.749423,45.13812 L -92.752196,45.142495 L -92.749368,45.147638 L -92.750983,45.158159 L -92.749753,45.162985 L -92.75286452203791,45.16710468049223 L -92.753207,45.174766 L -92.766808,45.185466 L -92.76713,45.194165 L -92.763908,45.204866 L -92.754005,45.212769 L -92.751708,45.218666 L -92.757456,45.230526 L -92.757503,45.238308 L -92.760249,45.2496 L -92.758836,45.254427 L -92.753621,45.259419 L -92.75192,45.265877 L -92.753844,45.270959 L -92.761178,45.280583 L -92.762004,45.288213 L -92.737121,45.300459 L -92.727737,45.309288 L -92.709961,45.321377 L -92.704794,45.326526 L -92.698967,45.336374 L -92.699523,45.342421 L -92.704054,45.35366 L -92.702723,45.358468 L -92.696505,45.363524 L -92.678225,45.373607 L -92.676963,45.380144 L -92.669511,45.389104 L -92.664104,45.393308 L -92.650284,45.398769 L -92.646943,45.414265 L -92.650269,45.419168 L -92.646602,45.441635 L -92.652698,45.454527 L -92.656047,45.456595 L -92.680234,45.464344 L -92.683594,45.470687 L -92.690962,45.475442 L -92.700899,45.491609 L -92.712863,45.504849 L -92.726677,45.514462 L -92.728023,45.525652 L -92.724762,45.538617 L -92.726082,45.541112 L -92.745591,45.553016 L -92.756906,45.557499 L -92.764574,45.563592 L -92.773412,45.568235 L -92.790143,45.566915 L -92.801503,45.562854 L -92.812083,45.561122 L -92.823309,45.560934 L -92.843782,45.566135 L -92.872215,45.568013 L -92.883749,45.575483 L -92.884954,45.578818 L -92.883277,45.589831 L -92.886421,45.594881 L -92.882529,45.610216 L -92.886669,45.61976 L -92.888114,45.628377 L -92.886963,45.636777 L -92.88898,45.642475 L -92.885903,45.645541 L -92.882504,45.659471 L -92.878932,45.665606 L -92.875488,45.689014 L -92.870025,45.697272 L -92.871709,45.70061 L -92.868862,45.711993 L -92.869193,45.717568 L -92.862598,45.722241 L -92.851821,45.723377 L -92.848851,45.728751 L -92.843079,45.729163 L -92.835917,45.732802 L -92.828981,45.733714 L -92.824916,45.737263 L -92.805347,45.747491 L -92.784617,45.764199 L -92.779612,45.782576 L -92.776482,45.790004 L -92.772065,45.79523 L -92.761833,45.801258 L -92.757815,45.806574 L -92.757947,45.811216 L -92.765681,45.827252 L -92.761712,45.833861 L -92.751084,45.840617 L -92.745557,45.841455 L -92.739991,45.846283 L -92.736117,45.859129 L -92.738444,45.861371 L -92.732869,45.869744 L -92.712503,45.891705 L -92.706372,45.895445 L -92.700692,45.89606 L -92.675737,45.907478 L -92.676167,45.912072 L -92.655558,45.924586 L -92.63912,45.924558 L -92.639936,45.933541 L -92.627723,45.932682 L -92.62272,45.935186 L -92.615739,45.934351 L -92.600728,45.941166 L -92.589528,45.941782 L -92.580565,45.94625 L -92.551186,45.95224 L -92.549806,45.967986 L -92.537709,45.977818 L -92.530516,45.981918 L -92.522032,45.984203 L -92.502535,45.979995 L -92.49207,45.975791 L -92.483975,45.97568 L -92.472761,45.972952 L -92.464481,45.976267 L -92.461138,45.980216 L -92.464512,45.985038 L -92.453373,45.992913 L -92.451627,46.000441 L -92.444294,46.009161 L -92.442259,46.016177 L -92.435627,46.021232 L -92.42135206145271,46.02654841801626 L -92.411896,46.027478 L -92.392681,46.01954 L -92.375993,46.015907 L -92.372717,46.014198 L -92.357965,46.013413 L -92.350407,46.016368 L -92.349281,46.023624 L -92.344244,46.02743 L -92.342429,46.034541 L -92.343156,46.043622 L -92.338733,46.048126 L -92.335335,46.059422 L -92.329806,46.065216 L -92.319329,46.069289 L -92.294033,46.074377 L -92.29357,46.122463 L -92.29370415275075,46.15708999489823 L -92.29306,46.23637 L -92.29357,46.251409 L -92.29307,46.294931 L -92.29242,46.31406 L -92.292998,46.324283 L -92.293017,46.374988 L -92.292683,46.441283 L -92.291976,46.503997 L -92.291584,46.634086 L -92.29218643388676,46.66576374425793 L -92.28736712475315,46.666969100825085 L -92.286192,46.660342 L -92.274392,46.657441 L -92.270592,46.650741 L -92.265993,46.651041 L -92.259692,46.657141 L -92.254548,46.658453 L -92.242493,46.649241 L -92.228492,46.652941 L -92.212392,46.649941 L -92.202292,46.655041 L -92.205492,46.664741 L -92.192492,46.676741 L -92.181359,46.680241 L -92.175875,46.686466 L -92.176259,46.690473 L -92.182999,46.695652 L -92.198491,46.696141 L -92.205192,46.698341 L -92.205692,46.702541 L -92.193291,46.711241 L -92.189091,46.717541 L -92.174291,46.717241 L -92.167291,46.719941 L -92.155191,46.71594 L -92.146292,46.716032 L -92.141522,46.725285 L -92.14329,46.73464 L -92.13789,46.73954 L -92.11659,46.74864 L -92.089493,46.749237 L -92.033989,46.708939 L -92.020294,46.704041 L -92.0152691325863,46.706464309800346 L -92.019428,46.71051 L -92.027234,46.710895 L -92.049749,46.7309 L -92.06449,46.745439 L -92.076861,46.758951 L -92.09156,46.77845 L -92.09429,46.788416 L -92.08534,46.795767 L -92.078342,46.797576 L -92.06194,46.805034 L -92.059532,46.810278 L -92.054653,46.811607 L -92.045528,46.819168 L -92.038482,46.820426 L -92.028758,46.824718 L -92.021423,46.831422 L -91.998529,46.838949 L -91.985086,46.849637 L -91.974022,46.855485 L -91.965414,46.858199 L -91.952073,46.867071 L -91.912204,46.884488 L -91.895827,46.897333 L -91.875991,46.907729 L -91.866262,46.90868 L -91.855263,46.914134 L -91.85093,46.919819 L -91.841349,46.925215 L -91.826068,46.927199 L -91.817522,46.923802 L -91.81196,46.930619 L -91.793146,46.940541 L -91.780665,46.943314 L -91.777508,46.95253 L -91.767055,46.95754 L -91.756506,46.967815 L -91.737098,46.982853 L -91.719502,46.994111 L -91.704649,47.005246 L -91.697427,47.007289 L -91.687181,47.006007 L -91.679183,47.01091 L -91.675844,47.017632 L -91.660496,47.015281 L -91.65939,47.027269 L -91.651467,47.029803 L -91.645544,47.025981 L -91.63736,47.027265 L -91.636332,47.030972 L -91.642901,47.035245 L -91.626824,47.049953 L -91.621853,47.051158 L -91.617625,47.056162 L -91.603293,47.063818 L -91.594962,47.062409 L -91.589698,47.070945 L -91.584557,47.07371 L -91.584166,47.078688 L -91.573817,47.089917 L -91.55756,47.094424 L -91.549965,47.093473 L -91.545048,47.099374 L -91.539306,47.101723 L -91.520897,47.104334 L -91.518793,47.108121 L -91.506713,47.119252 L -91.498459,47.122637 L -91.481065,47.124544 L -91.466253,47.132276 L -91.455936,47.140078 L -91.45426,47.145785 L -91.449553,47.146397 L -91.443124,47.1512 L -91.436462,47.159624 L -91.426658,47.165382 L -91.420805,47.170522 L -91.410504,47.176545 L -91.408583,47.182259 L -91.402131,47.18221 L -91.398831,47.18615 L -91.386468,47.187677 L -91.377258,47.19802 L -91.366668,47.200089 L -91.364295,47.205607 L -91.356579,47.208393 L -91.352802,47.216869 L -91.329283,47.231964 L -91.325602,47.239209 L -91.309867,47.248915 L -91.305572,47.253615 L -91.296659,47.256127 L -91.287502,47.266742 L -91.278595,47.266502 L -91.273808,47.275331 L -91.265786,47.27995 L -91.260033,47.279302 L -91.249213,47.284156 L -91.246614,47.294386 L -91.238658,47.304976 L -91.229283,47.307153 L -91.21964,47.318059 L -91.210299,47.320134 L -91.206564,47.330156 L -91.195372,47.337877 L -91.183975,47.343686 L -91.185757,47.346568 L -91.179153,47.352571 L -91.176234,47.35848 L -91.170853,47.362983 L -91.162425,47.373819 L -91.154812,47.380377 L -91.150746,47.37944 L -91.142573,47.385361 L -91.142176,47.38812 L -91.130112,47.395187 L -91.129541,47.39847 L -91.106218,47.411806 L -91.095608,47.414665 L -91.087691,47.422401 L -91.070867,47.433628 L -91.064892,47.440691 L -91.04867,47.45191 L -91.045646,47.456525 L -91.032945,47.458236 L -91.023124,47.464964 L -91.012204,47.46946 L -91.009139,47.472754 L -90.991447,47.483132 L -90.981989,47.486298 L -90.982164,47.488644 L -90.951312,47.507996 L -90.946322,47.509116 L -90.939072,47.514532 L -90.930134,47.517501 L -90.921933,47.523386 L -90.891155,47.543308 L -90.862637,47.560261 L -90.847788,47.565544 L -90.83506,47.573382 L -90.789102,47.596592 L -90.777003,47.60623 L -90.762718,47.610697 L -90.728669,47.627917 L -90.71522,47.631964 L -90.686382,47.643594 L -90.671309,47.646427 L -90.657342,47.652569 L -90.637791,47.659827 L -90.62994,47.663958 L -90.597772,47.675117 L -90.584954,47.68074 L -90.551291,47.690266 L -90.537105,47.703055 L -90.498141,47.711989 L -90.470687,47.719661 L -90.441269,47.724782 L -90.437712,47.731612 L -90.42139,47.73515 L -90.397853,47.737359 L -90.386234,47.7411 L -90.344676,47.745056 L -90.341941,47.748591 L -90.333061,47.74796 L -90.330254,47.750892 L -90.311682,47.757555 L -90.305159,47.756966 L -90.278688,47.764626 L -90.270776,47.765804 L -90.256635,47.771107 L -90.23189,47.776031 L -90.213626,47.777093 L -90.201427,47.77513 L -90.188261,47.777104 L -90.178755,47.786414 L -90.164797,47.792171 L -90.148857,47.794562 L -90.132078,47.79572 L -90.11757,47.794713 L -90.102903,47.798645 L -90.092832,47.802508 L -90.081677,47.803593 L -90.072025,47.811105 L -90.058361,47.812066 L -90.042226,47.817568 L -90.024449,47.817906 L -90.011325,47.823584 L -89.974487,47.831137 L -89.970634,47.832871 L -89.971357,47.838988 L -89.961486,47.840865 L -89.953777,47.840096 L -89.936775,47.845827 L -89.937883,47.84944 L -89.928972,47.85074 L -89.931188,47.856857 L -89.928009,47.860662 L -89.919051,47.863985 L -89.911057,47.864482 L -89.895686,47.868016 L -89.892407,47.865975 L -89.883556,47.867688 L -89.872074,47.874242 L -89.85396,47.873997 L -89.843046,47.879478 L -89.833677,47.882153 L -89.828857,47.880193 L -89.823879,47.883535 L -89.81066,47.886736 L -89.803641,47.890332 L -89.794152,47.892021 L -89.773961,47.902073 L -89.75988,47.904067 L -89.758651,47.907492 L -89.738012,47.917187 L -89.72963,47.925334 L -89.713428,47.931701 L -89.712913,47.934136 L -89.703208,47.939595 L -89.681847,47.944968 L -89.681934,47.949777 L -89.690527,47.953479 L -89.68488,47.961692 L -89.676109,47.965403 L -89.65757,47.967026 L -89.651296,47.959864 L -89.639545,47.95359 L -89.639844,47.959826 L -89.647963,47.972369 L -89.649591,47.97929 L -89.638323,47.98735 L -89.630119,47.990003 L -89.624529,47.99466 L -89.616927,47.996522 L -89.606945,47.991464 L -89.606089,47.988792 L -89.613894,47.984949 L -89.609003,47.980622 L -89.589013,47.981324 L -89.574659,47.984631 L -89.573028,47.989604 L -89.566382,47.992815 L -89.53945,47.996164 L -89.530955,47.996409 L -89.51269,48.00064 L -89.495634,48.002739 L -89.497463,48.006056 L -89.511423,48.005068 L -89.512651,48.002565 L -89.52722,47.999458 L -89.545191,48.001078 L -89.553228,47.999396 L -89.570671,47.99802 L -89.581007,47.995899 L -89.594749,48.004332 L -89.607821,48.006566 L -89.61048355993427,48.01775492649322 L -89.617867,48.010947 L -89.625087,48.011517 L -89.65303,48.004255 L -89.657051,48.009954 L -89.666794,48.007295 L -89.67235658916933,48.011078181750094 L -89.68843764677804,48.01075463700025 L -89.701438,48.006211 L -89.708145,48.010162 L -89.716731,48.010312 L -89.722604,48.013552 L -89.724048,48.018996 L -89.731163,48.018788 L -89.734025,48.021871 L -89.742569,48.019834 L -89.749314,48.023325 L -89.767679,48.022605 L -89.779094,48.018503 L -89.791853,48.018204 L -89.796212,48.01487 L -89.804926,48.013775 L -89.807445,48.017224 L -89.819802,48.015099 L -89.822773,48.009211 L -89.834049,47.999516 L -89.841673,48.0029 L -89.846244,47.992717 L -89.868153,47.989898 L -89.871351,47.985853 L -89.897414,47.987599 L -89.90477244131307,47.99223613047473 L -89.911258,47.993267 L -89.92194618692284,47.999989703220876 L -89.927513,48.001833 L -89.925856,48.006306 L -89.932617,48.010398 L -89.934489,48.015628 L -89.94412,48.014444 L -89.94826917100133,48.01586146287907 L -89.953107,48.01082 L -89.96349,48.014643 L -89.968255,48.014482 L -89.97460824781835,48.02289180607873 L -89.987106,48.025364 L -89.993825,48.028091 L -89.997098,48.035319 L -89.99388717920098,48.0491651216815 L -89.99798990368394,48.057707962714126 L -90.00862914611474,48.06844941274692 L -90.015057,48.067188 L -90.018835,48.072032 L -90.023595,48.084708 L -90.02954660498065,48.08755008627827 L -90.041726,48.089236 L -90.057644,48.096364 L -90.0738974236923,48.10114280060416 L -90.091606,48.104605 L -90.115989,48.104164 L -90.122603,48.105602 L -90.132567,48.111671 L -90.14382312658006,48.11259919408285 L -90.150721,48.110269 L -90.164269,48.109707 L -90.17649,48.112393 L -90.188679,48.107947 L -90.195029,48.108333 L -90.211426,48.106278 L -90.22474889376821,48.108141270226426 L -90.233797,48.107071 L -90.253821,48.102244 L -90.274529,48.103181 L -90.289337,48.098993 L -90.305744899375,48.105120005714696 L -90.330062,48.102285 L -90.336944,48.099574 L -90.338074,48.096152 L -90.345984,48.093968 L -90.353819,48.094979 L -90.382258,48.093182 L -90.38640647379329,48.09818999722162 L -90.40317972730398,48.105094847008246 L -90.410347,48.105048 L -90.438452,48.098677 L -90.45213877286106,48.10502350825528 L -90.467391,48.108744 L -90.477607,48.105243 L -90.486694,48.099052 L -90.50546799591325,48.0996424283467 L -90.510316,48.097289 L -90.516935,48.099314 L -90.556701,48.095931 L -90.567482,48.101178 L -90.569763,48.106951 L -90.555845,48.117069 L -90.55929,48.121683 L -90.565429,48.122477 L -90.57576,48.120624 L -90.582053,48.123619 L -90.591285,48.11745 L -90.60613,48.115837 L -90.616074,48.112174 L -90.62702080583882,48.111769652791075 L -90.641495,48.103516 L -90.686278,48.100428 L -90.702916,48.096027 L -90.741459,48.094563 L -90.751608,48.090968 L -90.761625,48.098283 L -90.767615,48.110302 L -90.767069,48.114482 L -90.772998,48.117523 L -90.776814,48.124103 L -90.787122,48.127709 L -90.787977,48.132705 L -90.795242,48.13549 L -90.796809,48.139521 L -90.77805694680356,48.14869636647847 L -90.779407,48.151482 L -90.776279,48.161927 L -90.796431,48.159207 L -90.800742,48.163177 L -90.804207,48.177833 L -90.817529,48.179402 L -90.82107358442943,48.18466303351912 L -90.825726,48.183567 L -90.823447,48.178069 L -90.832543,48.173508 L -90.836402,48.177028 L -90.8342689593565,48.1880990705202 L -90.834839,48.201798 L -90.83722686902746,48.22470758055248 L -90.839667,48.227654 L -90.837772,48.234714 L -90.839296,48.239559 L -90.847352,48.244443 L -90.867079,48.238177 L -90.875107,48.237784 L -90.881523,48.240513 L -90.88559122304252,48.245740003625734 L -90.906829,48.237339 L -90.914971,48.230603 L -90.925092,48.229897 L -90.976955,48.219452 L -91.0039723899655,48.20279239844672 L -91.031589,48.188452 L -91.043613,48.189163 L -91.05708143654238,48.18735600382504 L -91.065549,48.181215 L -91.07566,48.179204 L -91.082731,48.180756 L -91.092258,48.173101 L -91.114862,48.166057 L -91.120047,48.160412 L -91.13864212231687,48.15582165555405 L -91.137329,48.149251 L -91.156107,48.140475 L -91.176181,48.125811 L -91.184692,48.122532 L -91.19034258551136,48.124847643385465 L -91.214428,48.10294 L -91.234932,48.095923 L -91.249695,48.084092 L -91.26638,48.078713 L -91.275961,48.078488 L -91.290215,48.073945 L -91.324784,48.072599 L -91.332589,48.069331 L -91.340159,48.073236 L -91.350521,48.07168 L -91.365143,48.066968 L -91.370872,48.06941 L -91.37882892859618,48.065598713633655 L -91.391128,48.057075 L -91.413862,48.053518 L -91.429642,48.048608 L -91.438093,48.052104 L -91.45033,48.068806 L -91.465499,48.06677 L -91.488646,48.068065 L -91.542512,48.053268 L -91.567254,48.043719 L -91.575672,48.048791 L -91.573015,48.057292 L -91.575471,48.066294 L -91.569746,48.093348 L -91.55306956896644,48.10310160102814 L -91.559272,48.108268 L -91.575853,48.106509 L -91.588953,48.102166 L -91.615255,48.101906 L -91.640175,48.096926 L -91.653571,48.109567 L -91.653261,48.114137 L -91.667527,48.108359 L -91.676876,48.107264 L -91.687623,48.111698 L -91.682845,48.122118 L -91.69194990095394,48.11945184477895 L -91.692843,48.11636 L -91.703524,48.113548 L -91.711986,48.114713 L -91.707846,48.123401 L -91.704143,48.124894 L -91.699981,48.13184 L -91.698174,48.141643 L -91.703569,48.14539 L -91.708523,48.152701 L -91.705109,48.159716 L -91.705318,48.170775 L -91.709383,48.172717 L -91.724584,48.170657 L -91.721413,48.180255 L -91.71243,48.1875 L -91.710519,48.193898 L -91.714931,48.19913 L -91.738861,48.204173 L -91.741538,48.199334 L -91.749075,48.198844 L -91.756394,48.205823 L -91.764672,48.200586 L -91.78103473776878,48.200433373615 L -91.789011,48.196549 L -91.79181,48.202492 L -91.798099,48.202813 L -91.814473,48.208664 L -91.815772,48.211748 L -91.831975,48.209302 L -91.839463,48.209643 L -91.864358,48.206947 L -91.867882,48.219095 L -91.884691,48.227321 L -91.89347,48.237699 L -91.903767,48.23704 L -91.91619503865203,48.238692364990676 L -91.920802,48.236747 L -91.937356,48.234213 L -91.942078,48.230362 L -91.958352,48.233135 L -91.958289,48.243836 L -91.94959196840044,48.24451816406041 L -91.954432,48.251678 L -91.959565,48.253551 L -91.97024,48.253594 L -91.970407,48.247803 L -91.97486055360822,48.24515998087504 L -91.980772,48.247801 L -91.989545,48.260214 L -92.006577,48.265421 L -92.00725552422911,48.28040159475027 L -92.012024,48.286996 L -92.012985,48.297444 L -92.00025971622911,48.32111863137585 L -92.030792,48.325695 L -92.037674,48.333061 L -92.046944,48.334772 L -92.04885,48.348572 L -92.055228,48.359213 L -92.067002,48.359449 L -92.078164,48.358021 L -92.083552,48.353708 L -92.09089,48.354497 L -92.143702,48.356022 L -92.145049,48.365651 L -92.16201331040547,48.363299472166794 L -92.177407,48.357137 L -92.178529,48.351802 L -92.19281,48.348716 L -92.203896,48.351838 L -92.206718,48.345646 L -92.216959,48.344957 L -92.22192668271346,48.34890156784518 L -92.26238051436916,48.35488806690887 L -92.288835,48.342812 L -92.295443,48.32385 L -92.304476,48.322827 L -92.30615754599211,48.31631360731364 L -92.294527,48.306454 L -92.301368247499,48.28845789214327 L -92.295668,48.278118 L -92.29448461100642,48.271478477163136 L -92.290368,48.265527 L -92.273706,48.256747 L -92.269578,48.248185 L -92.280727,48.244269 L -92.31466573504612,48.24052666543516 L -92.332099,48.233906 L -92.35344093010829,48.23010750592299 L -92.36201613551388,48.22294355629491 L -92.36893383221896,48.22035653108953 L -92.377903,48.229635 L -92.37896903195309,48.23581068072629 L -92.383161,48.238367 L -92.38502094033386,48.249764606133176 L -92.401786,48.27137 L -92.416285,48.295463 L -92.426077,48.304491 L -92.432003,48.305063 L -92.453691,48.329514 L -92.469948,48.351836 L -92.47675,48.37176 L -92.45639903543747,48.4011195222759 L -92.456431,48.414083 L -92.475451,48.418621 L -92.482009,48.428292 L -92.489352,48.430259 L -92.50736109904584,48.4478793713288 L -92.53713597315183,48.44770480676374 L -92.576542,48.440595 L -92.656223,48.436474 L -92.663511,48.44003 L -92.688116,48.443707 L -92.712682,48.462982 L -92.709267,48.473091 L -92.701298,48.484586 L -92.698824,48.494892 L -92.684866,48.497611 L -92.661418,48.496557 L -92.654097,48.501687 L -92.636696,48.499428 L -92.627237,48.503383 L -92.631915,48.506715 L -92.62521989585808,48.51300731427154 L -92.634886,48.542557 L -92.657847,48.546219 L -92.728046,48.53929 L -92.894687,48.594915 L -92.909947,48.596313 L -92.929614,48.606874 L -92.949839,48.608269 L -92.9501198812193,48.63040963703729 L -92.954876,48.631493 L -92.984963,48.623731 L -93.088438,48.627597 L -93.178376,48.623258 L -93.184006,48.628183 L -93.20747895296061,48.64247452881443 L -93.25482739065882,48.64278382617802 L -93.347528,48.62662 L -93.35508,48.611398 L -93.362132,48.613832 L -93.371156,48.605085 L -93.383807,48.605149 L -93.395022,48.603303 L -93.40856,48.608415 L -93.425483,48.6013 L -93.438494,48.59338 L -93.464308,48.591792 L -93.466007,48.587291 L -93.461731,48.57403 L -93.457046,48.567199 L -93.456675,48.561834 L -93.460798,48.550552 L -93.467504,48.545664 L -93.481471,48.543146 L -93.500153,48.541202 L -93.515457,48.534792 L -93.532087,48.532453 L -93.547191,48.528684 L -93.562062,48.528897 L -93.578333,48.52652 L -93.594379,48.528793 L -93.603752,48.523326 L -93.610618,48.521661 L -93.618321,48.52397 L -93.626447,48.530985 L -93.632327,48.530092 L -93.638199,48.522533 L -93.645397,48.517281 L -93.656652,48.515731 L -93.674568,48.516297 L -93.694676,48.514774 L -93.709147,48.518029 L -93.741843,48.517347 L -93.752942,48.51512 L -93.763176,48.516118 L -93.784657,48.51549 L -93.794454,48.516021 L -93.80152,48.520551 L -93.812149,48.524778 L -93.818253,48.530046 L -93.817572,48.535833 L -93.811201,48.542385 L -93.812098,48.550664 L -93.806748,48.561779 L -93.80527,48.570299 L -93.807984,48.580297 L -93.818518,48.595314 L -93.821427,48.609163 L -93.829298,48.617606 L -93.833443,48.625593 L -93.844351,48.630222 L -93.894894,48.632358 L -93.913488,48.635227 L -93.916959,48.632854 L -93.934064,48.632628 L -93.953017,48.634127 L -93.959691,48.637171 L -93.977768,48.638475 L -94.000675,48.642777 L -94.006933,48.643193 L -94.029491,48.640861 L -94.043187,48.643416 L -94.060295,48.643094 L -94.06584915829713,48.646101223381564 L -94.076738,48.64417 L -94.091264,48.643651 L -94.09993419342426,48.64585703146038 L -94.110031,48.644192 L -94.12607,48.644338 L -94.138682,48.645714 L -94.157486,48.645725 L -94.167725,48.648104 L -94.199662,48.650938 L -94.214486,48.649335 L -94.224205,48.649457 L -94.23355,48.652302 L -94.244515,48.653461 L -94.250948,48.656899 L -94.254838,48.663967 L -94.250741,48.67812 L -94.251435,48.683612 L -94.261092,48.696597 L -94.264473,48.698919 L -94.274569,48.699868 L -94.28281780439353,48.7055395463701 L -94.29118846924149,48.70781053048449 L -94.30848763719416,48.710227005455074 L -94.328434,48.704481 L -94.342758,48.703382 L -94.368791,48.706473 L -94.37858556889563,48.71036640777451 L -94.38889431625951,48.71194126182451 L -94.406028,48.710482 L -94.41596941197417,48.71093873069435 L -94.438829,48.694828 L -94.452379,48.692401 L -94.47195471558878,48.69669250232736 L -94.499615,48.697956 L -94.508862,48.700362 L -94.538589,48.702641 L -94.54565899223395,48.71228565846228 L -94.555835,48.716207 L -94.568545,48.715523 L -94.587653,48.717578 L -94.592099,48.71912 L -94.601195,48.728213 L -94.610641,48.731796 L -94.619162,48.737263 L -94.641288,48.741217 L -94.645365,48.744017 L -94.64537697904736,48.74905718417622 L -94.651973,48.755858 L -94.660317,48.76041 L -94.672812,48.769315 L -94.687042,48.775009 L -94.694347,48.782184 L -94.695983,48.799644 L -94.695122,48.809154 L -94.704291,48.824217 L -94.702009,48.831824 L -94.697055,48.835731 L -94.685681,48.840119 L -94.693061,48.853416 L -94.69025352305829,48.863409750433654 L -94.692527,48.86895 L -94.68429385511268,48.872367101891264 L -94.684347,48.883958 L -94.71139598895412,48.974707612124135 L -94.73024691231518,49.035828654707984 L -94.750278,49.099273 L -94.773223,49.120733 L -94.7741825502115,49.1248013019415 L -94.798083,49.197871 L -94.797327,49.214345 L -94.825555,49.294389 L -94.824352,49.308952 L -94.81650434730636,49.32102911833306 L -94.836876,49.324068 L -94.854245,49.324154 L -94.878454,49.333193 L -94.909273,49.350176 L -94.952111,49.368679 L -94.957465,49.370186 L -94.974294,49.367707 L -94.988908,49.368897 L -95.014415,49.356405 L -95.049382,49.353056 L -95.058404,49.35317 L -95.089806,49.361114 L -95.103138,49.363526 L -95.126467,49.369439 L -95.13511769354236,49.37443637954956 L -95.149808,49.38065 L -95.153314,49.384358 L -95.153343,49.288092 L -95.153281,49.174341 L -95.153191,48.99887 L -95.32022225854165,48.99876918884294 L -95.368698,48.998729 L -95.4843600772636,48.9989682579875 L -95.6616645004301,48.9993350290197 L -95.87705,48.999758 L -96.045061,48.999952 L -96.2088316259199,48.999984 L -96.405411,48.999984 L -96.5361491221007,48.999984 L -96.6691624786461,48.999984 L -96.8002731545024,48.999984 L -96.93096,48.999984 L -96.93096063132518,49.00026999031918 L -97.062273,49.000344 L -97.228961,49.000454 L -97.23257,48.995032 L -97.226526,48.993744 L -97.237617,48.985145 L -97.237243,48.965482 L -97.228731,48.96385 L -97.234128,48.947898 L -97.226624,48.945826 L -97.225837,48.935329 L -97.214755,48.929874 L -97.219476,48.92112 L -97.210534,48.914958 L -97.212654,48.908956 L -97.206882,48.902331 L -97.193266,48.898336 L -97.191721,48.891827 L -97.199891,48.88259 L -97.19071,48.876845 L -97.180855,48.877226 L -97.177979,48.874609 L -97.188412,48.867438 L -97.178779,48.8619 L -97.178834,48.856661 L -97.173052,48.851675 L -97.176385,48.845249 L -97.174524,48.836788 L -97.183816,48.834224 L -97.183312,48.829622 L -97.177965,48.825115 L -97.181958,48.815298 L -97.173876,48.812057 L -97.15866,48.810904 L -97.157548,48.807876 L -97.179831,48.800783 L -97.169824,48.796679 L -97.17123,48.791984 L -97.156858,48.789941 L -97.158924,48.783257 L -97.150559,48.782562 L -97.150272,48.778606 L -97.158927,48.774542 L -97.151733,48.771932 L -97.145945,48.765634 L -97.147737,48.761331 L -97.154823,48.756471 L -97.151464,48.751314 L -97.138248,48.750235 L -97.136744,48.742304 L -97.141723,48.738024 L -97.137713,48.734205 L -97.130927,48.734395 L -97.128887,48.73049 L -97.136403,48.725733 L -97.125827,48.720703 L -97.118977,48.711346 L -97.110189,48.708074 L -97.119081,48.704586 L -97.119195,48.700564 L -97.110694,48.692496 L -97.105442,48.689648 L -97.091896,48.685982 L -97.092414,48.682117 L -97.101861,48.680764 L -97.09991,48.658522 L -97.10664,48.652161 L -97.107438,48.648485 L -97.115581,48.643519 L -97.111508,48.640663 L -97.108972,48.633733 L -97.114684,48.630342 L -97.12424,48.633973 L -97.13115903935474,48.630995284025026 L -97.12926601361312,48.62766727902022 L -97.120142,48.62168 L -97.123737,48.618102 L -97.130939,48.622806 L -97.135229,48.620738 L -97.128788,48.61541 L -97.132587,48.613162 L -97.141926,48.614888 L -97.14805,48.613838 L -97.14926,48.60879 L -97.137706,48.608882 L -97.135056,48.606129 L -97.143822,48.598359 L -97.152172,48.597686 L -97.152637,48.593919 L -97.14206,48.592282 L -97.142405,48.585694 L -97.14717,48.580967 L -97.154333,48.582652 L -97.147943,48.572479 L -97.154465,48.566673 L -97.171971,48.56495 L -97.174884,48.560679 L -97.164405,48.557047 L -97.141751,48.556608 L -97.141799,48.551262 L -97.166271,48.551065 L -97.16341921931527,48.54406681879011 L -97.159651,48.541358 L -97.145608,48.5381 L -97.141358,48.535452 L -97.143854,48.531557 L -97.152765,48.530285 L -97.154034,48.521669 L -97.14884,48.518849 L -97.133975,48.52266 L -97.126758,48.520157 L -97.136619,48.512183 L -97.149195,48.512338 L -97.149774,48.501986 L -97.145338,48.497878 L -97.132239,48.492378 L -97.145593,48.482963 L -97.159205,48.481107 L -97.15858,48.475147 L -97.140628,48.477465 L -97.12892,48.475742 L -97.132477,48.471265 L -97.14073,48.474691 L -97.146133,48.474052 L -97.147049,48.46763 L -97.14208,48.463347 L -97.130632,48.46342 L -97.129331,48.454048 L -97.135315,48.448883 L -97.149236,48.443358 L -97.149811,48.439153 L -97.141087,48.438584 L -97.13453,48.443335 L -97.124347,48.441254 L -97.124645,48.433614 L -97.131546,48.431146 L -97.138475,48.433519 L -97.145183,48.432564 L -97.142597,48.42765 L -97.124664,48.422216 L -97.127446,48.416789 L -97.138396,48.421647 L -97.144505,48.417214 L -97.132282,48.410362 L -97.131479,48.406586 L -97.148155,48.396759 L -97.158648,48.396344 L -97.16329,48.391987 L -97.156366,48.39039 L -97.15721,48.385732 L -97.147027,48.381396 L -97.136247,48.383933 L -97.135569,48.380429 L -97.141242,48.377677 L -97.139286,48.3704 L -97.154806,48.36997 L -97.155481,48.363768 L -97.148482,48.360717 L -97.143534,48.35427 L -97.136203,48.352184 L -97.1396,48.344246 L -97.126745,48.34214 L -97.125852,48.338373 L -97.129206,48.328131 L -97.120301,48.327098 L -97.117319,48.321579 L -97.13125,48.319543 L -97.137926,48.311984 L -97.133166,48.309103 L -97.125355,48.311723 L -97.124158,48.302141 L -97.113086,48.297757 L -97.11919,48.294242 L -97.128296,48.298822 L -97.13809,48.290846 L -97.12216,48.290056 L -97.11657,48.279661 L -97.125651,48.275736 L -97.127208,48.269844 L -97.143096,48.27044 L -97.143864,48.265749 L -97.135059,48.265825 L -97.123056,48.262237 L -97.13003,48.257203 L -97.124873,48.253164 L -97.127441,48.249437 L -97.133434,48.249873 L -97.146744,48.244484 L -97.138533,48.241488 L -97.135835,48.236919 L -97.144645,48.233562 L -97.139311,48.230187 L -97.130333,48.229672 L -97.121675,48.226936 L -97.123317,48.223076 L -97.135791,48.227084 L -97.139055,48.221952 L -97.122884,48.216494 L -97.117838,48.209764 L -97.12452,48.207961 L -97.131363,48.217182 L -97.139296,48.216755 L -97.13165,48.20711 L -97.14124,48.202953 L -97.135672,48.197126 L -97.149755,48.185824 L -97.146768,48.182058 L -97.13668,48.180866 L -97.13601,48.17674 L -97.147511,48.172407 L -97.144242,48.162491 L -97.13856,48.159459 L -97.127392,48.162748 L -97.121467,48.161478 L -97.124481,48.15655 L -97.139176,48.151529 L -97.146531,48.144055 L -97.143569,48.140997 L -97.136768,48.143292 L -97.122382,48.139066 L -97.129453,48.133133 L -97.126862,48.124277 L -97.121586,48.116925 L -97.123202,48.10665 L -97.109535,48.104723 L -97.108691,48.100257 L -97.102249,48.096694 L -97.109521,48.092512 L -97.102165,48.089122 L -97.099431,48.082106 L -97.103867,48.071898 L -97.098829,48.071477 L -97.087829,48.05902 L -97.075641,48.052725 L -97.071288,48.045797 L -97.068713,48.027694 L -97.072184,48.020638 L -97.068519,48.015932 L -97.062881,47.996412 L -97.056161,47.993564 L -97.053089,47.98934 L -97.059255,47.975324 L -97.057234,47.970597 L -97.06136076597458,47.96356252470316 L -97.052826,47.958253 L -97.055597,47.949129 L -97.048222,47.942036 L -97.038796,47.940531 L -97.035573,47.936266 L -97.034353,47.929337 L -97.018107,47.920228 L -97.023732,47.915545 L -97.017038,47.912828 L -97.015544,47.906459 L -97.020523,47.902459 L -97.024855,47.894896 L -97.019228,47.889623 L -97.02540667491098,47.88574524197977 L -97.018014,47.878651 L -97.021065,47.872526 L -97.005447,47.87024 L -97.005422717092,47.863909351756526 L -96.999201,47.860201 L -96.997538,47.8495 L -96.992384,47.841939 L -96.981878,47.830641 L -96.985193,47.825189 L -96.980556,47.821642 L -96.978006,47.810899 L -96.986803,47.807064 L -96.974478,47.803639 L -96.977158,47.798753 L -96.966114,47.799005 L -96.958695,47.79272 L -96.965358,47.783985 L -96.957535,47.779882 L -96.95397,47.774503 L -96.948884,47.775341 L -96.934773,47.766457 L -96.938196,47.763229 L -96.932178,47.754742 L -96.928521,47.744489 L -96.932904,47.737734 L -96.918931,47.724808 L -96.921187,47.721334 L -96.930435,47.717847 L -96.926239,47.715018 L -96.918886,47.715143 L -96.919691,47.710095 L -96.912985,47.708406 L -96.91157,47.701062 L -96.907263,47.693635 L -96.909771,47.689496 L -96.899237,47.689579 L -96.899128,47.685665 L -96.893784,47.673074 L -96.885419,47.663884 L -96.887518,47.657935 L -96.882477,47.650053 L -96.882571,47.641883 L -96.888092,47.639648 L -96.875967,47.62887 L -96.87586,47.623449 L -96.878982,47.618812 L -96.874005,47.614891 L -96.859551,47.612028 L -96.855933,47.609714 L -96.856904,47.603099 L -96.852099,47.599717 L -96.849908,47.590754 L -96.853003,47.580333 L -96.860215,47.574408 L -96.852362,47.571031 L -96.866817,47.564138 L -96.861735,47.562616 L -96.849497,47.566722 L -96.859075,47.556241 L -96.850431,47.551779 L -96.86175,47.541398 L -96.860914,47.537321 L -96.853534,47.536213 L -96.862485,47.528966 L -96.869047,47.528906 L -96.86112,47.515556 L -96.853924,47.514414 L -96.847339,47.516725 L -96.843332,47.507554 L -96.853017,47.506897 L -96.85366,47.502247 L -96.848933,47.4979 L -96.86369,47.489791 L -96.852677,47.487121 L -96.860543,47.480656 L -96.852025,47.479228 L -96.860977,47.472768 L -96.860065,47.467707 L -96.854323,47.461987 L -96.862272,47.455504 L -96.857133,47.449371 L -96.859621,47.446042 L -96.855915,47.440041 L -96.861942,47.43757 L -96.855037,47.433536 L -96.863873,47.428972 L -96.85443,47.425059 L -96.86207,47.42246 L -96.861678,47.414394 L -96.852123,47.405309 L -96.839363,47.39966 L -96.847841,47.395745 L -96.844885,47.39223 L -96.837496,47.389633 L -96.841767,47.385654 L -96.837974,47.38273 L -96.852871,47.375009 L -96.848386,47.362536 L -96.85054,47.357091 L -96.845051,47.353631 L -96.846271,47.346675 L -96.84099,47.341378 L -96.830618,47.338014 L -96.835159,47.330923 L -96.837012,47.318386 L -96.846066,47.316991 L -96.835741,47.311108 L -96.830818,47.305181 L -96.843857,47.292939 L -96.840137,47.275362 L -96.846227,47.272916 L -96.844926,47.268775 L -96.838415,47.269231 L -96.835042,47.26567 L -96.837403,47.253051 L -96.832321,47.247748 L -96.838888,47.244298 L -96.829126,47.234723 L -96.841469,47.233208 L -96.839858,47.22909 L -96.831759,47.226175 L -96.838574,47.222868 L -96.832899,47.219984 L -96.836661,47.215172 L -96.830787,47.211719 L -96.831474,47.20503 L -96.836863,47.196095 L -96.828405,47.192731 L -96.826722,47.188759 L -96.833391,47.187394 L -96.832554,47.183374 L -96.822062,47.185175 L -96.824463,47.178338 L -96.824975,47.166998 L -96.823077,47.155598 L -96.836138,47.153986 L -96.828648,47.146419 L -96.834626,47.143958 L -96.828562,47.139836 L -96.82633,47.134941 L -96.830884,47.129931 L -96.824136,47.127615 L -96.828956,47.120906 L -96.816191,47.108481 L -96.815659,47.104662 L -96.82102,47.100894 L -96.81722,47.097857 L -96.816184,47.086808 L -96.819946,47.082242 L -96.816713,47.078455 L -96.826147,47.076497 L -96.822213,47.060847 L -96.825063,47.055564 L -96.817737,47.051118 L -96.817834,47.045285 L -96.822549,47.038865 L -96.812991,47.037772 L -96.821233,47.030638 L -96.8149,47.025247 L -96.827386,47.022901 L -96.831302,47.018315 L -96.834839,47.007254 L -96.832967,47.00417 L -96.82223,46.999261 L -96.824598,46.993309 L -96.820037,46.976818 L -96.822664,46.97002 L -96.81328,46.966152 L -96.80159,46.968287 L -96.795391,46.96614 L -96.79991,46.959228 L -96.79873527036708,46.944228837586756 L -96.791569,46.944948 L -96.790931,46.930618 L -96.780986,46.927571 L -96.761693,46.934558 L -96.76299,46.921562 L -96.75683,46.91728 L -96.764082,46.912138 L -96.765086,46.905377 L -96.77143418988327,46.90595686922327 L -96.775502,46.898694 L -96.774114,46.885744 L -96.76729,46.883472 L -96.769499,46.877732 L -96.780338,46.880291 L -96.780502,46.868635 L -96.783972,46.863034 L -96.782418,46.860059 L -96.784579,46.852052 L -96.776591,46.852482 L -96.781827,46.845641 L -96.774848,46.840331 L -96.782887,46.836283 L -96.785095,46.832774 L -96.783503,46.826224 L -96.791581,46.827733 L -96.792083,46.823816 L -96.80016,46.819664 L -96.795585,46.801194 L -96.801243,46.798093 L -96.794396,46.795091 L -96.796992,46.791572 L -96.789568,46.789562 L -96.78714,46.785146 L -96.796722,46.777464 L -96.794444,46.775834 L -96.784192,46.778407 L -96.786059,46.76913 L -96.776183,46.767802 L -96.778797,46.764533 L -96.785689,46.76623 L -96.787235,46.755095 L -96.784663,46.751424 L -96.786321,46.74256 L -96.780939,46.738421 L -96.784546,46.732705 L -96.7811,46.722048 L -96.787468,46.713998 L -96.783859,46.706442 L -96.791204,46.703747 L -96.784925,46.694372 L -96.789795,46.688422 L -96.783928,46.685729 L -96.788434,46.681691 L -96.787696,46.678223 L -96.79951,46.675245 L -96.794172,46.671575 L -96.798823,46.669018 L -96.796996,46.659223 L -96.79895,46.654112 L -96.790653,46.649066 L -96.794158,46.646447 L -96.790782,46.638669 L -96.796041,46.631209 L -96.790976,46.625565 L -96.779112,46.619542 L -96.777883,46.613822 L -96.76949,46.606756 L -96.772529,46.600718 L -96.766543,46.598831 L -96.762608,46.589324 L -96.751234,46.584709 L -96.753637,46.576046 L -96.745697,46.571027 L -96.74384,46.567162 L -96.747072,46.562418 L -96.745536,46.547998 L -96.750088,46.540901 L -96.741629,46.537004 L -96.74205,46.529291 L -96.744768,46.524711 L -96.740361,46.521599 L -96.734421,46.512452 L -96.738571,46.508744 L -96.736083,46.505031 L -96.740148,46.501499 L -96.733188,46.492934 L -96.736703,46.491063 L -96.736417,46.481635 L -96.726677,46.476157 L -96.727208,46.472419 L -96.713672,46.465012 L -96.71222,46.455446 L -96.717816,46.446033 L -96.717407,46.436416 L -96.703127,46.436774 L -96.707655,46.430963 L -96.70042,46.427249 L -96.70483,46.418728 L -96.693927,46.422081 L -96.691957,46.416568 L -96.686211,46.41457 L -96.689907,46.409494 L -96.68738,46.405569 L -96.679875,46.406525 L -96.668094,46.389942 L -96.669471,46.385159 L -96.667422,46.376117 L -96.656647,46.369542 L -96.649103,46.363062 L -96.645604,46.351086 L -96.633834,46.352656 L -96.616432,46.345575 L -96.619719,46.339956 L -96.608954,46.335639 L -96.605892,46.331083 L -96.59966,46.330481 L -96.60123,46.319638 L -96.597349,46.317853 L -96.60044,46.304823 L -96.603575,46.302386 L -96.59719,46.298088 L -96.604516,46.294987 L -96.597573,46.291937 L -96.595843,46.284969 L -96.600451,46.280634 L -96.595947,46.277185 L -96.59683,46.268142 L -96.600371,46.261645 L -96.592727,46.256984 L -96.595091,46.252907 L -96.586053,46.247025 L -96.598646,46.242598 L -96.597103,46.226484 L -96.591987,46.21847 L -96.592889,46.214297 L -96.587056,46.209967 L -96.588942,46.204522 L -96.583677,46.200735 L -96.588988,46.196994 L -96.587386,46.187995 L -96.590727,46.183987 L -96.588387,46.179084 L -96.577011,46.171546 L -96.576265,46.159582 L -96.580273,46.151076 L -96.568875,46.133417 L -96.570016,46.128716 L -96.56692,46.11475 L -96.559037,46.104868 L -96.556735,46.096954 L -96.557185,46.087405 L -96.554436,46.084186 L -96.557202,46.077833 L -96.556807,46.064713 L -96.56198,46.054351 L -96.566051,46.051832 L -96.574223,46.03706 L -96.577875,46.027034 L -96.574216,46.01576 L -96.575869,46.007999 L -96.573835,46.003589 L -96.572483,45.989577 L -96.572491,45.97705 L -96.57035,45.963595 L -96.565334,45.957326 L -96.564803,45.950348 L -96.561334,45.945655 L -96.563672,45.935245 L -96.564961,45.930076 L -96.563975,45.920324 L -96.56998937914098,45.913409052985244 L -96.565512,45.910681 L -96.568555,45.901045 L -96.568866,45.888023 L -96.571527,45.885958 L -96.572229,45.870935 L -96.574667,45.866816 L -96.573079,45.861524 L -96.574517,45.844044 L -96.577534,45.83793 L -96.57974,45.82582 L -96.583932,45.819042 L -96.596704,45.811801 L -96.609209,45.797353 L -96.613858,45.793434 L -96.625347,45.787924 L -96.639222,45.772096 L -96.641941,45.759871 L -96.652226,45.746809 L -96.662595,45.738682 L -96.672665,45.732336 L -96.687224,45.725931 L -96.711157,45.717561 L -96.75035,45.698782 L -96.759312,45.688744 L -96.795432,45.669991 L -96.804255,45.666329 L -96.838648,45.647509 L -96.844211,45.639583 L -96.850163,45.62496 L -96.852439,45.61511 L -96.856834,45.605378 L -96.8424,45.592585 L -96.801591,45.555251 L -96.79384,45.550724 L -96.781036,45.535972 L -96.763432,45.520007 L -96.745487,45.488712 L -96.743486,45.480649 L -96.738916,45.474402 L -96.736837,45.466775 L -96.731396,45.45702 L -96.72425,45.451482 L -96.70423,45.428674 L -96.692541,45.417338 L -96.680454,45.410499 L -96.662258,45.409011 L -96.65043,45.410298 L -96.644462,45.408892 L -96.635889,45.409943 L -96.619752,45.408884 L -96.60118,45.403181 L -96.578879,45.392295 L -96.562142,45.38609 L -96.545973,45.38105 L -96.530944,45.378495 L -96.521787,45.375645 L -96.510531,45.368498 L -96.502006,45.365473 L -96.489065,45.357071 L -96.480258,45.340739 L -96.469246,45.324941 L -96.468027,45.318619 L -96.46191,45.313884 L -96.453097,45.300751 L -96.452296,45.19628 L -96.452684,45.182322 L -96.452071,45.151078 L -96.452626,45.125274 L -96.452097,45.076839 L -96.451995,45.001698 L -96.451826,44.890258 L -96.45144,44.806361 L -96.451871,44.790488 L -96.451234,44.718273 L -96.451474,44.703171 L -96.45182,44.543652 L -96.45207,44.531551 L -96.451873,44.460719 L -96.45206,44.385727 L -96.452571,44.282432 L -96.452767,44.15475 L -96.453159,44.093851 L -96.453085,44.000975 L -96.453533,43.906408 L -96.452988,43.849507 L -96.452873,43.820443 L -96.45328,43.77682 L -96.45347,43.67496 L -96.453359,43.587702 L -96.45326004165615,43.50040514201162 L -96.356196,43.500295 L -96.22829950607655,43.50025915576794 L -96.120224,43.500146 L -95.978286,43.500067 L -95.754034,43.499917 L -95.5854696215618,43.49990637264345 L -95.52205779378302,43.499975733253606 L -95.454614,43.500647 L -95.433839,43.500113 L -95.251028,43.500603 L -95.244844,43.501196 L -95.21128,43.500815 L -95.167907,43.501019 L -95.154936,43.500448 L -95.082454,43.50101 L -94.914582,43.500853 L -94.824375,43.500877 L -94.74746,43.501035 L -94.560835,43.500549 L -94.377367,43.500236 L -94.251081,43.50012 L -94.106864,43.500128 L -94.010752,43.499916 L -93.868404,43.499749 L -93.70008,43.499675 L -93.497353,43.499622 L -93.300617,43.499461 L -93.06828144350604,43.499642262061975 L -92.946722,43.499775 L -92.828605,43.49992 L -92.732568,43.500043 L -92.55268400363893,43.50021838678449 L -92.464386,43.500281 L -92.418822,43.500615 L -92.38741646413067,43.500494081469434 L -92.222514,43.500614 L -92.117583,43.500806 L -92.03047093624102,43.50062513645947 L -91.90972,43.500819 L -91.807175,43.500647 L -91.761252,43.500829 L -91.632178,43.500441 L -91.625611,43.500727 L -91.445684,43.500633 L -91.397319,43.500887 L -91.376629,43.500501 L -91.267696,43.500923 L -91.217706,43.50055 Z M -89.592058,47.966683 L -89.586394,47.958782 L -89.554081,47.972258 L -89.559263,47.979368 L -89.580334,47.977775 L -89.583647,47.972486 L -89.592058,47.966683 Z" fill="none" stroke=currentColor stroke-width="1" vector-effect="non-scaling-stroke"/>
</svg>