<svg viewBox="-96.4422776 -41.281213599999994 8.010883199999995 5.953042199999992" xmlns="http://www.w3.org/2000/svg">
  <path d="M -89.132915,36.982057 L -89.141562,36.978897 L -89.149882,36.977636 L -89.170009,36.970298 L -89.185491,36.973518 L -89.192097,36.979995 L -89.195279,36.993407 L -89.195029,37.000051 L -89.198488,37.011723 L -89.203408,37.018856 L -89.225482,37.031077 L -89.237111,37.041012 L -89.245648,37.057783 L -89.25493,37.072014 L -89.259935,37.06407 L -89.280362,37.065222 L -89.307726,37.069654 L -89.310819,37.057897 L -89.307397,37.050432 L -89.301368,37.044982 L -89.291185,37.040408 L -89.277715,37.03614 L -89.266286,37.028683 L -89.260003,37.023288 L -89.257608,37.015496 L -89.263527,37.00005 L -89.266242,36.996302 L -89.278628,36.98867 L -89.29213,36.992189 L -89.317168,37.012767 L -89.331164,37.019936 L -89.345996,37.025521 L -89.362397,37.030156 L -89.376632,37.038482 L -89.384681,37.048251 L -89.38506450109168,37.05797731511708 L -89.376432,37.077696 L -89.375615,37.085936 L -89.37871,37.094586 L -89.384175,37.103267 L -89.388976,37.108277 L -89.408419,37.119949 L -89.414471,37.12505 L -89.42558,37.138235 L -89.435202,37.15209 L -89.438275,37.161287 L -89.456105,37.18812 L -89.461862,37.199517 L -89.467631,37.2182 L -89.4675,37.221844 L -89.457832,37.242594 L -89.460692,37.250577 L -89.470525,37.253357 L -89.489915,37.251315 L -89.502303,37.263738 L -89.515362,37.278909 L -89.518469,37.286256 L -89.512833,37.308478 L -89.508174,37.315662 L -89.497279,37.322828 L -89.491194,37.331361 L -89.484211,37.335646 L -89.474569,37.338165 L -89.451303,37.339596 L -89.43604,37.344441 L -89.431858,37.348309 L -89.428185,37.356158 L -89.420542,37.388007 L -89.420939,37.393952 L -89.426522,37.408998 L -89.43413,37.426847 L -89.439769,37.4372 L -89.450969,37.450069 L -89.471201,37.466473 L -89.489696,37.490402 L -89.497689,37.504948 L -89.500096,37.512762 L -89.508372,37.525756 L -89.516447,37.535558 L -89.521697,37.557325 L -89.520804,37.581154 L -89.513943,37.584815 L -89.494051,37.580116 L -89.481118,37.582973 L -89.47603,37.590226 L -89.478399,37.598869 L -89.487793,37.609167 L -89.497097,37.616177 L -89.506563,37.62505 L -89.510526,37.631754 L -89.515649,37.636445 L -89.517718,37.641217 L -89.51586,37.645555 L -89.516827,37.656089 L -89.516146,37.667975 L -89.51204,37.680985 L -89.512009,37.685525 L -89.516685,37.692762 L -89.52573,37.698441 L -89.573516,37.709065 L -89.581585,37.712341 L -89.587211,37.717509 L -89.595238,37.731169 L -89.598628,37.734429 L -89.615744,37.742725 L -89.618067,37.74982 L -89.626332,37.749046 L -89.63337,37.745782 L -89.64953,37.745496 L -89.660061,37.74824 L -89.665546,37.752095 L -89.667868,37.760257 L -89.660714,37.777462 L -89.66038,37.786296 L -89.669644,37.799922 L -89.677605,37.805066 L -89.706751,37.81906 L -89.717442,37.825723 L -89.727243,37.833212 L -89.739875,37.846921 L -89.754099,37.846353 L -89.7652,37.851763 L -89.774305,37.852127 L -89.781991,37.855053 L -89.786326,37.851689 L -89.793737,37.857063 L -89.797542,37.862128 L -89.799821,37.871343 L -89.797696,37.874392 L -89.799329,37.881516 L -89.813636,37.887696 L -89.837169,37.90232 L -89.844786,37.905572 L -89.850524,37.904172 L -89.861877,37.897684 L -89.879688,37.880736 L -89.898338,37.870931 L -89.905631,37.869393 L -89.9253,37.871153 L -89.937826,37.87498 L -89.94799,37.879997 L -89.9536,37.885091 L -89.974186,37.919509 L -89.97481322832772,37.926233243660874 L -89.965813,37.933011 L -89.962383,37.933775 L -89.9596686839505,37.94002567223573 L -89.947322,37.940283 L -89.936973,37.946773 L -89.931267,37.948277 L -89.924738,37.9552 L -89.925085,37.960021 L -89.935885,37.959581 L -89.940687,37.970874 L -89.965046,37.964393 L -89.988108,37.961749 L -89.996848,37.963219 L -90.007936,37.97011 L -90.024242,37.988131 L -90.031795,37.995126 L -90.051941,38.005432 L -90.057269,38.014362 L -90.065045,38.016875 L -90.080959,38.015428 L -90.08972,38.016216 L -90.099098,38.020196 L -90.11073272584912,38.026702878299716 L -90.119106,38.033268 L -90.126532,38.041665 L -90.126006,38.050569 L -90.128159,38.059645 L -90.130788,38.062341 L -90.158273,38.07495 L -90.163413,38.074346 L -90.17222,38.069636 L -90.17883,38.071886 L -90.217019,38.093466 L -90.242574,38.112125 L -90.252666,38.127812 L -90.274843,38.157559 L -90.290629,38.170363 L -90.300329,38.175139 L -90.316876,38.179477 L -90.327218,38.184311 L -90.334172,38.189857 L -90.352362,38.211828 L -90.358628,38.221981 L -90.362244,38.231173 L -90.366948,38.248344 L -90.367673,38.258115 L -90.372422,38.283725 L -90.372554,38.300418 L -90.371516,38.306191 L -90.372626,38.316162 L -90.370819,38.333554 L -90.364361,38.347514 L -90.355942,38.36046 L -90.349222,38.377333 L -90.341446,38.388298 L -90.325839,38.400963 L -90.31117,38.415679 L -90.29687,38.424808 L -90.289901,38.433136 L -90.285673,38.445663 L -90.279191,38.471872 L -90.278531,38.477682 L -90.274711,38.486607 L -90.26876,38.507189 L -90.264123,38.520728 L -90.257782,38.532012 L -90.248905,38.544781 L -90.224717,38.574451 L -90.216704,38.57878 L -90.201658,38.589434 L -90.191803,38.59898 L -90.1849962016957,38.610730969255094 L -90.178889,38.628917 L -90.177727,38.642027 L -90.182537,38.66512 L -90.186375,38.674702 L -90.195202,38.687579 L -90.202202,38.693479 L -90.209202,38.702779 L -90.212002,38.711779 L -90.20991,38.72605 L -90.205177,38.7322 L -90.191301,38.742978 L -90.183609,38.746749 L -90.176301,38.754478 L -90.175121,38.760179 L -90.166364,38.772675 L -90.146708,38.783049 L -90.123107,38.798048 L -90.117707,38.805748 L -90.114707,38.815048 L -90.109107,38.837448 L -90.109407,38.843548 L -90.113327,38.849306 L -90.131907,38.857948 L -90.140108,38.862748 L -90.151508,38.867148 L -90.166409,38.876348 L -90.186909,38.885048 L -90.19266294262802,38.88648814921731 L -90.19761,38.887648 L -90.223041,38.907389 L -90.241703,38.914828 L -90.250248,38.919344 L -90.262792,38.920344 L -90.269872,38.922556 L -90.283712,38.924048 L -90.2945,38.923434 L -90.309454,38.92412 L -90.319617,38.928873 L -90.327688,38.931061 L -90.346442,38.94079 L -90.392721,38.959071 L -90.406367,38.962554 L -90.42978,38.963778 L -90.4395219339112,38.96728456662835 L -90.450813,38.967769 L -90.462411,38.964322 L -90.472122,38.958838 L -90.48184,38.945431 L -90.482725,38.934712 L -90.487058,38.925862 L -90.499672,38.910605 L -90.507451,38.902767 L -90.516963,38.898818 L -90.538587,38.879742 L -90.546831,38.874009 L -90.561021,38.869476 L -90.577576,38.868384 L -90.586652,38.871387 L -90.623356,38.887149 L -90.628485,38.891617 L -90.635896,38.903941 L -90.64729,38.912095 L -90.663018,38.926283 L -90.663424,38.935551 L -90.668089,38.943003 L -90.669229,38.948176 L -90.674322,38.95773 L -90.676342,38.964414 L -90.675941,38.982611 L -90.679027,38.993867 L -90.688813,39.007342 L -90.692403,39.016656 L -90.700595,39.029074 L -90.707885,39.042262 L -90.71158,39.046798 L -90.712541,39.057064 L -90.702943,39.064545 L -90.698282,39.074649 L -90.686237,39.084989 L -90.681994,39.090066 L -90.681086,39.10059 L -90.684518,39.113567 L -90.68739,39.11991 L -90.700464,39.135439 L -90.705168,39.143152 L -90.709146,39.155111 L -90.709953,39.172924 L -90.71437,39.185308 L -90.717404,39.197414 L -90.717113,39.213912 L -90.721475,39.223135 L -90.721188,39.230176 L -90.726981,39.251173 L -90.72996,39.255894 L -90.736005,39.260386 L -90.751599,39.265432 L -90.768877,39.281512 L -90.776798,39.29362 L -90.783789,39.297164 L -90.790675,39.302908 L -90.793461,39.309498 L -90.799346,39.313087 L -90.816851,39.320496 L -90.821306,39.323659 L -90.840106,39.340438 L -90.8475,39.345272 L -90.87608,39.359478 L -90.89049,39.365524 L -90.896462,39.369176 L -90.906798,39.380394 L -90.920976,39.383687 L -90.928745,39.387544 L -90.934007,39.392127 L -90.93851093144285,39.402122700454896 L -90.944942,39.406247 L -90.957459,39.408996 L -90.972465,39.414144 L -90.98302,39.420462 L -90.993789,39.422959 L -91.002603,39.427082 L -91.02361,39.438694 L -91.03827,39.448435 L -91.057114,39.466086 L -91.062414,39.474122 L -91.064305,39.494643 L -91.075309,39.502845 L -91.086292,39.517141 L -91.092869,39.529275 L -91.100911,39.539001 L -91.126638,39.542227 L -91.149218,39.546099 L -91.153628,39.548248 L -91.168419,39.564928 L -91.174651,39.593313 L -91.181936,39.602677 L -91.185921,39.605119 L -91.199099,39.609127 L -91.223328,39.617603 L -91.23974,39.628648 L -91.248779,39.64088 L -91.260475,39.649024 L -91.264329,39.654374 L -91.27614,39.665759 L -91.283329,39.670134 L -91.301603,39.679068 L -91.306693,39.684865 L -91.317814,39.692591 L -91.331603,39.700433 L -91.347253,39.71048 L -91.354473,39.716229 L -91.367753,39.729029 L -91.370102,39.733321 L -91.369839,39.745702 L -91.36522815694835,39.75954627433934 L -91.365906,39.764956 L -91.364848,39.779388 L -91.361744,39.785079 L -91.363444,39.792804 L -91.367966,39.800403 L -91.376488,39.810033 L -91.407793,39.827581 L -91.428469,39.837626 L -91.433798,39.841865 L -91.436529,39.847078 L -91.441343,39.861983 L -91.446685,39.871642 L -91.447844,39.877951 L -91.443513,39.893583 L -91.420878,39.914865 L -91.418807,39.922126 L -91.41989589694775,39.929084609010665 L -91.427499,39.93954 L -91.43709,39.946417 L -91.443447,39.953675 L -91.449806,39.965278 L -91.459533,39.979892 L -91.463683,39.981845 L -91.469247,39.995327 L -91.47636,40.007725 L -91.487122,40.022692 L -91.494878,40.036453 L -91.489606,40.057435 L -91.495365,40.070951 L -91.510604,40.125045 L -91.51159,40.149269 L -91.508224,40.157665 L -91.511956,40.170441 L -91.513079,40.178537 L -91.509551,40.191338 L -91.504477,40.198262 L -91.506664,40.204758 L -91.506947,40.21555 L -91.504282,40.224299 L -91.504289,40.231712 L -91.506501,40.236304 L -91.503231,40.243474 L -91.498869,40.246715 L -91.490524,40.259498 L -91.492891,40.269923 L -91.492727,40.278217 L -91.489868,40.286048 L -91.48245,40.300583 L -91.477083,40.308254 L -91.469656,40.322409 L -91.466999,40.333285 L -91.46214,40.342414 L -91.446308,40.361823 L -91.439342,40.366569 L -91.426632,40.371988 L -91.419422,40.378264 L -91.425662,40.382491 L -91.441243,40.386255 L -91.448742,40.376804 L -91.463895,40.375659 L -91.465891,40.378365 L -91.464017,40.385636 L -91.480251,40.381783 L -91.48480440147245,40.384215654942366 L -91.490912,40.39298 L -91.487829,40.403866 L -91.498093,40.401926 L -91.505272,40.403512 L -91.509063,40.406775 L -91.524612,40.410765 L -91.526555,40.419872 L -91.519517,40.429917 L -91.519935,40.433673 L -91.527645,40.433772 L -91.532603,40.436647 L -91.533548,40.440804 L -91.524053,40.448437 L -91.523864,40.456331 L -91.526155,40.458625 L -91.548366,40.45823 L -91.563844,40.460988 L -91.574734,40.465655 L -91.580355,40.471015 L -91.586884,40.487233 L -91.594644,40.494997 L -91.608347,40.50004 L -91.616948,40.504794 L -91.621353,40.510072 L -91.622192,40.517039 L -91.618793,40.526286 L -91.618999,40.539084 L -91.625161,40.5435 L -91.654345,40.549189 L -91.670993,40.550937 L -91.681714,40.553035 L -91.690804,40.559893 L -91.691557,40.564839 L -91.685723,40.576785 L -91.68882,40.583409 L -91.696359,40.588148 L -91.712025,40.595046 L -91.720058,40.601527 L -91.729115,40.61364 L -91.750164,40.612724 L -91.824199,40.610304 L -91.8684,40.608056 L -91.936804,40.606211 L -91.947709,40.605471 L -92.012646,40.604299 L -92.096611,40.601831 L -92.17978,40.600529 L -92.201819,40.59998 L -92.298774,40.598468 L -92.379576,40.596469 L -92.436705,40.59537 L -92.461461,40.595377 L -92.557642,40.592972 L -92.587073,40.591966 L -92.659409,40.590341 L -92.714596,40.589427 L -92.781317,40.58859 L -92.8752,40.588392 L -92.961591,40.587337 L -93.0135,40.586297 L -93.120004,40.583272 L -93.18371,40.581999 L -93.275488,40.580748 L -93.317486,40.580674 L -93.441647,40.579951 L -93.485195,40.580386 L -93.547578,40.580407 L -93.625221,40.578812 L -93.728355,40.577547 L -93.815485,40.577277 L -93.863037,40.57642 L -94.003323,40.574096 L -94.07214,40.573026 L -94.110406,40.572901 L -94.282994,40.571469 L -94.29417,40.571656 L -94.37204113897897,40.57125244206012 L -94.389203,40.571453 L -94.489109,40.570706 L -94.594196,40.57096 L -94.674848,40.571803 L -94.815863,40.573683 L -94.966491,40.575839 L -94.99166,40.575692 L -95.087726,40.577118 L -95.131592,40.577503 L -95.249191,40.579206 L -95.316264,40.57969 L -95.373923,40.580503 L -95.488144,40.581733 L -95.610881,40.583491 L -95.647973,40.584398 L -95.68631,40.584328 L -95.765645,40.585208 L -95.773549,40.578205 L -95.774704,40.573574 L -95.771776,40.566133 L -95.76503,40.556921 L -95.763624,40.548298 L -95.769281,40.536656 L -95.76692,40.531563 L -95.75711,40.52599 L -95.74868,40.524275 L -95.73725,40.52393 L -95.722444,40.528118 L -95.714291,40.527208 L -95.708591,40.521551 L -95.697202,40.528475 L -95.6951301521385,40.53294416209233 L -95.697377,40.541389 L -95.694147,40.556942 L -95.687021,40.560669 L -95.671776,40.562628 L -95.665495,40.556697 L -95.662107,40.549967 L -95.655848,40.546609 L -95.652269,40.538108 L -95.655674,40.523557 L -95.661681,40.517312 L -95.699969,40.505275 L -95.695401,40.497605 L -95.694707,40.489461 L -95.696756,40.478849 L -95.693133,40.469396 L -95.684363,40.463366 L -95.67214,40.457077 L -95.659734,40.444484 L -95.655706,40.435945 L -95.655964,40.429873 L -95.66144,40.415917 L -95.659081,40.40862 L -95.649418,40.396149 L -95.643935,40.386851 L -95.642124,40.378213 L -95.642414,40.369829 L -95.636991,40.36136 L -95.628924,40.355032 L -95.624882,40.349311 L -95.622684,40.342323 L -95.624015,40.336226 L -95.633807,40.329297 L -95.647931,40.325556 L -95.653729,40.322582 L -95.657764,40.315788 L -95.657328,40.310856 L -95.651507,40.306684 L -95.645329,40.305693 L -95.63631,40.307675 L -95.615653,40.314153 L -95.607921,40.313521 L -95.598657,40.309809 L -95.590165,40.303199 L -95.581787,40.29958 L -95.570693,40.299426 L -95.558732,40.295774 L -95.553292,40.291158 L -95.551488,40.281061 L -95.556275,40.270761 L -95.552473,40.261904 L -95.543737,40.260687 L -95.524172,40.251129 L -95.516107,40.249187 L -95.493405,40.24956 L -95.484817,40.247469 L -95.478694,40.243661 L -95.472548,40.236078 L -95.469718,40.227908 L -95.4699,40.2227 L -95.473469,40.213482 L -95.481317,40.203084 L -95.48254,40.192283 L -95.47792,40.183844 L -95.469466,40.175578 L -95.458754,40.168251 L -95.440694,40.162282 L -95.436348,40.15872 L -95.433822,40.152935 L -95.431351,40.139163 L -95.427409,40.134608 L -95.41955,40.131049 L -95.405734,40.129448 L -95.396549,40.124701 L -95.393347,40.119212 L -95.393062,40.111175 L -95.397146,40.105183 L -95.408552,40.096989 L -95.410751,40.091043 L -95.408715,40.082899 L -95.410426,40.073532 L -95.420281,40.064166 L -95.421355,40.056653 L -95.418608,40.046751 L -95.415106,40.040341 L -95.407261,40.033112 L -95.395858,40.028038 L -95.382232,40.027289 L -95.363983,40.031498 L -95.356876,40.031522 L -95.346573,40.028272 L -95.336242,40.019104 L -95.328501,40.015657 L -95.318015,40.013216 L -95.312211,40.009395 L -95.30829,39.999998 L -95.308326,39.993796 L -95.301613,39.984 L -95.289654,39.977799 L -95.272335,39.971038 L -95.261854,39.960618 L -95.257652,39.954886 L -95.250254,39.948644 L -95.241383,39.944949 L -95.231114,39.943784 L -95.220248,39.944431 L -95.205266,39.93975 L -95.201109,39.934664 L -95.200463,39.925784 L -95.206063,39.912061 L -95.203477,39.905654 L -95.189561,39.900145 L -95.179453,39.900062 L -95.172222,39.901685 L -95.159834,39.906984 L -95.15335814162884,39.906864850717994 L -95.146055,39.904183 L -95.142251,39.897033 L -95.143403,39.889356 L -95.139679,39.880592 L -95.134747,39.876852 L -95.121137,39.872009 L -95.110849,39.870989 L -95.085003,39.861883 L -95.075046,39.861562 L -95.035246,39.865921 L -95.026747,39.872273 L -95.024901,39.877255 L -95.025947,39.886747 L -95.024389,39.891202 L -95.015135,39.899643 L -95.005329,39.900574 L -94.987059,39.89632 L -94.977788,39.89732 L -94.963486,39.90105 L -94.955178,39.901288 L -94.943867,39.89813 L -94.934907,39.893784 L -94.927897,39.886112 L -94.927351,39.879836 L -94.930471,39.873562 L -94.940671,39.865197 L -94.94296,39.859457 L -94.939854,39.852044 L -94.92375,39.839674 L -94.916766,39.835807 L -94.90634,39.833736 L -94.891481,39.834644 L -94.883658,39.831665 L -94.87666,39.822522 L -94.87632679569893,39.8071692688172 L -94.880644,39.797894 L -94.890528,39.791425 L -94.89977269348167,39.79040681116296 L -94.925301,39.789795 L -94.934021,39.785083 L -94.93578,39.778909 L -94.934644,39.773144 L -94.920693,39.762938 L -94.912293,39.759338 L -94.905444,39.759514 L -94.891669,39.764705 L -94.883691,39.770375 L -94.869655,39.772899 L -94.863767,39.768138 L -94.860639,39.762983 L -94.859035,39.754116 L -94.862735,39.742195 L -94.86774,39.736042 L -94.875634,39.730492 L -94.891744,39.724894 L -94.902612,39.724202 L -94.916989,39.728209 L -94.927381,39.733786 L -94.941804,39.743367 L -94.955286,39.745689 L -94.965318,39.739065 L -94.970422,39.732121 L -94.971334,39.725706 L -94.968453,39.707402 L -94.969333,39.69073 L -94.975445,39.682058 L -94.981565,39.678636 L -94.99199,39.676758 L -95.00703,39.67604 L -95.01531,39.674262 L -95.024595,39.668485 L -95.030731,39.661963 L -95.039049,39.649639 L -95.049518,39.637876 L -95.053367,39.630347 L -95.055152,39.621657 L -95.05361,39.615322 L -95.047911,39.606288 L -95.046688,39.596752 L -95.05059,39.587563 L -95.056897,39.580567 L -95.063392,39.577474 L -95.07216,39.576122 L -95.09215,39.581116 L -95.103228,39.577783 L -95.107474,39.573743 L -95.1129,39.559621 L -95.113117,39.55211 L -95.106596,39.537657 L -95.092704,39.524241 L -95.077441,39.513552 L -95.0593,39.506473 L -95.050552,39.497514 L -95.04837,39.48042 L -95.044668,39.471256 L -95.033408,39.460876 L -95.014861,39.452868 L -95.000241,39.449763 L -94.990172,39.446192 L -94.982144,39.440552 L -94.978052,39.43441 L -94.976606,39.426701 L -94.972952,39.421705 L -94.964489,39.416718 L -94.954817,39.413844 L -94.946293,39.405646 L -94.946227,39.395648 L -94.942039,39.389499 L -94.930574,39.38506 L -94.919225,39.385174 L -94.901823,39.392798 L -94.888972,39.392432 L -94.880979,39.383899 L -94.879088,39.375703 L -94.884922,39.366511 L -94.900656,39.361359 L -94.908289,39.355639 L -94.910641,39.348335 L -94.907904,39.323451 L -94.903976,39.308586 L -94.898516,39.29845 L -94.884093,39.284512 L -94.880399,39.282207 L -94.857718,39.274106 L -94.84632,39.268481 L -94.832002,39.256978 L -94.827479,39.249896 L -94.825663,39.241729 L -94.827055,39.235489 L -94.834896,39.223842 L -94.831679,39.215938 L -94.821935,39.209669 L -94.80848,39.206478 L -94.782951,39.207162 L -94.777838,39.203522 L -94.76709,39.184842 L -94.762858,39.179991 L -94.752803,39.173493 L -94.735743,39.169191 L -94.723637,39.169003 L -94.714137,39.170403 L -94.705523,39.1738 L -94.688788,39.183228 L -94.673903,39.183554 L -94.665277,39.180378 L -94.659162,39.174126 L -94.661397,39.162742 L -94.65921,39.157841 L -94.650647,39.154092 L -94.635552,39.154082 L -94.623565,39.156755 L -94.61548,39.160147 L -94.606455,39.160827 L -94.593846,39.156828 L -94.588658,39.151163 L -94.588964,39.143007 L -94.591081,39.136839 L -94.605116,39.123259 L -94.608519,39.116244 L -94.607354,39.113444 L -94.607223,39.089709 L -94.607167,39.064601 L -94.607994,38.987619 L -94.608437,38.978724 L -94.607981,38.936847 L -94.608033,38.847207 L -94.607673,38.825816 L -94.608172,38.811095 L -94.60858898502333,38.76857110365626 L -94.611902,38.601628 L -94.612399,38.506343 L -94.613356,38.457967 L -94.613232,38.388718 L -94.612724,38.31721 L -94.612503,38.220379 L -94.613474,38.167994 L -94.61406,38.067602 L -94.614111,37.973797 L -94.615716,37.878645 L -94.617663,37.775865 L -94.61788843613391,37.714656382431556 L -94.617503,37.636691 L -94.617207,37.550501 L -94.61673,37.508811 L -94.617464,37.406092 L -94.61756986308355,37.36416999821243 L -94.617867,37.313022 L -94.618313,37.194687 L -94.617835,37.060072 L -94.617964,36.998905 L -94.618061,36.89708 L -94.618471,36.816364 L -94.618273,36.737727 L -94.617957,36.648434 L -94.617709,36.624745 L -94.617985,36.53266 L -94.61777126855124,36.499532 L -94.55931,36.499496 L -94.497594,36.498972 L -94.44408910544624,36.49944964222428 L -94.371911,36.499614 L -94.269074,36.49918 L -94.142533,36.498646 L -94.077089,36.498669 L -93.899589,36.4989 L -93.866689,36.498735 L -93.7277565631729,36.49922518412088 L -93.634726,36.499055 L -93.54755,36.499305 L -93.489236,36.498938 L -93.418541,36.498852 L -93.384272,36.49854 L -93.293174,36.498433 L -93.192448,36.49799 L -93.137471,36.497853 L -93.101314,36.498121 L -93.0175,36.498193 L -92.970368,36.497953 L -92.86933,36.497851 L -92.77233887474074,36.49784418045924 L -92.732278,36.497865 L -92.55984,36.4983 L -92.470416,36.498762 L -92.41951426095693,36.49793053166549 L -92.384927,36.497845 L -92.374737,36.497302 L -92.308524,36.497661 L -92.246645,36.498199 L -92.115179,36.498824 L -91.99796,36.498418 L -91.915578,36.498849 L -91.83842110764039,36.49891011624193 L -91.740773,36.499381 L -91.54038,36.49922 L -91.485295,36.498515 L -91.436545,36.49737 L -91.407259,36.497091 L -91.308764,36.497433 L -91.199931,36.497462 L -91.126522,36.497665 L -90.999125,36.49831 L -90.924933,36.498452 L -90.888418,36.498224 L -90.807408,36.498834 L -90.801232,36.498606 L -90.726291,36.498539 L -90.698071,36.498237 L -90.659143,36.498647 L -90.494217,36.498353 L -90.468672,36.498631 L -90.39386,36.498075 L -90.317782,36.498104 L -90.245906,36.497809 L -90.152307,36.497982 L -90.156961,36.494066 L -90.157206,36.484311 L -90.159244,36.479711 L -90.143156,36.475186 L -90.145061,36.469109 L -90.152147,36.47022 L -90.155593,36.466435 L -90.144763,36.462964 L -90.134172,36.453071 L -90.137268,36.450189 L -90.134054,36.438699 L -90.138501,36.43126 L -90.142567,36.43131 L -90.14434,36.42538 L -90.137401,36.421417 L -90.134905,36.417572 L -90.136868,36.41328 L -90.122084,36.410785 L -90.111354,36.407654 L -90.109462,36.40379 L -90.10416,36.40535 L -90.082044,36.401237 L -90.073754,36.392769 L -90.065907,36.387529 L -90.063698,36.384185 L -90.066733,36.378111 L -90.064023,36.375278 L -90.066504,36.358659 L -90.07581,36.349835 L -90.074339,36.344071 L -90.078366,36.33732 L -90.075459,36.334345 L -90.079298,36.327518 L -90.08027,36.319995 L -90.074186,36.317533 L -90.069487,36.313254 L -90.064193,36.302502 L -90.074625,36.291032 L -90.079015,36.289868 L -90.075747,36.281209 L -90.079735,36.278661 L -90.083795,36.271938 L -90.096556,36.271192 L -90.106538,36.265859 L -90.112721,36.26634 L -90.117175,36.262992 L -90.118402,36.253624 L -90.121999,36.246468 L -90.130876,36.240998 L -90.1248,36.235263 L -90.127742,36.229726 L -90.13241,36.226432 L -90.142393,36.227327 L -90.143966,36.223462 L -90.149016,36.221789 L -90.152239,36.215647 L -90.157393,36.213568 L -90.161325,36.215544 L -90.170174,36.212367 L -90.182296,36.205405 L -90.188214,36.20534 L -90.190186,36.201384 L -90.200979,36.195423 L -90.204624,36.186747 L -90.211359,36.183099 L -90.219965,36.184727 L -90.229638,36.172958 L -90.231608,36.164775 L -90.235347,36.15954 L -90.231231,36.153739 L -90.231397,36.146949 L -90.234929,36.145189 L -90.235445,36.139395 L -90.245556,36.136188 L -90.245307,36.133594 L -90.253267,36.127312 L -90.260517,36.127388 L -90.266525,36.120021 L -90.292928,36.114499 L -90.293985,36.109734 L -90.298158,36.107317 L -90.3007,36.097417 L -90.312314,36.094503 L -90.320618,36.086854 L -90.318537,36.075164 L -90.321361,36.07093 L -90.333131,36.067657 L -90.336278,36.060809 L -90.333277,36.05741 L -90.343299,36.043544 L -90.348208,36.041573 L -90.348275,36.035051 L -90.353541,36.028766 L -90.351356,36.026823 L -90.356565,36.019807 L -90.369282,36.008107 L -90.3779,35.995745 L -90.26509,35.996586 L -90.20165847384798,35.99713677278896 L -90.003817,35.999018 L -89.92173797514623,35.999373774433806 L -89.769782,36.000722 L -89.7330085844988,36.00070766146198 L -89.706932,36.000981 L -89.705677,36.005018 L -89.692437,36.020507 L -89.687254,36.034048 L -89.684439,36.051719 L -89.681946,36.072336 L -89.680029,36.082494 L -89.672463,36.091837 L -89.666598,36.095802 L -89.64302,36.10362 L -89.628305,36.106853 L -89.598946,36.121778 L -89.59307,36.129699 L -89.591632,36.142135 L -89.592206,36.15012 L -89.59845,36.161421 L -89.607004,36.171179 L -89.618228,36.179966 L -89.636894,36.188951 L -89.654876,36.20153 L -89.679548,36.215911 L -89.69263,36.224959 L -89.70525,36.236568 L -89.705328,36.239898 L -89.698568,36.250591 L -89.695235,36.252766 L -89.686229,36.249507 L -89.678043,36.248287 L -89.651407,36.250683 L -89.63679,36.248079 L -89.611145,36.239271 L -89.602374,36.238106 L -89.587326,36.239484 L -89.573928,36.243843 L -89.564124,36.250479 L -89.557991,36.251037 L -89.545758,36.247501 L -89.538446,36.249233 L -89.534679,36.252979 L -89.534507,36.261803 L -89.536441,36.272827 L -89.543831,36.280217 L -89.555036,36.278008 L -89.578492,36.288317 L -89.584337,36.29334 L -89.611819,36.309088 L -89.62016596690144,36.3228056096104 L -89.6198,36.329546 L -89.615841,36.336085 L -89.610689,36.340442 L -89.600544,36.342985 L -89.581636,36.342357 L -89.560439,36.337746 L -89.545006,36.336809 L -89.531822,36.339246 L -89.522695,36.344789 L -89.519,36.3486 L -89.513178,36.359897 L -89.509722,36.373626 L -89.513956,36.384891 L -89.525293,36.400446 L -89.542337,36.420103 L -89.545255,36.427079 L -89.543406,36.43877 L -89.527274,36.451545 L -89.523427,36.456572 L -89.51972,36.467002 L -89.520642,36.478668 L -89.534524,36.491432 L -89.539232,36.497934 L -89.560412,36.524406 L -89.565619,36.535154 L -89.570763,36.548823 L -89.57076488112081,36.557359452640725 L -89.565328,36.567259 L -89.557574,36.574297 L -89.551119,36.578074 L -89.542616,36.580703 L -89.530638,36.58171 L -89.518509,36.577854 L -89.503568,36.575951 L -89.488106,36.572925 L -89.48052811142063,36.569466010382385 L -89.472861,36.55884 L -89.46782,36.546974 L -89.46539,36.534451 L -89.466646,36.527041 L -89.470526,36.51721 L -89.474986,36.509735 L -89.485427,36.497491 L -89.494119,36.476268 L -89.491894,36.467901 L -89.486193,36.462114 L -89.476643,36.458393 L -89.464433,36.457747 L -89.453514,36.461789 L -89.437421,36.474759 L -89.42736,36.485167 L -89.417275,36.499011 L -89.405246,36.529058 L -89.398453,36.542849 L -89.394918,36.561518 L -89.38271,36.583722 L -89.380447,36.591514 L -89.377608,36.609791 L -89.371915,36.620196 L -89.365797,36.625126 L -89.34935,36.630718 L -89.332034,36.632881 L -89.322433,36.629754 L -89.31645,36.624044 L -89.300379,36.602624 L -89.294675,36.593779 L -89.277943,36.576588 L -89.269546,36.569716 L -89.260855,36.565397 L -89.256538,36.564961 L -89.236308,36.566881 L -89.227046,36.569537 L -89.213874,36.579911 L -89.205966,36.593866 L -89.202771,36.601665 L -89.201265,36.616545 L -89.197753,36.628971 L -89.186856,36.642022 L -89.174727,36.650475 L -89.159118,36.666354 L -89.168798,36.671892 L -89.16811,36.685729 L -89.175711,36.694722 L -89.182953,36.699552 L -89.196835,36.712753 L -89.200647,36.718751 L -89.200552,36.732567 L -89.197856,36.739772 L -89.191296,36.747669 L -89.182027,36.755408 L -89.169785,36.759641 L -89.158554,36.756229 L -89.145521,36.756059 L -89.135789,36.751777 L -89.125967,36.751809 L -89.119992,36.758437 L -89.117076,36.765769 L -89.116983,36.775595 L -89.122725,36.784537 L -89.128711,36.787675 L -89.151465,36.788669 L -89.162494,36.79168 L -89.170563,36.797538 L -89.178223,36.808614 L -89.178855,36.833336 L -89.170443,36.84184 L -89.159005,36.842729 L -89.152681,36.847105 L -89.138109,36.847323 L -89.131934,36.857596 L -89.128248,36.868741 L -89.117115,36.888685 L -89.109099,36.920729 L -89.102451,36.938177 L -89.098968,36.956067 L -89.101038,36.967085 L -89.1092,36.976451 L -89.116609,36.981103 L -89.125352,36.983529 L -89.132915,36.982057 Z" fill="none" stroke=currentColor stroke-width="1" vector-effect="non-scaling-stroke"/>
</svg>