<?xml version="1.0"?>
<svg width="20" height="20" xmlns="http://www.w3.org/2000/svg" version="1.2" baseProfile="tiny" viewBox="-64.000 -187.000 928.000 928.000" stroke-linecap="round" stroke-linejoin="round">
<g id="state">
<path d="M 794.94 435.11 795.85 434.93 796.89 435.22 797.78 435.78 798.75 436.9 799 438.22 798.58 440.36 797.79 442.44 796.83 446.27 795.5 448.66 795.06 449.99 794.32 451.22 792.58 451.24 791.82 451.76 790.46 451.87 789.45 452.89 789.53 455.84 790.44 457.17 791.41 457.87 792.72 458.23 795.44 458.35 796.16 458.72 796.85 459.79 796.84 460.96 796.49 461.84 795.77 462.63 794.6 462.64 793.44 462.13 791.88 462.1 790.53 461.7 789.07 462.2 787.96 463.13 787.18 464.07 786.86 464.93 786.85 466.58 787.3 467.3 788.96 468.88 789.83 469.46 790.73 470.53 790.65 472.19 791.81 472.85 789.94 474.75 788.49 475.76 787.19 477.32 786.77 478.8 786.59 480.58 786.21 481.51 785.26 483.18 783.69 484.42 782.58 484.74 780.16 484.97 779.65 484.92 778.61 484.4 777.61 483.58 775.61 481.52 774.92 480.47 773 477.91 772.29 477.22 771.14 476.85 769.07 477.11 767.1 477.78 766.37 478.37 765.69 479.61 765.35 481.79 765.08 482.73 763.62 485.38 763.2 487.61 762.39 489.26 760.95 492.85 759.74 494.51 758.54 495.75 756.62 497.3 755.31 497.78 753.85 497.71 752.71 497.26 752.03 496.57 751.76 495.57 752.8 493.03 754.05 491.57 754.58 490.68 755.05 489.5 755.2 488.62 754.91 487.12 754.31 485.7 753.39 484.43 752.48 484.02 750.64 483.65 748.85 483.43 747.4 482.97 745.97 483.09 744.95 483.4 744.18 483.85 743.25 484.69 742.6 485.88 742.6 486.9 743.22 488.53 743.84 489.82 746.37 492.98 746.93 493.76 748.59 495.28 748.7 496.68 748.26 497.93 747.8 498.53 745.87 500.05 745.65 501.45 746 502.28 748.04 504.63 749.39 506.49 749.9 507.84 749.49 509.48 748.79 510.83 748.35 511.29 747.26 511.95 745.68 512.24 743.84 512.13 741.3 511.58 739.04 511.5 737.83 511.81 737.21 512.33 736.74 513.11 736.7 513.92 737.7 515.55 740.98 517.44 741.68 518.04 744.48 519.27 745.82 519.01 746.71 519.89 746.94 521.21 746.92 522.26 746.47 522.71 745.59 522.92 744.13 522.49 743.4 522.56 742.22 523.35 740.62 523.88 738.82 524.04 737.78 523.9 734.71 522.85 732.96 522.54 729.78 522.82 728.8 522.68 727.72 522.29 727.33 522.55 726.52 523.83 726.53 524.22 728.04 525.61 729.6 526.69 732.55 528.41 734.7 529.92 736.93 530.99 738.27 532.04 739.29 533.21 740.04 534.56 740.11 535.51 739.94 537 739.23 537.95 735.72 539.73 733.97 540.12 731.15 541.05 730.45 541.52 729.54 542.64 729.31 543.86 729.01 546.32 728.68 548.43 728.06 550.05 726.48 551.9 726.33 552.39 723.21 552.42 718.81 552.42 700.65 552.58 690.84 552.62 667.19 552.84 659.6 552.91 646.12 553.01 647.15 551.53 648.67 550.13 649.29 549.3 649.03 549.06 649.66 548.31 649.67 547.53 650.26 547.3 651.45 545.64 651.1 545.23 651.47 544.41 652.88 544.02 653.22 543.52 652.97 542.12 653.96 541.21 655.35 540.86 655.65 539.67 656.15 539.39 656.28 538.82 659.43 538.16 660.15 537.27 661.02 537.28 661.97 536.53 661.94 536.22 663.15 535.84 663.21 535.15 663.63 534.94 663.65 534.12 663.16 533.43 663.61 532.81 663.84 531.83 665 530.42 666.03 530.62 666.83 530.18 667.27 529.14 668.56 528.43 668.79 527.96 669.5 527.95 670.95 527.12 672.01 526.74 672.48 526.97 673.09 526.72 673.48 525.99 674.08 525.79 674.27 525.33 675.47 525.44 676.02 525.04 676.37 524.38 675.65 523.69 676.71 523.04 677.14 522.18 677.29 521.07 677.82 520.66 678.56 520.72 679.75 520.08 681.28 520 681.76 519.19 682.24 518.89 681.85 517.85 682.37 517.71 683.62 516.34 682.99 515.06 682.42 514.55 681.7 514.25 681.81 513.35 682.27 512.54 681.93 512.18 682.41 511.37 682.23 510.68 683.34 509.63 683.64 507.64 683.32 507.3 683.68 506.58 683.41 506.18 682.48 505.55 681.49 504.54 678.84 504.05 678.21 504.23 677.98 503.77 676.7 503.4 674.93 503.1 675.17 502.59 674.87 502.13 674.04 501.65 674.25 500.94 674.74 500.95 675.27 500.06 674.88 498.69 675.25 498.34 673.99 497.16 672.69 496.75 673.11 496.29 673.95 496.43 674.18 495.7 672.26 495.16 672.5 494.61 672.53 493.44 673.09 492.97 661.9 493 653.31 492.96 644.21 492.96 635.27 492.9 632.22 492.93 612.5 492.9 607.85 492.94 604.47 492.91 595.52 492.9 594.78 492.87 585.09 492.95 580.73 492.92 571.86 492.94 556.63 493.01 547.86 493.04 534.85 493.04 523.07 493.08 519.57 493.05 513.74 492.91 507.16 492.83 483.21 492.81 471.53 492.86 462.31 492.87 452.46 492.92 438.45 492.87 422.73 492.95 415.34 493.01 407.42 493.06 406.21 492.99 402.07 492.98 395.99 492.88 385.3 492.94 364.68 492.99 359.89 492.99 348.3 492.99 336.22 492.98 330.59 492.95 320.57 492.96 316.25 492.99 309.68 492.97 297.64 492.92 286.75 492.91 282.65 492.87 274.2 492.86 267.23 492.82 256.81 492.85 245.69 492.83 229.08 492.88 225.15 492.87 203.93 492.89 196.11 492.9 180.98 492.83 168.69 492.78 160.06 492.8 153.66 492.86 146.29 492.79 139.3 492.79 139.27 488.83 139.3 477.82 139.27 474.99 139.24 464.32 139.21 454.92 139.26 445.27 139.27 433.1 139.29 425.78 139.23 409.69 139.29 395.55 139.32 389.43 139.33 384.42 139.42 372.14 139.36 367.16 139.33 356.86 139.28 347.54 139.31 340.22 139.54 327.93 139.73 316.56 139.74 305.35 139.81 293.35 139.93 287.08 139.9 275.51 139.84 266.96 139.82 258.68 139.94 252.9 140 241.51 140.39 221.55 140.44 216.47 140.5 214.71 140.46 212.15 140.47 201.44 140.41 196.43 140.47 195.37 140.56 186.17 140.56 183.17 140.54 180.33 140.4 179.99 140.81 179.16 142.49 177.53 142.74 176.8 142.78 175.82 142.16 175.14 140.65 174.67 139.57 174.75 138.6 175.15 137.17 175.47 135.37 175.47 134.34 175.02 134.08 174.44 134.35 173.08 133.62 172.33 132.59 171.95 130.81 171.99 128.81 173.11 127.78 173.52 126.64 173.69 125.19 173.67 123.16 173.15 121.95 172.37 121.45 171.79 120.16 169.56 119.55 169.13 116.5 169.21 114.89 168.83 113.73 168.08 113.34 167.13 114.28 165.74 114.45 164.99 114.23 164.02 113.69 163.17 111.98 161.8 110.61 161.12 107.9 160.16 107.46 159.88 105.74 158.21 105.08 157 104.62 155.23 104.29 152.25 104.57 151.38 105.48 150.69 107.36 150.08 108.06 148.98 107.83 148 106.88 146.98 105.34 146.94 103.26 147.85 101.91 147.86 100.53 147.33 100.03 146.6 100.03 145.4 99.01 144.42 97.85 144.08 96.84 143.48 96.4 142.88 96.23 141.96 95.74 141.23 94.78 140.55 93.58 140.13 91.83 139.76 89.61 138.8 88.27 137.56 87.82 136.46 87.56 134.42 86.52 133.35 84.35 132.5 82.52 131.22 80.86 129.62 80.08 127.89 80.11 126.99 80.76 125.31 81.27 124.82 82.59 124.43 84.98 125.02 86.03 124.86 86.8 124.49 87.56 123.65 88.03 122.56 87.88 121.42 87.2 120.34 87.01 119.58 87.23 118.54 87.69 117.64 88.94 116.23 89.93 114.76 90.67 113.98 91.78 113.29 92.77 113.08 94.56 112.99 95.81 112.77 96.54 112.36 97.27 111.32 97.38 109.33 97.03 107.14 97.14 106.37 97.75 105.54 98.95 104.75 100.56 105.03 102.29 106.18 103.53 106.84 105.25 107.32 106.55 107.24 108.47 106.57 109.42 105.91 110.01 105.17 110.46 103.75 110.26 102.69 109.89 102.07 109.19 101.5 107.51 101.8 106.56 102.48 104.91 103.1 104.09 103.12 103.09 102.69 101.42 101.47 101.28 100.78 101.49 100.04 102.54 99.48 105.59 99.41 106.69 99.29 107.87 98.51 108.39 97.4 108.35 95.57 107.51 94.48 106.58 94.12 104.8 94.23 103.56 93.98 102.72 93.52 100.8 92.04 100.42 91.15 100.7 90.47 101.92 89.47 102.29 88.72 102.23 87.97 101.39 87.05 100.32 86.53 98.96 86.15 97.97 86.18 96.26 86.63 95.15 86.75 92.97 86.24 91.8 86.35 90.69 87.36 90.5 87.89 90.63 89.03 90.41 89.62 89.39 90.38 84.64 90.9 83.45 90.86 80.36 89.77 79.13 89.65 77.5 89.07 76.91 88.63 76.46 87.58 76.6 86.66 76.15 85.81 75.27 85.49 74.5 85.47 73.02 86.11 72.15 86.3 70.95 86.29 69.28 85.63 68.97 84.86 69.64 83.22 69.57 82.16 69.07 81.56 67.28 81 65.98 81.07 64.75 80.93 63.69 80.49 62.81 79.75 62.3 79.06 61.05 77.81 58.98 77.01 57.55 76.27 56.75 75.09 56.75 74.35 56.29 73.23 55.59 72.77 54.34 72.48 53.41 72.07 52.18 70.97 50.95 70.58 50.1 70.59 47.92 71.09 46.29 71 44.92 70.39 43.99 69.53 43.57 68.76 43.24 67.58 43.37 66.68 44.54 65.56 44.75 64.44 44.51 63.47 44.77 62.76 46.13 61.78 46.62 61.06 46.59 60.1 46.2 59.45 45.11 58.88 43.45 58.69 42.51 58.26 42.04 57.72 41.75 56.07 41.45 55.38 40.93 54.95 38.77 54.24 37.49 53.36 36.48 52.38 35.92 51.37 36.07 50.08 37.01 48.83 37.44 47.73 37.46 47.11 37.12 46.13 36.38 45.23 35.65 44.77 34.63 44.52 31.91 44.57 30.95 44.33 28.61 43.19 27.56 43.05 27.11 41.99 27.68 40.76 27.47 39.55 26.82 39 25.39 38.56 24.06 38.54 23.06 38.11 22.04 37.32 20.94 36.88 20.01 36.8 17.54 37.57 16.47 37.81 15.73 37.69 15.03 37.19 14.98 36.6 15.46 35.79 16.15 35.44 17.84 34.99 19.01 34.16 19.17 33.43 18.91 32.6 18.43 31.91 17.46 31.16 16.81 30.14 16.85 29.14 16.63 28.11 15.98 27 14.82 25.51 14.54 24.64 15.19 22.97 15.22 22.24 14.74 21.22 13.26 19.72 11.8 18.96 10.75 18.24 10.32 17.11 10.56 15.84 10.48 14.87 9.93 13.95 14.51 12.51 15.23 11.77 15.64 10.03 15.21 9.01 14.46 8.61 14.05 7.81 13.3 7.1 11.48 7.33 10.63 7.78 10.24 9.64 10.51 10.65 10.26 11.18 8.9 12.01 8.22 11.33 7.25 11.22 5.48 11.72 4.11 11.68 3.1 11.48 1.93 10.81 1.65 10.2 2.32 8.81 2.16 7.78 1.35 6.68 1 5.79 1.14 5.24 2.08 4.4 11.57 4.5 16.15 4.5 20.58 4.6 35.25 4.81 48.91 4.96 55.8 5.06 63.82 5.12 77.88 5.32 83.12 5.37 94.6 5.54 97.61 5.52 115.62 5.78 132.47 6 142.11 6.1 154.68 6.13 166.62 6.04 168.67 6.07 177.98 6.02 179.32 6.04 199.95 5.87 204.52 5.85 212.75 5.73 229.52 5.45 235.2 5.35 245.62 5.31 257.94 5.16 267.22 4.97 274.68 4.98 279.89 5.03 294.73 4.94 299.75 4.93 310.72 4.78 318.34 4.63 331.07 4.27 337.27 4.14 347.6 4.02 358.82 3.99 366.8 3.89 373.39 3.79 382.04 3.59 385.56 3.47 397.06 3.18 400.02 3.18 406.84 3.05 416.5 2.81 428.09 2.63 430.73 2.57 440.67 2.41 450.71 2.12 458.47 1.98 459.77 1.89 467.95 1.67 473.23 1.4 482.08 1.11 484.6 1 485.68 2.45 486.64 3.22 488.51 4.05 489.42 4.61 489.79 5.41 489.09 6.83 489.18 7.42 490.27 8.24 491.55 8.5 493.54 8.7 497.03 9.38 497.76 9.91 497.79 11.44 497.38 12.55 497.48 13.38 498.01 14.01 499.04 14.58 500.67 15.18 501.6 16.11 502.38 18.05 503.05 18.69 504.36 19.25 506.21 19.58 508.86 19.53 509.13 19.8 509.11 20.75 507.98 21.66 508.09 22.16 508.68 22.5 509.6 22.51 509.65 22.96 508.81 24.16 509.04 25.25 510.9 25.73 511.36 26.12 512.21 26.31 513.44 26.08 513.07 27.38 513.8 28.42 514.35 28.72 516.29 28.26 516.06 29.12 516.3 29.45 518.11 29.31 519.01 28.18 520.87 28.63 521.62 29.14 520.76 29.89 519.24 30.53 518.41 31.1 516.51 33.42 515.93 34.51 515.61 35.81 514.73 37.51 514.08 38.42 513.2 40.16 512.86 41.1 512.84 42.09 513.12 43.33 512.12 44.86 511.6 45.25 511.21 46.11 511.47 46.65 511.48 47.54 511.16 48.59 511.19 49.88 511.45 50.65 510.85 51.48 510.42 53.01 510.56 53.98 511 55.51 510.6 56.51 510.72 59.41 512.54 65.87 513.23 67.49 512.6 70 513.53 71.64 514.81 73.43 515.66 74.91 516.33 76.52 516.82 76.76 517.99 78.5 518.75 79.89 519.51 80.76 520.65 81.58 521.56 82.83 521.69 83.66 521.44 84.53 518.74 87.07 518.22 88.94 518.36 89.7 519 90.85 519.57 92.63 519.9 93.26 520.54 93.76 523.01 94.96 526.75 97.06 527.77 98.21 528.31 99.12 528.51 100.04 528.14 100.72 528.02 102.45 528.1 103.1 527.55 104.75 527.51 106.23 527.8 106.74 529.38 108.27 530.25 108.96 532.12 110.16 533.76 111.1 535.09 112.02 535.7 112.72 537.89 113.78 538.75 114.31 540.16 115.67 540.62 116.31 542.02 117.28 543.1 118.74 545.06 120.06 547.96 121.08 549.53 121.56 550.01 121.85 550.88 122.97 551.62 126.36 553.39 128.35 553.92 128.61 556.62 129.07 559.69 129.46 560.65 130.62 561.44 132.07 562.75 133.78 564.07 134.76 564.29 137.21 564.93 138.18 567.18 140.29 568.93 141.45 571.44 142.84 572.5 143.33 573.79 143.63 575.05 144.38 576.84 145 578.34 145.33 579.11 145.82 579.64 147.02 580.27 147.56 581.2 148.03 582.9 148.42 584.13 149.76 584.85 150.2 586.57 150.92 589.99 152.62 590.87 153.2 593.12 155.2 593.65 155.58 595.74 156.46 596.44 156.89 596.78 157.68 597.6 158.37 598.44 158.79 599.38 160.24 601.45 162.16 603.31 162.76 604.04 163.3 604.39 163.87 605.08 166.38 605.05 167.22 605.57 168.32 605.54 170.29 605.9 171.74 606.43 173.22 606.52 175.35 607 176.78 607.56 177.7 609.12 179.56 609.47 180.31 609.88 181.87 609.77 183.12 609.26 183.73 607.82 184.97 607.27 186.17 606.12 187.07 606.23 188.3 606.67 188.84 607.55 190.41 608.52 191.9 608.95 193.01 610.12 194.62 610.49 195.97 610.44 198.14 610.69 198.94 611.3 200.09 611.43 200.7 611.99 201.59 612.04 202.7 613.92 204.4 615.28 205.37 616.17 206.85 616.78 207.38 621.17 209.26 622.25 209.62 624.23 209.49 625.93 208.95 626.91 208.27 629.5 205.99 630.63 205.51 631.56 204.58 633.07 202.75 633.59 201.69 633.7 200.41 634.86 198.81 636.02 198.16 637.4 197.74 638.75 197.8 639.92 198.22 642.72 198.37 644.35 198.78 649.88 200.97 652.12 202.13 653.09 202.39 654.3 202.96 656.09 203.04 657.38 202.97 659.03 203.15 659.88 203.41 661.38 203.53 662.4 204.07 664.63 204.96 667.67 207.32 668.26 207.46 668.95 207.63 671.4 208.67 673.18 209.77 674.54 210.3 675.53 210.87 677.75 211.9 678.21 212.59 678.25 213.32 677.58 216 677.22 217.11 676.58 218.03 673.76 219.82 671.41 221.06 670.36 222.56 670.22 223.24 669.34 224.16 668.43 224.61 666.77 225.9 666.2 226.64 665.95 228.34 666.29 229.42 667.12 230.53 667.96 231.24 669.01 232.78 669.47 233.92 670.05 236.68 669.91 238.25 669.18 240.42 668.37 241.83 667.19 242.97 665.39 244.24 664.43 244.76 661.54 248.31 660.48 249.83 659.72 251.18 659.17 252.8 658.45 255.26 658 256.33 657.92 257.02 657.14 260.15 656.64 261.65 655.81 262.65 654.1 263.74 652.34 265.5 650.48 267.01 649.55 268.32 648.74 270.34 647.74 271.89 646.97 273.56 646.75 275.63 646.88 276.83 646.76 277.52 646.77 279.51 647.34 282.57 647.43 283.74 647.99 285.79 648.42 286.89 649.17 288.11 651.35 290.73 652.18 291.4 653.41 291.97 655.39 292.49 656.55 293.06 658.44 294.59 661.09 298.15 662.3 300.02 665.35 302.26 669.92 304.83 670.71 305.1 671.76 304.54 672.37 304.47 675.66 305.98 675.97 306.3 676.23 307.38 676.17 308.45 677.06 309.45 678.06 310.24 679.45 311.01 680.57 311.49 681.62 311.58 683.52 311.41 684.45 311.71 685.08 312.78 687.49 314.01 688.4 314.85 690.34 317 691.67 317.82 692.71 318 695.47 317.68 698.38 316.91 698.96 318.26 700.25 318.21 700.29 318.78 699.51 319.61 698.83 319.79 697.59 320.57 696.11 320.6 695.79 321.34 695.38 321.44 694.3 322.25 694.38 323.05 696.84 327.16 697.51 327.77 698.73 328.37 700.22 328.83 702.57 329.04 703.45 328.86 705.67 327.68 707.8 325.66 709.16 324.88 709.85 324.72 710.76 325.1 713.57 326.85 715.28 327.59 715.48 328.44 715.22 328.81 715.49 329.91 715.95 330.51 716.84 331.16 717.35 330.75 718.27 331.1 719.36 331.15 720.69 331.79 722.39 331.73 723.9 333.37 725.07 334.26 726.35 335.06 729.83 336.73 730.78 337.34 731.89 338.97 731.85 340.03 731 342.09 731.27 343.06 731.93 343.52 733.19 343.85 735.12 343.82 735.96 343.43 736.95 343.33 737.23 344.18 739.27 345.17 739.68 345.56 740.64 347.2 741.31 347.81 742.27 348.21 747.99 349.48 749.07 350.15 749.63 351.02 749.62 351.56 749.13 353.12 749.05 354.54 749.17 355.8 748.94 356.32 749.19 356.89 749.8 357.45 750.28 358.25 751.41 359.31 752.52 360.15 753.64 361.38 753.93 362.41 753.32 363.28 751.77 363.62 749.39 363.06 748.57 363.5 748.47 366.34 749.1 368.95 750.06 370.12 751.05 371.67 751.34 372.6 752.29 374.34 754.5 377.2 756.92 379.16 758.26 380.7 758.94 381.94 759.85 384.07 760.51 385.87 760.56 386.58 759.65 390.39 759.21 391.33 758.71 391.79 756.88 392.37 754.1 392.54 752.95 392.84 752.11 393.36 751.39 394.38 750.08 395.23 749.53 396.09 748.85 398.75 749.23 399.63 750.79 401.44 752.27 402.92 754.59 402.68 755.76 403.01 756.1 403.97 754.95 406.45 754.93 406.88 755.62 409.12 756.31 410.48 758.44 413.69 758.81 414.78 759.96 416.44 761.29 418.02 762.01 418.63 764.33 420.02 764.91 420.62 765.56 421.66 765.93 422.69 765.83 423.68 764.8 426.03 764.85 427.2 765.81 428.37 767.51 429.36 769.47 429.91 771.24 430.58 772.92 431.44 775.91 433.9 777.52 434.32 779 433.41 779.33 432.96 780.04 431.11 779.75 430.18 779 429.54 777.63 428.64 776.02 428.13 774.81 427.59 774.08 426.94 773.68 426.04 774.05 424.64 777.32 425.17 779.76 425.31 780.36 424.36 781.47 426.06 782.49 428.06 783.88 429.25 786.52 430.71 787.1 431.56 787.52 432.96 787.49 433.75 787.87 435.36 788.66 436.13 790.51 436.52 792.91 435.64 793.91 435.49 794.94 435.11 Z" fill="none" stroke="currentColor" stroke-width="46.400"/>
</g>
</svg>