<?xml version="1.0"?>
<svg width="200" height="200" xmlns="http://www.w3.org/2000/svg" version="1.2" baseProfile="tiny" viewBox="-64.000 -110.500 928.000 928.000" stroke-linecap="round" stroke-linejoin="round">
<g id="state">
<path vector-effect="non-scaling-stroke" d="M 794.7 550.84 795.62 550.58 796.7 550.92 797.64 551.59 798.69 552.99 799 554.66 798.67 557.41 797.95 560.1 797.14 565.03 795.88 568.12 795.49 569.84 794.79 571.44 793 571.53 792.25 572.23 790.85 572.41 789.86 573.75 790.07 577.52 791.07 579.18 792.09 580.04 793.46 580.45 796.26 580.5 797.02 580.96 797.77 582.3 797.81 583.8 797.49 584.93 796.79 585.97 795.59 586.02 794.37 585.4 792.77 585.43 791.37 584.96 789.89 585.66 788.79 586.88 788.02 588.12 787.73 589.23 787.79 591.34 788.29 592.24 790.07 594.19 790.99 594.9 791.97 596.24 791.96 598.36 793.18 599.16 791.34 601.65 789.89 602.99 788.62 605.03 788.25 606.94 788.15 609.22 787.79 610.43 786.89 612.59 785.33 614.23 784.2 614.67 781.72 615.05 781.18 615 780.09 614.38 779.02 613.37 776.87 610.81 776.13 609.48 774.04 606.28 773.27 605.43 772.08 604.99 769.96 605.39 767.96 606.31 767.23 607.09 766.58 608.7 766.32 611.5 766.08 612.7 764.69 616.14 764.35 619.01 763.58 621.14 762.24 625.77 761.07 627.93 759.88 629.55 757.96 631.6 756.63 632.26 755.12 632.21 753.92 631.67 753.19 630.81 752.88 629.54 753.85 626.27 755.08 624.36 755.59 623.2 756.02 621.69 756.14 620.55 755.78 618.65 755.1 616.86 754.11 615.26 753.16 614.76 751.24 614.36 749.39 614.13 747.88 613.59 746.41 613.79 745.38 614.22 744.6 614.82 743.68 615.92 743.05 617.46 743.09 618.76 743.79 620.83 744.48 622.45 747.22 626.41 747.83 627.38 749.6 629.28 749.77 631.06 749.36 632.66 748.91 633.45 746.98 635.46 746.8 637.25 747.2 638.3 749.39 641.24 750.87 643.57 751.44 645.27 751.08 647.38 750.41 649.13 749.98 649.73 748.87 650.61 747.26 651.03 745.35 650.94 742.71 650.32 740.37 650.29 739.13 650.72 738.51 651.4 738.05 652.42 738.04 653.45 739.13 655.51 742.6 657.81 743.35 658.56 746.29 660.04 747.67 659.66 748.61 660.76 748.91 662.44 748.93 663.79 748.48 664.37 747.58 664.67 746.05 664.17 745.3 664.28 744.11 665.33 742.48 666.05 740.62 666.31 739.53 666.17 736.32 664.92 734.5 664.57 731.22 665.03 730.2 664.88 729.07 664.41 728.67 664.76 727.88 666.41 727.91 666.92 729.52 668.65 731.18 669.98 734.29 672.09 736.58 673.94 738.93 675.25 740.36 676.55 741.46 678 742.28 679.71 742.39 680.92 742.27 682.83 741.58 684.06 738.01 686.44 736.2 686.99 733.32 688.27 732.61 688.9 731.71 690.35 731.52 691.91 731.3 695.06 731.03 697.77 730.45 699.86 728.87 702.27 728.73 702.89 725.5 703.02 720.94 703.15 702.1 703.87 691.92 704.19 667.39 705.08 659.52 705.35 645.53 705.79 646.56 703.88 648.1 702.06 648.72 700.97 648.44 700.68 649.07 699.71 649.06 698.71 649.66 698.4 650.86 696.25 650.47 695.74 650.84 694.69 652.29 694.16 652.62 693.5 652.32 691.73 653.33 690.54 654.76 690.06 655.04 688.54 655.54 688.16 655.66 687.43 658.91 686.51 659.63 685.37 660.53 685.36 661.49 684.38 661.45 683.98 662.69 683.47 662.73 682.58 663.16 682.3 663.16 681.26 662.63 680.39 663.07 679.58 663.29 678.33 664.44 676.5 665.51 676.72 666.33 676.15 666.75 674.81 668.07 673.87 668.3 673.26 669.03 673.23 670.5 672.14 671.59 671.62 672.08 671.91 672.71 671.58 673.08 670.63 673.7 670.36 673.88 669.77 675.12 669.88 675.69 669.36 676.03 668.5 675.26 667.65 676.33 666.79 676.75 665.68 676.87 664.25 677.41 663.72 678.17 663.78 679.39 662.93 680.96 662.78 681.44 661.74 681.92 661.34 681.48 660.03 682.02 659.84 683.27 658.05 682.57 656.43 681.97 655.79 681.21 655.43 681.3 654.28 681.75 653.23 681.38 652.78 681.85 651.74 681.65 650.87 682.76 649.49 683.01 646.95 682.66 646.52 683.01 645.58 682.73 645.08 681.74 644.31 680.68 643.04 677.94 642.48 677.29 642.73 677.04 642.15 675.71 641.7 673.87 641.37 674.1 640.71 673.78 640.13 672.91 639.54 673.1 638.63 673.6 638.63 674.12 637.48 673.69 635.74 674.06 635.29 672.71 633.81 671.37 633.31 671.78 632.72 672.65 632.87 672.87 631.94 670.87 631.3 671.1 630.59 671.09 629.1 671.65 628.49 660.12 628.79 651.26 628.95 641.88 629.16 632.66 629.27 629.52 629.38 609.19 629.74 604.39 629.9 600.92 629.91 591.68 630.07 590.92 630.05 580.94 630.31 576.44 630.35 567.3 630.52 551.6 630.85 542.55 631.01 529.14 631.19 517.01 631.38 513.4 631.38 507.39 631.27 500.6 631.23 475.91 631.43 463.88 631.59 454.37 631.66 444.22 631.78 429.78 631.79 413.58 631.94 405.96 632.04 397.8 632.11 396.54 632.02 392.28 632.02 386.01 631.89 374.99 631.96 353.75 632 348.81 631.99 336.86 631.94 324.41 631.87 318.6 631.81 308.28 631.76 303.82 631.77 297.05 631.7 284.64 631.54 273.41 631.43 269.19 631.34 260.48 631.24 253.29 631.11 242.55 631.02 231.09 630.86 213.97 630.7 209.92 630.62 188.04 630.32 179.98 630.18 164.39 629.83 151.72 629.52 142.82 629.37 136.23 629.31 128.62 629.07 121.42 628.91 121.5 623.85 121.85 609.79 121.9 606.18 122.16 592.55 122.4 580.54 122.72 568.22 123.08 552.68 123.3 543.34 123.71 522.79 124.16 504.73 124.38 496.92 124.53 490.52 124.97 474.84 125.06 468.48 125.32 455.32 125.54 443.41 125.78 434.07 126.37 418.39 126.9 403.86 127.23 389.54 127.65 374.22 127.95 366.22 128.26 351.44 128.45 340.52 128.68 329.94 128.96 322.56 129.35 308.01 130.34 282.53 130.54 276.04 130.65 273.79 130.68 270.53 131 256.84 131.1 250.44 131.18 249.09 131.55 237.33 131.63 233.5 131.7 229.88 131.57 229.44 132 228.38 133.72 226.35 133.99 225.41 134.06 224.17 133.46 223.29 131.98 222.64 130.9 222.72 129.93 223.22 128.49 223.59 126.7 223.55 125.7 222.95 125.45 222.2 125.76 220.46 125.06 219.49 124.04 218.98 122.27 218.99 120.25 220.38 119.21 220.88 118.08 221.06 116.64 221 114.63 220.29 113.46 219.27 112.97 218.52 111.77 215.63 111.17 215.06 108.14 215.09 106.55 214.56 105.42 213.57 105.07 212.36 106.05 210.6 106.24 209.65 106.05 208.4 105.54 207.3 103.89 205.5 102.56 204.61 99.9 203.3 99.47 202.94 97.81 200.76 97.21 199.2 96.8 196.92 96.58 193.11 96.89 192 97.82 191.15 99.7 190.41 100.43 189.03 100.24 187.77 99.33 186.44 97.8 186.35 95.71 187.46 94.37 187.44 93.03 186.72 92.56 185.77 92.59 184.24 91.61 182.96 90.48 182.49 89.5 181.7 89.09 180.93 88.95 179.75 88.49 178.8 87.56 177.91 86.38 177.33 84.67 176.81 82.51 175.52 81.22 173.9 80.82 172.49 80.63 169.87 79.64 168.47 77.52 167.33 75.76 165.65 74.18 163.55 73.47 161.32 73.53 160.18 74.24 158.04 74.76 157.43 76.08 156.96 78.42 157.79 79.46 157.62 80.24 157.17 81.02 156.12 81.52 154.73 81.42 153.27 80.78 151.87 80.63 150.9 80.88 149.58 81.36 148.44 82.65 146.68 83.69 144.82 84.44 143.85 85.56 143 86.54 142.75 88.32 142.69 89.56 142.44 90.3 141.94 91.05 140.63 91.23 138.09 90.97 135.28 91.1 134.31 91.73 133.26 92.94 132.28 94.52 132.68 96.18 134.19 97.38 135.08 99.06 135.73 100.35 135.66 102.27 134.86 103.22 134.04 103.84 133.11 104.32 131.3 104.17 129.94 103.82 129.15 103.15 128.4 101.48 128.74 100.52 129.58 98.87 130.33 98.07 130.34 97.09 129.76 95.49 128.16 95.38 127.27 95.61 126.34 96.66 125.65 99.67 125.63 100.76 125.51 101.95 124.55 102.5 123.15 102.52 120.8 101.74 119.38 100.83 118.9 99.07 119 97.85 118.65 97.05 118.03 95.2 116.09 94.87 114.95 95.16 114.08 96.4 112.84 96.79 111.89 96.75 110.93 95.96 109.73 94.92 109.04 93.61 108.52 92.63 108.53 90.93 109.05 89.84 109.18 87.71 108.47 86.55 108.58 85.42 109.84 85.22 110.51 85.3 111.96 85.06 112.72 84.04 113.66 79.33 114.19 78.16 114.11 75.16 112.63 73.95 112.44 72.37 111.65 71.81 111.06 71.41 109.71 71.58 108.54 71.17 107.44 70.32 107 69.56 106.96 68.08 107.73 67.22 107.95 66.03 107.9 64.42 107.01 64.15 106.02 64.87 103.95 64.83 102.59 64.37 101.8 62.63 101.03 61.35 101.09 60.15 100.87 59.12 100.28 58.28 99.3 57.81 98.41 56.63 96.78 54.63 95.68 53.25 94.69 52.51 93.17 52.55 92.22 52.13 90.77 51.47 90.17 50.25 89.75 49.36 89.2 48.19 87.76 46.99 87.23 46.16 87.2 44 87.78 42.4 87.61 41.09 86.79 40.2 85.66 39.82 84.66 39.55 83.14 39.71 82 40.92 80.61 41.16 79.18 40.97 77.93 41.25 77.03 42.63 75.82 43.14 74.92 43.15 73.69 42.8 72.84 41.75 72.08 40.13 71.79 39.23 71.21 38.79 70.5 38.57 68.39 38.3 67.49 37.81 66.93 35.73 65.95 34.51 64.79 33.56 63.49 33.06 62.19 33.26 60.54 34.23 58.98 34.7 57.59 34.75 56.8 34.46 55.54 33.78 54.35 33.08 53.75 32.09 53.4 29.43 53.36 28.49 53.03 26.25 51.5 25.24 51.27 24.84 49.91 25.45 48.35 25.3 46.8 24.68 46.08 23.31 45.47 22.01 45.4 21.05 44.81 20.09 43.77 19.03 43.16 18.13 43.04 15.68 43.94 14.61 44.21 13.89 44.03 13.24 43.37 13.21 42.61 13.72 41.59 14.41 41.16 16.09 40.65 17.27 39.63 17.46 38.7 17.24 37.63 16.8 36.74 15.89 35.74 15.3 34.42 15.38 33.14 15.21 31.81 14.62 30.37 13.56 28.43 13.33 27.3 14.04 25.19 14.11 24.27 13.68 22.95 12.31 20.97 10.91 19.96 9.92 19 9.55 17.54 9.85 15.93 9.82 14.68 9.33 13.49 13.86 11.81 14.59 10.88 15.07 8.68 14.7 7.36 13.99 6.82 13.63 5.78 12.93 4.85 11.14 5.08 10.29 5.62 9.83 7.99 10.04 9.28 9.78 9.96 8.41 10.97 7.78 10.08 6.83 9.91 5.08 10.48 3.75 10.38 2.78 10.08 1.67 9.19 1.42 8.4 2.15 6.65 2.03 5.32 1.3 3.89 1 2.74 1.16 2.04 2.12 1 11.36 1.47 15.82 1.62 20.14 1.92 34.42 2.68 47.72 3.31 54.43 3.65 62.24 3.97 75.92 4.65 81.03 4.86 92.21 5.4 95.14 5.46 112.68 6.27 129.09 6.97 138.48 7.33 150.72 7.65 162.36 7.8 164.36 7.87 173.43 8 174.73 8.05 194.83 8.22 199.29 8.28 207.3 8.26 223.65 8.17 229.19 8.12 239.33 8.23 251.34 8.19 260.39 8.06 267.65 8.15 272.72 8.27 287.18 8.3 292.07 8.34 302.76 8.24 310.18 8.1 322.58 7.71 328.62 7.59 338.68 7.47 349.61 7.49 357.38 7.38 363.81 7.25 372.23 7.02 375.66 6.87 386.85 6.5 389.73 6.5 396.38 6.32 405.79 6 417.07 5.74 419.64 5.65 429.32 5.41 439.09 4.98 446.65 4.76 447.92 4.64 455.88 4.3 461.02 3.92 469.63 3.48 472.08 3.32 473.15 5.16 474.09 6.14 475.93 7.18 476.81 7.89 477.18 8.9 476.52 10.73 476.61 11.49 477.68 12.52 478.93 12.83 480.88 13.08 484.28 13.92 485.01 14.58 485.05 16.54 484.67 17.96 484.78 19.02 485.3 19.82 486.31 20.53 487.92 21.29 488.83 22.47 489.62 24.93 490.28 25.75 491.56 26.44 493.37 26.85 495.96 26.76 496.23 27.11 496.22 28.31 495.13 29.49 495.25 30.12 495.83 30.56 496.73 30.56 496.79 31.13 495.98 32.68 496.22 34.07 498.05 34.65 498.49 35.15 499.33 35.38 500.53 35.07 500.19 36.74 500.92 38.07 501.45 38.43 503.34 37.82 503.14 38.94 503.37 39.35 505.14 39.15 506 37.7 507.83 38.25 508.56 38.89 507.73 39.85 506.26 40.7 505.45 41.43 503.64 44.42 503.09 45.82 502.8 47.49 501.95 49.66 501.34 50.84 500.5 53.07 500.18 54.27 500.17 55.53 500.47 57.12 499.51 59.08 499.01 59.58 498.64 60.68 498.9 61.38 498.92 62.51 498.62 63.85 498.67 65.5 498.94 66.49 498.36 67.55 497.96 69.51 498.11 70.75 498.57 72.69 498.19 73.98 498.35 77.68 500.23 85.92 500.92 87.98 500.34 91.19 501.28 93.28 502.57 95.55 503.42 97.43 504.1 99.48 504.59 99.78 505.76 101.99 506.53 103.76 507.29 104.86 508.43 105.89 509.34 107.48 509.48 108.54 509.25 109.65 506.63 112.93 506.15 115.33 506.3 116.29 506.94 117.76 507.54 120.03 507.87 120.82 508.5 121.46 510.95 122.96 514.67 125.6 515.7 127.05 516.24 128.21 516.46 129.38 516.1 130.26 516.01 132.46 516.1 133.29 515.58 135.41 515.57 137.3 515.86 137.95 517.45 139.89 518.31 140.75 520.18 142.26 521.82 143.44 523.15 144.6 523.76 145.48 525.93 146.81 526.79 147.47 528.21 149.19 528.68 150 530.07 151.23 531.17 153.08 533.13 154.74 536.01 155.99 537.57 156.58 538.05 156.95 538.93 158.36 539.73 162.69 541.52 165.21 542.04 165.53 544.72 166.08 547.77 166.52 548.75 167.99 549.55 169.84 550.89 172 552.21 173.23 552.48 176.36 553.13 177.58 555.4 180.24 557.16 181.69 559.68 183.43 560.73 184.04 562.02 184.4 563.28 185.34 565.07 186.1 566.56 186.49 567.34 187.11 567.9 188.63 568.53 189.32 569.46 189.89 571.15 190.36 572.41 192.05 573.12 192.6 574.85 193.49 578.28 195.6 579.17 196.32 581.44 198.84 581.98 199.31 584.08 200.41 584.79 200.94 585.13 201.94 585.97 202.8 586.81 203.33 587.78 205.16 589.88 207.58 591.75 208.31 592.48 208.98 592.85 209.7 593.6 212.89 593.58 213.96 594.13 215.36 594.14 217.88 594.54 219.72 595.1 221.6 595.25 224.32 595.76 226.14 596.34 227.31 597.95 229.65 598.31 230.61 598.76 232.58 598.68 234.19 598.19 234.97 596.79 236.58 596.26 238.14 595.14 239.3 595.29 240.87 595.74 241.55 596.65 243.55 597.66 245.42 598.12 246.84 599.33 248.87 599.73 250.58 599.74 253.36 600 254.38 600.63 255.82 600.79 256.61 601.37 257.74 601.44 259.15 603.36 261.28 604.75 262.5 605.67 264.36 606.3 265.03 610.73 267.35 611.82 267.78 613.79 267.57 615.47 266.85 616.44 265.95 618.95 262.98 620.08 262.35 620.98 261.14 622.43 258.77 622.92 257.41 622.99 255.77 624.1 253.7 625.24 252.84 626.61 252.28 627.96 252.32 629.13 252.83 631.93 252.95 633.57 253.45 639.15 256.11 641.42 257.54 642.39 257.85 643.62 258.55 645.41 258.61 646.69 258.49 648.35 258.67 649.2 258.99 650.7 259.11 651.74 259.77 653.99 260.85 657.1 263.79 657.7 263.95 658.39 264.16 660.87 265.42 662.68 266.78 664.06 267.42 665.06 268.13 667.31 269.39 667.8 270.25 667.86 271.18 667.29 274.62 666.96 276.05 666.35 277.24 663.59 279.61 661.28 281.25 660.28 283.19 660.16 284.06 659.32 285.26 658.41 285.86 656.79 287.55 656.25 288.5 656.06 290.69 656.43 292.05 657.3 293.45 658.16 294.33 659.27 296.27 659.76 297.72 660.43 301.24 660.34 303.24 659.68 306.04 658.91 307.85 657.76 309.34 656 311.01 655.06 311.69 652.27 316.3 651.25 318.27 650.53 320.01 650.03 322.09 649.39 325.25 648.96 326.63 648.9 327.52 648.22 331.54 647.76 333.46 646.95 334.75 645.27 336.19 643.56 338.48 641.73 340.45 640.84 342.15 640.09 344.75 639.12 346.75 638.39 348.9 638.24 351.56 638.41 353.07 638.3 353.96 638.38 356.51 639.04 360.4 639.16 361.89 639.79 364.5 640.25 365.9 641.05 367.43 643.32 370.73 644.17 371.56 645.44 372.27 647.45 372.88 648.63 373.58 650.58 375.49 653.37 379.97 654.64 382.34 657.79 385.11 662.48 388.29 663.29 388.61 664.34 387.87 664.95 387.76 668.32 389.6 668.65 390 668.94 391.38 668.91 392.75 669.84 394 670.88 394.98 672.31 395.94 673.46 396.52 674.52 396.61 676.44 396.34 677.39 396.7 678.07 398.04 680.54 399.55 681.48 400.6 683.53 403.3 684.9 404.31 685.96 404.51 688.74 404.03 691.65 402.96 692.28 404.67 693.58 404.56 693.65 405.3 692.89 406.38 692.2 406.63 690.98 407.65 689.49 407.73 689.18 408.69 688.77 408.82 687.71 409.89 687.82 410.91 690.45 416.1 691.15 416.86 692.4 417.59 693.93 418.13 696.32 418.34 697.2 418.08 699.41 416.52 701.5 413.87 702.84 412.84 703.53 412.6 704.46 413.07 707.38 415.23 709.13 416.12 709.36 417.2 709.12 417.67 709.44 419.07 709.92 419.83 710.84 420.63 711.35 420.1 712.29 420.52 713.4 420.54 714.77 421.33 716.49 421.19 718.08 423.24 719.3 424.35 720.62 425.33 724.22 427.36 725.21 428.11 726.39 430.16 726.39 431.51 725.61 434.16 725.92 435.4 726.61 435.97 727.9 436.35 729.85 436.24 730.69 435.72 731.69 435.57 732.01 436.65 734.12 437.85 734.55 438.33 735.59 440.39 736.29 441.16 737.29 441.63 743.14 443.07 744.26 443.9 744.86 444.98 744.88 445.68 744.45 447.68 744.42 449.5 744.59 451.1 744.39 451.77 744.66 452.49 745.31 453.19 745.82 454.2 747.01 455.52 748.18 456.55 749.37 458.09 749.7 459.4 749.12 460.52 747.56 461.01 745.12 460.37 744.3 460.95 744.31 464.6 745.05 467.9 746.08 469.37 747.15 471.32 747.48 472.5 748.53 474.69 750.89 478.27 753.44 480.7 754.87 482.62 755.6 484.18 756.62 486.87 757.37 489.15 757.45 490.05 756.68 494.95 756.27 496.16 755.78 496.77 753.94 497.57 751.11 497.88 749.95 498.3 749.12 498.98 748.42 500.31 747.13 501.44 746.59 502.56 746.01 505.97 746.43 507.08 748.09 509.35 749.66 511.2 752.02 510.81 753.24 511.2 753.62 512.4 752.55 515.61 752.55 516.17 753.34 519 754.1 520.71 756.41 524.74 756.83 526.13 758.08 528.21 759.5 530.18 760.27 530.93 762.7 532.64 763.31 533.38 764.03 534.69 764.45 536 764.39 537.26 763.43 540.3 763.53 541.79 764.56 543.25 766.35 544.46 768.38 545.1 770.22 545.89 771.97 546.93 775.14 549.97 776.82 550.45 778.29 549.23 778.61 548.65 779.25 546.27 778.92 545.09 778.12 544.29 776.68 543.2 775.01 542.6 773.74 541.95 772.98 541.14 772.52 540.01 772.84 538.21 776.21 538.77 778.71 538.86 779.28 537.63 780.49 539.76 781.63 542.29 783.1 543.75 785.87 545.53 786.51 546.59 787 548.36 787 549.38 787.46 551.41 788.3 552.37 790.22 552.8 792.64 551.59 793.66 551.36 794.7 550.84 Z" fill="none" stroke="currentColor" stroke-width="1"/>
</g>
</svg>