<svg viewBox="-92.1364431 -35.4776181 4.520091199999996 5.778433200000002" xmlns="http://www.w3.org/2000/svg">
  <path d="M -88.20006571394444,34.99563885164166 L -88.251664,34.995468 L -88.282959,34.995651 L -88.369761,34.995468 L -88.462819,34.996082 L -88.598073,34.995652 L -88.743149,34.995133 L -88.753522,34.995295 L -88.858245,34.995136 L -88.893774,34.995905 L -88.925176,34.994844 L -89.003618,34.994994 L -89.125065,34.994694 L -89.158591,34.993953 L -89.217432,34.99473 L -89.30002,34.994381 L -89.352679,34.993863 L -89.434954,34.993754 L -89.484462,34.993968 L -89.511136,34.994632 L -89.56506,34.994989 L -89.661592,34.995295 L -89.718399,34.995293 L -89.724324,34.99479 L -89.848385,34.994409 L -89.851384,34.994188 L -89.919032,34.9948 L -89.989906,34.995089 L -90.043036,34.994964 L -90.127607,34.994684 L -90.237724,34.995542 L -90.30833517890773,34.995694 L -90.305234,34.987724 L -90.295159,34.975634 L -90.270706,34.958757 L -90.265503,34.956086 L -90.247271,34.949707 L -90.243757,34.94527 L -90.241284,34.926063 L -90.243208,34.9091 L -90.250314,34.898787 L -90.257858,34.893385 L -90.268821,34.88786 L -90.276867,34.885229 L -90.290816,34.883007 L -90.307702,34.876473 L -90.317741,34.871058 L -90.315052,34.864059 L -90.304561,34.860587 L -90.302642,34.854474 L -90.307982,34.845838 L -90.313401,34.844101 L -90.319398,34.845016 L -90.330531,34.851031 L -90.338449,34.858517 L -90.345832,34.852917 L -90.362258,34.842765 L -90.389393,34.830665 L -90.400758,34.827579 L -90.411638,34.826064 L -90.430173,34.82622 L -90.438729,34.825248 L -90.449691,34.83992 L -90.435583,34.85625 L -90.429911,34.865095 L -90.429311,34.868687 L -90.435958,34.881848 L -90.444223,34.887628 L -90.453947,34.890932 L -90.463398,34.891635 L -90.472492,34.887934 L -90.480323,34.882356 L -90.484276,34.875258 L -90.48372,34.861018 L -90.474717,34.850167 L -90.462334,34.833129 L -90.455379,34.820785 L -90.465526,34.815674 L -90.470374,34.811554 L -90.476174,34.800484 L -90.476584,34.794004 L -90.47042,34.780896 L -90.462886,34.76932 L -90.45267,34.755674 L -90.448335,34.74485 L -90.448423,34.739117 L -90.455381,34.732641 L -90.465005,34.72731 L -90.474999,34.723888 L -90.491666,34.721388 L -90.508333,34.723611 L -90.524166,34.731388 L -90.509722,34.747777 L -90.494148,34.757568 L -90.492499,34.764722 L -90.492777,34.772499 L -90.503055,34.783333 L -90.511335,34.790161 L -90.511111,34.798288 L -90.521111,34.801944 L -90.533333,34.8 L -90.540833,34.795833 L -90.547778,34.783333 L -90.545249,34.770762 L -90.539486,34.755394 L -90.545556,34.738889 L -90.55,34.739722 L -90.563611,34.737778 L -90.567778,34.733333 L -90.568611,34.721388 L -90.571944,34.712777 L -90.559444,34.710833 L -90.549999,34.703888 L -90.533333,34.696388 L -90.516666,34.695555 L -90.483333,34.704166 L -90.474166,34.705277 L -90.466666,34.7 L -90.463364,34.691211 L -90.462883,34.683805 L -90.468237,34.670806 L -90.472542,34.66596 L -90.48758,34.65323 L -90.500612,34.644254 L -90.507423,34.637218 L -90.517548,34.630759 L -90.532108,34.627327 L -90.541609,34.628612 L -90.546541,34.631018 L -90.553553,34.639549 L -90.554885,34.645168 L -90.552137,34.660232 L -90.540373,34.675852 L -90.541511,34.68309 L -90.545689,34.6884 L -90.55382,34.692684 L -90.55978,34.693891 L -90.570102,34.693432 L -90.567697,34.679093 L -90.569715,34.66635 L -90.580864,34.655174 L -90.586643,34.643713 L -90.591784,34.623794 L -90.587201,34.610903 L -90.573762,34.592133 L -90.549358,34.569255 L -90.540493,34.557871 L -90.539844,34.551707 L -90.543154,34.538851 L -90.552948,34.531298 L -90.566534,34.52441 L -90.574703,34.521759 L -90.5812467924714,34.51566811079029 L -90.590053,34.497231 L -90.59392,34.484176 L -90.593104,34.477322 L -90.585214,34.447185 L -90.577894,34.433255 L -90.578304,34.427275 L -90.586232,34.409172 L -90.598014,34.398187 L -90.609597,34.391586 L -90.616109,34.389788 L -90.628167,34.390052 L -90.640355,34.389 L -90.652783,34.381682 L -90.65854,34.375705 L -90.65535,34.37184 L -90.666778,34.355876 L -90.666864,34.348551 L -90.660332,34.335351 L -90.657488,34.322231 L -90.661505,34.315208 L -90.669343,34.313088 L -90.678075,34.31309 L -90.686003,34.315771 L -90.693129,34.32257 L -90.693686,34.32968 L -90.691501,34.338636 L -90.681498,34.352603 L -90.676197,34.369163 L -90.68388,34.369547 L -90.693799,34.364947 L -90.707252,34.361181 L -90.720533,34.360805 L -90.746446,34.367674 L -90.757304,34.367392 L -90.762213,34.365245 L -90.769231,34.358433 L -90.7694929224477,34.35044777837758 L -90.76513,34.342511 L -90.755293,34.334415 L -90.743709,34.322459 L -90.735873,34.310687 L -90.735153,34.30256 L -90.738025,34.289279 L -90.746684,34.279765 L -90.752929,34.274605 L -90.760423,34.270733 L -90.768335,34.269516 L -90.784543,34.271603 L -90.797554,34.276083 L -90.816736,34.280649 L -90.829623,34.278573 L -90.833629,34.274074 L -90.835012,34.258635 L -90.840537,34.23803 L -90.838433,34.218768 L -90.847149,34.20613 L -90.856407,34.211316 L -90.864719,34.211745 L -90.881338,34.216377 L -90.89658,34.2258 L -90.899581,34.228952 L -90.906334,34.244382 L -90.922922,34.246535 L -90.928675,34.244707 L -90.935548,34.237847 L -90.937148,34.23261 L -90.934544,34.217854 L -90.927602,34.209252 L -90.914425,34.195726 L -90.908215,34.192071 L -90.886746,34.182501 L -90.877452,34.185618 L -90.873589,34.18309 L -90.864742,34.18378 L -90.860866,34.185905 L -90.852027,34.18672 L -90.841871,34.184315 L -90.83049,34.184622 L -90.817488,34.183198 L -90.809457,34.177738 L -90.807654,34.171587 L -90.807564,34.161821 L -90.815878,34.149879 L -90.827634,34.14093 L -90.836099,34.137876 L -90.845283,34.136886 L -90.855275,34.13785 L -90.868618,34.142516 L -90.87453,34.147251 L -90.881984,34.150911 L -90.894449,34.161064 L -90.901649,34.164209 L -90.909957,34.165511 L -90.919787,34.157858 L -90.936614,34.149374 L -90.958644,34.135484 L -90.961044,34.130514 L -90.958604,34.122444 L -90.94564,34.107965 L -90.921294,34.093514 L -90.915673,34.092594 L -90.89903,34.095296 L -90.89268,34.097875 L -90.883126,34.096729 L -90.876606,34.092911 L -90.872102,34.0867 L -90.871129,34.080518 L -90.874973,34.071655 L -90.886166,34.058652 L -90.888694,34.051752 L -90.886252,34.039208 L -90.888378,34.031827 L -90.893285,34.026584 L -90.904179,34.023104 L -90.915665,34.021503 L -90.930988,34.022019 L -90.958203,34.026741 L -90.972887,34.025009 L -90.988184,34.019211 L -90.979952,34.000375 L -90.980099,33.998332 L -90.970905,33.991784 L -90.962489,33.981302 L -90.962006,33.972283 L -90.966173,33.964663 L -90.978127,33.960426 L -90.987611,33.960714 L -90.999977,33.966386 L -91.014945,33.996673 L -91.018948,34.003225 L -91.036329,33.99405 L -91.046434,33.992428 L -91.051755,33.993841 L -91.06728,34.005653 L -91.073389,34.008719 L -91.08418,34.008554 L -91.088976,34.000061 L -91.090658,33.98873 L -91.090141,33.968938 L -91.088025,33.959678 L -91.081424,33.954931 L -91.018629,33.941908 L -91.012205,33.937116 L -91.010863,33.92731 L -91.014199,33.921758 L -91.026477,33.906815 L -91.033854,33.898992 L -91.046609,33.888457 L -91.066344,33.875967 L -91.072772,33.867294 L -91.073252,33.86198 L -91.070306,33.845663 L -91.067119,33.839042 L -91.049083,33.816026 L -91.03752,33.80987 L -91.030296,33.807262 L -91.008534,33.80282 L -91.000474,33.799483 L -90.991574,33.792304 L -90.988622,33.784188 L -90.990412,33.778364 L -90.994859,33.772756 L -91.005165,33.76703 L -91.017964,33.764144 L -91.027367,33.765114 L -91.053386,33.778283 L -91.07416,33.774673 L -91.108663,33.771668 L -91.114967,33.776932 L -91.124004,33.782216 L -91.129444,33.783726 L -91.1353,33.782001 L -91.144891,33.76834 L -91.140826,33.760583 L -91.145046,33.750107 L -91.148807,33.73136 L -91.133562,33.715324 L -91.125949,33.708948 L -91.117645,33.705299 L -91.102448,33.704817 L -91.087738,33.708197 L -91.078094,33.713178 L -91.068051,33.716198 L -91.061743,33.715573 L -91.047135,33.706674 L -91.038765,33.696493 L -91.035949,33.689329 L -91.030328,33.687716 L -91.030496,33.681403 L -91.033707,33.673844 L -91.042367,33.669399 L -91.058756,33.666553 L -91.069737,33.661461 L -91.079776,33.658036 L -91.093053,33.658177 L -91.128956,33.673631 L -91.13528,33.678859 L -91.144188,33.689596 L -91.160367,33.706602 L -91.167425,33.703326 L -91.176345,33.701806 L -91.205436,33.701099 L -91.214875,33.699266 L -91.223914,33.693739 L -91.228796,33.687288 L -91.23041,33.682238 L -91.229979,33.673829 L -91.227712,33.669185 L -91.221174,33.661938 L -91.211678,33.656791 L -91.192444,33.655205 L -91.17767,33.65205 L -91.169619,33.648465 L -91.15253,33.638079 L -91.139179,33.628472 L -91.131485,33.617084 L -91.12873,33.609204 L -91.129253,33.602572 L -91.132102,33.595908 L -91.139784,33.587424 L -91.156559,33.574348 L -91.168502,33.56897 L -91.178555,33.567305 L -91.204319,33.56925 L -91.215449,33.569271 L -91.228441,33.566938 L -91.233392,33.562747 L -91.234147,33.555437 L -91.230155,33.546952 L -91.221467,33.533076 L -91.21402,33.524698 L -91.196855,33.513303 L -91.185991,33.507932 L -91.18342,33.505062 L -91.184026,33.497516 L -91.193856,33.489793 L -91.201975,33.479581 L -91.206454,33.470707 L -91.214957,33.465042 L -91.22444,33.46206 L -91.232202,33.455944 L -91.233085,33.444568 L -91.235222,33.439022 L -91.216333,33.434427 L -91.20647,33.433924 L -91.186637,33.438712 L -91.176721,33.444361 L -91.169466,33.452936 L -91.176048,33.473048 L -91.176895,33.487593 L -91.172498,33.49619 L -91.169627,33.498071 L -91.161614,33.497478 L -91.14004,33.486925 L -91.131338,33.480927 L -91.121351,33.467836 L -91.117528,33.457091 L -91.118775,33.446485 L -91.128232,33.43672 L -91.132152,33.430025 L -91.137862,33.427288 L -91.145762,33.427597 L -91.153942,33.425422 L -91.178857,33.417145 L -91.184363,33.419381 L -91.192672,33.417767 L -91.199096,33.41828 L -91.204169,33.415335 L -91.208202,33.409856 L -91.208682,33.402723 L -91.206477,33.400143 L -91.191198,33.389757 L -91.180893,33.38446 L -91.169702,33.380351 L -91.147895,33.3788 L -91.138454,33.381258 L -91.12242,33.387879 L -91.116259,33.391399 L -91.105484,33.400565 L -91.096374,33.412623 L -91.095173,33.424889 L -91.097516,33.432136 L -91.096262,33.438493 L -91.090393,33.447962 L -91.08634,33.451778 L -91.078966,33.455144 L -91.070742,33.455851 L -91.060442,33.450789 L -91.058109,33.446907 L -91.057633,33.432739 L -91.05901,33.426829 L -91.063801,33.419276 L -91.079462,33.40284 L -91.09213416437457,33.39540813253176 L -91.103808,33.384876 L -91.110846,33.375108 L -91.120763,33.363349 L -91.140462,33.351352 L -91.142219,33.348989 L -91.140925,33.33641 L -91.143625,33.328114 L -91.1415,33.316204 L -91.141364,33.298788 L -91.125533,33.280208 L -91.125711,33.27358 L -91.127966,33.268471 L -91.118733,33.26235 L -91.110558,33.245907 L -91.10184736042751,33.23881876154676 L -91.098517,33.238694 L -91.094655,33.250457 L -91.090328,33.257192 L -91.08495,33.276384 L -91.080926,33.281505 L -91.07449,33.285226 L -91.066482,33.287222 L -91.055182,33.286314 L -91.047314,33.281932 L -91.043624,33.274636 L -91.044628,33.26722 L -91.050506,33.251235 L -91.05413,33.24599 L -91.069332,33.232689 L -91.071075,33.227242 L -91.07749,33.227494 L -91.082592,33.221826 L -91.10026,33.219428 L -91.09234,33.203944 L -91.084855,33.191981 L -91.081303,33.18428 L -91.080048,33.174388 L -91.080617,33.161177 L -91.08259,33.14852 L -91.086017,33.136281 L -91.102702,33.130374 L -91.112746,33.129227 L -91.128078,33.128914 L -91.14849,33.13026 L -91.160804,33.141352 L -91.169627,33.142642 L -91.183698,33.141744 L -91.19239,33.137275 L -91.198809,33.129834 L -91.202125,33.122044 L -91.200805,33.107765 L -91.19253,33.10284 L -91.181917,33.099006 L -91.173766,33.089402 L -91.149403,33.081581 L -91.125034,33.064637 L -91.12029,33.054922 L -91.122807,33.051072 L -91.125258,33.038946 L -91.128133,33.034451 L -91.139343,33.028089 L -91.149928,33.026186 L -91.160756,33.020806 L -91.16619343475186,33.011048921487316 L -91.165892,33.004298 L -91.168973,32.992131 L -91.173308,32.986088 L -91.188317,32.974899 L -91.202056,32.960324 L -91.198825,32.951828 L -91.20744,32.944392 L -91.21282,32.936076 L -91.214027,32.93032 L -91.212837,32.922103 L -91.207046,32.914091 L -91.196785,32.906784 L -91.181631,32.901446 L -91.170235,32.899391 L -91.163877,32.899476 L -91.15169,32.901935 L -91.145076,32.905493 L -91.13528,32.916026 L -91.131304,32.926918 L -91.133113,32.93784 L -91.137863,32.952756 L -91.136628,32.957349 L -91.130721,32.962257 L -91.137524,32.969549 L -91.135095,32.980108 L -91.127894,32.983646 L -91.115951,32.987346 L -91.106581,32.988937 L -91.09693,32.986412 L -91.086802,32.976266 L -91.080355,32.962794 L -91.078904,32.951818 L -91.083084,32.947909 L -91.080431,32.943206 L -91.072075,32.937832 L -91.064804,32.926464 L -91.06380106198321,32.90387760347595 L -91.068186,32.891928 L -91.070602,32.888658 L -91.089024,32.871433 L -91.105631,32.858396 L -91.116091,32.855641 L -91.127886,32.855058 L -91.143559,32.844738 L -91.152174,32.826673 L -91.157781,32.823255 L -91.161669,32.812465 L -91.16087,32.80307 L -91.164397,32.785821 L -91.155476,32.779909 L -91.164397,32.763491 L -91.165814,32.757841 L -91.163389,32.747009 L -91.15861,32.743449 L -91.1495,32.741931 L -91.125107,32.743195 L -91.110111,32.739271 L -91.090573,32.7361 L -91.060766,32.727494 L -91.054481,32.722259 L -91.057043,32.712576 L -91.063946,32.702925 L -91.076061,32.693751 L -91.081145,32.691127 L -91.098762,32.685291 L -91.118258,32.674075 L -91.126201,32.667135 L -91.130928,32.65887 L -91.138712,32.649774 L -91.142038,32.649265 L -91.152699,32.640757 L -91.153556,32.626181 L -91.151318,32.615918 L -91.146204,32.604143 L -91.142782,32.598899 L -91.13528,32.591651 L -91.125108,32.585186 L -91.11746,32.586039 L -91.114141,32.590344 L -91.107235,32.590255 L -91.087784,32.59707 L -91.079507,32.600676 L -91.061352,32.605373 L -91.049802,32.607185 L -91.048903,32.613554 L -91.043263,32.620787 L -91.040042,32.633555 L -91.037182,32.637861 L -91.031761,32.640315 L -91.025769,32.646572 L -91.014286,32.640482 L -91.00682,32.631261 L -91.0035,32.624845 L -91.003545,32.612271 L -91.008245,32.604239 L -91.013723,32.598419 L -91.025423,32.590401 L -91.030991,32.583347 L -91.03617,32.579555 L -91.045337,32.575626 L -91.069354,32.563052 L -91.080411,32.556468 L -91.0754,32.546743 L -91.057706,32.533777 L -91.045539,32.529169 L -91.018469,32.521019 L -91.007075,32.516371 L -90.994867,32.508611 L -90.987669,32.498481 L -90.987579,32.492387 L -90.990089,32.488561 L -91.000106,32.48229 L -91.007106,32.48234 L -91.024106,32.485239 L -91.038106,32.49044 L -91.049307,32.498539 L -91.053904,32.503669 L -91.074844,32.533489 L -91.093742,32.549127 L -91.097878,32.544751 L -91.097949,32.537214 L -91.101304,32.525599 L -91.106985,32.514933 L -91.116708,32.500138 L -91.117308,32.495039 L -91.115708,32.48234 L -91.111508,32.47534 L -91.103108,32.46604 L -91.093508,32.457441 L -91.081807,32.45044 L -91.067807,32.444141 L -91.049307,32.437342 L -91.031906,32.433742 L -91.027406,32.433942 L -91.016506,32.440342 L -91.003706,32.44634 L -90.998974,32.450165 L -90.993863,32.450851 L -90.984124,32.449063 L -90.977212,32.446005 L -90.969587,32.439492 L -90.966441,32.433874 L -90.965987,32.420654 L -90.975342,32.410951 L -90.99408,32.403861 L -90.99378,32.396777 L -90.996237,32.388061 L -91.000606,32.381644 L -91.004706,32.367244 L -91.000106,32.357695 L -90.986672,32.35176 L -90.954583,32.345858 L -90.942981,32.345956 L -90.93076,32.344254 L -90.912363,32.339454 L -90.900957,32.349876 L -90.89481,32.360019 L -90.891598,32.371451 L -90.88854616379476,32.37334664783682 L -90.878604,32.374636 L -90.875621,32.373526 L -90.877289,32.366945 L -90.885771,32.3508 L -90.900722,32.330379 L -90.90124,32.323386 L -90.905724,32.314819 L -90.916157,32.303582 L -90.93451852379118,32.29006499085838 L -90.947834,32.283486 L -90.954893,32.285771 L -90.963079,32.296284 L -90.971643,32.297497 L -90.976199,32.29645 L -90.980747,32.29141 L -90.984077,32.279953 L -90.982985,32.270294 L -90.980678,32.266353 L -90.971344,32.257742 L -90.969515,32.252053 L -90.98029,32.243601 L -90.983135,32.231371 L -90.98255,32.220923 L -90.983381,32.211767 L -90.994944,32.193141 L -90.999697,32.191103 L -91.003206,32.19805 L -91.005006,32.21285 L -91.002906,32.22305 L -91.012606,32.22835 L -91.021537,32.236156 L -91.034302,32.241548 L -91.046507,32.241149 L -91.050307,32.237949 L -91.053107,32.22795 L -91.061408,32.21865 L -91.071108,32.22605 L -91.083708,32.22645 L -91.092108,32.22385 L -91.100409,32.21785 L -91.108509,32.20815 L -91.11727,32.206668 L -91.124677,32.21154 L -91.133587,32.213431 L -91.158026,32.201956 L -91.16488,32.195743 L -91.171046,32.176526 L -91.174577,32.157311 L -91.17273,32.146479 L -91.165452,32.13429 L -91.162822,32.132694 L -91.1444,32.13039 L -91.131403,32.126213 L -91.113866,32.125731 L -91.11099,32.124644 L -91.101181,32.131135 L -91.091656,32.133604 L -91.08163,32.133992 L -91.069081,32.131478 L -91.061555,32.126907 L -91.052754,32.125777 L -91.051207,32.144152 L -91.048507,32.150152 L -91.049707,32.157352 L -91.055707,32.163752 L -91.058907,32.17125 L -91.058307,32.180951 L -91.041807,32.174551 L -91.024907,32.162551 L -91.016606,32.160852 L -91.002906,32.162052 L -91.005006,32.142851 L -91.011106,32.132153 L -91.020006,32.123553 L -91.030891,32.120558 L -91.030507,32.108153 L -91.034707,32.101053 L -91.038607,32.098253 L -91.080008,32.079154 L -91.081508,32.074954 L -91.079308,32.049455 L -91.082308,32.047555 L -91.098708,32.048355 L -91.105908,32.051654 L -91.114309,32.058255 L -91.124109,32.071854 L -91.128609,32.076554 L -91.139309,32.081753 L -91.14861,32.080154 L -91.15741,32.074154 L -91.16131,32.068654 L -91.16201,32.061855 L -91.15631,32.052655 L -91.14511,32.046554 L -91.111509,32.040554 L -91.093408,32.036855 L -91.084408,32.031456 L -91.0798,32.018252 L -91.075908,32.016827 L -91.090105,32.000157 L -91.096108,31.994857 L -91.106908,31.989357 L -91.117409,31.987057 L -91.16441,31.982557 L -91.17811,31.972557 L -91.18811,31.961358 L -91.18951,31.946358 L -91.19291,31.937258 L -91.19111,31.934158 L -91.18371,31.933158 L -91.18491,31.923759 L -91.18041,31.918559 L -91.182277,31.915814 L -91.191046,31.914039 L -91.19261,31.910159 L -91.20101,31.909159 L -91.20511,31.904159 L -91.226951,31.885105 L -91.233903,31.877607 L -91.248144,31.869848 L -91.265812,31.86486 L -91.269012,31.858661 L -91.266612,31.851161 L -91.250111,31.836061 L -91.245624,31.833165 L -91.246618,31.823428 L -91.254311,31.813662 L -91.262011,31.809362 L -91.271712,31.809762 L -91.283212,31.815762 L -91.287812,31.824161 L -91.290135,31.833658 L -91.289312,31.846861 L -91.294713,31.86046 L -91.311013,31.855961 L -91.327914,31.854761 L -91.338414,31.851261 L -91.345714,31.842861 L -91.348114,31.832761 L -91.354114,31.813762 L -91.360514,31.795762 L -91.363514,31.783363 L -91.365614,31.760763 L -91.357514,31.758263 L -91.348114,31.758163 L -91.328813,31.760763 L -91.313658,31.764825 L -91.30442,31.765964 L -91.28742,31.771964 L -91.270411,31.770763 L -91.263719,31.767669 L -91.260011,31.762763 L -91.260011,31.758663 L -91.267411,31.750464 L -91.27956131682163,31.74476222262119 L -91.29438,31.74523 L -91.306912,31.748664 L -91.320913,31.750064 L -91.351929,31.749956 L -91.369375,31.746903 L -91.380915,31.732464 L -91.387115,31.723064 L -91.397115,31.711364 L -91.400115,31.696764 L -91.400115,31.687264 L -91.397815,31.659465 L -91.395715,31.644165 L -91.398315,31.626265 L -91.400815,31.620465 L -91.405415,31.619165 L -91.416498,31.613133 L -91.423016,31.611265 L -91.436216,31.612465 L -91.4649706011889,31.620883284592114 L -91.475718,31.626165 L -91.482218,31.631065 L -91.492748,31.644279 L -91.497665,31.645371 L -91.512336,31.634722 L -91.516659,31.627332 L -91.517233,31.61346 L -91.51301,31.606885 L -91.502783,31.595727 L -91.486518,31.586566 L -91.479418,31.585466 L -91.462017,31.586666 L -91.455317,31.588166 L -91.436316,31.594965 L -91.422716,31.597065 L -91.413015,31.595365 L -91.403915,31.589766 L -91.405415,31.576466 L -91.40781167422526,31.569572651549485 L -91.414915,31.562166 L -91.435816,31.547366 L -91.443916,31.542466 L -91.475917,31.531266 L -91.480918,31.530466 L -91.490118,31.534266 L -91.499918,31.532466 L -91.511013,31.532607 L -91.515919,31.530729 L -91.522536,31.522078 L -91.520526,31.513161 L -91.514917,31.510113 L -91.514981,31.501903 L -91.51714,31.498394 L -91.518148,31.483483 L -91.516999,31.460574 L -91.513366,31.444396 L -91.499812,31.4201 L -91.48002,31.404204 L -91.477652,31.397904 L -91.472067,31.397076 L -91.472652,31.384804 L -91.470983,31.376244 L -91.472542,31.371069 L -91.478848,31.364946 L -91.504756,31.36498 L -91.518034,31.371712 L -91.525386,31.378904 L -91.532336,31.390275 L -91.5358,31.403737 L -91.539458,31.414021 L -91.537137,31.424161 L -91.541,31.431098 L -91.548465,31.432668 L -91.565179,31.423447 L -91.570092,31.419487 L -91.576265,31.410498 L -91.578334,31.399067 L -91.573931,31.390886 L -91.568953,31.377629 L -91.560524,31.384559 L -91.55568,31.386413 L -91.546384,31.382763 L -91.550028,31.375058 L -91.550868,31.360576 L -91.547211,31.351427 L -91.548213,31.346084 L -91.534014,31.337268 L -91.533206,31.333225 L -91.523011,31.326524 L -91.50866,31.315131 L -91.507977,31.312943 L -91.508858,31.291644 L -91.515614,31.27821 L -91.518578,31.275283 L -91.533739,31.268753 L -91.547594,31.264446 L -91.558684,31.262176 L -91.574493,31.261289 L -91.587749,31.262563 L -91.621358,31.267811 L -91.641253,31.266917 L -91.648669,31.262238 L -91.654027,31.255753 L -91.654907,31.250175 L -91.652019,31.242691 L -91.644356,31.234414 L -91.625119,31.226071 L -91.607622,31.213399 L -91.595029,31.201969 L -91.590051,31.193693 L -91.589046,31.178586 L -91.599732,31.159592 L -91.624217,31.133729 L -91.628066,31.125717 L -91.625199,31.115963 L -91.613208,31.103521 L -91.594693,31.091444 L -91.577373,31.078179 L -91.56415,31.06683 L -91.559907,31.054119 L -91.561232,31.046225 L -91.564397,31.038965 L -91.571695,31.029782 L -91.578413,31.02403 L -91.590463,31.01727 L -91.60649,31.011216 L -91.625118,31.005374 L -91.636942,30.999416 L -91.60818,30.99903 L -91.538661,30.999388 L -91.500116,30.998691 L -91.49739,30.999006 L -91.430768,30.998962 L -91.33592,30.999192 L -91.287885,30.999094 L -91.246513,30.999475 L -91.209352,30.999076 L -91.176139,30.999183 L -91.122154,30.998908 L -91.004452,30.998909 L -90.884215,30.999638 L -90.870308,30.999311 L -90.770379,30.999474 L -90.7335,30.999218 L -90.649564,30.999494 L -90.62339,30.999399 L -90.547616,30.99972 L -90.515872,30.999868 L -90.448935,30.999613 L -90.437555,30.99999 L -90.259525,31.000678 L -90.210877,31.000654 L -90.16480933042482,31.00097954632759 L -90.09747,31.001112 L -89.98209,31.00161 L -89.923119,31.001446 L -89.89746,31.001914 L -89.858803,31.002043 L -89.752642,31.001853 L -89.737331,31.002619 L -89.731673,31.004817 L -89.728119,31.0023 L -89.734818,30.996504 L -89.727924,30.992188 L -89.730621,30.986509 L -89.730964,30.9789 L -89.736086,30.974446 L -89.729282,30.971772 L -89.728041,30.966518 L -89.735686,30.966573 L -89.743134,30.959993 L -89.743301,30.955669 L -89.750074,30.952293 L -89.755948,30.944119 L -89.755241,30.938937 L -89.749333,30.934957 L -89.753087,30.926592 L -89.750741,30.923246 L -89.745161,30.922416 L -89.744789,30.918933 L -89.750073,30.91293 L -89.759403,30.915134 L -89.764202,30.911906 L -89.756671,30.901069 L -89.760701,30.896306 L -89.770269,30.89939 L -89.77329635871837,30.897696366809907 L -89.771798,30.892258 L -89.773555,30.886369 L -89.779216,30.87658 L -89.778005,30.873411 L -89.767789,30.865577 L -89.772582,30.85964 L -89.771722,30.854677 L -89.778755,30.8558 L -89.784416,30.853744 L -89.780228,30.846235 L -89.787827,30.845282 L -89.790121,30.837983 L -89.790432,30.830985 L -89.784092,30.832889 L -89.783985,30.827385 L -89.787493,30.824193 L -89.781502,30.818945 L -89.785894,30.815962 L -89.791745,30.820387 L -89.798654,30.820855 L -89.797809,30.813196 L -89.803734,30.807807 L -89.804065,30.803247 L -89.809544,30.800197 L -89.808065,30.791636 L -89.815675,30.795687 L -89.82135,30.791888 L -89.819024,30.784371 L -89.824384,30.77962 L -89.830418,30.779842 L -89.827459,30.773467 L -89.831537,30.76761 L -89.829873,30.760946 L -89.826121,30.759014 L -89.830233,30.751357 L -89.825774,30.747305 L -89.825163,30.741263 L -89.822039,30.736686 L -89.832421,30.737106 L -89.829645,30.7299 L -89.825758,30.727045 L -89.831438,30.72188 L -89.831439,30.715396 L -89.842525,30.719942 L -89.840111,30.711818 L -89.846392,30.706852 L -89.843605,30.702511 L -89.838065,30.704036 L -89.835938,30.699902 L -89.838033,30.696302 L -89.836797,30.690573 L -89.844172,30.691504 L -89.845444,30.687293 L -89.841556,30.682243 L -89.841678,30.67667 L -89.847267,30.670908 L -89.84233,30.666015 L -89.850387,30.660575 L -89.840476,30.659877 L -89.841072,30.652431 L -89.833702,30.657695 L -89.830314,30.650766 L -89.824707,30.649026 L -89.822952,30.639078 L -89.815788,30.639215 L -89.814094,30.636425 L -89.820068,30.632808 L -89.824562,30.618432 L -89.822235,30.615396 L -89.822013,30.607109 L -89.819633,30.6018 L -89.818771,30.59288 L -89.811943,30.591308 L -89.813224,30.581901 L -89.809509,30.578077 L -89.806205,30.567377 L -89.80127,30.569134 L -89.788551,30.570379 L -89.78749,30.566696 L -89.790908,30.563053 L -89.796714,30.561519 L -89.803413,30.56208 L -89.80326,30.558002 L -89.794774,30.556845 L -89.791519,30.550876 L -89.799693,30.547065 L -89.78968,30.544656 L -89.779159,30.544029 L -89.774047,30.537403 L -89.777351,30.533384 L -89.769966,30.529907 L -89.771514,30.525829 L -89.767486,30.513036 L -89.760307,30.515556 L -89.752807,30.502962 L -89.747375,30.501455 L -89.742298,30.494544 L -89.737996,30.495881 L -89.733113,30.492448 L -89.724627,30.491938 L -89.721405,30.488883 L -89.721828,30.483836 L -89.71585,30.477855 L -89.710838,30.478385 L -89.705426,30.472121 L -89.701911,30.465223 L -89.690035,30.459333 L -89.689514,30.453018 L -89.683631,30.451787 L -89.685005,30.440078 L -89.680313,30.433374 L -89.681167,30.424764 L -89.678581,30.4136 L -89.68441,30.411912 L -89.683708,30.405586 L -89.673789,30.392858 L -89.669265,30.381248 L -89.664581,30.374883 L -89.660087,30.372943 L -89.658493,30.367347 L -89.661003,30.363994 L -89.657287,30.357183 L -89.65142,30.356012 L -89.646026,30.352043 L -89.645622,30.348903 L -89.636512,30.34727 L -89.630622,30.337491 L -89.632698,30.32796 L -89.629714,30.31752 L -89.626502,30.313903 L -89.631599,30.309379 L -89.639816,30.30731 L -89.641647,30.303825 L -89.640434,30.295503 L -89.646965,30.29181 L -89.643371,30.287719 L -89.637527,30.285083 L -89.631294,30.279769 L -89.632316,30.268604 L -89.625892,30.265913 L -89.630485,30.262182 L -89.631614,30.257013 L -89.626754,30.251871 L -89.615341,30.246973 L -89.613945,30.241674 L -89.616828,30.225772 L -89.610542,30.218271 L -89.601165,30.216268 L -89.596572,30.211965 L -89.588386,30.199552 L -89.585693,30.192241 L -89.580696,30.186332 L -89.571907,30.180721 L -89.567207,30.180917 L -89.554626,30.185911 L -89.549034,30.191705 L -89.538635,30.19589 L -89.533737,30.195039 L -89.52814392729061,30.188924934062555 L -89.522707,30.183215 L -89.515175,30.184488 L -89.505255,30.184009 L -89.497708,30.182256 L -89.492683,30.18368 L -89.490735,30.187955 L -89.480214,30.193751 L -89.475824,30.191561 L -89.468148,30.193813 L -89.46078,30.18991 L -89.459829,30.182924 L -89.455853,30.181672 L -89.447993,30.186509 L -89.446844,30.190491 L -89.449419,30.203955 L -89.436545,30.216493 L -89.429799,30.224542 L -89.420749,30.229429 L -89.420136,30.23448 L -89.424493,30.239092 L -89.424624,30.245391 L -89.419348,30.25432 L -89.414213,30.257772 L -89.387024,30.266718 L -89.377091,30.272977 L -89.367693,30.283791 L -89.358934,30.289247 L -89.343578,30.294494 L -89.329946,30.302896 L -89.322545,30.314896 L -89.322345,30.319296 L -89.326275,30.325155 L -89.329616,30.326363 L -89.332546,30.337895 L -89.338847,30.342995 L -89.345934,30.343573 L -89.360572,30.33668 L -89.366361,30.336708 L -89.372354,30.333398 L -89.376305,30.336416 L -89.378257,30.34333 L -89.375975,30.349253 L -89.365285,30.353102 L -89.364226,30.358043 L -89.353248,30.368795 L -89.349447,30.370995 L -89.335942,30.374016 L -89.314859,30.376116 L -89.307986,30.373379 L -89.311903,30.362882 L -89.30605,30.365816 L -89.297256,30.367046 L -89.292499,30.365635 L -89.291314,30.361304 L -89.284978,30.353846 L -89.272062,30.34428 L -89.268734,30.340588 L -89.272775,30.334024 L -89.281564,30.33198 L -89.287844,30.333196 L -89.291844,30.328096 L -89.290126,30.312072 L -89.294444,30.307596 L -89.291444,30.303296 L -89.285744,30.303097 L -89.271833,30.305491 L -89.25201,30.311755 L -89.245075,30.312797 L -89.24,30.316025 L -89.220442,30.322497 L -89.18684,30.331197 L -89.153881,30.342937 L -89.144848,30.345241 L -89.137511,30.349056 L -89.098803,30.362554 L -89.099194,30.354624 L -89.094147,30.347888 L -89.08883,30.350072 L -89.094569,30.358034 L -89.089843,30.364733 L -89.078085,30.369975 L -89.016378,30.384616 L -88.999474,30.3877 L -88.971206,30.391355 L -88.922031,30.393798 L -88.89393,30.393398 L -88.884829,30.391998 L -88.881781,30.393202 L -88.861777,30.391839 L -88.858153,30.394843 L -88.859152,30.406265 L -88.869908,30.409077 L -88.871096,30.41789 L -88.870146,30.424244 L -88.857786,30.430188 L -88.85327,30.423014 L -88.845665,30.420555 L -88.841328,30.409598 L -88.823724,30.402376 L -88.810227,30.394698 L -88.801694,30.391651 L -88.794088,30.391857 L -88.78981,30.386321 L -88.795989,30.38345 L -88.811688,30.385245 L -88.771742,30.365403 L -88.746945,30.347622 L -88.728893,30.342671 L -88.714077,30.342186 L -88.700587,30.343689 L -88.692164,30.347302 L -88.679575,30.35571 L -88.66382,30.362099 L -88.637697,30.359848 L -88.625503,30.3686 L -88.618205,30.372583 L -88.610953,30.371677 L -88.612848,30.365203 L -88.611513,30.356017 L -88.604959,30.356934 L -88.592814,30.36124 L -88.589175,30.368025 L -88.583581,30.365796 L -88.585195,30.359039 L -88.581362,30.356492 L -88.579814,30.345846 L -88.536214,30.343299 L -88.526936,30.342434 L -88.521945,30.336896 L -88.506334,30.327398 L -88.504119,30.320073 L -88.480117,30.318345 L -88.471875,30.32002 L -88.45381,30.329626 L -88.447366,30.338994 L -88.449866,30.354761 L -88.447671,30.358045 L -88.437204,30.358194 L -88.430913,30.355561 L -88.41959,30.355376 L -88.417951,30.358517 L -88.412374,30.358022 L -88.40915,30.350659 L -88.402485,30.345509 L -88.394551,30.350091 L -88.399062,30.360744 L -88.395023,30.369425 L -88.398572,30.435474 L -88.402278,30.510759 L -88.403593,30.541993 L -88.404796,30.557309 L -88.405478,30.582946 L -88.407338,30.613911 L -88.407093,30.617753 L -88.408665,30.649803 L -88.411726,30.722702 L -88.418632,30.86657 L -88.419562,30.875187 L -88.424225,30.967032 L -88.425432,30.998323 L -88.429865,31.070589 L -88.432007,31.114298 L -88.434405,31.156811 L -88.434865,31.172828 L -88.436974,31.208299 L -88.439595,31.261548 L -88.44617,31.370152 L -88.449438,31.435837 L -88.451044,31.459426 L -88.451573,31.481531 L -88.455446,31.546805 L -88.459432,31.620929 L -88.464908,31.705476 L -88.465106,31.722312 L -88.468669,31.790722 L -88.47105767951156,31.849676614794124 L -88.472642,31.875153 L -88.473227,31.893856 L -88.471504,31.909918 L -88.46064435306656,31.99576651916668 L -88.455814,32.035311 L -88.447963,32.095384 L -88.439013,32.167912 L -88.430521,32.234487 L -88.428208,32.251041 L -88.413819,32.373922 L -88.412498,32.380038 L -88.403842,32.448773 L -88.40272,32.461709 L -88.397177,32.508594 L -88.392176,32.548377 L -88.375022,32.694777 L -88.373338,32.711824 L -88.368311,32.750131 L -88.354906,32.86724 L -88.354292,32.875131 L -88.340432,32.991199 L -88.339634,33.000127 L -88.33101,33.07249 L -88.326353,33.10978 L -88.324569,33.133246 L -88.322505,33.142358 L -88.317029,33.185195 L -88.315235,33.203322 L -88.30443550487236,33.28831999642265 L -88.295836,33.359137 L -88.277388,33.512479 L -88.274619,33.534008 L -88.267167,33.592028 L -88.257207,33.675837 L -88.252254,33.719586 L -88.247809,33.751867 L -88.244142,33.781673 L -88.243025,33.795679 L -88.240054,33.810879 L -88.235492,33.847203 L -88.232032,33.869967 L -88.228352,33.899272 L -88.224281,33.927042 L -88.222318,33.944727 L -88.210741,34.0292 L -88.199988,34.117683 L -88.192124,34.175347 L -88.190678,34.190123 L -88.187621,34.204766 L -88.186667,34.220952 L -88.1817,34.258093 L -88.165797,34.382037 L -88.156057,34.464973 L -88.151437,34.500096 L -88.135204,34.615878 L -88.118212,34.726278 L -88.116377,34.746592 L -88.10756,34.811628 L -88.102781,34.849395 L -88.097888,34.892202 L -88.099999,34.894095 L -88.128221,34.903093 L -88.138913,34.908892 L -88.152413,34.919741 L -88.15973,34.928971 L -88.164578,34.940943 L -88.172539,34.9569 L -88.181164,34.968872 L -88.188348,34.975957 L -88.198046,34.990285 L -88.20006571394444,34.99563885164166 Z M -88.505022,30.215741 L -88.502752,30.210506 L -88.493523,30.205945 L -88.453654,30.196584 L -88.414412,30.203643 L -88.416377,30.208608 L -88.430332,30.208548 L -88.442654,30.202314 L -88.453444,30.201236 L -88.476107,30.205793 L -88.491638,30.209569 L -88.505022,30.215741 Z M -88.584342,30.337209 L -88.582568,30.331342 L -88.572479,30.328987 L -88.568226,30.332199 L -88.569773,30.340557 L -88.575334,30.337761 L -88.584342,30.337209 Z M -88.764524,30.243752 L -88.764436,30.241415 L -88.752782,30.238803 L -88.735463,30.239346 L -88.714941,30.243721 L -88.68702,30.234004 L -88.665643,30.229638 L -88.633743,30.226342 L -88.597331,30.221621 L -88.597433,30.225939 L -88.656804,30.233956 L -88.678951,30.242324 L -88.688308,30.243798 L -88.715302,30.252263 L -88.721258,30.251322 L -88.730218,30.246076 L -88.7471,30.246365 L -88.764524,30.243752 Z M -88.866767,30.382974 L -88.866391,30.381493 L -88.834668,30.367841 L -88.820023,30.36075 L -88.824374,30.367907 L -88.829913,30.371642 L -88.865498,30.383492 L -88.866767,30.382974 Z M -88.903897,30.229522 L -88.897986,30.229879 L -88.881257,30.239819 L -88.881433,30.243869 L -88.891445,30.236138 L -88.903897,30.229522 Z M -88.980407,30.210516 L -88.975643,30.208336 L -88.959507,30.208452 L -88.953245,30.210748 L -88.953924,30.213589 L -88.971535,30.212968 L -88.980407,30.210516 Z M -89.131124,30.23104 L -89.132578,30.227587 L -89.114574,30.224404 L -89.110537,30.222615 L -89.110433,30.215011 L -89.092007,30.215995 L -89.085071,30.213222 L -89.074615,30.225835 L -89.068611,30.235852 L -89.065713,30.24569 L -89.06826,30.247158 L -89.077995,30.22945 L -89.131124,30.23104 Z" fill="none" stroke=currentColor stroke-width="1" vector-effect="non-scaling-stroke"/>
</svg>