<?xml version="1.0"?>
<svg xmlns="http://www.w3.org/2000/svg" version="1.2" baseProfile="tiny" viewBox="-54.1 -54.1 908.2 1190.2" stroke-linecap="round" stroke-linejoin="round">
<g id="state">
<path d="M 776.08 1.1 776.53 2.3 778.71 5.51 780.32 7.1 782.25 9.79 784.04 13.37 785.13 16.06 786.77 18.13 789.8 20.56 792.19 21.86 798.53 23.88 799 24.3 797.9 33.91 796.83 42.38 794.85 56.97 794.44 61.53 790.63 86.3 786.99 112.27 785.95 120.15 783.76 138.76 780.2 166.56 779.08 174.9 778.87 178.53 778.18 181.81 777.86 185.13 776.09 198.06 773.68 217.92 771.08 236.87 770.64 240.83 769.73 247.06 768.91 253.64 768.13 258.75 767.11 266.89 766.44 270.3 766.19 273.45 765.37 280.13 764.37 287.38 763.26 297.19 761.02 315.99 759.35 329.01 758.73 333.84 754.59 368.24 752.66 384.13 750.24 403.2 749.84 407.26 748.61 416.87 748.15 418.92 747.74 424.18 746.7 432.55 744.77 448.78 744.59 450.79 741.48 476.83 741.34 478.6 738.33 504.87 737.2 513.46 736.83 517.29 732.98 550.13 731.86 559.06 730.61 569.57 730.36 572.48 728.42 587.9 728.12 589.27 724.89 616.84 724.38 620.55 722.47 635.49 720.46 651.76 718.7 665.23 717.62 674.11 715.18 693.37 714.79 696.97 714.93 701.17 715.28 706.88 715.82 720.11 716.62 735.45 716.66 739.23 717.89 758.2 718.78 774.83 719.65 789.47 719.77 794.43 720.13 799.72 720.86 814.46 722.34 838.82 722.93 850.77 723.4 858.73 723.5 862.32 724.04 871.86 724.52 881.67 725.52 897.88 725.79 904.9 726.83 925.5 727.04 927.44 728.59 959.71 729.28 976.07 729.63 983.26 729.58 984.12 729.99 991.07 730.15 996.82 730.42 1000.25 730.71 1007.26 731.54 1024.15 732.34 1038.97 731.43 1040.92 732.45 1043.31 730.67 1044.33 729.17 1043.18 728.45 1041.53 727.2 1041.42 726.83 1042.12 724.29 1042.08 722.88 1041.49 720.53 1041.52 720.04 1042.26 720.6 1045.8 719.15 1047.9 715.1 1050.05 713.25 1050.43 707.86 1050.04 707.37 1048.4 703.86 1046.27 702.75 1045.02 700.66 1044.83 690.88 1044.26 690.53 1041.87 689.68 1041.3 690.04 1039.78 688.78 1039.28 687.97 1040.8 685.24 1041.77 683.77 1041.98 683.47 1039.92 683.9 1038.46 682.27 1038.26 680.63 1039.15 677.9 1041.12 672.04 1040.61 668.5 1042.05 665.68 1043.93 663.79 1044.74 660.76 1045.08 657.44 1044.97 653.39 1043.86 647.82 1039.87 638.86 1035.42 642.38 1035.82 643.77 1035.18 642.81 1033.94 641.1 1033.98 639.19 1033.3 636.16 1031.58 632.21 1029.96 631.24 1027.5 629.53 1026.95 628.52 1025.34 625.75 1026.67 625.53 1028.1 625.8 1030.07 628.21 1030.7 628.44 1033.27 627.63 1033.94 623.14 1033.63 622.45 1033.9 620.41 1033.59 614.11 1033.5 603.08 1034.05 596.73 1034.87 592.94 1035.56 579.1 1038.84 576.46 1040.02 575.4 1041.52 576.69 1043.31 575.49 1043.8 574.36 1042.29 574.45 1040.51 565.77 1043.54 564.12 1044.39 562.09 1044.91 554.7 1047.54 547.16 1049.5 542.77 1050.95 541.63 1051.67 540.08 1051.91 535.63 1053.31 532.51 1053.85 531.23 1053.8 530.56 1052.84 531.53 1051.83 531.14 1048.24 532.04 1047.1 533.45 1047.37 535.42 1046.91 536.33 1045.44 535.58 1044.61 532.68 1042.46 531.26 1040.79 530.99 1039.82 529.93 1039.5 527.95 1039.78 526.64 1040.44 527.52 1038.08 525.98 1037.47 521.25 1037.94 518.22 1038.62 517.37 1039.11 514.9 1041.52 514.67 1042.63 512.27 1043.49 511.76 1044.82 512.19 1046.37 513.08 1047.05 514.42 1046.31 515.72 1046.31 519.01 1044.77 520.6 1044.9 522.01 1046.04 522.67 1048.63 523.42 1048.9 524.3 1050.21 524.25 1051.2 522.59 1053.89 519.54 1055.78 516.09 1056.96 514.13 1058.18 512.02 1060.61 509.79 1062.01 503.69 1064.02 502.54 1064.79 501.35 1066.79 501.38 1068.21 502.36 1069.24 502.22 1070.38 500.19 1071.47 498.68 1073.28 495.79 1076.09 496.37 1079.11 496.11 1080 494.35 1081.09 493.46 1080.81 493.24 1079.24 491.59 1078.37 489.87 1078.87 488.88 1078.38 486.52 1079.68 486.08 1080.64 484.96 1080.96 483.26 1080.57 481.04 1080.46 479.35 1080.74 478.13 1079.46 476.87 1078.09 475.78 1077.9 473.44 1078.84 472.19 1080.14 469.37 1081.26 468.31 1081.3 466.34 1080.04 465.22 1078.72 464.61 1077.08 462.78 1074.29 461.75 1073.33 459.64 1072.88 458.23 1071.2 458.88 1067.63 458.57 1066.44 456.01 1065.34 454.92 1064.19 455.17 1063.03 456.2 1062.19 454.76 1061.59 454.99 1059.08 453.59 1057.89 452.28 1057.3 451.47 1056.38 452.94 1055.55 452.67 1053.69 453.08 1052.9 454.92 1052.44 456.06 1051.42 455.34 1050.61 454.67 1048.27 455.14 1046.13 453.82 1043.94 451.77 1043.57 451.68 1042.87 450.47 1041.98 449.16 1041.71 448.32 1040.19 448.89 1039.43 448.53 1038.18 447.52 1037.74 446.47 1036.32 445.45 1033.71 443.23 1030.86 443.07 1029.44 444.38 1029.06 443.8 1026.55 443.99 1024.62 442.94 1023.12 443.25 1020.49 441.93 1020.21 441.81 1018.8 439.15 1017.48 438.36 1015.93 437.14 1014.52 436.02 1014.64 434.68 1013.3 434.77 1012.17 434.05 1011.48 432.15 1011.37 431.05 1010.6 430.08 1010.9 428.95 1009.35 427.73 1009.01 426.04 1006.18 424.43 1006.75 423.53 1003.88 423.88 1002.96 422.22 1002.18 422.96 1001.28 421.81 999.8 419.45 999.66 417.21 999.12 419.04 998.26 418.31 996.92 416.41 996.66 416.37 995.75 417.88 995.87 419.18 995.53 419.95 994.71 419.71 993.89 416.85 994.16 415.75 994.56 415.01 992.16 414.17 991.3 414.46 989.19 412.93 988.84 412.73 986.84 412.2 985.64 412.15 983.79 411.63 983.1 412.64 979.88 413.98 979.07 413.6 978.44 411.99 978.47 411.6 976.24 410.34 975.85 409.58 974.3 407.93 975.48 408.06 973.81 405.84 973.65 407.64 972.43 406.54 971.33 407.79 970.04 407.82 968.79 406.94 967.66 407.23 966.71 408.88 966.92 408.61 965.63 409.08 964.83 408.6 963.9 407.36 964.24 406.73 963.27 408.14 962.15 407.6 960.33 410.09 961.35 410.09 959.9 411.36 958.74 410.49 958.1 409.87 956.48 412.2 956.57 411.49 955.55 411.36 954.19 410.36 953.28 411.28 951.57 410.44 951.13 410.06 949.64 410.98 948.32 410.32 946.89 411.67 946.94 412.87 945.88 412.35 944.19 413.62 943.34 415.33 944.25 415 942.33 416.23 941.64 416.3 940.62 417.63 939.41 417.44 937.69 418.99 937.8 420.3 938.79 421.29 938.12 419.95 936.94 420.73 936.23 420.71 934.99 419.29 935.42 419.36 933.85 419.87 932.21 421.58 932 420.64 930.31 421.91 929.85 423.48 930.1 423.29 928.99 424.37 927.66 422.07 925.9 421.8 925.19 423.07 922.99 423.47 921.67 423.13 920.45 423.81 920.07 425.96 920.76 426.86 919.7 425.17 917.27 426.25 916.54 428.34 917.04 429.53 915.69 429.44 914.91 428.19 914.72 427.66 913.97 428.51 912.09 427.18 911.2 427.02 910.04 428.34 908.2 429.86 907.45 429.9 906.48 431.57 905 433.28 905.01 433 903.83 431.48 903.23 432.63 902.24 432.7 900.53 433.31 899.25 431.76 898.29 433.27 896.99 432.47 896.42 431.2 896.91 427.76 897.09 403.95 897.04 395.27 897.07 389.52 897.18 376.29 897.14 350.4 897.25 335.3 897.28 324.96 897.35 314.05 897.35 274.11 897.5 271.55 897.59 256.54 897.53 249.42 897.56 232.42 897.64 226.54 897.62 207.71 897.68 199.44 897.62 177.02 897.66 173.9 897.58 146.93 897.75 120.52 897.75 108.41 897.68 100.96 897.71 92.62 897.62 83.34 897.7 72.56 897.68 51.28 897.73 36.34 897.72 35.73 897.8 27.08 897.64 11.48 897.72 5.03 897.63 7.68 896.3 11.86 894.99 15.46 893.63 18.16 892.11 19.67 890.82 21.31 888.76 22.02 887.13 22.31 885.36 21.36 882.51 18.39 879.96 14.51 876.99 10.35 874.28 7.66 871.49 7.02 869.3 7.89 867.5 13.38 861.7 15.78 857.44 15.55 854.05 14.43 852.19 11.61 849.63 7.68 846.78 3.37 844.91 1.65 843.06 1 841.38 1.2 840.12 2.4 838.67 4.06 837.62 8.53 837.42 16.07 838.6 19.04 838.88 22.59 838.68 25.08 838.17 28.18 837.21 31.58 835.74 32.25 835.09 33.77 832.07 33.96 827.29 33.81 826.8 30.59 824.25 28.3 822.74 28.12 821.84 24.94 819.86 25.16 818.66 24.34 816.61 24.53 813.36 25.35 811.63 23.26 810.81 22.17 811.23 20.28 812.78 19.17 809.81 18.18 807.97 18.64 805.41 20.03 803.39 21.13 802.5 24.88 800.43 26.55 800.79 27.42 802.34 26.9 804.62 27.72 806.93 28.5 809.95 30.06 812.5 31.71 814.11 34.69 815.62 40.5 815.63 41.91 814.25 42.26 813.09 41.89 811.17 42.02 808.42 40.77 808.23 40.24 806.82 35.79 803.25 32.75 797.8 31.94 794.17 31.68 789.03 31.91 785.69 32.39 784.9 32.41 783.06 31.15 782.38 30.7 780.38 32.18 778.44 33.28 778.01 35.77 778.05 37.97 777.64 40.03 778.49 41.16 778.31 48.33 775.8 50.15 774.7 54.84 771.38 56.43 769.72 56.97 768.17 57.31 765.19 55.27 763.93 53.09 763.55 50.04 764.02 45.78 765.55 44.27 765.89 40.37 766.16 38.78 765.91 35.13 763.85 32.83 761.35 31.89 759.87 32.02 756.76 32.99 755.1 36.28 752.72 37.38 752.96 39.74 755.93 41.2 757.02 43.61 758.21 50.06 760.1 53.02 760.37 54.49 759.95 56.97 758.59 58 758.3 58.57 757 59.15 752.99 58.68 749.55 58.16 743.32 58.16 741.19 58.83 737.91 61.08 735.29 62.47 733.18 65.06 729.94 68.97 729.25 75.93 729.23 79.07 729.54 81.88 730.31 85.21 730.42 87.93 729.14 89.59 727.3 89.59 726.38 88.76 725.28 87.26 724.58 83.44 724.32 79.63 725.66 77.56 725.92 74.16 726.83 69.83 727.41 67.72 727.39 65.9 726.83 66.37 721.76 67.05 718.98 68.48 714.94 69.83 710.68 70.37 708.41 72 706.53 74.36 705.74 78.15 705.47 81.81 704.46 83.02 707.51 82.83 710.47 83.36 712.61 84.39 714.49 86.97 715.84 89.14 715.93 90.87 714.96 92.6 712.77 92.82 710.59 91.81 709.94 88.11 706.55 87.57 704.87 88.29 703.47 92.26 702.36 95.45 700.61 97.01 698.93 101.91 694.66 102.83 693.54 104.71 693.31 105.06 692.44 107.03 692.04 107.45 691.43 106.44 690.26 106.71 688.15 105.05 687.93 104.65 687.23 105.41 685.19 105.72 681.83 107.97 679.31 111.04 677.07 121.59 676.06 123.94 675.54 126.36 674.31 127.71 673.12 130.9 669.38 130.02 669.06 128.99 666.1 126.97 664.89 122.91 664.06 115.37 662.71 112.86 661.34 111.58 659.28 111.74 657.75 112.61 656.52 114.59 655.17 116.67 654.82 119.07 655.98 120.08 657.04 122.28 660.09 124.17 661.57 125.78 662.31 129.46 662.49 130.13 662.06 129.64 656.34 129.98 655.4 139.26 651.11 140.14 650.49 141.08 648.89 140.99 646.11 143.44 645.44 145.43 643.51 146.8 641.11 147.27 636.8 144.2 637.07 142.34 636.69 138.55 634 134.84 632.56 134.71 634.74 135.43 636.42 136.77 637.86 137.04 639.47 136.44 640.82 136.09 644.94 134.12 644.69 132.43 643.66 129.61 643.1 127.36 643.18 125.23 643.74 123.03 645.19 122.38 644.95 118.45 644.84 115.53 643.9 111.4 643.39 110.81 643.03 109.17 640.29 108.76 637.86 109.55 633.55 110.94 629.24 112.47 627.85 117.96 625.27 119.95 625.7 121.62 626.79 123.58 626.46 125.4 624.28 127.26 622.94 129.15 622.35 131.97 622.44 134.15 624.1 136.01 622.02 136.64 619.77 137.49 619.06 140.23 618.97 143.09 620.18 145.1 621.93 147.27 623.12 146.8 625.4 147.21 628.72 147.99 630.28 149.06 629.83 151.65 625.65 151.84 623.59 151.71 621.25 152.35 618.51 154.76 616.61 154.35 615.33 152.26 613.4 151.74 612.52 151.5 610.35 152.24 607.78 153.26 606.65 154.29 606.41 156.21 606.69 158.04 609.05 159.63 609.56 162.62 608.08 166.73 605.05 169.08 602.53 170.08 600.61 170.2 599.04 173.55 594.46 175.45 590.83 175.83 589.36 175.16 589.11 172.93 589.4 172.24 589.82 171.52 592.39 170.15 594.66 167.59 597 163.46 595.92 160.72 595.54 158.11 595.56 150.92 594.24 147.9 592.91 146.87 590.77 147.79 587.54 148.77 586.1 149.32 584.14 149.25 582.55 153.46 580.96 155.56 578.78 155.45 575.82 154.75 574.56 153.04 573.1 151.49 572.41 149.3 572.01 148.16 572.16 147.09 573.02 144.22 574.37 141.78 575.8 140.77 575.85 136.86 575.04 132.71 573.52 129.57 572.1 126.95 570.53 124.79 568.6 122.91 566.52 121.97 564.95 121.61 562.1 121.74 560.95 123.92 557.63 125.2 555.24 125.95 552.64 125.97 550.94 126.89 549.96 131.13 553.47 135.83 560.16 136.86 561.31 139.38 563.13 142.52 564.3 146.33 564.95 147.9 564.96 150.15 563.55 150.71 562.69 150.69 561.32 149.08 559.05 146.34 557.31 143.78 556.27 137.71 554.44 134.98 553.41 131.01 550.5 129.89 548.32 132.37 546.84 137.75 544.02 139.81 543.14 140.97 542.29 142.22 540.7 144.85 538.9 146.08 537.6 147.13 535.8 147.14 532.98 146.4 531.54 144.72 529.47 142.14 528.1 140.8 529.5 139.58 530.06 138.94 531.02 138.22 533.89 136.95 535.51 136.75 536.94 134.16 537.34 130.09 538.4 128.23 539.21 123.87 540.74 122.32 540.72 121.57 541.68 119.86 541.87 117.58 540.42 115.89 538.8 115.13 537.62 113.98 534.98 113.48 532.68 113.67 529.41 116.06 527.5 116.81 527.38 118.55 525.34 119.61 523.49 121.39 521.93 125.77 519.41 129.72 518.11 130.86 517.52 133.58 515.46 135.13 513.29 135.7 511.12 134.29 509.95 127.61 508.02 123.22 507.3 119.86 506.42 114.39 506.71 112.34 506.37 111.27 505.57 110.73 503.14 111.04 501.87 113.04 498.19 111.04 496.86 111.83 492.99 111.66 490.88 112.53 488.46 113.79 487.7 115.72 483.64 119.23 481.33 121.88 481.2 124.23 480.58 127.95 477.65 132.09 473.79 132.63 473.06 133.61 470.38 133.39 465.31 131.76 462.76 129.88 461.55 129.29 460.5 130.22 459.62 129.9 457.16 128.45 454.14 126.18 451.86 124.01 451.29 121.91 451.65 119.23 452.48 117.62 453.27 117.07 455.64 118.6 457.28 117.27 458.38 117 459.41 118.06 462.76 118.47 465.21 117.58 467.65 115.38 470.01 113.89 470.81 111.16 471.36 109.73 471.38 107.18 470.92 103.78 469.72 101.48 468.08 100.18 466.29 99.91 464.44 100.18 463.15 101.39 461.29 103.32 459.62 102.59 457.71 105.68 454.44 109.04 451.93 110.02 450.58 110.71 447.85 110.64 446.33 111.86 444.14 114.29 442.94 116.66 442.51 119.18 441.08 119.82 440.07 120.37 437.35 120.94 436.49 119.87 434.31 114.41 430.51 108.94 428.75 107.11 426.6 104.73 425.74 102.88 424.63 102.58 421.43 103.32 419.68 104.76 418.01 106.71 417.01 109.87 416.81 111.85 417.1 114.61 419.59 119.19 419.89 122.63 419.82 124.88 419.56 128.63 418.24 129.4 415.49 129.84 412.65 129.97 409.69 129.69 407.47 128.89 405.74 127.21 403.06 125.43 399.58 129.4 399.05 130.54 397.77 131.98 397.83 132.37 396.61 135.78 393.62 136.59 392.45 137.91 388.86 138.14 387.2 137.31 385.56 135.55 384.58 133.01 384.37 131.21 384.82 129.77 385.66 128.87 386.81 127.66 391.11 126.69 392.62 125.82 395.26 125.08 395.23 123.12 393.64 121.29 389.95 119.22 388.58 119.72 387.43 119.76 385.95 116.21 381.78 116.18 377.87 115.7 375.2 116.31 373.34 116.02 370.52 116.41 369.99 120.83 367.3 123.06 364.66 124.64 362.47 127.26 360.1 130.1 358.44 133.61 354.75 134.69 353.05 135 351.73 134.89 348.55 134.37 347.68 132.05 346.54 130.21 346.7 128.56 347.46 127.65 348.31 126.33 350.44 126.05 351.86 126.57 353.49 126.3 356.24 124.26 358.95 121.84 361 120.46 361.79 116.86 363.28 114.75 363.83 109.85 363.48 107.34 362.56 105.03 361.37 101.6 359.04 101.11 358.46 101.22 356.86 102.12 355.63 103.26 354.97 104.7 355.09 106.56 354.73 107.8 355.23 113.39 353.37 115.22 352.88 117 352.95 118.28 352.34 119.16 350.84 121.28 348.64 121.56 346.27 120.7 343.85 118.46 340.92 116.51 339.57 111.67 337.2 109.87 337.07 109.23 337.49 108.24 339.42 108.43 342.69 109.91 347.2 108.28 349.12 106.05 350.39 101.6 351.46 99.39 351.35 95.15 350.32 95.63 349.07 95.83 346.52 97.57 345.15 99.7 344.48 101.61 343.21 102.61 341.22 104.43 338.93 106.64 337.2 106.78 335.5 106.2 334.86 103.76 333.65 99.91 331.1 98.24 329.22 96.29 326.11 95.4 324.2 95.56 322.56 96.68 321.62 99.59 321.1 102.09 321.1 107.87 321.54 110.12 321.17 112.8 319.96 116.57 317.03 118.29 315.12 118.93 313.63 119.05 312.14 118.43 310.37 116.7 307.82 113.71 305.66 109.87 303.33 108.07 302.53 104.75 301.82 100.44 301.46 98.31 300.31 96.84 298.68 96.33 297.64 96.23 295.75 96.6 294.62 97.69 293.17 99.72 291.93 101.84 291.52 108.36 291.36 110.36 291.02 111.95 290.29 115.58 294.1 117.58 296.51 118.99 297.69 127.05 301.15 130.03 301.18 132.28 300.42 134.74 299.27 138.42 298.63 140.36 297.64 141.08 295.94 141.12 294.53 139.86 294.16 139.23 292.56 137.35 290.27 134.07 288.28 132.66 288.14 130.41 288.81 128.24 289.93 124.94 290.69 121.53 290.58 119.67 289.76 117.96 288.33 114.54 284.73 115.38 280.53 116.33 278.18 115.42 276.44 117.57 273.37 118.89 272.99 120.11 273.32 122.13 274.51 123.55 275.69 131.29 275.02 135.95 274.21 141.79 277.16 143.9 277.38 146.77 276.73 149.08 275.45 150.08 274.19 150.48 272.88 149.82 271.06 147.82 269.45 146.01 268.7 141.13 267.71 139.51 267.12 136.91 265.74 132.87 260.58 132.15 259.09 131.49 255.43 131.6 254.24 133.04 252.29 137.47 249.49 140.33 247.13 141.99 245.37 144.74 242.02 145.49 240.77 145.19 238.57 143.75 237.5 129.66 234.58 128.18 233.51 127.7 231.43 127.59 226.99 127.96 224.45 129.04 222.55 131.46 222.51 132.83 223.2 136.31 225.85 137.51 226.16 139.77 225.8 143.67 223.74 144.57 225.21 147.93 232.01 150.7 233.28 152.83 233.34 155.51 232.39 156.45 230.68 156.34 228.66 154.45 226.31 152.39 224.84 152.42 224.38 150.58 220.16 154.01 218.86 157.3 218.47 163.41 219.53 166.85 219.64 169.42 219.28 171.87 218.5 172.97 217.33 173.44 215.67 172.9 212.86 173.46 211.31 175.97 208.39 176.84 206.4 176.62 205.02 175.61 203.62 174.15 202.77 172 202.51 170.58 203.09 166.84 203.69 165.58 203.49 160.12 200.24 157.21 197 156.66 195.19 157.2 194.07 162.15 190.95 165.92 189.05 168.13 187.33 169.99 187.63 171.61 188.33 174.4 190.61 176.07 191.43 177.4 192.49 180.39 193.54 182.64 193.76 184.7 193.53 186.59 192.85 189.23 190.84 191.1 188.16 191.08 185.97 190.67 184.59 188.87 183.37 185.95 183.05 183.4 183.12 181.12 182.58 179.14 182.76 178.27 183.24 176.28 183.39 175.42 182.82 173.33 183.52 168.52 181.38 167.12 180.56 164.17 177.52 162.61 175.59 162.03 172.28 162.38 171.11 163.93 169.57 165.22 169.16 168.94 169.64 170.45 173.1 171.13 173.81 174.55 175.92 178.27 176.96 180.14 177.06 182.22 178.22 184.17 175.39 183.7 171.07 184.94 166.44 185.25 162.98 186.15 161.97 189.04 161.5 193.34 162.53 196.26 163.53 199.9 164 201.67 163.73 203.35 162.86 204.76 161.7 206.7 159.57 207.34 156.59 207.18 154.77 205.42 152.12 202.82 149.44 200.62 147.63 199.64 145.84 199.7 144.05 201.27 142.53 202.37 142.04 204.81 141.98 210.62 143.52 213.6 143.44 216.62 142.59 218.85 141.56 220.57 141.65 219.38 145.36 217.14 148.49 216.65 150.5 216.77 152.1 218.37 153.62 220.15 154.23 222.11 154.23 223.86 153.75 224.77 152.18 224.13 149.23 222.66 146.27 222.68 144.63 225.25 141.05 224.53 140.18 225.82 138.84 228.61 137.2 231.34 136.96 234.05 137.02 235.51 136.62 238.11 135.13 240.75 132.67 242.53 128.61 242.62 127.27 240.98 124.14 239.21 117.38 239.03 115.84 239.89 112.91 241.87 108.78 243.34 107.41 245.17 106.82 248.22 105.27 250.42 103.58 251.16 100.69 251.01 99.31 249.02 96.76 243.55 91.62 240.53 87.41 239.51 84.52 240.66 80.05 241.96 77.48 244.46 74.97 244.91 72.11 244.37 68.9 246.69 68.8 248.02 69.07 249.85 70.03 250.79 71.22 251.04 72.84 248.4 76.35 247.78 79.73 248.08 80.99 249.66 82.9 250.76 83.44 252.89 83.73 256.16 82.96 258.43 81.51 259.96 79.93 262.88 77.92 266.26 75.06 267.22 73.97 268.42 71.06 268.32 69.4 267.58 67.42 265.89 66.24 263.84 66.49 256.36 68.42 252.62 68.23 248.88 66.55 246.76 64.99 243.96 64.56 244.71 62.63 244.89 59.95 245.83 58.95 248.88 58.51 249.88 58.7 251.24 55 249.95 51.55 249.38 48.73 250.94 45.92 252.62 44.99 255.36 44.55 257.61 45.37 257.55 47.2 259.41 48.73 261.72 51.16 261.78 52.9 261.41 54.51 257.92 56.71 254.68 60.38 258.23 62.13 261.97 62.63 265.71 62.07 267.95 61.3 270.11 60.1 271.67 58.65 271.69 57.36 270.72 54.93 268.42 51.87 266.73 49.28 265.35 46.34 265.44 44.88 266.74 42.4 267.83 41.47 270.11 40.33 268.55 37.56 265.77 33.74 263.75 31.3 263.63 28.11 264.51 26.51 266.27 25.26 268.31 24.43 270.43 24.59 272.61 25.33 274.47 26.63 275.96 29.58 275.82 30.39 274.55 32.37 271.38 36.03 273.84 39.33 275.76 39.11 279.92 39.14 282.36 38.8 284.91 38.11 291 35.4 294.68 33.12 296.34 31.86 298.12 33.54 300.61 34.89 301.96 35.1 303.18 34.71 304.37 32.77 303.94 31.4 301.59 30.62 300.99 29.05 303.24 27.83 307.03 26.37 310.16 25.87 311.96 25.28 314.42 24.04 316.11 22.83 317.71 20.51 318.14 16.71 317.58 12.4 316.8 11.4 312.71 9.97 311.54 9.37 306.05 5.59 303.79 2.88 303.1 1.09 318.94 1.12 343.64 1.31 362.62 1.25 374.53 1.22 390.44 1.29 405.61 1.42 406.28 1.38 434.12 1.29 435.45 1.18 448.19 1.18 469.85 1.25 481.94 1.33 487.93 1.47 499.04 1.52 517.49 1.5 529.31 1.38 547.84 1.3 561.04 1.48 568.56 1.31 595.8 1.24 613.4 1.28 620.45 1.04 628.42 1.21 651.91 1.18 654.24 1.21 686.79 1.1 717.13 1 738.01 1.14 757.48 1.1 764.5 1.14 776.08 1.1 Z M 707.66 1073.45 710.66 1074.83 714.15 1075.68 719.23 1076.7 721.65 1076.46 724.42 1075.06 727.55 1075.05 727.99 1076.16 719.19 1077.74 710.24 1075.64 708.17 1074.62 707.66 1073.45 Z M 689.87 1046.2 691.89 1046.07 693.13 1045.44 693.48 1047.32 692.53 1048.04 690.26 1047.51 689.87 1046.2 Z M 649.44 1067.16 653.35 1066.58 657.14 1066.64 659.15 1065.46 660.49 1065.25 666.54 1067.15 668.64 1067.48 673.61 1069.36 686.93 1071.16 686.95 1072.13 678.78 1071.07 671.63 1070.33 666.83 1069.35 660.57 1067.17 655.96 1068.15 652.08 1068.27 649.46 1067.69 649.44 1067.16 Z M 626.51 1035.93 626.79 1035.81 634.77 1038.47 636.02 1039.31 636.99 1040.91 633.71 1039.32 626.59 1036.26 626.51 1035.93 Z M 618.18 1070.35 620.97 1068.87 623.22 1067.14 623.25 1068.04 619.5 1070.27 618.18 1070.35 Z M 601.01 1074.62 603 1074.07 606.95 1073.93 607.1 1074.57 605.7 1075.08 602.08 1075.11 601.01 1074.62 Z M 567.2 1070.01 579.12 1070.37 581.3 1066.4 581.87 1066.73 581.22 1068.93 579.88 1071.18 577.53 1074.01 575.97 1073.39 571.84 1073.61 571.82 1071.9 570.91 1071.5 566.87 1070.79 567.2 1070.01 Z" fill-rule="evenodd" fill="none" stroke="currentColor" stroke-width="1"/>
</g>
</svg>