<?xml version="1.0"?>
<svg width="200" height="200" xmlns="http://www.w3.org/2000/svg" version="1.2" baseProfile="tiny" viewBox="-337.760 -101.760 1475.520 1475.520" stroke-linecap="round" stroke-linejoin="round">
<g id="state">
<path vector-effect="non-scaling-stroke" d="M 776.65 2.94 777.09 4.35 779.22 8.11 780.79 9.97 782.68 13.11 784.44 17.3 785.51 20.45 787.11 22.87 790.06 25.71 792.4 27.22 798.54 29.54 799 30.04 798.02 41.33 797.05 51.28 795.26 68.43 794.9 73.78 791.41 102.89 788.08 133.42 787.13 142.68 785.15 164.54 781.89 197.21 780.86 207 780.68 211.27 780.03 215.13 779.74 219.03 778.11 234.23 775.9 257.55 773.49 279.82 773.09 284.48 772.24 291.8 771.48 299.52 770.75 305.52 769.8 315.09 769.17 319.1 768.95 322.79 768.19 330.65 767.26 339.16 766.23 350.69 764.16 372.77 762.6 388.06 762.02 393.74 758.16 434.15 756.35 452.81 754.07 475.21 753.7 479.98 752.54 491.27 752.1 493.67 751.73 499.86 750.75 509.68 748.92 528.75 748.76 531.1 745.82 561.69 745.69 563.76 742.85 594.62 741.77 604.71 741.42 609.2 737.76 647.77 736.69 658.26 735.5 670.61 735.26 674.02 733.4 692.12 733.11 693.74 730.02 726.11 729.52 730.47 727.68 748.01 725.74 767.11 724.04 782.94 722.99 793.36 720.63 815.97 720.26 820.2 720.4 825.12 720.78 831.83 721.37 847.35 722.23 865.36 722.29 869.8 723.6 892.06 724.57 911.57 725.5 928.75 725.64 934.57 726.03 940.78 726.82 958.08 728.41 986.67 729.05 1000.68 729.57 1010.02 729.68 1014.24 730.27 1025.43 730.8 1036.94 731.87 1055.96 732.17 1064.2 733.32 1088.37 733.54 1090.64 735.25 1128.51 736.02 1147.7 736.41 1156.14 736.36 1157.15 736.81 1165.3 736.99 1172.05 737.28 1176.08 737.62 1184.3 738.54 1204.12 739.41 1221.5 738.5 1223.79 739.54 1226.59 737.73 1227.81 736.21 1226.46 735.46 1224.52 734.19 1224.39 733.82 1225.22 731.23 1225.18 729.79 1224.5 727.41 1224.54 726.91 1225.41 727.49 1229.56 726.03 1232.03 721.91 1234.57 720.03 1235.02 714.55 1234.58 714.04 1232.65 710.46 1230.16 709.32 1228.71 707.2 1228.49 697.24 1227.84 696.88 1225.04 696.01 1224.37 696.37 1222.59 695.09 1222.01 694.27 1223.79 691.5 1224.93 690 1225.18 689.69 1222.76 690.12 1221.05 688.46 1220.82 686.8 1221.87 684.02 1224.18 678.06 1223.6 674.46 1225.28 671.59 1227.5 669.67 1228.45 666.59 1228.85 663.21 1228.73 659.08 1227.43 653.42 1222.75 644.3 1217.53 647.88 1218 649.29 1217.25 648.32 1215.79 646.58 1215.84 644.63 1215.04 641.55 1213.02 637.53 1211.12 636.55 1208.24 634.81 1207.59 633.78 1205.7 630.96 1207.26 630.74 1208.94 631.01 1211.26 633.47 1212 633.69 1215 632.87 1215.8 628.3 1215.44 627.61 1215.75 625.53 1215.38 619.12 1215.27 607.89 1215.9 601.44 1216.86 597.58 1217.66 583.49 1221.49 580.8 1222.87 579.72 1224.63 581.02 1226.73 579.81 1227.3 578.66 1225.52 578.75 1223.43 569.91 1226.97 568.23 1227.97 566.17 1228.57 558.63 1231.64 550.95 1233.9 546.48 1235.59 545.31 1236.43 543.73 1236.7 539.2 1238.33 536.02 1238.95 534.71 1238.89 534.03 1237.76 535.02 1236.59 534.65 1232.37 535.57 1231.03 537 1231.35 539.01 1230.82 539.94 1229.1 539.18 1228.12 536.24 1225.59 534.81 1223.62 534.54 1222.48 533.45 1222.11 531.45 1222.42 530.11 1223.19 531.01 1220.43 529.45 1219.7 524.63 1220.23 521.55 1221.02 520.67 1221.59 518.16 1224.41 517.91 1225.71 515.46 1226.71 514.93 1228.27 515.37 1230.09 516.27 1230.89 517.64 1230.02 518.96 1230.04 522.31 1228.24 523.93 1228.4 525.36 1229.75 526.02 1232.79 526.78 1233.11 527.67 1234.65 527.62 1235.81 525.92 1238.96 522.79 1241.16 519.28 1242.53 517.27 1243.95 515.11 1246.79 512.83 1248.43 506.61 1250.75 505.43 1251.65 504.21 1254 504.23 1255.66 505.22 1256.88 505.08 1258.2 503 1259.48 501.45 1261.59 498.49 1264.88 499.06 1268.42 498.79 1269.47 496.98 1270.73 496.07 1270.4 495.87 1268.56 494.19 1267.52 492.43 1268.11 491.43 1267.52 489.01 1269.04 488.56 1270.16 487.41 1270.53 485.69 1270.06 483.42 1269.92 481.69 1270.24 480.46 1268.73 479.19 1267.11 478.07 1266.88 475.69 1267.97 474.4 1269.49 471.51 1270.78 470.44 1270.83 468.44 1269.34 467.3 1267.77 466.7 1265.84 464.85 1262.56 463.81 1261.42 461.67 1260.88 460.24 1258.9 460.93 1254.72 460.62 1253.32 458.02 1252.01 456.92 1250.65 457.19 1249.29 458.25 1248.32 456.78 1247.6 457.04 1244.66 455.62 1243.25 454.29 1242.55 453.48 1241.46 454.98 1240.5 454.72 1238.31 455.14 1237.39 457.02 1236.86 458.19 1235.68 457.47 1234.72 456.81 1231.97 457.3 1229.46 455.97 1226.88 453.89 1226.44 453.81 1225.61 452.58 1224.55 451.25 1224.24 450.41 1222.44 450.99 1221.56 450.64 1220.08 449.61 1219.56 448.56 1217.88 447.55 1214.82 445.31 1211.45 445.16 1209.78 446.5 1209.35 445.93 1206.4 446.14 1204.14 445.08 1202.37 445.42 1199.29 444.08 1198.95 443.97 1197.29 441.28 1195.72 440.49 1193.89 439.27 1192.24 438.12 1192.37 436.77 1190.78 436.88 1189.45 436.15 1188.64 434.22 1188.49 433.11 1187.58 432.13 1187.92 430.98 1186.1 429.75 1185.69 428.07 1182.36 426.43 1183.01 425.53 1179.63 425.9 1178.56 424.22 1177.63 424.98 1176.58 423.83 1174.83 421.44 1174.64 419.16 1173.99 421.03 1173 420.3 1171.42 418.37 1171.1 418.35 1170.03 419.87 1170.19 421.2 1169.8 421.98 1168.84 421.75 1167.87 418.85 1168.17 417.72 1168.63 416.99 1165.8 416.16 1164.79 416.47 1162.32 414.92 1161.89 414.74 1159.54 414.21 1158.14 414.18 1155.95 413.66 1155.15 414.72 1151.37 416.08 1150.43 415.7 1149.69 414.07 1149.72 413.7 1147.09 412.42 1146.62 411.67 1144.79 409.98 1146.16 410.13 1144.2 407.88 1144 409.73 1142.58 408.61 1141.29 409.9 1139.78 409.94 1138.31 409.07 1136.98 409.37 1135.87 411.04 1136.13 410.77 1134.62 411.26 1133.68 410.79 1132.58 409.52 1132.97 408.9 1131.82 410.34 1130.53 409.81 1128.39 412.32 1129.61 412.33 1127.9 413.64 1126.55 412.76 1125.79 412.15 1123.89 414.51 1124.02 413.81 1122.81 413.68 1121.22 412.68 1120.14 413.63 1118.13 412.78 1117.62 412.42 1115.86 413.36 1114.32 412.7 1112.64 414.07 1112.71 415.3 1111.47 414.79 1109.49 416.09 1108.5 417.81 1109.58 417.49 1107.32 418.75 1106.53 418.83 1105.33 420.19 1103.92 420.02 1101.9 421.59 1102.04 422.91 1103.22 423.91 1102.44 422.56 1101.05 423.36 1100.21 423.35 1098.76 421.91 1099.25 421.99 1097.41 422.53 1095.49 424.26 1095.26 423.33 1093.27 424.62 1092.74 426.21 1093.05 426.03 1091.74 427.13 1090.19 424.83 1088.11 424.56 1087.27 425.87 1084.7 426.28 1083.16 425.95 1081.72 426.64 1081.28 428.81 1082.11 429.73 1080.87 428.05 1078 429.14 1077.16 431.25 1077.75 432.47 1076.18 432.39 1075.27 431.13 1075.04 430.6 1074.15 431.47 1071.96 430.14 1070.9 429.99 1069.53 431.34 1067.39 432.88 1066.51 432.93 1065.38 434.64 1063.66 436.37 1063.69 436.1 1062.3 434.56 1061.58 435.73 1060.42 435.83 1058.42 436.45 1056.93 434.9 1055.78 436.43 1054.26 435.63 1053.6 434.34 1054.16 430.86 1054.34 406.79 1054.08 398.02 1054.03 392.2 1054.1 378.82 1053.92 352.65 1053.76 337.38 1053.62 326.93 1053.58 315.89 1053.43 275.51 1053.07 272.93 1053.13 257.74 1052.83 250.54 1052.76 233.35 1052.58 227.41 1052.46 208.37 1052.21 200.01 1052 177.34 1051.64 174.18 1051.49 146.9 1051.17 120.2 1050.63 107.95 1050.3 100.41 1050.17 91.98 1049.89 82.6 1049.78 71.7 1049.51 50.17 1049.08 35.06 1048.71 34.44 1048.78 25.7 1048.38 9.92 1048.09 3.39 1047.82 6.12 1046.32 10.38 1044.89 14.06 1043.38 16.84 1041.67 18.4 1040.19 20.11 1037.81 20.88 1035.92 21.23 1033.85 20.35 1030.48 17.42 1027.41 13.58 1023.82 9.47 1020.53 6.83 1017.19 6.25 1014.6 7.17 1012.51 12.89 1005.84 15.44 1000.9 15.31 996.91 14.23 994.7 11.46 991.62 7.58 988.18 3.28 985.87 1.6 983.65 1 981.66 1.24 980.2 2.49 978.52 4.2 977.33 8.71 977.21 16.28 978.78 19.27 979.19 22.86 979.05 25.38 978.51 28.54 977.45 32.02 975.82 32.7 975.06 34.32 971.56 34.65 965.95 34.51 965.37 31.34 962.29 29.08 960.47 28.92 959.4 25.77 957 26.03 955.6 25.26 953.17 25.55 949.36 26.42 947.35 24.34 946.34 23.24 946.8 21.29 948.57 20.25 945.05 19.31 942.87 19.85 939.87 21.3 937.54 22.44 936.53 26.28 934.19 27.95 934.65 28.78 936.49 28.19 939.15 28.95 941.88 29.64 945.45 31.14 948.48 32.76 950.42 35.72 952.26 41.57 952.41 43.04 950.84 43.42 949.48 43.1 947.22 43.31 943.99 42.05 943.74 41.56 942.07 37.19 937.77 34.28 931.3 33.56 927.01 33.45 920.97 33.78 917.05 34.29 916.14 34.35 913.97 33.11 913.14 32.71 910.78 34.26 908.54 35.38 908.07 37.88 908.17 40.1 907.75 42.16 908.8 43.29 908.62 50.58 905.84 52.44 904.59 57.25 900.8 58.89 898.89 59.48 897.09 59.9 893.59 57.88 892.07 55.7 891.57 52.62 892.05 48.3 893.74 46.78 894.1 42.84 894.32 41.25 893.99 37.64 891.49 35.41 888.49 34.5 886.74 34.72 883.09 35.74 881.16 39.11 878.44 40.22 878.75 42.5 882.29 43.94 883.62 46.33 885.07 52.76 887.44 55.72 887.83 57.21 887.37 59.74 885.84 60.79 885.52 61.39 884.01 62.08 879.31 61.7 875.26 61.36 867.93 61.42 865.43 62.18 861.6 64.51 858.57 65.96 856.12 68.65 852.38 72.59 851.67 79.58 851.8 82.72 852.24 85.52 853.21 88.85 853.41 91.62 851.97 93.34 849.84 93.36 848.76 92.55 847.45 91.07 846.6 87.25 846.2 83.38 847.7 81.3 847.95 77.86 848.94 73.5 849.53 71.39 849.45 69.58 848.75 70.19 842.81 70.94 839.56 72.49 834.85 73.96 829.87 74.56 827.23 76.25 825.05 78.63 824.18 82.44 823.95 86.13 822.85 87.27 826.46 87 829.94 87.47 832.45 88.45 834.69 91 836.33 93.18 836.48 94.94 835.39 96.73 832.85 97.01 830.29 96.02 829.51 92.4 825.45 91.9 823.46 92.66 821.84 96.66 820.62 99.9 818.64 101.51 816.7 106.53 811.79 107.48 810.49 109.37 810.27 109.75 809.26 111.73 808.83 112.16 808.12 111.18 806.73 111.5 804.26 109.85 803.96 109.46 803.13 110.28 800.75 110.68 796.81 112.99 793.91 116.12 791.34 126.7 790.38 129.07 789.82 131.52 788.42 132.9 787.06 136.18 782.73 135.31 782.34 134.35 778.84 132.36 777.37 128.32 776.31 120.81 774.57 118.34 772.91 117.11 770.46 117.3 768.67 118.21 767.24 120.22 765.71 122.31 765.33 124.68 766.75 125.67 768.01 127.79 771.64 129.64 773.42 131.23 774.32 134.91 774.61 135.59 774.12 135.24 767.39 135.6 766.29 144.99 761.46 145.88 760.74 146.86 758.88 146.84 755.61 149.29 754.88 151.33 752.65 152.76 749.86 153.33 744.81 150.25 745.07 148.4 744.58 144.68 741.34 141.02 739.58 140.83 742.13 141.51 744.12 142.82 745.84 143.05 747.74 142.41 749.31 141.96 754.14 140 753.8 138.33 752.56 135.54 751.84 133.29 751.9 131.14 752.5 128.9 754.17 128.26 753.87 124.34 753.66 121.45 752.49 117.33 751.8 116.75 751.36 115.19 748.12 114.84 745.25 115.74 740.21 117.23 735.18 118.8 733.57 124.34 730.67 126.32 731.21 127.95 732.53 129.92 732.18 131.79 729.66 133.68 728.12 135.58 727.48 138.4 727.64 140.53 729.64 142.44 727.22 143.12 724.6 143.99 723.78 146.72 723.73 149.55 725.21 151.51 727.3 153.65 728.74 153.13 731.42 153.45 735.33 154.2 737.17 155.28 736.66 157.97 731.8 158.2 729.4 158.13 726.64 158.83 723.43 161.28 721.25 160.9 719.75 158.86 717.44 158.36 716.39 158.17 713.84 158.98 710.84 160.02 709.53 161.05 709.27 162.96 709.63 164.73 712.44 166.3 713.07 169.31 711.4 173.49 707.92 175.88 705 176.93 702.76 177.08 700.92 180.53 695.61 182.5 691.39 182.91 689.67 182.25 689.36 180.02 689.66 179.33 690.14 178.55 693.14 177.13 695.79 174.52 698.48 170.43 697.14 167.71 696.64 165.11 696.61 157.97 694.91 155 693.29 154.02 690.75 155.01 686.98 156.02 685.31 156.62 683.02 156.59 681.16 160.82 679.37 162.96 676.86 162.93 673.37 162.25 671.88 160.58 670.13 159.06 669.29 156.89 668.78 155.74 668.94 154.67 669.92 151.78 671.44 149.31 673.08 148.3 673.11 144.43 672.08 140.34 670.21 137.24 668.48 134.67 666.58 132.57 664.27 130.75 661.78 129.85 659.92 129.57 656.56 129.73 655.22 131.98 651.37 133.31 648.59 134.12 645.55 134.18 643.56 135.13 642.43 139.26 646.64 143.77 654.59 144.77 655.96 147.22 658.15 150.32 659.58 154.1 660.42 155.66 660.47 157.93 658.86 158.51 657.87 158.53 656.26 156.97 653.56 154.29 651.46 151.77 650.18 145.78 647.91 143.09 646.64 139.21 643.14 138.15 640.56 140.65 638.87 146.08 635.67 148.14 634.68 149.32 633.71 150.6 631.87 153.25 629.82 154.5 628.31 155.59 626.21 155.67 622.9 154.97 621.2 153.35 618.73 150.83 617.08 149.46 618.7 148.23 619.32 147.57 620.44 146.79 623.79 145.49 625.67 145.25 627.34 142.67 627.76 138.59 628.92 136.73 629.83 132.35 631.53 130.81 631.47 130.05 632.59 128.34 632.78 126.1 631.03 124.47 629.08 123.74 627.68 122.67 624.56 122.23 621.84 122.5 618.01 124.93 615.82 125.67 615.7 127.46 613.34 128.56 611.19 130.37 609.39 134.78 606.53 138.73 605.08 139.88 604.41 142.63 602.05 144.22 599.54 144.84 597 143.47 595.59 136.88 593.19 132.55 592.26 129.24 591.15 123.8 591.37 121.78 590.92 120.73 589.96 120.26 587.1 120.61 585.62 122.69 581.33 120.74 579.73 121.62 575.21 121.5 572.73 122.42 569.9 123.69 569.03 125.71 564.31 129.26 561.67 131.88 561.57 134.22 560.9 137.99 557.54 142.18 553.09 142.74 552.24 143.78 549.11 143.68 543.16 142.13 540.13 140.3 538.67 139.74 537.42 140.69 536.41 140.43 533.51 139.07 529.94 136.88 527.21 134.76 526.5 132.67 526.88 129.99 527.79 128.37 528.69 127.77 531.46 129.24 533.41 127.9 534.68 127.6 535.88 128.57 539.84 128.91 542.72 127.96 545.57 125.73 548.3 124.24 549.2 121.51 549.79 120.1 549.78 117.58 549.19 114.24 547.7 112 545.73 110.77 543.59 110.55 541.42 110.85 539.91 112.1 537.74 114.05 535.83 113.39 533.57 116.52 529.8 119.92 526.93 120.92 525.36 121.68 522.17 121.65 520.39 122.91 517.84 125.35 516.48 127.71 516.03 130.23 514.41 130.9 513.24 131.51 510.05 132.09 509.05 131.09 506.47 125.79 501.89 120.43 499.71 118.68 497.14 116.35 496.07 114.54 494.73 114.33 490.97 115.11 488.93 116.58 487 118.53 485.87 121.66 485.7 123.61 486.08 126.27 489.07 130.79 489.52 134.19 489.51 136.42 489.26 140.15 487.78 140.98 484.57 141.49 481.25 141.69 477.77 141.47 475.16 140.73 473.11 139.14 469.93 137.47 465.81 141.4 465.26 142.56 463.79 143.98 463.89 144.39 462.46 147.84 459.03 148.67 457.67 150.06 453.48 150.32 451.53 149.54 449.59 147.83 448.4 145.33 448.11 143.55 448.6 142.1 449.55 141.19 450.88 139.89 455.91 138.89 457.66 137.97 460.74 137.23 460.69 135.34 458.78 133.63 454.41 131.62 452.75 132.15 451.42 132.23 449.67 128.83 444.7 128.9 440.11 128.5 436.96 129.15 434.79 128.94 431.47 129.34 430.86 133.76 427.79 136.02 424.74 137.63 422.2 140.27 419.48 143.12 417.59 146.67 413.33 147.77 411.36 148.11 409.81 148.08 406.08 147.59 405.04 145.35 403.66 143.53 403.81 141.88 404.66 140.96 405.65 139.61 408.11 139.3 409.78 139.77 411.7 139.44 414.93 137.35 418.06 134.92 420.42 133.54 421.32 129.96 422.99 127.85 423.59 123.04 423.07 120.59 421.93 118.35 420.49 115.03 417.67 114.56 416.98 114.71 415.11 115.64 413.68 116.77 412.93 118.19 413.1 120.04 412.72 121.24 413.33 126.79 411.28 128.61 410.74 130.36 410.86 131.63 410.17 132.54 408.43 134.68 405.9 135.02 403.11 134.24 400.26 132.11 396.76 130.22 395.14 125.52 392.25 123.76 392.06 123.11 392.54 122.09 394.78 122.19 398.62 123.53 403.95 121.87 406.17 119.65 407.61 115.24 408.77 113.06 408.59 108.92 407.29 109.42 405.83 109.69 402.84 111.44 401.27 113.55 400.53 115.46 399.08 116.51 396.77 118.36 394.12 120.58 392.13 120.75 390.15 120.2 389.38 117.84 387.91 114.12 384.82 112.53 382.57 110.69 378.87 109.87 376.62 110.08 374.7 111.19 373.62 114.07 373.07 116.53 373.13 122.2 373.77 124.43 373.38 127.09 372.03 130.87 368.66 132.61 366.47 133.28 364.72 133.43 362.98 132.87 360.89 131.24 357.85 128.36 355.25 124.65 352.43 122.9 351.45 119.66 350.54 115.44 350.03 113.37 348.62 111.98 346.68 111.51 345.45 111.46 343.23 111.85 341.91 112.96 340.23 114.99 338.82 117.08 338.39 123.49 338.35 125.46 337.99 127.04 337.16 130.5 341.72 132.4 344.59 133.76 346 141.58 350.25 144.51 350.35 146.74 349.5 149.18 348.21 152.81 347.53 154.74 346.4 155.49 344.43 155.57 342.76 154.34 342.31 153.76 340.41 151.97 337.69 148.81 335.28 147.42 335.08 145.19 335.83 143.04 337.1 139.78 337.92 136.44 337.71 134.63 336.71 132.99 335 129.73 330.7 130.67 325.77 131.66 323.03 130.81 320.97 133 317.42 134.3 316.99 135.49 317.42 137.44 318.85 138.8 320.27 146.41 319.65 151 318.79 156.65 322.39 158.72 322.69 161.55 321.99 163.85 320.52 164.86 319.07 165.28 317.54 164.68 315.39 162.76 313.46 161.01 312.54 156.24 311.27 154.67 310.55 152.16 308.87 148.33 302.72 147.66 300.96 147.11 296.65 147.25 295.25 148.71 293 153.12 289.8 155.98 287.08 157.64 285.06 160.43 281.18 161.19 279.73 160.95 277.14 159.57 275.85 145.85 272.12 144.43 270.83 144.02 268.38 144.02 263.17 144.45 260.19 145.56 257.98 147.92 257.98 149.25 258.82 152.59 262.01 153.75 262.4 155.97 262.03 159.84 259.69 160.68 261.43 163.8 269.48 166.48 271.04 168.56 271.16 171.21 270.09 172.17 268.11 172.11 265.73 170.32 262.93 168.34 261.16 168.38 260.62 166.68 255.62 170.07 254.16 173.3 253.77 179.24 255.14 182.6 255.35 185.13 254.98 187.54 254.11 188.64 252.75 189.15 250.81 188.68 247.5 189.27 245.69 191.79 242.31 192.68 239.99 192.5 238.36 191.55 236.7 190.14 235.67 188.05 235.33 186.64 235.98 182.98 236.62 181.75 236.35 176.5 232.43 173.73 228.56 173.24 226.42 173.8 225.12 178.7 221.56 182.43 219.4 184.62 217.43 186.44 217.81 188 218.67 190.67 221.4 192.29 222.4 193.56 223.67 196.46 224.96 198.64 225.25 200.66 225.03 202.53 224.27 205.15 221.96 207.03 218.85 207.06 216.27 206.7 214.64 204.97 213.17 202.13 212.74 199.63 212.77 197.42 212.1 195.48 212.27 194.62 212.81 192.68 212.96 191.85 212.27 189.8 213.06 185.15 210.44 183.81 209.45 181 205.82 179.52 203.53 179.03 199.63 179.41 198.25 180.95 196.48 182.22 196.02 185.84 196.66 187.24 200.76 187.88 201.6 191.16 204.15 194.78 205.45 196.59 205.6 198.59 207 200.57 203.71 200.21 198.63 201.52 193.22 201.9 189.16 202.8 187.99 205.63 187.5 209.8 188.78 212.63 190.02 216.16 190.64 217.9 190.35 219.56 189.36 220.95 188.03 222.89 185.55 223.58 182.07 223.47 179.92 221.81 176.79 219.34 173.59 217.23 171.42 216.32 169.31 216.41 167.21 217.98 165.44 219.06 164.89 221.44 164.86 227.06 166.78 229.97 166.74 232.93 165.8 235.12 164.62 236.79 164.76 235.55 169.1 233.3 172.74 232.78 175.09 232.87 176.97 234.39 178.78 236.11 179.52 238.02 179.56 239.75 179.03 240.66 177.2 240.1 173.73 238.73 170.22 238.79 168.29 241.36 164.13 240.68 163.1 241.97 161.55 244.72 159.67 247.38 159.44 250.02 159.56 251.45 159.11 254.01 157.41 256.63 154.56 258.44 149.82 258.56 148.25 257.02 144.55 255.44 136.58 255.29 134.77 256.2 131.35 258.2 126.52 259.66 124.94 261.45 124.28 264.44 122.51 266.61 120.56 267.39 117.18 267.28 115.56 265.4 112.52 260.18 106.41 257.34 101.41 256.4 98 257.61 92.77 258.92 89.77 261.4 86.87 261.9 83.52 261.44 79.73 263.69 79.65 264.98 79.99 266.73 81.15 267.62 82.56 267.83 84.47 265.2 88.54 264.53 92.5 264.8 93.99 266.29 96.26 267.35 96.91 269.41 97.29 272.6 96.44 274.83 94.77 276.35 92.94 279.22 90.62 282.55 87.32 283.51 86.06 284.73 82.66 284.66 80.7 283.98 78.38 282.37 76.96 280.37 77.22 273.08 79.37 269.45 79.09 265.86 77.05 263.84 75.18 261.13 74.63 261.89 72.37 262.13 69.22 263.05 68.07 266.02 67.61 266.99 67.84 268.38 63.52 267.19 59.45 266.7 56.13 268.27 52.86 269.92 51.79 272.58 51.32 274.74 52.32 274.65 54.46 276.42 56.29 278.61 59.18 278.64 61.23 278.25 63.11 274.82 65.63 271.6 69.9 275.01 72.01 278.63 72.65 282.27 72.05 284.46 71.19 286.57 69.82 288.11 68.13 288.16 66.62 287.26 63.76 285.1 60.12 283.51 57.05 282.22 53.57 282.34 51.87 283.65 48.97 284.72 47.9 286.95 46.59 285.49 43.31 282.87 38.78 280.96 35.89 280.9 32.14 281.79 30.28 283.52 28.84 285.51 27.9 287.56 28.11 289.65 29.02 291.42 30.57 292.81 34.06 292.67 35.01 291.4 37.32 288.26 41.57 290.58 45.47 292.45 45.25 296.47 45.35 298.84 44.99 301.33 44.22 307.27 41.12 310.88 38.5 312.5 37.05 314.19 39.04 316.59 40.66 317.89 40.93 319.07 40.48 320.26 38.23 319.87 36.61 317.61 35.66 317.05 33.81 319.25 32.41 322.94 30.75 325.98 30.2 327.74 29.54 330.14 28.11 331.79 26.71 333.38 24.02 333.86 19.56 333.39 14.49 332.64 13.31 328.71 11.57 327.59 10.85 322.36 6.33 320.22 3.11 319.58 1 334.89 1.26 358.76 1.81 377.09 1.97 388.61 2.07 403.98 2.32 418.64 2.63 419.29 2.58 446.19 2.74 447.48 2.62 459.79 2.72 480.72 2.97 492.41 3.14 498.19 3.36 508.93 3.48 526.76 3.55 538.18 3.47 556.09 3.45 568.84 3.7 576.11 3.53 602.44 3.51 619.45 3.58 626.26 3.3 633.96 3.51 656.66 3.46 658.91 3.5 690.36 3.31 719.68 3.11 739.86 3.19 758.68 3.04 765.46 3.05 776.65 2.94 Z M 714.42 1262.05 717.48 1263.66 721.04 1264.65 726.23 1265.83 728.69 1265.54 731.5 1263.89 734.69 1263.86 735.15 1265.16 726.18 1267.05 717.06 1264.62 714.94 1263.42 714.42 1262.05 Z M 696.22 1230.12 698.27 1229.97 699.54 1229.23 699.9 1231.43 698.93 1232.27 696.62 1231.66 696.22 1230.12 Z M 655.09 1254.78 659.07 1254.09 662.93 1254.16 664.97 1252.78 666.33 1252.53 672.51 1254.75 674.65 1255.13 679.71 1257.33 693.29 1259.41 693.31 1260.55 684.99 1259.32 677.69 1258.47 672.8 1257.33 666.42 1254.77 661.73 1255.93 657.77 1256.08 655.11 1255.39 655.09 1254.78 Z M 631.73 1218.13 632.02 1217.99 640.14 1221.11 641.4 1222.1 642.4 1223.98 639.05 1222.11 631.81 1218.52 631.73 1218.13 Z M 623.23 1258.52 626.08 1256.78 628.36 1254.75 628.4 1255.81 624.58 1258.43 623.23 1258.52 Z M 605.73 1263.51 607.76 1262.87 611.79 1262.71 611.94 1263.45 610.51 1264.06 606.82 1264.08 605.73 1263.51 Z M 571.29 1258.04 583.43 1258.49 585.66 1253.83 586.25 1254.22 585.58 1256.8 584.2 1259.44 581.8 1262.75 580.22 1262.02 576.01 1262.27 575.99 1260.27 575.06 1259.79 570.95 1258.95 571.29 1258.04 Z" fill-rule="evenodd" fill="none" stroke="currentColor" stroke-width="1"/>
</g>
</svg>