<?xml version="1.0"?>
<svg xmlns="http://www.w3.org/2000/svg" version="1.2" baseProfile="tiny" width="800" height="311" viewBox="0 0 800 311" stroke-linecap="round" stroke-linejoin="round">
<g id="state">
<path d="M 1 1.02 6.63 1.01 29.71 1.02 44.58 1.06 56.9 1.12 66.36 1.1 77.57 1.07 86.69 1.05 97.99 1.02 113.11 1 121.43 1.06 123.8 1.12 125.18 1.09 132.63 1.15 143.44 1.16 146.19 1.19 157.44 1.24 164.9 1.2 168.46 1.22 178.43 1.2 192.61 1.18 203.58 1.17 208.66 1.17 219.54 1.17 230.58 1.16 237.2 1.16 240.86 1.17 257.2 1.16 267.3 1.16 280.37 1.21 287.36 1.25 298.25 1.29 306.93 1.28 318.57 1.26 336.09 1.24 344.03 1.2 353.58 1.17 364.7 1.15 367.63 1.18 372.36 1.14 382.46 1.13 391.55 1.12 401.77 1.1 410.67 1.09 420.79 1.08 432.49 1.06 441.45 1.05 452.32 1.07 465.37 1.1 469.35 1.12 480.33 1.12 490.92 1.12 503.42 1.12 520.14 1.1 537.69 1.09 550.69 1.09 563.39 1.1 574.68 1.12 578.13 1.07 590.35 1.08 613.48 1.09 627.71 1.1 636.87 1.12 642.03 1.1 652.38 1.12 652.58 1.12 665.38 1.13 679.76 1.09 691.98 1.11 694.49 1.09 709.44 1.11 724.41 1.12 731.42 1.13 743.46 1.14 756.12 1.14 763.46 1.13 775.14 1.11 784.78 1.09 798.4 1.08 798.38 5.49 798.39 11.85 798.44 23.28 798.47 29.45 798.48 35.02 798.52 40.74 798.58 47.63 798.62 55.32 798.64 60.03 798.74 69.45 798.8 71.89 798.88 76.65 798.77 83.09 798.76 86.31 798.72 91.23 798.72 96.02 798.68 103.69 798.65 110.47 798.66 116.98 798.66 122.15 798.65 131.65 798.6 138.31 798.58 144.16 798.63 153.94 798.63 161.63 798.63 170.31 798.6 180.73 798.62 182.56 798.62 189.38 798.58 195.3 798.53 198.8 798.54 200.41 798.61 204.05 798.74 210.14 798.8 216.69 798.83 225.72 798.9 234.18 798.95 240.72 798.98 249.28 798.98 258.62 798.96 263.2 799 266.99 797.79 267.02 793.04 267 790.23 267.01 778.4 266.98 770.41 266.97 762.28 266.95 755.98 266.93 741.7 266.86 731.21 266.86 724.5 266.86 713.79 266.86 700.31 266.85 691.64 266.84 684.23 266.84 674.51 266.85 673.51 267.3 662.79 267.3 660.36 267.31 650.66 267.27 638.49 267.23 627.36 267.2 612.38 267.14 600.67 267.1 597.38 267.06 596.65 267.09 593.83 266.88 589.23 266.84 580.44 266.79 578.99 266.81 570.15 266.77 561.83 266.82 555.12 266.82 546.01 266.82 529.98 266.84 520.6 266.84 519.18 266.87 517.81 266.85 509.53 266.87 501.69 266.89 500.34 266.84 487.44 266.86 471.72 266.88 463.88 266.9 462.54 266.48 455.3 266.49 450.4 266.51 447.68 266.51 442.09 266.56 439.66 266.56 434.27 266.64 425.26 266.71 417.16 266.75 414.53 266.65 402.85 266.64 395.92 266.63 390.78 267.07 388.07 267.08 384.03 267.04 381.34 266.89 375.9 266.9 373.33 267.28 369.26 267.36 356.14 267.39 350.45 266.81 343.06 266.82 333.51 266.8 332.88 266.8 332.88 273.05 332.9 280.1 332.92 285.06 332.96 289.89 332.98 295.82 333.02 301.52 332.8 301.63 332.21 301.51 331.84 301.27 329.8 300.9 329.38 300.96 328.86 300.5 328.55 300.46 327.82 300.08 327.29 298.97 327.77 297.93 327.15 297.71 326.5 297.77 325.94 297.01 324.96 296.81 324.49 296.44 324.47 295.49 323.11 295.05 321.96 295.09 321.38 294.92 321.08 294.44 321.1 293.63 320.85 293.38 320.88 293.08 320.5 292.48 321.44 292.22 321.93 291.95 320.38 290.56 319.94 290.51 319.58 290.06 318.51 290.32 318.09 290.13 318.06 289.77 318.77 288.96 318.1 288.4 318 288.03 317.16 287.72 316.78 287.37 316.82 286.65 315.37 285.82 315.07 285.55 314.95 284.84 314.1 284.59 313.37 285.12 312.73 284.85 312.14 284.24 312.17 284.01 311.59 283.6 311.53 283.41 311.01 283.21 310.39 283.32 310.07 283.72 310.29 283.82 309.96 284.52 310.11 284.97 309.93 285.34 309.63 285.4 308.97 286.09 308.31 285.87 307.81 285.42 307.08 285.46 306.81 285.64 306.11 285.73 305.49 285.92 304.64 286.35 304.02 286.42 303.96 286.82 304.43 287.31 304.29 287.61 304.83 288.03 305.37 288.21 304.83 288.59 305.12 289 304.72 289.32 304.43 289.76 304.1 289.88 303.83 290.47 303.17 290.29 302.2 290.52 302.68 291.24 303.11 291.66 302.17 292.12 301.97 292.64 301.58 293.13 301.99 293.33 301.65 293.6 302.02 294.55 303.19 295.27 303.11 295.52 302.62 295.76 302.79 295.96 303.98 296.11 304.56 296.39 305.31 296.3 305.44 297.14 305.4 297.43 304.63 297.29 303.71 297.39 303.3 297.3 302.77 297.68 302.31 297.66 302.05 297.19 301.71 296.91 300.68 296.68 300.23 296.33 299.52 296.46 298.97 296.26 297.84 296.1 297.63 295.95 296.56 296.5 295.68 296.86 294.46 296.55 293.94 296.58 293.58 296.46 292.63 296.56 292.41 296.38 291.81 296.32 291.12 295.99 290.65 296.35 289.71 296.13 289.51 296.6 289.01 297.16 288.17 297.17 287.84 297.29 286.67 297.46 286.07 297.88 285.81 298.38 285.24 298.04 284.81 298.46 284.31 298.52 283.65 298.32 283.27 298.36 282.8 298.78 282.94 299.02 282.64 299.33 281.91 299.5 281.26 298.93 281.35 298.79 280.53 298.3 280.07 297.43 279.57 297.03 279.54 296.81 279.11 296.68 278.93 295.9 278.71 295.8 278.06 296.08 277.37 295.79 277.02 296.14 276.48 296.33 275.42 296.27 273.45 296.35 273.3 296.77 272.64 296.82 272.55 297.13 272.23 297.16 271.95 297.59 271.69 297.69 270.58 297.6 270.44 297.75 269.76 297.58 269.29 297.2 268.82 297.27 268.5 297.09 267.88 296.99 267.72 297.3 267.91 298.15 267.48 297.91 266.55 297.78 266.34 297.65 265.47 297.62 265 297.88 264.66 297.85 263.82 298.13 263.64 298.56 262.96 298.71 262.74 298.47 261.61 298.17 261.36 297.59 260.77 297.49 259.97 297.54 259.11 297.33 257.85 297.9 256.69 297.51 255.37 297.21 254.79 296.77 254.96 296.28 254.7 296.17 254.82 295.83 253.86 295.55 252.83 295.55 252.18 295.74 250.87 295.58 250.24 296.17 249.61 296.26 249.21 296.56 249.11 297.34 248.81 297.5 246.96 297.51 246.51 297.73 246.21 298.18 246.36 298.44 246.25 298.77 246.24 299.48 246.35 300.57 246.21 301.09 245.84 301.4 245.7 302.18 244.37 303.59 244.13 303.39 242.94 302.92 242.41 303.21 241.96 303.1 241.21 303.12 241.25 302.76 240.58 302.3 239.81 302.33 239.76 301.97 238.6 301.46 237.83 302.02 237.4 302.06 236.8 302.56 236.08 302.32 235.91 301.74 234.47 301.53 234.23 301.26 233.54 301.11 232.86 301.24 232.2 301.24 231.62 301.37 231.19 301.34 230.09 300.71 229.05 300.91 228.54 301.21 228.02 300.69 227.46 300.73 226.14 301.02 225.27 300.63 224.64 300.59 224.29 300.2 223.09 299.9 222.35 299.81 221.31 300.09 220.86 300.76 220.23 300.74 219.39 300.91 218.75 301.18 218.21 301.27 217.85 301.49 217.73 301.78 217.02 302.35 217.05 302.65 216.38 303.2 215.89 303.21 215.69 303.61 215.26 303.77 215.01 304.05 215.11 304.6 214.26 305.14 215.45 306.26 215.55 306.7 216.08 306.8 215.9 307.04 216.1 307.54 216.01 308.17 215.37 308.78 213.94 309.53 213.21 309.38 212.65 308.74 212.05 308.59 211.83 308.23 211.48 308.11 211.47 307.68 211.22 307.03 211.29 306.6 210.8 306.38 210.14 306.81 209.35 306.58 208.85 306.01 208.1 305.84 207.73 305.92 206.86 305.59 206.72 305.21 206.03 305.18 204.91 304.49 204.34 303.85 203.48 303.42 203.21 303.06 203.03 302.5 203.2 302.04 202.28 301.17 201.82 300.39 202.49 299.82 202.55 299.03 203.24 298.77 203.16 298.35 202.56 298.13 202 297.63 201.6 297.64 201.04 297.45 200.43 296.88 200.61 296.37 201.19 296.02 200.98 295.62 199.91 295.2 199.13 294.82 199.47 294.38 199.09 294.07 198.26 293.63 197.74 293.47 198.48 292.8 198.83 292.39 199.79 292.23 200.3 291.53 200.17 290.98 199.26 290.2 199.35 289.94 199.08 289.57 198.99 288.81 199.09 288.19 198.54 288.09 198.15 287.86 198.32 287.62 198.15 287.35 197.36 287.11 196.86 286.36 196.95 285.58 196.85 284.84 196.13 284.58 195.81 284.61 195.87 284.14 195.62 283.75 195.25 283.5 194.65 283.29 194.45 282.82 194.88 282.48 194.74 281.89 193.63 281.53 192.95 281.43 192.75 281.56 191.68 281.01 191.39 280.56 190.69 280.01 190.08 279.89 189.7 279.55 188.82 279.44 188.23 279.21 187.81 279.23 187.18 278.63 186.45 278.83 186.08 279.08 185.39 279.2 184.7 279.58 183.74 279.95 183.57 280.22 182.43 280.49 181.81 280.88 180.98 281.17 180.15 280.76 180.04 280.46 180.58 280.23 180.06 279.07 179.87 278.78 179.32 278.58 178.56 278.11 178.56 277.87 178.02 277.66 177.41 277.7 176.4 277.45 175.55 277.64 175.54 277.32 175.1 276.51 174.35 276.42 174.06 276.02 173.37 275.81 173.22 275.14 172.87 274.72 172.96 274.39 172.59 274.13 171.81 273.8 171.99 273.64 172.17 272.95 171.47 272.2 170.94 271.88 170.92 271.49 170.47 270.72 170.63 270.34 171.26 270.4 171.69 270.17 172.19 270.3 172.76 270.29 173.05 270.03 173.53 270.03 173.94 269.8 174.11 269.52 173.74 268.83 174.01 268.7 173.9 267.86 174.03 267.41 173.91 266.98 174.47 266.49 174.45 266.23 173.79 265.54 173.95 264.61 173.32 264.2 173.75 263.77 173.57 262.93 173.02 262.55 172.61 262.71 171.96 262.76 171.39 262.65 171.26 261.94 170.65 261.49 169.44 261.23 168.91 260.79 169.53 260.3 169.99 259.69 169.53 259.1 169.04 259.22 168.37 259.14 167.95 259.39 167.08 259.36 166.81 259 165.75 258.59 165.28 258.14 166.04 257.11 165.04 257 164.83 256.65 164.36 256.51 164.36 256.14 164.12 255.59 164.44 255.08 164.26 254.59 163.99 254.53 163.77 254.1 163.38 254.06 162.86 253.74 162.15 253.17 161.29 252.76 161.29 252.46 160.6 251.87 160.46 251.29 160.06 250.92 159.31 250.46 158.45 250.27 158.09 250.02 157.56 249.31 157.63 248.77 158.19 248.73 158.49 248.53 157.94 247.86 157.06 247.43 156.84 246.99 156.43 246.86 155.84 245.98 155.86 245.81 155.19 245.61 154.52 244.95 154.41 243.96 154.8 243.7 155.01 243.09 154.85 242.66 154.51 242.37 154.91 242.07 154.81 241.62 154.93 241.35 154.81 240.79 154.21 240.54 153.83 240.1 152.99 239.85 152.19 239.86 151.97 239.19 152.68 238.87 153.12 238.48 152.77 238.22 152.21 238.18 151.99 237.98 152.15 237.2 151.54 236.83 151.5 236.63 152.03 236.23 152.16 235.93 152.03 235.57 152.49 235.42 153.11 234.93 153.1 234.56 152.89 234.25 152.79 233.69 152.38 233.12 152.26 232.69 152.71 232.28 151.86 232.1 151.67 232.19 150.3 232.1 149.78 232.33 149.16 232.11 148.23 232.28 148.49 231.18 148.72 230.74 149.01 230.5 149.29 229.85 149.2 229.41 149.99 228.45 150.51 228.23 150.56 227.9 150.2 227.49 150.02 226.89 149.72 226.61 149.24 226.47 148.7 226.12 148.17 226.33 147.56 226.15 147.23 225.67 146.32 225.42 145.18 225.76 144.6 225.84 143.5 225.36 143.71 224.99 143.64 224.5 144.12 224.08 143.32 223.46 142.95 223.42 142.51 223.15 142.43 222.74 141.71 222.13 141.75 221.8 141.53 221.55 141.62 221.2 141.46 220.73 141.21 220.63 140.26 220.95 139.64 221.03 139.28 220.93 138.99 220.18 138.49 220.19 137.94 219.96 137.55 220.15 137.4 220.55 136.8 220.74 135.89 220.84 136.2 221.43 135.28 222 135.89 222.37 136.25 223.12 136.14 223.49 135.73 223.81 134.86 223.83 133.71 224.82 132.71 225.14 132.34 225.58 132.27 225.99 131.77 226.24 131.67 226.49 131.69 227.22 131.42 227.57 130.7 227.86 129.2 228.05 128.83 228.24 128.38 228.85 128.59 229.3 128.11 229.85 127.15 229.81 126.94 230.12 126.16 230.17 125.9 230.29 125.18 230.24 124.72 230.67 124.49 231.09 124.22 231.24 123.52 231.25 123.4 231.13 122.43 230.8 122.02 230.58 121.21 230.55 120.66 230.64 120.44 231.15 120.63 231.34 120.73 232 120.32 232.64 119.98 232.89 119.78 233.98 119.22 234.25 119.23 234.67 118.51 234.99 117.74 234.97 117.28 235.18 117.12 235.44 116.6 235.68 116.2 235.69 115.61 235.91 115.25 236.16 114.29 236.32 113.86 235.87 113.83 235.6 113.32 235.45 113.16 234.94 112.93 234.73 112.69 234.15 112.22 234.04 111.32 233.44 111.09 233.48 109.71 233.06 109.02 233.02 108.62 232.48 108.5 231.89 108.17 231.62 107.93 231.18 107.34 231.06 106.92 230.71 106.33 230.65 106.41 230.06 106.84 229.59 106.21 229.62 105.68 229.42 104.9 229.54 104.12 229.94 103.48 229.7 102.76 229.1 102.1 228.94 101.74 229.27 100.71 229.58 100.44 229.85 99.9 229.7 99.62 229.8 99.58 229.48 100 229.29 100.16 228.8 100.42 228.55 100.05 228.03 100.77 227.02 101.41 226.59 100.97 225.87 100.39 225.74 99.73 224.89 99.68 224.5 100.5 224.18 101.15 224.2 101.31 223.64 101.99 223.51 102.42 223.72 103.43 223.15 103.51 222.89 103.96 222.44 103.78 222.08 104 221.76 103.86 221.52 103.02 221.43 103.33 221.05 103.84 220.77 104.25 220.07 104.1 219.62 103.74 219.21 103.66 218.9 102.91 218.53 102.16 218.52 101.56 217.75 100.76 217.48 100.79 216.9 100.98 216.42 100.53 216.1 100.11 216.08 99.53 215.52 99.82 215.02 100.24 214.6 100.98 214.37 100.95 213.85 101.87 213.05 101.87 212.45 102.91 211.96 103.08 211.73 102.79 211.33 103.29 210.69 103.7 210.65 103.91 210.39 104.91 210.28 105.57 210.61 105.91 210.29 106.49 210.04 107.05 209.98 107.54 209.61 108.07 209.55 108.98 210 109.94 210.28 110.19 209.03 110.87 208.94 111.08 208.44 111.39 208.13 111.42 207.79 111.06 207.58 110.9 206.98 110.28 206.81 109.68 206.29 109.51 205.84 109.58 205.58 108.49 204.67 108.93 204.14 109.59 203.85 109.84 203.53 110.41 203.21 110.45 202.83 109.81 202.12 109.8 201.89 109.16 201.65 108.93 201.43 108.23 201.23 107.36 201.24 107.02 201.02 106.74 200.58 106.35 200.58 105.58 200.95 104.94 200.66 104.75 200.14 105.69 199.57 105.73 199.45 105.23 198.39 104.65 198.57 104.12 198.56 103.45 198.35 103.49 197.86 104.24 197.4 104.38 196.92 105.27 196.74 105.95 196.32 106.13 196.05 105.79 195.82 105.77 195.31 106.45 195.2 106.63 194.18 106.52 193.87 105.87 193.4 105.63 192.9 104.7 192.91 104.02 192.52 103.6 192.55 102.73 192.22 102.52 192.01 102.76 191.41 102.12 190.76 102.48 190.4 102.96 190.21 102.9 189.35 103.44 189.48 104.04 189.3 104.65 189.28 105.06 189.57 105.61 189.72 106.75 189.11 107.57 189.26 107.63 187.17 107.7 186.93 107.24 186.4 107.14 186.11 107.55 185.82 107.41 185.1 107.12 184.38 106.13 183.98 106.27 183.66 105.88 182.78 106.27 182.26 107.01 182.41 107.61 182.3 108.23 182.03 108.74 181.59 108.89 181.29 108.7 181.08 108.36 180.11 108.48 179.79 109.08 178.88 109.18 178.42 109.65 178.12 109.6 177.85 109.9 176.13 109.51 175.6 109.09 174.7 109.91 174.08 110.03 173.78 110.49 173.73 111.01 173.23 111.59 173.08 111.67 172.61 111.58 172 111.99 171.51 112.65 171.41 112.44 171.01 112.18 171 111.61 170.65 111.95 169.83 111.7 169.44 110.93 169.22 110.51 168.62 110.52 167.97 110.37 167.7 110.42 167.15 110.94 166.96 111.66 166.85 112.2 167.08 112.71 166.85 113.26 166.87 114.01 166.51 114.37 165.99 114.35 165.68 114.09 165.48 113.99 164.95 114.31 164.43 114.04 163.77 114.37 163.55 114.6 162.94 115.15 162.38 114.98 161.94 114.6 161.4 114.29 161.22 114.83 160.97 115.21 160.58 115.33 160.24 115.72 159.84 115.36 159.22 115.75 158.83 115.87 157.99 115.71 157.65 115.85 157.43 115.59 157 115.18 156.61 114.77 156.41 113.7 156.33 113.38 155.98 112 156.11 111.73 156.37 110.94 156.23 110.32 156.6 110.02 156.52 109.66 156.78 108.97 156.52 107.01 157.33 106.96 157.83 106.14 158.44 105.2 158.43 104.09 158.06 103.85 157.8 103.37 157.93 102.35 157.85 101.16 157.23 100.85 157.56 100.12 157.62 99.74 157.84 99.3 157.67 98.32 158.33 97.7 158.36 97.31 158.14 96.91 158.16 96.42 157.99 96.2 157.66 96.52 157.4 96.29 156.87 95.89 156.7 94.95 156.61 94.64 156.2 95.09 155.9 94.65 155.75 94.54 155.27 95.17 154.97 95.73 154.51 95.65 154.16 95.91 153.42 95.63 153.09 95.07 152.87 94.68 152.46 94.29 152.35 94.15 151.82 93.38 151.61 93 151.31 92.51 151.47 91.91 151.32 91.52 151.48 90.7 151.23 90.46 151.88 90.07 152.1 89.95 152.73 89.53 152.97 88.78 152.94 88 153.11 87.18 154.09 86.23 154.11 86.09 153.59 85.18 153.37 84.77 152.97 85.19 152.61 85.15 152.15 85.47 151.81 85.75 151.79 86.18 151.33 86.14 150.79 86.32 150.04 85.74 149.74 85.73 149.55 85.09 149.34 84.9 148.7 83.94 148.83 83.36 148.43 82.75 148.51 81.96 148.35 81.52 147.74 81.1 147.67 80.22 147.15 79.97 146.88 79.94 146.49 79.63 146.29 78.21 146.63 77.97 147.06 77.65 147.13 77.45 146.64 77.7 146.12 77.46 145.77 76.91 145.76 75.87 145.36 75.45 144.84 75.45 144.36 75.75 144.05 75.45 143.62 74.5 143.48 74.14 143.23 74.41 142.74 74.66 142.71 75.21 142.22 75.3 141.8 74.91 140.8 75.41 139.96 75.89 139.78 75.61 139.32 75.04 139.3 74.57 139.01 73.86 138.84 73.3 138.59 73.45 138.38 73.07 138.08 72.69 138.04 72.01 137.47 71.61 137.28 71.66 137.03 71.15 136.65 70.65 136.12 70.63 135.84 69.93 135.68 68.81 135.59 68.59 135.86 67.53 135.99 67.26 135.64 67.39 135.23 66.94 134.98 66.65 134.51 66.21 134.29 66.38 133.95 65.88 133.05 66.09 132.99 65.81 132.26 65.41 132.09 65.27 131.43 64.84 131.24 64.9 130.93 64.2 130.74 63.66 130.74 62.6 129.76 62 129.39 61.46 128.7 61.24 127.81 61.4 127.55 61.14 127.21 60.07 127.19 59.27 126.85 59.22 126.51 58.31 125.67 58.34 125.36 57.54 124.86 56.47 124.47 55.93 124.06 54.56 123.95 54.16 123.39 53.78 123.16 53.69 122.34 53.31 121.91 51.65 121.78 51.38 121.56 50.82 121.5 50.7 121.11 51.04 120.3 51.34 119.96 51.11 119.33 50.86 118.99 50.04 118.71 49.55 118.26 49.15 117.64 49.56 117.23 49.21 116.94 48.06 116.5 47.73 116.65 47.2 116.55 46.84 116.72 46.06 116.35 45.72 116.39 45.13 116.18 44.83 116.3 43.36 116.4 42.73 115.92 42.77 115.54 42.38 115.34 41.7 115.34 41.14 115.56 40.33 115.48 40.34 115.26 39.73 114.87 38.71 115.27 38.14 114.75 36.99 114.56 36.54 114.27 35.59 114.09 35.57 113.56 35.02 112.85 34.75 112.36 34.91 112.11 34.15 111.79 34.24 110.91 33.7 110.46 33.11 110.55 32.41 110.24 32.35 109.57 31.12 109.27 30.72 108.89 29.7 108.55 28.85 108.76 28.39 108.74 27.99 108.89 27.63 108.57 27.77 108.2 27.52 107.9 27.17 107.8 27.03 107.38 25.8 107.22 25.84 106.77 25.15 106.65 24.76 106.38 23.38 106.36 22.81 105.99 22.79 105.68 22.12 105.74 21.63 105.63 20.82 105.92 20.26 105.8 20.71 105.25 21.1 104.58 22.13 104.41 23.07 103.9 24.06 103.9 24.78 103.59 25.49 103.66 25.73 103.84 27.07 103.76 28.17 103.42 28.51 102.93 28.88 102.1 28.54 101.97 27.7 102.21 26.79 102.22 26.72 101.87 26.34 101.49 25.94 101.65 25.11 101.75 24.85 100.68 24.32 100.6 23.61 99.73 23.45 99.21 24.5 98.9 24.31 98.66 23.76 98.42 23.41 98.59 22.2 98.38 21.78 98.1 21.49 98.2 20.76 97.96 20.5 97.54 20.58 97.26 21.26 96.83 21.48 96.53 22.18 96.12 22.72 95.95 22.79 95.68 23.77 95.59 24.01 95 24.43 94.84 24.75 94.54 24.67 93.98 24.38 93.85 24.27 93.37 24.63 92.89 24.57 92.52 23.69 91.79 23.32 91.75 22.18 91.29 21.78 90.44 22.14 89.83 22.05 89.61 22.45 89.2 22.32 88.67 22.69 87.8 22.11 87.13 20.67 86.33 20.18 86.2 19.32 86.29 18.88 85.91 18.6 85.46 18.63 84.99 18.82 84.67 18.45 84.22 17.97 84 17.72 83.65 17.25 83.59 15.97 83.96 15.5 83.8 15.2 83.37 15.22 82.8 14.86 82.12 14.4 81.71 14.51 81.27 14.3 80.8 14.31 80.14 14.55 79.84 14.18 79.39 14.08 78.96 12.85 78.49 12.6 78.01 12.14 77.51 10.81 77.95 10.45 77.73 10.24 77.29 9.67 77.26 9.62 76.99 8.56 75.75 8.38 75.42 7.6 74.9 7.36 74.56 6.39 74.03 6.55 73.43 6.28 73.21 5.39 73.08 5.24 72.63 4.86 72.53 4.36 71.58 3.82 71.29 3.77 70.79 2.72 69.86 2.24 69.34 1.7 69.43 1 69.06 1.01 59.58 1.01 51.77 1.01 41.96 1 35.57 1 28.52 1.01 21.56 1 16.99 1 7.35 1 1.02 Z" fill="none" stroke="currentColor" stroke-width="1"/>
</g>
</svg>