<?xml version="1.0"?>
<svg width="200" height="200" xmlns="http://www.w3.org/2000/svg" version="1.2" baseProfile="tiny" viewBox="-64.000 -232.500 928.000 928.000" stroke-linecap="round" stroke-linejoin="round">
<g id="state">
<path vector-effect="non-scaling-stroke" d="M 9.26 1 14.63 1.44 36.64 3.23 50.82 4.37 62.57 5.34 71.61 5.95 82.31 6.65 91.02 7.22 101.81 7.88 116.25 8.78 124.19 9.35 126.45 9.58 127.77 9.62 134.88 10.12 145.21 10.73 147.83 10.92 158.58 11.58 165.71 11.9 169.11 12.1 178.64 12.56 192.19 13.18 202.69 13.64 207.54 13.87 217.94 14.3 228.5 14.72 234.83 14.96 238.33 15.11 253.96 15.66 263.61 15.99 276.11 16.45 282.8 16.69 293.21 17.05 301.51 17.24 312.65 17.48 329.41 17.8 337.01 17.88 346.14 17.99 356.79 18.12 359.59 18.2 364.12 18.2 373.78 18.29 382.48 18.37 392.26 18.41 400.77 18.44 410.46 18.46 421.66 18.46 430.23 18.44 440.63 18.45 453.12 18.43 456.93 18.45 467.43 18.37 477.57 18.27 489.52 18.13 505.52 17.88 522.31 17.56 534.75 17.29 546.9 17.04 557.7 16.78 561 16.63 572.68 16.3 594.81 15.61 608.42 15.15 617.18 14.84 622.11 14.63 632.01 14.26 632.2 14.24 644.44 13.73 658.18 13.05 669.86 12.52 672.25 12.38 686.55 11.68 700.85 10.91 707.55 10.54 719.05 9.9 731.15 9.17 738.15 8.71 749.31 7.97 758.51 7.34 771.51 6.44 771.94 12.83 772.59 22.06 773.8 38.63 774.44 47.58 775.02 55.66 775.64 63.96 776.39 73.94 777.2 85.08 777.7 91.91 778.75 105.56 779.06 109.1 779.62 116 780.16 125.34 780.48 130.01 780.94 137.15 781.42 144.08 782.16 155.21 782.81 165.03 783.48 174.47 784 181.96 784.95 195.74 785.58 205.4 786.15 213.87 787.18 228.04 787.97 239.2 788.84 251.76 789.87 266.88 790.07 269.53 790.76 279.41 791.32 287.99 791.62 293.06 791.79 295.4 792.24 300.67 792.98 309.49 793.71 318.98 794.65 332.06 795.58 344.32 796.29 353.79 797.18 366.21 798.13 379.74 798.58 386.39 799 391.88 797.76 392.02 792.87 392.32 789.98 392.53 777.81 393.3 769.58 393.82 761.22 394.33 754.73 394.69 740.03 395.48 729.22 396.1 722.32 396.49 711.29 397.09 697.41 397.8 688.48 398.23 680.86 398.6 670.84 399.08 669.85 399.78 658.8 400.28 656.29 400.4 646.3 400.77 633.76 401.21 622.29 401.6 606.85 402.06 594.78 402.4 591.39 402.44 590.63 402.51 587.71 402.29 582.97 402.37 573.92 402.57 572.42 402.63 563.3 402.82 554.73 403.11 547.82 403.27 538.43 403.47 521.9 403.82 512.22 403.99 510.76 404.06 509.35 404.05 500.82 404.21 492.73 404.34 491.34 404.29 478.04 404.46 461.83 404.64 453.75 404.7 452.36 404.1 444.9 404.15 439.85 404.2 437.04 404.21 431.28 404.29 428.77 404.3 423.22 404.41 413.93 404.5 405.58 404.52 402.87 404.38 390.82 404.3 383.68 404.23 378.37 404.82 375.58 404.82 371.41 404.72 368.64 404.47 363.03 404.42 360.38 404.95 356.18 405.01 342.65 404.85 336.79 403.92 329.17 403.81 319.33 403.6 318.68 403.58 318.5 412.66 318.32 422.91 318.19 430.11 318.1 437.13 317.95 445.75 317.83 454.04 317.59 454.2 316.98 454.01 316.61 453.65 314.49 453.07 314.06 453.15 313.53 452.47 313.21 452.41 312.46 451.84 311.94 450.21 312.48 448.72 311.83 448.37 311.16 448.44 310.6 447.34 309.58 447.02 309.11 446.48 309.12 445.09 307.72 444.42 306.52 444.45 305.93 444.19 305.63 443.49 305.67 442.32 305.42 441.94 305.47 441.51 305.09 440.63 306.08 440.28 306.59 439.89 305.03 437.84 304.58 437.76 304.22 437.08 303.1 437.45 302.67 437.16 302.65 436.63 303.42 435.47 302.74 434.64 302.64 434.1 301.79 433.63 301.4 433.11 301.46 432.07 299.99 430.83 299.69 430.43 299.59 429.39 298.72 429.02 297.95 429.76 297.29 429.35 296.7 428.45 296.73 428.12 296.15 427.51 296.1 427.23 295.57 426.93 294.92 427.08 294.57 427.64 294.8 427.8 294.44 428.81 294.58 429.46 294.38 429.99 294.06 430.08 293.36 431.06 292.68 430.72 292.18 430.07 291.42 430.09 291.13 430.36 290.4 430.47 289.76 430.73 288.86 431.33 288.21 431.42 288.14 432 288.6 432.71 288.45 433.14 288.99 433.78 289.54 434.05 288.97 434.59 289.26 435.19 288.83 435.64 288.51 436.27 288.17 436.45 287.87 437.3 287.19 437.02 286.18 437.32 286.64 438.39 287.08 439.01 286.08 439.64 285.85 440.39 285.43 441.1 285.85 441.4 285.49 441.79 285.83 443.18 287.02 444.26 286.93 444.62 286.41 444.95 286.58 445.25 287.81 445.5 288.41 445.91 289.18 445.81 289.29 447.03 289.24 447.45 288.44 447.22 287.48 447.34 287.06 447.2 286.49 447.74 286.02 447.7 285.77 447.02 285.42 446.59 284.36 446.23 283.9 445.71 283.16 445.88 282.6 445.58 281.43 445.32 281.22 445.08 280.09 445.85 279.16 446.35 277.9 445.87 277.36 445.91 277 445.71 276 445.84 275.78 445.57 275.16 445.47 274.45 444.97 273.96 445.48 272.99 445.12 272.76 445.8 272.21 446.61 271.34 446.59 270.99 446.76 269.77 446.97 269.13 447.56 268.84 448.27 268.26 447.77 267.79 448.36 267.27 448.44 266.6 448.13 266.2 448.18 265.7 448.77 265.83 449.12 265.5 449.56 264.74 449.78 264.09 448.93 264.19 448.74 263.35 448.01 262.92 446.73 262.42 446.12 262.39 445.8 261.95 445.61 261.8 444.46 261.57 444.31 260.89 444.69 260.18 444.26 259.8 444.76 259.23 445.01 258.13 444.89 256.08 444.94 255.91 445.55 255.22 445.6 255.11 446.05 254.78 446.08 254.46 446.69 254.2 446.83 253.05 446.66 252.89 446.88 252.19 446.62 251.73 446.04 251.24 446.13 250.9 445.86 250.27 445.69 250.09 446.13 250.24 447.37 249.81 447.01 248.85 446.79 248.64 446.6 247.73 446.52 247.23 446.88 246.88 446.83 245.99 447.2 245.79 447.83 245.07 448.01 244.86 447.66 243.7 447.19 243.47 446.34 242.85 446.17 242.03 446.22 241.14 445.88 239.8 446.66 238.61 446.05 237.26 445.58 236.68 444.92 236.88 444.21 236.62 444.04 236.76 443.55 235.78 443.11 234.71 443.07 234.02 443.32 232.67 443.04 231.98 443.88 231.33 443.98 230.89 444.41 230.75 445.53 230.43 445.76 228.5 445.7 228.02 445.99 227.69 446.65 227.83 447.03 227.7 447.5 227.66 448.53 227.71 450.13 227.54 450.88 227.13 451.3 226.95 452.43 225.49 454.43 225.25 454.13 224.03 453.4 223.47 453.81 223.01 453.63 222.23 453.63 222.29 453.1 221.61 452.41 220.81 452.43 220.78 451.89 219.6 451.11 218.77 451.9 218.32 451.94 217.67 452.64 216.93 452.27 216.79 451.42 215.31 451.05 215.07 450.65 214.36 450.4 213.65 450.57 212.96 450.53 212.35 450.71 211.91 450.65 210.79 449.68 209.7 449.93 209.16 450.35 208.64 449.56 208.06 449.6 206.67 449.97 205.78 449.36 205.13 449.27 204.79 448.69 203.56 448.21 202.8 448.04 201.71 448.41 201.2 449.36 200.55 449.32 199.66 449.52 198.97 449.88 198.41 449.99 198.03 450.29 197.88 450.7 197.1 451.5 197.12 451.95 196.39 452.72 195.88 452.71 195.64 453.27 195.19 453.48 194.91 453.89 194.98 454.7 194.06 455.43 195.23 457.11 195.31 457.76 195.86 457.93 195.65 458.26 195.83 459 195.7 459.92 195 460.78 193.45 461.79 192.71 461.55 192.16 460.59 191.55 460.34 191.35 459.81 190.98 459.63 191 459.01 190.78 458.05 190.88 457.42 190.38 457.09 189.67 457.68 188.86 457.31 188.37 456.45 187.61 456.17 187.22 456.27 186.34 455.75 186.21 455.2 185.5 455.12 184.37 454.07 183.82 453.12 182.95 452.45 182.7 451.92 182.54 451.1 182.76 450.43 181.85 449.13 181.43 447.97 182.16 447.17 182.27 446.03 183.01 445.69 182.95 445.07 182.34 444.73 181.8 443.97 181.38 443.96 180.81 443.67 180.22 442.81 180.43 442.08 181.06 441.6 180.87 441 179.78 440.35 179 439.76 179.38 439.13 179 438.66 178.17 437.99 177.65 437.73 178.46 436.8 178.85 436.21 179.86 436.02 180.43 435.03 180.33 434.23 179.44 433.05 179.55 432.68 179.29 432.14 179.25 431.02 179.4 430.13 178.83 429.95 178.45 429.61 178.64 429.26 178.48 428.87 177.68 428.48 177.21 427.37 177.35 426.24 177.3 425.16 176.58 424.74 176.24 424.78 176.33 424.09 176.1 423.51 175.74 423.13 175.13 422.81 174.96 422.11 175.42 421.63 175.32 420.77 174.19 420.2 173.5 420.03 173.28 420.2 172.21 419.34 171.94 418.68 171.26 417.85 170.63 417.64 170.26 417.13 169.36 416.92 168.77 416.57 168.33 416.58 167.73 415.67 166.95 415.92 166.55 416.27 165.84 416.41 165.09 416.93 164.08 417.42 163.88 417.8 162.69 418.14 162.01 418.67 161.14 419.05 160.31 418.41 160.21 417.97 160.79 417.66 160.34 415.95 160.16 415.53 159.61 415.2 158.86 414.48 158.87 414.13 158.33 413.8 157.69 413.83 156.67 413.41 155.78 413.65 155.79 413.19 155.39 411.98 154.63 411.82 154.36 411.22 153.66 410.87 153.56 409.9 153.23 409.26 153.35 408.79 152.98 408.39 152.2 407.88 152.4 407.65 152.63 406.66 151.96 405.54 151.45 405.04 151.45 404.48 151.04 403.33 151.24 402.8 151.88 402.92 152.35 402.61 152.85 402.82 153.44 402.84 153.76 402.47 154.25 402.5 154.69 402.19 154.89 401.79 154.55 400.77 154.85 400.6 154.79 399.36 154.96 398.71 154.87 398.09 155.47 397.41 155.48 397.02 154.85 395.98 155.08 394.65 154.46 394.02 154.94 393.43 154.81 392.2 154.27 391.62 153.84 391.82 153.17 391.85 152.59 391.67 152.51 390.64 151.92 389.96 150.7 389.51 150.18 388.84 150.86 388.17 151.37 387.3 150.94 386.42 150.43 386.58 149.74 386.42 149.3 386.76 148.41 386.68 148.16 386.13 147.1 385.48 146.65 384.81 147.51 383.34 146.49 383.14 146.3 382.61 145.82 382.38 145.86 381.86 145.65 381.04 146.02 380.32 145.87 379.59 145.6 379.5 145.4 378.86 145.01 378.78 144.5 378.29 143.81 377.42 142.97 376.78 142.98 376.35 142.32 375.45 142.22 374.6 141.84 374.04 141.11 373.34 140.24 373.01 139.89 372.63 139.41 371.57 139.52 370.79 140.1 370.76 140.42 370.49 139.91 369.49 139.03 368.81 138.85 368.16 138.43 367.96 137.9 366.65 137.93 366.4 137.27 366.07 136.63 365.08 136.6 363.63 137.02 363.28 137.28 362.4 137.15 361.77 136.82 361.33 137.25 360.92 137.19 360.26 137.33 359.87 137.25 359.06 136.66 358.66 136.31 358 135.47 357.59 134.65 357.57 134.48 356.57 135.23 356.16 135.71 355.62 135.38 355.22 134.8 355.12 134.6 354.82 134.82 353.69 134.23 353.13 134.2 352.84 134.78 352.28 134.93 351.86 134.83 351.33 135.31 351.13 135.98 350.46 136 349.92 135.81 349.47 135.75 348.65 135.38 347.79 135.29 347.17 135.78 346.59 134.93 346.29 134.73 346.4 133.34 346.2 132.79 346.5 132.17 346.15 131.21 346.34 131.57 344.76 131.83 344.13 132.15 343.81 132.49 342.88 132.43 342.23 133.31 340.88 133.86 340.59 133.93 340.11 133.61 339.5 133.47 338.62 133.18 338.21 132.71 337.97 132.19 337.43 131.63 337.7 131.02 337.41 130.72 336.69 129.82 336.27 128.63 336.71 128.04 336.79 126.96 336.03 127.2 335.5 127.17 334.8 127.69 334.22 126.92 333.26 126.55 333.19 126.12 332.77 126.08 332.17 125.4 331.24 125.47 330.77 125.26 330.39 125.39 329.9 125.26 329.2 125.01 329.04 124.02 329.45 123.38 329.53 123.02 329.36 122.79 328.26 122.28 328.25 121.75 327.87 121.33 328.14 121.15 328.7 120.52 328.94 119.58 329.04 119.86 329.91 118.87 330.68 119.46 331.25 119.76 332.37 119.62 332.89 119.18 333.33 118.29 333.31 117.04 334.68 115.99 335.08 115.58 335.71 115.47 336.3 114.94 336.62 114.81 336.98 114.78 338.03 114.47 338.54 113.71 338.91 112.17 339.09 111.78 339.34 111.26 340.21 111.44 340.87 110.9 341.64 109.93 341.52 109.69 341.97 108.89 341.98 108.62 342.14 107.88 342.02 107.38 342.63 107.11 343.22 106.82 343.42 106.1 343.4 105.99 343.21 105.03 342.67 104.63 342.32 103.81 342.24 103.24 342.34 102.98 343.06 103.15 343.35 103.2 344.31 102.72 345.21 102.35 345.56 102.06 347.12 101.45 347.47 101.42 348.08 100.66 348.5 99.88 348.43 99.39 348.7 99.21 349.07 98.66 349.38 98.25 349.38 97.62 349.66 97.24 350.01 96.24 350.17 95.84 349.49 95.84 349.1 95.33 348.84 95.21 348.09 95 347.78 94.81 346.92 94.33 346.74 93.47 345.81 93.23 345.85 91.87 345.15 91.17 345.05 90.8 344.23 90.74 343.38 90.42 342.96 90.22 342.32 89.63 342.1 89.23 341.56 88.64 341.44 88.78 340.58 89.25 339.93 88.61 339.94 88.09 339.62 87.28 339.74 86.45 340.27 85.82 339.88 85.14 338.97 84.49 338.68 84.1 339.14 83.01 339.53 82.71 339.9 82.17 339.64 81.88 339.77 81.88 339.3 82.32 339.05 82.53 338.35 82.81 338.01 82.48 337.23 83.31 335.81 84 335.23 83.62 334.16 83.05 333.94 82.46 332.66 82.45 332.08 83.3 331.67 83.96 331.74 84.18 330.94 84.88 330.8 85.31 331.14 86.38 330.37 86.49 330 86.98 329.39 86.84 328.85 87.09 328.39 86.97 328.04 86.12 327.85 86.47 327.33 87.02 326.95 87.5 325.97 87.39 325.31 87.06 324.68 87.01 324.23 86.29 323.64 85.53 323.57 84.99 322.42 84.19 321.97 84.28 321.15 84.52 320.46 84.09 319.97 83.67 319.91 83.13 319.05 83.47 318.35 83.94 317.77 84.71 317.48 84.73 316.72 85.74 315.63 85.8 314.76 86.9 314.12 87.08 313.8 86.83 313.2 87.4 312.3 87.81 312.27 88.05 311.9 89.07 311.81 89.71 312.34 90.08 311.88 90.7 311.57 91.27 311.51 91.81 311.01 92.35 310.95 93.23 311.66 94.17 312.13 94.54 310.33 95.24 310.25 95.49 309.54 95.83 309.11 95.9 308.61 95.56 308.29 95.45 307.4 94.83 307.13 94.27 306.33 94.14 305.66 94.24 305.29 93.22 303.9 93.7 303.16 94.4 302.78 94.68 302.34 95.29 301.91 95.36 301.37 94.78 300.29 94.79 299.95 94.17 299.57 93.95 299.24 93.27 298.9 92.38 298.86 92.06 298.51 91.82 297.87 91.42 297.83 90.61 298.32 90 297.87 89.85 297.1 90.85 296.33 90.9 296.16 90.5 294.6 89.89 294.81 89.36 294.77 88.7 294.41 88.79 293.71 89.59 293.09 89.77 292.41 90.69 292.19 91.42 291.63 91.62 291.25 91.3 290.9 91.33 290.16 92.02 290.05 92.3 288.57 92.22 288.12 91.6 287.4 91.41 286.66 90.47 286.61 89.81 286 89.4 286.02 88.55 285.49 88.35 285.17 88.65 284.31 88.07 283.32 88.47 282.83 88.96 282.59 88.99 281.33 89.51 281.55 90.13 281.33 90.76 281.34 91.14 281.79 91.68 282.05 92.88 281.23 93.7 281.5 93.94 278.48 94.04 278.12 93.62 277.34 93.55 276.91 93.99 276.51 93.91 275.46 93.69 274.4 92.73 273.76 92.91 273.29 92.59 272 93.03 271.27 93.77 271.54 94.37 271.41 95.03 271.06 95.58 270.45 95.75 270.03 95.59 269.71 95.33 268.29 95.48 267.82 96.17 266.55 96.31 265.89 96.81 265.48 96.79 265.09 97.24 262.61 96.9 261.82 96.56 260.49 97.44 259.64 97.59 259.21 98.05 259.17 98.62 258.47 99.21 258.3 99.33 257.62 99.3 256.74 99.75 256.04 100.43 255.94 100.26 255.35 99.99 255.31 99.46 254.77 99.86 253.61 99.65 253.02 98.91 252.66 98.53 251.75 98.61 250.81 98.48 250.42 98.58 249.63 99.11 249.38 99.85 249.27 100.37 249.63 100.89 249.34 101.45 249.39 102.23 248.91 102.64 248.19 102.65 247.74 102.4 247.44 102.35 246.65 102.71 245.93 102.51 244.95 102.85 244.64 103.14 243.78 103.74 242.99 103.62 242.36 103.28 241.55 102.98 241.26 103.55 240.93 103.97 240.4 104.11 239.91 104.53 239.36 104.24 238.43 104.66 237.89 104.86 236.68 104.72 236.18 104.88 235.86 104.66 235.22 104.28 234.64 103.89 234.32 102.84 234.13 102.54 233.62 101.16 233.71 100.86 234.08 100.09 233.83 99.44 234.31 99.14 234.18 98.76 234.53 98.1 234.12 96.07 235.17 95.97 235.89 95.09 236.72 94.15 236.65 93.09 236.04 92.87 235.65 92.38 235.81 91.36 235.63 90.24 234.65 89.9 235.1 89.16 235.15 88.76 235.44 88.33 235.17 87.29 236.06 86.68 236.07 86.3 235.72 85.9 235.73 85.43 235.45 85.24 234.96 85.58 234.59 85.41 233.81 85.03 233.54 84.09 233.35 83.82 232.74 84.3 232.33 83.88 232.08 83.81 231.37 84.47 230.99 85.07 230.35 85.02 229.85 85.35 228.79 85.11 228.29 84.57 227.93 84.22 227.31 83.84 227.14 83.76 226.35 83 226 82.65 225.53 82.15 225.74 81.56 225.48 81.16 225.68 80.37 225.28 80.07 226.2 79.66 226.48 79.48 227.39 79.04 227.71 78.29 227.62 77.5 227.82 76.58 229.19 75.63 229.15 75.55 228.38 74.66 228 74.29 227.39 74.74 226.9 74.74 226.24 75.1 225.76 75.38 225.76 75.85 225.11 75.87 224.33 76.12 223.25 75.57 222.78 75.58 222.5 74.96 222.16 74.84 221.22 73.87 221.33 73.33 220.72 72.71 220.79 71.95 220.51 71.57 219.59 71.15 219.47 70.33 218.65 70.11 218.24 70.12 217.67 69.83 217.37 68.38 217.76 68.1 218.37 67.78 218.44 67.63 217.72 67.93 216.98 67.72 216.47 67.17 216.41 66.18 215.76 65.82 214.97 65.86 214.28 66.2 213.86 65.94 213.21 65.01 212.94 64.67 212.55 65 211.85 65.25 211.84 65.84 211.16 65.97 210.55 65.69 209.08 66.26 207.89 66.76 207.68 66.53 206.99 65.96 206.92 65.53 206.47 64.84 206.17 64.31 205.77 64.48 205.47 64.13 205.02 63.76 204.93 63.15 204.05 62.76 203.75 62.84 203.39 62.37 202.81 61.93 202 61.94 201.59 61.26 201.31 60.16 201.1 59.91 201.48 58.85 201.6 58.62 201.07 58.79 200.48 58.37 200.09 58.13 199.38 57.71 199.04 57.92 198.56 57.51 197.22 57.73 197.14 57.53 196.08 57.15 195.8 57.08 194.83 56.67 194.52 56.76 194.08 56.09 193.75 55.56 193.72 54.61 192.22 54.05 191.64 53.58 190.61 53.46 189.3 53.65 188.93 53.43 188.42 52.37 188.31 51.62 187.76 51.6 187.27 50.79 185.98 50.85 185.54 50.11 184.75 49.09 184.11 48.61 183.48 47.26 183.23 46.93 182.39 46.57 182.01 46.57 180.83 46.25 180.18 44.62 179.86 44.37 179.52 43.83 179.4 43.75 178.83 44.18 177.68 44.51 177.2 44.35 176.28 44.14 175.76 43.36 175.29 42.92 174.62 42.6 173.68 43.04 173.12 42.74 172.67 41.65 171.96 41.31 172.15 40.79 171.96 40.42 172.17 39.69 171.58 39.35 171.61 38.79 171.26 38.48 171.42 37.02 171.46 36.46 170.72 36.54 170.17 36.17 169.85 35.5 169.8 34.92 170.08 34.13 169.89 34.16 169.58 33.6 168.97 32.55 169.48 32.05 168.68 30.95 168.32 30.53 167.86 29.62 167.52 29.65 166.75 29.2 165.69 28.99 164.96 29.17 164.61 28.46 164.09 28.64 162.82 28.16 162.12 27.57 162.21 26.91 161.71 26.93 160.72 25.76 160.2 25.4 159.61 24.43 159.05 23.58 159.29 23.13 159.23 22.72 159.42 22.4 158.92 22.58 158.4 22.37 157.94 22.03 157.76 21.95 157.14 20.76 156.83 20.85 156.17 20.18 155.94 19.83 155.53 18.48 155.39 17.96 154.81 17.98 154.36 17.31 154.39 16.83 154.2 16.01 154.55 15.47 154.34 15.98 153.58 16.44 152.63 17.47 152.46 18.45 151.79 19.42 151.88 20.17 151.48 20.86 151.63 21.07 151.92 22.4 151.91 23.52 151.51 23.91 150.81 24.37 149.64 24.05 149.42 23.2 149.71 22.3 149.65 22.27 149.14 21.94 148.56 21.53 148.76 20.7 148.84 20.57 147.28 20.06 147.12 19.46 145.8 19.36 145.03 20.43 144.67 20.27 144.31 19.76 143.91 19.4 144.13 18.23 143.74 17.85 143.3 17.56 143.42 16.87 143.01 16.66 142.38 16.77 141.99 17.49 141.41 17.74 141 18.47 140.45 19.02 140.26 19.12 139.87 20.1 139.82 20.4 138.98 20.83 138.78 21.18 138.37 21.17 137.56 20.9 137.35 20.84 136.64 21.25 135.97 21.23 135.43 20.45 134.31 20.1 134.21 19.03 133.46 18.74 132.19 19.16 131.34 19.1 131.02 19.54 130.46 19.47 129.68 19.93 128.44 19.45 127.43 18.13 126.16 17.67 125.93 16.81 125.99 16.43 125.41 16.21 124.75 16.3 124.06 16.52 123.61 16.2 122.93 15.76 122.58 15.56 122.04 15.1 121.93 13.82 122.36 13.37 122.09 13.13 121.44 13.22 120.62 12.94 119.6 12.54 118.97 12.7 118.34 12.55 117.65 12.64 116.69 12.92 116.27 12.6 115.59 12.55 114.97 11.41 114.18 11.22 113.47 10.83 112.72 9.49 113.24 9.17 112.89 9.01 112.24 8.46 112.15 8.44 111.76 7.56 109.88 7.42 109.39 6.72 108.56 6.53 108.06 5.64 107.22 5.87 106.35 5.64 106.01 4.78 105.76 4.69 105.1 4.34 104.92 3.96 103.5 3.47 103.03 3.48 102.31 2.58 100.87 2.18 100.08 1.64 100.16 1 99.58 2.16 85.85 3.11 74.53 4.3 60.32 5.07 51.06 5.92 40.85 6.78 30.76 7.32 24.15 8.49 10.17 9.26 1 Z" fill="none" stroke="currentColor" stroke-width="1"/>
</g>
</svg>