<?xml version="1.0"?>
<svg width="200" height="200" xmlns="http://www.w3.org/2000/svg" version="1.2" baseProfile="tiny" viewBox="-64.000 -311.000 928.000 928.000" stroke-linecap="round" stroke-linejoin="round">
<g id="state">
<path vector-effect="non-scaling-stroke" d="M 759.14 3.96 759.77 7.54 760.19 9.38 762.36 17.87 764.15 24.99 766.37 32.31 768.71 38.93 769.94 41.6 772.01 47.08 773.95 51.47 776 55.38 779.62 61.53 784.86 71.99 788.13 78.5 789.85 82.96 790.52 84.82 791.39 86.16 790.89 86.66 790.54 86.07 789.49 85.85 788.97 85.51 788.94 84.74 788.27 84.48 788.35 83.82 787.73 82.94 788.2 82.34 787.74 81.77 786.49 80.58 785.96 79.67 785.19 77.38 784.57 76.99 783.76 75.82 783.27 75.48 783.39 74.55 784.18 74.03 783.93 73.32 783.82 71.72 782.46 69.61 781.08 67.64 779.04 66.94 778.93 66 778.4 65.11 777.59 64.3 777.14 64.22 776.29 64.52 775.49 64.05 774.97 63.57 773.53 63.6 773.31 63.19 773.54 62.82 773.48 61.56 773.86 61.27 774.96 61.11 774.9 60.45 775.28 59.61 774.46 58.64 773.45 58.97 772.98 59.53 772.54 59.53 772.4 58.48 772.1 57.83 772.24 56.68 772.18 55.75 771.86 53.88 770.93 50.62 770.96 50.11 771.49 49.6 771.39 48.22 770.28 45.75 770.21 44.53 769.27 41.6 768.77 40.23 767.89 39.9 767.59 40.33 766.39 38.85 766.05 37.58 765.23 36.88 765.19 36.28 765.79 34.82 765.46 32.94 764.88 32.21 763.05 32.06 762.27 31.29 761.97 30.77 761.33 28.75 761.82 27.81 762.47 27.92 763.88 28.85 763.96 28.25 763.73 26.15 762.96 25.2 763.21 24.13 762.74 23.47 761.5 22.79 761.97 22.12 762.06 20.69 761.25 20.41 761.75 18.22 760.63 17.77 759.98 17.07 759.77 16.32 759.22 16.24 758.7 16.52 758.16 16.38 757.68 15.97 757.74 15.17 757.25 13.81 756.75 13.41 756.52 11.55 755.85 11.17 754.96 11.19 754.37 11.62 754.08 11.55 753.33 10.72 751.63 10.67 751.04 10.33 750.03 10.37 749.67 11.16 748.56 10.36 749.13 9.34 749.23 8.56 748.72 7.01 747.82 6.76 747.57 6.08 747.23 5.79 744.74 5.68 744.65 6.37 745.19 7.32 745.19 8.12 743.78 8.81 744.1 9.96 744.62 11.03 744.81 11.87 745.93 14.46 746.66 15.66 747.43 16.25 748.69 16.77 749.57 16.89 750.28 16.68 750.84 17.72 751.79 20.63 752.52 21.15 753.18 20.82 753.13 20 752.82 19.53 753.37 18.42 753.73 18.09 753.67 17.65 754.53 17.84 754.61 18.64 754.91 19.65 754.75 20.64 755.37 21.82 755.34 22.46 754.81 24.17 754.85 24.82 755.59 25.84 756.51 27.82 757.48 29.38 758.2 32.23 758.66 33.17 759.63 33.41 760.31 33.09 760.78 33.27 761.04 33.84 760.48 34.33 760.6 35.51 760.12 35.82 759.75 36.43 760.05 37.35 760.49 37.46 760.43 38.47 760.59 39.2 761.11 40.01 761.98 40.68 762.65 40.54 763.08 41.92 763.13 42.47 762.56 42.44 762.38 43.26 762.76 43.61 762.87 44.85 763.37 45.44 763.74 46.31 764.3 46.39 764.5 47.25 764.28 48.22 765.02 48.8 766.04 50.63 766.05 51.07 766.71 51.27 766.42 52.53 766.46 53.36 767.07 54.02 767.71 55.49 766.99 56.26 763.72 54.02 762.32 52.83 760.68 50.39 760.89 50.02 760.74 49.42 760.86 48.31 761.07 47.88 760.92 46.85 760.08 45.4 759.75 44.19 758.13 42.7 757.45 42.19 757.64 41.47 756.86 41.58 756.56 41.17 756.77 40.52 756.21 40 755.86 38.4 755.25 37.54 753.09 36.21 752.06 36.13 751.97 35.62 751.44 35.36 751.13 35.66 751.32 36.67 751.91 37.09 752.82 38.77 753.13 39.97 752.99 40.97 752.14 42.81 753.6 44.03 753.75 44.67 754.31 45.08 756.04 45.57 756.4 46.35 755.4 46.48 754.51 46.36 752.08 45.77 748.58 44.98 747.11 44.33 746.42 43.33 746.24 42.64 744.78 41.7 744.58 40.74 744.36 40.63 744.03 39.52 743.66 39.11 742.69 38.89 741.37 38.81 740.94 37.72 739.71 36.94 739.35 36.56 738.94 35.12 738.34 34.8 737.05 33.74 736.63 33.15 736.2 33.4 734.56 33.38 733.66 33.09 733.57 32.56 732.88 32 731.77 32.18 730.89 32.71 730.32 32.38 729.16 32.31 728.9 32.75 729.97 33.14 730.29 33.85 731.37 33.84 731.55 34.54 732.71 35.78 732.91 36.27 734.51 36.19 735.56 36.71 736.26 37.62 736.42 38.59 737.26 39.52 738.11 41.62 739.03 41.84 741.45 43.07 741.99 44.88 742.55 46.48 743.33 47.94 743.47 48.52 743.05 49.14 742.39 49.55 740.55 50.09 737.61 50.69 735.77 50.86 733.99 51.6 733.25 51.65 732.84 51.45 732.12 51.47 731.3 50.73 730.37 50.19 729.63 49.34 729.46 48.76 728.4 47.94 727.94 47.22 728.06 46.92 727.58 46.49 726.6 46.16 726.46 45.09 725.44 44.74 724.95 44.88 724.6 44.51 723.95 44.51 723.81 44.82 723.98 45.62 724.62 45.79 724.72 46.46 725.59 47.26 726.82 47.97 726.95 48.36 727.71 49.32 727.77 50.26 728.46 51 728.57 51.59 729.35 52.35 730.12 52.62 731.03 53.31 731.81 53.48 731.37 53.89 730.5 54.15 729.89 54.76 728.91 54.66 728.52 54.37 727.65 54.54 727.37 54.17 726.7 53.9 726.5 54.13 725.92 53.73 725.43 53.8 723.53 52.9 723.15 52.35 722.39 52.01 721.28 51.83 720.01 50.77 718.86 50.71 718.52 50.45 716.78 50.28 716.26 50.55 715.52 50.52 714.99 50.02 714.21 48.63 713.96 47.89 713.01 47.31 712.62 46.87 711.57 46.31 711.18 45.92 710.61 45.98 709.63 44.78 708.14 44.71 707.87 45.54 708.67 46.39 709.27 46.67 709.79 47.22 709.92 48 710.83 48.15 712.89 49.88 713.49 50.47 713.62 51 714.14 51.1 714.72 51.71 714.82 52.21 715.74 52.76 716.77 52.37 717.99 52.34 718.1 53.12 718.63 53.63 719.61 54.11 720.77 54.48 721.95 54.51 721.84 55.15 721.2 55.56 720.63 55.62 720.14 56.25 719.39 56.39 718.96 55.9 718.03 55.88 717.32 56.16 716.05 56.32 714.75 56.81 712.96 57.11 712.33 56.92 712.27 57.83 712.65 58.3 712.08 58.73 711.62 58.82 710.65 59.67 709.97 60.67 709.55 60.9 708.46 62.17 708.12 63.24 705.35 64.07 704.03 64.75 703.37 65.3 700.56 64.97 698.97 64.92 698.12 65.11 697.44 65 696.25 63.67 696.26 63.36 695.34 62.33 694.97 60.27 694.12 60.25 693.51 61.34 692.45 62.21 690.97 62.44 690.16 62.12 689.98 61.74 688.79 61.58 687.6 59.64 687.36 59.12 687.24 58.13 687.6 57.72 687.23 56.4 687.6 55.82 687.55 54.64 686.08 54.36 685.64 53.19 685.51 51.65 685 50.59 684.52 50.23 684.41 48.87 684.67 45.54 684.61 44.39 684.98 42.81 685.28 41.92 686.2 40.71 686.69 40.35 686.94 39.27 688.31 37.06 688.58 36.5 688.34 36.02 687.62 36.01 686.08 35.08 686.31 36.58 685.62 37.22 685.36 38.44 684.24 39.5 683.99 41.09 683.12 40.6 682.54 41.33 682.24 42.9 681.83 43.31 681.76 44.11 682.05 44.84 681.68 45.35 681.59 47.12 681.78 47.88 681.58 48.39 681.6 50.33 682.07 52.07 682.55 52.65 683.33 54.38 683.49 55.07 684.24 55.9 683.86 58.27 684.39 59.99 685.07 61.18 686.19 61.75 685.99 62.23 686.31 63.39 686.44 65.26 687.06 65.33 688.04 65.69 688.44 67.52 686.87 69.29 686.3 69.51 685.18 70.29 684.62 71.38 684.54 72.77 684.04 73.43 684.45 73.76 685.38 73.35 686.35 72.48 687.16 72.77 688.42 72.94 688.83 73.34 690.33 73.79 691.09 73.52 692.34 73.26 695.04 73.28 695.54 72.82 697.02 72.6 698.2 72.52 700.01 72.67 702.25 72.19 704.11 71.51 705.64 70.37 706.16 70.53 707.03 70.3 708.44 69.42 711.52 68.29 713.04 67.8 713.66 67.72 714.3 68.02 715.06 68.84 715.08 69.41 715.93 70.59 715.25 71.16 715.59 71.7 715.99 71.88 716.36 72.89 716.68 72.88 717.9 72.4 718.33 71.97 719.53 72.29 720.4 72.31 721.33 71.55 721.43 71.17 723.69 69.33 724.13 69.04 724.87 68.94 725.09 68.49 726.15 68.37 727.43 67.94 727.53 67.62 728.21 67.66 729.39 67.33 729.64 67.03 730.96 66.65 731.56 66.74 733.17 66.53 734.05 65.79 735.36 65.9 736.03 65.71 737.44 66.26 738.6 65.99 740.22 65.92 742.41 66.16 742.62 65.92 743.7 65.93 744.47 66.31 747.11 68.13 747.87 68.89 748.37 69.8 748.04 69.92 747.64 72.21 748.35 73.36 747.68 74.1 746.99 74.62 747.1 75.28 746 76.41 745.57 77.54 745.56 79.11 744.49 80.01 744.08 81 744.2 82.22 743.95 83.16 744.2 83.76 744.15 84.23 745.37 86.1 745.41 86.67 745.17 87.08 745.22 89.58 745.04 91.21 745.44 91.96 745.7 92.8 745.79 93.73 745.11 95.7 744.73 95.99 745.31 97.52 746.34 97.74 746.56 98.56 747.02 99.04 746.63 100.63 746.39 100.9 746.13 102.97 746.47 103.53 747.48 103.65 748.71 102.81 749.22 102.01 749.17 100.99 749.78 100.12 749.86 98.76 750.28 98.33 750.04 97 750.31 96.52 749.96 95.66 750.05 94.9 750.47 94.29 750.6 93.48 750.95 93.03 751.03 91.37 751.27 90.19 751.53 89.66 751.24 88.56 751.39 88.04 751.14 87.34 750.81 87.08 750.39 85.31 750.98 84.26 750.99 83.85 751.92 82.41 750.76 79.88 751.41 78.93 751.3 77.98 750.86 76.89 751.56 75.97 752.59 75.71 752.91 75.47 754.16 73.35 755.08 72.65 755.61 72.58 756.45 71.56 755.35 70.1 754.95 69.97 754.08 69.01 755.02 68.42 757.32 67.4 758.46 67.08 759.86 67.13 760.83 66.74 761.72 66.88 763.95 67.53 766.39 68.68 766.78 69.25 766.77 70.12 767.7 70.6 767.99 71.05 768.88 71.45 769.04 72.43 768.94 72.97 769.35 73.59 770.24 73.77 770.08 74.52 770.62 75.39 770.94 76.27 771.48 76.37 772 76.76 771.73 78.17 772.16 79.12 771.91 80.4 773.48 81.85 774.13 83.24 773.65 83.62 774 84.57 774 85.29 773.47 86.04 773.45 86.74 773.73 87.48 773.65 88.09 773.03 88.73 773.15 89.27 773.69 89.91 773.77 90.5 773.46 91.51 774.6 92.6 774.34 93.58 774.74 95.31 775.44 95.9 775.58 97.57 774.82 98.5 774.22 98.95 773.6 98.69 773.81 98.09 773.7 97.52 773.28 96.99 771.9 96.33 771.05 96.4 770.63 97.19 770.12 97.76 769.95 98.8 771.23 99.53 770.97 100.81 771.44 101.8 772.42 102.65 772.96 102.76 773.38 102.52 773.72 103.02 774.22 104.59 774.13 105.1 773.42 105.45 772.75 106.54 772.75 107.07 771.9 107.34 771.45 107.85 770.57 107.96 769.85 108.53 769.93 109.27 770.61 110.05 770.54 110.24 768.8 110.8 766.18 111.34 766.52 110.45 767.48 109.95 767.31 109.03 766.82 109.14 765.79 108.95 765.17 109.57 763.81 109.92 763.44 109.6 763.57 108.95 763.31 108.52 762.02 107.13 762.15 106.49 762.22 105 761.49 104.43 761.04 104.55 760.9 105.73 760.17 108.26 759.84 108.88 760.45 109.25 760.72 109.94 761.11 110.24 761.19 110.94 760.86 111.12 760.15 111.05 759.37 111.58 759.25 112.26 757.9 112.65 757.89 113.59 758.56 113.93 758.57 114.48 758.12 114.83 757.06 115.31 755.83 115.5 755.12 115.97 754.63 116.64 754.83 117.04 754.29 117.83 753.37 117.48 752.8 118.14 752.98 118.64 753.52 118.8 754.18 119.42 754.24 120.19 753.36 120.5 751.95 121.25 751.37 122.31 751.22 123.03 751.34 123.6 751.13 124.29 750.6 125.14 749.68 126.06 749.93 127.59 749.76 128.21 749.27 128.73 749.16 129.32 748.34 129.24 748.23 128.31 747.56 127.32 746.39 126.86 745.84 126.95 745.69 127.37 746.32 128.41 745.57 128.56 745.67 129.3 745.4 129.6 744.8 129.71 744.72 130.06 745.05 130.64 745.01 131.04 744.09 131.16 743.76 131.81 744.45 132.51 745.53 132.35 744.96 134.01 744.25 133.84 743.13 134.19 742.73 135.14 742.13 135.11 741.54 135.43 741.27 135.83 740.42 135.95 739.62 135.57 739.06 135.56 738.56 135.92 738.66 136.55 739.06 137.02 738.37 137.4 737.46 138.52 737.4 137.85 736.89 137.29 735.74 136.87 734.91 136.94 734.56 137.48 733.69 137.51 732.92 137.76 732.99 137.08 732.35 137.1 731.55 137.71 731.34 137.06 730.74 136.35 730.56 135.72 729.48 134.9 728.88 134.79 727.97 135.07 727.99 135.79 728.5 136.27 728.64 136.74 728.26 137.37 727.32 137.87 726.35 137.58 725.24 136.9 723.9 136.33 723.93 135.75 723.58 134.72 722.94 134.84 722.27 134.46 722.31 133.58 721.97 132.93 720.26 132.3 719.8 132.61 719.64 133.04 719.16 133.31 719.3 133.92 719.72 134.33 720.45 136.21 720.48 137.04 720.71 137.8 719.91 138.1 718.96 137.93 717.63 138.63 717.29 137.97 717.46 136.12 716.36 135.93 716 136.86 715.51 137.22 714.37 137.52 714.37 135.88 713.41 135.76 713.21 135.5 713.56 134.41 714.2 134.31 716.98 135.07 718.26 135.8 718.66 135.45 718.49 134.86 718.82 134.4 718.19 133.82 718.22 133.48 717.08 133.08 716.68 133.31 716.46 132.19 715.65 131.48 715.61 130.85 716.31 130.72 716.57 129.93 716.22 128.77 715.6 128.12 714.37 128.45 713.63 128.9 713.48 129.69 712.37 131.14 711.92 131.33 711.87 131.86 712.17 132.49 711.88 132.99 711.39 132.25 710.8 132.38 710.38 132.71 710.2 131.73 709.81 131.32 709.39 131.79 708.87 131.3 708.01 131.3 707.85 131.56 708.33 132.16 709.11 134.65 708.87 134.92 707.86 134.6 706.69 133.84 705.38 132.15 704.78 132.52 703.41 131.78 702.65 130.76 703.21 129.5 703.24 128.37 701.49 127.91 700.29 126.56 700.93 125.9 701.66 125.78 702.03 125.26 701.06 124.59 700.45 123.75 700.55 122.55 700.47 121.96 700.04 121.52 698.79 120.98 698.19 120.08 699.19 120.1 700.27 119.88 700.92 120.18 702.75 119.91 703.76 120.06 704.6 120.5 705.35 120.52 706.37 120.29 706.84 120.36 708.08 119.53 708.72 118.67 708.66 117.95 708.96 117.32 708.88 116.52 709.42 115.72 709.9 115.36 709.65 114.92 708.97 114.37 707.93 114.8 707.61 115.28 707.34 116.48 706.29 117.08 705.1 116.79 704.16 117.54 703.49 117.27 702.91 117.34 702.62 117.75 702.09 117.44 701.38 117.28 700.85 117.82 700.38 117.2 699.6 116.8 698.57 116.57 697.02 116.71 696.59 116.91 696.27 117.47 695.76 117.53 694.9 118.29 693.61 119.75 693.99 120.27 694.52 120.47 695.16 121.37 695.31 122.06 695.77 122.5 697.33 123.06 696.9 124.19 696.99 124.59 696.78 125.68 696.54 125.99 696.87 127.3 697.87 128.02 697.66 128.47 698.29 129.14 698.13 130.18 698.57 130.45 698.93 131.2 699.08 132.26 699.48 132.66 699.37 133.38 698.66 133.21 697.72 133.26 696.81 132.75 695.5 132.48 694.57 132.16 693 131.79 692.37 131.47 691.82 130.78 691.68 130.06 691.25 129.96 690.57 130.4 690.02 130.49 688.73 130.09 688.04 129.76 687.3 129.16 686.2 129.46 684.33 129.42 684.19 129.72 683.53 129.93 682.96 130.32 682.05 129.47 681.26 129.34 680.69 128.82 678.45 128.04 678.03 127.65 677.67 126.81 677.16 126.73 676.45 127.28 675.08 127.07 673.89 126.72 672.94 126.29 671.98 126.08 670.29 126.05 669.67 126.17 668.18 125.41 666.93 124.55 666.65 124.77 666.03 124.58 664.99 123.67 664.07 123.88 663.05 123.67 662.26 122.6 661.16 121.76 660.43 121.07 660.25 120.39 658.9 119.36 657.21 117.92 656.61 117.89 656.22 118.54 656.7 119.12 657.26 119.26 659.11 121.24 659.24 122.09 657.36 121.13 657.09 121.6 658.05 122.73 659.26 123.36 660.78 124.55 662.43 124.87 663.51 126.35 664.13 128.65 664.33 129.07 666.65 127.83 667.99 127.36 668.52 128.15 669.56 128.77 670.91 129.18 671.74 129.76 672.4 129.92 674.62 129.76 675.29 129.96 677.24 131.62 677.39 132.53 677.95 132.68 679.34 133.49 680.24 133.56 681.8 133.41 682.16 134.28 684.98 135.11 686.64 135.05 687.28 135.74 688.17 136.27 688.95 136.37 690.13 137.76 691.1 138.18 691.7 138.16 692.18 138.6 692.87 138.76 693.34 138.39 696 138.38 696.89 139.83 697.68 139.58 699.75 139.63 701.3 139.92 702.5 140.04 704.36 140.67 707.32 141.09 707.97 141.28 708.19 141.7 708.01 142.09 707.25 141.94 706.66 142.17 706.69 143.21 707.26 143.75 706.8 145.06 707.49 145.22 708.45 145.06 708.68 144.23 709.04 144.75 708.82 145.31 709.05 146.18 707.92 146.52 707.52 146.89 708.05 147.18 707.89 147.63 708.21 148.29 707.32 148.71 706.44 149.33 707.4 150.95 707.57 151.49 707.16 151.92 706.31 151.32 705.06 151.05 704.15 150.44 701.72 150.2 700.88 150.73 701.37 151.36 702.27 151.48 703.26 151.84 704.19 152.97 704.95 153.17 705.17 153.59 704.49 155.52 703.78 155.56 703.49 154.72 702.89 154.59 702.53 155.02 701.13 154.51 700.12 153.86 699.07 153.76 698.41 153.88 697.73 154.3 697.72 154.86 697.99 155.34 697.35 155.42 696.75 156.25 695.92 156.65 694.84 156.91 694.92 158.4 695.56 158.47 696.71 158.1 697.59 158.34 697.95 159.01 699.17 158.98 699.39 158 699.01 157.41 699.72 156.82 700.39 157.03 701.03 156.95 701.14 157.63 702.45 158.88 702.75 159.47 703.42 158.86 703.72 159.37 703.21 159.89 702.88 160.58 701.91 162.18 701.75 163.34 701.22 163.78 701.11 164.64 700.87 165.09 699.14 165.41 698.57 165.85 698.84 166.23 698.83 166.77 698.42 167.84 697.35 168.62 696.6 168.78 695.52 169.3 694.55 169.99 694.53 170.31 693.01 171.33 692.1 172.46 691.56 172.83 690.77 172.87 690.25 173.33 689.07 174.11 688.74 174.99 688.29 175.71 686.64 176.03 686.03 176.51 685.01 177.05 684.17 177.13 683.3 178.26 682.98 178.88 681.21 179.25 680.3 179.83 679.36 179.92 678.54 179.61 677.06 178.48 676.41 177.79 675.17 176.86 674.28 176.33 673.56 176.23 672.2 174.91 671.46 174.37 671.13 173.82 670.43 173.48 668.98 173.42 668.13 172.89 668.55 172.42 668.45 172.04 667.58 171.69 667.05 171.73 666.38 170.4 665.39 170.33 664.6 170.52 663.23 169.54 663.24 169.14 662.28 168.34 661.97 167.44 661.2 166.24 661.09 165.68 660.32 165.52 660.45 164.56 659.93 163.5 659.54 163.13 659.22 162.21 658.66 161.88 658.06 161.21 657.07 160.68 656.55 160.75 656.5 161.41 657.27 162.1 657.22 162.89 658.09 163.47 658.88 164.62 658.92 165.44 658.63 165.94 658.99 166.7 659.31 166.91 659.78 167.65 660.6 167.97 660.78 169.31 662.24 170.74 662.73 171.58 663.12 171.94 663.49 173.75 663.93 174.89 664.04 175.72 664.93 177.01 666.64 178.09 667.63 178.94 668.12 179.6 668.98 179.94 671.76 181.21 671.88 182 672.38 182.24 674.27 182.27 675.58 182.9 675.63 183.33 676.15 183.47 677.52 183.12 677.98 182.89 679.45 183.07 680.08 183.56 681.6 184.16 684.06 185.54 684.72 185.31 684.8 184.86 685.44 184.8 685.4 183.93 686.17 183.84 686.5 184.22 687.13 184.14 687.88 183.23 688.78 181.22 689.46 180.92 690.68 180.94 691.29 181.2 691.58 180.64 691.51 179.55 692.47 178.96 692.83 178.28 693.24 178.01 694.31 177.82 695.6 177.27 696.72 177.33 697.87 177.64 699.37 178.4 700.38 178.52 700.71 177.73 700.24 177.01 701.42 176.4 701.57 176.07 703.47 175.63 704.89 175.52 706.35 175.21 706.51 176.13 707.63 177.38 708.23 177.32 708.87 177.01 708.95 176.62 708.36 176.4 708.13 175.68 707.61 174.84 707.75 174.45 708.39 174.05 708.57 173.47 707.89 173.18 708.58 171.25 709.14 170.82 709.38 171.5 709.87 170.87 710.47 170.53 709.9 169.27 709.28 169.28 709.87 167.36 710.49 167.27 711.65 168.28 711.69 168.73 712.11 169.21 712.64 169.05 713.05 169.23 713.36 170.2 713.16 170.91 713.36 171.91 713.61 172.48 712.98 172.91 713.14 173.33 712.75 174 713.19 175.49 713.58 175.69 714.14 175.41 714.49 177.66 714.48 178.06 713.82 179.02 714.52 180.97 715.2 180.7 715.75 179.7 716.26 179.53 716.54 180.17 716.74 181.49 717.72 180.84 718.3 178.73 718.07 177.86 718.47 177.8 718.68 178.32 719.83 178.8 719.96 178 720.58 178.54 721.33 178.47 721.92 179.06 722.41 178.94 723.38 179.67 723.81 179.06 723.68 178.01 723.01 177.38 722.84 176.78 722.43 176.18 721.83 175.67 720.83 173.68 719.9 172.57 719.29 172.01 719.57 171.41 720.65 171.77 722.19 172.41 722.76 172.8 723.73 173.05 726.01 174.2 730.04 175.07 730.55 175.47 730.3 176.52 729.97 177.2 729.45 177.68 728.94 177.89 727.83 176.61 726.56 175.64 724.98 176.22 725.55 177.01 725.95 177.99 726.53 178.75 727.59 179.53 727.71 180.25 727.33 181.08 727.49 181.65 726.92 182.03 726.35 182.07 725.86 182.44 726.05 182.95 725.91 183.64 724.47 183.34 723.26 182.54 722.76 182.38 721.98 182.68 721.96 183.62 722.61 183.97 722.11 184.32 722.41 185.26 724.16 185.44 724.48 185.58 723.97 186.54 723.43 187.18 722.98 187.98 721.77 188.76 721.62 189.28 719.67 189.38 718.89 189.99 718.46 191.16 718.08 191.34 717.47 191.13 716.93 190.24 717.53 189.32 717.54 188.81 717.07 188.24 716.55 187.96 716.26 188.35 716.32 189.04 715.93 190.74 716.06 191.48 715.84 192.96 715.55 193.3 715.82 193.95 715.26 194.57 714.75 193.94 714.09 194.36 713.62 195.49 712.49 195.95 712.34 196.7 711.35 199.24 711.1 199.76 710.58 200.18 710.49 200.99 709.91 201.67 709.46 201.94 708.25 201.65 708.11 202.15 706.81 202.74 707.19 203.46 707.83 203.76 708 204.57 708.29 205.14 707.63 205.46 707.03 206.46 706.39 206.65 706.21 206.4 705.08 206.17 704.53 206.67 703.36 205.95 702.59 206.29 701.32 206.45 700.71 205.42 701.32 204.48 701.13 204 700.3 202.64 700.45 202.23 701.04 202.21 700.9 200.85 700.29 201.18 699.55 201.01 699.18 200.41 699 199.69 698.53 199.04 697.38 199.28 697.62 200.5 697.32 202.3 697.43 203.09 696.86 203.84 697.04 204.82 696.83 205.23 697.08 205.83 696.64 206.25 696.67 206.82 697.73 207.81 697.41 208.47 694.68 207.97 692.82 207.82 692.54 207.43 691.82 207.68 691.84 208.38 691.24 207.99 690.93 207.33 689.76 207.44 689.47 207.21 688.8 207.4 686.94 206.85 684.99 206.75 684.61 206.86 683.84 206.57 681.54 206.46 680.35 206.57 677.17 206.17 676.28 206.41 674.17 206.58 673.22 206.52 672.65 206.7 671.68 206.6 671.27 207.04 670.14 207.33 669 207.79 668.64 207.68 667.85 208.37 665.84 208.89 665.46 208.63 664.63 209.48 664.15 209.55 662.46 210.53 662.12 210.07 661.37 210.32 661.48 210.83 660.62 211.02 660.35 211.67 659.64 211.7 659.28 210.91 658.58 211.54 657.41 212.06 656.27 212.22 655.42 212.78 654.57 212.83 653.45 212.57 653.07 212.35 652.33 211.33 651.54 211.54 650.96 212.1 650.57 212.48 650.86 212.92 650.48 213.2 648.97 213.49 649.09 214.22 648.2 215.06 646.77 216.12 644.49 217.35 643.88 218.46 642.64 219.72 641.35 220.71 641.14 221.08 641.31 221.71 641.94 221.84 638.91 224.18 637.79 225.22 635.37 227.21 633.72 228.36 632.32 228.88 631.97 229.44 626 232.71 621.34 235.54 618.71 237.23 616.35 238.96 615.17 239.82 610.56 243.46 607.56 246.26 604.63 249.28 602.96 250.43 601 252.41 598.83 255.24 596.41 257.72 593.26 262.06 588.42 269.82 587.57 271.51 586.62 273.92 584.73 278.58 583.95 278.94 584.35 279.58 583.9 281.13 582.95 283.97 580.79 290.93 580.41 291.39 579.65 293.82 578.02 297.49 577.42 299.32 577.12 301.28 576.84 303.98 576.83 305.09 576.61 305.19 575.82 304.65 573.56 303.81 572.69 303.27 572.37 302.38 572.72 302.14 573.02 301.39 573.75 300.86 574.09 300.19 574.28 299.35 574.14 298.61 572.82 298.07 572.03 298.27 571.59 298.64 571.54 299.36 571.82 299.75 571.65 300.16 570.56 299.96 567.84 299.21 566.59 298.77 562.11 297.86 560.59 297.67 556.86 297.47 552.09 297.66 551.67 297.24 551.23 297.17 550.44 297.46 544.27 298.07 541.07 298.52 539.77 298.86 538.33 298.8 537.7 298.96 537.33 299.29 534.07 300.3 526.62 302.88 523.68 304.44 523.08 304.05 519.41 300.31 511.33 292.14 505.83 286.58 496.87 277.51 488.93 269.48 477.62 258.06 471.69 252.03 464.93 245.14 462 242.19 458.94 239.01 456.57 236.48 451.02 230.5 446.1 225.36 438.17 217.55 435.82 215.2 425.62 205.04 420.33 199.78 408.04 199.58 397.29 199.41 384.11 198.95 374.35 198.61 371.69 198.5 361.11 198.19 354.85 197.98 348.83 197.75 340.2 197.52 332.06 197.28 327.61 197.13 322.88 197.02 318.86 196.89 319.31 193.18 319.56 191.46 320.18 186.46 320.5 184.18 317.01 179.32 315.36 176.86 314.11 174.99 310.66 170.02 309.55 168.56 307.72 165.89 307.05 165.1 304.57 166.91 302.08 168.56 298.18 171.22 297.28 171.78 296.51 170.53 295.86 169.86 296.01 167.11 296.6 165.87 297.85 165.42 298.13 165.1 298.23 164.21 297.71 162.92 296.54 162.04 296.91 160.86 297.23 160.47 298.17 160.32 292.77 159.84 288.12 159.38 273.55 158.29 269.84 158.08 264.63 157.6 262.02 157.49 255.94 157.03 249.69 156.62 237.95 155.7 232.54 155.3 229.54 155.13 226.64 154.9 216.4 154.22 211.94 153.85 207.6 153.59 201.7 153.2 199.13 152.94 196.53 152.8 185.08 151.7 184.78 152.21 183.01 152.63 182.13 153.24 181.52 153.05 180.28 152.28 179.6 152.59 179.27 152.39 178.57 152.57 178.64 152.95 177.96 153.6 177.66 153.57 176.94 152.82 176.76 152.07 177.24 151.91 176.88 151.06 176.75 150.24 176.21 149.73 175.84 149.74 175.35 150.36 175.44 150.63 174.52 151.09 173.53 151.39 173.05 152.07 172.24 154.31 171.49 155.03 169.9 154.86 170.48 154.24 170.22 153.74 169.78 153.61 169.02 153.98 167.39 153.95 166.28 155.18 165.8 154.8 165.42 155.18 164.79 155.02 164.32 155.48 163.65 155.82 162.84 155.95 162.7 155.3 162.31 155.09 161.33 155.11 161.03 155.55 161.28 156.01 160.85 156.29 160.28 156.09 159.91 156.81 159.09 156.88 157.75 157.22 157.2 157.59 155.95 157.29 155.66 157.69 154.99 157.82 154.47 158.74 153.9 158.84 153.68 158.3 153.08 157.87 152.91 158.61 152.27 158.67 151.79 159.42 150.89 159.52 149.88 158.4 149.08 158.65 149.02 159.34 148.6 159.33 148.46 159.95 149.04 160.25 148.76 160.99 147.91 161.63 147.28 161.53 146.38 162.12 145.66 161.91 145.1 162.16 144.43 163.29 144.07 163.63 143.17 163.2 143.12 164.08 142.6 164.77 141.92 164.64 141.38 164.69 140.86 165.02 140.32 164.91 140.59 164.35 140.88 163.19 140.23 162.68 130.04 165.46 122.04 167.63 110.55 170.76 110.54 170.83 110.37 170.75 98.52 170.62 93.53 170.59 85.86 170.41 76.72 170.18 70.25 169.99 64.34 169.75 64.32 170.34 58.8 170.04 52.6 169.65 46.78 169.43 41.35 169.16 38.45 169.05 35.64 168.86 26.9 168.47 8.75 167.44 7.73 167.33 1 166.97 1.23 165.41 2.24 159.3 4.05 148.14 4.59 145.55 5.2 141.34 5.87 141.06 6.58 140.25 8.05 139.44 8.19 139.11 8.99 138.53 9.65 138.32 11.13 136.78 12.01 136.8 12.56 137.11 13.26 138.3 13.53 139.57 14.08 139.49 14.43 140 15.32 140.02 16.18 139.41 16.8 139.73 17.11 139.54 18.16 139.47 18.92 139.59 19.42 140.02 20.11 140.15 20.09 139.53 20.79 139.01 21.31 139.39 21.88 139.14 22.7 139.62 23.18 139.45 23.87 138.8 24.24 138.22 26.59 137.52 27.06 136.99 27.42 136.91 28 136.31 28.44 135.42 29.55 134.7 29.83 134.1 29.41 133.16 28.75 132.94 28.63 132.42 29.03 131.02 29.31 130.54 28.71 130 28.94 129.42 28.59 128.56 29.93 128.28 30.77 127.12 31.47 126.44 31.45 125.64 31.2 124.99 31.51 124.44 31.12 124.1 31.07 123.55 30.63 123.27 30.41 122.79 30.31 121.94 31.14 121.9 32.31 120.79 33.27 118.93 33.93 119.02 34.4 118.15 35 118.14 35.23 117.4 35.77 117.58 36.15 116.54 36.87 116.93 37.2 116.88 38.36 115.8 40.64 115.41 41.25 114.05 41.67 113.78 41.68 113.21 42.49 112.62 43.33 111.53 43.7 110.86 44.38 110.66 44.74 110.78 45.79 110.66 46.48 111.02 48.05 110.44 48.64 110.5 50.09 109.61 50.28 109.17 51.52 108.29 52.82 107.82 53.76 106.63 54.76 106.59 55.16 106.38 55.82 106.88 56.84 106.37 58.07 106.77 58.85 106.6 59.53 106.15 60 106.3 61.67 106.24 61.94 106.07 63.44 106.24 64.07 106.21 65.01 106.69 65.96 106.46 66.44 106.52 67.43 106.12 68.38 105.31 68.98 105.46 69.84 106.3 70.46 107.31 71.92 107.23 72.21 107.02 73.43 107.36 74.38 107.14 75.31 107.34 76.06 107.25 76.56 107.62 78.15 107.64 78.64 107.23 79.31 107.11 80.01 105.94 79.99 105.51 80.46 105.27 80.73 104.75 81.51 104.53 82.08 104.05 83.13 102.5 84.32 102.74 85.24 102.67 86.67 101.75 87.91 101.27 88.33 100.33 89.31 100.26 89.87 99.78 90.39 99.61 91.13 98.97 91.36 98.2 91.84 97.53 92.38 97.47 92.78 97.12 93.33 97.02 94.48 97.36 95.27 98.31 96.52 98.1 97 97.58 97.27 96.43 97.88 96.26 98.16 95.91 98.78 95.79 99.16 94.95 100.19 94.61 100.65 94.06 100.43 92.98 100.96 92.61 100.66 91.91 101.13 91.34 101.77 91.15 102.02 90.67 104.08 90.87 104.38 91.08 104.99 90.88 105.58 91.02 107.02 90.46 107.73 88.99 108.41 88.84 108.95 87.94 108.94 87.38 109.58 86.8 110.4 86.95 110.64 86.8 111.55 86.86 112.33 86.58 112.95 86.79 113.11 86.47 114.12 86.21 115.13 85.79 116.18 84.8 116.8 84.4 117.23 84.37 117.88 84.72 119.12 84.48 119.97 84.98 120.57 84.78 123.25 85.88 123.66 86.42 124.14 86.51 125.21 86.01 126.13 85.06 126.56 84.78 127.26 84.67 127.18 84.17 128.27 81.89 128.85 81.04 129.7 80.98 129.96 80.46 129.93 79.76 131.18 79.51 131.52 79.29 131.25 78.53 131.25 77.67 131.45 77.31 131.18 76.9 131.25 76.35 132.15 76.34 133.02 75.92 133.45 75.32 132.84 75.06 132.57 74.67 133.12 73.75 132.82 73.24 132.66 72.07 132.38 71.52 132.14 70.21 132.3 69.64 132.98 70.04 133.46 69.68 133.26 68.77 133.6 68 134.1 68.02 134.43 67.67 135.39 67.5 135.75 67.23 137 67.86 137.74 67.68 138.27 68.05 138.87 69.03 139.8 69.61 140.31 70.8 142.06 70.02 141.77 69.15 142.39 68.37 143.51 67.57 143.75 66.53 144.36 66.06 144.62 65.53 143.78 64.78 143.87 63.59 144.41 63.23 144.77 62.27 145.06 62.31 145.96 61.9 146.68 61.97 147.17 61.41 147.53 61.41 148.05 60.89 149.3 60.57 150.24 60 150.27 59.46 150.87 59.35 151.55 58.86 152.6 58.49 153.12 57.67 153.96 57.36 155.38 56.51 155.76 56.61 157.38 55.62 157.81 55.8 159.13 57.01 158.97 57.73 159.88 58.11 160.44 58.77 161.34 59.09 161.36 59.53 160.27 60.39 160.25 60.99 159.82 61.19 159.7 62.03 159.22 62.38 159.08 62.83 159.26 63.63 159.77 63.78 159.99 64.33 159.36 65.74 159.35 66.53 160.28 66.85 160.98 66.69 162.04 66.84 162.38 67.56 163.94 68.16 164.75 67.1 165.69 66.55 166.48 66.25 167 66.38 167.72 65.89 168.79 65.73 169.21 65.25 170.74 64.07 170.98 63.56 171.48 63.56 172.02 63.05 172.91 62.54 177.67 54.5 178.39 53.79 179.59 52.97 180.38 52.75 180.92 52.02 181.8 51.91 182.65 51.09 184.35 51.21 185.54 50.64 185.78 50.7 186.79 50.03 187.44 49.46 188.7 49.03 189.38 49.74 190.86 50.03 191.21 49.36 191.75 49.1 192.01 49.54 192.53 49.65 192.85 49.03 193.43 48.64 194.49 47.52 194.69 46.9 195.43 46.69 196.5 47.02 196.69 47.43 197.29 47.86 197.71 47.65 198.08 48.45 198.64 48.63 199.03 48.19 199.63 48.37 200.57 48.04 201.24 48.1 201.55 48.94 202.17 50.2 202.06 51.25 202.81 52.95 203.92 52.98 204.91 52.62 205.36 52.87 207.17 52.85 208.79 52.18 209.3 51.32 209.38 50.86 210.37 50.84 211.33 51.43 211.67 51.12 211.98 50.39 214.23 46.65 218.05 40.16 220.23 36.78 222.17 33.45 223.1 31.84 223.87 31.34 224.97 31.11 225.93 30.42 226.88 29.27 226.98 28.96 229.18 27.47 230.56 26.9 232 26.58 233.11 25.92 233.71 26.45 233.74 27 234.73 27.05 235.11 27.55 235.94 28.17 236.29 28.01 236.87 28.39 237.78 28.32 238.51 27.78 239.23 27.96 240.05 28.57 241.04 28.7 241.25 27.98 240.98 27.46 240.16 27.26 239.79 26.81 239.6 26.19 239.49 24.97 239.08 24.42 238.87 23.47 239.23 23.14 239.3 22.54 239.04 22.08 238.39 21.99 238.24 20.12 239.3 19.81 239.54 19.36 240.11 19.08 240.38 18.39 240.1 17.83 240.65 17.54 240.81 16.39 240.7 15.24 241.34 14.77 242.17 14.57 242.52 14.19 242.59 13.56 242.36 11.78 242.53 11.55 242.18 10.82 242.47 10.1 241.99 8.29 241.55 7.95 241.6 6.65 242.32 6.59 242.31 6.26 242.89 5.37 243.3 3.9 243.27 3.1 244.16 3.13 244.41 2.94 244.22 1.25 244.45 1 251.27 1.31 258.34 2.2 263.82 2.61 265.18 2.78 270 3.09 272.24 3.2 277.18 3.27 281.17 3.48 283.56 3.66 288.74 3.87 289.26 3.98 292.2 4.22 293.76 4.28 296.57 4.54 300.42 4.71 304.05 5.1 307.95 5.18 310.44 5.36 313.38 5.49 318.74 5.88 322.14 5.72 324.4 5.84 328.28 5.7 330.56 5.74 335.09 6.16 343.05 6.6 353.95 7.39 366.81 8.29 371.36 8.36 382.14 8.63 392.92 8.77 398.88 8.8 404.87 8.86 418.23 9.04 427.99 9.15 433.54 9.26 436.07 9.27 440.99 9.28 442.06 9.25 446.07 9.24 449.43 9.29 450.81 9.26 456.73 9.29 459.39 9.33 462.3 9.28 469.33 9.26 470.54 9.3 475.38 9.26 487.48 9.24 502.23 9.27 510.4 9.2 515.2 9.28 524.91 9.26 529.72 9.08 548.33 8.74 556.17 8.7 560.86 8.72 566.12 8.69 570.65 8.55 580.51 8.42 592.39 8.19 606.47 8.04 613.63 7.93 620.55 7.86 627.66 7.74 635.73 7.61 640.53 7.57 641.99 7.32 643.72 7.19 645.29 7.51 647.78 7.47 649.71 7.37 666.28 7.12 666.31 6.21 674.8 6.14 680.51 6.05 699.4 5.62 714.02 5.25 725.59 4.96 741.06 4.49 747.06 4.33 753.79 4.11 759.14 3.96 Z M 773.84 71.02 774.59 70.57 775.74 70.56 777.02 70.79 777.46 71.21 778.47 71.61 779.9 72.6 779.61 72.99 779.73 74.04 780.5 74.22 781.24 74.07 782.88 76.5 783.95 79.41 783.72 80.38 784.32 83.87 783.8 84.59 783.47 84.59 782.11 83.62 779.51 83.17 778.85 82.46 780.15 81.49 780.02 78.86 779.75 78.07 778.85 76.72 778.08 76.57 776.56 74.68 776.61 73.81 776.11 73.18 774.15 72.14 773.84 71.02 Z M 775.99 151.74 776.88 151.61 777.47 151.34 778.82 150.43 778.95 149.68 779.41 149.26 780.04 148.24 780.5 147.97 780.57 148.76 780.9 149.49 781.71 149.51 782.51 149.16 783.67 148.4 784.09 148.36 784.72 147.87 785.84 146.74 786.06 146.29 787.92 145.12 788.1 144.66 788.07 143.77 789.51 144.4 790.27 144.33 790.65 144.04 791.54 143.9 792.86 143.48 793.23 143.18 793.85 143.23 794.51 143.5 794.57 142.73 795.06 140.93 795.18 140.05 794.99 138.99 795.2 137.72 794.95 137.24 794.87 136.14 795.13 135.06 795.09 133.89 796.19 132.19 796.63 130.31 796.42 129.27 796.79 127.53 796.78 125.41 797.07 124.1 797.17 122.67 797.14 120.56 797.33 119.75 797.25 118.75 796.8 116.88 796.92 115.62 797.17 114.85 797.77 114.31 797.75 113.74 798 112.33 797.91 111.99 798.29 109.93 798.22 108.43 797.94 107.72 797.95 106 797.78 105.37 797.86 104.71 797.42 103.71 796.95 102.98 796.61 102.18 796.48 101.05 795.94 100.42 795.83 99.82 795.47 99.15 795.47 98.64 795.13 97.38 795.07 96.43 794.29 95.48 793.73 93.7 793.96 93.25 793.92 92.67 793.29 92.32 793.07 91.4 793.28 90.51 792.87 90.35 792.13 88.46 792.61 88.21 793.03 88.69 793.84 90.17 794.4 91.37 795.57 94.25 796.26 96.32 796.87 98.4 797.36 100.34 797.96 103.22 798.83 107.86 799 109.58 798.96 111.72 798.12 117.06 797.7 119.91 797.59 122.12 797.43 129 796.45 134.22 795.9 137.35 795.14 143.31 795.01 144.82 794.5 146.34 794.32 148.12 794.01 148.25 793.05 147.88 791.56 147.49 789.8 147.44 787.6 147.81 783.41 149.07 781.6 149.9 779.77 150.65 777.08 151.9 776.08 152.17 775.99 151.74 Z M 750.95 166.78 751.34 166.19 752.29 165.69 753.54 163.69 753.13 163.02 753.29 162.67 753.22 161.69 753.76 161.23 754.19 161.19 754.97 161.57 755.42 161.41 755.94 161.71 756.91 161.26 758.48 159.99 759.14 159.82 763.4 157.4 765.22 156.73 765.82 156.11 768.45 155.09 769.5 154.31 770.01 154.38 771.26 153.84 771.71 153.19 772.33 153.3 771.67 154.01 768.32 155.58 763.87 157.94 759.34 160.58 757.07 162.17 755.37 163.46 753.72 164.94 752.14 166.49 752.07 167.04 751.52 167.27 750.95 166.78 Z M 726.18 140.4 726.49 139.34 726.87 139.21 727.35 139.53 727.91 140.73 727.29 141.17 726.27 140.78 726.18 140.4 Z M 723.2 192.03 723.79 191.92 724.46 190.83 724.95 190.5 726.08 189.29 726.55 187.79 726.78 187.46 727.32 188.1 727.96 187.74 728.17 187.3 729.15 186.16 729.85 185.77 729.9 185.4 730.55 184.99 731.55 183.85 732.29 183.24 732.63 182.64 733.87 181.12 734.58 180.5 735 179.51 736.7 177.78 737.13 177.09 737.59 177.07 737.86 176.6 738.63 176.6 738.9 176.34 738.87 175.49 739.55 174.78 739.56 174.52 740.25 173.72 741.6 172.82 742.22 172.31 742.47 171.29 743.08 170.72 743.53 170.7 744.06 169.92 744.39 169.77 744.53 168.93 744.84 168.24 745.51 167.41 745.48 167.02 746.47 166.64 747.45 166.8 747.95 167.03 748.94 167.8 748.99 168.34 747.83 169.22 745.74 170.41 743.77 172.14 738.34 177.48 735.93 179.82 733.43 182.51 730.94 185.25 729.6 186.53 725.85 189.97 723.48 192.34 723.2 192.03 Z M 703.9 207.61 704.73 207.44 705.82 207.67 706.45 207.93 706.17 208.82 704.25 208.63 703.98 208.33 703.9 207.61 Z M 703.58 217.22 703.88 217.99 704.17 218.24 705.11 218.32 705.56 218.56 706.55 216.3 707.05 215.52 707.62 214.31 707.82 213.51 708.54 212.3 708.04 211.69 708.86 210.97 709.05 210.2 709.55 209.58 709.75 209.02 710.37 208.52 710.76 207.94 710.57 207.36 711.26 206.85 711.66 206.12 712.57 205.81 713.44 204.82 713.41 204.2 713.75 203.86 713.47 203.35 713.73 202.6 713.53 202.11 714.19 201.36 715.44 201.66 715.88 201.32 715.81 199.78 716.33 199.25 716.8 199.24 716.81 198.41 718 198.36 718.54 197.97 719.39 196.6 719.48 196.23 720.23 195.49 720.23 194.81 721.65 194.14 722.3 193.3 722.58 193.28 721.22 195.13 719.03 197.93 717.15 200.39 715.19 203.3 714.08 204.77 711.51 208.58 709.39 211.82 708.11 214.07 707.53 215.46 706.24 217.97 705.69 219.36 705.32 220.65 704.07 218.87 703.49 217.63 703.58 217.22 Z M 700.38 207.33 701.97 207.4 702.71 207.7 702.41 208.57 703.22 208.85 703.22 209.15 704.8 209.19 705.91 209.62 705.95 210.35 700.85 208.95 700.56 208.65 700.3 207.57 700.38 207.33 Z M 693.26 210.16 694.61 210.2 695.19 210.45 696.56 210.75 698.7 211.78 699.98 212.17 700.22 211.94 701.06 212.69 701.54 212.79 703.64 214.01 704.61 214.2 704.73 214.45 705.65 214.93 705.82 216.04 705.2 216.24 704.09 214.75 703.56 214.33 701.95 213.4 700.57 212.82 697.44 211.84 694.66 211.2 693.32 210.32 693.26 210.16 Z M 654.1 215.7 655 214.68 655.61 214.36 657.29 213.72 659.79 212.9 661.64 212.35 662.05 212.8 662.76 212.77 664.88 212.35 665.23 212.18 667.88 211.85 671.28 211.16 672.18 210.57 672.72 210.44 673.49 210.63 674.81 210.09 675.72 210.15 677.04 209.92 678.53 208.98 681.25 208.92 681.7 208.81 683.79 208.93 684.06 209.25 684.89 208.95 685.95 208.86 685.95 207.87 686.75 207.98 687.34 209.08 687.87 208.79 688.65 208.67 689.99 208.93 689.76 208.24 690.36 207.86 691.41 209.14 692.12 209.15 692.15 209.76 690.71 209.77 687.85 209.48 686.2 209.45 682.92 209.62 679.68 209.98 676.77 210.41 672.37 211.19 665.76 212.58 661.7 213.58 657.96 214.71 656.24 215.29 654.6 215.94 654.1 215.7 Z M 652.95 215.86 653 215.95 652.28 216.65 650.77 217.11 649.73 217.54 647.73 218.51 647.9 217.87 649.62 216.92 651.66 216.02 652.04 215.62 652.95 215.86 Z M 642.24 221.24 644.74 219.61 645.17 219.54 646.63 218.72 646.65 219.03 644.7 220.03 642.55 221.42 642.24 221.24 Z" fill-rule="evenodd" fill="none" stroke="currentColor" stroke-width="1"/>
</g>
</svg>