<?xml version="1.0"?>
<svg width="20" height="20" xmlns="http://www.w3.org/2000/svg" version="1.2" baseProfile="tiny" viewBox="-64.000 -339.500 928.000 928.000" stroke-linecap="round" stroke-linejoin="round">
<g id="state">
<path d="M 762.35 4.4 762.87 7.35 763.24 8.86 765.17 15.88 766.75 21.76 768.76 27.82 770.91 33.3 772.07 35.53 773.98 40.07 775.79 43.73 777.74 46.99 781.18 52.13 786.1 60.84 789.17 66.28 790.74 69.98 791.36 71.52 792.18 72.64 791.67 73.04 791.33 72.54 790.28 72.33 789.77 72.04 789.77 71.41 789.11 71.18 789.21 70.64 788.61 69.9 789.11 69.42 788.67 68.94 787.45 67.93 786.94 67.17 786.25 65.27 785.64 64.94 784.86 63.95 784.38 63.66 784.53 62.9 785.35 62.5 785.12 61.91 785.06 60.59 783.76 58.83 782.44 57.17 780.41 56.54 780.33 55.77 779.83 55.03 779.04 54.34 778.59 54.26 777.72 54.49 776.93 54.08 776.42 53.67 774.96 53.66 774.76 53.31 775 53.02 774.98 51.98 775.38 51.75 776.49 51.66 776.45 51.11 776.86 50.44 776.07 49.61 775.03 49.86 774.54 50.3 774.1 50.29 774 49.43 773.71 48.89 773.89 47.95 773.87 47.19 773.6 45.64 772.77 42.94 772.82 42.53 773.36 42.12 773.31 40.99 772.28 38.94 772.24 37.93 771.39 35.51 770.92 34.37 770.05 34.08 769.74 34.43 768.57 33.18 768.26 32.13 767.46 31.53 767.44 31.04 768.09 29.86 767.82 28.31 767.25 27.69 765.4 27.52 764.64 26.87 764.36 26.44 763.78 24.77 764.3 24.01 764.95 24.12 766.36 24.92 766.45 24.43 766.29 22.7 765.54 21.9 765.83 21.03 765.37 20.48 764.14 19.88 764.63 19.35 764.77 18.18 763.96 17.93 764.54 16.15 763.41 15.75 762.78 15.16 762.59 14.54 762.03 14.46 761.5 14.67 760.96 14.55 760.48 14.2 760.57 13.54 760.12 12.42 759.62 12.08 759.44 10.55 758.78 10.22 757.87 10.22 757.26 10.55 756.97 10.48 756.24 9.78 754.51 9.71 753.92 9.41 752.9 9.42 752.51 10.06 751.41 9.37 752.01 8.55 752.14 7.92 751.67 6.63 750.77 6.4 750.53 5.84 750.19 5.59 747.66 5.44 747.56 6.01 748.07 6.8 748.05 7.45 746.59 7.99 746.89 8.93 747.39 9.83 747.55 10.51 748.61 12.66 749.31 13.67 750.07 14.17 751.34 14.63 752.22 14.75 752.95 14.6 753.49 15.46 754.36 17.87 755.09 18.32 755.77 18.06 755.74 17.38 755.44 16.99 756.04 16.1 756.41 15.84 756.36 15.47 757.22 15.65 757.28 16.31 757.55 17.15 757.36 17.95 757.95 18.93 757.91 19.46 757.31 20.84 757.33 21.38 758.05 22.24 758.92 23.88 759.86 25.18 760.49 27.54 760.93 28.32 761.9 28.54 762.61 28.3 763.07 28.46 763.32 28.93 762.74 29.32 762.82 30.29 762.32 30.53 761.92 31.02 762.2 31.78 762.65 31.89 762.55 32.71 762.69 33.31 763.19 33.99 764.04 34.56 764.73 34.47 765.12 35.61 765.16 36.06 764.58 36.02 764.37 36.69 764.74 36.98 764.81 38.01 765.3 38.5 765.64 39.22 766.21 39.3 766.38 40.01 766.13 40.8 766.86 41.3 767.83 42.83 767.83 43.18 768.49 43.37 768.15 44.39 768.17 45.08 768.76 45.63 769.35 46.85 768.6 47.46 765.37 45.54 764 44.53 762.43 42.48 762.64 42.19 762.52 41.7 762.67 40.78 762.89 40.44 762.78 39.59 761.98 38.38 761.68 37.38 760.09 36.12 759.42 35.68 759.63 35.1 758.84 35.16 758.55 34.82 758.79 34.3 758.23 33.85 757.93 32.54 757.33 31.82 755.2 30.67 754.15 30.58 754.08 30.16 753.56 29.93 753.23 30.17 753.39 31 753.97 31.36 754.84 32.76 755.12 33.76 754.94 34.57 754.03 36.06 755.46 37.09 755.6 37.63 756.15 37.97 757.88 38.42 758.23 39.07 757.21 39.15 756.31 39.02 753.88 38.48 750.36 37.74 748.9 37.18 748.23 36.34 748.07 35.77 746.61 34.96 746.45 34.18 746.23 34.08 745.92 33.16 745.57 32.82 744.59 32.61 743.26 32.51 742.85 31.61 741.63 30.94 741.28 30.62 740.91 29.43 740.3 29.15 739.03 28.25 738.63 27.76 738.18 27.95 736.52 27.9 735.62 27.64 735.55 27.21 734.86 26.73 733.73 26.85 732.82 27.26 732.25 26.98 731.08 26.89 730.8 27.25 731.88 27.59 732.18 28.19 733.28 28.21 733.44 28.78 734.58 29.82 734.76 30.23 736.39 30.21 737.43 30.65 738.11 31.42 738.26 32.21 739.08 32.99 739.87 34.74 740.79 34.94 743.21 36 743.7 37.5 744.22 38.83 744.97 40.04 745.09 40.52 744.64 41.02 743.97 41.34 742.09 41.74 739.1 42.16 737.24 42.25 735.42 42.82 734.67 42.84 734.26 42.67 733.54 42.67 732.72 42.05 731.8 41.58 731.07 40.87 730.93 40.39 729.88 39.69 729.43 39.09 729.56 38.85 729.08 38.49 728.1 38.19 727.99 37.31 726.97 37 726.47 37.1 726.13 36.79 725.47 36.78 725.32 37.03 725.47 37.69 726.11 37.85 726.2 38.4 727.05 39.07 728.27 39.68 728.4 40.01 729.13 40.81 729.17 41.58 729.85 42.2 729.94 42.69 730.71 43.33 731.48 43.57 732.38 44.16 733.16 44.31 732.7 44.64 731.82 44.83 731.18 45.31 730.19 45.22 729.81 44.97 728.93 45.09 728.66 44.78 727.99 44.54 727.78 44.73 727.2 44.38 726.71 44.43 724.81 43.65 724.44 43.19 723.69 42.89 722.57 42.72 721.31 41.82 720.16 41.75 719.82 41.53 718.06 41.35 717.53 41.56 716.78 41.52 716.26 41.1 715.51 39.94 715.28 39.33 714.33 38.84 713.95 38.47 712.9 37.98 712.52 37.66 711.94 37.69 710.98 36.69 709.48 36.6 709.18 37.28 709.97 37.98 710.57 38.23 711.08 38.69 711.19 39.33 712.1 39.48 714.14 40.94 714.73 41.43 714.85 41.87 715.38 41.97 715.95 42.48 716.03 42.89 716.95 43.36 718 43.07 719.23 43.07 719.32 43.71 719.84 44.14 720.82 44.55 721.98 44.88 723.18 44.93 723.05 45.45 722.39 45.78 721.81 45.82 721.29 46.32 720.54 46.42 720.12 46.01 719.17 45.97 718.45 46.18 717.16 46.28 715.84 46.66 714.02 46.87 713.4 46.7 713.31 47.44 713.67 47.84 713.09 48.18 712.62 48.24 711.62 48.91 710.91 49.73 710.48 49.9 709.35 50.92 708.97 51.79 706.16 52.41 704.81 52.95 704.13 53.38 701.3 53.05 699.7 52.98 698.84 53.12 698.16 53.01 696.99 51.9 697 51.65 696.1 50.78 695.78 49.09 694.92 49.05 694.28 49.93 693.19 50.63 691.69 50.79 690.88 50.51 690.71 50.19 689.5 50.04 688.35 48.43 688.12 48 688.03 47.18 688.39 46.85 688.05 45.76 688.44 45.3 688.42 44.33 686.94 44.07 686.52 43.1 686.43 41.84 685.93 40.96 685.46 40.65 685.38 39.54 685.72 36.81 685.68 35.87 686.1 34.58 686.43 33.86 687.38 32.88 687.88 32.6 688.16 31.72 689.6 29.93 689.89 29.47 689.66 29.07 688.93 29.06 687.39 28.26 687.59 29.5 686.88 30.01 686.58 31 685.42 31.85 685.13 33.15 684.26 32.73 683.66 33.32 683.32 34.6 682.89 34.93 682.81 35.58 683.09 36.19 682.7 36.6 682.57 38.05 682.74 38.68 682.53 39.09 682.51 40.68 682.94 42.12 683.41 42.6 684.16 44.03 684.31 44.6 685.04 45.3 684.61 47.23 685.1 48.65 685.76 49.64 686.88 50.13 686.66 50.52 686.96 51.47 687.05 53.01 687.67 53.08 688.65 53.4 689.02 54.9 687.39 56.32 686.81 56.5 685.66 57.11 685.07 58 684.96 59.14 684.44 59.66 684.84 59.95 685.79 59.63 686.79 58.93 687.6 59.18 688.87 59.35 689.27 59.68 690.77 60.08 691.54 59.87 692.81 59.69 695.53 59.76 696.05 59.38 697.55 59.24 698.74 59.19 700.55 59.35 702.83 59 704.72 58.48 706.29 57.59 706.81 57.72 707.7 57.55 709.14 56.86 712.28 56 713.82 55.63 714.44 55.58 715.09 55.84 715.84 56.53 715.84 57 716.66 57.98 715.96 58.44 716.28 58.89 716.69 59.04 717.03 59.87 717.36 59.87 718.6 59.51 719.05 59.16 720.24 59.46 721.12 59.49 722.09 58.89 722.19 58.57 724.53 57.12 724.98 56.89 725.72 56.82 725.96 56.46 727.03 56.39 728.34 56.06 728.44 55.8 729.13 55.85 730.33 55.61 730.58 55.37 731.93 55.09 732.53 55.18 734.16 55.04 735.07 54.46 736.38 54.57 737.07 54.43 738.48 54.92 739.66 54.73 741.29 54.71 743.49 54.95 743.71 54.76 744.8 54.8 745.57 55.13 748.18 56.69 748.92 57.33 749.4 58.09 749.06 58.18 748.58 60.05 749.27 61 748.56 61.59 747.86 62.01 747.95 62.55 746.81 63.45 746.34 64.36 746.28 65.65 745.18 66.36 744.73 67.16 744.82 68.16 744.54 68.93 744.77 69.43 744.71 69.81 745.88 71.37 745.9 71.84 745.65 72.17 745.63 74.22 745.39 75.56 745.78 76.18 746.02 76.88 746.08 77.64 745.33 79.24 744.95 79.47 745.48 80.74 746.51 80.95 746.7 81.62 747.15 82.02 746.71 83.32 746.47 83.54 746.14 85.22 746.47 85.69 747.47 85.81 748.73 85.15 749.27 84.51 749.25 83.68 749.89 82.98 750.02 81.87 750.45 81.52 750.25 80.42 750.53 80.04 750.21 79.33 750.32 78.7 750.77 78.22 750.92 77.56 751.28 77.19 751.41 75.84 751.69 74.88 751.97 74.45 751.71 73.54 751.88 73.11 751.65 72.54 751.32 72.31 750.96 70.85 751.58 70 751.6 69.67 752.59 68.51 751.5 66.41 752.18 65.65 752.09 64.87 751.68 63.96 752.42 63.22 753.47 63.03 753.8 62.85 755.12 61.14 756.07 60.59 756.61 60.55 757.49 59.74 756.42 58.51 756.03 58.39 755.17 57.58 756.14 57.12 758.5 56.34 759.65 56.11 761.06 56.18 762.05 55.9 762.95 56.03 765.17 56.62 767.59 57.63 767.97 58.1 767.93 58.82 768.86 59.24 769.13 59.61 770.01 59.96 770.14 60.77 770.03 61.21 770.42 61.73 771.32 61.9 771.12 62.51 771.64 63.24 771.93 63.97 772.47 64.07 772.99 64.4 772.67 65.55 773.07 66.34 772.77 67.38 774.31 68.61 774.92 69.77 774.42 70.07 774.74 70.85 774.72 71.44 774.16 72.05 774.12 72.62 774.38 73.23 774.27 73.74 773.63 74.24 773.73 74.69 774.25 75.23 774.31 75.71 773.97 76.53 775.08 77.45 774.78 78.25 775.13 79.68 775.81 80.18 775.9 81.55 775.1 82.3 774.48 82.65 773.87 82.42 774.1 81.94 774.01 81.47 773.61 81.01 772.24 80.44 771.38 80.48 770.93 81.11 770.41 81.57 770.2 82.41 771.46 83.05 771.16 84.09 771.6 84.91 772.56 85.63 773.1 85.74 773.53 85.55 773.85 85.97 774.3 87.27 774.19 87.69 773.47 87.96 772.76 88.83 772.74 89.27 771.88 89.46 771.41 89.87 770.53 89.94 769.78 90.39 769.84 90.99 770.5 91.65 770.42 91.81 768.66 92.22 766.01 92.6 766.38 91.87 767.36 91.49 767.22 90.73 766.72 90.81 765.69 90.62 765.05 91.11 763.68 91.37 763.32 91.09 763.46 90.56 763.21 90.2 761.97 89.03 762.12 88.51 762.24 87.29 761.52 86.81 761.07 86.89 760.89 87.86 760.08 89.91 759.73 90.41 760.33 90.73 760.57 91.3 760.96 91.56 761.02 92.14 760.68 92.28 759.97 92.2 759.17 92.62 759.03 93.17 757.66 93.45 757.62 94.22 758.28 94.52 758.28 94.97 757.81 95.25 756.74 95.61 755.5 95.73 754.77 96.1 754.26 96.64 754.45 96.97 753.88 97.61 752.97 97.3 752.37 97.83 752.54 98.24 753.08 98.38 753.72 98.91 753.75 99.54 752.86 99.78 751.43 100.35 750.82 101.21 750.64 101.8 750.75 102.27 750.51 102.83 749.95 103.51 749.01 104.24 749.21 105.5 749.02 106.01 748.52 106.42 748.39 106.9 747.57 106.82 747.49 106.05 746.85 105.22 745.69 104.82 745.14 104.88 744.98 105.22 745.57 106.09 744.82 106.19 744.9 106.8 744.62 107.04 744.01 107.11 743.93 107.4 744.23 107.89 744.18 108.21 743.25 108.29 742.91 108.81 743.58 109.4 744.67 109.3 744.05 110.64 743.34 110.49 742.21 110.75 741.78 111.52 741.18 111.48 740.58 111.72 740.29 112.05 739.44 112.13 738.65 111.79 738.1 111.78 737.58 112.06 737.67 112.58 738.06 112.97 737.35 113.27 736.41 114.16 736.36 113.61 735.87 113.14 734.74 112.77 733.9 112.81 733.54 113.24 732.66 113.24 731.89 113.44 731.97 112.88 731.33 112.88 730.52 113.37 730.33 112.82 729.75 112.23 729.58 111.71 728.53 111.01 727.93 110.9 727.01 111.11 727.01 111.71 727.5 112.11 727.64 112.5 727.23 113.01 726.28 113.4 725.32 113.14 724.23 112.56 722.9 112.06 722.94 111.59 722.62 110.73 721.98 110.82 721.31 110.49 721.38 109.77 721.06 109.23 719.37 108.67 718.9 108.91 718.72 109.26 718.23 109.47 718.36 109.98 718.77 110.33 719.45 111.88 719.45 112.56 719.67 113.19 718.85 113.42 717.91 113.26 716.56 113.8 716.24 113.26 716.46 111.74 715.36 111.57 714.98 112.32 714.48 112.6 713.33 112.82 713.37 111.48 712.41 111.36 712.22 111.15 712.6 110.26 713.25 110.19 716.01 110.87 717.27 111.5 717.68 111.22 717.53 110.73 717.87 110.36 717.25 109.87 717.29 109.6 716.16 109.25 715.75 109.42 715.56 108.5 714.77 107.9 714.74 107.38 715.45 107.29 715.73 106.65 715.41 105.69 714.81 105.15 713.57 105.39 712.82 105.74 712.65 106.39 711.49 107.55 711.04 107.69 710.98 108.13 711.25 108.65 710.96 109.05 710.48 108.44 709.88 108.53 709.46 108.79 709.31 107.99 708.92 107.64 708.49 108.02 707.98 107.61 707.12 107.59 706.95 107.8 707.42 108.3 708.13 110.36 707.9 110.58 706.89 110.29 705.73 109.65 704.47 108.23 703.86 108.52 702.5 107.89 701.77 107.04 702.36 106.02 702.42 105.09 700.67 104.68 699.5 103.54 700.17 103.02 700.9 102.93 701.28 102.51 700.33 101.95 699.74 101.24 699.87 100.27 699.8 99.78 699.38 99.41 698.14 98.94 697.56 98.19 698.56 98.23 699.65 98.07 700.3 98.33 702.14 98.14 703.14 98.28 703.98 98.66 704.73 98.7 705.76 98.53 706.22 98.59 707.5 97.94 708.15 97.25 708.11 96.66 708.43 96.14 708.37 95.49 708.93 94.85 709.43 94.56 709.19 94.19 708.52 93.73 707.47 94.06 707.12 94.45 706.82 95.42 705.76 95.9 704.57 95.64 703.61 96.23 702.95 95.99 702.36 96.04 702.06 96.37 701.54 96.1 700.83 95.96 700.28 96.39 699.82 95.87 699.05 95.53 698.03 95.32 696.46 95.4 696.04 95.56 695.69 96.01 695.18 96.05 694.3 96.66 692.98 97.83 693.34 98.26 693.87 98.44 694.5 99.18 694.62 99.76 695.07 100.13 696.63 100.62 696.16 101.54 696.25 101.87 696.01 102.76 695.76 103 696.06 104.08 697.04 104.69 696.83 105.06 697.44 105.62 697.26 106.47 697.68 106.7 698.03 107.33 698.16 108.2 698.54 108.53 698.41 109.12 697.71 108.97 696.76 108.98 695.87 108.55 694.56 108.3 693.64 108.02 692.08 107.69 691.46 107.41 690.92 106.84 690.79 106.25 690.36 106.16 689.68 106.51 689.12 106.56 687.84 106.21 687.15 105.93 686.43 105.43 685.32 105.65 683.45 105.58 683.3 105.83 682.64 105.98 682.05 106.3 681.16 105.58 680.37 105.46 679.81 105.02 677.59 104.34 677.18 104.01 676.84 103.32 676.32 103.25 675.6 103.68 674.23 103.49 673.05 103.18 672.11 102.81 671.14 102.62 669.45 102.57 668.83 102.65 667.35 102.01 666.11 101.28 665.83 101.45 665.21 101.28 664.19 100.53 663.27 100.68 662.24 100.49 661.47 99.6 660.39 98.9 659.67 98.31 659.5 97.76 658.17 96.88 656.5 95.68 655.9 95.65 655.5 96.17 655.97 96.66 656.52 96.78 658.34 98.44 658.45 99.13 656.59 98.31 656.31 98.7 657.25 99.64 658.45 100.17 659.95 101.17 661.6 101.47 662.65 102.7 663.22 104.59 663.42 104.94 665.77 103.96 667.12 103.6 667.63 104.26 668.66 104.78 670.01 105.15 670.82 105.64 671.49 105.77 673.71 105.69 674.38 105.86 676.3 107.26 676.43 108.01 676.98 108.13 678.36 108.83 679.26 108.9 680.82 108.81 681.16 109.53 683.96 110.26 685.63 110.24 686.25 110.82 687.13 111.27 687.91 111.37 689.06 112.53 690.02 112.89 690.63 112.89 691.09 113.26 691.78 113.4 692.26 113.11 694.92 113.16 695.78 114.36 696.57 114.17 698.65 114.26 700.19 114.52 701.39 114.64 703.23 115.2 706.18 115.6 706.82 115.78 707.04 116.12 706.85 116.44 706.1 116.3 705.5 116.47 705.5 117.33 706.05 117.78 705.56 118.85 706.25 118.99 707.21 118.89 707.46 118.21 707.81 118.64 707.57 119.1 707.79 119.81 706.64 120.07 706.23 120.36 706.76 120.61 706.59 120.98 706.89 121.52 705.99 121.86 705.09 122.35 706.01 123.69 706.17 124.14 705.75 124.48 704.92 123.97 703.68 123.73 702.78 123.2 700.36 122.96 699.5 123.38 699.97 123.9 700.87 124.02 701.86 124.34 702.76 125.28 703.51 125.46 703.72 125.81 702.99 127.38 702.29 127.4 702.01 126.7 701.41 126.58 701.04 126.93 699.66 126.48 698.67 125.93 697.62 125.83 696.96 125.91 696.27 126.25 696.25 126.7 696.51 127.1 695.87 127.15 695.24 127.82 694.41 128.13 693.32 128.33 693.36 129.55 694 129.62 695.16 129.34 696.04 129.55 696.38 130.11 697.6 130.11 697.83 129.31 697.47 128.82 698.2 128.34 698.86 128.54 699.5 128.48 699.59 129.04 700.87 130.09 701.15 130.58 701.84 130.09 702.12 130.52 701.6 130.93 701.26 131.49 700.25 132.79 700.06 133.74 699.53 134.09 699.4 134.79 699.14 135.15 697.41 135.38 696.83 135.73 697.09 136.05 697.06 136.49 696.64 137.36 695.54 137.97 694.79 138.1 693.7 138.5 692.72 139.04 692.7 139.31 691.16 140.11 690.21 141.02 689.67 141.32 688.89 141.34 688.35 141.71 687.16 142.32 686.81 143.04 686.34 143.62 684.69 143.84 684.07 144.23 683.04 144.65 682.21 144.7 681.31 145.62 680.98 146.12 679.21 146.39 678.29 146.84 677.35 146.9 676.54 146.63 675.09 145.68 674.46 145.11 673.24 144.32 672.36 143.87 671.66 143.77 670.33 142.67 669.6 142.21 669.28 141.76 668.59 141.46 667.14 141.39 666.31 140.94 666.73 140.57 666.65 140.25 665.79 139.94 665.26 139.97 664.61 138.87 663.63 138.8 662.84 138.94 661.49 138.11 661.51 137.78 660.57 137.12 660.27 136.37 659.53 135.37 659.43 134.91 658.66 134.77 658.81 133.98 658.32 133.11 657.94 132.79 657.64 132.04 657.08 131.76 656.5 131.2 655.52 130.74 655 130.79 654.94 131.34 655.69 131.91 655.62 132.56 656.48 133.05 657.25 134.01 657.27 134.68 656.97 135.08 657.32 135.71 657.64 135.89 658.09 136.5 658.9 136.78 659.05 137.89 660.48 139.08 660.95 139.78 661.34 140.08 661.66 141.57 662.08 142.51 662.17 143.2 663.03 144.27 664.72 145.18 665.68 145.9 666.16 146.44 667.01 146.74 669.75 147.83 669.86 148.48 670.35 148.69 672.23 148.74 673.52 149.28 673.56 149.63 674.08 149.76 675.45 149.49 675.92 149.32 677.37 149.49 677.99 149.9 679.49 150.42 681.91 151.6 682.57 151.42 682.66 151.05 683.3 151.02 683.28 150.3 684.05 150.25 684.37 150.56 684.99 150.51 685.76 149.77 686.7 148.14 687.39 147.91 688.61 147.95 689.21 148.18 689.51 147.72 689.47 146.83 690.43 146.36 690.81 145.81 691.22 145.6 692.29 145.46 693.6 145.04 694.71 145.11 695.84 145.39 697.32 146.04 698.33 146.16 698.68 145.51 698.22 144.91 699.42 144.44 699.57 144.17 701.47 143.84 702.89 143.79 704.36 143.56 704.49 144.32 705.58 145.37 706.18 145.34 706.82 145.09 706.91 144.77 706.33 144.58 706.12 143.99 705.63 143.28 705.77 142.97 706.42 142.65 706.61 142.18 705.95 141.93 706.68 140.36 707.25 140.02 707.47 140.58 707.98 140.08 708.58 139.81 708.04 138.76 707.42 138.76 708.07 137.2 708.69 137.14 709.82 137.99 709.84 138.36 710.25 138.76 710.78 138.64 711.18 138.8 711.47 139.6 711.25 140.18 711.43 141.01 711.66 141.48 711.02 141.81 711.17 142.16 710.76 142.71 711.17 143.93 711.55 144.11 712.11 143.89 712.41 145.74 712.39 146.07 711.7 146.84 712.35 148.46 713.03 148.25 713.61 147.44 714.12 147.32 714.38 147.84 714.55 148.93 715.54 148.42 716.18 146.7 715.96 145.98 716.37 145.95 716.56 146.37 717.7 146.79 717.85 146.14 718.45 146.6 719.2 146.55 719.77 147.05 720.27 146.97 721.21 147.58 721.66 147.09 721.55 146.23 720.9 145.7 720.75 145.2 720.35 144.7 719.77 144.27 718.83 142.62 717.93 141.68 717.33 141.22 717.63 140.72 718.7 141.04 720.22 141.6 720.78 141.93 721.74 142.16 723.98 143.15 727.97 143.96 728.46 144.3 728.19 145.16 727.84 145.7 727.31 146.09 726.79 146.25 725.72 145.18 724.48 144.35 722.9 144.79 723.44 145.45 723.82 146.26 724.38 146.9 725.4 147.56 725.51 148.16 725.1 148.83 725.25 149.3 724.68 149.6 724.1 149.62 723.61 149.91 723.78 150.34 723.63 150.9 722.19 150.62 721.02 149.93 720.52 149.79 719.73 150.02 719.69 150.79 720.33 151.09 719.82 151.37 720.09 152.14 721.83 152.34 722.14 152.46 721.61 153.23 721.06 153.74 720.58 154.39 719.37 155 719.2 155.43 717.26 155.47 716.46 155.95 716.01 156.9 715.62 157.04 715.02 156.85 714.51 156.11 715.13 155.37 715.15 154.95 714.7 154.48 714.19 154.23 713.89 154.55 713.93 155.11 713.5 156.5 713.61 157.11 713.36 158.32 713.05 158.59 713.31 159.13 712.73 159.62 712.24 159.1 711.58 159.43 711.08 160.34 709.95 160.7 709.78 161.31 708.73 163.38 708.46 163.79 707.94 164.12 707.82 164.79 707.23 165.34 706.78 165.55 705.58 165.28 705.43 165.69 704.13 166.15 704.49 166.74 705.11 167.01 705.26 167.68 705.54 168.15 704.88 168.4 704.26 169.21 703.61 169.35 703.44 169.14 702.33 168.92 701.77 169.32 700.62 168.71 699.85 168.98 698.58 169.08 698.01 168.22 698.63 167.46 698.45 167.07 697.66 165.93 697.82 165.6 698.41 165.6 698.31 164.47 697.68 164.74 696.96 164.58 696.61 164.08 696.44 163.49 695.99 162.95 694.84 163.12 695.05 164.12 694.71 165.6 694.79 166.25 694.22 166.85 694.37 167.65 694.15 167.99 694.39 168.48 693.94 168.82 693.96 169.29 694.99 170.12 694.65 170.66 691.95 170.19 690.11 170.03 689.84 169.71 689.12 169.9 689.12 170.48 688.54 170.14 688.25 169.59 687.08 169.66 686.8 169.47 686.12 169.62 684.29 169.13 682.36 169.01 681.97 169.1 681.22 168.84 678.94 168.71 677.75 168.78 674.61 168.39 673.71 168.57 671.61 168.68 670.67 168.61 670.1 168.75 669.14 168.65 668.72 169 667.6 169.22 666.45 169.58 666.1 169.48 665.3 170.03 663.29 170.43 662.92 170.2 662.08 170.89 661.6 170.94 659.9 171.72 659.58 171.34 658.83 171.53 658.92 171.95 658.06 172.09 657.78 172.62 657.07 172.63 656.74 171.98 656.03 172.48 654.86 172.89 653.72 173 652.87 173.45 652.02 173.47 650.91 173.24 650.54 173.06 649.83 172.21 649.04 172.37 648.46 172.82 648.05 173.13 648.34 173.49 647.96 173.71 646.45 173.93 646.56 174.53 645.65 175.21 644.22 176.06 641.93 177.03 641.31 177.93 640.06 178.94 638.76 179.74 638.54 180.04 638.7 180.56 639.33 180.67 636.28 182.55 635.16 183.38 632.72 184.98 631.06 185.9 629.67 186.31 629.31 186.76 623.34 189.37 618.68 191.63 616.06 192.98 613.69 194.37 612.51 195.06 607.89 197.99 604.89 200.25 601.94 202.7 600.29 203.62 598.32 205.23 596.13 207.52 593.72 209.53 590.55 213.06 585.68 219.37 584.82 220.76 583.86 222.72 581.93 226.53 581.17 226.82 581.55 227.35 581.09 228.61 580.12 230.93 577.92 236.62 577.54 237 576.77 238.99 575.13 241.98 574.52 243.47 574.2 245.08 573.9 247.29 573.87 248.2 573.67 248.28 572.89 247.83 570.68 247.13 569.83 246.67 569.52 245.94 569.87 245.75 570.17 245.14 570.89 244.7 571.23 244.16 571.43 243.47 571.3 242.86 570.01 242.41 569.23 242.56 568.79 242.87 568.73 243.45 569.01 243.78 568.84 244.11 567.77 243.94 565.09 243.31 563.88 242.93 559.48 242.15 557.98 241.98 554.31 241.8 549.62 241.92 549.21 241.57 548.77 241.51 548 241.75 541.92 242.21 538.77 242.57 537.49 242.83 536.07 242.78 535.45 242.91 535.09 243.17 531.88 243.99 524.54 246.07 521.64 247.34 521.04 247.01 517.46 243.94 509.54 237.21 504.14 232.63 495.32 225.18 487.5 218.59 476.33 209.21 470.46 204.27 463.77 198.63 460.86 196.21 457.83 193.61 455.48 191.54 449.96 186.65 445.06 182.45 437.16 176.07 434.82 174.15 424.63 165.86 419.34 161.58 407.11 161.49 396.42 161.43 383.3 161.16 373.6 160.97 370.95 160.91 360.42 160.77 354.19 160.67 348.2 160.54 339.62 160.46 331.52 160.37 327.09 160.31 322.38 160.29 318.39 160.25 318.76 157.2 318.98 155.78 319.51 151.67 319.79 149.8 316.23 145.87 314.53 143.87 313.25 142.35 309.72 138.33 308.58 137.15 306.71 134.99 306.03 134.36 303.58 135.88 301.13 137.27 297.3 139.52 296.41 139.99 295.62 138.98 294.95 138.44 295.05 136.18 295.61 135.16 296.84 134.77 297.12 134.5 297.2 133.77 296.66 132.72 295.47 132.02 295.82 131.04 296.12 130.72 297.06 130.58 291.66 130.28 287 129.98 272.43 129.35 268.72 129.25 263.5 128.97 260.9 128.92 254.81 128.68 248.56 128.46 236.82 127.97 231.4 127.77 228.4 127.69 225.5 127.57 215.25 127.26 210.78 127.07 206.44 126.96 200.54 126.79 197.96 126.64 195.37 126.59 183.89 126 183.6 126.42 181.86 126.81 181 127.34 180.38 127.2 179.12 126.6 178.44 126.88 178.11 126.72 177.41 126.89 177.5 127.2 176.84 127.75 176.54 127.73 175.8 127.14 175.6 126.53 176.06 126.39 175.68 125.7 175.52 125.03 174.96 124.63 174.59 124.65 174.13 125.17 174.23 125.39 173.33 125.79 172.35 126.06 171.89 126.63 171.16 128.5 170.43 129.11 168.84 129.01 169.4 128.49 169.12 128.09 168.67 127.99 167.93 128.32 166.3 128.34 165.23 129.38 164.74 129.08 164.37 129.41 163.74 129.29 163.29 129.69 162.63 129.98 161.83 130.11 161.67 129.58 161.27 129.42 160.29 129.46 160.01 129.84 160.28 130.21 159.85 130.45 159.28 130.3 158.93 130.9 158.12 130.99 156.79 131.3 156.25 131.62 155 131.41 154.72 131.75 154.06 131.88 153.57 132.64 153.01 132.74 152.77 132.31 152.16 131.97 152.02 132.58 151.38 132.66 150.93 133.28 150.04 133.39 148.98 132.5 148.2 132.74 148.16 133.3 147.74 133.31 147.63 133.82 148.21 134.04 147.96 134.66 147.14 135.21 146.51 135.15 145.63 135.66 144.91 135.51 144.35 135.73 143.73 136.68 143.39 136.97 142.47 136.65 142.45 137.37 141.96 137.95 141.28 137.86 140.74 137.92 140.23 138.21 139.69 138.14 139.95 137.67 140.19 136.71 139.52 136.31 129.46 138.91 121.58 140.95 110.26 143.9 110.26 143.96 110.08 143.9 98.27 144.2 93.3 144.36 85.65 144.48 76.55 144.62 70.09 144.71 64.2 144.74 64.21 145.22 58.69 145.19 52.51 145.12 46.69 145.16 41.28 145.16 38.39 145.18 35.58 145.14 26.85 145.19 8.74 145.11 7.71 145.07 1 145.06 1.15 143.77 1.82 138.73 3.03 129.51 3.43 127.36 3.82 123.89 4.47 123.63 5.13 122.93 6.57 122.21 6.69 121.93 7.45 121.41 8.1 121.22 9.5 119.89 10.38 119.87 10.94 120.1 11.71 121.05 12.04 122.08 12.59 121.99 12.97 122.39 13.86 122.37 14.68 121.83 15.31 122.06 15.62 121.9 16.66 121.79 17.43 121.86 17.95 122.19 18.64 122.27 18.59 121.76 19.26 121.3 19.8 121.59 20.36 121.37 21.2 121.72 21.67 121.56 22.33 121.01 22.67 120.52 24.97 119.84 25.42 119.38 25.77 119.31 26.33 118.79 26.72 118.05 27.8 117.41 28.05 116.91 27.57 116.15 26.91 116 26.76 115.58 27.08 114.41 27.34 114.01 26.72 113.59 26.92 113.11 26.52 112.42 27.85 112.13 28.63 111.15 29.3 110.57 29.23 109.91 28.96 109.39 29.23 108.92 28.83 108.66 28.75 108.21 28.3 108 28.05 107.62 27.91 106.92 28.73 106.85 29.85 105.9 30.72 104.34 31.38 104.38 31.8 103.65 32.41 103.62 32.6 103 33.15 103.13 33.48 102.26 34.22 102.55 34.55 102.5 35.66 101.56 37.92 101.15 38.47 100.01 38.87 99.77 38.86 99.3 39.64 98.79 40.43 97.86 40.76 97.3 41.43 97.11 41.8 97.19 42.84 97.05 43.55 97.32 45.1 96.78 45.69 96.8 47.1 96.02 47.27 95.65 48.48 94.88 49.75 94.44 50.64 93.43 51.64 93.36 52.04 93.18 52.72 93.55 53.72 93.1 54.97 93.38 55.74 93.21 56.4 92.81 56.88 92.92 58.55 92.8 58.82 92.66 60.33 92.74 60.96 92.69 61.92 93.05 62.86 92.82 63.35 92.85 64.32 92.49 65.24 91.79 65.84 91.89 66.74 92.54 67.41 93.35 68.88 93.22 69.16 93.04 70.4 93.27 71.34 93.06 72.28 93.18 73.03 93.09 73.55 93.37 75.14 93.33 75.61 92.97 76.29 92.85 76.93 91.86 76.89 91.52 77.35 91.3 77.59 90.86 78.37 90.66 78.92 90.24 79.9 88.93 81.11 89.09 82.03 88.99 83.43 88.19 84.65 87.75 85.03 86.96 86 86.87 86.55 86.46 87.06 86.3 87.78 85.75 87.97 85.11 88.43 84.54 88.97 84.47 89.35 84.17 89.9 84.07 91.07 84.31 91.91 85.06 93.15 84.84 93.61 84.4 93.84 83.45 94.44 83.28 94.7 82.99 95.32 82.87 95.66 82.17 96.69 81.85 97.12 81.39 96.86 80.51 97.38 80.18 97.04 79.62 97.49 79.14 98.12 78.96 98.35 78.56 100.44 78.65 100.75 78.81 101.35 78.63 101.95 78.73 103.36 78.21 104.02 76.99 104.7 76.84 105.2 76.09 105.17 75.62 105.78 75.12 106.62 75.22 106.85 75.09 107.77 75.11 108.54 74.85 109.18 75 109.33 74.74 110.33 74.49 111.32 74.11 112.34 73.27 112.95 72.91 113.38 72.87 114.05 73.14 115.28 72.9 116.16 73.28 116.75 73.1 119.5 73.91 119.93 74.34 120.42 74.4 121.47 73.95 122.35 73.15 122.78 72.9 123.48 72.79 123.38 72.38 124.38 70.48 124.93 69.76 125.79 69.69 126.03 69.25 125.97 68.67 127.22 68.43 127.55 68.24 127.25 67.63 127.22 66.92 127.4 66.62 127.11 66.29 127.17 65.84 128.07 65.8 128.93 65.43 129.33 64.93 128.72 64.73 128.43 64.42 128.95 63.65 128.62 63.24 128.41 62.29 128.11 61.84 127.82 60.78 127.96 60.31 128.66 60.62 129.13 60.3 128.88 59.56 129.19 58.92 129.7 58.92 130.02 58.63 130.98 58.46 131.34 58.22 132.62 58.7 133.36 58.53 133.9 58.81 134.55 59.6 135.51 60.04 136.07 61 137.81 60.31 137.48 59.6 138.07 58.95 139.17 58.25 139.38 57.39 139.96 56.99 140.21 56.55 139.34 55.96 139.38 54.98 139.91 54.67 140.24 53.87 140.53 53.9 141.42 53.53 142.15 53.57 142.63 53.09 142.98 53.08 143.49 52.64 144.74 52.34 145.67 51.84 145.68 51.4 146.28 51.29 146.94 50.87 147.99 50.53 148.49 49.84 149.32 49.57 150.72 48.82 151.11 48.9 152.71 48.04 153.15 48.17 154.52 49.12 154.39 49.72 155.32 50 155.91 50.52 156.83 50.76 156.87 51.12 155.8 51.86 155.81 52.35 155.38 52.53 155.29 53.22 154.81 53.52 154.69 53.89 154.9 54.54 155.42 54.65 155.66 55.09 155.07 56.27 155.1 56.92 156.05 57.15 156.75 57 157.82 57.09 158.19 57.67 159.79 58.12 160.56 57.22 161.49 56.75 162.28 56.47 162.8 56.57 163.51 56.15 164.58 55.99 164.99 55.58 166.49 54.57 166.72 54.14 167.22 54.13 167.74 53.7 168.62 53.25 173.15 46.53 173.86 45.93 175.04 45.22 175.83 45.02 176.35 44.41 177.24 44.29 178.06 43.6 179.79 43.64 180.97 43.14 181.21 43.19 182.21 42.61 182.85 42.13 184.11 41.74 184.82 42.3 186.32 42.5 186.65 41.94 187.19 41.71 187.46 42.06 188 42.14 188.3 41.62 188.87 41.29 189.91 40.34 190.09 39.83 190.83 39.64 191.93 39.88 192.13 40.21 192.75 40.55 193.17 40.36 193.57 41.01 194.13 41.14 194.52 40.77 195.13 40.91 196.07 40.61 196.75 40.64 197.08 41.32 197.76 42.34 197.68 43.2 198.48 44.58 199.61 44.57 200.6 44.25 201.06 44.45 202.89 44.38 204.5 43.8 205 43.07 205.06 42.7 206.06 42.66 207.05 43.12 207.39 42.85 207.67 42.24 209.83 39.13 213.5 33.71 215.6 30.89 217.47 28.11 218.36 26.77 219.13 26.34 220.23 26.12 221.18 25.54 222.11 24.58 222.2 24.32 224.39 23.04 225.77 22.54 227.22 22.25 228.33 21.68 228.95 22.1 228.99 22.55 230 22.57 230.4 22.97 231.26 23.46 231.6 23.32 232.2 23.62 233.12 23.54 233.85 23.08 234.59 23.22 235.43 23.69 236.44 23.78 236.63 23.19 236.35 22.77 235.51 22.62 235.12 22.26 234.91 21.75 234.76 20.75 234.33 20.31 234.1 19.54 234.45 19.26 234.51 18.77 234.23 18.4 233.56 18.34 233.36 16.81 234.43 16.53 234.66 16.15 235.23 15.92 235.49 15.35 235.19 14.89 235.74 14.64 235.87 13.69 235.72 12.75 236.36 12.35 237.2 12.17 237.54 11.85 237.6 11.34 237.31 9.88 237.47 9.69 237.1 9.1 237.38 8.51 236.84 7.03 236.38 6.76 236.4 5.69 237.13 5.63 237.11 5.36 237.67 4.62 238.05 3.4 238 2.75 238.9 2.75 239.15 2.59 238.91 1.21 239.14 1 246.07 1.11 253.29 1.69 258.87 1.91 260.25 2.02 265.16 2.18 267.43 2.23 272.46 2.19 276.52 2.28 278.95 2.39 284.21 2.46 284.74 2.55 287.74 2.69 289.33 2.72 292.19 2.88 296.11 2.95 299.81 3.2 303.77 3.21 306.3 3.32 309.29 3.38 314.74 3.61 318.2 3.43 320.5 3.5 324.43 3.32 326.75 3.33 331.36 3.61 339.46 3.86 350.55 4.37 363.63 4.97 368.25 4.98 379.2 5.1 390.16 5.12 396.21 5.1 402.31 5.1 415.88 5.16 425.8 5.2 431.43 5.26 434 5.25 439.01 5.25 440.09 5.21 444.17 5.19 447.58 5.22 448.99 5.19 455 5.2 457.7 5.23 460.66 5.19 467.8 5.16 469.03 5.19 473.95 5.15 486.24 5.14 501.23 5.18 509.53 5.14 514.41 5.22 524.27 5.24 529.17 5.11 548.07 4.93 556.04 4.95 560.81 5 566.15 5.02 570.75 4.94 580.78 4.91 592.84 4.84 607.15 4.87 614.43 4.87 621.47 4.9 628.69 4.89 636.89 4.91 641.77 4.94 643.25 4.76 645.01 4.68 646.6 4.96 649.14 4.97 651.09 4.92 667.94 4.99 667.99 4.24 676.62 4.33 682.41 4.37 701.62 4.38 716.48 4.38 728.24 4.4 743.97 4.38 750.07 4.4 756.91 4.38 762.35 4.4 Z M 775.03 59.74 775.8 59.39 776.96 59.42 778.24 59.64 778.67 60 779.67 60.36 781.09 61.21 780.78 61.51 780.86 62.38 781.63 62.55 782.38 62.45 783.96 64.49 784.93 66.9 784.67 67.69 785.15 70.57 784.61 71.14 784.27 71.13 782.94 70.3 780.33 69.86 779.69 69.26 781.04 68.5 780.99 66.34 780.74 65.69 779.89 64.55 779.12 64.41 777.65 62.82 777.72 62.11 777.25 61.58 775.3 60.67 775.03 59.74 Z M 774.52 125.98 775.41 125.89 776.01 125.69 777.39 124.98 777.55 124.37 778.02 124.04 778.68 123.22 779.15 123.01 779.19 123.65 779.49 124.27 780.31 124.3 781.12 124.04 782.3 123.44 782.73 123.43 783.37 123.04 784.52 122.15 784.76 121.78 786.66 120.87 786.86 120.51 786.86 119.77 788.27 120.33 789.04 120.3 789.43 120.07 790.32 119.98 791.65 119.67 792.04 119.44 792.66 119.49 793.3 119.74 793.39 119.11 793.94 117.64 794.09 116.92 793.94 116.05 794.2 115.02 793.96 114.62 793.92 113.71 794.22 112.84 794.22 111.88 795.38 110.52 795.89 108.98 795.72 108.13 796.15 106.71 796.21 104.97 796.55 103.9 796.7 102.74 796.75 101.01 796.96 100.35 796.92 99.53 796.53 97.98 796.7 96.95 796.98 96.32 797.6 95.91 797.6 95.44 797.9 94.29 797.82 94.01 798.27 92.33 798.26 91.1 798 90.5 798.07 89.1 797.92 88.58 798.03 88.04 797.62 87.2 797.17 86.59 796.87 85.92 796.77 84.99 796.25 84.47 796.17 83.97 795.83 83.41 795.85 82.99 795.55 81.95 795.53 81.17 794.78 80.37 794.27 78.89 794.52 78.53 794.5 78.05 793.88 77.74 793.69 76.99 793.93 76.27 793.53 76.12 792.85 74.55 793.34 74.36 793.74 74.76 794.51 76 795.03 77 796.1 79.39 796.72 81.12 797.26 82.84 797.69 84.44 798.18 86.82 798.89 90.65 799 92.06 798.88 93.82 797.85 98.17 797.32 100.49 797.14 102.3 796.73 107.93 795.57 112.18 794.91 114.73 793.94 119.6 793.76 120.83 793.19 122.06 792.95 123.52 792.64 123.62 791.69 123.29 790.22 122.92 788.46 122.83 786.25 123.07 782.02 123.99 780.18 124.62 778.33 125.18 775.6 126.14 774.59 126.33 774.52 125.98 Z M 749.05 137.66 749.46 137.18 750.42 136.8 751.73 135.19 751.34 134.63 751.51 134.35 751.47 133.54 752.03 133.17 752.45 133.16 753.22 133.49 753.67 133.37 754.19 133.63 755.17 133.28 756.78 132.28 757.44 132.16 761.76 130.29 763.6 129.78 764.23 129.29 766.88 128.52 767.95 127.91 768.46 127.98 769.73 127.57 770.2 127.05 770.81 127.15 770.13 127.72 766.73 128.92 762.21 130.74 757.61 132.79 755.3 134.03 753.57 135.05 751.88 136.22 750.25 137.45 750.16 137.9 749.61 138.08 749.05 137.66 Z M 725.07 115.44 725.4 114.58 725.8 114.48 726.26 114.76 726.8 115.76 726.16 116.11 725.15 115.76 725.07 115.44 Z M 720.7 157.71 721.29 157.64 721.98 156.76 722.48 156.5 723.64 155.53 724.15 154.31 724.39 154.05 724.91 154.59 725.55 154.3 725.77 153.95 726.78 153.04 727.48 152.73 727.54 152.43 728.2 152.11 729.23 151.2 729.98 150.71 730.34 150.23 731.62 149.01 732.34 148.52 732.78 147.72 734.53 146.33 734.98 145.78 735.44 145.77 735.72 145.4 736.48 145.41 736.76 145.21 736.76 144.51 737.46 143.94 737.47 143.73 738.19 143.09 739.56 142.38 740.18 141.98 740.46 141.15 741.09 140.69 741.53 140.69 742.09 140.06 742.42 139.95 742.59 139.26 742.91 138.7 743.61 138.05 743.59 137.72 744.59 137.44 745.57 137.59 746.06 137.79 747.02 138.44 747.05 138.89 745.87 139.58 743.75 140.51 741.74 141.88 736.17 146.13 733.71 147.99 731.14 150.14 728.58 152.33 727.22 153.35 723.39 156.08 720.97 157.97 720.7 157.71 Z M 701.11 170.08 701.95 169.96 703.02 170.17 703.64 170.4 703.34 171.12 701.44 170.92 701.18 170.68 701.11 170.08 Z M 700.57 177.96 700.84 178.6 701.13 178.81 702.06 178.89 702.5 179.1 703.53 177.26 704.04 176.63 704.64 175.65 704.86 175 705.6 174.03 705.12 173.51 705.95 172.94 706.17 172.32 706.68 171.82 706.9 171.36 707.52 170.96 707.92 170.49 707.74 170.01 708.45 169.61 708.86 169.02 709.77 168.78 710.66 167.99 710.65 167.48 711 167.21 710.73 166.79 711.01 166.18 710.83 165.77 711.49 165.17 712.73 165.45 713.18 165.17 713.15 163.91 713.68 163.49 714.15 163.49 714.17 162.81 715.36 162.79 715.91 162.49 716.79 161.38 716.89 161.08 717.65 160.49 717.67 159.93 719.1 159.41 719.77 158.73 720.05 158.73 718.65 160.22 716.39 162.46 714.46 164.44 712.44 166.78 711.3 167.97 708.65 171.03 706.47 173.65 705.13 175.47 704.52 176.6 703.19 178.63 702.61 179.75 702.2 180.8 701.01 179.32 700.47 178.29 700.57 177.96 Z M 697.63 169.78 699.21 169.87 699.94 170.13 699.62 170.84 700.41 171.08 700.41 171.33 701.97 171.4 703.06 171.77 703.08 172.37 698.05 171.12 697.78 170.87 697.54 169.97 697.63 169.78 Z M 690.5 171.96 691.83 172.03 692.4 172.24 693.75 172.51 695.85 173.4 697.11 173.74 697.36 173.56 698.17 174.19 698.65 174.29 700.7 175.33 701.66 175.5 701.78 175.71 702.67 176.12 702.81 177.03 702.2 177.19 701.13 175.94 700.61 175.59 699.04 174.79 697.68 174.29 694.6 173.42 691.85 172.84 690.54 172.1 690.5 171.96 Z M 651.5 175.82 652.42 175 653.03 174.74 654.7 174.25 657.2 173.62 659.05 173.2 659.45 173.57 660.16 173.56 662.26 173.25 662.62 173.12 665.26 172.89 668.65 172.39 669.55 171.91 670.09 171.82 670.85 171.98 672.18 171.56 673.08 171.63 674.4 171.46 675.89 170.72 678.59 170.72 679.04 170.64 681.12 170.77 681.38 171.04 682.21 170.82 683.27 170.76 683.28 169.94 684.08 170.05 684.64 170.96 685.17 170.74 685.95 170.65 687.27 170.89 687.06 170.32 687.67 170.02 688.68 171.09 689.39 171.11 689.4 171.61 687.97 171.6 685.13 171.31 683.5 171.24 680.23 171.33 677.02 171.56 674.11 171.86 669.73 172.43 663.13 173.45 659.08 174.2 655.35 175.07 653.63 175.52 652 176.03 651.5 175.82 Z M 650.36 175.94 650.4 176.01 649.68 176.57 648.17 176.93 647.13 177.27 645.13 178.03 645.31 177.51 647.03 176.75 649.08 176.05 649.46 175.72 650.36 175.94 Z M 639.63 180.18 642.14 178.89 642.57 178.84 644.04 178.18 644.05 178.44 642.09 179.23 639.93 180.34 639.63 180.18 Z" fill-rule="evenodd" fill="none" stroke="currentColor" stroke-width="46.400"/>
</g>
</svg>