<svg viewBox="-85.207941 -37.474257 10.633440000000007 4.518061000000003" xmlns="http://www.w3.org/2000/svg">
  <path d="M -75.86764692320608,36.55041157241111 L -75.928004,36.550627 L -76.004003,36.550432 L -76.071704,36.550598 L -76.24641,36.550418 L -76.376931,36.550595 L -76.541966,36.550653 L -76.755255,36.550766 L -76.819611,36.551117 L -76.915411,36.552146 L -76.915977,36.543884 L -77.103028,36.544594 L -77.12472822402228,36.544036146205215 L -77.15292,36.54413 L -77.170545,36.54728 L -77.190062,36.54641 L -77.206536,36.544367 L -77.260684,36.544739 L -77.351772,36.544894 L -77.431998,36.544798 L -77.510096,36.545185 L -77.590939,36.545127 L -77.749853,36.545452 L -77.883833,36.544681 L -77.995132,36.544406 L -78.046271,36.543551 L -78.10559999327745,36.54368267837293 L -78.158517,36.544252 L -78.247007,36.544471 L -78.45691490103933,36.54253936299391 L -78.511291,36.541049 L -78.620798,36.541321 L -78.675011,36.54215 L -78.767108,36.541755 L -78.933599,36.54219 L -79.070063,36.542049 L -79.124735,36.541659 L -79.13832,36.541975 L -79.217627,36.541661 L -79.250474,36.541141 L -79.280504,36.541468 L -79.347268,36.541598 L -79.362911,36.541285 L -79.40079,36.541581 L -79.446048,36.541382 L -79.458079,36.540981 L -79.513638,36.540902 L -79.542165,36.540856 L -79.604774,36.541553 L -79.714849,36.541965 L -79.865597,36.542615 L -79.933269,36.542664 L -80.000493,36.542402 L -80.122173,36.54265 L -80.24373,36.543938 L -80.295128,36.544067 L -80.44034,36.550665 L -80.563473,36.556364 L -80.653387,36.559183 L -80.704601,36.562302 L -80.730361,36.562329 L -80.774027,36.560375 L -80.79956478567031,36.5611001715292 L -80.837954,36.559143 L -80.898453,36.561706 L -80.931725,36.562419 L -80.959827,36.563577 L -81.003808,36.563656 L -81.044851,36.566513 L -81.088426,36.567309 L -81.120144,36.569089 L -81.137799,36.569345 L -81.171045,36.570947 L -81.176933,36.571885 L -81.235401,36.572726 L -81.262375,36.573922 L -81.307437,36.574961 L -81.363281,36.574497 L -81.388554,36.575017 L -81.443047,36.576832 L -81.458411,36.578004 L -81.520347,36.580521 L -81.600455,36.586948 L -81.67749,36.588137 L -81.680011,36.585818 L -81.677306,36.570496 L -81.680072,36.568672 L -81.690128,36.568722 L -81.689548,36.561441 L -81.69379,36.547977 L -81.699999,36.539711 L -81.699795,36.536727 L -81.707878,36.536006 L -81.708092046923,36.524145095006325 L -81.70297,36.521141 L -81.696992,36.504788 L -81.700111,36.498203 L -81.695949,36.491619 L -81.697783,36.489503 L -81.694608,36.473372 L -81.695177,36.467625 L -81.699001,36.464068 L -81.708377,36.462088 L -81.71543,36.457636 L -81.713787,36.447173 L -81.715204,36.436704 L -81.721317,36.4339 L -81.718003,36.428829 L -81.720876,36.42247 L -81.727152,36.419869 L -81.729719,36.415653 L -81.741596,36.412587 L -81.739368,36.395591 L -81.731958,36.394929 L -81.72889,36.390825 L -81.729539,36.385357 L -81.733438,36.382283 L -81.730827,36.37368 L -81.726066,36.368785 L -81.724373,36.357695 L -81.722133,36.352086 L -81.717754,36.34804 L -81.70846,36.346425 L -81.705313,36.341773 L -81.707475,36.335225 L -81.71861,36.336154 L -81.727974,36.341431 L -81.736205,36.342905 L -81.744275,36.337854 L -81.75447,36.336999 L -81.761132,36.340254 L -81.764954,36.338722 L -81.774468,36.344153 L -81.778975,36.348574 L -81.790137,36.348848 L -81.790644,36.353827 L -81.797474,36.358465 L -81.809779,36.352221 L -81.825923,36.348903 L -81.841191,36.343353 L -81.865509,36.329193 L -81.866549,36.326346 L -81.876855,36.315641 L -81.88746,36.309164 L -81.89967,36.306736 L -81.908167,36.301966 L -81.918119,36.287129 L -81.93885978512066,36.256253464333405 L -81.962216,36.224949 L -82.002953,36.164766 L -82.026901,36.130154 L -82.030067,36.123393 L -82.033839,36.120475 L -82.044755,36.125556 L -82.055876,36.125127 L -82.056577,36.120949 L -82.062051,36.112923 L -82.080028,36.106433 L -82.10031,36.105671 L -82.105418,36.107837 L -82.116352,36.104301 L -82.1289028812838,36.10422762030368 L -82.137856,36.11951 L -82.136987,36.129039 L -82.144452,36.140406 L -82.148175,36.147952 L -82.155744,36.148273 L -82.166206,36.144983 L -82.172934,36.1465 L -82.177217,36.142373 L -82.183518,36.143829 L -82.187956,36.151028 L -82.192557,36.148994 L -82.199442,36.152735 L -82.201733,36.156384 L -82.213898,36.159041 L -82.222145,36.156922 L -82.224106,36.151261 L -82.235646,36.14076 L -82.241992,36.137031 L -82.24532908834959,36.13125462169916 L -82.251268,36.132155 L -82.254328,36.136058 L -82.260304,36.133533 L -82.263925,36.127297 L -82.280635,36.129478 L -82.288572,36.135727 L -82.302481,36.131465 L -82.309574,36.126091 L -82.320684,36.119677 L -82.323392,36.120181 L -82.336487,36.114623 L -82.355684,36.115139 L -82.364836,36.107429 L -82.374689,36.106134 L -82.380475,36.099347 L -82.389218,36.097097 L -82.40239,36.089238 L -82.410197,36.082552 L -82.46047494974248,36.00788417576853 L -82.470245,36.002979 L -82.476026,35.998183 L -82.481591,35.998029 L -82.48417,35.993301 L -82.500795,35.982103 L -82.50533315722438,35.97754407821304 L -82.517233,35.975769 L -82.525105,35.971046 L -82.530963,35.972136 L -82.539726,35.969085 L -82.549975,35.96384 L -82.558587,35.95389 L -82.576384,35.958843 L -82.580462,35.965248 L -82.592376,35.966262 L -82.600106,35.964594 L -82.610703,35.967203 L -82.610939,35.97438 L -82.604413,35.987463 L -82.607128,35.99236 L -82.612897,35.993606 L -82.615177,36.000826 L -82.613825,36.004917 L -82.608587,36.008286 L -82.607552,36.015951 L -82.602812,36.017931 L -82.602923,36.023371 L -82.590995,36.031574 L -82.591447,36.035568 L -82.601674,36.038225 L -82.608163,36.044013 L -82.618546,36.047147 L -82.617042,36.053768 L -82.632332,36.064307 L -82.63723,36.06582 L -82.654944,36.056281 L -82.659268,36.057117 L -82.674851,36.048833 L -82.684073,36.045795 L -82.689586,36.038157 L -82.701228,36.034359 L -82.70864,36.029721 L -82.715289,36.028537 L -82.715341,36.023554 L -82.725707,36.018089 L -82.739576,36.014709 L -82.745206,36.009783 L -82.749148,36.009726 L -82.754442,36.00439 L -82.76257,36.004844 L -82.77246556740147,36.000750317818905 L -82.77567,36.001068 L -82.779315,35.992205 L -82.785167,35.988685 L -82.78569,35.977841 L -82.776006,35.97135 L -82.77872,35.966399 L -82.785258,35.961953 L -82.78752468692505,35.9523635823533 L -82.799727,35.944661 L -82.806305,35.937377 L -82.802675,35.929571 L -82.821948,35.92183 L -82.828235,35.932541 L -82.838831,35.937447 L -82.846037,35.946169 L -82.85203,35.949329 L -82.860312,35.947452 L -82.874493,35.952768 L -82.878467,35.95012 L -82.889094,35.948246 L -82.892662,35.945003 L -82.898317,35.944967 L -82.901784,35.937852 L -82.899049,35.929613 L -82.904292,35.926153 L -82.912046,35.92956 L -82.913581,35.924341 L -82.910389,35.91254 L -82.90698,35.907577 L -82.904681,35.897017 L -82.901057,35.892483 L -82.906825,35.883908 L -82.903627,35.880458 L -82.896776,35.878257 L -82.901221,35.87268 L -82.910774,35.868573 L -82.920831,35.868178 L -82.921432,35.863105 L -82.918224,35.859493 L -82.920271,35.85615 L -82.919923,35.848295 L -82.91658086487384,35.841526959864275 L -82.920211,35.839385 L -82.93407,35.836662 L -82.93347,35.830307 L -82.936162,35.82541 L -82.94563,35.824615 L -82.951764,35.816608 L -82.962847,35.795469 L -82.961754,35.790959 L -82.969585,35.789691 L -82.974268,35.787 L -82.984057,35.778029 L -82.995786,35.773098 L -83.001164,35.773719 L -83.005988,35.778496 L -83.036487,35.787488 L -83.043091,35.785496 L -83.052821,35.789705 L -83.066524,35.787119 L -83.073918,35.790055 L -83.078745,35.789587 L -83.08544,35.785674 L -83.096754,35.776351 L -83.107837,35.77209 L -83.118921,35.76934 L -83.120608,35.766431 L -83.127673,35.768058 L -83.136248,35.765222 L -83.14644,35.765384 L -83.149029,35.763956 L -83.158277,35.765035 L -83.165059,35.759504 L -83.164743,35.754362 L -83.170285,35.74603 L -83.177812,35.744345 L -83.185137,35.730753 L -83.200834,35.725055 L -83.207544,35.726141 L -83.214196,35.724113 L -83.217644,35.725865 L -83.240827,35.726856 L -83.243384,35.722437 L -83.250375,35.720421 L -83.255343,35.715084 L -83.251635,35.708875 L -83.257417,35.705225 L -83.2544729781924,35.69551657109741 L -83.259291,35.690371 L -83.27068,35.686827 L -83.274467,35.679076 L -83.281342,35.677699 L -83.284252,35.674436 L -83.290951,35.672602 L -83.293497,35.662056 L -83.298567,35.657134 L -83.312379,35.654706 L -83.321616,35.663054 L -83.334656,35.665662 L -83.340782,35.664578 L -83.345007,35.661209 L -83.350985,35.660449 L -83.356036,35.654151 L -83.358246,35.647075 L -83.366163,35.640924 L -83.371828,35.639163 L -83.377926,35.634645 L -83.388726,35.633622 L -83.39295,35.624859 L -83.406522,35.61999 L -83.422038,35.611049 L -83.432303,35.60999 L -83.445676,35.611747 L -83.456589,35.597194 L -83.462692,35.59257 L -83.471296,35.590268 L -83.473963,35.5854 L -83.47916,35.583031 L -83.478631,35.57919 L -83.485834,35.56819 L -83.493317,35.56683 L -83.498544,35.562888 L -83.516234,35.562416 L -83.521974,35.565593 L -83.530304,35.564512 L -83.540717,35.565865 L -83.551171,35.563493 L -83.564979,35.566091 L -83.568064,35.564064 L -83.584374,35.562698 L -83.591778,35.571633 L -83.601774,35.578919 L -83.608498,35.580009 L -83.618719,35.572232 L -83.629468,35.568165 L -83.634899,35.568535 L -83.64536,35.566023 L -83.656014,35.570013 L -83.66299901004497,35.56946963217436 L -83.679825,35.57034 L -83.682763,35.568752 L -83.701323,35.56747 L -83.706607,35.568612 L -83.714007,35.564183 L -83.722536,35.562357 L -83.736412,35.56546 L -83.747561,35.560401 L -83.755113,35.564587 L -83.759551,35.562573 L -83.770587,35.561743 L -83.780444,35.550524 L -83.794646,35.545649 L -83.808038,35.537093 L -83.809893,35.532996 L -83.825566,35.524311 L -83.832143,35.524574 L -83.849326,35.518621 L -83.857181,35.521573 L -83.868755,35.520002 L -83.872894,35.52089 L -83.880312,35.518782 L -83.884029,35.512556 L -83.892801,35.50224 L -83.901466,35.496552 L -83.901249,35.491347 L -83.905781,35.488689 L -83.911875,35.476068 L -83.936978,35.471442 L -83.949242,35.461099 L -83.95297042312617,35.460552231246645 L -83.961102,35.463754 L -83.964797,35.454105 L -83.970948,35.455493 L -83.973077,35.44865 L -83.979757,35.44826 L -83.984433,35.44015 L -83.991777,35.440674 L -84.00146245012525,35.42331960419785 L -84.013889,35.412711 L -84.023052,35.411933 L -84.021452,35.404223 L -84.018712,35.399996 L -84.013695,35.397646 L -84.012794,35.392664 L -84.008296,35.389732 L -84.011396,35.384601 L -84.008301,35.378766 L -84.00757190028504,35.371494199125586 L -84.015057,35.364981 L -84.023714,35.354087 L -84.03839,35.350924 L -84.034001,35.343276 L -84.03624,35.337861 L -84.029287,35.333256 L -84.032184,35.328766 L -84.035829,35.315798 L -84.034115,35.311183 L -84.02674,35.309431 L -84.021495,35.301083 L -84.024254,35.295504 L -84.036239,35.288418 L -84.040542,35.280181 L -84.046719,35.274416 L -84.050669,35.273567 L -84.055598,35.268496 L -84.081215,35.260997 L -84.084934,35.255556 L -84.092318,35.249374 L -84.097504,35.247598 L -84.106849,35.251518 L -84.113083,35.249024 L -84.119077,35.252249 L -84.126491,35.247154 L -84.125958,35.241524 L -84.133619,35.242377 L -84.1394,35.246097 L -84.14797,35.246844 L -84.159486,35.245651 L -84.162894,35.243809 L -84.169869,35.246435 L -84.179067,35.240434 L -84.188957,35.240217 L -84.193166,35.244681 L -84.199212,35.243667 L -84.202887,35.255116 L -84.211395,35.265621 L -84.217718,35.26816 L -84.227484,35.267926 L -84.243,35.25321 L -84.25017,35.251018 L -84.25868,35.245345 L -84.259994,35.24222 L -84.275909,35.234204 L -84.283297,35.226459 L -84.290519,35.223571 L -84.294838,35.185017 L -84.299257,35.161142 L -84.31267,35.058785 L -84.320174,35.002772 L -84.321821,34.988408 L -84.24726082711108,34.98838507851783 L -84.23586,34.987911 L -84.034724,34.987051 L -83.937836,34.987534 L -83.906672,34.987078 L -83.874564,34.987329 L -83.814414,34.987339 L -83.749893,34.987836 L -83.68118,34.987031 L -83.61995,34.986669 L -83.620051,34.992032 L -83.554582,34.992336 L -83.482949,34.993301 L -83.381831,34.994869 L -83.29685,34.996275 L -83.241734,34.997978 L -83.11061,35.001303 L -83.108613,35.000659 L -83.108568,35.001354 L -82.982861,35.03406 L -82.895342,35.056733 L -82.783631,35.085622 L -82.776228,35.081164 L -82.778925,35.070561 L -82.781731,35.065305 L -82.775722,35.064561 L -82.770091,35.067739 L -82.76415285499641,35.068375528914345 L -82.756511,35.06736 L -82.751113,35.073893 L -82.75091,35.081875 L -82.740718,35.078273 L -82.736943,35.08152 L -82.729977,35.092031 L -82.723849,35.094482 L -82.71576,35.092854 L -82.706062,35.098535 L -82.69902,35.097789 L -82.689948,35.103899 L -82.687115,35.110773 L -82.693634,35.113242 L -82.692328,35.118939 L -82.687738,35.11905 L -82.687278,35.125294 L -82.67860399911058,35.12788565342556 L -82.66689,35.118054 L -82.656959,35.119258 L -82.651943,35.126194 L -82.644861,35.126987 L -82.643348,35.133782 L -82.636491,35.130065 L -82.633821,35.125223 L -82.627599,35.126343 L -82.622193,35.134862 L -82.61486,35.136227 L -82.611714,35.139997 L -82.597832,35.137709 L -82.591868,35.141255 L -82.577109,35.144738 L -82.568085,35.145709 L -82.564225,35.152358 L -82.557903,35.15068 L -82.55316,35.153393 L -82.556173,35.157465 L -82.55298,35.161645 L -82.542176,35.162117 L -82.537733,35.16033 L -82.535911,35.154476 L -82.527055,35.155876 L -82.519763,35.159175 L -82.514688,35.163568 L -82.507683,35.162272 L -82.503576,35.165921 L -82.498113,35.162558 L -82.486327,35.174173 L -82.468206,35.174353 L -82.459939,35.178005 L -82.454968,35.176941 L -82.451866,35.172497 L -82.45812,35.166651 L -82.440388,35.165592 L -82.432357,35.172372 L -82.424216,35.193076 L -82.41916,35.199414 L -82.408264,35.202452 L -82.398263,35.206861 L -82.399364,35.209347 L -82.39424,35.215094 L -82.390077,35.215335 L -82.383927,35.210848 L -82.382135,35.203429 L -82.377886,35.195775 L -82.38307,35.194237 L -82.380813,35.187458 L -82.372581,35.18084 L -82.369244,35.180648 L -82.361925,35.186726 L -82.362898,35.190211 L -82.355148,35.192087 L -82.351452,35.190379 L -82.343956,35.193411 L -82.329938,35.186776 L -82.323102,35.185173 L -82.313539,35.191056 L -82.29416,35.195411 L -82.290958,35.20008 L -82.163536,35.193521 L -82.134692,35.19299 L -82.106095,35.191299 L -82.04056,35.189449 L -81.992314,35.188273 L -81.942735,35.186096 L -81.828907,35.182632 L -81.796745,35.181339 L -81.763362,35.18049 L -81.703233,35.178254 L -81.572807,35.172741 L -81.503417,35.170378 L -81.435838,35.167628 L -81.406923,35.167139 L -81.348939,35.163989 L -81.307831,35.162866 L -81.145983,35.155861 L -81.094278,35.152613 L -81.034264,35.149257 L -81.044688,35.147734 L -81.048111,35.144102 L -81.05199392127842,35.13323555857039 L -81.038765,35.125449 L -81.032792,35.113788 L -81.033605,35.105702 L -81.036716,35.102735 L -81.05038,35.098372 L -81.05666856474785,35.08701192795239 L -81.05768300854923,35.06193449264247 L -81.050325,35.055998 L -81.041496,35.044713 L -81.031652,35.050027 L -80.989135,35.074946 L -80.961935,35.090443 L -80.934739,35.107318 L -80.92717,35.100257 L -80.906385,35.076277 L -80.893701,35.063206 L -80.854477,35.018524 L -80.840278,35.001692 L -80.821468,34.979504 L -80.781924,34.935828 L -80.785036,34.915054 L -80.790894,34.86945 L -80.79331879086328,34.853678471281704 L -80.797484,34.819803 L -80.753131756675,34.819296440588964 L -80.700814,34.819072 L -80.651627,34.818407 L -80.56171,34.817429 L -80.466389,34.81651 L -80.399923,34.815153 L -80.330706,34.814059 L -80.213783,34.812501 L -80.184404,34.811746 L -80.076661,34.809668 L -79.930958,34.806712 L -79.812277,34.80598 L -79.676494,34.805065 L -79.61776,34.757463 L -79.504564,34.665449 L -79.478599,34.644136 L -79.390844,34.573292 L -79.336465,34.526607 L -79.275187,34.472282 L -79.249069,34.449377 L -79.215389,34.420436 L -79.183052,34.393585 L -79.108761,34.330935 L -79.043623,34.276087 L -78.919565,34.171979 L -78.83272,34.098794 L -78.734834,34.016028 L -78.67489998925595,33.96520145390686 L -78.586964,33.890519 L -78.54711355411828,33.856347372478574 L -78.540518,33.852711 L -78.508318,33.866793 L -78.426814,33.889924 L -78.391162,33.899 L -78.387122,33.901959 L -78.380229,33.90334 L -78.364542,33.902748 L -78.350253,33.905732 L -78.315342,33.909652 L -78.247841,33.914781 L -78.239228,33.917452 L -78.234353,33.916786 L -78.22982,33.912859 L -78.177721,33.914272 L -78.136953,33.912178 L -78.120349,33.910309 L -78.071508,33.90163 L -78.057984,33.897513 L -78.028274,33.890474 L -78.016388,33.888573 L -78.014504,33.892266 L -78.01757,33.895869 L -78.016969,33.902349 L -78.012044,33.905745 L -78.003422,33.907472 L -77.98903,33.902451 L -77.987638,33.8957 L -77.989785,33.888003 L -77.993611,33.881979 L -78.001627,33.877177 L -78.00494,33.87041 L -78.008792,33.86822 L -78.005408,33.860127 L -77.995949,33.855095 L -77.97142,33.847297 L -77.962794,33.842316 L -77.960486,33.843151 L -77.960173,33.853315 L -77.956882,33.87779 L -77.953356,33.895646 L -77.946569,33.912261 L -77.928315,33.945489 L -77.919723,33.967562 L -77.915537,33.971723 L -77.891082,34.034898 L -77.880359,34.060692 L -77.875214,34.074733 L -77.879484,34.080578 L -77.87097,34.083781 L -77.84964,34.126084 L -77.83898,34.147892 L -77.829369,34.163252 L -77.775334,34.233321 L -77.740137,34.272546 L -77.713323,34.294879 L -77.689056,34.320327 L -77.66719,34.338188 L -77.648781,34.348437 L -77.616124,34.375565 L -77.582702,34.400677 L -77.531481,34.433193 L -77.51836680145934,34.44088272242732 L -77.492079,34.456297 L -77.462923,34.471354 L -77.411209,34.496418 L -77.344865,34.525359 L -77.340895,34.530369 L -77.325465,34.534915 L -77.307042,34.545138 L -77.279998,34.562897 L -77.267546,34.572153 L -77.233663,34.593011 L -77.240645,34.594252 L -77.242373,34.600044 L -77.239964,34.603379 L -77.225531,34.612212 L -77.211624,34.623467 L -77.20475,34.633438 L -77.179332,34.644267 L -77.163413,34.653693 L -77.15333,34.661224 L -77.154605,34.667896 L -77.137801,34.670279 L -77.133629,34.672757 L -77.136758,34.67676 L -77.1322839740904,34.68019435766874 L -77.125864,34.685242 L -77.117056,34.686957 L -77.109176,34.677522 L -77.105004,34.675521 L -77.092719,34.672948 L -77.083332,34.673234 L -77.073829,34.67819 L -77.061199,34.679432 L -77.048242,34.683947 L -77.040336,34.68953 L -77.036604,34.68235 L -77.028747,34.682478 L -77.025618,34.688291 L -77.016115,34.689911 L -77.017158,34.69458 L -77.008814,34.696677 L -77.005215,34.692473 L -76.986331,34.701059 L -76.981,34.701631 L -76.971728,34.709253 L -76.967556,34.706776 L -76.945305,34.711158 L -76.936382,34.717255 L -76.932441,34.716207 L -76.919751,34.720197 L -76.907293,34.72259 L -76.902657,34.726495 L -76.891995,34.725447 L -76.885621,34.726971 L -76.875191,34.726209 L -76.851897,34.727352 L -76.84193,34.729352 L -76.807047,34.725066 L -76.793835,34.725828 L -76.768455,34.724399 L -76.760111,34.721542 L -76.755823,34.722494 L -76.734383,34.721161 L -76.714024,34.715756 L -76.706569,34.71735 L -76.70344,34.715255 L -76.69046,34.716017 L -76.687215,34.70992 L -76.680725,34.706204 L -76.680725,34.712587 L -76.672728,34.714683 L -76.669794,34.711151 L -76.649353,34.709392 L -76.619365,34.704193 L -76.615603,34.710174 L -76.627011,34.719356 L -76.627249,34.724631 L -76.622258,34.728343 L -76.624872,34.733812 L -76.622451,34.737559 L -76.624159,34.746507 L -76.617742,34.753147 L -76.618693,34.760372 L -76.61489,34.776773 L -76.617267,34.7879 L -76.604432,34.789852 L -76.599441,34.783801 L -76.597619,34.777238 L -76.593736,34.771697 L -76.585655,34.76994 L -76.578762,34.772868 L -76.577574,34.760372 L -76.584174,34.760329 L -76.585893,34.756662 L -76.577122,34.744101 L -76.575197,34.739672 L -76.58209,34.731273 L -76.575673,34.721701 L -76.561649,34.722873 L -76.553093,34.725803 L -76.540294,34.719047 L -76.534079,34.723459 L -76.521719,34.721115 L -76.519818,34.71877 L -76.512687,34.720333 L -76.505795,34.729319 L -76.498427,34.732054 L -76.501517,34.737328 L -76.50318,34.74475 L -76.510073,34.747679 L -76.514114,34.754319 L -76.499615,34.759396 L -76.497951,34.763887 L -76.484641,34.760958 L -76.47965,34.763301 L -76.473054,34.769379 L -76.471807,34.776773 L -76.465987,34.780432 L -76.463017,34.785076 L -76.451366,34.808003 L -76.449465,34.814833 L -76.436868,34.818736 L -76.431401,34.828881 L -76.424033,34.832588 L -76.418566,34.826735 L -76.412149,34.832198 L -76.415001,34.838246 L -76.41161,34.841268 L -76.408821,34.854631 L -76.41001,34.861457 L -76.405256,34.876863 L -76.405732,34.883102 L -76.402404,34.886611 L -76.3967,34.883882 L -76.391708,34.878617 L -76.391946,34.873938 L -76.398839,34.865747 L -76.393135,34.857556 L -76.38648,34.855411 L -76.382201,34.856971 L -76.377155,34.867553 L -76.368275,34.872881 L -76.346787,34.873353 L -76.344886,34.878032 L -76.331373,34.884878 L -76.326109,34.89207 L -76.319968,34.897745 L -76.314087,34.906322 L -76.317552,34.907665 L -76.336804,34.909809 L -76.339894,34.918385 L -76.33419,34.921503 L -76.34132,34.924816 L -76.340845,34.93339 L -76.332051,34.935923 L -76.326584,34.934364 L -76.313512,34.926764 L -76.297604,34.923658 L -76.295924,34.929882 L -76.297825,34.934559 L -76.292358,34.937871 L -76.285941,34.938066 L -76.279524,34.941378 L -76.281187,34.946639 L -76.276672,34.954042 L -76.27786,34.960665 L -76.289269,34.968066 L -76.295448,34.975078 L -76.299675,34.984129 L -76.305668,34.991436 L -76.28808,34.996304 L -76.274295,34.987152 L -76.262411,34.975273 L -76.256706,34.977025 L -76.250764,34.98131 L -76.246962,34.987347 L -76.243872,34.996888 L -76.249314,35.000668 L -76.293683,35.009633 L -76.318547,35.020645 L -76.329199,35.023168 L -76.335388,35.02685 L -76.352291,35.033077 L -76.364138,35.036597 L -76.367465,35.031148 L -76.360816,35.025973 L -76.350828,35.015577 L -76.34037,34.997277 L -76.333952,34.992409 L -76.329558,34.986901 L -76.327888,34.981334 L -76.320642,34.975467 L -76.319454,34.965924 L -76.324445,34.96047 L -76.334903,34.967287 L -76.34037,34.966313 L -76.346754,34.971903 L -76.355106,34.971378 L -76.361761,34.976441 L -76.363425,34.969235 L -76.376007,34.973864 L -76.378154,34.978611 L -76.382677,34.978194 L -76.3803,34.970209 L -76.38743,34.95112 L -76.398364,34.94547 L -76.400265,34.957548 L -76.403117,34.963392 L -76.408821,34.962028 L -76.415239,34.953068 L -76.422845,34.95073 L -76.429975,34.968651 L -76.422369,34.97722 L -76.422131,34.98092 L -76.425462,35.001464 L -76.431639,34.999029 L -76.435917,35.000976 L -76.440433,35.014604 L -76.435917,35.020638 L -76.437581,35.024531 L -76.43045,35.028229 L -76.433065,35.033484 L -76.434966,35.04263 L -76.432566,35.049061 L -76.435763,35.057941 L -76.440195,35.059753 L -76.446137,35.058391 L -76.450653,35.062865 L -76.450891,35.066951 L -76.463469,35.076411 L -76.47038,35.075704 L -76.477511,35.058391 L -76.470618,35.058391 L -76.464676,35.046716 L -76.471331,35.043798 L -76.477036,35.038154 L -76.479412,35.044381 L -76.485813,35.0406 L -76.493911,35.023168 L -76.486543,35.020443 L -76.488682,35.015188 L -76.49588,35.011662 L -76.497476,35.00818 L -76.492009,35.000392 L -76.489613,34.993745 L -76.483215,34.99163 L -76.484166,34.988125 L -76.491296,34.985399 L -76.497951,34.98501 L -76.510073,34.996693 L -76.51157,35.005075 L -76.527858,35.002578 L -76.543586,35.00195 L -76.564702,34.998339 L -76.566403,34.99533 L -76.579713,34.990073 L -76.574642,34.983446 L -76.578525,34.976246 L -76.589696,34.97761 L -76.606096,34.984815 L -76.618693,34.987931 L -76.631052,34.98871 L -76.645547,34.984032 L -76.657434,34.982478 L -76.66195,34.980141 L -76.666169,34.974022 L -76.6769,34.968813 L -76.676449,34.958912 L -76.679776,34.953847 L -76.686431,34.956379 L -76.699979,34.956769 L -76.707585,34.954236 L -76.718043,34.936118 L -76.726599,34.927934 L -76.733492,34.927349 L -76.737057,34.930857 L -76.745614,34.930272 L -76.745376,34.922282 L -76.752506,34.921893 L -76.753457,34.9178 L -76.760825,34.915851 L -76.787673,34.928927 L -76.804352,34.934693 L -76.811213,34.939235 L -76.827375,34.941184 L -76.832604,34.939235 L -76.847816,34.936313 L -76.85352,34.937676 L -76.853996,34.941573 L -76.868256,34.947613 L -76.889172,34.948197 L -76.894639,34.950535 L -76.895827,34.957743 L -76.92625,34.969819 L -76.935757,34.97313 L -76.940986,34.979168 L -76.951682,34.987152 L -76.970459,34.997277 L -76.979966,35.009153 L -76.981005,35.016727 L -76.98567,35.027256 L -76.989263,35.043792 L -76.993514,35.047106 L -76.998743,35.054889 L -77.014667,35.068118 L -77.016331,35.080373 L -77.025363,35.083485 L -77.030354,35.090292 L -77.033919,35.092237 L -77.037722,35.099237 L -77.034394,35.10371 L -77.03462,35.11119 L -77.043189,35.121792 L -77.052696,35.127235 L -77.051968,35.134453 L -77.060302,35.140841 L -77.059589,35.146866 L -77.053884,35.147449 L -77.042951,35.142396 L -77.036534,35.136176 L -77.030354,35.133066 L -77.027026,35.124708 L -77.022748,35.121208 L -77.017282,35.111487 L -77.018945,35.102738 L -77.010389,35.101182 L -77.009329,35.096062 L -77.001074,35.084987 L -76.997792,35.076677 L -76.987334,35.069285 L -76.987572,35.065589 L -76.972598,35.056445 L -76.963804,35.058002 L -76.95287,35.057223 L -76.94574,35.044965 L -76.939849,35.045259 L -76.930291,35.041852 L -76.92934,35.038349 L -76.934039,35.034229 L -76.924795,35.029238 L -76.908678,35.02842 L -76.901056,35.025115 L -76.897491,35.020054 L -76.88941,35.014993 L -76.874674,35.002729 L -76.866825,35.001642 L -76.857085,34.996693 L -76.843538,34.987931 L -76.836574,34.981593 L -76.820483,34.970988 L -76.811421,34.968003 L -76.800993,34.968651 L -76.790773,34.973715 L -76.771181,34.976742 L -76.76748,34.982284 L -76.757498,34.992409 L -76.748228,34.992993 L -76.736819,34.997666 L -76.729927,35.00195 L -76.711625,35.004481 L -76.706396,35.010905 L -76.702517,35.018933 L -76.689284,35.025699 L -76.683342,35.029786 L -76.67462,35.029974 L -76.668605,35.033289 L -76.658147,35.043408 L -76.641035,35.052359 L -76.640797,35.055278 L -76.629864,35.061309 L -76.617742,35.065784 L -76.609423,35.067145 L -76.597301,35.073954 L -76.592553,35.083605 L -76.59231,35.088541 L -76.595162,35.092042 L -76.588745,35.095932 L -76.569493,35.09846 L -76.566641,35.102543 L -76.565215,35.110321 L -76.559273,35.114209 L -76.557134,35.124708 L -76.545963,35.139092 L -76.54216,35.145311 L -76.536347,35.149927 L -76.539545,35.15464 L -76.547151,35.149198 L -76.550241,35.15464 L -76.564502,35.166298 L -76.565452,35.172516 L -76.572583,35.171933 L -76.579951,35.17407 L -76.588032,35.168824 L -76.583991,35.163384 L -76.586606,35.154445 L -76.600154,35.154445 L -76.603956,35.160663 L -76.613701,35.162995 L -76.626536,35.159886 L -76.633666,35.160663 L -76.634142,35.174264 L -76.62202,35.176401 L -76.612751,35.179898 L -76.605858,35.18728 L -76.598728,35.187863 L -76.60158,35.19233 L -76.601342,35.19738 L -76.593736,35.20107 L -76.586368,35.202042 L -76.574722,35.200876 L -76.563741,35.194761 L -76.548339,35.189805 L -76.544254,35.193648 L -76.537644,35.19233 L -76.534554,35.18456 L -76.526711,35.184755 L -76.518629,35.202236 L -76.521006,35.20612 L -76.529325,35.208062 L -76.539308,35.218548 L -76.550241,35.222043 L -76.560223,35.223402 L -76.565452,35.229227 L -76.555945,35.233886 L -76.529087,35.231168 L -76.519105,35.225344 L -76.505319,35.222626 L -76.49605,35.216995 L -76.491383,35.220745 L -76.493198,35.225732 L -76.503416,35.240681 L -76.493435,35.246116 L -76.483471,35.249803 L -76.486739,35.255849 L -76.484904,35.259913 L -76.490718,35.262707 L -76.486173,35.265959 L -76.47347,35.268824 L -76.475847,35.276779 L -76.473205,35.281814 L -76.477077,35.286656 L -76.479888,35.279108 L -76.490583,35.277944 L -76.498157,35.279554 L -76.492722,35.291331 L -76.498902,35.296375 L -76.498869,35.305888 L -76.492247,35.307819 L -76.483928,35.306267 L -76.481789,35.309759 L -76.484166,35.313638 L -76.491296,35.315577 L -76.524096,35.320038 L -76.544537,35.326243 L -76.557847,35.327601 L -76.57496,35.330509 L -76.598014,35.331479 L -76.606809,35.329346 L -76.616316,35.342724 L -76.645839,35.343249 L -76.651255,35.34001 L -76.658861,35.341561 L -76.664028,35.345696 L -76.670744,35.345633 L -76.68144,35.349704 L -76.694187,35.362602 L -76.702831,35.36366 L -76.712576,35.3687 L -76.719469,35.375095 L -76.738008,35.374902 L -76.769144,35.383041 L -76.772947,35.390985 L -76.790297,35.390017 L -76.80028,35.390792 L -76.815577,35.39849 L -76.821671,35.399898 L -76.823164,35.408251 L -76.844488,35.423724 L -76.851856,35.425661 L -76.876575,35.424693 L -76.883943,35.426242 L -76.892975,35.431665 L -76.907949,35.435732 L -76.919357,35.441541 L -76.925023,35.448802 L -76.940038,35.444839 L -76.96618,35.433989 L -76.96832,35.437862 L -76.974635,35.458858 L -76.986383,35.472517 L -77.004685,35.475808 L -77.02129,35.486894 L -77.034632,35.492839 L -77.04509,35.503288 L -77.042,35.507545 L -77.021322,35.498451 L -77.02251,35.506191 L -77.042713,35.52457 L -77.048893,35.525924 L -77.054122,35.53134 L -77.049606,35.537142 L -77.042951,35.536755 L -77.024412,35.523409 L -77.009676,35.513736 L -77.007774,35.507545 L -76.999803,35.501083 L -76.987809,35.493226 L -76.979207,35.483351 L -76.967844,35.481227 L -76.957624,35.482969 L -76.94625,35.474559 L -76.939323,35.472711 L -76.936233,35.474647 L -76.922447,35.466517 L -76.906047,35.459354 L -76.899155,35.460322 L -76.880378,35.459741 L -76.869682,35.457612 L -76.859225,35.453546 L -76.8461,35.450111 L -76.830898,35.447949 L -76.82286,35.452771 L -76.817155,35.451997 L -76.813352,35.444252 L -76.808836,35.440573 L -76.784118,35.433021 L -76.777938,35.428179 L -76.769144,35.426823 L -76.759235,35.418906 L -76.752744,35.422369 L -76.745376,35.424112 L -76.743712,35.426823 L -76.722996,35.426115 L -76.710675,35.428566 L -76.702594,35.42295 L -76.694988,35.419851 L -76.680749,35.415938 L -76.674547,35.416558 L -76.666942,35.420432 L -76.662188,35.419463 L -76.660762,35.412877 L -76.65482,35.406485 L -76.647927,35.403385 L -76.630577,35.399704 L -76.620356,35.396604 L -76.605858,35.393892 L -76.595875,35.389048 L -76.585417,35.389242 L -76.577559,35.387576 L -76.576148,35.394085 L -76.580426,35.397767 L -76.581852,35.407453 L -76.585655,35.414427 L -76.590409,35.416945 L -76.588356,35.426411 L -76.595162,35.432633 L -76.592786,35.4367 L -76.603719,35.443478 L -76.607046,35.455482 L -76.604194,35.458192 L -76.60158,35.468065 L -76.60253,35.471743 L -76.597382,35.481932 L -76.614652,35.487421 L -76.619643,35.491485 L -76.621069,35.497871 L -76.627962,35.506191 L -76.633904,35.508126 L -76.637945,35.512962 L -76.623209,35.525924 L -76.613464,35.532694 L -76.607759,35.53308 L -76.603956,35.538109 L -76.599203,35.53985 L -76.581852,35.540817 L -76.570444,35.538496 L -76.561887,35.534628 L -76.556791,35.528892 L -76.550716,35.533661 L -76.542873,35.532113 L -76.537031,35.52913 L -76.533735,35.532808 L -76.527221,35.533352 L -76.519893,35.53069 L -76.50916,35.537273 L -76.495952,35.53437 L -76.484166,35.539656 L -76.480838,35.550486 L -76.477036,35.55474 L -76.465389,35.558414 L -76.457929,35.553285 L -76.455249,35.549199 L -76.460785,35.546024 L -76.46697,35.538931 L -76.466307,35.53163 L -76.469884,35.525938 L -76.46943,35.519347 L -76.476707,35.511707 L -76.490821,35.504449 L -76.495988,35.505181 L -76.507459,35.503288 L -76.515777,35.503675 L -76.525058,35.507878 L -76.536218,35.50948 L -76.556658,35.507352 L -76.563789,35.510269 L -76.57591,35.508513 L -76.587081,35.508899 L -76.580559,35.500603 L -76.566878,35.495355 L -76.562125,35.491291 L -76.561412,35.485872 L -76.562838,35.475034 L -76.556289,35.46716 L -76.545725,35.460903 L -76.550003,35.456256 L -76.558084,35.455288 L -76.565452,35.44948 L -76.552455,35.436869 L -76.533075,35.43231 L -76.533762,35.421999 L -76.540293,35.410657 L -76.532177,35.401254 L -76.517103,35.394179 L -76.510311,35.397379 L -76.496288,35.381684 L -76.483453,35.374514 L -76.472274,35.371375 L -76.469629,35.373726 L -76.477511,35.396604 L -76.48274,35.402223 L -76.480838,35.404548 L -76.471331,35.404354 L -76.465627,35.399704 L -76.460873,35.403966 L -76.456595,35.400092 L -76.454931,35.391179 L -76.450178,35.394085 L -76.443523,35.395054 L -76.438294,35.388273 L -76.434966,35.392729 L -76.438056,35.398542 L -76.437343,35.403385 L -76.432352,35.404935 L -76.419517,35.417914 L -76.417616,35.42508 L -76.409297,35.428954 L -76.395511,35.431665 L -76.388856,35.425661 L -76.385291,35.415008 L -76.388381,35.407841 L -76.396224,35.406872 L -76.395987,35.40106 L -76.387193,35.394473 L -76.385053,35.384203 L -76.380538,35.386141 L -76.367941,35.382266 L -76.368416,35.379165 L -76.361523,35.373739 L -76.365326,35.369669 L -76.363662,35.364242 L -76.368178,35.361141 L -76.382201,35.368118 L -76.412862,35.375677 L -76.419992,35.374902 L -76.424297,35.36505 L -76.422131,35.362691 L -76.411436,35.361334 L -76.411911,35.346408 L -76.399207,35.348893 L -76.39361,35.35203 L -76.389332,35.360365 L -76.37721,35.358427 L -76.379587,35.341561 L -76.376022,35.335551 L -76.361048,35.341561 L -76.35059,35.339816 L -76.341558,35.342337 L -76.343935,35.349316 L -76.343935,35.356876 L -76.351541,35.374126 L -76.356057,35.378002 L -76.357483,35.383622 L -76.352016,35.385947 L -76.350115,35.389823 L -76.344886,35.392535 L -76.326109,35.386335 L -76.322544,35.380328 L -76.323257,35.372382 L -76.315889,35.3687 L -76.308758,35.369669 L -76.305193,35.360171 L -76.305668,35.354938 L -76.290905,35.349393 L -76.278811,35.342918 L -76.268115,35.34001 L -76.25757,35.344397 L -76.253073,35.350017 L -76.254567,35.354356 L -76.260034,35.358815 L -76.260034,35.365405 L -76.249814,35.367731 L -76.243159,35.366568 L -76.231512,35.358815 L -76.229611,35.352999 L -76.223194,35.346408 L -76.221054,35.340398 L -76.212023,35.345826 L -76.204892,35.345826 L -76.205843,35.339622 L -76.197286,35.341755 L -76.187542,35.341755 L -76.183501,35.346602 L -76.174232,35.34699 L -76.161635,35.342918 L -76.156168,35.337684 L -76.155672,35.331564 L -76.145146,35.341457 L -76.137361,35.344746 L -76.141669,35.349122 L -76.14262,35.354938 L -76.136916,35.358039 L -76.130736,35.357845 L -76.121942,35.354162 L -76.112503,35.355012 L -76.109345,35.358621 L -76.10269,35.361334 L -76.096035,35.360947 L -76.091281,35.369475 L -76.078684,35.372382 L -76.070841,35.370638 L -76.063948,35.38556 L -76.07607,35.384397 L -76.083438,35.390985 L -76.079635,35.396798 L -76.069379,35.397649 L -76.068763,35.401238 L -76.072187,35.406674 L -76.071222,35.409846 L -76.0645,35.410631 L -76.06141,35.413343 L -76.062284,35.420044 L -76.053947,35.421225 L -76.06052,35.430906 L -76.058711,35.43465 L -76.052581,35.435287 L -76.039706,35.430809 L -76.032574,35.421594 L -76.031715,35.413138 L -76.022659,35.412194 L -76.021217,35.417478 L -76.015585,35.42211 L -76.013466,35.427753 L -76.015699,35.441735 L -76.005241,35.449867 L -75.999062,35.457418 L -75.996447,35.463613 L -75.997636,35.46884 L -75.995653,35.475355 L -75.988841,35.484905 L -75.972917,35.491291 L -75.963054,35.493903 L -75.963446,35.500958 L -75.97054,35.506771 L -75.976482,35.508319 L -75.978383,35.512962 L -75.971728,35.518766 L -75.961652,35.515339 L -75.955329,35.522442 L -75.957468,35.526117 L -75.951763,35.532113 L -75.943682,35.536175 L -75.929897,35.537529 L -75.918013,35.54159 L -75.912784,35.544685 L -75.912784,35.549713 L -75.920152,35.553 L -75.919677,35.561508 L -75.904456,35.564687 L -75.902896,35.570802 L -75.894062,35.575418 L -75.886101,35.57457 L -75.88237,35.576117 L -75.883074,35.58258 L -75.88732,35.585391 L -75.890042,35.591747 L -75.896737,35.595262 L -75.892807,35.600829 L -75.883853,35.623615 L -75.881794,35.634352 L -75.876821,35.635276 L -75.868799,35.629924 L -75.870129,35.616422 L -75.871845,35.610627 L -75.857987,35.59761 L -75.855217,35.593621 L -75.856873,35.587721 L -75.852809,35.584678 L -75.837566,35.58749 L -75.830486,35.592943 L -75.819045,35.590877 L -75.813525,35.591717 L -75.812,35.5833 L -75.822854,35.579102 L -75.826925,35.571025 L -75.797557,35.575193 L -75.777973,35.579761 L -75.777125,35.581491 L -75.784392,35.58881 L -75.785101,35.595547 L -75.776787,35.600578 L -75.767013,35.601317 L -75.761748,35.605816 L -75.752168,35.607987 L -75.751973,35.612795 L -75.744157,35.622554 L -75.736071,35.625499 L -75.734912,35.630173 L -75.739918,35.644617 L -75.743479,35.649247 L -75.748259,35.647193 L -75.754219,35.648357 L -75.76491,35.656361 L -75.769811,35.665467 L -75.766451,35.677064 L -75.78042,35.684106 L -75.778142,35.693516 L -75.772267,35.69858 L -75.767324,35.705618 L -75.757817,35.706004 L -75.742605,35.699634 L -75.738089,35.694616 L -75.737139,35.689404 L -75.739616,35.684061 L -75.73286,35.681489 L -75.725968,35.68535 L -75.717173,35.693651 L -75.718124,35.708899 L -75.72573,35.714495 L -75.729533,35.730318 L -75.726205,35.739193 L -75.738565,35.749417 L -75.734762,35.758483 L -75.735475,35.763883 L -75.741179,35.769861 L -75.742367,35.774875 L -75.735237,35.780467 L -75.734049,35.786059 L -75.736901,35.792807 L -75.736425,35.799169 L -75.730246,35.805916 L -75.730008,35.812469 L -75.733573,35.821142 L -75.728022,35.824513 L -75.734762,35.837329 L -75.751875,35.851008 L -75.748547,35.862567 L -75.753015,35.871382 L -75.749498,35.884137 L -75.755202,35.887796 L -75.761206,35.888916 L -75.764472,35.897038 L -75.770176,35.905124 L -75.768037,35.911862 L -75.778013,35.91379 L -75.782298,35.919562 L -75.781076,35.924382 L -75.782499,35.93342 L -75.79228,35.937268 L -75.795307,35.941442 L -75.80559,35.94612 L -75.805139,35.954043 L -75.809351,35.959308 L -75.836284,35.970501 L -75.86097,35.977093 L -75.870947,35.978555 L -75.881885,35.975362 L -75.897572,35.976132 L -75.910385,35.973588 L -75.936552,35.964975 L -75.947294,35.959835 L -75.937817,35.950884 L -75.933462,35.949584 L -75.921578,35.935921 L -75.931323,35.926876 L -75.937279,35.926429 L -75.947821,35.920347 L -75.962563,35.901393 L -75.966248,35.899287 L -75.977831,35.897181 L -75.986053,35.888993 L -75.981473,35.878938 L -75.980523,35.870271 L -75.988128,35.861796 L -75.976007,35.838485 L -75.98694,35.825575 L -75.987178,35.821913 L -75.994118,35.812532 L -75.99003,35.796277 L -75.986451,35.793774 L -75.98385,35.787409 L -75.985738,35.782679 L -75.982899,35.772561 L -75.98595,35.767808 L -75.989035,35.757124 L -75.990505,35.742087 L -75.994546,35.738035 L -75.996209,35.730704 L -76.001201,35.725301 L -76.002367,35.718356 L -75.998824,35.710443 L -76.001914,35.706197 L -75.999775,35.694037 L -76.004528,35.690176 L -76.005954,35.67782 L -76.013022,35.670065 L -76.012847,35.660829 L -76.018789,35.653683 L -76.032812,35.646344 L -76.043983,35.647696 L -76.047548,35.652911 L -76.043983,35.671642 L -76.041278,35.674025 L -76.036377,35.688439 L -76.041369,35.692878 L -76.043508,35.700406 L -76.054916,35.702723 L -76.060858,35.716811 L -76.05658,35.71932 L -76.048311,35.73708 L -76.048974,35.745559 L -76.051589,35.753275 L -76.055867,35.760219 L -76.053253,35.775068 L -76.053015,35.797819 L -76.050271,35.801486 L -76.050486,35.806689 L -76.063473,35.824033 L -76.06276,35.828272 L -76.065374,35.833861 L -76.062284,35.842339 L -76.063204,35.853433 L -76.058244,35.862374 L -76.046018,35.870275 L -76.045409,35.884522 L -76.04018,35.894728 L -76.027549,35.904716 L -76.028534,35.910707 L -76.02069,35.915327 L -76.012847,35.921872 L -76.020453,35.932457 L -76.015163,35.95319 L -76.011421,35.954201 L -76.016774,35.962681 L -76.024969,35.969784 L -76.053966,35.987095 L -76.062522,35.990749 L -76.074555,35.991132 L -76.077021,35.989018 L -76.101502,35.99171 L -76.119565,35.991518 L -76.132638,35.989402 L -76.148324,35.994787 L -76.15593,35.993249 L -76.170524,35.994523 L -76.180649,35.988056 L -76.198713,35.986518 L -76.205393,35.987562 L -76.220341,35.984402 L -76.223194,35.981709 L -76.236504,35.979017 L -76.244109,35.979594 L -76.245298,35.976709 L -76.259796,35.973054 L -76.27168,35.972285 L -76.274295,35.968245 L -76.282596,35.967533 L -76.287605,35.964975 L -76.313512,35.948814 L -76.3147,35.94535 L -76.325396,35.938615 L -76.335141,35.939 L -76.348451,35.942272 L -76.353442,35.938423 L -76.367227,35.934382 L -76.370793,35.934382 L -76.374596,35.943619 L -76.379111,35.94535 L -76.382677,35.950353 L -76.374892,35.955412 L -76.384103,35.966321 L -76.384103,35.971515 L -76.392422,35.979209 L -76.399552,35.982094 L -76.406445,35.981517 L -76.423599,35.977392 L -76.458496,35.96786 L -76.47448,35.960173 L -76.484335,35.958253 L -76.490108,35.959781 L -76.507492,35.949831 L -76.528552,35.944039 L -76.553806,35.940155 L -76.573932,35.941956 L -76.587167,35.941479 L -76.603841,35.939827 L -76.609592,35.935692 L -76.639808,35.936457 L -76.653869,35.934382 L -76.662426,35.932072 L -76.679063,35.936499 L -76.683587,35.940236 L -76.697602,35.942079 L -76.706661,35.944874 L -76.717774,35.937141 L -76.728298,35.933578 L -76.732773,35.936723 L -76.726965,35.942568 L -76.725732,35.955213 L -76.719153,35.965087 L -76.706396,35.9719 L -76.699979,35.973824 L -76.681915,35.989595 L -76.685956,36.006324 L -76.696889,36.009785 L -76.703782,36.010554 L -76.704733,36.027663 L -76.70806,36.038235 L -76.705607,36.04259 L -76.718043,36.048036 L -76.725411,36.058989 L -76.730877,36.074743 L -76.726044,36.096236 L -76.734205,36.103938 L -76.735869,36.110274 L -76.744188,36.12621 L -76.749416,36.131585 L -76.75417,36.147517 L -76.753932,36.165172 L -76.751556,36.169777 L -76.753457,36.176684 L -76.752031,36.192799 L -76.747753,36.197402 L -76.750843,36.204115 L -76.749892,36.211402 L -76.745138,36.215046 L -76.741335,36.229235 L -76.73468,36.235753 L -76.725022,36.231118 L -76.721846,36.24553 L -76.708969,36.254992 L -76.705683,36.266038 L -76.697757,36.271663 L -76.699979,36.285391 L -76.682866,36.276577 L -76.674785,36.276386 L -76.672171,36.271978 L -76.675463,36.266882 L -76.691423,36.247064 L -76.694512,36.237287 L -76.700132,36.234103 L -76.710675,36.223291 L -76.714293,36.215279 L -76.718906,36.200978 L -76.718518,36.190497 L -76.722321,36.160183 L -76.721446,36.147838 L -76.716141,36.144446 L -76.710675,36.134657 L -76.709621,36.120604 L -76.70497,36.10989 L -76.68857,36.10701 L -76.688333,36.096256 L -76.692611,36.09107 L -76.688808,36.078969 L -76.692904,36.07531 L -76.691898,36.06629 L -76.689258,36.061494 L -76.676485,36.043612 L -76.663139,36.041886 L -76.661229,36.038374 L -76.652234,36.035285 L -76.635568,36.037082 L -76.623446,36.044769 L -76.616316,36.054569 L -76.606809,36.054185 L -76.603243,36.035352 L -76.593261,36.025741 L -76.593398,36.022957 L -76.580426,36.010554 L -76.57282,36.0094 L -76.563313,36.010938 L -76.545487,36.010169 L -76.514114,36.006516 L -76.506508,36.011323 L -76.491534,36.017283 L -76.460321,36.024137 L -76.45612,36.033814 L -76.443523,36.045153 L -76.438769,36.047075 L -76.430926,36.056107 L -76.419755,36.0636 L -76.414611,36.064273 L -76.408108,36.068019 L -76.412149,36.072438 L -76.411198,36.080698 L -76.404241,36.07879 L -76.384103,36.081082 L -76.369367,36.085308 L -76.35507,36.086458 L -76.347025,36.088765 L -76.336567,36.088381 L -76.331903,36.083826 L -76.323479,36.084879 L -76.31779,36.090494 L -76.311333,36.090897 L -76.304005,36.094527 L -76.302579,36.100289 L -76.315889,36.100865 L -76.328723,36.104514 L -76.339657,36.109122 L -76.345361,36.113923 L -76.346419,36.121023 L -76.360097,36.121027 L -76.371743,36.117763 L -76.381964,36.122946 L -76.38288,36.127537 L -76.389192,36.133236 L -76.395036,36.134273 L -76.396329,36.139182 L -76.402879,36.144638 L -76.425541,36.160891 L -76.435679,36.162486 L -76.436868,36.169585 L -76.442572,36.174766 L -76.449227,36.177452 L -76.458021,36.185317 L -76.454694,36.192799 L -76.438056,36.191839 L -76.42736,36.180713 L -76.420943,36.181097 L -76.416665,36.177452 L -76.405019,36.17208 L -76.4008,36.167976 L -76.390282,36.162486 L -76.387678,36.155717 L -76.379379,36.142886 L -76.373572,36.138208 L -76.365326,36.137728 L -76.359384,36.140031 L -76.339894,36.138112 L -76.336091,36.135617 L -76.323257,36.134849 L -76.30934,36.124882 L -76.296874,36.122946 L -76.288555,36.119683 L -76.284459,36.114587 L -76.263361,36.105858 L -76.257895,36.106434 L -76.251477,36.102593 L -76.249101,36.104706 L -76.241733,36.102017 L -76.238713,36.098568 L -76.228898,36.099905 L -76.224657,36.097162 L -76.213686,36.096064 L -76.206556,36.101441 L -76.196811,36.103553 L -76.191716,36.107197 L -76.200376,36.10893 L -76.210359,36.115459 L -76.218915,36.118147 L -76.227472,36.12525 L -76.228528,36.130647 L -76.236028,36.137536 L -76.236433,36.146113 L -76.244585,36.155002 L -76.246011,36.158648 L -76.259559,36.165364 L -76.269066,36.172847 L -76.270016,36.178987 L -76.277147,36.180713 L -76.278811,36.188003 L -76.277147,36.19088 L -76.269779,36.190689 L -76.265976,36.187236 L -76.260504,36.188406 L -76.249101,36.184934 L -76.247878,36.175148 L -76.236979,36.171888 L -76.23175,36.167859 L -76.233118,36.1652 L -76.228184,36.158487 L -76.216539,36.15078 L -76.214882,36.145401 L -76.206874,36.137521 L -76.196591,36.132331 L -76.187542,36.125442 L -76.17946,36.125442 L -76.174944,36.123518 L -76.166626,36.123714 L -76.146423,36.13005 L -76.125752,36.131041 L -76.092556,36.135794 L -76.071673,36.140183 L -76.064225,36.143775 L -76.059271,36.149285 L -76.060621,36.154618 L -76.068939,36.16805 L -76.074644,36.182823 L -76.080107,36.19944 L -76.106968,36.211211 L -76.117188,36.213512 L -76.125986,36.232876 L -76.135127,36.241518 L -76.13671,36.250387 L -76.144281,36.258891 L -76.155839,36.263831 L -76.173908,36.263594 L -76.175938,36.268083 L -76.188604,36.279671 L -76.190408,36.286027 L -76.202582,36.286222 L -76.205893,36.292844 L -76.217878,36.296624 L -76.214784,36.300609 L -76.201797,36.299637 L -76.195471,36.296496 L -76.185402,36.301099 L -76.172831,36.302388 L -76.165231,36.297123 L -76.164382,36.292295 L -76.154424,36.289422 L -76.135975,36.288844 L -76.131018,36.290991 L -76.126548,36.285525 L -76.112404,36.275558 L -76.105679,36.27244 L -76.101578,36.2592 L -76.097684,36.255688 L -76.084151,36.248214 L -76.079581,36.23824 L -76.064842,36.23713 L -76.05396,36.234825 L -76.050014,36.231074 L -76.046598,36.220799 L -76.044168,36.219746 L -76.042319,36.211019 L -76.026157,36.202005 L -76.02439,36.195688 L -76.016985,36.186367 L -76.000714,36.180128 L -75.961652,36.171973 L -75.934642,36.165904 L -75.924635,36.16455 L -75.91338,36.16544 L -75.917189,36.172631 L -75.936431,36.177559 L -75.942572,36.181434 L -75.94408,36.187367 L -75.959952,36.198875 L -75.949837,36.215404 L -75.947873,36.224387 L -75.950968,36.235463 L -75.960659,36.251012 L -75.967077,36.254995 L -75.96891,36.264221 L -75.965252,36.266843 L -75.959478,36.264328 L -75.958606,36.259678 L -75.94704,36.258661 L -75.923292,36.245948 L -75.916726,36.237919 L -75.913315,36.223333 L -75.907168,36.218363 L -75.909787,36.21255 L -75.906572,36.20876 L -75.897763,36.209525 L -75.900131,36.203027 L -75.892675,36.198142 L -75.875026,36.184138 L -75.871714,36.173039 L -75.862871,36.159607 L -75.861549,36.150188 L -75.864042,36.146362 L -75.865732,36.136236 L -75.864327,36.130802 L -75.866739,36.127479 L -75.849318,36.104811 L -75.83404,36.093572 L -75.798168,36.0722 L -75.789827,36.079021 L -75.796446,36.092579 L -75.803016,36.098716 L -75.803224,36.106302 L -75.799433,36.117667 L -75.806766,36.119704 L -75.806768,36.123697 L -75.817551,36.140645 L -75.825575,36.146181 L -75.822803,36.154955 L -75.824711,36.162848 L -75.831052,36.163732 L -75.83486,36.17169 L -75.840263,36.177198 L -75.841021,36.188551 L -75.845173,36.191847 L -75.842861,36.199254 L -75.83644,36.198802 L -75.83681,36.203835 L -75.841177,36.216508 L -75.848799,36.215452 L -75.858303,36.221782 L -75.863859,36.229308 L -75.865351,36.236019 L -75.864297,36.245147 L -75.869288,36.246297 L -75.872325,36.25475 L -75.867898,36.260244 L -75.862368,36.262939 L -75.863313,36.27371 L -75.856833,36.277964 L -75.859652,36.283209 L -75.86476,36.284991 L -75.872618,36.282272 L -75.883381,36.284739 L -75.888212,36.293414 L -75.895286,36.319615 L -75.905653,36.334039 L -75.915332,36.352335 L -75.923332,36.361863 L -75.923512,36.367796 L -75.91695,36.383167 L -75.91641,36.38901 L -75.923004,36.399877 L -75.920841,36.408818 L -75.92391,36.418101 L -75.924514,36.42545 L -75.934105,36.427449 L -75.933518,36.423369 L -75.937693,36.420499 L -75.944342,36.41057 L -75.941009,36.40622 L -75.940661,36.398712 L -75.948242,36.395863 L -75.956279,36.400833 L -75.966024,36.427611 L -75.971966,36.437173 L -75.980051,36.435464 L -75.98987,36.436808 L -76.003913,36.441864 L -76.012338,36.447462 L -76.020217,36.45862 L -76.03195,36.482496 L -76.033763,36.490121 L -76.039229,36.500057 L -76.042557,36.510565 L -76.026395,36.516486 L -76.026157,36.523745 L -76.031861,36.53253 L -76.030673,36.538832 L -76.002627,36.537114 L -75.998824,36.53444 L -75.996209,36.528138 L -75.986227,36.525655 L -75.980998,36.511329 L -75.982424,36.50426 L -75.989099,36.49514 L -75.976892,36.487557 L -75.972546,36.494671 L -75.961146,36.494793 L -75.954615,36.491459 L -75.935474,36.490601 L -75.927334,36.482815 L -75.924128,36.482124 L -75.917284,36.485809 L -75.90728,36.485809 L -75.899909,36.482124 L -75.897869,36.465085 L -75.892403,36.461358 L -75.887412,36.448836 L -75.888326,36.441583 L -75.883056,36.437719 L -75.877072,36.436312 L -75.87113,36.438702 L -75.864951,36.437746 L -75.862812,36.430862 L -75.8558,36.42436 L -75.843322,36.419961 L -75.849739,36.400164 L -75.840707,36.39739 L -75.842252,36.384379 L -75.847719,36.378447 L -75.834052,36.371845 L -75.828942,36.365721 L -75.832151,36.356055 L -75.823832,36.347154 L -75.82205,36.328008 L -75.823119,36.32255 L -75.838691,36.331456 L -75.845936,36.332603 L -75.85176,36.324178 L -75.845285,36.305614 L -75.842118,36.300863 L -75.833696,36.293629 L -75.813137,36.291713 L -75.806838,36.284912 L -75.803867,36.267667 L -75.811116,36.254539 L -75.810879,36.249076 L -75.801966,36.242463 L -75.798529,36.2308 L -75.785566,36.216964 L -75.782119,36.220799 L -75.772375,36.217539 L -75.767264,36.204978 L -75.757757,36.178027 L -75.757349,36.166876 L -75.745873,36.144062 L -75.745279,36.131489 L -75.75134,36.126978 L -75.751934,36.122371 L -75.742665,36.092415 L -75.739721,36.07527 L -75.739458,36.066846 L -75.741407,36.056372 L -75.738268,36.050342 L -75.737089,36.040784 L -75.732213,36.040659 L -75.72674,36.045634 L -75.715213,36.048324 L -75.706418,36.039196 L -75.711053,36.0317 L -75.710578,36.025645 L -75.722937,36.024588 L -75.727334,36.021993 L -75.727085,36.01051 L -75.72983,36.007285 L -75.727572,36.00344 L -75.71141,36.003248 L -75.705705,35.998729 L -75.696911,35.99421 L -75.687306,35.996728 L -75.682294,35.995845 L -75.673488,35.988191 L -75.667974,35.979998 L -75.667071,35.971381 L -75.644539,35.964417 L -75.629802,35.946024 L -75.615399,35.926433 L -75.614781,35.911766 L -75.612214,35.905259 L -75.621288,35.900777 L -75.62291,35.892321 L -75.617586,35.889086 L -75.608939,35.878184 L -75.602184,35.874412 L -75.594483,35.853339 L -75.588879,35.844926 L -75.575374,35.833726 L -75.570477,35.82833 L -75.575992,35.823089 L -75.569337,35.81484 L -75.570477,35.808826 L -75.563087,35.806281 L -75.563062,35.799265 L -75.557453,35.796026 L -75.545809,35.7937 L -75.542056,35.788225 L -75.53633,35.792608 L -75.545456,35.805051 L -75.5523,35.822173 L -75.569795,35.863301 L -75.6038845449532,35.9236601957557 L -75.658538,36.02043 L -75.696743,36.077497 L -75.718311,36.113674 L -75.738432,36.154282 L -75.759638,36.204705 L -75.772511,36.22944 L -75.796411,36.290351 L -75.818736,36.357579 L -75.836319,36.422955 L -75.857705,36.500828 L -75.861765,36.517661 L -75.86764692320608,36.55041157241111 Z M -75.726807,35.935844 L -75.723782,35.925569 L -75.702165,35.915428 L -75.696871,35.909556 L -75.697672,35.901639 L -75.681415,35.88398 L -75.67283,35.882423 L -75.663356,35.869835 L -75.660598,35.862541 L -75.660086,35.83861 L -75.675054,35.830204 L -75.667891,35.82354 L -75.63898,35.818639 L -75.624235,35.809387 L -75.620454,35.809253 L -75.614361,35.815659 L -75.619772,35.847606 L -75.616833,35.856331 L -75.62767,35.883149 L -75.64512,35.905788 L -75.653478,35.904686 L -75.662019,35.906522 L -75.662938,35.916166 L -75.65954,35.919564 L -75.675245,35.929024 L -75.686358,35.932973 L -75.69115,35.936932 L -75.705323,35.939403 L -75.718266,35.939714 L -75.726807,35.935844 Z M -75.732476,35.200351 L -75.731647,35.196474 L -75.720432,35.198581 L -75.690131,35.209184 L -75.669577,35.215428 L -75.649178,35.222474 L -75.602238,35.232636 L -75.577655,35.235301 L -75.558145,35.234252 L -75.541839,35.230248 L -75.531297,35.226583 L -75.527818,35.227657 L -75.525109,35.24383 L -75.518806,35.257528 L -75.516774,35.271148 L -75.506015,35.325204 L -75.498755,35.353511 L -75.485798,35.400737 L -75.481287,35.463274 L -75.479237,35.483399 L -75.47342,35.509137 L -75.461934,35.557483 L -75.460621,35.576975 L -75.461887,35.592674 L -75.469738,35.635182 L -75.475197,35.661644 L -75.47995,35.679408 L -75.485892,35.698519 L -75.492785,35.717625 L -75.504669,35.744251 L -75.5105,35.755354 L -75.51901,35.769087 L -75.523446,35.773568 L -75.528912,35.771447 L -75.521416,35.754001 L -75.516916,35.75237 L -75.51956,35.744317 L -75.517504,35.735956 L -75.510588,35.732576 L -75.510355,35.727198 L -75.513113,35.723233 L -75.507521,35.706818 L -75.499202,35.69794 L -75.498965,35.689253 L -75.495637,35.67767 L -75.495875,35.673036 L -75.492072,35.666857 L -75.491121,35.661304 L -75.485377,35.655462 L -75.484309,35.645139 L -75.480901,35.637695 L -75.47591,35.630933 L -75.471394,35.62166 L -75.472582,35.615671 L -75.470918,35.609874 L -75.471674,35.594265 L -75.468848,35.587685 L -75.468709,35.573991 L -75.473771,35.555363 L -75.47282,35.552269 L -75.476147,35.539506 L -75.476147,35.534284 L -75.48304,35.529642 L -75.48613,35.522678 L -75.488031,35.511264 L -75.483753,35.494043 L -75.483278,35.484947 L -75.485655,35.477593 L -75.48613,35.458429 L -75.487794,35.445457 L -75.491597,35.433644 L -75.49231,35.414276 L -75.497063,35.398584 L -75.495162,35.38909 L -75.500866,35.372037 L -75.513701,35.356919 L -75.513701,35.346257 L -75.517028,35.336563 L -75.516553,35.32648 L -75.513938,35.32202 L -75.516791,35.310577 L -75.515127,35.300879 L -75.516791,35.292926 L -75.52297,35.276628 L -75.523921,35.269643 L -75.531051,35.272359 L -75.537944,35.272941 L -75.542222,35.270419 L -75.556958,35.266926 L -75.566941,35.265956 L -75.571219,35.263433 L -75.579776,35.263045 L -75.595463,35.269255 L -75.595463,35.261104 L -75.597602,35.257028 L -75.618755,35.246935 L -75.62137,35.242859 L -75.634204,35.232958 L -75.641335,35.228687 L -75.646088,35.228493 L -75.659161,35.221892 L -75.668193,35.218979 L -75.677224,35.219368 L -75.680552,35.226163 L -75.681027,35.233347 L -75.686256,35.231017 L -75.693624,35.221892 L -75.698853,35.218202 L -75.700635,35.211449 L -75.715896,35.203552 L -75.722614,35.201292 L -75.732476,35.200351 Z M -76.01528,35.070655 L -76.0091,35.065987 L -76.00292,35.067932 L -76.00197,35.07299 L -75.983906,35.086605 L -75.965129,35.099635 L -75.945877,35.110913 L -75.920208,35.124716 L -75.869107,35.147458 L -75.818956,35.167667 L -75.781252,35.181033 L -75.77361,35.187281 L -75.780452,35.188454 L -75.785681,35.182626 L -75.799704,35.178158 L -75.805408,35.178935 L -75.817292,35.172136 L -75.846765,35.163587 L -75.853657,35.158146 L -75.874098,35.15251 L -75.922109,35.131714 L -75.929477,35.130353 L -75.947303,35.119273 L -75.958236,35.115384 L -75.963941,35.118301 L -75.968932,35.11694 L -75.977489,35.120634 L -75.982242,35.120439 L -75.988422,35.116356 L -75.987946,35.107413 L -75.989848,35.104302 L -75.98557,35.098079 L -76.000068,35.080187 L -76.010764,35.075907 L -76.01528,35.070655 Z M -76.281512,35.317335 L -76.28072,35.31378 L -76.26943,35.309981 L -76.262399,35.31386 L -76.268341,35.324931 L -76.27349,35.328001 L -76.277848,35.32687 L -76.281512,35.317335 Z M -76.330138,34.847942 L -76.327096,34.845056 L -76.30019,34.866042 L -76.257693,34.896458 L -76.242577,34.907764 L -76.21415,34.932086 L -76.185629,34.955933 L -76.158248,34.976579 L -76.096451,35.023773 L -76.074109,35.039032 L -76.050627,35.049306 L -76.037507,35.057011 L -76.037792,35.061914 L -76.048535,35.069151 L -76.053954,35.071407 L -76.064792,35.073119 L -76.075916,35.069929 L -76.075726,35.066349 L -76.083426,35.059035 L -76.087039,35.052808 L -76.088846,35.045181 L -76.092553,35.043936 L -76.098733,35.03693 L -76.103677,35.03693 L -76.110617,35.03187 L -76.113754,35.022683 L -76.120695,35.018168 L -76.135906,35.010303 L -76.143892,35.003217 L -76.143987,35.000881 L -76.151783,34.994572 L -76.151783,34.986784 L -76.154825,34.984525 L -76.163287,34.984681 L -76.166424,34.980552 L -76.171558,34.980474 L -76.176502,34.97432 L -76.195897,34.958972 L -76.20084,34.950089 L -76.208826,34.944634 L -76.222992,34.931073 L -76.226985,34.925694 L -76.235351,34.920316 L -76.24676,34.910181 L -76.254081,34.906673 L -76.254746,34.90332 L -76.262542,34.899889 L -76.27376,34.889752 L -76.276232,34.885853 L -76.283363,34.882655 L -76.289162,34.88866 L -76.291824,34.885697 L -76.297433,34.872204 L -76.310363,34.861439 L -76.315877,34.858553 L -76.323578,34.848801 L -76.330138,34.847942 Z M -76.547567,34.710625 L -76.546854,34.703982 L -76.544002,34.701246 L -76.522849,34.699097 L -76.519521,34.707108 L -76.526414,34.709648 L -76.538298,34.711993 L -76.547567,34.710625 Z M -76.553628,34.623165 L -76.554769,34.619488 L -76.54878,34.608064 L -76.53547,34.591552 L -76.531001,34.603213 L -76.524536,34.615732 L -76.509705,34.638263 L -76.502955,34.650778 L -76.488124,34.671031 L -76.46388,34.700035 L -76.434503,34.734107 L -76.421859,34.747232 L -76.399327,34.773241 L -76.377935,34.79526 L -76.352836,34.820162 L -76.33734,34.836706 L -76.340382,34.836628 L -76.347798,34.829059 L -76.363675,34.823362 L -76.36396,34.817118 L -76.372421,34.810561 L -76.373467,34.807205 L -76.383259,34.794948 L -76.389344,34.791591 L -76.402559,34.791357 L -76.402844,34.783861 L -76.408073,34.783861 L -76.413968,34.779176 L -76.413587,34.765119 L -76.418531,34.762073 L -76.432317,34.765119 L -76.439732,34.75848 L -76.437736,34.753949 L -76.440778,34.747153 L -76.437831,34.742466 L -76.441729,34.739498 L -76.441539,34.733794 L -76.451426,34.725043 L -76.461599,34.722386 L -76.466162,34.715822 L -76.473958,34.711368 L -76.471962,34.706053 L -76.47643,34.700816 L -76.48337,34.696439 L -76.485747,34.691358 L -76.491451,34.685808 L -76.493828,34.67885 L -76.50305,34.672517 L -76.497726,34.666809 L -76.505997,34.656017 L -76.508374,34.648744 L -76.515029,34.637872 L -76.520733,34.63091 L -76.532237,34.61049 L -76.537086,34.612837 L -76.547449,34.613698 L -76.550586,34.616045 L -76.553628,34.623165 Z M -76.586309,34.713947 L -76.58726,34.711797 L -76.584645,34.701832 L -76.581556,34.699097 L -76.525701,34.685222 L -76.525939,34.691866 L -76.53806,34.69597 L -76.555411,34.696752 L -76.555411,34.699488 L -76.564205,34.702223 L -76.56064,34.710039 L -76.568721,34.71297 L -76.586309,34.713947 Z M -76.665486,34.689743 L -76.664957,34.688231 L -76.650411,34.679944 L -76.619893,34.673533 L -76.585668,34.663916 L -76.570551,34.658285 L -76.553153,34.649448 L -76.547354,34.645537 L -76.535565,34.631692 L -76.528719,34.633413 L -76.530241,34.643582 L -76.540223,34.648118 L -76.541459,34.650465 L -76.552202,34.652342 L -76.574924,34.663916 L -76.580248,34.66501 L -76.58928,34.67197 L -76.592037,34.669937 L -76.606013,34.673768 L -76.629306,34.683619 L -76.644327,34.686668 L -76.650697,34.689013 L -76.665486,34.689743 Z M -77.0985139877001,34.6468882984145 L -77.092978,34.644593 L -77.074851,34.650266 L -77.055769,34.655196 L -77.014274,34.664847 L -76.969322,34.6732 L -76.896079,34.684573 L -76.847394,34.690811 L -76.815161,34.69419 L -76.779452,34.696776 L -76.743203,34.697706 L -76.725047,34.697012 L -76.693574,34.693781 L -76.677697,34.693625 L -76.677792,34.699175 L -76.685683,34.699409 L -76.696902,34.711289 L -76.703652,34.707929 L -76.701275,34.701598 L -76.716011,34.704255 L -76.724663,34.703318 L -76.730557,34.700816 L -76.736737,34.710977 L -76.745578,34.712149 L -76.745769,34.703083 L -76.757462,34.702458 L -76.766684,34.699957 L -76.769632,34.702927 L -76.792639,34.704412 L -76.797678,34.703474 L -76.827625,34.703474 L -76.844263,34.695267 L -76.858904,34.693391 L -76.868887,34.694172 L -76.883623,34.689482 L -76.892084,34.691358 L -76.898074,34.690264 L -76.908056,34.685026 L -76.945705,34.679475 L -76.974987,34.676895 L -76.97898,34.67541 L -77.002368,34.67197 L -77.010259,34.671891 L -77.014632,34.676035 L -77.035167,34.671344 L -77.062928,34.664307 L -77.081562,34.658833 L -77.088313,34.656017 L -77.0985139877001,34.6468882984145 Z M -77.11118249900841,34.64557628046726 L -77.121207,34.647962 L -77.125391,34.644364 L -77.148113,34.636542 L -77.167222,34.628172 L -77.169219,34.622383 L -77.147067,34.630832 L -77.135468,34.634587 L -77.1187,34.638544 L -77.1106740076816,34.644791730557955 L -77.11118249900841,34.64557628046726 Z M -77.230255,34.598439 L -77.226927,34.596717 L -77.202969,34.609003 L -77.181198,34.617845 L -77.181388,34.620662 L -77.197645,34.613385 L -77.202399,34.612837 L -77.230255,34.598439 Z" fill="none" stroke=currentColor stroke-width="1" vector-effect="non-scaling-stroke"/>
</svg>