<?xml version="1.0"?>
<svg xmlns="http://www.w3.org/2000/svg" version="1.2" baseProfile="tiny" viewBox="-40.0 -40.0 880.0 408.0" stroke-linecap="round" stroke-linejoin="round">
<g id="state">
<path d="M 727.18 1.01 726.79 1.59 727.44 1.72 726.26 2.64 726.3 4.73 727.2 4.91 726.63 6.6 727.43 6.82 727.51 7.94 728.69 8.52 728.19 9.46 729.14 10.11 728.91 10.75 729.53 11.46 730.98 11.88 731.14 12.57 730.27 13.56 731.25 14.17 732.3 14.13 732.61 14.41 731.5 15.17 732.52 15.76 732.52 16.32 733.13 16.85 732.78 17.53 732.97 18.43 731.99 18.71 732.04 19.2 732.61 19.68 732.18 20.72 733.04 21.07 734.66 21.19 734.78 21.51 732.41 22.27 733.48 22.71 733.33 23.21 734.86 23.42 734.64 24.13 735.53 24.21 735.56 24.63 734.64 25.06 735.4 25.34 736.02 26.01 735.83 26.47 735.07 26.99 735.43 27.54 736.84 27.65 737 28.49 736.47 28.95 736.89 29.36 737.62 29.34 737.83 29.75 737.03 30.26 738.16 30.79 738.89 31.79 739.83 32.14 738.88 32.51 738.87 32.94 739.77 33.8 740.33 34.1 741.77 34.49 741.72 34.9 740.71 35.05 740.92 37.42 740.2 38.09 740.12 38.48 739.25 39.01 739.68 39.32 739.95 40.06 739.35 40.42 738.33 40.03 737.59 40.35 737.79 40.7 738.77 41.34 738.38 41.72 737.62 41.22 737.16 41.44 737.84 42.01 737.44 42.25 736.45 42.06 735.79 42.17 735.66 42.71 736.9 42.7 737.18 42.99 736.24 43.82 735.35 43.89 735.31 44.29 736.43 44.47 736.39 45.17 735.89 45.67 735.12 45.49 735.81 46.58 735.11 47.2 733.25 47.38 732.94 47.83 734.05 48.22 736.46 48.27 736.46 48.84 733.85 48.86 734.16 49.6 734.56 49.89 736.05 50.24 736.51 50.52 736.24 50.93 735.29 51.07 735.16 51.99 735.71 52.29 737.29 51.88 738.06 52.15 737.01 53 735.67 52.98 735.61 54.08 736.08 54.52 737.48 55.11 736.06 56.11 734.61 56.31 734.67 56.94 736.58 56.69 737.83 56.88 737.45 57.35 736.57 56.99 736 57.06 735.9 57.74 736.43 58.2 737.65 58.19 737.79 59.19 737.15 59.74 735.67 60.33 735.61 60.77 736.54 60.83 737.23 60.33 738.32 60.55 738.29 61.36 737.55 61.63 736.81 61.37 736.1 61.48 736.37 62 738.28 62.58 737.99 63.15 736.82 62.64 736.17 63.11 737.47 63.84 737.56 64.24 735.78 65.29 734.67 65.33 734.17 65.8 734.91 65.97 734.82 66.46 735.9 66.92 737.05 66.65 737.12 67.03 736.52 67.32 736.73 68.09 735.07 68.14 735 68.8 735.75 69.13 736.27 69.81 737.06 70.03 736.69 70.88 738.06 71.1 738.16 71.5 737.8 72.59 738.75 72.7 739.07 73.29 737.58 73.51 736.87 74.31 737.38 74.62 738.21 74.34 738.34 75.36 739.52 75.83 738.87 76.2 737.9 75.72 736.85 76.56 738.55 76.65 739.15 77.76 738.18 78.17 738.01 78.8 736.32 78.74 736.24 79.24 737.18 79.23 738.46 79.61 737.71 80.15 738.26 80.58 737.99 80.97 737.35 80.93 735.93 81.5 736.81 81.82 737.09 82.31 736.16 82.66 736.72 83.02 737.68 83.08 738.6 83.37 738.43 83.78 737.1 83.35 736.75 83.9 738.47 84.48 739.01 85.2 738.3 85.39 737.57 84.41 736.73 84.45 737.54 85.48 736.52 85.92 737.11 86.54 735.61 87.75 735.93 88.15 737 88.28 737.08 88.71 735.85 89.18 736.2 90.23 736.8 90.55 737.99 90.2 738.62 90.34 738.3 90.86 736.74 91.4 735.96 92.19 736.27 92.52 737 92.28 738.53 92.73 737.77 93.36 738.05 94.3 738.61 95.08 738.44 96.18 739.89 96.38 739.98 96.86 740.67 97.24 739.9 97.68 740.68 98.04 740.97 98.79 740.5 99.88 741.03 99.92 742.21 101.25 743.5 101.92 743.97 102.66 744.24 104.58 743.87 105.34 744.26 105.84 744.86 107.92 745.58 108.22 745.9 108.67 745.25 110.16 745.46 110.66 745.02 111.41 745.93 111.98 745.64 112.95 746.42 113.71 747.43 113.87 747.77 114.32 747.9 115.06 749.63 116.03 749.03 116.53 749.74 116.82 749.9 117.49 749.37 117.92 748.91 118.72 749.51 119.29 748.85 119.7 749.64 120.45 749.31 121.11 750.98 121.35 750.98 122.02 751.64 122.42 751.82 123.56 752.37 124.36 753.49 125.57 753.13 126.15 753.63 126.52 753.9 127.67 752.96 128.08 754.28 128.44 753.99 128.96 755.17 128.93 755.96 129.6 755.25 130.53 756.08 130.97 756.46 131.54 757 131.45 758.5 132.4 758.14 132.74 758.78 133.65 759.17 134.74 758.7 135.46 760.19 136.83 759.95 137.2 758.96 137.58 759.41 137.88 760.19 137.86 760.11 138.4 760.82 138.58 760.97 139.36 761.43 140.15 761.16 140.59 762.29 140.59 762.3 141 762.87 142.34 763.76 143.32 763.53 143.96 764.07 144.79 764.06 145.66 763.47 145.9 764.76 147.05 764.78 147.63 764.44 148.12 764.97 148.54 766.51 148.84 766.9 149.09 766.79 149.79 767.31 150.15 767.54 151.11 767.21 152.22 766.44 152.85 767.28 153.21 765.74 153.94 766.28 154.1 767.58 153.67 766.56 154.78 767.48 155.26 766.28 156.36 766.37 156.8 767.15 156.92 766.2 157.69 765.5 157.69 766.35 159.12 767.11 159.24 767.81 158.99 768.24 159.97 767.21 160.04 767.14 160.53 767.64 161 766.07 161.86 767.24 162.14 766.41 162.83 767.31 162.98 766.36 163.67 766.46 164.21 767.07 164.82 766.22 165.51 766.77 166.16 766.5 166.52 766.9 167.16 766.26 167.42 766.99 167.85 766.05 168.33 767.06 168.75 766.24 169.03 766.29 169.89 767.3 170.85 768.66 171.46 767.76 171.87 768.07 172.25 768.86 172.52 768.41 172.95 768.81 173.26 767.22 174.08 767.7 175.41 767.47 175.99 768.06 176.36 767.93 177.1 768.49 177.66 769.59 178.02 769.11 178.77 768.91 180.11 767.95 180.26 769.05 180.88 769.57 181.52 768.18 182.82 768.58 184.69 767.93 184.95 768.07 185.39 768.76 185.34 769.12 185.72 768.87 187.07 769.41 187.63 768.71 188 769.75 189.02 768.44 189.18 768.61 189.62 769.47 189.93 768.75 190.28 769.35 190.59 768.95 191.1 769.57 191.47 769.5 192.18 768.93 193.13 769.83 193.49 770.01 193.91 769.3 194.06 769.39 194.49 770.5 194.29 770.25 195.02 770.19 196.23 770.4 197.44 769.01 197.61 769.8 198.42 769.17 198.68 769.81 199.12 770.05 199.64 769.56 200.18 770.28 200.42 769.77 201.14 771.13 202.46 771.19 202.87 770.61 203.27 771.02 203.59 771.13 204.77 770.73 205.25 771.07 205.66 770.07 205.87 770.49 207.53 770.18 208.09 770.96 208.57 770.95 209.19 770.45 209.87 771.47 209.99 770.59 210.75 771.27 211.32 769.94 211.57 769.52 212.06 769.14 213.24 769.34 213.57 770.49 214.09 770.23 214.72 770.72 216.48 770.44 217.2 771.44 217.61 772.68 217.39 773.34 217.62 772.86 218.35 772.99 219.95 773.75 219.87 773.82 221.4 774.88 221.72 776.93 220.98 776.79 222.36 777.45 222.82 776.68 223.37 776.57 224.09 775.89 224.02 775.46 224.8 775.61 226.18 776.34 226.42 776.1 227.03 774.95 226.76 774.93 228 774.56 228.59 774.73 228.91 774.5 229.76 775.35 229.72 774.79 230.45 775.53 231.01 774.68 231.44 774.44 231.82 774.61 232.51 773.75 232.35 773.7 232.77 772.84 233.21 773.32 235.18 772.72 235.51 773.45 235.83 773.17 236.2 773.96 236.42 774.22 236.89 773.2 237.71 773.44 237.88 774.54 237.6 774.34 238.59 775.39 238.73 775.11 239.08 774.38 238.9 774.21 240.09 774.49 240.48 774.31 241.42 774.88 241.86 774.5 242.47 774.87 243.61 774.19 244.46 774.57 245.27 773.79 245.55 774.46 246.55 773.94 247.19 774.56 247.47 774.08 247.9 774.16 248.27 772.91 248.59 773.47 248.98 772.98 249.25 773.17 250.3 772.96 250.84 773.85 251.38 773.48 251.66 773.83 252.48 773.27 253.28 773.81 253.88 775.08 254.52 775.21 255.13 776.1 255.88 775.78 256.52 776.42 256.73 776.83 257.74 778.05 258.23 777.79 259.15 778.64 259.69 778.83 260.1 778.49 260.6 778.65 262.14 778.17 262.89 779.07 263.31 779.02 264.13 778.73 264.62 779.2 264.95 779.84 265.92 779.39 266.32 779.66 266.71 779.23 267.09 779.97 268 779.59 268.2 779.62 269.2 780.66 269.79 780.6 270.19 782.05 270.97 782.2 271.99 781.6 273 781.65 274.02 783.17 273.98 782.69 274.6 783.46 275 782.99 275.9 784.15 275.55 784.36 276.13 784.97 276.35 784.58 276.89 784.84 277.3 785.64 277.2 786.9 278.97 786.75 279.48 786.97 280.44 788.12 281.14 788.92 281.83 789.29 283.1 790.55 282.94 792.4 283.69 792.05 284.29 793.2 284.75 793.52 285.23 794.18 285.3 794.02 286.45 794.43 286.64 794.1 288.03 793.77 288.29 794.45 288.75 793.67 289.08 794.41 289.4 794.59 290.14 794.1 290.61 794.58 290.97 794.49 291.94 794.11 292.63 794.92 293.12 794.67 293.56 795.63 294.18 794.29 294.66 794.46 296.37 795 297.23 794.91 297.67 795.53 298.13 795.33 298.71 795.89 299.11 795.32 299.51 795.49 300.47 795.14 300.9 795.38 301.42 796.6 302.22 796.68 303.5 796.25 304.4 797.46 306.28 797.34 306.78 797.67 308.27 798.51 309.32 798.76 310.16 798.71 311.18 799 311.52 798.71 312.2 798.75 313.6 798.2 314.7 797.76 314.97 796.89 316.54 796.5 317.61 796.89 318.81 796.72 319.64 796.93 320.11 797.08 321.6 797.08 322.93 797.31 324.36 797.84 325.03 797.9 325.77 798.27 326.27 798.02 327.38 789.98 327.37 781.78 327.3 774.51 327.33 762.84 327.32 757.3 327.36 751.72 327.33 733.59 327.34 727.25 327.37 722.78 327.33 705.68 327.3 703.66 327.39 700.18 327.4 683.56 327.37 665.03 327.35 647.34 327.32 642.05 327.33 622.08 327.28 613.14 327.29 596.88 327.23 588.88 327.17 581.16 327.09 570.08 327.02 563.52 327 542.42 326.93 532.55 326.88 517.65 326.88 507.01 326.87 500.22 326.84 491.46 326.85 484.96 326.83 475.38 326.77 464.33 326.77 458.18 326.79 447.79 326.75 433.9 326.68 424.75 326.66 415.04 326.62 399.31 326.53 391.8 326.54 388.42 326.51 370.22 326.47 363.02 326.49 355.27 326.45 352.21 326.49 343.66 326.49 337.38 326.47 321.27 326.51 317.16 326.5 314.23 326.44 295.07 326.45 285.87 326.43 280.88 326.47 270.12 326.45 262.88 326.41 256.95 326.42 241.95 326.41 230.07 326.36 225.65 326.4 214.64 326.39 209.85 326.35 202.21 326.38 192.51 326.35 188.83 326.36 165.9 326.34 160.62 326.36 151.24 326.35 149.71 326.31 130.99 326.32 114.46 326.34 96.75 326.33 73.4 326.33 59.4 326.32 46.09 326.31 33.6 326.34 32.8 326.32 19.76 326.32 16.04 326.31 1.37 326.31 1.25 320.47 1.24 317.89 1.32 312.28 1.38 302.8 1.38 291.87 1.35 288.95 1.4 272.24 1.4 258.34 1.39 246.01 1.32 230.34 1.34 220.97 1.43 210.3 1.44 195.07 1.44 186.78 1.43 176.35 1.48 165.49 1.54 153.19 1.55 145.53 1.61 137.64 1.63 132.48 1.8 122.17 1.67 114.53 1.57 110.62 1.41 95.53 1.38 87.98 1.32 75.66 1.23 64.62 1.16 55.45 1.14 46.52 1.1 36.64 1.01 18.33 1 8.13 1.03 1.07 9.47 1.11 35.23 1.12 49.16 1.14 72.72 1.17 74.07 1.12 98.19 1.12 121.46 1.13 139.51 1.14 158.71 1.16 181.97 1.19 196.67 1.21 210.41 1.17 219.21 1.18 244.82 1.15 259.05 1.14 275.23 1.11 286.74 1.12 301.98 1.11 312.29 1.15 330.08 1.11 342.61 1.11 363.69 1.12 377.51 1.12 398.63 1.13 414.88 1.14 435.85 1.15 455.65 1.14 468.64 1.13 482.62 1.13 498.56 1.12 510.63 1.1 524.45 1.08 538.62 1.06 552.55 1.05 566.59 1.04 582.27 1.04 594.54 1.03 608.59 1.03 625.19 1.03 650.4 1.01 666.61 1 692.26 1 713.3 1.01 727.18 1.01 Z" fill="none" stroke="currentColor" stroke-width="1"/>
</g>
</svg>