<svg viewBox="-104.7984663 -49.749985300000006 8.993487600000009 4.564351600000009" xmlns="http://www.w3.org/2000/svg">
  <path d="M -97.228961,49.000454 L -97.359267,49.000475 L -97.556945,49.000528 L -97.797805,49.000518 L -97.950012,49.000458 L -98.186783,49.000252 L -98.34273,49.000247 L -98.474684,49.000205 L -98.58994,49.000172 L -98.737129,49.000122 L -98.869038,49.000077 L -98.999817,48.999959 L -99.1329712344596,48.9997635748587 L -99.2627565085245,48.9995465113805 L -99.376068,48.999357 L -99.5257739172443,48.9993091938886 L -99.6571181874895,48.9992672512659 L -99.77907,48.999174 L -99.9649833834884,48.9990835049601 L -100.16200794457,48.999216275964 L -100.314581002728,48.9993190919682 L -100.512954,48.999386 L -100.642745,48.999439 L -100.840757,48.99953 L -100.95835191495,48.9994711208843 L -101.125434,48.999078 L -101.22230258490615,48.9994937757556 L -101.365444842938,48.9994034523795 L -101.47348895374186,48.99945416896591 L -101.625438,48.999168 L -101.759093608917,48.9991163219659 L -101.999646,48.998881 L -102.08225294486536,48.99891930119073 L -102.211301,48.998554 L -102.349407653561,48.9987365312392 L -102.567848,48.998997 L -102.748201,48.999197 L -102.917718,48.999316 L -103.136229,48.999369 L -103.36272962344806,48.99935462231465 L -103.375467,48.998951 L -103.596658209334,48.9992339718504 L -103.727484731111,48.9994013393649 L -103.969479,48.999525 L -104.04869204127714,48.999876757820395 L -104.049009,48.933599 L -104.048889,48.837769 L -104.04804962226972,48.66581693115343 L -104.047721,48.573005 L -104.047475,48.489113 L -104.046875,48.402987 L -104.04602783819576,48.29931628083357 L -104.04546,48.18368 L -104.0451753021924,48.112762410548335 L -104.043671,47.971053 L -104.042704,47.934292 L -104.041453,47.862549 L -104.043118,47.765706 L -104.043284,47.717228 L -104.043864,47.643152 L -104.043948,47.571162 L -104.044463,47.455643 L -104.045002,47.353703 L -104.044836,47.255726 L -104.04485,47.177921 L -104.044996,47.03485 L -104.045773,46.934638 L -104.045974,46.846644 L -104.045335,46.699483 L -104.045218,46.583666 L -104.045247,46.453157 L -104.04572391100716,46.296218945426425 L -104.045463,46.268726 L -104.045487,46.166104 L -104.045958,46.077042 L -104.046787,46.024397 L -104.046676,46.000176 L -104.04554154702465,45.94530799066831 L -103.907762,45.945356 L -103.872818,45.945191 L -103.750347,45.945255 L -103.742794,45.945066 L -103.625499,45.945303 L -103.500553,45.945252 L -103.369029,45.945152 L -103.14972582092888,45.94512265573774 L -102.983434,45.945079 L -102.828182,45.945179 L -102.652345,45.945269 L -102.637962,45.944904 L -102.549895,45.944836 L -102.500314,45.945061 L -102.284982,45.94482 L -102.250397,45.944932 L -102.159334,45.944641 L -102.087523,45.944922 L -102.04256,45.944588 L -101.93921,45.944461 L -101.89761,45.944811 L -101.786099,45.944341 L -101.64524996299778,45.94426063801593 L -101.589531,45.944347 L -101.52153,45.944043 L -101.420443,45.943806 L -101.373605,45.944218 L -101.287152,45.944009 L -101.107237,45.944068 L -101.07975487162344,45.94355291329556 L -101.041137,45.943455 L -100.889876,45.943855 L -100.830862,45.943622 L -100.750596,45.943662 L -100.721831,45.944021 L -100.649018,45.943649 L -100.581449,45.943785 L -100.410523,45.943484 L -100.378754,45.943156 L -100.308163,45.943258 L -100.160465,45.942402 L -100.069258,45.942051 L -99.983356,45.941867 L -99.852939,45.941162 L -99.755276,45.940808 L -99.697516,45.941021 L -99.593742,45.940999 L -99.50380064072198,45.94047015024072 L -99.442795,45.94026 L -99.36053,45.940332 L -99.296714,45.940059 L -99.196801,45.939954 L -99.056849,45.939942 L -98.964154,45.939519 L -98.766039,45.938825 L -98.704361,45.938646 L -98.600282,45.937997 L -98.5278,45.937245 L -98.452688,45.936701 L -98.29995163717913,45.936134647948954 L -98.215975,45.93624 L -98.0285,45.935777 L -97.978778,45.935863 L -97.812633,45.935511 L -97.638584,45.935354 L -97.482542,45.935091 L -97.449798,45.935171 L -97.430883,45.935994 L -97.270226,45.935703 L -97.228291,45.935383 L -97.168705,45.935652 L -96.998477,45.935757 L -96.946066,45.935467 L -96.894076,45.935849 L -96.784448,45.935739 L -96.716165,45.93598 L -96.639135,45.935378 L -96.563672,45.935245 L -96.561334,45.945655 L -96.564803,45.950348 L -96.565334,45.957326 L -96.57035,45.963595 L -96.572491,45.97705 L -96.572483,45.989577 L -96.573835,46.003589 L -96.575869,46.007999 L -96.574216,46.01576 L -96.577875,46.027034 L -96.574223,46.03706 L -96.566051,46.051832 L -96.56198,46.054351 L -96.556807,46.064713 L -96.557202,46.077833 L -96.554436,46.084186 L -96.557185,46.087405 L -96.556735,46.096954 L -96.559037,46.104868 L -96.56692,46.11475 L -96.570016,46.128716 L -96.568875,46.133417 L -96.580273,46.151076 L -96.576265,46.159582 L -96.577011,46.171546 L -96.588387,46.179084 L -96.590727,46.183987 L -96.587386,46.187995 L -96.588988,46.196994 L -96.583677,46.200735 L -96.588942,46.204522 L -96.587056,46.209967 L -96.592889,46.214297 L -96.591987,46.21847 L -96.597103,46.226484 L -96.598646,46.242598 L -96.586053,46.247025 L -96.595091,46.252907 L -96.592727,46.256984 L -96.600371,46.261645 L -96.59683,46.268142 L -96.595947,46.277185 L -96.600451,46.280634 L -96.595843,46.284969 L -96.597573,46.291937 L -96.604516,46.294987 L -96.59719,46.298088 L -96.603575,46.302386 L -96.60044,46.304823 L -96.597349,46.317853 L -96.60123,46.319638 L -96.59966,46.330481 L -96.605892,46.331083 L -96.608954,46.335639 L -96.619719,46.339956 L -96.616432,46.345575 L -96.633834,46.352656 L -96.645604,46.351086 L -96.649103,46.363062 L -96.656647,46.369542 L -96.667422,46.376117 L -96.669471,46.385159 L -96.668094,46.389942 L -96.679875,46.406525 L -96.68738,46.405569 L -96.689907,46.409494 L -96.686211,46.41457 L -96.691957,46.416568 L -96.693927,46.422081 L -96.70483,46.418728 L -96.70042,46.427249 L -96.707655,46.430963 L -96.703127,46.436774 L -96.717407,46.436416 L -96.717816,46.446033 L -96.71222,46.455446 L -96.713672,46.465012 L -96.727208,46.472419 L -96.726677,46.476157 L -96.736417,46.481635 L -96.736703,46.491063 L -96.733188,46.492934 L -96.740148,46.501499 L -96.736083,46.505031 L -96.738571,46.508744 L -96.734421,46.512452 L -96.740361,46.521599 L -96.744768,46.524711 L -96.74205,46.529291 L -96.741629,46.537004 L -96.750088,46.540901 L -96.745536,46.547998 L -96.747072,46.562418 L -96.74384,46.567162 L -96.745697,46.571027 L -96.753637,46.576046 L -96.751234,46.584709 L -96.762608,46.589324 L -96.766543,46.598831 L -96.772529,46.600718 L -96.76949,46.606756 L -96.777883,46.613822 L -96.779112,46.619542 L -96.790976,46.625565 L -96.796041,46.631209 L -96.790782,46.638669 L -96.794158,46.646447 L -96.790653,46.649066 L -96.79895,46.654112 L -96.796996,46.659223 L -96.798823,46.669018 L -96.794172,46.671575 L -96.79951,46.675245 L -96.787696,46.678223 L -96.788434,46.681691 L -96.783928,46.685729 L -96.789795,46.688422 L -96.784925,46.694372 L -96.791204,46.703747 L -96.783859,46.706442 L -96.787468,46.713998 L -96.7811,46.722048 L -96.784546,46.732705 L -96.780939,46.738421 L -96.786321,46.74256 L -96.784663,46.751424 L -96.787235,46.755095 L -96.785689,46.76623 L -96.778797,46.764533 L -96.776183,46.767802 L -96.786059,46.76913 L -96.784192,46.778407 L -96.794444,46.775834 L -96.796722,46.777464 L -96.78714,46.785146 L -96.789568,46.789562 L -96.796992,46.791572 L -96.794396,46.795091 L -96.801243,46.798093 L -96.795585,46.801194 L -96.80016,46.819664 L -96.792083,46.823816 L -96.791581,46.827733 L -96.783503,46.826224 L -96.785095,46.832774 L -96.782887,46.836283 L -96.774848,46.840331 L -96.781827,46.845641 L -96.776591,46.852482 L -96.784579,46.852052 L -96.782418,46.860059 L -96.783972,46.863034 L -96.780502,46.868635 L -96.780338,46.880291 L -96.769499,46.877732 L -96.76729,46.883472 L -96.774114,46.885744 L -96.775502,46.898694 L -96.77143418988327,46.90595686922327 L -96.765086,46.905377 L -96.764082,46.912138 L -96.75683,46.91728 L -96.76299,46.921562 L -96.761693,46.934558 L -96.780986,46.927571 L -96.790931,46.930618 L -96.791569,46.944948 L -96.79873527036708,46.944228837586756 L -96.79991,46.959228 L -96.795391,46.96614 L -96.80159,46.968287 L -96.81328,46.966152 L -96.822664,46.97002 L -96.820037,46.976818 L -96.824598,46.993309 L -96.82223,46.999261 L -96.832967,47.00417 L -96.834839,47.007254 L -96.831302,47.018315 L -96.827386,47.022901 L -96.8149,47.025247 L -96.821233,47.030638 L -96.812991,47.037772 L -96.822549,47.038865 L -96.817834,47.045285 L -96.817737,47.051118 L -96.825063,47.055564 L -96.822213,47.060847 L -96.826147,47.076497 L -96.816713,47.078455 L -96.819946,47.082242 L -96.816184,47.086808 L -96.81722,47.097857 L -96.82102,47.100894 L -96.815659,47.104662 L -96.816191,47.108481 L -96.828956,47.120906 L -96.824136,47.127615 L -96.830884,47.129931 L -96.82633,47.134941 L -96.828562,47.139836 L -96.834626,47.143958 L -96.828648,47.146419 L -96.836138,47.153986 L -96.823077,47.155598 L -96.824975,47.166998 L -96.824463,47.178338 L -96.822062,47.185175 L -96.832554,47.183374 L -96.833391,47.187394 L -96.826722,47.188759 L -96.828405,47.192731 L -96.836863,47.196095 L -96.831474,47.20503 L -96.830787,47.211719 L -96.836661,47.215172 L -96.832899,47.219984 L -96.838574,47.222868 L -96.831759,47.226175 L -96.839858,47.22909 L -96.841469,47.233208 L -96.829126,47.234723 L -96.838888,47.244298 L -96.832321,47.247748 L -96.837403,47.253051 L -96.835042,47.26567 L -96.838415,47.269231 L -96.844926,47.268775 L -96.846227,47.272916 L -96.840137,47.275362 L -96.843857,47.292939 L -96.830818,47.305181 L -96.835741,47.311108 L -96.846066,47.316991 L -96.837012,47.318386 L -96.835159,47.330923 L -96.830618,47.338014 L -96.84099,47.341378 L -96.846271,47.346675 L -96.845051,47.353631 L -96.85054,47.357091 L -96.848386,47.362536 L -96.852871,47.375009 L -96.837974,47.38273 L -96.841767,47.385654 L -96.837496,47.389633 L -96.844885,47.39223 L -96.847841,47.395745 L -96.839363,47.39966 L -96.852123,47.405309 L -96.861678,47.414394 L -96.86207,47.42246 L -96.85443,47.425059 L -96.863873,47.428972 L -96.855037,47.433536 L -96.861942,47.43757 L -96.855915,47.440041 L -96.859621,47.446042 L -96.857133,47.449371 L -96.862272,47.455504 L -96.854323,47.461987 L -96.860065,47.467707 L -96.860977,47.472768 L -96.852025,47.479228 L -96.860543,47.480656 L -96.852677,47.487121 L -96.86369,47.489791 L -96.848933,47.4979 L -96.85366,47.502247 L -96.853017,47.506897 L -96.843332,47.507554 L -96.847339,47.516725 L -96.853924,47.514414 L -96.86112,47.515556 L -96.869047,47.528906 L -96.862485,47.528966 L -96.853534,47.536213 L -96.860914,47.537321 L -96.86175,47.541398 L -96.850431,47.551779 L -96.859075,47.556241 L -96.849497,47.566722 L -96.861735,47.562616 L -96.866817,47.564138 L -96.852362,47.571031 L -96.860215,47.574408 L -96.853003,47.580333 L -96.849908,47.590754 L -96.852099,47.599717 L -96.856904,47.603099 L -96.855933,47.609714 L -96.859551,47.612028 L -96.874005,47.614891 L -96.878982,47.618812 L -96.87586,47.623449 L -96.875967,47.62887 L -96.888092,47.639648 L -96.882571,47.641883 L -96.882477,47.650053 L -96.887518,47.657935 L -96.885419,47.663884 L -96.893784,47.673074 L -96.899128,47.685665 L -96.899237,47.689579 L -96.909771,47.689496 L -96.907263,47.693635 L -96.91157,47.701062 L -96.912985,47.708406 L -96.919691,47.710095 L -96.918886,47.715143 L -96.926239,47.715018 L -96.930435,47.717847 L -96.921187,47.721334 L -96.918931,47.724808 L -96.932904,47.737734 L -96.928521,47.744489 L -96.932178,47.754742 L -96.938196,47.763229 L -96.934773,47.766457 L -96.948884,47.775341 L -96.95397,47.774503 L -96.957535,47.779882 L -96.965358,47.783985 L -96.958695,47.79272 L -96.966114,47.799005 L -96.977158,47.798753 L -96.974478,47.803639 L -96.986803,47.807064 L -96.978006,47.810899 L -96.980556,47.821642 L -96.985193,47.825189 L -96.981878,47.830641 L -96.992384,47.841939 L -96.997538,47.8495 L -96.999201,47.860201 L -97.005422717092,47.863909351756526 L -97.005447,47.87024 L -97.021065,47.872526 L -97.018014,47.878651 L -97.02540667491098,47.88574524197977 L -97.019228,47.889623 L -97.024855,47.894896 L -97.020523,47.902459 L -97.015544,47.906459 L -97.017038,47.912828 L -97.023732,47.915545 L -97.018107,47.920228 L -97.034353,47.929337 L -97.035573,47.936266 L -97.038796,47.940531 L -97.048222,47.942036 L -97.055597,47.949129 L -97.052826,47.958253 L -97.06136076597458,47.96356252470316 L -97.057234,47.970597 L -97.059255,47.975324 L -97.053089,47.98934 L -97.056161,47.993564 L -97.062881,47.996412 L -97.068519,48.015932 L -97.072184,48.020638 L -97.068713,48.027694 L -97.071288,48.045797 L -97.075641,48.052725 L -97.087829,48.05902 L -97.098829,48.071477 L -97.103867,48.071898 L -97.099431,48.082106 L -97.102165,48.089122 L -97.109521,48.092512 L -97.102249,48.096694 L -97.108691,48.100257 L -97.109535,48.104723 L -97.123202,48.10665 L -97.121586,48.116925 L -97.126862,48.124277 L -97.129453,48.133133 L -97.122382,48.139066 L -97.136768,48.143292 L -97.143569,48.140997 L -97.146531,48.144055 L -97.139176,48.151529 L -97.124481,48.15655 L -97.121467,48.161478 L -97.127392,48.162748 L -97.13856,48.159459 L -97.144242,48.162491 L -97.147511,48.172407 L -97.13601,48.17674 L -97.13668,48.180866 L -97.146768,48.182058 L -97.149755,48.185824 L -97.135672,48.197126 L -97.14124,48.202953 L -97.13165,48.20711 L -97.139296,48.216755 L -97.131363,48.217182 L -97.12452,48.207961 L -97.117838,48.209764 L -97.122884,48.216494 L -97.139055,48.221952 L -97.135791,48.227084 L -97.123317,48.223076 L -97.121675,48.226936 L -97.130333,48.229672 L -97.139311,48.230187 L -97.144645,48.233562 L -97.135835,48.236919 L -97.138533,48.241488 L -97.146744,48.244484 L -97.133434,48.249873 L -97.127441,48.249437 L -97.124873,48.253164 L -97.13003,48.257203 L -97.123056,48.262237 L -97.135059,48.265825 L -97.143864,48.265749 L -97.143096,48.27044 L -97.127208,48.269844 L -97.125651,48.275736 L -97.11657,48.279661 L -97.12216,48.290056 L -97.13809,48.290846 L -97.128296,48.298822 L -97.11919,48.294242 L -97.113086,48.297757 L -97.124158,48.302141 L -97.125355,48.311723 L -97.133166,48.309103 L -97.137926,48.311984 L -97.13125,48.319543 L -97.117319,48.321579 L -97.120301,48.327098 L -97.129206,48.328131 L -97.125852,48.338373 L -97.126745,48.34214 L -97.1396,48.344246 L -97.136203,48.352184 L -97.143534,48.35427 L -97.148482,48.360717 L -97.155481,48.363768 L -97.154806,48.36997 L -97.139286,48.3704 L -97.141242,48.377677 L -97.135569,48.380429 L -97.136247,48.383933 L -97.147027,48.381396 L -97.15721,48.385732 L -97.156366,48.39039 L -97.16329,48.391987 L -97.158648,48.396344 L -97.148155,48.396759 L -97.131479,48.406586 L -97.132282,48.410362 L -97.144505,48.417214 L -97.138396,48.421647 L -97.127446,48.416789 L -97.124664,48.422216 L -97.142597,48.42765 L -97.145183,48.432564 L -97.138475,48.433519 L -97.131546,48.431146 L -97.124645,48.433614 L -97.124347,48.441254 L -97.13453,48.443335 L -97.141087,48.438584 L -97.149811,48.439153 L -97.149236,48.443358 L -97.135315,48.448883 L -97.129331,48.454048 L -97.130632,48.46342 L -97.14208,48.463347 L -97.147049,48.46763 L -97.146133,48.474052 L -97.14073,48.474691 L -97.132477,48.471265 L -97.12892,48.475742 L -97.140628,48.477465 L -97.15858,48.475147 L -97.159205,48.481107 L -97.145593,48.482963 L -97.132239,48.492378 L -97.145338,48.497878 L -97.149774,48.501986 L -97.149195,48.512338 L -97.136619,48.512183 L -97.126758,48.520157 L -97.133975,48.52266 L -97.14884,48.518849 L -97.154034,48.521669 L -97.152765,48.530285 L -97.143854,48.531557 L -97.141358,48.535452 L -97.145608,48.5381 L -97.159651,48.541358 L -97.16341921931527,48.54406681879011 L -97.166271,48.551065 L -97.141799,48.551262 L -97.141751,48.556608 L -97.164405,48.557047 L -97.174884,48.560679 L -97.171971,48.56495 L -97.154465,48.566673 L -97.147943,48.572479 L -97.154333,48.582652 L -97.14717,48.580967 L -97.142405,48.585694 L -97.14206,48.592282 L -97.152637,48.593919 L -97.152172,48.597686 L -97.143822,48.598359 L -97.135056,48.606129 L -97.137706,48.608882 L -97.14926,48.60879 L -97.14805,48.613838 L -97.141926,48.614888 L -97.132587,48.613162 L -97.128788,48.61541 L -97.135229,48.620738 L -97.130939,48.622806 L -97.123737,48.618102 L -97.120142,48.62168 L -97.12926601361312,48.62766727902022 L -97.13115903935474,48.630995284025026 L -97.12424,48.633973 L -97.114684,48.630342 L -97.108972,48.633733 L -97.111508,48.640663 L -97.115581,48.643519 L -97.107438,48.648485 L -97.10664,48.652161 L -97.09991,48.658522 L -97.101861,48.680764 L -97.092414,48.682117 L -97.091896,48.685982 L -97.105442,48.689648 L -97.110694,48.692496 L -97.119195,48.700564 L -97.119081,48.704586 L -97.110189,48.708074 L -97.118977,48.711346 L -97.125827,48.720703 L -97.136403,48.725733 L -97.128887,48.73049 L -97.130927,48.734395 L -97.137713,48.734205 L -97.141723,48.738024 L -97.136744,48.742304 L -97.138248,48.750235 L -97.151464,48.751314 L -97.154823,48.756471 L -97.147737,48.761331 L -97.145945,48.765634 L -97.151733,48.771932 L -97.158927,48.774542 L -97.150272,48.778606 L -97.150559,48.782562 L -97.158924,48.783257 L -97.156858,48.789941 L -97.17123,48.791984 L -97.169824,48.796679 L -97.179831,48.800783 L -97.157548,48.807876 L -97.15866,48.810904 L -97.173876,48.812057 L -97.181958,48.815298 L -97.177965,48.825115 L -97.183312,48.829622 L -97.183816,48.834224 L -97.174524,48.836788 L -97.176385,48.845249 L -97.173052,48.851675 L -97.178834,48.856661 L -97.178779,48.8619 L -97.188412,48.867438 L -97.177979,48.874609 L -97.180855,48.877226 L -97.19071,48.876845 L -97.199891,48.88259 L -97.191721,48.891827 L -97.193266,48.898336 L -97.206882,48.902331 L -97.212654,48.908956 L -97.210534,48.914958 L -97.219476,48.92112 L -97.214755,48.929874 L -97.225837,48.935329 L -97.226624,48.945826 L -97.234128,48.947898 L -97.228731,48.96385 L -97.237243,48.965482 L -97.237617,48.985145 L -97.226526,48.993744 L -97.23257,48.995032 L -97.228961,49.000454 Z" fill="none" stroke=currentColor stroke-width="1" vector-effect="non-scaling-stroke"/>
</svg>