<?xml version="1.0"?>
<svg width="20" height="20" xmlns="http://www.w3.org/2000/svg" version="1.2" baseProfile="tiny" viewBox="-64.000 -225.000 928.000 928.000" stroke-linecap="round" stroke-linejoin="round">
<g id="state">
<path d="M 708.03 2.15 707.7 2.99 708.32 3.16 707.26 4.52 707.43 7.53 708.29 7.74 707.85 10.2 708.62 10.48 708.77 12.08 709.92 12.87 709.5 14.23 710.44 15.13 710.27 16.06 710.89 17.04 712.29 17.59 712.49 18.58 711.73 20.03 712.69 20.87 713.68 20.76 713.99 21.15 712.98 22.29 713.99 23.1 714.02 23.9 714.63 24.63 714.34 25.63 714.58 26.91 713.66 27.35 713.75 28.05 714.31 28.71 713.98 30.23 714.81 30.69 716.36 30.8 716.49 31.26 714.29 32.44 715.32 33.02 715.21 33.74 716.68 33.99 716.51 35.02 717.36 35.09 717.42 35.7 716.57 36.35 717.31 36.72 717.94 37.66 717.79 38.32 717.1 39.1 717.48 39.87 718.82 39.98 719.02 41.18 718.55 41.86 718.98 42.42 719.66 42.36 719.9 42.95 719.17 43.71 720.27 44.43 721.03 45.83 721.94 46.29 721.06 46.86 721.08 47.48 721.99 48.67 722.54 49.08 723.94 49.58 723.91 50.18 722.96 50.42 723.31 53.81 722.67 54.81 722.62 55.38 721.83 56.17 722.26 56.59 722.56 57.64 722.01 58.18 721.01 57.67 720.33 58.16 720.55 58.66 721.51 59.53 721.17 60.09 720.41 59.41 719.99 59.74 720.68 60.53 720.31 60.89 719.35 60.66 718.74 60.85 718.65 61.63 719.82 61.56 720.1 61.97 719.27 63.2 718.43 63.34 718.4 63.91 719.49 64.12 719.5 65.12 719.04 65.87 718.31 65.64 719.02 67.17 718.4 68.08 716.64 68.42 716.37 69.09 717.46 69.6 719.76 69.56 719.79 70.38 717.31 70.52 717.64 71.58 718.04 71.97 719.49 72.41 719.94 72.79 719.71 73.4 718.81 73.63 718.74 74.95 719.29 75.36 720.77 74.71 721.52 75.06 720.57 76.33 719.3 76.36 719.31 77.94 719.78 78.55 721.15 79.33 719.86 80.83 718.49 81.17 718.59 82.08 720.4 81.65 721.6 81.86 721.27 82.56 720.41 82.07 719.86 82.19 719.81 83.18 720.34 83.81 721.51 83.75 721.7 85.17 721.13 85.99 719.75 86.89 719.72 87.54 720.61 87.59 721.25 86.83 722.29 87.1 722.31 88.27 721.63 88.68 720.91 88.35 720.23 88.52 720.53 89.26 722.39 90.01 722.14 90.85 721 90.16 720.41 90.87 721.69 91.86 721.8 92.43 720.17 94.01 719.11 94.12 718.66 94.8 719.38 95.01 719.32 95.73 720.39 96.35 721.47 95.91 721.56 96.44 721 96.89 721.25 97.99 719.67 98.13 719.64 99.08 720.38 99.51 720.92 100.47 721.68 100.76 721.39 101.99 722.71 102.25 722.83 102.82 722.56 104.4 723.47 104.52 723.81 105.35 722.41 105.72 721.78 106.91 722.28 107.33 723.06 106.89 723.25 108.35 724.4 108.97 723.8 109.53 722.85 108.87 721.9 110.14 723.53 110.19 724.17 111.75 723.27 112.39 723.15 113.29 721.53 113.27 721.48 113.99 722.38 113.94 723.62 114.44 722.95 115.24 723.5 115.83 723.26 116.41 722.65 116.37 721.33 117.25 722.18 117.68 722.49 118.36 721.61 118.91 722.18 119.4 723.1 119.44 724 119.82 723.86 120.42 722.56 119.86 722.26 120.66 723.95 121.42 724.51 122.43 723.84 122.73 723.08 121.36 722.27 121.46 723.12 122.89 722.17 123.57 722.77 124.44 721.41 126.23 721.74 126.79 722.78 126.93 722.87 127.55 721.73 128.27 722.13 129.77 722.73 130.2 723.85 129.65 724.46 129.82 724.19 130.58 722.72 131.42 722.02 132.59 722.34 133.04 723.02 132.66 724.52 133.24 723.84 134.18 724.16 135.52 724.75 136.62 724.65 138.2 726.06 138.43 726.18 139.11 726.86 139.62 726.15 140.3 726.92 140.78 727.25 141.84 726.86 143.42 727.38 143.46 728.59 145.31 729.88 146.22 730.38 147.26 730.76 150.01 730.46 151.1 730.86 151.8 731.57 154.76 732.28 155.16 732.63 155.79 732.09 157.96 732.33 158.68 731.95 159.77 732.87 160.54 732.64 161.95 733.45 163 734.43 163.18 734.79 163.82 734.96 164.87 736.69 166.19 736.14 166.93 736.85 167.31 737.05 168.28 736.56 168.91 736.17 170.09 736.79 170.86 736.18 171.49 736.99 172.53 736.72 173.48 738.34 173.76 738.38 174.73 739.05 175.26 739.29 176.89 739.87 178.02 741.03 179.7 740.73 180.54 741.23 181.06 741.57 182.69 740.69 183.32 741.98 183.78 741.74 184.54 742.88 184.45 743.68 185.38 743.06 186.74 743.89 187.33 744.3 188.14 744.82 187.98 746.33 189.27 746 189.78 746.68 191.05 747.13 192.6 746.73 193.65 748.26 195.56 748.05 196.1 747.12 196.67 747.57 197.09 748.33 197.03 748.28 197.81 748.99 198.03 749.18 199.15 749.68 200.26 749.45 200.9 750.54 200.84 750.58 201.44 751.22 203.33 752.15 204.7 751.97 205.62 752.55 206.79 752.6 208.04 752.04 208.41 753.37 210 753.42 210.82 753.13 211.55 753.68 212.12 755.19 212.49 755.58 212.82 755.53 213.84 756.05 214.33 756.34 215.69 756.09 217.3 755.39 218.24 756.23 218.71 754.78 219.84 755.32 220.04 756.56 219.36 755.64 221 756.57 221.64 755.47 223.28 755.59 223.9 756.36 224.03 755.49 225.18 754.81 225.23 755.72 227.23 756.48 227.36 757.14 226.98 757.62 228.36 756.62 228.51 756.59 229.22 757.11 229.86 755.64 231.17 756.8 231.53 756.04 232.55 756.93 232.73 756.05 233.76 756.18 234.53 756.81 235.37 756.04 236.4 756.61 237.31 756.38 237.83 756.81 238.73 756.2 239.14 756.95 239.72 756.06 240.46 757.07 241.01 756.3 241.44 756.4 242.67 757.45 244.01 758.82 244.81 757.97 245.45 758.3 245.97 759.08 246.33 758.67 246.96 759.08 247.39 757.59 248.64 758.15 250.53 757.97 251.37 758.56 251.87 758.48 252.94 759.07 253.72 760.17 254.18 759.75 255.29 759.65 257.21 758.72 257.47 759.84 258.31 760.39 259.2 759.12 261.13 759.64 263.79 759.02 264.2 759.19 264.82 759.86 264.72 760.24 265.25 760.09 267.19 760.65 267.97 759.99 268.53 761.08 269.94 759.81 270.24 760 270.86 760.87 271.26 760.18 271.8 760.79 272.21 760.44 272.97 761.07 273.46 761.05 274.49 760.56 275.88 761.46 276.35 761.66 276.95 760.98 277.19 761.1 277.8 762.18 277.47 761.98 278.53 762 280.26 762.29 281.99 760.94 282.31 761.77 283.42 761.17 283.83 761.83 284.43 762.1 285.16 761.66 285.95 762.38 286.27 761.93 287.32 763.35 289.15 763.43 289.73 762.9 290.34 763.32 290.78 763.51 292.46 763.15 293.18 763.51 293.74 762.54 294.09 763.07 296.46 762.81 297.28 763.6 297.92 763.64 298.81 763.19 299.81 764.2 299.93 763.39 301.06 764.09 301.86 762.8 302.28 762.43 303 762.14 304.7 762.36 305.16 763.51 305.86 763.31 306.78 763.91 309.28 763.68 310.33 764.69 310.87 765.9 310.49 766.56 310.78 766.14 311.86 766.37 314.14 767.12 314 767.29 316.18 768.35 316.6 770.32 315.43 770.28 317.42 770.95 318.05 770.23 318.87 770.18 319.91 769.51 319.85 769.14 320.98 769.38 322.95 770.11 323.26 769.92 324.15 768.77 323.81 768.84 325.59 768.52 326.47 768.7 326.91 768.53 328.15 769.37 328.04 768.87 329.11 769.64 329.89 768.83 330.55 768.62 331.09 768.84 332.08 767.98 331.89 767.95 332.5 767.14 333.17 767.75 335.97 767.18 336.47 767.92 336.89 767.68 337.44 768.47 337.71 768.76 338.37 767.81 339.6 768.06 339.83 769.12 339.39 768.99 340.81 770.03 340.97 769.78 341.48 769.05 341.26 768.97 342.96 769.27 343.51 769.16 344.87 769.75 345.48 769.42 346.37 769.86 347.98 769.25 349.24 769.68 350.37 768.93 350.82 769.66 352.22 769.19 353.16 769.83 353.54 769.38 354.18 769.49 354.7 768.27 355.22 768.86 355.75 768.39 356.16 768.65 357.65 768.48 358.44 769.39 359.17 769.04 359.59 769.45 360.76 768.96 361.92 769.53 362.76 770.82 363.62 770.99 364.49 771.93 365.52 771.65 366.46 772.3 366.72 772.78 368.15 774.01 368.8 773.83 370.13 774.7 370.86 774.92 371.44 774.62 372.18 774.89 374.37 774.46 375.48 775.38 376.03 775.39 377.21 775.14 377.92 775.63 378.38 776.32 379.74 775.91 380.33 776.2 380.88 775.8 381.44 776.6 382.72 776.24 383.02 776.34 384.46 777.41 385.24 777.38 385.82 778.87 386.88 779.09 388.33 778.57 389.8 778.69 391.26 780.19 391.13 779.76 392.05 780.55 392.57 780.15 393.9 781.28 393.33 781.53 394.16 782.15 394.44 781.8 395.23 782.09 395.82 782.88 395.63 784.25 398.1 784.14 398.84 784.42 400.21 785.61 401.16 786.46 402.11 786.92 403.92 788.15 403.61 790.05 404.6 789.74 405.48 790.92 406.08 791.27 406.76 791.94 406.82 791.86 408.48 792.28 408.73 792.05 410.74 791.74 411.13 792.45 411.75 791.7 412.26 792.46 412.69 792.69 413.75 792.24 414.43 792.74 414.93 792.72 416.32 792.4 417.33 793.24 418 793.02 418.64 794.03 419.49 792.73 420.23 793.01 422.68 793.62 423.88 793.56 424.52 794.21 425.15 794.05 425.99 794.64 426.54 794.1 427.14 794.34 428.51 794.02 429.14 794.31 429.87 795.57 430.96 795.74 432.79 795.38 434.11 796.73 436.74 796.65 437.46 797.08 439.58 798 441.05 798.31 442.24 798.33 443.7 798.65 444.18 798.41 445.16 798.55 447.17 798.08 448.78 797.67 449.18 796.91 451.48 796.6 453.03 797.08 454.74 796.97 455.93 797.22 456.59 797.47 458.72 797.57 460.64 797.9 462.68 798.48 463.61 798.59 464.67 799 465.37 798.83 466.97 790.79 467.36 782.58 467.68 775.3 468.07 763.62 468.61 758.08 468.92 752.49 469.13 734.35 469.96 728 470.27 723.53 470.41 706.4 471.07 704.39 471.27 700.9 471.42 684.26 472.02 665.71 472.66 647.99 473.21 642.69 473.39 622.7 473.94 613.74 474.22 597.45 474.58 589.44 474.7 581.7 474.78 570.6 474.95 564.02 475.07 542.89 475.42 533 475.54 518.08 475.81 507.42 475.97 500.61 476.03 491.84 476.16 485.33 476.22 475.73 476.26 464.66 476.38 458.5 476.47 448.08 476.51 434.17 476.51 425.01 476.54 415.28 476.53 399.52 476.45 391.99 476.49 388.6 476.44 370.37 476.39 363.16 476.4 355.4 476.33 352.33 476.37 343.77 476.35 337.47 476.28 321.34 476.25 317.22 476.2 314.29 476.1 295.1 475.94 285.87 475.8 280.88 475.81 270.1 475.64 262.84 475.49 256.9 475.42 241.88 475.17 229.99 474.89 225.55 474.86 214.53 474.63 209.73 474.48 202.07 474.36 192.36 474.1 188.68 474.03 165.71 473.43 160.43 473.33 151.04 473.06 149.5 472.96 130.76 472.43 114.2 471.93 96.48 471.33 73.1 470.49 59.08 469.94 45.76 469.4 33.26 468.92 32.46 468.86 19.4 468.31 15.68 468.12 1 467.46 1.27 459.07 1.42 455.37 1.88 447.34 2.56 433.74 3.28 418.06 3.45 413.86 4.61 389.9 5.53 369.97 6.33 352.28 7.3 329.81 7.94 316.37 8.72 301.08 9.75 279.23 10.29 267.35 10.97 252.39 11.74 236.83 12.61 219.19 13.12 208.2 13.7 196.89 14.06 189.49 14.91 174.71 15.29 163.75 15.45 158.14 16.29 136.49 16.76 125.66 17.51 108 18.16 92.17 18.7 79.01 19.27 66.2 19.89 52.02 21.02 25.76 21.68 11.12 22.18 1 30.14 1.42 54.46 2.49 67.61 3.06 89.84 3.97 91.12 3.95 113.9 4.76 135.87 5.49 152.91 6.03 171.05 6.57 193.02 7.17 206.91 7.51 219.89 7.74 228.2 7.91 252.39 8.31 265.84 8.51 281.13 8.67 291.99 8.81 306.39 8.94 316.14 9.09 332.95 9.15 344.78 9.2 364.7 9.28 377.76 9.3 397.71 9.29 413.06 9.25 432.88 9.16 451.59 8.99 463.85 8.85 477.07 8.69 492.13 8.48 503.52 8.28 516.58 8.02 529.97 7.74 543.13 7.46 556.39 7.16 571.2 6.8 582.79 6.5 596.06 6.13 611.74 5.67 635.55 4.89 650.85 4.36 675.06 3.47 694.93 2.69 708.03 2.15 Z" fill="none" stroke="currentColor" stroke-width="46.400"/>
</g>
</svg>