<?xml version="1.0"?>
<svg xmlns="http://www.w3.org/2000/svg" version="1.2" baseProfile="tiny" viewBox="-40.0 -40.0 880.0 356.0" stroke-linecap="round" stroke-linejoin="round">
<g id="state">
<path d="M 757.27 221.51 756.55 222.14 756.44 222.57 756.71 223.25 757.32 224.09 757.45 224.87 756.93 225.94 757.15 226.4 758.05 226.91 758.81 227.07 759.86 227.1 761.21 226.71 761.95 226.8 762.47 227.31 763.51 226.68 763.7 226.27 763.5 225.5 763.79 224.08 764.44 223.74 765.83 223.57 766.41 224.11 766.71 224.72 767.29 225.03 767.61 225.8 767.3 227.13 766.75 227.7 763.26 228.8 763.68 229.5 763.74 230.24 763.55 231.21 763.88 232.07 764.68 232.62 765.8 233.2 766.93 234.35 767.3 235.13 767.27 235.68 766.78 236.95 766.99 237.62 767.87 238.76 768.37 239.61 768.54 240.39 768.51 241.16 769.01 241.93 769.74 242.51 770.11 243.03 770.31 243.67 770.19 244.22 769.3 244.86 768.01 245.2 767.48 245.47 767.11 246.09 767.15 246.54 767.68 246.92 768.25 247.01 769.07 246.83 770.95 246.24 771.66 246.3 772.5 246.64 773.28 247.24 774.04 247.57 775.06 247.58 776.15 247.92 776.64 248.34 776.81 249.26 776.37 250.2 776.72 251.01 777.52 251.12 779.3 251.99 780.04 252.17 782.11 252.13 782.89 252.32 783.45 252.67 784.01 253.36 784.27 254.11 784.25 254.58 783.93 255.42 783.21 256.37 783.1 257.36 783.52 258.13 784.29 258.88 785.27 259.55 786.92 260.1 787.31 260.42 787.55 260.95 787.77 262.21 788.13 262.62 788.85 262.95 790.11 263.09 790.95 263.53 791.24 264.03 791.26 264.76 790.89 265.31 789.85 266.05 789.65 266.6 789.84 267.34 789.68 268.2 788.78 269.05 788.68 269.74 788.93 270.64 789.25 271.22 789.97 271.88 791.01 272.35 792.25 272.42 793.92 272.03 794.57 272.03 795.51 272.33 796.45 273.16 797.16 273.48 798.11 273.7 798.64 274.05 799 274.91 790.11 274.91 785.59 274.88 784.82 274.91 772.76 274.88 757.44 274.87 747.97 274.84 742.5 274.86 731.33 274.84 721.74 274.83 714.05 274.82 708.41 274.83 697.02 274.81 686.68 274.81 679.81 274.82 679.12 274.79 667.76 274.78 656.24 274.77 644.16 274.77 640.1 274.78 633.2 274.73 628.92 274.77 626.12 274.74 624.46 274.8 620.85 274.73 610.94 274.73 602.39 274.72 600.11 274.75 597.99 274.72 588.81 274.72 568.64 274.72 559.35 274.72 547.21 274.69 539.34 274.7 528.68 274.68 512.92 274.69 500.86 274.68 493.71 274.7 490.32 274.68 487.69 274.7 474.6 274.69 462.9 274.7 445.79 274.72 435.92 274.72 433.86 274.74 424.35 274.73 423.48 274.7 416.5 274.72 403.08 274.74 394 274.74 387.57 274.77 382.25 274.75 376.26 274.76 360.18 274.75 349.72 274.76 334.92 274.73 328.14 274.75 313.4 274.72 311.94 274.73 301.64 274.7 291.4 274.71 285.33 274.71 274.12 274.69 263.48 274.68 253.5 274.67 237.08 274.67 222.63 274.66 216.52 274.64 202.89 274.65 199.75 274.62 196.8 274.63 183.66 274.62 183.64 261.37 183.67 258.58 183.64 255.06 183.7 244.03 183.66 242.05 183.68 229.28 183.68 216.55 183.69 206.41 183.68 196.46 183.68 183.74 183.66 183.44 169.28 183.43 167.49 183.45 156.91 183.46 155.47 183.43 149.09 183.43 137.58 183.45 131.71 183.42 131.31 183.44 121.25 183.45 117.8 183.43 112.9 183.46 110.89 183.44 98.82 183.46 96.94 183.43 93.6 183.45 77.9 183.45 67.58 183.49 63.8 183.49 60.91 183.42 59.41 183.48 52.72 183.48 48.32 183.53 44.75 183.5 36.08 183.52 34.38 183.49 27.48 183.52 24.49 183.49 8.51 183.52 3.75 183.48 1.02 183.53 1.04 174.08 1 169.31 1.04 160.84 1.1 158.27 1.08 153.49 1.12 147.33 1.09 145.16 1.1 139.66 1.09 130.63 1.06 124.78 1.08 121.72 1.06 117.3 1.07 102.86 1.05 99.98 1.08 97.51 1.08 92.55 1.05 84.64 1.09 81.81 1.04 80.42 1.09 77.19 1.06 75.21 1.04 69.93 1.07 68.61 1.06 58.19 1.06 49.23 1.04 46.78 1.08 32.08 1.05 24.74 1.06 23.97 1.03 12.99 1.04 1.1 6.7 1 8.97 1 12.74 1.07 17.83 1.07 24.31 1.03 34.19 1.06 37.48 1.03 42.07 1.1 46.93 1.07 53.73 1.11 60.26 1.07 72.1 1.08 81.61 1.08 95.24 1.09 107.24 1.12 109.19 1.16 128.83 1.16 131.29 1.18 148.6 1.19 157.92 1.21 165.59 1.21 176.94 1.23 180.86 1.21 188.88 1.23 200.91 1.21 214.49 1.47 221.87 1.5 227.58 1.45 235.95 1.42 238.86 1.42 255.38 1.37 275.7 1.34 277.53 1.36 280.98 1.32 289.9 1.34 296.59 1.3 299.1 1.32 319.47 1.32 322.89 1.24 333.16 1.25 348.03 1.29 350.47 1.27 357.08 1.3 367.76 1.33 368.81 1.3 374.26 1.37 374.46 1.33 384.58 1.34 398.32 1.36 409.26 1.34 419.11 1.35 435.05 1.33 438.16 1.32 444.31 1.33 449.42 1.29 449.71 1.32 460.49 1.31 472.99 1.32 481.69 1.32 484.73 1.3 495.98 1.29 502.12 1.3 507.89 1.29 508.15 2.25 508.63 3.17 509.68 4.48 510.76 5.95 511.54 6.32 512.59 7.08 512.7 7.49 513.26 7.71 514.06 7.41 514.99 7.37 516.17 7.93 518.12 8.6 519.13 9.08 520.87 9.66 522.14 10.2 522.74 10.68 523.05 11.15 524.23 11.69 526.24 12.1 527.83 12.56 529.81 12.62 530.59 12.85 530.86 13.16 532.22 13.83 533.32 14.56 536.06 15.61 537.77 16.02 539.96 15.79 540.78 16.44 541.73 17.58 543.54 18.45 544.61 19.38 545.82 19.93 547.63 21.14 547.87 21.84 548.62 22.25 549.85 22.48 550.18 22.68 552.22 22.85 554.22 22.6 555.53 22.15 556.84 22.27 558.2 22.08 559.15 21.62 560.55 20.48 561.15 20.27 562.05 19.52 563.01 18.35 563.54 17.84 564.36 16.09 564.41 15.43 564.71 14.98 564.74 14.05 565.62 13.67 567.49 13.23 568.77 13.11 569.27 13.24 570.07 13.77 571.51 14.11 572.69 14.54 573.97 14.87 576.17 14.9 578.88 15.09 580.67 15.43 581.99 15.55 583.65 15.5 585.61 15.08 588.03 14.25 589.54 14.08 590.62 14.49 593.36 15.07 594.92 15 596.97 14.66 598.56 14.07 599.35 14.55 600.19 14.79 601.47 14.8 602.5 14.92 603.61 15.23 604.56 15.11 605.8 14.24 606.02 13.82 606.57 13.39 607.57 13.17 608.68 13.54 610.26 13.46 610.99 14.08 611.62 14.38 613.5 14.31 614.45 14.08 615.29 13.67 615.78 13.63 616.64 13.24 618.18 14.34 620.35 14.6 621.99 14.36 623.47 14.72 624.54 15.17 624.79 15.43 624.75 16.87 625.06 17.42 625.23 18.3 625.46 18.56 626.34 18.91 627.51 18.96 629.68 19.29 630.87 19.81 632.02 20.92 632.36 21.73 632.75 22 634.09 22.2 635.93 22.2 638.08 21.93 639.85 22.12 641.54 22.5 642.04 22.78 643.74 22.98 645.54 23.1 646.17 23 646.88 23.21 647.5 23.62 648.12 24.73 648.16 25.19 647.81 25.89 647.96 26.65 648.66 26.78 650.33 26.74 650.7 26.36 652.09 25.62 653.03 25.44 655.12 26.27 656.31 26.35 657.37 26.63 658.89 27.42 660.18 27.76 661.11 27.82 662.31 28.15 662.73 28.64 662.85 30.03 662.68 31.06 663.5 31.63 665 31.93 666.16 32 667.72 31.61 669.45 31.55 672.22 32.26 673.15 32.85 673 33.63 672.68 33.82 671.34 35.35 670.97 36.16 671 36.91 671.44 37.73 672.11 38.34 673.19 39.55 674.2 40.25 675.77 40.72 676.75 41.23 677.66 42.04 678.09 43.11 678.26 44.56 678.76 45.54 679.99 46.18 680.82 46.37 681.94 46.29 682.56 46.07 683.64 45.34 684.98 44.92 685.8 44.91 686.79 45.13 687.97 45.85 688.39 46.39 688.81 47.31 689.47 47.99 690.14 48.35 691.22 48.6 692.49 48.59 693.93 47.97 695.23 47.64 697.4 47.81 699.2 48.02 699.74 48.21 700.66 49.11 701.09 50.28 701.14 51.67 700.51 52.94 698.44 54.72 698 55.52 698.05 56.61 698.55 57.59 698.61 58.09 697.84 59.39 697.76 60.34 698.11 61.07 698.65 61.62 699.72 62.21 700.83 62.67 701.63 63.36 702.12 64.04 702.3 65.88 702.51 66.33 703.35 67.17 704.73 67.85 705.65 68.73 705.98 69.59 705.81 70.55 706.42 71.09 706.34 71.43 705.13 72.56 704.4 72.56 703.2 72.87 703.04 73.19 703.83 74.12 704.18 74.79 704.19 75.45 703.92 76.17 703.97 76.83 704.25 77.38 705.19 78.2 706.06 78.51 706.61 78.91 707.15 79.84 708.05 80.61 709.79 80.91 710.93 81.52 711.47 82.39 711.49 83.37 711.27 83.97 710.72 84.76 710.4 85.69 710.39 86.43 710.8 87.82 711.2 88.41 711.67 88.73 712.5 88.92 713.36 88.61 714.5 88.69 715.29 89.19 715.63 89.71 715.55 90.23 715.09 90.7 714.13 91.26 713.8 91.79 713.86 92.41 714.3 92.73 715.04 92.93 715.57 92.73 716.24 91.79 716.99 91.58 718.13 91.62 719.03 91.95 719.02 92.82 718.36 93.74 718.8 94.42 719.71 94.57 721.46 94.21 722.86 94.37 723.73 94.69 724.12 95.17 724.09 95.59 723.53 96.77 722.87 97.34 722.79 98.12 723.42 99.05 723.4 99.63 723.12 100 721.36 100.61 721.09 101.25 721.45 101.79 722.36 102.7 722.71 104.09 723.42 104.8 724.92 105.44 725.73 106.07 726.06 106.97 725.77 107.72 725.87 108.47 726.54 109.18 727.41 109.51 728.57 109.74 729.21 110.09 729.87 110.78 729.96 111.42 728.81 112.68 728.68 113.12 728.71 114.13 728.3 114.76 727.91 115.02 726.78 115.38 726.26 115.99 726.28 116.93 726.81 117.4 727.99 117.79 728.81 118.28 729.21 118.94 729.2 119.41 728.23 119.98 727.41 119.98 725.98 119.85 724.94 120.45 724.69 121.33 724.84 121.88 725.62 122.66 726.75 123.33 727.11 123.93 727.2 124.55 726.69 125.67 725.9 126.27 725.3 126.9 725.09 127.54 725.31 128.39 726.22 129.49 727.93 130.13 728.22 130.39 728.47 131.25 728.14 131.84 727.55 132.35 727.12 133.37 727.07 133.88 727.5 134.92 728.21 135.58 729.08 135.83 730.65 137.02 731.47 137.37 732.42 137.31 732.75 136.84 732.74 136.11 733.21 135.48 733.45 134.35 734.13 133.91 735.42 134.08 735.88 134.43 736.4 135.86 736.54 136.7 736.23 137.4 735.82 137.8 734.3 138.75 734.25 139.53 735.1 140.4 735.51 140.57 737.32 140.68 738.77 141.33 739.68 141.39 740.9 141.09 741.69 141.2 742.77 141.78 743.18 142.36 743.1 143.19 742.06 144.23 742.06 145.05 742.32 145.76 742.05 146.79 741.74 147.19 741.56 148 741.68 148.44 742.22 149.19 742.38 149.89 742.19 150.37 741.64 150.87 740.36 151.22 739.79 151.76 739.89 152.35 740.29 152.86 741.35 153.65 742.71 154.33 743.63 154.46 745.01 154.32 746.32 154.63 746.84 154.97 747.36 155.56 747.57 156.11 747.61 156.88 747.06 157.69 745.82 158.29 744.75 158.62 743.86 158.15 744.35 157.65 744.59 156.9 744.47 156.19 743.16 156.17 742.48 156.42 742.3 156.99 742.39 157.98 743.54 158.76 742.97 159.42 743.26 160.6 743.98 161.81 744.02 162.5 743.7 163.23 742.9 163.96 742.53 164.59 742.45 165.4 742.85 166.23 743.54 166.75 745.17 166.79 746.77 166.53 747.96 166.46 749.01 166.6 749.82 166.92 750.33 167.62 750.17 168.23 749.25 168.55 748.12 168.31 747.69 168.35 746.91 168.88 746.56 169.55 746.57 170.27 746.99 171.16 747.64 171.9 748 172.57 748.01 173.77 748.44 175.47 748.22 176.21 747.07 177.24 746.63 177.86 746.69 178.69 748.58 180.14 748.74 180.77 748.66 181.34 748.12 182.07 747.79 182.79 747.86 183.25 748.34 183.9 749.02 184.28 750.08 184.61 751.21 185.38 751.55 186.18 751.41 186.95 750.67 188.16 750.46 189.14 750.51 189.79 750.81 190.81 751.33 191.41 752.42 192.16 753.24 193.2 753.03 194.22 752.68 194.62 751.85 195.06 750.76 195.28 750.11 195.59 749.77 196.04 749.84 196.96 750.32 197.67 750.74 198.68 750.61 199.52 750.12 200.29 750.01 201.01 750.14 201.56 750.86 202.76 751.02 203.39 750.76 204.05 749.56 204.95 747.75 205.59 746.69 206.41 746.22 207.19 746.02 208.12 746.54 209.43 748.85 210.38 749.45 210.98 749.76 211.56 749.87 212.38 750.23 213.08 751.18 213.65 752.04 214.02 753.62 214.22 755.09 214.74 756.3 215.82 756.82 216.84 756.97 218.21 757.16 218.44 758.58 219.33 758.82 219.85 758.41 220.81 757.27 221.51 Z" fill="none" stroke="currentColor" stroke-width="1"/>
</g>
</svg>