<?xml version="1.0"?>
<svg width="200" height="200" xmlns="http://www.w3.org/2000/svg" version="1.2" baseProfile="tiny" viewBox="-64.000 -279.500 928.000 928.000" stroke-linecap="round" stroke-linejoin="round">
<g id="state">
<path vector-effect="non-scaling-stroke" d="M 753.59 288.64 752.91 289.51 752.83 290.07 753.14 290.94 753.81 292.01 753.99 293.04 753.54 294.45 753.78 295.05 754.71 295.67 755.49 295.84 756.53 295.83 757.85 295.26 758.6 295.33 759.16 295.98 760.15 295.1 760.31 294.56 760.06 293.56 760.26 291.69 760.89 291.21 762.26 290.91 762.87 291.59 763.22 292.38 763.81 292.75 764.19 293.75 763.96 295.5 763.45 296.27 760.04 297.88 760.5 298.78 760.61 299.75 760.49 301.02 760.87 302.14 761.71 302.82 762.86 303.51 764.07 304.96 764.49 305.96 764.5 306.69 764.08 308.38 764.34 309.24 765.3 310.68 765.86 311.77 766.07 312.79 766.1 313.79 766.64 314.78 767.42 315.5 767.82 316.16 768.07 316.98 767.98 317.72 767.13 318.59 765.86 319.1 765.35 319.48 765.02 320.31 765.09 320.9 765.65 321.37 766.22 321.46 767.03 321.18 768.88 320.31 769.59 320.35 770.46 320.75 771.27 321.5 772.06 321.9 773.08 321.86 774.19 322.24 774.72 322.77 774.95 323.96 774.57 325.22 774.97 326.26 775.78 326.36 777.63 327.41 778.38 327.6 780.45 327.45 781.25 327.66 781.83 328.08 782.44 328.96 782.75 329.92 782.77 330.54 782.5 331.66 781.85 332.94 781.8 334.23 782.28 335.22 783.1 336.17 784.13 336.99 785.82 337.61 786.24 338.02 786.51 338.7 786.82 340.33 787.21 340.85 787.96 341.24 789.23 341.36 790.1 341.89 790.43 342.53 790.51 343.48 790.17 344.22 789.18 345.25 789.02 345.97 789.25 346.93 789.16 348.06 788.31 349.23 788.26 350.13 788.58 351.3 788.94 352.05 789.7 352.87 790.78 353.42 792.04 353.44 793.69 352.85 794.34 352.81 795.3 353.15 796.31 354.19 797.04 354.57 798.02 354.81 798.58 355.23 799 356.33 790.05 356.82 785.5 357.02 784.73 357.1 772.6 357.69 757.18 358.44 747.65 358.87 742.14 359.16 730.91 359.65 721.25 360.08 713.52 360.41 707.84 360.66 696.36 361.12 685.96 361.54 679.05 361.83 678.34 361.81 666.91 362.24 655.32 362.66 643.15 363.09 639.06 363.25 632.11 363.41 627.81 363.61 624.98 363.65 623.32 363.79 619.67 363.81 609.7 364.12 601.09 364.37 598.79 364.48 596.65 364.5 587.41 364.76 567.09 365.29 557.74 365.52 545.52 365.77 537.59 365.96 526.85 366.15 510.98 366.46 498.83 366.66 491.62 366.8 488.21 366.82 485.56 366.9 472.37 367.06 460.59 367.23 443.35 367.44 433.41 367.52 431.34 367.57 421.75 367.62 420.87 367.59 413.84 367.66 400.33 367.75 391.18 367.78 384.69 367.84 379.34 367.83 373.3 367.85 357.1 367.83 346.57 367.81 331.65 367.73 324.83 367.71 309.97 367.58 308.51 367.59 298.13 367.45 287.81 367.37 281.7 367.31 270.41 367.16 259.69 367 249.63 366.85 233.09 366.58 218.54 366.31 212.38 366.17 198.65 365.9 195.49 365.79 192.52 365.74 179.29 365.43 179.68 348.07 179.79 344.42 179.88 339.81 180.28 325.36 180.29 322.77 180.71 306.05 181.11 289.38 181.44 276.1 181.74 263.06 182.13 246.41 182.12 246.02 167.85 245.66 166.08 245.63 155.59 245.37 154.16 245.3 147.82 245.12 136.41 244.82 130.59 244.6 130.19 244.62 120.21 244.32 116.79 244.19 111.93 244.07 109.94 243.98 97.97 243.6 96.11 243.49 92.79 243.4 77.22 242.84 66.99 242.51 63.24 242.36 60.37 242.16 58.89 242.18 52.25 241.91 47.89 241.8 44.35 241.61 35.75 241.29 34.06 241.17 27.22 240.92 24.26 240.75 8.42 240.07 3.7 239.81 1 239.74 1.6 227.37 1.85 221.13 2.41 210.06 2.62 206.69 2.89 200.44 3.31 192.38 3.42 189.54 3.77 182.34 4.31 170.53 4.64 162.87 4.84 158.87 5.1 153.09 5.99 134.2 6.15 130.42 6.33 127.19 6.64 120.69 7.1 110.35 7.31 106.64 7.35 104.82 7.59 100.59 7.68 98.01 7.99 91.1 8.1 89.37 8.73 75.73 9.28 64.01 9.41 60.8 10.35 41.56 10.77 31.95 10.83 30.94 11.48 16.57 12.22 1 17.67 1.12 19.84 1.22 23.46 1.48 28.36 1.7 34.59 1.93 44.07 2.38 47.24 2.46 51.65 2.74 56.32 2.89 62.86 3.22 69.13 3.42 80.51 3.87 89.66 4.21 102.76 4.69 114.3 5.12 116.17 5.24 135.06 5.84 137.42 5.94 154.07 6.44 163.03 6.72 170.4 6.9 181.32 7.21 185.09 7.28 192.8 7.48 204.37 7.72 217.43 8.33 224.53 8.5 230.02 8.54 238.08 8.64 240.88 8.69 256.77 8.87 276.31 9.1 278.08 9.14 281.39 9.14 289.97 9.25 296.41 9.26 298.83 9.31 318.42 9.47 321.71 9.38 331.6 9.45 345.9 9.55 348.25 9.53 354.61 9.59 364.88 9.63 365.89 9.6 371.13 9.69 371.33 9.64 381.06 9.64 394.28 9.63 404.81 9.56 414.28 9.52 429.61 9.39 432.61 9.34 438.52 9.31 443.44 9.21 443.72 9.25 454.09 9.12 466.12 8.99 474.49 8.88 477.41 8.81 488.23 8.63 494.14 8.55 499.69 8.44 499.96 9.69 500.44 10.89 501.48 12.59 502.56 14.5 503.32 14.97 504.34 15.94 504.46 16.48 505 16.76 505.77 16.35 506.66 16.28 507.81 17 509.71 17.84 510.69 18.46 512.38 19.18 513.62 19.87 514.2 20.48 514.52 21.09 515.67 21.78 517.62 22.28 519.16 22.85 521.08 22.89 521.83 23.18 522.1 23.58 523.43 24.42 524.51 25.36 527.18 26.68 528.84 27.19 530.94 26.84 531.75 27.67 532.7 29.16 534.47 30.25 535.53 31.45 536.71 32.15 538.5 33.69 538.75 34.6 539.48 35.11 540.68 35.4 541 35.65 542.98 35.82 544.9 35.46 546.15 34.84 547.42 34.96 548.73 34.68 549.63 34.07 550.94 32.53 551.52 32.25 552.36 31.24 553.25 29.68 553.75 29 554.48 26.69 554.51 25.82 554.78 25.23 554.78 24.02 555.62 23.5 557.4 22.87 558.63 22.69 559.12 22.85 559.91 23.51 561.31 23.93 562.46 24.46 563.7 24.86 565.83 24.84 568.45 25.03 570.18 25.42 571.46 25.55 573.06 25.44 574.93 24.84 577.23 23.69 578.68 23.43 579.74 23.94 582.4 24.62 583.91 24.49 585.86 23.99 587.38 23.17 588.16 23.77 588.98 24.06 590.21 24.04 591.21 24.17 592.29 24.54 593.2 24.36 594.36 23.18 594.55 22.63 595.08 22.05 596.03 21.74 597.11 22.19 598.63 22.03 599.36 22.82 599.98 23.19 601.78 23.05 602.69 22.72 603.49 22.17 603.96 22.09 604.77 21.55 606.3 22.95 608.4 23.22 609.97 22.86 611.41 23.29 612.46 23.84 612.72 24.18 612.74 26.07 613.06 26.77 613.26 27.93 613.49 28.25 614.36 28.68 615.49 28.72 617.59 29.08 618.77 29.72 619.92 31.14 620.29 32.19 620.67 32.53 621.98 32.75 623.75 32.69 625.81 32.27 627.53 32.46 629.17 32.9 629.67 33.25 631.32 33.46 633.06 33.55 633.66 33.4 634.36 33.65 634.98 34.16 635.63 35.6 635.69 36.21 635.38 37.12 635.56 38.12 636.24 38.27 637.85 38.16 638.2 37.64 639.5 36.63 640.41 36.36 642.46 37.37 643.61 37.44 644.65 37.77 646.15 38.75 647.42 39.15 648.31 39.2 649.5 39.59 649.93 40.21 650.11 42.02 649.99 43.39 650.81 44.1 652.28 44.44 653.4 44.49 654.89 43.92 656.56 43.78 659.27 44.61 660.2 45.34 660.1 46.38 659.79 46.63 658.57 48.68 658.25 49.76 658.33 50.75 658.79 51.79 659.47 52.58 660.58 54.12 661.59 54.99 663.13 55.55 664.1 56.18 665.03 57.21 665.5 58.59 665.73 60.49 666.27 61.75 667.5 62.54 668.3 62.76 669.39 62.61 669.98 62.29 670.99 61.31 672.27 60.7 673.06 60.65 674.03 60.9 675.2 61.81 675.65 62.5 676.1 63.68 676.78 64.55 677.44 65 678.5 65.27 679.73 65.21 681.09 64.35 682.34 63.86 684.45 63.99 686.21 64.2 686.73 64.42 687.68 65.56 688.16 67.08 688.29 68.9 687.74 70.59 685.83 73 685.44 74.07 685.55 75.5 686.09 76.76 686.18 77.4 685.51 79.14 685.47 80.38 685.86 81.33 686.41 82.02 687.48 82.76 688.58 83.31 689.4 84.18 689.92 85.05 690.19 87.46 690.42 88.03 691.28 89.1 692.66 89.94 693.6 91.05 693.97 92.16 693.86 93.43 694.48 94.1 694.43 94.55 693.31 96.09 692.6 96.11 691.45 96.57 691.32 97 692.14 98.18 692.51 99.04 692.56 99.91 692.33 100.86 692.42 101.72 692.72 102.43 693.69 103.46 694.54 103.83 695.11 104.33 695.69 105.53 696.6 106.5 698.31 106.82 699.46 107.57 700.04 108.68 700.11 109.97 699.93 110.76 699.43 111.82 699.18 113.06 699.21 114.02 699.69 115.83 700.11 116.57 700.59 116.98 701.41 117.19 702.23 116.74 703.34 116.8 704.15 117.43 704.51 118.09 704.46 118.78 704.04 119.41 703.13 120.18 702.84 120.89 702.93 121.69 703.39 122.1 704.12 122.33 704.62 122.04 705.23 120.79 705.94 120.48 707.06 120.48 707.95 120.88 708 122.01 707.41 123.25 707.87 124.12 708.77 124.27 710.46 123.72 711.83 123.87 712.7 124.26 713.11 124.87 713.11 125.42 712.63 126.98 712.02 127.77 711.98 128.79 712.65 129.98 712.68 130.74 712.42 131.24 710.74 132.11 710.51 132.96 710.89 133.65 711.83 134.8 712.26 136.6 713 137.5 714.5 138.27 715.33 139.07 715.71 140.22 715.47 141.22 715.6 142.19 716.31 143.09 717.17 143.49 718.32 143.74 718.97 144.17 719.66 145.04 719.79 145.87 718.73 147.58 718.63 148.16 718.72 149.48 718.36 150.32 717.99 150.68 716.9 151.2 716.43 152.02 716.51 153.26 717.05 153.84 718.23 154.29 719.07 154.9 719.5 155.76 719.52 156.37 718.6 157.15 717.79 157.2 716.38 157.08 715.4 157.92 715.21 159.08 715.38 159.79 716.2 160.77 717.35 161.61 717.74 162.38 717.86 163.18 717.43 164.67 716.68 165.5 716.13 166.34 715.96 167.19 716.23 168.29 717.19 169.69 718.9 170.46 719.21 170.78 719.51 171.89 719.21 172.68 718.67 173.37 718.3 174.73 718.28 175.4 718.76 176.74 719.51 177.57 720.37 177.85 721.99 179.35 722.82 179.76 723.75 179.65 724.05 179.02 723.99 178.06 724.41 177.21 724.58 175.72 725.23 175.12 726.5 175.29 726.98 175.72 727.58 177.57 727.76 178.66 727.5 179.58 727.12 180.13 725.68 181.44 725.69 182.47 726.58 183.57 726.99 183.77 728.77 183.84 730.24 184.61 731.14 184.65 732.32 184.2 733.11 184.31 734.2 185.02 734.65 185.75 734.62 186.85 733.65 188.26 733.71 189.33 734 190.25 733.8 191.61 733.52 192.15 733.39 193.21 733.55 193.79 734.12 194.75 734.32 195.64 734.16 196.28 733.65 196.97 732.41 197.48 731.89 198.21 732.02 198.99 732.45 199.63 733.53 200.62 734.92 201.45 735.84 201.58 737.19 201.32 738.5 201.67 739.04 202.09 739.59 202.83 739.83 203.55 739.92 204.55 739.42 205.63 738.24 206.48 737.2 206.96 736.29 206.39 736.75 205.72 736.93 204.71 736.77 203.79 735.48 203.83 734.83 204.19 734.68 204.94 734.83 206.24 736.02 207.2 735.49 208.09 735.85 209.62 736.63 211.17 736.72 212.07 736.45 213.04 735.71 214.04 735.37 214.87 735.35 215.94 735.79 217.01 736.5 217.65 738.13 217.64 739.69 217.22 740.86 217.07 741.9 217.2 742.73 217.59 743.27 218.48 743.15 219.27 742.27 219.74 741.13 219.49 740.71 219.55 739.97 220.28 739.67 221.18 739.72 222.12 740.19 223.26 740.88 224.21 741.28 225.06 741.37 226.63 741.89 228.84 741.73 229.81 740.65 231.21 740.25 232.04 740.36 233.13 742.33 234.94 742.52 235.76 742.49 236.5 741.99 237.48 741.71 238.45 741.81 239.05 742.32 239.87 743.02 240.33 744.1 240.72 745.26 241.66 745.65 242.69 745.56 243.72 744.9 245.33 744.75 246.62 744.84 247.47 745.21 248.79 745.76 249.55 746.9 250.48 747.77 251.8 747.63 253.14 747.3 253.69 746.51 254.3 745.44 254.64 744.82 255.07 744.51 255.68 744.63 256.89 745.15 257.79 745.63 259.09 745.56 260.19 745.13 261.23 745.05 262.17 745.22 262.89 746.02 264.42 746.21 265.23 746 266.12 744.85 267.35 743.09 268.27 742.1 269.4 741.68 270.44 741.53 271.67 742.13 273.35 744.49 274.49 745.12 275.25 745.47 275.99 745.63 277.06 746.03 277.96 747.01 278.65 747.9 279.1 749.48 279.28 750.98 279.89 752.26 281.25 752.84 282.55 753.08 284.35 753.28 284.64 754.75 285.73 755.03 286.4 754.68 287.67 753.59 288.64 Z" fill="none" stroke="currentColor" stroke-width="1"/>
</g>
</svg>