<svg viewBox="-104.92803640000001 -43.876229388313526 10.494268800000015 4.75077678831353" xmlns="http://www.w3.org/2000/svg">
  <path d="M -95.765645,40.585208 L -95.753148,40.59284 L -95.748626,40.603355 L -95.751271,40.609057 L -95.766823,40.61878 L -95.768926,40.621264 L -95.770559,40.63635 L -95.776251,40.647463 L -95.789485,40.659388 L -95.805641,40.665061 L -95.822913,40.66724 L -95.832397,40.671309 L -95.842801,40.677496 L -95.846712,40.685171 L -95.847931,40.694197 L -95.851336,40.700523 L -95.857901,40.70713 L -95.883178,40.717579 L -95.888907,40.731855 L -95.88669,40.742101 L -95.881529,40.750611 L -95.869982,40.759645 L -95.850144,40.766663 L -95.836903,40.776477 L -95.8341289013687,40.7837830997166 L -95.835815,40.79063 L -95.843745,40.803783 L -95.84522,40.809831 L -95.843921,40.817686 L -95.838601,40.826175 L -95.837186,40.835347 L -95.84177842263888,40.84638408867559 L -95.847084,40.854174 L -95.847785,40.864328 L -95.844073,40.869248 L -95.836996,40.872644 L -95.824989,40.875 L -95.815933,40.879846 L -95.812083,40.884239 L -95.809775,40.895447 L -95.818709,40.906818 L -95.830699,40.915004 L -95.836438,40.921642 L -95.839743,40.93278 L -95.840275,40.939942 L -95.837951,40.950618 L -95.829829,40.963857 L -95.828329,40.972378 L -95.832055,40.98114 L -95.844351,40.989524 L -95.856071,40.993206 L -95.863492,40.99734 L -95.8687,41.004395 L -95.869502,41.009429 L -95.865886,41.017418 L -95.859918,41.025403 L -95.859102,41.031599 L -95.860862,41.038547 L -95.881588,41.054378 L -95.882225,41.063539 L -95.877441,41.070357 L -95.864782,41.081611 L -95.862427,41.089687 L -95.867072,41.108379 L -95.867228,41.121493 L -95.871168,41.128795 L -95.878302,41.136947 L -95.882883,41.146657 L -95.882944,41.154572 L -95.879171,41.161968 L -95.870574,41.167784 L -95.865929,41.168129 L -95.853451,41.165518 L -95.843443,41.169096 L -95.84170282417229,41.175676267991 L -95.847241,41.183351 L -95.856125,41.186949 L -95.867624,41.188416 L -95.880658,41.187663 L -95.898155,41.184775 L -95.916119,41.185279 L -95.923678,41.190984 L -95.927975,41.200069 L -95.927183,41.208971 L -95.923045,41.215824 L -95.914272,41.223858 L -95.910778,41.23189 L -95.911296,41.239442 L -95.919093,41.252698 L -95.922318,41.265617 L -95.916045,41.272802 L -95.928646,41.281332 L -95.929651,41.292262 L -95.927642,41.29844 L -95.920247,41.301191 L -95.905899,41.301038 L -95.904576,41.293255 L -95.907177,41.284938 L -95.912581,41.279527 L -95.90284,41.274374 L -95.891066,41.278019 L -95.877481,41.284583 L -95.871442,41.293408 L -95.871871,41.301813 L -95.874184,41.307924 L -95.879868,41.314381 L -95.885554,41.318097 L -95.899943,41.321481 L -95.915091,41.319918 L -95.925185,41.321355 L -95.940121,41.328843 L -95.951657,41.337502 L -95.956038,41.343063 L -95.95713,41.349593 L -95.950965,41.355479 L -95.936923,41.359247 L -95.930845,41.364806 L -95.928774,41.37008 L -95.930575,41.377676 L -95.936411,41.385876 L -95.937791,41.390752 L -95.935793,41.399632 L -95.932439,41.404 L -95.929478,41.415329 L -95.932255,41.423073 L -95.932311,41.432071 L -95.920857,41.443428 L -95.919989,41.452604 L -95.92451,41.458914 L -95.93634,41.465304 L -95.945007,41.466485 L -95.958372,41.463218 L -95.968334,41.46389 L -95.984279,41.470939 L -96.004047,41.472146 L -96.008519,41.474039 L -96.017836,41.483584 L -96.01738,41.492139 L -96.000649,41.50254 L -95.996194,41.50696 L -95.992777,41.514596 L -95.994308,41.523743 L -95.999966,41.53948 L -96.005112,41.54325 L -96.01915,41.54514 L -96.026657,41.540366 L -96.02931,41.527981 L -96.034441,41.521051 L -96.03429,41.513036 L -96.037882,41.507899 L -96.048311,41.507262 L -96.057331,41.511051 L -96.07457,41.524157 L -96.084031,41.526875 L -96.091908,41.534049 L -96.09658243630146,41.545432392294806 L -96.096018,41.551038 L -96.091259,41.562244 L -96.084859,41.567859 L -96.081188,41.574296 L -96.083963,41.583683 L -96.087186,41.58655 L -96.105829,41.593574 L -96.115811,41.605659 L -96.118277,41.614967 L -96.115995,41.622024 L -96.109437,41.62883 L -96.100709,41.635451 L -96.095131,41.647767 L -96.096116,41.654472 L -96.100055,41.661077 L -96.112454,41.668486 L -96.121048,41.677002 L -96.122604,41.68304 L -96.119861,41.692649 L -96.108559,41.699279 L -96.092888,41.697761 L -96.083822,41.69786 L -96.073225,41.704062 L -96.0731,41.709169 L -96.077498,41.716485 L -96.08647,41.72186 L -96.099441,41.726086 L -96.105194,41.731195 L -96.105471,41.741546 L -96.0997818440388,41.74818876244951 L -96.087361,41.752176 L -96.083114,41.755002 L -96.078635,41.761945 L -96.07893485597167,41.77301112749269 L -96.077546,41.777822 L -96.064897,41.791673 L -96.065881,41.798623 L -96.073117,41.806233 L -96.080161,41.810023 L -96.092851,41.812521 L -96.102332,41.816215 L -96.109746,41.823992 L -96.110797,41.832157 L -96.107617,41.8404 L -96.111252,41.850229 L -96.120152,41.857188 L -96.136525,41.864151 L -96.144359,41.871971 L -96.148186,41.887166 L -96.158198,41.897184 L -96.162067,41.903047 L -96.159098,41.910057 L -96.139863,41.91672 L -96.136743,41.920826 L -96.136613,41.927167 L -96.143493,41.937387 L -96.142597,41.945908 L -96.135393,41.952223 L -96.129186,41.965136 L -96.1289,41.969727 L -96.133203,41.974944 L -96.142715,41.978491 L -96.158049,41.980275 L -96.177204,41.976308 L -96.187219,41.977946 L -96.191971,41.985347 L -96.184784,41.99546 L -96.184711,42.004972 L -96.194556,42.008662 L -96.207051,42.009064 L -96.215225,42.006701 L -96.222641,41.996451 L -96.228349,41.994257 L -96.236488,41.996429 L -96.241372,41.999987 L -96.241972,42.006732 L -96.238382,42.012602 L -96.227867,42.018651 L -96.222823,42.023817 L -96.221901,42.029558 L -96.225656,42.035217 L -96.234356,42.040712 L -96.246832,42.041616 L -96.256203,42.038201 L -96.265332,42.040266 L -96.27052903379537,42.04383908308986 L -96.274908,42.050215 L -96.279379,42.065495 L -96.279201,42.073544 L -96.275798,42.083743 L -96.26977,42.092437 L -96.267303,42.099027 L -96.267486,42.10978 L -96.273411,42.11928 L -96.285952,42.125926 L -96.305012,42.129295 L -96.31482,42.137688 L -96.32074,42.147928 L -96.326855,42.152324 L -96.3363,42.155674 L -96.346688,42.164686 L -96.349688,42.170702 L -96.350268,42.177943 L -96.347278,42.185774 L -96.347374,42.193075 L -96.351203,42.200401 L -96.35987,42.210553 L -96.358146,42.214086 L -96.345033,42.217495 L -96.337025,42.217463 L -96.323723,42.229887 L -96.322868,42.233637 L -96.329529,42.239461 L -96.327706,42.249992 L -96.331312,42.259408 L -96.341387,42.269087 L -96.35647247931199,42.27655281067444 L -96.365751,42.285814 L -96.367977,42.290681 L -96.369969,42.310878 L -96.375307,42.318339 L -96.384169,42.325874 L -96.396269,42.330857 L -96.407998,42.337408 L -96.413895,42.343393 L -96.417786,42.351449 L -96.41685841002264,42.3617828070662 L -96.408436,42.376092 L -96.409153,42.381491 L -96.414606,42.392247 L -96.415186,42.404203 L -96.410307,42.412965 L -96.387608,42.432494 L -96.380705,42.446393 L -96.381305,42.461695 L -96.386013,42.474506 L -96.396124,42.484361 L -96.401962,42.48644 L -96.421678,42.488763 L -96.445483,42.49063 L -96.459753,42.486921 L -96.475578,42.480198 L -96.489494,42.480109 L -96.501319,42.482749 L -96.508587,42.486698 L -96.515837,42.494223 L -96.52040309618677,42.504228747914205 L -96.525088,42.510183 L -96.53799,42.518129 L -96.548789,42.520547 L -96.557776,42.52038 L -96.572509,42.515735 L -96.58435,42.507836 L -96.591118,42.505407 L -96.60347,42.50446 L -96.612469,42.506594 L -96.625961,42.513578 L -96.631492,42.524318 L -96.63333300136183,42.54024702547004 L -96.63803,42.551959 L -96.648063,42.560824 L -96.658752,42.566424 L -96.675949,42.571601 L -96.687005,42.579225 L -96.698865,42.592448 L -96.706232,42.599222 L -96.710998,42.608129 L -96.711402,42.616372 L -96.70729,42.625318 L -96.692596,42.642038 L -96.689079,42.644078 L -96.6874213865124,42.6526943520508 L -96.697639,42.659141 L -96.728027,42.66688 L -96.746948,42.666222 L -96.764061,42.661983 L -96.776782,42.662716 L -96.793235,42.666021 L -96.802177,42.672235 L -96.800315,42.683602 L -96.801616,42.698776 L -96.806213,42.704154 L -96.819452,42.707774 L -96.829554,42.708441 L -96.843797,42.71219 L -96.860436,42.720797 L -96.87205073214228,42.72390872010248 L -96.885063,42.724799 L -96.907922,42.733857 L -96.918282,42.731852 L -96.933454,42.723806 L -96.937589,42.719597 L -96.955862,42.719178 L -96.963531,42.720643 L -96.965186,42.728994 L -96.961291,42.736569 L -96.961752,42.741682 L -96.968566,42.753847 L -96.975339,42.758321 L -96.983181,42.760599 L -96.99007,42.759537 L -97.009782,42.760797 L -97.02839,42.763043 L -97.033925,42.766098 L -97.05244318281653,42.77022599239364 L -97.071849,42.772305 L -97.09535,42.769362 L -97.115508,42.769344 L -97.130257,42.771541 L -97.134461,42.774494 L -97.138216,42.783428 L -97.150763,42.795566 L -97.163857,42.801257 L -97.1876,42.804835 L -97.200431,42.805485 L -97.210126,42.809296 L -97.212659,42.812069 L -97.214476,42.821761 L -97.21783,42.827766 L -97.217411,42.843519 L -97.22017179934443,42.84645896324198 L -97.231929,42.851335 L -97.248116,42.855287 L -97.266105,42.852701 L -97.289859,42.855499 L -97.3067452409893,42.867587807222876 L -97.316173,42.863342 L -97.321529,42.862803 L -97.330749,42.858406 L -97.341181,42.855882 L -97.361784,42.855123 L -97.368643,42.858419 L -97.376695,42.865195 L -97.393964,42.86425 L -97.406155,42.868291 L -97.417066,42.865918 L -97.42319,42.861168 L -97.425543,42.856658 L -97.439114,42.84711 L -97.449565,42.845807 L -97.461666,42.849176 L -97.472989,42.85051 L -97.48701,42.850582 L -97.49623,42.853231 L -97.504847,42.858477 L -97.522371,42.851979 L -97.54474,42.848275 L -97.561928,42.847552 L -97.591916,42.853837 L -97.603762,42.858329 L -97.620323,42.856522 L -97.646806,42.847376 L -97.668319,42.842807 L -97.686477,42.842212 L -97.700964,42.843591 L -97.72056725148018,42.84729579447741 L -97.750242,42.84941 L -97.774381,42.84974 L -97.788414,42.853359 L -97.801331,42.858 L -97.817112,42.861777 L -97.825872,42.867536 L -97.831393,42.86896 L -97.845393,42.86772 L -97.86587,42.862814 L -97.875531,42.858656 L -97.875813,42.848526 L -97.87912,42.843602 L -97.879692,42.83634 L -97.888647,42.817177 L -97.894466,42.811606 L -97.905058,42.798797 L -97.91485,42.79052 L -97.92148,42.788275 L -97.936746,42.775683 L -97.947189,42.770709 L -97.962067,42.768637 L -97.97642,42.769912 L -97.990871,42.764999 L -98.012699,42.762301 L -98.035071,42.764114 L -98.038696,42.766274 L -98.052197,42.768884 L -98.060359,42.773334 L -98.062999,42.781001 L -98.082911,42.7942 L -98.096172,42.800269 L -98.107856,42.810473 L -98.127674,42.819956 L -98.138103,42.832543 L -98.147109,42.839631 L -98.171113,42.837114 L -98.189811,42.841643 L -98.219826,42.853157 L -98.231922,42.86114 L -98.24683,42.868397 L -98.24982,42.871843 L -98.258276,42.87439 L -98.280007,42.874996 L -98.297465,42.880059 L -98.319513,42.88454 L -98.332422,42.8905 L -98.335849,42.895657 L -98.342408,42.900847 L -98.356264,42.906788 L -98.375358,42.913132 L -98.386445,42.918407 L -98.407824,42.92575 L -98.42074,42.931924 L -98.430934,42.931504 L -98.439743,42.928195 L -98.445861,42.93062 L -98.447047,42.935117 L -98.458515,42.943374 L -98.467086,42.947407 L -98.478919,42.963539 L -98.490483,42.977948 L -98.495747,42.988032 L -98.49855,42.998559 L -98.561725,42.99838 L -98.629115,42.998532 L -98.752313,42.998408 L -98.785629,42.998147 L -98.880969,42.998182 L -99.01804451453057,42.998347731881246 L -99.136159,42.998155 L -99.139306,42.998499 L -99.19536,42.998086 L -99.26271,42.998234 L -99.296833,42.998048 L -99.471513,42.997917 L -99.57942161578207,42.99796919486086 L -99.699308,42.997801 L -99.849943,42.997999 L -99.96078,42.998085 L -99.962985,42.997661 L -100.022736,42.998376 L -100.034201,42.998145 L -100.15122,42.998421 L -100.223659,42.998734 L -100.250405,42.998542 L -100.413362,42.99895 L -100.525978,42.999042 L -100.563416,42.998153 L -100.786619,42.99816 L -100.814164,42.998426 L -100.88752,42.998015 L -100.985274,42.998156 L -101.022989,42.997757 L -101.043147,42.99796 L -101.265749,42.997661 L -101.446815,42.997087 L -101.478662,42.997154 L -101.570458,42.996802 L -101.633007,42.996255 L -101.713906,42.996533 L -101.862762,42.999374 L -101.994598,42.999229 L -102.082486,42.999355 L -102.125427,42.999196 L -102.2498,42.999447 L -102.333891,42.999395 L -102.435959,42.999607 L -102.625701,42.999773 L -102.652618,42.999985 L -102.867895,42.99998 L -102.889187,43.000438 L -103.020732,43.000707 L -103.170092,43.000817 L -103.274384,43.00083 L -103.40412092281707,43.00089327715337 L -103.475638,43.00048 L -103.550189,43.000984 L -103.603389,43.000617 L -103.653706,43.001421 L -103.689817,43.001003 L -103.798007,43.00133 L -103.869045,43.000928 L -103.924865,43.000918 L -103.96621704781764,43.00170698831352 L -103.990999,43.00169 L -104.053028,43.000585 L -104.053132,42.870265 L -104.052809,42.749966 L -104.052997,42.741531 L -104.052622,42.66109 L -104.053107,42.499964 L -104.052897,42.473118 L -104.052804,42.374963 L -104.0527685493985,42.260782596347156 L -104.053023,42.246289 L -104.052877,42.188442 L -104.052547,42.166801 L -104.053048,42.131346 L -104.052477,42.11611 L -104.05295999689498,42.0850556842864 L -104.052627,41.998468 L -104.052659,41.944052 L -104.052967,41.916972 L -104.052765,41.885379 L -104.052883,41.727158 L -104.052691,41.678754 L -104.052869,41.645191 L -104.052573,41.581099 L -104.052378,41.48215 L -104.05248717450533,41.42185917246203 L -104.052245,41.398065 L -104.052686,41.330562 L -104.052453,41.278197 L -104.053084,41.24998 L -104.053514,41.157257 L -104.053083,41.104985 L -104.053249,41.001406 L -104.023383,41.001887 L -103.971252,41.001533 L -103.796086,41.001765 L -103.76334,41.001468 L -103.687745,41.001781 L -103.669054,41.001442 L -103.57405038880437,41.001716005951266 L -103.534886,41.001421 L -103.486697,41.001914 L -103.413395,41.001912 L -103.396989,41.002558 L -103.365314,41.001846 L -103.323871,41.00182 L -103.210741,41.002247 L -103.038704,41.002251 L -103.002088,41.002486 L -102.981482,41.002112 L -102.849261,41.002321 L -102.827237,41.002143 L -102.773561,41.002419 L -102.735704,41.002213 L -102.625468,41.002354 L -102.621033,41.002597 L -102.556721,41.0022 L -102.43065,41.002447 L -102.360659,41.002428 L -102.344872,41.002189 L -102.228993,41.002274 L -102.209361,41.002442 L -102.051717,41.002359 L -102.051563,40.999127 L -102.05150373473529,40.8597253649637 L -102.05141,40.750643 L -102.051499,40.639483 L -102.051554,40.500023 L -102.051798,40.360069 L -102.051309,40.338381 L -102.051933,40.217428 L -102.051653,40.178873 L -102.051972,40.148349 L -102.051744,40.003078 L -101.907779,40.002975 L -101.875456,40.003166 L -101.841025,40.002784 L -101.691649,40.002893 L -101.624635,40.00269 L -101.466366,40.002583 L -101.286425,40.002554 L -101.176982,40.002463 L -101.060361,40.002359 L -100.937523,40.002144 L -100.871047,40.002157 L -100.75883,40.002302 L -100.645917,40.001889 L -100.62996366272976,40.002050634390386 L -100.468365,40.001724 L -100.39409913886847,40.00187964827659 L -100.231898,40.001604 L -100.11733685,40.001655 L -99.941105,40.001567 L -99.875399,40.001676 L -99.817173,40.001489 L -99.746629,40.00182 L -99.647121,40.001818 L -99.50006723784051,40.00201039612721 L -99.423611,40.00227 L -99.414065,40.00192 L -99.309801,40.001812 L -99.287219,40.002026 L -99.179134,40.002013 L -98.991593,40.002194 L -98.863378,40.002395 L -98.719927,40.002205 L -98.69108977802298,40.002502700572954 L -98.653945,40.002267 L -98.575553,40.00247 L -98.443388,40.002367 L -98.27065989665819,40.002484364642406 L -98.153874,40.002204 L -98.067605,40.002328 L -97.934623,40.002076 L -97.832834,40.002036 L -97.611744,40.002063 L -97.511182,40.001994 L -97.487946,40.001697 L -97.462901,40.002016 L -97.369199,40.001966 L -97.260661,40.001969 L -97.221013,40.001179 L -97.202866,40.00185 L -97.172135,40.001451 L -97.125311,40.001938 L -97.049663,40.001323 L -97.005217,40.001516 L -96.872749,40.001478 L -96.746544,40.001414 L -96.622081,40.0013 L -96.614463,40.000939 L -96.53922,40.001079 L -96.425922,40.001001 L -96.30103,40.000837 L -96.2392,40.000881 L -96.15497,40.000773 L -96.04983548177567,40.00072646218812 L -95.927493,40.000512 L -95.867546,40.000693 L -95.763794,40.000429 L -95.59588,40.000254 L -95.463741,39.999991 L -95.455283,40.000307 L -95.405734,39.999975 L -95.30829,39.999998 L -95.312211,40.009395 L -95.318015,40.013216 L -95.328501,40.015657 L -95.336242,40.019104 L -95.346573,40.028272 L -95.356876,40.031522 L -95.363983,40.031498 L -95.382232,40.027289 L -95.395858,40.028038 L -95.407261,40.033112 L -95.415106,40.040341 L -95.418608,40.046751 L -95.421355,40.056653 L -95.420281,40.064166 L -95.410426,40.073532 L -95.408715,40.082899 L -95.410751,40.091043 L -95.408552,40.096989 L -95.397146,40.105183 L -95.393062,40.111175 L -95.393347,40.119212 L -95.396549,40.124701 L -95.405734,40.129448 L -95.41955,40.131049 L -95.427409,40.134608 L -95.431351,40.139163 L -95.433822,40.152935 L -95.436348,40.15872 L -95.440694,40.162282 L -95.458754,40.168251 L -95.469466,40.175578 L -95.47792,40.183844 L -95.48254,40.192283 L -95.481317,40.203084 L -95.473469,40.213482 L -95.4699,40.2227 L -95.469718,40.227908 L -95.472548,40.236078 L -95.478694,40.243661 L -95.484817,40.247469 L -95.493405,40.24956 L -95.516107,40.249187 L -95.524172,40.251129 L -95.543737,40.260687 L -95.552473,40.261904 L -95.556275,40.270761 L -95.551488,40.281061 L -95.553292,40.291158 L -95.558732,40.295774 L -95.570693,40.299426 L -95.581787,40.29958 L -95.590165,40.303199 L -95.598657,40.309809 L -95.607921,40.313521 L -95.615653,40.314153 L -95.63631,40.307675 L -95.645329,40.305693 L -95.651507,40.306684 L -95.657328,40.310856 L -95.657764,40.315788 L -95.653729,40.322582 L -95.647931,40.325556 L -95.633807,40.329297 L -95.624015,40.336226 L -95.622684,40.342323 L -95.624882,40.349311 L -95.628924,40.355032 L -95.636991,40.36136 L -95.642414,40.369829 L -95.642124,40.378213 L -95.643935,40.386851 L -95.649418,40.396149 L -95.659081,40.40862 L -95.66144,40.415917 L -95.655964,40.429873 L -95.655706,40.435945 L -95.659734,40.444484 L -95.67214,40.457077 L -95.684363,40.463366 L -95.693133,40.469396 L -95.696756,40.478849 L -95.694707,40.489461 L -95.695401,40.497605 L -95.699969,40.505275 L -95.661681,40.517312 L -95.655674,40.523557 L -95.652269,40.538108 L -95.655848,40.546609 L -95.662107,40.549967 L -95.665495,40.556697 L -95.671776,40.562628 L -95.687021,40.560669 L -95.694147,40.556942 L -95.697377,40.541389 L -95.6951301521385,40.53294416209233 L -95.697202,40.528475 L -95.708591,40.521551 L -95.714291,40.527208 L -95.722444,40.528118 L -95.73725,40.52393 L -95.74868,40.524275 L -95.75711,40.52599 L -95.76692,40.531563 L -95.769281,40.536656 L -95.763624,40.548298 L -95.76503,40.556921 L -95.771776,40.566133 L -95.774704,40.573574 L -95.773549,40.578205 L -95.765645,40.585208 Z" fill="none" stroke=currentColor stroke-width="1" vector-effect="non-scaling-stroke"/>
</svg>