<?xml version="1.0"?>
<svg width="20" height="20" xmlns="http://www.w3.org/2000/svg" version="1.2" baseProfile="tiny" viewBox="-488.560 -122.560 1777.120 1777.120" stroke-linecap="round" stroke-linejoin="round">
<g id="state">
<path d="M 42.81 1512.35 38.88 1503.75 36.35 1500.65 35.64 1494.89 33.96 1490.92 32.12 1489.93 29.18 1485.35 25.54 1485.7 24.4 1488.54 20.22 1490.46 17.96 1487.37 21.38 1483.12 21.13 1480.71 18.16 1476.32 7.37 1465 7.04 1460.14 5.27 1454.03 5.16 1446.53 1 1438.18 2.2 1433.56 1.86 1424.87 3.06 1419.24 8.42 1416.66 12.32 1411.63 12.26 1406.41 15.47 1399.46 14.33 1393.97 14.71 1389.86 13.98 1384.2 11.29 1381.62 12.36 1378.35 18.29 1373.61 23.48 1372.88 29.59 1371.06 34.13 1367.44 37.85 1368.3 42.44 1362.94 41.26 1358.57 41.62 1355.91 43.93 1351.91 47.9 1352.25 50.46 1349.34 50.71 1346.49 44.45 1341.36 42.64 1337.11 43.4 1326.85 41.5 1324.91 40.72 1320.71 50.04 1311.06 54.54 1304.91 55.06 1301.56 51.5 1293.42 52.2 1290.2 55.63 1287.51 55.87 1281.58 51.95 1276.5 52.63 1272.21 47.38 1270.53 45.65 1266.41 47.86 1262.43 47.97 1250.31 51.09 1247.88 51.41 1245.22 48.78 1239.33 53.82 1234.37 54.09 1231.35 52.97 1224.39 55.99 1216.37 53.78 1208.28 54.85 1202.2 57.08 1200.17 61.4 1198.1 63.96 1193.97 66.91 1187.68 69.88 1176.07 73.06 1169.15 66.63 1158.29 71.54 1148.68 75.63 1143.77 74.35 1142.62 69.97 1142.71 64.99 1138.78 64.56 1132.56 65.55 1127.88 69.96 1122.87 71.63 1111.43 71.61 1109.07 73.23 1102.16 73.54 1095.74 75.49 1089.64 75.88 1086.1 75.02 1078.75 79.14 1073.95 80.54 1064.56 78.38 1058.95 73.52 1054.38 72.57 1051.89 74.72 1043.17 77.73 1041.53 80.25 1036.42 80.51 1029.65 79.6 1022.18 80.97 1020.04 80.82 1016.41 83.6 1013.01 90.95 1008.78 93.94 1008 100.94 1001.44 103.02 1000.39 103.01 996.58 101.05 994.88 100.25 991.43 101.51 986.23 103.6 982.64 103.73 979.32 109.31 975.95 109.23 969.06 114.07 960.91 114.46 954.54 112.97 952.05 113.39 945.11 115.98 938.49 117.82 937.19 123.87 928.17 126.24 926.32 128.04 922.59 130.42 922.68 138.47 917.64 143.3 915.99 151.19 903.74 156.19 901.06 156.77 896.11 156.11 893.07 160.11 889.38 162.16 884.18 164.59 881.82 165.61 878.15 163.36 870.68 166.1 864.08 165.86 857.89 163.8 851.73 166.04 845.67 172.12 843.83 170.02 837.43 171.33 833.58 176.11 832.48 176.47 829.73 180.05 824.12 186.04 820.19 187.69 817.72 191.98 815.01 193.63 812.01 194.24 805.77 193.27 799.95 194.28 797.76 198.14 797.07 201.85 792.03 200.97 789.66 204.81 786.35 198.8 784.6 195.33 784.69 196.12 781.28 196.41 774.7 194.56 770.02 200.08 764.92 199.26 760.83 200.65 758.34 203.82 757.95 204.21 753.28 207.98 754.63 209.59 750.42 212.36 748.06 210.47 742.79 211.86 740.65 216.09 738.34 214.82 735.01 216.34 732.9 219.85 732.89 223.71 725.86 222.29 721.92 225.73 720.66 227.67 722.14 230.46 719.73 225.38 716.7 229.22 714.84 230.7 712.73 231.22 709.23 228.02 706.41 225.94 710.11 223.94 710.48 221.9 707.62 220.8 702.07 221.77 697.14 225.17 694 228.56 693.81 229.98 689.54 226.54 686.69 226.21 679.15 227.6 675.66 225.77 674.44 222.45 669.47 218.99 659.27 216.6 656.06 217.27 651.23 218.94 649.91 220.06 646.39 219.2 644.05 222.28 639.37 222.19 633.59 224.28 627.64 223.62 624.28 221.45 621.75 219.58 617.08 218.75 612.79 220 608.72 216.39 609.87 215.72 608.27 217.47 603.28 222.11 596.84 225.34 595.64 228.97 592.73 230.81 589.95 231.46 582.28 230.88 579.23 232.49 578.1 236.59 579.4 239.43 578.79 249.4 573.86 252.56 569.4 260.7 569.9 267.64 569.25 271.99 570.41 274.46 569.41 279.6 564.05 284.59 563.14 292.38 566.45 297.76 569.7 302.95 567.88 306.68 567.48 310.82 565.27 314.75 562.14 323.47 558.84 322.14 552.51 323.64 548.93 322.36 547.51 322.89 543.47 327.67 542.68 329.01 541.04 327.42 538.32 331.64 533.19 338.25 532.9 342.69 529.54 347.88 529.39 350.19 531.77 353.54 531.58 356.14 527.04 361.3 526.52 365.55 527.16 369.7 525.13 373.59 521.5 377.4 519.27 378.3 516.89 381.13 515.97 380.53 512.1 385.51 511.39 388.3 507.92 389.91 499.08 391.61 497.23 394.45 497.58 396.39 494.01 393.9 492.5 393.58 489.59 398.87 485.31 400.37 489.61 402.72 488.82 405.85 482.45 409.03 483.53 412.96 482.57 415.16 477.54 415.28 474.24 421.52 473.37 422.28 471.19 420.21 469.46 418.64 465.48 415.51 461.44 420.45 460.4 424.12 454.81 424.63 451.56 413.79 442.15 414.29 439.45 416.69 435.94 423.26 436.16 426.31 437.44 430.5 435.77 430.71 432.95 434.07 433.5 433.08 430.08 438.77 426.06 439.43 423.95 436.62 420.7 432.51 419.6 432.13 416.96 429.11 415.4 431.46 413.42 432.24 409.89 431.19 403.44 433.02 399.22 430.46 395.5 428.46 394.25 430.62 390.99 428.87 387.92 425.91 386.11 422.54 385.88 422.4 382.68 419.39 382.25 419.24 378.36 418.06 374.98 420.63 373.16 414.29 369.4 415.42 366.39 413.78 361.8 415.2 358.71 412.5 357.29 413.51 355.07 411.27 352.52 407.67 345.72 405.12 343.96 405.79 340.4 402 340.23 402.39 331.9 399.92 328.53 400.39 325.55 405.49 324.23 407.52 322.37 408.26 318.55 410.29 317.78 416.02 308.48 421.8 306.85 424.92 301.64 424.23 298.77 426.07 294.18 422.53 289.4 424.07 286.09 429.05 284.07 430.84 278.24 433.26 276.62 431.81 268.57 434.85 265.37 433.93 261.88 435.4 259.62 439.55 257.97 442.39 255.43 442.71 252.7 445.39 251.15 446.74 248.54 450.03 245.37 448.83 242.8 456.13 235 453.1 229.01 449.4 224.39 447.86 221.02 446.96 212.83 448.19 205.25 447.64 201.8 444.84 202.17 444.98 198.72 438.85 192.14 438.32 188.46 438.96 185.32 441.72 181.4 448.65 178.33 452.44 176.08 459.27 180.51 462.48 179.57 464.22 175.41 468.91 172.93 453.94 173.11 454.38 165.52 457.27 161.46 458.05 155.34 453.97 154.5 452.16 152.34 455.27 148.84 456.11 140.57 459.96 136.58 459.97 134.9 462.61 132.01 467.41 131.91 469.01 126.33 471.58 122.96 475.34 119.6 475.81 115.15 478.51 114.57 479.44 112.55 483.52 109.16 484.74 106.39 483.76 101.29 480.87 98.98 481.91 93.9 484.31 92.04 485.73 87.45 486.11 83.28 489.81 75.88 489.67 72.48 491.83 70.9 493.89 66.5 493.3 64.83 496.66 61.7 494.29 54.57 489.22 52.95 488.36 50.81 480.06 44.77 477.96 41.05 481.74 41.45 483.48 43.66 486.33 44.19 490.45 41.91 492.45 39.38 497.43 39.26 501.39 44.11 504.65 37.94 508.78 36.29 512.58 33.62 513.52 31.86 512.25 26.72 510.75 24.4 521.81 20.78 524.12 16.35 528.24 15.37 530.71 12.54 533.71 12.08 536.61 6.69 538.38 5.22 543.61 4.69 544.9 7.86 548.13 6.68 551.35 8.5 552.18 17.91 562.03 26.91 563.7 27.85 566.19 34.38 569.83 33.45 573.77 33.74 577.32 31.32 583.47 35.2 583.46 36.71 586.66 39.69 588.01 37.27 591.31 35.95 593.94 33.63 599.89 38.16 606.2 36.88 608.22 31.49 611.8 25.96 613.11 19.37 616.72 16.97 615.3 13.14 617.5 7.41 620.43 3.25 626.24 1 629.25 33.31 630.58 60.31 632.92 94.27 637.63 171.55 638.26 185.64 642.38 241.04 644.4 272.08 645.22 280.61 647.54 316.68 649.86 356.83 652.13 401.58 653.65 444.33 654.4 455.4 657.52 513.14 659.14 548.6 660.19 566.48 661.07 589.89 661.68 599.31 663.08 634.3 663.86 648.48 664.47 670.15 665.33 688.92 666.99 729.61 667.84 744.45 668.05 753.62 669.94 796.43 670.89 821.31 671.05 833.02 672.12 856.23 672.84 888.22 674.68 909.45 676.22 935.25 676.4 942.32 678.81 976.26 680.87 1018.11 683.46 1018.71 684.89 1021.89 687.33 1023.25 688.63 1027.8 690.41 1029.28 689.63 1032.82 685.13 1036.6 685.44 1039.34 687.48 1041.07 687.76 1044.82 689.19 1048.16 687.97 1051.9 687.18 1059.71 684.81 1061.14 684.81 1063.25 682.77 1067.52 683.55 1070.61 680.42 1072.97 684.87 1075.13 686.69 1079.24 684.22 1086.81 684.41 1090.04 686.27 1092.68 685.69 1096.66 683.14 1097.92 683.38 1100.9 680.69 1105 677.81 1106.07 675.73 1109.84 676.23 1117.2 677.5 1121.19 675.58 1121.93 676.43 1130.52 681.14 1139.79 679.62 1142.2 682.19 1144.58 681.66 1147.47 684.14 1147.77 684.04 1150.57 688.06 1153.15 688.81 1156.3 690.55 1157.07 696 1155.82 699.82 1157.09 700.19 1159.48 705.03 1162.19 706.7 1167.44 708.47 1170.37 711.53 1172.65 714.95 1177.35 711.69 1178.35 714.69 1184.85 718.94 1186.53 720.9 1188.75 721.14 1192.48 724.71 1192.99 726.51 1196.28 730.34 1198.19 730.8 1200.9 738.03 1203.03 739.53 1204.78 739.93 1209.55 744.86 1209.38 748.73 1212.24 752.52 1219.75 749.73 1225.65 748.01 1234.19 748.11 1239.59 744.8 1241.69 746.83 1249.87 745.05 1252.12 744.61 1259.11 742.69 1266.41 744.39 1271.33 744.7 1274.97 746.69 1278.71 755.44 1284.88 757.67 1287.37 764.37 1292.73 766.15 1295.41 769.71 1296.3 773.12 1298.77 776.56 1304.85 782.02 1305.95 784.22 1308.42 797.82 1307.32 799 1316 795.69 1317.53 795.55 1325.88 792.68 1332.59 788.62 1335.42 787.06 1338.47 785.69 1344.48 783.6 1345.11 781.45 1349.32 782.52 1350.69 779.97 1354.36 779.59 1356.57 776.69 1356.81 774.67 1359.56 773.38 1363.38 773.52 1367.16 770.34 1370.53 771.28 1372.66 768.77 1376.91 767.28 1377.16 764.71 1380.72 764.3 1384.68 760.95 1387.15 759.37 1392.94 759.28 1398.28 755.94 1400.89 753.96 1406.57 753.91 1415.08 751.91 1419.7 751.32 1427.1 745.99 1429.03 742.98 1431.43 738.26 1433.71 721.86 1421.03 714.03 1418.75 709.31 1418.87 702.82 1419.87 694.51 1425.13 686.77 1429.52 665.53 1433.87 659.13 1435.44 653.26 1441.59 649.41 1450.64 645.03 1466.5 622.82 1459.96 615.45 1457.79 600.88 1465.27 592.53 1475.84 594.59 1507.25 576.39 1501.99 570.52 1502.95 567.05 1504.36 562.89 1507.88 557.42 1514.08 552.62 1522.77 545.92 1531.12 521.27 1530.72 479.11 1529.42 450.67 1528.46 370.9 1526.33 348.76 1525.34 274.81 1522.59 248.89 1521.73 192.92 1519.15 127.46 1516.49 87.18 1514.66 55.42 1513.11 42.81 1512.35 Z" fill="none" stroke="currentColor" stroke-width="88.856"/>
</g>
</svg>