<svg viewBox="-72.8177721164847 -45.5662919014014 2.3748210166121027 3.1300908015287945" xmlns="http://www.w3.org/2000/svg">
  <path d="M -72.458412,42.726933 L -72.429224,42.725837 L -72.355728,42.723655 L -72.262501,42.721061 L -72.111059,42.717206 L -71.981578,42.713232 L -71.92161,42.71191 L -71.750577,42.707481 L -71.699369,42.705818 L -71.514894,42.702084 L -71.449112,42.700338 L -71.351635,42.697901 L -71.294637,42.697042 L -71.279071,42.711246 L -71.267873,42.726026 L -71.25514329843625,42.736556311682556 L -71.24547482635694,42.74251582624477 L -71.237432,42.744895 L -71.22383,42.746484 L -71.181786,42.737341 L -71.18614,42.790935 L -71.166647,42.808881 L -71.132805,42.821476 L -71.115752,42.817693 L -71.064407,42.806289 L -71.05399017547452,42.83327578448549 L -71.04492,42.848667 L -71.031201,42.859087 L -71.016339,42.861682 L -70.967018,42.8688 L -70.948984,42.876191 L -70.929594,42.885032 L -70.914525,42.886647 L -70.903589,42.886777 L -70.88546459094526,42.88275414941626 L -70.847718,42.860867 L -70.836725,42.86468 L -70.829693,42.868725 L -70.81730322133912,42.87193014490074 L -70.815744,42.884529 L -70.810999,42.892375 L -70.810681,42.906887 L -70.805971,42.916549 L -70.798153,42.920926 L -70.797806,42.930037 L -70.793996,42.93989 L -70.786158,42.944039 L -70.78513,42.950792 L -70.779068,42.956802 L -70.775597,42.957213 L -70.769673,42.964419 L -70.7718,42.968064 L -70.764322,42.973751 L -70.764567,42.980201 L -70.761474,42.986681 L -70.756701,42.991337 L -70.749969,42.991689 L -70.749024,42.995467 L -70.743015,43.001666 L -70.745461,43.004023 L -70.74036,43.011171 L -70.735477,43.012201 L -70.732135,43.022416 L -70.728443,43.027597 L -70.718936,43.03235 L -70.712085,43.043725 L -70.711535,43.057975 L -70.703792,43.060515 L -70.70631,43.075339 L -70.737969,43.073728 L -70.743033,43.077973 L -70.755699,43.07995 L -70.76356,43.090391 L -70.77142,43.094655 L -70.779688,43.096248 L -70.78375912382074,43.10083982252358 L -70.799235,43.110107 L -70.804353,43.114396 L -70.824577,43.125069 L -70.829135,43.131485 L -70.829766,43.137684 L -70.83361,43.146106 L -70.828972,43.158523 L -70.827782,43.170432 L -70.823569,43.174239 L -70.828117,43.188232 L -70.820365,43.191749 L -70.820457,43.200957 L -70.816245,43.215499 L -70.809608,43.225511 L -70.818264,43.238384 L -70.827216,43.24333 L -70.838722,43.243124 L -70.839547,43.25127 L -70.84301765318399,43.254266070056964 L -70.859837,43.258025 L -70.860848,43.262648 L -70.869744,43.265967 L -70.873864,43.271612 L -70.882181,43.272535 L -70.882654,43.278913 L -70.8872,43.28272 L -70.89707,43.285663 L -70.90394,43.296781 L -70.896311,43.298437 L -70.904184,43.306516 L -70.911295,43.310438 L -70.915354,43.315465 L -70.919154,43.324445 L -70.9304,43.329145 L -70.931223,43.333226 L -70.940105,43.335438 L -70.952877,43.333402 L -70.95692,43.334737 L -70.958599,43.340116 L -70.967953,43.344579 L -70.967657,43.349352 L -70.973461,43.349889 L -70.972164,43.354817 L -70.978115,43.358914 L -70.974514,43.362996 L -70.985348,43.378868 L -70.987179,43.393536 L -70.982678,43.394763 L -70.985562,43.401585 L -70.986586,43.414153 L -70.981655,43.420552 L -70.974904,43.422335 L -70.968517,43.42928 L -70.96902,43.434368 L -70.963024,43.436489 L -70.96159,43.443272 L -70.965896,43.447794 L -70.966289,43.453304 L -70.960338,43.466183 L -70.96453239361264,43.473209394243696 L -70.974911,43.476955 L -70.967526,43.480945 L -70.969295,43.486217 L -70.964428,43.49348 L -70.964397,43.497066 L -70.958812,43.499477 L -70.956798,43.512782 L -70.953868,43.519145 L -70.957164,43.524865 L -70.957744,43.531253 L -70.962479,43.534243 L -70.963161,43.53892 L -70.952532,43.545297 L -70.950632,43.551313 L -70.954783,43.553867 L -70.957728,43.561641 L -70.963419,43.56401 L -70.966712,43.569437 L -70.972774,43.570512 L -70.976804,43.641905 L -70.981797,43.699813 L -70.982082,43.711864 L -70.985217,43.755895 L -70.989122,43.792113 L -70.990196,43.846676 L -70.992277,43.886262 L -70.992425,43.906229 L -70.994205,43.948671 L -70.997848,44.021698 L -70.99816,44.03734 L -70.999888,44.062658 L -71.003037,44.132052 L -71.004721,44.164081 L -71.005749,44.201031 L -71.00733,44.225231 L -71.009977689256,44.284898944966265 L -71.011237,44.300967 L -71.012884,44.34091 L -71.015051,44.37141 L -71.018237,44.43189 L -71.024585,44.530373 L -71.026162,44.549268 L -71.02898072036865,44.62217619054997 L -71.033583,44.698492 L -71.03839,44.766982 L -71.04328530339478,44.82851045580538 L -71.045072,44.843061 L -71.049367,44.896014 L -71.058247,44.990515 L -71.05949626161008,45.01454364155251 L -71.069456,45.146359 L -71.074486,45.204288 L -71.077212,45.250336 L -71.08392408357483,45.305451001274 L -71.09798916367433,45.30169201476135 L -71.105151,45.294635 L -71.110557,45.284891 L -71.107189,45.278347 L -71.11593512734227,45.274293163532896 L -71.119223,45.263067 L -71.12794945941111,45.253677817085936 L -71.13291,45.244512 L -71.148165,45.242412 L -71.16244572997448,45.25019590667086 L -71.168822,45.246272 L -71.176816,45.244046 L -71.180101,45.239937 L -71.187778,45.24506 L -71.187733,45.247618 L -71.20252772971915,45.25429722027273 L -71.211124,45.250214 L -71.220628,45.250735 L -71.22944,45.249199 L -71.235364,45.260349 L -71.2393784878532,45.26196417708516 L -71.263042,45.277401 L -71.264939,45.293446 L -71.272688,45.296572 L -71.280517,45.294588 L -71.28359,45.300011 L -71.296234,45.299144 L -71.30053,45.296649 L -71.307588,45.287485 L -71.31483909992528,45.28672920602542 L -71.320833,45.28192 L -71.330802,45.280279 L -71.336412,45.272742 L -71.36315116032296,45.26663418226444 L -71.359558,45.262682 L -71.356539,45.253897 L -71.358812,45.250911 L -71.368019,45.246389 L -71.3780048726905,45.24359261945491 L -71.385916,45.233092 L -71.39543862743703,45.2413858916104 L -71.407446,45.241217 L -71.412305,45.236902 L -71.42226208833006,45.233042431908586 L -71.429127,45.233961 L -71.43331026265072,45.237728191260516 L -71.44243740132991,45.238439476762395 L -71.43739292830973,45.23208278086893 L -71.417412,45.221746 L -71.415344,45.218093 L -71.403122,45.215299 L -71.397459,45.203141 L -71.40559235079893,45.19782261854951 L -71.404198,45.194967 L -71.409181,45.187474 L -71.414416,45.184786 L -71.414103,45.178989 L -71.423069,45.166395 L -71.424004,45.15929 L -71.427459,45.151472 L -71.433266,45.148313 L -71.435795,45.139659 L -71.42887,45.1357 L -71.426528,45.12701 L -71.429492,45.122293 L -71.43935406814785,45.11652416034851 L -71.4416,45.113094 L -71.448096,45.112111 L -71.449257,45.104522 L -71.458323,45.098807 L -71.46455091586743,45.09307487466427 L -71.468435,45.083566 L -71.47998276182678,45.08341682261008 L -71.486345,45.078503 L -71.486369,45.075634 L -71.49567,45.068847 L -71.497738,45.054751 L -71.505222,45.048791 L -71.500874,45.04511 L -71.491085,45.043671 L -71.492973,45.033229 L -71.499945,45.026323 L -71.50105218707225,45.013378017490496 L -71.46505,45.013638 L -71.476348,45.009426 L -71.480552,45.002334 L -71.488281,45.000739 L -71.504669,45.008315 L -71.513777,45.004505 L -71.53045249375133,44.99928891238175 L -71.537091,44.992611 L -71.538647,44.987256 L -71.537396,44.980984 L -71.522686,44.969746 L -71.52304,44.963858 L -71.516321,44.964478 L -71.515001,44.958597 L -71.518004,44.94569 L -71.515868,44.931715 L -71.512201,44.925965 L -71.503328,44.918083 L -71.496093,44.907849 L -71.513646,44.894574 L -71.510789,44.890199 L -71.518674,44.884802 L -71.521937,44.880348 L -71.528372,44.877712 L -71.529153,44.873067 L -71.53597,44.868743 L -71.545923,44.865932 L -71.549451,44.862084 L -71.547253,44.856132 L -71.554562,44.850678 L -71.551114,44.836965 L -71.556923,44.834201 L -71.561221,44.824265 L -71.573151,44.820823 L -71.576865,44.815197 L -71.568384,44.80704 L -71.5728,44.799206 L -71.57116,44.794314 L -71.57864,44.785444 L -71.592486,44.782669 L -71.606213,44.766819 L -71.611073,44.765517 L -71.612856,44.758998 L -71.617721,44.755828 L -71.629919,44.753578 L -71.63106,44.748509 L -71.625148,44.74275 L -71.626093,44.728543 L -71.617038,44.72825 L -71.618644,44.722193 L -71.612548,44.719186 L -71.603948,44.707583 L -71.598589,44.703241 L -71.601007,44.699444 L -71.59457,44.697033 L -71.597955,44.691767 L -71.594055,44.683931 L -71.596766,44.678792 L -71.581604,44.672379 L -71.587771,44.669286 L -71.584942,44.663508 L -71.584606,44.656882 L -71.577412,44.656146 L -71.577081,44.650686 L -71.569025,44.65029 L -71.561962,44.647189 L -71.55779,44.64196 L -71.56297,44.636406 L -71.558187,44.634275 L -71.552091,44.627922 L -71.55647,44.620727 L -71.553982,44.609718 L -71.555859,44.603706 L -71.56149,44.600333 L -71.554288,44.597664 L -71.553372,44.593171 L -71.543576,44.591278 L -71.536892,44.585731 L -71.538464,44.582131 L -71.552045,44.575302 L -71.549695,44.569466 L -71.557711,44.570404 L -71.558225,44.565598 L -71.568235,44.56276 L -71.575498,44.564957 L -71.591174,44.565347 L -71.59690871246366,44.5593555198599 L -71.598097,44.554749 L -71.572263,44.538689 L -71.573499,44.533143 L -71.582265,44.523618 L -71.594038,44.521859 L -71.586592,44.51497 L -71.582853,44.50818 L -71.577924,44.505219 L -71.579741,44.501504 L -71.59461,44.500036 L -71.594907,44.4944 L -71.600157,44.485833 L -71.609526,44.4842 L -71.617079,44.486047 L -71.624557,44.475183 L -71.630141,44.473848 L -71.633727,44.481175 L -71.646325,44.473876 L -71.64556,44.468926 L -71.639627,44.466351 L -71.644266,44.46025 L -71.651012,44.460854 L -71.655076,44.457696 L -71.658906,44.442633 L -71.665546,44.436712 L -71.677382,44.435499 L -71.675951,44.428906 L -71.682701,44.42734 L -71.684836,44.423277 L -71.69390516562751,44.41946440202254 L -71.703155,44.413276 L -71.713022,44.409806 L -71.723131,44.410901 L -71.735413,44.410005 L -71.741579,44.402252 L -71.74956,44.401925 L -71.755048,44.40598 L -71.767383,44.405725 L -71.777942,44.399973 L -71.793675,44.399461 L -71.803685,44.390711 L -71.799885,44.386072 L -71.803074,44.38328 L -71.814427,44.381922 L -71.815678,44.375025 L -71.812626,44.372606 L -71.816182,44.366495 L -71.812993,44.355715 L -71.8337,44.350046 L -71.843023,44.344706 L -71.85285,44.340922 L -71.8617,44.34022 L -71.874033,44.337102 L -71.886832,44.342615 L -71.905357,44.348223 L -71.917213,44.346636 L -71.929375,44.337481 L -71.93525,44.335757 L -71.945595,44.33771 L -71.962076,44.336558 L -71.981424,44.337366 L -71.988871,44.329737 L -72.012522,44.321268 L -72.019252,44.320193 L -72.029002,44.322383 L -72.032816,44.320446 L -72.031413,44.315249 L -72.032878,44.302165 L -72.037212,44.297412 L -72.045788,44.29243 L -72.053463,44.290355 L -72.064389,44.279323 L -72.068478,44.270801 L -72.066891,44.268092 L -72.058331,44.270083 L -72.061245,44.263126 L -72.059229,44.255825 L -72.05473,44.247875 L -72.049572,44.243564 L -72.047954,44.23785 L -72.052852,44.22768 L -72.052578,44.21783 L -72.05982392840659,44.209824966999975 L -72.057751,44.205837 L -72.060375,44.199825 L -72.064327,44.197574 L -72.065853,44.189327 L -72.060146,44.183864 L -72.05183,44.1665 L -72.043911,44.158054 L -72.03956,44.155989 L -72.042827,44.150036 L -72.041973,44.137173 L -72.033794,44.132344 L -72.037094,44.125049 L -72.045131,44.124691 L -72.05314602860949,44.119315149920084 L -72.055386,44.110898 L -72.052715,44.101453 L -72.04785404063588,44.096584106566176 L -72.043132,44.097241 L -72.038249,44.103551 L -72.03065,44.098767 L -72.03184,44.092801 L -72.03532,44.089192 L -72.044383,44.085996 L -72.032329,44.080869 L -72.038905,44.076734 L -72.043514,44.079244 L -72.051632,44.077069 L -72.048244,44.070355 L -72.057293,44.058339 L -72.065594,44.058301 L -72.069149,44.054685 L -72.066113,44.049009 L -72.076092,44.045034 L -72.079358,44.041387 L -72.074811,44.032407 L -72.081342,44.028364 L -72.085095,44.021169 L -72.094022,44.023435 L -72.094892,44.01547 L -72.102369,44.014776 L -72.105619,44.010519 L -72.10362,44.003553 L -72.11660030906495,43.99480395003569 L -72.11218,43.986845 L -72.112775,43.975615 L -72.114607,43.969794 L -72.106397,43.969984 L -72.092206,43.967055 L -72.101224,43.961378 L -72.099113,43.957333 L -72.107801,43.948714 L -72.116911,43.947493 L -72.119276,43.943747 L -72.116911,43.933844 L -72.118253,43.923186 L -72.122114,43.918067 L -72.13220569305551,43.91340198475634 L -72.136061,43.909171 L -72.15013,43.902411 L -72.158492,43.892806 L -72.159316,43.888122 L -72.170562,43.886184 L -72.173584,43.879615 L -72.168563,43.86872 L -72.182846,43.865524 L -72.188034,43.855155 L -72.18309,43.84468 L -72.182449,43.834121 L -72.188797,43.822845 L -72.18338,43.810127 L -72.18573,43.803864 L -72.191436,43.799812 L -72.196182,43.790917 L -72.205536,43.784584 L -72.203934,43.779404 L -72.205219,43.770964 L -72.216941,43.766331 L -72.235322,43.745354 L -72.24666,43.742486 L -72.265505,43.733796 L -72.271105,43.733918 L -72.275271,43.727532 L -72.280795,43.724343 L -72.294879,43.708886 L -72.299167,43.706643 L -72.305133,43.695321 L -72.30599286450894,43.683488110767186 L -72.302447,43.679261 L -72.303253,43.668379 L -72.314472,43.654428 L -72.314167,43.642671 L -72.327213,43.63685 L -72.327442,43.631197 L -72.332294,43.625048 L -72.335148,43.616159 L -72.333195,43.610285 L -72.328581,43.607408 L -72.32848,43.600909 L -72.333332,43.5991 L -72.349644,43.587817 L -72.356648,43.586443 L -72.3738,43.579119 L -72.38025009574498,43.573278909302104 L -72.379812,43.567088 L -72.382986,43.563418 L -72.380712,43.550708 L -72.381171,43.539155 L -72.386984,43.530398 L -72.394003,43.527568 L -72.398871,43.512653 L -72.396582,43.508434 L -72.385106,43.500698 L -72.379934,43.491168 L -72.383032,43.475139 L -72.392569,43.466884 L -72.390402,43.454365 L -72.391256,43.448322 L -72.39569553704737,43.437889091682635 L -72.396276,43.426937 L -72.399939,43.415135 L -72.399832,43.411107 L -72.403509,43.391583 L -72.413728,43.382959 L -72.41593,43.374974 L -72.414806,43.36437 L -72.403082,43.357747 L -72.392843,43.357968 L -72.389822,43.356023 L -72.399289,43.347581 L -72.410559,43.331121 L -72.395315,43.312696 L -72.402594,43.300855 L -72.409293,43.281004 L -72.416037,43.270231 L -72.421927,43.263151 L -72.43196276196034,43.25954826262418 L -72.43714,43.256056 L -72.439506,43.245665 L -72.434165,43.231909 L -72.441047,43.218192 L -72.43827,43.206336 L -72.438849,43.201186 L -72.4504802290235,43.19264187087333 L -72.444221,43.182647 L -72.444907,43.178107 L -72.452138,43.173902 L -72.45211,43.153228 L -72.45717165209302,43.14641335054806 L -72.453056,43.139412 L -72.440803,43.136627 L -72.442298,43.129303 L -72.433066,43.120705 L -72.433478,43.110588 L -72.441413,43.105949 L -72.442969,43.100441 L -72.434516,43.086617 L -72.43566,43.080887 L -72.445991,43.070336 L -72.467445,43.053727 L -72.465538,43.046586 L -72.461082,43.043298 L -72.462623,43.025788 L -72.45832,43.018579 L -72.443672,43.009919 L -72.44419,43.005059 L -72.450073,43.000051 L -72.459312,43.000574 L -72.464592,42.993715 L -72.46537,42.989175 L -72.462516,42.981744 L -72.473076,42.972528 L -72.481728,42.973924 L -72.49218,42.967676 L -72.506341,42.964464 L -72.518365,42.963137 L -72.532022,42.954943 L -72.534433,42.949358 L -72.528131,42.945009 L -72.5263,42.935366 L -72.527078,42.928347 L -72.524316,42.919001 L -72.531595,42.907099 L -72.531336,42.898188 L -72.540247,42.889552 L -72.552622,42.885043 L -72.555258,42.875426 L -72.55427,42.860614 L -72.5569312163573,42.85270596111729 L -72.547083,42.838542 L -72.546656,42.825756 L -72.542398,42.815365 L -72.541513,42.807094 L -72.516258,42.787972 L -72.509286,42.780537 L -72.50866,42.776432 L -72.516473,42.769123 L -72.511178,42.763882 L -72.501534,42.767239 L -72.498971,42.772099 L -72.490547,42.772747 L -72.483635,42.764996 L -72.479363,42.763333 L -72.47538,42.756588 L -72.47361,42.746785 L -72.467689,42.741536 L -72.458412,42.726933 Z" fill="none" stroke=currentColor stroke-width="1" vector-effect="non-scaling-stroke"/>
</svg>