<?xml version="1.0"?>
<svg width="20" height="20" xmlns="http://www.w3.org/2000/svg" version="1.2" baseProfile="tiny" viewBox="-252.500 -90.000 1305.000 1305.000" stroke-linecap="round" stroke-linejoin="round">
<g id="state">
<path d="M 43.42 1111.36 39.43 1105.07 36.88 1102.81 36.12 1098.59 34.4 1095.69 32.56 1094.97 29.59 1091.63 25.96 1091.91 24.86 1094.01 20.7 1095.45 18.42 1093.2 21.79 1090.05 21.52 1088.28 18.51 1085.08 7.64 1076.84 7.26 1073.28 5.42 1068.81 5.24 1063.3 1 1057.2 2.15 1053.8 1.72 1047.42 2.86 1043.28 8.18 1041.34 12.02 1037.62 11.91 1033.78 15.04 1028.65 13.86 1024.63 14.19 1021.61 13.4 1017.46 10.69 1015.58 11.73 1013.18 17.61 1009.65 22.79 1009.08 28.88 1007.69 33.38 1005 37.11 1005.6 41.66 1001.64 40.43 998.44 40.76 996.48 43.04 993.53 47.02 993.75 49.55 991.6 49.77 989.5 43.46 985.77 41.61 982.67 42.27 975.13 40.36 973.71 39.53 970.64 48.77 963.49 53.22 958.94 53.71 956.48 50.07 950.52 50.74 948.15 54.16 946.15 54.34 941.8 50.36 938.09 51.01 934.94 45.73 933.74 43.96 930.73 46.14 927.79 46.13 918.89 49.24 917.08 49.54 915.12 46.84 910.82 51.85 907.14 52.1 904.92 50.9 899.82 53.87 893.91 51.57 887.99 52.58 883.51 54.81 882.01 59.14 880.46 61.67 877.41 64.58 872.77 67.46 864.22 70.6 859.12 64.03 851.19 68.88 844.1 72.96 840.46 71.66 839.63 67.25 839.72 62.2 836.87 61.72 832.3 62.67 828.86 67.07 825.15 68.65 816.74 68.6 815.01 70.18 809.93 70.43 805.21 72.34 800.72 72.71 798.12 71.78 792.72 75.88 789.17 77.22 782.27 74.99 778.16 70.05 774.83 69.06 773.02 71.16 766.59 74.18 765.37 76.69 761.6 76.88 756.63 75.9 751.16 77.27 749.57 77.08 746.91 79.86 744.39 87.25 741.24 90.26 740.65 97.29 735.79 99.38 735.01 99.33 732.21 97.35 730.97 96.5 728.44 97.73 724.62 99.82 721.97 99.92 719.53 105.54 717.03 105.41 711.96 110.24 705.96 110.59 701.27 109.06 699.45 109.43 694.36 112 689.48 113.85 688.51 119.91 681.86 122.29 680.48 124.08 677.73 126.49 677.79 134.61 674.04 139.49 672.81 147.41 663.78 152.45 661.78 153.01 658.15 152.32 655.92 156.35 653.19 158.39 649.36 160.85 647.61 161.86 644.92 159.53 639.44 162.26 634.59 161.98 630.04 159.85 625.53 162.09 621.06 168.24 619.69 166.08 614.99 167.38 612.17 172.22 611.33 172.58 609.31 176.18 605.18 182.24 602.27 183.9 600.45 188.24 598.44 189.9 596.23 190.48 591.64 189.46 587.38 190.48 585.76 194.4 585.24 198.15 581.53 197.24 579.79 201.12 577.34 195.01 576.08 191.47 576.16 192.26 573.65 192.52 568.82 190.62 565.39 196.21 561.62 195.34 558.62 196.74 556.79 199.96 556.49 200.34 553.06 204.18 554.04 205.8 550.94 208.61 549.2 206.65 545.33 208.06 543.76 212.36 542.05 211.05 539.61 212.58 538.05 216.15 538.03 220.05 532.86 218.59 529.97 222.09 529.03 224.07 530.11 226.9 528.33 221.71 526.12 225.62 524.75 227.12 523.19 227.63 520.62 224.36 518.56 222.25 521.28 220.22 521.56 218.13 519.47 216.98 515.4 217.94 511.77 221.39 509.46 224.85 509.31 226.27 506.16 222.75 504.08 222.38 498.55 223.79 495.98 221.92 495.09 218.51 491.46 214.93 483.98 212.47 481.63 213.13 478.07 214.83 477.11 215.96 474.52 215.06 472.8 218.18 469.35 218.07 465.11 220.18 460.73 219.48 458.27 217.26 456.41 215.32 452.99 214.45 449.85 215.71 446.85 212.02 447.71 211.34 446.54 213.1 442.87 217.8 438.12 221.11 437.23 224.8 435.08 226.67 433.04 227.3 427.4 226.69 425.16 228.34 424.33 232.54 425.27 235.43 424.81 245.62 421.16 248.83 417.88 257.16 418.23 264.25 417.73 268.71 418.57 271.24 417.83 276.48 413.89 281.58 413.2 289.56 415.62 295.07 417.99 300.38 416.65 304.19 416.35 308.42 414.72 312.44 412.42 321.36 409.98 319.98 405.33 321.51 402.7 320.2 401.66 320.74 398.69 325.63 398.11 327 396.9 325.36 394.91 329.67 391.14 336.45 390.92 341 388.44 346.31 388.33 348.67 390.08 352.11 389.94 354.76 386.6 360.05 386.21 364.4 386.68 368.65 385.19 372.64 382.52 376.54 380.88 377.46 379.13 380.37 378.46 379.75 375.62 384.85 375.1 387.71 372.55 389.36 366.06 391.11 364.7 394.01 364.96 396.01 362.33 393.46 361.22 393.13 359.09 398.55 355.95 400.09 359.11 402.5 358.53 405.72 353.85 408.97 354.65 413.01 353.94 415.27 350.26 415.4 347.83 421.8 347.2 422.58 345.6 420.46 344.32 418.85 341.4 415.64 338.43 420.71 337.67 424.49 333.57 425.02 331.18 413.89 324.27 414.41 322.28 416.87 319.7 423.63 319.87 426.75 320.82 431.06 319.6 431.28 317.53 434.74 317.93 433.72 315.42 439.57 312.48 440.25 310.93 437.37 308.54 433.15 307.72 432.76 305.79 429.66 304.64 432.08 303.19 432.89 300.6 431.82 295.86 433.7 292.76 431.08 290.02 429.02 289.1 431.25 286.71 429.45 284.46 426.41 283.13 422.94 282.96 422.8 280.6 419.7 280.29 419.56 277.43 418.34 274.95 421 273.61 414.47 270.85 415.63 268.64 413.95 265.26 415.41 263 412.64 261.96 413.68 260.32 411.37 258.45 407.67 253.46 405.05 252.16 405.74 249.55 401.84 249.43 402.25 243.31 399.7 240.83 400.19 238.65 405.44 237.68 407.54 236.31 408.31 233.51 410.4 232.95 416.31 226.12 422.27 224.93 425.49 221.11 424.79 219 426.69 215.63 423.04 212.11 424.64 209.69 429.77 208.21 431.62 203.93 434.13 202.74 432.64 196.83 435.79 194.49 434.84 191.92 436.36 190.27 440.65 189.06 443.58 187.19 443.92 185.19 446.69 184.06 448.09 182.14 451.49 179.82 450.26 177.93 457.82 172.22 454.7 167.81 450.88 164.41 449.3 161.94 448.38 155.92 449.68 150.36 449.11 147.83 446.21 148.1 446.37 145.56 440.03 140.72 439.49 138.02 440.16 135.72 443.02 132.84 450.2 130.59 454.13 128.95 461.18 132.22 464.51 131.53 466.32 128.47 471.19 126.66 455.68 126.77 456.16 121.2 459.16 118.22 459.98 113.73 455.76 113.11 453.89 111.52 457.11 108.96 458 102.89 462.01 99.96 462.02 98.73 464.76 96.61 469.73 96.55 471.4 92.45 474.08 89.99 477.99 87.52 478.49 84.26 481.28 83.83 482.25 82.36 486.5 79.87 487.77 77.84 486.77 74.1 483.78 72.39 484.87 68.67 487.37 67.31 488.86 63.94 489.26 60.88 493.13 55.46 492.99 52.96 495.24 51.8 497.39 48.58 496.79 47.35 500.29 45.06 497.85 39.82 492.59 38.62 491.7 37.05 483.1 32.59 480.92 29.86 484.85 30.16 486.66 31.79 489.61 32.18 493.9 30.52 495.99 28.66 501.16 28.59 505.26 32.16 508.67 27.64 512.97 26.43 516.93 24.49 517.91 23.2 516.61 19.42 515.07 17.72 526.58 15.09 529 11.84 533.29 11.13 535.87 9.06 538.99 8.74 542.03 4.79 543.88 3.72 549.33 3.34 550.65 5.68 554.02 4.82 557.36 6.17 558.18 13.08 568.37 19.73 570.09 20.42 572.65 25.22 576.44 24.56 580.53 24.79 584.23 23.03 590.61 25.9 590.59 27.01 593.89 29.21 595.31 27.44 598.75 26.48 601.49 24.79 607.64 28.15 614.21 27.24 616.35 23.29 620.11 19.25 621.52 14.42 625.29 12.67 623.84 9.85 626.17 5.66 629.25 2.62 635.31 1 638.2 24.73 639.37 44.56 641.54 69.51 645.83 126.27 646.36 136.62 650.19 177.31 652.04 200.11 652.81 206.38 654.92 232.88 656.99 262.37 658.97 295.23 660.18 326.63 660.86 334.76 663.59 377.17 664.97 403.22 665.9 416.35 666.61 433.55 667.15 440.47 668.29 466.17 668.97 476.59 669.41 492.5 670.14 506.29 671.49 536.17 672.24 547.07 672.37 553.81 673.94 585.26 674.71 603.53 674.77 612.13 675.67 629.18 676.13 652.67 677.81 668.27 679.16 687.23 679.29 692.42 681.44 717.36 683.17 748.1 685.78 748.56 687.2 750.9 689.65 751.92 690.92 755.27 692.71 756.37 691.89 758.96 687.31 761.7 687.6 763.72 689.64 765.01 689.89 767.76 691.31 770.22 690.05 772.96 689.18 778.69 686.78 779.73 686.76 781.27 684.67 784.4 685.43 786.67 682.25 788.39 686.72 790 688.53 793.03 685.96 798.57 686.13 800.95 687.99 802.89 687.37 805.81 684.79 806.73 685 808.92 682.25 811.91 679.35 812.68 677.22 815.43 677.66 820.84 678.91 823.78 676.97 824.31 677.76 830.63 682.42 837.46 680.87 839.22 683.43 840.98 682.87 843.11 685.37 843.34 685.25 845.39 689.27 847.31 690 849.63 691.74 850.21 697.24 849.33 701.06 850.28 701.42 852.04 706.26 854.06 707.9 857.93 709.64 860.09 712.71 861.78 716.1 865.26 712.81 865.97 715.77 870.76 720.02 872.03 721.98 873.67 722.18 876.42 725.76 876.81 727.54 879.24 731.37 880.67 731.8 882.66 739.05 884.28 740.54 885.57 740.9 889.08 745.85 888.99 749.71 891.12 753.43 896.67 750.58 900.98 748.76 907.24 748.8 911.2 745.46 912.72 747.42 918.74 745.61 920.38 745.09 925.51 743.1 930.86 744.75 934.49 745.02 937.15 746.99 939.92 755.7 944.51 757.9 946.36 764.56 950.35 766.32 952.33 769.88 953.01 773.26 954.85 776.65 959.35 782.1 960.2 784.28 962.03 797.92 961.33 799 967.72 795.67 968.81 795.43 974.95 792.48 979.84 788.38 981.89 786.79 984.12 785.36 988.52 783.25 988.96 781.06 992.04 782.11 993.06 779.52 995.73 779.12 997.35 776.22 997.51 774.16 999.51 772.83 1002.3 772.93 1005.08 769.71 1007.53 770.63 1009.1 768.08 1012.2 766.58 1012.38 763.97 1014.96 763.53 1017.87 760.16 1019.66 758.52 1023.9 758.37 1027.83 755 1029.71 752.97 1033.87 752.83 1040.12 750.79 1043.5 750.12 1048.92 744.78 1050.3 741.76 1052.05 737.02 1053.69 720.77 1044.26 712.96 1042.53 708.25 1042.59 701.76 1043.28 693.42 1047.09 685.65 1050.27 664.41 1053.34 658.01 1054.45 652.1 1058.94 648.2 1065.57 643.71 1077.19 621.6 1072.28 614.26 1070.65 599.69 1076.07 591.29 1083.8 593.17 1106.88 575.06 1102.94 569.2 1103.63 565.74 1104.65 561.58 1107.22 556.1 1111.75 551.27 1118.12 544.57 1124.23 520.03 1123.86 478.05 1122.82 449.72 1122.06 370.28 1120.46 348.23 1119.74 274.58 1117.83 248.76 1117.26 193 1115.55 127.79 1113.89 87.64 1112.77 55.99 1111.84 43.42 1111.36 Z" fill="none" stroke="currentColor" stroke-width="65.250"/>
</g>
</svg>