<?xml version="1.0"?>
<svg width="20" height="20" xmlns="http://www.w3.org/2000/svg" version="1.2" baseProfile="tiny" viewBox="-276.280 -93.280 1352.560 1352.560" stroke-linecap="round" stroke-linejoin="round">
<g id="state">
<path d="M 414.95 1 440.82 12.82 491.05 35.65 512.84 46.1 530.08 53.9 558.14 67.65 572.87 75.34 582.23 79.99 604.52 89.99 620.28 96.77 635.96 103.82 646.99 108.27 667.65 117.09 703.97 133.09 771.27 163.01 794.83 173.61 799 173.69 797.97 181.02 791.75 198.26 789.29 206.85 787.34 211.76 781.83 225.67 779.93 228.77 770.93 243.46 770.15 245.16 765.66 255.39 762.03 260.36 755.52 269.28 742 287.79 739.93 294.9 737.11 306.54 734.13 306.98 731.2 313.32 729.32 313.1 724.85 316.55 721.69 320.46 717.07 318.01 714.61 320.55 714.68 323.76 710.93 328.21 717.44 330.98 714.57 334.84 706.55 332 704.71 333.5 706.31 338.23 702.67 340.41 696.66 339.98 690.52 341.96 682.53 342.35 679.28 343.07 679.13 339.71 682.57 336.34 697.29 317.47 699.11 315.14 697.25 313.76 696.39 308.42 690.45 307.86 689.19 310.21 690.4 313.92 685.77 320.76 683 321.33 679.35 325.9 681.7 328.57 676.69 335.24 673.07 333.91 666.84 338.79 659.64 341.44 651.6 347.69 649.39 351.3 650.17 354.93 649.53 361.11 651.91 363.07 651.94 363.1 649.84 366.95 649.06 367.41 646.82 374.51 645.45 380.74 642.6 383.68 637.14 382.04 633.84 384.2 627.35 386.62 626.21 388.61 627.12 394.84 628.83 400.73 623.96 406.54 622.56 410.16 620.4 412.42 617.56 417.44 620.29 421.88 620.72 425.72 622.73 428.8 628.37 430.34 630.85 432 634.49 432.15 637.34 434.69 640.75 434.64 647.69 437.09 649.55 440.98 655.3 440.16 658.24 437.09 659.3 434.45 661.64 432.02 663.51 432.34 669.13 436.68 672.41 437.47 679.83 435.64 683.37 433.24 694.91 438.98 706 441.4 719.95 448.92 725.26 450.74 745.15 454.48 747.83 454.27 750.37 450.47 752.19 439.24 750.76 437.2 747.06 436.2 745.29 428.84 742.59 426.76 739.77 426.03 738.89 424.02 742.94 422.38 747.01 423.24 754.89 433.72 756.05 439.48 756.81 450.22 759.57 456.91 760.6 467.13 761.71 481.71 759.01 508.01 756.98 517.58 751.42 537.58 744.36 557.74 743.74 562 733.58 592.67 731.85 601.8 732.09 603.26 729.12 612.41 717.43 661.56 717.17 663.22 716.62 666.69 716.49 667.52 716.09 670.04 714.68 678.91 711.41 693.26 707.51 717.2 704.21 747.02 701.41 762.27 700.14 765.49 700.73 767.95 698.92 770.61 695.48 773.26 692 778.25 680.16 800.07 656.48 830.98 632.91 864.29 628.7 867.89 622.27 875.93 620.72 876.46 611.43 885.18 608.8 886.79 593.05 887.26 591.83 887.97 593.3 891.06 598.65 898.88 598.19 903.62 595.27 908 591.03 912.88 592.35 915.79 590.79 919.92 581.66 929.13 572.38 937.95 562.03 945.48 553.89 951.94 552.62 955.65 550.48 957.69 545.24 960.28 537.95 961.6 527.87 965.26 512.42 972.56 501.23 978.41 491.45 985.11 483.45 986.76 484.14 989.92 483.52 993.32 479.65 997.46 470.31 1000.9 462 1006.72 451.49 1015.39 438.42 1029.88 434.46 1036.62 431.85 1038.35 426.52 1044.41 415.29 1059.7 408.32 1071.42 405.96 1073.16 406.06 1075.64 410.72 1078.88 410.01 1081.24 394.93 1094.65 388.09 1103.85 378.69 1114.96 375.51 1116.35 370.94 1114.52 365.64 1117.99 367.46 1120.17 367.91 1123.96 369.77 1126.22 371.06 1130.1 367.95 1133.36 354.05 1142.78 340.6 1152.34 334.03 1159.11 331.14 1157.61 324.7 1158.15 313.63 1163.14 307.23 1164.51 300.92 1164.8 299.15 1163.49 294.37 1163.13 289.58 1163.79 284.77 1162.46 282.51 1159.13 286.77 1148.67 286.25 1145.44 290.48 1129.95 293.3 1123.07 298.65 1113.7 315.25 1088.67 318.07 1083.22 320.58 1076.33 321.1 1069.65 322.11 1069.28 322.01 1063.3 323.75 1061.74 323.15 1054.46 317.08 1047.52 314.95 1046.4 309.86 1045.44 308.38 1045.89 304.05 1043.42 293.58 1040.77 291.07 1039.44 286.75 1038.56 280.47 1038.44 267.35 1039.09 265.61 1038.36 256.55 1037.79 255.76 1034.98 257.79 1033.49 256.45 1028.41 258.88 1025.75 254.82 1022.53 253.8 1024.95 248.26 1024.71 245.86 1027.44 233.79 1027.97 229.57 1028.8 224.03 1028.95 221.11 1026.58 217.63 1025.94 215.99 1027.87 212.26 1028.91 209.18 1034.05 206.94 1034.53 207.85 1039.35 204.94 1040.69 200.84 1041.11 196.55 1039.53 194.05 1035.91 188.91 1033.15 189.08 1030.96 191 1027.87 186.74 1016.61 181.89 1012.62 177.7 1012.56 173.68 1007.57 170.47 1004.73 167.28 1004.67 153.32 999.23 152.5 993.58 150.2 990.2 148.02 988.53 148.5 986.66 136.62 984.45 133.5 984.2 133.07 987.51 130.96 990.85 126.6 988.36 118.08 981.75 112.86 971.23 112.5 967.84 109.19 965.1 105.25 963.49 101.36 962.92 98.17 963.94 97.74 966.84 94.51 966.91 92.65 962.5 88.79 960.74 85.76 960.72 82.23 958.91 80.17 956.28 79.76 952.62 77.78 948.74 76.43 947.89 71.46 948.05 69.72 944.84 64.12 944.76 57.14 937.81 53 931.09 50.27 928.05 46.21 920.26 42.58 921.12 35.19 918.14 35.08 915.93 30.05 915.52 26.82 913.55 25.52 910.58 12.08 909.9 8.99 905.16 8.28 900.77 9.08 892.65 15.54 891.97 16.2 891.86 16.69 891.28 15.14 888.69 15.18 885.9 15.19 885.79 16.82 882.83 16.76 876.53 16.44 874.62 16.22 874.06 14.75 873.49 13.24 871.5 18.02 866.84 19.3 865.65 20.85 863.84 21 863.49 24.26 858.36 24.01 854.03 22.52 852.29 21.72 852.02 20.31 851.16 20.02 851.09 18.97 851.03 11.63 846.19 8.08 844.79 5.43 842.72 3.92 842.14 3.08 840.77 2.61 840.04 1 830.91 1.38 828.72 3.64 825.96 6.37 824.89 9.43 821.33 13.48 820.31 16.73 816.33 17.03 815.93 20.78 812.65 23.7 808.71 24.54 804.63 25.14 802.24 25.12 798.89 25.32 797.66 26.38 796.52 29 795.46 31.94 793.31 32.23 792.74 32.51 792.19 32.95 791.31 35.53 787.92 36.44 787.65 39.53 788.54 39.73 788.47 40.05 788.18 40.27 787.92 40.49 783.23 41.48 780.96 43.45 775.87 43.58 775.44 45.06 772.52 47 767.86 46.82 766.07 48.97 763.65 52.37 762.11 53.39 759.36 53.91 758.65 59.1 754.74 74.82 749.01 70.23 746.35 78.21 742.25 91.26 733.85 99.3 728.14 105.51 725.18 110.78 723.79 120.73 723.23 128.53 723.9 138.68 723.76 146.08 722.39 159.03 719.37 163.03 717.78 173.3 712.21 178.63 708.55 182.8 707.89 196.92 707.26 200.22 706.54 203.31 704.16 205.98 700.01 207.51 695 207.34 692.27 204.66 686.82 203.86 683.56 203.81 678.62 204.3 675.08 206.53 671.28 211.85 668.04 217.31 665.66 222.92 663.91 227.97 663.37 232.87 661.97 238.44 658.02 243.51 649.26 246.53 646.68 254.44 643.69 262.49 641.78 268.8 637.7 281.56 628.16 284.96 626.19 300.22 618.94 307.29 617.26 311.65 617.78 314.39 617.27 329.29 612.75 334.53 611.85 336.21 610.66 339.17 606.44 344.29 604.4 347.97 601.48 349.06 597.8 352.35 592 357.19 590.24 365.19 592.66 371.22 593.74 373.62 593.31 382.97 587.78 387.37 586.75 393.21 586.61 401.15 581.3 402.26 579.43 402.13 574.44 395 566.35 388.03 563.37 385.63 560.84 383.67 555.99 380.4 551.91 378.51 548.31 367.17 541.53 355.8 537.26 353.38 535.7 347.52 533.48 344.6 531.32 339.47 522.21 335.93 515.1 332.21 509.99 323.18 502.77 318.73 500.47 313.02 499.61 308.66 496.98 297.98 489.5 296.45 487.74 293.61 476.62 290.42 469.67 286.14 461.74 283.74 459.97 278.94 458.4 274.65 455.73 271.08 454.83 258.06 458.03 253.87 457.49 246.44 452.93 241.49 451.49 239.91 449.39 237.23 437.2 235.27 432.88 236.99 428.51 236.65 424.51 239.03 421.46 239.11 414.73 238.03 410.21 237.91 399.35 236.24 391.68 233.1 390.05 221.27 379.6 213.74 376.98 204.42 375.64 201.94 375.78 197.82 377.48 193.47 380.54 186.27 381.02 182.26 379.93 178.89 378.09 175.43 374.22 178.21 369.89 176.97 362.7 174.77 359.89 172.39 356.36 174.28 354.72 177.73 354.42 178.74 352.65 177.76 346.93 173.06 340.4 177.66 334.3 181.43 332.48 183.86 329.5 184.15 326.9 182.58 325.95 178.22 325.92 174.75 325.03 171.4 320.15 173.89 313.53 176.81 308.46 179.63 306.73 181.51 299.95 175.5 294.28 174.93 291.33 177.2 289.32 181.4 287.63 184.06 285.3 184.95 281.13 186.89 278.82 190.69 278.51 196.24 279.98 202.45 280.8 205.19 280.57 210.12 274.51 217.11 272.42 220.8 268.25 221.05 264.53 225.73 260.53 228.87 256.45 228.39 254.06 223.61 250.38 222.35 248.53 223.2 245.6 225.51 244.59 232.35 244.26 235.16 245.45 238.27 245 238.47 241.6 241.08 239.07 244.32 237.43 244.74 235.54 243.38 232.86 237.74 227.11 233.68 223.99 232.69 222.31 232.64 216.87 231.1 213.59 223.33 208.68 218.88 203.36 215.58 197.19 212.67 194.85 211.22 190.17 211.43 187.4 206.16 187.05 204.18 183.39 205.6 181.32 206.53 176.6 209.96 174.19 216.11 171.29 216.82 170.37 224.29 167.81 228.61 164.71 235.3 163.41 249.88 156.65 252.3 154.69 256.23 153.3 255.97 151.2 260.89 145.2 262.64 140.74 265.95 139.86 268.98 137.08 274.21 134.81 277.44 134.4 283.89 130.75 284.99 128.01 282.49 126.55 278.05 129.28 274.72 130.07 273.22 127.7 278.68 119.39 281.75 118.1 286.71 117.39 293.95 113.31 295.69 110.06 302.08 108.26 305.28 106.44 314.49 97.75 316.65 93.19 321.8 89.34 325.42 85.77 330.37 75.91 336.26 67.83 335.77 65.82 332.61 63.37 335.05 58.58 335.64 55.6 338.25 52.49 341.14 52.02 343.41 48.66 342.66 46.61 346.81 39.14 350.38 34.8 354.75 31.32 359.15 29.48 361.36 27.25 368.79 23.23 366.86 19.98 368.34 17.86 372.25 17.01 378.02 16.73 382.41 13.62 383.69 9.67 386.82 6.47 400.39 6.47 408.26 3.53 412.78 2.41 414.95 1 Z" fill="none" stroke="currentColor" stroke-width="67.628"/>
</g>
</svg>