<svg viewBox="-75.8024748 -41.600515800000004 2.1513995999999906 2.9149056000000044" xmlns="http://www.w3.org/2000/svg">
  <path d="M -74.69558,41.357607 L -74.700097,41.354655 L -74.709531,41.352326 L -74.725951,41.346192 L -74.754282,41.3462 L -74.760821,41.33951 L -74.763485,41.331271 L -74.772657,41.324781 L -74.78469821340141,41.32418990743235 L -74.79286071193346,41.32240645989957 L -74.795952,41.31799 L -74.791922,41.31121 L -74.807428,41.302812 L -74.812033,41.298158 L -74.821211,41.294313 L -74.830347,41.287065 L -74.837787,41.278009 L -74.846455,41.262413 L -74.844883,41.25813 L -74.849617,41.251114 L -74.855669,41.250131 L -74.861117,41.243645 L -74.862334,41.237431 L -74.867437,41.22742 L -74.860837,41.222318 L -74.859822,41.21811 L -74.872101,41.201251 L -74.88243,41.180676 L -74.889988,41.173217 L -74.900738,41.165189 L -74.905256,41.155668 L -74.924469,41.13753 L -74.931146,41.133734 L -74.944498,41.129974 L -74.948112,41.123192 L -74.963233,41.114676 L -74.97359,41.113186 L -74.979985,41.110507 L -74.991387,41.093155 L -74.988263,41.088222 L -74.981314,41.08986 L -74.972036,41.095562 L -74.966815,41.092521 L -74.969123,41.086803 L -74.98259,41.079172 L -74.989332,41.078319 L -75.000232,41.073579 L -75.006564,41.067782 L -75.013469,41.065941 L -75.017129,41.056623 L -75.02739,41.044106 L -75.026847,41.039731 L -75.035058,41.036836 L -75.040106,41.032735 L -75.070532,41.01862 L -75.084495,41.01592 L -75.093523,41.009442 L -75.109113,41.004102 L -75.110595,41.002174 L -75.123423,40.996129 L -75.130575,40.991093 L -75.132522,40.981235 L -75.135492,40.976914 L -75.13136,40.969276 L -75.12036730135003,40.96854638035851 L -75.120786,40.96278 L -75.117767,40.953013 L -75.111689,40.948127 L -75.104809,40.935247 L -75.095528,40.924148 L -75.079295,40.91388 L -75.07609,40.907039 L -75.07598,40.895692 L -75.073925,40.892177 L -75.06544,40.885675 L -75.053664,40.87366 L -75.050839,40.868067 L -75.05170266388477,40.864127994286484 L -75.058462,40.860706 L -75.063925,40.855424 L -75.064328,40.848338 L -75.07083,40.847392 L -75.076684,40.849875 L -75.090962,40.849187 L -75.095784,40.847082 L -75.097572,40.840967 L -75.09494,40.837103 L -75.084969,40.829414 L -75.083956,40.824425 L -75.090518,40.815913 L -75.100277,40.807578 L -75.1008,40.799797 L -75.108505,40.791094 L -75.123088,40.786746 L -75.13337679693366,40.77410018585733 L -75.139106,40.773606 L -75.152063,40.775327 L -75.163648,40.778386 L -75.171587,40.777745 L -75.17562,40.772923 L -75.177477,40.764225 L -75.183037,40.759344 L -75.191796,40.75583 L -75.196535,40.751631 L -75.195349,40.745473 L -75.182804,40.73365 L -75.18674,40.71949 L -75.192615,40.715874 L -75.19872,40.705298 L -75.20391,40.691472 L -75.196921,40.681297 L -75.189679,40.679444 L -75.180564,40.679363 L -75.177299,40.677395 L -75.177902,40.671966 L -75.182976,40.665747 L -75.190852,40.661938 L -75.200452,40.649219 L -75.19064134773625,40.63558879751762 L -75.188595,40.623636 L -75.190688,40.619957 L -75.197891,40.619332 L -75.201844,40.615892 L -75.19688346601941,40.60854189447024 L -75.192291,40.602676 L -75.189692,40.587671 L -75.195496,40.578627 L -75.18827,40.570547 L -75.181251,40.566715 L -75.172877,40.564423 L -75.157852,40.565424 L -75.148757,40.571819 L -75.140172,40.57537 L -75.134995,40.575662 L -75.115536,40.57286 L -75.099827,40.567398 L -75.075138,40.545579 L -75.068581,40.542185 L -75.065088,40.526165 L -75.064842,40.503503 L -75.062576,40.494074 L -75.062761,40.480026 L -75.067715,40.473669 L -75.067016,40.465308 L -75.070608,40.456196 L -75.066515,40.447176 L -75.060917,40.421737 L -75.057619,40.417336 L -75.047276,40.414338 L -75.031778,40.404813 L -75.023028,40.403693 L -74.99586,40.410384 L -74.988413,40.408494 L -74.979453,40.402923 L -74.969422,40.39964 L -74.964431,40.395948 L -74.955499,40.379395 L -74.948842,40.364899 L -74.942909,40.341683 L -74.939711,40.338006 L -74.91741,40.322406 L -74.90831,40.316907 L -74.896409,40.315107 L -74.887109,40.310307 L -74.868263,40.295254 L -74.860492,40.284584 L -74.853118,40.26973 L -74.84241535257159,40.250715522244676 L -74.836307,40.246208 L -74.824076,40.241574 L -74.81903311177045,40.23833471414279 L -74.795306,40.229408 L -74.77162,40.21526 L -74.767677,40.207752 L -74.760851,40.199232 L -74.75676000549258,40.18910785756159 L -74.75176,40.183839 L -74.737205,40.177609 L -74.722325,40.160727 L -74.722048,40.150311 L -74.724369,40.146412 L -74.74095469677503,40.135320203849155 L -74.75313,40.135033 L -74.762323,40.132881 L -74.78184223977264,40.12134660112596 L -74.786847,40.120437 L -74.799421,40.122703 L -74.816121,40.12774 L -74.826226,40.124066 L -74.833103,40.111972 L -74.83536537980643,40.10427782810898 L -74.8430603495789,40.09818360588106 L -74.853745,40.093926 L -74.85991461907543,40.0851350778032 L -74.863422,40.082635 L -74.874361,40.08076 L -74.90545908258791,40.07132996241806 L -74.911189,40.070262 L -74.920289,40.071348 L -74.935042,40.067836 L -74.966891,40.052716 L -74.973981,40.048595 L -75.000617,40.0287 L -75.013776,40.020166 L -75.030583,40.016194 L -75.04709,40.009941 L -75.053405,40.004568 L -75.06398877803431,39.98626740198386 L -75.075605,39.978041 L -75.085831,39.975102 L -75.096372,39.973981 L -75.108089,39.970332 L -75.119491,39.965372 L -75.130591,39.958608 L -75.135239,39.950677 L -75.136268,39.943282 L -75.136151,39.932974 L -75.134484,39.926168 L -75.12889689740493,39.91478172571156 L -75.128537,39.909095 L -75.13173344859571,39.89863517688358 L -75.137296,39.889966 L -75.143746,39.884998 L -75.150653,39.883504 L -75.180112,39.882197 L -75.188821,39.880814 L -75.199941,39.873182 L -75.221371,39.861543 L -75.22972604483249,39.858231883965516 L -75.256762,39.851934 L -75.272202,39.849076 L -75.293376,39.848782 L -75.309674,39.850178 L -75.330432,39.849013 L -75.341433,39.846112 L -75.354401,39.839917 L -75.371176,39.827998 L -75.398417,39.810467 L -75.415062,39.801919 L -75.40548968434506,39.79636839682434 L -75.4383,39.784402 L -75.4491345970078,39.77623494584607 L -75.450212,39.774761 L -75.452339,39.769013 L -75.45944488021982,39.76580637458498 L -75.463921,39.760763 L -75.46355,39.757014 L -75.46760546071918,39.7472970889652 L -75.47070097242303,39.74119862476698 L -75.47096,39.740312 L -75.47507,39.729683 L -75.4771410170626,39.7249329620831 L -75.47760642101596,39.7151614262539 L -75.47806814903257,39.7146177855084 L -75.47873193685837,39.71400505828458 L -75.47914067339973,39.71386551467405 L -75.4855942734172,39.71570846861447 L -75.48749772848623,39.71514524821361 L -75.49287527009596,39.708075771442694 L -75.49380784252858,39.70622965866791 L -75.49438117711503,39.70509469020085 L -75.49498583627141,39.70389771187088 L -75.501127,39.699408 L -75.50658387233018,39.697211521990255 L -75.50879839658246,39.694830202747944 L -75.50923027992668,39.692253640879706 L -75.50918,39.685266 L -75.51044004745216,39.68028237860313 L -75.51219,39.671767 L -75.51828926976101,39.66353123190452 L -75.52609992008387,39.65668142080255 L -75.52674244618568,39.65585517534004 L -75.533524,39.647557 L -75.541978,39.645425 L -75.54835730392027,39.63799602482281 L -75.554055,39.635745 L -75.558773,39.629987 L -75.559566,39.625418 L -75.55621597018768,39.60636969708756 L -75.55522889328557,39.604838888287304 L -75.55346229383349,39.60197442171612 L -75.550318,39.600766 L -75.54478164629109,39.59644461853625 L -75.537375,39.593532 L -75.522055,39.583423 L -75.51986952344289,39.58330561509353 L -75.51926777088181,39.58315034691116 L -75.51631109859156,39.581366412291935 L -75.514658,39.580788 L -75.511531,39.577177 L -75.511026,39.568125 L -75.51782811173841,39.55742394432185 L -75.518144,39.556684 L -75.521364,39.552914 L -75.52404061445792,39.550432384585406 L -75.534014,39.540702 L -75.53087381502432,39.53654679195758 L -75.527799,39.535364 L -75.52733,39.534189 L -75.526671,39.530215 L -75.526552,39.517065 L -75.52994055275927,39.51088529257444 L -75.52997994220833,39.51065736643864 L -75.530051,39.504817 L -75.526823,39.499411 L -75.52784082308084,39.49820228215558 L -75.5292218164691,39.4979842059951 L -75.54269307044659,39.496567286449675 L -75.544368,39.479602 L -75.542894,39.470447 L -75.536431,39.460559 L -75.508383,39.459131 L -75.505672,39.452927 L -75.498923,39.448824 L -75.488433,39.447967 L -75.488208,39.443363 L -75.47278,39.437129 L -75.465212,39.43893 L -75.456732,39.422671 L -75.451029,39.416333 L -75.442393,39.402291 L -75.427826,39.387792 L -75.416125,39.387625 L -75.412492,39.380927 L -75.402136,39.381258 L -75.399304,39.37949 L -75.395181,39.371398 L -75.394331,39.363753 L -75.39003,39.358259 L -75.382665,39.354484 L -75.376335,39.354446 L -75.368281,39.350764 L -75.364389,39.341574 L -75.357644,39.341711 L -75.356753,39.347754 L -75.350103,39.349889 L -75.341969,39.348697 L -75.333743,39.345335 L -75.326835,39.339621 L -75.326092,39.332543 L -75.315201,39.310593 L -75.297407,39.296799 L -75.288306,39.291602 L -75.283904,39.29857 L -75.283013,39.305467 L -75.276495,39.304951 L -75.251699,39.300341 L -75.252709,39.296432 L -75.24816,39.292957 L -75.24335,39.285901 L -75.241639,39.274097 L -75.21251,39.262755 L -75.205857,39.262619 L -75.199142,39.256691 L -75.190768,39.246276 L -75.182005,39.246168 L -75.171899,39.23784 L -75.163009,39.214327 L -75.167005,39.207879 L -75.167352,39.203299 L -75.156632,39.197541 L -75.151405,39.189996 L -75.142465,39.186698 L -75.133899,39.187573 L -75.127838,39.190359 L -75.129739,39.200421 L -75.125045,39.201434 L -75.118628,39.212162 L -75.110844,39.214326 L -75.107427,39.218354 L -75.100148,39.217019 L -75.094065,39.212081 L -75.0825,39.212392 L -75.073681,39.214117 L -75.048487,39.215222 L -75.043496,39.22093 L -75.031923,39.220421 L -75.029795,39.225466 L -75.021328,39.218745 L -75.026383,39.213196 L -75.023586,39.202594 L -75.027824,39.199482 L -75.026179,39.193621 L -75.007275,39.192431 L -75.00365,39.190912 L -74.976266,39.192271 L -74.96316,39.192015 L -74.954129,39.190173 L -74.9489,39.18741 L -74.927033,39.181883 L -74.918001,39.176724 L -74.91492,39.177651 L -74.904295,39.175657 L -74.899852,39.17331 L -74.887167,39.158825 L -74.885914,39.143627 L -74.889561,39.140378 L -74.889342,39.127894 L -74.891451,39.127126 L -74.892547,39.113183 L -74.897784,39.098811 L -74.903664,39.087437 L -74.93832,39.035185 L -74.94947,39.015637 L -74.955363,39.001262 L -74.964196,38.968928 L -74.963101,38.962196 L -74.971995,38.94037 L -74.967274,38.933413 L -74.957253,38.930638 L -74.947236,38.932009 L -74.937265,38.931259 L -74.933571,38.928519 L -74.920414,38.929136 L -74.90705,38.931994 L -74.883945,38.94241 L -74.870497,38.943543 L -74.864458,38.94041 L -74.850748,38.954538 L -74.822692,38.974497 L -74.79367,38.994144 L -74.787183,39.000958 L -74.78988,39.009053 L -74.793749,39.013777 L -74.794696,39.02169 L -74.798486,39.026228 L -74.787433,39.033465 L -74.77788,39.029663 L -74.771248,39.032545 L -74.751625,39.055752 L -74.737365,39.074945 L -74.705876,39.102937 L -74.704409,39.107858 L -74.714135,39.114631 L -74.714341,39.119804 L -74.709407,39.123422 L -74.694871,39.147885 L -74.67143,39.179802 L -74.660302,39.192463 L -74.654841,39.196072 L -74.646579,39.210132 L -74.619305,39.24038 L -74.597371,39.258483 L -74.580021,39.270629 L -74.560531,39.277804 L -74.55245,39.286451 L -74.551151,39.293539 L -74.552597,39.300143 L -74.535908,39.303576 L -74.51549,39.31756 L -74.492123,39.329763 L -74.459894,39.345016 L -74.438839,39.352646 L -74.423627,39.355403 L -74.412692,39.360816 L -74.408237,39.365071 L -74.405572,39.372806 L -74.388587,39.386302 L -74.36699,39.402017 L -74.347607,39.420418 L -74.328561,39.43965 L -74.325312,39.448267 L -74.32805,39.454345 L -74.319209,39.464519 L -74.313106,39.473657 L -74.312156,39.483564 L -74.323327,39.499888 L -74.326382,39.506332 L -74.323833,39.507808 L -74.290959,39.508796 L -74.285471,39.512143 L -74.266096,39.530353 L -74.262854,39.531453 L -74.249441,39.548239 L -74.240647,39.555753 L -74.19145,39.625277 L -74.142032,39.689785 L -74.117323,39.735333 L -74.11006,39.745756 L -74.102861,39.75129 L -74.0991,39.756825 L -74.100332,39.76196 L -74.097673,39.76869 L -74.091831,39.800523 L -74.084941,39.862758 L -74.07680402833034,39.91272251511777 L -74.069968,39.942667 L -74.06703445852517,39.961193257830736 L -74.06620168449803,39.96645249362943 L -74.06592674039568,39.96818885405666 L -74.0647815517983,39.9754210883379 L -74.064231,39.978898 L -74.039845,40.081475 L -74.033634,40.100579 L -74.034137,40.103628 L -74.030527,40.122666 L -74.009313,40.18668 L -74.0080230094669,40.1955891445672 L -73.993292,40.237669 L -73.981681,40.279411 L -73.977442,40.299373 L -73.971817,40.35427 L -73.974138,40.384713 L -73.97628,40.406042 L -73.982048,40.419993 L -73.983629,40.442418 L -73.986059,40.454427 L -74.002506,40.476314 L -74.010999,40.478114 L -74.019451,40.474682 L -74.017615,40.470493 L -74.011718,40.468962 L -74.006077,40.464625 L -74.002383,40.449269 L -73.994675,40.447174 L -73.991682,40.442908 L -73.995486,40.419472 L -74.000795,40.41155 L -74.006383,40.411108 L -74.047884,40.418908 L -74.058984,40.422708 L -74.088085,40.438407 L -74.111234,40.443465 L -74.13532,40.455446 L -74.142707,40.450418 L -74.158204,40.446616 L -74.165049,40.448258 L -74.176778,40.457308 L -74.180673,40.457977 L -74.185558,40.452917 L -74.187787,40.447407 L -74.193908,40.440995 L -74.205915,40.439285 L -74.209788,40.447407 L -74.224293,40.452515 L -74.231406,40.452403 L -74.237357,40.457718 L -74.244936,40.458021 L -74.250119,40.461483 L -74.261889,40.464706 L -74.266091,40.47113 L -74.266991,40.479138 L -74.27269,40.488405 L -74.266759,40.498902 L -74.262243,40.503601 L -74.259328,40.511164 L -74.249171,40.523297 L -74.252736,40.535582 L -74.254637,40.548586 L -74.25226,40.55274 L -74.238713,40.557796 L -74.23182,40.562311 L -74.220411,40.55888 L -74.214469,40.565019 L -74.211617,40.578018 L -74.206945,40.592842 L -74.20530353790284,40.59379094940609 L -74.20092431683842,40.601828338604555 L -74.20098884546938,40.601898232316195 L -74.205947,40.605995 L -74.204626,40.618891 L -74.206244,40.626458 L -74.20162922290326,40.633990268318854 L -74.184857,40.647052 L -74.169833,40.652576 L -74.156823,40.662751 L -74.149263,40.659983 L -74.138816,40.673903 L -74.14371010950134,40.67948511673468 L -74.136107,40.689014 L -74.130324,40.690203 L -74.120663,40.704481 L -74.123188,40.712222 L -74.12055290612292,40.717133837479004 L -74.108154,40.715963 L -74.106366,40.704806 L -74.102481,40.701926 L -74.10626281360025,40.69707867846845 L -74.136998,40.657684 L -74.144185,40.650649 L -74.143864,40.643631 L -74.137087,40.645139 L -74.120409,40.645962 L -74.10758,40.65008 L -74.095047,40.649182 L -74.087452,40.653742 L -74.09079,40.663613 L -74.08694,40.66675 L -74.070198,40.660827 L -74.064225,40.668865 L -74.077813,40.674646 L -74.069969,40.683947 L -74.070112,40.690652 L -74.064978,40.69595 L -74.055335,40.690824 L -74.04875,40.698985 L -74.039419,40.70619 L -74.035495,40.705741 L -74.029383,40.718967 L -74.02316697889852,40.719876950827754 L -74.01728264154497,40.74417992751563 L -74.012952,40.759026 L -73.984739,40.797662 L -73.97115183020857,40.8162689320599 L -73.963577,40.826642 L -73.954194,40.848003 L -73.952565,40.851537 L -73.933788,40.882207 L -73.929821,40.888682 L -73.9183165706618,40.917704866647036 L -73.914253,40.92796 L -73.909112,40.945894 L -73.896144,40.981873 L -73.893984,40.997172 L -73.902682,40.997326 L -73.951858,41.019468 L -74.09233,41.081906 L -74.168138,41.115307 L -74.21125232461476,41.1337239711996 L -74.234288,41.143008 L -74.267017,41.157721 L -74.299911,41.171871 L -74.346416,41.192734 L -74.365967,41.202442 L -74.396701,41.218505 L -74.455269,41.247185 L -74.491263,41.263469 L -74.53673582577827,41.28528602785363 L -74.641582,41.332941 L -74.69558,41.357607 Z" fill="none" stroke=currentColor stroke-width="1" vector-effect="non-scaling-stroke"/>
</svg>