<?xml version="1.0"?>
<svg width="200" height="200" xmlns="http://www.w3.org/2000/svg" version="1.2" baseProfile="tiny" viewBox="-480.440 -121.440 1760.880 1760.880" stroke-linecap="round" stroke-linejoin="round">
<g id="state">
<path vector-effect="non-scaling-stroke" d="M 420.38 1 445.76 16.45 495.08 46.25 516.49 59.87 533.45 70.03 561.07 87.91 575.57 97.92 584.8 103.97 606.76 116.95 622.3 125.74 637.77 134.88 648.66 140.64 669.06 152.07 704.94 172.77 771.54 211.38 794.89 225.05 799 225.12 798.04 234.68 792.06 257.18 789.7 268.39 787.82 274.8 782.49 292.96 780.64 297.01 771.86 316.21 771.1 318.42 766.74 331.79 763.19 338.28 756.81 349.94 743.56 374.13 741.56 383.41 738.84 398.6 735.89 399.18 733.04 407.45 731.17 407.18 726.76 411.7 723.66 416.81 719.06 413.64 716.64 416.95 716.73 421.14 713.03 426.96 719.5 430.54 716.69 435.57 708.71 431.91 706.89 433.88 708.51 440.03 704.91 442.9 698.95 442.36 692.86 444.96 684.93 445.51 681.71 446.46 681.54 442.08 684.94 437.68 699.44 413.02 701.23 409.99 699.37 408.2 698.49 401.24 692.6 400.53 691.36 403.61 692.58 408.43 688.03 417.36 685.28 418.12 681.7 424.08 684.04 427.56 679.11 436.27 675.51 434.55 669.34 440.93 662.21 444.4 654.27 452.58 652.09 457.29 652.87 462.01 652.27 470.06 654.64 472.61 654.67 472.66 652.6 477.68 651.83 478.28 649.63 487.54 648.3 495.66 645.49 499.5 640.05 497.37 636.77 500.2 630.33 503.37 629.21 505.97 630.14 514.08 631.86 521.75 627.04 529.34 625.66 534.06 623.52 537 620.71 543.56 623.44 549.34 623.88 554.33 625.9 558.34 631.51 560.33 633.99 562.49 637.61 562.67 640.45 565.98 643.84 565.9 650.77 569.06 652.64 574.12 658.36 573.04 661.26 569.03 662.31 565.58 664.63 562.42 666.49 562.83 672.1 568.45 675.37 569.47 682.75 567.06 686.26 563.91 697.78 571.34 708.83 574.45 722.76 584.18 728.07 586.53 747.9 591.29 750.56 591 753.06 586.04 754.8 571.4 753.35 568.74 749.67 567.46 747.85 557.88 745.15 555.19 742.33 554.25 741.44 551.64 745.46 549.48 749.52 550.58 757.43 564.19 758.64 571.68 759.47 585.68 762.28 594.37 763.38 607.68 764.6 626.67 762.12 660.95 760.16 673.42 754.76 699.51 747.86 725.82 747.27 731.38 737.33 771.39 735.66 783.28 735.91 785.18 733 797.12 721.62 861.21 721.36 863.38 720.84 867.89 720.71 868.98 720.33 872.26 718.97 883.83 715.78 902.54 712.01 933.74 708.87 972.6 706.15 992.48 704.89 996.68 705.5 999.89 703.7 1003.35 700.25 1006.82 696.78 1013.34 684.98 1041.82 661.29 1082.16 637.68 1125.63 633.44 1130.33 626.99 1140.82 625.42 1141.51 616.08 1152.9 613.44 1155 597.55 1155.65 596.32 1156.57 597.8 1160.59 603.22 1170.77 602.78 1176.95 599.84 1182.66 595.57 1189.02 596.9 1192.81 595.34 1198.19 586.14 1210.21 576.78 1221.71 566.33 1231.53 558.12 1239.96 556.83 1244.79 554.68 1247.45 549.38 1250.83 542.01 1252.56 531.81 1257.32 516.2 1266.85 504.87 1274.46 494.97 1283.19 486.88 1285.32 487.57 1289.45 486.94 1293.87 483.02 1299.26 473.56 1303.73 465.14 1311.3 454.48 1322.59 441.22 1341.45 437.19 1350.21 434.53 1352.46 429.11 1360.35 417.69 1380.25 410.59 1395.5 408.18 1397.75 408.28 1400.98 413 1405.22 412.27 1408.29 396.92 1425.72 389.95 1437.68 380.36 1452.13 377.12 1453.92 372.48 1451.53 367.09 1456.03 368.92 1458.87 369.37 1463.81 371.24 1466.76 372.54 1471.82 369.37 1476.06 355.19 1488.27 341.48 1500.68 334.76 1509.47 331.83 1507.5 325.27 1508.18 313.98 1514.63 307.46 1516.39 301.04 1516.74 299.25 1515.02 294.39 1514.53 289.51 1515.36 284.63 1513.6 282.35 1509.25 286.76 1495.65 286.24 1491.45 290.65 1471.29 293.56 1462.34 299.05 1450.17 316.06 1417.64 318.95 1410.55 321.54 1401.59 322.11 1392.89 323.13 1392.42 323.06 1384.63 324.84 1382.61 324.27 1373.12 318.15 1364.05 316 1362.58 310.84 1361.31 309.34 1361.88 304.97 1358.64 294.37 1355.14 291.84 1353.41 287.46 1352.24 281.09 1352.04 267.79 1352.82 266.04 1351.86 256.86 1351.07 256.08 1347.4 258.15 1345.47 256.83 1338.85 259.31 1335.4 255.22 1331.18 254.17 1334.32 248.55 1333.97 246.11 1337.52 233.87 1338.14 229.58 1339.18 223.97 1339.34 221.04 1336.24 217.51 1335.38 215.83 1337.89 212.04 1339.21 208.88 1345.89 206.6 1346.5 207.48 1352.79 204.52 1354.51 200.36 1355.02 196.03 1352.93 193.53 1348.21 188.35 1344.58 188.54 1341.72 190.51 1337.71 186.3 1323 181.43 1317.77 177.18 1317.67 173.17 1311.14 169.94 1307.41 166.71 1307.3 152.64 1300.11 151.87 1292.74 149.57 1288.32 147.39 1286.13 147.9 1283.69 135.9 1280.71 132.74 1280.37 132.27 1284.67 130.1 1289 125.71 1285.71 117.16 1277.03 112.01 1263.28 111.69 1258.86 108.37 1255.26 104.41 1253.13 100.47 1252.35 97.24 1253.65 96.77 1257.42 93.5 1257.47 91.67 1251.72 87.79 1249.38 84.72 1249.33 81.18 1246.94 79.13 1243.49 78.76 1238.71 76.82 1233.64 75.46 1232.53 70.44 1232.68 68.72 1228.49 63.05 1228.32 56.09 1219.2 52.01 1210.39 49.29 1206.41 45.29 1196.22 41.62 1197.3 34.19 1193.33 34.12 1190.46 29.05 1189.87 25.81 1187.27 24.54 1183.38 10.98 1182.34 7.93 1176.13 7.28 1170.41 8.21 1159.83 14.74 1159.02 15.4 1158.89 15.91 1158.14 14.38 1154.75 14.46 1151.11 14.48 1150.96 16.16 1147.13 16.2 1138.92 15.91 1136.43 15.69 1135.7 14.21 1134.94 12.72 1132.33 17.61 1126.31 18.92 1124.78 20.51 1122.44 20.66 1121.98 24.03 1115.34 23.84 1109.69 22.36 1107.42 21.57 1107.05 20.15 1105.92 19.86 1105.82 18.81 1105.74 11.48 1099.34 7.93 1097.48 5.28 1094.75 3.77 1093.98 2.94 1092.18 2.48 1091.22 1 1079.32 1.42 1076.47 3.74 1072.9 6.5 1071.53 9.63 1066.93 13.73 1065.64 17.06 1060.5 17.38 1059.99 21.19 1055.76 24.19 1050.65 25.1 1045.35 25.74 1042.24 25.76 1037.88 25.99 1036.28 27.07 1034.8 29.72 1033.46 32.71 1030.69 33.01 1029.95 33.3 1029.24 33.76 1028.09 36.4 1023.71 37.32 1023.37 40.42 1024.55 40.62 1024.47 40.94 1024.09 41.17 1023.75 41.46 1017.66 42.49 1014.7 44.54 1008.09 44.67 1007.54 46.2 1003.75 48.22 997.7 48.07 995.36 50.26 992.24 53.7 990.27 54.77 986.7 55.29 985.78 60.57 980.74 76.44 973.43 71.87 969.92 79.93 964.67 93.15 953.86 101.3 946.5 107.57 942.69 112.88 940.93 122.87 940.29 130.71 941.23 140.9 941.14 148.34 939.42 161.38 935.6 165.41 933.56 175.78 926.38 181.16 921.66 185.35 920.83 199.53 920.12 202.85 919.21 205.98 916.13 208.69 910.74 210.27 904.22 210.12 900.67 207.49 893.54 206.72 889.29 206.71 882.86 207.24 878.24 209.5 873.31 214.86 869.13 220.36 866.07 226 863.83 231.07 863.16 235.99 861.36 241.6 856.26 246.75 844.87 249.81 841.54 257.75 837.68 265.83 835.25 272.18 829.96 285.02 817.61 288.44 815.06 303.76 805.7 310.84 803.54 315.21 804.24 317.96 803.58 332.89 797.76 338.14 796.61 339.83 795.06 342.81 789.58 347.94 786.95 351.64 783.16 352.75 778.36 356.07 770.82 360.92 768.55 368.91 771.72 374.93 773.15 377.33 772.59 386.71 765.42 391.11 764.09 396.95 763.93 404.91 757.03 406.03 754.6 405.91 748.09 398.81 737.54 391.86 733.63 389.47 730.34 387.53 724.01 384.28 718.68 382.41 713.99 371.1 705.12 359.77 699.51 357.37 697.48 351.53 694.57 348.62 691.74 343.55 679.86 340.06 670.57 336.37 663.89 327.41 654.46 322.97 651.44 317.29 650.3 312.96 646.84 302.36 637.05 300.84 634.75 298.08 620.25 294.95 611.18 290.74 600.83 288.37 598.51 283.59 596.43 279.34 592.93 275.79 591.73 262.8 595.84 258.63 595.11 251.27 589.12 246.35 587.22 244.79 584.46 242.23 568.57 240.31 562.92 242.06 557.25 241.76 552.03 244.15 548.07 244.29 539.3 243.25 533.41 243.22 519.27 241.62 509.26 238.51 507.12 226.85 493.42 219.4 489.96 210.15 488.14 207.68 488.31 203.58 490.49 199.22 494.45 192.06 495.02 188.09 493.56 184.77 491.14 181.37 486.07 184.17 480.45 183.01 471.07 180.85 467.4 178.53 462.79 180.43 460.66 183.86 460.29 184.87 458 183.96 450.54 179.36 441.99 183.98 434.09 187.75 431.74 190.19 427.88 190.5 424.49 188.96 423.25 184.63 423.16 181.2 421.98 177.92 415.6 180.46 406.99 183.41 400.41 186.22 398.18 188.16 389.35 182.26 381.93 181.73 378.08 184 375.47 188.17 373.31 190.83 370.29 191.76 364.86 193.69 361.87 197.46 361.5 202.95 363.45 209.09 364.57 211.81 364.28 216.75 356.42 223.69 353.75 227.38 348.35 227.66 343.49 232.32 338.32 235.47 333.03 235.01 329.91 230.32 325.08 229.09 322.66 229.96 318.85 232.25 317.55 239.02 317.16 241.79 318.73 244.88 318.16 245.1 313.74 247.71 310.46 250.92 308.34 251.35 305.89 250.03 302.39 244.5 294.85 240.51 290.76 239.55 288.56 239.54 281.48 238.05 277.2 230.41 270.74 226.06 263.78 222.86 255.72 220.01 252.65 218.62 246.54 218.84 242.94 213.65 242.45 211.73 237.67 213.15 234.98 214.12 228.83 217.52 225.71 223.61 221.98 224.32 220.78 231.72 217.5 236.02 213.48 242.63 211.84 257.07 203.12 259.47 200.58 263.36 198.79 263.12 196.06 268.02 188.28 269.78 182.47 273.05 181.34 276.06 177.74 281.23 174.81 284.42 174.29 290.8 169.56 291.91 166 289.46 164.09 285.06 167.62 281.77 168.63 280.31 165.54 285.76 154.74 288.78 153.08 293.68 152.18 300.84 146.9 302.57 142.67 308.89 140.36 312.05 138.01 321.17 126.73 323.33 120.79 328.42 115.8 332.01 111.16 336.93 98.34 342.77 87.84 342.3 85.21 339.2 82.01 341.63 75.77 342.22 71.9 344.81 67.86 347.66 67.25 349.91 62.88 349.18 60.21 353.3 50.49 356.83 44.85 361.14 40.34 365.47 37.95 367.65 35.06 374.97 29.84 373.09 25.6 374.55 22.85 378.4 21.75 384.06 21.4 388.39 17.36 389.66 12.22 392.75 8.05 406.08 8.09 413.81 4.28 418.25 2.84 420.38 1 Z" fill="none" stroke="currentColor" stroke-width="1"/>
</g>
</svg>