<?xml version="1.0"?>
<svg xmlns="http://www.w3.org/2000/svg" version="1.2" baseProfile="tiny" viewBox="-40.0 -40.0 880.0 830.0" stroke-linecap="round" stroke-linejoin="round">
<g id="state">
<path d="M 1.69 1.17 24.1 1.18 42.08 1.18 63.88 1.13 75.73 1.11 100.32 1.07 119.66 1.07 147.89 1.07 160.09 1.06 168.54 1.02 183.01 1.04 201.05 1.03 219.43 1 230.63 1.03 245.55 1.03 263.72 1.03 287.73 1.02 288.71 2.02 304.44 2.03 310.1 1.98 321.23 1.94 340.65 1.88 358.05 1.83 372.32 1.79 381.73 1.72 401.52 1.66 416.14 1.62 429.72 1.61 442.01 1.57 453.17 1.6 471 1.63 494.78 1.67 506.31 1.69 519.62 1.64 531.55 1.99 535.33 1.92 551.89 1.91 567.68 1.89 582.25 1.9 586.23 1.81 610.64 1.86 613.47 1.89 622.64 1.88 634.29 1.74 638.89 1.72 666.31 1.54 684.73 1.41 694.18 1.37 702.54 1.29 716.75 1.21 733.3 1.15 754.03 1.11 767.67 1.08 787.92 1.01 798.98 1.01 799 18.19 798.99 28.92 799 42.87 798.96 43.84 798.99 53.97 798.97 66.93 793.78 66.95 793.79 76.51 793.81 90.99 793.84 91.29 793.86 102.11 793.88 121.59 793.87 128.87 793.89 140.87 793.86 155.5 793.81 173.12 793.77 188.42 793.74 205.68 793.72 221.4 793.69 232.97 793.67 250.23 793.66 264.07 793.65 276.26 793.61 292.33 793.65 293.28 793.61 298.24 793.57 310.85 793.58 315.28 793.55 330.04 793.52 347.19 793.5 364.86 793.49 381.38 793.52 396.37 793.2 411.7 792.84 428.74 792.61 440.1 792.44 447.65 792.34 454.52 792.24 458.1 791.98 471.36 791.91 473.69 791.55 491.18 791.3 503.02 791.05 514.29 790.76 529.03 790.74 544.7 790.75 564.81 790.72 570.65 790.74 582.32 790.75 594.74 790.74 616.57 790.74 630.76 790.77 638.76 790.77 649.24 790.77 660.67 773.41 660.68 770.83 660.65 749.75 660.68 728.99 660.68 713.59 660.69 699.36 660.7 678.46 660.7 654.58 660.72 644.09 660.72 628.92 660.71 609.78 660.7 590.06 660.69 582.44 660.66 570.84 660.67 567.79 660.65 567.76 661.02 565.47 661.05 557.68 660.73 555.5 660.67 534.82 660.67 524.58 660.66 515.91 660.69 503.06 660.69 483.91 660.64 472.97 660.61 455.03 660.56 431.91 660.51 419.14 660.46 402.87 660.41 390.31 660.37 366.78 660.49 344.9 660.57 335.25 660.62 323.95 660.63 321.87 660.66 321.74 661.42 321.2 661.91 320.16 662.09 319.46 662.65 319.09 663.32 319.27 663.78 320.33 664.51 321.25 664.3 321.83 665.08 321.1 665.86 320.99 666.72 321.29 666.94 322.41 666.53 322.29 667.46 321.18 667.91 321.39 669.12 320.96 669.95 321.08 670.57 322.61 671.23 321.83 671.57 320.93 672.28 319.89 672.61 318.92 673.31 318.31 674.09 318.33 674.59 319.96 675.44 320.45 676.07 319.57 677.68 319.57 678.37 320.59 679.05 320.91 679.7 322.32 680.95 323.29 680.97 324.08 681.26 324.11 681.89 323.61 683.45 323.94 683.81 325.12 683.82 325.88 684.19 327.31 685.74 328.17 685.74 328.73 685.34 329.19 685.64 331.28 686.15 331.71 686.68 332.75 687.31 333.13 688.05 333.85 688.39 333.77 689.23 314.26 689.24 304.44 689.23 279.63 689.26 267.18 689.26 250.88 689.27 232.37 689.25 220.45 689.27 205.93 689.27 186.29 689.26 169.4 689.26 157.29 689.26 142.12 689.26 129.34 689.26 112.08 689.26 112.09 711.07 112.07 726.73 112.07 748.67 99.56 748.68 80.74 748.68 60.59 748.68 48.34 748.68 35.53 748.81 25.99 748.82 1.05 748.79 1.04 726.73 1 722.94 1.07 719.02 1.06 715.32 1.1 701.92 1.17 685.68 1.18 671.16 1.21 658.92 1.24 641.49 1.29 622.53 1.32 615.16 1.32 600.39 1.35 577.34 1.35 567.94 1.38 551.76 1.39 535.86 1.39 518.26 1.36 512.5 1.36 504.5 1.42 489.74 1.46 471.94 1.43 463.79 1.44 456.46 1.47 453.23 1.44 449.08 1.47 439.94 1.49 426.21 1.49 414.96 1.45 396.84 1.46 387.75 1.48 369.41 1.51 359.48 1.52 346.08 1.53 342.78 1.55 326.19 1.58 316.34 1.59 306.72 1.57 295.12 1.67 293.22 1.57 291.3 1.59 272.15 1.59 255.17 1.58 241.75 1.57 228.31 1.46 212.37 1.51 198.48 1.56 177.1 1.54 163.32 1.47 161.5 1.58 150.03 1.58 140.97 1.56 122.42 1.57 111.56 1.6 98.8 1.62 87.24 1.63 70.53 1.65 55.32 1.67 40.1 1.68 21.97 1.68 7.4 1.69 1.17 Z" fill="none" stroke="currentColor" stroke-width="1"/>
</g>
</svg>