<svg viewBox="-109.6552595 -37.605061500000005 7.257942 6.877575000000004" xmlns="http://www.w3.org/2000/svg">
  <path d="M -109.045172,36.998977 L -109.045278,36.951702 L -109.045271,36.841262 L -109.045374,36.703887 L -109.045526,36.588495 L -109.045661,36.473251 L -109.045732,36.34656 L -109.045877,36.258974 L -109.046086,36.16226 L -109.046203,36.079916 L -109.04600429276984,35.93938847593937 L -109.04601,35.870711 L -109.046879,35.783723 L -109.046335,35.769972 L -109.046182,35.665552 L -109.046536,35.503461 L -109.046947,35.398196 L -109.046146,35.277412 L -109.046009,35.175508 L -109.045958,35.073822 L -109.045988,34.945078 L -109.046104,34.799981 L -109.045363,34.785406 L -109.0460860360631,34.770982229475884 L -109.045959,34.683094 L -109.046006,34.610175 L -109.046241,34.535555 L -109.046381,34.4098 L -109.04651930914444,34.38479810344214 L -109.046538,34.283179 L -109.046758,34.207938 L -109.04696,34.068968 L -109.047006,34.00005 L -109.046743,33.862719 L -109.046717,33.777407 L -109.046874,33.673348 L -109.047104,33.604095 L -109.046865,33.57267 L -109.047132,33.548175 L -109.04719,33.49259 L -109.046921,33.430831 L -109.047217,33.295918 L -109.047708,33.184022 L -109.047724,33.12344 L -109.047472,33.079733 L -109.047502,32.946389 L -109.047545,32.825843 L -109.047813,32.703208 L -109.047811,32.631991 L -109.048042,32.457282 L -109.0479910459052,32.345329229640434 L -109.048223,32.289451 L -109.048587,32.145802 L -109.048825,32.013636 L -109.049048,31.920917 L -109.049162,31.810847 L -109.049666,31.687783 L -109.049983,31.586166 L -109.04993,31.558122 L -109.050431,31.528407 L -109.050127,31.499708 L -109.05003312009633,31.33250198923614 L -108.861028,31.332315 L -108.788711,31.332365 L -108.691634,31.333335 L -108.59876,31.333336 L -108.446068,31.333356 L -108.30339111268671,31.33335624320758 L -108.208573,31.333395 L -108.208572,31.499742 L -108.208482,31.618431 L -108.208484,31.783698 L -108.077723,31.783692 L -107.980845,31.78368 L -107.865857,31.783678 L -107.77404,31.783675 L -107.646056,31.783664 L -107.497208,31.783653 L -107.3871505485893,31.783644610487634 L -107.296824,31.783762 L -107.15651061252524,31.783644071282747 L -107.032961,31.783687 L -106.93859474208512,31.783736261467855 L -106.750547,31.783898 L -106.67612,31.783848 L -106.52824131248276,31.783890919946874 L -106.527672,31.790288 L -106.533111,31.792856 L -106.536005,31.798506 L -106.5438796281676,31.803292757150494 L -106.54714,31.807299 L -106.562951,31.811105 L -106.566472,31.813433 L -106.57070272568602,31.810392881812547 L -106.577244,31.810406 L -106.588051,31.822108 L -106.593825,31.824898 L -106.602806,31.825018 L -106.605297,31.82772 L -106.601446,31.839597 L -106.601695,31.84437 L -106.60773,31.846524 L -106.615078,31.846671 L -106.625773,31.856165 L -106.628173,31.86112 L -106.63592,31.866233 L -106.635892,31.871504 L -106.629191,31.883699 L -106.632966,31.88844 L -106.645295,31.894858 L -106.645478,31.898669 L -106.640839,31.904599 L -106.633456,31.90989 L -106.625568,31.912432 L -106.618751,31.917795 L -106.612865,31.920372 L -106.62442,31.925381 L -106.625339,31.930031 L -106.622117,31.936324 L -106.623659,31.94551 L -106.615253,31.948965 L -106.614375,31.955991 L -106.622818,31.952891 L -106.625123,31.95453 L -106.624298,31.961056 L -106.618745,31.966955 L -106.623186,31.972918 L -106.630102,31.971258 L -106.638193,31.976824 L -106.639536,31.980343 L -106.636699,31.985359 L -106.631386,31.989651 L -106.623568,31.990998 L -106.619449,31.994735 L -106.618486,32.000495 L -106.602726,32.000687 L -106.517061,32.00076 L -106.443916,32.001188 L -106.278103,32.001771 L -106.099734,32.002646 L -106.00450493784255,32.00239755589278 L -105.88122143830907,32.001984044137004 L -105.784398,32.001637 L -105.609201,32.001218 L -105.473262,32.000856 L -105.390346,32.000627 L -105.245188,32.000207 L -105.14779867981116,32.00024118244932 L -105.082022,32.000495 L -105.004449,32.000428 L -104.84774,32.000415 L -104.831203,31.999961 L -104.772106,31.997486 L -104.754787,31.997773 L -104.754556,32.000527 L -104.731473,32.000361 L -104.643525,32.000442 L -104.585783,32.000268 L -104.436278,32.000156 L -104.291256070856,32.00007384233092 L -104.176293,32.000016 L -104.09672335410522,31.99997901472779 L -103.915775,32.000147 L -103.757383,32.000194 L -103.649465,32.000234 L -103.532746,32.000341 L -103.375458,32.000334 L -103.215641,32.000512 L -103.196134,32.000312 L -103.06451,32.000424 L -103.06450153378941,32.08705096604176 L -103.064516,32.166483 L -103.06478,32.227095 L -103.064725,32.334654 L -103.064676,32.500115 L -103.064774,32.594236 L -103.064871,32.682699 L -103.064671,32.72696 L -103.064768,32.879355 L -103.06461337442678,32.99813855605656 L -103.062383,33.109832 L -103.060542,33.195252 L -103.058634,33.285011 L -103.055869,33.417539 L -103.055384,33.435256 L -103.05341,33.535712 L -103.052652,33.562882 L -103.05189,33.614899 L -103.05056,33.672168 L -103.048865,33.758294 L -103.046089,33.887434 L -103.043651,34.003639 L -103.043879,34.117237 L -103.043826,34.242418 L -103.043681,34.376328 L -103.043419,34.506321 L -103.0432219203185,34.618234745430925 L -103.043286,34.651771 L -103.042982,34.747361 L -103.042661,34.784966 L -103.042982,34.79215 L -103.042687,34.91396 L -103.042651,35.006356 L -103.042577,35.111209 L -103.042421,35.242048 L -103.042181,35.329771 L -103.042029,35.448921 L -103.041791,35.579745 L -103.041471,35.695683 L -103.041111,35.829235 L -103.040873,35.940148 L -103.041043,36.031051 L -103.040964,36.08622 L -103.041139,36.233906 L -103.041236,36.315916 L -103.04145106191207,36.318146271680696 L -103.041609,36.427932 L -103.0417130940714,36.50036039746634 L -103.00236496896594,36.500501030627795 L -103.002223,36.598726 L -103.002413,36.67552 L -103.002183,36.682864 L -103.002229,36.788621 L -103.002146,36.869968 L -103.002329,37.00015 L -103.08610202193547,37.00018991506236 L -103.239641,36.99963 L -103.342962,36.999436 L -103.500084,36.999097 L -103.625507,36.998629 L -103.733233,36.998008 L -103.796642,36.997431 L -103.868263,36.997145 L -104.007851,36.996134 L -104.215634,36.994754 L -104.250536,36.994644 L -104.338833,36.993535 L -104.408313,36.993474 L -104.429821,36.993751 L -104.614816,36.994129 L -104.644997,36.993379 L -104.755368,36.993515 L -104.875075,36.993298 L -105.000551,36.993262 L -105.029226,36.992727 L -105.119635,36.995395 L -105.220506,36.994974 L -105.307915,36.995132 L -105.488156,36.995459 L -105.623322,36.995704 L -105.707852,36.995919 L -105.80101,36.995614 L -105.903923,36.995551 L -106.014735,36.99524 L -106.164742,36.994767 L -106.2361,36.994249 L -106.34425348909367,36.993953249130826 L -106.47609,36.993548 L -106.62329531145001,36.993095534940394 L -106.707668,36.992835 L -106.75059,36.992461 L -106.86982,36.992497 L -106.877232,37.0001 L -107.059202,37.000037 L -107.196889,37.000027 L -107.31001,37.000016 L -107.394861,37.000233 L -107.534211,37.000033 L -107.670947,36.999921 L -107.780599,37.000059 L -107.844669,36.999795 L -107.937132,36.999691 L -108.15103613047731,36.999722077644925 L -108.29762,36.999721 L -108.484002,36.999423 L -108.573844,36.999282 L -108.739043,36.99884 L -108.875317,36.998839 L -109.045172,36.998977 Z" fill="none" stroke=currentColor stroke-width="1" vector-effect="non-scaling-stroke"/>
</svg>