<?xml version="1.0"?>
<svg width="200" height="200" xmlns="http://www.w3.org/2000/svg" version="1.2" baseProfile="tiny" viewBox="-116.200 -71.200 1032.400 1032.400" stroke-linecap="round" stroke-linejoin="round">
<g id="state">
<path vector-effect="non-scaling-stroke" d="M 25.88 2.98 47.14 3.61 64.2 4.07 84.88 4.52 96.13 4.77 119.46 5.25 137.81 5.63 164.58 6.14 176.15 6.32 184.17 6.41 197.89 6.65 215.01 6.87 232.45 7.06 243.06 7.22 257.22 7.37 274.45 7.52 297.23 7.69 298.14 8.88 313.07 8.97 318.44 8.94 329 8.95 347.42 8.93 363.92 8.9 377.46 8.86 386.39 8.77 405.16 8.67 419.03 8.58 431.91 8.51 443.57 8.4 454.15 8.37 471.06 8.29 493.62 8.14 504.56 8.05 517.19 7.84 528.51 8.12 532.09 7.99 547.8 7.76 562.78 7.5 576.6 7.3 580.37 7.12 603.53 6.76 606.22 6.75 614.92 6.57 625.97 6.17 630.34 6.06 656.34 5.26 673.81 4.68 682.77 4.4 690.71 4.11 704.19 3.65 719.89 3.13 739.56 2.49 752.49 2.06 771.71 1.35 782.2 1 782.91 21.32 783.34 34.02 783.9 50.52 783.91 51.67 784.34 63.66 784.84 78.99 779.88 79.18 780.27 90.48 780.86 107.62 780.9 107.96 781.34 120.76 782.12 143.81 782.4 152.42 782.89 166.61 783.43 183.92 784.06 204.77 784.61 222.86 785.25 243.28 785.83 261.88 786.24 275.57 786.88 295.99 787.4 312.35 787.86 326.77 788.43 345.78 788.51 346.9 788.65 352.77 789.09 367.69 789.26 372.92 789.79 390.39 790.4 410.67 791.04 431.57 791.65 451.1 792.24 468.83 792.49 486.97 792.75 507.13 792.95 520.58 793.05 529.52 793.2 537.64 793.24 541.88 793.46 557.56 793.48 560.33 793.75 581.02 793.93 595.03 794.1 608.36 794.33 625.8 794.87 644.33 795.6 668.11 795.78 675.01 796.21 688.81 796.66 703.5 797.43 729.31 797.92 746.09 798.23 755.55 798.6 767.94 799 781.45 781.5 781.98 778.91 782.02 757.67 782.63 736.76 783.17 721.25 783.56 706.9 783.91 685.85 784.39 661.81 784.91 651.23 785.11 635.96 785.39 616.69 785.71 596.82 786.01 589.15 786.1 577.46 786.28 574.39 786.3 574.37 786.73 572.07 786.81 564.21 786.53 562.01 786.49 541.19 786.74 530.89 786.84 522.15 786.97 509.21 787.11 489.92 787.21 478.91 787.25 460.85 787.32 437.57 787.37 424.71 787.37 408.33 787.35 395.68 787.33 371.99 787.48 349.96 787.55 340.24 787.6 328.86 787.57 326.77 787.6 326.63 788.49 326.09 789.08 325.05 789.28 324.34 789.95 323.96 790.73 324.13 791.28 325.21 792.15 326.13 791.89 326.71 792.83 325.97 793.74 325.86 794.76 326.16 795.02 327.29 794.54 327.17 795.63 326.05 796.17 326.25 797.6 325.82 798.58 325.94 799.3 327.47 800.09 326.69 800.49 325.78 801.32 324.73 801.72 323.74 802.54 323.12 803.46 323.14 804.05 324.78 805.06 325.28 805.8 324.38 807.7 324.38 808.52 325.4 809.32 325.72 810.09 327.14 811.58 328.12 811.61 328.92 811.94 328.95 812.69 328.43 814.54 328.76 814.96 329.96 814.98 330.72 815.42 332.16 817.25 333.03 817.25 333.59 816.78 334.06 817.15 336.16 817.74 336.59 818.37 337.64 819.12 338.02 820 338.75 820.4 338.67 821.4 318.98 821.34 309.07 821.29 284.02 821.18 271.46 821.1 255.01 820.98 236.32 820.8 224.29 820.69 209.64 820.53 189.81 820.29 172.77 820.06 160.54 819.88 145.22 819.65 132.32 819.43 114.91 819.13 114.44 844.9 114.1 863.41 113.64 889.34 100.95 889.12 81.85 888.75 61.41 888.33 48.98 888.06 35.98 887.92 26.3 887.7 1 887.05 1.65 860.97 1.73 856.49 1.91 851.86 2.02 847.49 2.47 831.64 3.03 812.44 3.48 795.28 3.89 780.82 4.46 760.2 5.09 737.8 5.35 729.08 5.8 711.62 6.54 684.37 6.84 673.26 7.38 654.13 7.88 635.32 8.44 614.52 8.59 607.7 8.84 598.25 9.38 580.8 9.98 559.75 10.2 550.12 10.45 541.44 10.58 537.62 10.69 532.72 11.01 521.92 11.47 505.68 11.83 492.37 12.38 470.95 12.68 460.19 13.3 438.51 13.65 426.77 14.09 410.92 14.21 407.02 14.77 387.4 15.13 375.76 15.45 364.38 15.81 350.67 15.97 348.42 15.94 346.14 16.59 323.5 17.15 303.41 17.59 287.55 18.02 271.64 18.45 252.79 18.97 236.37 19.73 211.08 20.18 194.78 20.17 192.63 20.67 179.06 20.98 168.34 21.58 146.41 21.97 133.56 22.43 118.47 22.84 104.8 23.42 85.03 23.96 67.05 24.51 49.04 25.15 27.6 25.65 10.36 25.88 2.98 Z" fill="none" stroke="currentColor" stroke-width="1"/>
</g>
</svg>