<?xml version="1.0"?>
<svg width="200" height="200" xmlns="http://www.w3.org/2000/svg" version="1.2" baseProfile="tiny" viewBox="-289.040 -95.040 1378.080 1378.080" stroke-linecap="round" stroke-linejoin="round">
<g id="state">
<path vector-effect="non-scaling-stroke" d="M 722.42 1186.68 708.63 1173.61 702.71 1167.94 693.92 1159.68 691.36 1157.42 685.51 1151.77 672.99 1140.07 671.54 1138.65 661.28 1129.16 658.99 1126.9 656.14 1124.41 648.18 1116.84 647.64 1116.19 639.99 1109.01 634.37 1103.62 630.97 1100.51 624.6 1094.48 612.25 1082.85 603.11 1074.27 588.66 1060.64 580.21 1052.7 573.64 1046.48 564.98 1038.35 552.83 1026.89 542.35 1017.08 526.65 1002.25 513.79 990.13 497.08 974.39 480.36 958.76 479.33 957.92 464.56 943.73 462.86 942.22 456.89 936.53 441.59 922.18 428.81 910.15 412.08 894.31 394.94 878.13 389.92 873.51 383.36 867.34 378.06 862.28 374.65 859.11 362.03 847.16 359.18 844.67 345.06 831.29 344.76 831.07 327.78 814.82 327.67 814.83 322.33 809.78 316.9 804.84 309.82 798.08 303.68 792.15 299.43 788.45 294.29 783.55 277.66 767.54 273.84 764.36 263.9 754.72 262.92 753.88 256.22 747.62 254.27 745.67 244.53 736.56 237.64 730.1 228 720.99 211.98 705.95 211.53 705.5 195.75 690.6 195.1 689.93 185.79 681.15 179.27 675.18 178.71 674.61 167.17 663.49 162.93 659.55 159.63 656.61 148.07 645.55 146.06 643.69 139.99 637.9 136.45 634.59 129.77 628.56 125.96 624.81 119.2 618.56 117.28 616.55 113.54 613.02 106.07 606.04 98.77 599.19 89.42 590.37 87.13 588.16 81.93 583.37 81.19 582.78 71.16 573.08 65.07 567.49 63.72 566.12 58.44 561.2 53.93 556.94 49.01 552.37 47.41 550.78 40.1 543.88 22.59 527.32 13.34 518.62 1 506.97 1.42 485.79 1.7 475.23 1.76 470.06 1.91 465.63 1.98 460.79 2.66 443.7 3.41 431.73 3.65 428.25 4.19 417.79 4.3 414.23 4.81 404.42 4.95 399.53 5.25 391.96 5.68 379.86 5.9 375.98 6.38 365.45 6.71 359.15 6.91 354.2 7.69 338.05 8.2 326.25 8.37 321.15 8.68 313.96 8.96 306.59 9.43 296.59 9.86 284.31 10.33 274.57 10.75 264.01 11.54 241.68 11.79 232.11 12.48 207.33 12.64 203.57 13.05 190.84 13.8 169.15 14.31 155.11 14.99 138.05 15.34 129.26 15.39 126.94 16.24 105.85 17.09 84.69 17.3 80.81 18.02 64.61 17.98 63.57 18.63 47.41 18.87 42.46 19.57 21.35 20.36 1.07 21.94 1 26.75 1.01 34.24 1.18 46.6 1.65 51.03 1.95 56.69 2.21 61.47 2.35 73.95 2.89 88.88 3.39 103.83 4.16 116.27 4.55 120.56 4.75 126.78 4.96 135.92 5.16 146.13 5.47 154.55 5.76 158.46 5.94 175.78 6.41 183.07 6.66 187.03 6.74 193.06 6.67 200.49 6.66 217.49 6.79 247.41 7.11 247.6 7.18 272.03 7.42 283.07 7.54 287.91 7.62 298.84 7.73 306.88 7.87 319.4 8.03 319.69 7.97 331.47 8.01 342.45 8 347.42 8.11 370.86 8.19 373.32 8.12 381.43 8.16 389.65 8.26 394.97 8.26 397.15 8.51 406.76 8.52 413.9 8.57 436.37 8.75 451.64 8.82 461.49 8.8 468.7 8.91 477.83 8.95 482.09 8.77 491.8 8.71 493.52 8.65 515.86 8.55 518.5 8.72 530.5 8.62 535.69 8.45 543.26 8.44 556 8.31 571.52 8.11 592.95 7.86 606.93 7.73 622.6 7.46 635.37 7.28 645.44 7.07 648.51 6.95 651.06 6.74 653.72 6.7 658.27 6.35 662.8 6.11 668.34 5.69 673.36 5.57 676.38 5.66 690.22 5.99 695.57 6 700.87 6.15 707.1 6.06 711.46 5.9 728.52 5.47 744.65 5.06 746.69 5.03 771.03 4.36 771.13 7.08 771.42 11.78 771.69 19.54 771.77 24.09 772.06 31.41 772.33 41.28 772.71 50.74 772.75 53.62 773.11 65.27 773.34 75.9 773.54 83.46 773.8 90.1 774.37 110.03 774.51 114.46 774.88 129.3 775.43 149.17 775.82 162.8 776.06 172.24 776.65 194.58 776.99 206.74 777.19 216.85 777.71 238.53 778.19 258.35 778.54 268.36 778.5 269.42 778.63 275.52 779.33 300.12 779.5 307.33 779.8 316.93 780.59 345.86 781.17 366.96 781.29 373.47 781.52 381.05 781.9 390.24 782.23 404.46 782.64 419.22 783.16 438.61 783.56 453.9 784.21 477.07 784.96 504.84 785.27 516.81 785.72 534.94 785.99 543.76 786.55 564.46 787.03 582.09 787.33 595.07 787.5 599.51 787.69 606.89 788.29 624.37 788.59 633.9 788.59 638.8 788.78 644.21 789.3 662.36 789.45 669.67 789.83 682.29 789.92 686.7 790.65 708.61 790.9 710.99 790.89 718.3 790.72 720.78 791.32 745.08 791.31 747.39 791.51 754.93 791.94 769.31 792.06 774.36 792.26 777.31 792.83 796.34 792.87 799.62 793.04 804.13 793.39 816.55 793.63 826.92 793.69 831.02 793.99 834.98 794.45 847.6 794.39 847.79 794.66 854.76 794.88 865.32 795.14 874.11 795.49 884.45 795.56 889.35 795.81 896.67 796.4 908.86 797.18 925.64 797.52 933.47 797.84 937.12 798.03 942.42 798.25 952.18 798.2 957.95 798.42 962.79 798.34 967.66 798.41 970.09 798.78 975.03 799 983.77 797.01 984.75 795.94 986.26 794.39 989.96 794.09 991.18 792.72 993.4 792.07 996.2 790.65 996.48 789.48 997.17 788.84 997.97 788.74 998.84 789.67 999.8 790.09 1000.78 789.12 1002.19 788.57 1003.94 787.81 1005.15 786.99 1007.75 787.22 1009.08 786.78 1010.47 785.79 1011.2 785.78 1012.17 784.77 1012.89 783.68 1012.39 781.84 1012.37 779.6 1013.55 776.78 1014.5 773.84 1014.91 772.4 1014.53 770.22 1013.08 769.53 1012.47 768.83 1010.98 768.57 1009.52 767.57 1009.49 765.81 1008.74 764.72 1007.63 763.35 1007.71 762.54 1007.13 762.79 1006.18 763.45 1005.57 763.88 1004.56 763.48 1003.4 761.14 1000.3 760.39 999.52 759.58 999.39 758.1 997.44 756.17 995.93 754.57 993.46 753.86 993.32 753.24 993.7 749.7 992.84 748.77 992.94 747.35 994.52 744.57 996.57 743.51 995.88 742.78 994.51 741.1 994.4 739.06 996 737.02 996.57 736.21 996.49 735.58 995.48 736.81 994.04 736.65 993.55 735.67 992.7 734.82 992.53 732.53 993.11 731.4 992.44 730.1 992.65 729.08 992.38 728.4 992.65 727.04 992.65 725.33 993.62 723.39 994.51 721.88 995.95 721.04 996.4 720.33 996.06 719.41 994.56 718.94 994.32 718.23 995.36 717.65 995.55 715.57 997.1 714.4 998.79 713.37 998.87 712.03 1000.04 710.67 999.5 709.12 1000.22 707.05 1000.48 704.89 1000.95 702.89 1002.59 702.15 1004.13 702.96 1006 703.7 1006.65 704.03 1007.58 704.77 1008.65 704.92 1009.43 704.04 1010.55 704.13 1012.21 705.2 1012.21 706.56 1013.31 706.62 1014.1 705.88 1014.99 704.27 1016.45 703.97 1017.5 704.54 1020.08 704 1021.41 704.44 1022.76 705.58 1024.36 705.97 1025.37 708.31 1029.72 709.11 1030.7 709.1 1033.74 709.74 1034.27 711.15 1036.17 713.19 1037.78 714.17 1039.03 715.39 1039.73 715.49 1040.49 714.57 1041.17 712.84 1041.6 711.57 1042.35 711.06 1043.15 709.92 1043.4 709.6 1044.54 711.06 1046.62 711.11 1047.13 710.09 1049.71 708.92 1051.37 710.72 1053.87 710.52 1056.64 710.67 1057.86 711.53 1059.57 711.07 1060.54 711.27 1062.56 710.92 1064.6 710.14 1067.17 710.13 1067.76 710.73 1068.96 712.16 1070.28 713.36 1071.02 713.63 1072.09 712.95 1074.06 712.4 1075 712.61 1077.5 713.96 1078.63 714.58 1079.49 715.96 1082.28 716.62 1082.48 717.58 1083.91 717.55 1086.46 716.98 1087.87 714.78 1089.21 715.71 1090.26 716.52 1091.94 716.77 1095.35 717.45 1096.87 717.33 1097.59 716.5 1099.05 715.87 1099.22 714.71 1100.64 714.52 1102.54 714.82 1104.46 715.54 1105.84 715.33 1106.9 716.41 1108.2 716.26 1109.49 716.62 1110.14 716.81 1111.6 718.13 1113.42 718.65 1114.76 721.98 1117.9 722.75 1119.64 723.38 1122.89 724.31 1124.56 725.05 1126.31 726 1129.42 726.63 1131.87 726.7 1132.65 726.49 1136.42 726.65 1137.71 727.1 1138.98 727.52 1141 728.23 1143.45 728.22 1144.94 728.7 1146.65 728.65 1148.17 729.12 1149.78 729.26 1151.67 729.91 1152.03 730.32 1153.02 730.45 1154.66 730.71 1155.46 730.89 1157.83 730.82 1159.5 730.26 1162.6 730.47 1163.35 729.72 1165.18 728.82 1165.81 727.04 1166.43 724.16 1166.52 722.28 1167.31 720.53 1169.39 720.32 1169.92 720.88 1170.82 723.73 1172.08 725.05 1173 726.32 1174.55 726.51 1175.76 726.29 1176.57 725.48 1177.65 723.24 1179.51 722.22 1181.39 721.78 1183.36 722.03 1185.58 722.42 1186.68 Z" fill="none" stroke="currentColor" stroke-width="1"/>
</g>
</svg>