<?xml version="1.0"?>
<svg xmlns="http://www.w3.org/2000/svg" version="1.2" baseProfile="tiny" viewBox="-46.900000000000006 -46.900000000000006 893.8 1031.8" stroke-linecap="round" stroke-linejoin="round">
<g id="state">
<path d="M 719.48 937.07 706.44 926.5 700.84 921.92 692.51 915.25 690.08 913.42 684.53 908.86 672.63 899.41 671.26 898.27 661.49 890.61 659.31 888.79 656.59 886.78 649 880.69 648.49 880.17 641.19 874.38 635.81 870.05 632.56 867.55 626.47 862.69 614.63 853.35 605.86 846.46 591.97 835.53 583.83 829.17 577.5 824.18 569.14 817.67 557.4 808.51 547.26 800.66 532.03 788.82 519.54 779.15 503.26 766.61 486.95 754.18 485.94 753.51 471.49 742.24 469.82 741.03 463.97 736.52 448.96 725.14 436.38 715.6 419.89 703.07 402.95 690.28 397.99 686.64 391.49 681.78 386.23 677.78 382.85 675.28 370.32 665.87 367.49 663.91 353.43 653.38 353.13 653.21 336.19 640.44 336.08 640.46 330.74 636.49 325.32 632.61 318.22 627.32 312.07 622.67 307.8 619.77 302.65 615.94 285.93 603.41 282.09 600.93 272.07 593.4 271.08 592.75 264.32 587.86 262.36 586.34 252.51 579.25 245.54 574.21 235.77 567.12 219.51 555.44 219.06 555.08 203 543.52 202.34 543 192.85 536.19 186.2 531.58 185.62 531.13 173.82 522.53 169.49 519.47 166.11 517.21 154.26 508.66 152.2 507.23 145.96 502.76 142.33 500.21 135.47 495.57 131.55 492.67 124.59 487.87 122.61 486.32 118.75 483.6 111.04 478.24 103.51 472.97 93.84 466.2 91.46 464.5 86.08 460.84 85.32 460.38 74.91 452.94 68.6 448.67 67.19 447.62 61.7 443.86 57.01 440.6 51.9 437.1 50.23 435.89 42.61 430.62 24.33 417.99 14.66 411.36 1.73 402.5 1.37 385.74 1.26 377.38 1.12 373.29 1.11 369.78 1 365.95 1.05 352.41 1.36 342.93 1.48 340.17 1.63 331.88 1.61 329.06 1.76 321.29 1.71 317.42 1.74 311.42 1.71 301.85 1.79 298.77 1.87 290.43 1.98 285.44 1.99 281.51 2.17 268.72 2.24 259.37 2.22 255.34 2.27 249.64 2.27 243.8 2.36 235.88 2.33 226.16 2.44 218.45 2.45 210.09 2.4 192.41 2.29 184.83 2.03 165.22 2.04 162.24 1.96 152.16 1.88 134.99 1.86 123.87 1.88 110.37 1.9 103.41 1.86 101.57 1.9 84.87 1.94 68.12 1.99 65.05 2.09 52.22 2.02 51.4 2.04 38.6 2.09 34.68 1.96 17.97 1.97 1.92 3.63 1.81 8.73 1.68 16.68 1.59 29.79 1.59 34.5 1.7 40.52 1.75 45.59 1.73 58.84 1.81 74.68 1.81 90.56 2.05 103.76 2.06 108.32 2.11 114.91 2.13 124.62 2.08 135.46 2.1 144.4 2.15 148.54 2.21 166.92 2.24 174.67 2.3 178.86 2.29 185.27 2.12 193.14 1.98 211.19 1.79 242.94 1.59 243.14 1.64 269.07 1.51 280.79 1.47 285.92 1.49 297.52 1.45 306.06 1.48 319.35 1.49 319.66 1.44 332.17 1.37 343.82 1.29 349.09 1.33 373.98 1.25 376.59 1.19 385.2 1.18 393.92 1.23 399.57 1.21 401.88 1.41 412.09 1.39 419.66 1.4 443.52 1.53 459.72 1.59 470.18 1.58 477.84 1.68 487.53 1.74 492.05 1.6 502.35 1.59 504.18 1.55 527.9 1.57 530.7 1.73 543.43 1.72 548.94 1.62 556.98 1.67 570.5 1.67 586.97 1.65 609.72 1.68 624.56 1.73 641.2 1.72 654.75 1.76 665.44 1.74 668.7 1.69 671.41 1.57 674.23 1.57 679.07 1.37 683.88 1.26 689.77 1.01 695.09 1 698.3 1.13 712.98 1.63 718.65 1.74 724.27 1.96 730.88 2.01 735.51 1.97 753.61 1.98 770.73 2 772.9 2.03 798.73 2.07 798.74 4.22 798.9 7.94 798.93 14.09 798.87 17.69 798.94 23.49 798.9 31.3 799 38.8 798.95 41.07 798.96 50.29 798.86 58.71 798.83 64.7 798.89 69.96 798.85 85.73 798.86 89.24 798.77 100.99 798.73 116.72 798.7 127.51 798.66 134.99 798.58 152.67 798.54 162.31 798.43 170.31 798.3 187.48 798.2 203.17 798.25 211.09 798.17 211.93 798.12 216.76 798.09 236.25 798.05 241.95 798.06 249.55 798 272.46 797.96 289.18 797.89 294.33 797.89 300.33 798.01 307.61 797.92 318.87 797.91 330.56 797.86 345.92 797.81 358.03 797.79 376.38 797.74 398.37 797.7 407.85 797.64 422.21 797.65 429.2 797.62 445.59 797.59 459.55 797.52 469.83 797.57 473.35 797.55 479.2 797.65 493.05 797.68 500.6 797.54 504.47 797.58 508.76 797.59 523.14 797.53 528.93 797.55 538.93 797.52 542.42 797.64 559.78 797.82 561.67 797.61 567.46 797.37 569.41 797.29 588.66 797.22 590.49 797.21 596.46 797.24 607.85 797.22 611.86 797.33 614.19 797.37 629.27 797.33 631.87 797.37 635.45 797.37 645.29 797.33 653.5 797.28 656.75 797.47 659.89 797.58 669.89 797.51 670.04 797.59 675.56 797.52 683.93 797.54 690.89 797.61 699.08 797.55 702.96 797.6 708.76 797.84 718.43 798.16 731.73 798.28 737.94 798.51 740.83 798.55 745.04 798.51 752.77 798.3 757.34 798.39 761.17 798.18 765.02 798.19 766.96 798.41 770.87 798.4 777.79 796.43 778.53 795.34 779.7 793.73 782.6 793.41 783.56 792.01 785.29 791.31 787.49 789.91 787.68 788.76 788.21 788.11 788.83 787.99 789.52 788.87 790.29 789.26 791.07 788.28 792.17 787.69 793.55 786.92 794.49 786.06 796.53 786.25 797.59 785.79 798.68 784.8 799.24 784.76 800.01 783.76 800.55 782.71 800.14 780.92 800.08 778.7 800.97 775.93 801.67 773.06 801.93 771.66 801.61 769.57 800.41 768.92 799.92 768.27 798.73 768.05 797.56 767.08 797.52 765.38 796.9 764.35 795.99 763 796.03 762.23 795.56 762.5 794.81 763.16 794.33 763.6 793.54 763.23 792.62 761.02 790.12 760.31 789.49 759.53 789.37 758.13 787.8 756.27 786.56 754.77 784.58 754.08 784.45 753.46 784.74 750.03 783.99 749.11 784.06 747.69 785.28 744.93 786.86 743.92 786.29 743.23 785.19 741.6 785.08 739.57 786.3 737.56 786.72 736.78 786.64 736.18 785.83 737.41 784.72 737.27 784.32 736.33 783.63 735.5 783.48 733.25 783.91 732.16 783.36 730.89 783.5 729.9 783.26 729.23 783.47 727.9 783.44 726.21 784.18 724.29 784.85 722.79 785.97 721.97 786.31 721.28 786.03 720.41 784.83 719.96 784.63 719.25 785.44 718.67 785.58 716.61 786.78 715.43 788.1 714.43 788.14 713.09 789.05 711.78 788.6 710.26 789.14 708.22 789.32 706.1 789.65 704.12 790.92 703.37 792.13 704.12 793.62 704.84 794.15 705.14 794.89 705.85 795.75 705.97 796.37 705.09 797.25 705.14 798.56 706.19 798.58 707.5 799.47 707.54 800.1 706.8 800.79 705.2 801.92 704.89 802.75 705.39 804.81 704.85 805.85 705.24 806.92 706.32 808.21 706.68 809.01 708.88 812.5 709.65 813.29 709.58 815.7 710.19 816.13 711.52 817.65 713.48 818.96 714.41 819.96 715.58 820.54 715.66 821.14 714.76 821.67 713.06 821.98 711.81 822.55 711.29 823.18 710.18 823.36 709.85 824.26 711.23 825.93 711.27 826.33 710.23 828.36 709.05 829.66 710.75 831.67 710.51 833.86 710.63 834.83 711.43 836.2 710.97 836.96 711.13 838.57 710.74 840.17 709.93 842.2 709.91 842.67 710.47 843.63 711.83 844.69 712.98 845.3 713.23 846.15 712.53 847.7 711.97 848.43 712.13 850.42 713.42 851.34 714.01 852.02 715.29 854.26 715.93 854.43 716.82 855.58 716.75 857.6 716.17 858.71 714.01 859.73 714.89 860.58 715.64 861.92 715.82 864.63 716.44 865.84 716.31 866.41 715.48 867.56 714.86 867.68 713.72 868.79 713.49 870.29 713.74 871.81 714.42 872.91 714.2 873.75 715.21 874.8 715.05 875.82 715.38 876.34 715.54 877.5 716.78 878.96 717.25 880.03 720.42 882.58 721.12 883.97 721.67 886.55 722.54 887.89 723.21 889.29 724.07 891.77 724.63 893.72 724.68 894.34 724.4 897.32 724.54 898.35 724.94 899.36 725.31 900.97 725.94 902.92 725.9 904.1 726.33 905.46 726.25 906.66 726.67 907.95 726.77 909.45 727.39 909.74 727.77 910.53 727.86 911.84 728.09 912.48 728.21 914.36 728.11 915.68 727.52 918.12 727.7 918.72 726.94 920.16 726.06 920.64 724.33 921.11 721.55 921.13 719.72 921.73 718 923.35 717.78 923.76 718.31 924.48 721.03 925.52 722.28 926.27 723.48 927.53 723.63 928.49 723.41 929.13 722.61 929.97 720.41 931.41 719.39 932.88 718.93 934.44 719.13 936.2 719.48 937.07 Z" fill="none" stroke="currentColor" stroke-width="1"/>
</g>
</svg>