<svg viewBox="-120.7064183 -42.70173629999999 7.366900599999994 8.399343599999995" xmlns="http://www.w3.org/2000/svg">
  <path d="M -114.634091,35.002338 L -114.636712,35.008905 L -114.63819,35.022069 L -114.634732,35.033734 L -114.627124,35.044721 L -114.610701,35.055458 L -114.604715,35.061744 L -114.603042,35.06654 L -114.604182,35.073715 L -114.613132,35.083097 L -114.622517,35.088703 L -114.642831,35.096503 L -114.646764,35.101868 L -114.645152,35.104995 L -114.632282,35.117088 L -114.618586,35.121557 L -114.597794,35.121735 L -114.584877,35.125194 L -114.578263,35.12881 L -114.572597,35.139557 L -114.573972,35.14404 L -114.569529,35.162317 L -114.56876,35.172195 L -114.569653,35.186267 L -114.571404,35.191026 L -114.572084,35.200794 L -114.574958,35.206714 L -114.579535,35.208911 L -114.580312,35.220095 L -114.583428,35.229737 L -114.582842,35.238703 L -114.586053,35.248891 L -114.585768,35.257743 L -114.590513,35.272334 L -114.593247,35.284361 L -114.596264,35.291928 L -114.597268,35.299565 L -114.595163,35.321883 L -114.595553,35.326547 L -114.599771,35.34111 L -114.606173,35.359651 L -114.611206,35.370119 L -114.617698,35.380131 L -114.621783,35.39945 L -114.62707386852671,35.40984995719268 L -114.650735,35.428877 L -114.654295,35.436854 L -114.663541,35.447797 L -114.66474231537356,35.45648412465046 L -114.667217,35.46037 L -114.665988,35.467985 L -114.673585,35.475843 L -114.671907,35.482087 L -114.676956,35.490336 L -114.678834,35.50172 L -114.677143,35.512945 L -114.668586,35.521225 L -114.663983,35.522161 L -114.657753,35.530741 L -114.65677,35.534964 L -114.661457,35.544062 L -114.662805,35.564268 L -114.668393,35.574331 L -114.674993,35.580652 L -114.658824,35.588319 L -114.654518,35.596609 L -114.653927,35.611739 L -114.660641,35.620334 L -114.665389,35.621556 L -114.675001,35.638304 L -114.679415,35.643429 L -114.689001,35.65028 L -114.690214,35.665159 L -114.686055,35.670642 L -114.680827,35.682255 L -114.682657,35.688571 L -114.691263,35.693125 L -114.701416,35.701084 L -114.705597,35.708274 L -114.705447,35.711757 L -114.699405,35.726929 L -114.69654,35.738934 L -114.697726,35.750966 L -114.694267,35.756633 L -114.700266,35.766879 L -114.70117,35.774112 L -114.699318,35.79048 L -114.712026,35.805529 L -114.703271,35.815233 L -114.69547011369664,35.83040592701928 L -114.695757,35.833387 L -114.706076,35.845873 L -114.703599,35.852595 L -114.695291,35.853987 L -114.691456,35.858661 L -114.68205,35.86295 L -114.669399,35.86528 L -114.662623,35.869213 L -114.663214,35.873692 L -114.672009,35.878018 L -114.678972,35.88551 L -114.693602,35.895311 L -114.703538,35.906707 L -114.708112,35.909933 L -114.707603,35.92795 L -114.713312,35.933844 L -114.729762,35.959895 L -114.732456,35.965891 L -114.740536,35.975545 L -114.743494,35.983553 L -114.739413,35.991363 L -114.743163,36.006722 L -114.740866,36.012928 L -114.728874,36.021387 L -114.723324,36.026588 L -114.723673,36.03123 L -114.733417,36.037913 L -114.741262,36.038044 L -114.741677,36.047877 L -114.73508,36.054435 L -114.736023,36.059063 L -114.74126880524268,36.06548499677079 L -114.743542,36.071037 L -114.748891,36.074981 L -114.754508,36.086171 L -114.748913,36.095183 L -114.734085,36.104672 L -114.718257,36.107164 L -114.703046,36.108488 L -114.691631,36.112535 L -114.681847,36.109192 L -114.671867,36.115964 L -114.664343,36.1163 L -114.655512,36.126187 L -114.640125,36.135126 L -114.635809,36.13617 L -114.630474,36.142218 L -114.627079,36.140761 L -114.620605,36.131759 L -114.615455,36.129653 L -114.609288,36.132229 L -114.598067,36.140554 L -114.583716,36.14556 L -114.57109,36.151099 L -114.561173,36.150921 L -114.556162,36.15247 L -114.548742,36.150697 L -114.539233,36.151764 L -114.531091,36.147644 L -114.51428,36.150795 L -114.508104,36.149713 L -114.501049,36.144516 L -114.499992,36.141594 L -114.50921,36.133247 L -114.504715,36.127188 L -114.498849,36.126612 L -114.483827,36.12972 L -114.468674,36.138889 L -114.456487,36.138032 L -114.451331,36.129831 L -114.443736,36.125593 L -114.423114,36.13735 L -114.412491,36.146511 L -114.405624,36.146983 L -114.379976,36.141388 L -114.375356,36.143556 L -114.370181,36.142624 L -114.358968,36.127795 L -114.3451,36.118556 L -114.334632,36.106784 L -114.328801,36.105902 L -114.323458,36.101186 L -114.306939,36.082487 L -114.304171,36.07558 L -114.307485,36.069672 L -114.31242,36.066117 L -114.314427,36.060523 L -114.308624,36.056976 L -114.298593,36.057263 L -114.290867,36.050511 L -114.278166,36.045819 L -114.270862,36.045523 L -114.26922,36.036807 L -114.26438,36.027911 L -114.259518,36.024206 L -114.243865,36.015266 L -114.233443,36.012835 L -114.211932,36.014834 L -114.191221,36.020019 L -114.174683,36.02667 L -114.161237,36.026279 L -114.1534,36.02317 L -114.145907,36.027229 L -114.145672,36.03297 L -114.13826,36.03719 L -114.134824,36.045343 L -114.136206,36.053232 L -114.129768,36.068484 L -114.124019,36.075563 L -114.119648,36.085822 L -114.112297,36.09405 L -114.115208,36.099878 L -114.121779,36.105699 L -114.120865,36.11085 L -114.116061,36.115471 L -114.107419,36.119401 L -114.096994,36.120823 L -114.091701,36.137303 L -114.081234,36.150208 L -114.078832,36.157434 L -114.066798,36.179087 L -114.058662,36.187835 L -114.043944,36.19335 L -114.043849,36.245114 L -114.045518,36.27439 L -114.045559,36.288837 L -114.044051,36.317628 L -114.044702,36.346298 L -114.043135,36.380478 L -114.042819,36.438277 L -114.043133,36.469716 L -114.044816,36.491343 L -114.045732,36.537796 L -114.048112,36.637216 L -114.049935,36.709521 L -114.050327,36.752899 L -114.049879,36.781909 L -114.050354,36.843141 L -114.050502,36.895232 L -114.049995,36.957769 L -114.050585,36.999103 L -114.050052,37.000191 L -114.050881,37.074976 L -114.052317,37.098469 L -114.051914,37.122766 L -114.051615,37.184152 L -114.051676,37.257753 L -114.05196,37.284484 L -114.051626,37.303905 L -114.051916,37.416672 L -114.052807,37.434149 L -114.052635,37.464071 L -114.052885,37.549262 L -114.052806,37.593913 L -114.05227,37.607552 L -114.051654,37.751498 L -114.049861,37.766142 L -114.048302,37.809424 L -114.049613,37.823541 L -114.0505,37.953341 L -114.050268,37.979468 L -114.050445,38.05425 L -114.050043,38.097528 L -114.050085,38.205005 L -114.050346,38.237104 L -114.049325,38.26606 L -114.04956144665883,38.32254285904014 L -114.050301,38.426066 L -114.050153,38.4698 L -114.050521,38.496117 L -114.049977,38.572974 L -114.049807,38.677365 L -114.049593,38.799973 L -114.049655,38.85221 L -114.049171,38.959577 L -114.048919,39.030504 L -114.048542,39.194931 L -114.048343,39.332135 L -114.047988,39.42267 L -114.047649,39.537524 L -114.047551,39.624941 L -114.046839,39.709111 L -114.047726,39.763588 L -114.047766,39.808439 L -114.047217,39.846973 L -114.046936,39.971929 L -114.046456,40.143255 L -114.046584,40.200076 L -114.04626,40.242755 L -114.046035,40.388453 L -114.045671,40.424544 L -114.04507,40.43082 L -114.045477,40.49008 L -114.04467,40.60742 L -114.043689,40.735776 L -114.042876,40.795614 L -114.042637,40.867649 L -114.0420235084794,40.99989602496878 L -114.041695,41.055791 L -114.041502,41.136496 L -114.041166,41.254145 L -114.040528,41.34197 L -114.040598,41.368202 L -114.040289,41.486183 L -114.0407263516171,41.525508746040664 L -114.040486,41.570273 L -114.039799,41.633212 L -114.03982384990374,41.70214087653292 L -114.039463,41.719178 L -114.040177,41.775203 L -114.039888,41.833632 L -114.04042,41.876987 L -114.039951,41.903939 L -114.040218,41.949878 L -114.041374,41.977717 L -114.04147667458298,41.99382195691949 L -114.234654,41.994114 L -114.250855,41.994314 L -114.37886,41.994457 L -114.514212,41.994565 L -114.54886,41.994238 L -114.598281,41.994594 L -114.640258,41.996248 L -114.682694,41.997082 L -114.792441,42.000829 L -114.816425,42.001791 L -114.85625,42.001702 L -114.900304,41.999882 L -114.936234,41.999042 L -114.972414,41.997518 L -114.993499,41.997565 L -115.013765,41.9966 L -115.038157,41.996279 L -115.11810619870471,41.99613127133444 L -115.219421,41.996371 L -115.343822,41.996306 L -115.454789,41.996739 L -115.624883,41.996922 L -115.748045,41.996797 L -115.84918780991192,41.99678867362608 L -115.909272,41.997119 L -115.950455,41.996418 L -116.04565132812246,41.99634464642293 L -116.066625,41.9975 L -116.243962,41.997651 L -116.25764,41.997361 L -116.334654,41.997268 L -116.368477,41.99628 L -116.440954,41.996683 L -116.498188,41.997443 L -116.576393,41.997413 L -116.697532,41.997864 L -116.875964,41.998765 L -116.932562,41.998896 L -117.008908,41.998756 L -117.02619937862309,42.000194948290456 L -117.068398,42.000035 L -117.133667,42.000439 L -117.198024,42.000383 L -117.217551,41.999887 L -117.403613,41.99929 L -117.443062,41.999659 L -117.530197,41.999024 L -117.623734,41.998466 L -117.626018,41.998096 L -117.725418,41.99818 L -117.789235,41.998426 L -117.87598,41.998159 L -117.914375,41.998242 L -118.002022,41.997987 L -118.195869,41.997001 L -118.197371,41.997344 L -118.434816,41.995857 L -118.569725,41.994457 L -118.628607,41.993399 L -118.676499,41.992154 L -118.707888,41.992082 L -118.765792,41.992509 L -118.903244,41.992725 L -118.934234,41.993158 L -119.00106,41.993551 L -119.082125,41.993715 L -119.154684,41.993354 L -119.203995,41.993498 L -119.238096,41.993898 L -119.336778,41.993956 L -119.455515,41.995717 L -119.574007,41.995752 L -119.67308,41.996342 L -119.710989,41.996182 L -119.755983,41.996545 L -119.791174,41.997384 L -119.88923430880719,41.99741576610011 L -119.948657,41.996736 L -119.986801,41.995709 L -119.999234,41.994944 L -119.999276,41.874895 L -119.998295,41.749915 L -119.998698,41.720632 L -119.998861,41.624937 L -119.998287,41.618818 L -119.999043,41.522864 L -119.999471,41.499894 L -119.999757,41.37465 L -120.000073,41.249758 L -119.99976,41.236061 L -119.999866,41.183974 L -120.000039,41.082999 L -119.999875,40.999894 L -119.999281,40.871466 L -119.998672,40.796119 L -119.998785,40.77385 L -119.99684760052249,40.62721651439949 L -119.995976,40.57055 L -119.995598,40.438366 L -119.995705,40.37583 L -119.996536,40.318131 L -119.996284,40.245463 L -119.997006,40.186235 L -119.997002,40.142579 L -119.997352,40.099991 L -119.99722,40.069812 L -119.997706,39.999905 L -119.999084,39.904257 L -119.999174,39.874913 L -119.999941,39.83758 L -120.000548,39.775223 L -120.001133,39.752229 L -120.000959,39.680613 L -120.00114,39.635795 L -120.00082,39.606828 L -120.001947,39.548724 L -120.001789,39.527642 L -120.002903,39.465635 L -120.00377409000082,39.44505601168454 L -120.006127,39.374106 L -120.006473,39.272878 L -120.00568598191158,39.24424229134399 L -120.005541,39.218029 L -120.00453,39.187445 L -120.003741,39.12491 L -120.001014,38.999574 L -119.904315,38.933324 L -119.83202525174619,38.883754486132915 L -119.695346,38.789305 L -119.638339,38.749904 L -119.625863,38.740845 L -119.587647,38.714727 L -119.552579,38.690353 L -119.511529,38.662222 L -119.501,38.654374 L -119.453783,38.622405 L -119.375994,38.566793 L -119.37029135486173,38.563385191641046 L -119.330052,38.535961 L -119.312266,38.523286 L -119.239985,38.472629 L -119.183657,38.433268 L -119.125982,38.39317 L -119.097159,38.372851 L -119.082358,38.361267 L -119.030299,38.325334 L -119.000975,38.303675 L -118.94971,38.268965 L -118.922518,38.249919 L -118.875873,38.216456 L -118.86045,38.205773 L -118.771867,38.141871 L -118.746598,38.124926 L -118.714201,38.102105 L -118.625963,38.03774 L -118.621676,38.034438 L -118.571958,37.99993 L -118.500964,37.949023 L -118.496043,37.945146 L -118.375936,37.858663 L -118.372572,37.856012 L -118.250956,37.768622 L -118.177906,37.715635 L -118.125849,37.677986 L -118.052189,37.62493 L -118.037481,37.613538 L -117.986954,37.57702 L -117.979542,37.572141 L -117.904625,37.515836 L -117.875927,37.497267 L -117.750927,37.403598 L -117.712358,37.374931 L -117.680454,37.353283 L -117.634468,37.318526 L -117.581418,37.278936 L -117.540885,37.249931 L -117.500909,37.220282 L -117.500117,37.22038 L -117.373451,37.124932 L -117.371219,37.123614 L -117.266046,37.04491 L -117.244917,37.030244 L -117.151197,36.959868 L -117.125899,36.941186 L -117.0866,36.911314 L -117.037976,36.874943 L -117.000895,36.847694 L -116.874254,36.752081 L -116.750926,36.658377 L -116.656883,36.587088 L -116.544647,36.501971 L -116.500882,36.468223 L -116.48840077158796,36.45921804383838 L -116.380347,36.374961 L -116.372799,36.369924 L -116.250818,36.276939 L -116.129137,36.183176 L -116.035692,36.11087 L -115.921842,36.022349 L -115.845994,35.963707 L -115.758219,35.895161 L -115.695733,35.846481 L -115.648357,35.809211 L -115.587527,35.76163 L -115.483642,35.679897 L -115.418086,35.628389 L -115.329567,35.558509 L -115.283996,35.52222 L -115.25972,35.503541 L -115.21951,35.471103 L -115.164904,35.427867 L -115.161057,35.423958 L -115.104325,35.378387 L -115.084002,35.363394 L -115.067699,35.349736 L -114.994666,35.292511 L -114.984368,35.283975 L -114.895389,35.213328 L -114.853932,35.179247 L -114.835711,35.165559 L -114.773443,35.115678 L -114.731561,35.081386 L -114.634091,35.002338 Z" fill="none" stroke=currentColor stroke-width="1" vector-effect="non-scaling-stroke"/>
</svg>