<svg viewBox="-80.55252800000001 -45.806424 9.486888000000022 6.100895000000001" xmlns="http://www.w3.org/2000/svg">
  <path d="M -74.02316697889852,40.719876950827754 L -74.017105,40.716604 L -74.019215,40.706554 L -74.012691,40.700506 L -74.0001,40.706351 L -73.996357,40.703378 L -74.008243,40.686034 L -74.018828,40.679595 L -74.017819,40.66572 L -74.011663,40.66515 L -74.009855,40.668625 L -74.002315,40.66754 L -73.999994,40.663822 L -74.007575,40.662496 L -74.024367,40.650404 L -74.027596,40.644728 L -74.0329678613999,40.6439865447956 L -74.03310992282748,40.64396693666037 L -74.0369590858168,40.6383284222426 L -74.041712,40.626379 L -74.040191,40.614837 L -74.031384,40.605201 L -74.010926,40.600789 L -73.997084,40.591414 L -73.99836806485288,40.5818456805814 L -74.006027,40.58203 L -74.012865,40.577908 L -74.01147,40.574479 L -74.002001,40.570602 L -73.990899,40.570628 L -73.946295,40.5756 L -73.931968,40.57577 L -73.933123,40.582267 L -73.922742,40.583512 L -73.915839,40.582004 L -73.911437,40.5859 L -73.898677,40.587477 L -73.895545,40.577977 L -73.88348,40.578935 L -73.879222,40.574656 L -73.882437,40.568233 L -73.892091,40.568267 L -73.899751,40.563441 L -73.905844,40.562501 L -73.911243,40.564874 L -73.925461,40.561273 L -73.939917,40.554006 L -73.940542,40.54404 L -73.937988,40.543737 L -73.905141,40.556401 L -73.89623,40.557378 L -73.878843,40.562098 L -73.834491,40.577421 L -73.806834,40.584619 L -73.774928,40.590759 L -73.757903,40.59208 L -73.75104306525908,40.58898149353383 L -73.742686,40.586791 L -73.705146,40.583669 L -73.640902,40.582823 L -73.610873,40.587703 L -73.59257,40.585592 L -73.578303,40.58581 L -73.57056,40.583675 L -73.571791,40.578257 L -73.549121,40.584814 L -73.515308,40.592202 L -73.48491678157289,40.59739364469932 L -73.450369,40.603501 L -73.417311,40.611128 L -73.392121,40.618174 L -73.351465,40.6305 L -73.341766,40.6327 L -73.326262,40.6331 L -73.3114,40.622118 L -73.306396,40.620756 L -73.262348,40.621962 L -73.23914,40.6251 L -73.20844,40.630884 L -73.167614,40.641043 L -73.154421,40.643376 L -73.085456,40.658738 L -73.054963,40.666371 L -73.012545,40.679651 L -72.923214,40.713282 L -72.863164,40.732962 L -72.80782750430241,40.749633653994714 L -72.768152,40.761587 L -72.757176,40.764371 L -72.753112,40.763571 L -72.745208,40.767091 L -72.663082,40.788551 L -72.573441,40.813251 L -72.469996,40.84274 L -72.39585,40.86666 L -72.340031,40.887087 L -72.258697,40.918064 L -72.236045,40.927485 L -72.114448,40.972085 L -72.029357,40.999909 L -71.958819,41.026726 L -71.935689,41.034182 L -71.91694,41.038951 L -71.901418,41.04055 L -71.898565,41.043598 L -71.880502,41.048796 L -71.87391,41.052278 L -71.870701,41.05745 L -71.86114,41.064863 L -71.856214,41.070598 L -71.857494,41.073558 L -71.86447,41.076918 L -71.869558,41.075046 L -71.879789,41.076752 L -71.889543,41.075701 L -71.895496,41.077381 L -71.901146,41.084772 L -71.904329,41.085989 L -71.919385,41.080517 L -71.93825,41.077413 L -71.945864,41.073706 L -71.959595,41.071237 L -71.961563,41.064021 L -71.958041,41.054703 L -71.957256,41.048278 L -71.963513,41.042533 L -71.972232,41.040839 L -71.978736,41.042961 L -71.982126,41.047831 L -71.992638,41.047147 L -71.997237,41.040889 L -72.012337,41.02944 L -72.01693,41.023517 L -72.025498,41.020515 L -72.034521,41.019614 L -72.048772,41.022592 L -72.054564,41.02184 L -72.061252,41.016909 L -72.062913,41.011317 L -72.077494,41.008216 L -72.083039,40.996453 L -72.095456,40.991349 L -72.10216,40.991509 L -72.109008,40.994084 L -72.116368,40.999796 L -72.126738,41.015627 L -72.137409,41.023908 L -72.135137,41.031284 L -72.137297,41.039684 L -72.153857,41.051859 L -72.162898,41.053187 L -72.174882,41.046147 L -72.17949,41.038435 L -72.190563,41.032579 L -72.201859,41.032275 L -72.209213,41.034455 L -72.217476,41.040611 L -72.229364,41.044355 L -72.241252,41.04477 L -72.260515,41.042065 L -72.266733,41.035642 L -72.275875,41.03657 L -72.279724,41.041598 L -72.280892,41.047728 L -72.274046,41.052428 L -72.283093,41.067874 L -72.276239,41.076932 L -72.280373,41.080402 L -72.30181,41.082371 L -72.308088,41.086785 L -72.317238,41.088659 L -72.320447,41.094309 L -72.320998,41.100584 L -72.338999,41.110236 L -72.339163,41.115045 L -72.329716,41.126006 L -72.32663,41.132162 L -72.317119,41.139432 L -72.308801,41.13979 L -72.300044,41.132059 L -72.284469,41.126273 L -72.289306,41.117793 L -72.278741,41.122222 L -72.269346,41.128154 L -72.2608,41.129785 L -72.254744,41.133986 L -72.251816,41.141962 L -72.24258,41.153296 L -72.233927,41.158914 L -72.247003,41.160944 L -72.266947,41.15408 L -72.272997,41.15501 L -72.278789,41.158722 L -72.291109,41.155874 L -72.298949,41.152801 L -72.307525,41.147011 L -72.312775,41.148002 L -72.321635,41.138716 L -72.333351,41.138018 L -72.339234,41.140887 L -72.354123,41.139952 L -72.356087,41.133635 L -72.362285,41.125965 L -72.370122,41.119739 L -72.37551,41.118835 L -72.382555,41.114534 L -72.386119,41.106237 L -72.397,41.096307 L -72.417945,41.087955 L -72.445242,41.086116 L -72.459252,41.06636 L -72.477306,41.052212 L -72.48966,41.049109 L -72.49363,41.046506 L -72.50964,41.040909 L -72.517981,41.040118 L -72.544768,41.022097 L -72.585327,40.997587 L -72.619826,40.986402 L -72.635562,40.981957 L -72.648451,40.981296 L -72.673164,40.978673 L -72.685761,40.980288 L -72.708069,40.977851 L -72.720941,40.97392 L -72.745656,40.968445 L -72.774104,40.965314 L -72.800528,40.966697 L -72.833129,40.970116 L -72.86564,40.964536 L -72.88825,40.962962 L -72.913834,40.962466 L -72.955163,40.966146 L -72.995931,40.966498 L -73.040934,40.964497 L -73.043765,40.962114 L -73.05496,40.964819 L -73.077551,40.972801 L -73.090498,40.972009 L -73.093863,40.969013 L -73.102399,40.969195 L -73.110368,40.971938 L -73.118434,40.977294 L -73.130275,40.968928 L -73.138766,40.966404 L -73.148289,40.966015 L -73.158129,40.967517 L -73.154446,40.961658 L -73.148048,40.95965 L -73.144673,40.955842 L -73.144719,40.944546 L -73.147077,40.928721 L -73.154475,40.927888 L -73.172984,40.921104 L -73.228384,40.905961 L -73.237394,40.909179 L -73.267435,40.914721 L -73.2950614460616,40.9244973436522 L -73.33136,40.929597 L -73.344211,40.926715 L -73.344881,40.924413 L -73.365961,40.931697 L -73.374462,40.937597 L -73.392862,40.955297 L -73.402068,40.954393 L -73.40354,40.931329 L -73.389506,40.923629 L -73.381868,40.92865 L -73.37027,40.930277 L -73.360323,40.925218 L -73.353162,40.924296 L -73.351902,40.918437 L -73.354059,40.912923 L -73.358168,40.911382 L -73.35343,40.902261 L -73.358238,40.898233 L -73.362389,40.90396 L -73.376263,40.912398 L -73.380125,40.900181 L -73.383603,40.90022 L -73.38888732538815,40.9056716065071 L -73.396692,40.908937 L -73.402603,40.905782 L -73.413463,40.904046 L -73.426608,40.906141 L -73.436496,40.911425 L -73.429358,40.92071 L -73.4296842770993,40.9238424172066 L -73.4296896091862,40.9238936078072 L -73.430189,40.928688 L -73.437956,40.934651 L -73.463708,40.937697 L -73.478365,40.942297 L -73.485365,40.946397 L -73.492764,40.941439 L -73.496886,40.925667 L -73.489921,40.919707 L -73.485078,40.908656 L -73.473194,40.892847 L -73.47297,40.881297 L -73.470817,40.875057 L -73.465113,40.870923 L -73.469391,40.86643 L -73.476521,40.871462 L -73.48793,40.877034 L -73.489594,40.884581 L -73.494822,40.894823 L -73.508846,40.893745 L -73.51146,40.887995 L -73.505518,40.875596 L -73.521918,40.873978 L -73.528098,40.878112 L -73.541883,40.876854 L -73.548063,40.886378 L -73.549013,40.894823 L -73.547825,40.903626 L -73.537367,40.904524 L -73.531425,40.909913 L -73.523582,40.909554 L -73.523582,40.897877 L -73.528335,40.892308 L -73.533802,40.890151 L -73.533089,40.8853 L -73.520254,40.886738 L -73.521205,40.890511 L -73.517164,40.901111 L -73.50837,40.90147 L -73.50742,40.908656 L -73.512145,40.911912 L -73.52752,40.916623 L -73.531063,40.91356 L -73.548068,40.908698 L -73.566169,40.915798 L -73.582329,40.909581 L -73.59454,40.90867 L -73.60187,40.902798 L -73.613053,40.902208 L -73.617571,40.897898 L -73.626972,40.899397 L -73.639807,40.89662 L -73.647422,40.884089 L -73.654372,40.878199 L -73.655784,40.864939 L -73.652575,40.858334 L -73.648126,40.85389 L -73.652328,40.850154 L -73.653851,40.844392 L -73.653355,40.836406 L -73.648602,40.828821 L -73.654357,40.828863 L -73.660485,40.834608 L -73.676058,40.854544 L -73.676694,40.857237 L -73.714053,40.869989 L -73.721732,40.865476 L -73.730675,40.8654 L -73.726675,40.8568 L -73.727952,40.852888 L -73.737566,40.848409 L -73.727733,40.838511 L -73.721946,40.837127 L -73.712718,40.83883 L -73.708332,40.833566 L -73.702825,40.832198 L -73.705644,40.822558 L -73.703957,40.817433 L -73.707596,40.813622 L -73.710934,40.805751 L -73.715268,40.808789 L -73.717174,40.81533 L -73.721851,40.82187 L -73.729985,40.823533 L -73.731918,40.82694 L -73.738877,40.82794 L -73.742722,40.832989 L -73.747001,40.833349 L -73.753009,40.838392 L -73.757221,40.833888 L -73.754032,40.820941 L -73.76554,40.810866 L -73.763951,40.806939 L -73.753418,40.799532 L -73.752373,40.786859 L -73.749758,40.784797 L -73.755107,40.776588 L -73.754918,40.767248 L -73.75787,40.766946 L -73.76554,40.774518 L -73.774334,40.786216 L -73.770642,40.788379 L -73.775558,40.795613 L -73.78071,40.795628 L -73.78413,40.790088 L -73.793879,40.789013 L -73.79411155753573,40.80054248014185 L -73.790859,40.806568 L -73.80184,40.810316 L -73.798306,40.816805 L -73.804518,40.818546 L -73.80702,40.825248 L -73.812772,40.824421 L -73.815205,40.831075 L -73.816688,40.843896 L -73.816641,40.853487 L -73.8126,40.8587 L -73.804417,40.861616 L -73.804633,40.85462 L -73.798837,40.854221 L -73.795221,40.857496 L -73.791209,40.868946 L -73.783366,40.871822 L -73.784803,40.878528 L -73.794928,40.88056 L -73.79297909943514,40.88335195512244 L -73.781338,40.885447 L -73.766558,40.89731 L -73.76465,40.90273 L -73.756776,40.912599 L -73.743764,40.917785 L -73.742247,40.927693 L -73.737493,40.928053 L -73.734353,40.921536 L -73.721739,40.932037 L -73.720618,40.940981 L -73.715964,40.944514 L -73.708796,40.944738 L -73.704904,40.940344 L -73.695392,40.95472 L -73.692576,40.953523 L -73.692678,40.944206 L -73.686473,40.945198 L -73.683113,40.949636 L -73.677615,40.964196 L -73.660114,40.96912 L -73.656297,40.979725 L -73.664911,40.983734 L -73.65896816379394,40.98881910874714 L -73.660268,41.000484 L -73.655255,41.012246 L -73.68296,41.045314 L -73.7063041348072,41.0740708211469 L -73.727775,41.100696 L -73.676774,41.124496 L -73.628796,41.146429 L -73.60019,41.159149 L -73.535884,41.188489 L -73.514179,41.198732 L -73.482695,41.212772 L -73.512948,41.250095 L -73.550962,41.295421 L -73.549866,41.301767 L -73.549088,41.325134 L -73.543416,41.376754 L -73.541102,41.406474 L -73.53631320085422,41.44696045899325 L -73.532692,41.497651 L -73.526001,41.571918 L -73.52106772021286,41.619825918329205 L -73.520027,41.640979 L -73.516785,41.687581 L -73.511921,41.740941 L -73.510961,41.758749 L -73.507083,41.800764 L -73.505254,41.824431 L -73.498295,41.892648 L -73.496526,41.922408 L -73.492235,41.967094 L -73.489615,42.000092 L -73.487319,42.049525 L -73.497018,42.049624 L -73.50821,42.086134 L -73.483232,42.154932 L -73.443116,42.264018 L -73.400761,42.379029 L -73.374514,42.450267 L -73.322704,42.590209 L -73.264827,42.745851 L -73.276421,42.746019 L -73.290944,42.80192 L -73.283695,42.813856 L -73.287063,42.82014 L -73.285388,42.834093 L -73.278673,42.83341 L -73.27831294334541,42.837557170101924 L -73.275997,42.892697 L -73.27433866267822,42.9436521736496 L -73.269777,43.035976 L -73.265595,43.095926 L -73.259159,43.216848 L -73.25871609219375,43.22998719081482 L -73.256475,43.260093 L -73.255131,43.30214 L -73.252353,43.372994 L -73.248396,43.470634 L -73.246526,43.526017 L -73.241454,43.532049 L -73.246586,43.541855 L -73.250133,43.543429 L -73.248641,43.553858 L -73.255555,43.559895 L -73.258631,43.56495 L -73.2697,43.57177 L -73.281078,43.574172 L -73.284912,43.579272 L -73.291109,43.577856 L -73.297258,43.579691 L -73.292111,43.584885 L -73.29671,43.587114 L -73.291019,43.599235 L -73.293742,43.605203 L -73.302236,43.611789 L -73.300315,43.617323 L -73.302553,43.625709 L -73.310229,43.624229 L -73.324492,43.627515 L -73.342842,43.626506 L -73.351232,43.622502 L -73.353638,43.625927 L -73.365563,43.623441 L -73.376037,43.612597 L -73.372908,43.603887 L -73.383597,43.596975 L -73.381715,43.592963 L -73.386901,43.59077 L -73.382616,43.585625 L -73.384339,43.575398 L -73.389741,43.574683 L -73.391673,43.57012 L -73.398126,43.568065 L -73.416965,43.577731 L -73.420384,43.581495 L -73.428637,43.583994 L -73.430325,43.590532 L -73.421616,43.603023 L -73.423709,43.612357 L -73.417828,43.620586 L -73.41832,43.623325 L -73.42791,43.634428 L -73.426463,43.642599 L -73.418396,43.648284 L -73.415093,43.65671 L -73.408062,43.669438 L -73.40351,43.683977 L -73.405243,43.688368 L -73.402901,43.692495 L -73.394726,43.697677 L -73.385493,43.711756 L -73.377756,43.717713 L -73.370612,43.725329 L -73.369944,43.743855 L -73.351265,43.769823 L -73.357521,43.785557 L -73.362213,43.789955 L -73.376793,43.799158 L -73.379281,43.808481 L -73.382057,43.812216 L -73.391014,43.818411 L -73.392799,43.822771 L -73.389297,43.831235 L -73.377793,43.838716 L -73.372589,43.845354 L -73.380249,43.851923 L -73.382186,43.857019 L -73.3741,43.875304 L -73.383694,43.891284 L -73.396179,43.903264 L -73.402364,43.919906 L -73.407134,43.928186 L -73.408859,43.934505 L -73.405646,43.948069 L -73.407069,43.968172 L -73.412048,43.977604 L -73.41251,43.982216 L -73.406009,44.011417 L -73.406121,44.016371 L -73.410385,44.026503 L -73.421483,44.031862 L -73.43571,44.04188 L -73.437905,44.045125 L -73.432541,44.062329 L -73.429215,44.079831 L -73.415215,44.101344 L -73.411225,44.113767 L -73.416138,44.132355 L -73.411972,44.13778 L -73.403045,44.144984 L -73.398857,44.161915 L -73.395813,44.166266 L -73.397492,44.170912 L -73.394653,44.177377 L -73.389824,44.181757 L -73.390907,44.18811 L -73.388893,44.192619 L -73.381935,44.197734 L -73.373739,44.200964 L -73.370865,44.204527 L -73.363393,44.207737 L -73.36222,44.212461 L -73.351379,44.22598 L -73.34951,44.230905 L -73.342835,44.234446 L -73.343376,44.23819 L -73.335213,44.240475 L -73.330375,44.244312 L -73.324653,44.243517 L -73.319603,44.249909 L -73.312741,44.265411 L -73.310914,44.274298 L -73.31221,44.280069 L -73.316767,44.287728 L -73.322216,44.301542 L -73.324195,44.310033 L -73.324021,44.333835 L -73.327353,44.34436 L -73.334648,44.356879 L -73.333613,44.3723 L -73.330396,44.376 L -73.317066,44.385991 L -73.312441,44.394706 L -73.310505,44.402601 L -73.296052,44.428334 L -73.293969,44.442579 L -73.300201,44.455551 L -73.298706,44.464453 L -73.299896,44.476651 L -73.304107,44.484585 L -73.306713,44.500335 L -73.320846,44.51363 L -73.321702,44.524395 L -73.329166,44.528892 L -73.332519,44.537082 L -73.338806,44.542926 L -73.338752,44.548046 L -73.342933,44.551907 L -73.356789,44.557919 L -73.360088,44.562547 L -73.367343,44.567605 L -73.37495,44.575817 L -73.375667,44.582038 L -73.381849,44.589316 L -73.377897,44.593849 L -73.376849,44.599599 L -73.382393,44.611346 L -73.38982,44.617211 L -73.385899,44.631044 L -73.387169,44.635543 L -73.378907,44.640958 L -73.383564,44.646142 L -73.378317,44.652165 L -73.379073,44.656772 L -73.370064,44.666071 L -73.372547,44.668184 L -73.371843,44.676957 L -73.367209,44.678514 L -73.370142,44.684855 L -73.365736,44.687169 L -73.361308,44.694524 L -73.365977,44.697559 L -73.365326,44.703294 L -73.365084,44.73383 L -73.365751,44.741062 L -73.363792,44.745254 L -73.354361,44.755296 L -73.347085,44.77298 L -73.336377,44.78148 L -73.333152,44.789588 L -73.335044,44.804109 L -73.353472,44.820386 L -73.365679,44.826451 L -73.375346,44.836307 L -73.379452,44.83801 L -73.381296,44.849861 L -73.379822,44.857038 L -73.371968,44.862415 L -73.369104,44.866681 L -73.360328,44.897236 L -73.356218,44.904492 L -73.339288,44.91691 L -73.338483,44.924112 L -73.339603,44.943371 L -73.338244,44.964751 L -73.350218,44.976222 L -73.354633,44.987352 L -73.350862,44.993049 L -73.343178,45.010713 L -73.43627443797989,45.00921710463821 L -73.652033,45.002989 L -73.74024478355469,45.003152003545836 L -73.77658392684754,45.00299249021975 L -73.87367106854053,45.001239716409444 L -73.992395,44.996933 L -74.149697,44.991374 L -74.2377886597246,44.99213921609222 L -74.335184,44.991905 L -74.45753,44.997032 L -74.54902,44.998699 L -74.64296587681467,44.999445 L -74.663059,44.998923 L -74.67034354262242,45.006105112053476 L -74.673047,45.000942 L -74.683966,44.99969 L -74.70201844463558,45.003321886223816 L -74.722574,44.998062 L -74.731301,44.990419 L -74.74464,44.990562 L -74.760217,44.994945 L -74.763407,45.005613 L -74.793149,45.004645 L -74.801638,45.014569 L -74.813263,45.013543 L -74.817195,45.011728 L -74.826578,45.01585 L -74.834669,45.014683 L -74.846175,45.01029 L -74.856422,45.004524 L -74.862643,45.004591 L -74.86664,45.000536 L -74.877232,45.001362 L -74.888042,44.999658 L -74.90072837000302,44.99275661801628 L -74.907956,44.983359 L -74.947506,44.984583 L -74.972463,44.983402 L -74.99274622419325,44.97745186775625 L -74.99927,44.971638 L -74.999655,44.965921 L -75.005155,44.958402 L -75.027125,44.946568 L -75.059966,44.93457 L -75.064826,44.929449 L -75.096659,44.927067 L -75.105086,44.919541 L -75.117575,44.921342 L -75.134416,44.915102 L -75.139866,44.896684 L -75.165123,44.893324 L -75.188277,44.883212 L -75.194072,44.882625 L -75.203012,44.877548 L -75.218576,44.877569 L -75.228638,44.867891 L -75.241294,44.866948 L -75.255517,44.857651 L -75.27243539598342,44.85344242360277 L -75.283128,44.849148 L -75.307621,44.83681 L -75.301976,44.826637 L -75.333743,44.806375 L -75.344538,44.809139 L -75.369829,44.788065 L -75.369953,44.782883 L -75.387367,44.780026 L -75.397007,44.773471 L -75.413792,44.772534 L -75.423938,44.756327 L -75.477641,44.720224 L -75.50615,44.704893 L -75.5800378335611,44.6491801589514 L -75.618364,44.619637 L -75.6608838843897,44.592876240356 L -75.6967953265262,44.56741280281689 L -75.727052,44.542812 L -75.76651465513906,44.515548127425326 L -75.807765,44.471641 L -75.820819,44.432239 L -75.860046,44.403263 L -75.871496,44.394839 L -75.912985,44.368084 L -75.921719,44.368886 L -75.929465,44.359603 L -75.939664,44.355395 L -75.94954,44.349129 L -75.970178,44.342828 L -75.974833,44.346163 L -75.982394,44.347401 L -76.000998,44.347534 L -76.008361,44.343856 L -76.045224,44.33172 L -76.097351,44.299541 L -76.111931,44.298031 L -76.118136,44.29485 L -76.126565,44.294581 L -76.130884,44.296635 L -76.161825,44.280776 L -76.164258,44.239603 L -76.191324,44.221239 L -76.206774,44.214538 L -76.245487,44.203664 L -76.249661,44.204165 L -76.286546,44.203767 L -76.312639,44.199045 L -76.352679,44.134743 L -76.3556742518994,44.1332528758403 L -76.347308,44.124224 L -76.353667,44.118411 L -76.363835,44.111696 L -76.369699,44.104671 L -76.367009,44.099425 L -76.359243,44.101741 L -76.360373,44.095429 L -76.358575,44.088782 L -76.349714,44.092527 L -76.34496,44.08621 L -76.359065,44.07598 L -76.359687,44.071024 L -76.347491,44.071201 L -76.335754,44.076112 L -76.330667,44.073642 L -76.323385,44.077318 L -76.320521,44.074788 L -76.333732,44.069364 L -76.333812,44.064652 L -76.321486,44.06251 L -76.315347,44.059274 L -76.302165,44.060464 L -76.296344,44.059749 L -76.294978,44.055822 L -76.297806,44.051163 L -76.294836,44.043712 L -76.30004,44.040476 L -76.300306,44.031626 L -76.307674,44.025277 L -76.301345,44.020602 L -76.302481,44.013583 L -76.296487,44.008489 L -76.287821,44.01142 L -76.276459,44.006173 L -76.269672,44.001148 L -76.265882,43.995483 L -76.267744,43.983803 L -76.284114,43.9669 L -76.281393,43.960945 L -76.271862,43.961428 L -76.260584,43.967438 L -76.254449,43.966914 L -76.237226,43.97792 L -76.232126,43.984555 L -76.221598,43.993886 L -76.221798,44.002639 L -76.204016,44.019419 L -76.201164,44.024177 L -76.20502,44.028643 L -76.215522,44.029949 L -76.230112,44.028625 L -76.275487,44.015132 L -76.282217,44.012306 L -76.283859,44.019908 L -76.272706,44.04078 L -76.264732,44.048751 L -76.263436,44.052739 L -76.246657,44.064855 L -76.241692,44.062343 L -76.229948,44.066518 L -76.221574,44.066564 L -76.20164,44.079039 L -76.199976,44.07682 L -76.213494,44.061277 L -76.211384,44.057351 L -76.20428,44.054271 L -76.197124,44.057863 L -76.185031,44.058787 L -76.171224,44.066001 L -76.164062,44.062676 L -76.153679,44.06518 L -76.14685,44.070196 L -76.139608,44.067988 L -76.147438,44.061113 L -76.141278,44.058113 L -76.145649,44.054973 L -76.154794,44.043627 L -76.167651,44.034629 L -76.159718,44.029868 L -76.149724,44.03082 L -76.13981,44.038885 L -76.130677,44.03765 L -76.121928,44.03925 L -76.118753,44.034472 L -76.124506,44.026161 L -76.123358,44.0244 L -76.14039,44.011987 L -76.148637,44.007967 L -76.170741,44.004548 L -76.178257,44.000821 L -76.187501,43.999637 L -76.199447,43.991672 L -76.205995,43.98524 L -76.207586,43.975697 L -76.200463,43.973455 L -76.199811,43.968345 L -76.174782,43.97428 L -76.170741,43.970688 L -76.175019,43.964359 L -76.169553,43.958713 L -76.159004,43.958995 L -76.146022,43.965385 L -76.13628,43.964671 L -76.124156,43.969833 L -76.10015,43.98591 L -76.085068,43.995135 L -76.086044,44.000583 L -76.077772,44.002537 L -76.061034,43.997261 L -76.062303,43.993026 L -76.059062,43.9857 L -76.060063,43.974544 L -76.068565,43.970065 L -76.073621,43.975623 L -76.082981,43.977044 L -76.092903,43.971904 L -76.099741,43.966464 L -76.107348,43.956771 L -76.120722,43.94812 L -76.125042,43.950491 L -76.134358,43.945664 L -76.139069,43.940779 L -76.136663,43.934592 L -76.130446,43.933082 L -76.125846,43.92106 L -76.128196,43.916781 L -76.125023,43.912773 L -76.128136,43.907647 L -76.127285,43.897889 L -76.133267,43.892975 L -76.145506,43.888681 L -76.153155,43.890511 L -76.169083,43.881439 L -76.180604,43.877529 L -76.191875,43.869043 L -76.202257,43.864898 L -76.199216,43.857393 L -76.203012,43.850752 L -76.208467,43.849119 L -76.208658,43.856626 L -76.215016,43.85928 L -76.217845,43.863865 L -76.225005,43.864959 L -76.235136,43.861993 L -76.237363,43.863596 L -76.222892,43.880123 L -76.233163,43.886267 L -76.251915,43.880714 L -76.260289,43.881883 L -76.27469,43.875879 L -76.286004,43.868084 L -76.297392,43.855925 L -76.294819,43.849266 L -76.299064,43.838503 L -76.291955,43.837412 L -76.278006,43.840971 L -76.265409,43.835828 L -76.271113,43.828284 L -76.270008,43.824838 L -76.254238,43.826741 L -76.245919,43.820911 L -76.248534,43.817481 L -76.237363,43.815766 L -76.237566,43.810643 L -76.229268,43.804135 L -76.213205,43.753513 L -76.205436,43.718751 L -76.201031,43.696666 L -76.20197,43.694107 L -76.19658,43.66316 L -76.196596,43.649761 L -76.199138,43.600454 L -76.203473,43.574978 L -76.209853,43.560136 L -76.221234,43.539567 L -76.228701,43.532987 L -76.235834,43.529256 L -76.259858,43.524728 L -76.270216,43.520651 L -76.278098,43.520692 L -76.283744,43.516475 L -76.291258,43.513783 L -76.304422,43.512677 L -76.309673,43.515038 L -76.330911,43.511978 L -76.334317,43.514381 L -76.345492,43.513437 L -76.352527,43.516158 L -76.363604,43.524404 L -76.368849,43.525822 L -76.383127,43.523582 L -76.386423,43.525288 L -76.410636,43.523159 L -76.417581,43.521285 L -76.422219,43.515978 L -76.433809,43.512389 L -76.437473,43.509213 L -76.469724,43.495521 L -76.477082,43.485662 L -76.486962,43.47535 L -76.491703,43.474889 L -76.498369,43.470438 L -76.506858,43.469127 L -76.526321,43.460925 L -76.53181,43.460299 L -76.546831,43.454835 L -76.549602,43.451983 L -76.562404,43.448293 L -76.57498,43.441349 L -76.586571,43.43339 L -76.594959,43.430272 L -76.598907,43.424365 L -76.607093,43.423374 L -76.617684,43.417633 L -76.62202,43.413709 L -76.630774,43.413356 L -76.642672,43.401241 L -76.651038,43.388819 L -76.655695,43.384469 L -76.669624,43.366526 L -76.684856,43.352691 L -76.694026,43.346461 L -76.702538,43.344424 L -76.70978,43.346486 L -76.71823,43.343819 L -76.731039,43.343421 L -76.737334,43.337734 L -76.755784,43.325419 L -76.769025,43.318452 L -76.787949,43.311309 L -76.804302,43.307965 L -76.809131,43.30831 L -76.826182,43.304659 L -76.831053,43.30597 L -76.841675,43.305399 L -76.854976,43.298443 L -76.866522,43.294585 L -76.877397,43.292926 L -76.896207,43.295957 L -76.920465,43.284792 L -76.924391,43.28525 L -76.931982,43.279659 L -76.950964,43.270522 L -76.964542,43.270522 L -76.965429,43.272143 L -76.988445,43.2745 L -76.999691,43.271456 L -77.013168,43.270099 L -77.042559,43.270516 L -77.048691,43.277092 L -77.055429,43.276511 L -77.066085,43.279514 L -77.069876,43.282819 L -77.075458,43.281409 L -77.096051,43.284889 L -77.107075,43.289312 L -77.112998,43.286733 L -77.121016,43.287285 L -77.136398,43.285554 L -77.149641,43.289229 L -77.156029,43.28611 L -77.173088,43.281509 L -77.183362,43.281784 L -77.190746,43.285184 L -77.196188,43.282577 L -77.214058,43.284114 L -77.264177,43.277363 L -77.281038,43.277274 L -77.31052,43.278669 L -77.311816,43.28088 L -77.322052,43.280619 L -77.33525,43.277862 L -77.341092,43.280661 L -77.349475,43.278722 L -77.359637,43.278618 L -77.376046,43.2762243589198 L -77.391015,43.276363 L -77.406467,43.270828 L -77.414516,43.269263 L -77.425457,43.270162 L -77.432365,43.268253 L -77.44202,43.262909 L -77.45428,43.261116 L -77.469712,43.257061 L -77.486879,43.250458 L -77.50092,43.250363 L -77.514321,43.244001 L -77.516365,43.240753 L -77.530053,43.235994 L -77.539548,43.235091 L -77.551022,43.235763 L -77.565075,43.238165 L -77.577223,43.243263 L -77.628315,43.271303 L -77.653759,43.279484 L -77.660359,43.282998 L -77.682252,43.297874 L -77.707683,43.310846 L -77.713625,43.317936 L -77.714129,43.323561 L -77.72803,43.327561 L -77.73063,43.330161 L -77.756931,43.337361 L -77.760231,43.341161 L -77.777813,43.339566 L -77.797381,43.339857 L -77.816533,43.34356 L -77.826999,43.342833 L -77.844256,43.347545 L -77.848146,43.34684 L -77.875335,43.34966 L -77.900917,43.354758 L -77.904836,43.35696 L -77.922736,43.35696 L -77.965238,43.368059 L -77.976438,43.369159 L -77.981369,43.36718 L -77.995593590934,43.36523886717737 L -78.004801,43.368161 L -78.023609,43.366575 L -78.032829,43.367027 L -78.039252,43.370887 L -78.058054,43.369974 L -78.104509,43.375628 L -78.145195,43.37551 L -78.159887,43.374779 L -78.178748,43.370702 L -78.18945,43.371634 L -78.200227,43.37069 L -78.209675,43.371677 L -78.233609,43.36907 L -78.24666,43.369257 L -78.253051,43.37199 L -78.267602,43.372644 L -78.272903,43.371591 L -78.3024,43.371505 L -78.31114,43.373656 L -78.337107,43.372623 L -78.342767,43.373527 L -78.36485,43.37413 L -78.370221,43.376505 L -78.402718,43.374808 L -78.414123,43.375 L -78.428989,43.373111 L -78.447572,43.372038 L -78.451877,43.372679 L -78.473099,43.370812 L -78.482526,43.374425 L -78.488857,43.374763 L -78.511269,43.371796 L -78.51993,43.372361 L -78.547395,43.369541 L -78.599077,43.36139 L -78.634346,43.357624 L -78.686665,43.343435 L -78.696856,43.341255 L -78.715202,43.339007 L -78.728993,43.33903 L -78.77403,43.327523 L -78.808072,43.323129 L -78.815729,43.320648 L -78.834061,43.317555 L -78.836261,43.318455 L -78.851389,43.312215 L -78.883267,43.304315 L -78.908036,43.298889 L -78.930764,43.293254 L -78.955628,43.285283 L -78.988009,43.27781 L -78.998633,43.277032 L -79.019848,43.273686 L -79.063169,43.263654 L -79.07045180817435,43.2624548893857 L -79.05606,43.254156 L -79.055858,43.238554 L -79.052858,43.222055 L -79.057058,43.210654 L -79.048658,43.199655 L -79.052567,43.183655 L -79.052925,43.17346 L -79.046538,43.16232 L -79.042357,43.143654 L -79.044057,43.138049 L -79.052055,43.132055 L -79.056767,43.126855 L -79.069091,43.119956 L -79.061957,43.115362 L -79.057961,43.106957 L -79.064754,43.093205 L -79.075367,43.081355 L -79.074459,43.077863 L -79.00713,43.065757 L -78.999435,43.056057 L -79.005139,43.047056 L -79.011747,43.028956 L -79.023256,43.016356 L -79.019964,42.994756 L -79.011563,42.985256 L -78.975062,42.968756 L -78.961761,42.957756 L -78.93236,42.955857 L -78.918859,42.946857 L -78.909159,42.933257 L -78.905659,42.923357 L -78.90607443912057,42.89932343682571 L -78.891655,42.884845 L -78.887857,42.878896 L -78.890108,42.876669 L -78.882557,42.867258 L -78.872031,42.852113 L -78.865813,42.852882 L -78.857922,42.838781 L -78.859877,42.831954 L -78.86900739110449,42.831666497806005 L -78.86900857198204,42.83164887836331 L -78.86871897960171,42.83096277807838 L -78.8682214796434,42.829784104583 L -78.871932,42.826183 L -78.87132815858965,42.82173612577178 L -78.8685142855154,42.81617216185073 L -78.86805731716429,42.81536910891323 L -78.8632298825465,42.80720748061113 L -78.86214622320871,42.80537536367498 L -78.856456,42.800258 L -78.853583,42.794169 L -78.853455,42.783958 L -78.859731,42.779569 L -78.865698,42.771737 L -78.902264,42.747834 L -78.908194,42.74532 L -78.918157,42.737258 L -78.935527,42.732629 L -78.944158,42.731958 L -78.960255,42.722344 L -78.967663,42.72047 L -78.969489,42.717073 L -78.977782,42.711823 L -78.991159,42.705358 L -79.001347,42.703725 L -79.00616,42.704558 L -79.015004,42.700554 L -79.019717,42.700613 L -79.027091,42.695982 L -79.030598,42.696613 L -79.042934,42.691415 L -79.046754,42.691346 L -79.051971,42.682996 L -79.054116,42.675655 L -79.06043,42.6712 L -79.063023,42.664676 L -79.06376,42.644758 L -79.073261,42.639958 L -79.078761,42.640058 L -79.084917,42.631684 L -79.093285,42.629822 L -79.098208,42.621982 L -79.111361,42.613358 L -79.114747,42.603669 L -79.119703,42.602615 L -79.121921,42.594234 L -79.13049,42.590186 L -79.138569,42.564462 L -79.148723,42.553672 L -79.151872,42.552244 L -79.161043,42.553481 L -79.169827,42.548968 L -79.176306,42.548887 L -79.17983,42.551784 L -79.187059,42.546313 L -79.199409,42.54496 L -79.204504,42.542104 L -79.219128,42.538785 L -79.227407,42.535403 L -79.231627,42.538045 L -79.236439,42.532251 L -79.244062,42.533326 L -79.249667,42.531744 L -79.253703,42.526719 L -79.264624,42.523159 L -79.271343,42.519212 L -79.278033,42.51123 L -79.294299,42.509739 L -79.298161,42.506886 L -79.317865,42.50234 L -79.323079,42.494795 L -79.331312,42.488918 L -79.343806,42.48671 L -79.345098,42.493057 L -79.356744,42.491466 L -79.36213,42.480195 L -79.381943,42.466491 L -79.393204,42.461753 L -79.405458,42.453281 L -79.418508,42.452047 L -79.425718,42.431353 L -79.453533,42.411157 L -79.46271,42.407072 L -79.474794,42.404291 L -79.510999,42.382373 L -79.531439,42.371142 L -79.538336,42.369079 L -79.546262,42.363417 L -79.552368,42.362248 L -79.569767,42.351197 L -79.590883,42.341805 L -79.60589,42.338851 L -79.612468,42.332287 L -79.645358,42.315631 L -79.683047,42.298439 L -79.738922,42.2766 L -79.76188065103746,42.2698805893442 L -79.761755,42.183622 L -79.761855,42.130191 L -79.761954,41.998841 L -79.64715839689813,41.99889146666162 L -79.61083665917201,41.99874037336434 L -79.513771,41.998379 L -79.411731,41.998404 L -79.342342,41.998933 L -79.314215,41.998705 L -79.256451,41.998835 L -79.158413,41.99967 L -79.05247,41.999387 L -78.961378,41.998707 L -78.918896,41.998119 L -78.858195,41.997711 L -78.77283334936197,41.9981297018307 L -78.697253,41.99867 L -78.622876,41.999975 L -78.54576662288136,41.999850158898305 L -78.428779,41.99981 L -78.281027,41.999099 L -78.196149,41.999565 L -78.17709,42.000014 L -78.121515,42.000389 L -78.04042,41.999419 L -77.940354,41.99847 L -77.894351,41.998207 L -77.81754,41.998323 L -77.7132,41.998839 L -77.648719,41.999473 L -77.562856,41.999606 L -77.511961,42.000077 L -77.456577,42.000162 L -77.302933,41.999722 L -77.161419,41.999605 L -77.096069,41.999899 L -76.92705527302466,42.00155488074063 L -76.833997,42.001991 L -76.748524,42.001684 L -76.587682,42.000275 L -76.541361,41.999955 L -76.444997,41.998784 L -76.378705,41.998457 L -76.312718,41.998334 L -76.244503,41.998404 L -76.10584,41.998914 L -75.953727,41.998987 L -75.833213,41.998179 L -75.764683,41.997856 L -75.692904,41.99844 L -75.602709,41.9989 L -75.4831397510443,41.9992466949764 L -75.359645,41.999554 L -75.34088309206572,41.99259605990044 L -75.337546,41.984265 L -75.341878,41.975351 L -75.341591,41.972216 L -75.329089,41.968577 L -75.319537,41.960106 L -75.317533,41.953578 L -75.310941,41.949103 L -75.300874,41.948603 L -75.297518,41.954685 L -75.291423,41.9523 L -75.29158,41.94647 L -75.288525,41.942458 L -75.2789786570042,41.93888378762612 L -75.276948,41.932886 L -75.276721,41.922515 L -75.267734,41.907868 L -75.267296,41.90303 L -75.273035,41.896313 L -75.27136,41.887513 L -75.260623,41.883783 L -75.25746,41.876842 L -75.264072,41.870754 L -75.26159,41.86494 L -75.257584,41.861957 L -75.248793,41.862739 L -75.241147,41.867252 L -75.231143,41.85924 L -75.223166,41.857916 L -75.215409,41.867018 L -75.206467,41.869899 L -75.19917,41.869158 L -75.183343,41.861092 L -75.176318,41.872423 L -75.170565,41.871608 L -75.16795,41.867517 L -75.168055,41.857968 L -75.163965,41.85129 L -75.157655,41.848692 L -75.139876,41.852058 L -75.130478,41.845164 L -75.116595,41.845449 L -75.113332,41.841667 L -75.115016,41.827058 L -75.111841,41.822152 L -75.100565,41.818927 L -75.08988,41.811701 L -75.079362,41.8151 L -75.072248,41.814131 L -75.073515,41.803509 L -75.07907,41.79704 L -75.092638,41.79666 L -75.102214,41.786434 L -75.104711,41.774384 L -75.100197,41.769014 L -75.09281,41.768361 L -75.07577,41.771667 L -75.072464,41.768548 L -75.064758,41.766687 L -75.059633,41.762994 L -75.053197,41.752425 L -75.052679,41.744826 L -75.054721,41.736487 L -75.053557,41.726868 L -75.049848,41.713066 L -75.05311,41.711521 L -75.063394,41.713058 L -75.068917,41.709794 L -75.066817,41.704918 L -75.059936,41.699978 L -75.052627,41.68811 L -75.051252,41.680018 L -75.059425,41.673537 L -75.050207,41.662534 L -75.048488,41.632494 L -75.043635,41.622828 L -75.044274,41.617644 L -75.059731,41.617556 L -75.059728,41.610415 L -75.06823,41.61022 L -75.074354,41.605911 L -75.066955,41.599428 L -75.060012,41.590813 L -75.047246,41.583682 L -75.04049,41.569688 L -75.033188,41.565069 L -75.028435,41.564603 L -75.018804,41.552436 L -75.016466,41.543346 L -75.0247,41.540131 L -75.022699,41.533003 L -75.016797,41.532195 L -75.003212,41.523481 L -75.000956,41.517593 L -75.003682,41.508507 L -74.99933,41.507523 L -74.987491,41.508819 L -74.9837026254258,41.50534595896517 L -74.98227,41.498685 L -74.985629,41.486883 L -74.981804,41.479949 L -74.966984,41.477037 L -74.95823,41.476581 L -74.943415,41.483681 L -74.93236773321318,41.48216819100146 L -74.923366,41.476995 L -74.913694,41.47628 L -74.90978220068307,41.47342818047058 L -74.906553,41.460876 L -74.894768,41.458145 L -74.889098,41.45143 L -74.894855,41.446191 L -74.895128,41.439335 L -74.88901,41.438165 L -74.879388,41.439796 L -74.863142,41.444387 L -74.853909,41.443146 L -74.835857,41.431095 L -74.826858,41.431392 L -74.822584,41.437014 L -74.812488,41.442802 L -74.805158,41.441853 L -74.801403,41.43867 L -74.799256,41.430806 L -74.79423,41.422851 L -74.788286,41.421491 L -74.772707,41.426342 L -74.76156,41.423183 L -74.75461634388691,41.42489417033149 L -74.750936,41.427857 L -74.741456,41.431154 L -74.737203,41.429766 L -74.734863,41.421904 L -74.741735,41.408777 L -74.73601,41.39833 L -74.729028,41.395331 L -74.71948,41.394528 L -74.712308,41.38834 L -74.70881655218675,41.37981546418416 L -74.694104,41.370105 L -74.689754,41.361747 L -74.69558,41.357607 L -74.641582,41.332941 L -74.53673582577827,41.28528602785363 L -74.491263,41.263469 L -74.455269,41.247185 L -74.396701,41.218505 L -74.365967,41.202442 L -74.346416,41.192734 L -74.299911,41.171871 L -74.267017,41.157721 L -74.234288,41.143008 L -74.21125232461476,41.1337239711996 L -74.168138,41.115307 L -74.09233,41.081906 L -73.951858,41.019468 L -73.902682,40.997326 L -73.893984,40.997172 L -73.896144,40.981873 L -73.909112,40.945894 L -73.914253,40.92796 L -73.9183165706618,40.917704866647036 L -73.929821,40.888682 L -73.933788,40.882207 L -73.952565,40.851537 L -73.954194,40.848003 L -73.963577,40.826642 L -73.97115183020857,40.8162689320599 L -73.984739,40.797662 L -74.012952,40.759026 L -74.01728264154497,40.74417992751563 L -74.02316697889852,40.719876950827754 Z M -72.037695,41.251282 L -72.025917,41.251026 L -72.017122,41.255425 L -72.010178,41.255255 L -72.002461,41.252867 L -71.995358,41.256154 L -71.990064,41.262611 L -71.983137,41.26682 L -71.961562,41.27683 L -71.949978,41.279347 L -71.935259,41.280579 L -71.92876,41.285062 L -71.928233,41.288854 L -71.939376,41.291263 L -71.942982,41.287286 L -71.942293,41.282705 L -71.948438,41.282461 L -71.954056,41.284987 L -71.977368,41.279307 L -71.984477,41.281505 L -71.992972,41.279556 L -71.99435,41.270507 L -72.006941,41.262306 L -72.009775,41.26622 L -72.007872,41.270946 L -72.020281,41.275194 L -72.022864,41.264355 L -72.029438,41.26309 L -72.031645,41.257843 L -72.037695,41.251282 Z M -72.142929,41.097811 L -72.137743,41.092982 L -72.12056,41.093171 L -72.1064,41.088883 L -72.103152,41.086484 L -72.097136,41.075844 L -72.0972,41.054884 L -72.086999,41.059031 L -72.086427,41.068815 L -72.082571,41.073162 L -72.085482,41.078447 L -72.085863,41.090398 L -72.077109,41.096708 L -72.077929,41.099873 L -72.087339,41.100942 L -72.092891,41.103999 L -72.114475,41.110487 L -72.121101,41.115139 L -72.125973,41.121182 L -72.128352,41.108131 L -72.133266,41.103681 L -72.139963,41.101612 L -72.142929,41.097811 Z M -72.211393,41.176562 L -72.211999,41.173544 L -72.204397,41.171787 L -72.197319,41.165468 L -72.186805,41.183104 L -72.178653,41.18407 L -72.172972,41.187296 L -72.189141,41.188311 L -72.208683,41.179428 L -72.211393,41.176562 Z M -74.04412521062186,40.68868663614176 L -74.04366853234373,40.689025351841394 L -74.04716587525725,40.69085164384246 L -74.046248,40.689319 L -74.04412521062186,40.68868663614176 Z M -74.026288,40.686317 L -74.024638,40.683943 L -74.013429,40.687953 L -74.012132,40.690679 L -74.0195,40.693382 L -74.026288,40.686317 Z M -74.255629,40.507919 L -74.254588,40.502303 L -74.250188,40.496703 L -74.246688,40.496103 L -74.23324,40.501299 L -74.219787,40.502603 L -74.208899,40.511462 L -74.200783,40.513207 L -74.194803,40.510141 L -74.1845,40.519459 L -74.177986,40.519603 L -74.156975,40.528984 L -74.142169,40.537293 L -74.141916,40.541833 L -74.135683,40.546373 L -74.129467,40.545379 L -74.128107,40.541221 L -74.116401,40.547959 L -74.11298,40.547982 L -74.108199,40.554251 L -74.104993,40.554482 L -74.092672,40.565555 L -74.076031,40.578301 L -74.053556,40.5995 L -74.053125,40.603678 L -74.064082,40.616882 L -74.071862,40.624038 L -74.073578,40.637781 L -74.071494,40.642838 L -74.079042,40.648171 L -74.086485,40.648601 L -74.093813,40.646082 L -74.106805,40.645903 L -74.127466,40.639878 L -74.134414,40.642091 L -74.1544,40.63718 L -74.161433,40.638687 L -74.174258,40.64463 L -74.187715,40.642636 L -74.20058,40.631448 L -74.201812,40.619507 L -74.196096,40.616169 L -74.195407,40.601806 L -74.19682,40.597037 L -74.204054,40.589336 L -74.20371,40.584965 L -74.212243,40.557213 L -74.218902,40.554568 L -74.228258,40.555405 L -74.247808,40.543396 L -74.241732,40.531273 L -74.244341,40.518484 L -74.251925,40.513872 L -74.255629,40.507919 Z M -73.7724178973261,40.8595369572044 L -73.77156,40.847161 L -73.765621,40.855657 L -73.7724178973261,40.8595369572044 Z M -73.792287998482,40.8554424402514 L -73.791124,40.847185 L -73.785637,40.838021 L -73.781534,40.838948 L -73.782169,40.846718 L -73.787905,40.854078 L -73.792287998482,40.8554424402514 Z M -76.187253,44.013777 L -76.176557,44.017196 L -76.169427,44.022494 L -76.173467,44.024716 L -76.185114,44.016683 L -76.187253,44.013777 Z M -76.336539,44.034548 L -76.329033,44.034184 L -76.321942,44.03661 L -76.329628,44.044296 L -76.336539,44.034548 Z M -76.3559740350339,43.8800949275693 L -76.35387,43.878463 L -76.34395,43.883797 L -76.341019,43.879539 L -76.334297,43.878567 L -76.32708,43.88187 L -76.314305,43.898447 L -76.307487,43.905376 L -76.302894,43.917231 L -76.313963,43.913706 L -76.315124,43.905478 L -76.321751,43.902945 L -76.330977,43.902754 L -76.344997,43.894143 L -76.3559740350339,43.8800949275693 Z M -76.381711,44.039633 L -76.375737,44.033599 L -76.360929,44.033594 L -76.348305,44.038416 L -76.341828,44.052038 L -76.351727,44.054445 L -76.359702,44.051515 L -76.367935,44.052695 L -76.378471,44.04591 L -76.381711,44.039633 Z M -76.445999,43.890255 L -76.439149,43.887812 L -76.433378,43.891491 L -76.427888,43.890841 L -76.4077,43.899997 L -76.401472,43.901134 L -76.39019,43.907771 L -76.383792,43.917388 L -76.379412,43.921099 L -76.3906,43.921888 L -76.406359,43.920705 L -76.426579,43.908342 L -76.445999,43.890255 Z" fill="none" stroke=currentColor stroke-width="1" vector-effect="non-scaling-stroke"/>
</svg>