<?xml version="1.0"?>
<svg width="20" height="20" xmlns="http://www.w3.org/2000/svg" version="1.2" baseProfile="tiny" viewBox="-64.000 -158.500 928.000 928.000" stroke-linecap="round" stroke-linejoin="round">
<g id="state">
<path d="M 580.35 579.07 580.86 575.79 581.24 573.79 583.97 568.52 585.28 565.98 586.01 564.57 586.88 561.67 587.03 561.19 588.82 557.02 589.19 556.14 590.25 552.21 590.62 550.82 591.07 548.4 592.24 543.53 592.39 541.48 591.51 541.48 586.42 538.66 571.91 530.71 564.09 526.44 559.65 524.09 557.28 522.91 553.91 521.03 550.52 519.22 545.74 516.54 543.72 515.29 540.56 513.21 534.53 509.51 530.83 507.42 526.16 504.6 515.41 498.45 509.88 495.26 510.45 494.69 509.99 493.58 508.48 492.31 508.1 491.18 507.36 490.36 506.39 490.28 505.68 489.89 505.07 488.5 505.72 486.72 505.46 485.67 505.03 485.5 504.08 485.96 503.72 486.36 503.02 486.61 501.89 486.21 500.33 486.89 499.73 486.72 499.2 485.67 498.96 484.61 498.57 484.2 497.83 484.08 496.83 484.88 496.41 485.64 495.5 485.7 493.65 484.12 492.71 483.97 491.08 484.62 490.12 484.86 489.5 484.72 489.51 483.8 490.07 483.08 489.48 482.19 488.29 481.85 487.93 480.17 487.53 479.8 486.55 479.72 485.63 479.04 484.51 478.86 483.03 479.84 482.15 479.8 480.65 479.43 480.24 478.51 480.55 476.92 480.39 476.03 480 475.57 478.81 475.77 478.37 475.64 478.62 474.42 478.38 473.63 476.99 472.49 476.39 472.39 476.17 471.44 476.99 470.99 476.74 469.78 475.74 468.16 475.26 468.11 474.51 467.5 473.8 465.64 472.49 464.7 471.77 463.56 471.01 462.7 471.62 462.12 472.48 462.07 472.46 461.12 474.01 461.08 474.07 460.38 473.56 459.09 473.31 455.07 472.36 453.61 473.16 452.72 473.01 451.64 472.24 450.06 471.54 449.41 471.32 448.76 471.86 448.31 472.9 448.5 473.23 448.29 472.82 446.44 472.68 445.15 472.87 444.03 472.8 443.01 472.12 441.61 471.6 441.12 470.82 440.88 470.48 440.47 468.78 440.94 468.04 440.87 467.57 440.16 467.79 438.54 468.73 437.15 470.09 437.07 470.63 436.2 470.74 434.77 470.02 434.65 468.97 435.12 467.88 434.17 466.74 433.76 466.41 433.11 466.55 431.15 466.21 430.64 464.82 430.71 463.86 429.8 462.09 430.28 461.45 429.94 461.02 429.05 461.01 427.77 460.74 427.23 460.16 427.13 459.48 428.66 457.88 427.6 457.15 427.51 456.26 427.91 455.5 429.15 454.69 428.98 453.67 427.92 452.92 428.54 452.04 428.66 451.63 428.27 451.37 427.49 452.02 426.66 451.69 425.74 450.6 425.25 450.42 424.07 450.98 423.16 450.92 422.52 449.99 420.56 449.95 419.17 449.73 418.37 448.77 417.91 448.46 417.37 448.46 416.59 447.85 416.28 447.52 417.1 446.51 417.05 445.84 416.46 445.63 415.59 444.66 414.46 443.4 413.99 443.36 413.57 443.78 412.37 443.43 411.26 441.54 410.35 429.18 410.56 417.22 410.75 408.19 410.91 401.01 411.06 394.15 411.08 382.09 411.07 366.87 411.18 352.99 411.31 346.17 411.35 339.57 411.35 332.93 411.32 323.29 411.17 318.65 411.13 302.56 410.93 294.01 410.86 284.7 410.89 267.78 411.03 261.24 411.03 247.08 410.9 231.71 410.7 226.17 410.65 221.07 410.66 212.48 410.57 206.03 410.58 195.59 410.5 187.9 410.4 183.3 410.3 173.28 410 165.17 409.73 159.61 409.68 157.7 409.71 149.21 409.6 134.42 409.2 122.72 408.94 115 408.74 107.55 408.73 99.99 408.62 91.44 408.45 85.37 408.23 81.12 408.04 72.01 407.69 61.41 407.34 51.59 407.15 45.81 406.98 43 406.86 36.05 406.71 25.84 406.36 16.12 405.98 12.49 405.83 1 405.42 1.67 387.79 1.94 380.62 2.36 369.05 4.68 368.23 10.36 365.51 14.2 363.34 17.55 361.22 18.24 360.36 19.74 360.02 21.89 358.83 23.67 357.41 24.29 357.27 25.1 356.54 25.8 356.29 27.88 354.85 31.58 352.04 32.8 351.7 33.73 351.19 36.59 348.57 37.4 345.82 38.7 345.69 39.95 344.6 41.09 344 43.12 342.23 43.71 340.73 44.87 340.55 44.97 341.41 46.22 341.15 47.06 340.39 47.61 339.4 49.59 338.85 49.99 338.48 51.61 338.33 52.3 337.28 52.99 336.77 54.09 336.33 54.51 335.67 55.07 335.47 55.82 335.64 56.33 334.88 56.73 335.25 57.57 334.82 59.03 334.42 59.55 334.05 60.78 333.91 61.52 333.19 61.86 333.59 62.5 333.6 63.39 333.02 64.3 333.22 64.62 333.03 65.67 331.62 66.57 328.19 67.44 327.67 67.69 326.55 68.19 326.43 68.56 325.14 69.9 324.02 70.42 322.98 71.25 322.76 71.9 321.65 72.44 321.68 73.4 321.06 73.55 318.39 73.84 317.53 74.48 316.95 74.72 315.97 75.27 314.86 75.65 314.86 76.89 314.2 77.23 314.3 77.98 313.7 78.45 313.72 79.34 313.21 79.81 313.33 80.83 313.14 82.17 312.31 83.01 311.63 83.21 311.18 83.95 310.95 85.58 309.7 86.43 309.64 88.17 309.06 89.18 308.01 89.78 307.69 93.48 304.58 94.1 303.54 94.74 302.97 94.76 301.6 94.5 300.78 93.95 300.08 93.85 299.83 93.41 298.72 93.37 298.61 93.11 297.86 93.06 297.26 93.44 296.78 93.4 296.62 93.37 296.53 94.28 296.52 94.49 295.6 93.77 293.69 93.15 293.78 92.16 291.72 91.45 290.43 91.68 290.14 91.33 289.33 89.96 287.35 90.09 284.13 89.78 282.79 88.88 280.94 87.58 279.69 84.69 279.36 83.42 277.84 79.89 275.53 79.1 274.23 78.86 271.32 80.04 269.66 80.76 267.25 81.36 266.06 80.64 264.74 74.06 262.92 73.99 262.45 75.08 260.89 75.8 259.06 75.44 257.92 74.76 257.29 76 256.4 76.48 255.71 77.29 254.93 77.48 254.18 77.14 251.67 76.56 250.15 76.63 248.79 77.08 246.65 76.3 245.15 76.76 243.63 76.53 241.41 76.57 239.32 75.19 238.16 75.91 238.02 80.2 236.8 82.29 236.41 83.34 236.34 86.54 235.43 89.01 234.42 91.26 233.73 93.7 233.07 96.86 232.09 98.36 231.3 98.57 231.42 100.38 231.06 101.14 230.74 104.49 230.24 108.94 228.81 110.29 228.85 112.1 228.6 113.1 228.33 118.27 226.55 121.74 226.13 126.82 225.16 129.52 224.84 130.37 224.94 132.57 224.59 133.19 224.65 134.1 225.16 136.18 224.95 136.6 225.05 138.43 224.94 139.89 224.72 141 224.77 144.19 224.61 144.71 224.94 146.87 225.07 147.42 225.2 149.96 225.12 150.81 225.42 153.7 225.47 154.22 225.34 155.65 225.46 156.26 225.84 157.54 225.89 159.89 225.58 160.81 225.73 161.87 225.63 162.92 225.77 164.77 225.26 166.21 225.19 170.2 225.25 174.73 226.09 176.57 226 177.19 226.53 178.09 226.6 179.94 226.42 180.83 226.83 182.23 226.59 182.72 226.33 183.81 226.5 187.95 228.06 189.7 228.08 190.08 228.39 192.57 229.11 195.23 229.53 195.61 229.44 197.29 230.1 198.32 230.01 200.19 230.54 202.1 230.61 203.83 230.42 204.14 230.93 206.71 231.93 206.96 232.29 208.31 232.84 208.35 233.6 208.92 234.56 211.39 236.33 213.51 238.35 214.15 238.83 216.63 239.96 221.6 243.79 222.78 244.48 224.15 244.82 225.28 244.93 226.21 244.81 227.56 244.19 227.77 243.76 229.09 242.92 230.47 242.92 232.16 242.05 233.68 241.52 234.89 241.3 235.84 240.59 236.52 240.34 237.59 240.47 238.38 240.27 239.9 239.54 241.37 239.57 242.98 239.27 243.98 239.26 244.8 239.01 245.37 239.39 246.67 239.03 247.67 239.01 247.8 239.3 250.69 239.52 252.34 239.52 257.26 238.65 259.01 238.87 259.55 238.52 260.27 238.99 261.27 239.03 262.95 238.42 263.58 238.01 264.88 238.51 266.38 238.29 267.17 238.37 267.75 238.03 268.83 238.63 270.85 239.1 271.39 238.92 271.76 239.36 272.81 239.77 273.47 239.7 274.06 240.58 276.94 240.66 278.27 240.48 279.37 240.08 281.63 240.4 281.71 240.62 283.04 240.63 284.91 239.41 285.66 238.66 286.04 238.73 288.43 237.24 290.27 237.65 291.33 237.43 292.47 236.92 293.77 235.99 294.81 235.92 295.29 236.09 296.96 235.61 297.44 235.65 299.04 235.21 300.9 234.26 302.2 233.32 304.01 231.67 304.62 230.91 305.88 230.86 306.71 230.51 307.42 230.78 308.25 230.51 309.15 229.68 310.64 227.82 312.01 225.41 312.46 224.83 313.28 223.17 314.45 221.54 315.3 221.49 315.73 220.97 316.77 220.2 317.57 220.06 317.95 219.27 318.77 218.85 319.91 217.79 321.14 216.85 322.39 216.36 322.66 215.98 324.13 215.24 324.66 215.16 326.56 214.05 327.39 213.88 328.04 213.28 328.51 213.22 329.47 211.83 330.19 210.51 333.33 208.67 333.69 208.24 334.82 207.76 335.27 207.04 335.95 206.79 338.32 206.5 338.64 206.73 340.03 206.42 340.54 206.61 341.63 207.72 342.32 208.08 343.41 207.95 343.74 208.27 345.81 207.85 346.33 208.17 347.61 208.02 348.35 207.65 348.89 207.08 349.66 207.09 350.67 206.54 353.02 205.92 353.71 205.42 354.44 204.53 355.53 201.76 356.15 199.77 356.56 196.35 356.77 189.73 356.77 187.93 356.22 183.78 356.31 183.44 355.87 180.48 355.09 175.82 353.5 169.03 352.69 168.16 352.71 167.47 351.62 167.25 351.87 166.79 351.06 166.01 349.53 166.27 349.42 165.81 349.97 164.79 348.75 164.11 347.39 164.59 346.7 164.44 347.11 163 346.86 162.11 347.96 160.47 349.05 159.42 350.44 158.61 351.26 158.76 353.08 158.01 354.08 158.83 352.68 161.05 352.9 161.27 353.88 160.87 354.58 161.01 354.85 161.62 355.47 161.98 355.49 162.98 356.02 162.76 356.39 161.87 356.09 160.86 357.09 160.3 358.18 159.16 359.3 158.63 360.84 157.4 361.58 157.65 362.77 157.06 363.34 156.4 363.25 155.09 363.55 154.4 363.24 153.87 363.46 153.29 363.01 151.68 362.41 151.48 362.17 150.65 362.62 149.99 363.52 149.34 363.94 149.66 365.23 148.49 365.96 147.18 366.62 146.45 367.58 145.75 368.49 145.94 368.98 146.68 369.8 146.07 369.89 144.58 369.57 143.6 369.69 143.03 368.06 142.33 367.26 142.6 367.36 143.33 365.91 144.57 363.59 146.74 362.42 147.44 361.48 147.35 360.22 148.22 359.2 148.26 358.67 147.5 359.08 146.65 358.68 146.17 356.26 146.98 356.19 146.3 355.5 146 355.65 144.72 356.28 143.85 357.43 142.78 358.33 142.61 359.05 142.11 361.19 141.64 361.99 141.1 363.63 139.42 363.52 139.19 364.07 138.07 363.76 137.43 362.91 137.65 362.03 137.49 361.07 138.57 360.1 138.71 359.33 138.07 360.57 136.86 361.45 135.33 361.87 134.91 361.27 134.51 362.02 133.58 361.32 133.29 360.66 133.96 359.66 134.31 358.97 133.86 357.63 134.84 356.47 134.97 355.77 135.45 355.09 135.04 354.88 134.52 356.18 132.42 356.01 132.13 354.09 133.81 353.28 133.82 352.15 134.38 351.67 134.05 350.05 135.68 349.93 136.22 349.16 137.29 348.09 140.1 348.25 141.11 348.9 140.73 353.29 138.9 354.7 138.72 355.72 138.89 356.1 139.49 355.82 140.13 354.11 142.39 354.13 143.56 353.12 144.82 352.63 145.71 350.97 147.2 350.37 147.13 349.28 147.94 348.36 148.01 348.09 147.21 349.67 144.93 349.84 143.37 349.47 142.61 348.81 141.94 347.71 141.24 346.87 141.63 346.29 140.95 346.4 140.01 345.78 139.38 346.49 138.53 346.51 137.34 347.02 136.9 346.72 135.91 347 135.28 346.86 134.75 346.3 134.66 345.02 134.82 344.43 134.39 343.23 134.11 343.24 133.47 344.52 132.74 344.24 132.4 343.53 132.9 343.04 132.57 341.91 133.23 340.73 133.26 340.79 132.59 342.15 131.22 341.68 130.37 340.83 130.88 340.65 129.98 340.76 129.14 340.01 129.45 339.75 128.75 340.31 127.8 341.29 126.9 341.91 126.12 341.09 124.91 341.38 124.71 345.22 116.06 347.74 115.42 351.3 115.36 351.7 115.42 355.43 113.95 356.92 113.04 359.52 110.56 359.73 105.03 362.7 102.89 363.12 103.16 363.93 103.12 364.52 102.69 365.93 102.48 370.92 98.13 374.46 96.48 375.17 95.98 376.96 95.99 377.69 96.15 378.14 96.59 380.12 95.73 381.07 94.88 382.05 94.31 382.78 93.06 383.62 93.16 387.59 89.53 388.68 88.39 392.42 84.47 393.62 79.17 397.53 73.24 401.28 69.54 404.15 66.21 407.55 62.75 411.59 59.11 415.21 55.1 422.19 47.54 424.89 45.44 429.96 40.53 430.9 38.34 432.51 38.19 433.41 37.29 435.07 36.89 435.07 36.19 437.45 33.33 438.49 33.68 441.48 30.91 440.92 29.56 443.23 27.86 444.24 27.27 445.85 26.68 447.19 25.41 448.39 25.26 449.33 23.95 450.81 23.93 451.66 23.23 452.21 23.14 454.39 21.75 456.8 21.25 457.27 18.77 458.86 17.91 460.06 18.13 460.84 17.1 463.87 16.72 464.32 16.03 467.42 14.36 469.49 12.73 469.99 11.71 470.01 10.94 470.62 10.15 472.53 9.31 474.91 9.11 478.68 9.19 479.34 7.92 480.53 6.97 481.55 6.72 482.57 6.81 482.93 6.25 483.53 6.25 484.49 5.46 485.57 4.84 486.34 4.67 487.24 5.2 487.61 4.95 488.71 4.79 489.55 6.1 492.38 5.91 492.72 7.34 494.21 7.89 495.48 7.88 496.29 6.84 498.23 6.08 499.96 6.53 501 6.34 501.24 5.64 501.96 6.59 503.87 6.47 512.82 6.35 521.54 6.35 533.21 6.73 542.48 6.43 550.88 6.29 565.83 5.08 577.12 4.13 586.36 3.58 589.82 3.44 598.22 3.16 618.73 1.55 627.59 1 626.95 3.4 626.62 4.18 627.1 5.66 628.3 7.15 628.29 10.03 628.5 12.61 628.46 13.58 626.91 15.31 626.56 16.3 625.89 20.43 625.63 21.01 624.91 21.77 624.81 22.73 625.05 24.32 625.45 24.53 626.43 25.82 627.62 26.58 629.47 28.7 629.73 30.64 629.47 31.74 628.49 32.92 627.89 35.32 627.04 36.71 626.87 37.28 626.98 38.25 627.11 42.35 627.08 43.12 627.55 43.51 627.16 44.51 626.75 44.84 627.07 45.68 626.63 45.91 626.61 47.09 626.86 47.36 626.04 48.64 626.14 49.26 625.67 50.09 626.14 50.76 625.38 51.52 625.53 52.12 625.22 53.99 625.97 54.75 626.56 56.31 626.49 57.08 626.13 57.71 626.77 58.66 626.87 59.49 627.64 60.56 628.36 61.22 628.7 61.82 630.07 62.58 630.49 63.08 630.51 63.77 631.14 64.53 631.51 65.62 632.25 66.19 632.39 67.63 633.82 69.36 634.15 71.47 634.6 72.51 634.78 74.15 634.69 75.35 635.36 77.06 635.23 78.98 633.98 82.49 633.84 83.56 633.44 84.75 632.21 86.14 631.92 86.65 631.9 88.72 632.67 90.37 633.05 91.77 633.16 94.97 633.39 96.1 633.99 97.93 634.47 98.95 634.63 99.71 634.5 100.91 633.92 103.02 633.47 103.9 632.91 103.81 632.47 104.35 631.69 104.69 631.76 105.19 631.14 105.69 630.98 106.35 630.01 108.21 629.92 108.85 629.22 109.31 628.96 109.8 628.18 110.26 627.54 110.97 627.37 111.59 627.5 112.43 627.06 113.04 626.82 113.92 627.01 114.54 626.73 115.13 626.42 117.42 625.59 118.42 625.22 119.16 625.79 121.64 625.47 123.32 624.22 126.26 623.99 128.62 623.56 130.95 623.79 131.38 625.22 132.67 626.32 133.35 626.79 134.69 626.82 135.36 626.35 139.3 626.41 139.92 626.94 141.16 627.19 143.86 626.95 145.69 627.15 146.53 627.65 147.62 628.34 149.83 629.61 151.39 630.63 153.5 629.94 155.99 630.15 156.66 630.93 157.52 630.46 158.43 629.38 159.47 629.08 160.62 629.28 161.2 630.18 162 630.47 162.49 630.76 163.73 632.23 164.91 632.7 165.48 633.4 167.57 631.71 171.13 631.75 173.62 631.09 174.67 630.37 175.49 629.54 177.42 628.77 178.14 628.57 178.71 628.76 179.29 628.39 181.26 627.77 182.99 627.49 184.14 626.73 184.93 626.63 186.03 627.63 187.48 627.69 187.85 627.16 188.98 627.41 190.22 626.62 191.93 626.82 192.8 627.64 193.11 627.99 193.6 629.88 194.82 630.5 194.52 630.66 193.91 631.19 193.79 631.3 192.41 630.86 191.74 631.35 191.42 631.15 190.89 632.15 189.92 631.8 188.77 632.77 187.27 633.92 186.89 634.17 187.34 634.97 186.77 636.75 186.57 638.16 186.95 638.9 186.73 639.16 187.84 639 188.59 639.87 189.44 640.16 190.23 639.67 191.88 640.13 192.16 639.66 192.88 640.27 193.1 640.87 192.89 641.27 193.56 642.39 193.84 643.51 194.71 643.83 195.38 644.54 196.16 644.45 197.56 644.81 197.76 645.36 199.06 644.9 199.89 645.01 207.33 645.15 220.44 645.26 229.96 645.35 235.61 645.29 239.66 645.32 241.43 645.33 257.68 645.24 265.74 645.28 278.14 645.38 284.99 645.45 292.4 645.43 292.95 644.76 292.89 644.67 294.77 645.04 295.6 644.38 297.23 646.11 304.67 647.26 304.65 642.34 325.76 637.92 344.73 635.67 354.39 632.03 369.98 628.56 384.76 626.4 394.08 627.69 398.94 628.66 398.92 628.68 405.56 628.57 410 628.36 416.01 628.33 420.01 627.96 429.18 627.89 432.37 627.7 438.02 627.69 440.41 627.45 447.59 627.35 453.85 627.35 456.69 627.08 463.14 626.76 473.12 626.63 479.94 626.34 485.39 626.24 489.38 625.91 496.33 625.95 499.47 625.86 500.32 629.93 506.27 633.17 511.16 630.04 513.16 627.89 514.61 621.51 518.78 618.67 520.58 613.9 523.69 608.83 527.05 611.13 530.55 613.63 534.33 616.59 538.67 616.13 540.27 616.32 541.83 615.74 542.53 616.63 543.04 616.29 544.47 614.53 545.19 614.04 547.17 613.72 547.77 613.09 547.93 613.06 546.68 612.77 546.53 611.86 548.49 611.45 547.91 610.72 547.96 610.26 548.45 610.19 549.66 608.95 551.11 608.6 550.24 608.12 550.31 608.01 551.64 606.71 552.38 605.95 553.73 605.78 554.46 604.32 556.1 603.15 556.42 602.96 556.8 604 557.04 604.18 557.94 603.39 558.35 603.03 559.9 602.68 560.35 602.08 560.31 602.08 559.38 601.26 559.79 600.87 560.51 600.9 561.79 601.11 563.51 601.38 564.39 601.97 564.26 602.25 565.15 602.89 565.37 602.56 566.25 603.69 566.72 603.39 567.53 603.46 569.08 604.45 568.9 604.77 568.15 605.3 568.14 605.83 569.09 605.46 569.39 606.41 570.93 607.23 571.92 607.53 571.87 607.47 570.62 607.98 569.5 607.7 569.23 607.54 567.54 606.43 566.58 606.25 566.06 607.38 564.67 607 562.94 607.41 562.32 608.05 562.98 608.48 563.01 608.9 563.68 609.61 563.79 609.82 564.24 610.66 564.44 611.16 565.3 611.39 566.17 611.84 566.56 612.15 565.49 612.5 564.97 612.31 564.29 612.55 562.99 611.99 562.82 611.52 562.13 610.58 562.39 609.99 562.22 608.94 560.93 609.9 560.3 610.01 559.77 609.57 558.63 610.48 558.59 611.24 557.95 615.1 559.54 615.18 559.9 616.86 562.52 617.51 563.27 618.09 563.26 617.57 562.26 617.49 561.19 617.62 560.41 618.03 559.89 617.56 559.31 617.2 558.44 617.28 556.65 617.96 555.84 618.68 554.13 619.98 553.71 620.94 553.88 621.38 553.29 622.52 553.17 623.24 552.36 624.47 552.19 626.09 551.3 627.97 552.19 629.67 551.48 630.02 551.06 631.61 551.63 632.1 552.05 632.04 553.02 631.15 553.1 630.78 554.54 630.9 555.04 629.6 555.28 629.5 554.63 630.05 554.32 630.51 553.56 630.45 551.99 629.65 551.97 629.07 552.71 628.01 552.87 627.93 554.06 628.07 555.19 628.74 556.44 630.14 556.22 630.79 556.76 632.45 556.48 631.79 554.84 632.03 554.06 633.45 553.86 634.03 555.22 634.24 556.22 635.42 556.93 636.17 557.58 636.59 556.96 635.99 556.43 635.74 555.6 635.66 554.05 634.38 551.97 633.83 550.51 633.09 549.73 633.44 547.6 634.17 546.91 634.9 547.44 636.41 548 639.05 548.31 639.87 549.09 639.94 549.73 639.99 550.15 639.31 551.42 640.34 552.1 641.69 552.33 642.78 552.06 643.37 551.61 644.18 552.02 644.75 552.73 645.1 552.72 645.43 551.07 646.89 552.15 647.34 552.9 647.81 552.35 647.28 551.14 647.69 550.92 647.88 550.17 647.72 549.39 646.99 549.29 645.95 548.65 644.78 548.91 644.03 549.61 642.56 548.63 642.6 545.53 643.53 545.38 645.49 547.68 646.39 548.44 648.57 549.34 648.62 549.03 649.92 548.59 653.64 549.14 656.5 550.35 659.58 550.97 660.52 551.37 666.08 549.12 667.92 548.14 668.67 547.99 668.83 545.86 668.77 544.35 668.41 543.85 667.75 543.61 667.34 542.83 668.35 543 669.32 542.91 670.17 542.53 671.33 541.36 672.18 542.05 673 542.38 673.87 542.37 674.2 541.96 675.51 541.8 677.85 542.78 679 543.09 679.28 542.76 683.84 542.31 687.99 542.18 692.21 542.5 694.81 542.33 697.1 542.02 700.38 541.13 703.71 541.44 706.41 541.51 709.28 540.96 711.76 540.12 713.05 539.53 715.3 539.1 716.59 539.26 719.09 538.8 720.4 538.65 721.97 537.98 725.41 536.32 729.38 532.84 731.99 530.3 732.83 530.15 734.42 529.33 734.81 528.96 736.05 528.48 737.79 526.5 739.09 523.78 741.85 523.4 743.92 522.18 744.96 520.79 745.27 519.66 745.95 519.05 746.49 518.9 747.25 518.03 747.83 516.97 747.99 516.11 749.49 515.91 750.1 516.27 751.29 516.12 752.13 514.83 752.67 514.93 753.5 514.11 754.27 513.66 755.5 513.22 756.11 513.69 756.73 513.78 758.71 512.76 760.05 512.96 759.21 513.76 758.35 515.33 758.11 516.41 757.52 517.01 756.66 517.27 755.75 518.11 754.71 518.76 755.14 517.6 753.52 516.9 752.58 515.91 751.74 516 750.83 517.02 750.55 517.86 749.67 519.38 749.71 520.02 751.6 521.23 751.7 522.07 752.06 522.81 753.01 523.02 753.67 523.58 755.86 523.73 756.3 524.18 755.67 525.43 756.69 527.46 756.03 528.12 756.18 528.94 756.61 529.59 757.54 529.67 758.13 528.78 760.07 528.32 761.28 528.31 762.52 528.75 763.4 529.54 764.16 529.79 765.3 529.7 766.39 528.85 766.8 527.79 767.97 526.79 768.9 526.92 770.67 528.47 770.94 529.58 770.76 530.58 771.91 531.64 773.07 533.71 773.86 534.44 774.57 534.75 775.25 534.73 776.48 533.98 776.96 532.38 778.42 531.88 778.55 531.13 779.2 530.43 779.78 530.3 781.25 530.62 782.16 530.45 783.01 530 783.44 529.18 784.89 527.57 785.31 526.7 786.37 526.55 786.75 527.19 787.43 527.44 788.3 527.17 788.9 526.36 788.77 525.5 788.35 524.27 788.5 523.29 789.87 522.89 790.62 522.35 792.51 521.83 794 521.01 794.33 521.16 794.96 522.12 795.58 522.31 796.56 522.12 797.61 522.29 798.12 522.01 798.85 522.42 799 522.81 798.54 523.61 797.62 524.66 797.34 525.37 796.69 525.87 794.89 526.67 794.63 527.09 793.06 527.39 791.19 528.14 788.89 529.26 781.91 533.24 773.45 537.42 761.39 544.03 759.14 545.41 751.07 549.97 745.51 552.98 738.11 556.55 727.75 561 718.76 564.73 710.52 567.98 709.73 568.48 709.31 568.4 708.21 568.82 704.23 570.6 698.68 573.07 692.66 575.97 683.72 580.86 679.46 582.82 676.39 583.97 669.42 586.3 668.09 586.67 663.97 588.19 660.86 589.09 658.5 589.6 654.01 589.93 653.49 589.77 651.91 588.35 650.33 588.46 649.35 588.8 645.26 590.6 642.71 591.64 639.37 592.78 635.87 593.73 632.78 594.53 629.36 595.64 627.07 596.6 627.17 595.87 626.37 595.61 624.91 595.69 623.03 595.47 619.98 596.23 613.41 596.33 609.56 596.04 608.69 595.77 607.98 595.38 606.24 595.61 603.01 596.54 600.21 597.59 595.73 599.79 593.97 600.48 593.07 600.64 589.76 602.44 589.49 602.4 589.52 601.07 590.97 600.05 592.41 599.52 592.97 599.82 593.59 599.68 594.35 599 595.34 598.98 595.64 598.11 595.19 597.55 593.96 597.71 593.6 596.45 592.3 596.7 591.87 597.24 591.16 597.06 590.1 597.25 590.24 598.12 588.78 598.19 584.24 598.99 583.1 599.03 582.12 598.54 581.96 598.08 582.64 597.51 583.43 597.51 583.52 596.22 582.07 595.01 579.96 594.47 579.02 593.21 578.82 591.66 579.26 590.05 579.63 589.28 579.65 589.28 580.19 589.16 580.5 588.39 582.17 586.72 582.94 586.52 582.69 586.03 581.91 585.9 581.74 586.37 581.11 586.32 580.95 584.46 582.01 583.56 583.15 581.2 582.76 580.81 581.5 581.64 580.81 580.84 580.98 579.49 580.35 579.07 Z M 779.3 499.55 779.87 498.64 780.05 497.92 780.71 497.72 780.9 496.25 782.18 496.75 782.02 497.4 782.34 497.91 783.55 496.74 783.63 495.52 784.48 495.21 785.21 495.47 787.53 494.58 788.12 494.89 788.74 494.82 788.63 494.21 788.97 493.66 790.12 493.92 790.09 494.43 789.46 495.07 787.98 495.31 786.83 495.72 784.72 497.17 784.04 497.78 783.55 498.67 782.86 499.15 782.06 498.87 781.36 498.89 780.5 499.52 779.3 499.55 Z M 769.7 520.7 769.97 520.17 770.64 519.86 771.11 519.24 771.26 517.47 771.79 518.26 772.5 518.85 774.73 519.61 775.32 519.99 776.28 520.08 776.39 520.5 775.54 521.39 775.66 523 776 523.69 775.63 524.29 775.64 525.61 774.64 526.22 774.5 523.41 773.81 522.01 773.47 521.7 772 521.2 770.26 521.32 769.7 520.7 Z M 762.22 510.48 762.47 510.08 764.39 508.79 766.04 508.84 765.48 509.31 764.66 509.48 763.72 511.9 762.96 511.09 762.18 510.89 762.22 510.48 Z M 578.34 583.31 578.12 583.24 578.02 583.03 578.38 583.27 578.34 583.31 Z M 580.17 583.58 580.83 582.61 581.59 582.95 581.47 583.32 580.34 583.89 580.17 583.58 Z M 557.38 608.16 557.74 607.35 558.5 606.71 558.72 604.99 558.06 603.38 560.01 601.72 560.97 601.8 561.64 601.43 562.42 597.68 562.37 597.1 563.08 596.04 563.2 595.4 563.08 593.48 562.49 593.04 562.57 591.44 563.84 589.9 565.21 589.6 566.54 590.36 567.27 590.54 569.29 589.83 570.01 590.1 572.1 589.24 573.42 589.17 574.16 588.81 574.92 588.85 575.72 589.54 575.52 590.23 575.75 592.07 576.57 593 577.74 594.74 577.72 595.31 575.5 598.21 573.85 599.97 572.63 601.49 572.3 601.53 571.83 602.39 571.48 602.4 570.31 603.34 570.16 602.78 569.52 602.67 568.9 603.3 568.89 603.91 567.4 605.06 565.29 606.38 564.62 606.42 563.6 607.69 562.98 607.3 562.15 607.56 561.07 608.77 559.7 608.99 558.34 609.72 557.98 609.65 557.51 608.91 557.38 608.16 Z M 605.34 559.55 606.05 560.05 605.48 561.21 605.34 559.55 Z M 603.34 560.16 603.79 560.33 604.41 561.3 604.5 562.34 604.09 562.48 603.49 561.27 603.34 560.16 Z M 357.45 140.88 357.65 140.49 358.78 139.4 359.17 139.7 358.48 140.41 357.45 140.88 Z M 342.98 138.15 343.65 136.84 344.39 137.87 343.71 138.19 342.98 138.15 Z M 341.16 158.88 342.22 156.99 343.57 155.83 344.47 155.8 345.11 155.46 345.22 154.36 346.29 153.88 345.85 155.47 345.19 156.41 343.96 158.63 343.26 159.08 342.61 158.95 342.32 158.38 341.36 159.1 341.16 158.88 Z M 338.61 137.48 338.92 136.63 339.94 135.72 340.73 135.88 341.5 135.48 342.46 135.8 341.84 137.63 340.62 138.28 339.19 138.29 338.61 137.48 Z M 332.42 157.54 334.3 155.11 336.26 153.44 337.78 153.28 338.87 153.38 338.45 153.88 337.83 155.17 336.74 156.07 336.13 156.22 334.17 157.45 333.64 157.37 333.08 157.86 332.42 157.54 Z" fill-rule="evenodd" fill="none" stroke="currentColor" stroke-width="46.400"/>
</g>
</svg>