<?xml version="1.0"?>
<svg width="20" height="20" xmlns="http://www.w3.org/2000/svg" version="1.2" baseProfile="tiny" viewBox="-64.000 -235.000 928.000 928.000" stroke-linecap="round" stroke-linejoin="round">
<g id="state">
<path d="M 580.27 434.63 580.86 432.18 581.3 430.68 584.15 426.78 585.52 424.9 586.28 423.86 587.23 421.7 587.4 421.34 589.29 418.25 589.69 417.59 590.85 414.66 591.26 413.63 591.78 411.82 593.09 408.19 593.31 406.64 592.43 406.63 587.47 404.39 573.29 398.09 565.64 394.72 561.28 392.86 558.96 391.92 555.66 390.44 552.33 389.01 547.64 386.9 545.67 385.92 542.56 384.3 536.65 381.41 533.02 379.76 528.43 377.56 517.85 372.75 512.4 370.26 512.98 369.84 512.55 369 511.06 368.02 510.71 367.16 509.98 366.53 509.02 366.45 508.32 366.15 507.74 365.1 508.43 363.77 508.19 362.98 507.77 362.84 506.81 363.17 506.44 363.47 505.74 363.64 504.61 363.32 503.04 363.81 502.44 363.67 501.93 362.87 501.71 362.08 501.34 361.76 500.6 361.66 499.58 362.25 499.15 362.81 498.24 362.84 496.41 361.63 495.48 361.5 493.84 361.96 492.87 362.13 492.25 362.01 492.28 361.32 492.86 360.79 492.29 360.11 491.1 359.84 490.77 358.57 490.38 358.28 489.4 358.21 488.5 357.69 487.38 357.53 485.88 358.25 485 358.21 483.51 357.91 483.12 357.21 483.46 356.02 483.31 355.35 482.93 355 481.74 355.13 481.3 355.03 481.57 354.11 481.34 353.52 479.97 352.64 479.38 352.56 479.18 351.84 480.01 351.51 479.77 350.59 478.8 349.37 478.32 349.32 477.58 348.85 476.9 347.44 475.61 346.72 474.91 345.85 474.16 345.2 474.78 344.76 475.64 344.74 475.64 344.02 477.2 344.01 477.26 343.49 476.77 342.51 476.6 339.48 475.67 338.37 476.5 337.72 476.36 336.9 475.62 335.7 474.92 335.2 474.71 334.71 475.27 334.38 476.31 334.54 476.64 334.38 476.26 332.99 476.14 332.02 476.35 331.17 476.3 330.41 475.65 329.34 475.13 328.97 474.35 328.78 474.02 328.47 472.3 328.8 471.55 328.73 471.1 328.19 471.35 326.98 472.32 325.94 473.69 325.9 474.25 325.25 474.38 324.18 473.66 324.08 472.6 324.42 471.52 323.7 470.38 323.37 470.06 322.87 470.23 321.4 469.9 321.02 468.5 321.05 467.55 320.35 465.75 320.69 465.12 320.43 464.71 319.75 464.72 318.79 464.45 318.38 463.87 318.3 463.16 319.44 461.56 318.62 460.83 318.55 459.93 318.84 459.14 319.76 458.34 319.63 457.33 318.82 456.56 319.27 455.67 319.35 455.26 319.05 455.01 318.46 455.68 317.85 455.36 317.15 454.28 316.77 454.11 315.88 454.69 315.21 454.64 314.72 453.74 313.24 453.71 312.19 453.51 311.59 452.54 311.23 452.24 310.82 452.25 310.23 451.64 309.99 451.3 310.61 450.28 310.56 449.62 310.1 449.41 309.44 448.45 308.59 447.19 308.22 447.16 307.91 447.6 307.01 447.26 306.17 445.37 305.46 432.9 305.49 420.83 305.53 411.73 305.58 404.48 305.63 397.56 305.6 385.4 305.52 370.05 305.53 356.05 305.58 349.16 305.59 342.5 305.57 335.81 305.54 326.08 305.42 321.41 305.39 305.17 305.25 296.55 305.22 287.15 305.26 270.09 305.43 263.5 305.46 249.21 305.45 233.7 305.4 228.11 305.41 222.98 305.46 214.31 305.47 207.8 305.54 197.27 305.59 189.51 305.6 184.87 305.57 174.77 305.48 166.58 305.38 160.98 305.42 159.05 305.46 150.48 305.51 135.57 305.44 123.76 305.43 115.98 305.42 108.47 305.55 100.84 305.61 92.22 305.65 86.1 305.61 81.81 305.55 72.61 305.48 61.92 305.45 52.03 305.54 46.19 305.55 43.36 305.53 36.35 305.58 26.05 305.58 16.25 305.54 12.59 305.53 1 305.53 1.01 292.28 1.02 286.88 1.01 278.18 3.32 277.5 8.96 275.29 12.77 273.56 16.09 271.88 16.75 271.21 18.27 270.92 20.4 269.97 22.16 268.85 22.77 268.73 23.57 268.16 24.27 267.96 26.33 266.82 29.99 264.61 31.21 264.33 32.13 263.92 34.94 261.88 35.67 259.79 36.98 259.66 38.22 258.81 39.36 258.33 41.36 256.95 41.9 255.81 43.08 255.65 43.21 256.29 44.47 256.07 45.3 255.47 45.83 254.71 47.81 254.25 48.2 253.97 49.85 253.81 50.52 253.01 51.2 252.61 52.3 252.25 52.71 251.74 53.28 251.58 54.05 251.69 54.53 251.11 54.96 251.37 55.79 251.03 57.27 250.7 57.78 250.41 59.03 250.27 59.76 249.72 60.11 250.01 60.77 250.01 61.66 249.55 62.58 249.67 62.9 249.53 63.92 248.44 64.74 245.84 65.6 245.44 65.83 244.59 66.33 244.48 66.67 243.51 68 242.64 68.49 241.84 69.34 241.66 69.96 240.81 70.52 240.82 71.48 240.34 71.55 238.33 71.81 237.67 72.45 237.22 72.67 236.48 73.19 235.63 73.58 235.63 74.82 235.1 75.18 235.17 75.92 234.7 76.4 234.7 77.29 234.3 77.78 234.38 78.8 234.22 80.15 233.57 80.99 233.04 81.18 232.69 81.92 232.5 83.55 231.53 84.42 231.47 86.17 231 87.18 230.19 87.78 229.93 91.47 227.52 92.07 226.73 92.7 226.29 92.69 225.25 92.4 224.64 91.83 224.12 91.72 223.94 91.23 223.12 91.18 223.03 90.9 222.47 90.84 222.02 91.21 221.66 91.16 221.54 91.13 221.47 92.06 221.44 92.25 220.75 91.46 219.33 90.83 219.41 89.77 217.88 89 216.93 89.23 216.7 88.85 216.1 87.39 214.64 87.43 212.21 87.08 211.22 86.1 209.84 84.74 208.93 81.77 208.74 80.43 207.63 76.74 205.97 75.9 205.01 75.56 202.83 76.73 201.56 77.39 199.73 77.97 198.82 77.19 197.84 70.4 196.62 70.3 196.27 71.37 195.07 72.06 193.68 71.66 192.83 70.94 192.37 72.18 191.67 72.66 191.15 73.46 190.54 73.64 189.98 73.21 188.09 72.57 186.97 72.61 185.94 73 184.33 72.15 183.22 72.58 182.06 72.27 180.4 72.25 178.82 70.8 177.99 71.53 177.87 75.91 176.85 78.05 176.52 79.12 176.44 82.39 175.68 84.9 174.88 87.19 174.31 89.69 173.76 92.91 172.96 94.44 172.33 94.66 172.42 96.51 172.11 97.28 171.86 100.72 171.42 105.27 170.26 106.66 170.26 108.51 170.03 109.54 169.81 114.82 168.38 118.38 168 123.6 167.18 126.37 166.89 127.24 166.95 129.51 166.65 130.14 166.68 131.1 167.05 133.24 166.86 133.67 166.93 135.55 166.82 137.05 166.63 138.2 166.65 141.48 166.47 142.02 166.71 144.25 166.77 144.82 166.87 147.44 166.76 148.33 166.98 151.3 166.97 151.84 166.86 153.31 166.93 153.95 167.21 155.27 167.22 157.69 166.96 158.64 167.06 159.73 166.97 160.81 167.06 162.71 166.65 164.19 166.57 168.3 166.56 172.99 167.13 174.89 167.04 175.54 167.43 176.47 167.48 178.37 167.32 179.3 167.61 180.73 167.42 181.23 167.22 182.36 167.33 186.65 168.45 188.46 168.45 188.85 168.67 191.43 169.18 194.18 169.47 194.57 169.4 196.31 169.87 197.37 169.8 199.3 170.17 201.28 170.2 203.05 170.04 203.39 170.43 206.04 171.15 206.3 171.41 207.71 171.82 207.76 172.39 208.36 173.1 210.92 174.41 213.13 175.91 213.8 176.27 216.37 177.09 221.53 179.92 222.75 180.44 224.17 180.68 225.33 180.75 226.29 180.66 227.67 180.18 227.87 179.85 229.23 179.21 230.64 179.2 232.38 178.53 233.94 178.12 235.17 177.94 236.15 177.4 236.84 177.21 237.95 177.3 238.76 177.14 240.32 176.58 241.83 176.6 243.49 176.36 244.51 176.34 245.36 176.15 245.95 176.43 247.28 176.15 248.32 176.13 248.45 176.35 251.42 176.49 253.12 176.48 258.18 175.8 259.99 175.96 260.54 175.69 261.28 176.04 262.32 176.06 264.04 175.6 264.69 175.28 266.02 175.65 267.57 175.48 268.38 175.54 268.98 175.28 270.09 175.72 272.17 176.07 272.74 175.93 273.12 176.26 274.19 176.57 274.87 176.51 275.49 177.17 278.46 177.21 279.82 177.08 280.96 176.77 283.28 177.01 283.37 177.17 284.74 177.17 286.66 176.25 287.42 175.69 287.82 175.73 290.27 174.6 292.17 174.91 293.26 174.74 294.43 174.35 295.77 173.65 296.84 173.59 297.33 173.73 299.06 173.36 299.54 173.39 301.19 173.06 303.1 172.33 304.44 171.63 306.3 170.39 306.94 169.81 308.23 169.77 309.08 169.5 309.82 169.71 310.67 169.51 311.6 168.88 313.14 167.48 314.54 165.67 315.01 165.23 315.86 163.98 317.06 162.75 317.94 162.72 318.38 162.32 319.45 161.74 320.28 161.64 320.67 161.05 321.52 160.73 322.69 159.93 323.96 159.23 325.25 158.86 325.53 158.57 327.05 158.02 327.6 157.95 329.57 157.13 330.42 156.99 331.1 156.54 331.58 156.5 332.57 155.46 333.32 154.46 336.57 153.08 336.94 152.76 338.11 152.4 338.58 151.86 339.28 151.67 341.72 151.46 342.06 151.63 343.5 151.4 344.03 151.55 345.15 152.38 345.86 152.65 346.98 152.56 347.33 152.8 349.47 152.49 350 152.73 351.33 152.62 352.09 152.35 352.66 151.92 353.45 151.92 354.5 151.51 356.92 151.06 357.64 150.68 358.4 150.01 359.55 147.94 360.19 146.44 360.63 143.87 360.88 138.89 360.89 137.54 360.34 134.42 360.44 134.16 359.99 131.93 359.21 128.42 357.59 123.31 356.75 122.65 356.77 122.14 355.64 121.96 355.91 121.62 355.07 121.03 353.47 121.22 353.36 120.87 353.94 120.11 352.67 119.59 351.26 119.95 350.54 119.84 350.97 118.75 350.71 118.08 351.86 116.85 353 116.07 354.46 115.46 355.3 115.58 357.19 115.02 358.23 115.64 356.77 117.31 356.99 117.47 358.02 117.17 358.74 117.28 359.03 117.74 359.67 118.01 359.69 118.77 360.24 118.6 360.62 117.93 360.31 117.18 361.36 116.76 362.5 115.9 363.66 115.51 365.27 114.59 366.04 114.78 367.28 114.34 367.88 113.85 367.8 112.86 368.11 112.34 367.79 111.94 368.03 111.51 367.56 110.29 366.93 110.14 366.69 109.52 367.17 109.02 368.11 108.54 368.54 108.78 369.89 107.9 370.66 106.92 371.35 106.38 372.35 105.86 373.3 106 373.81 106.56 374.67 106.11 374.77 104.98 374.44 104.24 374.57 103.82 372.88 103.28 372.04 103.48 372.14 104.03 370.62 104.96 368.2 106.58 366.97 107.11 365.99 107.03 364.68 107.68 363.61 107.71 363.06 107.14 363.49 106.5 363.09 106.14 360.56 106.73 360.49 106.22 359.78 105.99 359.94 105.03 360.6 104.38 361.8 103.58 362.74 103.46 363.49 103.08 365.73 102.74 366.56 102.33 368.28 101.08 368.16 100.9 368.74 100.06 368.42 99.58 367.54 99.74 366.62 99.61 365.62 100.43 364.61 100.52 363.81 100.04 365.1 99.14 366.03 97.99 366.47 97.67 365.85 97.37 366.64 96.68 365.91 96.45 365.22 96.96 364.17 97.21 363.45 96.88 362.05 97.61 360.83 97.7 360.11 98.06 359.39 97.75 359.18 97.35 360.54 95.79 360.38 95.56 358.36 96.82 357.52 96.82 356.33 97.25 355.83 96.99 354.14 98.22 354.01 98.62 353.2 99.42 352.08 101.53 352.24 102.3 352.92 102.01 357.5 100.65 358.97 100.52 360.03 100.65 360.42 101.1 360.14 101.58 358.34 103.27 358.36 104.16 357.3 105.1 356.78 105.77 355.05 106.88 354.43 106.83 353.29 107.43 352.33 107.48 352.05 106.88 353.7 105.17 353.89 104 353.51 103.42 352.82 102.92 351.68 102.39 350.8 102.68 350.2 102.17 350.31 101.46 349.67 100.99 350.42 100.35 350.44 99.45 350.97 99.13 350.67 98.37 350.95 97.9 350.82 97.51 350.23 97.44 348.9 97.56 348.28 97.23 347.03 97.01 347.04 96.54 348.38 95.99 348.09 95.73 347.35 96.11 346.84 95.86 345.65 96.35 344.42 96.37 344.49 95.87 345.91 94.84 345.43 94.2 344.53 94.58 344.35 93.91 344.47 93.27 343.68 93.5 343.41 92.97 344 92.26 345.03 91.59 345.67 91 344.83 90.09 345.13 89.94 349.17 83.45 351.81 82.97 355.53 82.93 355.95 82.98 359.86 81.88 361.42 81.21 364.15 79.35 364.39 75.2 367.52 73.6 367.95 73.8 368.8 73.78 369.43 73.46 370.9 73.3 376.16 70.06 379.89 68.83 380.63 68.46 382.51 68.47 383.27 68.6 383.74 68.93 385.82 68.3 386.82 67.67 387.85 67.24 388.63 66.3 389.51 66.39 393.7 63.68 394.86 62.83 398.82 59.91 400.13 55.93 404.3 51.5 408.28 48.75 411.33 46.26 414.96 43.69 419.25 40.99 423.12 38.01 430.58 32.39 433.46 30.84 438.88 27.2 439.9 25.56 441.59 25.47 442.57 24.8 444.33 24.52 444.34 23.99 446.89 21.87 447.98 22.14 451.19 20.1 450.62 19.07 453.09 17.83 454.17 17.39 455.88 16.97 457.31 16.03 458.59 15.93 459.61 14.96 461.18 14.96 462.08 14.45 462.66 14.39 465 13.37 467.55 13.03 468.1 11.17 469.8 10.54 471.06 10.72 471.91 9.96 475.12 9.72 475.62 9.2 478.93 7.99 481.15 6.8 481.7 6.04 481.74 5.46 482.4 4.88 484.45 4.28 486.97 4.16 490.96 4.28 491.69 3.33 492.97 2.63 494.06 2.46 495.13 2.55 495.53 2.14 496.16 2.14 497.2 1.56 498.36 1.12 499.17 1 500.12 1.42 500.52 1.23 501.69 1.13 502.55 2.13 505.55 2.03 505.87 3.11 507.44 3.55 508.79 3.57 509.67 2.8 511.75 2.26 513.57 2.63 514.67 2.5 514.94 1.98 515.68 2.71 517.71 2.66 527.19 2.73 536.42 2.9 548.77 3.42 558.61 3.39 567.5 3.47 583.38 2.91 595.36 2.47 605.16 2.3 608.83 2.28 617.73 2.3 639.51 1.67 648.91 1.52 648.13 3.3 647.75 3.88 648.2 5 649.4 6.16 649.27 8.32 649.38 10.26 649.3 10.99 647.59 12.24 647.18 12.97 646.29 16.06 646 16.49 645.21 17.03 645.06 17.75 645.25 18.95 645.66 19.12 646.64 20.12 647.87 20.73 649.73 22.37 649.92 23.84 649.59 24.66 648.51 25.52 647.78 27.3 646.83 28.31 646.63 28.74 646.7 29.47 646.67 32.55 646.61 33.13 647.08 33.43 646.63 34.18 646.19 34.41 646.48 35.05 646.01 35.21 645.94 36.09 646.19 36.31 645.28 37.25 645.36 37.71 644.83 38.32 645.3 38.84 644.47 39.39 644.59 39.84 644.2 41.24 644.95 41.83 645.51 43.02 645.4 43.6 645 44.05 645.63 44.79 645.7 45.42 646.47 46.25 647.2 46.76 647.53 47.22 648.93 47.83 649.35 48.22 649.35 48.74 649.98 49.33 650.32 50.15 651.07 50.61 651.16 51.69 652.59 53.04 652.85 54.63 653.28 55.43 653.4 56.66 653.24 57.56 653.87 58.87 653.66 60.3 652.2 62.9 652.01 63.7 651.54 64.58 650.2 65.59 649.87 65.96 649.77 67.52 650.5 68.78 650.84 69.84 650.82 72.24 651.02 73.1 651.57 74.5 652.03 75.27 652.16 75.85 651.98 76.75 651.29 78.31 650.78 78.96 650.2 78.88 649.71 79.27 648.89 79.5 648.94 79.87 648.27 80.23 648.08 80.73 646.98 82.09 646.87 82.57 646.11 82.89 645.82 83.25 644.99 83.58 644.29 84.1 644.09 84.55 644.2 85.19 643.71 85.63 643.42 86.29 643.59 86.76 643.29 87.2 642.86 88.9 641.96 89.63 641.54 90.18 642.04 92.06 641.64 93.31 640.22 95.48 639.89 97.25 639.35 98.98 639.57 99.31 641 100.32 642.12 100.86 642.55 101.89 642.56 102.39 641.91 105.33 641.96 105.8 642.46 106.75 642.6 108.78 642.28 110.15 642.45 110.79 642.93 111.62 643.56 113.3 644.82 114.51 645.79 116.13 644.97 117.97 645.16 118.49 645.94 119.15 645.41 119.82 644.25 120.57 643.9 121.43 644.08 121.87 644.98 122.49 645.26 122.87 645.51 123.81 646.99 124.74 647.46 125.18 648.09 126.77 646.21 129.39 646.14 131.26 645.42 132.03 644.64 132.63 643.7 134.06 642.88 134.58 642.64 135 642.82 135.44 642.36 136.91 641.65 138.19 641.31 139.04 640.5 139.62 640.35 140.44 641.32 141.56 641.37 141.84 640.78 142.67 640.99 143.61 640.11 144.87 640.28 145.53 641.11 145.78 641.46 146.16 643.36 147.14 644.01 146.93 644.21 146.47 644.75 146.4 644.93 145.37 644.49 144.85 645.02 144.63 644.83 144.22 645.91 143.52 645.59 142.64 646.65 141.55 647.85 141.3 648.09 141.64 648.94 141.24 650.79 141.14 652.23 141.47 653.01 141.32 653.23 142.17 653.04 142.72 653.9 143.39 654.17 143.99 653.6 145.22 654.06 145.44 653.54 145.96 654.16 146.15 654.79 146.01 655.18 146.52 656.32 146.76 657.44 147.45 657.75 147.96 658.45 148.57 658.3 149.63 658.66 149.78 659.17 150.77 658.66 151.38 658.47 156.97 658.07 166.83 657.79 173.98 657.66 178.22 657.43 181.26 657.39 182.59 656.74 194.8 656.32 200.85 655.86 210.17 655.69 215.31 655.45 220.88 655.42 221.29 654.74 221.23 654.57 222.63 654.91 223.27 654.18 224.47 655.65 230.12 656.82 230.13 650.97 245.84 645.74 259.97 643.09 267.16 638.82 278.77 634.77 289.78 632.25 296.72 633.38 300.41 634.36 300.42 634.13 305.41 633.86 308.74 633.43 313.25 633.25 316.25 632.55 323.14 632.36 325.53 631.97 329.77 631.87 331.57 631.38 336.95 631.06 341.66 630.95 343.79 630.45 348.63 629.78 356.12 629.41 361.24 628.93 365.33 628.69 368.33 628.12 373.54 628.04 375.9 627.93 376.54 631.77 381.11 634.82 384.88 631.65 386.3 629.46 387.33 622.96 390.29 620.08 391.58 615.23 393.79 610.09 396.19 612.25 398.88 614.61 401.78 617.41 405.12 616.9 406.31 617.03 407.49 616.43 408 617.3 408.4 616.92 409.47 615.15 409.97 614.59 411.44 614.25 411.89 613.63 411.99 613.64 411.05 613.35 410.93 612.39 412.38 612 411.94 611.28 411.96 610.81 412.31 610.7 413.22 609.42 414.28 609.1 413.62 608.63 413.66 608.47 414.66 607.16 415.18 606.36 416.18 606.17 416.72 604.68 417.92 603.5 418.13 603.31 418.41 604.33 418.62 604.47 419.3 603.68 419.59 603.28 420.74 602.91 421.07 602.33 421.03 602.35 420.33 601.52 420.62 601.12 421.15 601.11 422.11 601.26 423.41 601.51 424.08 602.09 424 602.34 424.67 602.97 424.85 602.61 425.5 603.72 425.88 603.39 426.49 603.41 427.65 604.4 427.55 604.74 426.99 605.26 426.99 605.76 427.72 605.39 427.94 606.27 429.12 607.05 429.88 607.35 429.85 607.33 428.91 607.87 428.08 607.6 427.87 607.5 426.59 606.43 425.84 606.27 425.45 607.44 424.43 607.11 423.12 607.54 422.67 608.15 423.18 608.58 423.22 608.97 423.72 609.67 423.83 609.86 424.17 610.68 424.34 611.16 425 611.35 425.66 611.79 425.96 612.12 425.17 612.49 424.79 612.32 424.27 612.6 423.29 612.05 423.16 611.61 422.63 610.67 422.8 610.09 422.66 609.1 421.66 610.07 421.21 610.2 420.81 609.79 419.94 610.7 419.94 611.47 419.48 615.24 420.77 615.31 421.04 616.88 423.05 617.5 423.63 618.08 423.64 617.6 422.87 617.55 422.06 617.7 421.48 618.13 421.11 617.68 420.66 617.35 419.99 617.5 418.65 618.2 418.06 618.97 416.79 620.26 416.51 621.21 416.66 621.67 416.23 622.79 416.17 623.53 415.58 624.77 415.48 626.4 414.86 628.23 415.57 629.94 415.08 630.3 414.77 631.85 415.25 632.33 415.58 632.23 416.3 631.34 416.34 630.94 417.41 631.03 417.79 629.74 417.93 629.67 417.45 630.22 417.23 630.7 416.67 630.7 415.49 629.91 415.45 629.31 415.99 628.25 416.09 628.13 416.97 628.23 417.83 628.85 418.79 630.24 418.66 630.86 419.08 632.52 418.91 631.92 417.66 632.18 417.08 633.6 416.97 634.13 418.01 634.3 418.77 635.45 419.33 636.17 419.84 636.6 419.39 636.02 418.97 635.81 418.34 635.78 417.17 634.58 415.58 634.09 414.46 633.39 413.86 633.81 412.27 634.55 411.77 635.26 412.18 636.74 412.65 639.34 412.95 640.12 413.56 640.17 414.04 640.21 414.36 639.49 415.3 640.49 415.83 641.81 416.04 642.91 415.87 643.51 415.55 644.29 415.88 644.83 416.43 645.18 416.43 645.57 415.2 646.97 416.05 647.39 416.63 647.87 416.22 647.39 415.3 647.81 415.15 648.03 414.59 647.9 414 647.18 413.91 646.17 413.39 645 413.56 644.23 414.07 642.81 413.29 642.96 410.96 643.89 410.87 645.75 412.66 646.61 413.25 648.73 413.99 648.8 413.75 650.1 413.46 653.76 413.98 656.55 414.97 659.58 415.52 660.49 415.85 666.09 414.32 667.95 413.64 668.7 413.55 668.94 411.95 668.94 410.81 668.6 410.43 667.96 410.23 667.59 409.64 668.58 409.79 669.54 409.75 670.4 409.49 671.59 408.65 672.41 409.19 673.21 409.47 674.07 409.48 674.41 409.18 675.72 409.1 678 409.91 679.13 410.18 679.42 409.94 683.96 409.74 688.07 409.77 692.24 410.15 694.83 410.1 697.11 409.94 700.39 409.37 703.68 409.72 706.35 409.86 709.22 409.54 711.72 408.99 713.01 408.59 715.27 408.35 716.54 408.51 719.03 408.25 720.33 408.18 721.92 407.73 725.4 406.6 729.5 404.13 732.2 402.31 733.04 402.23 734.66 401.66 735.06 401.4 736.31 401.09 738.13 399.66 739.54 397.66 742.3 397.48 744.41 396.64 745.51 395.63 745.87 394.8 746.58 394.36 747.13 394.27 747.92 393.64 748.54 392.87 748.74 392.23 750.24 392.14 750.84 392.43 752.02 392.36 752.92 391.42 753.44 391.52 754.31 390.93 755.1 390.62 756.35 390.34 756.93 390.71 757.54 390.8 759.55 390.11 760.87 390.32 760 390.88 759.07 392.03 758.77 392.83 758.16 393.26 757.3 393.42 756.35 394.02 755.28 394.47 755.77 393.61 754.2 393.03 753.32 392.25 752.48 392.28 751.52 393.02 751.21 393.64 750.25 394.74 750.27 395.23 752.09 396.2 752.14 396.84 752.46 397.41 753.39 397.6 754.02 398.04 756.19 398.24 756.6 398.59 755.91 399.51 756.82 401.07 756.13 401.54 756.25 402.16 756.64 402.67 757.56 402.76 758.19 402.11 760.13 401.84 761.33 401.88 762.53 402.26 763.37 402.88 764.11 403.1 765.25 403.07 766.37 402.48 766.83 401.7 768.04 400.99 768.96 401.12 770.63 402.35 770.85 403.2 770.62 403.94 771.69 404.78 772.74 406.38 773.48 406.95 774.17 407.21 774.85 407.23 776.1 406.72 776.66 405.53 778.14 405.21 778.3 404.65 778.98 404.15 779.56 404.08 781 404.38 781.91 404.29 782.78 403.98 783.24 403.39 784.77 402.23 785.23 401.6 786.29 401.53 786.63 402.02 787.29 402.23 788.17 402.06 788.8 401.48 788.72 400.84 788.37 399.89 788.56 399.17 789.95 398.92 790.72 398.54 792.62 398.23 794.14 397.68 794.46 397.8 795.03 398.55 795.64 398.72 796.62 398.61 797.65 398.78 798.17 398.59 798.87 398.93 799 399.23 798.5 399.81 797.54 400.56 797.21 401.08 796.55 401.43 794.73 401.96 794.44 402.26 792.87 402.43 790.98 402.91 788.64 403.66 781.52 406.37 772.93 409.17 760.66 413.68 758.37 414.63 750.16 417.75 744.53 419.82 737.05 422.23 726.6 425.21 717.56 427.7 709.27 429.87 708.47 430.22 708.06 430.14 706.95 430.42 702.94 431.63 697.36 433.31 691.3 435.3 682.28 438.69 678 440.03 674.92 440.8 667.96 442.35 666.63 442.59 662.51 443.62 659.41 444.2 657.07 444.52 652.62 444.64 652.11 444.5 650.61 443.39 649.05 443.43 648.07 443.65 643.97 444.9 641.42 445.61 638.09 446.38 634.6 447 631.53 447.52 628.12 448.27 625.83 448.93 625.96 448.38 625.17 448.17 623.73 448.19 621.89 447.97 618.85 448.47 612.37 448.38 608.58 448.07 607.74 447.85 607.04 447.53 605.33 447.67 602.11 448.29 599.31 449.01 594.84 450.56 593.08 451.04 592.18 451.13 588.87 452.41 588.61 452.38 588.67 451.38 590.13 450.64 591.57 450.28 592.11 450.52 592.73 450.42 593.5 449.94 594.47 449.94 594.8 449.29 594.37 448.86 593.15 448.96 592.84 448 591.55 448.16 591.1 448.55 590.41 448.4 589.36 448.52 589.47 449.18 588.03 449.2 583.53 449.7 582.41 449.7 581.45 449.31 581.31 448.96 582 448.55 582.77 448.57 582.9 447.6 581.5 446.65 579.44 446.21 578.55 445.24 578.4 444.07 578.88 442.86 579.27 442.29 579.28 442.29 579.82 442.22 580.15 441.65 581.84 440.42 582.61 440.29 582.37 439.92 581.61 439.81 581.43 440.16 580.81 440.1 580.71 438.7 581.78 438.05 582.98 436.3 582.6 436 581.33 436.59 580.67 435.98 580.88 434.96 580.27 434.63 Z M 780.68 380.99 781.29 380.33 781.51 379.8 782.18 379.67 782.44 378.58 783.69 379.01 783.5 379.49 783.79 379.88 785.06 379.05 785.2 378.14 786.05 377.94 786.77 378.16 789.12 377.59 789.69 377.85 790.31 377.82 790.24 377.36 790.61 376.96 791.73 377.2 791.68 377.58 791.02 378.04 789.54 378.16 788.37 378.41 786.19 379.42 785.49 379.85 784.95 380.5 784.24 380.83 783.46 380.59 782.76 380.57 781.87 381.02 780.68 380.99 Z M 770.06 396.48 770.36 396.1 771.03 395.89 771.53 395.44 771.77 394.13 772.26 394.74 772.93 395.2 775.11 395.86 775.67 396.17 776.62 396.28 776.7 396.6 775.82 397.23 775.86 398.44 776.15 398.97 775.76 399.41 775.7 400.4 774.68 400.82 774.68 398.7 774.07 397.63 773.75 397.39 772.32 396.95 770.58 396.97 770.06 396.48 Z M 763.15 388.54 763.42 388.25 765.39 387.35 767.03 387.45 766.45 387.78 765.63 387.87 764.57 389.65 763.85 389.02 763.09 388.84 763.15 388.54 Z M 578.15 437.78 577.94 437.72 577.85 437.56 578.2 437.75 578.15 437.78 Z M 579.95 438.02 580.64 437.31 581.38 437.58 581.25 437.85 580.12 438.26 579.95 438.02 Z M 556.8 456.03 557.18 455.43 557.94 454.96 558.21 453.67 557.59 452.45 559.57 451.23 560.51 451.32 561.18 451.05 562.05 448.25 562.01 447.81 562.74 447.03 562.88 446.55 562.81 445.1 562.24 444.76 562.36 443.56 563.66 442.43 565.02 442.23 566.31 442.83 567.02 442.98 569.04 442.48 569.74 442.71 571.83 442.1 573.14 442.08 573.88 441.83 574.63 441.87 575.39 442.41 575.18 442.92 575.35 444.31 576.14 445.03 577.25 446.36 577.2 446.78 574.93 448.92 573.25 450.21 572.01 451.33 571.69 451.35 571.2 451.98 570.86 451.99 569.68 452.67 569.54 452.25 568.91 452.15 568.28 452.6 568.26 453.06 566.76 453.9 564.64 454.85 563.98 454.86 562.94 455.8 562.34 455.49 561.52 455.67 560.42 456.56 559.06 456.7 557.71 457.22 557.35 457.16 556.91 456.59 556.8 456.03 Z M 605.58 420.54 606.27 420.93 605.67 421.78 605.58 420.54 Z M 603.57 420.95 604.02 421.09 604.6 421.83 604.66 422.61 604.25 422.71 603.69 421.78 603.57 420.95 Z M 361.83 102.15 362.04 101.86 363.22 101.04 363.63 101.27 362.91 101.8 361.83 102.15 Z M 346.76 100.05 347.46 99.07 348.23 99.84 347.52 100.09 346.76 100.05 Z M 344.8 115.64 345.91 114.22 347.32 113.36 348.25 113.34 348.92 113.08 349.04 112.25 350.16 111.89 349.69 113.09 349 113.79 347.71 115.46 346.99 115.8 346.31 115.7 346.01 115.27 345.01 115.81 344.8 115.64 Z M 342.2 99.54 342.53 98.91 343.59 98.22 344.42 98.34 345.23 98.04 346.23 98.29 345.57 99.66 344.3 100.15 342.8 100.15 342.2 99.54 Z M 335.71 114.62 337.67 112.79 339.71 111.54 341.3 111.42 342.43 111.5 341.99 111.88 341.34 112.85 340.2 113.52 339.58 113.63 337.54 114.56 336.98 114.49 336.4 114.86 335.71 114.62 Z" fill-rule="evenodd" fill="none" stroke="currentColor" stroke-width="46.400"/>
</g>
</svg>