<?xml version="1.0"?>
<svg width="20" height="20" xmlns="http://www.w3.org/2000/svg" version="1.2" baseProfile="tiny" viewBox="-64.000 -131.500 928.000 928.000" stroke-linecap="round" stroke-linejoin="round">
<g id="state">
<path d="M 1 533.43 1.06 523.57 1.02 507.11 1.13 496.37 1.26 488.3 1.46 481.18 1.75 464.43 1.82 464.18 1.89 456.15 1.96 442.47 2.07 420.9 2.11 401.97 2.29 392.45 2.43 381.98 2.65 368.64 2.97 357.04 3.1 349.45 3.53 334.03 3.97 316.49 4.07 307.37 4.02 302.01 3.96 292.79 4.01 287.22 4.23 272.17 4.32 251.99 4.31 229.71 4.3 211.04 4.22 200.07 4.14 183.9 4.15 175.33 4.09 158.55 4.07 131.6 4 121.64 4.02 106.17 3.95 93.15 3.85 80.85 3.63 64.78 3.63 52.78 19.88 52.25 43.25 51.79 57.69 51.46 64.86 51.35 77.24 51.02 86.29 50.84 103.07 50.35 117.44 50.02 149.83 48.97 157.46 48.84 171.8 48.36 197.1 47.69 207.1 47.37 211.52 47.12 215.1 47.07 226.37 46.71 237.08 46.47 245.19 46.19 254.2 45.97 254.1 46.94 253.2 46.98 251.92 47.87 251.18 49.15 250.63 51.23 250.04 52.35 251.5 52.76 248.87 54.88 249.6 55.38 251.08 54.43 253.31 53.57 254.15 52.42 256.54 52.87 257.13 53.43 260.17 54.02 262.71 53.69 265.74 53.56 268.24 54.73 269.63 54.81 273.43 54.48 275.05 53.55 275.98 52.3 276.38 51.04 277.55 51.55 278.59 52.53 279.73 52.97 281.96 54.33 281.18 55.23 281.87 56.4 283 56.59 286.13 56.57 286.96 57.15 294.57 61.18 294.77 61.52 300.07 64.07 301.34 64.33 303.92 65.35 310.33 67.14 313.57 67.8 314.84 67.78 319.5 68.22 322.73 69.42 324.76 70.51 326.94 72.22 327.05 73.17 328.85 74.58 331.53 77.62 338.63 81.99 341.69 83.58 344.32 84.73 346.67 85.4 352.35 86.52 355.22 86.21 359.38 85.12 361.47 84.05 363.07 82.91 365.19 80.42 365.45 78.84 366.53 77.39 365.58 77.25 365.76 75.82 364.75 75 365.98 73.71 367.03 73.33 369.52 73.03 371.86 75.92 374.77 78.02 376.85 80.54 378.49 81.62 380.7 81.71 385.04 80.58 387.66 81.1 390.63 81.33 391.71 82.25 392.07 83.99 391.75 84.64 390.18 85.9 391.65 88.92 389.48 86.94 385.55 86.88 384.34 87.23 382.26 88.63 380.84 88.62 379.37 87.93 377.78 87.85 376.34 88.26 374.68 87.95 373.02 88.62 372.3 89.35 371.9 90.73 371.33 90.97 370.25 89.86 367.59 88.78 365.8 89.22 363.66 90.51 360.41 91.24 356.15 91.18 352.73 91.31 350.95 91.65 346.23 91.29 344.54 92.73 344.56 93.32 343.37 95.24 342.09 95.11 340.48 95.66 339.98 96.49 338.41 96.09 338.14 95.15 336.99 94.85 334.08 95.19 333.69 95.61 331.48 95.71 331.54 97.05 331.35 98.32 332.89 97.66 333.92 97.84 334.22 98.93 336.03 99.4 336.62 100.08 336.72 102.29 338.39 102.49 338.79 101.73 338.1 100.81 339.92 99.36 341.22 99.05 341.2 98.2 343.03 97.77 344.01 98.6 344.68 100.12 346 101.41 346.65 102.99 349.46 104.18 351.64 104.01 352.56 104.3 355.37 103.1 356.88 102.07 357.08 101.83 361.99 100.63 362.24 100.16 364.03 100.24 366.86 99.24 367.22 98.7 368.79 98.47 370.58 96.84 370.23 94.2 371.86 94.86 373.45 94.76 373.62 93.74 375.61 95.79 378.78 97.57 382.05 99.23 384.21 99.56 386.2 98.38 388.66 98.44 391 97.03 394.05 96.03 394.48 96.8 395.78 97.61 399.21 97.8 399.48 96.11 397.84 93.36 395.55 92.15 395.45 91.4 396.77 90.76 397.75 92.17 402.13 96.43 405.14 98.89 409.13 101.61 408.11 103.27 410.71 103.81 412.29 104.52 412.72 104.09 414.15 104.97 416.02 105.75 418.32 106.29 419.69 107.33 421.88 108.27 422.48 108.02 424.64 109.13 429.19 110.87 431.2 111.16 434.94 111.18 438.76 110.26 444.2 108.3 451.59 104.73 455.1 103.69 456.78 102.71 459.64 102.47 460.4 102.22 464.3 102.09 470.12 102.44 474.41 102 476.97 101.35 482.37 98.82 484.71 97.49 489.03 95.41 489.13 94.75 490.67 94.24 491.23 94.45 496 93.24 502.04 91.29 515.9 87.86 519.18 86.89 521.92 86.29 524.51 86.61 525.11 86.47 530.1 88.25 533.08 90.04 534.52 90.58 537.68 91.05 539.57 91.14 547.04 92.29 549.52 92.37 554.48 91.04 559.05 90.03 564.66 89.96 565.49 90.39 571.57 91.55 573.83 90.8 576.05 89.55 578.17 88.95 580.74 87.33 581.94 85.79 586.35 83.3 586.85 83.81 589.84 82.69 591.36 81.64 591.96 80.42 593.37 80.99 598.48 77.91 599.94 76.88 600.48 76.06 601.85 75.48 604.7 73.18 605.15 73.05 609.14 69.55 611.47 68.04 614.13 67.34 617.35 65.85 619.09 64.8 623.07 61.7 627.7 57.04 629.19 55.96 630.85 55.24 637.68 50.71 638.67 50.32 641.94 48.39 643.34 47.86 644.15 47.1 645.36 46.81 649.33 44.51 653.83 42.77 656.62 40.99 661.02 41.27 665.01 40.49 666.83 39.56 668.33 39.39 672.3 37.33 672.7 37.36 675.6 35.97 676.19 35.88 681.79 33.33 682.32 32.93 685.03 32.02 685.91 31.45 688.96 30.33 693.17 29.26 696.85 27.77 698.82 27.43 701.09 26.3 706.29 25.08 709.13 23.71 714.43 22.8 717.63 22.43 718.64 22.02 721 22.03 723.11 21.5 726.05 21.23 728.2 20.79 733.94 18.61 737.33 17.7 738.7 16.92 742.15 16.18 743.98 15.45 745.24 14.66 746.73 13.17 750.07 12.81 750.32 13.65 751.84 13.43 756.47 11.87 759.6 11.63 763.3 10.9 768.54 9.21 771.36 8.53 773.95 7.43 778.28 6.86 784.87 4.85 787.39 4.32 791.48 2.84 792.88 2.1 797.7 1 798.92 1.03 798.93 16.4 798.91 42.28 798.91 69.31 798.95 83.21 798.92 94.01 798.99 106.91 798.94 111.63 798.98 125.24 798.96 143.25 798.98 157.18 799 170.24 798.99 196.47 798.93 197.76 798.98 209.51 798.98 228.79 798.99 248.94 796.93 249.41 794 250.63 792.98 250.81 791.3 251.71 790.1 252.78 788.57 253.43 786.93 253.22 785.06 251.75 783.47 251.45 780.6 252.25 779.05 252.4 777.59 253.15 775.7 255.34 772.17 257.85 771.38 259.2 771.54 260.8 772.02 261.7 774.23 263.09 777.82 267.51 778.86 268.05 779.84 270.89 780.62 274.31 782.34 276.62 784.11 277.93 784.95 280 784.71 281.49 783.17 284.03 781.7 286.78 781.64 291 781.32 291.63 781.67 292.73 777.99 294.42 778.06 295.73 780.42 296.61 782.16 297.89 782.55 298.89 782.35 300.3 781.77 301.56 781.59 302.97 781.96 304.22 783.42 306.63 783.98 308.52 783.42 310.49 782.74 311.08 781.2 313.29 780.84 314.53 780.95 316.94 779.78 318.89 775.68 320.84 774.29 322.01 772.54 324.82 771.33 330.41 770.49 331.76 767.99 333.76 764.43 338.86 763.54 341.71 763.43 344.17 764.09 346.89 763.75 348.64 762.82 349.52 759.58 351.44 758.37 352.77 758.13 353.55 758.38 355.29 759.16 356.44 759.65 359.24 759.42 360.76 758.51 362.16 758.27 363.78 757.59 365.81 757.66 367.4 758.2 370.83 757.96 372.88 754.57 375.01 753.72 376.03 753.49 377.45 754.07 380.55 755.08 382.91 754.23 384.39 752.27 384.09 750.41 383.02 747.67 382.35 745.97 382.64 745.5 383.11 745.08 384.96 745.82 386.66 748.12 389.52 748.68 391.16 748.13 392.74 746.65 393.72 743.81 394.72 742.91 395.29 741.85 396.84 742.68 399.93 742.74 402.39 742.01 404.83 740.3 406.29 735.61 408.85 734.55 409.81 733.81 411.39 734.73 413.24 737.07 415.5 737.92 415.61 740.06 418.68 740.97 419.48 741.34 420.51 740.57 422.47 738.56 423.22 736.72 423.59 735.04 424.65 734.48 427.11 734.75 429.42 734.49 431.91 733.9 432.97 733.71 434.23 732.63 436.86 731.94 437.83 729.75 438.56 727.14 438.25 725.03 438.2 722.12 438.92 720.18 440.38 714.61 443.87 712.02 445.89 710.9 447.01 708.22 448.51 705.31 450.52 704.77 451.41 702.57 452.82 701.42 453.49 698.6 455.97 696.57 457.33 695.83 458.28 692.6 460.95 691.04 462.6 688.54 466.46 686.61 468.87 684.81 470.41 684.12 470.65 681.45 470.77 678.09 471.51 675.4 472.93 674.36 474.4 671.67 476.77 670.63 478.11 670.48 480.08 669.46 481.06 667.48 481.23 664.88 480.58 663.4 480.6 662.05 481.12 659.95 481.31 658.6 481.78 657.69 482.55 654.55 483.53 650.24 486.07 648.42 486.9 645.75 488.65 643.53 489.32 640 489.59 638.4 489.27 637.16 488.27 636.3 487.02 634.3 480.98 633.18 479.77 630.19 477.76 628.92 477.2 626.98 476.86 625.12 477.05 621.96 478.74 620.05 480.78 617.21 483.21 613.86 485.23 610.7 486.46 609.13 487.52 606.31 490.13 605.92 491.62 605.82 494.01 604.92 498.46 604.88 501.75 603.95 503.33 603.27 503.44 600.85 503.06 599.43 502.3 596.87 501.77 594.31 502.21 589.73 501.53 585.41 501.79 584.03 502.12 581.83 503.63 580.5 505.47 580.57 507.66 581.28 509.07 581.48 510.71 579.71 512.01 575.12 512.93 573.82 514.86 573.48 516.6 572.46 517.75 570.61 518.36 569.51 519.39 569.44 520.15 571.38 525.17 571.77 525.73 571.49 527.34 571.61 529.46 572.02 532.34 571.78 533.86 571.11 535.29 569.83 536.59 567.94 537.74 565.62 538.48 563.1 538.2 561.67 537.61 560.02 537.39 558.75 538.2 558.75 540.24 559.03 541.62 560.7 544.14 562.21 545.31 564.49 546.63 566.27 548.06 567.96 550.15 567.75 552.58 566.23 553.95 565.64 555.88 565.83 556.56 565.26 557.55 564.7 559.49 565.25 561.17 566.95 562.5 569.46 565.32 568.75 566.75 567.59 567.28 566.13 567.28 563.99 566.68 562 565.51 560.19 563.73 558.68 562.97 556.68 562.89 555.48 563.43 553.07 566.21 552.78 569.09 552.92 569.67 552.3 571.28 550.39 573.36 547.44 575.03 544.46 576.38 543.04 576.26 540.86 575.38 537.58 572.75 537.82 571.3 539.48 569.57 541.22 568.31 542.78 566.83 543.06 566.05 542.66 564.55 541.11 562.51 539.39 559.18 536.62 555.28 535.03 554.24 533.23 553.72 530.2 554.29 528.05 554.25 527.55 553.78 527.38 552.43 526.56 550.67 525.15 548.82 523.11 547.53 520.16 547.52 518.34 547.98 517.22 548.56 516.42 549.87 515.75 552.29 514.56 554.1 511.76 555.63 509.55 556.48 507.49 557.57 506.62 559.56 505.45 561.36 503.98 563.08 503.15 565.93 501.78 567.63 500.22 570.08 498.99 570.63 497.66 571.9 497.27 574.47 497.99 576.13 498.38 577.77 497.95 580.56 497.34 582.58 494.7 585.18 493.87 585.75 490.49 586.99 489.1 587.17 487.57 588.32 484.99 589.87 483.91 590.89 483.11 592.47 483.15 594.05 484.03 595.96 485.79 596.78 487.11 597.69 487.93 598.92 488.36 601 489.35 602.51 489.44 604.46 490.37 607.02 490.29 607.63 488.94 610.99 488.81 612.28 489.75 615.07 489.79 616.14 491 618.13 492.31 622.49 492.09 624.9 491.33 626.5 489.2 628.13 486.93 628.67 483.11 628.79 482.43 628.46 478.31 627.44 475.62 627.54 473.85 628.05 470.92 630.39 469.77 631.77 469.79 635.18 469.36 638.61 468.03 641.45 467.82 642.54 467.99 644.94 467.78 646.44 466.59 648.87 465.82 652.2 465.2 653.57 464.11 655.16 462.93 656.05 460.84 656.73 456.54 657.19 453.34 657.85 451.92 657.93 449.1 657 443.63 658.72 438.94 659.72 433.83 660.99 431.19 661.9 426.15 663.23 424.46 663.53 422.11 663.66 418.17 663.35 417 662.95 415.17 661.9 414.11 660.92 414.11 660.26 412.9 657.72 412.12 653.18 410.69 650.75 409.45 649.98 406.29 648.78 402.96 646.89 400.76 644.68 398.79 642.76 396.44 639.2 394.49 637.54 392.49 636.66 389.17 634.83 382.03 634.52 379.47 634.77 376.56 634.28 373.94 633.21 371.86 632.13 368.02 629.36 367 628.06 366.08 625.89 365.49 623.62 365.26 621.01 365.29 618.36 364.54 615.4 363.41 613.41 361.74 611.58 361.41 610.53 361.57 609 362.83 603.52 362.32 600.8 361.06 599.16 359.78 598.39 357.9 598.18 355.88 598.76 352.91 599.34 349.78 600.41 345.88 602.37 343.98 603.54 341.4 603.75 338.04 603.11 336.54 603.11 333.73 603.54 332.53 604.31 330.76 607.23 328.85 609.43 327.15 610.56 323 612.21 320.11 612.74 318.72 613.29 316.73 615.04 315.98 616.18 315.35 618.57 313.69 621.26 312.06 622.67 310.22 623.69 305.52 623.64 301.35 624.12 298.96 623.63 297.1 622.68 295.24 622.01 293.11 621.9 291.27 622.9 290.32 622.96 289.05 623.79 288.56 624.59 285.14 627.56 284.07 627.82 281.94 627.25 280.21 626 279.33 624.37 278.9 621.56 277.92 620.21 275.47 618.66 271.39 616.58 269.59 615.95 267.29 615.49 261.04 614.56 256.06 614.21 254.24 613.63 251.99 613.24 251.23 612.82 248.41 610.45 246.51 609.36 244.88 608.69 242.05 608.08 239.68 608.24 235.68 609.13 233.25 609.91 228.95 610.73 227.03 611.62 224.67 611.64 222.67 612.55 221.43 613.49 220.48 615.07 220.17 617.24 219.09 620.35 218.41 621.29 216.19 622.14 214.59 622.27 211.69 621.39 208.2 619.92 206.38 619.47 204.95 618.54 200.58 618.18 197.1 617.51 195.8 616.83 194.77 614.82 194.1 611.85 193.23 609.37 191.76 608.23 189.15 607.44 186.04 606.81 183.77 605.59 182.72 604.57 181.7 600.81 180.53 599.03 179.39 598.16 176.83 597.1 174.03 596.44 166.49 595.29 166.13 594.67 164.11 593.41 162.31 592.74 160.14 592.41 157.23 592.44 155.11 593.15 152 593.77 148.35 594.85 144.89 595.55 143.68 595.39 140.03 595.58 136.16 594.87 132.93 593.91 132.42 593.5 127.89 591.96 124.15 591.01 117.75 590.14 114.97 589.59 113.62 589.01 111.44 586.97 110.45 585.16 109.81 581.29 110.13 576.76 109.93 573.83 109.27 572.26 108.08 570.97 105.47 567.34 104.84 566.95 103.1 564.8 101.5 563.45 100 561.79 98.28 558.7 97.43 553.52 96.38 551.55 94.94 549.91 93.8 548.97 92.04 547.6 89.92 546.49 86.13 545.26 81.68 544.6 80.87 544.73 78.82 544.37 76.88 544.34 74.37 543.29 73.28 542.09 72.71 539.25 72.7 537.38 72.38 536.85 72.69 535.44 72.02 533.6 70.82 532.06 69.2 530.86 68.05 530.47 65.65 530.45 63.71 531.39 62.41 532.59 61.51 533.91 59.98 535 58.52 535.56 55.64 535.83 53.52 534.85 51.84 534.44 50.4 534.75 48.47 536.71 46.2 537.94 42.45 538.76 41.7 539.16 38.44 539.39 35.77 538.71 32.64 536.1 30.99 535.21 29.49 534.81 26.94 534.66 25.27 533.84 21.22 528.96 19.97 527.69 18.2 526.51 15.39 525.63 13.38 525.69 12.3 526.22 10.19 527.92 7.62 531.15 5.83 532.05 2.76 532.73 1 533.43 Z M 387.95 69.96 389.85 68.95 390.15 67.5 391.01 67.01 392.98 67 393.97 68.33 396.24 68.48 398.11 67.04 397.8 68.43 398.05 69.57 398.02 71.45 396.98 72.91 394.55 73.35 393.98 72.24 391.53 71.55 389.74 71.4 387.94 70.4 387.95 69.96 Z M 386.62 89.79 388.38 88.64 388.94 89.17 388.62 90.31 386.83 91.12 386.62 89.79 Z M 375.69 53.1 378.77 52.56 378.28 53.21 375.92 53.37 375.69 53.1 Z M 371.1 54.84 373.62 53.54 375.18 54.06 375.21 55.49 374.47 56.15 374.77 57.19 373.26 57.38 372.45 55.29 371.1 54.84 Z M 369.21 49.98 370.61 48.71 371.02 47.83 372.01 47.51 373.29 47.71 373.72 48.34 373.51 49.69 374.07 50.42 371.49 50.62 369.21 49.98 Z M 367.66 61.99 369.47 60.01 370.86 59.54 371.06 60.54 373.54 60.45 374.84 58.69 376.62 58.46 376.45 59.53 373.52 60.89 373.42 62.14 371.49 63.32 370.84 64.25 369.3 65.08 368.09 65.22 369 62.9 367.66 61.99 Z M 256.43 51.23 259.36 49.88 260.53 51.43 257.35 53.11 256.11 51.88 256.43 51.23 Z M 253.13 51 255.32 50.11 255.78 50.76 253.2 51.83 253.13 51 Z" fill-rule="evenodd" fill="none" stroke="currentColor" stroke-width="46.400"/>
</g>
</svg>