<svg viewBox="-85.2502776 -42.405334599999996 5.161471200000008 4.4320121999999955" xmlns="http://www.w3.org/2000/svg">
  <path d="M -84.820155,39.105419 L -84.810679,39.109204 L -84.794116,39.112875 L -84.784484,39.117719 L -84.770602,39.135099 L -84.75924,39.144267 L -84.753401,39.147114 L -84.742583,39.147437 L -84.727462,39.142727 L -84.717917,39.136349 L -84.711176,39.129502 L -84.689354,39.103192 L -84.680335,39.098781 L -84.666597,39.097952 L -84.658517,39.095812 L -84.64963,39.091038 L -84.63274920069131,39.07694696785045 L -84.618343,39.073304 L -84.600807,39.074508 L -84.596765,39.076696 L -84.576525,39.08109 L -84.56427703108209,39.087715958029705 L -84.553887,39.098285 L -84.546146,39.099977 L -84.537088,39.097747 L -84.525626,39.092478 L -84.51013,39.093938 L -84.502249,39.096932 L -84.494029,39.102839 L -84.489142,39.10992 L -84.482146,39.116432 L -84.471677,39.121466 L -84.458762,39.121385 L -84.452534,39.119239 L -84.443836,39.112818 L -84.43734,39.104482 L -84.433746,39.094574 L -84.43542196926063,39.08696122502031 L -84.433706,39.084099 L -84.43365258137021,39.07404769791501 L -84.430561,39.05874 L -84.424686,39.052239 L -84.411144,39.046603 L -84.400681,39.046465 L -84.389639,39.044526 L -84.385295,39.045201 L -84.361293,39.041631 L -84.340879,39.035012 L -84.329442,39.029019 L -84.31997988043457,39.02162491448058 L -84.313835,39.016588 L -84.306074,39.007753 L -84.300398,38.997105 L -84.295796,38.969209 L -84.286536,38.952542 L -84.278453,38.943615 L -84.269821,38.93635 L -84.260445,38.924715 L -84.257039,38.922649 L -84.242979,38.903065 L -84.236567,38.896125 L -84.233022,38.887632 L -84.231955,38.871861 L -84.233652,38.847425 L -84.23022,38.826561 L -84.224868,38.816846 L -84.213115,38.805835 L -84.205879,38.802685 L -84.190856,38.799739 L -84.156364,38.795053 L -84.136241,38.789924 L -84.11179680885654,38.781624140321654 L -84.109065,38.779413 L -84.091623,38.774236 L -84.070779,38.770414 L -84.051111,38.771465 L -84.044576,38.770557 L -84.025955,38.774349 L -84.006278,38.780194 L -83.98952,38.783537 L -83.978095,38.787363 L -83.962367,38.787521 L -83.950699,38.785715 L -83.941012,38.782117 L -83.930113,38.775338 L -83.928143,38.771973 L -83.887525,38.765772 L -83.872415,38.762255 L -83.858642,38.756523 L -83.852499,38.751839 L -83.846207,38.742257 L -83.840657,38.721976 L -83.835028,38.716468 L -83.822813,38.709915 L -83.80603025117321,38.70650310214279 L -83.791941,38.702244 L -83.78405048980517,38.69608987385839 L -83.779346,38.682713 L -83.775732,38.666713 L -83.770178,38.655857 L -83.763196,38.652241 L -83.744423,38.648607 L -83.720862,38.646674 L -83.713176,38.641651 L -83.70332536917574,38.63925284276847 L -83.68456,38.631321 L -83.668893,38.626562 L -83.66027,38.627242 L -83.648301,38.631861 L -83.644651,38.636889 L -83.638816,38.653689 L -83.637167,38.665361 L -83.632061,38.673903 L -83.62534378816545,38.6789377983237 L -83.614576,38.683839 L -83.601861,38.683981 L -83.59151755179005,38.688786329844994 L -83.568337,38.693185 L -83.555233,38.697368 L -83.533677,38.702181 L -83.520883,38.703062 L -83.505665,38.699773 L -83.496857,38.696137 L -83.486613,38.690275 L -83.471413,38.677499 L -83.467292,38.675238 L -83.455208,38.673111 L -83.445399,38.66999 L -83.418555,38.668116 L -83.384858,38.663111 L -83.372436,38.660616 L -83.362775,38.65722 L -83.340756,38.646022 L -83.327566,38.637675 L -83.322271,38.630377 L -83.319956,38.615269 L -83.3152,38.606473 L -83.305912,38.599746 L -83.29443,38.596621 L -83.288654,38.598048 L -83.270182,38.614083 L -83.26757535642255,38.61837769354829 L -83.260739,38.622835 L -83.255598,38.623149 L -83.245664,38.628564 L -83.234187,38.627947 L -83.224154,38.624379 L -83.214145,38.619216 L -83.201247,38.616602 L -83.178774,38.619188 L -83.153468,38.618902 L -83.143548,38.624421 L -83.134754,38.632013 L -83.125827,38.646522 L -83.122393,38.659362 L -83.118377,38.665514 L -83.107646,38.674986 L -83.100145,38.677905 L -83.084569,38.680801 L -83.06218,38.689669 L -83.053042,38.695788 L -83.042745,38.70762 L -83.033211,38.723385 L -83.02673,38.72749 L -83.01161031687826,38.72985602280743 L -83.00349,38.729827 L -82.985405,38.726365 L -82.971484,38.727529 L -82.96123,38.733802 L -82.940251,38.744392 L -82.92334395098568,38.75017878801719 L -82.907374,38.753296 L -82.896482,38.756395 L -82.886311,38.755254 L -82.87941299634765,38.75113639698498 L -82.872651,38.742293 L -82.86991232918325,38.727601672037224 L -82.876696,38.69808 L -82.87755,38.68984 L -82.875762,38.684169 L -82.866738,38.674334 L -82.860668,38.66357 L -82.856613,38.647646 L -82.856769,38.633371 L -82.85557,38.619292 L -82.85239,38.607074 L -82.847393,38.595328 L -82.841893,38.588333 L -82.821214,38.573393 L -82.809984,38.567573 L -82.795871,38.56181 L -82.780183,38.559183 L -82.7664052442994,38.56055686115868 L -82.727905,38.558871 L -82.710016,38.54899 L -82.69925066848369,38.54425451339982 L -82.68874822563616,38.535312460483766 L -82.676082,38.516125 L -82.66543852699066,38.505767245111464 L -82.653595,38.493843 L -82.635662,38.483659 L -82.618629,38.477214 L -82.611942,38.473067 L -82.604235,38.459966 L -82.599993,38.435499 L -82.59348,38.421821 L -82.593482,38.418252 L -82.58778308146714,38.412945155483065 L -82.577894,38.40728 L -82.571613,38.405138 L -82.550345,38.403445 L -82.53769,38.404157 L -82.52858688078338,38.405807565572246 L -82.501436,38.412959 L -82.487208,38.417866 L -82.459676,38.424682 L -82.434375,38.430082 L -82.404882,38.439347 L -82.389679,38.434366 L -82.38202247629994,38.4347910881692 L -82.364769,38.438339 L -82.34161085134562,38.44084670617849 L -82.330335,38.4445 L -82.323999,38.449268 L -82.318111,38.457876 L -82.314783,38.465236 L -82.310639,38.483172 L -82.304223,38.496308 L -82.303071,38.504384 L -82.303971,38.517283 L -82.302871,38.523183 L -82.295671,38.538483 L -82.293371,38.556983 L -82.293471,38.575383 L -82.28727,38.582783 L -82.27147,38.595383 L -82.26197,38.598183 L -82.247469,38.598683 L -82.225268,38.593184 L -82.22159636283418,38.591437395661536 L -82.201004,38.592052 L -82.188767,38.594984 L -82.177267,38.603784 L -82.173166,38.612384 L -82.171966,38.625384 L -82.179067,38.648883 L -82.185567,38.659583 L -82.185767,38.665383 L -82.190867,38.680383 L -82.190167,38.687382 L -82.182867,38.705482 L -82.182467,38.708782 L -82.187468,38.722582 L -82.187968,38.733082 L -82.193268,38.741182 L -82.195606,38.752441 L -82.199999,38.759057 L -82.207141,38.763943 L -82.216614,38.76835 L -82.221387,38.778649 L -82.221566,38.787187 L -82.217269,38.79568 L -82.211438,38.80122 L -82.19754,38.809539 L -82.189293,38.815768 L -82.181811,38.816696 L -82.163598,38.823424 L -82.159125,38.826463 L -82.144867,38.84048 L -82.141616,38.851394 L -82.139279,38.866407 L -82.141367,38.87528 L -82.145267,38.884179 L -82.143167,38.898079 L -82.135966,38.904879 L -82.129366,38.907879 L -82.120966,38.921079 L -82.113547,38.930256 L -82.109065,38.945579 L -82.101165,38.954878 L -82.094865,38.964578 L -82.090165,38.975278 L -82.079072,38.981193 L -82.067162,38.985738 L -82.052063,38.993978 L -82.045663,39.003778 L -82.042062,39.016778 L -82.037749,39.023865 L -82.031678,39.027003 L -82.021884,39.029491 L -82.00599,39.029387 L -81.994961,39.022478 L -81.987407,39.012497 L -81.982961,39.002978 L -81.982032,38.995698 L -81.979371,38.993193 L -81.967769,38.992955 L -81.951447,38.996032 L -81.941717,38.993234 L -81.933186,38.98766 L -81.918215,38.966595 L -81.908963,38.948675 L -81.900595,38.937671 L -81.89847,38.929603 L -81.899953,38.925405 L -81.908341,38.917403 L -81.917757,38.910604 L -81.92667,38.901311 L -81.927999,38.893492 L -81.910312,38.879294 L -81.898541,38.874582 L -81.890899,38.873919 L -81.874857,38.881174 L -81.858921,38.89019 L -81.848653,38.901407 L -81.845312,38.910088 L -81.84607,38.913192 L -81.844486,38.928746 L -81.831516,38.943697 L -81.825026,38.946603 L -81.814235,38.946168 L -81.806137,38.942112 L -81.796376,38.932497 L -81.785647,38.926192 L -81.774105,38.922964 L -81.766225,38.922947 L -81.759995,38.925829 L -81.756131,38.933546 L -81.769703,38.948707 L -81.778845,38.955892 L -81.78182,38.964935 L -81.778814,38.97542 L -81.775734,38.980737 L -81.776753,38.984404 L -81.773547,38.994783 L -81.765353,39.002179 L -81.764253,39.015279 L -81.773354,39.026579 L -81.782954,39.034279 L -81.795254,39.041378 L -81.803355,39.047678 L -81.812354,39.061279 L -81.813854,39.068679 L -81.813854,39.079678 L -81.807054,39.084078 L -81.798154,39.082878 L -81.790455,39.079678 L -81.776855,39.078178 L -81.764355,39.082177 L -81.754154,39.088377 L -81.747254,39.095379 L -81.743653,39.103078 L -81.742353,39.111277 L -81.744568,39.126816 L -81.745194,39.138239 L -81.743677,39.146909 L -81.745806,39.149936 L -81.756282,39.176993 L -81.755908,39.181073 L -81.749976,39.186639 L -81.739996,39.18993 L -81.73451,39.196145 L -81.732677,39.205481 L -81.725622,39.215905 L -81.700908,39.220844 L -81.691374,39.227882 L -81.692427,39.236715 L -81.696252,39.244299 L -81.69662,39.256139 L -81.689483,39.266043 L -81.677595,39.274171 L -81.670187,39.275963 L -81.646917,39.277355 L -81.622185,39.273675 L -81.608408,39.276043 L -81.594632,39.273195 L -81.586967,39.269115 L -81.57389,39.267064 L -81.570247,39.267675 L -81.565247,39.276175 L -81.565047,39.293874 L -81.560147,39.317874 L -81.559647,39.330774 L -81.557547,39.338774 L -81.542346,39.352874 L -81.533846,39.358554 L -81.516837,39.365226 L -81.498789,39.376122 L -81.48344546718737,39.38917193225238 L -81.473187,39.400169 L -81.456143,39.409274 L -81.446125,39.410301 L -81.435642,39.408474 L -81.428802,39.40545 L -81.412706,39.394618 L -81.406689,39.38809 L -81.395883,39.355553 L -81.391249,39.348814 L -81.384556,39.343449 L -81.375961,39.341697 L -81.356911,39.343178 L -81.344927,39.346794 L -81.330574,39.356186 L -81.320733,39.360667 L -81.297519,39.37438 L -81.280572,39.379659 L -81.275672,39.383789 L -81.268421,39.386318 L -81.25711346572365,39.387384732382046 L -81.249836,39.390181 L -81.24184,39.390276 L -81.227844,39.386747 L -81.2171291553935,39.387704525834856 L -81.211654,39.392977 L -81.210833,39.403563 L -81.205223,39.410786 L -81.190714,39.423562 L -81.185145,39.431479 L -81.170634,39.439175 L -81.152534,39.443175 L -81.138134,39.443775 L -81.134434,39.445075 L -81.124733,39.453375 L -81.114333,39.466375 L -81.100834,39.487176 L -81.092434,39.496075 L -81.074992,39.510485 L -81.071025,39.515608 L -81.0601,39.5229 L -81.044902,39.5363 L -81.038712,39.539886 L -81.026856,39.547497 L -81.0239,39.552313 L -81.008227,39.56314 L -80.99376273199385,39.57120653092863 L -80.987732,39.577262 L -80.973786,39.588158 L -80.943782,39.606926 L -80.933292,39.614812 L -80.91762,39.618703 L -80.906247,39.618431 L -80.892208,39.616756 L -80.88036,39.620706 L -80.876641,39.625905 L -80.870859,39.64008 L -80.869801,39.646895 L -80.866646,39.652616 L -80.865238,39.666026 L -80.86667,39.678487 L -80.863698,39.691724 L -80.854599,39.697473 L -80.844721,39.69944 L -80.833882,39.703497 L -80.829723,39.714041 L -80.8317123835365,39.7195849744079 L -80.836597,39.723925 L -80.848158,39.740461 L -80.852738,39.74104 L -80.865339,39.753251 L -80.870322,39.763184 L -80.866329,39.771738 L -80.860583,39.776912 L -80.835311,39.79069 L -80.826079,39.798584 L -80.822181,39.811708 L -80.82248,39.824971 L -80.826964,39.841656 L -80.821279,39.849982 L -80.81643,39.853032 L -80.801086,39.858438 L -80.793131,39.863751 L -80.790156,39.872252 L -80.793186,39.881064 L -80.80558,39.896511 L -80.809565,39.905658 L -80.807268,39.915633 L -80.804771,39.918178 L -80.795598,39.919717 L -80.780805,39.916104 L -80.770801,39.91035 L -80.7602323640153,39.9087473138509 L -80.755682,39.916717 L -80.761122,39.929459 L -80.764242,39.946151 L -80.762987,39.953785 L -80.758408,39.959276 L -80.740139,39.970795 L -80.738838,39.981817 L -80.741759,40.00032 L -80.742114,40.00888 L -80.73846741769115,40.01980770704647 L -80.737151,40.028538 L -80.732254,40.036087 L -80.731024,40.044291 L -80.733685,40.059411 L -80.737885,40.065592 L -80.739229,40.074947 L -80.737918,40.079179 L -80.731429,40.086331 L -80.71391992095344,40.09668673947693 L -80.708937,40.101422 L -80.707102,40.110851 L -80.71067,40.12555 L -80.710066,40.138784 L -80.705246,40.15416 L -80.686081,40.181637 L -80.672582,40.192401 L -80.668083,40.199689 L -80.66154,40.229812 L -80.652101,40.244975 L -80.644603,40.251276 L -80.622508,40.261765 L -80.616209,40.272271 L -80.616793,40.285278 L -80.614886,40.291971 L -80.606583,40.303887 L -80.602895,40.307069 L -80.599895,40.317666 L -80.602895,40.327868 L -80.610796,40.340868 L -80.612764,40.347565 L -80.611795,40.355169 L -80.608696,40.361969 L -80.607587,40.36956 L -80.609686,40.37495 L -80.619102,40.381862 L -80.6318,40.386638 L -80.632196,40.393667 L -80.612325,40.402762 L -80.614251,40.40871 L -80.612524,40.41211 L -80.612195,40.434838 L -80.60427,40.449665 L -80.595953,40.463354 L -80.594664,40.471389 L -80.599194,40.482566 L -80.608738,40.489611 L -80.618003,40.502049 L -80.622193,40.520505 L -80.627507,40.535793 L -80.633107,40.538705 L -80.652436,40.562544 L -80.664372,40.570016 L -80.666949,40.57488 L -80.667813,40.583536 L -80.66354,40.590768 L -80.64450127503439,40.60431844995008 L -80.634355,40.616095 L -80.62645,40.620176 L -80.618082,40.62096 L -80.602636,40.625288 L -80.594065,40.623664 L -80.584002,40.615723 L -80.575146,40.614608 L -80.566912,40.618094 L -80.560453,40.623865 L -80.551393,40.628724 L -80.545892,40.629702 L -80.530093,40.636255 L -80.518991,40.638801 L -80.519053,40.747424 L -80.519044,40.851339 L -80.519291,40.914661 L -80.519009,40.921601 L -80.518929,41.063027 L -80.519048,41.133394 L -80.519151,41.208469 L -80.519061,41.305544 L -80.519249,41.378918 L -80.518992,41.404343 L -80.519345,41.473907 L -80.519211,41.532103 L -80.519403,41.607037 L -80.519427,41.752693 L -80.51931,41.892195 L -80.51937484769147,41.97506721137254 L -80.52595,41.975212 L -80.551894,41.96926 L -80.559453,41.96529 L -80.581483,41.957296 L -80.595109,41.954434 L -80.630605,41.943615 L -80.653974,41.940549 L -80.667906,41.93462 L -80.683099,41.930945 L -80.711339,41.921872 L -80.731301,41.917918 L -80.748164,41.9166 L -80.773135,41.908218 L -80.781327,41.907004 L -80.782672,41.91158 L -80.800644,41.909624 L -80.808697,41.901606 L -80.815501,41.897302 L -80.825334,41.893366 L -80.843953,41.889409 L -80.851335,41.885205 L -80.869596,41.880284 L -80.900554,41.868553 L -80.912122,41.866174 L -80.927987,41.864717 L -80.939335,41.861866 L -80.952072,41.861939 L -80.957494,41.859729 L -80.974742,41.857701 L -81.003328,41.852827 L -81.018651,41.845415 L -81.046651,41.838821 L -81.058874,41.832748 L -81.069514,41.830907 L -81.089369,41.822908 L -81.112026,41.817103 L -81.128461,41.811085 L -81.133211,41.80804 L -81.14784,41.803118 L -81.15069,41.800958 L -81.1809,41.787218 L -81.184035,41.786722 L -81.19971,41.779249 L -81.201847,41.779391 L -81.223222,41.768267 L -81.231344,41.767382 L -81.241129,41.762386 L -81.262659,41.758136 L -81.286349,41.759656 L -81.301395,41.750055 L -81.325638,41.740692 L -81.347029,41.72832 L -81.353589,41.726724 L -81.357939,41.722653 L -81.365497,41.719779 L -81.383109,41.709373 L -81.388457,41.707297 L -81.425285,41.682859 L -81.434198,41.678998 L -81.442224,41.673141 L -81.467177,41.648041 L -81.48865019336543,41.63134182332277 L -81.498017,41.625666 L -81.515372,41.617665 L -81.529723,41.613889 L -81.542272,41.605738 L -81.563766,41.586852 L -81.566191,41.586169 L -81.581566,41.573753 L -81.588953,41.57064 L -81.591846,41.566212 L -81.599747,41.560649 L -81.627303,41.544076 L -81.634873,41.547149 L -81.638109,41.540538 L -81.646285,41.534922 L -81.662396,41.528842 L -81.665113,41.531604 L -81.688873,41.518176 L -81.695375,41.509872 L -81.709212,41.501154 L -81.72065,41.497929 L -81.732613,41.491205 L -81.744755,41.48715 L -81.777542,41.493413 L -81.782019,41.495699 L -81.812281,41.495315 L -81.8368828306157,41.4898834901361 L -81.863638,41.482702 L -81.876987,41.483176 L -81.917254,41.489354 L -81.927456,41.489825 L -81.944454,41.492363 L -81.952264,41.495281 L -81.96832529422903,41.50495324446711 L -81.99519,41.514516 L -81.998422,41.513769 L -82.012398,41.515513 L -82.027134,41.512274 L -82.044865,41.507041 L -82.119544,41.488527 L -82.15212,41.478037 L -82.177811,41.471524 L -82.180818,41.472637 L -82.189148,41.469892 L -82.189667,41.466318 L -82.212973,41.455155 L -82.225588,41.447988 L -82.254653,41.434312 L -82.268479,41.430842 L -82.29158,41.428442 L -82.322969,41.43035 L -82.344002,41.42966 L -82.34807133026204,41.42831363064577 L -82.363496,41.427001 L -82.372575,41.421722 L -82.391491,41.416132 L -82.431315,41.396866 L -82.460599,41.386316 L -82.481214,41.381342 L -82.50137,41.381473 L -82.512208,41.383024 L -82.536737,41.392386 L -82.548365,41.398363 L -82.551616,41.397025 L -82.563401,41.402067 L -82.570804,41.407722 L -82.583188,41.4106 L -82.593277,41.414798 L -82.600962,41.419537 L -82.603305,41.417233 L -82.611791,41.421089 L -82.625853,41.423987 L -82.620346,41.432928 L -82.641841,41.44761 L -82.65807,41.460839 L -82.681686,41.483791 L -82.686934,41.491398 L -82.694064,41.487936 L -82.693551,41.48392 L -82.681172,41.477381 L -82.672332,41.462586 L -82.673781,41.45347 L -82.692273,41.454458 L -82.699314,41.458869 L -82.701605,41.462994 L -82.718076,41.457585 L -82.730658,41.450017 L -82.743903,41.450355 L -82.754671,41.443989 L -82.766317,41.445771 L -82.783905,41.454678 L -82.801018,41.464297 L -82.811714,41.475339 L -82.812664,41.469818 L -82.821221,41.469284 L -82.830015,41.472846 L -82.828116,41.458618 L -82.837751,41.449847 L -82.84625,41.448597 L -82.848154,41.445685 L -82.863432,41.44031 L -82.873053,41.440759 L -82.874427,41.438215 L -82.900903,41.431711 L -82.90194065484577,41.43046789589205 L -82.910079,41.424892 L -82.92527,41.418423 L -82.930184,41.420006 L -82.941966,41.419061 L -82.957086,41.425486 L -82.960583,41.434013 L -82.967702,41.440956 L -82.971325,41.449149 L -82.976617,41.453612 L -82.986473,41.451303 L -82.986368,41.446715 L -82.993378,41.445062 L -83.003181,41.437234 L -82.999471,41.432275 L -83.001617,41.42816 L -83.01063,41.429262 L -83.011179,41.441177 L -83.014361,41.444855 L -83.024116,41.447374 L -83.025714,41.453238 L -83.031242,41.454225 L -83.039541,41.450656 L -83.03856416463984,41.45751622142328 L -83.03888,41.464709 L -83.026965,41.465284 L -83.024835,41.467524 L -83.009144,41.469348 L -83.002942,41.467722 L -83.001517,41.462689 L -82.993062,41.460531 L -82.990353,41.464967 L -82.981654,41.467959 L -82.974755,41.467249 L -82.968357,41.47761 L -82.968475,41.480789 L -82.95936,41.488559 L -82.933942,41.486616 L -82.924317,41.488441 L -82.905892,41.489147 L -82.88291,41.488794 L -82.865388,41.492737 L -82.853878,41.499711 L -82.844213,41.502094 L -82.829913,41.496268 L -82.824073,41.490296 L -82.820983,41.491542 L -82.818844,41.499019 L -82.814945,41.502918 L -82.806027,41.506566 L -82.79707,41.50486 L -82.789331,41.507096 L -82.780727,41.506684 L -82.772791,41.502948 L -82.765171,41.502861 L -82.753958,41.510411 L -82.74741,41.512298 L -82.726252,41.511987 L -82.71456,41.501296 L -82.722465,41.517575 L -82.714017,41.524368 L -82.712258,41.527882 L -82.714216,41.537297 L -82.720045,41.542223 L -82.73607,41.543482 L -82.750201,41.546251 L -82.773572,41.540197 L -82.785496,41.540675 L -82.794324,41.546486 L -82.805526,41.560097 L -82.821205,41.571406 L -82.833823,41.586989 L -82.84723,41.585344 L -82.852923,41.583315 L -82.859531,41.576371 L -82.854119,41.571908 L -82.855049,41.564206 L -82.849946,41.563443 L -82.855776,41.555658 L -82.857162,41.547117 L -82.868583,41.533699 L -82.877224,41.527598 L -82.88847,41.521803 L -82.910933,41.515928 L -82.926384,41.514262 L -82.957009,41.520321 L -82.969679,41.523899 L -82.983841,41.530128 L -83.000329,41.538685 L -83.03859,41.562205 L -83.053064,41.578635 L -83.062762,41.586209 L -83.063332,41.591328 L -83.075097,41.600553 L -83.086046,41.606425 L -83.103422,41.612887 L -83.128579,41.615286 L -83.13541,41.615175 L -83.152874,41.618727 L -83.187392,41.628341 L -83.201322,41.633853 L -83.208187,41.635243 L -83.236745,41.649006 L -83.237796,41.650854 L -83.278855,41.672566 L -83.283277,41.675707 L -83.300189,41.675569 L -83.306249,41.676631 L -83.309959,41.682912 L -83.305754,41.687738 L -83.317782,41.695103 L -83.323934,41.697458 L -83.329531,41.702721 L -83.335869,41.705491 L -83.337985,41.698682 L -83.343011,41.691963 L -83.35173,41.686953 L -83.372229,41.685175 L -83.379711,41.685614 L -83.393223,41.691894 L -83.409547,41.691224 L -83.423208,41.689448 L -83.439592,41.692624 L -83.4428,41.695632 L -83.45569,41.698068 L -83.460195,41.691852 L -83.472222,41.687209 L -83.480213,41.682079 L -83.484138,41.684775 L -83.469968,41.696234 L -83.477816,41.69846 L -83.474632,41.704447 L -83.471666,41.715698 L -83.467679,41.722571 L -83.460821,41.727359 L -83.45597,41.727612 L -83.45540096793614,41.73284308724825 L -83.503995,41.73162 L -83.547671,41.730155 L -83.605408,41.728811 L -83.666165,41.726879 L -83.685444,41.726622 L -83.70926,41.725277 L -83.76315,41.723552 L -83.899566,41.719929 L -83.976831,41.717378 L -84.017945,41.716671 L -84.192531,41.711014 L -84.270006,41.709241 L -84.360416,41.706589 L -84.409212,41.705616 L -84.475933,41.703813 L -84.514609,41.703242 L -84.592451,41.70144 L -84.718391,41.698971 L -84.80597792485197,41.69611871542863 L -84.805959,41.631457 L -84.80481,41.544823 L -84.804249,41.478549 L -84.803893,41.408365 L -84.803971,41.324942 L -84.803589,41.271273 L -84.803478,41.126036 L -84.803198,41.035563 L -84.80323432522738,40.989394096076246 L -84.802812,40.902248 L -84.802359,40.84309 L -84.802321,40.742455 L -84.802272,40.6224 L -84.802756,40.513619 L -84.803957,40.432478 L -84.804216,40.402458 L -84.803894,40.352758 L -84.803603,40.323891 L -84.804154,40.274716 L -84.8065,40.180167 L -84.808851,40.097078 L -84.809549,40.056142 L -84.81123600257808,39.99364850690041 L -84.81244,39.921728 L -84.813187,39.865275 L -84.81417817120935,39.81400107649316 L -84.814363,39.711933 L -84.814985,39.595678 L -84.815353,39.52195 L -84.815754,39.478652 L -84.81611514696078,39.47734508696512 L -84.81765,39.387014 L -84.818745,39.348642 L -84.81945,39.305153 L -84.82006899123401,39.24728337382648 L -84.819815,39.158529 L -84.820155,39.105419 Z M -82.734466,41.60351 L -82.734525,41.601131 L -82.72487,41.595782 L -82.715173,41.594964 L -82.701972,41.591215 L -82.698916,41.585223 L -82.685796,41.58764 L -82.680234,41.595462 L -82.680044,41.605628 L -82.681422,41.611777 L -82.679711,41.619276 L -82.689789,41.611493 L -82.702053,41.61231 L -82.707377,41.619489 L -82.718025,41.619418 L -82.722636,41.616788 L -82.724252,41.608969 L -82.734466,41.60351 Z M -82.741669,41.496657 L -82.740547,41.489448 L -82.730903,41.493857 L -82.729145,41.499982 L -82.73218,41.502857 L -82.741669,41.496657 Z M -82.800573,41.694393 L -82.799356,41.692919 L -82.78659,41.693804 L -82.783958,41.697292 L -82.800573,41.694393 Z M -82.8253364088105,41.6850107831682 L -82.818048,41.682597 L -82.813661,41.67135 L -82.805511,41.672337 L -82.80715,41.677932 L -82.803157,41.681493 L -82.803337,41.689244 L -82.811752,41.692001 L -82.8253364088105,41.6850107831682 Z M -82.835506,41.71119 L -82.82321,41.707758 L -82.809316,41.70884 L -82.812314,41.712757 L -82.811165,41.720033 L -82.813489,41.723468 L -82.820409,41.724549 L -82.82572,41.72281 L -82.827948,41.718075 L -82.835506,41.71119 Z M -82.84385,41.646475 L -82.836619,41.641577 L -82.84152,41.62904 L -82.835026,41.629815 L -82.826738,41.634311 L -82.823192,41.639314 L -82.812833,41.645656 L -82.812275,41.652385 L -82.796457,41.659708 L -82.795581,41.665512 L -82.805179,41.664281 L -82.812156,41.654796 L -82.825553,41.654297 L -82.826625,41.659677 L -82.834092,41.657121 L -82.84385,41.646475 Z M -83.443366,41.704453 L -83.445104,41.700952 L -83.438416,41.694319 L -83.42128,41.703376 L -83.427607,41.711745 L -83.443366,41.704453 Z M -83.461182,41.705705 L -83.460788,41.701259 L -83.446868,41.706991 L -83.449343,41.710499 L -83.461182,41.705705 Z" fill="none" stroke=currentColor stroke-width="1" vector-effect="non-scaling-stroke"/>
</svg>