<?xml version="1.0"?>
<svg width="20" height="20" xmlns="http://www.w3.org/2000/svg" version="1.2" baseProfile="tiny" viewBox="-101.700 -69.200 1003.400 1003.400" stroke-linecap="round" stroke-linejoin="round">
<g id="state">
<path d="M 1 689.71 1.4 676.94 1.92 655.59 2.41 641.67 2.82 631.21 3.27 621.99 4.13 600.27 4.21 599.95 4.56 589.54 5.1 571.81 5.96 543.85 6.64 519.3 7.15 506.98 7.65 493.4 8.33 476.11 9.04 461.09 9.43 451.25 10.4 431.28 11.43 408.55 11.85 396.72 11.97 389.78 12.23 377.83 12.47 370.61 13.21 351.1 13.99 324.94 14.74 296.07 15.37 271.86 15.66 257.64 16.14 236.67 16.44 225.57 16.96 203.81 17.87 168.88 18.14 155.97 18.68 135.9 19.06 119.02 19.38 103.08 19.73 82.23 20.14 66.68 35.94 66.4 58.66 66.37 72.71 66.26 79.68 66.29 91.72 66.12 100.52 66.08 116.84 65.78 130.81 65.63 162.31 64.85 169.73 64.8 183.66 64.42 208.27 63.92 217.99 63.65 222.28 63.38 225.76 63.37 236.72 63.04 247.13 62.85 255 62.59 263.77 62.39 263.65 63.65 262.78 63.7 261.53 64.84 260.79 66.49 260.22 69.19 259.63 70.62 261.04 71.17 258.46 73.9 259.16 74.56 260.61 73.34 262.79 72.25 263.62 70.76 265.94 71.37 266.51 72.1 269.46 72.9 271.93 72.5 274.87 72.37 277.29 73.9 278.64 74.02 282.34 73.63 283.93 72.44 284.85 70.83 285.25 69.2 286.38 69.87 287.38 71.15 288.49 71.73 290.64 73.52 289.87 74.67 290.53 76.19 291.62 76.46 294.67 76.45 295.46 77.21 302.82 82.5 303.01 82.95 308.13 86.3 309.37 86.65 311.88 87.99 318.09 90.36 321.24 91.23 322.47 91.22 327.01 91.83 330.14 93.4 332.1 94.83 334.21 97.06 334.31 98.29 336.05 100.13 338.64 104.1 345.52 109.8 348.49 111.87 351.04 113.39 353.33 114.26 358.86 115.75 361.66 115.36 365.73 113.96 367.77 112.58 369.34 111.12 371.41 107.9 371.67 105.84 372.73 103.97 371.81 103.79 371.99 101.93 371.01 100.86 372.21 99.19 373.25 98.71 375.67 98.32 377.93 102.08 380.76 104.81 382.77 108.09 384.36 109.49 386.52 109.62 390.75 108.17 393.3 108.85 396.2 109.16 397.25 110.34 397.6 112.61 397.27 113.45 395.74 115.09 397.16 119.01 395.05 116.43 391.23 116.34 390.04 116.79 388.01 118.6 386.63 118.58 385.2 117.68 383.64 117.57 382.24 118.1 380.62 117.69 379.01 118.56 378.3 119.5 377.9 121.29 377.34 121.59 376.29 120.15 373.71 118.74 371.96 119.31 369.87 120.97 366.7 121.91 362.54 121.81 359.21 121.96 357.46 122.39 352.87 121.9 351.21 123.76 351.22 124.53 350.05 127.01 348.8 126.83 347.23 127.55 346.73 128.61 345.2 128.08 344.95 126.87 343.83 126.47 340.99 126.89 340.6 127.43 338.44 127.56 338.49 129.29 338.3 130.94 339.81 130.09 340.81 130.33 341.09 131.74 342.85 132.36 343.42 133.25 343.51 136.12 345.14 136.39 345.53 135.4 344.87 134.21 346.65 132.33 347.92 131.94 347.91 130.84 349.7 130.29 350.65 131.37 351.29 133.35 352.58 135.02 353.2 137.08 355.93 138.64 358.06 138.42 358.95 138.81 361.71 137.26 363.19 135.93 363.38 135.63 368.18 134.09 368.43 133.48 370.17 133.59 372.94 132.31 373.29 131.61 374.83 131.31 376.58 129.21 376.25 125.79 377.84 126.65 379.39 126.53 379.57 125.2 381.49 127.86 384.58 130.19 387.76 132.34 389.87 132.78 391.82 131.25 394.22 131.34 396.5 129.52 399.49 128.23 399.9 129.22 401.17 130.29 404.52 130.53 404.78 128.34 403.19 124.77 400.95 123.2 400.86 122.23 402.16 121.4 403.1 123.23 407.36 128.76 410.3 131.95 414.18 135.49 413.18 137.64 415.73 138.34 417.26 139.27 417.69 138.72 419.08 139.86 420.91 140.87 423.15 141.56 424.49 142.93 426.62 144.14 427.21 143.82 429.32 145.26 433.76 147.51 435.73 147.88 439.38 147.92 443.11 146.72 448.42 144.18 455.63 139.53 459.05 138.18 460.69 136.91 463.49 136.59 464.22 136.27 468.03 136.09 473.72 136.54 477.9 135.95 480.4 135.11 485.65 131.8 487.93 130.07 492.14 127.37 492.23 126.51 493.74 125.84 494.28 126.11 498.92 124.52 504.81 121.98 518.3 117.46 521.5 116.18 524.16 115.39 526.69 115.79 527.27 115.61 532.14 117.88 535.06 120.19 536.48 120.88 539.56 121.47 541.41 121.57 548.7 123.01 551.12 123.11 555.95 121.34 560.39 120 565.86 119.87 566.67 120.41 572.62 121.87 574.81 120.87 576.96 119.23 579.02 118.44 581.5 116.32 582.66 114.31 586.92 111.04 587.42 111.7 590.32 110.21 591.79 108.84 592.35 107.24 593.73 107.97 598.67 103.93 600.08 102.58 600.6 101.51 601.92 100.75 604.67 97.73 605.11 97.56 608.94 92.97 611.18 90.99 613.76 90.05 616.87 88.09 618.55 86.7 622.38 82.64 626.81 76.55 628.24 75.12 629.84 74.17 636.4 68.21 637.36 67.7 640.5 65.15 641.86 64.44 642.63 63.45 643.81 63.05 647.62 60.02 651.96 57.71 654.64 55.36 658.91 55.67 662.78 54.59 664.52 53.36 665.98 53.13 669.79 50.4 670.18 50.42 672.97 48.58 673.54 48.46 678.92 45.07 679.43 44.54 682.05 43.31 682.89 42.57 685.82 41.07 689.88 39.61 693.42 37.63 695.33 37.15 697.5 35.66 702.52 33.98 705.24 32.15 710.36 30.89 713.46 30.35 714.42 29.8 716.71 29.78 718.74 29.05 721.59 28.65 723.66 28.04 729.18 25.12 732.44 23.87 733.74 22.83 737.07 21.82 738.82 20.84 740.03 19.78 741.44 17.82 744.66 17.29 744.92 18.38 746.39 18.06 750.83 15.95 753.86 15.58 757.43 14.55 762.45 12.26 765.17 11.32 767.64 9.84 771.82 9.02 778.14 6.28 780.57 5.53 784.49 3.52 785.82 2.54 790.45 1 791.63 1.01 792.09 20.95 792.83 54.51 793.63 89.55 794.08 107.57 794.37 121.57 794.82 138.31 794.91 144.42 795.34 162.07 795.86 185.42 796.29 203.48 796.69 220.41 797.45 254.42 797.44 256.09 797.83 271.32 798.4 296.32 799 322.44 796.98 323.1 794.12 324.74 793.12 325 791.48 326.21 790.33 327.62 788.84 328.49 787.21 328.26 785.32 326.39 783.75 326.03 780.94 327.14 779.41 327.36 777.98 328.37 776.18 331.24 772.76 334.58 772.01 336.33 772.21 338.41 772.71 339.57 774.94 341.32 778.61 346.98 779.65 347.66 780.7 351.31 781.57 355.74 783.33 358.69 785.12 360.35 786.01 363.02 785.82 364.96 784.36 368.28 782.98 371.88 783.04 377.35 782.74 378.17 783.13 379.59 779.52 381.86 779.63 383.55 781.99 384.65 783.76 386.27 784.17 387.56 784.01 389.39 783.47 391.04 783.33 392.87 783.73 394.48 785.25 397.57 785.86 400.01 785.36 402.57 784.7 403.35 783.23 406.25 782.92 407.87 783.09 411 781.99 413.55 777.97 416.16 776.62 417.7 774.96 421.39 773.9 428.66 773.11 430.43 770.67 433.07 767.27 439.75 766.46 443.47 766.41 446.65 767.14 450.18 766.85 452.45 765.95 453.61 762.77 456.17 761.61 457.91 761.39 458.93 761.68 461.18 762.49 462.65 763.05 466.28 762.86 468.25 761.99 470.09 761.79 472.19 761.17 474.84 761.28 476.89 761.91 481.33 761.72 483.99 758.4 486.83 757.58 488.17 757.38 490.01 758.04 494.01 759.11 497.06 758.3 498.99 756.34 498.64 754.46 497.29 751.7 496.48 750.01 496.88 749.56 497.5 749.18 499.91 749.96 502.1 752.33 505.77 752.93 507.88 752.42 509.93 750.97 511.24 748.15 512.6 747.26 513.35 746.25 515.37 747.16 519.37 747.27 522.56 746.61 525.73 744.94 527.66 740.31 531.06 739.26 532.33 738.56 534.4 739.53 536.77 741.93 539.66 742.78 539.79 745 543.72 745.93 544.75 746.33 546.08 745.6 548.63 743.61 549.64 741.78 550.15 740.11 551.57 739.62 554.76 739.94 557.75 739.74 560.98 739.18 562.37 739.02 564.01 738 567.44 737.34 568.71 735.15 569.7 732.53 569.34 730.41 569.32 727.51 570.31 725.59 572.24 720.09 576.85 717.54 579.52 716.44 580.99 713.78 582.98 710.91 585.64 710.38 586.8 708.2 588.67 707.06 589.55 704.28 592.82 702.28 594.61 701.56 595.86 698.36 599.38 696.83 601.54 694.39 606.59 692.5 609.75 690.73 611.77 690.04 612.09 687.36 612.28 684 613.3 681.32 615.19 680.31 617.11 677.64 620.22 676.62 621.98 676.51 624.53 675.5 625.81 673.51 626.07 670.88 625.26 669.39 625.3 668.04 625.99 665.93 626.28 664.59 626.91 663.69 627.91 660.54 629.23 656.25 632.59 654.42 633.69 651.77 635.99 649.55 636.88 645.99 637.29 644.38 636.89 643.11 635.61 642.23 634 640.11 626.2 638.97 624.64 635.93 622.07 634.65 621.36 632.68 620.94 630.82 621.21 627.66 623.44 625.78 626.11 622.95 629.28 619.61 631.94 616.45 633.59 614.88 634.97 612.07 638.39 611.7 640.32 611.64 643.43 610.79 649.21 610.8 653.47 609.88 655.53 609.2 655.68 606.75 655.21 605.31 654.25 602.72 653.59 600.15 654.18 595.52 653.34 591.17 653.72 589.79 654.16 587.58 656.14 586.27 658.54 586.37 661.39 587.1 663.2 587.32 665.33 585.55 667.04 580.93 668.27 579.63 670.79 579.31 673.04 578.3 674.54 576.43 675.35 575.33 676.7 575.27 677.68 577.29 684.17 577.7 684.9 577.43 686.99 577.57 689.74 578.02 693.47 577.79 695.45 577.13 697.31 575.85 699 573.95 700.51 571.62 701.49 569.06 701.15 567.61 700.39 565.94 700.12 564.67 701.19 564.69 703.83 564.99 705.61 566.7 708.87 568.24 710.38 570.56 712.07 572.38 713.9 574.11 716.61 573.93 719.76 572.4 721.56 571.82 724.06 572.02 724.94 571.45 726.22 570.91 728.75 571.49 730.92 573.22 732.64 575.8 736.26 575.09 738.13 573.92 738.83 572.44 738.84 570.27 738.08 568.24 736.58 566.38 734.28 564.85 733.32 562.83 733.23 561.61 733.94 559.2 737.55 558.93 741.3 559.08 742.04 558.47 744.14 556.56 746.85 553.57 749.04 550.57 750.81 549.13 750.66 546.91 749.54 543.56 746.15 543.8 744.26 545.46 742.02 547.22 740.37 548.78 738.43 549.05 737.42 548.64 735.48 547.05 732.84 545.28 728.54 542.43 723.49 540.82 722.16 538.99 721.5 535.93 722.26 533.75 722.21 533.25 721.61 533.06 719.86 532.22 717.58 530.78 715.18 528.7 713.53 525.72 713.52 523.89 714.13 522.75 714.89 521.95 716.6 521.29 719.74 520.1 722.1 517.27 724.1 515.04 725.2 512.97 726.64 512.09 729.22 510.92 731.56 509.45 733.8 508.62 737.49 507.24 739.71 505.67 742.89 504.43 743.62 503.08 745.26 502.7 748.61 503.45 750.75 503.85 752.88 503.42 756.49 502.82 759.12 500.15 762.51 499.31 763.24 495.89 764.87 494.48 765.1 492.93 766.61 490.32 768.62 489.23 769.96 488.43 772 488.47 774.06 489.37 776.53 491.16 777.59 492.51 778.76 493.34 780.35 493.79 783.06 494.8 785 494.9 787.53 495.86 790.85 495.79 791.64 494.43 796 494.3 797.69 495.27 801.3 495.32 802.69 496.55 805.26 497.92 810.92 497.7 814.05 496.93 816.12 494.77 818.24 492.46 818.96 488.57 819.12 487.87 818.7 483.68 817.39 480.94 817.52 479.15 818.2 476.17 821.24 475 823.02 475.03 827.45 474.61 831.9 473.25 835.59 473.05 837.01 473.23 840.12 473.01 842.06 471.8 845.23 471.03 849.54 470.4 851.32 469.29 853.39 468.1 854.54 465.96 855.43 461.58 856.04 458.31 856.9 456.86 857 453.98 855.8 448.4 858.04 443.61 859.34 438.4 860.99 435.7 862.17 430.56 863.89 428.83 864.28 426.44 864.45 422.41 864.04 421.22 863.53 419.35 862.16 418.27 860.88 418.27 860.02 417.04 856.73 416.25 850.84 414.79 847.68 413.53 846.68 410.31 845.13 406.92 842.67 404.68 839.8 402.67 837.3 400.29 832.67 398.31 830.52 396.27 829.37 392.9 826.99 385.62 826.56 383.02 826.88 380.06 826.24 377.39 824.84 375.28 823.43 371.38 819.82 370.35 818.14 369.42 815.3 368.83 812.36 368.62 808.97 368.66 805.54 367.91 801.7 366.78 799.1 365.08 796.73 364.75 795.36 364.92 793.38 366.23 786.28 365.73 782.74 364.46 780.61 363.17 779.61 361.25 779.33 359.2 780.06 356.18 780.8 352.99 782.18 349.02 784.71 347.08 786.21 344.45 786.47 341.05 785.62 339.52 785.6 336.66 786.15 335.44 787.14 333.62 790.92 331.66 793.75 329.92 795.22 325.68 797.32 322.74 798 321.32 798.69 319.28 800.96 318.51 802.43 317.84 805.52 316.13 809 314.46 810.81 312.57 812.13 307.8 812.02 303.55 812.61 301.12 811.96 299.24 810.71 297.35 809.83 295.18 809.66 293.3 810.95 292.33 811.02 291.03 812.08 290.52 813.11 287 816.94 285.91 817.27 283.74 816.5 282.01 814.86 281.13 812.74 280.72 809.1 279.74 807.33 277.27 805.3 273.14 802.56 271.33 801.73 268.99 801.1 262.64 799.83 257.58 799.33 255.74 798.56 253.46 798.02 252.69 797.47 249.86 794.36 247.94 792.93 246.29 792.03 243.43 791.21 241.02 791.39 236.94 792.5 234.45 793.48 230.07 794.48 228.1 795.61 225.7 795.62 223.66 796.77 222.37 797.97 221.38 800.01 221.03 802.82 219.88 806.84 219.18 808.05 216.9 809.13 215.27 809.27 212.33 808.08 208.81 806.13 206.96 805.52 205.53 804.29 201.09 803.77 197.56 802.84 196.25 801.95 195.24 799.32 194.62 795.46 193.78 792.23 192.31 790.73 189.67 789.66 186.51 788.79 184.24 787.18 183.19 785.84 182.22 780.94 181.07 778.62 179.93 777.47 177.36 776.05 174.53 775.16 166.9 773.54 166.54 772.73 164.51 771.06 162.7 770.17 160.51 769.7 157.55 769.68 155.38 770.57 152.21 771.32 148.48 772.66 144.96 773.51 143.73 773.27 140.02 773.46 136.11 772.47 132.85 771.16 132.34 770.62 127.78 768.54 124.01 767.23 117.54 765.98 114.72 765.21 113.37 764.43 111.21 761.74 110.25 759.38 109.7 754.35 110.14 748.47 110.02 744.67 109.39 742.62 108.22 740.92 105.67 736.16 105.04 735.65 103.33 732.81 101.75 731.03 100.27 728.85 98.61 724.8 97.89 718.08 96.88 715.49 95.46 713.34 94.33 712.1 92.6 710.28 90.48 708.8 86.68 707.12 82.2 706.17 81.38 706.31 79.32 705.8 77.36 705.72 74.85 704.31 73.78 702.72 73.28 699.03 73.32 696.61 73.02 695.91 73.37 694.09 72.75 691.69 71.58 689.66 69.98 688.08 68.83 687.53 66.41 687.46 64.42 688.63 63.07 690.16 62.12 691.85 60.54 693.23 59.05 693.92 56.13 694.2 54.01 692.88 52.33 692.31 50.87 692.68 48.86 695.18 46.53 696.72 42.71 697.68 41.94 698.19 38.64 698.4 35.96 697.46 32.88 693.99 31.24 692.8 29.74 692.25 27.17 691.99 25.5 690.88 21.57 684.45 20.35 682.77 18.6 681.19 15.8 679.98 13.77 680.01 12.66 680.67 10.47 682.82 7.76 686.93 5.93 688.05 2.8 688.85 1 689.71 Z M 393.63 94.4 395.48 93.09 395.77 91.21 396.61 90.58 398.53 90.57 399.49 92.3 401.7 92.5 403.53 90.63 403.21 92.44 403.46 93.92 403.42 96.36 402.41 98.24 400.04 98.82 399.49 97.38 397.11 96.47 395.36 96.27 393.62 94.97 393.63 94.4 Z M 392.26 120.11 393.98 118.62 394.52 119.32 394.2 120.79 392.45 121.84 392.26 120.11 Z M 381.76 72.5 384.76 71.81 384.29 72.65 381.98 72.85 381.76 72.5 Z M 377.29 74.74 379.75 73.06 381.26 73.73 381.29 75.6 380.56 76.45 380.86 77.8 379.38 78.03 378.6 75.32 377.29 74.74 Z M 375.48 68.43 376.85 66.78 377.25 65.64 378.21 65.23 379.46 65.49 379.88 66.32 379.66 68.07 380.2 69.01 377.69 69.27 375.48 68.43 Z M 373.91 84 375.68 81.44 377.03 80.83 377.22 82.13 379.64 82.02 380.91 79.74 382.64 79.45 382.48 80.85 379.62 82.6 379.51 84.22 377.64 85.74 376.99 86.94 375.49 88.01 374.32 88.19 375.21 85.18 373.91 84 Z M 265.86 69.25 268.72 67.52 269.84 69.55 266.73 71.7 265.54 70.09 265.86 69.25 Z M 262.65 68.91 264.8 67.78 265.24 68.63 262.71 69.98 262.65 68.91 Z" fill-rule="evenodd" fill="none" stroke="currentColor" stroke-width="50.170"/>
</g>
</svg>