<?xml version="1.0"?>
<svg xmlns="http://www.w3.org/2000/svg" version="1.2" baseProfile="tiny" viewBox="-40.0 -40.0 880.0 397.0" stroke-linecap="round" stroke-linejoin="round">
<g id="state">
<path d="M 781.61 47.81 782.75 55.03 783.18 57.58 784.46 65.82 785.11 69.75 786.37 77.16 787.47 83.47 788.76 90.72 790.62 101.45 791.6 107.12 792.29 111.3 792.77 114.03 794.03 121.61 795.05 127.52 796.1 133.98 796.65 137.11 797.29 141.11 798.26 146.73 799 150.81 798.64 151.28 798.86 151.72 798.78 152.34 798.89 153.48 798.46 164.45 798.12 173.88 798.08 175.52 797.74 184.75 797.26 199.02 796.93 209.19 796.56 220.61 796.31 229.32 795.97 241.43 795.57 253.85 795.39 261.46 795.24 265.69 795.13 270.93 795.03 273.83 794.72 284.48 794.45 294.51 794.34 297.38 794.15 305.1 793.94 311.86 793.89 314.23 793.66 315.2 792.05 315.83 791.45 315.54 790.95 314.68 790.7 314.97 790.86 315.77 790.68 316.13 790.03 316.28 789.34 315.77 789.55 315.18 790.66 314.47 790.54 313.96 789.96 313.92 788.68 314.38 787.68 315.16 786.61 315.31 786.03 314.91 786.19 314.32 786.68 314.03 788.35 313.45 788.61 312.73 787.96 312.11 786.01 312.89 785.12 313.61 784.33 313.64 784.48 313.08 785.54 312.23 786.54 312 786.89 311.71 786.65 311.31 785.06 311.58 785.18 311.1 785.1 310.42 784.39 309.73 783.93 310.09 784.17 310.52 783.9 311.67 783.16 311.91 782.55 311.65 782.16 311.24 781.65 310.21 780.77 310.12 780.48 310.39 780.39 310.92 779.62 311.82 778.68 311.93 778.1 312.17 777.59 312.14 776.88 311.81 776.73 311.21 777.73 310.76 778.49 311.2 779.03 310.91 778.75 310.11 779.67 308.84 779.23 308.32 778.76 308.49 778.87 309.38 778.48 309.76 777.81 309.21 776.95 308.95 775.37 309.9 773.79 309.6 772.25 309.5 772.57 308.77 773.55 308.71 773.85 308.25 773.4 307.86 771.95 307.23 771.09 306.96 770.7 307.03 770.93 307.59 771.36 307.93 772.13 308.08 772.47 308.92 772.14 309.48 770.53 309.16 770.15 308.39 769.12 307.99 769.02 307.45 770.12 307.2 770.86 306.67 770.94 306.28 770.54 305.92 770.04 305.96 769.75 306.38 769.73 306.88 769.18 307.19 768.58 306.79 769.52 306.11 769.17 305.31 768.86 305.37 768.34 305.9 767.15 305.92 766.28 305.64 765.71 305.13 766.9 304.1 768.16 304.11 768.57 303.78 768.55 303.18 768.04 302.88 767.32 302.8 766.85 303.2 766.54 304.25 765.57 304.78 764.9 305.01 764.44 305.39 763.53 305.16 763.06 304.72 763.49 304.11 763.52 303.73 763.08 303.4 763.12 302.49 762.47 302.01 761.9 302.48 761.78 303.04 762.49 304 762.77 305 762.51 305.4 762 305.15 762.05 304.64 760.68 304.77 759.64 304.71 759 304.54 757.7 303.87 757.47 303.58 758.43 302.69 758.35 302.07 757.67 302.17 757.77 303.04 757.52 303.1 756.67 302.37 756.55 302.02 755.51 302.02 754.95 301.63 754.95 301.26 754.27 301.15 753.33 300.02 753.26 299.74 753.78 298.3 754.31 297.74 753.87 296.85 753.36 296.45 752.86 296.68 753.19 297.7 753.17 298.32 751.75 298.59 750.88 298.36 750.35 297.6 751.16 296.73 751.25 296.32 750.38 295.88 749.34 295.69 749.21 294.6 748.92 293.47 748.24 293.57 747.58 294.35 746.76 294.29 746.21 293.5 745.69 293.34 744.89 293.73 742.56 293.53 741.47 293.17 741.3 292.75 741.32 291.85 740.58 291.11 740.43 289.65 740.19 289.49 739.41 289.53 739.04 289.18 739.79 289.06 740.12 288.52 739.86 288.26 739.14 288.37 739.05 289.01 738.7 289.36 738.57 291.16 738.36 291.7 737.64 291.59 736.73 290.5 736.72 290.12 737.53 289.78 738.6 289.03 738.88 288.56 738.77 288.09 738.35 287.8 737.67 288.52 737.11 288.77 736.18 288.97 735.49 289.41 734.86 289.42 734.32 289.22 733.77 288.33 734.69 287.43 734.74 286.91 733.95 286.41 733.1 286.59 731.4 286.41 730.05 285.47 728.81 285.22 727.58 284.86 726.56 284.22 725.85 283.99 725 284.05 724.6 284.27 724.35 285.2 723.21 285.7 722.67 286.47 722.97 288.45 722.88 289.25 722.4 290.39 721.69 290.97 721.2 290.39 721.36 289.87 721.21 289.01 720.91 288.76 720.34 288.78 719.8 289.03 719.44 289.49 720.13 290.73 720.13 291.84 719.89 292.11 718.64 292.36 717.5 292.16 716.78 291.57 715.72 291.15 715.27 291.44 714.59 292.19 713.22 292.66 712.21 292.92 711.05 292.77 709.75 292.81 708.97 293.07 707.79 293.05 706.21 292.58 705.19 292.96 704.55 292.88 703.64 292.5 702.89 292.4 702.94 291.78 703.23 291.07 702.87 291.01 702.28 291.51 701.01 291.98 700.24 292.16 698.94 292.02 698.98 290.33 698.41 290.08 697.75 290.77 696.33 291.58 695.44 291.64 694.89 291.16 694.71 290.78 695.02 289.81 694.9 288.75 694.56 287.56 694.1 287 693.2 286.7 692.32 286.76 691.86 286.65 691.11 285.91 690.4 285.88 690.25 286.75 689.76 287.14 688.64 287.25 687.86 288.37 687.62 289.1 687.12 289.38 686.63 289.37 685.02 288.9 684.54 288.88 683.78 289.18 682.79 290.35 681.89 290.9 680.8 291.14 679.72 291.17 679 290.67 677.48 290.12 676.31 290.19 675.59 290.57 675.04 291.58 675.13 292.33 676.07 293.49 676.05 293.93 675.75 294.3 674.94 294.78 674.32 294.93 673.19 294.38 672.02 293.59 671.13 293.42 670.08 293.57 669.65 293.81 669.58 294.2 669.78 295.19 669.49 295.55 668.72 295.9 668 295.79 666.99 295.25 666.38 294.55 665.29 294.36 664.15 293.65 663.36 293.05 662.69 292.85 661.31 292 659.93 291.24 659.23 291.34 658.85 292.49 658.39 293.32 657.82 293.65 656.94 293.71 655.14 294 654.34 294.25 654.41 293.54 654.3 292.99 652.65 292.29 652.56 292.77 652.96 293.31 653.4 293.38 653.08 294.38 652.4 294.91 651.01 295.35 650.76 295.18 651.11 294.16 650.42 293.79 650.06 294.09 650.06 294.61 649.36 295.36 648.38 295.74 646.57 295.16 645.05 294.79 643.6 294.68 643.84 295.6 643.68 296.3 642.69 296.12 641.48 295.42 640.73 295.65 639.99 295.49 639.05 295.68 638.81 296.16 639.07 297.35 638.89 297.55 638.1 297.4 637.43 297.47 636.46 297.84 636.25 298.18 636.57 298.92 637.1 298.66 637.68 297.92 638.05 298.06 637.55 300.99 637.12 302.01 636.18 302.9 634.55 303.53 632.91 303.85 632.4 304.03 631.48 303.93 630.93 303.53 629.21 302.72 628.37 302.16 627.02 301.87 625.89 301.85 625.38 302.15 625.17 302.94 624.43 304.32 624.27 305.23 624.4 306.3 623.95 307.7 623.25 308.75 622.93 308.94 622.09 309.04 621.39 309.53 620.63 309.73 619.47 309.43 619.12 308.98 619.09 308.3 618.83 307.87 618.52 306.88 617.97 306.5 617.29 305.72 615.98 304.72 615.01 303.83 614.42 303.04 613.91 301.76 613.5 301.33 612.87 301.12 611.39 300.9 610.91 300.98 610.18 301.44 609.33 301.39 607.45 301.67 606.29 301.67 605.59 301.15 604.83 300.23 604.92 299.59 604.72 298.51 604.03 297.3 603.33 296.99 601.66 297.35 600.17 297.41 599.57 297.35 598.27 296.53 596.95 295.94 594.91 295.27 594.34 294.9 594.38 294.25 595.98 292.69 597.31 292.14 597.99 291.63 598.43 290.86 598.14 290.3 597.8 290.24 595.68 290.33 594.26 290.25 591.95 288.54 591.49 288.27 590.81 288.25 590.23 288.68 589.48 290.32 589.3 291.3 589.42 292 589.18 293.28 588.62 294.49 587.8 295.5 587.34 295.88 586.48 296.22 585.42 296.31 583.68 296.71 582.02 296.86 581.3 296.58 580.61 295.23 580.35 293.74 579.98 293.22 578.98 292.72 577.26 292.37 575.45 292.17 574.74 292.77 574.57 294.21 573.74 294.74 573.22 294.71 572.26 294.19 570.72 292.8 569.53 290.16 569.4 289.4 569.47 288.59 569.19 286.69 568.65 285.43 568.2 284.91 567.49 284.37 566.88 284.32 565.89 284.76 564.98 285.25 564.32 285.66 562.86 286.2 562.27 286.5 561.71 285.95 561.6 285.33 561.75 284.69 560.9 284.76 560.36 285.25 560.18 285.85 560.39 287.13 560.96 288.24 561.23 289.37 561.33 290.46 560.39 292.09 559.83 292.82 558.91 293.57 557.83 294.82 556.91 295.3 556.01 295.63 555.53 295.45 554.63 293.95 553.89 293.55 553.35 293.52 551.77 294.11 551.42 294.71 551.44 295.04 552.06 295.37 553.21 295.45 554.46 295.74 554.99 296.06 555.33 296.54 555.33 297.53 552.86 297.88 552.15 298.1 551.2 298.75 550.95 299.36 551.05 300.26 551.73 301.78 551.9 302.42 551.92 303.57 551.81 304.3 551.49 304.98 550.92 305.73 549.49 306.64 548.32 306.86 546.58 306.59 545.45 306.2 544.44 305.56 543.66 304.76 543.57 304.25 543.06 303.37 542.02 303.04 541.86 302.79 542.35 301.95 542.06 301.33 542.1 300.89 541.16 299.77 540.68 298.87 540.74 297.46 541.23 296.58 541.7 296.23 543.07 296.19 543.85 295.85 544.28 295.34 544.31 294.73 544.12 293.92 543.35 292 543.1 290.55 542.56 289.76 541.17 289.01 540.63 288.5 540.03 288.35 538.56 288.59 538.27 288.87 537.53 289.08 537.01 289.53 536.84 290.07 536.87 290.99 536.69 291.35 536.63 292.14 536.03 293.21 534.42 293.39 533.03 292.61 531.69 291.33 531.19 290.94 530.85 291.03 531.02 291.9 530.57 292.9 529.47 293.82 528.91 294.01 528.67 293.81 528.79 293.16 529.64 292 529.49 291.33 528.93 291.27 528.43 292.14 528.17 293.57 527.54 294.77 526.84 295.6 526.56 296.22 525.8 296.93 524.94 297.41 523.04 297.28 521.99 297.38 520.09 297.4 518.41 296.9 517.65 296.48 517.09 295.92 516.7 295.12 516.86 294.52 517.4 293.73 517.73 292.72 517.83 290.6 517.15 289.65 516.02 288.99 514.75 288.38 514.21 288.13 513.19 288.01 511.03 288.74 509.25 289.71 508.48 290.02 507.85 290.1 507.04 289.68 506.54 289.89 505.73 289.86 504.97 289.46 504.91 289.08 504.31 288.54 504.25 287.94 504.76 287.2 504.39 285.97 505.01 285 504.81 284.78 504.02 284.58 503.88 284.17 503.12 283.49 502.52 283.35 500.82 282.26 498.64 281.56 498.24 281.37 497.33 281.3 495.8 281.71 494.88 282.53 494.27 283.93 493.77 284.72 492.74 285.73 491.66 286.41 490.74 286.35 489.54 286.4 488.79 286.65 489.09 287.48 489.13 288.07 488.56 288.57 487.89 288.49 487.5 288.06 486.88 288.12 486.64 288.58 487.18 289.38 487.15 290.24 486.77 290.7 486.05 289.91 485.45 289.96 485.18 290.28 485.2 291.21 484.79 292.01 483.9 291.5 483.54 291.88 483.51 292.57 483.21 292.95 482.52 293.33 482.23 293.73 480.9 294.04 479.37 294.51 478.69 294.57 478.07 294.43 477.6 294.08 476.5 293.81 475.12 292.88 473.38 292.23 472.86 291.86 472.34 291.74 470.72 291.8 469.83 291.53 469.12 291.09 468.18 290.01 468.26 289.45 468.59 288.76 468.87 288.66 469.64 289.27 470.3 288.95 470.72 288.48 471.13 287.08 471.07 286.43 469.41 286.37 469.13 286.02 469.38 285.63 470.35 285.07 470.74 284.38 471.51 282.14 471.68 281.36 470.61 281.37 470.06 280.94 469.36 280.01 468.63 280.08 467.9 280.53 466.83 280.79 465.24 281.06 462.9 281.13 458.87 280.25 458.46 279.85 459.05 279.6 458.9 279.18 458.39 278.72 457.84 278.5 457.08 277.8 456.83 277.38 457.26 276.88 457.65 276.92 458.18 277.38 458.97 277.06 458.92 276.63 457.36 275.86 456.06 274.72 455.53 273.8 455.46 272.95 455.7 272.55 457.18 271.2 457.87 270.16 458.3 269.11 458.33 268.4 458.01 268.19 457.44 268.29 457.11 268.03 457.36 267.28 457.24 266.85 456.54 266.17 455.24 266.13 454.55 266.5 453.97 267.04 452.57 268.87 452.07 269.3 450.99 269.88 448.1 269.64 447.36 269.29 446.51 269.15 445.91 268.87 445.73 268.48 445.08 267.98 444.46 267.99 443.64 268.35 442.85 268.46 442.36 268.27 441.31 268.21 440.63 268.34 438.78 267.99 437.05 266.88 436.69 266.58 434.78 266.17 432.84 265.89 432.23 266.35 431.19 266.63 430.69 267.4 431.31 268.01 431 268.42 430.47 268.11 429.63 268.56 429.64 270.78 429.29 271.33 428.86 271.1 428.41 271.34 428.59 271.76 428.48 272.24 427.74 272.82 426.5 272.54 425.5 272.78 425.17 273.49 424.4 273.76 423.34 273.71 422.83 274.4 421.85 274.72 421.45 274.69 420.68 273.99 419.79 273.79 418.61 272.51 417.55 271.68 416.81 270.53 415.44 269.41 414.5 268.98 414.63 268.63 415.35 268.68 415.18 268.07 414.57 268.12 413.91 267.65 412.97 266.63 412.36 266.43 411.52 265.87 410.58 265.57 409.65 265.97 408.85 265.88 406.84 265.2 406.39 265.21 405.68 265.78 404.21 266.65 403.68 267.25 403 267.63 402.48 268.12 401.54 267.86 400.99 267.95 400.4 268.31 399.82 267.81 399.44 267.92 398.25 267.93 397.88 268.66 396.97 268.95 396.21 268.91 395.92 268.19 395.35 267.78 394.29 267.53 393.33 266.86 392.6 267.22 391.84 266.19 390.82 265.8 389.35 265.42 388.8 265.95 387.17 265.46 386.91 265.52 386.65 266.56 386.12 266.63 385.42 266.22 385.27 265.9 385.62 265.34 385.46 265.01 384.14 264.85 383.09 264.21 382.07 263.99 381.01 263.44 379.84 262.15 378.22 260.79 377.5 260.62 377.15 260.86 377.13 261.47 376.82 261.76 376.18 261.65 375.8 261.29 375.37 260.27 374.4 259.9 373.57 260.25 373.19 260.58 373.46 260.92 373.1 261.28 372.42 261.6 370.15 261.3 369.59 262.06 368.23 261.84 368.02 261.45 367.45 261.11 366.12 260.83 365.27 261.1 364.76 260.79 364.11 261.39 363.5 261.5 363.12 261.35 362.36 261.72 361.53 261.48 361.34 261.2 361.76 260.61 361.77 260.22 360.82 260.09 360.23 260.51 359.92 260.97 359.05 261.23 357.44 260.8 355.96 260.56 355.68 260.14 355.94 259.36 355.85 258.88 355.29 257.76 355.36 257.3 355.75 256.72 355.68 256.33 355.09 256.26 355.52 255.2 355.42 254.33 354.28 254.09 353.94 253.31 354.11 252.79 353.78 251.8 353.98 251.25 354.45 250.67 354.11 250.27 354.01 249.11 354.36 249.02 353.4 248.72 352.48 249.07 351.81 248.82 352.4 247.98 351.83 247.61 351.61 247.13 351.51 246.38 350.87 246.66 350.53 246.31 351.02 245.82 350.45 245.51 349.92 245.84 349.49 245.42 348.51 245.06 348.08 244.73 348.2 244.41 349.01 244.38 349.53 244.01 349.27 243.79 349.3 242.95 348.74 242.78 348 243.27 347.26 243 347.29 242.58 346.82 241.97 346.2 241.84 344.83 242.37 343.99 242.5 343.44 241.93 343.02 241.19 342.52 240.71 341.96 240.47 340.4 239.36 340.59 238.45 340.21 238.08 338.66 237.8 338.06 238.05 337.39 238.91 336.83 239.36 336.75 240.02 337.04 240.35 336.64 241.05 336.69 241.67 337.58 242.27 337.15 242.76 336.69 243.96 336.74 244.9 336.5 245.53 335.71 245.83 335.17 245.42 334.46 245.1 334.18 244.61 333.83 244.66 333.57 245.16 333.5 245.97 332.82 245.96 332.32 245.47 331.59 244.49 331.22 244.57 331.14 245.1 330.7 245.08 330.57 244.1 330.21 243.66 329.66 243.69 328.3 243.47 327.04 242.38 326.37 242.36 325.43 241.93 324.3 242.21 323.21 242.04 322.37 242.07 321.28 241.66 320.59 241.56 319.65 241.7 319.22 242.52 319.13 243.45 319.21 244.09 319.03 244.47 318.42 244.91 317.76 245.63 317.22 245.45 315.51 245.74 314.75 245.32 313.28 244.92 312.86 245.38 311.81 245.73 310.48 245.16 308.97 245.3 308.35 244.65 307.84 244.58 307.07 243.79 307.1 243.32 306.52 242.66 305.94 242.29 304.65 241.9 303.48 241.33 302.91 240.79 302.2 240.44 302.35 239.79 301.4 239.16 300.66 239.09 300.44 238.52 299.73 238.26 298.88 237.16 297.84 236.21 297.42 235.41 297.59 234.92 297.11 234.17 296.72 234.17 295.97 233.84 294.21 232.89 293.1 231.83 292.42 231.01 292.01 230.27 291.61 230.04 290.88 229.27 288.91 228.18 287.81 227.43 287.67 227.03 285.68 226.6 284.83 226.66 284.48 227.2 283.22 228.15 281.18 228.42 280.5 228.34 280.49 227.5 280.49 212.57 280.49 201.07 280.49 194.25 280.49 179.1 280.49 168.36 280.49 153.48 280.49 148.09 280.56 148.09 280.56 140.82 280.49 139.08 280.49 129.23 280.49 121.46 280.49 111.72 280.49 98.45 280.49 90 280.49 82.12 280.49 70.09 280.49 60.13 280.49 47.79 280.18 47.78 264.69 47.77 263.65 47.8 253.26 47.78 249.39 47.82 234.98 47.81 232.62 47.83 214.7 47.81 201.78 47.8 201.36 47.78 189.56 47.77 189.54 47.8 182.4 47.81 178.21 47.85 175.75 47.81 167.8 47.82 152.65 47.8 152.47 47.83 141.19 47.82 122.38 47.81 118.18 47.78 109.77 47.81 109.23 47.76 100.69 47.76 91.38 47.74 91.31 47.71 82.96 47.7 82.65 47.74 73.79 47.73 60.21 47.73 59.37 47.71 47.73 47.72 36.09 47.73 24.46 47.73 17.87 47.71 12.82 47.74 1 47.72 1.02 38.57 1 31.42 1.02 30.74 1.02 20.89 1.02 13.32 1.01 1.2 2.44 1.35 12.82 1.25 18.44 1.24 24.3 1.37 29.33 1.67 33.68 1.68 41.17 1.67 59.37 1.72 67.79 1.76 70.05 1.74 74.92 1.8 87.14 1.86 90.41 1.87 103.72 1.81 118.88 1.73 129.07 1.69 139.69 1.63 152.57 1.57 167.42 1.49 176.53 1.44 187.38 1.38 203.91 1.32 204.72 1.3 212.16 1.3 217.69 1.22 228.08 1.17 233.94 1.12 240.58 1.12 251.36 1.05 270.48 1 279.18 1.04 281.17 1.07 292.29 1.06 306.35 1.17 314.9 1.22 321.66 1.23 323.25 1.25 328.53 1.24 329.73 1.26 335.73 1.25 337.68 1.2 348.81 1.26 363.79 1.27 369 1.29 370.86 1.25 388.13 1.27 392.52 1.27 399.77 1.3 406.04 1.32 416.02 1.33 417.68 1.32 424.4 1.36 431.78 1.37 437.88 1.43 443.42 1.43 444.61 1.41 451.44 1.41 466.44 1.35 481.55 1.34 491.77 1.33 500.54 1.3 504.43 1.35 507.28 1.34 516.51 1.34 525.86 1.33 539.36 1.31 544.43 1.3 556.17 1.31 564.8 1.3 584.35 1.28 594.79 1.31 606.35 1.34 610.9 1.3 625.13 1.27 634.3 1.31 635.73 1.28 639.78 1.31 642.72 1.29 652.85 1.32 656.25 1.3 670.82 1.29 686.22 1.27 692.33 1.28 703.39 1.29 714.31 1.27 729.89 1.25 749.6 1.27 756.75 1.32 769.05 1.35 774.77 1.32 780.4 1.34 781.59 1.32 781.59 10.8 781.55 18.31 781.57 25.63 781.6 33.95 781.62 36.15 781.59 44.72 781.61 47.81 Z" fill="none" stroke="currentColor" stroke-width="1"/>
</g>
</svg>