<?xml version="1.0"?>
<svg width="20" height="20" xmlns="http://www.w3.org/2000/svg" version="1.2" baseProfile="tiny" viewBox="-64.000 -266.500 928.000 928.000" stroke-linecap="round" stroke-linejoin="round">
<g id="state">
<path d="M 774.99 64.65 776.42 73.48 776.96 76.59 778.59 86.66 779.4 91.46 780.98 100.51 782.35 108.22 783.95 117.07 786.28 130.19 787.5 137.1 788.38 142.22 788.98 145.55 790.58 154.81 791.87 162.03 793.2 169.92 793.9 173.75 794.71 178.62 795.94 185.49 796.87 190.47 796.53 191.06 796.77 191.59 796.71 192.35 796.88 193.75 796.95 207.23 797.02 218.82 797.06 220.84 797.13 232.18 797.29 249.72 797.41 262.22 797.55 276.25 797.68 286.96 797.88 301.84 798.02 317.1 798.18 326.45 798.22 331.66 798.34 338.09 798.36 341.65 798.52 354.74 798.7 367.07 798.72 370.6 798.86 380.08 798.94 388.4 799 391.32 798.81 392.52 797.18 393.35 796.55 393.01 796 391.97 795.76 392.34 795.96 393.32 795.79 393.77 795.12 393.98 794.39 393.37 794.58 392.64 795.7 391.72 795.55 391.11 794.95 391.07 793.65 391.69 792.66 392.69 791.57 392.91 790.95 392.44 791.1 391.71 791.58 391.33 793.27 390.56 793.51 389.67 792.81 388.93 790.84 389.96 789.97 390.88 789.15 390.94 789.28 390.25 790.34 389.16 791.36 388.85 791.69 388.48 791.43 387.99 789.81 388.38 789.92 387.79 789.81 386.95 789.05 386.13 788.59 386.6 788.85 387.12 788.63 388.53 787.88 388.86 787.24 388.56 786.82 388.06 786.26 386.82 785.34 386.74 785.06 387.09 784.99 387.74 784.23 388.88 783.28 389.04 782.69 389.36 782.17 389.34 781.42 388.96 781.25 388.22 782.25 387.64 783.05 388.15 783.59 387.78 783.27 386.8 784.16 385.21 783.69 384.59 783.21 384.82 783.36 385.9 782.98 386.39 782.27 385.74 781.37 385.44 779.79 386.67 778.16 386.35 776.57 386.28 776.87 385.37 777.87 385.27 778.16 384.69 777.68 384.23 776.17 383.5 775.28 383.2 774.88 383.3 775.13 383.98 775.59 384.38 776.39 384.54 776.77 385.56 776.46 386.27 774.79 385.92 774.37 385 773.3 384.54 773.17 383.87 774.29 383.53 775.03 382.85 775.09 382.38 774.66 381.94 774.15 382.01 773.87 382.54 773.87 383.15 773.32 383.55 772.69 383.08 773.63 382.21 773.24 381.24 772.92 381.32 772.41 382 771.19 382.05 770.28 381.75 769.67 381.13 770.85 379.83 772.15 379.8 772.56 379.38 772.51 378.65 771.98 378.29 771.23 378.22 770.76 378.72 770.49 380.03 769.52 380.72 768.84 381.02 768.38 381.51 767.44 381.25 766.94 380.73 767.36 379.96 767.37 379.49 766.91 379.1 766.91 377.98 766.23 377.41 765.66 378.01 765.55 378.7 766.32 379.85 766.65 381.08 766.41 381.58 765.86 381.29 765.9 380.66 764.5 380.87 763.43 380.82 762.76 380.64 761.4 379.86 761.16 379.52 762.11 378.39 762 377.63 761.31 377.77 761.45 378.84 761.2 378.92 760.29 378.05 760.16 377.62 759.08 377.66 758.49 377.19 758.48 376.74 757.78 376.63 756.78 375.28 756.69 374.93 757.16 373.15 757.69 372.44 757.2 371.36 756.66 370.88 756.16 371.19 756.53 372.42 756.54 373.19 755.1 373.57 754.19 373.31 753.63 372.4 754.42 371.3 754.5 370.8 753.59 370.29 752.51 370.08 752.34 368.75 752 367.36 751.3 367.52 750.66 368.5 749.81 368.45 749.22 367.5 748.69 367.31 747.88 367.82 745.49 367.64 744.35 367.24 744.16 366.72 744.15 365.62 743.37 364.73 743.16 362.95 742.9 362.75 742.11 362.83 741.72 362.41 742.48 362.24 742.79 361.57 742.52 361.26 741.79 361.41 741.71 362.2 741.37 362.64 741.31 364.85 741.11 365.53 740.37 365.41 739.4 364.1 739.37 363.64 740.19 363.19 741.26 362.23 741.53 361.66 741.4 361.07 740.96 360.74 740.28 361.64 739.72 361.96 738.77 362.24 738.09 362.8 737.44 362.83 736.88 362.61 736.29 361.53 737.2 360.39 737.23 359.76 736.4 359.16 735.54 359.41 733.79 359.24 732.37 358.13 731.09 357.85 729.83 357.45 728.75 356.69 728.03 356.44 727.15 356.53 726.75 356.81 726.52 357.96 725.38 358.61 724.85 359.57 725.23 362 725.16 362.98 724.71 364.39 724.01 365.13 723.48 364.43 723.63 363.79 723.44 362.73 723.13 362.43 722.54 362.47 722 362.8 721.65 363.37 722.4 364.87 722.44 366.24 722.2 366.58 720.93 366.92 719.75 366.71 718.99 366.01 717.9 365.52 717.44 365.88 716.77 366.82 715.39 367.44 714.36 367.79 713.16 367.64 711.83 367.72 711.04 368.06 709.83 368.07 708.2 367.54 707.16 368.04 706.51 367.95 705.56 367.52 704.79 367.4 704.82 366.64 705.09 365.76 704.72 365.71 704.13 366.33 702.85 366.95 702.06 367.18 700.73 367.05 700.72 364.97 700.13 364.67 699.47 365.54 698.04 366.57 697.13 366.67 696.55 366.1 696.36 365.64 696.64 364.44 696.49 363.14 696.11 361.68 695.62 361.01 694.69 360.66 693.79 360.75 693.31 360.63 692.52 359.74 691.79 359.73 691.67 360.79 691.18 361.29 690.03 361.46 689.26 362.84 689.05 363.75 688.53 364.1 688.04 364.11 686.38 363.57 685.88 363.56 685.11 363.94 684.13 365.41 683.23 366.1 682.11 366.43 681.01 366.49 680.25 365.89 678.68 365.25 677.49 365.37 676.76 365.85 676.23 367.1 676.34 368.02 677.34 369.42 677.33 369.97 677.03 370.42 676.21 371.03 675.58 371.23 674.41 370.59 673.19 369.64 672.27 369.45 671.2 369.66 670.77 369.97 670.7 370.44 670.93 371.66 670.65 372.11 669.86 372.55 669.13 372.44 668.08 371.79 667.43 370.95 666.31 370.74 665.12 369.89 664.29 369.17 663.61 368.94 662.17 367.93 660.73 367.03 660.02 367.17 659.66 368.58 659.21 369.62 658.64 370.03 657.73 370.13 655.89 370.52 655.08 370.85 655.14 369.97 655.01 369.3 653.3 368.47 653.22 369.06 653.64 369.73 654.1 369.8 653.79 371.04 653.11 371.7 651.69 372.27 651.44 372.07 651.77 370.8 651.05 370.36 650.69 370.74 650.7 371.38 650.01 372.31 649.01 372.8 647.14 372.13 645.57 371.71 644.08 371.59 644.35 372.73 644.2 373.59 643.18 373.39 641.93 372.54 641.16 372.85 640.4 372.67 639.44 372.91 639.21 373.51 639.5 374.97 639.32 375.22 638.5 375.05 637.82 375.15 636.83 375.62 636.63 376.05 636.97 376.95 637.51 376.61 638.09 375.7 638.47 375.86 638.02 379.47 637.61 380.73 636.67 381.84 635.01 382.65 633.33 383.07 632.81 383.31 631.86 383.2 631.29 382.72 629.5 381.76 628.63 381.08 627.24 380.75 626.08 380.75 625.56 381.12 625.37 382.1 624.64 383.81 624.49 384.93 624.65 386.24 624.22 387.97 623.52 389.27 623.2 389.51 622.34 389.65 621.62 390.27 620.85 390.52 619.65 390.17 619.28 389.63 619.24 388.79 618.96 388.27 618.62 387.06 618.05 386.6 617.33 385.65 615.97 384.44 614.95 383.36 614.34 382.4 613.78 380.84 613.35 380.32 612.71 380.08 611.18 379.83 610.69 379.94 609.95 380.51 609.08 380.46 607.15 380.83 605.96 380.86 605.23 380.24 604.44 379.11 604.51 378.32 604.29 377 603.56 375.52 602.84 375.15 601.13 375.62 599.6 375.72 598.98 375.65 597.64 374.66 596.28 373.96 594.17 373.17 593.58 372.72 593.61 371.92 595.23 369.98 596.58 369.29 597.26 368.64 597.7 367.69 597.4 367.01 597.04 366.95 594.88 367.09 593.42 367.01 591.02 364.94 590.55 364.62 589.85 364.6 589.26 365.14 588.52 367.16 588.35 368.36 588.49 369.23 588.26 370.8 587.71 372.29 586.88 373.55 586.42 374.02 585.54 374.45 584.46 374.58 582.68 375.09 580.98 375.3 580.23 374.96 579.51 373.31 579.22 371.49 578.84 370.85 577.8 370.25 576.03 369.84 574.17 369.62 573.46 370.36 573.3 372.14 572.45 372.8 571.93 372.77 570.93 372.14 569.33 370.45 568.08 367.22 567.93 366.29 567.99 365.29 567.68 362.95 567.11 361.42 566.64 360.79 565.91 360.13 565.28 360.07 564.28 360.62 563.35 361.23 562.67 361.75 561.18 362.42 560.58 362.81 560 362.14 559.89 361.37 560.03 360.59 559.16 360.68 558.61 361.28 558.43 362.03 558.67 363.59 559.26 364.95 559.56 366.34 559.68 367.68 558.74 369.7 558.17 370.59 557.23 371.53 556.14 373.07 555.21 373.67 554.28 374.09 553.79 373.88 552.85 372.03 552.09 371.56 551.54 371.52 549.92 372.26 549.57 373 549.59 373.41 550.23 373.81 551.42 373.89 552.7 374.24 553.25 374.63 553.6 375.21 553.61 376.43 551.08 376.89 550.36 377.16 549.39 377.96 549.14 378.72 549.25 379.82 549.97 381.68 550.15 382.47 550.18 383.89 550.08 384.78 549.75 385.62 549.18 386.55 547.72 387.69 546.53 387.96 544.74 387.65 543.58 387.18 542.53 386.41 541.72 385.42 541.62 384.8 541.08 383.73 540.01 383.32 539.85 383.02 540.34 381.98 540.04 381.22 540.08 380.68 539.1 379.31 538.59 378.21 538.64 376.47 539.13 375.4 539.62 374.96 541.03 374.89 541.82 374.47 542.26 373.84 542.28 373.09 542.08 372.1 541.27 369.74 541 367.96 540.43 367 539 366.09 538.45 365.46 537.83 365.28 536.32 365.6 536.02 365.95 535.27 366.21 534.75 366.76 534.58 367.43 534.62 368.56 534.43 369 534.37 369.98 533.77 371.29 532.13 371.53 530.7 370.58 529.31 369.01 528.79 368.54 528.45 368.65 528.63 369.72 528.17 370.95 527.05 372.09 526.48 372.33 526.24 372.08 526.35 371.29 527.22 369.86 527.06 369.03 526.48 368.96 525.97 370.04 525.72 371.79 525.09 373.27 524.37 374.3 524.09 375.06 523.32 375.93 522.44 376.53 520.49 376.39 519.41 376.52 517.46 376.55 515.73 375.95 514.95 375.44 514.37 374.75 513.97 373.78 514.13 373.04 514.68 372.06 515.01 370.81 515.1 368.21 514.4 367.05 513.23 366.24 511.93 365.5 511.37 365.2 510.33 365.05 508.12 365.96 506.3 367.16 505.51 367.54 504.87 367.64 504.04 367.13 503.52 367.4 502.69 367.36 501.91 366.88 501.84 366.4 501.23 365.75 501.16 365.01 501.68 364.1 501.3 362.59 501.93 361.39 501.72 361.12 500.91 360.88 500.76 360.37 499.99 359.54 499.37 359.38 497.63 358.04 495.39 357.19 494.98 356.96 494.05 356.88 492.49 357.39 491.55 358.4 490.93 360.12 490.42 361.09 489.37 362.34 488.26 363.18 487.33 363.1 486.09 363.17 485.32 363.47 485.63 364.49 485.67 365.23 485.1 365.83 484.41 365.74 484.01 365.22 483.37 365.29 483.12 365.85 483.68 366.83 483.66 367.89 483.27 368.46 482.53 367.49 481.91 367.56 481.64 367.94 481.66 369.09 481.24 370.07 480.33 369.45 479.96 369.92 479.93 370.76 479.62 371.23 478.92 371.7 478.62 372.19 477.25 372.58 475.69 373.15 474.99 373.22 474.35 373.06 473.87 372.62 472.75 372.29 471.33 371.15 469.54 370.36 469.01 369.91 468.48 369.76 466.82 369.84 465.9 369.5 465.18 368.96 464.21 367.63 464.29 366.95 464.63 366.1 464.92 365.97 465.71 366.72 466.38 366.33 466.81 365.75 467.24 364.03 467.17 363.24 465.47 363.16 465.18 362.73 465.45 362.25 466.44 361.56 466.83 360.71 467.62 357.96 467.79 357.01 466.7 357.01 466.14 356.49 465.42 355.34 464.68 355.43 463.93 355.99 462.82 356.31 461.2 356.64 458.81 356.71 454.68 355.63 454.26 355.14 454.87 354.84 454.72 354.32 454.19 353.76 453.63 353.48 452.85 352.62 452.6 352.11 453.04 351.49 453.43 351.55 453.98 352.11 454.79 351.71 454.74 351.19 453.14 350.24 451.81 348.83 451.28 347.71 451.2 346.66 451.45 346.16 452.96 344.52 453.67 343.24 454.11 341.95 454.14 341.07 453.82 340.81 453.23 340.94 452.9 340.62 453.16 339.7 453.03 339.16 452.31 338.33 450.99 338.28 450.28 338.74 449.69 339.39 448.25 341.64 447.75 342.17 446.64 342.88 443.69 342.59 442.93 342.16 442.07 341.98 441.45 341.63 441.27 341.15 440.61 340.54 439.97 340.55 439.13 340.98 438.32 341.12 437.83 340.88 436.75 340.8 436.06 340.97 434.17 340.53 432.41 339.17 432.04 338.79 430.09 338.28 428.1 337.93 427.49 338.49 426.42 338.83 425.9 339.77 426.53 340.53 426.21 341.03 425.68 340.65 424.82 341.19 424.81 343.93 424.45 344.6 424.02 344.31 423.56 344.6 423.74 345.12 423.62 345.71 422.86 346.42 421.59 346.08 420.57 346.36 420.23 347.24 419.44 347.56 418.36 347.5 417.84 348.35 416.83 348.73 416.42 348.69 415.63 347.83 414.73 347.57 413.52 346 412.45 344.97 411.7 343.56 410.31 342.17 409.35 341.64 409.49 341.2 410.22 341.27 410.05 340.52 409.43 340.57 408.76 339.99 407.81 338.75 407.19 338.49 406.33 337.8 405.37 337.43 404.42 337.9 403.6 337.79 401.56 336.94 401.1 336.95 400.37 337.65 398.85 338.71 398.31 339.44 397.61 339.9 397.08 340.5 396.12 340.17 395.55 340.28 394.95 340.71 394.36 340.1 393.97 340.23 392.76 340.23 392.37 341.12 391.44 341.48 390.66 341.42 390.37 340.54 389.79 340.02 388.71 339.71 387.74 338.88 386.99 339.32 386.22 338.04 385.19 337.55 383.69 337.08 383.12 337.72 381.46 337.11 381.2 337.18 380.92 338.45 380.38 338.54 379.67 338.02 379.51 337.63 379.88 336.95 379.72 336.54 378.37 336.33 377.31 335.54 376.27 335.26 375.19 334.57 374.01 332.97 372.38 331.29 371.65 331.07 371.28 331.35 371.26 332.11 370.93 332.46 370.28 332.33 369.9 331.87 369.48 330.62 368.49 330.15 367.64 330.57 367.24 330.97 367.51 331.39 367.14 331.84 366.45 332.22 364.13 331.82 363.55 332.75 362.16 332.47 361.96 331.99 361.38 331.57 360.03 331.2 359.15 331.52 358.63 331.14 357.97 331.86 357.34 332 356.96 331.81 356.17 332.26 355.33 331.95 355.14 331.61 355.58 330.88 355.59 330.4 354.63 330.24 354.02 330.75 353.69 331.31 352.8 331.61 351.17 331.06 349.66 330.75 349.37 330.23 349.66 329.27 349.57 328.68 349.02 327.31 349.1 326.74 349.5 326.03 349.44 325.55 348.84 325.46 349.29 324.17 349.2 323.09 348.05 322.78 347.71 321.82 347.89 321.18 347.57 319.96 347.78 319.28 348.27 318.58 347.93 318.08 347.84 316.66 348.2 316.56 347.23 316.17 346.29 316.59 345.61 316.27 346.22 315.25 345.64 314.79 345.42 314.2 345.34 313.27 344.68 313.6 344.34 313.17 344.84 312.58 344.28 312.19 343.73 312.59 343.3 312.06 342.3 311.61 341.87 311.2 342 310.81 342.82 310.79 343.36 310.34 343.1 310.06 343.14 309.03 342.58 308.82 341.81 309.4 341.07 309.07 341.1 308.55 340.63 307.79 340 307.63 338.6 308.26 337.74 308.41 337.19 307.7 336.78 306.79 336.28 306.19 335.71 305.89 334.14 304.5 334.35 303.39 333.96 302.92 332.4 302.56 331.78 302.86 331.08 303.91 330.51 304.45 330.41 305.26 330.7 305.67 330.28 306.52 330.32 307.29 331.22 308.03 330.78 308.63 330.28 310.09 330.32 311.25 330.07 312.02 329.25 312.38 328.71 311.86 327.99 311.47 327.72 310.86 327.35 310.91 327.08 311.53 326.99 312.51 326.31 312.5 325.81 311.88 325.08 310.67 324.7 310.76 324.61 311.41 324.16 311.38 324.05 310.18 323.68 309.63 323.13 309.65 321.75 309.37 320.49 308 319.8 307.97 318.86 307.43 317.7 307.75 316.59 307.53 315.74 307.55 314.64 307.03 313.93 306.9 312.98 307.05 312.52 308.05 312.41 309.2 312.47 309.99 312.28 310.45 311.66 310.98 310.97 311.85 310.43 311.62 308.68 311.94 307.91 311.41 306.43 310.9 305.99 311.46 304.91 311.87 303.56 311.14 302.02 311.3 301.4 310.49 300.88 310.39 300.13 309.4 300.16 308.82 299.59 308.01 299 307.54 297.7 307.04 296.52 306.32 295.95 305.64 295.23 305.19 295.4 304.4 294.46 303.61 293.7 303.51 293.49 302.81 292.78 302.47 291.93 301.11 290.9 299.92 290.48 298.93 290.67 298.34 290.2 297.4 289.81 297.4 289.05 296.97 287.28 295.77 286.18 294.44 285.5 293.43 285.11 292.51 284.71 292.22 283.99 291.26 282 289.88 280.9 288.93 280.78 288.44 278.76 287.87 277.89 287.93 277.53 288.59 276.23 289.73 274.14 290.03 273.46 289.9 273.46 288.88 273.84 270.54 274.14 256.41 274.31 248.03 274.69 229.43 274.96 216.24 275.34 197.96 275.48 191.35 275.54 191.35 275.73 182.42 275.7 180.28 275.95 168.18 276.15 158.64 276.4 146.68 276.73 130.37 276.95 120.01 277.15 110.33 277.45 95.55 277.7 83.32 278.01 68.16 277.7 68.14 262.35 67.8 261.32 67.81 251.01 67.55 247.17 67.5 232.89 67.15 230.55 67.11 212.78 66.6 199.97 66.22 199.56 66.18 187.86 65.83 187.84 65.86 180.76 65.65 176.6 65.57 174.16 65.44 166.28 65.19 151.26 64.67 151.09 64.69 139.91 64.28 121.26 63.58 117.09 63.39 108.77 63.09 108.23 63.02 99.76 62.67 90.54 62.27 90.48 62.23 82.2 61.87 81.89 61.9 73.11 61.52 59.65 60.92 58.82 60.87 47.29 60.35 35.76 59.82 24.23 59.26 17.71 58.91 12.7 58.7 1 58.08 1.59 46.86 2.03 38.08 2.09 37.25 2.71 25.17 3.2 15.87 3.95 1 5.34 1.26 15.57 1.65 21.1 1.91 26.86 2.36 31.79 2.97 36.08 3.18 43.46 3.52 61.37 4.41 69.66 4.83 71.88 4.9 76.68 5.19 88.7 5.78 91.92 5.92 105.04 6.38 119.97 6.88 130.01 7.2 140.47 7.52 153.16 7.9 167.79 8.3 176.77 8.52 187.46 8.78 203.74 9.21 204.54 9.2 211.87 9.41 217.32 9.47 227.56 9.68 233.33 9.77 239.87 9.93 250.5 10.11 269.34 10.47 277.91 10.71 279.87 10.78 290.82 10.99 304.68 11.38 313.1 11.59 319.76 11.71 321.33 11.76 326.53 11.83 327.71 11.88 333.63 11.95 335.55 11.92 346.51 12.14 361.27 12.32 366.41 12.41 368.24 12.38 385.27 12.57 389.59 12.6 396.74 12.7 402.91 12.77 412.75 12.84 414.38 12.84 421.01 12.92 428.28 12.96 434.3 13.05 439.75 13.07 440.93 13.05 447.66 13.06 462.44 13.01 477.33 12.98 487.41 12.95 496.04 12.88 499.88 12.93 502.7 12.9 511.79 12.85 521 12.78 534.3 12.67 539.31 12.62 550.87 12.52 559.38 12.42 578.64 12.17 588.93 12.06 600.32 11.93 604.8 11.81 618.83 11.54 627.86 11.42 629.27 11.36 633.27 11.32 636.16 11.24 646.15 11.08 649.5 10.98 663.85 10.67 679.02 10.28 685.04 10.15 695.94 9.87 706.7 9.57 722.04 9.11 741.46 8.54 748.51 8.38 760.63 8.02 766.25 7.8 771.8 7.63 772.98 7.56 773.38 19.2 773.66 28.43 773.99 37.42 774.38 47.63 774.49 50.33 774.83 60.86 774.99 64.65 Z" fill="none" stroke="currentColor" stroke-width="46.400"/>
</g>
</svg>