<svg viewBox="-103.85955290000001 -37.8594519 10.2856788 5.100758800000001" xmlns="http://www.w3.org/2000/svg">
  <path d="M -94.61777126855124,36.499532 L -94.617985,36.53266 L -94.617709,36.624745 L -94.617957,36.648434 L -94.618273,36.737727 L -94.618471,36.816364 L -94.618061,36.89708 L -94.617964,36.998905 L -94.630846,36.998677 L -94.691309,36.998841 L -94.752677,36.998591 L -94.88484,36.99886 L -94.961591,36.999464 L -95.17338,36.99962 L -95.34063,36.999364 L -95.45793,36.999234 L -95.576784,36.999266 L -95.64237,36.999377 L -95.807798,36.999147 L -95.9642698721952,36.999106711428055 L -96.00081,36.99886 L -96.109674,36.999194 L -96.141196,36.998973 L -96.184708,36.999338 L -96.200083,36.999031 L -96.298598,36.99941 L -96.451464,36.999103 L -96.500289,36.998643 L -96.624488,36.998985 L -96.73659,36.999286 L -96.94657,36.99905 L -97.039307,36.998965 L -97.165328,36.999066 L -97.219886,36.998931 L -97.364866,36.998813 L -97.465239,36.998685 L -97.564356,36.998712 L -97.595028,36.998546 L -97.636844,36.999085 L -97.73099298466074,36.99873587195431 L -97.840796,36.998675 L -98.003045,36.998501 L -98.164216,36.997937 L -98.237538,36.997961 L -98.250334,36.997698 L -98.309827,36.997733 L -98.37535,36.998317 L -98.454587,36.99841 L -98.52686,36.998875 L -98.544661,36.998759 L -98.651842,36.998871 L -98.719192,36.999068 L -98.797019,36.999459 L -98.844159,36.999448 L -99.029734,36.999588 L -99.049695,36.999221 L -99.105701,36.999451 L -99.266568,36.999513 L -99.386137,37.000115 L -99.407015,36.999579 L -99.471493,36.999476 L -99.484385,36.999729 L -99.54111606329218,36.99961851668369 L -99.558221,36.99987 L -99.630799,36.999972 L -99.722588,37.000479 L -99.873651,37.001642 L -99.99306,37.001609 L -100.014413,37.001876 L -100.107891,37.002312 L -100.313228,37.001767 L -100.429077,37.001076 L -100.500428,37.000981 L -100.563271,37.000474 L -100.6749,36.99993 L -100.734276,36.999062 L -100.814277,36.999085 L -100.822984,36.998824 L -101.000446,36.998276 L -101.117017,36.997608 L -101.214917,36.996997 L -101.374381,36.996179 L -101.51278,36.995566 L -101.6268,36.994922 L -101.736218,36.994432 L -101.89909,36.993631 L -102.042089,36.993016 L -102.077193,36.993084 L -102.208397,36.993731 L -102.260789,36.994388 L -102.285007,36.994152 L -102.375461,36.99458 L -102.57091,36.995134 L -102.651431,36.995047 L -102.698142,36.995149 L -102.752141,36.998341 L -102.815074,36.999774 L -102.875481,36.999628 L -102.986976,36.998524 L -103.002329,37.00015 L -103.002146,36.869968 L -103.002229,36.788621 L -103.002183,36.682864 L -103.002413,36.67552 L -103.002223,36.598726 L -103.00236496896594,36.500501030627795 L -102.875477,36.500238 L -102.821224,36.500632 L -102.750472,36.5004 L -102.625467,36.500364 L -102.500462,36.500437 L -102.375457,36.500552 L -102.366476,36.500396 L -102.22058,36.500333 L -102.12545,36.500324 L -102.122066,36.500684 L -102.032338,36.500575 L -102.031592,36.500266 L -101.931658,36.500101 L -101.839853,36.500024 L -101.834063,36.499556 L -101.74382,36.499799 L -101.698685,36.499508 L -101.496598,36.499455 L -101.375437,36.499343 L -101.373576,36.499583 L -101.21079245506148,36.49946124342537 L -101.125434,36.499519 L -101.098994,36.499118 L -101.053967,36.499532 L -100.977271,36.499593 L -100.977037,36.499926 L -100.8503,36.49987 L -100.845825,36.499663 L -100.707011,36.499521 L -100.51451872395197,36.49929015253805 L -100.489195,36.499475 L -100.334441,36.49944 L -100.292875,36.499876 L -100.181221,36.499633 L -100.170082,36.4999 L -100.003762,36.499849 L -100.000406,36.499702 L -100.000403,36.367178 L -100.0004,36.260226 L -100.00039,36.130969 L -100.00039884990218,36.046315995123095 L -100.000397,35.955641 L -100.000395,35.813036 L -100.000393,35.708386 L -100.000391,35.624962 L -100.000391,35.51913 L -99.999632,35.50044 L -99.99966,35.422364 L -100.000393,35.422369 L -100.00038,35.364521 L -100.00042,35.204641 L -100.000384,35.089338 L -100.000383,34.92662 L -100.000382,34.853311 L -100.00038720273695,34.72976425562976 L -100.000417,34.569443 L -100.000277,34.56045 L -99.993023,34.55952 L -99.971013,34.562501 L -99.957542,34.572709 L -99.953817,34.578527 L -99.944679,34.579135 L -99.923211,34.574552 L -99.921801,34.570253 L -99.909988,34.562135 L -99.888741,34.550452 L -99.880898,34.542219 L -99.876597,34.539709 L -99.872255,34.531722 L -99.864891,34.522993 L -99.853053,34.511585 L -99.834122,34.501357 L -99.826045,34.497779 L -99.821839,34.497848 L -99.81672,34.489718 L -99.818573,34.484495 L -99.81399304793551,34.475889724156744 L -99.802864,34.465668 L -99.793684,34.453894 L -99.786081,34.451099 L -99.78376,34.445005 L -99.775743,34.444225 L -99.765599,34.437488 L -99.767234,34.430502 L -99.759607,34.426674 L -99.753447,34.420853 L -99.740907,34.414763 L -99.727031,34.410554 L -99.720784,34.40657 L -99.714591,34.399563 L -99.714838,34.394524 L -99.706658,34.385981 L -99.701187,34.385203 L -99.694528,34.378218 L -99.678283,34.379799 L -99.663948,34.37368 L -99.652674,34.377412 L -99.648142,34.382312 L -99.632423,34.378093 L -99.624197,34.373577 L -99.605854,34.376676 L -99.600026,34.374688 L -99.592983,34.382407 L -99.58646147514415,34.38715446803055 L -99.584531,34.391205 L -99.585306,34.398122 L -99.584369,34.408154 L -99.579756,34.416928 L -99.569696,34.418418 L -99.562204,34.417319 L -99.550514,34.412944 L -99.541531,34.413241 L -99.529786,34.411452 L -99.517624,34.414494 L -99.507621,34.409887 L -99.500367,34.409677 L -99.486809,34.397874 L -99.472268,34.395602 L -99.466383,34.3959 L -99.462462,34.391137 L -99.461053,34.380666 L -99.456328,34.380392 L -99.455472,34.386097 L -99.451465,34.386922 L -99.443669,34.376457 L -99.438269,34.371164 L -99.431043,34.371117 L -99.430257,34.379715 L -99.427497,34.385136 L -99.423679,34.385663 L -99.420714,34.380386 L -99.413045,34.377012 L -99.407307,34.372593 L -99.398728,34.375832 L -99.396151,34.382546 L -99.396714,34.392667 L -99.39175,34.405533 L -99.387181,34.410842 L -99.396751,34.41721 L -99.397267,34.423924 L -99.393022,34.431417 L -99.396115,34.43497 L -99.395187,34.44203 L -99.389227,34.446863 L -99.382009,34.456099 L -99.37555,34.458789 L -99.35897,34.455807 L -99.354848,34.4518 L -99.356903,34.442082 L -99.34013,34.430102 L -99.33409,34.427525 L -99.328698,34.422383 L -99.32423,34.414464 L -99.318357,34.408306 L -99.309257,34.409704 L -99.294632,34.415381 L -99.28791,34.41403 L -99.282843,34.40748 L -99.28317,34.402946 L -99.27526,34.400104 L -99.267275,34.405298 L -99.261275,34.403508 L -99.2616,34.394509 L -99.258807,34.392078 L -99.264442,34.388099 L -99.273092,34.387852 L -99.274415,34.384349 L -99.269796,34.380843 L -99.259203,34.377004 L -99.254631,34.372419 L -99.248884,34.375995 L -99.242855,34.372676 L -99.24812,34.367433 L -99.244454,34.363701 L -99.237562,34.366701 L -99.236521,34.358569 L -99.234135,34.353464 L -99.227977,34.349464 L -99.234298,34.340451 L -99.227117,34.337767 L -99.217203,34.341508 L -99.206905,34.338277 L -99.210725,34.337337 L -99.209574,34.324925 L -99.205936,34.320582 L -99.210992,34.31438 L -99.213161,34.308476 L -99.209637,34.297806 L -99.211448,34.292247 L -99.207766,34.283823 L -99.195553,34.281282 L -99.194459,34.271881 L -99.199053,34.26054 L -99.192767,34.259816 L -99.192018,34.255632 L -99.196199,34.249385 L -99.196912,34.244382 L -99.190936,34.232442 L -99.18992,34.227277 L -99.192811,34.218888 L -99.189776,34.214357 L -99.173824,34.211794 L -99.156574,34.207168 L -99.147239,34.209914 L -99.14391,34.214838 L -99.137548,34.219348 L -99.127394,34.218055 L -99.127429,34.213838 L -99.131986,34.207436 L -99.129889,34.20446 L -99.121004,34.20185 L -99.112844,34.205818 L -99.108766,34.204235 L -99.102186,34.205483 L -99.095271,34.211842 L -99.089751,34.208567 L -99.080577,34.211483 L -99.066329,34.20843 L -99.060212,34.204794 L -99.057976,34.20061 L -99.043358,34.198242 L -99.037336,34.206446 L -99.012957,34.203194 L -99.005674,34.206594 L -99.001828,34.210513 L -99.004695,34.214145 L -99.000592,34.217672 L -98.991703,34.221427 L -98.981248,34.217447 L -98.976664,34.20654 L -98.972609,34.202591 L -98.965743,34.201465 L -98.962352,34.204562 L -98.962189,34.211177 L -98.958357,34.213704 L -98.95067,34.211863 L -98.9333,34.197317 L -98.920704,34.183435 L -98.909349,34.177499 L -98.89838,34.175114 L -98.887112,34.16826 L -98.872922,34.166584 L -98.871211,34.163012 L -98.874955,34.157031 L -98.873271,34.153596 L -98.865747,34.149132 L -98.860125,34.149913 L -98.857322,34.161094 L -98.85451,34.161713 L -98.837066,34.156495 L -98.831115,34.162154 L -98.815269,34.158101 L -98.804413,34.153931 L -98.796203,34.142775 L -98.788405,34.146668 L -98.778076,34.139495 L -98.766671,34.136834 L -98.760558,34.132388 L -98.75745,34.124713 L -98.749291,34.124238 L -98.739461,34.127394 L -98.735471,34.135208 L -98.722717,34.135281 L -98.718639,34.136473 L -98.712467,34.13116 L -98.706132,34.134986 L -98.700182,34.135995 L -98.690072,34.133155 L -98.684533,34.138424 L -98.67715,34.142501 L -98.671528,34.148892 L -98.655655,34.158258 L -98.648073,34.164441 L -98.643223,34.164531 L -98.621666,34.157195 L -98.613096,34.156282 L -98.603096,34.160501 L -98.592954,34.157297 L -98.583914,34.151298 L -98.577356,34.1491 L -98.567298,34.138242 L -98.560191,34.133202 L -98.553717,34.13366 L -98.551845,34.127131 L -98.559558,34.127704 L -98.560977,34.123922 L -98.550917,34.119334 L -98.536185,34.107234 L -98.5282,34.094961 L -98.516875,34.085984 L -98.504149,34.072287 L -98.494613,34.07009 L -98.486328,34.062598 L -98.48204,34.06227 L -98.471465,34.065665 L -98.466002,34.073081 L -98.454665,34.072577 L -98.446379,34.07543 L -98.442808,34.083144 L -98.432127,34.085622 L -98.418805,34.082655 L -98.410854,34.088928 L -98.409596,34.09407 L -98.411511,34.098615 L -98.406735,34.10114 L -98.402158,34.098653 L -98.398389,34.104566 L -98.398441,34.128456 L -98.389403,34.133217 L -98.383785,34.129916 L -98.380421,34.13429 L -98.387084,34.140912 L -98.381651,34.149202 L -98.370495,34.152135 L -98.364023,34.157109 L -98.343163,34.154115 L -98.32258,34.14972 L -98.31875,34.146421 L -98.300209,34.134579 L -98.280321,34.13075 L -98.272994,34.132213 L -98.2617,34.131568 L -98.256467,34.129481 L -98.247954,34.130717 L -98.239141,34.134547 L -98.232474,34.134641 L -98.225558,34.129283 L -98.2236,34.125093 L -98.217097,34.122072 L -98.208008,34.120539 L -98.200075,34.116783 L -98.16906522962913,34.114249704518286 L -98.157412,34.120467 L -98.152082,34.125093 L -98.136991,34.144786 L -98.130816,34.150532 L -98.123377,34.15454 L -98.109462,34.154111 L -98.101937,34.14683 L -98.100558,34.142135 L -98.103309,34.13414 L -98.099782,34.131346 L -98.093639,34.132413 L -98.090224,34.130181 L -98.09055,34.122484 L -98.095118,34.11119 L -98.102575,34.100033 L -98.118482,34.085619 L -98.121039,34.081266 L -98.120208,34.072127 L -98.114587,34.06228 L -98.100627,34.049984 L -98.083839,34.041719 L -98.083288,34.037138 L -98.091788,34.033654 L -98.09754,34.038578 L -98.101695,34.039057 L -98.106261,34.033696 L -98.103617,34.029207 L -98.095443,34.021697 L -98.089555,34.01927 L -98.084025,34.014369 L -98.082401,34.009834 L -98.088809,34.007176 L -98.084435,34.002893 L -98.041117,33.993456 L -98.01597410052022,33.994153268009725 L -97.998938,33.997024 L -97.987388,33.999823 L -97.979508,34.004722 L -97.97167,34.005434 L -97.964183,33.995426 L -97.958325,33.990846 L -97.946802,33.990893 L -97.948644,33.982601 L -97.956917,33.958502 L -97.961038,33.951103 L -97.971453,33.9451 L -97.974227,33.940839 L -97.971175,33.937129 L -97.953395,33.936445 L -97.952679,33.929482 L -97.957155,33.914454 L -97.961632,33.909414 L -97.968747,33.906023 L -97.976963,33.912549 L -97.979985,33.911402 L -97.983552,33.904002 L -97.984373,33.898024 L -97.97426,33.886414 L -97.96668,33.881746 L -97.957064,33.878767 L -97.939666,33.879446 L -97.934169,33.878109 L -97.928584,33.874187 L -97.909858,33.867221 L -97.894981,33.857252 L -97.883204,33.854362 L -97.878183,33.850534 L -97.871502,33.849093 L -97.864175,33.849745 L -97.847802,33.854735 L -97.833505,33.858096 L -97.830323,33.862318 L -97.822994,33.866467 L -97.819672,33.870544 L -97.819428,33.8779 L -97.815501,33.882 L -97.805972,33.876571 L -97.801578,33.885138 L -97.80174,33.895147 L -97.79891,33.898537 L -97.7924,33.899085 L -97.784656,33.890631 L -97.780618,33.895533 L -97.78034,33.904833 L -97.786133,33.913424 L -97.783522,33.918302 L -97.776845,33.918918 L -97.772672,33.914382 L -97.765446,33.913532 L -97.759399,33.91882 L -97.759834,33.92521 L -97.763043,33.934145 L -97.75499,33.936752 L -97.742014,33.93736 L -97.732224,33.936681 L -97.720604,33.943955 L -97.709539,33.954881 L -97.704159,33.963336 L -97.697564,33.978316 L -97.687694,33.98718 L -97.671277,33.991553 L -97.661489,33.990818 L -97.657255,33.988824 L -97.633778,33.981257 L -97.615553,33.969556 L -97.609091,33.968093 L -97.600979,33.960789 L -97.599466,33.956323 L -97.590971,33.954241 L -97.588827,33.951882 L -97.59542,33.941436 L -97.591514,33.9282 L -97.596979,33.920228 L -97.596289,33.913769 L -97.589914,33.908044 L -97.589254,33.903922 L -97.581078,33.899679 L -97.572349,33.899263 L -97.566956,33.901583 L -97.55827,33.897099 L -97.551541,33.897947 L -97.543246,33.901289 L -97.524096,33.911705 L -97.500929,33.919538 L -97.489966,33.9182 L -97.484163,33.91551 L -97.470542,33.908984 L -97.458343,33.901887 L -97.451058,33.891676 L -97.452182,33.86896 L -97.455723,33.858104 L -97.461486,33.84956 L -97.463202,33.84309 L -97.459068,33.834581 L -97.453057,33.828536 L -97.444879,33.824048 L -97.426799,33.818641 L -97.406435,33.818821 L -97.395129,33.819963 L -97.37469,33.818552 L -97.365497,33.823744 L -97.357334,33.831369 L -97.354318,33.837965 L -97.346747,33.846945 L -97.340052,33.859841 L -97.337244,33.875101 L -97.33188,33.884483 L -97.325812,33.883888 L -97.324218,33.876628 L -97.333382,33.864148 L -97.334616,33.857231 L -97.332063,33.855056 L -97.326098,33.857083 L -97.314254,33.866985 L -97.309426,33.877769 L -97.311192,33.887089 L -97.307633,33.888011 L -97.302224,33.883888 L -97.287808,33.870054 L -97.272869,33.861674 L -97.255639,33.863702 L -97.249209,33.875101 L -97.248512,33.883632 L -97.246537,33.887499 L -97.24687,33.897357 L -97.245049,33.903216 L -97.239467,33.907976 L -97.231587,33.910223 L -97.228462,33.913254 L -97.212601,33.9159 L -97.206141,33.91428 L -97.200372,33.908761 L -97.185458,33.9007 L -97.179609,33.89225 L -97.176975,33.876699 L -97.168685,33.856037 L -97.166629,33.847311 L -97.16696052467064,33.840759065788376 L -97.171627,33.835335 L -97.179943,33.831673 L -97.194678,33.831192 L -97.199801,33.827405 L -97.20505,33.818046 L -97.205705,33.802908 L -97.200492,33.793198 L -97.190397,33.781153 L -97.190809,33.776436 L -97.187724,33.769831 L -97.192969,33.760784 L -97.191295,33.758082 L -97.180143,33.754495 L -97.17463,33.745035 L -97.173617,33.739607 L -97.165256,33.730954 L -97.154367,33.724094 L -97.142254,33.719945 L -97.123578,33.717044 L -97.111057,33.719374 L -97.095644,33.729222 L -97.089594,33.737226 L -97.086122,33.744586 L -97.084944,33.752328 L -97.085191,33.764738 L -97.08693,33.771651 L -97.094274,33.787962 L -97.095356,33.797646 L -97.092646,33.804198 L -97.082476,33.811102 L -97.074839,33.813483 L -97.048324,33.817269 L -97.048315,33.82787 L -97.051949,33.832993 L -97.057599,33.836506 L -97.071041,33.839638 L -97.08345,33.840456 L -97.090115,33.843961 L -97.090334,33.847523 L -97.08650831400317,33.8539876999762 L -97.069536,33.860365 L -97.063786,33.859965 L -97.055838,33.855741 L -97.046126,33.83956 L -97.041042,33.837619 L -97.031333,33.841238 L -97.021438,33.846379 L -97.009856,33.859762 L -96.999998,33.867894 L -96.993933,33.875656 L -96.983815,33.893186 L -96.984939,33.904866 L -96.987875,33.917046 L -96.993997,33.928979 L -96.996251,33.942664 L -96.994288,33.949206 L -96.98849,33.954413 L -96.979347,33.95513 L -96.980963,33.948289 L -96.979818,33.941588 L -96.973807,33.935697 L -96.96746334975734,33.938994001493114 L -96.951782,33.944744 L -96.9446110120541,33.94919519414167 L -96.93484,33.954453 L -96.924268,33.959159 L -96.917652,33.95858 L -96.910014,33.952783 L -96.905253,33.947219 L -96.899442,33.933728 L -96.896469,33.913318 L -96.897223,33.904575 L -96.895728,33.896414 L -96.88301,33.868019 L -96.866438,33.853149 L -96.85609,33.84749 L -96.850593,33.847211 L -96.841592,33.852894 L -96.839775,33.868398 L -96.832157,33.874835 L -96.812778,33.872646 L -96.794276,33.868886 L -96.783485,33.863534 L -96.779588,33.857939 L -96.776766,33.841976 L -96.769377,33.827478 L -96.761587,33.824407 L -96.743779,33.826065 L -96.725102,33.830313 L -96.713734,33.831328 L -96.704457,33.835021 L -96.699574,33.839049 L -96.690708,33.849959 L -96.684727,33.862905 L -96.682103,33.876645 L -96.683464,33.884217 L -96.681494,33.894675 L -96.673449,33.912278 L -96.667187,33.91694 L -96.659896,33.916666 L -96.654984,33.913789 L -96.630117,33.895422 L -96.614844,33.894546 L -96.59217,33.895513 L -96.58843488671651,33.89491749971248 L -96.58536,33.888948 L -96.590112,33.880665 L -96.597348,33.875101 L -96.611634,33.869253 L -96.628898,33.852489 L -96.629274,33.8455 L -96.623147,33.841496 L -96.601256,33.834329 L -96.587067,33.828008 L -96.573151,33.819182 L -96.566666,33.818511 L -96.550657,33.819186 L -96.532733,33.823066 L -96.5251939712987,33.819713158232204 L -96.5177996077231,33.8066847947232 L -96.515689,33.795165 L -96.516581,33.788279 L -96.508487,33.778321 L -96.500984,33.772801 L -96.488518,33.772829 L -96.468275,33.775826 L -96.459154,33.775232 L -96.451329,33.780143 L -96.446136,33.781037 L -96.430216,33.778654 L -96.423532,33.776432 L -96.419124,33.771825 L -96.413566,33.758105 L -96.4073,33.749635 L -96.396854,33.74005 L -96.382828,33.729269 L -96.375485,33.720876 L -96.369589,33.716809 L -96.366234,33.706163 L -96.363434,33.701567 L -96.363135,33.694215 L -96.359374,33.689432 L -96.346859,33.686216 L -96.338756,33.688316 L -96.331192,33.693639 L -96.322152,33.694705 L -96.318759,33.696753 L -96.311224,33.708003 L -96.306364,33.723062 L -96.307855,33.734555 L -96.306078,33.744307 L -96.29811,33.759125 L -96.295898,33.767662 L -96.290359,33.770831 L -96.278301,33.770598 L -96.263797,33.767522 L -96.254776,33.761485 L -96.23631385431447,33.75281809494661 L -96.230352,33.748524 L -96.220522,33.74739 L -96.214975,33.749369 L -96.19736,33.752773 L -96.179846,33.759618 L -96.169794,33.769154 L -96.165199,33.78013 L -96.159822,33.81155 L -96.163766,33.813051 L -96.16995,33.805131 L -96.175726,33.802321 L -96.179122,33.810224 L -96.17691,33.813935 L -96.166503,33.817867 L -96.159295,33.818599 L -96.150765,33.816987 L -96.148792,33.819197 L -96.15163,33.831946 L -96.14904380139784,33.83717348020276 L -96.138905,33.839159 L -96.131058,33.837438 L -96.122949,33.839964 L -96.109994,33.832396 L -96.09936,33.83047 L -96.097638,33.837936 L -96.10016702136599,33.847905093655655 L -96.084626,33.846656 L -96.06829,33.84269 L -96.048834,33.836468 L -96.038274,33.840598 L -96.030799,33.848611 L -96.030809,33.85423 L -96.026968,33.857474 L -96.019542,33.853497 L -96.023241,33.842479 L -96.020624,33.840627 L -96.005704,33.845435 L -95.998351,33.85105 L -95.994869,33.861824 L -95.999694,33.862552 L -96.003982,33.868405 L -96.002925,33.87359 L -95.985243,33.866017 L -95.984059,33.860118 L -95.984856,33.852492 L -95.976236,33.855167 L -95.956935,33.858239 L -95.947392,33.858948 L -95.941296,33.862475 L -95.936404,33.871424 L -95.93232905508557,33.883700121675915 L -95.92478,33.884843 L -95.909904,33.876639 L -95.895116,33.867536 L -95.887952,33.865408 L -95.879435,33.858961 L -95.867189,33.85129 L -95.855521,33.849258 L -95.848921,33.841784 L -95.838056,33.835893 L -95.830406,33.834785 L -95.822047,33.838554 L -95.818993,33.842389 L -95.821121,33.853068 L -95.820338,33.857232 L -95.815723,33.859815 L -95.804456,33.861425 L -95.794875,33.859612 L -95.782366,33.851079 L -95.770239,33.845202 L -95.763586,33.846824 L -95.754817,33.851993 L -95.751588,33.855892 L -95.75142,33.860683 L -95.76152,33.873118 L -95.762467,33.881144 L -95.756612,33.892028 L -95.748856,33.896081 L -95.736316,33.896866 L -95.71998,33.890944 L -95.712183,33.885519 L -95.700635,33.885845 L -95.688876,33.888486 L -95.67928,33.894364 L -95.668632,33.906995 L -95.66046,33.910162 L -95.655232,33.909914 L -95.637995,33.904878 L -95.632774,33.904815 L -95.627318,33.907806 L -95.624798,33.915664 L -95.616367,33.927626 L -95.604352,33.928808 L -95.599108,33.933071 L -95.597522,33.942342 L -95.58984,33.942045 L -95.581854,33.934152 L -95.576854,33.932966 L -95.567393,33.933616 L -95.557711,33.930351 L -95.552799,33.924311 L -95.549114,33.911534 L -95.547915,33.900142 L -95.551216,33.889713 L -95.549323,33.885663 L -95.543368,33.880503 L -95.533798,33.881153 L -95.518529,33.889877 L -95.511439,33.897296 L -95.505344,33.894574 L -95.505776,33.876391 L -95.491854,33.874967 L -95.483531,33.876825 L -95.469923,33.881945 L -95.463594,33.887249 L -95.459728,33.886652 L -95.46279,33.879051 L -95.463336,33.872396 L -95.455288,33.87124 L -95.445466,33.867236 L -95.438649,33.866287 L -95.427684,33.870459 L -95.410715,33.865406 L -95.398042,33.865211 L -95.389695,33.867978 L -95.375743,33.868401 L -95.363209,33.866812 L -95.352359,33.869597 L -95.337706,33.874659 L -95.330379,33.882703 L -95.325535,33.885734 L -95.3141838356352,33.88127098677194 L -95.306397,33.874906 L -95.294137,33.872768 L -95.280725,33.875491 L -95.278174,33.878386 L -95.278163,33.890343 L -95.285532,33.903659 L -95.281688,33.908527 L -95.27596,33.911279 L -95.269758,33.911464 L -95.266589,33.908797 L -95.264947,33.899521 L -95.26667,33.893966 L -95.261362,33.887722 L -95.253814,33.893977 L -95.248638,33.906183 L -95.24763,33.914744 L -95.250885,33.936063 L -95.24512,33.944315 L -95.232879,33.949736 L -95.230142,33.959724 L -95.22583862546136,33.96208303125792 L -95.216683,33.962652 L -95.209138,33.960236 L -95.198104,33.953352 L -95.184968,33.949529 L -95.171642,33.946769 L -95.157145,33.936727 L -95.138818,33.934793 L -95.12976260901588,33.93669176378076 L -95.121184,33.931307 L -95.121727,33.925762 L -95.131642,33.916027 L -95.125777,33.906497 L -95.119989,33.904353 L -95.113148,33.904493 L -95.105822,33.909162 L -95.095778,33.911374 L -95.089801,33.914069 L -95.082453,33.921742 L -95.07795,33.918696 L -95.076782,33.913584 L -95.079742,33.908595 L -95.091266,33.900549 L -95.100003,33.896793 L -95.099856,33.892776 L -95.090063,33.881058 L -95.082408,33.879882 L -95.080102,33.885706 L -95.078696,33.90504 L -95.074988,33.908805 L -95.073966,33.915636 L -95.066267,33.9168 L -95.063459,33.91404 L -95.066979,33.908253 L -95.075002,33.90691 L -95.071084,33.903142 L -95.062702,33.903618 L -95.060105,33.901873 L -95.05846,33.886246 L -95.050572,33.878299 L -95.050748,33.868643 L -95.048986,33.864061 L -95.037207,33.86025 L -95.012214,33.858034 L -95.003589,33.862246 L -94.998019,33.860504 L -94.992163,33.852034 L -94.983295,33.851357 L -94.976238,33.859776 L -94.968892,33.860913 L -94.965799,33.848696 L -94.964401,33.837021 L -94.953236,33.834942 L -94.943888,33.830226 L -94.944838,33.82584 L -94.953518,33.816475 L -94.947874,33.808356 L -94.938511,33.805825 L -94.923289,33.808742 L -94.923099,33.815456 L -94.926571,33.826339 L -94.921254,33.828877 L -94.915755,33.824563 L -94.911042,33.815023 L -94.916748,33.808969 L -94.922353,33.793535 L -94.921526,33.790472 L -94.911427,33.778383 L -94.904172,33.777198 L -94.904198,33.773249 L -94.898198,33.769021 L -94.886934,33.769067 L -94.885678,33.765234 L -94.876504,33.757405 L -94.873833,33.758059 L -94.87493,33.767432 L -94.867636,33.76844 L -94.866736,33.76183 L -94.877083,33.75222 L -94.874669,33.749164 L -94.860687,33.741945 L -94.853758,33.740156 L -94.842574,33.739445 L -94.827948,33.740882 L -94.828485,33.735384 L -94.822928,33.732724 L -94.820155,33.736984 L -94.823207,33.7478 L -94.830844,33.758079 L -94.829499,33.764104 L -94.823385,33.769179 L -94.816387,33.763963 L -94.816831,33.754216 L -94.812129,33.750701 L -94.812446,33.746554 L -94.817023,33.740007 L -94.812021,33.735262 L -94.802252,33.732788 L -94.79726,33.736925 L -94.790051,33.739356 L -94.779681,33.745095 L -94.776368,33.756399 L -94.771345,33.760648 L -94.76355923980881,33.75982891017409 L -94.758125,33.756537 L -94.757813,33.750109 L -94.762226,33.746609 L -94.775836,33.746712 L -94.788637,33.735669 L -94.782498,33.730125 L -94.773126,33.727187 L -94.760352,33.727311 L -94.75469993768746,33.733079785560435 L -94.751371,33.733727 L -94.747668,33.725148 L -94.757738,33.717817 L -94.751366,33.71354 L -94.745452,33.716804 L -94.745232,33.722189 L -94.742092,33.726692 L -94.736739,33.727187 L -94.732417,33.723223 L -94.733227,33.71913 L -94.741237,33.713358 L -94.753069,33.710753 L -94.751942,33.704862 L -94.740922,33.700555 L -94.736814,33.692332 L -94.719531,33.688857 L -94.715943,33.694913 L -94.719633,33.703921 L -94.727859,33.705561 L -94.732524,33.709211 L -94.734941,33.715225 L -94.730765,33.716 L -94.721508,33.713088 L -94.706024,33.706293 L -94.701125,33.702071 L -94.7044,33.697141 L -94.714865,33.696559 L -94.718338,33.688664 L -94.70175,33.687621 L -94.684796,33.684353 L -94.667852,33.694607 L -94.658618,33.691759 L -94.651402,33.685843 L -94.647277,33.689969 L -94.648392,33.69949 L -94.64337750241575,33.7013355830651 L -94.638646,33.695804 L -94.648478,33.682125 L -94.645535,33.673531 L -94.651296,33.670419 L -94.659525,33.675129 L -94.670184,33.670343 L -94.668646,33.663846 L -94.660964,33.660322 L -94.655534,33.659956 L -94.649234,33.662604 L -94.639198,33.663737 L -94.630919,33.673442 L -94.629922,33.679094 L -94.626844,33.682035 L -94.617336,33.681051 L -94.611891,33.67004 L -94.607683,33.665569 L -94.601163,33.662761 L -94.593154,33.665405 L -94.590335,33.67769 L -94.592829,33.6823 L -94.58793,33.686255 L -94.580292,33.678819 L -94.579432,33.671495 L -94.580784,33.666392 L -94.563668,33.669272 L -94.56114,33.664911 L -94.564802,33.661804 L -94.57557,33.659409 L -94.586986,33.65018 L -94.588632,33.644183 L -94.580047,33.6445 L -94.570566,33.652226 L -94.549636,33.660676 L -94.542627,33.653992 L -94.545436,33.646228 L -94.563334,33.640065 L -94.568559,33.63692 L -94.570379,33.630536 L -94.564076,33.626265 L -94.552645,33.627875 L -94.541858,33.636299 L -94.528126,33.641248 L -94.521837,33.640728 L -94.520554,33.635351 L -94.532531,33.62764 L -94.534814,33.621336 L -94.527376,33.615833 L -94.520359,33.617458 L -94.518441,33.621352 L -94.52016940497035,33.629893498178404 L -94.517468,33.633056 L -94.512138,33.623848 L -94.505655,33.620668 L -94.488363,33.627406 L -94.4859036243323,33.637857841545376 L -94.48539,33.663365 L -94.483157,33.735995 L -94.481014,33.81889 L -94.479898,33.849738 L -94.477019,33.957462 L -94.473693,34.07185 L -94.472631,34.102978 L -94.471356,34.159203 L -94.46984,34.204719 L -94.467896,34.286389 L -94.463588,34.419819 L -94.459958,34.549888 L -94.457218,34.643482 L -94.453272,34.766112 L -94.449675,34.875361 L -94.444504,35.028665 L -94.440921,35.127762 L -94.44047,35.145398 L -94.4367719711814,35.24671943220056 L -94.432212,35.364514 L -94.433428,35.376802 L -94.432486,35.383407 L -94.434879,35.388115 L -94.431014,35.393167 L -94.438988,35.437026 L -94.449434,35.497403 L -94.45623,35.540291 L -94.46220818900412,35.573970393906215 L -94.473399,35.643303 L -94.484394,35.706814 L -94.497913,35.788202 L -94.503073,35.817529 L -94.5105,35.862498 L -94.520985,35.923332 L -94.541012,36.038639 L -94.554837,36.116538 L -94.566678,36.184296 L -94.580203,36.263858 L -94.58714,36.306055 L -94.600945,36.394582 L -94.605539,36.421936 L -94.61777126855124,36.499532 Z" fill="none" stroke=currentColor stroke-width="1" vector-effect="non-scaling-stroke"/>
</svg>