<?xml version="1.0"?>
<svg width="200" height="200" xmlns="http://www.w3.org/2000/svg" version="1.2" baseProfile="tiny" viewBox="-64.000 -165.000 928.000 928.000" stroke-linecap="round" stroke-linejoin="round">
<g id="state">
<path vector-effect="non-scaling-stroke" d="M 121.68 6.4 124.33 5.61 125.79 4.99 127.84 5.32 128.85 5.99 130.78 8.07 132.58 10.95 132.02 17.48 135.75 21.34 136.77 21.84 137.52 22.51 139.89 22.77 140.56 22.63 144.21 22.98 146.2 23.02 149.01 21.51 149.9 20.93 151.75 20.11 152.71 19.44 157.23 17.34 162.02 18 163.02 19.08 167.97 22.49 168.75 23.39 170.67 24.57 172.42 25.39 176.09 29.33 176.34 29.53 181.75 32.54 183.53 35.81 184.02 39.8 186.05 42.16 187.68 46.82 189.86 49.6 190.49 53.54 189.91 56.22 191.08 60.15 192.27 62.46 192.11 65.67 191.05 68.27 191.03 70.33 193.41 74.43 194.1 77.39 194.14 80.78 192.81 85.51 192.55 88.14 193.49 91.36 193.62 91.46 195.91 93.21 198.26 94.19 200.34 95.97 201.86 96.94 204.83 98.16 208.3 98.47 210.73 99.09 214.21 100.26 216.32 101.21 219.32 102.16 220.89 102.83 222.96 104.44 224.41 104.98 227.11 104.49 228.95 103.59 230.06 103.42 232.69 104.37 234.67 107.33 238.02 108.03 240.9 108.07 242.61 107.57 247.3 105.29 249.06 103.73 253.05 102.82 255.86 103.24 257.05 102.9 262.47 99.51 264.72 98.83 266.41 98.7 268.4 97.79 270.34 96.45 271.07 95 271.47 94.84 273.07 94.95 275.67 93.58 276.4 92.57 276.33 91.38 279.71 88.33 285.1 86.59 292.38 88.45 295.05 88.37 298.81 87.02 302.36 87.13 311.85 84.27 312.73 84.49 315.08 85.1 318.54 87.8 320.6 88.38 322.25 88.84 324.38 89.02 327.2 87.66 330.55 87.45 332.98 88.16 335.37 89.96 339.03 91.25 342.21 92.17 343.67 95.11 344.14 97.89 344 99.67 345.22 101.07 346.74 101.13 348.89 100.9 349.49 100.34 350.21 100.66 351.63 99.51 351.35 98.83 354.77 95.46 356.73 94.85 359.67 95.08 362.22 94.79 364.51 95.47 367.43 94.34 368.31 94.39 371.22 96.65 372.93 96.26 376.83 92.33 383.26 90.34 389.02 87.77 392.78 86.35 394.73 84.42 398.01 82.26 402.23 82.15 405.28 83.28 408.79 87.12 410.42 88.54 412.64 89.3 420.22 88.6 427.64 86.95 431.75 85.6 438.72 84.93 442.56 79.97 445.35 78.42 452.17 76.75 457.46 73.71 462.15 71.32 467.75 70.76 473.28 69.07 477.74 68.01 480.6 68.25 490.44 66.62 494.8 59.9 496.99 57.97 499.75 57.13 504.28 59.39 507.77 59.65 511.35 58.09 519.56 57.41 522.6 56.1 523.54 55.77 527.02 55.13 529.79 54.75 532.81 55.67 535.7 56.3 538.22 56.28 542.31 55.52 545.44 54.1 548.44 51.88 551.69 50.37 553.44 48.96 555.43 46.09 556.5 45.99 571.6 45.64 575.61 45.52 593.3 45.14 610.09 44.75 620.19 44.51 633.38 44.14 649.05 43.67 659.06 43.41 675.45 42.91 680.02 42.76 686.5 42.61 688.94 42.61 695.52 42.4 699.33 42.33 702.66 42.13 708.35 41.94 711.35 42.05 712.88 41.71 719.05 41.51 720.32 41.43 732.34 41.01 739.27 40.82 746.27 40.57 751.49 40.44 753.01 40.46 753.63 41.31 755.4 42.81 755.33 44 755.73 45.16 756.77 45.36 757.23 45.85 757.38 47.57 757.94 49.15 757.93 49.64 758.36 50.99 759.33 52.7 760.36 53.69 760.63 54.18 763.11 55.72 763.61 56.14 764.69 57.84 765.41 58.31 765.47 58.74 766.34 60.6 766.37 62.29 767 63.19 767.77 63.4 768.85 64.28 769.75 64.12 771.55 62.79 773.23 62.69 774.05 62.87 775.07 63.4 775.61 64.71 776.05 65.1 776.9 66.95 778.47 68.56 778.87 68.78 780.02 68.81 780.92 68.55 781.63 68.01 782.44 68.41 783.09 68.29 785.29 68.65 787.21 70.37 787.97 70.72 788.78 71.75 789.89 72.09 790.54 73.14 791.19 74.51 791.08 76.99 791.54 80.39 792.26 81.7 793.32 82.53 794.59 84.26 795.44 84.86 796.25 85.71 796.39 86.6 796.94 87.16 796.95 88.03 798.07 88.68 797.96 89.18 798.92 90.38 799 92.16 797.9 93.95 797.45 94.27 797.22 94.96 797.41 95.65 796.27 96.48 795.42 97.4 795.41 98.07 794.69 98.73 794.04 98.73 793.33 99.19 793.55 99.86 793.21 101.16 792.83 101.79 792.55 103.29 792.13 103.84 791.62 105.03 790.77 105.7 790.64 106.19 791.12 107.16 790.68 109.4 791.09 110.38 791.18 111.73 790.22 112.23 789.93 112.76 789.21 113.25 788.1 114.62 787.75 117.09 787.4 118.79 785.42 120.88 785.03 121.48 784.27 123.79 782.25 127.8 780.89 131.3 780.6 132.52 780.95 135.22 781.02 136.59 780.84 137.89 779.31 139.62 778.92 140.88 778.72 142.19 778.27 142.91 778.31 144.55 777.84 146.06 777.95 148.01 777.28 150.6 776.73 152.39 776.79 153.56 776.47 154.77 776.46 156.12 776.06 156.95 774.91 157.75 774.84 158.96 774.27 159.32 774.15 160.4 772.24 161.64 771.48 163.32 771.57 165.59 770.91 166.59 770.35 167.94 769.32 169.31 768.77 169.66 767.79 171.13 766.16 172.3 765.67 173.32 766.02 174.51 766.13 176.2 764.99 178.84 765.03 179.64 765.59 180.26 766.39 179.76 766.64 178.77 767.01 178.55 768.03 178.71 767.12 180.57 765.88 181.4 765.73 181.92 766.26 183.04 767.37 184.48 767.78 185.51 767.21 186.83 767.2 187.62 766.87 188.86 766.34 190 766.07 191.82 764.92 194.2 763.91 194.78 763.22 195.96 762.63 196.42 761.79 196.65 762.03 197.63 761.74 198.99 761.2 199.27 759.67 202.61 759.19 202.98 758.82 203.77 758.73 204.75 759.03 205.38 758.7 206.37 757.87 206.7 757.34 207.24 755.62 207.69 753.42 209.86 752.47 210.45 751.05 210.44 750.42 211.27 749.66 211.25 748.25 212.13 747.92 212.64 747.74 213.88 746.96 214.2 746.59 214.67 746.8 215.41 746.58 217.9 745.78 218.36 745.15 219.53 745.04 220.63 745.27 221.15 745.09 222.05 744.1 222.78 743.67 223.35 743.63 224.36 743.83 225.09 743.54 225.7 743.58 226.65 742.68 228.55 741.95 229.1 741.55 230.31 741.2 233.4 741.31 234.54 740.46 235.76 739.32 236.71 739.17 237.61 739.69 238.26 739.63 239.85 738.91 241.78 738.1 242.72 737.51 242.98 736.1 243.11 735.19 244.94 735.14 245.84 734.44 247.41 733.67 248.28 732.9 248.28 732.15 248.64 732.07 249.78 732.48 250.49 732.63 251.46 732.98 252 733.26 253.33 733.12 254.29 733.35 256.35 732.28 259.4 731.73 260.03 730.81 260.65 730.81 261.42 731.37 262.57 731.68 263.73 733.55 265.53 734.55 266.17 735 266.89 735.66 267.34 736.34 268.87 736.15 269.75 735.81 269.97 735.38 271.39 734.94 272.11 733.75 272.79 733.32 274.02 733.87 275.27 734.9 276.09 735.64 277.06 737.27 278.13 738.69 279.21 740 279.34 741.55 279.14 742.18 278.61 742.51 277.59 743.54 276.35 744.34 275.98 745.07 276.05 746.18 277.46 746.49 278.68 747.79 280.06 748.91 280.82 749.81 281.83 750.05 282.57 750.56 282.84 751.07 282.55 751.38 280.88 752.37 280.04 753.02 280.03 753.86 280.42 754.73 280.24 756.89 280.29 757.97 280.65 758.35 281.69 758.15 282.53 758.62 284.03 758.34 285.35 758.56 286.71 759.05 287.16 760.82 287.49 762.19 287.1 763.27 287.46 763.46 287.95 764.28 288.56 765.41 288.88 766.23 290.04 766.44 291.26 766.32 292.36 765.86 292.96 765.65 293.74 764.9 294.39 764.68 296.13 763.61 297.33 763.26 298.15 763.41 298.93 762.93 299.95 761.87 300.88 759.68 301.34 758.73 302.09 759.02 303.83 759.05 305.11 759.34 307.05 760.76 307.56 761.17 308.06 762.36 308.81 763.05 309.77 763.32 310.74 763.09 312.36 762.41 313.2 763.37 314.9 763.15 315.71 761.17 316.02 760.34 316.93 759.5 317.24 760.05 318.14 760.96 318.12 761.11 318.77 760.14 319.31 760.05 319.7 761.07 319.79 761 321.02 760.47 321.75 760.47 322.55 761.16 322.96 761.44 323.51 761.27 324.93 760.98 325.14 759.41 325.5 759.78 326.72 759.96 328.25 759.31 330.12 759.51 331.81 758.64 332.53 758.04 332.41 757.08 332.62 755.9 333.25 755.86 334 756.81 334.54 756.66 335.88 755.62 335.67 754.81 336.77 754.8 337.5 755.83 338.37 755.89 339.23 755.48 340.31 755.85 348.28 755.9 350.46 756.44 363.21 756.86 372.37 756.99 376.22 757.38 384.65 758.03 399.61 758.47 409.97 759.07 423.69 759.31 429.82 759.79 440.5 760.09 447.45 760.44 454.73 760.81 463.98 761.27 474.04 761.82 487.35 762.45 502.3 762.75 508.84 763.46 525.34 763.93 536.46 764.08 538.96 764.34 545.63 765 560.39 765.4 570.78 765.49 571.77 765.8 579.41 766.17 587.86 761.86 588.07 755.19 588.29 748.61 588.57 746.62 588.72 727.61 589.55 723.57 589.66 714.67 590.07 705.11 590.5 704.88 590.56 694.72 590.9 688.19 591.09 679.33 591.42 675.4 591.53 666.44 591.85 646.63 592.57 646.47 592.53 622.2 593.39 608.41 593.92 602.39 594.21 597.49 594.49 594.28 594.58 588.36 594.65 574.3 594.91 571.13 594.91 564.29 594.99 556 595.11 548.58 595.29 543.54 595.35 540.05 595.35 529.96 595.5 517.81 595.42 505.69 595.56 495.55 595.59 491.68 595.65 487.07 595.65 483.47 595.56 473.44 595.64 467.37 595.78 463.46 595.95 462.19 596.06 454.8 596.1 443.81 596.2 437.58 596.37 435.88 596.45 428.79 596.44 428.73 596.52 412.2 596.4 402.44 596.48 394.38 596.44 390.43 596.35 384.54 596.35 380.47 596.3 367.26 596.28 362.47 596.34 357.87 596.26 352.55 595.99 348.44 595.88 342.59 595.63 340.54 595.58 329.49 595.48 324.54 595.59 310.44 595.2 302.44 594.99 282.43 594.32 272.88 593.98 263.71 593.69 261.9 593.7 257.96 593.57 254.03 593.39 252.63 593.27 242.73 592.91 240.74 592.77 230.85 592.52 218.87 591.99 214.97 592.05 204.88 591.85 199.6 591.85 193.63 591.96 183.8 591.83 168.05 591.41 164.21 591.35 158.59 591.19 150.81 591 148.89 590.71 147.05 590.61 142.15 590 140.44 589.89 136.52 590.17 119.78 590.49 109.71 589.94 97.63 589.48 91.59 589.38 88.09 589.89 80.85 589.33 72.38 589.25 71.25 589.14 69.98 589.03 62.05 588.71 53.75 588.34 42.81 587.77 31.45 587.02 30.76 585.69 28.96 584.12 28.74 583.41 27.86 583.07 26.76 581.84 26.38 580.95 25.74 580.29 24.08 580.24 22.8 579.3 22.42 578.03 21.49 577.38 20.88 576.39 20.81 575.84 20.04 574.55 19.41 574.24 18.69 573.26 18.52 572.47 17.87 572.41 17.59 571.94 17.95 571.34 17.37 569.94 18.01 568.36 18.02 567.65 17.08 566.4 16.69 565.2 16.64 564.36 17.33 563.87 16.94 562.89 17.25 562.53 17.38 561.33 16.88 560.92 16.23 559.22 15.94 559.12 16.05 557.79 15.84 557.08 15.93 556.04 15.38 554.87 14.03 553.05 12.76 551.53 12.75 550.55 13.07 550.17 13.23 547.46 13.12 544.94 12.9 544.5 13.05 543.74 12.29 542.59 12.25 541.92 11.5 542.09 11 541.37 11.2 540.45 11.67 539.9 12.2 534.15 12.18 531.6 12.34 529.71 11.47 525.85 11.58 525.2 12.82 523.15 13.03 522.63 13.04 520.19 13.43 518.7 13.25 517.81 14.46 515.54 15.79 512.19 15.9 511.49 16.67 509.01 17.03 507.24 16.57 506.7 16.71 506.22 16.13 504.84 16 504.04 16.1 502.36 16.36 501.26 16.25 500.01 15.82 499.74 15.79 498.7 15.48 498.46 15.1 497.4 15.52 496.91 15.24 495.74 13.14 493.99 11.56 493.11 11.95 491.9 11.79 491.19 11.23 490.54 10.84 489.45 10.86 488.72 10.18 486.45 9.61 485.21 7.87 483.87 6.65 484.09 5.83 484.96 5.52 484.44 5.69 483.21 5.17 479.75 4.89 477.14 3.89 473.74 3.13 472.5 1.69 470.87 1 470.55 2.42 470.04 3.26 468.23 4.18 467.14 4.46 465.37 5.39 464.78 8.21 459.78 10.37 455.22 12.48 449.84 14.33 444.39 15.67 439.04 15.89 437.66 15.72 437.05 16.24 435.49 16 434.48 16.14 432.93 17.25 431.49 19.88 423.66 20.7 420.1 20.54 418.93 20.75 418.35 22.37 412.08 21.96 411.06 21.86 409.26 21.27 407.63 20.57 407.1 21.5 405.8 22.47 404.19 22.57 403.49 23.34 403.34 23.76 402.71 25.76 402.3 26.82 401.13 28.18 399.14 29.88 396.22 33 389.8 36.54 380.93 39.27 372.79 41.42 363.95 41.98 360.44 42.48 358.64 42.52 357.63 43.99 353.3 43.96 353.22 45.95 345.01 47.12 339.34 49.56 325.47 50.47 318.99 51.26 313.97 51.57 310.18 52.46 304.33 53.36 298.91 53.25 298.16 53.46 297.35 53.09 296.67 53.54 295.04 53.07 294.54 53.71 293.89 54.45 289.89 54.57 287.97 54.87 286.31 54.79 285.16 54.95 283.77 55.42 281.28 55.07 279.76 55.82 277.12 55.77 276.42 55.18 275.84 55.65 274.68 55.33 274.22 56.04 271.89 56.13 269.88 57.04 268.07 58.06 262.81 58.84 258.1 59.3 254.66 59.63 248.16 59.57 246.92 59.74 244.98 60.73 240.85 62.01 232.05 61.99 230.42 61.83 229.74 62.16 228.49 62.36 227.08 63.17 223.51 63.06 222.06 62.74 221.63 61.72 221.48 62.33 220.15 63.36 215.68 63.67 213.07 63.51 211.7 63.06 211.54 63.16 210.5 62.83 209.54 62.77 208.55 62.18 208.03 62.53 205.35 62.47 204.38 63.16 203.52 63.52 203.44 63.59 202.49 63.17 202.22 63.4 199.97 64.66 198.98 65.25 197.39 67.16 190.5 68.02 186.79 68.02 185.64 68.28 183.83 69.31 179.34 70.1 174.74 69.86 173.44 69.96 172.43 70.51 171.81 70.29 170.87 69.44 170.17 69.74 168.14 70.17 166.49 70.92 165.52 72.46 164.24 74.13 157.26 74.77 153.55 75.16 149.66 74.83 147.6 74.46 147.14 75.01 146.14 75.95 140.06 76.59 139.19 76.17 138.75 76.23 133.82 75.5 131.07 74.96 130.78 72.14 130.93 72.18 130.53 74.91 129.56 75.56 128.62 76.49 124.34 77.25 118.27 77.18 116.56 77.02 115.74 76.1 113.21 76.57 112.43 76.62 111.27 75.83 110.52 76.63 109.64 77.49 109.17 78 107.38 78.99 102.63 79.1 99.97 78.44 99.05 78.96 97.02 80.53 87.9 80.81 87.48 80.54 86.57 80.77 83.01 80.66 77.79 80.41 76.92 79.35 75.72 78.86 75.44 78.47 74.4 78.81 73.42 78.27 72.6 77.16 72.77 77.07 72.01 77.51 71.36 78.46 70.45 78.69 67.91 78.93 66.83 79.54 62.64 79.53 61.26 79.36 59.93 79.6 58.97 79.54 56.49 79.27 56.09 79.47 55.06 79.37 52.94 79.01 52.59 79.01 51.89 78.4 51.47 78.51 50.06 77.96 49.68 77.86 49.14 77.12 48.59 77.11 47.54 78.95 46.29 78.98 45.53 79.5 44.53 80.73 43.85 82.23 43.76 82.66 43.55 83.76 39.17 83.81 34.73 83.6 30.64 82.51 24.5 81.55 20.96 80.29 17.18 78.34 12.27 77.17 9.54 76.15 8.59 77.03 7.71 77.76 7.53 78.21 7.82 78.54 8.74 79.23 9.13 79.25 9.55 78.53 10.57 79.03 11.58 79.92 11.94 80.66 11.18 81.69 11.88 82.43 12.01 83.02 12.71 86.9 15.83 87.33 16.72 87.1 17.48 88.1 18.04 88.92 17.55 89.35 17.66 89.7 18.4 91.57 19.23 93.05 18.63 93.21 17.42 92.71 17.33 91.22 16.05 90.62 15.03 91.48 14.64 91.74 14.97 92.59 14.42 94.89 14.85 98.61 13.87 100.21 12.87 100.58 12.23 101.13 11.99 102.34 13.28 103.14 13.68 104.1 14.56 104.75 15.43 107.1 15.41 108.98 14.33 108.94 12.38 109.79 11.61 111.91 12.39 113.04 12.43 114.27 12.19 115.99 10.96 117.87 10.24 120.11 8.56 121.23 7.83 121.33 6.45 121.68 6.4 Z M 110.12 8.05 111.64 7.54 111.46 8.14 110.28 8.29 110.12 8.05 Z M 75.17 1 76.57 1.36 77.57 3.56 76.67 2.87 75.76 2.56 75.06 1.49 75.17 1 Z" fill-rule="evenodd" fill="none" stroke="currentColor" stroke-width="1"/>
</g>
</svg>