<?xml version="1.0"?>
<svg xmlns="http://www.w3.org/2000/svg" version="1.2" baseProfile="tiny" viewBox="-40.0 -40.0 880.0 505.0" stroke-linecap="round" stroke-linejoin="round">
<g id="state">
<path d="M 101.68 3.52 104.39 2.88 105.89 2.39 108.01 2.58 109.09 3.03 111.17 4.48 113.14 6.49 112.81 11.2 116.8 13.87 117.87 14.21 118.67 14.67 121.13 14.8 121.82 14.68 125.6 14.84 127.66 14.82 130.51 13.66 131.42 13.23 133.3 12.59 134.27 12.09 138.86 10.47 143.84 10.84 144.91 11.58 150.14 13.92 150.98 14.55 152.99 15.35 154.83 15.9 158.75 18.66 159.02 18.79 164.69 20.84 166.63 23.15 167.26 26 169.42 27.66 171.24 30.97 173.57 32.92 174.34 35.74 173.82 37.68 175.14 40.47 176.42 42.11 176.36 44.42 175.35 46.31 175.38 47.79 177.95 50.69 178.75 52.8 178.88 55.24 177.66 58.66 177.46 60.55 178.51 62.85 178.65 62.92 181.04 64.13 183.49 64.79 185.67 66.03 187.25 66.7 190.32 67.52 193.89 67.67 196.39 68.07 199.98 68.85 202.16 69.5 205.26 70.12 206.88 70.58 209.04 71.7 210.53 72.06 213.29 71.66 215.15 70.98 216.28 70.85 218.99 71.49 221.09 73.57 224.53 74.03 227.47 74.01 229.21 73.62 233.96 71.91 235.73 70.76 239.79 70.05 242.68 70.31 243.89 70.05 249.37 67.54 251.66 67.02 253.39 66.91 255.41 66.22 257.37 65.24 258.09 64.18 258.49 64.06 260.14 64.12 262.78 63.1 263.51 62.37 263.41 61.52 266.83 59.28 272.33 57.97 279.83 59.22 282.56 59.14 286.39 58.12 290.05 58.16 299.74 56.02 300.65 56.17 303.07 56.58 306.64 58.5 308.77 58.9 310.47 59.21 312.66 59.33 315.53 58.33 318.96 58.15 321.47 58.64 323.93 59.92 327.7 60.82 330.97 61.46 332.49 63.57 333 65.56 332.87 66.84 334.13 67.84 335.69 67.88 337.88 67.69 338.49 67.29 339.24 67.52 340.68 66.68 340.39 66.19 343.86 63.76 345.87 63.31 348.89 63.46 351.5 63.24 353.85 63.71 356.84 62.89 357.74 62.92 360.73 64.54 362.48 64.25 366.46 61.41 373.04 59.96 378.95 58.1 382.8 57.08 384.79 55.68 388.16 54.13 392.49 54.05 395.63 54.85 399.23 57.61 400.9 58.63 403.18 59.18 410.95 58.68 418.57 57.5 422.79 56.54 429.95 56.08 433.91 52.52 436.77 51.42 443.79 50.24 449.25 48.08 454.08 46.38 459.84 46 465.54 44.82 470.14 44.09 473.08 44.28 483.21 43.17 487.77 38.38 490.05 37.01 492.9 36.42 497.54 38.09 501.12 38.3 504.84 37.22 513.3 36.81 516.45 35.9 517.42 35.67 521.02 35.24 523.87 35 526.97 35.7 529.94 36.18 532.53 36.2 536.75 35.7 540 34.72 543.14 33.16 546.51 32.12 548.34 31.13 550.45 29.1 551.55 29.04 567.13 29 571.27 28.97 589.51 28.99 606.84 29.01 617.26 29.02 630.86 29.03 647.03 29.03 657.36 29.06 674.26 29.1 678.98 29.1 685.66 29.16 688.18 29.22 694.96 29.25 698.9 29.3 702.34 29.24 708.2 29.26 711.3 29.42 712.88 29.22 719.25 29.25 720.56 29.23 732.96 29.29 740.11 29.36 747.34 29.4 752.72 29.47 754.29 29.53 754.88 30.16 756.64 31.29 756.51 32.14 756.87 32.99 757.93 33.17 758.38 33.54 758.46 34.77 758.96 35.93 758.93 36.28 759.31 37.26 760.22 38.52 761.24 39.26 761.49 39.62 763.97 40.81 764.47 41.13 765.49 42.38 766.21 42.75 766.26 43.06 767.06 44.42 767.01 45.63 767.62 46.31 768.4 46.48 769.46 47.15 770.4 47.06 772.31 46.17 774.04 46.15 774.88 46.31 775.9 46.73 776.39 47.68 776.82 47.98 777.6 49.33 779.13 50.55 779.53 50.72 780.71 50.77 781.65 50.62 782.4 50.26 783.22 50.57 783.89 50.51 786.13 50.84 788.01 52.14 788.77 52.42 789.55 53.19 790.67 53.47 791.29 54.25 791.89 55.26 791.64 57.04 791.95 59.49 792.62 60.45 793.66 61.09 794.87 62.38 795.72 62.84 796.51 63.47 796.6 64.12 797.13 64.54 797.1 65.17 798.21 65.67 798.08 66.03 799 66.92 798.99 68.2 797.77 69.45 797.3 69.66 797.02 70.15 797.18 70.65 795.97 71.21 795.06 71.84 795.02 72.32 794.25 72.77 793.58 72.74 792.83 73.05 793.03 73.54 792.61 74.46 792.19 74.9 791.83 75.97 791.37 76.34 790.79 77.18 789.89 77.63 789.73 77.98 790.18 78.7 789.61 80.29 789.99 81 790.01 81.98 789.01 82.3 788.68 82.68 787.93 83 786.72 83.95 786.24 85.71 785.81 86.92 783.68 88.35 783.25 88.77 782.37 90.4 780.12 93.21 778.56 95.67 778.21 96.54 778.43 98.49 778.44 99.48 778.2 100.4 776.56 101.59 776.1 102.48 775.83 103.42 775.34 103.92 775.3 105.1 774.75 106.17 774.77 107.57 773.97 109.41 773.32 110.68 773.33 111.52 772.95 112.38 772.88 113.35 772.43 113.93 771.22 114.46 771.09 115.33 770.5 115.57 770.33 116.34 768.34 117.17 767.48 118.35 767.46 119.99 766.76 120.68 766.12 121.63 765.02 122.58 764.44 122.81 763.38 123.84 761.67 124.62 761.14 125.34 761.43 126.21 761.47 127.43 760.19 129.28 760.2 129.86 760.74 130.32 761.57 129.99 761.87 129.29 762.26 129.14 763.27 129.29 762.27 130.6 760.98 131.15 760.8 131.52 761.28 132.34 762.34 133.41 762.71 134.16 762.07 135.09 762.02 135.66 761.63 136.54 761.04 137.34 760.7 138.64 759.43 140.31 758.38 140.7 757.63 141.52 757.01 141.83 756.15 141.97 756.35 142.68 756 143.65 755.44 143.84 753.75 146.18 753.24 146.44 752.84 146.99 752.7 147.69 752.98 148.15 752.59 148.85 751.75 149.07 751.19 149.43 749.43 149.71 747.12 151.2 746.13 151.59 744.71 151.54 744.03 152.11 743.27 152.08 741.81 152.67 741.45 153.02 741.22 153.91 740.42 154.11 740.03 154.44 740.21 154.98 739.88 156.76 739.05 157.06 738.37 157.88 738.21 158.67 738.42 159.05 738.21 159.7 737.18 160.18 736.72 160.59 736.63 161.31 736.81 161.84 736.49 162.27 736.49 162.95 735.5 164.29 734.75 164.66 734.29 165.52 733.81 167.73 733.88 168.55 732.97 169.4 731.78 170.05 731.59 170.69 732.09 171.17 731.97 172.31 731.15 173.68 730.3 174.33 729.7 174.5 728.28 174.55 727.29 175.84 727.21 176.49 726.44 177.59 725.63 178.2 724.85 178.17 724.09 178.41 723.97 179.22 724.34 179.75 724.46 180.45 724.79 180.84 725.01 181.81 724.83 182.49 724.98 183.98 723.78 186.14 723.21 186.58 722.26 187 722.23 187.55 722.74 188.39 723.01 189.23 724.8 190.58 725.78 191.07 726.2 191.6 726.85 191.94 727.47 193.06 727.23 193.69 726.88 193.84 726.4 194.84 725.92 195.35 724.71 195.8 724.23 196.67 724.73 197.58 725.73 198.21 726.43 198.93 728.01 199.74 729.39 200.56 730.7 200.69 732.25 200.59 732.9 200.23 733.27 199.51 734.36 198.65 735.17 198.41 735.9 198.48 736.95 199.52 737.21 200.42 738.45 201.44 739.54 202.02 740.39 202.78 740.6 203.31 741.1 203.52 741.62 203.33 742 202.14 743.03 201.57 743.67 201.58 744.5 201.88 745.38 201.78 747.53 201.89 748.59 202.18 748.92 202.94 748.69 203.54 749.1 204.63 748.75 205.57 748.91 206.55 749.39 206.89 751.14 207.19 752.52 206.95 753.59 207.24 753.75 207.6 754.55 208.06 755.66 208.33 756.43 209.18 756.58 210.07 756.41 210.86 755.93 211.27 755.68 211.83 754.91 212.27 754.61 213.51 753.49 214.34 753.1 214.92 753.22 215.48 752.69 216.2 751.6 216.84 749.39 217.1 748.42 217.6 748.63 218.87 748.6 219.78 748.8 221.18 750.2 221.6 750.58 221.97 751.74 222.54 752.38 223.25 752.61 223.96 752.31 225.12 751.59 225.7 752.48 226.95 752.22 227.53 750.24 227.68 749.38 228.31 748.52 228.51 749.03 229.17 749.94 229.19 750.06 229.66 749.07 230.01 748.96 230.29 749.98 230.39 749.85 231.27 749.29 231.78 749.26 232.35 749.92 232.67 750.19 233.07 749.95 234.09 749.65 234.23 748.08 234.44 748.39 235.33 748.51 236.43 747.78 237.75 747.9 238.97 747.01 239.46 746.42 239.36 745.46 239.48 744.26 239.9 744.18 240.44 745.11 240.85 744.9 241.81 743.88 241.62 743.02 242.39 742.98 242.92 743.97 243.57 743.99 244.19 743.54 244.95 743.57 250.69 743.53 252.25 743.51 261.43 743.54 268.02 743.5 270.79 743.53 276.85 743.54 287.62 743.54 295.07 743.54 304.94 743.52 309.35 743.54 317.03 743.54 322.03 743.57 327.27 743.55 333.92 743.58 341.16 743.55 350.73 743.54 361.48 743.56 366.19 743.56 378.05 743.55 386.05 743.59 387.84 743.57 392.64 743.59 403.26 743.55 410.72 743.59 411.44 743.57 416.93 743.58 423 739.43 423.02 733 422.98 726.66 422.98 724.74 423.03 706.41 423.09 702.53 423.06 693.95 423.12 684.73 423.17 684.51 423.21 674.72 423.2 668.44 423.18 659.89 423.2 656.11 423.2 647.48 423.22 628.39 423.32 628.24 423.28 604.85 423.43 591.57 423.57 585.77 423.67 581.05 423.8 577.96 423.8 572.26 423.76 558.72 423.74 555.67 423.7 549.09 423.66 541.1 423.64 533.96 423.68 529.1 423.66 525.74 423.62 516.03 423.62 504.33 423.44 492.66 423.44 482.9 423.38 479.17 423.4 474.74 423.36 471.27 423.28 461.62 423.28 455.76 423.34 452.01 423.45 450.78 423.52 443.66 423.52 433.09 423.56 427.08 423.66 425.45 423.72 418.63 423.7 418.56 423.75 402.65 423.65 393.25 423.71 385.5 423.69 381.69 423.63 376.02 423.65 372.1 423.62 359.38 423.65 354.77 423.71 350.34 423.67 345.22 423.5 341.27 423.45 335.63 423.3 333.65 423.28 323.02 423.28 318.25 423.4 304.68 423.23 296.97 423.15 277.69 422.88 268.5 422.75 259.66 422.65 257.92 422.68 254.12 422.64 250.33 422.56 248.99 422.49 239.45 422.38 237.53 422.3 228 422.27 216.46 422.09 212.7 422.2 202.99 422.23 197.9 422.33 192.15 422.52 182.69 422.62 167.52 422.63 163.82 422.67 158.41 422.68 150.92 422.72 149.06 422.55 147.28 422.52 142.55 422.2 140.9 422.16 137.14 422.45 121.03 423.09 111.33 422.96 99.69 422.95 93.87 423.04 90.53 423.51 83.54 423.31 75.39 423.5 74.29 423.46 73.07 423.41 65.43 423.42 57.43 423.41 46.88 423.35 35.93 423.17 35.2 422.24 33.4 421.18 33.16 420.68 32.29 420.46 31.18 419.62 30.78 418.99 30.13 418.54 28.53 418.56 27.26 417.93 26.83 417.03 25.91 416.59 25.28 415.9 25.18 415.51 24.38 414.61 23.76 414.41 23.02 413.74 22.82 413.17 22.19 413.15 21.9 412.83 22.22 412.38 21.6 411.4 22.15 410.24 22.12 409.73 21.16 408.86 20.72 408.02 20.64 407.42 21.28 407.04 20.86 406.36 21.14 406.08 21.21 405.22 20.71 404.94 20.01 403.74 19.72 403.68 19.77 402.72 19.52 402.22 19.56 401.47 18.98 400.65 17.59 399.39 16.29 398.35 16.24 397.65 16.53 397.36 16.56 395.41 16.34 393.61 16.1 393.3 16.21 392.75 15.42 391.95 15.35 391.47 14.64 391.62 14.12 391.12 14.27 390.45 14.69 390.04 14.93 385.89 14.8 384.06 14.86 382.71 13.84 379.97 13.91 379.5 15.03 377.98 15.2 377.6 15.1 375.85 15.41 374.77 15.19 374.13 16.25 372.46 17.39 370.01 17.46 369.51 18.1 367.7 18.36 366.42 17.88 366.05 18 365.7 17.37 364.73 17.2 364.16 17.23 362.95 17.43 362.15 17.26 361.25 16.83 361.08 16.75 360.34 16.44 360.17 16.02 359.42 16.4 359.06 16.08 358.23 13.96 357.04 12.38 356.47 12.7 355.59 12.51 355.09 11.93 354.64 11.5 353.87 11.48 353.35 10.72 351.74 10.1 350.87 8.34 349.97 7.16 350.17 6.41 350.82 6.08 350.46 6.18 349.57 5.51 347.1 5.12 345.24 3.97 342.84 3.17 341.97 1.68 340.86 1 340.65 2.36 340.24 3.09 338.91 3.93 338.09 4.12 336.81 5 336.36 7.51 332.66 9.4 329.31 11.21 325.38 12.76 321.4 13.81 317.51 13.96 316.51 13.76 316.09 14.2 314.95 13.91 314.23 13.98 313.11 15 312.04 17.2 306.33 17.84 303.75 17.63 302.91 17.81 302.49 19.1 297.93 18.65 297.21 18.47 295.93 17.81 294.77 17.1 294.41 17.95 293.45 18.82 292.26 18.89 291.76 19.64 291.62 20.03 291.16 21.97 290.79 22.96 289.92 24.2 288.44 25.74 286.29 28.51 281.57 31.59 275.08 33.92 269.15 35.64 262.73 36.03 260.19 36.44 258.88 36.44 258.16 37.7 254.99 37.66 254.94 39.27 248.98 40.17 244.87 41.97 234.83 42.58 230.15 43.14 226.51 43.28 223.79 43.9 219.56 44.56 215.63 44.41 215.1 44.59 214.51 44.18 214.03 44.57 212.85 44.07 212.51 44.69 212.02 45.24 209.12 45.27 207.74 45.5 206.54 45.37 205.71 45.47 204.71 45.83 202.9 45.41 201.83 46.04 199.91 45.96 199.4 45.35 199 45.76 198.16 45.42 197.84 46.02 196.14 46.03 194.7 46.86 193.36 47.64 189.55 48.21 186.15 48.52 183.66 48.56 178.98 48.45 178.1 48.53 176.7 49.34 173.7 50.23 167.34 50.14 166.17 49.96 165.68 50.23 164.77 50.36 163.76 51.03 161.16 50.85 160.13 50.51 159.83 49.47 159.75 50.03 158.78 50.87 155.53 51.06 153.65 50.84 152.67 50.38 152.57 50.44 151.83 50.06 151.14 49.96 150.43 49.33 150.08 49.58 148.15 49.47 147.45 50.13 146.81 50.49 146.74 50.51 146.06 50.08 145.88 50.21 144.25 51.43 143.5 51.96 142.34 53.59 137.34 54.29 134.64 54.24 133.82 54.42 132.51 55.27 129.25 55.86 125.92 55.57 125 55.62 124.27 56.15 123.8 55.89 123.14 54.99 122.66 55.21 121.19 55.57 119.99 56.29 119.27 57.8 118.3 59.19 113.24 59.68 110.56 59.9 107.75 59.47 106.28 59.08 105.97 59.59 105.23 60.28 100.83 60.9 100.19 60.45 99.89 60.3 96.34 59.44 94.39 58.87 94.19 56 94.4 56.03 94.11 58.76 93.32 59.39 92.63 60.14 89.53 60.65 85.14 60.51 83.92 60.3 83.34 59.26 81.54 59.71 80.97 59.71 80.13 58.87 79.62 59.64 78.96 60.5 78.6 60.95 77.3 61.75 73.85 61.74 71.94 61.03 71.3 61.47 69.83 62.68 63.23 62.94 62.92 62.64 62.28 62.71 59.71 62.37 55.97 62.08 55.35 60.93 54.52 60.42 54.33 59.97 53.6 60.28 52.89 59.69 52.31 58.57 52.47 58.44 51.93 58.85 51.45 59.79 50.76 59.92 48.93 60.12 48.15 60.55 45.12 60.49 44.13 60.25 43.18 60.46 42.49 60.28 40.71 59.99 40.43 60.15 39.68 59.95 38.16 59.57 37.92 59.54 37.42 58.89 37.14 58.94 36.12 58.36 35.87 58.24 35.48 57.45 35.1 57.39 34.36 59.23 33.4 59.22 32.86 59.72 32.12 60.96 31.6 62.5 31.48 62.92 31.32 63.87 28.14 63.73 24.95 63.33 22.02 61.93 17.64 60.79 15.13 59.32 12.46 57.09 8.99 55.75 7.07 54.66 6.42 55.52 5.76 56.27 5.61 56.75 5.8 57.14 6.45 57.86 6.71 57.91 7.01 57.21 7.76 57.77 8.48 58.71 8.7 59.43 8.14 60.53 8.61 61.3 8.68 61.95 9.17 66.1 11.29 66.57 11.91 66.37 12.47 67.43 12.83 68.26 12.46 68.7 12.53 69.1 13.05 71.07 13.59 72.56 13.11 72.68 12.24 72.17 12.19 70.56 11.32 69.9 10.6 70.78 10.3 71.05 10.52 71.91 10.11 74.31 10.34 78.12 9.53 79.73 8.77 80.08 8.3 80.64 8.1 81.95 8.99 82.79 9.26 83.82 9.87 84.52 10.47 86.96 10.39 88.86 9.56 88.74 8.16 89.59 7.59 91.8 8.09 92.98 8.09 94.24 7.88 95.97 6.95 97.89 6.38 100.14 5.11 101.27 4.56 101.32 3.56 101.68 3.52 Z M 89.78 5.02 91.34 4.61 91.17 5.04 89.95 5.19 89.78 5.02 Z M 53.3 1 54.76 1.21 55.9 2.76 54.94 2.29 53.98 2.1 53.2 1.36 53.3 1 Z" fill-rule="evenodd" fill="none" stroke="currentColor" stroke-width="1"/>
</g>
</svg>