<svg viewBox="-125.376518 -47.095411 9.723287999999997 5.913602999999995" xmlns="http://www.w3.org/2000/svg">
  <path d="M -123.543929,46.259565 L -123.54765899823674,46.25910949723868 L -123.548156,46.249018 L -123.559617,46.243426 L -123.582434,46.230525 L -123.60196,46.224749 L -123.619512,46.21531 L -123.632347,46.213172 L -123.644231,46.213172 L -123.666751,46.218228 L -123.67538,46.212401 L -123.674178,46.198203 L -123.69343,46.189812 L -123.718149,46.188989 L -123.725279,46.195077 L -123.735733,46.201257 L -123.744294,46.203961 L -123.757589,46.213001 L -123.763308,46.211033 L -123.766873,46.206263 L -123.783204,46.19854 L -123.821834,46.190293 L -123.846209,46.19268 L -123.854940916297,46.1884650404039 L -123.85776,46.190757 L -123.866643,46.187674 L -123.859911,46.180379 L -123.843644,46.171545 L -123.838415,46.171051 L -123.839603,46.162163 L -123.854801,46.157342 L -123.87478,46.162821 L -123.878821,46.168089 L -123.883336,46.168747 L -123.891762,46.164978 L -123.902501,46.168704 L -123.900449,46.174343 L -123.905277,46.18069 L -123.947417,46.202219 L -123.953971,46.207159 L -123.961739,46.207916 L -123.972942,46.212678 L -123.98031,46.206921 L -123.989817,46.209224 L -123.995521,46.216461 L -123.988429,46.224132 L -123.988866,46.22715 L -123.996234,46.22978 L -124.000212,46.236416 L -124.005028,46.23833 L -124.012634,46.23685 L -124.021428,46.230109 L -124.010344,46.223514 L -123.996766,46.20399 L -123.974124,46.168798 L -123.95919,46.141675 L -123.947531,46.116131 L -123.933366,46.071672 L -123.92933,46.041978 L -123.927891,46.009564 L -123.937471,45.977306 L -123.941831,45.97566 L -123.957438,45.974469 L -123.969991,45.969139 L -123.975067,45.961683 L -123.974998,45.956129 L -123.993703,45.946431 L -123.99304,45.938842 L -123.985063,45.935011 L -123.983825,45.931092 L -123.977933,45.928564 L -123.978446,45.918179 L -123.971831,45.915345 L -123.971516,45.910211 L -123.96763,45.907807 L -123.965629,45.892344 L -123.967231,45.884782 L -123.964284,45.881946 L -123.962515,45.863891 L -123.964606,45.856809 L -123.962232,45.847203 L -123.961544,45.837101 L -123.965982,45.80642 L -123.968018,45.798472 L -123.969302,45.779837 L -123.978804,45.772913 L -123.983029,45.768044 L -123.981732,45.76251 L -123.970272,45.764141 L -123.964335,45.758296 L -123.967425,45.751041 L -123.962908,45.74362 L -123.957689,45.741733 L -123.946027,45.733249 L -123.943121,45.727031 L -123.939653,45.688975 L -123.940394,45.662926 L -123.937272,45.656384 L -123.939964,45.653229 L -123.952264,45.586296 L -123.956711,45.571303 L -123.949468,45.564829 L -123.94944,45.545389 L -123.957568,45.510399 L -123.962095,45.497175 L -123.970794,45.493507 L -123.97865,45.486854 L -123.970121,45.481634 L -123.970154,45.473123 L -123.974665,45.467333 L -123.964074,45.449112 L -123.962035,45.443207 L -123.960557,45.430778 L -123.965728,45.386242 L -123.973398,45.354791 L -123.979715,45.347724 L -124.007494,45.33974 L -124.007756,45.336813 L -123.978671,45.338854 L -123.972899,45.33689 L -123.964169,45.317026 L -123.962607,45.281073 L -123.958061,45.278013 L -123.964276,45.271444 L -123.971328,45.226849 L -123.976507,45.21933 L -123.972529,45.216145 L -123.968187,45.201217 L -123.970461,45.172728 L -123.975425,45.145476 L -123.989529,45.094045 L -124.004863,45.084232 L -124.012163,45.076921 L -124.015851,45.064759 L -124.017991,45.049808 L -124.00888072331439,45.04499871023697 L -124.00627,45.038214 L -124.011662,45.033485 L -124.012184,45.026111 L -124.009179,45.016721 L -124.015243,44.982904 L -124.023834,44.949825 L -124.025678,44.936542 L -124.025136,44.928175 L -124.032296,44.900809 L -124.048814,44.850007 L -124.054151,44.838233 L -124.066622,44.830563 L -124.067883,44.814069 L -124.063498,44.812224 L -124.063735,44.80531 L -124.067437,44.804638 L -124.074066,44.798107 L -124.073012,44.791053 L -124.075473,44.771403 L -124.069158,44.767806 L -124.068112,44.760618 L -124.06429,44.753678 L -124.064816,44.746081 L -124.06017,44.745076 L -124.057901,44.735163 L -124.059857,44.716027 L -124.068445,44.683094 L -124.07409,44.673183 L -124.063498,44.672442 L -124.060043,44.669361 L -124.058281,44.658866 L -124.065008,44.632504 L -124.06635,44.62222 L -124.06914,44.612979 L -124.067251,44.60804 L -124.06635,44.596162 L -124.075399,44.531606 L -124.083601,44.501123 L -124.084429,44.486927 L -124.08331,44.477952 L -124.0837,44.430404 L -124.086872,44.405185 L -124.092633,44.37059 L -124.100587,44.331926 L -124.109059,44.318391 L -124.10907,44.303707 L -124.1152,44.286486 L -124.111747,44.283236 L -124.115953,44.274641 L -124.109744,44.270597 L -124.108945,44.265475 L -124.115309,44.245977 L -124.111054,44.235071 L -124.114719,44.2167 L -124.115671,44.206554 L -124.114424,44.198164 L -124.116717,44.185962 L -124.117006,44.171913 L -124.122668,44.142519 L -124.128882,44.137549 L -124.123876,44.1341 L -124.127758,44.122027 L -124.123643,44.117217 L -124.125438,44.11123 L -124.123975,44.105834 L -124.130608,44.065967 L -124.136941,44.023007 L -124.138326,43.995325 L -124.144075,43.958437 L -124.150267,43.91085 L -124.16856,43.808955 L -124.177685,43.767228 L -124.193984,43.706674 L -124.193623,43.706137 L -124.206343,43.674021 L -124.206343,43.666628 L -124.210531,43.653347 L -124.214477,43.627619 L -124.232025,43.562393 L -124.255609,43.502172 L -124.286896,43.436296 L -124.315012,43.388389 L -124.330671,43.366559 L -124.343247,43.351517 L -124.353332,43.342667 L -124.373037,43.338953 L -124.376997,43.334231 L -124.384603,43.332848 L -124.385296,43.32773 L -124.394143,43.315651 L -124.402814,43.305872 L -124.395536,43.30224 L -124.388891,43.290523 L -124.38708,43.27749 L -124.38246,43.270167 L -124.395607,43.223908 L -124.397382,43.219626 L -124.395302,43.211101 L -124.401726,43.184896 L -124.424113,43.126859 L -124.434451,43.115986 L -124.435157,43.104678 L -124.432236,43.097383 L -124.436655,43.085816 L -124.434655,43.081469 L -124.436198,43.071312 L -124.446875,43.031808 L -124.462619,42.99143 L -124.480938,42.951495 L -124.500141,42.917502 L -124.525653,42.879986 L -124.534589,42.875403 L -124.53648,42.862354 L -124.545058,42.854086 L -124.552441,42.840568 L -124.566244,42.836392 L -124.559298,42.834298 L -124.544179,42.822958 L -124.536073,42.814175 L -124.524439,42.789793 L -124.52046,42.770865 L -124.513602,42.745827 L -124.514669,42.736806 L -124.511286,42.733124 L -124.503681,42.739758 L -124.491679,42.741789 L -124.473864,42.732671 L -124.467559,42.723821 L -124.459797,42.707486 L -124.459643,42.702166 L -124.455263,42.694369 L -124.449417,42.689819 L -124.447487,42.68474 L -124.45074,42.675798 L -124.434688,42.669958 L -124.413119,42.657934 L -124.409836,42.649485 L -124.413764,42.645795 L -124.409431,42.63821 L -124.406282,42.636517 L -124.405547,42.628966 L -124.401177,42.627192 L -124.399421,42.618079 L -124.401498,42.610005 L -124.401716,42.597676 L -124.400031,42.591926 L -124.393663,42.582061 L -124.394815,42.578512 L -124.389977,42.574758 L -124.392657,42.561716 L -124.399133,42.543366 L -124.399829,42.53828 L -124.411362,42.513378 L -124.422195,42.496427 L -124.419964,42.48998 L -124.423084,42.478952 L -124.422038,42.461226 L -124.423836,42.45735 L -124.43512,42.441926 L -124.435892,42.43718 L -124.425499,42.409373 L -124.426155,42.395569 L -124.424759,42.376993 L -124.427222,42.33488 L -124.431495,42.33072 L -124.433063,42.323976 L -124.427782,42.318857 L -124.420557,42.320412 L -124.41978,42.315527 L -124.411815,42.307393 L -124.412919,42.301818 L -124.41051,42.298652 L -124.408215,42.280354 L -124.408514,42.260588 L -124.411461,42.257678 L -124.410982,42.250547 L -124.397747,42.239938 L -124.383633,42.22716 L -124.377762,42.218809 L -124.378158,42.21119 L -124.375697,42.206111 L -124.376215,42.196381 L -124.373264,42.195752 L -124.366106,42.183612 L -124.361009,42.180752 L -124.361748,42.171991 L -124.364606,42.169219 L -124.360318,42.162272 L -124.366832,42.15845 L -124.366028,42.152343 L -124.361563,42.143767 L -124.351784,42.134965 L -124.351535,42.129796 L -124.357122,42.118016 L -124.350766,42.108014 L -124.354027,42.103539 L -124.351083,42.100213 L -124.344673,42.100039 L -124.342669,42.094295 L -124.335162,42.087445 L -124.328858,42.085405 L -124.320698,42.076291 L -124.319738,42.072297 L -124.313319,42.065277 L -124.303991,42.060886 L -124.299649,42.051736 L -124.286679,42.045346 L -124.270464,42.045553 L -124.263887,42.040923 L -124.259821,42.034578 L -124.248523,42.026 L -124.239716,42.023814 L -124.237242,42.018688 L -124.21894,42.007916 L -124.211605,41.99846 L -124.100376,41.996712 L -123.993252,41.996028 L -123.912055,41.995948 L -123.834485,41.99605 L -123.82203801667119,41.99558290825812 L -123.810908,41.995164 L -123.728169,41.997056 L -123.657212,41.995094 L -123.62323,41.999782 L -123.564204,42.000706 L -123.44597,42.000626 L -123.347451,41.999277 L -123.183923,42.005789 L -123.145735,42.008761 L -123.128935,42.008372 L -123.080938,42.005064 L -123.062882,42.00482 L -123.043997,42.003084 L -122.967979,42.003524 L -122.912952,42.003556 L -122.87539867446883,42.00396149303431 L -122.721386,42.004123 L -122.625315,42.005143 L -122.566993,42.007058 L -122.515301,42.008052 L -122.416638,42.00838 L -122.37850991423505,42.00948498266326 L -122.261344,42.007617 L -122.164571,42.007306 L -122.145113,42.00657 L -122.048217,42.00539 L -122.034563,42.004696 L -121.996127,42.003887 L -121.957531,42.003485 L -121.939829,42.003808 L -121.85013910564689,42.00281808287782 L -121.756783,42.001475 L -121.561022,41.998701 L -121.48278,41.997895 L -121.344911,41.996214 L -121.29653,41.997365 L -121.188565,41.997384 L -121.168477,41.997178 L -121.111242,41.995672 L -121.071069,41.995102 L -121.019095,41.993386 L -120.974135,41.992988 L -120.927323,41.993635 L -120.798117,41.993951 L -120.758388,41.993653 L -120.70076522701744,41.99382136751593 L -120.662123,41.993212 L -120.583377,41.992971 L -120.487934,41.993613 L -120.326387,41.992586 L -120.325751,41.993143 L -120.256499,41.992953 L -120.23986,41.993503 L -120.178921,41.994557 L -120.071546,41.994923 L -119.999234,41.994944 L -119.986801,41.995709 L -119.948657,41.996736 L -119.88923430880719,41.99741576610011 L -119.791174,41.997384 L -119.755983,41.996545 L -119.710989,41.996182 L -119.67308,41.996342 L -119.574007,41.995752 L -119.455515,41.995717 L -119.336778,41.993956 L -119.238096,41.993898 L -119.203995,41.993498 L -119.154684,41.993354 L -119.082125,41.993715 L -119.00106,41.993551 L -118.934234,41.993158 L -118.903244,41.992725 L -118.765792,41.992509 L -118.707888,41.992082 L -118.676499,41.992154 L -118.628607,41.993399 L -118.569725,41.994457 L -118.434816,41.995857 L -118.197371,41.997344 L -118.195869,41.997001 L -118.002022,41.997987 L -117.914375,41.998242 L -117.87598,41.998159 L -117.789235,41.998426 L -117.725418,41.99818 L -117.626018,41.998096 L -117.623734,41.998466 L -117.530197,41.999024 L -117.443062,41.999659 L -117.403613,41.99929 L -117.217551,41.999887 L -117.198024,42.000383 L -117.133667,42.000439 L -117.068398,42.000035 L -117.02619937862309,42.000194948290456 L -117.026341,42.061881 L -117.026097,42.117647 L -117.026579,42.124888 L -117.026166,42.200677 L -117.026377,42.308474 L -117.026129,42.357192 L -117.02652955997344,42.37541304999595 L -117.026434,42.456621 L -117.026452,42.577075 L -117.026665,42.624878 L -117.026483,42.734043 L -117.026231,42.831194 L -117.026534,42.904722 L -117.026279,42.97227 L -117.026658,43.025441 L -117.026592,43.076211 L -117.026872,43.154238 L -117.026643,43.198987 L -117.026685,43.299182 L -117.026651,43.374877 L -117.026733,43.484177 L -117.027003,43.545738 L -117.02662,43.573841 L -117.026902,43.6408 L -117.02677,43.733959 L -117.02638,43.749883 L -117.026634,43.80811 L -117.022076,43.815856 L -117.022224,43.82214 L -117.032289,43.828767 L -117.031887,43.834156 L -117.023201,43.841892 L -117.012831,43.840001 L -117.010701,43.849754 L -117.020116,43.853958 L -117.019337,43.859418 L -117.007189,43.863641 L -116.997391,43.864874 L -116.991415,43.863864 L -116.982347,43.86884 L -116.98362481095228,43.881203757668196 L -116.976181,43.894649 L -116.977354,43.905816 L -116.980544,43.91483 L -116.96461,43.916954 L -116.961535,43.918388 L -116.959151,43.928738 L -116.961806,43.932797 L -116.968577,43.936051 L -116.968214,43.941881 L -116.96254,43.946993 L -116.961264,43.956 L -116.971574,43.956964 L -116.97049,43.959764 L -116.960478,43.963413 L -116.961683,43.968168 L -116.97088,43.968302 L -116.976045,43.975058 L -116.967365,43.977047 L -116.958585,43.983425 L -116.938516,43.985032 L -116.935847,43.990875 L -116.944882,44.003593 L -116.93761,44.009494 L -116.934499,44.021218 L -116.936833,44.028433 L -116.943361,44.035645 L -116.955131,44.041458 L -116.959001,44.045254 L -116.973185,44.049425 L -116.975255,44.063657 L -116.974927,44.072973 L -116.977085,44.08582 L -116.967203,44.090936 L -116.944811,44.093574 L -116.933701,44.100043 L -116.928305,44.107327 L -116.929525,44.113059 L -116.925642,44.118929 L -116.914236,44.127304 L -116.911218,44.139992 L -116.903327,44.144422 L -116.900834,44.150099 L -116.895931,44.154295 L -116.894202,44.162317 L -116.895757,44.171267 L -116.903607,44.179985 L -116.914871,44.18269 L -116.922952,44.187358 L -116.924636,44.191043 L -116.935443,44.193962 L -116.94951014087812,44.19156122779721 L -116.967259,44.194581 L -116.972073,44.197998 L -116.973701,44.208017 L -116.970219,44.217493 L -116.974322,44.228606 L -116.971987,44.234655 L -116.975382,44.242392 L -116.986133,44.245354 L -117.007987,44.246417 L -117.016917,44.24539 L -117.025277,44.248505 L -117.031862,44.248635 L -117.042283,44.242775 L -117.046148,44.230669 L -117.051431,44.228748 L -117.05651,44.230874 L -117.058635,44.236328 L -117.067284,44.24401 L -117.07835,44.249885 L -117.090933,44.260311 L -117.093574,44.269374 L -117.104207,44.279942 L -117.111616,44.280666 L -117.119861,44.278272 L -117.130866,44.269492 L -117.134666,44.26217 L -117.141264,44.258515 L -117.157053,44.257493 L -117.170341,44.258889 L -117.184309,44.267146 L -117.200389,44.275442 L -117.207505,44.282722 L -117.217626,44.289056 L -117.22274,44.298326 L -117.217843,44.30718 L -117.2055,44.311789 L -117.200686,44.316899 L -117.195767,44.327119 L -117.192203,44.32863 L -117.189842,44.335007 L -117.196149,44.346362 L -117.202666,44.349813 L -117.206962,44.355206 L -117.216911,44.360163 L -117.235117,44.373853 L -117.23783,44.382386 L -117.243027,44.390974 L -117.242675,44.396548 L -117.233077,44.4008 L -117.227259,44.405236 L -117.215072,44.427162 L -117.216562,44.442276 L -117.214741,44.44923 L -117.217015,44.459042 L -117.220383,44.463037 L -117.221548,44.470146 L -117.225371,44.475476 L -117.224104,44.483734 L -117.216372,44.48616 L -117.208454,44.485928 L -117.200237,44.492027 L -117.192494,44.503272 L -117.19163,44.509886 L -117.181583,44.52296 L -117.167187,44.523431 L -117.161033,44.525166 L -117.152406,44.531802 L -117.144161,44.545647 L -117.14293,44.557236 L -117.147934,44.562143 L -117.146032,44.568603 L -117.133963,44.57524 L -117.124754,44.583834 L -117.125409,44.59224 L -117.120522,44.614658 L -117.1159,44.623339 L -117.108231,44.62711 L -117.098221,44.640689 L -117.098206,44.647651 L -117.094968,44.652011 L -117.096791,44.657385 L -117.095868,44.664737 L -117.091223,44.668807 L -117.080796,44.673768 L -117.078574,44.680328 L -117.080772,44.684161 L -117.07912,44.692175 L -117.072221,44.700517 L -117.063824,44.703623 L -117.060454,44.721668 L -117.062273,44.727143 L -117.058302,44.730482 L -117.050227,44.732546 L -117.047821,44.741527 L -117.044217,44.74514 L -117.02942,44.751102 L -117.021618,44.750749 L -117.014805,44.756603 L -117.000303,44.756082 L -116.990303,44.760082 L -116.966801,44.775181 L -116.949001,44.777981 L -116.9433,44.781681 L -116.9347,44.783881 L -116.9308,44.790981 L -116.933599,44.795681 L -116.932199,44.802781 L -116.928099,44.808381 L -116.922999,44.81098 L -116.905772,44.834793 L -116.900146,44.836672 L -116.896589,44.846545 L -116.89862,44.853744 L -116.889882,44.855171 L -116.883591,44.858277 L -116.876001,44.866684 L -116.865338,44.870603 L -116.852427,44.887578 L -116.848893,44.900719 L -116.842922,44.908907 L -116.838956,44.917826 L -116.838467,44.923601 L -116.83199,44.933007 L -116.835702,44.940633 L -116.846461,44.951521 L -116.851406,44.959841 L -116.849561,44.963593 L -116.836449,44.969239 L -116.826271,44.982493 L -116.836592,44.984037 L -116.840497,44.982549 L -116.84355,44.975408 L -116.85202,44.97203 L -116.857485,44.976728 L -116.857549,44.982567 L -116.844625,45.001435 L -116.844935,45.0138 L -116.847944,45.022602 L -116.842499,45.029898 L -116.825133,45.03784 L -116.814375,45.048285 L -116.808576,45.050652 L -116.797329,45.060267 L -116.790878,45.069947 L -116.78371,45.076972 L -116.783537,45.093605 L -116.774847,45.105536 L -116.754643,45.113972 L -116.752839,45.121768 L -116.74686,45.124223 L -116.745535,45.133038 L -116.733296,45.138486 L -116.728757,45.144381 L -116.728018,45.154237 L -116.724188,45.162924 L -116.724205,45.171501 L -116.717676,45.184364 L -116.709536,45.203015 L -116.70975,45.217243 L -116.704111,45.228154 L -116.703697,45.240099 L -116.698765,45.245182 L -116.696047,45.254679 L -116.691388,45.263739 L -116.67473,45.275844 L -116.672305,45.285202 L -116.672327,45.295234 L -116.674648,45.315082 L -116.671057,45.32383 L -116.655255,45.34886 L -116.632344,45.377415 L -116.623385,45.393963 L -116.619057,45.39821 L -116.597447,45.41277 L -116.59304,45.425036 L -116.588195,45.44292 L -116.575949,45.452522 L -116.568251,45.45582 L -116.564944,45.459585 L -116.55483,45.46293 L -116.554981,45.472798 L -116.558802,45.480073 L -116.553089,45.49621 L -116.557621,45.503495 L -116.556029,45.507019 L -116.546876,45.511584 L -116.540933,45.520111 L -116.536339,45.523935 L -116.532609,45.534758 L -116.528394,45.539267 L -116.524172,45.548565 L -116.526166,45.553549 L -116.51851,45.556689 L -116.51175,45.556445 L -116.503957,45.560953 L -116.503534,45.565819 L -116.494228,45.572225 L -116.481943,45.577898 L -116.483617,45.582962 L -116.480788,45.587942 L -116.475967,45.59009 L -116.463635,45.602785 L -116.463504,45.615785 L -116.472877,45.624877 L -116.471504,45.628467 L -116.482806,45.633595 L -116.482495,45.639916 L -116.487849,45.644238 L -116.488818,45.650799 L -116.496826,45.657251 L -116.505429,45.661914 L -116.517675,45.675039 L -116.528272,45.681473 L -116.535117,45.691277 L -116.538201,45.716161 L -116.535698,45.734231 L -116.541771,45.744449 L -116.54809,45.752364 L -116.559444,45.755189 L -116.567339,45.763004 L -116.575129,45.765863 L -116.59421,45.77908 L -116.616935,45.782464 L -116.623742,45.781813 L -116.632032,45.784979 L -116.639641,45.781274 L -116.649172,45.779734 L -116.66117,45.780313 L -116.665268,45.782059 L -116.680818,45.794388 L -116.688711,45.808116 L -116.693097,45.811144 L -116.698079,45.820852 L -116.70845,45.825117 L -116.716942,45.826708 L -116.734543,45.826527 L -116.753923,45.817429 L -116.763402,45.81658 L -116.774224,45.823369 L -116.782139,45.825116 L -116.788329,45.831928 L -116.787792,45.844267 L -116.795976,45.858094 L -116.796459,45.861224 L -116.803741,45.864934 L -116.814131,45.877641 L -116.819182,45.880938 L -116.844369,45.892966 L -116.846959,45.896646 L -116.857254,45.904159 L -116.866544,45.916958 L -116.870398,45.926913 L -116.870067,45.930472 L -116.875125,45.9422 L -116.87598,45.954775 L -116.880506,45.958508 L -116.891298,45.960327 L -116.894906,45.968922 L -116.893606,45.97758 L -116.911469,45.989049 L -116.917487,45.995442 L -116.933416,45.996071 L -116.988074,45.996807 L -117.061459,45.997207 L -117.134025,45.997934 L -117.259921,45.998482 L -117.273265,45.998282 L -117.337909,45.998575 L -117.354005,45.996563 L -117.385431,45.998192 L -117.444995,45.998395 L -117.479935,45.997801 L -117.51986,45.99833 L -117.58879,45.998593 L -117.614328,45.999218 L -117.682138,45.999788 L -117.730061,45.999814 L -117.90171,46.000204 L -118.006598,46.000576 L -118.170752,46.000549 L -118.308875,46.000582 L -118.414667,46.000756 L -118.590617,46.000943 L -118.775825,46.001104 L -118.817896,46.000805 L -118.976064,46.000418 L -118.987258,45.999855 L -119.008651,45.979223 L -119.027215,45.969112 L -119.061497,45.958542 L -119.093294,45.942723 L -119.126322,45.932784 L -119.169191,45.927703 L -119.19552,45.9279 L -119.225631,45.932797 L -119.257072,45.939867 L -119.286062,45.93742 L -119.322574,45.933072 L -119.332438,45.930789 L -119.364498,45.921547 L -119.450398,45.917381 L -119.488083,45.906361 L -119.524519,45.908567 L -119.571602,45.925478 L -119.600543,45.919549 L -119.623628,45.905602 L -119.669974,45.856908 L -119.772854,45.845727 L -119.802705,45.84763 L -119.849343,45.84018 L -119.907245,45.828176 L -119.965772,45.824376 L -120.014837,45.80712 L -120.070236,45.785156 L -120.14148,45.773208 L -120.170603,45.76198 L -120.210774,45.725915 L -120.283431,45.721165 L -120.326332,45.71142 L -120.403651,45.699444 L -120.482615,45.694407 L -120.505743,45.699949 L -120.522735,45.710287 L -120.559287,45.738315 L -120.591144,45.746509 L -120.635051,45.745711 L -120.66928,45.729883 L -120.689535,45.715727 L -120.728626,45.705319 L -120.788574,45.686424 L -120.855415,45.671729 L -120.895822,45.642923 L -120.913608,45.639992 L -120.944018,45.656392 L -120.953115,45.656742 L -120.983494,45.648358 L -121.00737,45.653197 L -121.033823,45.650963 L -121.06446,45.652491 L -121.084863,45.647932 L -121.12011,45.623165 L -121.117177,45.618201 L -121.131833,45.609753 L -121.139386,45.612045 L -121.145583,45.607945 L -121.167852,45.606098 L -121.183684,45.60645 L -121.196459,45.61661 L -121.195184,45.629561 L -121.200351,45.649839 L -121.215768,45.671228 L -121.248962,45.677756 L -121.287296,45.686867 L -121.312296,45.699839 L -121.337712,45.704839 L -121.372573,45.703033 L -121.40174,45.692893 L -121.423962,45.694074 L -121.44122898618681,45.697279017290306 L -121.462795,45.701282 L -121.499098,45.720747 L -121.523681,45.72493 L -121.532934,45.726504 L -121.631323,45.704697 L -121.668406,45.705114 L -121.707295,45.694836 L -121.735073,45.694002 L -121.811197,45.706708 L -121.867021,45.693391 L -121.901745,45.670669 L -121.900767,45.662016 L -121.908134,45.654558 L -121.934987,45.644231 L -121.951691,45.644836 L -121.955775,45.643586 L -121.96308,45.632891 L -121.983007,45.622888 L -122.003554,45.615947 L -122.021054,45.61478 L -122.044299,45.609535 L -122.099952,45.583995 L -122.112317,45.581337 L -122.141613,45.584003 L -122.182864,45.576781 L -122.200791,45.565111 L -122.248993,45.547745 L -122.266701,45.543841 L -122.296601,45.543641 L -122.331502,45.548241 L -122.352802,45.569441 L -122.380302,45.575941 L -122.391802,45.574541 L -122.410706,45.567633 L -122.438674,45.563585 L -122.453891,45.567312 L -122.47577,45.578681 L -122.492259,45.58328 L -122.523668,45.589632 L -122.54584782536608,45.59618017777283 L -122.582326,45.6041 L -122.607706,45.608139 L -122.643907,45.609739 L -122.675099,45.618066 L -122.691185,45.62484 L -122.713309,45.637438 L -122.738109,45.644138 L -122.76241561177628,45.65642996867396 L -122.76381,45.657138 L -122.774511,45.680437 L -122.772511,45.699637 L -122.760108,45.734413 L -122.761451,45.759163 L -122.769532,45.780583 L -122.795605,45.81 L -122.795963,45.825024 L -122.785696,45.844216 L -122.785026,45.867699 L -122.798091,45.884333 L -122.8115,45.912724 L -122.806187,45.932416 L -122.813999,45.960983 L -122.837638,45.980821 L -122.856158,46.014469 L -122.878091,46.03128 L -122.884478,46.06028 L -122.904119,46.083734 L -122.961755,46.104477 L -122.964512,46.105855 L -123.004233,46.133823 L -123.022921,46.139415 L -123.043418,46.147556 L -123.05189747332075,46.15397094284731 L -123.105021,46.177676 L -123.115904,46.185268 L -123.166416,46.188979 L -123.213054,46.172541 L -123.22293,46.167444 L -123.242026,46.160968 L -123.251233,46.156562 L -123.280166,46.144843 L -123.301034,46.144632 L -123.339436,46.146232 L -123.346438,46.145061 L -123.371433,46.146372 L -123.379524,46.150993 L -123.390404,46.154428 L -123.430987,46.181571 L -123.427629,46.229348 L -123.447592,46.249832 L -123.468743,46.264531 L -123.479644,46.269131 L -123.501245,46.27099 L -123.516429,46.266088 L -123.543929,46.259565 Z M -123.664749,46.24431 L -123.663013,46.242576 L -123.650637,46.244072 L -123.648969,46.248461 L -123.664749,46.24431 Z M -124.035223,46.285137 L -124.036174,46.281523 L -124.028331,46.273967 L -124.018586,46.271995 L -124.008841,46.26723 L -124.020328,46.282975 L -124.035223,46.285137 Z" fill="none" stroke=currentColor stroke-width="1" vector-effect="non-scaling-stroke"/>
</svg>