<svg viewBox="-81.10239429999999 -42.8528478893442 6.9956076 3.716016189344195" xmlns="http://www.w3.org/2000/svg">
  <path d="M -75.415062,39.801919 L -75.398417,39.810467 L -75.371176,39.827998 L -75.354401,39.839917 L -75.341433,39.846112 L -75.330432,39.849013 L -75.309674,39.850178 L -75.293376,39.848782 L -75.272202,39.849076 L -75.256762,39.851934 L -75.22972604483249,39.858231883965516 L -75.221371,39.861543 L -75.199941,39.873182 L -75.188821,39.880814 L -75.180112,39.882197 L -75.150653,39.883504 L -75.143746,39.884998 L -75.137296,39.889966 L -75.13173344859571,39.89863517688358 L -75.128537,39.909095 L -75.12889689740493,39.91478172571156 L -75.134484,39.926168 L -75.136151,39.932974 L -75.136268,39.943282 L -75.135239,39.950677 L -75.130591,39.958608 L -75.119491,39.965372 L -75.108089,39.970332 L -75.096372,39.973981 L -75.085831,39.975102 L -75.075605,39.978041 L -75.06398877803431,39.98626740198386 L -75.053405,40.004568 L -75.04709,40.009941 L -75.030583,40.016194 L -75.013776,40.020166 L -75.000617,40.0287 L -74.973981,40.048595 L -74.966891,40.052716 L -74.935042,40.067836 L -74.920289,40.071348 L -74.911189,40.070262 L -74.90545908258791,40.07132996241806 L -74.874361,40.08076 L -74.863422,40.082635 L -74.85991461907543,40.0851350778032 L -74.853745,40.093926 L -74.8430603495789,40.09818360588106 L -74.83536537980643,40.10427782810898 L -74.833103,40.111972 L -74.826226,40.124066 L -74.816121,40.12774 L -74.799421,40.122703 L -74.786847,40.120437 L -74.78184223977264,40.12134660112596 L -74.762323,40.132881 L -74.75313,40.135033 L -74.74095469677503,40.135320203849155 L -74.724369,40.146412 L -74.722048,40.150311 L -74.722325,40.160727 L -74.737205,40.177609 L -74.75176,40.183839 L -74.75676000549258,40.18910785756159 L -74.760851,40.199232 L -74.767677,40.207752 L -74.77162,40.21526 L -74.795306,40.229408 L -74.81903311177045,40.23833471414279 L -74.824076,40.241574 L -74.836307,40.246208 L -74.84241535257159,40.250715522244676 L -74.853118,40.26973 L -74.860492,40.284584 L -74.868263,40.295254 L -74.887109,40.310307 L -74.896409,40.315107 L -74.90831,40.316907 L -74.91741,40.322406 L -74.939711,40.338006 L -74.942909,40.341683 L -74.948842,40.364899 L -74.955499,40.379395 L -74.964431,40.395948 L -74.969422,40.39964 L -74.979453,40.402923 L -74.988413,40.408494 L -74.99586,40.410384 L -75.023028,40.403693 L -75.031778,40.404813 L -75.047276,40.414338 L -75.057619,40.417336 L -75.060917,40.421737 L -75.066515,40.447176 L -75.070608,40.456196 L -75.067016,40.465308 L -75.067715,40.473669 L -75.062761,40.480026 L -75.062576,40.494074 L -75.064842,40.503503 L -75.065088,40.526165 L -75.068581,40.542185 L -75.075138,40.545579 L -75.099827,40.567398 L -75.115536,40.57286 L -75.134995,40.575662 L -75.140172,40.57537 L -75.148757,40.571819 L -75.157852,40.565424 L -75.172877,40.564423 L -75.181251,40.566715 L -75.18827,40.570547 L -75.195496,40.578627 L -75.189692,40.587671 L -75.192291,40.602676 L -75.19688346601941,40.60854189447024 L -75.201844,40.615892 L -75.197891,40.619332 L -75.190688,40.619957 L -75.188595,40.623636 L -75.19064134773625,40.63558879751762 L -75.200452,40.649219 L -75.190852,40.661938 L -75.182976,40.665747 L -75.177902,40.671966 L -75.177299,40.677395 L -75.180564,40.679363 L -75.189679,40.679444 L -75.196921,40.681297 L -75.20391,40.691472 L -75.19872,40.705298 L -75.192615,40.715874 L -75.18674,40.71949 L -75.182804,40.73365 L -75.195349,40.745473 L -75.196535,40.751631 L -75.191796,40.75583 L -75.183037,40.759344 L -75.177477,40.764225 L -75.17562,40.772923 L -75.171587,40.777745 L -75.163648,40.778386 L -75.152063,40.775327 L -75.139106,40.773606 L -75.13337679693366,40.77410018585733 L -75.123088,40.786746 L -75.108505,40.791094 L -75.1008,40.799797 L -75.100277,40.807578 L -75.090518,40.815913 L -75.083956,40.824425 L -75.084969,40.829414 L -75.09494,40.837103 L -75.097572,40.840967 L -75.095784,40.847082 L -75.090962,40.849187 L -75.076684,40.849875 L -75.07083,40.847392 L -75.064328,40.848338 L -75.063925,40.855424 L -75.058462,40.860706 L -75.05170266388477,40.864127994286484 L -75.050839,40.868067 L -75.053664,40.87366 L -75.06544,40.885675 L -75.073925,40.892177 L -75.07598,40.895692 L -75.07609,40.907039 L -75.079295,40.91388 L -75.095528,40.924148 L -75.104809,40.935247 L -75.111689,40.948127 L -75.117767,40.953013 L -75.120786,40.96278 L -75.12036730135003,40.96854638035851 L -75.13136,40.969276 L -75.135492,40.976914 L -75.132522,40.981235 L -75.130575,40.991093 L -75.123423,40.996129 L -75.110595,41.002174 L -75.109113,41.004102 L -75.093523,41.009442 L -75.084495,41.01592 L -75.070532,41.01862 L -75.040106,41.032735 L -75.035058,41.036836 L -75.026847,41.039731 L -75.02739,41.044106 L -75.017129,41.056623 L -75.013469,41.065941 L -75.006564,41.067782 L -75.000232,41.073579 L -74.989332,41.078319 L -74.98259,41.079172 L -74.969123,41.086803 L -74.966815,41.092521 L -74.972036,41.095562 L -74.981314,41.08986 L -74.988263,41.088222 L -74.991387,41.093155 L -74.979985,41.110507 L -74.97359,41.113186 L -74.963233,41.114676 L -74.948112,41.123192 L -74.944498,41.129974 L -74.931146,41.133734 L -74.924469,41.13753 L -74.905256,41.155668 L -74.900738,41.165189 L -74.889988,41.173217 L -74.88243,41.180676 L -74.872101,41.201251 L -74.859822,41.21811 L -74.860837,41.222318 L -74.867437,41.22742 L -74.862334,41.237431 L -74.861117,41.243645 L -74.855669,41.250131 L -74.849617,41.251114 L -74.844883,41.25813 L -74.846455,41.262413 L -74.837787,41.278009 L -74.830347,41.287065 L -74.821211,41.294313 L -74.812033,41.298158 L -74.807428,41.302812 L -74.791922,41.31121 L -74.795952,41.31799 L -74.79286071193346,41.32240645989957 L -74.78469821340141,41.32418990743235 L -74.772657,41.324781 L -74.763485,41.331271 L -74.760821,41.33951 L -74.754282,41.3462 L -74.725951,41.346192 L -74.709531,41.352326 L -74.700097,41.354655 L -74.69558,41.357607 L -74.689754,41.361747 L -74.694104,41.370105 L -74.70881655218675,41.37981546418416 L -74.712308,41.38834 L -74.71948,41.394528 L -74.729028,41.395331 L -74.73601,41.39833 L -74.741735,41.408777 L -74.734863,41.421904 L -74.737203,41.429766 L -74.741456,41.431154 L -74.750936,41.427857 L -74.75461634388691,41.42489417033149 L -74.76156,41.423183 L -74.772707,41.426342 L -74.788286,41.421491 L -74.79423,41.422851 L -74.799256,41.430806 L -74.801403,41.43867 L -74.805158,41.441853 L -74.812488,41.442802 L -74.822584,41.437014 L -74.826858,41.431392 L -74.835857,41.431095 L -74.853909,41.443146 L -74.863142,41.444387 L -74.879388,41.439796 L -74.88901,41.438165 L -74.895128,41.439335 L -74.894855,41.446191 L -74.889098,41.45143 L -74.894768,41.458145 L -74.906553,41.460876 L -74.90978220068307,41.47342818047058 L -74.913694,41.47628 L -74.923366,41.476995 L -74.93236773321318,41.48216819100146 L -74.943415,41.483681 L -74.95823,41.476581 L -74.966984,41.477037 L -74.981804,41.479949 L -74.985629,41.486883 L -74.98227,41.498685 L -74.9837026254258,41.50534595896517 L -74.987491,41.508819 L -74.99933,41.507523 L -75.003682,41.508507 L -75.000956,41.517593 L -75.003212,41.523481 L -75.016797,41.532195 L -75.022699,41.533003 L -75.0247,41.540131 L -75.016466,41.543346 L -75.018804,41.552436 L -75.028435,41.564603 L -75.033188,41.565069 L -75.04049,41.569688 L -75.047246,41.583682 L -75.060012,41.590813 L -75.066955,41.599428 L -75.074354,41.605911 L -75.06823,41.61022 L -75.059728,41.610415 L -75.059731,41.617556 L -75.044274,41.617644 L -75.043635,41.622828 L -75.048488,41.632494 L -75.050207,41.662534 L -75.059425,41.673537 L -75.051252,41.680018 L -75.052627,41.68811 L -75.059936,41.699978 L -75.066817,41.704918 L -75.068917,41.709794 L -75.063394,41.713058 L -75.05311,41.711521 L -75.049848,41.713066 L -75.053557,41.726868 L -75.054721,41.736487 L -75.052679,41.744826 L -75.053197,41.752425 L -75.059633,41.762994 L -75.064758,41.766687 L -75.072464,41.768548 L -75.07577,41.771667 L -75.09281,41.768361 L -75.100197,41.769014 L -75.104711,41.774384 L -75.102214,41.786434 L -75.092638,41.79666 L -75.07907,41.79704 L -75.073515,41.803509 L -75.072248,41.814131 L -75.079362,41.8151 L -75.08988,41.811701 L -75.100565,41.818927 L -75.111841,41.822152 L -75.115016,41.827058 L -75.113332,41.841667 L -75.116595,41.845449 L -75.130478,41.845164 L -75.139876,41.852058 L -75.157655,41.848692 L -75.163965,41.85129 L -75.168055,41.857968 L -75.16795,41.867517 L -75.170565,41.871608 L -75.176318,41.872423 L -75.183343,41.861092 L -75.19917,41.869158 L -75.206467,41.869899 L -75.215409,41.867018 L -75.223166,41.857916 L -75.231143,41.85924 L -75.241147,41.867252 L -75.248793,41.862739 L -75.257584,41.861957 L -75.26159,41.86494 L -75.264072,41.870754 L -75.25746,41.876842 L -75.260623,41.883783 L -75.27136,41.887513 L -75.273035,41.896313 L -75.267296,41.90303 L -75.267734,41.907868 L -75.276721,41.922515 L -75.276948,41.932886 L -75.2789786570042,41.93888378762612 L -75.288525,41.942458 L -75.29158,41.94647 L -75.291423,41.9523 L -75.297518,41.954685 L -75.300874,41.948603 L -75.310941,41.949103 L -75.317533,41.953578 L -75.319537,41.960106 L -75.329089,41.968577 L -75.341591,41.972216 L -75.341878,41.975351 L -75.337546,41.984265 L -75.34088309206572,41.99259605990044 L -75.359645,41.999554 L -75.4831397510443,41.9992466949764 L -75.602709,41.9989 L -75.692904,41.99844 L -75.764683,41.997856 L -75.833213,41.998179 L -75.953727,41.998987 L -76.10584,41.998914 L -76.244503,41.998404 L -76.312718,41.998334 L -76.378705,41.998457 L -76.444997,41.998784 L -76.541361,41.999955 L -76.587682,42.000275 L -76.748524,42.001684 L -76.833997,42.001991 L -76.92705527302466,42.00155488074063 L -77.096069,41.999899 L -77.161419,41.999605 L -77.302933,41.999722 L -77.456577,42.000162 L -77.511961,42.000077 L -77.562856,41.999606 L -77.648719,41.999473 L -77.7132,41.998839 L -77.81754,41.998323 L -77.894351,41.998207 L -77.940354,41.99847 L -78.04042,41.999419 L -78.121515,42.000389 L -78.17709,42.000014 L -78.196149,41.999565 L -78.281027,41.999099 L -78.428779,41.99981 L -78.54576662288136,41.999850158898305 L -78.622876,41.999975 L -78.697253,41.99867 L -78.77283334936197,41.9981297018307 L -78.858195,41.997711 L -78.918896,41.998119 L -78.961378,41.998707 L -79.05247,41.999387 L -79.158413,41.99967 L -79.256451,41.998835 L -79.314215,41.998705 L -79.342342,41.998933 L -79.411731,41.998404 L -79.513771,41.998379 L -79.61083665917201,41.99874037336434 L -79.64715839689813,41.99889146666162 L -79.761954,41.998841 L -79.761855,42.130191 L -79.761755,42.183622 L -79.76188065103746,42.2698805893442 L -79.773823,42.263943 L -79.777678,42.265355 L -79.812759,42.249325 L -79.818983,42.244591 L -79.83158,42.242656 L -79.844661,42.235486 L -79.870241,42.230245 L -79.873218,42.231984 L -79.90105,42.216701 L -79.918224,42.210865 L -79.923924,42.207546 L -79.931324,42.206737 L -79.973523,42.185394 L -79.985268,42.181026 L -79.985846,42.178765 L -80.012328,42.166271 L -80.021302,42.162672 L -80.06108,42.144857 L -80.074317,42.146698 L -80.078443,42.152911 L -80.073199,42.155794 L -80.080028,42.163625 L -80.072876,42.167478 L -80.086744,42.172475 L -80.104284,42.170078 L -80.11753,42.164865 L -80.12931,42.156171 L -80.135596,42.149347 L -80.143237,42.136762 L -80.148019,42.124702 L -80.154084,42.114757 L -80.165884,42.105857 L -80.188085,42.094257 L -80.198096,42.08976 L -80.206245,42.087925 L -80.215201,42.08286 L -80.233202,42.077397 L -80.240419,42.076253 L -80.247384,42.070521 L -80.267571,42.060406 L -80.291315,42.052181 L -80.293985,42.049971 L -80.330563,42.035604 L -80.351479,42.029381 L -80.363422,42.027726 L -80.402431,42.013114 L -80.436924,42.005609 L -80.457632,41.996932 L -80.489036,41.98737 L -80.494176,41.986885 L -80.517468,41.97741 L -80.51937484769147,41.97506721137254 L -80.51931,41.892195 L -80.519427,41.752693 L -80.519403,41.607037 L -80.519211,41.532103 L -80.519345,41.473907 L -80.518992,41.404343 L -80.519249,41.378918 L -80.519061,41.305544 L -80.519151,41.208469 L -80.519048,41.133394 L -80.518929,41.063027 L -80.519009,40.921601 L -80.519291,40.914661 L -80.519044,40.851339 L -80.519053,40.747424 L -80.518991,40.638801 L -80.51911,40.592271 L -80.518862,40.559297 L -80.51899892533869,40.477363280262054 L -80.517689,40.462217 L -80.51799,40.432267 L -80.51797,40.366656 L -80.518975,40.349767 L -80.519071,40.256973 L -80.519138,40.171889 L -80.518896,40.1175 L -80.519231,40.095587 L -80.519025,40.003172 L -80.519331,39.934821 L -80.518891,39.890964 L -80.519307,39.797567 L -80.519342,39.721403 L -80.495481,39.721216 L -80.412056,39.721184 L -80.372276,39.721428 L -80.249514,39.721002 L -80.224493,39.721223 L -80.126906,39.721057 L -80.080146,39.721401 L -80.00637,39.721192 L -79.940671,39.720671 L -79.750253,39.720777 L -79.710891,39.720977 L -79.659309,39.720804 L -79.583866,39.721277 L -79.547932,39.720792 L -79.476662,39.721078 L -79.421224,39.721539 L -79.317643,39.721955 L -79.225157,39.72198 L -79.087425,39.722483 L -79.045548,39.722883 L -78.99072,39.722561 L -78.845405,39.722988 L -78.808387,39.722911 L -78.723362,39.72303 L -78.62474,39.722946 L -78.537597,39.722472 L -78.50050073676765,39.7228280693151 L -78.45195578988297,39.722844986543016 L -78.438841,39.722479 L -78.408653,39.722793 L -78.344435,39.722468 L -78.314414,39.722862 L -78.269442,39.722494 L -78.099403,39.722099 L -77.98480262152475,39.722394969056545 L -77.876018,39.722213 L -77.755438,39.721245 L -77.727585,39.721244 L -77.669563,39.720664 L -77.56746,39.720409 L -77.502113,39.719893 L -77.475257,39.720033 L -77.391594,39.71982 L -77.217024,39.719861 L -77.185669,39.719824 L -77.027261,39.719957 L -76.999318,39.720106 L -76.990903,39.719799 L -76.936519,39.720706 L -76.890423,39.72039 L -76.794989,39.720601 L -76.69765768089788,39.72108702998037 L -76.601427,39.721299 L -76.595462,39.720449 L -76.583876,39.721302 L -76.479138,39.721116 L -76.384583,39.721303 L -76.210176,39.721309 L -76.143742,39.721522 L -76.135484,39.721147 L -76.027713,39.721729 L -75.841731,39.721971 L -75.788596,39.722199 L -75.77425147452453,39.722199957350696 L -75.766009,39.738114 L -75.752727,39.757893 L -75.744442,39.767668 L -75.732482,39.779574 L -75.713918,39.794464 L -75.68974,39.809301 L -75.673269,39.817195 L -75.649527,39.826053 L -75.633831,39.830504 L -75.617948,39.834 L -75.59488,39.837525 L -75.571175,39.839306 L -75.539585,39.838863 L -75.507499,39.835091 L -75.481039,39.829319 L -75.463409,39.824008 L -75.450106,39.819148 L -75.433298,39.811838 L -75.423104,39.806709 L -75.42007389258558,39.804785358974115 L -75.415062,39.801919 Z" fill="none" stroke=currentColor stroke-width="1" vector-effect="non-scaling-stroke"/>
</svg>