<?xml version="1.0"?>
<svg width="200" height="200" xmlns="http://www.w3.org/2000/svg" version="1.2" baseProfile="tiny" viewBox="-64.000 -233.500 928.000 928.000" stroke-linecap="round" stroke-linejoin="round">
<g id="state">
<path vector-effect="non-scaling-stroke" d="M 705.61 441.19 704.9 440.7 704.48 440.37 703.04 439.49 700.69 438.24 698.83 437.42 696.38 436.54 692.7 435.6 688.26 435.04 683.91 435.07 680.65 435.47 677.48 436.18 675.31 436.86 673.16 437.71 669.93 439.37 667.69 440.84 664.42 443.57 661.92 446.29 660.32 448.46 659.21 450.23 657.46 453.81 656.39 456.68 654.41 456.73 647.07 456.93 621.39 457.52 606.5 457.91 605.36 457.86 596.19 458.06 572.1 458.47 559.04 458.7 544.57 458.87 542.97 459.05 542.15 458.91 528.86 459.11 515.41 459.36 502.23 459.53 495.86 459.54 488.35 459.77 487.19 459.72 483.33 459.78 461.45 459.97 457.11 459.99 433 460.12 421.44 460.12 417.73 460.16 408.71 460.09 394.6 460.07 386.59 459.97 382.74 459.97 366.08 459.78 351.05 459.72 335.22 459.72 311.74 459.53 305.52 459.42 301.38 459.47 292.51 459.34 288.34 459.37 286.52 459.29 279.82 459.23 274.69 459.25 262.66 459.05 249.04 458.89 237.29 458.78 232.18 458.7 212.11 458.5 204.53 458.34 198.75 458.32 179.72 458.1 166.95 457.88 152.64 457.69 144.98 457.62 135.14 457.47 130.18 457.28 119.76 457.14 112.63 456.95 107.2 456.86 80.9 456.24 71.83 455.92 61.64 455.61 55.19 455.5 41.71 455.09 38.25 455.03 21.31 454.45 15.81 454.33 4.29 453.96 1 453.82 1.44 440.21 2.03 423.51 2.22 415.67 2.65 403.45 3.16 386.93 3.33 383.01 3.6 373.29 4.1 358.08 4.64 341.49 4.88 338.47 5.25 326.74 5.46 321.39 5.37 318.68 5.86 304.03 6.01 298.14 6.29 289.82 6.91 270.4 7.5 251.83 7.83 240.51 7.91 239.27 8.73 213.99 9.11 201.41 9.53 187.99 10.1 170.63 10.49 157.51 10.67 152.97 11.02 140.53 11.37 130.13 11.77 116.73 12.6 90.69 13.42 65.75 13.88 50.94 14.15 50.52 17.31 48.93 18 48.86 22.24 47.29 25.05 45.82 29.69 44.62 34.97 42.17 36.57 41.92 39.4 40.89 44.35 38.46 44.72 38.08 47.92 36.7 50.66 34.97 51.62 33.97 52.59 33.8 55.02 32.89 56.23 32.02 57.33 31.72 58.68 30.95 61.7 28.96 63.31 27.41 64.17 25.66 64.87 23.52 65.95 21.29 66.82 20.1 68.43 18.59 70.21 17.7 72.56 17.34 74.38 18.28 73.41 18.94 74.28 20.37 73.57 20.86 74.09 21.99 75.84 22.37 81.22 19.32 82.43 18.71 86.01 16.57 86.1 16.16 87.68 15.42 93.39 11.75 94.38 11.63 95.15 11.05 97.46 10.07 101.23 7.42 101.61 7.75 105.04 6.89 106.81 5.65 108.49 5.34 109.34 4.52 114.06 1.76 114.57 2.03 116.18 1 115.84 16.43 115.61 25.98 115.05 49.47 130.36 49.81 135.21 49.94 148.15 50.28 161.77 50.54 171.03 50.62 174.78 50.73 182.48 50.85 195.57 50.92 209.7 51.19 221.85 51.49 227.52 51.67 235.62 51.85 247.01 51.91 257.09 51.93 267.02 51.8 277.31 51.92 292.92 52.06 312.63 52.33 323.96 52.31 326.5 52.24 333.92 52.21 344.74 52.42 358.09 52.63 364.23 52.69 374.48 52.68 388.4 52.59 397 52.47 408.46 52.43 415.25 52.33 422.64 52.29 443.14 52.28 462.02 52.19 470.74 52.07 493.29 51.59 505.71 51.38 517.11 51.31 538.58 51.3 544.76 51.27 557.62 51.29 566.46 51.21 575.27 51.09 584.37 50.92 602.86 50.5 623.16 50.08 639.24 49.88 648.38 49.73 657.95 49.4 669.98 49.03 685.93 48.56 702.4 48.06 704.94 49.24 705.43 50.72 704.89 52.33 704.95 52.89 706.63 53.49 707.95 54.97 708.25 56.13 709.15 56.9 710.5 56.96 710.92 55.86 711.74 56.26 711.75 57.3 712.18 58.01 713.47 58.61 713.77 59.68 713.86 61.53 715.13 64.11 715.22 64.98 714.48 66.2 714.75 67.77 716.21 68.39 716.66 69.62 715.81 70.74 716.17 71.77 716.72 72.28 717.9 72.11 718.89 71.27 720.27 72.67 721.35 72.87 722.34 71.21 723.52 70.66 724.49 70.77 726.65 72.15 727.53 70.09 728.3 70.22 728.68 70.94 728.71 72.65 729.29 73.82 730.15 74.26 732.51 73.59 733.8 74.78 735.66 74.68 736.12 75.34 735.97 77.96 736.42 78.82 737.95 79.35 739.42 80.6 740.8 79.95 741.76 80.09 741.65 82 740.94 83.18 739.13 83.3 737.9 85.17 737.64 87.33 738.27 88.28 739.26 88.36 741.52 87.7 741.98 88.25 743.03 88.55 743.73 89.19 744.65 91.05 744.76 92.4 744.54 93.9 744.75 95.62 745.32 98.07 744.89 98.36 743.51 98.13 742.78 98.74 743.09 99.6 744.04 100.45 745.09 102.54 745.32 103.99 744.26 105.18 745.55 107.11 745.95 112.47 746.66 114.18 746.6 115.11 744.53 115.19 744.57 116.46 743.43 116.53 742.63 117.33 743.66 118.46 744.64 119.97 746.39 121.19 747.38 123.66 748.38 124.46 749.02 124.52 750.39 126.66 750.75 128.27 749.66 128.88 749.97 130.15 750.77 130.27 752.64 131.77 752.98 132.81 752.66 134.45 753.26 134.6 754.84 134.32 755.37 134.93 755.6 136.11 755.21 138.24 755.77 139.46 757.78 139.91 758.96 139.96 760.91 138.62 762.4 138.85 763.64 139.73 764.95 139.82 765.49 140.31 766 142.54 767.6 142.98 768.4 144.15 767.66 145.11 767.66 146.34 768.49 146.52 769.77 146.19 771.93 145.29 773.18 145.47 775.68 147.55 776.89 147.45 777.43 146.43 778.76 145.35 779.75 145.48 780.27 146.04 780.61 147.43 781.33 148.83 782.14 149.05 784.21 148.11 785.73 148.62 786.65 148.28 787.13 147.74 788.38 147.1 788.96 147.33 789.33 148.73 788.48 151.1 789.32 152.94 790.28 153.45 791.57 153.55 792.57 154.62 793.09 156.13 795.14 157.79 795.78 159.26 795.02 160.03 794.43 160.58 793.17 161.04 791 162.22 787.18 162.35 786.34 163.57 786.03 165.06 784.84 166.26 783.22 166.42 782.13 166.78 781.74 167.58 782.33 168.78 780.29 170.35 779.69 171.2 778.48 171.93 777.29 173.27 776.34 174.92 775.27 177.75 775.51 178.51 774.91 179.78 774.1 179.99 773.4 181.17 773.28 182.29 772.65 184.1 773.57 184.98 773.73 185.73 772.17 188.8 770.9 192.52 769.92 193.89 768.52 195.37 767.96 197.09 765.47 200.42 764.59 201.13 762.81 201.86 762.36 203.09 760.37 204.68 758.97 204.99 758.13 205.49 756.68 208.64 757.13 209.51 758.06 209.19 759.29 208.13 760.01 208.65 759.73 209.68 757.95 211.11 757.05 211.29 755.6 212.18 754.77 213.25 753.85 213.6 753.41 215.29 752.09 217.57 752.19 218.35 751.09 218.9 750.43 219.65 746.39 222.3 744.52 222.85 743.33 224.04 741.25 225.06 741.06 225.41 739.35 226.55 738.41 227.47 738.2 229.25 737.82 230.03 738.42 231.38 739.92 231.46 739.89 232.5 740.35 234.23 741.2 235.08 742.21 237.35 743.53 239.3 745.78 241.07 746.26 242.28 746.33 244.3 746.63 244.92 747.82 246.05 749.48 248.15 749.9 249.14 749.8 249.84 748.9 250.48 748.19 251.45 748.18 252.72 747.3 252.92 746.49 252.5 744.56 252.68 743.91 253.08 743.7 254.18 744.08 254.86 745.48 256.19 745.64 257.08 744.8 258.63 743.52 260.16 743.49 261.55 742.49 263.14 740.53 263.97 739.2 266.28 738.43 266.39 736.66 266.13 735.07 265.64 733.99 265.78 733.47 266.66 733.26 268.22 732.53 269.12 731.36 269.78 730.74 270.55 730.93 271.65 732.7 273.71 732.24 276.26 731.46 276.93 730.69 278.84 730.05 281.34 731.06 283.13 732.05 283.43 733.29 283.41 733.75 283.74 733.69 284.72 733.04 285.85 731.99 286.56 730.75 288.88 732.15 291.27 732.5 293.4 732.23 294.07 731.25 294.21 730.73 294.84 731.45 296.13 732.1 297.16 732.54 299.83 731.79 301.48 732.82 302.89 733.8 303.55 734.95 303.92 736.99 303.68 738.2 302.5 739.35 301.83 740.06 301.76 742.72 302.18 744.89 303.09 748.38 306.89 749.29 307.47 749.86 310.32 750.02 314.37 750.38 316.04 750.43 318.55 749.79 319.71 749.93 321.2 749.49 322.85 750.1 324.44 751.01 328.97 751.48 329.74 752.91 330.23 755.08 331.87 756.29 332.03 759.96 330.72 760.99 331.02 762.25 331.98 763.63 332.52 764.34 333.16 765.65 336.08 766.65 338.64 767.59 342.77 768.05 343.41 771.19 346.1 772.47 347.04 774.11 347.31 775.41 348.12 778.08 350.73 779.21 352.6 780.31 355.22 781.89 358.57 782.75 359.35 784.45 360.12 785.16 360.68 788.47 362.16 791.8 364.58 792.39 365.9 793.38 367.4 794 369.19 794.72 370.1 796.75 371.15 798.9 374.09 799 375.96 798.71 376.66 796.5 378.73 794.83 378.83 793.58 379.26 790.98 381.42 790.29 381.6 788.55 381.26 786.23 380.43 784.87 381.14 784 383.33 783.73 384.72 782.71 385.84 781.27 386.65 780.48 388.25 780.01 388.72 778.52 389.1 774.3 390.93 773.52 391.14 772.27 390.99 770.26 391.69 765.97 394.53 765.02 395.3 761.48 398.97 759.72 400.55 757.43 401.34 755.19 402.53 754.36 403.51 753 406.83 751.45 408.35 750.06 408.92 748.62 409.16 747.02 409.87 745.48 410.8 743.99 412.06 743.4 413.49 743.29 414.82 743.37 416.66 743.63 417.87 744.46 419.89 744.54 420.9 744.16 422.78 743.44 424.36 742.58 425.27 741.64 425.57 737.58 425.92 736.39 426.21 734.9 427.62 732.01 429.78 730.88 430.41 727.18 431.64 725.07 432.21 722.15 432.35 719.9 432.16 717.04 432.45 715.54 433.01 713.79 434.17 711.53 436.37 707.86 439.6 705.61 441.19 Z" fill="none" stroke="currentColor" stroke-width="1"/>
</g>
</svg>