<?xml version="1.0"?>
<svg xmlns="http://www.w3.org/2000/svg" version="1.2" baseProfile="tiny" width="800" height="351" viewBox="0 0 800 351" stroke-linecap="round" stroke-linejoin="round">
<g id="state">
<path d="M 699.72 338.83 699.03 338.44 698.61 338.17 697.22 337.47 694.92 336.47 693.1 335.81 690.68 335.08 687.06 334.29 682.67 333.77 678.35 333.71 675.1 333.96 671.94 334.44 669.77 334.92 667.62 335.53 664.37 336.74 662.12 337.82 658.81 339.85 656.27 341.89 654.63 343.52 653.49 344.86 651.68 347.56 650.55 349.74 648.58 349.74 641.31 349.77 615.85 349.81 601.1 349.89 599.97 349.83 590.88 349.86 567 349.86 554.06 349.89 539.72 349.86 538.14 349.98 537.32 349.86 524.15 349.89 510.82 349.96 497.76 349.99 491.45 349.95 484.01 350.07 482.85 350.03 479.03 350.05 457.34 350.07 453.05 350.06 429.16 350.07 417.7 350.04 414.03 350.06 405.08 349.99 391.11 349.95 383.16 349.87 379.35 349.87 362.85 349.74 347.95 349.71 332.27 349.76 308.99 349.7 302.84 349.65 298.73 349.7 289.94 349.66 285.8 349.7 284.01 349.65 277.36 349.66 272.28 349.7 260.36 349.64 246.86 349.63 235.22 349.64 230.15 349.63 210.26 349.69 202.75 349.65 197.02 349.7 178.17 349.77 165.51 349.78 151.33 349.83 143.74 349.9 133.98 349.93 129.07 349.87 118.74 349.93 111.68 349.91 106.29 349.94 80.22 349.95 71.23 349.88 61.13 349.85 54.73 349.9 41.37 349.88 37.95 349.91 21.14 349.85 15.7 349.88 4.28 349.88 1.01 349.85 1.02 339.42 1.07 326.64 1.01 320.64 1.06 311.28 1.03 298.63 1.07 295.63 1.04 288.19 1.05 276.54 1.06 263.84 1.2 261.52 1.2 252.54 1.24 248.44 1.06 246.37 1.08 235.15 1.04 230.64 1.06 224.27 1.05 209.4 1.05 195.18 1.02 186.51 1.06 185.56 1.07 166.2 1.05 156.57 1.04 146.29 1.05 133 1.02 122.96 1.06 119.48 1.01 109.96 1.03 101.99 1 91.73 1 71.8 1.02 52.7 1.01 41.36 1.27 41.04 4.46 39.74 5.16 39.67 9.46 38.36 12.29 37.18 17.02 36.15 22.35 34.15 23.99 33.92 26.85 33.07 31.86 31.1 32.23 30.8 35.48 29.67 38.24 28.29 39.19 27.5 40.18 27.35 42.64 26.6 43.87 25.91 44.99 25.66 46.36 25.04 49.4 23.45 51.01 22.23 51.84 20.87 52.5 19.22 53.54 17.5 54.4 16.57 56.01 15.38 57.83 14.66 60.23 14.33 62.13 15.02 61.15 15.54 62.08 16.62 61.36 17.01 61.93 17.86 63.74 18.11 69.19 15.68 70.41 15.18 74.04 13.47 74.12 13.16 75.73 12.57 81.5 9.64 82.52 9.53 83.3 9.08 85.65 8.28 89.46 6.19 89.86 6.43 93.37 5.71 95.16 4.73 96.88 4.46 97.73 3.81 102.53 1.62 103.06 1.81 104.7 1 104.71 12.81 104.7 20.12 104.69 38.1 120.4 38.09 125.37 38.12 138.66 38.16 152.63 38.16 162.13 38.09 165.98 38.12 173.88 38.1 187.3 37.99 201.81 38.03 214.27 38.12 220.09 38.2 228.4 38.26 240.08 38.2 250.43 38.12 260.61 37.95 271.17 37.96 287.18 37.97 307.41 38.07 319.02 38 321.63 37.94 329.24 37.89 340.34 38.02 354.04 38.15 360.34 38.19 370.85 38.17 385.13 38.1 393.96 38.01 405.71 38 412.68 37.93 420.26 37.92 441.29 37.98 460.66 38 469.61 37.96 492.75 37.73 505.48 37.67 517.18 37.71 539.2 37.91 545.54 37.95 558.73 38.11 567.81 38.15 576.84 38.17 586.18 38.16 605.16 38.09 625.98 38.08 642.48 38.19 651.86 38.24 661.68 38.16 674.03 38.09 690.4 38.05 707.3 38 709.87 38.96 710.33 40.1 709.73 41.32 709.77 41.75 711.48 42.24 712.79 43.4 713.07 44.3 713.97 44.91 715.35 44.98 715.81 44.15 716.64 44.47 716.62 45.27 717.04 45.82 718.34 46.31 718.62 47.13 718.65 48.55 719.88 50.55 719.94 51.22 719.16 52.14 719.39 53.34 720.86 53.85 721.29 54.8 720.38 55.63 720.72 56.43 721.27 56.84 722.48 56.73 723.52 56.11 724.89 57.21 725.98 57.39 727.05 56.15 728.27 55.75 729.27 55.85 731.43 56.96 732.4 55.41 733.18 55.52 733.54 56.08 733.53 57.39 734.09 58.3 734.95 58.65 737.38 58.19 738.67 59.14 740.57 59.1 741.02 59.62 740.79 61.62 741.22 62.29 742.77 62.73 744.23 63.72 745.67 63.25 746.64 63.39 746.47 64.84 745.71 65.73 743.85 65.78 742.54 67.18 742.2 68.83 742.82 69.56 743.83 69.65 746.16 69.2 746.61 69.63 747.67 69.88 748.37 70.39 749.25 71.83 749.32 72.87 749.04 74.01 749.2 75.33 749.71 77.22 749.26 77.43 747.85 77.22 747.1 77.67 747.39 78.34 748.33 79.01 749.33 80.64 749.52 81.74 748.4 82.63 749.66 84.14 749.89 88.25 750.56 89.57 750.47 90.28 748.36 90.29 748.36 91.27 747.19 91.3 746.35 91.89 747.37 92.78 748.32 93.95 750.06 94.93 750.99 96.85 751.99 97.48 752.64 97.54 753.96 99.21 754.28 100.45 753.15 100.89 753.42 101.87 754.23 101.98 756.09 103.17 756.4 103.98 756.03 105.22 756.62 105.36 758.24 105.18 758.76 105.65 758.96 106.57 758.5 108.18 759.02 109.13 761.05 109.53 762.25 109.59 764.28 108.62 765.79 108.83 767.02 109.53 768.35 109.63 768.88 110.02 769.32 111.74 770.94 112.12 771.71 113.03 770.92 113.75 770.89 114.69 771.72 114.85 773.04 114.63 775.27 114 776.53 114.17 779 115.82 780.23 115.78 780.82 115.01 782.2 114.22 783.2 114.35 783.72 114.78 784.01 115.86 784.7 116.95 785.51 117.13 787.64 116.47 789.17 116.9 790.12 116.67 790.63 116.26 791.92 115.81 792.5 116 792.83 117.08 791.88 118.87 792.67 120.3 793.62 120.71 794.93 120.82 795.91 121.67 796.39 122.84 798.4 124.17 799 125.31 798.2 125.88 797.58 126.28 796.29 126.6 794.05 127.44 790.17 127.44 789.27 128.35 788.91 129.48 787.65 130.37 786 130.45 784.89 130.7 784.46 131.3 785.01 132.23 782.89 133.38 782.26 134.02 781.01 134.54 779.75 135.53 778.74 136.77 777.55 138.91 777.77 139.49 777.12 140.45 776.29 140.59 775.54 141.48 775.38 142.33 774.68 143.7 775.58 144.4 775.72 144.97 774.04 147.28 772.63 150.1 771.59 151.12 770.12 152.22 769.5 153.52 766.87 156 765.96 156.52 764.13 157.04 763.63 157.97 761.56 159.13 760.15 159.34 759.27 159.7 757.71 162.08 758.14 162.75 759.09 162.53 760.36 161.75 761.07 162.16 760.76 162.95 758.91 163.99 757.99 164.11 756.5 164.76 755.63 165.55 754.69 165.8 754.19 167.08 752.78 168.79 752.86 169.39 751.73 169.79 751.04 170.35 746.88 172.28 744.97 172.65 743.73 173.54 741.6 174.27 741.39 174.53 739.64 175.36 738.66 176.05 738.39 177.4 737.98 177.99 738.55 179.03 740.06 179.13 740 179.92 740.41 181.26 741.24 181.93 742.18 183.69 743.46 185.21 745.68 186.62 746.12 187.55 746.13 189.11 746.41 189.59 747.57 190.48 749.19 192.12 749.57 192.89 749.45 193.43 748.53 193.9 747.78 194.62 747.73 195.59 746.84 195.72 746.03 195.38 744.08 195.47 743.42 195.76 743.18 196.6 743.54 197.13 744.9 198.18 745.04 198.86 744.14 200.03 742.81 201.17 742.73 202.23 741.68 203.43 739.68 204.02 738.27 205.75 737.49 205.82 735.72 205.58 734.13 205.16 733.04 205.25 732.49 205.91 732.24 207.1 731.48 207.77 730.28 208.25 729.63 208.83 729.79 209.67 731.51 211.29 730.97 213.23 730.17 213.72 729.33 215.17 728.62 217.06 729.58 218.45 730.57 218.71 731.82 218.72 732.26 218.99 732.18 219.73 731.48 220.58 730.41 221.1 729.09 222.85 730.44 224.71 730.72 226.35 730.43 226.85 729.44 226.94 728.9 227.41 729.58 228.41 730.21 229.22 730.57 231.27 729.77 232.51 730.76 233.61 731.72 234.14 732.87 234.45 734.92 234.32 736.17 233.44 737.34 232.95 738.05 232.91 740.72 233.3 742.87 234.05 746.25 237.03 747.14 237.5 747.62 239.69 747.66 242.79 747.97 244.08 747.94 246.01 747.26 246.88 747.36 248.02 746.87 249.27 747.43 250.5 748.19 253.98 748.64 254.59 750.06 255 752.18 256.3 753.38 256.45 757.1 255.54 758.12 255.8 759.34 256.56 760.72 257.01 761.4 257.51 762.62 259.78 763.53 261.77 764.35 264.94 764.78 265.45 767.84 267.58 769.08 268.33 770.71 268.58 771.98 269.24 774.56 271.3 775.63 272.76 776.64 274.79 778.1 277.4 778.94 278.01 780.61 278.65 781.3 279.09 784.55 280.31 787.79 282.25 788.33 283.28 789.27 284.44 789.83 285.83 790.51 286.55 792.5 287.4 794.54 289.71 794.58 291.14 794.26 291.67 791.99 293.19 790.32 293.23 789.07 293.53 786.39 295.1 785.71 295.23 783.99 294.92 781.7 294.23 780.32 294.73 779.38 296.39 779.07 297.44 778.01 298.27 776.55 298.86 775.71 300.06 775.23 300.4 773.73 300.66 769.47 301.95 768.69 302.1 767.44 301.95 765.42 302.43 761.06 304.5 760.09 305.06 756.45 307.79 754.65 308.95 752.35 309.5 750.09 310.35 749.22 311.09 747.77 313.59 746.18 314.72 744.78 315.12 743.34 315.28 741.74 315.78 740.18 316.45 738.66 317.38 738.02 318.47 737.88 319.48 737.89 320.89 738.12 321.82 738.89 323.38 738.94 324.16 738.5 325.59 737.74 326.78 736.85 327.46 735.91 327.66 731.88 327.84 730.68 328.03 729.16 329.07 726.23 330.67 725.09 331.12 721.38 331.98 719.27 332.37 716.37 332.41 714.14 332.22 711.3 332.38 709.79 332.78 708.02 333.63 705.72 335.26 701.99 337.66 699.72 338.83 Z" fill="none" stroke="currentColor" stroke-width="1"/>
</g>
</svg>