<svg viewBox="-71.9500179 -42.106043899999996 0.9167027747392495 1.0469507999999976" xmlns="http://www.w3.org/2000/svg">
  <path d="M -71.22247131137792,41.70767940235097 L -71.226826,41.713114 L -71.261067,41.752082 L -71.328472,41.780694 L -71.329432,41.788274 L -71.334112,41.794388 L -71.340495,41.797074 L -71.339325,41.808461 L -71.347496,41.823158 L -71.345198,41.827676 L -71.335417,41.835645 L -71.34255,41.844656 L -71.33404,41.862604 L -71.34089,41.881804 L -71.338787,41.898593 L -71.381463,41.893546 L -71.381401,42.018798 L -71.396578,42.018748 L -71.49903578022362,42.01721443151642 L -71.527702,42.015095 L -71.5911,42.013646 L -71.606731,42.01328 L -71.77127595514742,42.00948438982276 L -71.799188,42.008053 L -71.797894,41.932364 L -71.795863,41.877688 L -71.791066,41.77018 L -71.790554,41.750117 L -71.787239,41.656111 L -71.788213,41.621017 L -71.790972,41.561451 L -71.79316,41.505704 L -71.796388,41.449255 L -71.797747,41.416834 L -71.801726,41.415658 L -71.8129,41.419404 L -71.82033,41.419382 L -71.825384,41.414687 L -71.834107,41.411582 L -71.842029,41.410706 L -71.843591,41.405331 L -71.841068,41.399658 L -71.842211,41.395771 L -71.832591,41.386385 L -71.833527,41.382264 L -71.832069,41.369863 L -71.837633,41.365499 L -71.836044,41.353988 L -71.831303,41.351295 L -71.829365,41.342432 L -71.83728,41.335068 L -71.847709,41.329604 L -71.851923,41.324664 L -71.86051250785266,41.320249122596934 L -71.862772,41.309791 L -71.857432,41.306318 L -71.845285,41.31187 L -71.833755,41.315631 L -71.815337,41.320238 L -71.773702,41.327977 L -71.761029,41.328493 L -71.751656,41.325402 L -71.746758,41.328095 L -71.730717,41.33164 L -71.716036,41.331089 L -71.70517,41.334285 L -71.696688,41.340978 L -71.68807,41.342823 L -71.616506,41.362989 L -71.594756,41.365162 L -71.586094,41.36809 L -71.551566,41.374423 L -71.537237,41.373329 L -71.531546,41.376493 L -71.520163,41.376523 L -71.502926,41.3742 L -71.497275,41.371307 L -71.488956,41.364351 L -71.480875,41.360248 L -71.484203,41.371842 L -71.468984,41.393621 L -71.463743,41.395753 L -71.462325,41.401276 L -71.456211,41.405123 L -71.452974,41.409676 L -71.452643,41.41778 L -71.45482,41.421821 L -71.455845,41.432986 L -71.448948,41.438479 L -71.438129,41.441654 L -71.431137,41.447301 L -71.430259,41.453036 L -71.426684,41.458825 L -71.430012,41.461141 L -71.430744,41.470636 L -71.427635,41.47254 L -71.418404,41.472652 L -71.417957,41.482073 L -71.420267,41.48358 L -71.421425,41.498629 L -71.414937,41.516303 L -71.415513,41.529858 L -71.417652,41.536263 L -71.423119,41.538754 L -71.431045,41.550103 L -71.427873,41.555475 L -71.434371,41.561633 L -71.442157,41.563816 L -71.444091,41.568043 L -71.438093,41.570591 L -71.446412,41.574503 L -71.446412,41.583215 L -71.438806,41.581437 L -71.419584,41.585781 L -71.410997,41.586593 L -71.40377,41.589321 L -71.403613,41.602959 L -71.414325,41.60259 L -71.416939,41.604901 L -71.411948,41.611121 L -71.404342,41.611832 L -71.402441,41.615563 L -71.408621,41.62196 L -71.403154,41.627468 L -71.407525,41.633326 L -71.408893,41.651466 L -71.408621,41.663168 L -71.417652,41.665298 L -71.424285,41.670275 L -71.434748,41.666263 L -71.446247,41.66631 L -71.444574,41.674298 L -71.447699,41.67787 L -71.450198,41.686459 L -71.445923,41.691144 L -71.441336,41.686446 L -71.433815,41.686957 L -71.418069,41.684208 L -71.398163,41.683407 L -71.390551,41.684096 L -71.38988,41.671903 L -71.37791,41.666646 L -71.372988,41.672575 L -71.371542,41.685359 L -71.364887,41.688377 L -71.364412,41.704704 L -71.365717,41.711615 L -71.357282,41.716592 L -71.369879,41.718277 L -71.376534,41.721648 L -71.38105,41.727324 L -71.380812,41.738853 L -71.376058,41.744174 L -71.380574,41.745947 L -71.38105,41.7557 L -71.385566,41.76031 L -71.385495,41.768664 L -71.391745,41.78105 L -71.390557,41.783708 L -71.3823880900344,41.78511354599733 L -71.371542,41.783354 L -71.365125,41.777505 L -71.366076,41.771124 L -71.360847,41.755168 L -71.362348,41.75089 L -71.359896,41.745061 L -71.35229,41.745061 L -71.344447,41.736193 L -71.341119,41.734774 L -71.339456,41.724841 L -71.324188,41.725382 L -71.307131,41.721648 L -71.307983,41.712756 L -71.303804,41.706567 L -71.29905,41.708696 L -71.291217,41.702666 L -71.293119,41.688347 L -71.298935,41.681524 L -71.302627,41.681747 L -71.306095,41.672575 L -71.304992,41.65935 L -71.301396,41.649978 L -71.297624,41.653845 L -71.297862,41.658284 L -71.290546,41.662395 L -71.287637,41.672463 L -71.289068,41.67959 L -71.285502,41.68243 L -71.278847,41.678347 L -71.280366,41.672575 L -71.277659,41.666275 L -71.267676,41.657397 L -71.270075,41.652439 L -71.267055,41.644945 L -71.25956,41.642595 L -71.254604,41.652247 L -71.253416,41.660593 L -71.244384,41.669116 L -71.238442,41.665565 L -71.234639,41.67746 L -71.242482,41.687933 L -71.24581,41.697162 L -71.240991,41.697744 L -71.22247131137792,41.70767940235097 Z M -71.195594,41.675201 L -71.208019,41.653135 L -71.211822,41.639103 L -71.216575,41.639103 L -71.21919,41.653667 L -71.225369,41.647096 L -71.232262,41.643366 L -71.23654,41.638393 L -71.246285,41.639814 L -71.251082,41.63878 L -71.258879,41.63323 L -71.261021,41.627379 L -71.271862,41.623986 L -71.275234,41.619444 L -71.272412,41.615041 L -71.273445,41.60699 L -71.28065,41.592854 L -71.285265,41.59237 L -71.289073,41.582706 L -71.284076,41.579393 L -71.288376,41.573274 L -71.294363,41.571416 L -71.303652,41.559925 L -71.310533,41.54692 L -71.308082,41.539377 L -71.312696,41.536514 L -71.314151,41.531446 L -71.311251,41.522621 L -71.314579,41.519809 L -71.328031,41.518848 L -71.330694,41.507699 L -71.323125,41.503088 L -71.322818,41.491147 L -71.318065,41.487764 L -71.316519,41.47756 L -71.323531,41.475834 L -71.335992,41.469647 L -71.33438,41.478204 L -71.336442,41.481985 L -71.3479,41.47059 L -71.361185,41.46462 L -71.356163,41.450538 L -71.353609,41.449751 L -71.344177,41.454028 L -71.334764,41.449516 L -71.323751,41.460129 L -71.31848,41.455724 L -71.304394,41.454502 L -71.303981,41.463716 L -71.296851,41.469131 L -71.297392,41.48479 L -71.29133,41.487862 L -71.282314,41.488286 L -71.27664,41.480038 L -71.26886,41.484698 L -71.26764,41.488214 L -71.258192,41.487921 L -71.252079,41.485924 L -71.240428,41.476147 L -71.237437,41.485711 L -71.24426,41.485737 L -71.247992,41.49029 L -71.24074,41.501704 L -71.240737,41.505551 L -71.233456,41.514053 L -71.229444,41.521544 L -71.227989,41.528297 L -71.236642,41.535852 L -71.236523,41.544891 L -71.233688,41.552362 L -71.238204,41.558765 L -71.236259,41.564993 L -71.23613,41.574767 L -71.2436,41.587508 L -71.241056,41.606945 L -71.240709,41.619225 L -71.236487,41.621368 L -71.224126,41.622887 L -71.215308,41.625491 L -71.211837,41.623529 L -71.212656,41.610072 L -71.205404,41.594325 L -71.214674,41.585971 L -71.208352,41.581172 L -71.20865,41.571028 L -71.211415,41.558219 L -71.213778,41.556795 L -71.215995,41.547178 L -71.20683,41.543468 L -71.204929,41.5408 L -71.208257,41.52888 L -71.204773,41.519104 L -71.200788,41.514371 L -71.206382,41.499215 L -71.202262,41.498384 L -71.19939,41.491769 L -71.190167,41.484285 L -71.192354,41.466564 L -71.196607,41.464756 L -71.193979,41.456396 L -71.186279,41.460285 L -71.168648,41.461452 L -71.170233,41.468381 L -71.163097,41.471738 L -71.159274,41.475985 L -71.150859,41.475819 L -71.139087,41.483445 L -71.141093,41.489937 L -71.136867,41.493942 L -71.12056102526076,41.49744624028395 L -71.122437,41.522075 L -71.13162,41.593716 L -71.138346,41.603676 L -71.141926,41.612738 L -71.140185,41.623869 L -71.135302,41.628565 L -71.132597,41.660023 L -71.17612,41.668248 L -71.17581025936708,41.67123939391016 L -71.195594,41.675201 Z M -71.288017,41.645575 L -71.285908,41.638009 L -71.277045,41.638031 L -71.278171,41.647309 L -71.288017,41.645575 Z M -71.353819,41.647466 L -71.350726,41.633911 L -71.337369,41.631284 L -71.325558,41.624137 L -71.326609,41.616114 L -71.333751,41.605859 L -71.337048,41.594688 L -71.335949,41.585898 L -71.3312,41.580318 L -71.326103,41.578583 L -71.3167,41.583134 L -71.30264,41.605531 L -71.304046,41.618777 L -71.308123,41.626239 L -71.317122,41.631389 L -71.326824,41.631704 L -71.339056,41.637064 L -71.34468,41.642528 L -71.337088,41.64673 L -71.339337,41.65503 L -71.33765,41.657972 L -71.34693,41.663329 L -71.35157,41.658602 L -71.343836,41.654861 L -71.353819,41.647466 Z M -71.367036,41.660703 L -71.362537,41.651143 L -71.35635,41.652089 L -71.353398,41.657866 L -71.360709,41.661123 L -71.367036,41.660703 Z M -71.40056,41.46094 L -71.40078,41.454975 L -71.396037,41.452016 L -71.390275,41.455043 L -71.389028,41.465549 L -71.381594,41.468055 L -71.38624,41.487687 L -71.380665,41.488801 L -71.376763,41.474878 L -71.371745,41.477524 L -71.358736,41.477106 L -71.35409,41.480448 L -71.35948,41.483093 L -71.366541,41.494787 L -71.365984,41.498823 L -71.358922,41.503277 L -71.357621,41.508705 L -71.365233,41.512026 L -71.361338,41.526377 L -71.364683,41.541401 L -71.360405,41.547792 L -71.359868,41.556308 L -71.36356,41.57086 L -71.370194,41.573963 L -71.379021,41.567772 L -71.381409,41.558786 L -71.384478,41.556736 L -71.386613,41.545832 L -71.385683,41.539036 L -71.388842,41.534446 L -71.392137,41.524468 L -71.391005,41.514578 L -71.378914,41.504948 L -71.383453,41.50105 L -71.38401,41.493812 L -71.392373,41.491863 L -71.399435,41.492977 L -71.396648,41.478916 L -71.397577,41.473764 L -71.394417,41.46722 L -71.40056,41.46094 Z M -71.405096,41.498214 L -71.396276,41.503695 L -71.401407,41.506267 L -71.405096,41.498214 Z M -71.613133,41.160281 L -71.611567,41.153905 L -71.599993,41.146932 L -71.5937,41.146339 L -71.580505,41.149092 L -71.578573,41.14762 L -71.56589,41.149009 L -71.547051,41.153684 L -71.543872,41.161321 L -71.544446,41.164912 L -71.550226,41.166787 L -71.554627,41.173423 L -71.55791,41.173018 L -71.564667,41.179674 L -71.566405,41.188207 L -71.561372,41.200601 L -71.555564,41.208315 L -71.554067,41.212957 L -71.562546,41.224217 L -71.576319,41.22491 L -71.576924,41.211024 L -71.580634,41.203374 L -71.58955,41.196557 L -71.597457,41.185186 L -71.605565,41.182139 L -71.613133,41.160281 Z" fill="none" stroke=currentColor stroke-width="1" vector-effect="non-scaling-stroke"/>
</svg>