<?xml version="1.0"?>
<svg xmlns="http://www.w3.org/2000/svg" version="1.2" baseProfile="tiny" viewBox="-47.0 -47.0 894.0 1034.0" stroke-linecap="round" stroke-linejoin="round">
<g id="state">
<path d="M 689.43 335.5 669.52 346.19 664.34 346.81 667.91 356.73 676.35 368 672.26 380.78 665.87 376.97 656.16 386.13 654.88 395.1 649.55 405.48 641.49 402.95 638.25 394.9 640.83 389.57 630.09 380.02 627.18 373.25 628.82 367.04 621.66 362.65 617.83 365.7 619.37 373.37 616.24 384.19 608.37 388.61 608.63 393.39 604.57 397.54 600.71 387.47 599.52 373.25 603.25 363.39 607.22 363.63 613.47 356.29 615.52 340.89 607.09 334.41 601.98 336.7 597.49 330.05 598.41 320.49 580.07 316.47 563.65 317.05 561.86 306.37 558.29 304.85 549.85 295.31 541.68 295.31 539.04 289.05 540.65 284.45 535.03 267.29 536.05 260.43 529.15 254.14 517.49 252.25 508.71 253.76 507.43 256.62 514.15 269.94 514.08 278.92 518.93 283.87 519.44 294.36 524.3 296.27 519.19 301.99 518.93 314.38 523.79 320.49 530.94 324.11 544.49 325.92 535.42 331.27 536.82 338.7 536.31 356.26 529.15 359.5 527.6 373.25 522.31 379.62 509.44 373.97 508.72 360.86 500.53 361.6 479.13 360.74 462.2 357.78 454.11 358.33 449.18 353.28 444.59 358.32 447.27 367.55 450.63 371.39 448.83 379.98 461.2 380.03 472.45 375.72 479.58 381.07 489.29 383.36 489 395.94 490.47 415.45 495.17 421.74 489.29 427.67 495.93 434.54 493.89 438.56 485.71 439.32 480.34 446.01 483.15 448.49 494.67 448.1 494.5 462.76 486.73 465.69 477.5 466.57 456.83 471.24 448.66 469.32 448.66 478.69 457.6 482.9 451.15 485.64 453.23 490.18 461.6 492.53 468.59 499.15 465.18 504.92 473.7 517.13 479.58 519.81 481.88 526.69 482.5 541.27 475.52 560.27 476.77 576.45 479.25 578.07 478.77 588.2 468.84 588.32 465.5 590.37 466.29 600.57 469.87 603.06 466.02 609.29 465.08 615.45 457.56 621.53 445.93 624.94 438.51 630.85 439.62 642.85 441.96 647.19 441.6 655.91 438.12 660.8 431.55 664.94 430.02 670.88 424.39 673.17 408.02 696.59 411.6 709.05 402.91 704.64 393.97 697.16 387.89 694.05 369.36 691.55 357.12 691.58 351 694.99 335.6 693.81 298.47 700.62 289.16 703.77 265.78 706.1 188.83 727.79 179.57 729.77 170.45 736.97 158.77 740.4 142.98 739.81 125.73 743.62 120.47 746.52 110.39 743.19 96.77 743.75 52 752.07 32.2 757.02 19.8 761.06 6.74 767.03 1 763.3 3.43 752.06 12.66 747.31 17.2 742 28.41 736.12 36.92 728.21 34.83 718.68 29.74 715.78 28.03 703.4 34.01 698.71 32.44 685.38 33.45 680.95 23.11 670.86 24.34 666.68 21.62 660.58 23.3 654.8 31.82 653.86 41.2 650.52 46.63 645.47 54.62 645.45 66.63 649.48 70.91 648.21 72.37 613.35 75.84 552.66 78.2 492.72 81.16 428.68 82.21 390.95 78.65 289.88 78.1 268.31 72.94 152.72 70.75 93.93 69.36 12.55 99.37 11.01 276.29 6.93 293.09 6.54 361.26 4.98 392.08 2.7 502.24 1.05 518.55 1 518.49 135.67 564.37 130.24 562.11 148.29 569.47 168.93 560.33 188.23 567.99 197.92 557.48 206.49 555.01 211.35 563.79 227.15 562.53 239.39 569.4 242.28 574.43 248.85 575.46 257 647.93 287.76 684.75 329.66 689.43 335.5 Z M 718.33 370.42 739.6 374.68 739.26 377.9 786.06 386.74 783.15 420.57 777.9 425.61 776.03 437.58 779.88 447.33 787.11 458.03 796.98 535.06 799 561.54 781.47 565.31 776.92 569.61 779.08 576.59 766.42 584.79 757.38 584.61 753.27 589.18 745.59 592.79 747.3 600.24 728.34 601.49 720.06 605.68 717.24 596.69 721.81 594.74 724.16 575.69 714.25 567.64 711.16 560.53 706.73 559.64 712.74 543.34 708.46 538.25 704.71 527.74 708.29 514.93 706.25 512.06 696.39 508.07 698.78 497.73 701.32 496.2 704.29 482.43 704.61 471.52 697.81 466.36 707.78 457.38 699.98 440.45 700.86 425.98 697.13 423.87 687.65 426.67 674.36 428.3 669.82 430.61 669.45 443.81 666.71 464.71 674.74 478.41 674.61 488.92 672.51 495.61 677.37 502.5 674.32 510.53 674.19 520.25 683.5 528.37 681.93 535.63 677.62 543.68 669.79 552.83 669.79 556.96 661.99 569.23 666 574.13 673.34 574.16 670.12 584.44 657.6 573.93 651.02 571.78 640.87 571.47 639.55 575.25 631.19 580.26 625.09 571.39 615.4 571.84 608.88 575.15 609.46 591.98 601.79 597.81 601.35 607.71 586.2 606.4 580.54 601.66 568.7 613.07 558.58 608.22 548.43 612.82 545.69 611.97 540.29 596.83 554.57 590.41 566.89 578.16 569.11 582.23 567.38 591.43 580.77 584.78 588.31 582.92 586.65 571.95 581.54 568.31 581.21 555.47 573.07 550.52 575.94 538.53 590.4 537.5 593.98 534.47 590.86 524.98 592.42 519.54 597.38 516.46 594.75 508.35 602.15 494.36 612.13 482.01 618.57 480.01 623.19 473.43 617.82 469.87 621.92 459.48 626.88 458.96 634.62 443.76 635.73 435.11 632.7 430.37 636.33 425.49 647.98 421.84 650.29 415.55 658.67 409.58 663.83 408.47 674.3 410 678.9 404.65 686.31 400.64 692.96 393.58 695.77 409.24 700.88 409.24 704.97 394.15 718.33 370.42 Z M 618.96 402.28 629.54 400.41 630.75 410.39 621.22 410.41 618.96 402.28 Z M 548.21 400.24 558.94 392.29 550.63 388.27 555.62 383.19 565.59 388.95 563.78 392.11 566.2 401.03 558.03 405.55 564.08 411.43 577.23 417.19 587.66 417.53 597.34 423.07 601.72 431.09 603.23 445.33 588.12 469.41 578.01 474.3 572.53 472.44 567.42 466.44 566.24 456.99 569.79 444.98 577.46 433.95 578.59 425.33 565.9 417.64 551.53 414.82 548.21 400.24 Z M 534 386.01 540.8 385.56 548.66 389.06 545.49 395.27 538.84 396.29 534 386.01 Z M 497.95 600.79 504.56 594.04 501.16 587 502.16 581.46 499.16 566.34 506.76 567.54 515.75 565.45 516.35 557.67 521.23 553.47 508.23 543.12 507.01 532.49 510.55 521.76 513.95 516.82 512.95 509.52 515.25 497.79 518.55 495.59 521.11 485.93 530.6 479.27 537.74 482.61 541.71 498.25 541.13 507.41 536.53 514.28 540.12 530.43 535.94 545.86 544.12 549.43 542.72 555.27 535.13 560.06 534.53 564.4 542.12 576.97 547.92 579.82 542.92 583.41 528.94 582.96 523.54 585.8 519.35 570.83 513.35 572.03 518.35 593.14 510.35 595.83 509.01 607.13 502.82 610.38 497.72 607.2 497.95 600.79 Z M 493.08 560.71 497.04 552.06 502.56 554.82 493.08 560.71 Z M 269.4 924.05 277.54 900.55 286.26 897.27 294.76 885.05 304.35 877.72 308.33 869.49 308.98 854.56 323.79 855.31 332.91 867.41 331.3 872.4 325.06 880.7 319.64 894.02 321.51 903.2 328.78 910.35 332.31 909.92 337.04 917.05 343.25 919.07 343.87 922.93 340.45 931.14 320.2 936.17 306.56 937.66 304.48 936.08 290.3 939.04 283.53 938.4 271.09 930.9 269.4 924.05 Z" fill-rule="evenodd" fill="none" stroke="currentColor" stroke-width="1"/>
</g>
</svg>