<?xml version="1.0"?>
<svg width="20" height="20" xmlns="http://www.w3.org/2000/svg" version="1.2" baseProfile="tiny" viewBox="-323.840 -99.840 1447.680 1447.680" stroke-linecap="round" stroke-linejoin="round">
<g id="state">
<path d="M 688.62 444.94 668.84 459.19 663.69 460.04 667.29 473.21 675.73 488.14 671.71 505.14 665.33 500.08 655.69 512.28 654.46 524.21 649.19 538.01 641.15 534.67 637.88 523.98 640.43 516.89 629.71 504.24 626.79 495.25 628.39 487 621.25 481.19 617.45 485.26 619 495.43 615.92 509.82 608.1 515.71 608.37 522.05 604.34 527.58 600.46 514.2 599.24 495.32 602.92 482.21 606.88 482.52 613.08 472.76 615.07 452.31 606.66 443.71 601.58 446.77 597.09 437.94 597.97 425.24 579.71 419.94 563.38 420.75 561.57 406.57 558.01 404.55 549.6 391.9 541.46 391.91 538.83 383.59 540.42 377.48 534.79 354.7 535.8 345.58 528.92 337.24 517.33 334.74 508.6 336.76 507.33 340.56 514.04 358.24 513.98 370.17 518.82 376.75 519.34 390.68 524.18 393.2 519.1 400.81 518.87 417.27 523.72 425.37 530.84 430.18 544.33 432.56 535.31 439.68 536.72 449.55 536.25 472.87 529.13 477.19 527.61 495.45 522.35 503.93 509.53 496.44 508.79 479.02 500.64 480.02 479.33 478.9 462.47 474.98 454.42 475.72 449.5 469.01 444.93 475.71 447.61 487.97 450.96 493.07 449.18 504.48 461.49 504.54 472.69 498.8 479.8 505.9 489.47 508.93 489.2 525.65 490.69 551.55 495.38 559.91 489.54 567.78 496.17 576.91 494.14 582.24 485.99 583.27 480.64 592.15 483.45 595.45 494.93 594.91 494.79 614.39 487.04 618.29 477.84 619.46 457.23 625.68 449.07 623.15 449.08 635.59 458.01 641.17 451.58 644.81 453.65 650.85 462.01 653.96 468.98 662.75 465.59 670.42 474.1 686.62 479.97 690.18 482.28 699.32 482.92 718.68 475.97 743.92 477.24 765.41 479.72 767.56 479.25 781.02 469.34 781.19 466 783.91 466.8 797.47 470.38 800.77 466.54 809.04 465.61 817.23 458.1 825.3 446.48 829.85 439.07 837.69 440.18 853.64 442.52 859.41 442.17 870.98 438.69 877.48 432.12 882.98 430.6 890.87 424.97 893.92 408.61 925.02 412.19 941.58 403.5 935.72 394.55 925.79 388.47 921.66 369.93 918.34 357.68 918.37 351.56 922.89 336.15 921.32 299 930.33 289.67 934.51 266.27 937.58 189.21 966.24 179.93 968.86 170.78 978.39 159.07 982.93 143.27 982.1 125.99 987.12 120.71 990.95 110.63 986.5 96.99 987.2 52.13 998.1 32.28 1004.6 19.84 1009.93 6.73 1017.8 1 1012.82 3.49 997.89 12.77 991.63 17.33 984.59 28.59 976.83 37.15 966.35 35.11 953.68 30.02 949.82 28.38 933.37 34.39 927.16 32.89 909.45 33.92 903.57 23.62 890.12 24.87 884.58 22.19 876.47 23.9 868.8 32.43 867.58 41.82 863.18 47.28 856.5 55.26 856.49 67.26 861.89 71.54 860.22 73.16 813.93 76.9 733.33 79.52 653.72 82.76 568.67 83.97 518.55 80.87 384.29 80.42 355.63 75.82 202.08 73.93 123.98 72.93 15.88 102.66 13.93 277.94 8.9 294.58 8.39 362.11 6.37 392.64 3.35 501.76 1.09 517.92 1 518.1 179.88 563.63 172.6 561.43 196.58 568.79 223.99 559.75 249.64 567.4 262.5 556.97 273.9 554.53 280.35 563.3 301.33 562.08 317.59 568.9 321.41 573.92 330.14 574.97 340.96 647.14 381.65 683.93 437.19 688.62 444.94 Z M 717.55 491.23 738.75 496.81 738.43 501.08 785.09 512.64 782.38 557.58 777.18 564.3 775.38 580.21 779.27 593.13 786.54 607.33 796.83 709.6 799 744.76 781.51 749.84 777 755.58 779.19 764.84 766.6 775.78 757.56 775.58 753.47 781.66 745.83 786.48 747.57 796.37 728.63 798.11 720.38 803.69 717.52 791.76 722.08 789.17 724.33 763.85 714.39 753.2 711.28 743.76 706.85 742.59 712.78 720.93 708.48 714.18 704.69 700.23 708.21 683.2 706.15 679.4 696.3 674.13 698.64 660.39 701.16 658.35 704.07 640.04 704.34 625.56 697.54 618.73 707.44 606.76 699.59 584.3 700.4 565.08 696.67 562.29 687.23 566.04 674 568.25 669.48 571.32 669.16 588.86 666.52 616.63 674.58 634.8 674.49 648.76 672.43 657.66 677.3 666.79 674.29 677.47 674.2 690.38 683.52 701.14 681.99 710.78 677.72 721.5 669.94 733.66 669.95 739.15 662.21 755.48 666.24 761.97 673.57 761.98 670.4 775.65 657.84 761.73 651.27 758.89 641.12 758.5 639.83 763.53 631.49 770.2 625.37 758.44 615.69 759.07 609.19 763.47 609.82 785.83 602.18 793.58 601.77 806.74 586.63 805.03 580.95 798.75 569.15 813.93 559.03 807.51 548.9 813.63 546.16 812.51 540.73 792.41 554.98 783.86 567.26 767.57 569.48 772.96 567.78 785.18 581.14 776.32 588.67 773.84 586.98 759.27 581.86 754.45 581.5 737.4 573.36 730.83 576.19 714.91 590.62 713.5 594.19 709.48 591.05 696.88 592.59 689.64 597.53 685.54 594.88 674.78 602.22 656.19 612.15 639.75 618.56 637.09 623.15 628.34 617.78 623.62 621.83 609.81 626.77 609.1 634.45 588.89 635.52 577.39 632.48 571.11 636.08 564.62 647.68 559.74 649.95 551.38 658.28 543.43 663.42 541.94 673.86 543.94 678.43 536.82 685.79 531.47 692.38 522.06 695.25 542.85 700.34 542.84 704.35 522.78 717.55 491.23 Z M 618.69 533.83 629.23 531.33 630.47 544.58 620.98 544.63 618.69 533.83 Z M 548.2 531.28 558.87 520.7 550.58 515.37 555.54 508.61 565.49 516.24 563.69 520.45 566.12 532.3 558 538.31 564.04 546.1 577.16 553.73 587.56 554.16 597.21 561.5 601.61 572.14 603.16 591.06 588.15 623.07 578.09 629.59 572.62 627.13 567.51 619.17 566.31 606.62 569.81 590.66 577.44 576 578.54 564.54 565.86 554.36 551.55 550.63 548.2 531.28 Z M 534.01 512.4 540.79 511.79 548.62 516.42 545.48 524.68 538.85 526.04 534.01 512.4 Z M 498.44 797.72 505.03 788.75 501.62 779.41 502.61 772.05 499.59 751.97 507.18 753.55 516.15 750.76 516.74 740.42 521.6 734.85 508.61 721.11 507.37 706.99 510.89 692.74 514.27 686.18 513.26 676.47 515.53 660.9 518.82 657.97 521.36 645.13 530.82 636.28 537.94 640.7 541.93 661.47 541.37 673.63 536.8 682.77 540.42 704.22 536.27 724.72 544.45 729.45 543.07 737.2 535.5 743.57 534.91 749.34 542.52 766.03 548.31 769.79 543.33 774.58 529.36 774 523.97 777.79 519.76 757.91 513.77 759.51 518.8 787.54 510.82 791.13 509.5 806.13 503.31 810.46 498.21 806.24 498.44 797.72 Z M 493.51 744.5 497.45 733 502.97 736.66 493.51 744.5 Z M 269.52 1227.06 277.73 1195.85 286.48 1191.51 295.02 1175.28 304.65 1165.56 308.66 1154.64 309.33 1134.81 324.18 1135.81 333.31 1151.9 331.69 1158.52 325.42 1169.54 319.98 1187.23 321.85 1199.42 329.13 1208.93 332.67 1208.35 337.42 1217.83 343.65 1220.51 344.27 1225.64 340.83 1236.54 320.49 1243.21 306.8 1245.18 304.72 1243.07 290.47 1246.99 283.68 1246.14 271.2 1236.16 269.52 1227.06 Z" fill-rule="evenodd" fill="none" stroke="currentColor" stroke-width="72.384"/>
</g>
</svg>