<?xml version="1.0"?>
<svg width="200" height="200" xmlns="http://www.w3.org/2000/svg" version="1.2" baseProfile="tiny" viewBox="-64.000 -144.500 928.000 928.000" stroke-linecap="round" stroke-linejoin="round">
<g id="state">
<path vector-effect="non-scaling-stroke" d="M 405.55 637.91 403.27 637.55 402.58 637.16 397.65 631.49 396.7 630.98 394.6 630.63 392.63 629.64 391.16 626.57 389.09 625.08 387.7 625.2 386.86 625.8 386.14 627.21 385.34 627.93 383.33 628.8 382.01 628.24 379.65 627.82 376.98 625.94 374.79 625.56 375 624.73 374.32 623.43 373.56 623.17 371.66 623.6 370.47 622.89 369.87 622.02 370.21 620.44 369.43 618.84 369.86 616.3 370.72 615.68 369.4 614.88 369.06 613.18 367.97 612.66 368.02 611.72 369.21 610.56 369.77 611.23 370.92 611 370.78 609.94 369.44 610.03 369.71 607.7 369.2 607.02 368.88 605.28 367.83 603.64 366.86 603.13 366.2 601.59 365.48 601.19 365.34 599.5 363.88 598.23 363.23 597.06 363.35 596.38 364.82 595.63 364.67 594.33 365.22 593.93 364.94 592.9 366.55 592.32 365.79 591.13 368.88 590.15 368.19 589.22 369.47 588.27 368.78 586.19 368.99 584.15 367.23 583.84 367.78 582.69 367.47 581.81 367.63 580.42 366.78 580.66 366.39 579.89 368 577.87 366.17 576.54 365.83 575.53 364.81 575.52 365.04 576.54 363.36 576.94 363.57 575.53 362.39 575.45 362.49 574.36 361.45 573.79 361.17 571.54 359.09 569.78 359.65 568.29 359.57 566.94 358.19 565.26 357.63 564.16 356.69 563.15 354.95 560.75 355.05 560.17 354.47 558.29 355.85 557.35 355.97 556.57 354.78 556.01 355.13 554.99 357.33 554.49 356.86 553.75 357.9 553.24 357.85 552.47 356.78 552.49 355.85 551.87 352.68 548.5 351.71 547.17 350.32 545.91 350.13 544.99 349.45 544.36 349.51 543.36 350.49 542.77 350 541.78 349.23 542.24 348.57 541.38 347.28 541.95 344.62 539.93 343.76 539.51 342.46 537.94 343.22 537.49 343.26 536.55 342.22 535.57 342.49 534.5 341.72 534.23 340.73 533.08 340.49 534.27 339.34 534.42 339.76 533.19 339.05 532.88 335.78 533.56 334.17 533.26 330.81 531.6 329.55 531.14 329.24 530.42 329.78 529.4 327.21 528.45 327.22 527.22 326.65 527.03 325.68 527.67 323.94 526.36 323.17 524.97 321.03 522.82 320.85 522.12 319.94 521.35 319.92 520.47 319.19 519.95 319.07 518.4 320.91 519.09 321.68 518.03 320.14 517.55 321.28 516.9 323.33 515.13 322.13 514.05 322.58 512.92 321.44 511.88 322 509.94 321.22 507.69 319.89 506.34 319 506.19 318.71 505.46 317.54 504.97 318.62 503.03 319.66 502.53 318.94 501.75 319.38 499.68 320.26 498.66 320.08 497.62 321.2 497.11 321.24 495.61 319.43 495.84 318.88 495.47 320.24 493.01 319.04 491.91 317.33 491.84 317.2 491 319.32 490.77 319.81 489.8 318.31 489.73 318.44 488.25 317.63 487.76 318 486.59 317.73 484.98 318.52 484.81 317.83 483.44 319.16 482.3 318.29 479.77 318.65 478.4 317.83 477.27 316.43 476.72 315.49 477.19 314.74 475.22 313.66 475.83 312.68 475.33 313.37 473.48 313.66 471.7 313.32 470.64 312.47 470.62 311.36 469.22 310.85 470.07 309.52 469.87 308.93 469.18 309.45 467.8 311.34 466.31 310.93 465.22 310.27 465.4 310.17 466.64 308.71 465.35 308.99 464.27 308.65 462.48 307.64 461.82 308.33 461.03 306.34 459.06 305.1 458.31 305.62 456.38 304.08 454.86 303.66 451.77 305.13 452.82 305.57 452.62 305.91 450.78 306.44 449.59 306.52 448.13 306.22 447.2 307.06 445.82 305.6 445.24 305.61 444.55 306.95 444.05 304.91 442.13 304.18 442.27 303.82 440.21 303.37 439.66 302.3 439.53 300.82 438.23 300.44 437.19 299.63 437.66 298.86 437.23 298.51 435.88 297.78 435.58 296.9 436.66 295.75 436.43 294.59 435.75 295.66 434.98 295.06 434.11 294.46 434.64 293.62 433.95 292.38 432.08 290.35 430.76 288.65 430.73 289.41 429.32 288.61 427.89 287.02 429.3 286.65 428.49 287.44 427.48 286.48 426.23 283.11 426.51 281.19 426.44 278.91 424.55 276.76 423.67 275.49 422.86 272.55 421.89 271.26 421.9 270.24 420.91 268.39 419.88 267.09 418.41 264.7 416.85 264.28 415.93 263.31 415.42 261.54 413.35 261.27 412.01 260.63 411.52 260.85 409.55 260.74 408.19 261.94 407.27 262.57 405.56 261.47 404.39 260.75 401.85 259.79 400.9 258.56 401.13 259.17 402.12 258.89 403.13 257.16 403.44 255.65 402.75 254.48 402.78 253.99 402.1 253.82 400.63 251.59 399.52 250.69 399.29 249.02 397.36 247.58 396.67 246.54 395.3 247.18 394.4 247.84 394.51 247.35 392.22 248.07 391.7 249.43 392.5 249.45 390.82 248.07 389.29 247.65 388.13 245.79 388.07 244.84 387.03 245.41 385.17 247.21 384.93 247.49 383.57 246.16 382.96 245.08 384.5 244.63 384.18 244.61 382.62 243.88 382.24 241.94 384.52 241.32 383 241.74 382.44 241.46 381.44 240.56 380.75 238.91 380.28 239.27 378.84 238.61 377.85 237.74 379.73 235.68 378.35 235.66 376.84 234.89 375.98 232.4 376.12 232.1 375.34 232.95 373.67 231.31 372.07 231.15 370.65 232.18 370.38 233.68 371.27 234.51 370.68 234.64 369.88 233.55 368.47 232.99 365.45 231.43 364.15 231.9 363.07 233.28 363.56 234.51 362.63 235.47 363.3 236.86 363.28 237.26 362.66 236.89 361.81 235.42 361.46 233.7 360.11 233.66 359.21 236.03 358.45 236.74 357.26 236.47 356.23 235.71 355.1 234.57 352.32 233.28 351.23 231.22 350.53 227.79 348.72 225.51 348.02 224.63 347.51 223.81 345.96 223.91 344.66 222.12 340.77 221.15 340.22 220.71 338.72 220.27 338.36 219.05 337.76 217.66 335.77 216.86 335.46 216.15 333.81 214.67 331.96 212.77 331.35 210.22 329.18 206.88 328.18 205.93 327.36 204.71 325.5 202.99 325.31 201.41 326.44 200.13 326.47 198.58 325.7 197.35 324.59 196.85 323.27 196.02 322.59 193.35 321.87 191.39 320.3 189.67 318.34 188.95 314.73 189.21 312.19 187.55 310.58 186.36 307.55 183.53 304.42 183.08 302.7 183.32 301.46 182.59 297.4 181.78 295.78 181.46 293.84 180.12 292.37 178.76 291.86 178.56 291.18 176.36 289.8 175.12 288.27 173.47 287.86 172.87 287.25 172.97 285.63 172.77 284.13 170.62 282.67 170.43 282 168.51 279.98 166.56 278.75 165.06 277.3 161.38 275.63 158.76 273.19 156.98 272.23 155.92 271.11 154.9 270.76 152.48 271.24 151.09 270.56 149.86 269.17 147.14 267.59 146.47 266.67 144.7 265.31 143.03 263.48 140.61 261.48 139.18 258.59 137.66 256.39 135.75 255.08 134.15 255 132.64 255.52 130.38 254.61 129.12 252.51 128.85 250.64 128.32 249.56 126.69 247.68 126.65 246.24 127.42 245.52 127.1 244.91 125.7 244.26 125.14 243.36 124.17 240.53 124.42 237.92 124.1 237.39 122.23 235.93 121.37 234.23 120.17 232.97 119.93 231.88 118.9 230.66 117.8 230.5 116.73 229.78 116 228.24 116.93 226 116.58 224.81 115.87 223.91 113.9 222.66 112.53 220.56 112.4 219.54 111.24 217.42 109.41 216.45 108.74 215.67 106.47 215.09 104.28 213.15 103.52 210.48 101.94 207.3 101.99 204.56 100.63 201.74 100.36 200.51 100.71 199.25 100.12 198.31 100.45 197.4 100.08 193.9 100.35 192.87 99.51 190.31 99.8 189.86 98.59 188 97.35 186.78 96.54 186.66 95.76 185.9 94.04 183.43 94.05 182.38 93.19 180.81 92.57 178.11 92.59 176.47 92.11 174.98 91.45 174.68 87.16 170.88 85.74 170.12 85.49 169.45 85.4 166.75 84.48 164.6 84.55 163.09 83.6 160.34 83.3 157.75 82.58 157.11 82.38 154.52 81.65 152.29 81.88 151.82 80.97 150.89 79.74 150.59 79.48 149.96 78.23 148.9 78.3 148.42 77.24 146.59 76.4 146.54 74.92 145.38 72.23 145.85 70.86 146.36 70.15 145.53 67.89 145.5 67.16 146.49 65.48 146.67 64.69 145.67 62.74 146.64 62 145.9 59.63 146.82 59.4 147.94 58.69 147.94 55.73 146.72 53.91 145.57 52.88 145.6 51.61 144.68 49.8 142.8 49.89 142.08 48.96 141.52 47.85 142 47.16 141.76 46.04 140.62 45.72 139.5 44.44 138.53 45.86 137.42 44.81 136.05 43.46 135.56 41.74 135.5 41.65 134.77 40.75 133.63 40.61 132.66 39.63 131.61 38.7 131.56 38.57 130 37.45 129.66 36.83 130.09 35.62 129.42 35.79 128.37 35.27 127.28 32.67 125.6 33.47 124.48 32.85 123.98 31.19 123.67 30.78 122.1 32.66 121.24 30.55 120.3 28.45 120.41 26.66 121.13 26.05 120.08 24.57 119.59 22.16 119.77 20.65 119.32 18.89 118.01 19.36 116.71 18.41 116.21 18.23 115.41 17.23 114.23 16.09 113.56 14.26 113.12 13.05 111.91 10.82 110.57 9.58 108.9 8.99 107.47 7.05 107.48 6.25 105.81 5.02 105.07 3.67 105.23 2.78 104.64 3.52 103.83 3.23 102.96 1 101.57 2.21 100.38 1.6 99.28 1.27 97.83 1.22 95.47 1.95 93.89 3.49 93.63 3.75 92.79 5.78 91.14 5.69 90.19 6.32 89.17 6.44 87.95 7.07 87.11 6.3 83.82 7.94 81.5 9.86 80.93 10.48 79.52 9.66 79.16 9.32 78.32 9.98 77.61 11 78.77 12.98 76.89 14.19 78.09 15.28 77.74 15.81 76.1 15.75 74.9 15.03 74.37 15.96 71.83 17.03 72.49 18.16 71.87 18.39 70.37 19.18 70.64 19.19 68.48 20.58 68.6 20.9 67.84 20.04 66.2 20.7 65.85 23.97 65.98 24.29 64.67 25.6 65.76 26.35 65.68 27.02 64.88 26.43 63.7 27.62 62.82 28.24 61.86 29.01 62.35 30.46 60.91 30.54 59.87 31.44 59.82 32.51 58 33.84 58.9 34.41 58.89 34.14 56.08 34.81 55.79 37 57.06 38.69 55.93 38.64 54.93 39.46 54.3 40.33 55.32 41.94 55.07 41.12 53.5 40.47 53.63 39.44 51.97 39.93 51.02 40.69 50.57 40.43 49.48 40.63 48.35 42.2 46.92 42.9 45.44 44.3 43.72 43.72 42.72 42.73 41.94 42.74 41.81 63.55 35.67 78.04 31.41 96.51 25.96 97.71 26.87 97.23 28.98 96.75 30.03 97.74 30.19 98.68 29.57 99.65 29.46 100.91 29.69 101.82 28.39 101.88 26.8 103.54 27.55 104.17 26.91 105.35 24.82 106.37 24.35 107.69 24.7 109.31 23.59 110.46 23.76 111.97 22.56 112.46 21.19 111.4 20.68 111.63 19.54 112.39 19.53 112.48 18.29 113.92 17.79 115.81 19.79 117.45 19.57 118.29 18.2 119.46 18.06 119.73 16.7 120.85 17.47 121.27 18.44 122.3 18.23 123.21 16.54 124.42 16.29 124.95 15.54 127.22 16.04 128.21 15.34 130.65 14.68 132.14 14.51 132.79 13.19 133.82 13.54 134.61 13.01 134.13 12.19 134.67 11.36 136.44 11.29 137.17 11.66 137.45 12.84 138.91 12.58 140.12 11.94 140.96 11.07 142.11 11.34 142.79 10.62 143.68 11.31 145.65 9.01 148.63 9.02 150 8.31 150.81 8.53 151.31 9.43 150.26 10.59 153.17 10.84 154.51 9.5 155.91 5.38 156.75 4.12 158.55 3.54 160.21 2.68 160.03 2.18 160.89 1.04 161.57 1 162.57 1.91 162.85 3.4 163.52 4.94 162.67 5.24 163.02 6.6 164.35 7.94 164.9 7.99 166.12 6.79 165.97 6.09 167.25 5.73 167.85 6.08 169.09 5.49 171.37 6.84 172.49 7.18 174.08 6.02 177.27 5.19 177.81 4.26 198.72 5.82 203.46 5.98 208.15 6.37 218.91 6.85 226.83 7.17 234.97 7.68 253.66 8.53 258.94 8.83 264.42 9.04 274.3 9.56 295.72 10.8 307.11 11.33 318.21 11.93 322.96 12.05 332.49 12.71 339.24 12.96 365.83 14.42 374.33 15.08 384.19 15.75 382.48 16.06 381.91 16.79 381.27 18.96 383.45 20.52 384.43 22.85 384.29 24.47 383.78 25.06 381.54 25.93 380.5 28.21 380.33 33.22 381.54 34.41 382.99 36.67 384.61 35.61 391.61 30.62 396.08 27.52 400.55 24.14 401.79 25.56 405.22 30.35 407.3 32.96 413.77 41.89 416.11 45.26 419.22 49.69 425.75 58.42 425.24 62.57 424.29 71.7 423.9 74.85 423.23 81.63 430.54 81.72 439.18 81.74 447.29 81.85 462.12 81.99 477.85 82.1 488.82 82.31 500.24 82.46 519.53 82.63 524.38 82.75 542.16 83.01 566.2 83.37 585.78 83.3 608.19 83.21 618 92.61 636.96 110.75 641.31 114.95 656.03 128.9 665.18 138.09 675.5 148.79 679.91 153.3 685.59 158.99 691.04 164.27 703.58 176.58 714.6 187.34 735.61 207.75 750.35 222.09 766.99 238.29 777.2 248.23 792.19 262.82 799 269.5 797.91 270.25 797.78 270.96 796.56 271.06 792.49 272.12 778.3 277.73 771.39 281.37 761.75 287.91 755.14 293.06 746.95 300.79 745.02 302.89 743.24 305.16 742.14 306.18 734.65 314.21 723.35 329.08 719.92 335.78 718.61 335.83 717.4 338.67 713.96 342.29 710.73 345.9 708.01 350.48 706.79 353.24 705.74 354.9 702.5 362.01 701.25 365.01 700.57 367.17 699.74 372.43 698.87 375.5 698.19 376.62 696.62 377.06 696.63 377.85 697.76 379.16 698.08 380.45 697.66 381.16 696.82 383.84 696.08 387.45 695.5 392.08 695.52 395.32 696.43 400.68 695.22 403.52 695.24 404.76 693.91 408.28 693.42 408.98 688.57 413.07 686.44 415.54 684.84 417.89 681.02 419.25 677.46 421.17 673.21 423.44 670.87 426 669.07 432.58 666.1 439.46 665.71 441.58 662.73 441.57 656.59 442.18 657.4 441.46 659.17 441.27 659.23 440 658.58 439.59 658.12 440.63 656.59 440.32 650.45 441.1 647.47 441.66 646.77 441.41 645.33 441.75 644.4 440.56 641.78 438.28 641.28 437.21 638.66 436.74 638.19 436.36 637.03 436.79 636.57 438.14 634.83 438.55 632.79 439.64 631.35 440.85 630.53 441.16 628.93 442.65 628.45 444.72 626.96 446.93 625.58 448.13 624.66 449.55 624.74 450.88 622.86 453.48 622.86 455.05 624.63 458.75 627.62 459.05 628.3 458.04 629.96 457.17 630.37 458.35 629.63 461.85 629.14 462.65 620.74 466.33 618.97 467.83 618.16 468.87 616.6 468.93 612.36 471.82 610.34 473.62 609.54 473.93 609.36 475.42 608.62 477 607.56 477.55 605.93 479.08 606.26 480.84 605.83 482.01 604.88 483.05 603.17 483.95 599.82 484.99 594.6 487.48 591.67 489.39 590.16 489.46 590.08 490.34 588.5 491.9 584.33 493.76 583.33 493.53 581.33 491.32 581.82 490.31 579.32 487.41 577.97 486.98 572.72 488.04 571.7 488.27 571.51 489.63 570.78 490.81 570.81 492.03 570.85 493.79 572.64 493.73 574.17 494.27 576.3 494.67 577.22 494.36 579.21 494.38 580.61 496.04 580.77 498.53 579.13 501.34 577.97 504.17 577.83 505.52 578.01 507.95 573.21 511.63 564.07 516.6 563.35 516.5 562.4 518.23 561.24 519.45 560.37 522.54 558.93 523.57 558.05 523.56 556.19 522.7 552.75 522.76 546.03 524.21 542.48 525.25 538.55 526.83 532.78 530.59 531.43 532.63 529.36 533.17 528.79 532.97 526.14 533.03 522.25 534.85 519.09 536.62 514.93 539.52 512.25 541.53 509.19 544.42 502.97 549.58 501.97 549.46 500.52 546.31 498.2 545.27 497.85 546.1 496.75 546.88 496.48 547.72 495.58 547.65 493.59 548.66 492.78 550.19 489.24 551.15 488.28 549.49 488.35 547.39 487.84 546.32 486.25 545.12 484.02 544.33 482.23 544.62 481.73 545.42 479.28 545.94 477.74 550.22 478.5 551.76 477.19 553.15 478.09 556.19 479.76 558.58 480.12 560.28 481.16 562.74 481.84 563.27 485.56 562.81 486.65 564.18 486.81 565.43 486.65 567.36 484.83 571.73 484.16 574.32 482.51 577.46 480.87 577.3 481.04 578.64 482.34 579.96 482.65 580.93 481.57 581.17 478.37 582.41 474.84 584.12 474.07 583.86 471.11 585.45 468.16 587.33 467.2 587.32 466.49 588.27 464.01 589.26 461.81 590.35 459.73 588.89 458.62 589.47 456.69 590.93 456.25 591.85 454.41 592.99 453.76 593.83 452.19 594.06 450.07 593.28 449.89 592.44 450.47 590.89 450.08 587.84 450.15 587.15 446.17 585.9 445.23 586.19 442.72 584.91 441.03 583.35 440.82 582.44 439.38 580.74 438.28 580.36 436.99 580.55 435.05 581.61 434.17 582.75 434.46 584.29 433.52 584.82 431.69 584.14 429.56 586.99 429.67 588.32 430.38 589.5 431.37 590.32 433.6 592.75 436.19 591.38 437.77 592.1 439.8 594.25 441.95 596.08 443.1 596.64 444.57 598.19 445.53 599.57 446.28 601.33 445.64 602.79 443.16 604.83 440.8 608.02 438.51 611.91 437.2 613.63 435.49 615.32 432.9 617.14 428.94 619.08 425.56 621.02 421.73 623.57 420.2 623.81 419.03 622.88 416.64 621.97 415.69 623.76 413.87 625.62 411.59 628.96 410.37 629.33 409.71 629.52 409.12 631.16 407.58 632.92 406.88 634.34 405.57 635.36 405.48 635.89 406.57 637 407.8 636.53 408.78 637.56 408.64 638.02 406.17 637.55 405.55 637.91 Z M 527.62 534.42 529.04 535.08 528.35 535.57 527.62 534.42 Z" fill-rule="evenodd" fill="none" stroke="currentColor" stroke-width="1"/>
</g>
</svg>