<?xml version="1.0"?>
<svg xmlns="http://www.w3.org/2000/svg" version="1.2" baseProfile="tiny" viewBox="-40.0 -40.0 880.0 610.0" stroke-linecap="round" stroke-linejoin="round">
<g id="state">
<path d="M 407.1 528.47 404.89 528.17 404.21 527.84 399.41 523.14 398.49 522.71 396.44 522.42 394.51 521.6 393.08 519.05 391.06 517.81 389.71 517.92 388.89 518.41 388.19 519.58 387.41 520.18 385.44 520.91 384.16 520.44 381.86 520.09 379.26 518.53 377.12 518.22 377.32 517.53 376.66 516.45 375.92 516.23 374.06 516.59 372.9 516 372.31 515.28 372.64 513.97 371.88 512.64 372.29 510.53 373.14 510.02 371.85 509.36 371.51 507.95 370.45 507.51 370.5 506.73 371.66 505.77 372.2 506.33 373.32 506.13 373.19 505.26 371.88 505.33 372.14 503.4 371.65 502.83 371.33 501.38 370.31 500.03 369.35 499.6 368.71 498.32 368 497.99 367.86 496.59 366.44 495.54 365.8 494.56 365.91 494 367.35 493.38 367.2 492.3 367.74 491.96 367.46 491.12 369.04 490.63 368.3 489.64 371.31 488.82 370.64 488.05 371.89 487.26 371.21 485.54 371.41 483.84 369.69 483.59 370.23 482.63 369.92 481.91 370.08 480.75 369.25 480.95 368.86 480.31 370.43 478.63 368.65 477.53 368.31 476.69 367.32 476.68 367.54 477.53 365.9 477.86 366.11 476.69 364.94 476.63 365.05 475.72 364.03 475.25 363.74 473.39 361.71 471.92 362.26 470.69 362.18 469.56 360.82 468.17 360.28 467.26 359.35 466.43 357.65 464.43 357.74 463.95 357.16 462.39 358.52 461.61 358.63 460.97 357.47 460.5 357.81 459.65 359.96 459.24 359.5 458.62 360.52 458.19 360.46 457.56 359.42 457.57 358.5 457.06 355.39 454.27 354.45 453.17 353.07 452.12 352.89 451.36 352.23 450.84 352.27 450.01 353.24 449.52 352.75 448.7 352 449.08 351.35 448.36 350.09 448.84 347.48 447.17 346.63 446.82 345.35 445.52 346.1 445.14 346.13 444.37 345.12 443.55 345.37 442.67 344.62 442.44 343.65 441.49 343.41 442.48 342.29 442.61 342.7 441.58 342 441.33 338.79 441.9 337.22 441.65 333.92 440.29 332.68 439.91 332.37 439.31 332.9 438.46 330.38 437.68 330.38 436.66 329.82 436.51 328.87 437.04 327.16 435.96 326.4 434.81 324.29 433.03 324.12 432.44 323.21 431.81 323.19 431.08 322.48 430.65 322.35 429.36 324.16 429.93 324.91 429.05 323.4 428.66 324.52 428.11 326.52 426.64 325.34 425.74 325.77 424.8 324.65 423.94 325.2 422.33 324.42 420.47 323.11 419.35 322.23 419.22 321.95 418.62 320.8 418.22 321.85 416.61 322.87 416.19 322.15 415.54 322.59 413.82 323.44 412.97 323.26 412.11 324.36 411.68 324.39 410.43 322.61 410.63 322.07 410.33 323.4 408.28 322.22 407.37 320.53 407.32 320.41 406.62 322.49 406.42 322.97 405.62 321.49 405.56 321.61 404.33 320.81 403.93 321.18 402.96 320.9 401.62 321.67 401.47 321 400.34 322.3 399.39 321.44 397.29 321.78 396.15 320.97 395.22 319.59 394.76 318.67 395.16 317.92 393.53 316.87 394.04 315.89 393.63 316.56 392.09 316.84 390.61 316.5 389.73 315.67 389.71 314.57 388.56 314.07 389.26 312.76 389.1 312.18 388.53 312.68 387.39 314.54 386.14 314.13 385.24 313.48 385.39 313.39 386.42 311.94 385.35 312.22 384.45 311.87 382.97 310.88 382.43 311.55 381.77 309.58 380.14 308.36 379.52 308.86 377.92 307.34 376.67 306.91 374.1 308.36 374.96 308.79 374.8 309.12 373.27 309.64 372.27 309.71 371.07 309.41 370.3 310.23 369.15 308.79 368.67 308.79 368.1 310.11 367.68 308.09 366.09 307.37 366.21 307.01 364.5 306.57 364.05 305.51 363.94 304.04 362.87 303.66 362 302.87 362.4 302.11 362.05 301.75 360.92 301.03 360.68 300.17 361.58 299.03 361.4 297.89 360.84 298.94 360.19 298.34 359.47 297.76 359.92 296.93 359.35 295.69 357.8 293.68 356.71 292.01 356.7 292.74 355.52 291.94 354.34 290.39 355.52 290.01 354.85 290.79 354.01 289.83 352.97 286.51 353.22 284.62 353.17 282.36 351.61 280.24 350.9 278.98 350.24 276.07 349.44 274.79 349.45 273.78 348.64 271.95 347.79 270.66 346.58 268.28 345.3 267.87 344.54 266.91 344.13 265.15 342.42 264.86 341.3 264.23 340.91 264.43 339.26 264.32 338.13 265.49 337.37 266.11 335.94 265.01 334.98 264.28 332.87 263.32 332.09 262.11 332.29 262.72 333.1 262.46 333.95 260.75 334.21 259.25 333.65 258.09 333.68 257.61 333.12 257.43 331.91 255.22 330.99 254.32 330.81 252.66 329.22 251.23 328.65 250.19 327.53 250.82 326.78 251.47 326.86 250.97 324.97 251.68 324.52 253.03 325.18 253.03 323.79 251.65 322.53 251.23 321.56 249.39 321.53 248.44 320.67 248.99 319.12 250.77 318.91 251.03 317.78 249.71 317.28 248.66 318.57 248.21 318.31 248.18 317.02 247.45 316.7 245.55 318.61 244.92 317.35 245.34 316.88 245.06 316.05 244.16 315.49 242.52 315.11 242.87 313.91 242.2 313.1 241.35 314.66 239.31 313.53 239.28 312.28 238.51 311.57 236.04 311.7 235.74 311.06 236.56 309.66 234.93 308.35 234.76 307.17 235.78 306.94 237.27 307.67 238.08 307.17 238.21 306.51 237.12 305.34 236.53 302.84 234.97 301.77 235.44 300.87 236.8 301.27 238.02 300.49 238.97 301.04 240.35 301.01 240.73 300.49 240.36 299.79 238.91 299.51 237.19 298.4 237.15 297.65 239.48 297.01 240.18 296.02 239.9 295.16 239.13 294.23 237.98 291.93 236.69 291.04 234.65 290.47 231.23 288.99 228.97 288.43 228.09 288.01 227.26 286.73 227.35 285.65 225.53 282.44 224.57 281.99 224.12 280.75 223.68 280.45 222.46 279.96 221.07 278.32 220.27 278.07 219.55 276.7 218.06 275.18 216.17 274.69 213.62 272.91 210.3 272.11 209.35 271.44 208.12 269.9 206.41 269.76 204.86 270.71 203.59 270.75 202.04 270.13 200.81 269.22 200.29 268.13 199.47 267.56 196.81 267 194.85 265.71 193.12 264.1 192.36 261.11 192.58 259 190.92 257.68 189.71 255.17 186.85 252.6 186.39 251.18 186.61 250.15 185.84 246.78 185.01 245.45 184.67 243.84 183.32 242.63 181.97 242.22 181.76 241.66 179.56 240.54 178.31 239.28 176.66 238.96 176.05 238.46 176.14 237.11 175.91 235.87 173.76 234.68 173.57 234.13 171.62 232.47 169.67 231.46 168.16 230.28 164.48 228.94 161.84 226.94 160.06 226.16 158.98 225.24 157.96 224.96 155.56 225.39 154.18 224.84 152.93 223.7 150.2 222.42 149.52 221.66 147.74 220.56 146.05 219.06 143.61 217.43 142.15 215.05 140.6 213.23 138.68 212.17 137.08 212.12 135.59 212.57 133.32 211.85 132.04 210.12 131.74 208.57 131.19 207.68 129.54 206.14 129.48 204.95 130.24 204.34 129.91 203.84 128.5 203.32 127.93 202.57 126.92 200.24 127.13 198.07 126.81 197.63 124.91 196.45 124.03 195.05 122.82 194.01 122.56 193.11 121.51 192.11 120.41 192 119.33 191.41 118.59 190.14 119.47 188.27 119.1 187.29 118.38 186.55 116.39 185.54 115 183.81 114.85 182.97 113.66 181.22 111.82 180.45 111.14 179.81 108.86 179.36 106.64 177.78 105.84 175.57 104.2 172.95 104.21 170.67 102.8 168.36 102.51 167.34 102.85 166.29 102.24 165.51 102.56 164.76 102.13 161.85 102.37 161 101.49 158.89 101.77 158.51 100.54 156.98 99.27 155.98 98.46 155.9 97.67 155.28 95.91 153.25 95.89 152.38 95.01 151.09 94.34 148.86 94.33 147.5 93.83 146.26 93.16 146.03 88.81 142.93 87.37 142.32 87.1 141.77 86.97 139.53 86 137.76 86.05 136.51 85.05 134.24 84.7 132.1 83.97 131.58 83.73 129.42 82.96 127.59 83.17 127.19 82.25 126.44 81.01 126.2 80.74 125.68 79.46 124.83 79.53 124.43 78.43 122.92 77.59 122.9 76.08 121.96 73.39 122.39 72.04 122.83 71.3 122.15 69.04 122.16 68.33 123 66.65 123.17 65.84 122.36 63.9 123.19 63.14 122.59 60.79 123.39 60.57 124.32 59.87 124.33 56.87 123.37 55.03 122.44 54 122.49 52.71 121.74 50.86 120.21 50.93 119.61 49.99 119.16 48.88 119.58 48.19 119.39 47.04 118.47 46.69 117.54 45.4 116.76 46.8 115.81 45.71 114.7 44.35 114.31 42.63 114.29 42.52 113.68 41.6 112.76 41.43 111.95 40.43 111.1 39.5 111.07 39.33 109.78 38.21 109.52 37.59 109.88 36.36 109.35 36.51 108.47 35.97 107.57 33.33 106.23 34.11 105.28 33.48 104.88 31.8 104.65 31.35 103.36 33.23 102.61 31.08 101.86 28.98 102 27.2 102.63 26.57 101.76 25.07 101.38 22.66 101.57 21.12 101.23 19.33 100.17 19.78 99.09 18.82 98.69 18.62 98.03 17.59 97.07 16.42 96.53 14.58 96.2 13.34 95.22 11.06 94.14 9.79 92.79 9.16 91.61 7.21 91.65 6.37 90.28 5.12 89.69 3.76 89.85 2.85 89.38 3.58 88.69 3.27 87.97 1 86.86 2.19 85.85 1.55 84.95 1.18 83.75 1.08 81.79 1.78 80.47 3.32 80.23 3.56 79.53 5.56 78.12 5.46 77.33 6.06 76.47 6.16 75.46 6.77 74.75 5.92 72.03 7.52 70.08 9.44 69.57 10.03 68.38 9.2 68.1 8.84 67.41 9.48 66.82 10.54 67.76 12.49 66.16 13.73 67.13 14.82 66.82 15.32 65.45 15.23 64.46 14.49 64.03 15.38 61.91 16.47 62.44 17.59 61.9 17.79 60.65 18.59 60.86 18.55 59.07 19.95 59.14 20.26 58.5 19.36 57.16 20.02 56.86 23.31 56.91 23.6 55.82 24.94 56.7 25.7 56.62 26.36 55.94 25.74 54.98 26.92 54.22 27.52 53.42 28.31 53.81 29.74 52.59 29.8 51.72 30.7 51.67 31.74 50.14 33.1 50.86 33.67 50.84 33.34 48.51 34.01 48.26 36.24 49.28 37.92 48.31 37.86 47.49 38.67 46.95 39.56 47.78 41.18 47.55 40.32 46.26 39.67 46.37 38.59 45.02 39.07 44.22 39.83 43.83 39.54 42.93 39.72 41.99 41.28 40.78 41.95 39.53 43.33 38.09 42.72 37.27 41.7 36.64 41.71 36.52 62.58 31.1 77.11 27.33 95.66 22.53 96.89 23.27 96.44 25.04 95.97 25.91 96.97 26.03 97.91 25.5 98.89 25.4 100.16 25.57 101.06 24.48 101.09 23.16 102.78 23.75 103.41 23.22 104.56 21.47 105.58 21.06 106.93 21.33 108.54 20.39 109.7 20.51 111.21 19.5 111.68 18.36 110.6 17.95 110.82 17 111.58 16.99 111.65 15.95 113.09 15.52 115.04 17.15 116.69 16.95 117.52 15.8 118.7 15.67 118.95 14.54 120.09 15.16 120.53 15.96 121.56 15.77 122.46 14.36 123.68 14.13 124.2 13.51 126.5 13.89 127.49 13.3 129.94 12.72 131.44 12.56 132.08 11.46 133.13 11.73 133.92 11.28 133.42 10.61 133.95 9.91 135.74 9.84 136.48 10.13 136.78 11.1 138.25 10.87 139.46 10.32 140.31 9.59 141.47 9.81 142.15 9.2 143.06 9.76 145.02 7.83 148.02 7.8 149.4 7.2 150.22 7.37 150.74 8.11 149.7 9.08 152.64 9.26 153.98 8.13 155.33 4.7 156.17 3.64 157.98 3.14 159.64 2.41 159.45 1.99 160.3 1.04 160.99 1 162.02 1.74 162.31 2.98 163.02 4.25 162.16 4.5 162.53 5.63 163.9 6.73 164.45 6.76 165.67 5.75 165.51 5.17 166.79 4.86 167.41 5.14 168.65 4.64 170.98 5.74 172.11 6.01 173.7 5.03 176.92 4.31 177.45 3.53 198.6 4.62 203.39 4.71 208.14 4.99 219.02 5.3 227.03 5.49 235.26 5.85 254.16 6.43 259.5 6.64 265.04 6.78 275.02 7.16 296.68 8.07 308.2 8.46 319.42 8.92 324.22 9 333.84 9.52 340.67 9.71 367.54 10.87 376.12 11.41 386.09 11.97 384.35 12.22 383.79 12.83 383.14 14.63 385.34 15.92 386.33 17.86 386.19 19.2 385.68 19.69 383.41 20.42 382.37 22.3 382.2 26.47 383.42 27.45 384.88 29.33 386.52 28.44 393.58 24.31 398.09 21.73 402.61 18.93 403.87 20.11 407.32 24.09 409.42 26.26 415.93 33.67 418.29 36.47 421.41 40.15 427.98 47.4 427.46 50.85 426.49 58.42 426.09 61.04 425.4 66.67 432.76 66.75 441.44 66.79 449.61 66.9 464.54 67.06 480.36 67.21 491.4 67.44 502.89 67.62 522.3 67.88 527.18 68 545.07 68.35 569.26 68.84 588.96 68.96 611.5 69.11 621.25 77.02 640.04 92.29 644.36 95.83 658.92 107.59 667.95 115.34 678.13 124.36 682.46 128.16 688.05 132.97 693.42 137.43 705.76 147.83 716.57 156.93 737.17 174.22 751.58 186.37 767.83 200.11 777.79 208.55 792.38 220.94 799 226.62 797.9 227.22 797.75 227.81 796.53 227.87 792.46 228.67 778.22 233.05 771.27 235.95 761.54 241.2 754.87 245.36 746.57 251.64 744.61 253.35 742.8 255.19 741.68 256.02 734.09 262.56 722.59 274.73 719.06 280.23 717.76 280.25 716.51 282.59 713.03 285.55 709.77 288.49 706.98 292.25 705.72 294.52 704.66 295.88 701.33 301.74 700.04 304.21 699.33 305.99 698.41 310.34 697.5 312.88 696.81 313.81 695.24 314.15 695.24 314.8 696.33 315.9 696.62 316.98 696.2 317.57 695.32 319.78 694.52 322.76 693.88 326.6 693.84 329.28 694.64 333.75 693.4 336.09 693.4 337.12 692.02 340.02 691.52 340.6 686.67 343.92 684.53 345.95 682.9 347.87 679.11 348.94 675.57 350.49 671.34 352.31 668.99 354.41 667.12 359.85 664.08 365.53 663.66 367.28 660.73 367.23 654.66 367.66 655.47 367.07 657.23 366.93 657.3 365.88 656.67 365.53 656.19 366.39 654.69 366.11 648.63 366.68 645.69 367.11 645.01 366.9 643.58 367.16 642.67 366.16 640.13 364.24 639.65 363.34 637.08 362.92 636.62 362.6 635.47 362.95 635 364.06 633.28 364.38 631.25 365.26 629.81 366.25 629 366.49 627.4 367.72 626.9 369.43 625.4 371.24 624.03 372.23 623.1 373.4 623.17 374.5 621.28 376.64 621.26 377.94 622.95 381.04 625.89 381.32 626.57 380.48 628.22 379.78 628.62 380.76 627.84 383.66 627.35 384.32 619.03 387.28 617.26 388.51 616.45 389.37 614.92 389.39 610.71 391.75 608.7 393.22 607.91 393.47 607.72 394.7 606.97 396.01 605.92 396.45 604.3 397.71 604.6 399.17 604.16 400.14 603.22 401 601.52 401.73 598.22 402.56 593.06 404.57 590.16 406.13 588.68 406.17 588.59 406.9 587.02 408.18 582.9 409.69 581.92 409.48 579.97 407.63 580.47 406.8 578.04 404.36 576.72 404 571.55 404.84 570.54 405.01 570.35 406.14 569.62 407.12 569.63 408.13 569.66 409.59 571.41 409.56 572.91 410.02 575 410.37 575.91 410.12 577.86 410.15 579.22 411.55 579.35 413.61 577.71 415.93 576.54 418.27 576.38 419.39 576.54 421.41 571.79 424.42 562.77 428.47 562.06 428.38 561.11 429.81 559.97 430.81 559.08 433.37 557.66 434.22 556.79 434.2 554.98 433.47 551.6 433.5 545 434.64 541.51 435.48 537.64 436.77 531.95 439.85 530.61 441.53 528.58 441.97 528.03 441.8 525.42 441.83 521.6 443.32 518.48 444.77 514.38 447.15 511.75 448.81 508.73 451.18 502.6 455.43 501.62 455.33 500.23 452.71 497.96 451.83 497.61 452.52 496.52 453.16 496.26 453.86 495.37 453.79 493.42 454.62 492.62 455.89 489.15 456.67 488.21 455.29 488.3 453.54 487.81 452.65 486.25 451.65 484.07 450.98 482.31 451.21 481.82 451.88 479.42 452.3 477.89 455.85 478.62 457.12 477.34 458.28 478.2 460.8 479.82 462.79 480.16 464.21 481.17 466.26 481.84 466.7 485.48 466.33 486.53 467.48 486.69 468.51 486.52 470.11 484.72 473.74 484.05 475.88 482.42 478.48 480.82 478.34 480.97 479.45 482.24 480.55 482.54 481.36 481.48 481.56 478.34 482.57 474.89 483.98 474.14 483.76 471.24 485.07 468.35 486.61 467.4 486.61 466.71 487.39 464.28 488.2 462.13 489.1 460.1 487.88 459.01 488.36 457.12 489.57 456.68 490.33 454.89 491.27 454.25 491.96 452.71 492.15 450.65 491.5 450.47 490.8 451.04 489.52 450.67 486.98 450.75 486.41 446.85 485.36 445.93 485.6 443.48 484.53 441.83 483.23 441.64 482.47 440.23 481.06 439.16 480.74 437.89 480.9 436 481.77 435.14 482.72 435.42 484 434.5 484.43 432.71 483.87 430.62 486.23 430.72 487.33 431.41 488.31 432.38 488.99 434.55 491.02 437.08 489.89 438.63 490.48 440.6 492.28 442.7 493.8 443.82 494.27 445.26 495.56 446.19 496.7 446.91 498.17 446.29 499.38 443.86 501.07 441.55 503.71 439.3 506.94 438.01 508.36 436.34 509.76 433.81 511.26 429.94 512.87 426.64 514.47 422.9 516.59 421.4 516.78 420.26 516.01 417.93 515.24 417.01 516.73 415.23 518.27 413 521.05 411.81 521.35 411.17 521.51 410.6 522.87 409.09 524.33 408.41 525.51 407.13 526.35 407.04 526.79 408.1 527.72 409.3 527.32 410.26 528.18 410.12 528.57 407.71 528.17 407.1 528.47 Z M 526.86 443 528.25 443.55 527.57 443.96 526.86 443 Z" fill-rule="evenodd" fill="none" stroke="currentColor" stroke-width="1"/>
</g>
</svg>