<svg viewBox="-83.83445764458817 -35.69600264458818 5.768011735058053 4.139077289176349" xmlns="http://www.w3.org/2000/svg">
  <path d="M -80.9076568863527,32.03815105635481 L -80.904021,32.039954 L -80.889512,32.037593 L -80.88867,32.039899 L -80.894456,32.045089 L -80.90169,32.042699 L -80.908037,32.048299 L -80.907519,32.050935 L -80.899824,32.056015 L -80.895719,32.063099 L -80.886633,32.071928 L -80.883187,32.080084 L -80.87928755968012,32.081037553174994 L -80.872128,32.082878 L -80.858735,32.099581 L -80.848007,32.108893 L -80.842424,32.117837 L -80.828394,32.113222 L -80.82153,32.108589 L -80.812503,32.109746 L -80.789996,32.122494 L -80.770102,32.132154 L -80.746794,32.141824 L -80.731533,32.150879 L -80.721478,32.159313 L -80.713729,32.167882 L -80.700191,32.187316 L -80.686276,32.203213 L -80.671652,32.213406 L -80.667877,32.22068 L -80.672224,32.229505 L -80.677845,32.236406 L -80.686512,32.24419 L -80.693264,32.246982 L -80.705898,32.256159 L -80.717796,32.266974 L -80.727079,32.270552 L -80.742361,32.263766 L -80.755438,32.275945 L -80.761257,32.280044 L -80.765416,32.285972 L -80.766038,32.292608 L -80.75345,32.306822 L -80.742661,32.303416 L -80.737118,32.306029 L -80.738812,32.313766 L -80.733637,32.319469 L -80.722216,32.324704 L -80.714601,32.325656 L -80.708145,32.323734 L -80.699653,32.315233 L -80.698471,32.310658 L -80.688527,32.302849 L -80.673791,32.29642 L -80.668251,32.297836 L -80.644794,32.291497 L -80.645261,32.288082 L -80.643011,32.27281 L -80.646458,32.265072 L -80.645388,32.260852 L -80.63297,32.256925 L -80.62369,32.258059 L -80.619837,32.262259 L -80.609023,32.267886 L -80.606408,32.272508 L -80.595,32.279743 L -80.588464,32.282656 L -80.576243,32.275285 L -80.563258,32.280723 L -80.548636,32.285601 L -80.544471,32.290321 L -80.538773,32.290281 L -80.521371,32.299608 L -80.503885,32.307491 L -80.499378,32.306143 L -80.478569,32.314633 L -80.459687,32.320743 L -80.453296,32.321913 L -80.455059,32.326789 L -80.462718,32.333416 L -80.463642,32.340108 L -80.454005,32.339267 L -80.444214,32.354935 L -80.440141,32.367855 L -80.429291,32.389667 L -80.428302,32.399321 L -80.429218,32.405548 L -80.435565,32.412459 L -80.457502,32.410264 L -80.461534,32.412893 L -80.467588,32.425259 L -80.469638,32.43376 L -80.479409,32.445754 L -80.484617,32.460976 L -80.476882,32.467913 L -80.481297,32.475588 L -80.472068,32.496964 L -80.457621,32.499512 L -80.45465,32.503521 L -80.444073,32.504924 L -80.430918,32.500906 L -80.421563,32.494835 L -80.418599,32.4895 L -80.419117,32.478963 L -80.413487,32.470672 L -80.392561,32.475332 L -80.387743,32.482973 L -80.375978,32.487985 L -80.37063,32.487584 L -80.369049,32.491777 L -80.362523,32.495627 L -80.36041,32.499813 L -80.346743,32.4945 L -80.338354,32.47873 L -80.332438,32.478104 L -80.295503,32.503703 L -80.277361,32.518016 L -80.261467,32.528008 L -80.236778,32.542324 L -80.218025,32.551087 L -80.194985,32.56003 L -80.179298,32.56023 L -80.17596,32.559206 L -80.163749,32.561834 L -80.155676,32.571979 L -80.121368,32.590523 L -80.098075,32.598277 L -80.077039,32.603319 L -80.037276,32.610236 L -80.016963,32.610397 L -80.006029,32.605992 L -80.000801,32.605892 L -79.992244,32.610998 L -79.986917,32.626388 L -79.980004,32.632417 L -79.974299,32.641024 L -79.970021,32.640524 L -79.915682,32.664915 L -79.887085,32.683049 L -79.888028,32.695177 L -79.887094,32.701947 L -79.880059,32.716046 L -79.870148,32.730003 L -79.87093,32.742434 L -79.879109,32.750834 L -79.890874,32.751034 L -79.89634,32.749535 L -79.908937,32.751634 L -79.917969,32.754433 L -79.928546,32.754233 L -79.92868669590466,32.76303536142913 L -79.928784,32.769123 L -79.924387,32.775019 L -79.923198,32.781813 L -79.91716012332293,32.78287041345179 L -79.886001,32.787907 L -79.878039,32.785709 L -79.863422,32.771022 L -79.866393,32.766025 L -79.854703,32.754878 L -79.848797,32.75363 L -79.823967,32.762727 L -79.814513,32.770448 L -79.813984,32.774819 L -79.805037,32.775094 L -79.787565,32.784466 L -79.75647,32.796602 L -79.736595,32.801593 L -79.726389,32.805996 L -79.720707,32.811153 L -79.718068,32.816976 L -79.719879,32.825796 L -79.710118,32.833353 L -79.703789,32.836024 L -79.699296,32.843903 L -79.698115,32.851325 L -79.693375,32.852821 L -79.68124,32.861708 L -79.655927,32.875881 L -79.646656,32.876055 L -79.6418,32.881205 L -79.631149,32.888606 L -79.581058,32.906417 L -79.578087,32.910408 L -79.573408,32.92788 L -79.575772,32.933802 L -79.585715,32.929561 L -79.589811,32.924534 L -79.607532,32.92623 L -79.617715,32.94487 L -79.617611,32.952726 L -79.606223,32.965588 L -79.606615,32.972248 L -79.60102,32.979282 L -79.592761,32.985218 L -79.583717,32.996155 L -79.580725,33.006447 L -79.571108,33.013811 L -79.566188,33.015285 L -79.55756,33.021269 L -79.545317,33.026537 L -79.534966,33.02847 L -79.532114,33.035193 L -79.525221,33.037286 L -79.522449,33.03535 L -79.506923,33.032813 L -79.504068,33.027422 L -79.488727,33.015832 L -79.483271,33.009785 L -79.474681,33.011389 L -79.470555,33.010084 L -79.452848,33.012675 L -79.416356,33.016124 L -79.407286,33.01445 L -79.404422,33.019617 L -79.400647,33.017506 L -79.401081,33.011175 L -79.411626,33.010338 L -79.416515,33.006815 L -79.379999,33.009386 L -79.362292,33.009087 L -79.359796,33.01965 L -79.341495,33.053822 L -79.330205,33.086586 L -79.316063,33.099231 L -79.29056519825248,33.11022116581198 L -79.26924,33.119538 L -79.246423,33.126007 L -79.236625,33.137584 L -79.223725,33.14979 L -79.19449,33.169787 L -79.191519,33.173269 L -79.1832,33.190774 L -79.1832,33.19694 L -79.175713,33.21106 L -79.180563,33.237955 L -79.180318,33.254141 L -79.176414,33.277259 L -79.171637,33.295217 L -79.166332,33.308524 L -79.163761,33.312049 L -79.165546,33.318548 L -79.172129,33.325169 L -79.172108,33.329123 L -79.162672,33.331177 L -79.158516,33.336743 L -79.153015,33.352035 L -79.147496,33.378243 L -79.143205,33.388983 L -79.135441,33.403867 L -79.115361,33.43914 L -79.108949,33.447318 L -79.10136,33.461016 L -79.084588,33.483669 L -79.06494,33.501399 L -79.04396,33.51922 L -79.036452,33.533288 L -79.028634,33.533407 L -79.007356,33.566565 L -78.938076,33.639826 L -78.892375,33.679238 L -78.885639,33.684219 L -78.874739,33.695354 L -78.862931,33.705654 L -78.812931,33.743472 L -78.772737,33.768511 L -78.714116,33.800138 L -78.67226,33.817587 L -78.586515,33.844004 L -78.561977,33.848833 L -78.55464,33.849168 L -78.553768,33.852733 L -78.54711355411828,33.856347372478574 L -78.586964,33.890519 L -78.67489998925595,33.96520145390686 L -78.734834,34.016028 L -78.83272,34.098794 L -78.919565,34.171979 L -79.043623,34.276087 L -79.108761,34.330935 L -79.183052,34.393585 L -79.215389,34.420436 L -79.249069,34.449377 L -79.275187,34.472282 L -79.336465,34.526607 L -79.390844,34.573292 L -79.478599,34.644136 L -79.504564,34.665449 L -79.61776,34.757463 L -79.676494,34.805065 L -79.812277,34.80598 L -79.930958,34.806712 L -80.076661,34.809668 L -80.184404,34.811746 L -80.213783,34.812501 L -80.330706,34.814059 L -80.399923,34.815153 L -80.466389,34.81651 L -80.56171,34.817429 L -80.651627,34.818407 L -80.700814,34.819072 L -80.753131756675,34.819296440588964 L -80.797484,34.819803 L -80.79331879086328,34.853678471281704 L -80.790894,34.86945 L -80.785036,34.915054 L -80.781924,34.935828 L -80.821468,34.979504 L -80.840278,35.001692 L -80.854477,35.018524 L -80.893701,35.063206 L -80.906385,35.076277 L -80.92717,35.100257 L -80.934739,35.107318 L -80.961935,35.090443 L -80.989135,35.074946 L -81.031652,35.050027 L -81.041496,35.044713 L -81.050325,35.055998 L -81.05768300854923,35.06193449264247 L -81.05666856474785,35.08701192795239 L -81.05038,35.098372 L -81.036716,35.102735 L -81.033605,35.105702 L -81.032792,35.113788 L -81.038765,35.125449 L -81.05199392127842,35.13323555857039 L -81.048111,35.144102 L -81.044688,35.147734 L -81.034264,35.149257 L -81.094278,35.152613 L -81.145983,35.155861 L -81.307831,35.162866 L -81.348939,35.163989 L -81.406923,35.167139 L -81.435838,35.167628 L -81.503417,35.170378 L -81.572807,35.172741 L -81.703233,35.178254 L -81.763362,35.18049 L -81.796745,35.181339 L -81.828907,35.182632 L -81.942735,35.186096 L -81.992314,35.188273 L -82.04056,35.189449 L -82.106095,35.191299 L -82.134692,35.19299 L -82.163536,35.193521 L -82.290958,35.20008 L -82.29416,35.195411 L -82.313539,35.191056 L -82.323102,35.185173 L -82.329938,35.186776 L -82.343956,35.193411 L -82.351452,35.190379 L -82.355148,35.192087 L -82.362898,35.190211 L -82.361925,35.186726 L -82.369244,35.180648 L -82.372581,35.18084 L -82.380813,35.187458 L -82.38307,35.194237 L -82.377886,35.195775 L -82.382135,35.203429 L -82.383927,35.210848 L -82.390077,35.215335 L -82.39424,35.215094 L -82.399364,35.209347 L -82.398263,35.206861 L -82.408264,35.202452 L -82.41916,35.199414 L -82.424216,35.193076 L -82.432357,35.172372 L -82.440388,35.165592 L -82.45812,35.166651 L -82.451866,35.172497 L -82.454968,35.176941 L -82.459939,35.178005 L -82.468206,35.174353 L -82.486327,35.174173 L -82.498113,35.162558 L -82.503576,35.165921 L -82.507683,35.162272 L -82.514688,35.163568 L -82.519763,35.159175 L -82.527055,35.155876 L -82.535911,35.154476 L -82.537733,35.16033 L -82.542176,35.162117 L -82.55298,35.161645 L -82.556173,35.157465 L -82.55316,35.153393 L -82.557903,35.15068 L -82.564225,35.152358 L -82.568085,35.145709 L -82.577109,35.144738 L -82.591868,35.141255 L -82.597832,35.137709 L -82.611714,35.139997 L -82.61486,35.136227 L -82.622193,35.134862 L -82.627599,35.126343 L -82.633821,35.125223 L -82.636491,35.130065 L -82.643348,35.133782 L -82.644861,35.126987 L -82.651943,35.126194 L -82.656959,35.119258 L -82.66689,35.118054 L -82.67860399911058,35.12788565342556 L -82.687278,35.125294 L -82.687738,35.11905 L -82.692328,35.118939 L -82.693634,35.113242 L -82.687115,35.110773 L -82.689948,35.103899 L -82.69902,35.097789 L -82.706062,35.098535 L -82.71576,35.092854 L -82.723849,35.094482 L -82.729977,35.092031 L -82.736943,35.08152 L -82.740718,35.078273 L -82.75091,35.081875 L -82.751113,35.073893 L -82.756511,35.06736 L -82.76415285499641,35.068375528914345 L -82.770091,35.067739 L -82.775722,35.064561 L -82.781731,35.065305 L -82.778925,35.070561 L -82.776228,35.081164 L -82.783631,35.085622 L -82.895342,35.056733 L -82.982861,35.03406 L -83.108568,35.001354 L -83.108613,35.000659 L -83.10247,34.996895 L -83.098831,34.991955 L -83.107124,34.983227 L -83.111183,34.975719 L -83.120538,34.968444 L -83.12162,34.962766 L -83.119927,34.957367 L -83.12446,34.955027 L -83.127357,34.950195 L -83.120872,34.942039 L -83.116928,34.942734 L -83.111755,34.934963 L -83.121544,34.933586 L -83.126915,34.938568 L -83.13179,34.935337 L -83.131409,34.930359 L -83.141518,34.924515 L -83.154976,34.930641 L -83.158966,34.929138 L -83.15699,34.915123 L -83.160423,34.915016 L -83.168607,34.919355 L -83.174881,34.910133 L -83.180336,34.909809 L -83.180695,34.904579 L -83.189278,34.897255 L -83.194027,34.899615 L -83.197662,34.894768 L -83.204758,34.890217 L -83.201034,34.884407 L -83.205032,34.880329 L -83.209572,34.879856 L -83.217651,34.885139 L -83.219429,34.878574 L -83.239243,34.878857 L -83.24321,34.877064 L -83.237801,34.868965 L -83.2396375399505,34.86511454410742 L -83.248092,34.865577 L -83.247848,34.854786 L -83.252678,34.856014 L -83.253882,34.848494 L -83.260632,34.845285 L -83.267196,34.848469 L -83.27252,34.835666 L -83.268048,34.833084 L -83.267532,34.827106 L -83.270538,34.818871 L -83.277084,34.816998 L -83.284609,34.822829 L -83.296318,34.813221 L -83.302696,34.818897 L -83.306557,34.815304 L -83.304405,34.81115 L -83.299416,34.809452 L -83.302978,34.802303 L -83.314491,34.799252 L -83.32415,34.787479 L -83.319023,34.771099 L -83.3227,34.766846 L -83.323296,34.760738 L -83.32695,34.75555 L -83.326309,34.750839 L -83.338376,34.742331 L -83.339828,34.73811 L -83.349075,34.736633 L -83.353325,34.728691 L -83.352692,34.716904 L -83.350487,34.709694 L -83.346649,34.70422 L -83.35379,34.698166 L -83.340134,34.691483 L -83.33825696470748,34.68716501507812 L -83.342617,34.682991 L -83.337141,34.680143 L -83.329002,34.681137 L -83.321463,34.677543 L -83.316401,34.669316 L -83.304641,34.669561 L -83.300848,34.66247 L -83.293183,34.654296 L -83.279457,34.647808 L -83.271982,34.641896 L -83.260881,34.639896 L -83.253881,34.636696 L -83.247681,34.630896 L -83.246481,34.626897 L -83.240669,34.624507 L -83.243381,34.617997 L -83.23258,34.611597 L -83.223335,34.609554 L -83.208831,34.610705 L -83.199779,34.608398 L -83.195979,34.603198 L -83.185278,34.606998 L -83.172578,34.607798 L -83.159677,34.603298 L -83.170978,34.598798 L -83.168278,34.590998 L -83.158177,34.589598 L -83.154377,34.587198 L -83.159077,34.581499 L -83.143176,34.573399 L -83.139876,34.567999 L -83.140776,34.562699 L -83.133376,34.559499 L -83.129676,34.561699 L -83.122904,34.560117 L -83.121894,34.552338 L -83.116267,34.552172 L -83.110248,34.547056 L -83.109239,34.542178 L -83.103673,34.536617 L -83.10305,34.532967 L -83.09265062097909,34.532822631718886 L -83.084465,34.530502 L -83.077911,34.523773 L -83.086365,34.518074 L -83.078552,34.513378 L -83.076454,34.507793 L -83.069557,34.502224 L -83.065369,34.501091 L -83.058697,34.503583 L -83.053062,34.5009 L -83.053476,34.497261 L -83.042341,34.488072 L -83.034565,34.483571 L -83.028325,34.483841 L -83.017252,34.478247 L -82.999195,34.472447 L -82.994955,34.472537 L -82.993645,34.478157 L -82.979479,34.482961 L -82.974917,34.47935 L -82.963242,34.484363 L -82.958365,34.479456 L -82.948228,34.480492 L -82.943987,34.485515 L -82.930342,34.485583 L -82.925911,34.481529 L -82.917736,34.484168 L -82.901551,34.486764 L -82.892448,34.481107 L -82.887398,34.480959 L -82.880793,34.471886 L -82.881174,34.469479 L -82.873479,34.464319 L -82.871846,34.461189 L -82.8644,34.459785 L -82.858837,34.45522 L -82.860124,34.45284 L -82.855486,34.441791 L -82.854011,34.428818 L -82.849626,34.425678 L -82.847511,34.412761 L -82.841491,34.399123 L -82.841774,34.391553 L -82.835975,34.380909 L -82.835163,34.367406 L -82.833571,34.364092 L -82.824905,34.360413 L -82.798658,34.341777 L -82.79463979683982,34.34034947047431 L -82.791626,34.332928 L -82.791541,34.324714 L -82.787504,34.311303 L -82.782208,34.303529 L -82.782128,34.298278 L -82.771515,34.286053 L -82.766754,34.282322 L -82.761848,34.281803 L -82.754242,34.275787 L -82.746811,34.266588 L -82.748483,34.264325 L -82.743172,34.251598 L -82.744667,34.246456 L -82.742081,34.228962 L -82.744003,34.224407 L -82.740326,34.219746 L -82.74234,34.213432 L -82.740585,34.207268 L -82.732124,34.193321 L -82.732155,34.179619 L -82.72229,34.163837 L -82.717459,34.150546 L -82.704129,34.141021 L -82.690386,34.138293 L -82.68629,34.134454 L -82.675219,34.129779 L -82.668052,34.119258 L -82.667152,34.114178 L -82.658729,34.103772 L -82.646744,34.097678 L -82.642416,34.093264 L -82.640169,34.087329 L -82.645522,34.076069 L -82.641039,34.068424 L -82.634529,34.064892 L -82.627907,34.06419 L -82.621567,34.058174 L -82.620033,34.052734 L -82.612732,34.046509 L -82.607414,34.038071 L -82.596008,34.03093 L -82.59404760135642,34.02832260510443 L -82.595314,34.015224 L -82.589249,34.001184 L -82.585792,33.996694 L -82.577309,33.993547 L -82.575333,33.990556 L -82.579895,33.986875 L -82.579553,33.979688 L -82.569596,33.970421 L -82.566285,33.965065 L -82.564491,33.955733 L -82.556765,33.945324 L -82.543107,33.94095 L -82.534111,33.943651 L -82.524515,33.94336 L -82.51295,33.936969 L -82.503584,33.926048 L -82.494811,33.911712 L -82.480111,33.901897 L -82.469913,33.892838 L -82.459194,33.886189 L -82.455105,33.88165 L -82.438644,33.873919 L -82.43115,33.867051 L -82.422808,33.863757 L -82.408353,33.86632 L -82.402197,33.864656 L -82.395735,33.859088 L -82.384972,33.854428 L -82.369107,33.842375 L -82.346933,33.834298 L -82.337829,33.827156 L -82.326063,33.821108 L -82.31435,33.811111 L -82.31316,33.807816 L -82.300213,33.800627 L -82.298864,33.793166 L -82.299393,33.785037 L -82.295699,33.782014 L -82.285804,33.780058 L -82.278279,33.772509 L -82.265019,33.765742 L -82.263727,33.762358 L -82.255595,33.759876 L -82.247472,33.752591 L -82.245408,33.742926 L -82.240405,33.734901 L -82.23578,33.714623 L -82.237139,33.708403 L -82.23432,33.699836 L -82.217124,33.684344 L -82.209803,33.669276 L -82.199803,33.661325 L -82.201181,33.648591 L -82.196584,33.630583 L -82.186155,33.620881 L -82.174351,33.613117 L -82.158331,33.60971 L -82.153357,33.606319 L -82.150278,33.599748 L -82.142872,33.594278 L -82.133523,33.590535 L -82.125864,33.590741 L -82.116545,33.596485 L -82.10624,33.595637 L -82.098816,33.586358 L -82.09310026771031,33.58231377821263 L -82.073104,33.57751 L -82.057727,33.566774 L -82.046335,33.56383 L -82.037375,33.554662 L -82.033023,33.546454 L -82.028238,33.544934 L -82.019838,33.535035 L -82.01247,33.532116 L -82.00983,33.530313 L -82.007138,33.522835 L -82.001338,33.520135 L -81.990382,33.500759 L -81.99093166332605,33.49429043162528 L -81.985938,33.486536 L -81.980637,33.484036 L -81.967037,33.480636 L -81.946437,33.471737 L -81.934136,33.468337 L -81.926336,33.462937 L -81.919436,33.449098 L -81.914812,33.443498 L -81.913126,33.438333 L -81.917324,33.432346 L -81.93139,33.428474 L -81.931134,33.423978 L -81.920776,33.417306 L -81.912029,33.415595 L -81.909789,33.411388 L -81.912098,33.40826 L -81.920417,33.408102 L -81.926142,33.411372 L -81.933454,33.4067 L -81.941692,33.409099 L -81.944476,33.403674 L -81.935085,33.397243 L -81.931549,33.382156 L -81.924979,33.37514 L -81.925737,33.37114 L -81.930634,33.368165 L -81.939637,33.37254 L -81.94576767912424,33.371155437177514 L -81.944737,33.364041 L -81.934889,33.356122 L -81.939837,33.347741 L -81.938037,33.343841 L -81.923163,33.34464 L -81.918548,33.340398 L -81.918337,33.332842 L -81.906037,33.326042 L -81.900953,33.335443 L -81.896937,33.330542 L -81.899037,33.323342 L -81.889137,33.321043 L -81.883737,33.317643 L -81.882037,33.312643 L -81.884537,33.309843 L -81.880737,33.302243 L -81.869336,33.313743 L -81.864936,33.311843 L -81.864736,33.304043 L -81.86206,33.302482 L -81.855682,33.310236 L -81.847736,33.307243 L -81.849336,33.300444 L -81.860036,33.299144 L -81.863336,33.289844 L -81.857636,33.284644 L -81.846536,33.284444 L -81.844036,33.278644 L -81.835738,33.271045 L -81.835736,33.262645 L -81.843862,33.266621 L -81.848136,33.263945 L -81.845136,33.252545 L -81.849036,33.253045 L -81.852822,33.248542 L -81.846536,33.241746 L -81.837936,33.238346 L -81.827936,33.228746 L -81.822536,33.227646 L -81.809236,33.222147 L -81.808136,33.214847 L -81.805238,33.211441 L -81.798236,33.211647 L -81.789236,33.208247 L -81.778935,33.209847 L -81.777335,33.214947 L -81.781035,33.219847 L -81.773735,33.221047 L -81.767935,33.216347 L -81.763535,33.203648 L -81.756935,33.197848 L -81.760635,33.189248 L -81.767735,33.184648 L -81.767035,33.177849 L -81.768235,33.167949 L -81.764435,33.165549 L -81.762735,33.158848 L -81.752135,33.14855 L -81.746335,33.14605 L -81.743835,33.14145 L -81.729534,33.13375 L -81.721734,33.126451 L -81.710734,33.12135 L -81.704634,33.11645 L -81.696934,33.116551 L -81.679433,33.111751 L -81.671833,33.107751 L -81.659033,33.103451 L -81.645433,33.094051 L -81.634032,33.093752 L -81.614033,33.095251 L -81.608286,33.089022 L -81.612943,33.083981 L -81.610696,33.079946 L -81.60132,33.087049 L -81.596501,33.079893 L -81.600948,33.072815 L -81.590856,33.072736 L -81.57875,33.066195 L -81.571309,33.056873 L -81.566311,33.05343 L -81.562769,33.056123 L -81.559173,33.051765 L -81.565501,33.047888 L -81.558613,33.044508 L -81.551786,33.04339 L -81.546598,33.048827 L -81.542242,33.047364 L -81.540081,33.040613 L -81.535498,33.038489 L -81.53072,33.040864 L -81.528451,33.035646 L -81.519632,33.029181 L -81.513231,33.028546 L -81.510586,33.025805 L -81.508397,33.015546 L -81.504053,33.016253 L -81.491899,33.006694 L -81.49983,33.004154 L -81.49983,33.000705 L -81.491197,32.997824 L -81.496138,32.990913 L -81.494329,32.98626 L -81.494736,32.978997 L -81.497837,32.973011 L -81.49983,32.963816 L -81.502456,32.962798 L -81.511156,32.967989 L -81.508609,32.952551 L -81.499446,32.944988 L -81.502427,32.935353 L -81.495092,32.931596 L -81.483198,32.921802 L -81.487258,32.917851 L -81.481298,32.914585 L -81.479184,32.905638 L -81.480865,32.900218 L -81.472142,32.893814 L -81.471616,32.900005 L -81.4677,32.9009 L -81.465206,32.895474 L -81.476396,32.887962 L -81.479445,32.881082 L -81.475918,32.87764 L -81.468042,32.876675 L -81.465051,32.880896 L -81.458411,32.873956 L -81.45339,32.87388 L -81.451351,32.868583 L -81.453017,32.859636 L -81.457061,32.850389 L -81.451199,32.847924 L -81.444866,32.850966 L -81.440357,32.84113 L -81.434807,32.843538 L -81.426475,32.840773 L -81.421614,32.835178 L -81.423674,32.828307 L -81.418497,32.815664 L -81.426326,32.809928 L -81.422242,32.803127 L -81.426895,32.802239 L -81.425234,32.79419 L -81.427425,32.78832 L -81.422633,32.785916 L -81.423331,32.778512 L -81.414456,32.778149 L -81.417353,32.773336 L -81.429854,32.772129 L -81.429113,32.767905 L -81.418943,32.767629 L -81.411839,32.762147 L -81.419837,32.749797 L -81.416575,32.747948 L -81.405866,32.749144 L -81.406074,32.741625 L -81.41267,32.739083 L -81.411595,32.733852 L -81.416752,32.728762 L -81.419349,32.718394 L -81.415038,32.714483 L -81.421194,32.711978 L -81.427505,32.702242 L -81.420596,32.699834 L -81.418881,32.696212 L -81.413577,32.695472 L -81.405711,32.688727 L -81.401029,32.677494 L -81.404287,32.667797 L -81.397544,32.662591 L -81.400144,32.656945 L -81.393033,32.651542 L -81.405109,32.64269 L -81.411827,32.639383 L -81.402735,32.637031 L -81.407271,32.631737 L -81.418171,32.635154 L -81.417381,32.627392 L -81.413087,32.624803 L -81.412966,32.620401 L -81.407517,32.616583 L -81.406464,32.613042 L -81.393765,32.602331 L -81.389205,32.595416 L -81.378883,32.588912 L -81.373145,32.592094 L -81.369826,32.591175 L -81.369819,32.585048 L -81.354621,32.580315 L -81.357803,32.57519 L -81.355926,32.571606 L -81.348487,32.569332 L -81.328605,32.561092 L -81.319121,32.559596 L -81.299796,32.563049 L -81.295608,32.561539 L -81.298072,32.555343 L -81.291297,32.556126 L -81.289863,32.562084 L -81.284049,32.556365 L -81.279497,32.555 L -81.281034,32.549678 L -81.274908,32.544761 L -81.275112,32.540079 L -81.27960124908856,32.53779351108872 L -81.271923,32.529984 L -81.266811,32.527867 L -81.251069,32.517805 L -81.243484,32.520693 L -81.239599,32.516379 L -81.235038,32.518687 L -81.232113,32.513741 L -81.237931,32.510786 L -81.238216,32.505795 L -81.234206,32.502648 L -81.233111,32.498069 L -81.224843,32.491759 L -81.219146,32.485107 L -81.200408,32.468314 L -81.194894,32.465207 L -81.188608,32.465308 L -81.18825,32.461488 L -81.194412,32.458909 L -81.191615,32.455188 L -81.204578,32.452696 L -81.206641,32.447589 L -81.19965,32.444775 L -81.200325,32.440875 L -81.208472,32.436183 L -81.205026,32.4268 L -81.205572,32.423893 L -81.195279,32.411882 L -81.189725,32.406869 L -81.186425,32.401359 L -81.178283,32.392986 L -81.177784,32.386231 L -81.181075,32.378768 L -81.168838,32.369968 L -81.167124,32.358718 L -81.160998,32.355905 L -81.161608,32.35042 L -81.154608,32.350068 L -81.155843,32.343013 L -81.145982,32.345018 L -81.147318,32.350127 L -81.141323,32.350085 L -81.139296,32.345025 L -81.128535,32.338381 L -81.138013,32.32824 L -81.135694,32.324393 L -81.130678,32.325621 L -81.131627,32.318644 L -81.129777,32.314256 L -81.133004,32.308512 L -81.122631,32.30699 L -81.123854,32.296767 L -81.119784,32.286368 L -81.127322,32.281629 L -81.123276,32.276975 L -81.141414,32.272039 L -81.13693,32.266115 L -81.146432,32.263173 L -81.144739,32.25806 L -81.148022,32.25602 L -81.147129,32.24955 L -81.15577,32.245793 L -81.156454,32.242396 L -81.152615,32.236508 L -81.144017,32.230215 L -81.143175,32.221739 L -81.138925,32.219768 L -81.13507,32.212066 L -81.129309,32.209487 L -81.123149,32.20132 L -81.121234,32.192601 L -81.118237,32.189203 L -81.119838,32.17757 L -81.111933,32.178002 L -81.111132,32.172703 L -81.117893,32.171543 L -81.121149,32.174902 L -81.128142,32.169097 L -81.128433,32.164408 L -81.12203,32.161796 L -81.120034,32.153303 L -81.112234,32.149306 L -81.117335,32.146203 L -81.119813,32.133495 L -81.115247,32.125504 L -81.117225,32.117604 L -81.113687,32.113258 L -81.106703,32.109698 L -81.095512,32.111893 L -81.091029,32.110558 L -81.08704,32.104072 L -81.08827,32.099931 L -81.075391,32.098035 L -81.059732,32.088651 L -81.045868,32.086538 L -81.038125,32.083734 L -81.026296,32.088103 L -81.021597,32.091703 L -81.017355,32.098785 L -81.012444,32.101742 L -81.004305,32.102367 L -80.992138,32.094915 L -80.983509,32.079549 L -80.971915,32.074633 L -80.959569,32.072854 L -80.954031,32.07029 L -80.925085,32.041939 L -80.921027,32.03999 L -80.9076568863527,32.03815105635481 Z M -80.186317,32.55302 L -80.182049,32.547222 L -80.177956,32.549683 L -80.186317,32.55302 Z" fill="none" stroke=currentColor stroke-width="1" vector-effect="non-scaling-stroke"/>
</svg>