<?xml version="1.0"?>
<svg width="200" height="200" xmlns="http://www.w3.org/2000/svg" version="1.2" baseProfile="tiny" viewBox="-64.000 -215.500 928.000 928.000" stroke-linecap="round" stroke-linejoin="round">
<g id="state">
<path vector-effect="non-scaling-stroke" d="M 791.88 351.05 776.77 351.69 776.77 352.31 778.32 353.16 778.22 354.75 778.38 355.78 778.71 356.41 777.84 357.03 777.6 357.54 776.93 357.89 776.73 358.99 777.8 361.25 779.77 361.44 780.26 362.04 779.9 363.14 780.48 363.44 782.01 365.15 782.58 365.21 783.81 366.43 785.07 366.21 785.5 367.66 785.26 368.61 785.6 369.09 785.44 369.66 784.66 370.52 785.03 370.99 785.1 372.98 785.46 373.17 784.42 374.71 784.81 375.37 784.65 375.83 785.13 376.43 784.94 376.97 785.49 377.48 785.66 378.16 784.97 379.27 785.09 379.94 784.03 380.6 782.81 381.02 782.61 380.51 781.62 380.81 780.54 380.23 779.67 380.4 780.1 381.19 779.89 381.71 780.33 383.19 779.45 383.89 779.74 384.72 780.58 384.68 781.24 385.37 782.13 385.83 782.97 385.77 783.11 386.85 783.44 387.33 781.87 387.95 781.23 388.75 781.6 389.84 782.73 390.94 782.98 390.44 784.56 390.52 785 390.22 785.99 390.69 786.96 391.53 789.1 390.6 790.3 390.5 791.18 390.76 791.29 392.08 791.88 392.79 791.49 393.48 791.82 394.43 791.65 395.25 792.62 396.26 792.33 398.06 792.57 399.56 792.89 400.47 792.49 400.74 793.32 401.75 794.39 401.94 795.21 403.16 795.64 404.79 796 405.11 795.7 406.03 795.04 406.61 794.31 408.39 793.74 408.68 793.46 409.52 794.23 409.68 794.39 410.37 794.32 411.5 793.82 413.11 793.15 413.48 792.16 413.42 790.97 414.69 790.92 415.08 789.37 415.53 788.9 415.34 788.41 415.81 788.22 416.63 788.92 417.08 788.48 418.23 788.91 419.04 790.04 419.68 790.9 420.95 790.41 422.68 789.37 422.96 788.84 423.61 788.91 424.55 788.07 425.39 788.62 426.36 789.76 426.58 790 426.97 790.14 428.54 789.48 429.06 789.5 430.25 788.47 430.99 788.82 432.07 787.96 431.69 786.96 432.99 786.41 433.28 786.65 434.28 786.47 435.1 786.89 436.03 786.23 436.33 787.77 437.13 787.96 438.12 787.18 438.16 786.33 439.11 786.93 439.9 786.02 440.5 786.1 442.93 786.69 442.81 786.35 443.96 785.34 444.09 785.4 444.89 786.01 445.3 785.61 446.02 784.94 445.52 784.55 446 783.84 446.21 783.33 445.83 782.6 445.88 782.52 446.39 783.06 447.24 782.22 447.9 782.43 448.57 781.23 449.24 781.27 449.84 781.82 450.1 781.67 451.13 781.22 452.48 780.69 453.01 780.45 453.78 779.27 453.54 778.89 453.74 778.71 454.74 778.31 455.47 777.68 456.03 777.38 456.71 778.47 457.94 777.86 459.34 777.51 459.74 778.04 461.32 778.78 462.67 778.43 463.16 778.84 463.58 778.3 464.95 779.17 464.96 779.46 465.68 780.12 465.75 780.88 465.31 781.86 466.26 781.9 466.77 782.97 466.96 783.06 467.92 784.02 467.87 785.17 468.94 785.83 469.78 785.93 471.22 786.52 471.29 787.34 470.81 788.25 471.56 788.28 472.74 788.76 473.31 789.56 473.61 790.82 475.4 790.56 476.61 789.52 476.86 789.17 477.32 789.37 478 789.83 478.15 790.42 477.15 791.51 477.59 792.07 478.66 792.6 480.19 792.71 480.97 793.57 481.29 793.12 482.13 794.21 483.11 792.93 484.92 793.14 485.46 795.28 485.51 795.37 487.02 795.16 490.04 794.05 490.66 793.78 491.33 794.29 491.86 795.34 491.94 795.99 492.96 795.65 493.78 795.66 494.76 797 494.77 797.94 494.44 799 494.66 797.52 495.26 795.9 496.29 794.43 496.36 793.17 496.04 792.38 495.51 791.57 494.48 791.03 493.07 790.5 492.25 789.09 491.17 787.94 490.88 786.99 490.94 785.47 491.67 784.27 492.85 783.57 493.22 782.28 493.41 781.32 493.15 779.86 492.21 779.21 490.71 778.92 488.45 778.36 486.8 777.25 485.59 776.09 484.84 774.25 484.17 773.05 483.14 771.72 481.31 770.91 480.37 770.36 479.13 770.27 477.95 770.65 476.66 772.09 474.22 772.45 473.92 772.58 472.68 771.46 471.81 768.23 470.84 766.25 471.01 764.47 471.69 763.13 471.64 761.39 471.23 760.41 470.39 760.54 468.76 760.32 466.61 759.81 465.86 758.4 465.4 757.33 465.35 755.82 464.87 754.03 463.72 752.79 463.32 751.42 463.25 748.97 462.05 747.9 462.38 746.35 463.58 745.94 464.2 744.02 464.33 743.21 464.15 742.99 462.97 743.36 461.88 743.28 461.15 742.5 459.45 741.77 458.84 740.93 458.54 740.22 458.72 738.14 458.62 736.18 458.37 735.58 457.96 733.62 457.44 731.58 457.22 729.13 457.72 727.01 457.8 725.46 457.55 725 457.14 724.56 455.88 723.18 454.2 721.78 453.44 719.28 453.02 717.93 452.97 716.9 452.46 716.62 452.08 716.38 450.71 716 449.86 715.96 447.62 715.66 447.21 714.41 446.56 712.69 446.06 710.82 446.49 708.32 446.17 706.49 444.51 705.53 445.15 704.97 445.24 704.02 445.9 702.94 446.3 700.79 446.48 700.06 446.03 699.18 445.09 697.38 445.29 696.08 444.75 694.95 445.13 694.33 445.82 694.11 446.47 692.73 447.88 691.64 448.1 690.36 447.66 689.17 447.5 687.7 447.54 686.72 447.19 685.79 446.47 683.99 447.45 681.66 448.05 679.86 448.21 676.7 447.41 675.44 446.81 673.71 447.12 670.97 448.5 668.74 449.21 666.84 449.35 665.32 449.2 663.25 448.73 660.13 448.52 657.6 448.54 656.12 448.06 654.75 447.44 653.08 446.95 652.14 446.15 651.56 445.97 650.1 446.18 647.97 446.94 646.97 447.56 646.98 449 646.65 449.71 646.62 450.74 645.75 453.5 645.17 454.3 644.1 456.16 643.11 457.36 642.42 457.7 640.86 459.53 639.79 460.27 638.23 460.6 636.72 460.46 635.23 461.2 632.94 461.64 630.59 461.44 630.2 461.14 628.78 460.8 627.91 460.19 627.6 459.1 625.47 457.27 624.06 456.44 622.8 455.02 620.69 453.72 619.56 451.95 618.59 450.96 616.09 451.38 614.11 450.78 610.93 449.21 609.64 448.1 608.06 447.1 607.73 446.62 606.84 446.27 604.56 446.23 602.72 445.55 600.4 444.96 599.03 444.14 598.65 443.42 597.95 442.69 596.48 441.87 594.47 441.01 593.29 440.28 591.03 439.28 589.67 438.43 588.6 438.51 587.69 439 587.04 438.67 586.91 438.03 585.68 436.88 584.78 436.32 583.5 434.05 582.25 432.02 581.67 430.59 581.35 429.1 574.75 429.24 567.71 429.34 554.83 429.57 551.35 429.66 541.39 429.8 527.06 429.96 514.72 430.13 514.39 430.08 508.53 430.2 501.49 430.25 497.92 430.31 479.67 430.46 468.39 430.52 455.86 430.6 440.11 430.62 428.53 430.62 428.3 430.68 422.05 430.58 420.85 430.61 408.62 430.56 401.05 430.5 398.26 430.52 381.22 430.39 369.45 430.31 365.54 430.41 342.21 430.21 339.33 430.14 331.67 430.12 321.45 429.98 317.51 429.99 315.4 429.94 292.14 429.65 273.21 429.41 269.88 429.34 260.29 429.21 253.75 429.16 245.3 428.95 229.75 428.2 215.98 427.89 206.8 427.64 202.31 427.55 189.31 427.16 180.53 426.92 169.87 426.57 150.05 425.93 147.23 425.81 124.75 425.04 122.53 424.9 108.79 424.36 93.19 423.75 82.3 423.31 68.75 422.74 61.28 422.48 53.5 422.07 47.94 421.88 42.69 421.53 38.92 421.42 27.63 420.85 20.21 420.55 14.38 420.28 10.07 419.95 7.48 419.83 1 419.66 1.84 401.99 2.64 384.88 3.04 376.47 3.49 366.4 3.9 358.21 4.96 336.83 5.69 321.89 6.2 311.43 6.82 298.37 7.95 277.55 8.54 265.95 9.26 251.9 9.66 242 10.43 226.07 11.51 203.98 12.03 193.43 12.26 189.32 13.42 166.13 13.95 154.27 14.06 153.14 14.74 135.7 16.58 135.72 16.92 127.6 17.44 117.8 18.43 97.83 19.31 79.49 19.94 65.49 20.73 47.39 21.66 28.06 22.26 14.04 22.72 1 36.39 1.67 39.86 1.86 52.01 2.42 52.76 2.48 64.4 2.98 76.8 3.53 89.85 4.1 111.62 4.98 128.13 5.61 143.54 6.15 161 6.73 162.42 6.83 171.17 7.12 176.09 7.24 197.47 7.91 200.91 7.99 209.95 8.27 217.08 8.42 221.54 8.58 231.81 8.85 235.94 8.9 247.01 9.22 261 9.53 266.54 9.63 273.29 9.8 283.33 10.02 287.98 10.04 296.57 10.21 314.44 10.46 317.17 10.57 321 10.64 336.03 10.76 341.89 10.86 349.87 10.93 352.72 10.9 359.96 11.02 366.67 11.05 383.65 11.2 386.8 11.26 393.82 11.27 408.49 11.44 417.55 11.5 426.08 11.53 439.04 11.62 448.74 11.64 454.48 11.59 464.79 11.55 473.72 11.58 479.78 11.57 487.96 11.5 494.3 11.48 504.22 11.41 518.13 11.26 527.33 11.21 547.02 11.03 553.14 10.96 563.48 10.88 570.69 10.86 578.15 10.8 593.32 10.57 601.66 10.38 620.29 10.01 625.22 9.88 641.73 9.5 659.01 9.03 674.51 8.61 677.76 8.49 679.64 8.32 695.59 7.83 699.76 7.74 705.67 7.5 722.57 6.87 727.78 6.72 732.94 6.47 743.82 6.06 750.6 5.75 758.25 5.52 765.74 5.23 765.65 5.97 765.8 7.35 765.25 8.36 765.71 8.73 765.46 10.11 765.51 11.97 765.26 12.27 765.28 14.41 765.06 15.01 765.25 15.75 765.22 18.25 764.95 19.13 764.81 20.86 764.43 21.84 763.2 22.93 762.04 25.04 761.61 25.61 760.49 26.44 759.21 28.75 759.01 30.5 758.06 32.4 757.08 33.6 756.11 34.55 754.7 35.52 752.36 36.81 748.56 39.64 747.73 41.1 744.23 43.91 743.37 44.47 740.04 47.28 739.53 48.43 739.02 50.53 738.85 51.94 738.46 53.34 739.98 55.11 744.26 60.26 745.06 60.87 746.42 62.92 748.28 65.12 750.25 69.5 750.5 70.64 750.99 71.51 751.24 72.59 751.84 73.95 752.59 74.71 754.73 77.87 755.96 79.44 757.21 80.36 759.04 80.5 760.22 80.27 760.83 80.44 761.68 80.26 763.3 80.34 765.2 81.07 767.5 82.53 769.21 83.34 770.87 83.99 772.39 84.29 773.32 84.65 774.49 85.62 775.37 86.01 776.72 87.15 777.7 89.44 778.9 91.64 779.07 92.53 779.71 93.18 780.68 95.01 781.41 109.86 781.46 111.85 781.71 116.29 781.82 119.96 782.17 126.85 782.65 137.53 783.36 153.38 783.93 165.31 783.98 167.57 784.5 177.84 784.57 179.99 785.53 202.67 785.58 204.39 786.04 214.47 786.49 225.13 787.08 239.83 787.85 257.98 788.19 266.65 788.78 279.86 789.32 293.31 789.73 301.4 789.93 305.53 790.16 311.74 790.77 326.22 791.33 338.63 791.88 351.05 Z" fill="none" stroke="currentColor" stroke-width="1"/>
</g>
</svg>