<svg viewBox="-104.8200102 -46.707487199999996 9.145574400000001 4.989509399999996" xmlns="http://www.w3.org/2000/svg">
  <path d="M -96.45326004165615,43.50040514201162 L -96.453359,43.587702 L -96.45347,43.67496 L -96.45328,43.77682 L -96.452873,43.820443 L -96.452988,43.849507 L -96.453533,43.906408 L -96.453085,44.000975 L -96.453159,44.093851 L -96.452767,44.15475 L -96.452571,44.282432 L -96.45206,44.385727 L -96.451873,44.460719 L -96.45207,44.531551 L -96.45182,44.543652 L -96.451474,44.703171 L -96.451234,44.718273 L -96.451871,44.790488 L -96.45144,44.806361 L -96.451826,44.890258 L -96.451995,45.001698 L -96.452097,45.076839 L -96.452626,45.125274 L -96.452071,45.151078 L -96.452684,45.182322 L -96.452296,45.19628 L -96.453097,45.300751 L -96.46191,45.313884 L -96.468027,45.318619 L -96.469246,45.324941 L -96.480258,45.340739 L -96.489065,45.357071 L -96.502006,45.365473 L -96.510531,45.368498 L -96.521787,45.375645 L -96.530944,45.378495 L -96.545973,45.38105 L -96.562142,45.38609 L -96.578879,45.392295 L -96.60118,45.403181 L -96.619752,45.408884 L -96.635889,45.409943 L -96.644462,45.408892 L -96.65043,45.410298 L -96.662258,45.409011 L -96.680454,45.410499 L -96.692541,45.417338 L -96.70423,45.428674 L -96.72425,45.451482 L -96.731396,45.45702 L -96.736837,45.466775 L -96.738916,45.474402 L -96.743486,45.480649 L -96.745487,45.488712 L -96.763432,45.520007 L -96.781036,45.535972 L -96.79384,45.550724 L -96.801591,45.555251 L -96.8424,45.592585 L -96.856834,45.605378 L -96.852439,45.61511 L -96.850163,45.62496 L -96.844211,45.639583 L -96.838648,45.647509 L -96.804255,45.666329 L -96.795432,45.669991 L -96.759312,45.688744 L -96.75035,45.698782 L -96.711157,45.717561 L -96.687224,45.725931 L -96.672665,45.732336 L -96.662595,45.738682 L -96.652226,45.746809 L -96.641941,45.759871 L -96.639222,45.772096 L -96.625347,45.787924 L -96.613858,45.793434 L -96.609209,45.797353 L -96.596704,45.811801 L -96.583932,45.819042 L -96.57974,45.82582 L -96.577534,45.83793 L -96.574517,45.844044 L -96.573079,45.861524 L -96.574667,45.866816 L -96.572229,45.870935 L -96.571527,45.885958 L -96.568866,45.888023 L -96.568555,45.901045 L -96.565512,45.910681 L -96.56998937914098,45.913409052985244 L -96.563975,45.920324 L -96.564961,45.930076 L -96.563672,45.935245 L -96.639135,45.935378 L -96.716165,45.93598 L -96.784448,45.935739 L -96.894076,45.935849 L -96.946066,45.935467 L -96.998477,45.935757 L -97.168705,45.935652 L -97.228291,45.935383 L -97.270226,45.935703 L -97.430883,45.935994 L -97.449798,45.935171 L -97.482542,45.935091 L -97.638584,45.935354 L -97.812633,45.935511 L -97.978778,45.935863 L -98.0285,45.935777 L -98.215975,45.93624 L -98.29995163717913,45.936134647948954 L -98.452688,45.936701 L -98.5278,45.937245 L -98.600282,45.937997 L -98.704361,45.938646 L -98.766039,45.938825 L -98.964154,45.939519 L -99.056849,45.939942 L -99.196801,45.939954 L -99.296714,45.940059 L -99.36053,45.940332 L -99.442795,45.94026 L -99.50380064072198,45.94047015024072 L -99.593742,45.940999 L -99.697516,45.941021 L -99.755276,45.940808 L -99.852939,45.941162 L -99.983356,45.941867 L -100.069258,45.942051 L -100.160465,45.942402 L -100.308163,45.943258 L -100.378754,45.943156 L -100.410523,45.943484 L -100.581449,45.943785 L -100.649018,45.943649 L -100.721831,45.944021 L -100.750596,45.943662 L -100.830862,45.943622 L -100.889876,45.943855 L -101.041137,45.943455 L -101.07975487162344,45.94355291329556 L -101.107237,45.944068 L -101.287152,45.944009 L -101.373605,45.944218 L -101.420443,45.943806 L -101.52153,45.944043 L -101.589531,45.944347 L -101.64524996299778,45.94426063801593 L -101.786099,45.944341 L -101.89761,45.944811 L -101.93921,45.944461 L -102.04256,45.944588 L -102.087523,45.944922 L -102.159334,45.944641 L -102.250397,45.944932 L -102.284982,45.94482 L -102.500314,45.945061 L -102.549895,45.944836 L -102.637962,45.944904 L -102.652345,45.945269 L -102.828182,45.945179 L -102.983434,45.945079 L -103.14972582092888,45.94512265573774 L -103.369029,45.945152 L -103.500553,45.945252 L -103.625499,45.945303 L -103.742794,45.945066 L -103.750347,45.945255 L -103.872818,45.945191 L -103.907762,45.945356 L -104.04554154702465,45.94530799066831 L -104.043661,45.853705 L -104.042649,45.755121 L -104.042315,45.619227 L -104.041143,45.491948 L -104.040409,45.393533 L -104.040061,45.264596 L -104.040046,45.124104 L -104.040253,45.055171 L -104.039694,44.99807 L -104.057879,44.997605 L -104.055913,44.874986 L -104.056495,44.867034 L -104.055865,44.783624 L -104.055749,44.620534 L -104.056012,44.591587 L -104.055926,44.517359 L -104.05562630720367,44.36203461560905 L -104.055389,44.249983 L -104.054487,44.180381 L -104.05463,44.081558 L -104.054688,43.999979 L -104.055487,43.853476 L -104.055176,43.761633 L -104.055038,43.688094 L -104.054879,43.582999 L -104.05477,43.432643 L -104.054721,43.375102 L -104.05419,43.30424 L -104.053967,43.245132 L -104.053471,43.124857 L -104.053028,43.000585 L -103.990999,43.00169 L -103.96621704781764,43.00170698831352 L -103.924865,43.000918 L -103.869045,43.000928 L -103.798007,43.00133 L -103.689817,43.001003 L -103.653706,43.001421 L -103.603389,43.000617 L -103.550189,43.000984 L -103.475638,43.00048 L -103.40412092281707,43.00089327715337 L -103.274384,43.00083 L -103.170092,43.000817 L -103.020732,43.000707 L -102.889187,43.000438 L -102.867895,42.99998 L -102.652618,42.999985 L -102.625701,42.999773 L -102.435959,42.999607 L -102.333891,42.999395 L -102.2498,42.999447 L -102.125427,42.999196 L -102.082486,42.999355 L -101.994598,42.999229 L -101.862762,42.999374 L -101.713906,42.996533 L -101.633007,42.996255 L -101.570458,42.996802 L -101.478662,42.997154 L -101.446815,42.997087 L -101.265749,42.997661 L -101.043147,42.99796 L -101.022989,42.997757 L -100.985274,42.998156 L -100.88752,42.998015 L -100.814164,42.998426 L -100.786619,42.99816 L -100.563416,42.998153 L -100.525978,42.999042 L -100.413362,42.99895 L -100.250405,42.998542 L -100.223659,42.998734 L -100.15122,42.998421 L -100.034201,42.998145 L -100.022736,42.998376 L -99.962985,42.997661 L -99.96078,42.998085 L -99.849943,42.997999 L -99.699308,42.997801 L -99.57942161578207,42.99796919486086 L -99.471513,42.997917 L -99.296833,42.998048 L -99.26271,42.998234 L -99.19536,42.998086 L -99.139306,42.998499 L -99.136159,42.998155 L -99.01804451453057,42.998347731881246 L -98.880969,42.998182 L -98.785629,42.998147 L -98.752313,42.998408 L -98.629115,42.998532 L -98.561725,42.99838 L -98.49855,42.998559 L -98.495747,42.988032 L -98.490483,42.977948 L -98.478919,42.963539 L -98.467086,42.947407 L -98.458515,42.943374 L -98.447047,42.935117 L -98.445861,42.93062 L -98.439743,42.928195 L -98.430934,42.931504 L -98.42074,42.931924 L -98.407824,42.92575 L -98.386445,42.918407 L -98.375358,42.913132 L -98.356264,42.906788 L -98.342408,42.900847 L -98.335849,42.895657 L -98.332422,42.8905 L -98.319513,42.88454 L -98.297465,42.880059 L -98.280007,42.874996 L -98.258276,42.87439 L -98.24982,42.871843 L -98.24683,42.868397 L -98.231922,42.86114 L -98.219826,42.853157 L -98.189811,42.841643 L -98.171113,42.837114 L -98.147109,42.839631 L -98.138103,42.832543 L -98.127674,42.819956 L -98.107856,42.810473 L -98.096172,42.800269 L -98.082911,42.7942 L -98.062999,42.781001 L -98.060359,42.773334 L -98.052197,42.768884 L -98.038696,42.766274 L -98.035071,42.764114 L -98.012699,42.762301 L -97.990871,42.764999 L -97.97642,42.769912 L -97.962067,42.768637 L -97.947189,42.770709 L -97.936746,42.775683 L -97.92148,42.788275 L -97.91485,42.79052 L -97.905058,42.798797 L -97.894466,42.811606 L -97.888647,42.817177 L -97.879692,42.83634 L -97.87912,42.843602 L -97.875813,42.848526 L -97.875531,42.858656 L -97.86587,42.862814 L -97.845393,42.86772 L -97.831393,42.86896 L -97.825872,42.867536 L -97.817112,42.861777 L -97.801331,42.858 L -97.788414,42.853359 L -97.774381,42.84974 L -97.750242,42.84941 L -97.72056725148018,42.84729579447741 L -97.700964,42.843591 L -97.686477,42.842212 L -97.668319,42.842807 L -97.646806,42.847376 L -97.620323,42.856522 L -97.603762,42.858329 L -97.591916,42.853837 L -97.561928,42.847552 L -97.54474,42.848275 L -97.522371,42.851979 L -97.504847,42.858477 L -97.49623,42.853231 L -97.48701,42.850582 L -97.472989,42.85051 L -97.461666,42.849176 L -97.449565,42.845807 L -97.439114,42.84711 L -97.425543,42.856658 L -97.42319,42.861168 L -97.417066,42.865918 L -97.406155,42.868291 L -97.393964,42.86425 L -97.376695,42.865195 L -97.368643,42.858419 L -97.361784,42.855123 L -97.341181,42.855882 L -97.330749,42.858406 L -97.321529,42.862803 L -97.316173,42.863342 L -97.3067452409893,42.867587807222876 L -97.289859,42.855499 L -97.266105,42.852701 L -97.248116,42.855287 L -97.231929,42.851335 L -97.22017179934443,42.84645896324198 L -97.217411,42.843519 L -97.21783,42.827766 L -97.214476,42.821761 L -97.212659,42.812069 L -97.210126,42.809296 L -97.200431,42.805485 L -97.1876,42.804835 L -97.163857,42.801257 L -97.150763,42.795566 L -97.138216,42.783428 L -97.134461,42.774494 L -97.130257,42.771541 L -97.115508,42.769344 L -97.09535,42.769362 L -97.071849,42.772305 L -97.05244318281653,42.77022599239364 L -97.033925,42.766098 L -97.02839,42.763043 L -97.009782,42.760797 L -96.99007,42.759537 L -96.983181,42.760599 L -96.975339,42.758321 L -96.968566,42.753847 L -96.961752,42.741682 L -96.961291,42.736569 L -96.965186,42.728994 L -96.963531,42.720643 L -96.955862,42.719178 L -96.937589,42.719597 L -96.933454,42.723806 L -96.918282,42.731852 L -96.907922,42.733857 L -96.885063,42.724799 L -96.87205073214228,42.72390872010248 L -96.860436,42.720797 L -96.843797,42.71219 L -96.829554,42.708441 L -96.819452,42.707774 L -96.806213,42.704154 L -96.801616,42.698776 L -96.800315,42.683602 L -96.802177,42.672235 L -96.793235,42.666021 L -96.776782,42.662716 L -96.764061,42.661983 L -96.746948,42.666222 L -96.728027,42.66688 L -96.697639,42.659141 L -96.6874213865124,42.6526943520508 L -96.689079,42.644078 L -96.692596,42.642038 L -96.70729,42.625318 L -96.711402,42.616372 L -96.710998,42.608129 L -96.706232,42.599222 L -96.698865,42.592448 L -96.687005,42.579225 L -96.675949,42.571601 L -96.658752,42.566424 L -96.648063,42.560824 L -96.63803,42.551959 L -96.63333300136183,42.54024702547004 L -96.631492,42.524318 L -96.625961,42.513578 L -96.612469,42.506594 L -96.60347,42.50446 L -96.591118,42.505407 L -96.58435,42.507836 L -96.572509,42.515735 L -96.557776,42.52038 L -96.548789,42.520547 L -96.53799,42.518129 L -96.525088,42.510183 L -96.52040309618677,42.504228747914205 L -96.515837,42.494223 L -96.508587,42.486698 L -96.501319,42.482749 L -96.489494,42.480109 L -96.475578,42.480198 L -96.459753,42.486921 L -96.445483,42.49063 L -96.455424,42.492498 L -96.464466,42.490491 L -96.477186,42.491011 L -96.476913,42.497879 L -96.473334,42.503536 L -96.479023,42.510843 L -96.488971,42.511761 L -96.49357,42.515626 L -96.49077831850049,42.52023825692538 L -96.479949,42.524246 L -96.476733,42.545383 L -96.47696,42.555972 L -96.497265,42.556981 L -96.498997,42.560832 L -96.486146,42.573149 L -96.496026,42.580382 L -96.491492,42.586103 L -96.49944231303131,42.58858316299887 L -96.500183,42.594104 L -96.504653,42.604998 L -96.509453,42.612704 L -96.519694,42.616083 L -96.525718,42.609276 L -96.529937,42.610471 L -96.531615,42.615318 L -96.528131,42.61844 L -96.518114,42.619816 L -96.51514,42.628228 L -96.526414,42.641213 L -96.533822,42.643535 L -96.538164,42.647686 L -96.537976,42.655976 L -96.546302,42.661534 L -96.554316,42.658407 L -96.559919,42.659025 L -96.560278,42.669152 L -96.566184,42.675287 L -96.576692,42.683109 L -96.585833,42.683059 L -96.586342,42.689794 L -96.596453,42.691472 L -96.596635,42.695057 L -96.605596,42.70202 L -96.612956,42.699168 L -96.619194,42.699812 L -96.621642,42.704963 L -96.62992,42.705255 L -96.62426,42.714717 L -96.628011,42.717798 L -96.624465,42.721113 L -96.630985,42.730863 L -96.63542,42.7421 L -96.631911,42.744789 L -96.625601,42.754433 L -96.635409,42.763381 L -96.632335,42.768041 L -96.626073,42.771801 L -96.621985,42.77683 L -96.619849,42.783792 L -96.616148,42.785066 L -96.605008,42.783009 L -96.602404,42.788323 L -96.597198,42.791924 L -96.592353,42.801272 L -96.590485,42.808447 L -96.595697,42.810437 L -96.59577017544991,42.81467732491053 L -96.584109,42.819005 L -96.585808,42.823776 L -96.577531,42.828136 L -96.582391,42.834282 L -96.581378,42.83781 L -96.574424,42.837978 L -96.569737,42.835135 L -96.562809,42.836422 L -96.558942,42.83965 L -96.552778,42.835961 L -96.548598,42.840891 L -96.554287,42.843925 L -96.554554,42.849588 L -96.544831,42.850193 L -96.541142,42.858167 L -96.546819,42.857436 L -96.546561,42.874524 L -96.53767,42.878462 L -96.543095,42.8842 L -96.534598,42.890582 L -96.527163,42.890628 L -96.528536,42.897666 L -96.54293,42.903756 L -96.536467,42.905643 L -96.5401,42.912318 L -96.538087,42.917982 L -96.539926,42.925066 L -96.534592,42.92698 L -96.524458,42.935798 L -96.51647,42.93281 L -96.519345,42.94053 L -96.509138,42.945417 L -96.508886,42.953742 L -96.502357,42.957216 L -96.503005,42.968279 L -96.50516,42.971095 L -96.515992,42.972988 L -96.52082,42.979923 L -96.51243,42.985596 L -96.512732,42.992189 L -96.507373,42.996604 L -96.497359,42.998276 L -96.491981,43.010197 L -96.499619,43.019403 L -96.510209,43.024229 L -96.513952,43.030075 L -96.509333,43.037962 L -96.515759,43.041383 L -96.513681,43.04703 L -96.50881,43.050183 L -96.504363,43.048735 L -96.489341,43.05143 L -96.488727,43.054165 L -96.47674,43.062697 L -96.467345,43.06196 L -96.460742,43.064337 L -96.455324,43.075469 L -96.45413,43.08338 L -96.455432,43.088258 L -96.462672,43.089662 L -96.459706,43.095466 L -96.454063,43.097331 L -96.446374,43.109542 L -96.439832,43.113423 L -96.436567,43.119818 L -96.439864,43.122194 L -96.443236,43.133756 L -96.450598,43.142521 L -96.460824,43.144177 L -96.46829,43.151552 L -96.464422,43.153311 L -96.467019,43.159769 L -96.468757,43.170373 L -96.465247,43.182916 L -96.47407,43.190309 L -96.472148,43.196023 L -96.474896,43.202774 L -96.470811,43.207543 L -96.47624,43.212695 L -96.476729,43.221987 L -96.48504,43.224061 L -96.496639,43.223716 L -96.51754,43.217825 L -96.526524,43.224052 L -96.535823,43.227606 L -96.540119,43.225655 L -96.555281,43.226666 L -96.557888,43.223288 L -96.568261,43.231314 L -96.571414,43.239078 L -96.564855,43.244498 L -96.549534,43.248372 L -96.552567,43.251817 L -96.553484,43.259451 L -96.561514,43.25933 L -96.569859,43.262794 L -96.575947,43.267823 L -96.58407,43.26783 L -96.586525,43.273715 L -96.577754,43.278373 L -96.581351,43.288884 L -96.579176,43.292473 L -96.582947,43.298125 L -96.574542,43.299064 L -96.56438,43.294639 L -96.554712,43.296509 L -96.553082,43.292835 L -96.541156,43.295392 L -96.530691,43.299713 L -96.531612,43.304467 L -96.524522,43.312067 L -96.525824,43.316899 L -96.530939,43.320638 L -96.528848,43.324337 L -96.533189,43.328714 L -96.531458,43.331883 L -96.535022,43.336674 L -96.524376,43.347134 L -96.527766,43.348543 L -96.527569,43.362556 L -96.530907,43.365997 L -96.523125,43.371738 L -96.521349,43.375696 L -96.524405,43.379175 L -96.521671,43.385762 L -96.525242,43.396072 L -96.537459,43.394909 L -96.548781,43.403892 L -96.554241,43.404455 L -96.568258,43.416903 L -96.573726,43.419185 L -96.569766,43.426799 L -96.57433,43.43112 L -96.593141,43.433045 L -96.602547,43.449249 L -96.600148,43.45692 L -96.59358,43.459163 L -96.591106,43.462675 L -96.582402,43.466739 L -96.585319,43.471257 L -96.58652,43.478528 L -96.584858,43.489689 L -96.599452,43.496104 L -96.599191,43.500456 L -96.45326004165615,43.50040514201162 Z" fill="none" stroke=currentColor stroke-width="1" vector-effect="non-scaling-stroke"/>
</svg>