<?xml version="1.0"?>
<svg width="20" height="20" xmlns="http://www.w3.org/2000/svg" version="1.2" baseProfile="tiny" viewBox="-64.000 -281.500 928.000 928.000" stroke-linecap="round" stroke-linejoin="round">
<g id="state">
<path d="M 797.25 257 781.97 257 781.94 257.45 783.47 258.12 783.3 259.29 783.42 260.05 783.73 260.53 782.82 260.95 782.56 261.32 781.87 261.56 781.62 262.36 782.61 264.05 784.58 264.26 785.05 264.71 784.64 265.51 785.21 265.75 786.68 267.05 787.25 267.11 788.44 268.05 789.72 267.93 790.09 269.01 789.8 269.7 790.12 270.06 789.94 270.47 789.12 271.08 789.47 271.44 789.45 272.9 789.81 273.05 788.69 274.15 789.06 274.65 788.88 274.98 789.34 275.44 789.12 275.82 789.65 276.22 789.79 276.72 789.05 277.52 789.14 278.02 788.05 278.47 786.8 278.74 786.63 278.35 785.62 278.55 784.55 278.08 783.67 278.18 784.07 278.77 783.84 279.15 784.22 280.25 783.3 280.74 783.56 281.35 784.41 281.35 785.04 281.88 785.92 282.24 786.76 282.23 786.85 283.03 787.17 283.39 785.57 283.8 784.88 284.36 785.21 285.18 786.3 286.02 786.57 285.66 788.16 285.77 788.61 285.57 789.58 285.94 790.52 286.59 792.71 285.97 793.92 285.94 794.79 286.15 794.85 287.13 795.41 287.67 794.99 288.17 795.27 288.87 795.07 289.47 796 290.25 795.63 291.56 795.81 292.67 796.08 293.34 795.68 293.53 796.46 294.3 797.53 294.47 798.3 295.39 798.65 296.6 799 296.85 798.66 297.52 797.97 297.93 797.17 299.21 796.58 299.4 796.27 300.01 797.02 300.16 797.16 300.67 797.04 301.5 796.47 302.66 795.78 302.91 794.79 302.83 793.54 303.73 793.47 304.01 791.9 304.29 791.44 304.14 790.93 304.47 790.71 305.06 791.38 305.42 790.9 306.25 791.29 306.86 792.4 307.37 793.2 308.33 792.63 309.58 791.59 309.75 791.03 310.22 791.06 310.91 790.18 311.5 790.68 312.23 791.82 312.42 792.04 312.72 792.11 313.88 791.43 314.24 791.4 315.11 790.33 315.62 790.63 316.43 789.8 316.12 788.74 317.04 788.18 317.24 788.37 317.99 788.16 318.58 788.54 319.28 787.86 319.47 789.37 320.11 789.51 320.85 788.74 320.85 787.85 321.52 788.41 322.12 787.48 322.54 787.46 324.32 788.05 324.25 787.66 325.08 786.65 325.15 786.67 325.74 787.27 326.06 786.83 326.57 786.19 326.19 785.78 326.53 785.06 326.66 784.57 326.36 783.84 326.38 783.73 326.75 784.24 327.39 783.37 327.85 783.55 328.35 782.33 328.8 782.34 329.25 782.88 329.45 782.69 330.21 782.18 331.18 781.64 331.56 781.36 332.12 780.2 331.9 779.81 332.04 779.59 332.76 779.16 333.29 778.5 333.69 778.18 334.17 779.21 335.11 778.55 336.12 778.18 336.4 778.64 337.58 779.33 338.6 778.95 338.95 779.35 339.27 778.75 340.26 779.62 340.29 779.88 340.83 780.53 340.9 781.3 340.6 782.24 341.33 782.26 341.7 783.32 341.88 783.37 342.58 784.33 342.58 785.43 343.4 786.05 344.04 786.08 345.1 786.67 345.16 787.51 344.84 788.38 345.42 788.36 346.29 788.82 346.72 789.59 346.96 790.77 348.32 790.46 349.21 789.41 349.35 789.05 349.68 789.22 350.18 789.67 350.31 790.3 349.6 791.37 349.95 791.87 350.76 792.34 351.9 792.42 352.48 793.25 352.74 792.77 353.33 793.81 354.09 792.46 355.38 792.64 355.78 794.77 355.89 794.79 357 794.46 359.21 793.32 359.63 793.03 360.11 793.51 360.52 794.55 360.62 795.15 361.38 794.78 361.97 794.75 362.69 796.08 362.75 797.03 362.54 798.07 362.73 796.57 363.12 794.92 363.82 793.46 363.83 792.22 363.56 791.46 363.14 790.7 362.36 790.22 361.31 789.73 360.68 788.38 359.85 787.25 359.6 786.31 359.62 784.77 360.1 783.53 360.93 782.82 361.18 781.52 361.28 780.58 361.06 779.17 360.33 778.59 359.2 778.4 357.54 777.91 356.31 776.86 355.38 775.74 354.8 773.94 354.25 772.78 353.46 771.54 352.07 770.76 351.36 770.27 350.43 770.22 349.57 770.65 348.63 772.19 346.88 772.56 346.66 772.73 345.76 771.66 345.09 768.48 344.28 766.5 344.35 764.71 344.79 763.38 344.71 761.65 344.37 760.72 343.72 760.91 342.53 760.78 340.94 760.3 340.37 758.91 340 757.85 339.93 756.36 339.53 754.62 338.63 753.4 338.31 752.04 338.21 749.65 337.26 748.56 337.47 746.97 338.32 746.54 338.76 744.63 338.8 743.82 338.65 743.65 337.77 744.06 336.98 744.01 336.45 743.3 335.17 742.59 334.7 741.77 334.46 741.04 334.58 738.98 334.44 737.03 334.21 736.45 333.89 734.51 333.46 732.48 333.24 730.02 333.55 727.91 333.55 726.37 333.32 725.93 333.01 725.53 332.07 724.22 330.8 722.85 330.21 720.36 329.83 719.02 329.76 718 329.37 717.74 329.08 717.55 328.06 717.2 327.43 717.24 325.78 716.95 325.47 715.72 324.96 714.03 324.55 712.14 324.82 709.65 324.53 707.89 323.26 706.9 323.71 706.34 323.76 705.37 324.22 704.28 324.49 702.12 324.57 701.41 324.22 700.56 323.51 698.75 323.61 697.48 323.19 696.34 323.44 695.69 323.93 695.45 324.41 694.03 325.41 692.93 325.54 691.67 325.19 690.48 325.05 689.01 325.04 688.05 324.77 687.14 324.22 685.31 324.9 682.97 325.28 681.17 325.36 678.03 324.7 676.79 324.23 675.05 324.42 672.28 325.38 670.03 325.86 668.13 325.92 666.61 325.77 664.56 325.39 661.45 325.17 658.92 325.13 657.45 324.75 656.1 324.27 654.45 323.87 653.53 323.27 652.95 323.12 651.49 323.25 649.34 323.76 648.33 324.2 648.3 325.26 647.96 325.77 647.9 326.53 646.96 328.54 646.35 329.12 645.24 330.46 644.21 331.33 643.52 331.57 641.92 332.88 640.83 333.41 639.27 333.62 637.77 333.49 636.25 334 633.97 334.29 631.63 334.1 631.25 333.87 629.83 333.6 628.98 333.13 628.7 332.33 626.62 330.95 625.23 330.31 624.01 329.24 621.93 328.25 620.84 326.93 619.9 326.19 617.38 326.45 615.42 325.98 612.28 324.77 611.01 323.94 609.45 323.18 609.14 322.82 608.26 322.55 605.98 322.49 604.15 321.96 601.84 321.49 600.49 320.86 600.13 320.32 599.45 319.78 598 319.16 596 318.49 594.84 317.94 592.6 317.17 591.24 316.53 590.18 316.57 589.25 316.92 588.61 316.66 588.49 316.19 587.29 315.33 586.39 314.9 585.15 313.22 583.94 311.71 583.39 310.65 583.1 309.55 576.48 309.57 569.43 309.55 556.53 309.56 553.04 309.59 543.06 309.59 528.7 309.57 516.34 309.59 516.01 309.55 510.14 309.6 503.08 309.58 499.51 309.6 481.22 309.62 469.92 309.61 457.37 309.63 441.6 309.61 429.99 309.6 429.76 309.64 423.51 309.57 422.3 309.59 410.05 309.56 402.47 309.53 399.67 309.55 382.6 309.51 370.81 309.5 366.89 309.59 343.52 309.59 340.64 309.56 332.96 309.61 322.72 309.59 318.77 309.63 316.66 309.61 293.35 309.64 274.4 309.7 271.06 309.7 261.45 309.73 254.9 309.79 246.43 309.76 230.84 309.46 217.04 309.48 207.84 309.47 203.34 309.48 190.32 309.46 181.51 309.46 170.83 309.44 150.96 309.42 148.14 309.4 125.6 309.4 123.37 309.35 109.6 309.32 93.96 309.31 83.04 309.31 69.45 309.3 61.96 309.35 54.16 309.29 48.59 309.33 43.32 309.25 39.54 309.29 28.21 309.26 20.77 309.3 14.93 309.3 10.6 309.22 8 309.22 1.51 309.34 1.46 296.32 1.41 283.73 1.39 277.54 1.33 270.12 1.33 264.1 1.31 248.35 1.3 237.35 1.28 229.65 1.25 220.03 1.33 204.69 1.34 196.15 1.36 185.8 1.26 178.52 1.24 166.78 1.2 150.52 1.2 142.75 1.22 139.72 1.21 122.64 1.14 113.91 1.21 113.07 1 100.24 2.9 100.19 2.85 94.21 2.87 86.99 2.87 72.28 2.83 58.78 2.75 48.47 2.63 35.15 2.59 20.92 2.49 10.6 2.29 1.01 16.72 1 20.38 1.02 33.2 1.01 33.99 1.03 46.27 1.01 59.36 1.01 73.13 1.02 96.09 1.02 113.5 1.03 129.76 1.02 148.17 1.01 149.67 1.05 158.9 1.05 164.09 1.03 186.63 1.06 190.25 1.04 199.79 1.07 207.31 1.05 212.02 1.08 222.84 1.09 227.19 1.06 238.87 1.11 253.62 1.11 259.45 1.11 266.57 1.14 277.16 1.16 282.06 1.12 291.11 1.14 309.95 1.13 312.83 1.19 316.87 1.2 332.71 1.16 338.89 1.18 347.29 1.18 350.31 1.14 357.93 1.18 365 1.16 382.9 1.2 386.23 1.23 393.62 1.22 409.08 1.31 418.63 1.35 427.63 1.37 441.28 1.44 451.51 1.48 457.56 1.45 468.42 1.46 477.84 1.51 484.23 1.53 492.84 1.53 499.52 1.55 509.99 1.57 524.64 1.57 534.35 1.61 555.09 1.68 561.55 1.7 572.45 1.77 580.03 1.85 587.9 1.91 603.89 1.97 612.68 1.95 632.31 2 637.52 1.99 654.92 2.03 673.14 2.05 689.48 2.07 692.91 2.07 694.89 1.98 711.71 2.01 716.1 2.04 722.34 2.02 740.16 2.01 745.65 2.04 751.1 2 762.57 2.01 769.72 1.98 777.79 2.04 785.69 2.06 785.56 2.6 785.66 3.62 785.03 4.35 785.5 4.63 785.18 5.64 785.15 7 784.87 7.22 784.8 8.79 784.54 9.22 784.71 9.78 784.56 11.61 784.24 12.25 784.01 13.52 783.57 14.23 782.23 14.98 780.92 16.5 780.44 16.91 779.23 17.48 777.78 19.14 777.5 20.42 776.42 21.79 775.33 22.64 774.28 23.3 772.75 23.98 770.25 24.85 766.14 26.82 765.21 27.87 761.42 29.83 760.5 30.22 756.9 32.19 756.32 33.02 755.69 34.55 755.46 35.58 755 36.6 756.51 37.94 760.78 41.85 761.59 42.32 762.93 43.87 764.78 45.54 766.65 48.81 766.86 49.66 767.34 50.31 767.56 51.11 768.13 52.13 768.88 52.71 770.97 55.1 772.2 56.29 773.46 57 775.37 57.16 776.61 57.02 777.23 57.17 778.13 57.06 779.82 57.17 781.76 57.77 784.1 58.91 785.85 59.56 787.54 60.09 789.12 60.35 790.08 60.65 791.26 61.4 792.15 61.72 793.5 62.6 794.43 64.31 795.58 65.96 795.71 66.62 796.35 67.12 797.27 68.49 797.35 79.43 797.31 80.89 797.38 84.17 797.32 86.87 797.37 91.94 797.38 99.81 797.4 111.48 797.44 120.26 797.4 121.92 797.46 129.48 797.44 131.06 797.4 147.77 797.38 149.03 797.4 156.45 797.38 164.3 797.32 175.12 797.3 188.49 797.26 194.86 797.27 204.59 797.22 214.49 797.28 220.45 797.29 223.49 797.25 228.06 797.23 238.72 797.24 247.86 797.25 257 Z" fill="none" stroke="currentColor" stroke-width="46.400"/>
</g>
</svg>