<?xml version="1.0"?>
<svg width="20" height="20" xmlns="http://www.w3.org/2000/svg" version="1.2" baseProfile="tiny" viewBox="-64.000 -385.000 928.000 928.000" stroke-linecap="round" stroke-linejoin="round">
<g id="state">
<path d="M 796.18 9.3 795.95 9.51 796.2 10.93 795.94 11.09 795.02 11.09 795.07 11.76 794.68 13 794.11 13.76 794.13 14.04 793.38 14.1 793.36 15.2 793.84 15.47 794.39 16.98 794.1 17.59 794.48 18.19 794.31 18.39 794.61 19.87 794.55 20.4 794.2 20.73 793.34 20.91 792.69 21.32 792.84 22.29 792.71 23.25 792.15 23.51 792.45 23.98 792.19 24.56 791.61 24.8 791.37 25.19 790.28 25.47 790.48 27.04 791.16 27.1 791.45 27.48 791.39 27.98 791.03 28.26 791.27 29.06 791.71 29.51 791.86 30.53 792.07 31.05 792.47 31.42 793.33 31.57 793.62 32 793.42 32.6 792.39 32.51 791.53 32.03 790.77 31.89 790.03 32.36 789.09 32.43 788.48 32.14 788.13 32.28 787.25 31.78 786.83 31.37 785.81 31.34 785.76 30.88 785.13 30.46 784 31.03 782.51 31.34 781.1 31.85 778.86 33.15 778.77 33.42 777.82 34.4 776.84 35 775.72 35.22 774.93 35.66 774.02 37.03 772.11 39.87 769.95 42.76 766.2 48.3 764 51.49 763.7 52.11 763.36 52.38 762.35 51.91 761.33 51.95 761.26 52.34 760.76 53.08 759.1 53.67 757.23 53.74 756.76 53.54 755.76 53.87 754.6 53.88 753.78 52.47 753.86 51.59 753.17 50.54 752.82 49.85 752.13 49.82 751.16 50.12 750.54 49.98 750.15 50.36 749.57 50.23 749.16 49.57 748.74 49.75 748.1 49.41 747.89 49.07 746.77 48.83 746.01 49.02 745.83 49.54 744.77 50.51 744.18 50.85 743.88 51.39 743.33 51.3 743.05 50.94 742.5 51.18 742.16 51.75 740.62 51.55 739.89 50.98 738.61 51.37 737.96 51.86 736.93 52.45 736.68 52.41 735.48 52.92 733.71 52.87 732.87 53.58 731.96 53.7 731.43 54.33 730.62 54.53 729.41 55.26 728.69 55.87 724.06 62.75 723.16 63.2 722.62 63.64 722.11 63.66 721.87 64.09 720.34 65.13 719.93 65.55 718.83 65.71 718.1 66.14 717.56 66.04 716.76 66.33 715.81 66.81 715.02 67.73 713.38 67.27 713 66.68 711.91 66.59 711.2 66.74 710.22 66.5 710.2 65.84 710.8 64.63 710.55 64.18 710.02 64.07 709.81 63.4 709.93 63.02 710.41 62.71 710.51 62.01 710.95 61.83 710.94 61.32 712.03 60.57 711.99 60.2 711.05 59.96 710.45 59.42 709.5 59.13 709.64 58.52 708.23 57.55 707.78 57.41 706.14 58.29 705.75 58.22 704.31 58.98 703.46 59.26 702.95 59.96 701.88 60.31 701.2 60.74 700.59 60.85 700.58 61.31 699.63 61.81 698.35 62.12 697.83 62.58 697.47 62.58 696.98 63.07 696.23 63.03 695.32 63.41 695.02 63.38 694.69 64.2 694.15 64.52 694.1 65.52 694.99 66.12 694.74 66.57 694.14 66.98 693.93 67.87 692.81 68.58 692.2 69.25 692.54 69.97 690.76 70.68 690.18 69.69 689.21 69.24 688.54 68.44 687.99 68.15 687.23 68.32 685.92 67.83 685.55 68.07 684.58 68.24 684.25 68.54 683.73 68.55 683.41 69.2 683.66 69.96 683.18 70.28 682.46 69.97 682.32 70.45 682.61 71.53 682.93 71.99 683.14 72.96 683.47 73.38 682.94 74.17 683.24 74.49 683.87 74.69 683.46 75.21 682.58 75.58 681.65 75.62 681.6 76.09 681.89 76.42 681.7 76.73 681.74 77.45 682.04 78.08 681.71 78.27 680.43 78.52 680.49 79.11 680.24 79.56 679.37 79.63 678.8 80.37 677.78 82.32 677.88 82.73 677.16 82.85 676.73 83.1 675.83 83.92 674.75 84.38 674.25 84.32 673.81 83.88 671 83.05 670.39 83.24 669.49 82.85 668.23 83.09 667.55 82.82 667.11 82.86 666.49 83.22 665.45 84.08 664.43 84.47 663.4 84.72 663.25 84.99 662.6 84.84 661.81 85.1 660.87 85.09 660.63 85.22 659.78 85.12 659.15 85.63 659.18 86.1 658.67 86.87 657.98 87.03 657.3 88.28 655.86 88.8 655.24 88.7 654.63 88.89 654.31 88.73 652.18 88.64 651.94 89.05 651.3 89.23 650.84 89.72 651.18 90.29 650.65 90.63 650.92 91.53 650.47 92 649.43 92.33 649.08 93.04 648.44 93.17 648.17 93.47 647.56 93.64 647.32 94.61 646.86 95.06 645.58 95.28 644.73 94.52 643.53 94.28 642.97 94.38 642.58 94.69 642.03 94.76 641.56 95.34 641.36 95.99 640.63 96.55 640.11 96.72 639.55 97.13 638.55 97.23 638.16 98.03 636.91 98.48 635.48 99.31 634.54 99.4 633.31 99.24 632.3 100.58 631.74 101.01 630.95 101.22 630.7 101.67 630.22 101.89 630.27 102.24 629.61 103.25 628.92 103.38 628.44 103.74 626.81 103.79 626.28 103.49 625.51 103.59 624.55 103.47 623.59 103.69 622.32 103.45 622.03 103.63 620.53 103.76 619.85 102.94 618.93 102.27 618.31 102.17 617.37 102.88 616.38 103.26 615.88 103.22 614.91 103.45 613.93 103.09 613.29 103.14 611.74 103.06 611.47 103.2 609.76 103.32 609.27 103.22 608.59 103.62 607.8 103.79 606.52 103.51 605.5 103.97 604.8 103.59 604.39 103.77 603.38 103.85 602.47 104.88 601.16 105.33 599.93 106.12 599.76 106.5 598.31 107.3 597.71 107.27 596.12 107.82 595.4 107.55 594.33 107.69 593.95 107.61 593.27 107.81 592.93 108.38 592.12 109.33 591.32 109.85 591.34 110.33 590.92 110.58 590.36 111.74 588.05 112.17 586.92 113.12 586.58 113.17 585.83 112.87 585.49 113.76 584.92 113.64 584.72 114.27 584.11 114.3 583.68 115.05 583 115 582.11 116.6 580.96 117.58 580.12 117.65 580.27 118.36 580.52 118.75 580.98 118.96 581.07 119.42 581.48 119.69 581.19 120.17 581.48 120.7 581.55 121.37 580.86 121.97 580.06 122.98 578.71 123.27 579.11 123.97 578.91 124.47 579.55 124.89 579.28 125.31 578.94 126.5 579.1 126.93 579.78 127.09 580.26 127.86 580.01 128.37 578.91 129.03 578.51 129.78 577.94 130.31 577.58 130.39 577.12 130.86 574.76 131.55 574.42 132.05 573.74 132.62 573.26 132.79 572.4 132.42 571.83 132.65 571.27 132.36 570.59 132.83 570.64 133.34 569.94 133.27 569.4 132.92 568.61 132.85 567.55 132.96 567.24 133.13 566.6 132.89 565.75 133.45 564.84 133.47 564.45 133.05 563.89 133.15 563.55 132.09 562.77 131.13 562.19 130.89 561.29 130.91 559.86 132.27 559.2 132.47 558.42 132.99 558.29 133.28 556.83 134.02 556.15 134.73 555.48 135 555.08 138.55 554.68 140.75 553.44 150.18 552.75 155.34 552.6 156.66 547.48 156.7 537.35 156.68 535.88 156.7 525 156.67 524.68 156.7 519.39 156.68 513.15 156.69 507.83 156.74 494.48 156.7 490.17 156.74 485.25 156.82 478.08 156.84 469.69 156.93 468.42 156.9 466.56 156.96 463.7 156.99 454.67 157.16 446.46 157.16 434.38 157 432.83 156.96 414.19 156.69 409.7 156.67 397.32 156.6 391.83 156.56 375.21 156.48 368.65 156.41 363.24 156.36 354.91 156.47 346.82 156.44 333.62 156.32 322.8 156.34 318.2 156.32 313.68 156.24 311.52 156.16 303.16 156.01 300.8 155.94 294.81 155.86 284.22 155.64 277.93 155.5 270.38 155.39 266.79 155.37 257.91 155.31 248.31 155.25 244.89 155.27 229.39 155.11 227.73 155.08 213.31 155.04 199.36 154.92 195.09 154.85 195.35 155.99 190.6 156.01 187.72 155.99 179.72 156.01 171.15 155.95 158.69 155.99 145.33 156.04 144.37 156.03 134.73 156.04 131.45 155.97 128.56 156.07 121.33 156.05 110.15 156.08 107.06 156.15 101.64 156.08 94.03 156.11 89.18 156.16 81.6 156.17 77.04 156.15 74.58 156.09 69.62 156.05 60.72 156.03 55.49 156.03 54.95 156.07 43.52 156.11 43.24 156.13 37.01 156.07 30.48 156.05 25.59 156.06 17.8 156.08 7.65 156 1.15 155.99 1 154.89 1.45 154.32 1.4 153.79 1.86 153.07 2.2 152.08 2.76 151.77 5.2 151.88 5.45 152.26 6.31 152.67 7.25 152.58 8.74 152.88 9.72 153.2 10.48 153.21 11.94 151.89 12.86 150.62 13.41 148.82 13.36 148.43 12.88 147.76 12.84 146.93 13.47 144.94 14.14 144.21 15.3 143.53 16 143.34 16.58 143.35 19.39 144.48 20.6 144.76 21.29 144.72 22.35 144.13 23.42 142.99 23.63 141.95 23.27 141.25 22.22 140.88 20.52 140.02 20.01 139.68 19.59 138.87 18.82 138.43 18.75 137.94 18.9 137.28 19.54 137.24 20.59 137.65 21.37 136.06 22.1 136.38 22.6 135.88 22.54 135.19 21.76 134.31 21.6 133.65 20.86 132.68 19.64 132.09 18.74 132.03 16.68 132.35 15.84 132.17 15.25 131.74 14.3 130.47 13.99 129.83 14.33 128.6 14.62 128.12 15.18 127.78 15.77 127.67 16.6 128.04 17.54 127.87 18.24 127.54 18.79 127.65 19.42 127.5 19.55 126.86 20.14 125.39 20.69 123.46 20.95 122.98 21.83 121.92 22.34 121.06 22.1 120.04 20.61 119.16 19 117.71 17.71 117.48 17.13 117.54 16.59 117.88 16.1 118.72 16.16 119.43 16.52 120.21 17.05 120.89 16.05 121.14 14.33 121.14 13.11 120.39 13.03 120.1 13.82 117.83 14 116.73 17.63 114.87 18.24 113.14 18.59 112.48 19.62 111.67 21.44 111.51 22.27 111.67 23.26 112.57 23.36 113.13 22.99 114.09 22.72 115.1 22.73 115.6 23.05 116.58 23.84 117.35 23.15 118 24.55 119.73 25.45 119.38 25.5 119.05 24.32 118.39 25.12 117.67 27.6 116.88 29.31 115.98 29.19 114.81 28.89 113.75 28.4 112.88 27.79 112.06 26.23 111.05 25.49 110.03 25.12 109.2 24.93 108.03 25.31 106.8 25.62 106.28 25.88 105.17 26.69 104.53 27.88 104.38 28.61 104.05 29.54 103.92 30.5 103.99 31.79 104.61 33.26 105.61 33.62 106.48 33.35 107.34 35.46 108.09 36.32 108.47 37.34 108.44 37.94 108.22 38.55 107.23 38.39 106.28 37.81 106.06 37.78 105.16 37.46 104.97 36.18 104.82 34.87 104.27 33.75 102.52 33.43 101.68 33.55 101.19 34.36 100.3 35.85 99.55 36.92 99.21 37.73 98.7 38.81 98.93 39.66 98.81 41.15 97.87 42.81 97.1 43.09 96.64 43.3 95.65 43.13 94.69 42.6 93.99 41.81 93.86 40.77 94.31 40.27 95.14 39.29 95.57 37.97 95.56 36.42 94.96 35.59 94.34 34.81 93.38 34.12 92.7 33.62 92 33.49 89.92 33.34 88.94 33.72 88.32 34.7 87.81 35.27 87.04 37.21 86.15 37.57 85.8 38.08 85.65 38.74 86.19 39.72 86.42 41.43 85.93 42.17 85.85 43.16 86.03 43.34 86.83 44.41 87.23 45.63 86.95 46.76 86.46 47.91 85.85 48.07 85.64 47.99 84.62 48.26 83.62 48.02 82.98 48.32 82.56 49.66 81.42 51.17 81.02 51.89 80.96 53.03 81.31 53.65 81.34 54.59 81.65 55.33 81.35 56.44 80.75 57.51 80 57.74 79.58 57.67 78.7 56.85 78.27 55.12 77.68 52.2 76.9 50.93 76.37 50.55 75.97 50.35 75.38 50.58 74.19 51.18 73.32 53.08 71.7 53.9 71.59 54.63 71.65 55.68 72.04 57.81 73.54 59.36 74.84 60.57 75.02 61.42 74.64 62.2 73.99 62.53 73.1 62.62 72.36 62.53 71.43 62.32 70.76 61.77 70.14 60.43 69.49 59.45 68.86 57.18 67.83 55.9 67.18 55.19 66.46 54.97 65.25 55.08 64.49 54.32 63.79 54.15 63.41 56.55 63.39 56.66 63.02 57.88 61.59 58.36 60.34 58.62 58.71 58.85 56.81 59.03 55.88 59.72 55.02 60.26 54.65 62.44 53.93 63.79 53.63 66.5 52.26 67.04 51.53 67.17 50.38 67.12 49.65 66.54 48.61 65.75 47.71 64.72 46.9 63 46.07 61.34 44.91 59.07 43.59 57.87 42.76 56.7 41.69 56.7 41.38 57.32 40.39 57.63 40.19 58.46 40.49 59.21 40.61 61.66 40.39 63.01 40.63 65.37 41.44 66.18 41.54 67.57 41.42 68.8 41.02 69.7 40.4 70.27 40.35 71.39 40.68 72.07 40.52 72.42 40.17 72.43 39.36 72.25 38.35 71.57 37.67 70.54 37.87 68.38 36.92 67.84 36.46 65.31 35.01 64.54 33.74 64.57 33.12 64.94 32.52 65.41 32.12 66.35 31.88 68.09 31.94 70.04 32.37 71.46 32.45 72.68 32.23 73.52 31.72 73.86 31.37 74.4 30.33 74.71 29.06 74.32 28.02 73.28 26.59 71.71 24.78 71.44 24.14 71.61 23.06 73.1 21.88 73.45 21.42 73.79 20.46 73.71 19.39 72.43 18.21 72 17.61 76.95 17.65 76.15 19.61 76.36 20.38 76.88 20.91 77.76 21.25 78.89 21.31 79.89 20.94 81.37 19.75 82.3 18.79 83.23 17.51 85.65 17.49 93.97 16.75 98.05 16.84 104.5 16.94 109.04 17.06 121.02 17.17 125.38 17.23 142.19 17.17 150.99 17.18 155.35 17.23 163.87 17.22 168.43 17.31 173.21 17.31 178.73 17.37 187.62 17.39 196.9 17.47 207.78 17.64 208.87 17.69 210.11 16.55 210.34 15.92 210.37 15.21 210.77 14.01 210.6 12.14 210.05 10.34 209.65 7.93 208.66 5.41 208.64 4.85 208.38 4.2 207.72 3.29 207.46 2.5 207.28 1 209.81 1.01 212.57 1.1 220.52 1.86 222.67 2.03 227.64 2.34 227.29 5.15 230.25 5.05 240.8 4.81 247.23 4.69 255.57 4.62 262.08 4.49 271.47 4.39 274.64 4.37 282.93 4.37 293.93 4.32 299.42 4.27 305.9 4.13 307.66 4.12 315.66 3.91 319.34 3.88 327.7 3.7 330.38 3.7 334.22 3.62 343.67 3.38 346.07 5.12 347.24 4.71 347.36 4.09 347.96 4.17 347.92 4.48 351.24 3.38 360.12 3.52 364.98 3.63 367.42 3.72 371.01 4.04 382.81 4.73 391.27 5.11 395.03 5.38 400.19 5.58 413.49 6.17 417.47 6.18 427.81 6.53 443.92 6.84 445.13 6.79 450.58 6.45 454.9 6.29 459.31 6.09 460.21 5.95 462.46 5.96 463.03 5.79 464.62 5.74 474.32 5.92 479.94 6.1 487.71 6.43 490.9 6.64 492.45 6.78 496.01 7.13 505.87 7.79 513.16 7.97 519.1 8.08 524.68 8.25 532.46 8.55 537.02 8.52 541.42 8.57 547.56 8.71 557.29 8.97 558.17 8.97 561.31 8.94 572.6 9.01 575.54 9.07 582.25 9.14 593.89 9.51 603.17 9.72 610.73 9.81 612.15 8.14 614.89 8.21 617.06 8.39 623.06 8.45 630.87 8.46 640.25 8.45 648.91 8.38 650.31 8.77 658.16 8.77 662.85 8.75 673.87 8.77 684.59 8.81 687.96 8.79 698.34 8.8 709.12 8.78 721.61 8.59 723.58 8.72 727.56 8.67 732.53 8.67 739.41 8.6 743.11 8.62 746.74 8.59 750.82 8.71 757.06 8.69 762.16 8.72 765.16 8.72 772.54 8.74 773.6 6.72 780.4 6.84 787.53 7.02 790.71 7.07 799 7.11 796.18 9.3 Z" fill="none" stroke="currentColor" stroke-width="46.400"/>
</g>
</svg>