<svg viewBox="-91.17626871784134 -37.54456124707649 10.395674964917816 3.4278794941529753" xmlns="http://www.w3.org/2000/svg">
  <path d="M -81.67749,36.588137 L -81.6469,36.611918 L -81.736895,36.612379 L -81.771415,36.612942 L -81.84885787581919,36.614875057565534 L -81.922644,36.616213 L -81.934144,36.594213 L -82.014228,36.594491 L -82.046794,36.594403 L -82.102171,36.594762 L -82.169912,36.594596 L -82.214276,36.595846 L -82.253669,36.595575 L -82.293814,36.595699 L -82.368468,36.595015 L -82.42244758115062,36.59500825511006 L -82.46564,36.594482 L -82.486994,36.595822 L -82.622603,36.593797 L -82.739682,36.593598 L -82.852315,36.593698 L -82.888924,36.593468 L -83.005327,36.593851 L -83.124893,36.594089 L -83.175839,36.59389 L -83.261099,36.593887 L -83.2763,36.598187 L -83.37032,36.597428 L -83.47210652138496,36.597283097244166 L -83.556922,36.597385 L -83.622051,36.597982 L -83.645586,36.600002 L -83.67537920636775,36.60078403907826 L -83.690789,36.582596 L -83.772871,36.58363 L -83.873541,36.585923 L -83.999943,36.589857 L -84.072731,36.590654 L -84.104641,36.591317 L -84.227292,36.592045 L -84.26133704214033,36.5917819260937 L -84.270904,36.591708 L -84.376548,36.594598 L -84.443183,36.596097 L -84.4909328920553,36.596581916271774 L -84.540474,36.596304 L -84.624902,36.599539 L -84.685446,36.601363 L -84.749949,36.60257 L -84.829123,36.604514 L -84.936145,36.611729 L -84.974811,36.615465 L -84.991632,36.617041 L -85.026279,36.619261 L -85.110636,36.622935 L -85.171624,36.624884 L -85.276922,36.626823 L -85.294158,36.626278 L -85.300415,36.624449 L -85.324791,36.624508 L -85.334549,36.622979 L -85.382476,36.620826 L -85.429361,36.619095 L -85.488497,36.615395 L -85.501599,36.614857 L -85.67653,36.618223 L -85.788726,36.622048 L -85.831974,36.622101 L -85.976418,36.628493 L -86.032405,36.630708 L -86.073242,36.633619 L -86.165091,36.637748 L -86.293112,36.645296 L -86.332126,36.648701 L -86.358661,36.649726 L -86.411379,36.650924 L -86.507781,36.652379 L -86.543822,36.640427 L -86.543352,36.643855 L -86.549943,36.644759 L -86.551222,36.637998 L -86.563909,36.633562 L -86.589906,36.652443 L -86.692534,36.649771 L -86.734208,36.648898 L -86.763296,36.648954 L -86.85404,36.647006 L -86.894064,36.646611 L -86.980882,36.64437 L -86.999989,36.644296 L -87.070339,36.642734 L -87.12991,36.642221 L -87.24933,36.641721 L -87.339338,36.641637 L -87.37376,36.641406906492136 L -87.475678,36.640396 L -87.546351,36.638912 L -87.636914,36.638162 L -87.70667,36.63688 L -87.821178,36.63433 L -87.853319,36.63316 L -87.849544,36.663695 L -87.903564,36.667103 L -87.926875,36.668936 L -88.01313487856586,36.677220628131735 L -88.043097,36.678125 L -88.070541,36.678255 L -88.068635,36.661962 L -88.065792,36.653395 L -88.058662,36.643506 L -88.055883,36.636421 L -88.055625,36.63034 L -88.044862,36.60307 L -88.040497,36.576824 L -88.034573,36.557363 L -88.032675,36.536985 L -88.037021,36.524029 L -88.037415,36.516268 L -88.039823,36.509437 L -88.053293,36.497058 L -88.065207,36.497633 L -88.183246,36.49944 L -88.28397367269191,36.50035200514939 L -88.380505,36.500554 L -88.440481,36.50123 L -88.492384,36.501153 L -88.541874,36.502176 L -88.634301,36.502023 L -88.681665,36.502589 L -88.777192,36.502717 L -88.959746,36.502076 L -89.007058,36.502709 L -89.13706,36.503936 L -89.186324,36.505227 L -89.256345,36.506316 L -89.300731,36.507227 L -89.391057,36.499216 L -89.417275,36.499011 L -89.42736,36.485167 L -89.437421,36.474759 L -89.453514,36.461789 L -89.464433,36.457747 L -89.476643,36.458393 L -89.486193,36.462114 L -89.491894,36.467901 L -89.494119,36.476268 L -89.485427,36.497491 L -89.539232,36.497934 L -89.534524,36.491432 L -89.520642,36.478668 L -89.51972,36.467002 L -89.523427,36.456572 L -89.527274,36.451545 L -89.543406,36.43877 L -89.545255,36.427079 L -89.542337,36.420103 L -89.525293,36.400446 L -89.513956,36.384891 L -89.509722,36.373626 L -89.513178,36.359897 L -89.519,36.3486 L -89.522695,36.344789 L -89.531822,36.339246 L -89.545006,36.336809 L -89.560439,36.337746 L -89.581636,36.342357 L -89.600544,36.342985 L -89.610689,36.340442 L -89.615841,36.336085 L -89.6198,36.329546 L -89.62016596690144,36.3228056096104 L -89.611819,36.309088 L -89.584337,36.29334 L -89.578492,36.288317 L -89.555036,36.278008 L -89.543831,36.280217 L -89.536441,36.272827 L -89.534507,36.261803 L -89.534679,36.252979 L -89.538446,36.249233 L -89.545758,36.247501 L -89.557991,36.251037 L -89.564124,36.250479 L -89.573928,36.243843 L -89.587326,36.239484 L -89.602374,36.238106 L -89.611145,36.239271 L -89.63679,36.248079 L -89.651407,36.250683 L -89.678043,36.248287 L -89.686229,36.249507 L -89.695235,36.252766 L -89.698568,36.250591 L -89.705328,36.239898 L -89.70525,36.236568 L -89.69263,36.224959 L -89.679548,36.215911 L -89.654876,36.20153 L -89.636894,36.188951 L -89.618228,36.179966 L -89.607004,36.171179 L -89.59845,36.161421 L -89.592206,36.15012 L -89.591632,36.142135 L -89.59307,36.129699 L -89.598946,36.121778 L -89.628305,36.106853 L -89.64302,36.10362 L -89.666598,36.095802 L -89.672463,36.091837 L -89.680029,36.082494 L -89.681946,36.072336 L -89.684439,36.051719 L -89.687254,36.034048 L -89.692437,36.020507 L -89.705677,36.005018 L -89.706932,36.000981 L -89.7330085844988,36.00070766146198 L -89.731096,35.99662 L -89.722916,35.989061 L -89.724027,35.980803 L -89.721677,35.967673 L -89.714007,35.959813 L -89.700112,35.952707 L -89.675477,35.941593 L -89.664777,35.934743 L -89.650267,35.927663 L -89.644307,35.920943 L -89.642017,35.913663 L -89.640997,35.903553 L -89.642047,35.895573 L -89.645617,35.885833 L -89.654008,35.878865 L -89.663284,35.874703 L -89.676378,35.876698 L -89.693229,35.890722 L -89.716352,35.907059 L -89.727787,35.911243 L -89.735718,35.91195 L -89.744547,35.910699 L -89.76524,35.893106 L -89.771674,35.883678 L -89.774271,35.870816 L -89.772081,35.864342 L -89.767923,35.860017 L -89.754094,35.854293 L -89.722457,35.845786 L -89.703645,35.839461 L -89.694709,35.834769 L -89.693978,35.825213 L -89.696497,35.820583 L -89.708149,35.812464 L -89.720117,35.805933 L -89.72817,35.802697 L -89.738346,35.806058 L -89.745171,35.806404 L -89.75749597584085,35.81016510701861 L -89.765359,35.809606 L -89.781662,35.805228 L -89.796236,35.79284 L -89.799565,35.788331 L -89.796917,35.781373 L -89.799842,35.770458 L -89.79895,35.759356 L -89.800728,35.757152 L -89.813177,35.750463 L -89.825451,35.745188 L -89.838717,35.742129 L -89.850349,35.746489 L -89.852323,35.755134 L -89.863064,35.757134 L -89.871006,35.75622 L -89.889642,35.750904 L -89.900233,35.753451 L -89.907461,35.759288 L -89.913001,35.757664 L -89.916851,35.753881 L -89.93792,35.744172 L -89.944114,35.735795 L -89.954717,35.730361 L -89.958895,35.72353 L -89.957235,35.712958 L -89.955841,35.690399 L -89.950385,35.68275 L -89.942926,35.675388 L -89.934467,35.664943 L -89.925453,35.658206 L -89.908575,35.651736 L -89.894236,35.651605 L -89.88364,35.656295 L -89.878213,35.665252 L -89.86689,35.670204 L -89.858318,35.668724 L -89.852615,35.661156 L -89.850726,35.65074 L -89.85302,35.639984 L -89.856104,35.635012 L -89.874067,35.626618 L -89.890259,35.616416 L -89.899483,35.615151 L -89.911275,35.617594 L -89.91998,35.612074 L -89.931654,35.608358 L -89.947847,35.600218 L -89.956592,35.590622 L -89.95795,35.585233 L -89.954469,35.576192 L -89.942247,35.557143 L -89.928084,35.55123 L -89.914191,35.549606 L -89.910681,35.547451 L -89.910357,35.537776 L -89.904013,35.535319 L -89.902375,35.525036 L -89.908934,35.51424 L -89.915497,35.511842 L -89.926539,35.511607 L -89.935881,35.515743 L -89.958749,35.523837 L -89.955817,35.533194 L -89.959722,35.542664 L -89.975711,35.553488 L -89.989667,35.560221 L -90.000096,35.561009 L -90.010213,35.559564 L -90.018141,35.555971 L -90.03103693721172,35.55437492661303 L -90.039876,35.547418 L -90.042712,35.535333 L -90.046054,35.529743 L -90.050212,35.516391 L -90.048163,35.503628 L -90.044138,35.494622 L -90.036031,35.483557 L -90.019152,35.472578 L -90.012531,35.463668 L -90.007209,35.454247 L -90.003933,35.442761 L -90.002668,35.429985 L -90.021191,35.420226 L -90.048086,35.411737 L -90.056782,35.403863 L -90.044044,35.396722 L -90.044582,35.393073 L -90.054322,35.389277 L -90.069528,35.408132 L -90.062018,35.41518 L -90.070616,35.423497 L -90.074098,35.43414 L -90.074128,35.439566 L -90.071292,35.450548 L -90.067239,35.460945 L -90.068269,35.467074 L -90.079007,35.476874 L -90.088033,35.478583 L -90.107837,35.476836 L -90.119031,35.468039 L -90.122855,35.460901 L -90.129435,35.442119 L -90.16888,35.421878 L -90.170777,35.40999 L -90.179342,35.385313 L -90.178458,35.382144 L -90.165282,35.373982 L -90.146542,35.373991 L -90.135676,35.376696 L -90.141445,35.384072 L -90.145354,35.392599 L -90.146044,35.400329 L -90.14075,35.409444 L -90.134814,35.413055 L -90.128583,35.413792 L -90.114565,35.411259 L -90.097112,35.395539 L -90.080873,35.386005 L -90.078263,35.37493 L -90.08386,35.365599 L -90.093384,35.354088 L -90.096182,35.348852 L -90.102225,35.327934 L -90.108555,35.311968 L -90.109966,35.304988 L -90.116866,35.303366 L -90.122831,35.304538 L -90.13043,35.300972 L -90.140657,35.299144 L -90.149585,35.303127 L -90.15597538022632,35.30193002385254 L -90.162058,35.298255 L -90.16528,35.29307 L -90.168917,35.279711 L -90.16559,35.272712 L -90.155264,35.258981 L -90.148858,35.254273 L -90.139717,35.252301 L -90.117346,35.255796 L -90.107554,35.255133 L -90.094337,35.24879 L -90.086352,35.238183 L -90.084542,35.231035 L -90.07616,35.221477 L -90.075466,35.214047 L -90.080923,35.208585 L -90.08885260256783,35.21206040891169 L -90.097253,35.194829 L -90.108707,35.199263 L -90.115657,35.198812 L -90.117265,35.19166 L -90.116459,35.186266 L -90.108138,35.181571 L -90.10360832518312,35.17277019896202 L -90.0981,35.169005 L -90.079554,35.159708 L -90.068236,35.15567 L -90.064298,35.148091 L -90.066547,35.136844 L -90.078239,35.12446 L -90.089667,35.118053 L -90.097167,35.117627 L -90.110293,35.120657 L -90.140857,35.132904 L -90.147147,35.133054 L -90.154697,35.130924 L -90.167358,35.123585 L -90.174638,35.115684 L -90.181374,35.094013 L -90.180987,35.084993 L -90.17574,35.077718 L -90.175244,35.073553 L -90.181157,35.053943 L -90.191217,35.040213 L -90.206997,35.025849 L -90.215331,35.025923 L -90.225914,35.029476 L -90.242059,35.03268 L -90.252342,35.031754 L -90.261703,35.036226 L -90.26436,35.0403 L -90.29088761840084,35.041508413715185 L -90.296968,35.038175 L -90.300648,35.027348 L -90.305612,35.019578 L -90.305097,35.013787 L -90.30996247076486,35.007660806933714 L -90.30833517890773,34.995694 L -90.237724,34.995542 L -90.127607,34.994684 L -90.043036,34.994964 L -89.989906,34.995089 L -89.919032,34.9948 L -89.851384,34.994188 L -89.848385,34.994409 L -89.724324,34.99479 L -89.718399,34.995293 L -89.661592,34.995295 L -89.56506,34.994989 L -89.511136,34.994632 L -89.484462,34.993968 L -89.434954,34.993754 L -89.352679,34.993863 L -89.30002,34.994381 L -89.217432,34.99473 L -89.158591,34.993953 L -89.125065,34.994694 L -89.003618,34.994994 L -88.925176,34.994844 L -88.893774,34.995905 L -88.858245,34.995136 L -88.753522,34.995295 L -88.743149,34.995133 L -88.598073,34.995652 L -88.462819,34.996082 L -88.369761,34.995468 L -88.282959,34.995651 L -88.251664,34.995468 L -88.20006571394444,34.99563885164166 L -88.202959,35.008028 L -88.156531,35.007291 L -88.005112,35.005992 L -87.848582,35.005588 L -87.830514,35.005203 L -87.662256,35.003537 L -87.625194,35.003737 L -87.520996,35.003056 L -87.424571,35.002433 L -87.385547,35.002224 L -87.303621,35.000981 L -87.235297,34.99952 L -87.120322,34.997144 L -87.055395,34.996184 L -87.029701,34.995457 L -86.938972,34.993887 L -86.915487,34.992999 L -86.8665,34.992053 L -86.816467,34.991871 L -86.6990411748191,34.99207686864639 L -86.55577,34.990753 L -86.467941,34.990486 L -86.377491,34.991725 L -86.318761,34.991169 L -86.247525,34.990414 L -86.067137,34.989514 L -86.007497,34.989021 L -85.873076,34.988282 L -85.824349,34.988118 L -85.62204658783335,34.98510421615553 L -85.605165,34.984678 L -85.474073,34.98302 L -85.384884,34.982988 L -85.286908,34.984869 L -85.255813,34.985164 L -85.235643,34.985834 L -85.221873,34.985476 L -85.13074633190762,34.98651080153978 L -85.052957,34.986731 L -84.999518,34.987563 L -84.952772,34.987943 L -84.80785,34.987594 L -84.750029,34.988123 L -84.68228448017948,34.98818098796758 L -84.624933,34.987978 L -84.621483,34.988329 L -84.503328,34.988017 L -84.487342,34.988183 L -84.377382,34.987986 L -84.321821,34.988408 L -84.320174,35.002772 L -84.31267,35.058785 L -84.299257,35.161142 L -84.294838,35.185017 L -84.290519,35.223571 L -84.283297,35.226459 L -84.275909,35.234204 L -84.259994,35.24222 L -84.25868,35.245345 L -84.25017,35.251018 L -84.243,35.25321 L -84.227484,35.267926 L -84.217718,35.26816 L -84.211395,35.265621 L -84.202887,35.255116 L -84.199212,35.243667 L -84.193166,35.244681 L -84.188957,35.240217 L -84.179067,35.240434 L -84.169869,35.246435 L -84.162894,35.243809 L -84.159486,35.245651 L -84.14797,35.246844 L -84.1394,35.246097 L -84.133619,35.242377 L -84.125958,35.241524 L -84.126491,35.247154 L -84.119077,35.252249 L -84.113083,35.249024 L -84.106849,35.251518 L -84.097504,35.247598 L -84.092318,35.249374 L -84.084934,35.255556 L -84.081215,35.260997 L -84.055598,35.268496 L -84.050669,35.273567 L -84.046719,35.274416 L -84.040542,35.280181 L -84.036239,35.288418 L -84.024254,35.295504 L -84.021495,35.301083 L -84.02674,35.309431 L -84.034115,35.311183 L -84.035829,35.315798 L -84.032184,35.328766 L -84.029287,35.333256 L -84.03624,35.337861 L -84.034001,35.343276 L -84.03839,35.350924 L -84.023714,35.354087 L -84.015057,35.364981 L -84.00757190028504,35.371494199125586 L -84.008301,35.378766 L -84.011396,35.384601 L -84.008296,35.389732 L -84.012794,35.392664 L -84.013695,35.397646 L -84.018712,35.399996 L -84.021452,35.404223 L -84.023052,35.411933 L -84.013889,35.412711 L -84.00146245012525,35.42331960419785 L -83.991777,35.440674 L -83.984433,35.44015 L -83.979757,35.44826 L -83.973077,35.44865 L -83.970948,35.455493 L -83.964797,35.454105 L -83.961102,35.463754 L -83.95297042312617,35.460552231246645 L -83.949242,35.461099 L -83.936978,35.471442 L -83.911875,35.476068 L -83.905781,35.488689 L -83.901249,35.491347 L -83.901466,35.496552 L -83.892801,35.50224 L -83.884029,35.512556 L -83.880312,35.518782 L -83.872894,35.52089 L -83.868755,35.520002 L -83.857181,35.521573 L -83.849326,35.518621 L -83.832143,35.524574 L -83.825566,35.524311 L -83.809893,35.532996 L -83.808038,35.537093 L -83.794646,35.545649 L -83.780444,35.550524 L -83.770587,35.561743 L -83.759551,35.562573 L -83.755113,35.564587 L -83.747561,35.560401 L -83.736412,35.56546 L -83.722536,35.562357 L -83.714007,35.564183 L -83.706607,35.568612 L -83.701323,35.56747 L -83.682763,35.568752 L -83.679825,35.57034 L -83.66299901004497,35.56946963217436 L -83.656014,35.570013 L -83.64536,35.566023 L -83.634899,35.568535 L -83.629468,35.568165 L -83.618719,35.572232 L -83.608498,35.580009 L -83.601774,35.578919 L -83.591778,35.571633 L -83.584374,35.562698 L -83.568064,35.564064 L -83.564979,35.566091 L -83.551171,35.563493 L -83.540717,35.565865 L -83.530304,35.564512 L -83.521974,35.565593 L -83.516234,35.562416 L -83.498544,35.562888 L -83.493317,35.56683 L -83.485834,35.56819 L -83.478631,35.57919 L -83.47916,35.583031 L -83.473963,35.5854 L -83.471296,35.590268 L -83.462692,35.59257 L -83.456589,35.597194 L -83.445676,35.611747 L -83.432303,35.60999 L -83.422038,35.611049 L -83.406522,35.61999 L -83.39295,35.624859 L -83.388726,35.633622 L -83.377926,35.634645 L -83.371828,35.639163 L -83.366163,35.640924 L -83.358246,35.647075 L -83.356036,35.654151 L -83.350985,35.660449 L -83.345007,35.661209 L -83.340782,35.664578 L -83.334656,35.665662 L -83.321616,35.663054 L -83.312379,35.654706 L -83.298567,35.657134 L -83.293497,35.662056 L -83.290951,35.672602 L -83.284252,35.674436 L -83.281342,35.677699 L -83.274467,35.679076 L -83.27068,35.686827 L -83.259291,35.690371 L -83.2544729781924,35.69551657109741 L -83.257417,35.705225 L -83.251635,35.708875 L -83.255343,35.715084 L -83.250375,35.720421 L -83.243384,35.722437 L -83.240827,35.726856 L -83.217644,35.725865 L -83.214196,35.724113 L -83.207544,35.726141 L -83.200834,35.725055 L -83.185137,35.730753 L -83.177812,35.744345 L -83.170285,35.74603 L -83.164743,35.754362 L -83.165059,35.759504 L -83.158277,35.765035 L -83.149029,35.763956 L -83.14644,35.765384 L -83.136248,35.765222 L -83.127673,35.768058 L -83.120608,35.766431 L -83.118921,35.76934 L -83.107837,35.77209 L -83.096754,35.776351 L -83.08544,35.785674 L -83.078745,35.789587 L -83.073918,35.790055 L -83.066524,35.787119 L -83.052821,35.789705 L -83.043091,35.785496 L -83.036487,35.787488 L -83.005988,35.778496 L -83.001164,35.773719 L -82.995786,35.773098 L -82.984057,35.778029 L -82.974268,35.787 L -82.969585,35.789691 L -82.961754,35.790959 L -82.962847,35.795469 L -82.951764,35.816608 L -82.94563,35.824615 L -82.936162,35.82541 L -82.93347,35.830307 L -82.93407,35.836662 L -82.920211,35.839385 L -82.91658086487384,35.841526959864275 L -82.919923,35.848295 L -82.920271,35.85615 L -82.918224,35.859493 L -82.921432,35.863105 L -82.920831,35.868178 L -82.910774,35.868573 L -82.901221,35.87268 L -82.896776,35.878257 L -82.903627,35.880458 L -82.906825,35.883908 L -82.901057,35.892483 L -82.904681,35.897017 L -82.90698,35.907577 L -82.910389,35.91254 L -82.913581,35.924341 L -82.912046,35.92956 L -82.904292,35.926153 L -82.899049,35.929613 L -82.901784,35.937852 L -82.898317,35.944967 L -82.892662,35.945003 L -82.889094,35.948246 L -82.878467,35.95012 L -82.874493,35.952768 L -82.860312,35.947452 L -82.85203,35.949329 L -82.846037,35.946169 L -82.838831,35.937447 L -82.828235,35.932541 L -82.821948,35.92183 L -82.802675,35.929571 L -82.806305,35.937377 L -82.799727,35.944661 L -82.78752468692505,35.9523635823533 L -82.785258,35.961953 L -82.77872,35.966399 L -82.776006,35.97135 L -82.78569,35.977841 L -82.785167,35.988685 L -82.779315,35.992205 L -82.77567,36.001068 L -82.77246556740147,36.000750317818905 L -82.76257,36.004844 L -82.754442,36.00439 L -82.749148,36.009726 L -82.745206,36.009783 L -82.739576,36.014709 L -82.725707,36.018089 L -82.715341,36.023554 L -82.715289,36.028537 L -82.70864,36.029721 L -82.701228,36.034359 L -82.689586,36.038157 L -82.684073,36.045795 L -82.674851,36.048833 L -82.659268,36.057117 L -82.654944,36.056281 L -82.63723,36.06582 L -82.632332,36.064307 L -82.617042,36.053768 L -82.618546,36.047147 L -82.608163,36.044013 L -82.601674,36.038225 L -82.591447,36.035568 L -82.590995,36.031574 L -82.602923,36.023371 L -82.602812,36.017931 L -82.607552,36.015951 L -82.608587,36.008286 L -82.613825,36.004917 L -82.615177,36.000826 L -82.612897,35.993606 L -82.607128,35.99236 L -82.604413,35.987463 L -82.610939,35.97438 L -82.610703,35.967203 L -82.600106,35.964594 L -82.592376,35.966262 L -82.580462,35.965248 L -82.576384,35.958843 L -82.558587,35.95389 L -82.549975,35.96384 L -82.539726,35.969085 L -82.530963,35.972136 L -82.525105,35.971046 L -82.517233,35.975769 L -82.50533315722438,35.97754407821304 L -82.500795,35.982103 L -82.48417,35.993301 L -82.481591,35.998029 L -82.476026,35.998183 L -82.470245,36.002979 L -82.46047494974248,36.00788417576853 L -82.410197,36.082552 L -82.40239,36.089238 L -82.389218,36.097097 L -82.380475,36.099347 L -82.374689,36.106134 L -82.364836,36.107429 L -82.355684,36.115139 L -82.336487,36.114623 L -82.323392,36.120181 L -82.320684,36.119677 L -82.309574,36.126091 L -82.302481,36.131465 L -82.288572,36.135727 L -82.280635,36.129478 L -82.263925,36.127297 L -82.260304,36.133533 L -82.254328,36.136058 L -82.251268,36.132155 L -82.24532908834959,36.13125462169916 L -82.241992,36.137031 L -82.235646,36.14076 L -82.224106,36.151261 L -82.222145,36.156922 L -82.213898,36.159041 L -82.201733,36.156384 L -82.199442,36.152735 L -82.192557,36.148994 L -82.187956,36.151028 L -82.183518,36.143829 L -82.177217,36.142373 L -82.172934,36.1465 L -82.166206,36.144983 L -82.155744,36.148273 L -82.148175,36.147952 L -82.144452,36.140406 L -82.136987,36.129039 L -82.137856,36.11951 L -82.1289028812838,36.10422762030368 L -82.116352,36.104301 L -82.105418,36.107837 L -82.10031,36.105671 L -82.080028,36.106433 L -82.062051,36.112923 L -82.056577,36.120949 L -82.055876,36.125127 L -82.044755,36.125556 L -82.033839,36.120475 L -82.030067,36.123393 L -82.026901,36.130154 L -82.002953,36.164766 L -81.962216,36.224949 L -81.93885978512066,36.256253464333405 L -81.918119,36.287129 L -81.908167,36.301966 L -81.89967,36.306736 L -81.88746,36.309164 L -81.876855,36.315641 L -81.866549,36.326346 L -81.865509,36.329193 L -81.841191,36.343353 L -81.825923,36.348903 L -81.809779,36.352221 L -81.797474,36.358465 L -81.790644,36.353827 L -81.790137,36.348848 L -81.778975,36.348574 L -81.774468,36.344153 L -81.764954,36.338722 L -81.761132,36.340254 L -81.75447,36.336999 L -81.744275,36.337854 L -81.736205,36.342905 L -81.727974,36.341431 L -81.71861,36.336154 L -81.707475,36.335225 L -81.705313,36.341773 L -81.70846,36.346425 L -81.717754,36.34804 L -81.722133,36.352086 L -81.724373,36.357695 L -81.726066,36.368785 L -81.730827,36.37368 L -81.733438,36.382283 L -81.729539,36.385357 L -81.72889,36.390825 L -81.731958,36.394929 L -81.739368,36.395591 L -81.741596,36.412587 L -81.729719,36.415653 L -81.727152,36.419869 L -81.720876,36.42247 L -81.718003,36.428829 L -81.721317,36.4339 L -81.715204,36.436704 L -81.713787,36.447173 L -81.71543,36.457636 L -81.708377,36.462088 L -81.699001,36.464068 L -81.695177,36.467625 L -81.694608,36.473372 L -81.697783,36.489503 L -81.695949,36.491619 L -81.700111,36.498203 L -81.696992,36.504788 L -81.70297,36.521141 L -81.708092046923,36.524145095006325 L -81.707878,36.536006 L -81.699795,36.536727 L -81.699999,36.539711 L -81.69379,36.547977 L -81.689548,36.561441 L -81.690128,36.568722 L -81.680072,36.568672 L -81.677306,36.570496 L -81.680011,36.585818 L -81.67749,36.588137 Z" fill="none" stroke=currentColor stroke-width="1" vector-effect="non-scaling-stroke"/>
</svg>