<?xml version="1.0"?>
<svg width="20" height="20" xmlns="http://www.w3.org/2000/svg" version="1.2" baseProfile="tiny" viewBox="-64.000 -366.000 928.000 928.000" stroke-linecap="round" stroke-linejoin="round">
<g id="state">
<path d="M 796.33 4.48 796.11 4.76 796.44 6.48 796.19 6.7 795.28 6.73 795.36 7.55 795.04 9.09 794.52 10.05 794.55 10.39 793.82 10.5 793.86 11.84 794.34 12.16 794.97 13.99 794.72 14.74 795.13 15.47 794.97 15.72 795.34 17.53 795.32 18.18 794.99 18.6 794.14 18.86 793.52 19.39 793.72 20.57 793.64 21.75 793.1 22.1 793.43 22.66 793.2 23.39 792.63 23.7 792.42 24.19 791.35 24.59 791.64 26.5 792.32 26.54 792.62 26.99 792.59 27.62 792.25 27.98 792.53 28.94 792.99 29.48 793.2 30.72 793.43 31.35 793.85 31.79 794.71 31.93 795.02 32.45 794.85 33.19 793.83 33.13 792.95 32.57 792.19 32.44 791.47 33.04 790.55 33.18 789.92 32.84 789.58 33.03 788.68 32.45 788.25 31.97 787.23 31.98 787.16 31.42 786.51 30.92 785.41 31.68 783.95 32.12 782.58 32.8 780.43 34.5 780.35 34.82 779.45 36.07 778.52 36.85 777.41 37.17 776.65 37.74 775.81 39.46 774.06 43.03 772.07 46.65 768.62 53.61 766.58 57.61 766.32 58.39 765.99 58.73 764.96 58.2 763.94 58.29 763.9 58.76 763.43 59.69 761.81 60.49 759.96 60.65 759.48 60.42 758.49 60.86 757.34 60.92 756.45 59.22 756.49 58.14 755.75 56.88 755.38 56.04 754.68 56.03 753.74 56.44 753.11 56.3 752.74 56.78 752.16 56.64 751.72 55.84 751.3 56.09 750.66 55.69 750.43 55.28 749.3 55.03 748.56 55.29 748.4 55.94 747.39 57.17 746.82 57.61 746.54 58.28 745.99 58.2 745.7 57.77 745.16 58.07 744.85 58.79 743.31 58.6 742.56 57.92 741.3 58.45 740.67 59.09 739.68 59.85 739.43 59.8 738.25 60.48 736.49 60.48 735.68 61.39 734.78 61.57 734.28 62.35 733.49 62.64 732.31 63.57 731.62 64.35 727.32 72.96 726.44 73.55 725.93 74.11 725.42 74.15 725.2 74.69 723.72 76.01 723.32 76.54 722.23 76.78 721.53 77.34 720.98 77.24 720.19 77.61 719.27 78.24 718.52 79.39 716.86 78.89 716.46 78.17 715.36 78.1 714.66 78.31 713.67 78.05 713.62 77.24 714.17 75.74 713.9 75.19 713.37 75.07 713.13 74.26 713.24 73.8 713.71 73.4 713.77 72.53 714.2 72.29 714.17 71.67 715.23 70.71 715.17 70.26 714.23 69.99 713.61 69.36 712.64 69.04 712.75 68.28 711.31 67.14 710.85 66.98 709.26 68.12 708.86 68.04 707.46 69.02 706.63 69.4 706.15 70.28 705.1 70.74 704.43 71.29 703.83 71.44 703.84 72.01 702.91 72.66 701.65 73.08 701.15 73.66 700.79 73.67 700.32 74.29 699.57 74.27 698.68 74.76 698.38 74.73 698.08 75.75 697.56 76.16 697.55 77.39 698.46 78.09 698.23 78.66 697.65 79.19 697.48 80.28 696.38 81.18 695.81 82.03 696.17 82.9 694.42 83.83 693.81 82.64 692.81 82.12 692.12 81.15 691.56 80.81 690.8 81.05 689.48 80.49 689.12 80.8 688.15 81.04 687.84 81.42 687.32 81.44 687.02 82.26 687.3 83.18 686.83 83.59 686.11 83.22 685.99 83.82 686.32 85.14 686.65 85.69 686.9 86.88 687.25 87.38 686.75 88.37 687.06 88.75 687.7 88.98 687.31 89.62 686.44 90.12 685.52 90.19 685.48 90.77 685.79 91.16 685.61 91.55 685.67 92.44 686.01 93.19 685.68 93.44 684.41 93.79 684.49 94.51 684.26 95.07 683.39 95.19 682.85 96.11 681.91 98.53 682.02 99.04 681.31 99.2 680.89 99.52 680.02 100.56 678.95 101.16 678.45 101.1 677.99 100.57 675.15 99.64 674.55 99.89 673.64 99.44 672.39 99.77 671.69 99.46 671.25 99.52 670.65 99.98 669.64 101.07 668.63 101.58 667.62 101.92 667.47 102.26 666.81 102.09 666.03 102.43 665.09 102.44 664.86 102.61 664 102.51 663.4 103.16 663.44 103.74 662.96 104.7 662.27 104.91 661.64 106.46 660.21 107.15 659.59 107.04 658.98 107.29 658.66 107.1 656.52 107.05 656.3 107.56 655.66 107.8 655.22 108.42 655.58 109.11 655.06 109.54 655.36 110.63 654.93 111.22 653.89 111.65 653.57 112.54 652.94 112.71 652.68 113.09 652.07 113.31 651.86 114.51 651.41 115.08 650.14 115.39 649.27 114.47 648.05 114.21 647.49 114.35 647.11 114.74 646.56 114.84 646.12 115.56 645.93 116.37 645.22 117.09 644.7 117.3 644.16 117.83 643.16 117.97 642.8 118.97 641.56 119.55 640.15 120.6 639.21 120.75 637.97 120.58 637 122.25 636.45 122.79 635.67 123.07 635.43 123.63 634.96 123.91 635.02 124.34 634.39 125.6 633.7 125.77 633.23 126.23 631.59 126.33 631.05 125.98 630.29 126.12 629.32 125.99 628.36 126.29 627.08 126.02 626.8 126.26 625.3 126.45 624.59 125.46 623.64 124.66 623.02 124.55 622.1 125.45 621.11 125.94 620.61 125.91 619.65 126.21 618.66 125.79 618.01 125.86 616.46 125.8 616.19 125.99 614.48 126.17 613.99 126.06 613.31 126.57 612.53 126.8 611.24 126.48 610.22 127.07 609.51 126.61 609.11 126.85 608.09 126.97 607.21 128.26 605.91 128.84 604.69 129.83 604.53 130.3 603.1 131.32 602.5 131.3 600.92 132.01 600.19 131.69 599.12 131.89 598.74 131.8 598.06 132.05 597.73 132.76 596.94 133.95 596.15 134.61 596.19 135.2 595.77 135.51 595.24 136.95 592.93 137.52 591.82 138.71 591.48 138.78 590.72 138.44 590.4 139.53 589.82 139.39 589.64 140.17 589.03 140.22 588.61 141.15 587.93 141.1 587.07 143.09 585.95 144.31 585.1 144.41 585.27 145.28 585.53 145.76 586 146.01 586.1 146.57 586.52 146.9 586.24 147.48 586.54 148.14 586.63 148.96 585.95 149.71 585.17 150.96 583.82 151.34 584.24 152.2 584.05 152.82 584.7 153.32 584.45 153.84 584.14 155.31 584.31 155.83 584.99 156.01 585.5 156.95 585.26 157.58 584.16 158.41 583.78 159.35 583.22 160.01 582.86 160.11 582.41 160.7 580.05 161.59 579.72 162.21 579.05 162.93 578.57 163.14 577.69 162.71 577.12 163 576.56 162.65 575.88 163.24 575.94 163.88 575.23 163.79 574.69 163.38 573.89 163.31 572.82 163.47 572.51 163.68 571.86 163.4 571.02 164.09 570.1 164.13 569.7 163.64 569.14 163.76 568.78 162.47 567.97 161.3 567.37 161.02 566.47 161.06 565.06 162.76 564.4 163.02 563.62 163.67 563.5 164.03 562.04 164.96 561.37 165.85 560.71 166.19 560.38 170.55 560.02 173.26 558.97 184.86 558.38 191.21 558.26 192.83 553.09 192.97 542.85 193.11 541.36 193.15 530.36 193.28 530.04 193.32 524.7 193.37 518.4 193.46 513.02 193.59 499.52 193.71 495.17 193.79 490.2 193.94 482.96 194.03 474.47 194.22 473.19 194.19 471.31 194.28 468.42 194.33 459.3 194.61 451 194.65 438.79 194.52 437.22 194.48 418.38 194.19 413.85 194.18 401.33 194.1 395.78 194.05 378.99 193.92 372.35 193.81 366.89 193.73 358.47 193.84 350.29 193.76 336.95 193.53 326.02 193.47 321.36 193.4 316.8 193.26 314.62 193.14 306.18 192.87 303.78 192.76 297.74 192.59 287.04 192.19 280.69 191.94 273.06 191.7 269.43 191.62 260.46 191.42 250.76 191.18 247.31 191.15 231.66 190.68 229.97 190.61 215.41 190.27 201.32 189.83 197 189.65 197.24 191.05 192.44 190.96 189.53 190.88 181.45 190.7 172.79 190.42 160.2 190.14 146.7 189.83 145.73 189.79 135.99 189.53 132.69 189.34 129.76 189.38 122.46 189.14 111.16 188.82 108.04 188.8 102.57 188.54 94.88 188.32 89.98 188.21 82.32 187.96 77.72 187.77 75.24 187.61 70.22 187.39 61.25 187.02 55.96 186.82 55.41 186.86 43.87 186.45 43.59 186.47 37.3 186.15 30.71 185.85 25.76 185.66 17.9 185.36 7.66 184.83 1.09 184.52 1 183.16 1.48 182.49 1.46 181.84 1.96 180.98 2.36 179.77 2.94 179.42 5.4 179.66 5.63 180.13 6.48 180.68 7.44 180.61 8.92 181.04 9.89 181.48 10.66 181.53 12.2 179.97 13.2 178.45 13.85 176.26 13.82 175.79 13.37 174.94 13.37 173.92 14.1 171.5 14.82 170.64 16.03 169.86 16.74 169.65 17.32 169.69 20.1 171.19 21.31 171.59 22.01 171.57 23.1 170.89 24.24 169.53 24.5 168.27 24.17 167.4 23.14 166.9 21.47 165.78 20.97 165.33 20.59 164.32 19.84 163.75 19.79 163.14 19.98 162.34 20.62 162.31 21.67 162.86 22.53 160.94 23.25 161.37 23.78 160.77 23.75 159.93 23.02 158.82 22.88 158 22.19 156.77 21 156 20.09 155.89 18 156.2 17.16 155.94 16.59 155.38 15.7 153.79 15.43 152.99 15.83 151.49 16.15 150.92 16.73 150.53 17.33 150.42 18.14 150.9 19.09 150.73 19.82 150.36 20.36 150.52 21.01 150.36 21.17 149.58 21.84 147.8 22.49 145.46 22.78 144.87 23.71 143.61 24.28 142.58 24.09 141.32 22.63 140.18 21.09 138.33 19.8 137.99 19.22 138.05 18.66 138.43 18.12 139.44 18.15 140.32 18.47 141.3 18.97 142.15 17.95 142.42 16.22 142.35 15.04 141.37 14.97 141.01 15.88 138.25 16.11 136.92 19.86 134.78 20.56 132.69 20.95 131.9 22.02 130.94 23.86 130.82 24.69 131.05 25.64 132.2 25.7 132.9 25.28 134.06 24.96 135.29 24.94 135.9 25.21 137.12 25.97 138.09 25.24 138.86 26.56 141.05 27.48 140.66 27.55 140.25 26.4 139.39 27.24 138.53 29.77 137.68 31.53 136.64 31.47 135.19 31.22 133.88 30.77 132.8 30.2 131.77 28.69 130.46 28 129.18 27.67 128.15 27.54 126.7 27.98 125.2 28.32 124.58 28.64 123.23 29.48 122.48 30.68 122.34 31.43 121.97 32.37 121.84 33.33 121.97 34.59 122.79 36.02 124.07 36.34 125.15 36.02 126.2 38.1 127.2 38.94 127.7 39.96 127.72 40.58 127.47 41.24 126.27 41.13 125.11 40.56 124.8 40.57 123.71 40.26 123.45 38.98 123.22 37.7 122.5 36.66 120.3 36.38 119.26 36.53 118.66 37.38 117.61 38.91 116.75 40 116.37 40.83 115.78 41.91 116.1 42.77 115.99 44.31 114.9 46 114.01 46.31 113.46 46.57 112.25 46.44 111.07 45.95 110.19 45.16 110 44.1 110.51 43.56 111.51 42.56 112 41.24 111.93 39.71 111.14 38.91 110.34 38.17 109.13 37.52 108.27 37.05 107.38 37.03 104.83 36.92 103.63 37.34 102.87 38.34 102.3 38.95 101.37 40.93 100.35 41.31 99.94 41.82 99.78 42.46 100.46 43.43 100.79 45.17 100.26 45.91 100.18 46.89 100.45 47.03 101.43 48.08 101.97 49.32 101.67 50.47 101.12 51.65 100.41 51.82 100.16 51.79 98.9 52.11 97.68 51.89 96.89 52.22 96.39 53.62 95.04 55.14 94.6 55.86 94.57 56.98 95.04 57.61 95.1 58.53 95.51 59.29 95.18 60.42 94.48 61.52 93.6 61.78 93.09 61.75 92.01 60.95 91.44 59.24 90.66 56.37 89.59 55.12 88.89 54.76 88.39 54.58 87.65 54.88 86.21 55.51 85.16 57.49 83.25 58.31 83.14 59.03 83.24 60.07 83.76 62.12 85.69 63.62 87.33 64.81 87.6 65.68 87.16 66.48 86.4 66.85 85.31 66.98 84.41 66.93 83.27 66.75 82.44 66.23 81.66 64.93 80.81 63.97 80 61.76 78.65 60.51 77.8 59.84 76.89 59.68 75.39 59.82 74.46 59.1 73.58 58.94 73.11 61.34 73.17 61.47 72.72 62.75 71.02 63.29 69.5 63.62 67.51 63.94 65.19 64.15 64.05 64.89 63.02 65.44 62.59 67.64 61.79 69 61.47 71.76 59.89 72.33 59.01 72.51 57.61 72.49 56.7 71.97 55.41 71.23 54.27 70.23 53.24 68.56 52.16 66.97 50.68 64.77 48.97 63.61 47.9 62.5 46.54 62.51 46.17 63.17 44.98 63.49 44.75 64.3 45.15 65.04 45.31 67.49 45.13 68.82 45.48 71.13 46.56 71.93 46.72 73.31 46.62 74.56 46.17 75.48 45.45 76.05 45.41 77.15 45.85 77.83 45.68 78.19 45.27 78.24 44.27 78.11 43.02 77.46 42.16 76.43 42.37 74.32 41.13 73.81 40.54 71.36 38.66 70.65 37.09 70.72 36.32 71.1 35.6 71.59 35.12 72.53 34.87 74.26 35 76.18 35.6 77.59 35.75 78.8 35.52 79.66 34.93 80.01 34.51 80.59 33.25 80.97 31.71 80.62 30.42 79.65 28.62 78.17 26.34 77.93 25.55 78.15 24.23 79.68 22.84 80.05 22.28 80.43 21.12 80.39 19.79 79.18 18.31 78.78 17.55 83.69 17.78 82.81 20.15 82.98 21.11 83.47 21.78 84.33 22.23 85.44 22.34 86.46 21.92 87.98 20.51 88.94 19.36 89.91 17.83 92.31 17.89 100.59 17.26 104.63 17.5 111.02 17.84 115.52 18.13 127.38 18.64 131.7 18.84 148.37 19.26 157.09 19.52 161.42 19.7 169.86 19.9 174.37 20.14 179.11 20.25 184.59 20.46 193.4 20.69 202.6 21.01 213.38 21.44 214.46 21.53 215.72 20.16 215.96 19.39 216.01 18.51 216.44 17.05 216.32 14.75 215.82 12.53 215.48 9.55 214.57 6.45 214.56 5.76 214.32 4.95 213.7 3.82 213.46 2.85 213.32 1 215.82 1.07 218.55 1.23 226.39 2.32 228.51 2.57 233.43 3.05 233.02 6.5 235.95 6.42 246.4 6.32 252.76 6.28 261.02 6.33 267.47 6.27 276.76 6.29 279.9 6.3 288.11 6.4 299 6.48 304.43 6.48 310.85 6.37 312.59 6.38 320.51 6.2 324.16 6.19 332.43 6.04 335.09 6.07 338.89 6 348.24 5.75 350.6 7.91 351.76 7.41 351.88 6.65 352.48 6.75 352.44 7.14 355.73 5.8 364.52 6.01 369.33 6.16 371.75 6.29 375.3 6.69 386.97 7.57 395.35 8.04 399.07 8.38 404.18 8.63 417.36 9.34 421.3 9.34 431.53 9.74 447.49 10.05 448.69 9.99 454.08 9.54 458.35 9.32 462.72 9.04 463.61 8.87 465.84 8.86 466.41 8.65 467.98 8.57 477.58 8.72 483.15 8.89 490.85 9.23 494.01 9.45 495.54 9.61 499.08 10 508.85 10.7 516.07 10.83 521.96 10.89 527.49 11.02 535.19 11.28 539.71 11.18 544.07 11.16 550.15 11.23 559.79 11.4 560.67 11.37 563.77 11.29 574.96 11.16 577.88 11.18 584.52 11.13 596.06 11.34 605.25 11.39 612.74 11.33 614.1 9.24 616.82 9.27 618.97 9.44 624.91 9.37 632.65 9.18 641.93 8.92 650.5 8.6 651.9 9.05 659.68 8.82 664.33 8.67 675.23 8.37 685.85 8.08 689.19 7.95 699.46 7.62 710.13 7.24 722.49 6.57 724.44 6.65 728.38 6.45 733.3 6.27 740.11 5.94 743.77 5.81 747.36 5.64 751.41 5.63 757.58 5.36 762.63 5.2 765.6 5.07 772.9 4.8 773.85 2.27 780.58 2.14 787.65 2.05 790.8 1.98 799 1.67 796.33 4.48 Z" fill="none" stroke="currentColor" stroke-width="46.400"/>
</g>
</svg>