<?xml version="1.0"?>
<svg width="20" height="20" xmlns="http://www.w3.org/2000/svg" version="1.2" baseProfile="tiny" viewBox="-64.000 -139.000 928.000 928.000" stroke-linecap="round" stroke-linejoin="round">
<g id="state">
<path d="M 766.52 212.47 766.51 217.43 766.52 221.9 766.51 225.97 766.51 235.8 766.53 239.44 766.5 242.66 766.52 244.45 766.52 253.7 766.54 258.41 766.53 259.19 766.55 263.15 766.54 266.78 766.56 267.09 766.54 269.15 766.54 274.43 766.76 274.86 767.39 274.62 767.74 274.97 767.99 275.05 768.13 275.53 768.65 275.93 769.12 276.78 769.47 277.26 769.76 277.5 769.87 277.77 770.21 278.05 770.56 278.94 770.9 279.25 771.38 278.99 771.58 279.05 771.95 279.82 772.93 279.9 773.39 279.69 773.86 280.14 773.25 280.85 773.95 281.09 774.3 280.89 774.57 280.95 775.3 280.82 775.42 281.3 775.08 281.73 775.6 282.18 776.32 282.37 776.31 282.6 775.86 283.09 776.25 283.22 776.17 283.64 776.48 283.79 776.85 284.31 776.73 285.18 777.19 285.61 777.55 285.79 778.04 286.2 778.15 286.53 778.47 286.41 778.89 286.52 779.12 286.87 778.99 287.27 779.29 287.67 779.91 288.14 779.47 288.93 779.36 289.29 779.04 289.56 779.36 289.85 779.79 290.52 780.34 290.8 780.51 291.74 780.25 292.08 780.54 292.15 780.85 292.44 781.44 292.27 781.61 292.48 780.86 293.73 780.61 293.84 780.22 294.3 779.87 294.26 779.67 294.62 779.72 294.98 780.16 295.56 780.29 296.3 780.07 296.82 780.25 297.32 779.7 297.5 779.27 298.14 778.97 298.27 778.89 298.73 779.16 299.52 779.44 299.94 779.63 299.99 780.16 300.45 779.93 300.58 780.02 301.22 780.43 301.69 781.08 302.11 781.08 302.4 781.35 302.64 781.87 302.89 782.19 303.18 783.71 303.31 784.03 302.95 784.72 303.1 784.89 303.66 785.08 303.92 786.6 303.95 786.66 304.11 786.16 304.4 785.89 304.98 785.98 305.2 785.45 305.53 784.81 305.76 784.41 305.66 784.6 306.09 784.41 306.29 784.35 306.66 784.81 306.83 785.44 307.34 786.02 307.59 786.41 307.37 786.8 307.39 787.13 307.56 786.78 308.22 786.86 308.31 787.76 308.4 787.8 308.57 787.07 309.69 787.06 310.17 787.61 310.26 787.94 310.43 788.44 310.94 788.93 310.97 789.17 311.61 789.24 312.5 788.98 312.74 789.34 312.93 789.89 312.85 790.56 312.59 791.04 312.56 790.75 312.93 790.54 313.38 789.27 313.69 789.2 314.6 788.75 315.11 788.94 315.46 788.36 315.81 788.11 316.25 788.19 316.67 788.35 316.82 788.85 316.85 789.19 316.99 789.83 318 790.47 317.87 790.74 318.33 790.76 318.66 791.02 318.78 792.16 318.65 792.22 319.02 792.58 319.38 792.56 319.85 792.11 320 792.43 320.26 792.44 320.7 792.32 320.97 792.78 321.03 793 321.29 793.53 321.09 793.47 321.47 793.69 321.78 793.24 321.95 793.22 322.29 793 322.72 793.31 322.99 793.29 324.09 793.41 324.43 794.09 325.05 794.82 324.89 795.28 324.34 795.81 324.05 796.43 323.81 796.93 324 797.42 323.87 797.6 324.21 797.51 324.55 796.93 324.71 797.29 325.51 797.06 325.65 796.55 325.67 796.56 326.13 796.79 326.87 797.2 327.44 797.11 328.13 796.71 328.38 796.45 329.08 795.71 329.21 795.66 329.45 796.38 329.92 796.33 330.34 797.07 330.4 797.52 330.6 797.82 330.61 797.76 330.93 798.28 331.13 798.35 331.37 798.22 331.65 797.55 331.78 797.82 332.2 798.29 332.39 798.29 332.59 798 332.76 799 333.17 798.96 333.37 798.15 333.91 797.47 333.98 797.12 334.63 796.72 334.52 796.38 334.57 796.11 334.9 795.7 334.59 795.52 334.33 795.16 334.55 794.97 334.99 794.75 335.13 795.12 335.67 795.53 335.7 795.44 336.38 794.99 336.73 795.34 337.01 795.93 336.9 796.63 337.27 796.69 337.69 797.12 337.77 797.57 337.67 797.54 338.23 797.69 338.64 797.92 338.93 797.83 339.5 797.61 339.72 796.82 339.92 796.51 339.73 796.34 340.11 795.96 340.38 796.28 340.71 796.22 341.04 796.51 341.36 795.48 341.52 795 342.15 795.21 342.71 795.66 342.73 795.58 343.02 795.95 343.16 795.74 343.74 796.02 344.12 795.37 344.67 795.98 344.85 796.25 345.15 796.02 345.55 796.22 345.77 795.58 346.28 795.82 346.69 795.68 346.92 794.97 347.2 794.51 347.09 794.39 347.4 794.56 347.79 794.42 348.02 794.07 348.09 794.37 348.42 794.03 348.64 793.82 348.96 793.91 349.49 793.4 349.59 792.87 349.88 792.53 349.95 792.92 350.43 792.83 350.64 792.27 350.8 792.65 351.12 792.87 351.53 792.89 352.19 792.64 352.34 792.24 352.81 791.95 353.44 792.19 353.71 791.78 354.12 791.53 354.7 791.02 355.02 790.68 354.97 790.58 355.25 790.09 355.17 789.71 355.71 789.44 355.69 789.16 355.91 789.14 356.23 788.38 356.95 788.54 357.31 788.28 357.56 788.26 357.9 788.45 358.3 788.02 358.77 788.37 358.93 788.64 359.51 788.65 359.79 788.26 359.91 787.72 359.78 787.15 360.11 786.52 360.18 786.5 360.63 786.27 360.78 786.05 360.61 785.69 360.96 785.67 361.5 785.88 361.74 785.81 362.03 785.45 362.29 785.58 362.78 785 363.01 785.04 363.24 785.4 363.33 785.3 363.58 785.73 363.97 786.06 364.01 786.22 364.24 786.69 364.45 786.89 364.83 786.76 365.11 786.44 365.43 786.35 365.84 786.77 366.41 786.57 366.78 786.73 367.09 786.68 367.4 786.99 367.55 787.39 367.96 786.97 368.05 786.93 368.22 787.23 368.55 786.9 368.79 787.07 368.96 787.4 368.83 787.47 369.22 786.85 369.74 786.67 369.56 786.35 369.85 785.96 369.63 785.77 369.71 785.67 370.66 785.29 370.67 785.24 371.07 784.56 371.79 784.26 371.79 783.87 372.14 783.81 372.57 783.98 372.78 783.99 373.46 783.88 373.75 783.95 374.22 783.84 374.58 783.39 375.07 783.57 375.27 783.45 375.82 783.98 375.74 783.94 376.04 784.42 376.49 784.58 376.94 784.95 377.44 785.28 377.72 785.76 377.76 785.97 377.96 786.79 378.13 787.08 378.28 787.06 378.82 786.87 379.36 786.83 379.77 787.14 380.12 786.8 380.93 786.93 381.07 787.16 381.31 786.56 381.91 786.68 382.33 786.55 382.6 786.23 382.51 786.1 382.79 786.32 382.96 786.08 383.21 786.44 383.45 786.27 383.69 786.99 384.09 786.76 384.27 786.71 384.96 786.91 384.97 787.17 385.45 787.25 385.81 786.93 386.31 786.98 386.67 787.49 386.58 787.76 387.26 788.03 387.37 787.79 387.66 787.28 387.53 787.31 388.28 787.1 389.15 786.57 389.32 786.47 389.69 785.89 390.23 785.95 390.74 785.69 390.84 785.78 391.11 786.42 391.69 787.17 391.85 787.39 392.21 787.11 392.58 786.68 392.57 786.52 391.88 786.17 392 786.06 392.7 785.13 393.54 784.98 393.89 784.94 394.42 784.65 394.7 784.01 394.94 783.2 395.76 783.01 396.12 782.3 396.29 781.88 396.69 781.51 397.57 780.88 398.46 780.65 399.07 780.23 400.83 779.44 402.29 778.67 403.33 777.64 404.38 776.88 404.89 776.04 405.25 774.99 405.9 774.21 406.51 773.82 406.88 773.51 407.44 773.46 408.2 773.6 408.66 773.85 408.93 775.3 409.75 775.68 410.14 775.77 410.4 775.58 410.88 775.64 411.24 775.89 411.53 776.79 411.8 777.03 411.94 777.44 412.64 778.91 414.58 778.76 414.84 778.99 415.37 777.56 415.37 773.81 415.16 772.01 415.11 770.06 415.17 769.05 415.22 768.2 415.33 765.7 415.85 763.31 416.5 760.19 417.59 757.89 418.45 753.33 420.24 751.29 421.06 745.32 423.31 739.36 425.57 734.85 427.38 732.92 428.2 730.77 429.17 729.36 429.89 727.75 430.82 726.97 431.37 726.1 432.14 725.17 433.41 724.88 434 724.58 434.27 724.29 434.12 724.06 433.79 723.29 434.29 722.88 434.64 722.76 434.4 722.36 434.46 721.83 434.66 721.71 434.44 721.92 434.08 721.89 433.79 721.55 433.69 722.53 432.9 722.13 432.61 722.1 432.37 722.57 431.86 723.27 431.36 723.85 431.8 724.46 431.4 725.18 430.75 725.55 430.5 725.95 430.42 726.4 430.1 726.4 429.87 726.72 429.48 726.88 429.12 727.39 428.69 727.51 428.31 728.03 427.86 728.71 427.62 729.65 427.76 730.23 427.92 730.97 427.71 731.73 427.39 732.29 427.29 732.74 426.84 732.99 426.1 733.01 425.81 733.57 425.13 734.23 424.57 734.57 424.41 735 424.37 735.48 424.53 736.19 424.95 736.93 425.23 737.82 425.2 738.27 425.54 738.62 425.62 739.17 425.42 739.44 425.06 739.49 424.24 739.8 423.76 740.21 423.51 740.55 423.01 740.35 422.72 740.21 422.75 739.98 422.89 739.74 422.98 739.39 423.06 739.04 423.21 739.02 423.21 738.99 423.25 738.89 423.43 738.55 423.58 738.14 423.63 737.47 423.76 737.44 423.76 737.4 423.47 737.41 423.38 737.32 423.06 736.86 422.74 736.78 422.69 736.35 422.36 736.18 422.06 735.87 421.82 735.67 421.77 735.46 421.74 735.34 421.73 734.75 421.79 734.68 421.8 734.47 421.88 734.41 421.91 734.2 422.02 733.45 422.34 733.25 422.41 733.17 422.44 733.02 422.48 732.87 422.48 732.84 422.48 732.37 422.7 732.07 422.79 731.54 422.92 731.4 422.96 731.09 423 730.84 423.06 730.41 423.18 730.17 423.22 729.66 423.29 729.63 423.29 729.51 423.31 729.45 423.32 729.38 423.33 729.32 423.34 729.05 423.4 728.71 423.54 728.69 423.55 728.65 423.57 728.33 423.65 727.85 423.78 727.78 423.8 727.62 423.85 727.41 423.92 727.35 423.93 727.07 423.92 726.69 423.94 726.59 423.93 726.54 423.91 726.41 423.91 726.24 423.96 726.22 423.96 725.57 424.18 725.39 424.17 724.93 424.34 724.83 424.38 724.29 424.55 724.15 424.61 724.04 424.6 723.76 424.57 723.73 424.57 723.41 424.71 723.39 424.71 723.24 424.73 722.96 424.77 722.81 424.78 722.55 424.72 722.32 424.64 721.69 424.29 721.59 424.13 721.52 424.01 721.5 423.92 721.35 423.65 721.33 423.61 721.23 423.45 721.74 423.27 722.25 423.84 722.87 423.71 723.5 423.18 723.59 423 723.37 422.53 723.71 422.19 724.38 421.7 724.82 421.01 725.09 420.43 725.7 419.56 726.19 418.65 726.54 417.78 726.77 416.43 726.83 415.24 727.26 414.51 727.24 413.52 727.07 412.65 726.8 412.32 726.77 411.79 726.94 411.34 726.75 410.85 726.86 410.51 726.1 410.07 725.82 409.48 725.48 409.17 725.05 409.21 725.08 408.43 724.71 408.65 724.27 408.59 723.73 408.65 723.53 409.05 722.31 409.46 721.31 409.9 720.55 410.12 719.61 410.55 719.06 411.15 717.43 412.8 717.1 413.48 716.59 414.38 716.44 415.39 716.13 415.84 714.96 416.45 713.96 416.8 713.22 416.7 713.17 416.26 712.8 416.02 712.42 415.4 712.24 415.29 712.27 414.54 711.87 414.23 710.46 414.08 709.97 413.94 709.7 413.55 709.11 413.54 708.83 413.28 708.53 413.56 708.18 413.36 707.55 413.72 707.23 414 707.56 414.16 708.34 414.29 708.99 414.96 709.14 415.23 709.43 415.2 709.47 415.5 708.32 416.24 707.68 417.15 707.44 417.78 707.47 418.2 707.87 418.74 709.06 419.59 709.44 420.09 709.12 420.53 708.36 421.2 707.69 422.08 707.28 422.91 707.33 423.25 707.36 423.32 707.46 423.78 707.48 423.83 707.64 423.98 707.72 424.06 707.8 424.14 707.95 424.37 708.21 424.67 708.39 424.8 708.93 425.17 709.16 425.29 709.39 425.4 709.69 425.52 710.49 425.73 710.57 425.76 710.83 425.82 711.67 426.03 712.58 426.24 712.96 426.33 713.72 426.47 713.74 426.47 713.85 426.45 713.82 426.72 712.92 428.02 712.74 427.47 712.55 427.39 712.04 427.46 711.22 427.91 711.31 428.22 712.15 428.9 712.58 429.16 714.95 430.28 715.2 431.3 715.14 431.51 715.26 433.11 715.08 433.65 715.55 433.64 716.49 433.89 716.5 434.3 714.97 435 714.06 435 713.94 435.57 713.97 435.97 714.89 436.86 714.91 437.58 714.46 438.25 713.93 438.55 713.7 438.81 713.35 438.81 712.8 438.59 712.89 438.35 713.44 438.32 713.85 438.43 714.16 438.24 714.02 437.86 712.24 437.49 711.91 437.58 711.79 438.05 711.17 438.81 710.7 439.17 710.16 439.41 709.89 439.73 709.07 440.51 707.76 441.96 707.04 442.41 706.73 442.75 706.29 443.77 705.83 444.05 704.93 444.44 704.76 444.46 703.49 445.12 702.48 445.84 702.09 445.96 701.57 445.98 701.83 445.52 701.68 444.98 701.36 444.5 700.68 444.66 700.24 444.97 700.01 444.78 699.24 444.68 698.85 444.77 698.83 445.24 699.14 445.29 699.28 445.73 699.03 446.18 699.06 446.69 698.93 447.06 698.96 447.42 698.67 447.73 698.69 447.99 698.23 449.26 698.24 449.75 698.54 450.1 698.63 450.41 698.9 450.44 699.26 450.68 699.83 451.28 700.01 451.66 700.43 451.71 700.83 451.97 700.87 452.33 699.58 453.27 696.84 455.11 693.09 457.9 691.85 458.95 690.99 459.78 690.48 460.43 688.92 461.33 687.7 462.18 685.46 464 685.26 464.08 685.08 464.52 683.11 465.15 681.86 465.15 680.25 465.8 677.58 467.21 674.17 469 672.62 469.79 669.94 471.12 669.02 471.53 668.33 471.74 668.22 472.04 665.97 473.23 663.69 474.49 661.5 475.65 659.03 476.9 657.73 477.54 654.31 479.02 649.13 481.08 648.64 481.35 648.34 481.31 647.67 481.57 644.98 482.66 642.58 483.66 638.84 485.37 636.64 486.4 635.17 487.12 634.06 487.72 631.22 489.3 629.65 490.34 628.44 491.31 628.21 491.61 627.61 491.53 626.84 491.93 626.1 492.45 625.2 493.16 625.09 493.31 623.93 494.17 623.99 494.58 623.32 495.67 622.57 496.54 621.74 497.27 620.74 498.07 620.17 498.38 619.22 498.79 617.74 499.38 616.1 500.11 613.59 501.32 612.23 502.06 609.25 503.83 607.78 504.76 605.53 506.25 603.63 507.57 601.95 508.79 598.27 511.63 595.93 513.57 593.8 515.5 591.3 517.87 589.22 520.04 587.42 522.07 586.47 523.21 585.37 524.67 584.61 525.93 584.35 526.42 584.1 527.11 583.55 526.64 583.68 526.23 584.16 525.33 584.29 524.94 584.15 524.22 584.18 523.97 584.49 523.78 584.72 522.9 584.9 522.66 585.5 522.54 585.83 522.2 586.35 521.98 586.61 521.7 587.08 520.98 586.22 520.8 585.75 520.86 585.12 521.22 585.12 520.78 587.1 520.47 587.51 520.45 587.79 520.09 587.86 519.6 587.73 518.85 587.85 518.31 588.45 517.01 588.86 516.3 589.57 515.51 589.66 515.18 590.17 514.63 590.12 514.11 590.62 514.21 590.93 513.96 591.04 512.97 591.43 511.99 591.77 511.68 592.63 511.25 593.42 511.04 594.16 510.92 594.18 510.74 593.7 510.64 593.75 510.3 594.24 509.6 594.19 509.4 594.56 509.25 595.21 509.79 595.68 510.04 596.11 510.63 596.37 510.78 597 510.48 597.27 510.64 597.5 510.55 598.39 509.87 598.48 509.68 598.41 509.28 598.86 509.13 598.87 508.59 598.53 508.57 598.08 508.76 597.93 508.52 598.03 507.73 597.75 507.3 598.3 506.73 598.71 506.53 599.15 506.09 599.88 505.84 600.79 505.93 602.31 505.9 602.97 505.82 603.17 506.01 603.89 506.06 604.14 505.63 604.62 505.42 604.99 505.37 605.27 505.08 604.96 504.27 605.74 504.12 606.7 503.72 607.39 503.64 607.66 503.43 607.39 503.25 607.59 502.92 607.97 503.04 607.97 502.63 608.14 502.59 608.25 502.05 609.02 501.61 609.43 501.45 610.21 501.39 610.08 501.14 610.44 500.77 611.06 500.56 611.44 500.52 611.5 500.13 610.98 500.22 610.81 500.1 610.98 499.59 611.26 499.55 612.28 499.04 612.68 499.09 613.71 499.04 614.39 498.81 614.53 498.4 614.75 498.14 615.21 497.88 615.74 497.74 618.33 497.31 619.22 497.14 620.29 496.85 620.88 496.53 620.81 495.96 621.3 495.27 621 494.96 620.62 494.87 619.01 495.18 619.19 494.78 620.14 494.27 620.46 493.53 622.09 492.8 622.35 492.22 622.13 492.04 620.13 491.93 619.34 492.46 618.54 492.9 616.57 494.08 615.85 494.39 614.23 494.93 612.83 495.57 612.1 496.05 611.1 496.89 609.95 497.98 609.67 498.15 610.18 498.77 609.96 498.9 609.57 498.83 609.59 498.36 609.23 498 607.75 498.06 607.28 498.19 607.24 498.56 606.07 498.26 605.86 497.43 604.81 496.17 604.7 495.82 605.08 495.46 605.17 494.88 605.16 494.23 605.02 494.01 604.52 493.68 604.74 493.5 604.75 492.79 604.37 492.57 603.48 492.5 603.33 492.56 602.18 492.29 601.93 491.78 601.92 491.03 601.55 490.56 600.04 489.7 599.48 489.07 599.47 488.18 599.05 488.09 598.14 488.5 597.38 489.05 597.49 489.6 597.94 489.47 598.4 489.68 598.95 489.47 599.44 489.52 599.62 489.87 599.95 490.13 600.31 490.72 600.83 491.33 601.2 491.52 601.05 491.83 601.19 492.29 600.34 492.79 600.21 493 599.85 492.93 598.89 492.25 598.63 491.96 598.29 491.83 597.91 491.45 597.54 491.29 597.27 491.34 596.73 491.07 596.16 491.28 595.58 491.89 595.43 492.25 595.54 492.54 596.24 493.06 596.75 493.7 597.47 494.35 598.09 494.74 599.1 495.2 599.38 495.21 599.56 495.65 599.36 496.22 599.65 497.76 599.55 498.4 598.68 499.33 598.47 499.73 598.68 500.22 599.15 500.62 599.2 501.02 599.7 501.65 599.91 502.45 600 502.56 600.06 503.23 599.95 503.42 598.99 503.86 598.78 503.81 598.28 504.14 598.34 504.39 598.03 504.68 597.8 504.61 597.5 504.96 597.54 505.28 596.86 505.84 596.29 506.44 596.34 506.72 595.64 506.88 595.23 506.88 594.83 507.11 594.62 507.4 593.77 507.95 593.65 508.37 592.98 508.64 592.63 509.23 592.67 509.46 592.26 509.7 592.18 510.05 591.53 510.39 591.38 510.35 592.34 509.18 592.11 509 592.5 508.6 592.35 508.42 591.25 509.53 591.06 509.84 589.91 509.93 589.29 509.88 589.42 509.39 589.72 509.09 589.97 508.56 590.25 508.31 590.12 507.84 590.37 507.42 590.46 506.97 590.87 506.79 591.05 506.32 591.35 505.85 591.54 505.25 591.22 505.12 591.09 504.57 590.52 504.33 590.39 504.14 590.52 503.79 590.87 503.42 590.9 503.13 591.26 503.1 591.36 502.62 591.77 502.18 591.67 501.86 591.95 501.76 592.22 501.33 592.11 500.99 591.24 501.47 591.15 501.97 590.83 502.09 590.32 502.14 589.9 502.49 589.9 503.07 588.81 504 589.24 504.56 589.59 504.82 590.19 505.43 589.95 506.06 589.3 506.49 588.93 506.89 588.55 506.91 588.95 507.35 588.94 507.54 588.55 507.96 588.54 508.45 588.26 508.9 588.39 509.31 587.91 509.77 587.54 509.61 587.21 509.13 586.88 509 586.31 509.18 586.34 508.91 585.36 508.27 585.86 508.22 586.28 507.89 586.35 507.67 585.73 507.45 585.85 506.93 585.75 506.64 585.79 506.21 586.24 506.12 586.46 505.79 586.34 505.38 586.37 505.05 585.88 505.01 584.96 505.9 584.08 506.13 582.32 506.76 581.13 507.3 580.02 507.86 579.13 508.49 578.04 508.79 577.55 509.06 576.93 509.63 576.62 509.43 576.23 509.9 576.21 510.09 575.62 510.43 574.33 511.43 573.68 512.14 573.37 512.66 573.54 512.94 573.83 512.92 574.76 513.21 576.03 513.81 575.96 514.3 576.09 514.67 577.07 514.42 577.26 514.49 577.14 514.92 577.54 515.35 578.46 515.73 579.07 515.59 579.45 515.61 580.14 515.35 580.47 515.05 580.07 514.81 579.16 514.83 578.69 514.45 578.84 514.33 579.49 514.22 579.77 513.78 580.11 513.75 580.09 513.19 580.37 513.06 580.85 512.62 581.67 512.56 582.4 512.2 582.74 512.18 583.61 511.73 584.05 511.17 584.03 510.5 583.94 510.28 584.42 510.17 585.1 510.51 585.39 510.49 585.65 511 585.13 511.33 584.93 511.62 584.66 512.75 584.75 513.28 584.9 513.43 584.89 514.08 585.33 514.81 585.37 515.41 584.9 515.47 584.24 515.66 583.94 516.02 583.14 517.6 582.77 518.76 582.74 519.48 582.52 520.56 582.34 521.03 582.09 520.84 582.29 520.38 582.42 519.75 582.06 519.24 582.35 518.98 582.06 518.85 581.61 519.14 579.56 522.03 578.92 522.43 579.01 522.7 578.82 523.28 578.32 524.25 577.93 524.26 577.28 525.14 577.04 525.34 575.72 527.54 575.32 528.1 574.69 528.22 573.79 528.14 573.44 528.03 573.09 527.65 573.36 527.54 573.51 527.18 573.23 526.81 572.65 526.45 572.26 525.91 571.96 525.11 571.75 524.88 570.89 524.6 570.28 524.55 569.36 524.67 568.15 525 567.15 525.39 565.64 526.12 565.8 525.78 566.33 525.34 566.81 525.03 566.39 524.43 565.45 524.5 564.63 524.72 564.18 524.92 563.93 524.96 562.47 524.87 561.63 525.22 561.14 525.25 560.61 525.16 560.03 525.17 559.67 525.3 559.34 525.1 559.27 524.96 559.12 524.76 559.01 525.12 559.05 525.19 559.13 525.36 559.14 525.42 558.98 525.55 558.97 525.56 558.6 525.47 558.45 525.25 558.35 525.35 558.31 525.41 558.36 525.53 557.95 525.81 557.55 525.82 557.44 525.73 557.63 525.31 557.47 525.07 557.38 525.02 557.18 524.77 557.03 524.55 556.74 524.56 556.1 524.77 556.08 524.82 556.03 524.96 555.99 525.01 555.81 525.13 555.79 525.14 555.74 525.17 555.69 525.17 555.5 525.22 555.27 525.82 555.61 526.4 556.04 526.36 556.69 526.51 557.12 526.75 557.1 527.06 557.09 527.16 557.22 527.47 557.49 527.69 557.58 527.77 557.82 527.9 558.23 528.04 558.78 528.09 559.41 527.95 559.89 527.56 560.44 527.55 560.83 527.79 561.34 527.95 561.59 528.16 562.01 527.48 562.88 527.25 563.08 527.28 563.47 527.08 563.89 527.33 563.91 527.54 563.07 528.69 563.16 529.78 563.01 530.55 563.3 531.13 563.31 531.15 563.31 531.21 563.31 531.26 563.39 531.35 563.52 531.47 563.95 531.88 564 531.99 564.11 532.55 564.16 532.64 564.82 533.34 564.88 533.39 564.98 533.47 565.06 533.52 565.49 533.8 565.68 533.85 565.81 533.98 566.14 534.17 566.61 534.37 566.62 534.37 566.97 534.52 567.88 534.87 569.2 535.24 569.55 535.28 569.7 535.3 569.87 535.31 571.02 535.65 571.48 535.78 571.79 535.86 571.94 535.94 572.02 536.01 572.09 536.2 572.1 536.21 572.09 536.25 571.49 536.02 571.35 536.09 571.07 536.79 570.64 537.09 568.88 540.81 568.72 541.3 568.79 541.82 569 542.1 567.33 543.54 567.03 544.51 566.92 544.69 566.55 545.75 565.96 546.94 565.79 547.55 565.57 548.84 565.61 549.04 565.22 549.44 565.14 549.87 564.57 551.18 564.59 551.64 564.45 552.32 564.53 552.73 564.46 553.17 564.04 554.08 563.61 554.81 563.62 554.94 562.56 557.27 562.49 557.72 562.3 558.06 561.73 558.57 561.33 558.77 560.49 559.05 559.52 559.05 557.57 560.01 556.02 561.4 555.72 561.2 555.22 561.11 554.57 561.18 553.83 560.84 553.66 560.52 553.87 560.43 554.07 560.68 554.46 560.67 554.96 560.45 555.04 560.01 555.43 559.75 555.47 559.58 556.24 559.58 556.7 559.22 556.73 558.87 556.36 558.53 556.58 558.19 557.66 557.42 557.57 556.9 557.27 556.71 557.6 556.19 557.44 555.91 557.81 555.5 557.44 555.24 557.32 554.59 556.92 554.38 556.61 554.88 556.66 555.49 555.94 555.74 555.85 556.07 554.85 556.87 554.48 557.45 554.16 557.63 552.47 558.78 551.85 559.04 551.44 559.33 550.01 560.67 549.66 560.78 549.15 560.57 548.86 560.14 548.33 559.96 548.65 559.34 548.47 559.04 548.44 558.39 547.33 558.39 546.91 558.08 546.85 557.73 546.31 557.1 546.81 556.38 546.3 555.99 545.85 555.91 545.61 555.25 545.04 554.98 544.59 554.92 544.21 554.71 543.85 554.68 543.6 554.91 543.67 555.22 544.06 555.57 544.16 556.03 544.52 556.32 544.6 556.78 544.95 557.41 544.86 557.84 545.37 558.32 545.33 558.68 545.83 558.86 545.85 559.14 547.12 559.57 546.88 559.96 546.95 560.12 546.73 560.56 546.3 560.83 545.52 560.88 544.81 561.09 544.35 561.39 543.68 561.24 542.84 561.75 542.6 561.55 541.94 561.51 541.94 561.85 542.18 562.04 542.7 562.21 543.08 562.1 543.79 562.14 544.27 562.02 544.39 561.8 544.72 561.89 545.42 561.8 546.33 561.53 546.93 561.5 547.58 561.32 548.02 561.65 547.98 562.27 548.03 562.67 548.32 563.2 548.56 563.39 549.41 563.42 550.64 563.34 552.04 563.6 553.09 564.02 553.92 564.18 554.73 564.19 555.31 564.06 555.93 563.81 556.33 563.53 556.52 563.26 557.21 562.96 557.79 562.88 558.53 562.7 558.63 562.56 559.4 562.17 560.28 562.08 561.23 562.19 561.25 562.45 560.49 565.82 560.08 568.15 560.72 568.33 560.52 569.29 560.38 570.74 560.38 571.23 560.21 573.46 561.5 573.72 561.51 573.8 560.22 573.81 560.13 576.26 559.93 578.88 560.08 579.03 559.87 579.34 559.69 580.98 559.37 583.13 559.48 583.32 560.24 583.32 560.27 583.51 559.47 583.48 559.37 583.54 559.25 584.65 559.15 585.24 561.85 585.51 561.87 585.93 559.31 585.74 559.1 585.83 558.94 587.38 559.76 588.2 560.61 588.46 561.76 589.06 561.52 589.35 560.13 588.77 559.74 588.9 558.67 588.8 558.57 589.67 557.83 589.85 558.13 592.18 558.44 593.84 558.47 594.7 558.43 595.13 558.63 595.5 558.46 595.71 558.65 595.97 558.67 596.68 558.92 597.07 558.96 597.4 559.18 597.99 559.17 598.32 559.67 599.67 559.87 600.37 559.75 600.89 559.83 601.83 560.05 602.31 560.57 603.03 560.61 603.49 560.89 604.08 560.85 604.25 561.15 605.1 561.67 605.27 561.53 605.5 561.33 606.32 561.56 607.32 562.05 608.15 562.19 608.51 562.14 608.99 561.81 609.62 562.25 609.77 563.79 609.66 565.34 613.17 565.82 614.08 566.55 615.77 566.56 616.01 566.87 616.49 566.91 617.03 567.26 617.44 568.61 620.39 568.86 620.87 569.27 621.03 569.52 621.58 569.82 621.81 569.9 622.39 569.52 622.6 568.89 622.02 568.45 621.79 568.08 621.34 567.52 621.88 567.2 622 567.29 622.33 567.5 622.43 567.83 622.24 568.3 622.2 568.54 622.33 568.75 623.01 568.66 623.47 568.24 624.29 568.14 624.94 567.66 625.24 567.99 625.9 568.41 626.55 568.75 626.63 568.99 627.17 568.92 627.77 568.49 628.47 568.72 629.15 568.98 629.41 568.74 629.89 569.07 630.49 569.57 631.11 569.73 631.62 569.36 631.68 569.3 631.16 568.95 630.96 568.74 631.28 568.16 631.16 567.92 631.54 568.06 631.71 568.45 631.67 568.96 632.02 568.9 632.29 569.25 632.48 569.9 633.26 570.54 633.62 571.9 633.97 573.18 634.05 574.26 634.01 574.77 634.17 575.36 634.6 574.86 634.8 575.02 636.02 575.8 635.62 576.88 634.97 577.27 635.15 577.63 634.96 577.7 635.2 577.59 636.49 577.67 637.78 577.97 640.64 578.03 641.48 577.92 641.7 577.39 641.95 577.16 641.87 577.29 641.26 576.82 641.26 576.14 640.95 576.05 641.19 575.54 641.37 575.34 641.65 574.88 641.41 574.38 641.36 574.32 641.06 573.48 641.44 572.98 641.35 572.12 641.68 571.9 641.99 571.54 641.99 571.06 641.83 570.09 641.76 569.71 641.32 569.33 641.56 569.6 641.92 569.98 642.04 569.83 642.28 570.08 642.6 569.89 642.79 569.18 642.72 568.93 642.89 568.55 642.66 568.4 642.79 568.39 643.2 568.09 643.32 567.83 643.04 567.43 643.11 567.22 643.35 567.1 643.85 566.35 643.62 566.46 643.16 565.71 643.05 565.54 643.5 565.31 643.74 564.84 643.97 564.57 643.97 564.52 644.32 564.15 644.58 564.67 644.78 564.59 645.31 564.67 645.5 565.1 645.55 565.19 645.72 564.48 645.89 564.22 646.23 565.12 646.25 564.99 646.77 564.44 647.47 564.75 647.83 564.39 647.97 564.25 648.56 563.76 648.59 563.44 648.35 563.24 648.61 562.94 648.73 562.62 648.62 562.57 648.16 562.22 648.28 561.97 647.93 562.1 647.7 561.79 647.46 561.71 648.16 561.83 648.5 561.26 648.55 560.91 648.43 560.4 647.97 559.99 648.08 559.92 647.67 559.66 647.4 559.89 646.88 559.54 646.65 559.14 646.81 559.27 646.22 559.07 645.88 558.63 646.09 558.38 646.41 558.1 646.13 558.39 645.97 558.3 645.63 557.64 646.14 557.28 646.2 556.69 646.11 556.75 645.18 556.6 645 556.16 645.49 555.85 645.69 555.32 645.77 555.11 645.55 555.08 644.98 554.5 644.15 554.7 643.91 554.65 643.69 554.08 643.76 553.77 643.4 553.69 642.83 553.17 642.66 552.92 642.96 552.93 643.27 552.65 643.36 552.39 643.23 552.49 642.89 551.95 642.8 551.67 642.93 551.63 642.56 552.43 642.23 552.52 642 552.32 641.7 551.99 641.72 552.09 642.11 551.69 642.26 551.48 641.56 551.57 641.23 550.96 641.17 550.57 641.43 550.33 641.44 549.82 640.92 549.98 640.28 549.38 640.07 549.06 639.49 548.54 639.57 548.36 639.44 548.61 639.07 548.98 639.25 549.3 639.21 549.39 638.83 549.24 638.7 548.96 639.05 548.85 638.68 548.63 638.52 548.31 638.85 548.05 638.6 547.68 638.43 547.53 638.08 548.04 638.11 548.2 637.94 548.19 637.62 547.71 637.16 547.44 637.37 547.25 637.86 546.83 637.62 546.39 637.7 546.33 637.1 546.11 636.78 545.89 636.88 545.9 637.26 545.45 637.26 544.74 637.08 544.97 637.48 544.78 637.66 544.52 637.32 544.55 637 544.23 636.95 544.09 636.66 543.82 636.74 543.79 637.26 543.25 637.41 543.18 636.96 542.26 636.9 542.25 637.13 542.78 637.19 542.51 637.43 542.06 637.51 542.18 637.14 541.8 637.04 541.57 637.21 541.36 636.96 541.1 636.98 540.67 637.29 540.49 637.06 540.58 636.38 540.44 636.13 540.14 635.97 539.78 636.1 539.74 636.39 540.09 636.58 539.66 637.06 539.43 636.82 538.77 636.77 538.45 636.41 538.65 635.97 538.92 635.74 538.36 635.61 538.29 635.24 538.05 635.23 537.69 635.42 537.56 635.7 537.62 636.09 537.33 636.1 537.4 635.6 537.16 635.42 536.73 635.46 536.46 635.88 536.2 636.05 536.03 635.67 535.74 635.59 535.29 635.68 534.58 635.56 534.53 635.14 534.72 634.81 534.55 634.6 534.41 634.72 534.14 635.38 533.74 634.99 533 634.79 532.94 635.06 532.62 635.19 532.24 635.13 531.63 635.4 530.93 635.34 530.51 635.39 530.27 634.92 529.99 635.04 530.29 635.44 530.07 635.64 529.48 635.19 529.19 635.09 528.77 635.21 528.15 635.7 527.44 635.19 527.29 634.77 526.93 634.86 526.8 635.18 526.54 635.25 526.14 634.9 525.49 635.15 524.8 635.22 524.61 634.84 524.24 634.95 524.12 635.21 524.07 635.73 523.77 636.34 523.28 636.15 522.4 636.03 522.2 636.13 521.9 636.54 521.5 636.64 521.3 636.3 521.76 636.18 521.9 635.93 521.83 635.48 521.6 635.21 521.54 634.8 521.35 634.57 520.98 634.72 521.18 634.98 520.63 635.26 520.23 635.19 519.75 634.75 518.42 635.08 518.21 634.94 518.36 634.5 518.05 634.38 517.86 634.62 517.84 635.1 517.36 635.84 517.08 635.72 517.08 635.46 516.8 635.33 516.48 635.58 516.29 635.44 516.54 635.17 516.46 634.96 515.9 635.02 515.76 634.62 515.47 634.3 515.21 634.5 515.26 635.2 514.9 634.95 514.65 635.06 514.48 635.6 514.22 635.56 513.59 634.73 513.18 634.61 512.99 634.33 512.72 634.2 512.18 634.16 511.57 634.29 511.2 634.46 510.91 634.35 510.88 634.05 510.17 633.72 509.85 633.19 509.32 632.85 508.89 632.71 508.63 632.45 509.08 632.31 509.48 632.39 509.76 632.32 509.69 631.91 510.01 631.72 509.95 631.51 509.47 631.81 508.53 631.53 508.23 631.52 507.96 631.71 507.75 632.16 508 632.62 507.54 632.51 507.29 631.86 506.7 631.68 506.49 631.48 505.8 630.49 505.82 629.98 505.6 629.66 505.93 629.05 505.83 628.79 505.35 628.7 505.05 628.89 504.97 629.46 504.73 629.65 504.39 629.05 504.41 628.52 504.25 628.37 503.89 628.6 503.98 629.18 503.74 629.31 502.84 629.32 502.61 629.18 502.38 628.77 501.69 628.32 501.72 627.94 501.48 627.72 500.76 627.63 500.39 627.25 499.94 627 499.28 626.75 499.21 626.35 499.48 626.04 499.42 625.52 499.11 625.21 498.41 625.31 498.05 625.13 497.59 625.44 497.01 625.48 496.81 625.63 496.77 625.99 496.38 625.9 495.77 626.11 495.35 625.99 495.72 625.4 495.08 625.06 494.78 625.08 494.28 625.37 494.21 624.96 493.72 625.15 493.03 624 492.47 623.82 492.23 624.01 492.99 624.32 492.91 624.6 492.29 624.82 492.19 625.1 491.85 625.01 491.82 624.31 491.69 624.17 490.93 624.58 490.64 624.06 490.93 623.7 490.88 623.38 490.47 623.19 489.76 623.2 488.89 623.54 488.6 623.8 488.53 623.38 488.29 623.08 487.75 623.53 487.68 624.01 487.51 624.16 487.14 624.16 486.4 624.52 486.01 624.55 485.51 624.48 485.1 624.21 484.89 623.71 484.98 623.37 484.92 623.05 484.62 622.79 483.71 622.71 482.52 622.36 482.56 621.99 482.9 621.9 483.44 622.01 483.64 621.84 483.53 621.47 483.07 621.28 482.74 621.47 482.53 621.4 482.3 620.93 481.95 620.7 481.45 620.76 481.13 620.97 480.61 620.89 480.23 620.37 480.58 620.16 480.98 620.44 481.42 620.24 481.31 619.79 481 619.72 480.72 619.39 480.63 618.8 480.2 618.74 479.72 619.03 479.07 619.08 478.28 618.79 478.27 618.3 477.79 617.64 477.67 616.97 477.12 616.41 476.65 616.59 476.32 616.31 475.9 616.43 475.56 616.78 475.04 617.05 474.76 617.03 474.49 616.76 473.8 616.62 473.14 616.88 471.59 617.3 471.43 616.9 471.52 616.58 471.25 616.24 470.82 616.27 470.53 616.17 470.13 615.8 470.04 615.59 470.05 615.08 469.86 614.89 469.39 615.3 469.31 615.6 469.4 615.92 469.29 616.28 468.65 616.37 468.09 615.93 468.22 615.57 468.27 615.06 468.18 614.89 467.73 614.65 466.98 614.48 466.68 614.56 466.3 614.94 465.96 615.06 465.19 614.93 464.86 615.02 464.61 614.91 464.4 614.47 464.08 614.07 463.49 613.76 463.16 613.71 462.65 613.96 462.1 614.48 461.64 614.71 460.43 614.75 460.24 614.63 459.98 614.06 459.56 613.8 458.99 613.14 458.68 612.96 458.56 612.41 458.9 612.27 459.2 611.96 459.39 610.8 459.73 610.4 459.83 609.82 459.61 609.59 459.04 608.45 458.61 608.03 458.18 607.44 457.62 606.93 456.63 606.76 455.29 606.29 454.98 605.81 455 605.49 455.25 604.87 454.6 601.16 453.23 598.97 452.66 596.7 452.72 594.82 450.83 593.54 450.69 590.97 449.49 589.3 449.1 587.63 448.38 586.73 447.49 586.28 446.57 586.31 446.17 586.26 445.44 585.4 445.87 583.76 445.69 583.21 444.93 582.8 444.05 582.65 443.48 582.42 443.12 582.42 442.38 582.09 441.83 581.49 441.54 580.73 441.54 580.3 442.49 579.7 442.43 579.32 441.88 579.17 440.89 578.26 440.6 577.53 440.18 577.06 439.77 577.15 439.32 577.45 438.99 577.38 438.51 577 438.32 576.69 438.44 576.21 438.43 575.77 438.02 574.73 437.94 574.3 438.06 574.01 439.02 573.34 439.34 572.58 439.28 572.34 438.8 571.97 438.57 571.68 438.62 571.42 439.09 570.86 439.25 570.49 439.21 569.75 438.79 569.31 438.7 568.91 439.32 568.38 439.51 567.28 439.11 565.71 439.09 565.27 438.57 564.86 438.37 564.54 438.6 563.72 438.59 562.93 437.93 562.07 437.44 561.84 437.12 561.83 436.2 562.31 435.91 562.32 435.5 562.06 435.25 561.6 435.38 561.22 435.78 560.57 435.77 560.19 435.37 559.67 434.92 559.51 434.34 559.64 433.61 559.63 433.24 559.52 432.83 559.12 432.75 558.81 433.14 558.44 433.75 558.38 434.59 557.75 434.77 557.46 434.57 556.93 434.57 556.62 434.82 555.95 435.1 555.44 435.52 554.99 435.5 554.25 435.69 553.83 435.8 553.06 435.3 551.45 435.34 550.68 435.79 550.12 436.07 549.59 436.12 549.17 436.3 549.03 436.18 548.43 435.9 548.15 435.23 547.73 434.23 547.76 433.85 547.92 433.32 547.8 433.5 547.1 433.54 546.26 433.69 545.62 433.71 545.06 433.9 544.5 434.19 544.28 434.37 543.82 434.05 543.33 433.23 542.87 432.84 542.16 432.81 541.89 432.5 541.3 431.71 540.78 431.32 541.2 430.18 541.52 429.89 541.42 430.35 540.97 430.28 540.47 429.89 540.32 429.43 539.92 429.33 539.32 428.75 539.11 428.02 539.37 427.67 539 427.46 539 427.32 539.33 427.56 539.56 427.3 539.85 426.6 540.03 425.93 539.8 425.67 539.85 424.96 539.47 424.99 539.21 425.44 538.74 425.37 538.46 425.07 538.16 424.63 538 424.17 538.08 423.71 537.93 423.42 537.48 423.07 537.86 422.93 538.29 422.61 538.32 422.19 538.11 421.59 537.64 421.45 537.21 420.56 536 419.39 534.85 419.14 534.21 418.6 533.63 418.34 533.55 417.71 533.74 417.32 533.64 416.72 533.05 416.47 532.02 416.21 531.38 416.02 531.09 415.66 530.97 415.44 531.54 415.24 531.68 414.69 531.77 414.21 531.4 414.1 530.8 413.73 529.88 412.56 529.84 412.16 529.64 412.08 529.47 412.34 528.72 412.08 527.81 412.2 527.2 411.88 526.5 411.13 526.1 410.65 525.61 410.48 524.94 410.67 524.38 411.1 523.86 411.14 523.48 410.74 522.7 409.68 522.34 409.16 521.77 409.28 521.53 409.13 521.27 408.75 521.17 408.49 520.97 408.4 520.15 408.79 519.32 408.81 518.52 407.69 518.38 406.94 518.36 406.05 518 405.29 517.79 404.86 517.22 404.65 516.69 404.22 516.09 403.89 515.08 403.63 513.58 403.52 513.33 402.93 512.92 401.87 512.56 401.45 512.22 401.21 511.64 401.29 511.22 401.1 510.84 400.54 510.42 399.95 509.55 399.6 508.61 399.19 508.35 398.1 508.05 397.4 507.91 396.1 507.15 395.12 507.19 394.44 506.94 394.08 506.46 393.39 506.08 392.73 505.81 392.03 505.8 391.78 505.42 391.7 504.58 391.45 503.58 391.09 503.07 390.56 503.02 389.72 503.14 389.01 502.76 388.82 502.49 388.42 502.16 387.81 501.42 387.47 500.92 387.09 500.75 386.84 500.45 386.79 500.09 387.2 499.07 387.3 498.59 387.14 498.11 386.21 497.06 385.89 496.79 385.58 496.35 385.4 495.65 385.21 495.37 384.51 494.56 383.9 493.98 383.44 492.91 383.89 492.23 384.25 491.23 384.15 490.46 383.92 490.05 383.36 489.47 382.95 489.2 382.34 488.52 382.31 488.27 382.69 488.07 383.27 488.04 383.76 487.83 384.19 487.49 384.4 487.12 384.34 486.97 383.61 486.76 383.04 486.69 382.67 486.48 381.16 486.14 380.73 485.36 380.07 484.82 379.79 484.25 379.68 483.83 380.54 482.4 380.57 482.11 380.35 481.71 379.81 481.58 378.44 481.05 378.33 480.54 377.64 480.44 377.49 480.32 377.42 479.91 377.59 478.45 377.32 478.3 376.58 478.41 375.85 478.06 375.58 477.61 374.95 477.39 374.41 477.3 374.18 476.81 373.68 475.37 373.57 474.5 373.89 473.82 373.83 473.56 373.89 472.9 373.84 472.38 373.43 472.28 373.36 471.65 372.99 471.34 372.65 471.43 372.27 471.25 372.47 470.56 372.08 470.13 372.05 469.72 372.33 469.31 372.27 468.81 372.12 468.41 371.74 468.25 371.54 468 371.54 467.56 371.42 467.2 371.07 467.05 370.49 466.99 370.02 467.17 369.76 467.02 369.63 466.57 369.86 465.89 369.41 465.37 368.77 464.94 368.81 464.4 368.37 464.28 368.32 463.96 368.77 463.73 368.68 463.33 368.23 463.51 367.99 463.4 368.18 462.69 368.07 462.56 367.4 462.6 367.12 462.18 366.8 462.11 366.57 462.47 366.3 462.52 365.84 461.7 366.22 461.71 366.39 461.28 365.86 461.02 365.57 460.41 365.15 460.14 365.12 459.84 365.35 459.32 365.17 458.93 365.39 458.63 365.27 457.99 365.44 457.44 365.24 456.83 365.27 456.6 364.96 455.69 364.82 455.57 364.57 454.71 364.38 453.7 364.43 453.09 364.34 452.11 363.94 451.03 363.66 450.5 363.09 449.9 362.62 449.62 361.54 449.35 360.48 448.78 359.85 448.17 359.88 447.66 359.35 447.25 358.71 447.14 358.33 446.92 358.28 446.61 357.74 446.38 357.54 446.09 358.14 445.33 358.08 444.76 357.94 444.54 357.52 444.41 357.62 443.88 357.16 443.13 356.86 442.75 356.6 442.89 356.34 442.79 356.25 442.31 356.4 441.9 356.07 441.51 355.51 441.24 355.12 441.21 355.27 440.69 354.94 440.59 354.65 440.72 354.01 440.74 353.71 440.63 353.04 440.09 352.65 439.87 352.15 439.85 351.33 439.56 351.2 439.23 351.08 438.4 350.8 437.92 350.2 437.84 349.59 437.57 349.49 437.37 348.99 437.23 348.89 436.93 348.27 436.76 347.53 436.38 347.42 435.95 346.92 435.5 346.09 435.52 345.64 435.28 345.57 435.08 344.19 434.54 343.68 434.46 343.32 434.25 343.06 433.89 343.13 433.58 342.7 432.79 342.47 432.7 341.7 431.95 341.58 431.67 341.45 430.93 341.29 430.51 340.86 430.22 340.47 429.84 340.27 428.76 339.24 428.42 338.63 428.1 337.63 428.04 336.93 428.16 336.03 427.56 335.57 427.85 335.16 427.87 334.7 427.64 334.08 426.86 333.72 426.22 333.5 426.01 333.37 425.36 333.01 425.31 332.22 425.01 330.11 424.89 329.64 424.74 328.44 425.01 328.08 424.43 328.06 424.01 328.42 423.25 328.85 422.63 329.29 422.3 328.81 420.72 328.6 419.92 328.9 419.05 328.72 418.7 328 418.31 327.58 418.34 326.99 418.99 326.89 419.25 327.07 419.74 327.05 420.73 326.59 421.26 326.25 421.9 325.91 421.81 325.37 421.51 324.99 421.06 324.89 420.21 324.92 419.53 325.04 419.15 325.62 418.07 325.7 417.7 325.49 417 325.28 416.78 324.84 416.59 322.8 416.39 322.65 416.49 322.23 417.18 321.86 416.97 321.72 416.11 321.27 415.3 321.34 414.51 321.12 413.99 320.35 413.64 319.81 413.25 319.73 413.07 319.85 412.45 319.81 412.04 319.59 411.78 319.02 411.58 318.68 411.27 318.74 410.91 319.62 410.45 319.71 410 319.49 409.77 319.14 409.76 318.56 410.1 317.47 410.91 316.99 411.07 316.57 410.86 316.27 409.73 316.44 409.07 316.24 408.75 315.89 408.64 314.84 408.99 314.41 409.55 313.36 410.18 312.49 410.15 311.64 410.5 311.17 410.35 311.24 408.85 311.42 408.3 311.36 407.95 311.01 407.37 310.68 407.37 310.37 407.77 309.44 408.1 309.11 408.61 309.16 409.66 308.88 409.9 307.81 409.73 307.55 409.61 307.08 409.6 306.39 409.85 305.9 409.78 305.64 409.92 305.35 410.53 304.68 410.8 304.29 410.5 304.15 410.12 303.69 409.77 303.12 409.96 302.91 410.39 302.53 410.41 302.27 409.98 302.01 409.77 301.44 410.13 300.87 410.35 300.67 410.28 300.21 409.5 299.96 409.46 299.44 409.77 299.02 409.63 298.9 409.34 298.12 409.38 297.5 409.07 297.09 408.78 296.43 408.65 296.2 408.74 296.04 409.27 295.28 409.27 294.87 409.16 294.56 408.83 294.54 408.34 294.94 408.07 295.11 407.81 294.34 407.33 293.81 407.52 293.88 407.99 294.19 408.55 293.89 408.79 293.59 408.72 292.98 408.36 292.47 407.85 292.36 407.61 291.98 407.57 291.25 408.17 290.75 408.39 290.3 408.41 289.7 408.15 288.78 408.1 288.34 408.28 287.74 408.99 287.48 409.08 287.23 408.93 287.2 408.2 286.93 407.98 286.37 407.97 285.89 408.31 285.54 408.15 285.28 407.66 285.15 407.21 284.83 407.07 284.3 407.11 284.28 407.66 284.14 408.07 283.72 408.14 283.5 407.71 283.34 407.63 282.29 408.17 281.73 407.83 281.48 407.9 281.01 407.78 280.68 408.08 280.83 408.49 280.37 408.63 280.21 408.88 278.71 408.82 278.48 408.48 278.06 408.32 277.34 408.54 277 408.41 276.15 408.48 276.06 407.98 275.7 407.88 275.32 408.11 274.54 407.85 274.12 407.41 273.48 407.14 273.36 406.84 273 406.44 272.35 406.46 272.17 406.14 272.34 405.8 272.13 405.23 271.72 405.05 271.5 405.26 271.41 405.7 271 405.74 270.43 405.33 269.59 405.55 269.16 405.12 268.52 405.13 268.28 404.97 268.41 404.48 268.27 404.16 268.01 404.18 267.92 404.62 267.76 404.8 267.31 404.79 267.13 404.54 267.28 404.14 266.85 403.89 266.37 404.2 265.97 404.1 265.76 403.7 265.25 403.57 264.87 403.3 264.25 403.34 264.06 403.18 263.73 403.21 263.48 403.55 263.55 403.93 263.42 404.2 263.04 404.21 262.91 403.88 262.5 403.81 262.25 404.09 261.96 404.2 261.88 404.66 261.71 404.87 261.33 404.98 261.03 405.32 261.16 406 260.73 406.8 260.44 407.63 260.25 408.02 260.26 408.63 259.49 409.12 259.79 409.76 259.49 410.32 259.2 409.9 258.95 409.88 258.61 410.14 258.29 410.17 258.16 409.96 257.58 409.89 256.84 409.43 256.5 409.65 256.18 409.43 255.84 409.41 255.35 409.56 255.07 409.12 254.85 409.02 254.44 409.48 254.01 409.48 253.95 409.16 253.59 408.84 252.96 409.13 251.9 408.98 251.63 409.21 252.17 409.65 252 410.1 251.59 410.39 250.73 410.76 250.24 411.24 249.88 411.39 249.48 411.12 249.46 410.7 248.98 409.97 248.76 409.76 248.33 409.97 248.43 410.65 248.01 410.73 247.44 411.1 246.91 410.96 246.11 411.2 245.95 411.17 245.37 411.87 244.9 412.01 243.96 412.04 243.02 411.9 242.64 411.69 242.54 411.3 242.04 411.59 241.78 412.37 241.19 412.8 241.32 413.8 240.85 414.17 240.75 414.37 240.68 414.98 241.05 415.51 240.82 415.82 240.41 415.84 240.12 416.13 239.92 416.59 239.28 417.05 239.13 417.47 238.85 417.7 238.44 417.63 238.09 418.23 238.28 418.59 238.31 419.6 238.14 420.03 238.23 420.23 237.97 420.56 236.9 420.25 236.49 420.5 236.88 421.41 236.55 421.89 236.17 421.81 236.19 422.2 235.94 422.54 235.96 422.92 236.32 423.3 236 423.39 235.79 423.67 235.2 423.59 235.05 423.71 235.04 424.28 234.68 424.63 234.05 424.96 234.19 425.29 234.13 426.01 234.32 426.24 234.14 426.61 234.55 427.08 234.37 427.22 233.82 427.24 233.65 427.7 233.74 427.98 233.29 428.35 233.03 428.8 233.32 429.29 232.71 429.64 232.62 430.35 232.95 431.25 232.57 431.65 232.98 431.87 233.03 432.07 233.76 432.18 233.6 432.5 233.03 432.51 232.57 433.09 232.48 433.63 232.12 433.68 231.84 433.92 231.84 434.46 232.16 434.65 231.84 434.89 230.91 435.27 230.22 435.23 229.88 435.06 229.46 435.52 229.73 436.02 229.28 437.26 229.27 437.71 228.94 437.84 229.11 438.25 229.22 438.85 229.05 439.16 228.37 439.6 228.33 439.85 228.56 440.25 228.13 440.7 228.32 441.19 228.72 441.18 229.25 441.7 229.66 441.67 230.26 441.96 230.23 442.54 230.53 442.78 230.43 443.08 229.87 443.46 229.84 443.58 228.88 443.94 228.54 443.9 228.35 443.61 227.95 443.27 227.54 443.51 227.74 444.06 227.61 444.47 227.36 444.58 227.42 445.03 227.05 444.87 226.51 444.8 226.21 445.11 226 444.97 225.75 445.14 225.77 445.38 225.42 445.83 224.81 445.71 224.06 445.34 223.73 445.29 223.34 445.47 223.05 445.47 222.56 445.95 222.68 446.86 222.29 447.49 221.93 447.61 221.91 448.26 221.49 448.52 221.7 448.8 221.61 449.02 221.22 448.98 220.76 449.57 220.19 449.76 220.48 450.12 220.41 450.43 220.05 450.72 219.72 450.82 219.12 450.51 218.54 451.06 218.25 450.94 217.81 451.07 217.57 451.34 217.78 451.77 217.75 452.02 217.13 452.56 217.25 453.06 217.22 453.35 216.95 453.35 216.84 452.7 216.32 452.97 216.34 453.47 216.11 453.83 215.97 454.3 216.15 454.63 216.5 454.98 216.27 455.52 215.89 455.77 215.39 456.46 215.3 456.75 215.52 457.31 215.22 457.61 214.74 457.7 214.18 457.63 213.69 457.97 213.24 458.13 213.16 458.28 212.69 458.21 212.06 457.8 211.83 457.97 211.37 457.66 210.83 457.58 210.14 457.4 209.43 457.36 208.98 457.57 208.6 457.11 208 457.72 207.28 457.8 207.12 457.49 206.3 456.88 206.1 456.98 205.95 457.51 205.47 458.02 204.98 457.92 205.25 457.65 205.34 457.37 205.06 456.6 204.47 456.22 204.06 456.13 203.71 456.41 203.34 456.14 203.27 455.87 203.53 455.77 203.81 455.22 203.29 455.06 202.95 455.46 202.66 455.62 202.32 455.63 201.89 455.41 201.91 454.95 202.48 454.77 202.57 454.25 202.36 453.99 201.49 453.88 201.23 454.38 201.13 454.88 200.94 455.27 200.55 455.49 199.73 455.19 199.18 455.13 198.96 455.3 198.89 454.61 197.99 454.67 197.83 454.21 197.21 454.32 196.99 454.05 196.46 454.05 196.39 453.71 196.1 453.46 196.04 453.12 195.7 453.12 195.11 452.64 195.11 452.2 194.38 452.21 194.53 452.45 193.88 452.6 193.67 452.3 193.9 451.75 193.89 451.44 193.55 451.31 193.55 451.09 193.02 450.88 192.42 450.04 192.09 449.97 192.01 449.54 191.66 449.55 191.4 449.29 190.62 449.25 190.66 448.37 190.32 448.14 189.5 447.76 189.15 447.98 188.86 447.69 189.03 447.28 188.66 447.14 188.09 447.25 187.85 447.18 187.33 447.5 186.46 447.49 186.22 447.39 185.96 447.03 185.62 446.88 185.35 446.55 184.91 446.69 184.27 446.71 183.93 446.98 183.52 446.83 183.07 447.08 182.55 446.33 182.09 446.24 181.83 446.06 181.27 446.06 180.66 445.77 179.94 445.8 179.66 445.4 179.08 445.38 178.75 445.58 178.37 444.92 177.62 444.31 177.36 443.94 177.29 443.12 176.91 443.27 176.43 443.21 176.57 442.72 176.33 442.45 176.09 442.49 175.76 442.79 175.61 443.28 175.26 443.25 174.93 442.77 175.02 441.81 175.29 441.83 175.36 441.56 174.84 440.5 174.54 440.5 174.1 440.84 173.86 440.91 173.52 440.78 173.3 440.44 173.39 440.22 173.03 439.98 172.25 440.27 171.61 439.98 171.56 439.72 170.39 439.5 170 439.66 169.39 439.4 168.71 439.32 168.45 439.67 167.86 439.18 167.64 439.16 167.04 439.38 166.62 439.3 166.6 438.96 166.21 438.74 165.48 438.83 163.64 438.4 163.39 438.63 162.7 438.44 162.13 438.14 161.65 438.07 160.71 437.66 160.49 437.66 159.37 437.17 159.32 437.07 158.32 436.52 158.32 436.13 157.66 435.91 157.31 435.61 156.69 435.59 156.17 435.13 156.16 434.76 155.74 434.61 155.57 434.3 155.2 433.93 154.33 434.06 154.21 433.51 153.94 433.63 153.5 433.28 153.08 433.64 153.04 433.17 152.66 433.21 152.2 432.86 151.93 432.94 151.47 432.52 151.7 432.26 151.3 432.09 151.41 431.85 150.77 431.66 150.53 431.25 150.71 430.75 150.4 430.61 149.98 430.18 149.98 429.94 149.67 429.71 148.87 429.3 148.45 428.81 148.72 428.58 148.77 428.21 149.01 427.42 148.59 427.17 147.64 427.47 147.37 426.44 147.11 426.41 146.69 426.07 146.25 425.84 145.81 425.78 145.8 425.43 145.4 425.43 145.16 425.25 143.96 425.05 143.67 424.78 142.91 424.83 142.65 424.3 142.22 424.43 142.15 424.92 141.66 424.86 141.41 425.06 141.15 425.02 139.98 424.28 139.1 423.58 138.68 423.69 137.73 422.84 137.77 422.66 137.55 421.95 136.83 421.49 134.21 419.94 133.91 419.61 133.54 419.55 133.32 419.33 133.41 419.05 132.92 419.04 132.7 418.43 132.26 418.47 132.04 418.1 131.63 418.12 131.45 417.76 130.89 417.93 130.54 417.91 130.58 417.34 130.26 417.29 130.33 416.99 129.79 416.43 129.75 416.04 129.38 415.89 128.93 415.4 128.64 415.25 128.86 415.02 129.27 414.97 129.46 414.62 128.66 414.32 128.53 414.12 128.7 413.88 128.53 413.56 128.6 413.15 128.16 412.7 128.31 412.21 127.96 412.2 127.75 411.79 128.27 411.78 128.3 411.63 127.68 411.23 127.16 410.98 127.11 410.7 127.38 410.37 127.33 409.91 127.03 409.33 126.54 409.06 126.57 408.78 126.31 408.48 125.9 408.27 126.08 407.96 125.91 407.66 125.55 407.69 125.22 407.07 124.64 406.84 124.75 406.31 124.06 406.19 124.61 405.82 124.68 405.61 124.28 405.2 123.91 405.47 123.89 404.93 123.42 404.75 123.42 404.1 123.23 403.74 122.81 403.55 122.45 403.24 122.43 402.96 121.69 402.43 121.67 401.87 120.95 401.23 120.72 401.28 120.4 400.67 120.42 400.02 120.23 399.78 120.5 399.59 120.35 399.18 120.74 398.86 120.78 398.5 120.43 398.55 120.16 398.29 120.35 397.26 119.89 397.46 119.66 397.33 119.89 397.08 120.05 396.46 119.87 396.26 119.86 395.75 119.59 395.51 119.81 395.24 119.79 394.93 119.53 394.69 119.05 394.59 118.94 394.41 119.15 393.82 119.43 393.61 118.76 392.8 119.04 392.22 118.96 391.97 119.32 391.91 119.55 391.69 119.76 391.11 120.04 390.89 119.82 390.42 120.06 390.21 119.65 390.04 119.52 389.69 120.05 389.17 119.69 389.11 119.72 388.71 119.44 388.25 119.39 387.69 120 387.29 119.78 386.78 119.94 386.08 119.89 385.78 119.98 385.03 119.59 384.38 119.35 384.23 119.15 383.39 118.87 383.2 119.02 382.93 118.51 382.36 118.7 382.13 118.81 381.6 118.38 381.42 117.7 380.5 117.06 379.98 116.7 380.1 116.16 380 116.04 379.86 116.27 379.28 115.54 379.37 115.47 379.07 115.66 378.72 115.45 377.61 115.1 377.3 114.72 377.48 114.52 377.04 114.14 376.68 113.95 376.66 113.64 376.31 113.62 376.1 113.27 375.81 112.39 375.6 112.5 375.13 112.15 374.98 111.75 374.64 112.24 374.39 112.27 373.99 111.93 373.37 112.03 373.05 111.41 373.21 110.82 373.16 110.33 372.84 110.18 372.56 109.83 372.47 109.5 372.14 109.8 371.54 109.65 371 110.01 370.74 110.07 370.39 109.65 370.23 109.37 369.93 109.55 369.67 109.58 369.31 109.01 368.93 109.19 368.54 108.87 368.01 109.09 367.65 109.05 367.35 108.75 366.67 109 366.43 109.07 365.95 108.62 365.78 108.73 364.84 108.43 364.81 108.16 364.17 108.2 363.69 107.7 363.38 107.59 363.01 107.79 362.83 107.45 362.28 107.15 362.19 107.28 361.72 106.95 361.13 106.61 360.82 106.56 360.49 106.25 360.28 105.89 360.31 105.73 360.04 105.89 359.76 105.7 359.29 105.41 359.12 105.21 359.48 104.69 359.21 103.95 359.18 103.69 358.86 103.39 358.78 102.94 358.94 102.68 358.82 102.15 358.08 102.2 357.78 101.93 357.31 101.94 356.84 101.83 356.37 101.79 355.61 101.38 355.48 100.88 355.02 100.83 354.51 100.5 354.18 99.99 354.4 99.24 354.57 99.03 354.52 98.54 354.04 98.08 354.11 98.25 354.37 97.59 354.43 97.49 354.09 97.16 354.17 97.15 353.44 96.83 353.26 96.36 353.24 95.67 352.49 95.42 352.31 94.99 352.35 94.89 352.01 94.55 351.92 94.65 351.56 94.17 351.35 94.28 350.92 94.04 350.56 93.85 350.74 93.4 350.36 92.37 350.14 92.21 350 91.68 350.22 91.12 350.1 91.36 349.63 91.47 349.13 91.06 349.06 90.7 348.74 90.38 349.25 90.22 349.22 89.89 348.72 89.71 348.63 89.65 348.21 89.36 348.14 89.06 347.75 88.77 348.05 88.55 348.02 88.1 348.38 87.68 348.18 87.59 347.96 87.77 347.68 88 347.7 88.21 347.4 87.72 346.92 87.11 347.33 86.98 347.05 86.52 347.06 85.76 347.33 85.28 347.6 84.82 347.13 84.64 346.71 84.22 346.85 83.98 346.33 83.81 346.18 83.43 346.16 83.35 345.78 82.8 345.72 82.7 346.11 82.36 346.67 82.01 346.45 81.6 346.54 81.76 346.14 81.58 345.76 81.03 345.38 80.47 345.23 80.34 344.82 79.95 344.81 79.59 345.11 79.5 344.74 79.09 344.46 78.96 344.21 78.62 344.38 78.08 344.31 77.45 344.02 76.92 344.29 76.56 343.97 76.95 343.68 77.04 343.21 76.96 342.96 77.09 342.67 76.63 342.61 76.69 341.92 76.45 341.7 76.15 341.86 75.92 341.58 75.82 341.23 75.15 341.15 74.9 340.92 74.1 340.65 73.81 340.01 73.56 340.23 73.35 340.03 73.52 339.7 72.57 339.66 72.35 339.15 72.04 339.15 71.9 338.88 71.31 338.58 70.96 338.2 70.65 338.12 70.93 337.69 70.59 337.21 70.36 337.08 69.74 337.18 69.21 336.54 68.91 336.44 68.62 336.08 68.04 336.07 67.15 335.79 66.71 335.27 66.32 334.63 66.39 334.2 66.21 333.98 65.8 333.86 65.64 333.49 65.74 332.9 65.42 331.67 64.73 331.11 64.61 330.62 64.12 329.95 62.84 329.15 62.08 329.2 61.92 329.09 61.67 328.21 61.54 328.09 60.35 327.67 59.68 327.48 57.89 326.86 57.45 326.59 57.22 326.06 55.92 325.16 55.65 325.09 54.59 325.16 54.23 325.12 53.94 324.9 53.81 324.41 53.59 324.07 53.56 323.45 53.37 323.1 52.7 322.84 51.21 321.12 50.25 320.19 49.3 319.03 49.12 318.63 48.79 318.34 48.16 317.59 47.61 317.42 46.88 317.51 46.51 317.37 46.08 316.5 45.75 316.13 44.94 316.18 44.29 316.1 43.94 315.75 43.4 314.52 43.49 313.67 43.03 312.99 42.09 312.92 40.07 311.37 39.79 311.27 35.68 310.98 35.05 310.75 33.93 309.7 33.4 309.4 32.48 309.38 32.14 309.29 30.84 308.66 30.53 308.45 29.74 307.61 29.26 307.37 28.08 307.05 27.42 306.57 26.87 305.88 26.62 304.86 26.47 304.59 25.91 304.06 25.76 303.81 25.32 302.41 25.13 302.12 24.78 301.87 23.17 301.01 22.67 299.47 22.25 298.62 21.93 298.1 21.77 297.32 21.49 296.88 20.46 295.6 19.88 294.79 19.01 292.87 18.84 292.7 17.73 291.96 17.5 291.71 17.25 290.89 17.06 290.66 14.82 289.45 13.76 289.26 12.92 288.75 12.57 288.71 11.75 289.07 11.49 289.53 10.76 289.71 10.45 289.65 9.48 288.94 9.24 288.89 9.09 288.44 8.4 287.98 8.12 287.52 8.16 287.13 7.83 286.97 7.65 286.63 7.17 286.34 6.97 286.09 6.01 285.86 5.8 285.72 5.54 285.91 5.14 285.9 4.49 285.19 4.14 285.02 3.59 285.02 3.44 284.85 3.67 284.13 3.66 283.84 3.29 283.71 2.85 283.7 2.2 283.12 2.05 282.82 1.58 282.51 1.58 282.19 1.99 281.45 1.76 281.16 1.01 280.77 1 280.54 1.28 280.18 1.73 279.86 2.21 279.71 2.62 279.38 2.98 279.22 2.28 278.92 2.22 278.64 2.42 278.26 2.33 277.7 2.84 277.49 2.89 277.06 2.38 277.25 2.24 277.15 2.29 276.75 2.62 276.4 2.35 276.03 1.93 276.13 1.44 275.8 1.36 275.58 1.53 275.28 1.86 275.02 2.33 274.93 2.58 274.71 2.64 274.36 3.6 274.35 8.8 274.34 13.24 274.32 23.32 274.28 34.15 274.23 39.94 274.24 47.42 274.27 53.31 274.29 63.95 274.31 72.2 274.34 77.24 274.35 86.06 274.38 91.97 274.37 95.97 274.36 100.68 274.36 110.2 274.36 111.21 274.39 114.8 274.54 115.85 274.52 115.86 274.36 117.26 274.37 122.61 274.36 126.11 274.37 135.19 274.38 144 274.38 150.99 274.39 155.82 274.39 166.81 274.38 176.43 274.38 182.99 274.37 190.08 274.37 199.63 274.37 209.34 274.36 210.53 274.37 218.52 274.36 218.52 269.1 218.52 264.27 218.5 260.59 218.51 254.06 218.51 244.01 218.5 238.29 218.5 232.92 218.51 230.23 218.51 220.97 218.51 213.76 218.65 206.97 218.76 201.78 218.88 196.33 219.05 188.28 219.08 187.21 219.2 181.1 219.24 179.45 219.29 176.29 219.37 172.81 219.47 167.58 219.64 159.74 219.79 152.68 219.77 145.78 219.78 138.18 219.79 130.04 219.8 122.14 219.81 115.35 219.81 113.31 219.83 107.5 219.85 105.22 219.83 104.78 219.85 97.38 219.85 91.77 219.85 85.4 219.86 77.45 219.88 72.13 219.89 64.89 219.9 56.94 219.92 49.9 219.94 41.79 219.96 35.05 219.95 29.53 219.95 26.18 219.94 17.21 219.93 12.22 219.92 12.09 219.91 5.42 219.91 1.02 222.3 1.01 230 1.03 233.3 1 237.6 1.02 245.19 1.02 252.78 1.02 260.38 1.01 260.92 1.02 269.78 1.02 275.56 1.02 275.77 1 281.22 1.01 281.26 1.03 287.33 1.04 292.91 1.04 293.26 1.07 298.74 1.05 301.49 1.07 313.76 1.07 321.12 1.08 321.23 1.07 331.12 1.07 336.31 1.07 337.91 1.1 340.65 1.07 345.31 1.07 345.32 1.05 353.02 1.05 353.29 1.06 361.72 1.07 373.42 1.08 374.95 1.07 384.36 1.08 386.88 1.05 393.66 1.06 394.34 1.05 404.44 1.05 404.65 1.06 404.65 9.11 404.65 15.61 404.65 23.46 404.65 28.6 404.65 34.11 404.65 42.77 404.65 49.13 404.65 54.19 404.65 60.62 404.69 61.76 404.69 66.5 404.65 66.5 404.65 70.01 404.64 79.73 404.65 86.73 404.65 96.61 404.65 101.07 404.65 108.57 404.64 118.31 404.65 118.86 405.09 118.91 406.43 118.73 407.25 118.11 407.48 117.76 408.03 117.72 409.33 118 409.42 118.26 410.14 118.75 411.43 119.46 411.9 119.96 412.17 120.12 412.43 120.6 412.88 121.13 413.6 121.83 414.75 122.45 415.24 122.66 415.49 122.66 415.8 123.15 415.69 123.47 415.97 123.99 416.65 124.61 417.2 125.33 417.66 125.5 417.81 125.87 418.29 125.92 418.91 126.33 418.81 126.75 419.27 126.98 419.65 127.34 420.41 127.71 421.25 127.96 421.63 128.2 422.01 128.63 421.99 128.94 422.49 129.45 422.82 129.5 423.23 129.93 424.21 129.83 425.08 130.2 425.77 129.98 426.04 129.68 427 129.93 427.5 130.21 428.61 130.02 428.97 130.14 429.39 129.67 429.79 129.38 429.91 129.14 429.86 128.72 429.92 128.11 430.2 127.57 430.81 127.48 431.26 127.55 431.97 127.82 432.52 127.8 433.23 127.91 433.97 127.72 434.58 128 435.02 128.02 435.84 128.73 436.73 128.87 437.08 128.85 437.32 129.14 437.41 129.78 437.69 129.79 437.75 129.45 437.99 129.4 438.46 130.03 438.79 130.35 439.23 130.36 439.28 129.84 439.45 129.51 439.68 129.47 439.86 129.79 440.32 130 440.67 130.27 441.19 130.07 441.35 129.66 441.32 129.05 441.62 128.27 441.9 127.94 441.31 127.56 441.28 127.15 441.54 126.69 441.35 126.48 441.41 126.05 441.77 125.76 442.21 125.2 442.6 125.03 443.61 125.21 443.86 125.46 443.73 126.05 444.75 126.77 445.12 126.93 445.45 127.24 445.72 127.72 446.08 128.1 446.63 128.01 447.52 127.67 447.93 127.75 448.23 128.15 448.21 128.42 448.69 128.6 449.18 128.28 449.54 128.39 449.52 128.94 449.69 129.08 449.35 129.33 448.83 129.34 448.74 129.55 449.03 129.77 449.67 130 449.95 130.28 450.3 130.06 450.66 130.26 450.34 130.58 450.56 130.81 450.98 130.63 451.05 131.12 451.19 131.43 451.57 131.67 451.18 132.22 451.62 132.38 452.22 132.16 452.85 132.35 452.61 132.41 452.68 133.16 452.9 133.43 452.6 133.8 452.47 134.16 452.68 134.81 452.57 135.15 452.79 135.66 453.54 135.81 453.6 136.39 453.32 137.07 453.7 137.12 453.75 137.37 453.5 137.75 453.45 138.06 453.82 138.78 453.88 139.09 453.7 139.6 453.89 139.88 454.86 140.04 455.9 140.32 456.47 140.15 456.67 139.85 457.06 139.58 457.68 139.66 457.67 139.91 457.4 140.3 457.52 140.48 458.06 140.64 458.56 140.4 458.81 140.49 459.21 140.42 459.63 140.03 459.96 140.23 460.52 140.05 461.38 140.24 461.76 140.46 461.89 140.71 462.78 140.86 463.15 140.36 464.63 140.56 465.07 140.35 465.3 140.11 465.13 139.89 465.38 139.68 465.92 139.45 466.55 139.69 466.83 140.35 467.08 140.59 467.49 140.66 467.7 140.47 467.71 140.07 467.94 139.92 468.41 140.03 469.47 140.91 470.23 141.76 470.92 142.12 471.59 142.26 472.27 142.68 473.13 142.78 473.24 143 473.01 143.36 473.11 143.57 473.57 143.84 473.91 143.79 474.08 143.12 474.25 143.08 475.31 143.39 475.67 143.05 476.64 143.3 477.29 143.55 477.79 144.23 478.27 143.99 478.89 144.43 479.59 144.59 479.96 144.86 480.15 145.33 480.64 145.35 481.24 145.16 481.48 144.69 482.26 144.68 482.5 144.61 482.88 144.93 483.26 144.7 483.63 144.64 484.24 144.81 484.58 144.49 485.02 144.24 485.37 143.86 486.33 143.29 486.79 142.91 487.09 142.91 488.4 143.35 488.92 143.41 489.52 143.15 490.14 143.35 490.69 143.71 491.09 143.84 491.7 144.5 492.13 144.81 492.52 144.78 492.64 145.18 492.17 145.14 492.08 145.37 492.69 145.65 493.59 146.39 494.07 147.13 494.76 147.68 495.53 148.51 496.11 148.64 496.62 149.1 496.88 149.12 497.52 148.91 497.85 148.46 498.54 148.49 499.04 148.32 499.26 147.85 499.91 147.7 500.72 147.88 501.2 147.5 501.28 147.19 501.16 146.91 501.45 146.76 501.73 146.91 501.96 146.55 501.95 145.1 502.5 144.81 502.84 145.01 503.05 144.74 502.64 144.34 502.97 143.84 503.65 143.66 504.05 143.36 505.31 143.54 506.56 143.81 506.8 144.01 507.92 144.73 509.13 144.96 509.57 144.87 510.26 144.91 510.58 145.04 511.1 144.96 511.63 144.73 512.04 144.72 512.46 145.05 512.58 145.3 512.97 145.49 513.52 145.58 514 145.81 515.89 145.96 516.6 145.58 516.92 145.3 517.84 144.11 518.21 143.76 518.66 143.51 519.51 143.54 519.97 143.98 520.05 144.27 519.88 144.75 520.1 144.92 520.47 144.86 520.68 144.99 520.66 145.46 520.38 146.15 519.93 146.82 518.96 147.7 518.81 147.96 518.86 148.52 519.2 149.12 520.05 149.86 521.06 150.37 521.1 150.64 520.58 150.86 520.23 150.56 519.98 150.53 519.7 150.85 519.86 151.13 520.36 151.58 520.72 151.73 521.05 152.03 521.15 152.3 520.76 152.46 521.03 152.72 523.66 153.3 525.19 153.26 526.22 153.08 526.92 152.91 527.4 152.61 527.88 152.57 528.33 153.18 528.69 153.46 529.39 153.45 529.28 153.96 528.77 155.42 528.52 155.87 527.89 156.24 527.72 156.49 527.91 156.72 528.99 156.76 529.03 157.18 528.76 158.1 528.49 158.4 528.06 158.61 527.56 158.21 527.37 158.28 527.16 158.73 527.11 159.09 527.72 159.8 528.18 160.08 528.77 160.26 529.82 160.22 530.16 160.3 530.5 160.54 531.63 160.97 532.54 161.57 533.25 161.75 533.56 161.98 533.96 162.07 534.41 162.03 535.4 161.72 536.27 161.52 536.46 161.26 536.91 161.01 537.11 160.76 537.13 160.32 537.36 160.07 537.94 160.4 538.21 159.88 538.2 159.27 538.37 159.06 538.77 159.03 539.24 159.54 539.48 159.25 539.5 158.68 539.15 158.16 539.31 157.86 539.71 157.83 539.97 158.1 540.41 158.15 540.77 157.83 540.75 157.44 540.55 156.9 541.04 156.74 541.83 156.71 542.42 156.75 543.13 156.3 543.8 155.64 544.13 155.13 544.53 154.22 545.13 153.68 546.13 153.41 546.72 153.46 546.98 153.58 548.4 154.04 549.51 154.75 549.9 154.84 550.4 155.28 550.49 155.55 551 155.68 551.13 155.82 550.73 156.46 550.97 157.26 550.64 157.75 550.68 158.14 551.07 158.49 551.11 158.74 551.6 158.99 552.13 159.02 552.46 158.88 552.99 159.15 553.4 159.1 553.9 158.9 555.07 158.26 556.47 157.79 557.14 157.87 557.49 158.03 558.32 158.43 559.06 158.86 559.5 159.48 559.43 160.86 559.22 161.52 558.87 162.04 558.76 162.43 559.02 162.95 559.38 163.32 559.88 163.59 560.98 163.92 562.21 163.91 562.9 163.84 564.14 163.92 564.7 163.61 565.2 163.14 565.38 162.74 565.84 162.2 566.25 161.41 566.42 160.49 566.74 159.92 567.11 159.95 567.21 160.39 566.65 161.15 566.58 161.57 566.73 161.7 567.09 161.58 567.81 160.98 568.11 160.33 568 159.76 568.21 159.7 568.54 159.95 569.42 160.79 570.33 161.3 571.37 161.18 571.76 160.49 571.81 159.97 571.93 159.73 571.91 159.14 572.02 158.78 572.35 158.49 572.83 158.35 573.02 158.17 573.99 158.01 574.38 158.11 574.73 158.44 575.64 158.93 575.99 159.45 576.15 160.39 576.65 161.65 576.78 162.18 576.76 162.57 576.48 162.9 575.97 163.13 575.08 163.15 574.76 163.38 574.45 163.95 574.41 164.87 574.72 165.46 575.34 166.19 575.31 166.48 575.5 166.88 575.18 167.43 575.28 167.6 575.96 167.81 576.29 168.39 576.35 168.72 576.86 169.24 577.52 169.66 578.26 169.91 579.39 170.09 580.16 169.95 581.09 169.35 581.46 168.86 581.67 168.42 581.74 167.95 581.73 167.19 581.62 166.77 581.17 165.78 581.11 165.19 581.27 164.79 581.89 164.37 582.36 164.23 583.97 164 583.97 163.36 583.75 163.05 583.4 162.83 582.59 162.64 581.83 162.59 581.43 162.38 581.41 162.16 581.65 161.77 582.68 161.38 583.03 161.41 583.51 161.66 584.1 162.65 584.41 162.76 585 162.54 585.6 162.23 586.3 161.42 586.9 160.93 587.27 160.45 587.88 159.39 587.82 158.68 587.64 157.94 587.27 157.21 587.13 156.38 587.25 155.99 587.6 155.67 588.16 155.63 588.06 156.04 588.13 156.45 588.49 156.81 588.88 156.61 589.83 156.26 590.27 155.99 590.86 155.67 591.5 155.38 591.9 155.42 592.37 155.77 592.66 156.11 593.01 156.93 593.19 158.17 593.14 158.7 593.23 159.19 594.01 160.92 595.01 161.82 595.64 162.16 595.98 162.18 596.52 161.84 596.63 160.89 597.1 160.5 598.27 160.64 599.4 160.86 600.05 161.19 600.29 161.53 600.46 162.5 600.91 163.38 601.38 163.57 602.46 163.47 603.6 163.21 604.29 163.15 604.85 162.92 605.15 162.68 605.69 162.01 606.05 161.23 606.21 160.39 606.13 159.93 606.25 159.3 606.74 158.23 607.12 157.95 607.56 157.96 607.86 158.14 609.37 159.25 610.3 159.31 611.67 159.25 611.9 159.28 612.09 159.65 611.8 160.15 611.36 160.49 610.49 160.84 609.44 161.86 609.42 162.29 609.79 162.53 611.12 162.96 611.98 163.35 612.83 163.88 613.22 163.92 614.2 163.88 615.28 163.65 615.74 163.85 616.19 164.64 616.32 165.34 616.27 165.76 616.76 166.37 617.21 166.7 617.97 166.7 619.2 166.52 619.75 166.55 620.23 166.26 620.54 166.2 621.51 166.35 621.92 166.48 622.19 166.76 622.52 167.59 622.9 168.11 623.54 168.69 624.39 169.35 624.84 169.86 625.19 170.1 625.4 170.75 625.57 171.03 625.59 171.48 625.82 171.77 626.58 171.96 627.07 171.83 627.53 171.51 628.08 171.45 628.28 171.32 628.74 170.64 629.04 169.72 628.94 169.02 629.05 168.43 629.54 167.53 629.67 167.01 630.01 166.82 630.74 166.84 631.62 167.02 632.17 167.39 633.29 167.92 633.65 168.18 634.25 168.24 634.59 168.12 635.66 167.92 636.72 167.5 637.33 166.92 637.61 166.26 637.94 164.35 637.7 164.26 637.32 164.74 636.97 164.91 636.76 164.43 636.9 164.2 637.53 163.96 637.97 163.92 638.49 164.02 638.61 163.88 638.43 163.11 638.59 162.79 639.21 162.67 639.68 162.78 640.18 162.62 640.96 163.08 641.61 163.2 641.71 162.74 641.56 162.14 642.5 162.22 643.5 162.46 644.68 162.83 645.32 162.58 645.77 162.1 645.77 161.76 646.01 161.56 646.46 161.8 646.23 162.47 646.39 162.58 647.3 162.29 647.74 161.95 647.96 161.29 647.66 161.25 647.4 160.89 647.47 160.58 648.54 161.04 648.61 161.4 648.56 161.86 649.09 161.7 650.26 161.51 650.84 161.47 651.21 161.25 651.51 160.71 651.76 159.97 652.21 159.9 653.12 160.39 654.02 160.95 654.45 161.08 654.97 161.47 655.71 161.93 656.42 162.06 656.82 162.51 657.48 162.87 657.95 162.94 658.45 162.71 658.64 162.47 658.51 161.83 658.56 161.57 658.84 161.42 659.52 161.32 660.1 161.43 660.86 161.95 661.6 162.3 662.01 162.21 662.54 161.89 662.73 161.65 662.74 161.36 662.13 160.61 662.07 160.12 662.43 159.46 662.9 159.21 663.66 159.17 664.65 159.53 665.13 159.85 665.83 159.83 666.54 159.67 667.13 159.32 667.77 158.55 668.27 158.36 668.59 158.37 669.63 158.68 669.95 158.68 670.28 158.5 670.44 158.02 670.95 157.3 671.68 157.23 672 156.97 672.09 156.4 672.56 156.42 673.04 156.9 673.35 156.97 673.92 156.93 674.51 157.13 674.81 157.5 675.03 158.27 675.11 158.97 674.91 159.6 675.02 159.85 675.38 160.16 675.96 160.12 676.89 159.59 677.32 159.14 677.69 159.3 677.67 160.41 678.51 160.5 679.02 160.38 679.84 160.07 680.23 159.75 680.46 159.79 680.28 160.25 680.24 160.65 680.73 160.72 681.33 160.97 681.74 161.02 682.41 160.77 683.44 161.08 684.21 161.09 684.72 160.92 685.56 160.89 686.33 160.99 686.98 160.82 687.87 160.51 688.32 160.03 688.61 159.84 689.3 160.11 689.78 160.5 690.52 160.63 691.34 160.46 691.49 160.29 691.49 159.56 691.04 158.75 691.28 158.46 691.63 158.29 692 158.28 692.19 158.44 692.29 159 692.19 159.34 692.51 159.72 692.97 159.34 693.29 158.6 693.35 158.08 693.15 156.78 693.5 156.28 694.24 155.95 694.41 155.35 694.67 155.2 695.23 155.17 695.68 155.32 696.35 155.73 697.15 155.97 697.96 156.13 698.84 156.74 699.96 156.86 700.51 156.75 701.03 157.07 700.99 157.41 700.39 158 700.75 158.58 701.1 158.71 701.52 158.7 701.96 158.42 702.57 158.28 702.93 158.12 703.38 157.65 703.65 157.84 703.72 158.15 703.54 158.45 702.84 158.94 702.31 159.17 702.32 159.41 702.92 160.13 703.38 160.2 703.52 159.84 703.61 158.67 703.83 158.44 703.9 158.03 704.36 157.95 704.53 158.12 704.32 158.47 703.83 158.56 704.07 158.78 704.58 158.76 704.74 158.86 704.84 159.81 705.32 160.29 705.31 160.88 705.41 161.16 706.13 161.39 707.65 161.52 708.17 161.27 708.51 161.37 708.86 161.89 709.4 161.93 709.83 161.42 710.28 161.35 710.47 162.09 710.55 162.8 711.23 162.93 711.8 163.21 711.74 163.48 711.21 164.05 711.55 164.54 712.12 164.7 713.05 164.52 713.06 164.11 712.85 163.45 713.17 163.3 713.51 163.56 713.79 164.14 713.45 164.5 713.1 165.44 713.16 165.63 713.77 166.36 714.21 166.43 714.21 166.67 714.57 166.93 715.26 166.93 715.33 167.16 715.89 167.64 716.05 167.6 715.99 167.03 716.43 166.97 716.48 167.37 715.85 167.95 716 168.14 716.85 168.58 717.27 168.68 717.95 168.73 718.84 168.64 718.81 168.97 719.14 169.14 719.31 168.88 719.13 168.22 718.66 167.6 718.75 167.23 719.12 166.92 719.54 167.24 719.51 167.83 719.8 168.04 719.78 168.3 719.5 168.69 719.81 168.98 720.4 169.13 720.7 168.88 721.14 168.73 721.77 168.38 721.97 167.7 722.28 167.44 722.75 167.49 723.08 167.69 723.1 168.08 722.83 168.29 722 168.29 721.23 168.96 721.6 169.29 722.17 169.47 722.95 169.46 723.29 169.11 723.49 169.07 723.72 169.6 723.1 170.04 723.49 170.3 723.85 170.1 723.86 169.78 724.05 169.5 724.38 169.47 724.64 169.71 724.59 169.96 724.11 170.31 723.39 170.47 723.46 170.83 724.13 171.09 724.38 171.59 725.42 171.8 725.64 171.43 725.42 170.89 724.92 170.79 724.64 170.56 724.49 170.2 724.74 170.15 725.3 170.33 726.25 170.74 726.54 171 726.34 171.3 725.71 171.33 725.5 171.81 726.51 171.88 727.53 172.07 728.56 171.45 729.13 171.62 729.56 171.98 729.81 171.73 729.75 171.15 730.05 171.04 730.34 171.38 729.74 172.21 729.92 172.73 729.57 172.92 729.07 172.63 728.42 172.93 728.52 173.32 728.98 173.53 729.31 173.56 729.7 173.4 730.3 173.33 730.81 172.74 730.87 172.39 731.06 172.21 731.63 172.27 731.96 172.94 732.22 173.22 732.62 173.39 733.1 173.23 733.27 172.48 733.12 172.2 733.42 171.96 733.88 172.41 733.94 172.86 733.85 173.17 734.89 172.99 735.05 173.26 734.82 173.44 734.17 173.59 733.48 174.15 733.38 174.51 733.9 174.49 734.47 174.03 735.75 173.51 736.17 173.92 736 174.39 734.91 174.76 734.6 174.96 734.49 175.34 734.87 175.6 735.56 175.5 736.22 174.99 737.05 174.69 737.43 174.72 737.51 175.05 736.78 175.52 736.65 175.9 737.1 176.24 737.52 176.14 737.64 175.9 737.53 175.38 737.7 175.19 738.02 175.75 738.42 175.94 739.47 175.53 739.62 174.9 740.09 174.83 740.82 175 741.28 174.45 741.84 174.59 741.99 174.76 741.86 175.12 741.16 175.26 741.17 175.71 741.63 175.83 741.56 176.24 740.64 176.73 740.45 176.96 740.67 177.22 741.23 177.18 741.59 177.69 742.3 177.71 742.44 177.55 743.13 177.8 744.08 179.08 744.6 179.12 744.95 178.95 745.69 178.29 746.13 178.48 746.11 179.01 745.96 179.15 745.43 179.31 745.09 179.24 744.75 179.68 745.5 180.45 745.95 180.6 746.66 180.5 747.56 180.65 748.03 180.14 747.7 179.57 748.13 179.18 748.57 179.19 748.82 179.47 748.95 180.01 749.72 180.3 750.34 180.13 750.52 179.89 750.49 179.61 750.78 178.95 750.99 178.66 751.45 178.32 751.96 178.34 752 178.82 751.51 179.15 751.42 179.44 751.54 179.76 752.19 179.8 752.47 179.7 753.1 178.66 753.49 178.25 754.28 177.84 754.77 178.02 754.66 178.59 754.32 178.77 753.85 179.37 753.87 179.77 754.75 180.09 755.54 180.02 755.9 179.79 756.46 179.23 756.78 179.27 756.89 179.71 757.26 179.92 757.51 179.78 757.59 179.41 757.21 178.69 756.91 178.57 756.43 178.8 756.04 178.66 755.93 178.4 756.32 178.23 756.69 178.42 757.26 178.3 757.93 177.54 758.45 177.75 759.26 177.87 759.29 178.36 759.6 178.67 759.83 178.67 760.26 178.29 760.47 178.54 759.94 178.92 759.96 179.16 760.42 179.29 760.79 178.97 760.96 179 761.04 179.69 761.18 180.11 761.47 180.19 761.69 180.02 761.8 179.2 762.28 179.21 763.55 178.71 764.26 178.72 764.96 178.92 765.11 179.09 765.73 179.2 765.75 179.53 765.39 179.67 765.04 179.57 764.72 179.66 764.65 179.9 765.18 180.21 765.46 180.26 765.98 180.07 766.5 180.14 766.51 182.61 766.51 191.85 766.52 195.12 766.53 201.51 766.52 206.56 766.52 212.47 Z M 719.12 436.94 719.2 436.37 719.33 436 719.22 435.65 719.9 435.23 721.02 435.9 721.68 436.42 721.64 436.94 721.15 437.41 720.63 437.64 719.59 437.66 719.2 437.59 719.12 436.94 Z M 712.72 439.18 713.27 439.2 712.98 439.51 712.72 439.18 Z M 700.96 451.23 701.11 450.97 701.7 450.68 702.5 449.4 702.74 449.18 703.34 448.89 703.56 448.87 704.06 448.58 704.24 448.34 704.51 448.29 704.86 447.99 705.97 447.25 706.68 447.11 706.95 446.35 707.36 446.38 707.23 445.95 707.58 445.76 707.99 445.7 708.06 445.38 709.02 445.04 708.75 444.73 708.89 444.45 709.63 444.3 709.86 444.38 710.09 444.05 709.95 443.79 710.26 443.65 710.85 443.85 710.68 443.3 711.22 443.36 711.71 443.16 711.5 442.73 711.08 442.69 711.83 442.3 712.38 442.49 712.61 442.35 712.63 441.83 713.2 441.4 713.19 441.22 713.6 440.92 713.9 440.83 714.99 440.18 715.67 440.05 715.57 439.66 716.02 439.01 716.39 438.98 716.79 438.67 717.33 438.45 717.52 438.55 718.25 438.41 719.09 438.04 719.28 437.81 720.65 437.88 721.2 437.67 721.68 437.27 722.08 437.12 722.22 436.35 722.57 436.13 723.8 436.28 724.7 436.14 724.96 436.49 724.15 436.99 722.52 438.05 720.86 439.34 719.62 440.07 718.32 440.78 716.47 441.87 716.33 441.91 714.96 442.71 708.17 446.77 706.64 447.7 704.16 449.28 703.05 450.06 702.3 450.72 701.89 451.21 701.31 451.48 700.96 451.23 Z M 572.41 539.53 572.87 539.66 573.49 539.63 573.7 539.89 573.88 540.17 574.17 539.98 573.81 539.28 573.81 538.96 574.54 539.09 574.69 538.7 574.52 538.56 574.66 538.27 574.93 538.27 574.87 537.24 574.95 536.54 575.36 536.04 575.72 535.84 576.41 534.6 577.05 533.3 577.26 532.39 577.65 531.85 577.72 531.42 578.06 531.19 578.83 531 579.29 530.77 579.52 530.41 579.63 528.89 579.54 528.56 578.68 528.02 579.15 527.8 581.69 527.36 582.33 527.11 583.45 526.96 584.18 527.42 583.52 527.98 582.51 529.08 581.39 530.37 580.32 531.75 578.35 534.57 577.54 535.78 575.97 538.3 574.8 540.31 574.65 540.62 574.62 540.68 574.57 540.8 574.56 540.81 573.98 541.88 573.53 542.81 573.53 542.82 573.38 543.09 573.11 543.56 571.27 547.09 570.6 548.48 570.19 549.23 569.2 551.49 568.46 553.25 567.53 555.64 566.89 557.52 566.35 559.21 565.63 561.82 565.2 563.49 564.71 565.96 564.39 568.05 564.01 571.87 563.92 573.52 563.88 575.24 563.89 577.49 563.93 578.66 564.05 580.51 564.37 583.52 564.82 586.24 565.23 588.29 565.61 589.95 566.4 593.09 566.95 595.06 567.94 598.38 568.91 601.32 569.6 603.31 570.04 604.32 569.97 604.55 569.01 604.53 568.17 604.56 568.08 604.21 569.08 604.19 569.48 603.85 569.44 603.41 568.49 602.81 568.13 602.16 567.94 601.42 567.37 600.31 566.92 599.56 566.79 598.79 566.5 598.23 565.76 596.15 565.21 594.78 565.08 594.01 564.6 592.91 564.72 592.61 564.12 591.86 563.82 591.02 563.73 590.27 563.16 589.26 563.29 587.87 562.7 586.13 563.13 585.16 562.96 583.25 563.21 581.14 563.4 580.7 563 579.85 563.17 578.81 563.24 577.06 563.23 575.68 563.18 575.33 563.29 573.31 563.46 572.96 563.25 572.43 563.26 571.93 563.1 571.5 562.94 570.58 563.21 570.24 563.2 568.9 563.39 568.05 563.38 567.5 563.7 566.36 563.42 566.13 563.22 565.66 563.86 565.37 563.84 564.33 563.68 563.56 563.67 563.15 564.4 562.93 564.57 562.61 564.81 561.82 564.96 561.55 564.37 561.18 564.5 561.02 564.32 560.25 564.37 559.96 565.28 559.35 564.87 558.59 564.91 558.25 564.65 558.03 564.79 557.06 564.93 556.85 564.92 556.3 565.1 555.84 565.45 555.4 565.81 554.53 566.09 554.22 566.21 553.91 566.47 553.64 566.73 553 566.84 552.48 566.83 551.71 567.2 551.03 567.49 550.24 567.82 549.77 567.9 549.41 568.22 548.88 568.59 548.66 568.81 548.2 568.42 547.29 569.08 545.91 569.81 544.53 570.77 542.85 571.32 541.67 572.41 539.53 Z M 573.17 536.43 573.81 536.63 573.49 537.07 572.84 539.18 572.65 539.17 573.03 537.14 572.79 536.64 572.47 536.63 572.19 537.34 571.94 537.05 571.93 536.65 572.48 536.38 572.52 536.38 573.17 536.43 Z M 579.18 527.02 579.44 526.49 579.65 526.3 579.98 525.62 580.66 524.71 580.74 524.46 581.44 524.92 581.85 524.43 581.99 523.8 582.37 523.75 582.43 523.5 582.89 523.06 582.94 522.64 583.65 523.3 583.89 524.74 583.73 525.38 583.32 526.19 582.97 526.44 582.95 526.79 582.27 526.91 581.93 526.8 581.57 526.98 580.45 527.12 579.19 527.21 579.18 527.02 Z M 578.9 523.68 580.01 523.91 580.21 524.09 579.72 524.31 579.72 524 579.03 523.84 578.9 523.68 Z M 576.93 528.26 577.59 528.18 578.22 528.27 578.09 528.5 576.97 528.47 576.93 528.26 Z M 576.31 532.23 576.41 531.89 576.89 531.7 576.72 532.2 576.31 532.23 Z M 575.34 528.51 576.12 528.45 576.12 528.62 575.63 528.73 575.34 528.51 Z M 573.52 528.89 574.5 528.67 574.48 529.02 573.86 529.07 573.52 528.89 Z M 572.41 527.32 572.67 527.33 572.93 527.6 572.69 527.75 572.32 527.47 572.41 527.32 Z M 570.65 525.03 571.06 525.01 571.58 525.18 572.08 526.19 572.43 527.04 572.01 527.02 571.22 525.5 570.66 525.32 570.65 525.03 Z M 571.22 613.01 571.57 612.94 571.69 613.28 571.42 613.63 571.22 613.01 Z M 567.1 604.78 570.1 604.73 570.39 604.84 570.73 606.03 571.98 609.81 572.91 612.75 573.67 615.33 574.08 616.99 574.65 619.11 575.19 621.23 575.84 624.44 576.03 625.53 576.55 629.34 576.59 629.83 576.83 631.51 577.12 633.31 577.41 634.37 577.56 634.74 576.78 634.44 576.62 634.13 576.56 633.7 576.76 633.21 576.63 632.67 576.34 631.88 576.45 631.69 576.3 631 576.08 630.65 576.02 630.02 575.84 629.92 575.91 629.16 575.83 628.95 576.03 628.26 576.03 627.87 575.59 625.83 575.43 624.72 575.13 624.04 575.1 623.4 574.99 622.81 574.92 621.96 574.68 621.43 574.61 620.72 574.01 618.41 573.46 617.41 573.2 616.81 573.57 616.4 573.41 615.95 572.66 614.59 572.55 614.33 572.23 614.05 572.46 613.42 572.1 613.01 572.14 612.61 571.9 612.08 572.08 611.63 571.86 610.64 571.52 609.68 571.22 609.22 571.34 608.64 571.07 608.42 570.96 608.05 570.52 608 570.38 607.75 570.16 606.97 569.74 606.28 569.53 605.61 568.46 605.22 568.18 604.98 567.29 605 567.1 604.78 Z M 562.26 560.2 562.48 559.25 562.66 559.33 562.41 560.13 562.26 560.2 Z M 561.18 593.16 561.72 593.11 561.67 593.86 561.2 593.86 561.18 593.16 Z M 712.73 421.17 713.15 420.89 713.33 420.93 714 421.77 714.01 421.91 713.44 422.14 712.73 421.17 Z M 709.7 415.09 709.98 414.94 710.47 415.35 711.23 415.47 711.56 415.91 711.95 416.93 711.89 417.02 711.17 417.12 711.53 417.49 711.49 418.13 712.05 418.91 711.93 419.23 711.59 419.36 711.22 419.04 711.17 418.8 711.3 418.43 711.2 418.2 710.87 417.98 710.77 417.55 710.5 417.04 710.31 416.09 709.87 415.54 709.7 415.09 Z M 708.87 414.19 709.26 414.19 709.85 414.44 709.9 414.83 709.33 414.63 708.87 414.19 Z" fill-rule="evenodd" fill="none" stroke="currentColor" stroke-width="46.400"/>
</g>
</svg>