<?xml version="1.0"?>
<svg width="200" height="200" xmlns="http://www.w3.org/2000/svg" version="1.2" baseProfile="tiny" viewBox="-64.000 -81.000 928.000 928.000" stroke-linecap="round" stroke-linejoin="round">
<g id="state">
<path vector-effect="non-scaling-stroke" d="M 760.35 248.34 760.59 254.13 760.82 259.35 761.01 264.1 761.5 275.58 761.7 279.83 761.83 283.59 761.94 285.68 762.4 296.48 762.65 301.98 762.68 302.89 762.89 307.51 763.06 311.76 763.1 312.12 763.18 314.52 763.44 320.69 763.68 321.17 764.3 320.86 764.66 321.26 764.92 321.35 765.08 321.9 765.62 322.35 766.13 323.32 766.5 323.87 766.8 324.13 766.92 324.44 767.27 324.75 767.67 325.78 768.03 326.13 768.49 325.81 768.69 325.87 769.1 326.75 770.07 326.8 770.53 326.53 771.02 327.04 770.45 327.89 771.15 328.14 771.49 327.9 771.77 327.95 772.49 327.77 772.63 328.32 772.31 328.84 772.86 329.34 773.58 329.54 773.58 329.8 773.16 330.39 773.55 330.53 773.5 331.03 773.82 331.19 774.21 331.77 774.14 332.8 774.62 333.27 774.99 333.47 775.49 333.94 775.62 334.31 775.94 334.16 776.36 334.26 776.6 334.67 776.5 335.14 776.81 335.59 777.46 336.12 777.06 337.05 776.97 337.49 776.67 337.81 776.99 338.13 777.46 338.9 778.03 339.2 778.24 340.28 778.01 340.7 778.3 340.77 778.62 341.09 779.2 340.87 779.38 341.11 778.7 342.6 778.46 342.73 778.09 343.3 777.74 343.26 777.56 343.69 777.63 344.11 778.1 344.76 778.26 345.63 778.07 346.25 778.28 346.82 777.74 347.05 777.34 347.81 777.05 347.99 776.99 348.53 777.3 349.44 777.6 349.91 777.8 349.97 778.35 350.48 778.13 350.64 778.25 351.39 778.69 351.91 779.35 352.37 779.37 352.72 779.66 352.99 780.19 353.25 780.52 353.58 782.05 353.65 782.35 353.22 783.05 353.37 783.25 354.01 783.46 354.3 784.97 354.27 785.05 354.46 784.56 354.82 784.32 355.51 784.42 355.76 783.91 356.17 783.28 356.47 782.87 356.37 783.08 356.86 782.91 357.1 782.87 357.54 783.34 357.72 783.99 358.29 784.59 358.55 784.96 358.27 785.36 358.28 785.69 358.47 785.38 359.25 785.46 359.35 786.38 359.42 786.42 359.62 785.75 360.95 785.76 361.52 786.32 361.6 786.66 361.78 787.19 362.34 787.68 362.37 787.95 363.1 788.07 364.13 787.82 364.42 788.2 364.64 788.74 364.51 789.4 364.18 789.89 364.13 789.61 364.57 789.42 365.1 788.17 365.52 788.14 366.59 787.73 367.2 787.94 367.6 787.37 368.04 787.15 368.57 787.25 369.05 787.42 369.22 787.91 369.23 788.26 369.38 788.96 370.53 789.6 370.34 789.89 370.87 789.93 371.25 790.2 371.39 791.34 371.18 791.41 371.61 791.8 372.01 791.8 372.56 791.35 372.76 791.69 373.05 791.73 373.56 791.62 373.89 792.08 373.93 792.32 374.22 792.84 373.97 792.8 374.41 793.04 374.76 792.6 374.98 792.6 375.39 792.4 375.9 792.72 376.19 792.76 377.48 792.9 377.87 793.62 378.57 794.34 378.35 794.77 377.69 795.29 377.31 795.9 377 796.41 377.21 796.9 377.03 797.1 377.42 797.03 377.81 796.46 378.03 796.86 378.95 796.64 379.13 796.12 379.17 796.16 379.71 796.43 380.56 796.88 381.21 796.82 382.02 796.44 382.33 796.21 383.16 795.48 383.34 795.44 383.62 796.19 384.15 796.16 384.63 796.9 384.67 797.37 384.89 797.68 384.88 797.63 385.25 798.16 385.47 798.25 385.75 798.13 386.08 797.46 386.26 797.76 386.73 798.24 386.93 798.26 387.17 797.97 387.39 799 387.81 798.97 388.05 798.18 388.72 797.51 388.83 797.19 389.61 796.79 389.5 796.44 389.57 796.19 389.98 795.76 389.63 795.56 389.34 795.22 389.61 795.05 390.13 794.84 390.31 795.23 390.91 795.65 390.94 795.6 391.73 795.16 392.16 795.53 392.47 796.12 392.32 796.84 392.72 796.93 393.21 797.36 393.28 797.82 393.14 797.81 393.79 797.99 394.27 798.24 394.59 798.18 395.27 797.96 395.53 797.18 395.8 796.86 395.59 796.71 396.04 796.34 396.38 796.68 396.75 796.64 397.13 796.95 397.5 795.91 397.73 795.47 398.49 795.72 399.14 796.17 399.14 796.1 399.48 796.48 399.62 796.31 400.31 796.61 400.74 795.99 401.41 796.6 401.59 796.89 401.93 796.69 402.42 796.9 402.66 796.28 403.29 796.54 403.76 796.41 404.02 795.71 404.39 795.25 404.29 795.14 404.65 795.34 405.1 795.21 405.38 794.86 405.47 795.18 405.85 794.85 406.11 794.66 406.51 794.77 407.11 794.26 407.25 793.75 407.62 793.41 407.72 793.83 408.26 793.74 408.51 793.19 408.73 793.59 409.08 793.84 409.55 793.89 410.32 793.64 410.51 793.26 411.07 793.01 411.82 793.26 412.13 792.87 412.62 792.65 413.31 792.16 413.72 791.81 413.66 791.73 414 791.23 413.92 790.87 414.58 790.59 414.56 790.32 414.83 790.33 415.21 789.6 416.09 789.78 416.5 789.53 416.8 789.52 417.2 789.74 417.66 789.33 418.23 789.69 418.4 790 419.07 790.02 419.39 789.63 419.55 789.08 419.42 788.53 419.84 787.89 419.95 787.89 420.47 787.66 420.66 787.44 420.47 787.09 420.9 787.09 421.53 787.32 421.79 787.27 422.15 786.92 422.46 787.08 423.03 786.5 423.33 786.56 423.59 786.92 423.68 786.84 423.97 787.3 424.41 787.62 424.44 787.8 424.7 788.28 424.93 788.51 425.36 788.4 425.69 788.08 426.08 788.01 426.57 788.48 427.21 788.29 427.65 788.47 428 788.44 428.38 788.75 428.53 789.18 429 788.76 429.11 788.73 429.32 789.05 429.7 788.73 429.98 788.92 430.18 789.24 430.01 789.33 430.46 788.73 431.1 788.54 430.9 788.24 431.25 787.83 431.01 787.64 431.12 787.59 432.22 787.21 432.26 787.17 432.73 786.52 433.6 786.21 433.62 785.84 434.04 785.8 434.54 785.99 434.78 786.04 435.58 785.93 435.92 786.03 436.46 785.94 436.9 785.51 437.49 785.7 437.72 785.61 438.35 786.14 438.24 786.12 438.59 786.63 439.1 786.82 439.61 787.21 440.18 787.56 440.5 788.05 440.52 788.28 440.74 789.12 440.9 789.42 441.06 789.42 441.69 789.26 442.34 789.24 442.82 789.58 443.22 789.28 444.18 789.42 444.33 789.66 444.6 789.09 445.33 789.23 445.82 789.11 446.13 788.79 446.05 788.66 446.38 788.89 446.57 788.67 446.88 789.05 447.14 788.88 447.43 789.64 447.86 789.41 448.08 789.41 448.89 789.6 448.9 789.9 449.43 790 449.86 789.7 450.46 789.77 450.88 790.28 450.75 790.59 451.52 790.87 451.65 790.64 451.99 790.12 451.87 790.19 452.73 790.02 453.77 789.49 453.99 789.41 454.43 788.85 455.08 788.94 455.68 788.68 455.81 788.78 456.12 789.46 456.76 790.23 456.92 790.48 457.33 790.21 457.77 789.78 457.78 789.58 456.99 789.23 457.14 789.15 457.96 788.25 458.99 788.11 459.41 788.11 460.02 787.82 460.37 787.19 460.68 786.41 461.68 786.23 462.1 785.52 462.33 785.12 462.82 784.79 463.87 784.19 464.93 783.99 465.66 783.65 467.73 782.92 469.48 782.19 470.72 781.2 472 780.45 472.62 779.61 473.08 778.57 473.89 777.81 474.64 777.44 475.09 777.14 475.76 777.13 476.65 777.29 477.18 777.56 477.49 779.09 478.38 779.49 478.81 779.6 479.12 779.43 479.68 779.51 480.1 779.78 480.44 780.71 480.71 780.96 480.86 781.42 481.66 783.02 483.86 782.88 484.17 783.14 484.79 781.68 484.85 777.84 484.77 776.01 484.79 774.01 484.94 772.98 485.05 772.13 485.22 769.6 485.93 767.2 486.79 764.06 488.21 761.75 489.31 757.18 491.58 755.13 492.63 749.14 495.51 743.14 498.38 738.61 500.67 736.66 501.7 734.5 502.93 733.09 503.81 731.48 504.97 730.71 505.64 729.85 506.56 728.95 508.08 728.68 508.79 728.39 509.11 728.08 508.95 727.83 508.57 727.06 509.18 726.65 509.61 726.53 509.33 726.11 509.41 725.58 509.67 725.45 509.42 725.65 508.99 725.6 508.65 725.25 508.55 726.23 507.59 725.81 507.26 725.76 506.98 726.23 506.37 726.92 505.76 727.53 506.26 728.14 505.77 728.85 504.98 729.22 504.67 729.63 504.56 730.07 504.18 730.06 503.9 730.37 503.44 730.52 503.01 731.03 502.49 731.14 502.04 731.65 501.49 732.34 501.18 733.3 501.32 733.9 501.48 734.65 501.2 735.41 500.8 735.98 500.67 736.42 500.12 736.65 499.25 736.65 498.9 737.2 498.09 737.85 497.41 738.19 497.21 738.62 497.15 739.12 497.31 739.87 497.78 740.64 498.07 741.55 498.01 742.02 498.39 742.38 498.47 742.94 498.22 743.19 497.78 743.21 496.82 743.51 496.25 743.91 495.93 744.24 495.34 744.02 495.01 743.88 495.05 743.65 495.22 743.41 495.33 743.06 495.44 742.71 495.63 742.69 495.64 742.66 495.68 742.56 495.9 742.22 496.09 741.8 496.16 741.12 496.34 741.1 496.34 741.04 496 741.05 495.9 740.95 495.53 740.46 495.17 740.37 495.11 739.92 494.75 739.73 494.39 739.4 494.13 739.19 494.08 738.98 494.05 738.86 494.04 738.26 494.13 738.18 494.16 737.98 494.25 737.92 494.29 737.71 494.42 736.95 494.83 736.75 494.92 736.67 494.96 736.52 495.01 736.36 495.02 736.34 495.02 735.86 495.3 735.56 495.41 735.02 495.58 734.88 495.63 734.56 495.7 734.32 495.78 733.88 495.92 733.64 495.98 733.12 496.08 733.09 496.09 732.97 496.11 732.9 496.12 732.83 496.14 732.77 496.15 732.5 496.24 732.15 496.41 732.13 496.43 732.1 496.45 731.77 496.56 731.29 496.72 731.21 496.75 731.06 496.81 730.84 496.9 730.78 496.92 730.49 496.92 730.11 496.96 730 496.95 729.95 496.93 729.82 496.93 729.65 496.99 729.63 497 728.97 497.27 728.79 497.27 728.33 497.49 728.22 497.54 727.68 497.75 727.54 497.83 727.43 497.83 727.14 497.8 727.1 497.81 726.78 497.97 726.76 497.98 726.62 498.01 726.33 498.06 726.18 498.08 725.91 498.02 725.67 497.93 725.01 497.55 724.9 497.36 724.82 497.22 724.8 497.12 724.64 496.81 724.61 496.77 724.5 496.58 725.02 496.35 725.56 497 726.19 496.83 726.82 496.19 726.9 495.97 726.66 495.43 726.99 495.02 727.66 494.42 728.07 493.6 728.33 492.91 728.91 491.87 729.37 490.78 729.69 489.76 729.88 488.17 729.88 486.77 730.29 485.91 730.23 484.75 730.02 483.73 729.73 483.36 729.68 482.74 729.83 482.21 729.62 481.64 729.71 481.24 728.92 480.76 728.61 480.08 728.25 479.73 727.82 479.8 727.81 478.88 727.45 479.15 726.99 479.1 726.44 479.19 726.25 479.66 725.03 480.18 724.03 480.73 723.26 481.01 722.32 481.55 721.78 482.27 720.19 484.26 719.88 485.07 719.39 486.14 719.28 487.33 718.98 487.87 717.81 488.62 716.81 489.06 716.04 488.98 715.97 488.46 715.59 488.19 715.17 487.48 714.99 487.35 714.99 486.48 714.57 486.14 713.12 486 712.61 485.85 712.33 485.41 711.72 485.42 711.43 485.12 711.13 485.46 710.76 485.24 710.14 485.68 709.82 486.02 710.17 486.2 710.97 486.33 711.65 487.08 711.82 487.39 712.12 487.35 712.17 487.7 711.03 488.6 710.4 489.69 710.18 490.43 710.22 490.93 710.66 491.54 711.9 492.5 712.31 493.07 712.01 493.6 711.26 494.41 710.6 495.45 710.22 496.44 710.28 496.84 710.32 496.91 710.43 497.45 710.46 497.51 710.62 497.68 710.71 497.77 710.8 497.86 710.96 498.13 711.24 498.47 711.43 498.62 711.99 499.03 712.23 499.16 712.48 499.29 712.78 499.41 713.61 499.63 713.69 499.66 713.96 499.72 714.83 499.93 715.77 500.15 716.16 500.24 716.95 500.38 716.96 500.39 717.08 500.35 717.06 500.68 716.19 502.22 715.98 501.59 715.78 501.5 715.26 501.6 714.44 502.16 714.55 502.51 715.44 503.28 715.89 503.57 718.35 504.79 718.65 505.98 718.6 506.23 718.79 508.1 718.63 508.73 719.11 508.7 720.08 508.96 720.11 509.45 718.57 510.31 717.64 510.34 717.53 511.02 717.58 511.49 718.56 512.5 718.61 513.33 718.17 514.14 717.64 514.5 717.42 514.81 717.06 514.83 716.48 514.59 716.57 514.31 717.13 514.25 717.56 514.36 717.87 514.14 717.71 513.69 715.87 513.33 715.54 513.44 715.43 514 714.82 514.9 714.35 515.35 713.81 515.65 713.55 516.02 712.73 516.96 711.45 518.71 710.73 519.26 710.42 519.67 710.01 520.88 709.55 521.22 708.64 521.7 708.47 521.74 707.19 522.55 706.18 523.43 705.78 523.58 705.25 523.62 705.5 523.07 705.32 522.44 704.97 521.89 704.29 522.1 703.84 522.48 703.6 522.27 702.81 522.17 702.41 522.29 702.41 522.85 702.73 522.89 702.89 523.4 702.65 523.94 702.7 524.54 702.57 524.98 702.62 525.39 702.33 525.76 702.37 526.06 701.94 527.57 701.97 528.14 702.29 528.54 702.39 528.9 702.68 528.92 703.05 529.2 703.66 529.88 703.86 530.32 704.29 530.36 704.72 530.66 704.76 531.07 703.48 532.21 700.73 534.46 696.97 537.84 695.73 539.12 694.88 540.11 694.37 540.89 692.8 541.99 691.58 543.02 689.34 545.23 689.13 545.32 688.96 545.84 686.95 546.64 685.66 546.67 684.03 547.49 681.32 549.22 677.86 551.41 676.29 552.38 673.57 554.01 672.63 554.52 671.92 554.78 671.82 555.14 669.54 556.6 667.22 558.13 665 559.55 662.49 561.08 661.16 561.86 657.67 563.69 652.38 566.23 651.88 566.56 651.57 566.52 650.88 566.84 648.13 568.18 645.68 569.41 641.85 571.5 639.6 572.76 638.1 573.63 636.97 574.36 634.07 576.28 632.48 577.53 631.24 578.69 631.01 579.04 630.39 578.97 629.6 579.45 628.85 580.07 627.94 580.93 627.83 581.11 626.64 582.13 626.71 582.61 626.04 583.9 625.29 584.94 624.44 585.81 623.43 586.76 622.84 587.14 621.87 587.65 620.34 588.36 618.66 589.25 616.09 590.72 614.69 591.62 611.64 593.74 610.12 594.86 607.82 596.64 605.87 598.23 604.16 599.68 600.38 603.07 597.99 605.39 595.81 607.68 593.25 610.5 591.12 613.08 589.29 615.48 588.31 616.83 587.19 618.56 586.42 620.05 586.16 620.63 585.91 621.44 585.32 620.89 585.45 620.41 585.94 619.35 586.07 618.89 585.91 618.06 585.94 617.76 586.26 617.54 586.49 616.49 586.66 616.21 587.29 616.06 587.63 615.65 588.17 615.39 588.44 615.06 588.91 614.21 588.01 614.01 587.52 614.09 586.88 614.52 586.87 614.01 588.92 613.61 589.35 613.58 589.63 613.16 589.7 612.58 589.55 611.71 589.67 611.07 590.27 609.53 590.68 608.7 591.41 607.77 591.5 607.37 592.02 606.72 591.95 606.11 592.48 606.23 592.8 605.92 592.89 604.76 593.28 603.61 593.63 603.24 594.51 602.72 595.33 602.46 596.1 602.31 596.12 602.1 595.61 601.99 595.66 601.59 596.16 600.77 596.1 600.53 596.49 600.35 597.17 600.97 597.67 601.25 598.12 601.94 598.39 602.11 599.04 601.74 599.32 601.94 599.56 601.82 600.47 601.01 600.57 600.78 600.49 600.32 600.95 600.13 600.95 599.51 600.6 599.49 600.14 599.72 599.97 599.44 600.07 598.51 599.77 598.01 600.32 597.34 600.74 597.09 601.19 596.57 601.94 596.26 602.89 596.36 604.47 596.29 605.16 596.18 605.36 596.4 606.11 596.45 606.36 595.94 606.86 595.69 607.24 595.62 607.53 595.28 607.19 594.34 607.99 594.14 608.99 593.66 609.7 593.55 609.98 593.3 609.69 593.09 609.89 592.7 610.29 592.84 610.28 592.36 610.46 592.31 610.56 591.68 611.34 591.15 611.77 590.95 612.58 590.86 612.43 590.58 612.8 590.14 613.45 589.88 613.84 589.82 613.89 589.36 613.36 589.48 613.18 589.34 613.34 588.74 613.63 588.68 614.68 588.08 615.09 588.12 616.16 588.04 616.86 587.76 616.99 587.28 617.22 586.97 617.69 586.66 618.24 586.48 620.91 585.93 621.83 585.71 622.93 585.34 623.54 584.96 623.45 584.3 623.94 583.48 623.62 583.12 623.23 583.02 621.57 583.42 621.74 582.95 622.72 582.33 623.03 581.46 624.71 580.57 624.96 579.88 624.73 579.67 622.65 579.59 621.84 580.23 621.02 580.75 619.02 582.17 618.28 582.56 616.61 583.22 615.17 583.99 614.43 584.57 613.41 585.58 612.23 586.87 611.95 587.08 612.49 587.8 612.27 587.95 611.86 587.87 611.87 587.32 611.49 586.91 609.96 587.01 609.47 587.17 609.44 587.6 608.22 587.27 607.98 586.3 606.87 584.85 606.76 584.43 607.14 584.01 607.22 583.32 607.19 582.57 607.05 582.31 606.52 581.93 606.75 581.72 606.74 580.88 606.35 580.64 605.42 580.56 605.27 580.65 604.07 580.35 603.8 579.75 603.77 578.88 603.38 578.33 601.81 577.34 601.21 576.62 601.19 575.58 600.75 575.48 599.81 575.97 599.04 576.63 599.16 577.27 599.62 577.11 600.11 577.36 600.67 577.09 601.18 577.15 601.37 577.56 601.72 577.86 602.1 578.54 602.65 579.24 603.04 579.46 602.89 579.83 603.04 580.36 602.18 580.97 602.04 581.21 601.67 581.14 600.66 580.36 600.39 580.02 600.03 579.87 599.63 579.44 599.25 579.25 598.97 579.32 598.41 579.01 597.82 579.27 597.23 579.98 597.08 580.42 597.19 580.75 597.93 581.35 598.47 582.08 599.23 582.84 599.88 583.28 600.94 583.81 601.23 583.82 601.43 584.32 601.22 584.99 601.56 586.8 601.46 587.55 600.58 588.65 600.37 589.12 600.6 589.7 601.09 590.16 601.15 590.63 601.68 591.36 601.91 592.28 602.01 592.42 602.09 593.2 601.97 593.42 600.99 593.96 600.76 593.9 600.25 594.29 600.32 594.59 600.01 594.93 599.77 594.85 599.46 595.27 599.51 595.65 598.81 596.31 598.23 597.02 598.28 597.35 597.57 597.56 597.14 597.56 596.72 597.83 596.52 598.18 595.64 598.84 595.53 599.33 594.83 599.66 594.48 600.35 594.52 600.62 594.1 600.91 594.03 601.32 593.36 601.73 593.21 601.69 594.17 600.3 593.93 600.1 594.33 599.62 594.17 599.4 593.05 600.73 592.86 601.09 591.67 601.21 591.02 601.17 591.15 600.59 591.45 600.23 591.7 599.61 591.99 599.31 591.85 598.76 592.1 598.26 592.19 597.74 592.61 597.53 592.79 596.96 593.1 596.41 593.28 595.71 592.94 595.56 592.8 594.92 592.21 594.65 592.07 594.42 592.2 594.01 592.55 593.57 592.58 593.23 592.95 593.19 593.05 592.63 593.46 592.1 593.35 591.74 593.65 591.6 593.91 591.1 593.8 590.7 592.9 591.28 592.81 591.86 592.49 592.02 591.95 592.08 591.52 592.5 591.53 593.18 590.43 594.28 590.88 594.93 591.24 595.23 591.87 595.93 591.65 596.68 590.98 597.19 590.6 597.67 590.2 597.7 590.63 598.2 590.62 598.43 590.22 598.93 590.22 599.5 589.93 600.03 590.07 600.51 589.59 601.06 589.19 600.88 588.85 600.32 588.5 600.17 587.92 600.39 587.94 600.08 586.91 599.34 587.43 599.27 587.86 598.88 587.93 598.63 587.29 598.37 587.39 597.77 587.29 597.42 587.32 596.92 587.79 596.8 588.01 596.41 587.88 595.93 587.9 595.55 587.4 595.51 586.46 596.57 585.54 596.84 583.73 597.61 582.5 598.26 581.36 598.93 580.44 599.69 579.31 600.05 578.81 600.37 578.18 601.05 577.85 600.82 577.45 601.37 577.44 601.59 576.82 602.01 575.5 603.2 574.83 604.03 574.51 604.65 574.7 604.98 575 604.94 575.97 605.28 577.3 605.96 577.23 606.54 577.37 606.97 578.39 606.66 578.59 606.74 578.47 607.25 578.89 607.75 579.86 608.18 580.49 608 580.89 608.03 581.6 607.7 581.94 607.36 581.52 607.08 580.57 607.11 580.07 606.68 580.24 606.53 580.9 606.4 581.19 605.88 581.54 605.84 581.52 605.17 581.8 605.02 582.3 604.5 583.14 604.42 583.9 603.99 584.25 603.96 585.15 603.42 585.6 602.75 585.56 601.98 585.47 601.72 585.96 601.58 586.68 601.97 586.98 601.93 587.26 602.53 586.72 602.93 586.52 603.27 586.26 604.6 586.36 605.21 586.52 605.4 586.51 606.16 586.99 607.01 587.04 607.71 586.55 607.78 585.87 608.01 585.56 608.44 584.75 610.3 584.39 611.67 584.37 612.51 584.16 613.79 583.98 614.34 583.72 614.12 583.92 613.57 584.04 612.83 583.65 612.24 583.96 611.93 583.65 611.78 583.18 612.13 581.1 615.55 580.44 616.02 580.53 616.34 580.35 617.03 579.84 618.16 579.44 618.18 578.77 619.22 578.53 619.47 577.18 622.06 576.78 622.72 576.12 622.87 575.17 622.78 574.81 622.66 574.44 622.23 574.72 622.09 574.87 621.66 574.57 621.23 573.96 620.82 573.55 620.19 573.23 619.26 573 619 572.11 618.68 571.47 618.63 570.51 618.78 569.25 619.17 568.22 619.64 566.65 620.52 566.82 620.12 567.36 619.6 567.86 619.22 567.41 618.53 566.43 618.62 565.59 618.89 565.11 619.13 564.86 619.18 563.34 619.09 562.47 619.5 561.96 619.55 561.41 619.44 560.8 619.47 560.43 619.62 560.08 619.39 560.07 619.39 560.01 619.23 559.84 619 559.74 619.42 559.78 619.5 559.86 619.7 559.87 619.76 559.71 619.92 559.7 619.94 559.31 619.84 559.15 619.57 559.05 619.7 559.01 619.77 559.06 619.91 558.64 620.23 558.22 620.25 558.1 620.15 558.3 619.66 558.13 619.37 558.03 619.31 557.82 619.02 557.66 618.77 557.36 618.78 556.69 619.03 556.67 619.1 556.63 619.25 556.59 619.32 556.4 619.46 556.38 619.47 556.33 619.51 556.28 619.51 556.08 619.57 555.85 620.28 556.21 620.96 556.66 620.9 557.33 621.07 557.79 621.35 557.76 621.71 557.76 621.82 557.9 622.19 558.18 622.44 558.28 622.53 558.53 622.69 558.95 622.85 559.53 622.9 560.18 622.74 560.68 622.27 561.26 622.25 561.67 622.53 562.19 622.71 562.46 622.96 562.89 622.16 563.8 621.88 564.01 621.91 564.41 621.67 564.84 621.96 564.87 622.2 564.01 623.56 564.11 624.84 563.97 625.74 564.28 626.42 564.29 626.44 564.29 626.51 564.29 626.57 564.37 626.68 564.51 626.82 564.97 627.29 565.02 627.42 565.14 628.08 565.19 628.18 565.9 629 565.96 629.05 566.06 629.15 566.15 629.21 566.6 629.52 566.8 629.59 566.94 629.73 567.28 629.96 567.78 630.18 568.15 630.35 569.11 630.75 570.49 631.17 570.85 631.21 571.01 631.24 571.19 631.24 572.4 631.63 572.87 631.78 572.88 631.78 573.2 631.87 573.36 631.96 573.44 632.04 573.52 632.26 573.53 632.27 573.52 632.31 572.89 632.06 572.75 632.14 572.46 632.96 572.02 633.32 570.23 637.71 570.07 638.28 570.15 638.89 570.38 639.22 568.65 640.93 568.35 642.07 568.24 642.28 567.86 643.53 567.26 644.93 567.09 645.65 566.88 647.16 566.92 647.39 566.52 647.87 566.44 648.38 565.86 649.92 565.88 650.46 565.74 651.26 565.83 651.73 565.77 652.26 565.34 653.33 564.9 654.19 564.91 654.34 563.83 657.09 563.76 657.62 563.57 658.02 562.97 658.63 562.56 658.86 561.68 659.2 560.66 659.21 558.63 660.35 557.03 662 556.71 661.78 556.18 661.67 555.5 661.76 554.72 661.37 554.54 661 554.76 660.88 554.97 661.17 555.38 661.16 555.9 660.9 555.97 660.38 556.39 660.08 556.42 659.87 557.23 659.86 557.71 659.44 557.74 659.03 557.35 658.63 557.57 658.22 558.69 657.32 558.59 656.71 558.28 656.48 558.62 655.87 558.45 655.54 558.84 655.06 558.44 654.76 558.31 654 557.89 653.76 557.57 654.35 557.63 655.07 556.88 655.37 556.78 655.75 555.74 656.7 555.36 657.38 555.03 657.6 553.27 658.96 552.63 659.27 552.2 659.62 550.72 661.21 550.35 661.33 549.81 661.1 549.5 660.6 548.94 660.39 549.28 659.65 549.09 659.3 549.04 658.54 547.88 658.55 547.43 658.19 547.37 657.78 546.81 657.05 547.31 656.2 546.78 655.75 546.3 655.65 546.05 654.88 545.45 654.56 544.98 654.51 544.58 654.25 544.2 654.23 543.94 654.5 544.02 654.86 544.42 655.26 544.53 655.81 544.91 656.15 545.01 656.68 545.38 657.42 545.29 657.92 545.83 658.48 545.78 658.9 546.31 659.12 546.34 659.45 547.67 659.94 547.42 660.4 547.5 660.59 547.27 661.1 546.82 661.42 546.01 661.49 545.27 661.74 544.79 662.09 544.08 661.93 543.21 662.53 542.95 662.3 542.26 662.25 542.27 662.66 542.52 662.88 543.06 663.07 543.46 662.94 544.2 662.98 544.71 662.84 544.83 662.58 545.17 662.67 545.91 662.57 546.86 662.25 547.49 662.2 548.17 661.98 548.63 662.37 548.6 663.1 548.66 663.57 548.96 664.19 549.22 664.41 550.12 664.44 551.4 664.33 552.87 664.62 553.98 665.11 554.85 665.29 555.7 665.28 556.31 665.13 556.96 664.83 557.37 664.5 557.57 664.17 558.29 663.82 558.9 663.72 559.67 663.5 559.77 663.34 560.58 662.87 561.5 662.76 562.5 662.87 562.52 663.18 561.76 667.14 561.36 669.89 562.03 670.09 561.83 671.22 561.71 672.92 561.71 673.49 561.56 676.11 562.92 676.4 562.93 676.5 561.58 676.53 561.51 679.4 561.32 682.48 561.49 682.65 561.27 683.02 561.1 684.95 560.79 687.47 560.91 687.7 561.71 687.69 561.74 687.91 560.89 687.89 560.8 687.96 560.68 689.26 560.58 689.95 563.43 690.24 563.45 690.74 560.76 690.54 560.54 690.64 560.39 692.47 561.26 693.43 562.15 693.72 563.37 694.41 563.13 694.75 561.66 694.09 561.25 694.25 560.11 694.14 560.02 695.16 559.24 695.38 559.58 698.11 559.93 700.07 559.98 701.07 559.94 701.58 560.15 702.01 559.98 702.26 560.18 702.56 560.21 703.4 560.47 703.85 560.52 704.24 560.76 704.93 560.75 705.32 561.3 706.89 561.52 707.71 561.4 708.33 561.49 709.44 561.74 710 562.28 710.84 562.34 711.37 562.64 712.06 562.6 712.27 562.93 713.27 563.48 713.46 563.33 713.73 563.13 714.69 563.39 715.86 563.91 716.83 564.07 717.25 564.02 717.82 563.68 718.56 564.15 718.73 565.77 718.59 567.46 722.69 567.98 723.76 568.77 725.73 568.78 726.01 569.12 726.58 569.17 727.22 569.54 727.69 571.01 731.14 571.28 731.7 571.72 731.88 571.99 732.53 572.31 732.8 572.41 733.48 572 733.73 571.33 733.06 570.86 732.79 570.47 732.26 569.88 732.91 569.54 733.06 569.64 733.44 569.87 733.56 570.22 733.33 570.71 733.28 570.97 733.42 571.2 734.22 571.11 734.77 570.67 735.73 570.57 736.49 570.07 736.86 570.43 737.63 570.88 738.39 571.25 738.47 571.51 739.1 571.44 739.81 571 740.65 571.25 741.44 571.53 741.74 571.28 742.3 571.63 743.01 572.17 743.73 572.35 744.33 571.97 744.41 571.89 743.79 571.52 743.56 571.29 743.94 570.68 743.81 570.43 744.26 570.58 744.45 570.99 744.41 571.54 744.81 571.48 745.13 571.86 745.35 572.56 746.25 573.24 746.67 574.69 747.06 576.05 747.14 577.2 747.09 577.74 747.26 578.37 747.77 577.84 748 578.03 749.44 578.86 748.96 579.99 748.18 580.41 748.38 580.79 748.15 580.87 748.44 580.77 749.95 580.88 751.47 581.24 754.83 581.31 755.82 581.2 756.07 580.64 756.37 580.4 756.29 580.52 755.57 580.03 755.58 579.3 755.22 579.21 755.5 578.66 755.72 578.46 756.06 577.96 755.77 577.43 755.73 577.36 755.37 576.48 755.84 575.94 755.74 575.03 756.14 574.8 756.5 574.42 756.5 573.9 756.32 572.88 756.25 572.46 755.74 572.06 756.02 572.36 756.44 572.76 756.58 572.6 756.87 572.88 757.24 572.68 757.47 571.92 757.39 571.66 757.6 571.25 757.33 571.09 757.48 571.08 757.96 570.76 758.11 570.49 757.78 570.06 757.87 569.85 758.15 569.72 758.74 568.92 758.48 569.04 757.95 568.23 757.82 568.06 758.35 567.82 758.64 567.32 758.92 567.03 758.92 566.99 759.33 566.6 759.64 567.15 759.86 567.07 760.49 567.16 760.71 567.62 760.77 567.72 760.97 566.97 761.18 566.69 761.58 567.65 761.59 567.52 762.21 566.94 763.04 567.28 763.46 566.89 763.63 566.75 764.32 566.22 764.36 565.89 764.08 565.68 764.39 565.35 764.53 565.02 764.4 564.95 763.87 564.58 764.01 564.32 763.6 564.46 763.33 564.12 763.05 564.04 763.88 564.18 764.27 563.56 764.34 563.2 764.21 562.64 763.67 562.21 763.8 562.13 763.32 561.85 763 562.09 762.39 561.71 762.13 561.29 762.32 561.42 761.62 561.2 761.22 560.74 761.47 560.48 761.85 560.17 761.53 560.48 761.34 560.38 760.94 559.68 761.55 559.3 761.62 558.67 761.52 558.72 760.42 558.56 760.22 558.11 760.79 557.78 761.03 557.22 761.14 556.99 760.87 556.95 760.21 556.32 759.23 556.53 758.95 556.47 758.69 555.87 758.78 555.54 758.36 555.45 757.68 554.9 757.49 554.63 757.86 554.65 758.22 554.34 758.32 554.07 758.17 554.17 757.77 553.59 757.67 553.3 757.83 553.25 757.39 554.1 757 554.19 756.72 553.97 756.37 553.63 756.4 553.74 756.85 553.31 757.04 553.09 756.21 553.17 755.83 552.52 755.76 552.12 756.07 551.86 756.09 551.32 755.48 551.48 754.73 550.84 754.48 550.49 753.8 549.93 753.9 549.75 753.75 550 753.31 550.41 753.52 550.74 753.47 550.84 753.02 550.67 752.87 550.38 753.28 550.26 752.85 550.03 752.66 549.69 753.06 549.4 752.76 549.02 752.57 548.85 752.16 549.39 752.19 549.56 751.99 549.54 751.62 549.03 751.08 548.74 751.32 548.55 751.9 548.1 751.63 547.63 751.73 547.56 751.01 547.33 750.64 547.09 750.76 547.11 751.21 546.63 751.22 545.87 751.01 546.13 751.47 545.92 751.69 545.64 751.29 545.68 750.92 545.33 750.86 545.19 750.51 544.89 750.61 544.87 751.22 544.3 751.41 544.22 750.88 543.24 750.82 543.23 751.08 543.8 751.15 543.51 751.43 543.03 751.54 543.15 751.1 542.76 750.98 542.51 751.19 542.28 750.89 542 750.91 541.56 751.28 541.36 751.01 541.45 750.22 541.3 749.92 540.98 749.74 540.59 749.9 540.56 750.23 540.94 750.46 540.48 751.03 540.23 750.74 539.53 750.69 539.19 750.26 539.39 749.74 539.68 749.48 539.08 749.33 539 748.9 538.75 748.88 538.37 749.11 538.23 749.44 538.31 749.9 537.99 749.92 538.07 749.33 537.81 749.11 537.35 749.16 537.07 749.65 536.8 749.86 536.62 749.41 536.3 749.33 535.83 749.43 535.07 749.29 535.01 748.8 535.22 748.41 535.03 748.17 534.89 748.3 534.6 749.08 534.17 748.63 533.38 748.4 533.32 748.71 532.98 748.88 532.58 748.8 531.94 749.12 531.19 749.06 530.74 749.12 530.49 748.57 530.19 748.71 530.52 749.18 530.28 749.42 529.65 748.89 529.34 748.77 528.9 748.91 528.24 749.5 527.48 748.9 527.32 748.41 526.94 748.51 526.8 748.89 526.53 748.97 526.1 748.56 525.41 748.86 524.68 748.95 524.47 748.51 524.09 748.63 523.96 748.94 523.9 749.55 523.6 750.27 523.07 750.05 522.13 749.91 521.93 750.03 521.6 750.52 521.18 750.63 520.96 750.24 521.46 750.1 521.61 749.8 521.53 749.27 521.28 748.95 521.22 748.46 521.02 748.2 520.62 748.38 520.84 748.68 520.25 749.01 519.82 748.93 519.31 748.41 517.9 748.81 517.68 748.65 517.83 748.14 517.51 748 517.31 748.27 517.28 748.83 516.78 749.7 516.49 749.57 516.48 749.26 516.18 749.11 515.85 749.41 515.64 749.24 515.91 748.92 515.82 748.68 515.23 748.75 515.07 748.28 514.77 747.9 514.49 748.14 514.55 748.97 514.16 748.67 513.89 748.8 513.71 749.44 513.44 749.39 512.77 748.42 512.34 748.28 512.13 747.94 511.84 747.79 511.27 747.75 510.63 747.91 510.23 748.1 509.93 747.98 509.89 747.62 509.14 747.23 508.8 746.62 508.23 746.21 507.77 746.05 507.5 745.75 507.97 745.58 508.4 745.67 508.7 745.59 508.62 745.11 508.96 744.89 508.89 744.64 508.39 744.99 507.39 744.66 507.07 744.66 506.78 744.87 506.57 745.41 506.82 745.95 506.34 745.83 506.07 745.06 505.44 744.85 505.22 744.62 504.48 743.45 504.51 742.85 504.28 742.47 504.63 741.76 504.51 741.45 504.01 741.34 503.69 741.57 503.61 742.23 503.35 742.47 502.99 741.76 503.01 741.13 502.84 740.96 502.46 741.23 502.56 741.91 502.3 742.06 501.35 742.07 501.1 741.92 500.86 741.44 500.13 740.91 500.16 740.46 499.9 740.2 499.14 740.1 498.74 739.65 498.27 739.35 497.57 739.06 497.5 738.59 497.78 738.22 497.71 737.61 497.39 737.25 496.65 737.37 496.26 737.16 495.77 737.52 495.16 737.57 494.95 737.75 494.91 738.17 494.5 738.06 493.84 738.3 493.4 738.17 493.79 737.48 493.11 737.07 492.79 737.09 492.26 737.43 492.19 736.95 491.67 737.17 490.94 735.82 490.35 735.62 490.09 735.84 490.9 736.2 490.81 736.53 490.15 736.78 490.05 737.12 489.69 737.01 489.66 736.19 489.52 736.03 488.71 736.5 488.4 735.9 488.71 735.47 488.66 735.09 488.22 734.87 487.48 734.88 486.55 735.28 486.24 735.59 486.16 735.09 485.91 734.74 485.34 735.27 485.27 735.83 485.09 736.01 484.69 736.01 483.91 736.43 483.49 736.47 482.97 736.38 482.53 736.07 482.31 735.48 482.41 735.08 482.34 734.7 482.03 734.39 481.06 734.3 479.8 733.89 479.84 733.44 480.2 733.35 480.78 733.48 480.99 733.28 480.87 732.84 480.39 732.62 480.03 732.84 479.81 732.76 479.57 732.2 479.2 731.93 478.67 732 478.33 732.24 477.78 732.15 477.38 731.54 477.75 731.29 478.18 731.63 478.64 731.39 478.53 730.86 478.19 730.78 477.9 730.39 477.81 729.7 477.35 729.63 476.85 729.96 476.16 730.02 475.32 729.68 475.31 729.1 474.8 728.33 474.68 727.54 474.09 726.87 473.6 727.08 473.25 726.76 472.81 726.9 472.45 727.3 471.89 727.62 471.6 727.6 471.31 727.28 470.59 727.11 469.88 727.41 468.24 727.9 468.07 727.43 468.16 727.06 467.89 726.66 467.43 726.68 467.13 726.56 466.7 726.13 466.61 725.88 466.62 725.29 466.42 725.06 465.92 725.54 465.84 725.89 465.93 726.27 465.81 726.69 465.13 726.8 464.55 726.28 464.68 725.85 464.73 725.25 464.64 725.06 464.17 724.77 463.38 724.57 463.06 724.66 462.65 725.11 462.29 725.24 461.48 725.09 461.13 725.19 460.87 725.06 460.64 724.54 460.31 724.07 459.68 723.71 459.33 723.65 458.8 723.93 458.21 724.54 457.72 724.81 456.44 724.85 456.24 724.7 455.97 724.04 455.53 723.73 454.93 722.95 454.6 722.73 454.48 722.08 454.84 721.92 455.15 721.56 455.37 720.2 455.72 719.74 455.84 719.05 455.61 718.78 455.02 717.44 454.56 716.94 454.11 716.24 453.52 715.64 452.47 715.44 451.06 714.87 450.74 714.31 450.77 713.93 451.03 713.21 450.37 708.84 448.95 706.27 448.36 703.59 448.44 701.39 446.46 699.87 446.32 696.84 445.07 694.88 444.68 692.91 443.93 691.85 442.99 691.31 442.03 691.34 441.61 691.28 440.84 690.27 441.31 688.35 441.13 687.7 440.33 687.2 439.41 687.03 438.81 686.75 438.43 686.74 437.66 686.35 437.08 685.65 436.79 684.74 436.8 684.25 437.8 683.54 437.73 683.1 437.16 682.93 436.13 681.84 435.83 680.98 435.39 680.43 434.96 680.53 434.48 680.87 434.14 680.79 433.64 680.34 433.44 679.97 433.57 679.41 433.56 678.9 433.15 677.67 433.07 677.16 433.19 676.83 434.21 676.05 434.56 675.16 434.49 674.88 433.99 674.44 433.76 674.1 433.81 673.79 434.31 673.14 434.49 672.71 434.45 671.84 434.01 671.31 433.92 670.85 434.58 670.23 434.79 668.94 434.38 667.1 434.37 666.58 433.83 666.1 433.62 665.71 433.87 664.76 433.87 663.82 433.19 662.81 432.68 662.53 432.34 662.52 431.37 663.08 431.06 663.09 430.64 662.78 430.38 662.24 430.52 661.79 430.95 661.03 430.95 660.58 430.53 659.97 430.06 659.78 429.45 659.92 428.68 659.91 428.3 659.77 427.87 659.3 427.79 658.94 428.2 658.5 428.85 658.44 429.73 657.7 429.93 657.37 429.72 656.75 429.72 656.39 429.99 655.61 430.29 655 430.74 654.48 430.73 653.61 430.93 653.13 431.05 652.21 430.55 650.32 430.6 649.42 431.08 648.77 431.37 648.15 431.43 647.66 431.62 647.5 431.5 646.8 431.22 646.46 430.52 645.96 429.47 645.99 429.07 646.17 428.52 646.02 428.72 645.21 428.77 644.21 428.93 643.47 428.96 642.81 429.16 642.16 429.47 641.9 429.66 641.36 429.33 640.79 428.47 640.24 428.08 639.41 428.05 639.08 427.73 638.38 426.91 637.78 426.5 638.26 425.31 638.63 425 638.51 425.5 637.98 425.43 637.39 425.02 637.22 424.55 636.74 424.45 636.03 423.85 635.78 423.08 636.07 422.71 635.64 422.5 635.64 422.35 636.02 422.59 636.29 422.32 636.63 421.59 636.84 420.89 636.56 420.62 636.62 419.88 636.17 419.92 635.86 420.39 635.32 420.32 634.99 420.01 634.63 419.55 634.43 419.07 634.52 418.6 634.34 418.3 633.82 417.93 634.26 417.78 634.76 417.44 634.79 417.01 634.54 416.38 633.98 416.25 633.46 415.33 632.04 414.13 630.67 413.88 629.93 413.32 629.24 413.05 629.14 412.39 629.36 411.99 629.23 411.36 628.53 411.13 627.32 410.86 626.56 410.67 626.22 410.29 626.08 410.06 626.75 409.84 626.9 409.26 627 408.77 626.56 408.67 625.86 408.29 624.77 407.08 624.71 406.66 624.47 406.58 624.27 406.86 623.4 406.61 622.33 406.74 621.62 406.42 620.79 405.64 620.3 405.15 619.73 404.98 618.94 405.19 618.29 405.65 617.69 405.7 617.24 405.29 616.32 404.19 615.89 403.66 615.2 403.79 614.92 403.64 614.61 403.24 614.5 402.97 614.26 402.9 613.3 403.31 612.33 403.35 611.39 402.19 611.21 401.4 611.18 400.48 610.74 399.7 610.49 399.26 609.81 399.05 609.19 398.61 608.48 398.28 607.29 398.04 605.52 397.93 605.22 397.32 604.74 396.23 604.3 395.79 603.89 395.56 603.21 395.65 602.72 395.45 602.28 394.88 601.78 394.28 600.74 393.94 599.64 393.51 599.33 392.39 598.96 391.67 598.78 390.33 597.87 389.31 597.9 388.61 597.6 388.24 597.03 387.53 596.57 386.86 596.24 386.13 596.22 385.88 595.77 385.81 594.79 385.57 593.61 385.2 593.01 384.66 592.94 383.78 593.07 383.05 592.61 382.86 592.29 382.45 591.89 381.83 591.01 381.49 590.43 381.1 590.22 380.85 589.86 380.8 589.44 381.25 588.25 381.36 587.69 381.2 587.12 380.26 585.88 379.94 585.56 379.63 585.04 379.45 584.22 379.26 583.88 378.55 582.92 377.93 582.23 377.47 580.96 377.95 580.18 378.35 579.01 378.26 578.1 378.03 577.63 377.46 576.93 377.05 576.61 376.43 575.81 376.4 575.51 376.8 575.28 377.4 575.26 377.91 575.02 378.36 574.63 378.59 574.2 378.52 574.03 377.77 573.76 377.19 573.68 376.81 573.42 375.26 572.99 374.83 572.08 374.15 571.42 373.87 570.75 373.77 570.27 374.69 568.6 374.73 568.26 374.51 567.79 373.96 567.63 372.55 566.98 372.45 566.39 371.74 566.25 371.59 566.11 371.52 565.62 371.73 563.92 371.45 563.74 370.68 563.85 369.94 563.43 369.67 562.9 369.02 562.63 368.47 562.51 368.25 561.93 367.76 560.23 367.66 559.22 368.01 558.43 367.95 558.12 368.03 557.34 367.99 556.73 367.57 556.62 367.51 555.88 367.13 555.5 366.78 555.6 366.39 555.38 366.62 554.58 366.23 554.07 366.21 553.59 366.5 553.11 366.45 552.53 366.31 552.06 365.91 551.86 365.71 551.56 365.72 551.04 365.61 550.62 365.25 550.44 364.65 550.37 364.16 550.56 363.9 550.38 363.78 549.85 364.03 549.06 363.58 548.44 362.93 547.92 362.98 547.29 362.54 547.15 362.48 546.77 362.96 546.5 362.87 546.04 362.41 546.25 362.16 546.1 362.37 545.28 362.26 545.12 361.57 545.16 361.29 544.65 360.96 544.57 360.72 544.98 360.45 545.04 359.99 544.07 360.38 544.09 360.56 543.59 360.03 543.27 359.74 542.56 359.31 542.23 359.3 541.88 359.54 541.28 359.36 540.81 359.6 540.46 359.49 539.72 359.67 539.08 359.49 538.36 359.52 538.09 359.22 537.01 359.08 536.88 358.84 535.86 358.68 534.68 358.74 533.96 358.67 532.82 358.28 531.54 358.01 530.91 357.45 530.2 356.96 529.86 355.87 529.52 354.79 528.83 354.16 528.1 354.2 527.51 353.66 527.02 353.01 526.87 352.63 526.61 352.58 526.24 352.03 525.97 351.83 525.62 352.47 524.74 352.42 524.07 352.28 523.81 351.85 523.66 351.97 523.03 351.52 522.15 351.22 521.69 350.95 521.86 350.68 521.72 350.61 521.16 350.77 520.69 350.44 520.22 349.88 519.9 349.47 519.85 349.64 519.25 349.3 519.12 349 519.27 348.35 519.28 348.04 519.14 347.37 518.49 346.98 518.23 346.46 518.19 345.63 517.83 345.51 517.44 345.4 516.48 345.13 515.9 344.52 515.8 343.9 515.47 343.8 515.23 343.29 515.05 343.2 514.7 342.56 514.48 341.82 514.03 341.72 513.52 341.21 512.98 340.37 512.98 339.91 512.69 339.84 512.46 338.45 511.8 337.92 511.68 337.56 511.43 337.3 511.01 337.38 510.64 336.96 509.71 336.73 509.6 335.97 508.7 335.85 508.37 335.74 507.5 335.59 507 335.15 506.65 334.76 506.21 334.59 504.93 333.54 504.51 332.93 504.12 331.91 504.02 331.18 504.15 330.28 503.42 329.81 503.75 329.38 503.76 328.92 503.48 328.3 502.55 327.96 501.79 327.74 501.54 327.62 500.78 327.26 500.71 326.46 500.34 324.31 500.14 323.82 499.95 322.6 500.24 322.24 499.55 322.24 499.06 322.63 498.18 323.09 497.47 323.54 497.09 323.1 495.23 322.91 494.29 323.25 493.28 323.07 492.87 322.35 492.39 321.92 492.41 321.3 493.16 321.18 493.46 321.35 494.04 321.3 495.19 320.82 495.81 320.45 496.54 320.1 496.43 319.56 496.06 319.19 495.52 319.11 494.52 319.16 493.73 319.3 493.29 319.92 492.04 320.02 491.61 319.82 490.78 319.62 490.53 319.18 490.28 317.09 490 316.93 490.11 316.49 490.91 316.12 490.66 316 489.64 315.56 488.68 315.67 487.76 315.46 487.14 314.68 486.72 314.15 486.24 314.06 486.03 314.21 485.31 314.18 484.82 313.96 484.52 313.39 484.27 313.05 483.9 313.13 483.48 314.04 482.96 314.14 482.44 313.92 482.17 313.57 482.15 312.97 482.52 311.83 483.44 311.33 483.62 310.91 483.36 310.65 482.03 310.84 481.26 310.64 480.88 310.29 480.74 309.21 481.12 308.75 481.76 307.66 482.46 306.77 482.41 305.89 482.79 305.42 482.6 305.54 480.85 305.74 480.22 305.69 479.8 305.36 479.11 305.02 479.11 304.69 479.56 303.73 479.92 303.37 480.51 303.39 481.74 303.1 482 302.01 481.78 301.75 481.63 301.27 481.6 300.56 481.88 300.06 481.78 299.79 481.94 299.47 482.64 298.78 482.93 298.39 482.57 298.26 482.12 297.8 481.7 297.22 481.9 296.98 482.4 296.6 482.41 296.35 481.9 296.1 481.65 295.5 482.05 294.9 482.29 294.71 482.21 294.26 481.27 294.01 481.22 293.47 481.56 293.05 481.39 292.93 481.05 292.13 481.07 291.52 480.69 291.1 480.34 290.44 480.17 290.2 480.26 290.02 480.87 289.24 480.85 288.83 480.7 288.52 480.32 288.53 479.74 288.94 479.43 289.13 479.14 288.36 478.56 287.81 478.76 287.86 479.31 288.16 479.97 287.85 480.24 287.54 480.15 286.93 479.71 286.43 479.09 286.32 478.82 285.94 478.75 285.17 479.43 284.66 479.67 284.2 479.69 283.59 479.36 282.66 479.27 282.2 479.46 281.57 480.28 281.29 480.38 281.05 480.19 281.05 479.34 280.78 479.07 280.2 479.03 279.7 479.42 279.35 479.22 279.1 478.64 278.98 478.11 278.67 477.94 278.13 477.96 278.08 478.61 277.92 479.08 277.49 479.15 277.29 478.64 277.12 478.54 276.03 479.13 275.47 478.71 275.22 478.79 274.74 478.63 274.4 478.97 274.54 479.46 274.06 479.61 273.88 479.89 272.36 479.77 272.14 479.37 271.71 479.17 270.97 479.4 270.63 479.23 269.76 479.29 269.68 478.7 269.32 478.57 268.92 478.82 268.14 478.49 267.73 477.96 267.09 477.62 266.98 477.27 266.63 476.79 265.97 476.79 265.8 476.41 265.99 476.01 265.8 475.34 265.39 475.12 265.15 475.35 265.04 475.86 264.62 475.9 264.06 475.4 263.19 475.63 262.77 475.1 262.12 475.09 261.88 474.9 262.03 474.32 261.9 473.96 261.64 473.96 261.53 474.48 261.36 474.69 260.89 474.65 260.73 474.35 260.9 473.89 260.47 473.59 259.97 473.93 259.56 473.8 259.36 473.32 258.85 473.15 258.47 472.82 257.85 472.84 257.65 472.65 257.32 472.67 257.05 473.06 257.1 473.51 256.96 473.82 256.57 473.82 256.45 473.42 256.03 473.32 255.78 473.65 255.47 473.77 255.37 474.3 255.19 474.54 254.8 474.66 254.48 475.04 254.58 475.84 254.11 476.76 253.78 477.72 253.57 478.17 253.55 478.88 252.74 479.43 253.02 480.18 252.69 480.83 252.41 480.32 252.16 480.29 251.8 480.58 251.47 480.6 251.35 480.35 250.76 480.25 250.03 479.69 249.67 479.93 249.35 479.66 249.01 479.63 248.5 479.78 248.23 479.26 248.01 479.13 247.57 479.65 247.14 479.64 247.09 479.26 246.73 478.87 246.08 479.19 245.01 478.97 244.72 479.23 245.25 479.77 245.06 480.28 244.63 480.61 243.73 481.01 243.21 481.54 242.84 481.71 242.44 481.37 242.44 480.89 241.98 480.01 241.77 479.76 241.32 479.98 241.39 480.79 240.96 480.87 240.36 481.27 239.83 481.09 239 481.33 238.84 481.3 238.21 482.09 237.73 482.24 236.77 482.23 235.81 482.04 235.44 481.77 235.36 481.31 234.83 481.62 234.53 482.54 233.9 483.01 233.99 484.18 233.5 484.59 233.38 484.83 233.29 485.54 233.64 486.17 233.39 486.53 232.97 486.53 232.66 486.86 232.43 487.39 231.75 487.9 231.59 488.38 231.29 488.65 230.87 488.55 230.49 489.23 230.66 489.65 230.64 490.85 230.45 491.34 230.54 491.58 230.25 491.95 229.18 491.55 228.75 491.81 229.1 492.9 228.74 493.44 228.35 493.33 228.36 493.8 228.08 494.18 228.09 494.63 228.44 495.08 228.1 495.18 227.87 495.49 227.28 495.38 227.12 495.51 227.08 496.17 226.7 496.57 226.04 496.93 226.17 497.32 226.07 498.17 226.25 498.44 226.05 498.87 226.44 499.43 226.26 499.58 225.7 499.59 225.49 500.12 225.57 500.45 225.09 500.87 224.81 501.38 225.08 501.97 224.44 502.35 224.31 503.18 224.61 504.24 224.2 504.7 224.61 504.97 224.65 505.2 225.39 505.36 225.21 505.73 224.63 505.71 224.13 506.37 224.01 507 223.64 507.05 223.34 507.32 223.31 507.95 223.64 508.19 223.29 508.45 222.32 508.85 221.62 508.78 221.28 508.57 220.83 509.08 221.08 509.69 220.55 511.11 220.52 511.64 220.18 511.78 220.34 512.26 220.42 512.97 220.22 513.33 219.51 513.81 219.45 514.1 219.67 514.58 219.2 515.09 219.38 515.67 219.79 515.68 220.31 516.3 220.73 516.29 221.33 516.65 221.27 517.33 221.57 517.63 221.45 517.97 220.86 518.39 220.82 518.53 219.82 518.91 219.48 518.84 219.3 518.5 218.9 518.08 218.46 518.35 218.64 519 218.49 519.47 218.22 519.59 218.26 520.12 217.89 519.92 217.35 519.82 217.02 520.16 216.81 519.99 216.55 520.18 216.56 520.46 216.17 520.97 215.55 520.8 214.81 520.34 214.47 520.27 214.06 520.46 213.76 520.45 213.23 520.98 213.31 522.05 212.88 522.78 212.51 522.9 212.45 523.66 212 523.95 212.21 524.28 212.1 524.54 211.7 524.47 211.21 525.14 210.61 525.34 210.89 525.77 210.81 526.13 210.42 526.46 210.07 526.56 209.47 526.16 208.84 526.79 208.56 526.63 208.09 526.77 207.84 527.07 208.04 527.58 207.99 527.87 207.32 528.47 207.42 529.06 207.38 529.41 207.1 529.39 207.02 528.62 206.47 528.91 206.47 529.5 206.21 529.91 206.04 530.46 206.21 530.86 206.55 531.27 206.28 531.9 205.88 532.17 205.33 532.96 205.23 533.3 205.42 533.96 205.1 534.29 204.6 534.38 204.03 534.27 203.5 534.65 203.04 534.82 202.95 534.99 202.47 534.88 201.84 534.37 201.6 534.56 201.14 534.18 200.58 534.07 199.89 533.81 199.15 533.74 198.68 533.96 198.31 533.41 197.67 534.09 196.92 534.16 196.78 533.78 195.96 533.03 195.75 533.14 195.58 533.75 195.05 534.32 194.55 534.18 194.84 533.89 194.95 533.56 194.7 532.65 194.11 532.18 193.7 532.05 193.33 532.36 192.95 532.03 192.9 531.71 193.18 531.6 193.49 530.97 192.97 530.77 192.59 531.21 192.29 531.39 191.94 531.38 191.5 531.11 191.55 530.57 192.15 530.39 192.26 529.78 192.06 529.47 191.18 529.29 190.89 529.87 190.76 530.45 190.54 530.89 190.13 531.14 189.3 530.74 188.73 530.65 188.5 530.84 188.46 530.03 187.54 530.05 187.4 529.51 186.75 529.6 186.54 529.28 186 529.25 185.95 528.85 185.67 528.54 185.62 528.15 185.27 528.13 184.69 527.54 184.71 527.03 183.97 527.01 184.11 527.28 183.43 527.43 183.23 527.07 183.5 526.44 183.51 526.07 183.16 525.91 183.18 525.65 182.64 525.38 182.07 524.36 181.74 524.27 181.68 523.76 181.32 523.76 181.06 523.44 180.27 523.36 180.36 522.33 180.02 522.04 179.2 521.56 178.83 521.79 178.55 521.44 178.74 520.97 178.37 520.8 177.79 520.9 177.54 520.8 176.98 521.15 176.09 521.09 175.85 520.96 175.61 520.53 175.27 520.34 175.01 519.94 174.55 520.08 173.89 520.08 173.53 520.37 173.11 520.17 172.64 520.45 172.15 519.54 171.68 519.41 171.42 519.18 170.85 519.16 170.24 518.79 169.5 518.79 169.24 518.31 168.65 518.25 168.29 518.47 167.94 517.67 167.21 516.93 166.96 516.48 166.94 515.53 166.54 515.68 166.06 515.59 166.22 515.02 165.99 514.69 165.74 514.73 165.39 515.06 165.2 515.63 164.85 515.57 164.54 514.99 164.69 513.87 164.96 513.91 165.05 513.59 164.58 512.33 164.27 512.31 163.8 512.69 163.55 512.76 163.21 512.59 163 512.18 163.11 511.93 162.76 511.63 161.94 511.92 161.3 511.55 161.27 511.25 160.08 510.93 159.67 511.09 159.06 510.76 158.37 510.64 158.08 511.02 157.5 510.42 157.28 510.39 156.65 510.62 156.23 510.5 156.23 510.1 155.84 509.82 155.08 509.89 153.22 509.28 152.95 509.55 152.26 509.28 151.7 508.9 151.21 508.8 150.27 508.26 150.04 508.26 148.93 507.62 148.88 507.51 147.89 506.8 147.92 506.35 147.25 506.05 146.92 505.68 146.28 505.63 145.77 505.07 145.79 504.63 145.37 504.43 145.21 504.06 144.86 503.61 143.96 503.71 143.87 503.06 143.59 503.19 143.16 502.75 142.71 503.15 142.7 502.6 142.3 502.63 141.85 502.19 141.58 502.27 141.13 501.76 141.38 501.47 140.98 501.24 141.11 500.96 140.47 500.71 140.25 500.22 140.47 499.64 140.15 499.46 139.75 498.94 139.77 498.65 139.46 498.37 138.67 497.85 138.27 497.25 138.57 497 138.64 496.56 138.93 495.65 138.52 495.35 137.53 495.64 137.32 494.43 137.06 494.37 136.65 493.95 136.21 493.66 135.77 493.56 135.78 493.15 135.37 493.13 135.14 492.91 133.92 492.61 133.64 492.27 132.87 492.28 132.63 491.66 132.18 491.79 132.09 492.35 131.59 492.25 131.32 492.47 131.06 492.41 129.91 491.48 129.05 490.61 128.62 490.72 127.7 489.67 127.76 489.46 127.58 488.62 126.87 488.04 124.3 486.08 124.01 485.68 123.64 485.59 123.43 485.31 123.54 484.99 123.04 484.95 122.86 484.23 122.41 484.25 122.21 483.81 121.79 483.8 121.62 483.37 121.05 483.54 120.69 483.49 120.76 482.83 120.45 482.76 120.54 482.41 120.03 481.72 120.01 481.26 119.64 481.06 119.21 480.46 118.93 480.27 119.17 480.02 119.59 479.99 119.81 479.59 119.01 479.19 118.9 478.95 119.08 478.67 118.93 478.3 119.03 477.82 118.61 477.26 118.79 476.71 118.44 476.67 118.26 476.18 118.79 476.2 118.82 476.02 118.22 475.52 117.71 475.2 117.68 474.87 117.97 474.49 117.96 473.96 117.69 473.26 117.2 472.92 117.26 472.59 117.02 472.23 116.61 471.96 116.82 471.6 116.66 471.24 116.29 471.26 116 470.52 115.42 470.21 115.56 469.6 114.88 469.42 115.46 469.02 115.54 468.78 115.17 468.28 114.77 468.57 114.78 467.94 114.32 467.7 114.36 466.94 114.19 466.5 113.78 466.26 113.44 465.88 113.43 465.55 112.72 464.89 112.73 464.23 112.05 463.44 111.81 463.49 111.53 462.75 111.59 462 111.41 461.71 111.7 461.5 111.58 461.01 111.99 460.67 112.06 460.24 111.71 460.29 111.45 459.97 111.71 458.77 111.23 458.98 111 458.81 111.25 458.53 111.46 457.82 111.3 457.57 111.32 456.98 111.06 456.68 111.3 456.38 111.3 456.02 111.05 455.72 110.57 455.57 110.47 455.36 110.73 454.68 111.03 454.45 110.4 453.46 110.73 452.8 110.66 452.5 111.04 452.46 111.28 452.22 111.54 451.56 111.83 451.31 111.64 450.75 111.9 450.52 111.5 450.29 111.38 449.87 111.96 449.3 111.61 449.21 111.66 448.75 111.41 448.19 111.4 447.53 112.04 447.1 111.85 446.5 112.07 445.68 112.03 445.33 112.18 444.46 111.83 443.68 111.59 443.5 111.44 442.5 111.18 442.26 111.34 441.96 110.87 441.26 111.07 441.01 111.23 440.39 110.8 440.16 110.18 439.04 109.57 438.39 109.19 438.51 108.65 438.37 108.54 438.19 108.81 437.53 108.06 437.6 108.02 437.24 108.23 436.84 108.1 435.54 107.77 435.14 107.37 435.34 107.19 434.81 106.84 434.36 106.64 434.33 106.35 433.9 106.35 433.66 106.01 433.29 105.14 433 105.28 432.46 104.93 432.26 104.56 431.83 105.07 431.58 105.13 431.11 104.83 430.36 104.95 430 104.31 430.15 103.73 430.06 103.25 429.65 103.11 429.32 102.77 429.19 102.46 428.78 102.81 428.1 102.69 427.46 103.07 427.18 103.15 426.77 102.75 426.57 102.48 426.19 102.69 425.9 102.74 425.49 102.19 425 102.39 424.56 102.11 423.92 102.36 423.52 102.35 423.16 102.09 422.35 102.36 422.09 102.46 421.53 102.02 421.31 102.2 420.22 101.89 420.17 101.66 419.4 101.74 418.84 101.26 418.45 101.17 418.01 101.39 417.81 101.08 417.15 100.79 417.02 100.95 416.48 100.66 415.77 100.34 415.39 100.31 415.01 100.02 414.73 99.65 414.75 99.51 414.43 99.68 414.11 99.53 413.55 99.25 413.33 99.02 413.74 98.51 413.39 97.77 413.31 97.53 412.93 97.23 412.81 96.76 412.97 96.51 412.81 96.03 411.92 96.11 411.57 95.87 411.01 95.91 410.45 95.84 409.9 95.84 409.01 95.45 408.83 94.97 408.27 94.96 407.67 94.65 407.26 94.11 407.48 93.35 407.64 93.14 407.56 92.68 406.98 92.22 407.02 92.37 407.35 91.7 407.37 91.62 406.96 91.28 407.05 91.32 406.19 91.01 405.96 90.54 405.91 89.9 404.98 89.66 404.76 89.22 404.78 89.15 404.38 88.81 404.24 88.94 403.84 88.47 403.56 88.61 403.07 88.4 402.63 88.19 402.83 87.77 402.36 86.74 402.04 86.6 401.86 86.05 402.08 85.49 401.91 85.77 401.37 85.91 400.79 85.51 400.69 85.17 400.29 84.8 400.86 84.65 400.82 84.35 400.22 84.17 400.1 84.15 399.61 83.86 399.5 83.59 399.04 83.28 399.36 83.06 399.31 82.58 399.71 82.16 399.44 82.09 399.18 82.3 398.87 82.53 398.9 82.76 398.57 82.31 397.98 81.66 398.41 81.55 398.08 81.08 398.06 80.3 398.33 79.8 398.62 79.37 398.03 79.22 397.54 78.78 397.67 78.58 397.04 78.42 396.86 78.04 396.81 77.99 396.36 77.44 396.26 77.31 396.7 76.92 397.34 76.59 397.05 76.17 397.14 76.36 396.68 76.21 396.23 75.68 395.74 75.13 395.54 75.03 395.05 74.64 395.01 74.25 395.34 74.19 394.9 73.79 394.55 73.69 394.24 73.33 394.42 72.79 394.31 72.18 393.93 71.63 394.2 71.29 393.81 71.7 393.49 71.83 392.96 71.77 392.66 71.92 392.32 71.46 392.22 71.58 391.42 71.35 391.15 71.04 391.31 70.83 390.98 70.75 390.56 70.09 390.42 69.86 390.14 69.07 389.77 68.83 389.01 68.56 389.24 68.37 389 68.56 388.62 67.6 388.51 67.42 387.91 67.12 387.88 67 387.56 66.42 387.16 66.1 386.7 65.79 386.59 66.11 386.11 65.8 385.53 65.58 385.35 64.96 385.43 64.47 384.65 64.18 384.51 63.91 384.08 63.33 384.02 62.46 383.63 62.06 383 61.72 382.23 61.82 381.73 61.66 381.46 61.26 381.29 61.12 380.85 61.27 380.17 61.04 378.71 60.4 378.01 60.31 377.43 59.87 376.62 58.66 375.59 57.89 375.6 57.73 375.46 57.55 374.42 57.43 374.27 56.28 373.7 55.62 373.43 53.87 372.59 53.45 372.24 53.27 371.6 52.04 370.46 51.77 370.36 50.7 370.38 50.34 370.3 50.07 370.03 49.97 369.44 49.78 369.04 49.81 368.31 49.64 367.89 48.99 367.54 47.64 365.43 46.75 364.28 45.89 362.85 45.75 362.37 45.44 362.01 44.87 361.09 44.34 360.86 43.59 360.91 43.24 360.73 42.88 359.68 42.58 359.23 41.76 359.23 41.12 359.08 40.8 358.65 40.35 357.19 40.52 356.19 40.11 355.37 39.18 355.22 37.29 353.27 37.01 353.13 32.93 352.5 32.32 352.18 31.29 350.88 30.78 350.5 29.86 350.4 29.54 350.28 28.29 349.45 28 349.18 27.27 348.14 26.81 347.82 25.67 347.36 25.05 346.75 24.56 345.91 24.4 344.7 24.26 344.38 23.75 343.72 23.63 343.42 23.31 341.75 23.14 341.4 22.81 341.08 21.28 339.96 20.92 338.13 20.57 337.11 20.3 336.48 20.2 335.56 19.97 335.03 19.05 333.45 18.54 332.47 17.84 330.17 17.69 329.95 16.64 329.01 16.44 328.7 16.25 327.73 16.09 327.44 13.97 325.87 12.92 325.56 12.14 324.91 11.79 324.84 10.94 325.19 10.64 325.7 9.9 325.86 9.59 325.77 8.7 324.86 8.45 324.79 8.35 324.26 7.7 323.67 7.47 323.1 7.54 322.65 7.22 322.45 7.08 322.03 6.63 321.66 6.45 321.36 5.52 321.02 5.32 320.83 5.04 321.03 4.65 321 4.06 320.12 3.73 319.9 3.18 319.85 3.05 319.64 3.35 318.82 3.36 318.48 3 318.3 2.56 318.26 1.97 317.53 1.85 317.17 1.41 316.77 1.44 316.4 1.91 315.57 1.71 315.21 1 314.7 1.01 314.43 1.32 314.03 1.8 313.69 2.29 313.55 2.73 313.2 3.1 313.05 2.43 312.64 2.4 312.31 2.63 311.88 2.58 311.22 3.11 311.01 3.2 310.52 2.68 310.7 2.55 310.57 2.63 310.12 3 309.72 2.76 309.28 2.34 309.37 1.88 308.93 1.82 308.68 2.02 308.34 2.36 308.06 2.84 308 3.11 307.75 3.2 307.35 4.15 307.41 9.32 307.8 13.73 308.11 23.74 308.82 34.5 309.54 40.25 309.98 47.69 310.53 53.53 310.97 64.1 311.72 72.3 312.3 77.31 312.64 86.07 313.24 91.95 313.62 95.92 313.85 100.61 314.15 110.07 314.73 111.07 314.82 114.62 315.21 115.67 315.25 115.7 315.06 117.09 315.15 122.4 315.46 125.89 315.67 134.92 316.2 143.68 316.69 150.62 317.08 155.43 317.34 166.36 317.9 175.93 318.38 182.45 318.7 189.51 319.04 199.01 319.49 208.67 319.92 209.85 319.98 217.8 320.33 218.07 314.18 218.32 308.55 218.49 304.25 218.82 296.62 219.33 284.89 219.62 278.21 219.89 271.94 220.03 268.8 220.5 257.99 220.87 249.56 221.35 241.65 221.72 235.59 222.12 229.23 222.69 219.84 222.77 218.58 223.2 211.46 223.33 209.54 223.53 205.85 223.79 201.79 224.15 195.68 224.71 186.53 225.21 178.29 225.55 170.23 225.94 161.35 226.36 151.85 226.77 142.62 227.13 134.68 227.23 132.3 227.54 125.52 227.67 122.85 227.67 122.34 228.07 113.69 228.35 107.13 228.68 99.69 229.09 90.4 229.37 84.17 229.75 75.71 230.16 66.42 230.54 58.19 230.97 48.7 231.32 40.82 231.59 34.36 231.77 30.44 232.21 19.94 232.46 14.11 232.45 13.95 232.78 6.15 233 1 235.26 1.09 242.54 1.41 245.66 1.51 249.72 1.7 256.89 1.99 264.07 2.26 271.25 2.52 271.76 2.55 280.14 2.86 285.6 3.05 285.8 3.03 290.95 3.21 290.99 3.24 296.73 3.44 302 3.61 302.33 3.66 307.52 3.8 310.11 3.9 321.71 4.25 328.67 4.45 328.78 4.44 338.13 4.69 343.03 4.81 344.55 4.88 347.14 4.92 351.54 5.02 351.56 4.99 358.83 5.16 359.09 5.18 367.07 5.37 378.12 5.61 379.58 5.62 388.47 5.79 390.86 5.8 397.27 5.92 397.91 5.91 407.46 6.06 407.66 6.07 407.52 15.5 407.41 23.11 407.28 32.3 407.2 38.32 407.1 44.77 406.96 54.91 406.85 62.35 406.77 68.28 406.66 75.81 406.69 77.14 406.61 82.69 406.56 82.68 406.51 86.8 406.34 98.16 406.23 106.35 406.06 117.91 405.99 123.12 405.86 131.9 405.7 143.29 405.7 143.92 406.12 144 407.42 143.8 408.22 143.09 408.44 142.68 408.98 142.64 410.24 142.99 410.32 143.29 411 143.88 412.24 144.73 412.69 145.32 412.94 145.5 413.19 146.07 413.62 146.69 414.3 147.51 415.41 148.25 415.88 148.51 416.13 148.51 416.42 149.09 416.31 149.46 416.57 150.08 417.21 150.81 417.74 151.65 418.19 151.86 418.32 152.29 418.79 152.35 419.38 152.84 419.28 153.34 419.72 153.61 420.08 154.03 420.81 154.47 421.63 154.78 421.99 155.07 422.35 155.57 422.33 155.93 422.81 156.54 423.13 156.6 423.52 157.1 424.47 157 425.31 157.44 425.98 157.18 426.25 156.84 427.17 157.15 427.65 157.47 428.74 157.27 429.08 157.41 429.5 156.87 429.89 156.53 430 156.25 429.96 155.75 430.02 155.04 430.3 154.42 430.9 154.32 431.34 154.41 432.02 154.72 432.55 154.71 433.24 154.84 433.96 154.63 434.54 154.96 434.97 154.98 435.76 155.83 436.62 156 436.96 155.98 437.19 156.32 437.27 157.07 437.54 157.09 437.6 156.68 437.83 156.63 438.29 157.37 438.6 157.75 439.03 157.76 439.08 157.15 439.24 156.77 439.47 156.73 439.64 157.11 440.09 157.35 440.43 157.67 440.93 157.44 441.09 156.97 441.06 156.25 441.36 155.34 441.63 154.96 441.07 154.5 441.05 154.03 441.3 153.5 441.12 153.24 441.18 152.74 441.54 152.4 441.97 151.75 442.35 151.56 443.32 151.78 443.56 152.07 443.43 152.76 444.41 153.62 444.77 153.8 445.08 154.17 445.34 154.73 445.68 155.17 446.22 155.08 447.08 154.68 447.48 154.78 447.77 155.25 447.75 155.57 448.22 155.78 448.69 155.41 449.04 155.54 449.02 156.18 449.18 156.35 448.85 156.63 448.34 156.65 448.26 156.9 448.53 157.15 449.15 157.42 449.42 157.75 449.76 157.5 450.11 157.74 449.8 158.11 450.01 158.37 450.42 158.16 450.48 158.74 450.61 159.11 450.98 159.39 450.6 160.03 451.02 160.22 451.61 159.96 452.21 160.2 451.99 160.26 452.05 161.14 452.26 161.45 451.96 161.89 451.83 162.31 452.03 163.07 451.92 163.46 452.13 164.06 452.85 164.25 452.91 164.92 452.64 165.72 453.01 165.77 453.05 166.07 452.8 166.51 452.76 166.87 453.1 167.72 453.16 168.09 452.99 168.68 453.16 169 454.1 169.19 455.12 169.53 455.67 169.33 455.87 168.99 456.25 168.67 456.85 168.76 456.84 169.06 456.57 169.52 456.69 169.73 457.22 169.92 457.7 169.64 457.94 169.75 458.33 169.67 458.74 169.22 459.06 169.45 459.6 169.25 460.44 169.47 460.8 169.73 460.93 170.03 461.8 170.2 462.15 169.62 463.59 169.86 464.02 169.62 464.25 169.34 464.08 169.08 464.33 168.83 464.85 168.57 465.47 168.85 465.73 169.63 465.97 169.91 466.38 169.99 466.58 169.77 466.59 169.3 466.82 169.12 467.27 169.26 468.29 170.29 469.03 171.28 469.7 171.71 470.35 171.88 471.01 172.37 471.85 172.49 471.95 172.74 471.72 173.17 471.82 173.41 472.26 173.73 472.6 173.68 472.77 172.88 472.93 172.84 473.96 173.21 474.31 172.81 475.25 173.1 475.89 173.4 476.37 174.2 476.83 173.92 477.44 174.43 478.11 174.62 478.47 174.94 478.66 175.48 479.14 175.52 479.72 175.3 479.95 174.74 480.71 174.74 480.95 174.65 481.31 175.03 481.69 174.76 482.04 174.69 482.64 174.89 482.96 174.52 483.4 174.23 483.73 173.78 484.67 173.11 485.12 172.68 485.41 172.67 486.68 173.19 487.18 173.26 487.77 172.96 488.37 173.19 488.91 173.61 489.29 173.77 489.89 174.54 490.31 174.9 490.69 174.87 490.8 175.33 490.34 175.29 490.26 175.56 490.85 175.88 491.72 176.74 492.19 177.62 492.86 178.25 493.62 179.23 494.18 179.38 494.67 179.91 494.92 179.94 495.55 179.7 495.87 179.17 496.54 179.21 497.03 179 497.24 178.45 497.87 178.28 498.66 178.49 499.13 178.04 499.2 177.68 499.09 177.35 499.37 177.18 499.64 177.35 499.86 176.93 499.86 175.23 500.39 174.9 500.72 175.13 500.92 174.82 500.53 174.35 500.85 173.76 501.51 173.55 501.89 173.2 503.12 173.41 504.34 173.72 504.56 173.95 505.66 174.79 506.83 175.06 507.27 174.96 507.93 175 508.24 175.15 508.75 175.06 509.27 174.79 509.66 174.78 510.07 175.16 510.19 175.46 510.57 175.67 511.11 175.78 511.58 176.04 513.41 176.22 514.1 175.77 514.41 175.44 515.3 174.04 515.66 173.63 516.1 173.35 516.92 173.37 517.37 173.89 517.45 174.22 517.29 174.79 517.5 174.99 517.86 174.91 518.06 175.07 518.04 175.61 517.78 176.42 517.34 177.21 516.4 178.24 516.25 178.55 516.31 179.2 516.64 179.9 517.47 180.77 518.46 181.35 518.5 181.67 518 181.92 517.65 181.58 517.41 181.54 517.14 181.92 517.3 182.24 517.78 182.77 518.13 182.94 518.46 183.29 518.56 183.61 518.18 183.8 518.44 184.11 521 184.77 522.49 184.71 523.5 184.5 524.18 184.3 524.64 183.95 525.11 183.9 525.55 184.6 525.9 184.93 526.58 184.92 526.48 185.51 526 187.22 525.76 187.75 525.14 188.18 524.98 188.48 525.16 188.75 526.21 188.79 526.26 189.28 526 190.35 525.74 190.71 525.32 190.95 524.83 190.49 524.65 190.58 524.44 191.1 524.39 191.53 525 192.35 525.45 192.68 526.02 192.89 527.05 192.83 527.37 192.93 527.71 193.2 528.82 193.69 529.7 194.39 530.4 194.6 530.7 194.87 531.1 194.97 531.53 194.92 532.5 194.56 533.35 194.31 533.53 194.01 533.96 193.71 534.16 193.42 534.17 192.9 534.4 192.61 534.97 192.99 535.22 192.38 535.21 191.67 535.38 191.43 535.76 191.39 536.22 191.98 536.46 191.63 536.47 190.97 536.12 190.36 536.28 190.02 536.67 189.97 536.92 190.29 537.35 190.35 537.7 189.97 537.68 189.52 537.48 188.88 537.96 188.7 538.72 188.65 539.3 188.69 539.99 188.17 540.64 187.39 540.95 186.79 541.33 185.72 541.91 185.08 542.88 184.77 543.46 184.81 543.71 184.95 545.11 185.48 546.19 186.3 546.57 186.4 547.06 186.92 547.15 187.23 547.65 187.38 547.78 187.54 547.4 188.29 547.64 189.23 547.32 189.8 547.36 190.25 547.75 190.66 547.79 190.95 548.27 191.25 548.79 191.27 549.11 191.1 549.63 191.42 550.02 191.35 550.51 191.11 551.64 190.36 553.01 189.79 553.66 189.88 554 190.07 554.81 190.52 555.54 191.02 555.98 191.74 555.93 193.36 555.73 194.13 555.39 194.74 555.29 195.2 555.54 195.8 555.9 196.23 556.39 196.54 557.47 196.91 558.67 196.89 559.34 196.8 560.56 196.89 561.1 196.51 561.57 195.97 561.75 195.5 562.19 194.85 562.58 193.93 562.73 192.85 563.04 192.18 563.4 192.22 563.5 192.73 562.97 193.62 562.9 194.12 563.05 194.27 563.4 194.12 564.1 193.41 564.38 192.64 564.26 191.98 564.47 191.91 564.8 192.2 565.66 193.17 566.55 193.76 567.57 193.6 567.94 192.79 567.98 192.18 568.09 191.91 568.06 191.21 568.17 190.79 568.49 190.45 568.96 190.28 569.14 190.06 570.08 189.87 570.46 189.98 570.81 190.36 571.7 190.92 572.05 191.52 572.22 192.62 572.73 194.08 572.86 194.7 572.85 195.17 572.58 195.56 572.09 195.82 571.21 195.87 570.91 196.14 570.61 196.81 570.58 197.88 570.9 198.57 571.51 199.42 571.49 199.75 571.68 200.22 571.38 200.87 571.48 201.06 572.14 201.3 572.48 201.97 572.54 202.35 573.05 202.96 573.7 203.44 574.42 203.73 575.53 203.92 576.27 203.74 577.18 203.03 577.53 202.46 577.73 201.93 577.79 201.38 577.76 200.5 577.65 200.01 577.2 198.86 577.13 198.17 577.28 197.71 577.88 197.21 578.33 197.03 579.9 196.74 579.89 195.99 579.67 195.63 579.33 195.38 578.53 195.17 577.8 195.12 577.4 194.88 577.38 194.63 577.6 194.17 578.6 193.7 578.94 193.72 579.42 194.02 580.01 195.16 580.31 195.29 580.88 195.03 581.46 194.65 582.14 193.69 582.71 193.11 583.06 192.55 583.64 191.3 583.57 190.47 583.38 189.61 583 188.76 582.86 187.79 582.97 187.33 583.3 186.95 583.85 186.9 583.76 187.38 583.83 187.86 584.19 188.27 584.56 188.03 585.49 187.61 585.91 187.29 586.48 186.9 587.1 186.56 587.49 186.6 587.95 187 588.24 187.39 588.6 188.34 588.79 189.79 588.76 190.41 588.86 190.99 589.64 193 590.64 194.04 591.26 194.43 591.58 194.44 592.11 194.03 592.2 192.93 592.64 192.46 593.8 192.6 594.9 192.85 595.54 193.22 595.78 193.61 595.96 194.74 596.42 195.77 596.88 195.98 597.94 195.84 599.04 195.52 599.71 195.44 600.26 195.17 600.54 194.88 601.05 194.09 601.39 193.17 601.53 192.19 601.44 191.65 601.54 190.91 602 189.65 602.36 189.31 602.79 189.32 603.09 189.52 604.58 190.8 605.49 190.85 606.83 190.75 607.05 190.79 607.24 191.21 606.97 191.81 606.55 192.21 605.71 192.64 604.71 193.85 604.7 194.34 605.07 194.62 606.37 195.11 607.22 195.54 608.06 196.15 608.44 196.19 609.39 196.13 610.45 195.83 610.9 196.06 611.35 196.98 611.49 197.79 611.45 198.28 611.94 198.98 612.4 199.37 613.13 199.35 614.33 199.11 614.87 199.15 615.33 198.79 615.64 198.72 616.58 198.87 616.98 199.02 617.25 199.34 617.6 200.31 617.98 200.9 618.62 201.57 619.46 202.32 619.91 202.91 620.27 203.19 620.48 203.94 620.65 204.26 620.68 204.78 620.91 205.12 621.66 205.33 622.14 205.17 622.58 204.79 623.11 204.7 623.31 204.55 623.74 203.74 624.01 202.67 623.9 201.85 623.99 201.16 624.44 200.1 624.56 199.49 624.89 199.26 625.6 199.26 626.47 199.46 627.01 199.87 628.12 200.47 628.48 200.76 629.06 200.83 629.39 200.68 630.43 200.42 631.46 199.91 632.04 199.22 632.29 198.44 632.56 196.2 632.32 196.1 631.97 196.67 631.63 196.87 631.42 196.32 631.54 196.05 632.16 195.76 632.58 195.7 633.09 195.8 633.2 195.64 633.01 194.74 633.16 194.36 633.76 194.21 634.22 194.32 634.7 194.13 635.48 194.65 636.11 194.77 636.2 194.24 636.04 193.54 636.96 193.6 637.93 193.86 639.1 194.28 639.72 193.97 640.14 193.39 640.13 192.99 640.36 192.76 640.8 193.03 640.6 193.82 640.76 193.94 641.64 193.58 642.06 193.17 642.25 192.4 641.96 192.36 641.7 191.95 641.75 191.58 642.81 192.09 642.89 192.51 642.86 193.05 643.37 192.85 644.5 192.6 645.07 192.54 645.42 192.28 645.7 191.64 645.92 190.76 646.36 190.67 647.26 191.23 648.15 191.85 648.58 191.99 649.09 192.44 649.83 192.97 650.53 193.09 650.93 193.61 651.58 194.02 652.04 194.08 652.53 193.8 652.7 193.53 652.56 192.77 652.59 192.47 652.86 192.28 653.53 192.15 654.1 192.27 654.86 192.85 655.58 193.25 655.98 193.13 656.49 192.75 656.67 192.46 656.67 192.12 656.05 191.26 655.98 190.69 656.3 189.91 656.76 189.61 657.5 189.53 658.48 189.93 658.95 190.3 659.63 190.26 660.32 190.05 660.88 189.62 661.48 188.71 661.96 188.47 662.27 188.48 663.3 188.81 663.61 188.8 663.93 188.58 664.06 188.02 664.54 187.16 665.25 187.05 665.55 186.74 665.62 186.08 666.08 186.09 666.57 186.64 666.86 186.71 667.42 186.65 668 186.87 668.31 187.29 668.55 188.19 668.64 189 668.47 189.74 668.59 190.03 668.95 190.38 669.52 190.32 670.4 189.68 670.81 189.14 671.17 189.32 671.19 190.61 672.01 190.69 672.5 190.54 673.3 190.16 673.66 189.77 673.89 189.8 673.72 190.35 673.71 190.82 674.18 190.89 674.77 191.16 675.18 191.21 675.82 190.9 676.84 191.23 677.59 191.22 678.08 191.01 678.9 190.95 679.65 191.04 680.28 190.83 681.14 190.44 681.56 189.86 681.84 189.63 682.52 189.93 682.99 190.37 683.72 190.5 684.51 190.28 684.66 190.07 684.63 189.22 684.17 188.29 684.38 187.94 684.72 187.73 685.08 187.71 685.28 187.89 685.39 188.55 685.3 188.94 685.63 189.38 686.06 188.92 686.34 188.04 686.38 187.43 686.14 185.93 686.47 185.33 687.18 184.92 687.32 184.21 687.57 184.03 688.11 183.98 688.56 184.13 689.23 184.6 690.01 184.85 690.81 185.02 691.69 185.71 692.78 185.81 693.31 185.66 693.83 186.02 693.81 186.42 693.24 187.13 693.61 187.79 693.96 187.93 694.37 187.91 694.79 187.56 695.38 187.39 695.73 187.19 696.14 186.63 696.42 186.83 696.5 187.2 696.33 187.55 695.67 188.15 695.16 188.43 695.18 188.72 695.79 189.53 696.24 189.6 696.36 189.18 696.4 187.81 696.61 187.53 696.66 187.04 697.11 186.95 697.28 187.14 697.09 187.55 696.62 187.67 696.86 187.93 697.35 187.88 697.51 187.99 697.64 189.1 698.13 189.65 698.14 190.33 698.26 190.66 698.96 190.9 700.45 191.01 700.95 190.7 701.28 190.81 701.65 191.4 702.18 191.43 702.57 190.82 703.01 190.72 703.22 191.58 703.33 192.41 704 192.53 704.56 192.85 704.51 193.16 704.02 193.84 704.38 194.41 704.94 194.57 705.83 194.33 705.83 193.86 705.6 193.09 705.9 192.9 706.24 193.2 706.54 193.86 706.22 194.3 705.92 195.41 705.98 195.63 706.61 196.46 707.04 196.53 707.05 196.81 707.42 197.1 708.08 197.07 708.17 197.34 708.73 197.88 708.89 197.83 708.8 197.17 709.23 197.08 709.3 197.55 708.71 198.25 708.86 198.46 709.71 198.95 710.12 199.06 710.79 199.09 711.65 198.95 711.63 199.35 711.97 199.52 712.12 199.21 711.91 198.45 711.43 197.74 711.5 197.31 711.85 196.94 712.28 197.29 712.27 197.98 712.56 198.22 712.55 198.52 712.3 198.99 712.61 199.32 713.19 199.47 713.48 199.17 713.9 198.98 714.5 198.55 714.67 197.74 714.95 197.43 715.42 197.47 715.75 197.7 715.78 198.15 715.53 198.41 714.72 198.43 713.99 199.24 714.37 199.62 714.93 199.81 715.69 199.78 716.01 199.35 716.21 199.3 716.45 199.9 715.87 200.44 716.26 200.73 716.6 200.49 716.6 200.11 716.77 199.78 717.09 199.73 717.36 200.01 717.32 200.3 716.86 200.73 716.16 200.93 716.25 201.35 716.91 201.63 717.18 202.21 718.21 202.42 718.41 201.98 718.16 201.35 717.67 201.25 717.39 201 717.23 200.58 717.47 200.52 718.03 200.7 718.97 201.15 719.27 201.44 719.09 201.8 718.47 201.86 718.28 202.43 719.27 202.47 720.28 202.66 721.26 201.9 721.81 202.08 722.26 202.48 722.49 202.18 722.4 201.51 722.69 201.37 722.99 201.75 722.44 202.74 722.64 203.35 722.3 203.58 721.8 203.26 721.18 203.63 721.29 204.08 721.76 204.32 722.08 204.33 722.45 204.13 723.04 204.03 723.51 203.32 723.55 202.92 723.73 202.7 724.29 202.75 724.64 203.52 724.91 203.83 725.3 204.01 725.77 203.81 725.9 202.93 725.74 202.61 726.02 202.32 726.5 202.83 726.57 203.34 726.5 203.71 727.51 203.47 727.67 203.77 727.46 204 726.83 204.19 726.17 204.87 726.09 205.3 726.6 205.26 727.14 204.69 728.36 204.05 728.8 204.5 728.65 205.06 727.6 205.54 727.3 205.77 727.21 206.23 727.6 206.52 728.27 206.38 728.89 205.76 729.69 205.38 730.07 205.4 730.16 205.78 729.47 206.35 729.35 206.8 729.8 207.18 730.22 207.05 730.32 206.77 730.19 206.16 730.35 205.93 730.69 206.57 731.08 206.79 732.09 206.27 732.21 205.52 732.67 205.42 733.39 205.59 733.81 204.94 734.37 205.08 734.52 205.27 734.41 205.7 733.73 205.89 733.76 206.42 734.22 206.54 734.16 207.02 733.29 207.63 733.11 207.9 733.34 208.19 733.89 208.13 734.26 208.7 734.95 208.71 735.08 208.51 735.77 208.78 736.75 210.24 737.27 210.26 737.6 210.05 738.3 209.26 738.74 209.45 738.74 210.08 738.6 210.25 738.08 210.45 737.76 210.38 737.44 210.92 738.21 211.78 738.65 211.94 739.35 211.79 740.24 211.94 740.67 211.32 740.32 210.68 740.73 210.2 741.15 210.19 741.41 210.52 741.56 211.13 742.33 211.45 742.93 211.22 743.09 210.93 743.05 210.61 743.3 209.83 743.49 209.48 743.93 209.06 744.42 209.06 744.49 209.63 744.02 210.03 743.95 210.37 744.08 210.75 744.72 210.77 744.99 210.64 745.56 209.4 745.92 208.91 746.67 208.39 747.16 208.58 747.08 209.25 746.76 209.48 746.33 210.2 746.36 210.66 747.24 211.01 748.01 210.89 748.34 210.61 748.87 209.93 749.19 209.96 749.31 210.47 749.68 210.71 749.92 210.53 749.98 210.1 749.57 209.27 749.28 209.14 748.82 209.42 748.43 209.28 748.31 208.98 748.69 208.77 749.05 208.97 749.61 208.81 750.22 207.9 750.75 208.12 751.54 208.23 751.59 208.8 751.91 209.15 752.13 209.13 752.54 208.68 752.75 208.96 752.26 209.43 752.29 209.71 752.75 209.84 753.09 209.45 753.25 209.48 753.37 210.28 753.53 210.77 753.81 210.85 754.02 210.64 754.09 209.68 754.56 209.67 755.78 209.04 756.47 209.02 757.16 209.23 757.32 209.41 757.93 209.52 757.97 209.9 757.62 210.08 757.28 209.98 756.96 210.09 756.91 210.38 757.44 210.72 757.72 210.77 758.22 210.52 758.73 210.58 758.87 213.47 759.32 224.26 759.49 228.08 759.82 235.53 760.05 241.44 760.35 248.34 Z M 722.9 512.44 722.95 511.77 723.07 511.33 722.95 510.92 723.63 510.41 724.8 511.15 725.5 511.74 725.49 512.34 724.99 512.92 724.48 513.2 723.41 513.26 723.01 513.2 722.9 512.44 Z M 716.43 515.29 716.99 515.28 716.71 515.66 716.43 515.29 Z M 704.82 529.78 704.96 529.48 705.56 529.12 706.33 527.59 706.57 527.32 707.17 526.97 707.4 526.94 707.9 526.58 708.08 526.29 708.36 526.23 708.7 525.86 709.82 524.96 710.54 524.77 710.79 523.88 711.21 523.9 711.06 523.39 711.41 523.16 711.83 523.07 711.89 522.69 712.87 522.27 712.57 521.91 712.7 521.58 713.46 521.38 713.7 521.47 713.92 521.07 713.77 520.77 714.08 520.6 714.69 520.81 714.5 520.18 715.05 520.23 715.55 519.98 715.32 519.48 714.89 519.44 715.63 518.97 716.21 519.17 716.44 519 716.44 518.39 717.01 517.87 716.99 517.66 717.4 517.29 717.7 517.18 718.8 516.38 719.49 516.2 719.36 515.74 719.8 514.97 720.18 514.92 720.58 514.54 721.12 514.27 721.33 514.38 722.07 514.19 722.92 513.72 723.09 513.45 724.51 513.48 725.06 513.22 725.54 512.73 725.94 512.54 726.05 511.64 726.4 511.36 727.67 511.5 728.59 511.31 728.87 511.7 728.06 512.31 726.43 513.62 724.78 515.19 723.54 516.08 722.24 516.96 720.38 518.3 720.24 518.35 718.87 519.33 712.05 524.32 710.52 525.46 708.03 527.4 706.92 528.35 706.17 529.14 705.77 529.73 705.19 530.06 704.82 529.78 Z M 573.9 636.16 574.38 636.31 575.03 636.27 575.25 636.56 575.45 636.9 575.75 636.66 575.36 635.85 575.36 635.48 576.12 635.61 576.27 635.15 576.09 635 576.23 634.66 576.51 634.66 576.43 633.44 576.5 632.62 576.93 632.03 577.3 631.8 578.01 630.33 578.66 628.79 578.86 627.73 579.25 627.09 579.32 626.58 579.67 626.3 580.47 626.07 580.95 625.8 581.19 625.38 581.28 623.6 581.17 623.2 580.27 622.58 580.76 622.32 583.4 621.77 584.06 621.47 585.23 621.27 585.99 621.8 585.31 622.47 584.28 623.77 583.13 625.3 582.04 626.94 580.02 630.27 579.2 631.69 577.6 634.67 576.41 637.04 576.26 637.42 576.23 637.49 576.17 637.62 576.17 637.64 575.58 638.89 575.12 640 575.11 640.01 574.96 640.32 574.69 640.88 572.81 645.04 572.13 646.68 571.72 647.56 570.71 650.23 569.95 652.31 569.01 655.12 568.36 657.33 567.83 659.32 567.1 662.39 566.68 664.35 566.19 667.27 565.88 669.71 565.53 674.21 565.46 676.15 565.43 678.16 565.47 680.81 565.54 682.18 565.69 684.35 566.06 687.88 566.56 691.07 567.03 693.46 567.45 695.41 568.31 699.09 568.92 701.4 570.01 705.29 571.08 708.73 571.83 711.05 572.3 712.24 572.24 712.51 571.23 712.5 570.34 712.54 570.23 712.14 571.29 712.1 571.71 711.7 571.66 711.18 570.65 710.49 570.26 709.72 570.05 708.86 569.44 707.56 568.95 706.69 568.81 705.78 568.49 705.13 567.68 702.7 567.09 701.1 566.93 700.19 566.42 698.91 566.54 698.54 565.9 697.68 565.57 696.69 565.47 695.81 564.85 694.63 564.97 693 564.33 690.96 564.77 689.82 564.57 687.57 564.8 685.1 565 684.58 564.57 683.58 564.74 682.36 564.79 680.31 564.76 678.69 564.7 678.28 564.8 675.91 564.97 675.49 564.74 674.88 564.75 674.28 564.57 673.78 564.39 672.7 564.67 672.3 564.65 670.73 564.83 669.73 564.81 669.08 565.13 667.74 564.84 667.48 564.62 666.92 565.29 666.58 565.26 665.36 565.08 664.46 565.06 663.98 565.83 663.71 566 663.34 566.24 662.41 566.4 662.08 565.78 661.65 565.91 661.47 565.71 660.56 565.76 660.22 566.7 659.5 566.27 658.61 566.3 658.21 566.03 657.95 566.17 656.81 566.31 656.57 566.29 655.92 566.47 655.38 566.83 654.86 567.2 653.83 567.49 653.48 567.61 653.11 567.88 652.79 568.15 652.03 568.25 651.42 568.23 650.52 568.6 649.72 568.9 648.78 569.24 648.22 569.32 647.81 569.65 647.18 570.03 646.91 570.25 646.37 569.83 645.31 570.51 643.69 571.25 642.06 572.23 640.08 572.79 638.69 573.9 636.16 Z M 574.65 632.51 575.32 632.74 574.99 633.26 574.34 635.74 574.14 635.73 574.52 633.36 574.25 632.77 573.92 632.76 573.64 633.59 573.37 633.25 573.36 632.79 573.93 632.46 573.97 632.47 574.65 632.51 Z M 580.78 621.4 581.04 620.78 581.26 620.56 581.59 619.75 582.28 618.67 582.37 618.38 583.1 618.91 583.52 618.33 583.66 617.59 584.05 617.52 584.1 617.23 584.58 616.71 584.63 616.22 585.37 616.98 585.65 618.66 585.5 619.42 585.08 620.37 584.72 620.67 584.71 621.09 583.99 621.23 583.65 621.11 583.27 621.33 582.1 621.5 580.79 621.62 580.78 621.4 Z M 580.44 617.49 581.6 617.75 581.8 617.96 581.3 618.22 581.29 617.86 580.57 617.68 580.44 617.49 Z M 578.46 622.89 579.13 622.79 579.8 622.88 579.66 623.16 578.5 623.13 578.46 622.89 Z M 577.86 627.55 577.96 627.15 578.46 626.92 578.29 627.51 577.86 627.55 Z M 576.8 623.2 577.61 623.12 577.61 623.33 577.1 623.46 576.8 623.2 Z M 574.91 623.67 575.93 623.4 575.91 623.81 575.27 623.87 574.91 623.67 Z M 573.73 621.85 574 621.86 574.27 622.16 574.03 622.35 573.64 622.02 573.73 621.85 Z M 571.86 619.19 572.29 619.15 572.83 619.35 573.37 620.52 573.75 621.51 573.31 621.5 572.47 619.72 571.88 619.52 571.86 619.19 Z M 573.68 722.43 574.04 722.35 574.18 722.75 573.89 723.16 573.68 722.43 Z M 569.21 712.82 572.38 712.72 572.68 712.84 573.06 714.24 574.44 718.66 575.46 722.11 576.3 725.13 576.75 727.07 577.4 729.56 577.99 732.05 578.73 735.82 578.95 737.09 579.56 741.56 579.6 742.13 579.89 744.11 580.22 746.23 580.55 747.47 580.72 747.9 579.88 747.56 579.7 747.19 579.63 746.69 579.84 746.11 579.7 745.47 579.38 744.55 579.49 744.32 579.32 743.52 579.08 743.11 579 742.37 578.82 742.25 578.87 741.35 578.79 741.12 578.99 740.3 578.98 739.84 578.49 737.45 578.3 736.15 577.97 735.35 577.93 734.6 577.81 733.91 577.72 732.91 577.46 732.29 577.37 731.45 576.7 728.75 576.11 727.58 575.83 726.87 576.21 726.39 576.04 725.86 575.22 724.28 575.1 723.97 574.76 723.64 574.99 722.91 574.6 722.43 574.64 721.95 574.38 721.33 574.56 720.81 574.32 719.65 573.95 718.52 573.63 717.98 573.75 717.3 573.45 717.05 573.33 716.61 572.86 716.56 572.72 716.27 572.47 715.35 572.02 714.55 571.78 713.77 570.65 713.32 570.35 713.04 569.41 713.08 569.21 712.82 Z M 563.55 660.53 563.77 659.41 563.96 659.5 563.71 660.45 563.55 660.53 Z M 562.81 699.23 563.38 699.17 563.34 700.05 562.84 700.05 562.81 699.23 Z M 715.72 494.22 716.14 493.88 716.33 493.91 717.04 494.87 717.06 495.04 716.49 495.33 715.72 494.22 Z M 712.39 487.21 712.67 487.03 713.18 487.49 713.96 487.6 714.32 488.1 714.75 489.29 714.7 489.39 713.96 489.53 714.35 489.96 714.33 490.71 714.94 491.59 714.83 491.97 714.48 492.14 714.1 491.77 714.03 491.5 714.15 491.06 714.04 490.79 713.69 490.55 713.58 490.06 713.28 489.47 713.05 488.37 712.58 487.74 712.39 487.21 Z M 711.5 486.19 711.9 486.17 712.51 486.45 712.58 486.91 711.98 486.68 711.5 486.19 Z" fill-rule="evenodd" fill="none" stroke="currentColor" stroke-width="1"/>
</g>
</svg>