<?xml version="1.0"?>
<svg xmlns="http://www.w3.org/2000/svg" version="1.2" baseProfile="tiny" viewBox="-40.0 -40.0 880.0 879.0" stroke-linecap="round" stroke-linejoin="round">
<g id="state">
<path d="M 2.82 2.25 11 2.37 20.13 2.87 25.09 3.09 29.59 3.15 38.9 3.08 61.7 2.73 91.94 2.35 114.25 2.09 130.86 1.89 143.56 1.78 168.62 1.56 178.6 1.49 204.39 1.3 226.32 1.22 246.87 1.15 255.43 1.15 269.81 1.1 282.2 1.11 297.68 1.09 300.33 1.03 303.4 1.71 308.94 1.63 325.96 1.53 335.15 1.54 338.48 1.49 350.67 1.5 367.59 1.38 400.89 1.37 410.15 1.34 416.2 1.22 422.19 1.16 437.61 1.08 451.83 1.05 479.7 1 479.73 5.24 479.71 16.54 479.76 22.52 479.7 23.39 479.74 30.3 479.74 46.52 479.81 50.93 479.85 70.51 479.85 79.92 479.77 89.78 479.75 110.21 479.69 120.44 479.69 135.55 479.71 151.7 479.69 160.85 486.19 160.84 490.24 160.9 501.81 160.95 508.68 160.96 537.88 161.11 559.49 161.1 565.95 161.34 581.97 161.34 602.73 161.34 611.17 161.2 617.17 161.19 630.53 160.98 660.13 160.88 677.13 160.88 700.89 160.75 719.04 160.77 723.85 160.67 736.61 160.56 756.68 160.43 765.81 160.34 768.6 160.18 771.66 160.19 777.17 160.37 797.65 160.4 797.77 175.06 797.83 179.04 797.84 186.34 797.9 188.21 797.8 205.97 797.83 214.24 798.01 222.63 797.97 227.3 797.64 235.48 797.46 249.43 797.53 258.87 797.51 272.32 797.5 286.44 797.54 305.14 797.47 318.44 797.55 326.46 797.6 343.74 797.51 348.25 797.47 375.3 797.43 391.52 797.47 408.08 797.52 419.28 797.48 430.05 797.49 442.82 797.45 449.27 797.47 456.28 797.27 475.43 797 499.13 796.5 510.91 796.22 518.88 796.09 524.41 796.11 539.63 796.07 549.49 796.04 564.23 796.04 575.12 796.04 594.35 798.8 611.75 798.84 613.23 798.84 623.29 798.94 625.56 798.89 630.09 798.79 632.43 798.78 641.16 798.93 647.18 798.94 672.06 798.96 687.95 798.94 705.71 799 707.95 798.65 722.78 798.42 733.49 798.35 740.19 798.32 749.38 798.39 763.68 798.31 767.64 798.44 778.3 798.43 797.63 785.6 797.57 762.41 797.58 734.47 797.6 719.98 797.61 705.83 797.75 679.15 797.75 656.91 797.72 637.15 797.74 616.93 797.75 603.17 797.79 585.89 797.82 571.58 797.84 568.31 796.89 539.24 796.91 518.13 797.06 494.31 797.08 476.8 797.1 463.16 797.32 442.72 797.3 436.81 797.23 421.45 797.23 399.95 797.22 392.81 797.24 367.49 797.27 349.35 797.28 327.78 797.32 309.06 797.29 279.8 797.3 249.87 797.32 237.77 797.36 208.35 797.39 195.81 797.39 183.2 797.42 159.22 797.46 136.48 797.47 115.56 797.47 95.78 797.47 69.55 797.47 51.85 797.46 34.18 797.45 1.45 797.44 1.32 785.53 1.09 781.79 1.15 777.92 1.2 768.15 1.19 756.43 1.15 752.17 1.2 749.08 1.15 731.12 1.01 728.34 1.04 723.57 1 710.01 1.01 702.9 1.1 700.72 1.2 677.8 1.48 675.47 1.73 668.58 1.52 666.33 1.38 645.66 1.42 641.5 1.39 629.59 1.45 622.7 1.45 605.58 1.4 600.47 1.57 595.86 1.53 586.87 1.41 570.38 1.44 563.42 1.38 559.23 1.46 546.99 1.49 530.37 1.52 510.84 1.51 502.52 1.59 485.43 1.63 474.13 1.69 447.95 1.72 426.1 1.78 411.68 1.83 393.39 1.85 379.47 1.96 366.07 1.82 357.4 1.82 350.25 1.9 344.12 1.95 324.22 2.02 296.94 2 287.89 2.05 281.09 2.09 257.89 2.15 252.15 2.24 251.15 2.18 241.71 2.31 223.03 2.46 202.59 2.59 193.06 2.63 181.59 2.73 160.53 2.78 151.63 2.81 138.78 2.87 120.04 2.97 106.06 2.96 101.88 3.01 83.09 2.94 76.83 2.97 69.7 3.08 59.68 3.08 48.7 3.14 45.99 3.02 37.07 3.07 27.76 2.98 20.86 3.06 16.57 3.02 9.25 2.83 4.82 2.82 2.25 Z" fill="none" stroke="currentColor" stroke-width="1"/>
</g>
</svg>