<?xml version="1.0"?>
<svg width="20" height="20" xmlns="http://www.w3.org/2000/svg" version="1.2" baseProfile="tiny" viewBox="-180.000 -80.000 1160.000 1160.000" stroke-linecap="round" stroke-linejoin="round">
<g id="state">
<path d="M 30.56 1 38.18 1.36 46.67 2.22 51.28 2.62 55.47 2.81 64.14 2.94 85.39 3.03 113.57 3.21 134.36 3.34 149.83 3.4 161.67 3.49 185.02 3.62 194.32 3.69 218.35 3.82 238.78 4 257.92 4.13 265.89 4.22 279.29 4.3 290.83 4.41 305.26 4.51 307.72 4.45 310.58 5.33 315.74 5.26 331.6 5.24 340.16 5.3 343.26 5.24 354.62 5.31 370.38 5.21 401.41 5.25 410.03 5.22 415.67 5.06 421.25 4.98 435.62 4.86 448.87 4.79 474.83 4.62 474.89 9.91 474.94 24.02 475.02 31.49 474.97 32.58 475.05 41.21 475.15 61.47 475.25 66.97 475.41 91.42 475.47 103.18 475.46 115.48 475.57 140.99 475.58 153.76 475.67 172.62 475.79 192.78 475.83 204.2 481.98 204.15 485.81 204.2 496.75 204.2 503.24 204.16 530.86 204.13 551.29 203.91 557.41 204.15 572.56 203.97 592.19 203.71 600.16 203.43 605.83 203.33 618.47 202.88 646.45 202.29 662.52 201.99 684.98 201.39 702.15 201.04 706.69 200.82 718.75 200.41 737.72 199.8 746.34 199.48 748.97 199.2 751.87 199.15 757.08 199.23 776.45 198.76 777.06 217.04 777.26 222.01 777.51 231.11 777.64 233.44 778.15 255.61 778.45 265.92 778.92 276.39 779.04 282.21 779 292.42 779.31 309.83 779.69 321.6 780.13 338.38 780.61 355.99 781.28 379.31 781.68 395.9 782.02 405.91 782.67 427.45 782.73 433.08 783.61 466.82 784.13 487.04 784.74 507.69 785.17 521.66 785.5 535.1 785.94 551.02 786.12 559.07 786.38 567.81 786.84 591.7 787.39 621.26 787.3 635.97 787.3 645.91 787.36 652.82 787.9 671.8 788.19 684.09 788.67 702.48 789.04 716.06 789.69 740.05 793 761.68 793.09 763.51 793.44 776.07 793.61 778.9 793.72 784.55 793.7 787.47 793.99 798.36 794.34 805.86 795.21 836.9 795.77 856.72 796.36 878.88 796.5 881.68 796.66 900.19 796.79 913.55 796.96 921.92 797.24 933.39 797.8 951.23 797.86 956.18 798.35 969.47 799 993.6 786.16 993.87 762.94 994.48 734.97 995.18 720.46 995.51 706.3 995.99 679.59 996.53 657.32 996.9 637.54 997.25 617.29 997.58 603.51 997.82 586.21 998.09 571.88 998.29 568.59 997.14 539.48 997.46 518.35 997.83 494.5 998.02 476.96 998.13 463.31 998.47 442.84 998.51 436.91 998.45 421.54 998.46 400.01 998.46 392.86 998.48 367.5 998.47 349.33 998.42 327.74 998.35 308.99 998.21 279.69 997.99 249.72 997.71 237.6 997.62 208.14 997.28 195.59 997.09 182.96 996.94 158.95 996.59 136.18 996.19 115.23 995.78 95.43 995.36 69.17 994.75 51.45 994.31 33.76 993.84 1 992.93 1.29 978.07 1.2 973.39 1.4 968.57 1.79 956.37 2.2 941.75 2.31 936.43 2.47 932.57 3.06 910.17 3.02 906.69 3.22 900.75 3.66 883.82 3.93 874.95 4.09 872.24 5 843.65 5.37 840.75 5.86 832.16 5.73 829.35 6.33 803.56 6.51 798.37 6.91 783.52 7.22 774.92 7.82 753.58 7.96 747.2 8.29 741.45 8.57 730.23 9.04 709.67 9.31 700.98 9.4 695.76 9.92 680.5 10.54 659.76 11.27 635.42 11.55 625.04 12.24 603.72 12.68 589.64 13.67 556.99 14.47 529.74 15.04 511.77 15.74 488.96 16.25 471.6 16.84 454.89 17.01 444.06 17.26 435.16 17.56 427.51 18.31 402.69 19.35 368.67 19.65 357.38 19.94 348.91 20.8 319.97 21.06 312.8 21.19 311.56 21.46 299.79 22.25 276.48 23.12 250.99 23.58 239.11 24.02 224.8 24.86 198.53 25.23 187.42 25.71 171.39 26.43 148.01 27.02 130.57 27.16 125.35 27.87 101.91 28.03 94.09 28.32 85.2 28.77 72.69 29.16 58.99 29.31 55.6 29.52 44.47 29.89 32.85 30.06 24.23 30.28 18.88 30.5 9.74 30.48 4.2 30.56 1 Z" fill="none" stroke="currentColor" stroke-width="58.000"/>
</g>
</svg>