<svg viewBox="-114.5540163 -42.50283325418818 6.013575599999996 6.006307554188183" xmlns="http://www.w3.org/2000/svg">
  <path d="M -114.04147667458298,41.99382195691949 L -114.041374,41.977717 L -114.040218,41.949878 L -114.039951,41.903939 L -114.04042,41.876987 L -114.039888,41.833632 L -114.040177,41.775203 L -114.039463,41.719178 L -114.03982384990374,41.70214087653292 L -114.039799,41.633212 L -114.040486,41.570273 L -114.0407263516171,41.525508746040664 L -114.040289,41.486183 L -114.040598,41.368202 L -114.040528,41.34197 L -114.041166,41.254145 L -114.041502,41.136496 L -114.041695,41.055791 L -114.0420235084794,40.99989602496878 L -114.042637,40.867649 L -114.042876,40.795614 L -114.043689,40.735776 L -114.04467,40.60742 L -114.045477,40.49008 L -114.04507,40.43082 L -114.045671,40.424544 L -114.046035,40.388453 L -114.04626,40.242755 L -114.046584,40.200076 L -114.046456,40.143255 L -114.046936,39.971929 L -114.047217,39.846973 L -114.047766,39.808439 L -114.047726,39.763588 L -114.046839,39.709111 L -114.047551,39.624941 L -114.047649,39.537524 L -114.047988,39.42267 L -114.048343,39.332135 L -114.048542,39.194931 L -114.048919,39.030504 L -114.049171,38.959577 L -114.049655,38.85221 L -114.049593,38.799973 L -114.049807,38.677365 L -114.049977,38.572974 L -114.050521,38.496117 L -114.050153,38.4698 L -114.050301,38.426066 L -114.04956144665883,38.32254285904014 L -114.049325,38.26606 L -114.050346,38.237104 L -114.050085,38.205005 L -114.050043,38.097528 L -114.050445,38.05425 L -114.050268,37.979468 L -114.0505,37.953341 L -114.049613,37.823541 L -114.048302,37.809424 L -114.049861,37.766142 L -114.051654,37.751498 L -114.05227,37.607552 L -114.052806,37.593913 L -114.052885,37.549262 L -114.052635,37.464071 L -114.052807,37.434149 L -114.051916,37.416672 L -114.051626,37.303905 L -114.05196,37.284484 L -114.051676,37.257753 L -114.051615,37.184152 L -114.051914,37.122766 L -114.052317,37.098469 L -114.050881,37.074976 L -114.050052,37.000191 L -113.844505,37.000144 L -113.733555,37.000083 L -113.622415,37.000013 L -113.457666,36.999982 L -113.3334720239077,36.99998596223439 L -113.202081,36.999998 L -113.059258,37.000057 L -112.908682,37.000324 L -112.829503,37.000516 L -112.750761,37.000483 L -112.566,37.000685 L -112.490037,37.000941 L -112.302044,37.001053 L -112.118335,37.001098 L -112.000735,37.000959 L -111.865325,37.001172 L -111.751401,37.001234 L -111.592373,37.001416 L -111.547538,37.001555 L -111.41249737186652,37.0015028572569 L -111.316083,37.001477 L -111.278939,37.001088 L -111.150576,37.00095 L -111.064951,37.002342 L -110.954971,37.002419 L -110.805365,37.002552 L -110.672818,37.003515 L -110.490299,37.003628 L -110.469733,36.997657 L -110.379844,36.997779 L -110.271376,36.99801 L -110.184924,36.998243 L -110.057961,36.9983 L -109.933855,36.998414 L -109.794204,36.998235 L -109.626694,36.998247 L -109.537815,36.999147 L -109.44682077621925,36.999152211255335 L -109.271363,36.999302 L -109.125691,36.999389 L -109.045172,36.998977 L -109.045086,37.120377 L -109.045885,37.187305 L -109.045398,37.212195 L -109.045844,37.301995 L -109.04564,37.359723 L -109.04522743430772,37.401800176865294 L -109.043777,37.469035 L -109.041572,37.562138 L -109.041932,37.576253 L -109.041844,37.68779 L -109.04195,37.787583 L -109.04204,37.943812 L -109.042938,37.981607 L -109.042866,38.03642 L -109.042234,38.051098 L -109.041979,38.079557 L -109.04258,38.093799 L -109.042572,38.157016 L -109.042835,38.166268 L -109.060187,38.275528 L -109.0601462385146,38.396298710842345 L -109.060154,38.464694 L -109.05997690080343,38.55726535532099 L -109.059696,38.619165 L -109.059824,38.714746 L -109.059041,38.749524 L -109.057279,38.799544 L -109.054119,38.873532 L -109.052416,39.02233 L -109.051166,39.142603 L -109.051318,39.186613 L -109.05103,39.227126 L -109.051099,39.307326 L -109.050864,39.374976 L -109.05115106291841,39.445335307707005 L -109.051459,39.549313 L -109.051189,39.651152 L -109.050956,39.821031 L -109.050341,39.849354 L -109.050688,39.957847 L -109.051157,40.008238 L -109.050768,40.091738 L -109.050976,40.209204 L -109.050947,40.297854 L -109.050817,40.382338 L -109.051245,40.441599 L -109.050092,40.529198 L -109.048024,40.580562 L -109.047767,40.609879 L -109.048944,40.662601 L -109.049088,40.714503 L -109.048455,40.826081 L -109.048841,40.837821 L -109.048891,40.883644 L -109.049277,40.908646 L -109.050026,41.000691 L -109.178685,41.000902 L -109.213249,41.002009 L -109.232505,41.002107 L -109.250007,41.00105 L -109.307349,41.000521 L -109.433393,40.999686 L -109.51349244772996,40.99899988852181 L -109.543697,40.998396 L -109.657686,40.998482 L -109.806906,40.997699 L -109.913663,40.997662 L -110.099538,40.997047 L -110.18346,40.995763 L -110.2211269925843,40.99567840298584 L -110.274112,40.994817 L -110.404478,40.994777 L -110.505074,40.994804 L -110.54568381978608,40.99632498940199 L -110.681369,40.996239 L -110.864764,40.997202 L -110.907899,40.997217 L -110.980532,40.997581 L -111.00597924053112,40.997959904079366 L -111.046815,40.997875 L -111.046691,41.055322 L -111.046818,41.156718 L -111.04676910876161,41.25162697728656 L -111.046409,41.315851 L -111.046266,41.444153 L -111.045796,41.506066 L -111.045789,41.565208 L -111.04601752586558,41.68817262280781 L -111.0465,41.715816 L -111.04648,41.817724 L -111.04672,41.86111 L -111.04636,41.866569 L -111.046654,41.904136 L -111.046513,41.975093 L -111.04673031996128,42.001701954188185 L -111.221717,42.001366 L -111.311026,42.001223 L -111.407875,42.000716 L -111.445515,42.000337 L -111.483516,41.999541 L -111.541643,41.999393 L -111.750764,41.99933 L -111.85703,41.998563 L -111.933595,41.998634 L -111.954463,41.998297 L -112.01218,41.99835 L -112.119088,41.997731 L -112.153848,41.997226 L -112.173148,42.001515 L -112.189751,42.001133 L -112.286995,42.001025 L -112.364813,42.001053 L -112.455113,42.000748 L -112.50888126447046,42.00076984006902 L -112.637897,42.000295 L -112.77562981197299,41.9997913457909 L -112.937572,41.99862 L -113.0002473771601,41.998202257908275 L -113.157611,41.996785 L -113.237405,41.996089 L -113.341712,41.994853 L -113.481818,41.993242 L -113.67170032696363,41.990865183866354 L -113.814884,41.988654 L -113.873349,41.988182 L -113.901578,41.988552 L -113.932742,41.989966 L -113.990091,41.993095 L -114.04147667458298,41.99382195691949 Z" fill="none" stroke=currentColor stroke-width="1" vector-effect="non-scaling-stroke"/>
</svg>