<?xml version="1.0"?>
<svg width="20" height="20" xmlns="http://www.w3.org/2000/svg" version="1.2" baseProfile="tiny" viewBox="-64.000 -290.000 928.000 928.000" stroke-linecap="round" stroke-linejoin="round">
<g id="state">
<path d="M 745.56 342.23 739.8 342.36 732.55 342.59 726.09 342.74 709.42 343.19 696.97 343.46 681.22 343.81 660.87 344.2 654.72 344.28 645.58 344.32 645.54 345.3 627.69 345.5 625.62 345.6 622.93 345.63 621.24 345.28 619.38 345.41 617.81 345.67 612.64 345.7 603.95 345.8 596.29 345.9 588.84 345.94 581.12 346.02 565.95 346.12 553.17 346.31 542.54 346.41 537.66 346.53 532 346.54 526.95 346.5 518.5 346.5 498.47 346.76 493.28 346.94 482.82 346.9 477.65 346.79 468.86 346.82 452.97 346.7 439.94 346.65 434.72 346.66 433.42 346.62 425.85 346.6 422.72 346.63 419.85 346.57 413.48 346.5 411.99 346.52 408.37 346.45 404.05 346.43 402.9 346.47 397.6 346.42 394.88 346.39 388.9 346.24 378.4 346.06 364.01 345.78 357.55 345.68 351.13 345.61 339.52 345.38 327.92 345.01 323.02 344.9 309.18 343.84 297.44 342.91 288.87 342.38 284 341.9 281.54 341.83 277.37 341.96 274.93 341.82 271.26 341.96 265.5 341.5 262.33 341.34 259.65 341.13 255.46 341 251.55 340.56 247.4 340.35 244.38 340.05 242.69 339.97 239.53 339.69 238.97 339.57 233.4 339.3 230.83 339.08 226.54 338.83 221.21 338.72 218.8 338.58 213.61 338.2 212.15 338.02 206.25 337.53 198.64 336.51 191.3 336.12 194.31 333.41 185.74 333.06 182.45 332.87 175.08 332.38 168.05 331.96 166.86 334.52 159.23 334.2 156.12 334.09 150.85 333.84 144.39 333.61 140.17 333.29 136.41 333.17 132.59 333 125.47 332.78 120.32 332.56 116.21 332.45 114.18 332.2 101.24 331.87 90.09 331.38 79.36 330.87 75.87 330.73 64.78 330.15 53.39 329.55 48.53 329.33 40.41 328.91 38.99 328.33 30.03 327.95 20.34 327.44 12.26 326.99 6.06 326.58 3.83 326.21 1 325.96 1.26 325.5 2.17 325.3 2.83 324.61 3.59 324.21 3.75 323.5 4.46 323.31 5 323.57 6.05 323.31 6.62 322.98 7.08 322.27 8.13 322.05 9.66 321.53 10.5 321.63 11.54 321.19 12.09 320.6 13.88 320.2 14.97 319.53 15.03 319.17 16.99 318.69 17.26 318.81 18.83 318.73 19.9 319.28 20.92 319.46 22.52 319.57 23.5 319.34 24.18 319.49 25.88 319.28 28.13 318.37 28.11 318.13 29.02 317.33 30.54 316.93 31.15 316.56 31.78 316.64 32.83 315.92 34.05 315.69 36.51 314.88 37.84 314.6 38.56 314.62 41.69 313.8 42.71 313.39 43.08 313.42 44.8 312.99 47.66 312.04 49.5 312.17 50.16 312.03 50.62 312.21 51.26 311.97 53.3 311.96 53.82 311.16 54.03 309.97 53.68 308.55 54.08 308.07 53.74 307.25 54.06 306.88 54.65 306.83 55.12 306.47 55.97 305.24 56.59 304.85 56.8 304 57.21 303.76 57.26 302.52 56.97 302.16 57.17 301.67 58.05 301.3 58.4 300.89 59.57 300.66 59.71 300.06 59.57 299.47 59.88 299.04 60.44 299.37 61.03 299.16 62.24 299.49 62.91 299.13 63.41 299.26 64.3 299.15 64.69 299.82 65.57 300.21 66.13 300.16 66.94 299.14 67.87 298.88 68.77 298.86 69.74 299.11 70.5 298.61 71.44 298.23 72.79 298.15 73.2 297.8 73.69 297.83 74.24 297.45 75.66 297.41 75.67 296.94 77.47 296.32 77.96 295.89 78.47 295.83 78.56 295.24 79.59 294.6 78.74 293.57 79.3 293 80.73 291.25 80.36 289.75 80.63 288.84 81.03 288.4 80.09 287.7 79.69 286.5 80.11 285.37 80.52 285.16 81.07 285.34 81.41 284.61 82.24 284.81 82.95 284.46 83.71 283.6 83.9 282.29 84.51 282.51 85.13 282.16 86.26 282.22 86.93 282.05 87.22 282.48 87.73 282.13 88.26 282.25 88.83 281.32 89.34 281.37 89.9 280.52 90.63 280.04 91.67 280.43 92.25 278.3 93.13 278.13 93.93 278.42 94.19 278.13 94.28 276.58 93.96 275.52 93.96 274.75 94.77 274.49 94.76 273.89 94.36 273.42 94.55 271.03 94.16 269.86 94.7 269.17 95.29 269.08 97.48 267.86 98.43 267.43 98.99 267.7 99.83 266.97 101.02 266.52 101.16 265.97 101.74 266 102.57 265.64 103.15 265.61 104.18 264.44 105.25 263.86 105.85 263.38 106.72 263.06 107.28 262.35 109.35 261.31 111.34 260 111.74 260.19 112.18 259.8 112.93 259.84 113.1 259.15 113.64 258.92 113.99 259.18 115.12 258.54 115.37 258.05 116.29 257.58 116.96 257.83 117.49 257.12 118.78 256.66 119.57 256.65 120.29 256.39 121.17 255.75 121.63 255.86 122.01 255.43 122.63 255.54 124.65 254.8 124.97 254.83 127.37 254.12 128 254.17 129.15 253.71 130.02 253.62 130.69 253.3 130.67 252.87 131.35 252.61 131.21 251.84 133.03 251.65 133.47 251.26 133.95 250.26 138.57 246.56 144.05 242.1 152.66 235.28 158.68 230.37 159.8 229.34 162.56 227.15 167.85 222.85 167.93 223.46 168.82 223.19 168.81 223.89 169.72 224.25 170.07 225.09 169.92 225.81 170.37 225.96 170.9 225.19 171.59 225.68 171.53 226.06 170.07 226.42 169.96 227.09 168.99 227.42 168.98 228.4 168.03 228.13 166.71 229.13 165.55 229.06 164.88 230 164.94 230.81 165.19 230.99 165.22 231.88 165.82 232.68 166.72 232.38 167.39 233.08 167.44 233.66 168.5 233.5 169.22 233.85 169.51 234.49 170.46 234.74 169.95 235.83 170.16 236.9 170.65 237.49 171.32 237.92 171.37 238.42 170.84 238.67 170.9 240.03 170.41 240.39 170.61 240.88 170.2 241.27 170.17 241.81 170.55 242.01 170.36 242.91 171.04 243.4 170.79 243.93 171.07 244.4 172 245.31 172.46 245.4 172.72 246.16 173.34 246.25 173.94 247.72 174.17 247.52 175.05 247.71 175.77 248.16 176.15 248.91 177.03 249.5 176.49 250.22 177.07 250.79 177.53 250.6 177.69 251.78 177.54 252.84 178.16 253.22 178.95 253.06 179.3 253.57 180.12 253.92 181.03 253.87 182.28 253.22 183.68 253.46 184.51 254 184.5 254.31 185.48 254.83 186.61 254.54 186.52 255.43 187.59 256.07 187.6 256.69 188.04 257.18 187.66 258.43 188.04 259.13 188.88 258.89 189.67 258.86 190.28 259.61 190.31 260.27 191.82 261.37 192.23 262.16 192.84 262.16 193.24 262.55 193.28 263.11 193.74 263.61 204.87 263.38 205.53 263.18 206.2 262.31 206.35 261.85 207.75 261.29 208.65 261.1 209.76 260.53 210.07 260.21 210.15 258.99 210.5 258.07 210.88 257.6 211.22 258.2 212.34 258.43 213.08 257.84 214.4 257.4 214.57 256.76 215.15 256.58 216.02 255.97 216.58 256.16 216.81 255.8 217.67 256.19 218.73 255.96 218.83 255.28 219.25 255.13 220.05 253.23 219.93 252.97 220.73 252.32 220.63 251.58 221.02 250.92 221.93 250.7 222.37 250.8 223.09 250.5 223.58 249.76 223.41 249.24 223.82 248.48 224.13 248.5 227.95 253.14 230.53 255.49 234.88 259.37 236.7 261.05 238.65 260.14 241.1 258.52 242.29 257.9 244.64 257.22 245.48 256.86 248.29 255.97 250.21 255.58 250.97 255.54 253.16 255.16 254.75 255.01 256.1 254.59 257.21 254.43 259.39 253.83 260.17 253.94 259.93 254.77 260.63 255.03 262.8 254.67 264.71 253.79 265.84 253.43 267.87 252.23 269.6 250.84 270.67 249.74 272.55 248.78 269.48 244.32 271.47 241.11 271.25 240.41 271.45 239.62 271.86 239 273.08 239.75 273.59 239.44 274.01 239.7 276.8 242.17 276.78 242.81 277.32 243.1 278.85 243.3 278.94 243.81 279.53 244.61 280.12 245.96 281.09 245.69 282.16 245.1 282.66 245.14 284.6 244.18 285.28 243.97 287.36 242.88 289.27 241.73 291.97 240.36 292.83 239.75 293.32 239.2 294.19 239.09 294.25 238.78 297.19 237.01 297.73 236.41 300.96 234.48 302.39 234.46 302.82 234.1 303.66 234.15 304.33 233.98 304.81 233.61 306.48 236.47 306.05 238 306.25 239.15 308.03 240.62 309.06 240.27 309.78 239.56 311.14 238.9 312.81 237.54 314.99 236.35 316.93 235.2 317.93 234.79 318.77 234.1 318.44 233.52 320.63 232.7 321.74 232.53 323.9 231.5 324.81 230.88 326.51 227.92 325.64 227.56 323.95 228.6 322 227.51 322.28 227.06 322.84 226.93 323.71 226.37 322.24 224.2 325.43 222.55 326.53 221.81 328.86 220.64 329.73 219.87 330.64 219.32 332.01 217.79 332.5 216.89 330.66 215.61 328.16 214.63 327.07 213.32 325.58 209.19 326.44 208.66 327.45 207.59 327.89 206.9 328.26 206.74 328.67 206.01 329.21 205.85 329.81 204.77 329.1 204.38 328.82 203.74 329.16 202.97 329.36 201.65 329.97 201.73 330.24 200.23 330.89 200.27 330.95 199.75 331.42 199.68 332.21 199.01 333.33 199.2 333.32 198.67 332.67 198.15 332.06 197.42 332.3 196.65 333.12 195.37 334.27 194.66 334.63 193.69 335.58 192.47 336.87 191.9 336.49 190.94 336.67 190.36 337.64 189.64 337.61 189.26 338.55 187.75 339.41 186.92 340.6 186.74 341.42 186.1 341.63 185.55 342.65 184.64 342.87 184.14 343.79 183.43 344.2 182.67 344.79 182.77 345.33 181.74 345.95 180.98 346.82 180.26 347.39 179.58 348.66 178.84 349.53 177.89 350.48 177.22 350.57 176.94 352.03 175.49 352.74 175.08 353.15 174.31 354.06 173.81 354.39 172.56 354.95 171.69 355.32 171.59 355.38 171 355.89 170.01 356.37 169.72 356.52 168.55 357.27 167.29 357.84 165.91 357.71 165.33 358.09 164.79 358.5 163.68 359.09 163.27 359.56 162.5 360.33 161.79 361.09 160.68 359.92 160.14 359.69 159.45 359.73 158.52 359.37 157.72 359.92 157.36 360.43 157.34 360.9 156.82 360.94 156.21 361.27 155.56 361.79 155.21 362.25 153.49 361.9 153.04 362.12 152.32 361.72 152.05 362.35 151.09 362.98 151.16 363.95 150.53 364.48 149.24 365.28 148.96 366.74 147.49 367.8 146.12 368.41 145.87 369.04 144.91 369.84 144.88 370.27 143.96 371.17 144.14 371.75 143.76 371.67 143.35 372.11 142.73 372.54 142.87 374.19 141.77 374.42 141.04 373.62 139.22 372.99 139.02 372.84 138.21 372.3 137.49 372.42 136.93 373.28 136.03 373.6 135.28 375.78 133.89 376.3 132.86 376.05 132.44 376.47 132.04 376.64 131.41 377.25 131.3 378.63 131.82 379.37 131.57 379.64 131.03 380.11 130.79 380.07 129.67 379.7 129.38 380.21 127.85 380.56 127.57 381.07 126.15 381.78 125.37 382.09 124.49 382.74 123.77 383.02 123.2 383.7 122.65 383.51 121.99 383.73 121.33 383.56 120.83 383.87 120.41 383.61 118.83 382.84 117.61 383.35 117.11 383.05 116.05 383.34 115.22 383.92 115 384.44 114.36 384.68 113.3 385.27 113.33 386.26 112.91 386.33 112.41 385.96 111.7 385.39 111.17 385.98 110.01 385.63 109.8 385.74 108.56 386.18 107.37 386.72 107.2 386.4 106.25 387.02 105.6 387.06 104.96 387.71 103.77 394.76 107.18 396.43 107.61 397.25 108.26 398.07 108.7 398.35 109.37 399 110.34 399.45 110.68 401.56 115.29 403.54 119.84 413.41 123.49 418.78 125.35 419.5 124.93 419.91 125 420.29 124.6 421 124.29 421.46 124.64 421.82 123.92 421.58 123.02 423.08 122.13 423.57 121.11 423.96 120.82 424.2 120.19 424.85 120.5 425.32 120.37 425.36 119.12 425.57 118.52 426.9 117.78 427.34 117.29 427.3 116.8 428.31 115.84 428.64 114.56 428.29 114.13 428.78 112.11 429.19 111.72 429.95 110 430.81 108.96 431.13 107.94 431.53 107.28 432.06 106.98 432 106.49 432.39 105.6 432.77 105.25 433.26 104.03 433.18 103.07 433.61 102.52 433.53 101.98 433.92 100.83 434.43 100.05 434.74 99.16 435.22 98.74 435.83 96.94 436.84 96.12 437.7 96.21 438.06 96.58 439.4 96.11 439.44 95.2 439.82 94.64 440.2 93.03 439.58 92.27 439.41 91.2 440.01 89.54 440.04 88.73 440.6 87.6 440.72 87.04 441.2 86.46 441.33 85.83 442.76 84.19 442.91 83.07 443.29 82.87 443.29 82.23 442.99 81.32 443.69 80.6 445.37 80.71 445.95 79.81 445.9 78.49 446.25 78.26 446.29 77.53 447.36 77.02 447.89 75.34 448.2 74.92 448.09 74.29 448.69 73.75 460.16 84.09 461.47 81.66 461.98 80.55 463.37 78.3 463.67 77.97 465.13 75.06 465.86 73.09 466.93 71.03 467.4 70.57 467.73 69.68 468.55 68.83 469.14 68.66 469.46 68.27 470.41 67.86 471.22 66.55 471.21 66.03 471.77 65.54 472.3 64.69 474.17 63.88 473.94 66.73 474.15 67.39 475.48 66.14 476.09 66.25 476.96 65.01 477.68 64.95 478.59 63.95 479.03 63.03 479.67 62.34 480.29 60.77 480.82 59.89 481.57 60.05 482.4 58.39 483.24 58.18 483.4 59.19 484.09 58.95 484.18 59.62 484.97 60.31 485.22 59.73 485.74 59.45 486.79 57.5 487.98 55.78 488.58 55.28 488.87 54.72 489.7 53.99 488.92 53.29 488.28 53.02 487.72 52.34 489.12 50.86 489.35 50.45 490.65 48.96 491.91 48.06 492.81 46.96 492.84 46.46 494.72 44.42 494.8 44.19 495.8 43.43 496.4 43.17 496.82 43.34 497.43 42.78 498.1 42.61 499.93 40.5 500.19 39.37 501.05 38.07 502.28 37.39 503.13 36.38 502.92 35.91 501.82 35.15 500.92 33.99 500.72 32.92 500 32.7 500.76 31.66 501.66 30.72 503.05 28.72 503.16 27.6 503.58 27.28 502.71 26.26 501.76 25.67 503.29 23.55 503.28 23.17 504.16 22.65 504.72 21.43 505.87 20.03 506.55 19.44 507.16 18.56 508.47 16.01 508.43 15.4 509.11 14.89 509.01 14.29 508.23 14.17 506.58 13.63 507.93 11.75 508.75 10.13 508.01 9.83 508.13 9.05 507.39 8.31 507.21 7.74 507.47 6.84 508 6.37 508.42 5.54 507.82 4.46 508.32 4.01 508.53 1.72 508.37 1 512.01 3.98 513.9 5.47 516.12 7.1 517.76 8.5 521.3 11.64 523.06 13.03 525.7 15.41 527.3 16.56 530.34 19.13 531.7 20.2 535.61 23.4 537.6 24.98 547.79 33.35 556.23 40.24 556.79 39.33 556.68 38.77 556.83 37.94 557.55 36.45 558.24 35.58 558.47 34.49 558.98 32.93 558.94 32.15 559.79 30.46 560 29.69 561.38 27.89 561.74 26.32 561.42 25.67 562.13 25.31 562.67 23.44 563.02 23.05 563.04 22.34 563.51 20.98 564.34 19.39 565.04 18.51 565.94 18.1 566.04 17.85 567.15 17.76 568.15 18.13 569.09 17.93 569.53 17.49 570.1 17.43 570.83 18.13 572.97 19.23 573.98 19.37 575.62 19.95 576.42 19.81 577.14 20.02 578.09 20.04 579.02 19.61 579.96 19.46 580.5 19.85 580.61 21.63 581.27 22.37 581.61 23.07 582.54 24.3 583.46 24.78 584.41 25.09 585.33 25.69 586.45 25.87 587.73 26.51 588.14 27.09 589 27.89 589.96 28.53 590.24 28.98 589.96 29.79 588.87 30.83 588.59 31.73 588.54 32.93 588.13 33.39 585.71 34.19 584.8 35.61 584.47 36.51 584.2 37.89 583.93 38.28 583.98 39.62 584.2 40.55 584.79 41.48 587.43 42.45 588.25 43.11 589.02 44.58 589.39 44.99 589.4 45.5 590.17 46.74 590.72 46.97 591.92 47.13 593.93 47.7 595.87 47.87 596.99 48.15 598.72 48.2 599.26 48.08 601.12 48.02 601.85 48.2 602.4 48.62 603.15 49.1 604.59 49.34 605.66 49.9 607.34 51.32 609.26 51.85 610.01 52.42 609.97 53.58 609.39 54.27 609.17 55.12 609.44 55.88 609.86 56.23 610.19 57.38 611.14 58.17 611.7 57.83 612.16 58.6 613.31 58.92 613.62 58.81 614.58 59.21 616.26 59 617.06 59.21 617.56 59.05 618.98 59.3 619.46 59.57 620.36 60.67 621.05 62.18 621.84 62.93 622.21 63.66 623.04 64.6 623.43 65.47 624.31 66.26 624.97 66.6 626.46 66.8 626.71 66.98 627.06 68.23 627.54 69.16 628 69.3 628.47 70.29 629.01 69.95 629.49 70.73 629.58 71.47 630.02 72.19 630.1 72.75 629.89 73.97 628.95 73.96 628.94 74.54 629.62 75.25 629.32 75.96 629.68 76.99 629.54 79.7 629.37 80.44 629.38 85.01 629.47 87.48 629.31 88.36 628.43 89.38 626.72 89.4 625.94 89.09 625.78 89.66 625.11 90 624.23 90.75 623.72 90.93 622.02 92.4 621.13 93.72 620.8 96.56 620.82 96.91 621.44 98.35 619.79 98.36 618.82 98.17 617.83 99.53 617.31 99.68 616.79 99.81 616.59 99.97 616.53 99.99 616.27 100.02 616.26 100.02 615.95 100.13 615.37 100.28 615.18 100.28 615.09 100.31 614.92 100.37 614.79 100.48 614.62 100.44 614.43 99.52 613.92 99.05 613.55 98.12 614.12 98.15 614.61 97.84 615.53 96.56 615.1 95.94 614.57 95.67 613.92 95.91 612.6 95.8 612.48 95.49 611.75 95.37 611.81 95.93 612.31 96.4 612.7 97.18 612.3 98.14 611.76 98.3 611.36 98.04 610.6 98.48 610.41 99.26 610.77 100.19 610.35 101.92 609.89 102.27 609.75 102.76 610.65 103.75 609.88 104.2 609.64 104.62 609.09 104.43 608.96 104.99 609.4 106.76 609.76 107.24 609.34 107.76 609.27 107.84 609.13 107.94 608.19 108.62 607.97 108.93 608.01 109.82 607.85 110.08 607.67 110.52 607.17 110.89 607.38 111.5 607.11 112.09 607.1 112.14 606.91 112.25 606.88 112.29 606.75 112.51 606.67 112.66 606.06 112.78 606.08 113.86 606 114 605.02 115.02 604.93 115.4 604.93 115.46 604.92 115.51 604.34 117.24 604.33 117.33 604.26 117.47 604.2 117.61 603.82 118.45 603.51 121.23 603.85 122.4 603.87 122.7 603.91 122.92 603.99 123.09 604.11 123.62 604.17 123.96 605.03 126.65 604.45 126.91 604.61 127.68 604.44 128.32 605.6 129.29 605.67 129.31 606.08 129.64 606.09 129.65 606.41 129.9 606.78 130.61 606.92 130.78 607.19 131.19 607.2 131.22 607.27 131.83 607.27 131.9 607.18 132.09 607.41 132.64 607.83 133.23 608.27 133.65 608.38 133.71 609.43 134.3 610.76 134.38 610.88 134.38 611.71 134.44 612.8 134.13 615.01 133.28 617.27 133.17 618.83 132.59 618.86 132.58 618.91 132.55 619.29 132.27 619.58 131.96 619.93 131.55 620.44 130.72 621.12 129.95 621.14 129.94 622.67 130 623.04 129.92 623.79 129.72 624.86 129.78 625.05 129.85 625.22 129.91 625.61 129.95 625.93 129.87 626.4 129.61 626.42 129.59 626.83 129.28 627.12 128.97 627.7 128.2 628.35 127.11 628.97 126.17 629.43 126.09 630.07 125.99 631.16 127.07 631.37 127.27 631.81 127.73 631.91 127.84 631.95 127.89 631.98 127.93 632.01 127.96 632.89 128.97 632.51 129.4 632.53 129.64 632.66 130.79 632.66 131.33 632.64 131.48 632.58 131.97 632.52 132.51 632.51 132.59 632.51 132.98 632.54 133.09 632.68 133.92 632.12 134.34 632.06 134.92 631.12 135.53 630.41 135.61 630.14 135.17 629.02 135.15 628.71 135.43 629.26 136.05 630.11 136.72 631.25 136.44 631.46 137.02 631.54 137.21 631.97 137.75 632.52 137.96 633.23 139.11 633.89 139.82 633.93 139.87 634.08 140.6 635.03 140.87 635.1 140.84 635.46 140.78 635.8 140.76 636.23 141.11 636.72 141.65 636.96 141.85 637.35 142.35 637.8 143.07 638.02 143.97 638.25 144.78 638.26 145.19 638.2 145.4 638.18 145.45 638.06 145.64 638.03 145.68 637.32 146.33 637.81 147.87 640.19 149.22 640.79 149.34 641.59 149.37 641.61 149.38 642.07 149.49 642.26 149.59 642.5 149.72 642.61 149.78 642.78 149.91 643.01 150.11 643.26 150.34 643.61 150.7 643.89 150.94 644.77 151.61 644.96 151.8 645.33 152.21 645.84 152.56 646.18 152.71 646.51 152.76 647.5 152.8 647.54 152.8 647.69 153 647.72 153.06 647.94 153.2 647.95 153.2 648.22 153.25 648.29 153.25 648.41 153.26 648.47 153.27 648.88 153.42 649.4 153.64 649.98 153.66 650.73 153.62 650.87 153.59 651.25 153.48 651.78 153.28 651.84 153.25 651.9 153.25 652.18 153.21 652.66 153.06 653 152.96 653.04 152.95 653.28 153 653.37 153.01 653.62 152.97 654.07 152.9 654.2 152.9 654.42 152.94 654.45 152.95 655.43 153.11 656.77 153.15 657.27 153.41 658.28 154.42 658.86 155.35 658.89 156.94 659.8 157.22 660.43 156.51 661.64 155.6 662.05 155.1 662.35 153.8 663.37 153.78 663.83 154.21 664.9 154.67 665.69 155.22 666.52 156.66 666.97 156.81 667.69 157.52 668.13 158.2 668.78 157.56 668.36 156.62 668.45 156.14 667.99 155.85 667.72 155.11 668.12 154.72 669.01 154.51 669.46 154.78 670.64 155 670.5 155.63 670.74 156.34 671.41 157.16 671.77 159 671.78 159.54 672.77 160.31 673.1 160.55 673.49 160.96 673.79 161.26 674.29 161.5 674.36 161.53 675.18 162.02 675.92 162.31 676.15 162.49 676.2 162.54 677.37 163.36 677.8 163.5 678.02 164.08 678.02 164.62 678.89 166.13 679.37 166.91 678.67 166.94 677.62 167.81 676.67 167.65 676.77 168.86 676.18 169.18 676.56 169.74 676.94 169.6 678.02 169.95 678.35 169.34 679.24 169.62 679.9 169.29 680.69 169.63 681.12 169.82 681.85 170.22 683.63 170.62 683.87 171.12 684.48 171.69 684.92 171.67 684.95 172.71 684.33 172.53 683.81 173.22 684.16 173.62 684.07 174.16 684.61 174.3 685.21 173.87 686.08 174.09 686.61 173.95 687.07 174.18 687.12 174.97 688.19 174.86 689.41 176.1 690.2 176.56 692.36 177.26 693.05 177.31 693.24 177.37 694.11 177.56 694.16 177.57 695.1 177.83 695.27 177.9 696.1 178.19 696.52 178.38 697.66 178.99 698.05 179.21 698.14 179.26 699.25 179.93 699.77 180.24 700.14 180.45 701.89 181.45 702.81 181.9 703.32 182.16 703.75 182.44 704.58 183.15 704.66 183.27 705.14 184.13 705.69 184.45 706.39 184.82 706.27 185.77 705.74 187.28 705.8 187.67 705.58 189.18 705.35 189.32 705.25 190.29 705.31 191.32 704.73 192.01 703.9 193.43 703.06 194.01 702.36 193.86 702.12 192.9 700.09 192.99 699.58 193.93 700.03 194.12 700.06 195.55 699.24 196.45 699.38 197.73 699.93 197.59 700.18 197.07 700.95 197.51 700.52 197.78 700.32 198.36 699.92 198.55 700.11 199.81 699.37 199.91 699.95 201.18 699.44 201.55 699.6 202.4 700.12 202.61 700.29 203.71 699.04 202.96 698.83 204.11 699.17 204.16 699.09 205.08 699.45 205.51 699.91 205.41 700 206.1 700.75 207.12 700.96 207.93 700.85 208.47 699.98 208.06 699.65 208.63 699.92 209.24 698.81 208.87 697.86 209.29 698.76 210.42 698.24 210.72 697.66 211.7 697.75 212.37 697.43 212.68 698.14 213.87 698.26 215.76 699.4 216.07 699.55 215.58 700.17 215.12 699.73 214.76 700 214.25 700.66 214.37 701.93 214.93 703.21 217.01 702.99 217.5 702.03 217.42 701.36 216.89 700.63 216.84 700.07 216.31 699.2 216.89 698.21 216.39 697.16 216.5 696.14 216.92 695.44 218.12 694.25 216.75 693.63 216.2 692.78 215.83 691.68 216.2 690.42 214.94 689.07 214.62 688.05 213.32 686.9 213.77 686.3 213.11 686.16 212.51 684.95 211.81 685.17 211.28 686.61 210.42 686.41 209.72 686.07 209.69 685.8 208.9 685.21 208.26 684.4 208.42 683.51 209.52 684.4 210.4 683.92 210.74 683.13 212.1 682.11 213.25 682.87 213.36 682.63 214.07 682.26 214.47 681.45 214.66 681.28 214.35 680.04 213.36 679.52 212.59 679.15 212.51 678.8 211.57 678.93 210.9 678.98 209.37 678.77 208.03 678.3 206.96 676.98 205.96 676.51 204.65 675.64 203.89 675.44 202.44 674.94 201.18 674.02 199.53 672.5 199.42 670.88 198.17 670.72 197.67 669.29 197.5 670.04 197.02 670.09 196.2 669.4 196.14 668.63 195.63 667.81 196.74 667.14 195.5 666.08 194.89 665.04 193.32 663.87 193.68 663.04 193.71 661.91 192.55 661.08 192.09 660.71 192.15 660.6 191.44 660.2 190.55 659.25 189.93 659.49 188.73 658.84 188.04 658.61 187.5 656.9 187.13 656.91 185.96 656.57 184.79 655.56 183.34 653.73 181.76 652.64 181.89 652.13 181.17 651.63 180.86 650.5 181.05 650.14 180.76 648.84 178.78 649.14 178.18 648.52 176.01 648.09 176.15 647.54 175.69 646.79 174.7 644.83 174.69 644.25 173.98 644.06 173.26 644.25 172.46 643.96 171.37 643.48 170.84 643.54 169.82 643.14 169.03 642.58 166.77 641.8 164.72 641.26 165.02 641.39 166.12 642.15 168.5 642.4 169.61 641.94 170.09 641.6 169.56 641.16 170.26 642.39 172.79 642.04 174.2 641.71 174.54 641.54 175.28 642.62 176.23 643.66 176.34 644.89 176.02 646.24 176.54 645.27 178.75 645.97 178.84 646.99 179.93 647.95 180.67 647.92 180.91 648.71 182.37 649.16 182.87 649.79 183 650.55 182.88 651.11 183.45 651.57 184.48 652.15 184.54 653.06 185.15 654.16 185.3 654.22 186.49 655.12 188.08 655.33 189.06 656.46 190.03 656.78 190.87 657.06 191.07 656.93 191.72 657.16 192.32 657.89 193.33 658.38 193.62 660.03 196.61 661.03 197.79 661.82 198.08 663.47 197.99 664.24 198.12 665.12 198.7 664.86 199.22 664.88 200.43 665.5 201.53 666.74 202.01 668.99 202.07 670.05 202.33 670.91 202.76 670.59 203.41 670.99 204.4 672.2 205.1 673.09 205.97 673.03 206.94 673.21 208.05 673.94 208.74 674.03 209.8 674.87 211.14 674.86 211.35 673.92 212.04 675.43 213.12 675.14 213.96 675.88 214.71 676.26 215.32 677.06 215.78 677.83 217.21 679.31 218.23 679.93 218.36 682.06 218.25 683.21 218.08 684.78 218.31 685.93 218.21 686.58 218 687.32 218.07 688.75 217.98 688.97 219.81 689.27 220.98 690.56 221.76 691.19 221.61 693.4 222.59 695.15 222.59 695.97 222.45 698.35 222.83 699.46 223.35 699.98 223.87 700.81 223.57 701.43 223.74 701.65 224.22 701.21 224.98 700.36 225.58 699.59 225.61 698.78 225.41 698.45 226.22 697.89 226.03 697.74 226.59 696.9 226.82 696.3 226.71 695.72 227.07 695.99 229.58 696.64 230.57 698.2 230.59 698.63 231.11 699.04 232.3 699.46 232.82 700.03 232.84 700.65 231.75 701.81 230.22 701.79 229.21 702.69 229.34 703.38 230.07 704.15 231.74 704.3 232.58 703.43 232.7 702.23 232.05 702.33 231.61 700.98 231.65 700.8 232.41 701.47 232.5 701.68 232.98 703.62 233.98 703.53 235.03 704.41 235.44 704.82 236.07 705.48 236.03 705.89 236.53 705.83 237.61 706.28 238.42 706.39 240.18 706.83 243.4 706.89 245.24 705.85 247.23 705.34 247.81 704.66 248.05 704.43 248.76 704.71 250.28 704.35 250.43 704.79 251.12 704.55 253.03 702.37 251.47 701.29 251.23 700.75 249.34 700.11 249.51 698.58 247.53 698.43 246.99 697.39 246.33 696.78 246.58 695.67 246.02 695.28 245.32 694.99 245.35 693.9 244.9 693.3 244.21 692.76 242.83 692.52 241.09 692.05 240.88 691.2 240.97 690.92 242.01 691.03 242.86 690.71 243.38 690.94 243.82 691.12 245.5 691.62 246.08 691.62 246.8 691.18 246.85 690.32 246 689.81 245.32 688.98 245.55 687.7 245.4 687.7 244.74 686.75 244.7 686.18 245.6 686.2 247.16 687.24 248 687.95 247.81 688.39 247.13 689.29 248.53 690.2 248.97 690.65 249.82 692.29 250.34 692.05 251.02 691.48 250.96 691.12 251.47 691.46 252.26 690.66 252.51 690.27 252.21 689.07 252.39 689.06 253.35 690.91 254.04 691.62 254.03 692.76 253.32 693.2 253.37 693.79 253.87 693.03 254.54 693.39 255.05 694.45 255.72 694.39 256.48 694.79 256.54 695.03 257.14 697.28 257.36 697.11 258.07 696.38 258.53 694.81 258.61 693.77 259.19 693.22 258.99 692.55 259.11 691.21 259.06 690.62 259.41 690.7 260.28 690.11 260.48 689.65 260.06 687.35 260.67 686.77 260.96 685.58 260.96 685.03 260.42 684.06 261.07 682.96 261.6 682.59 262.29 683.72 263.38 684.05 263.92 685.04 264.26 686.18 264.98 687.67 264.66 689.43 264.55 690.92 264.02 691.94 264.09 694.18 263.61 693.43 264.7 693.39 265.28 692.79 265.95 693.67 266.87 693.9 267.53 693.84 268.93 693.65 269.73 693.02 269.21 692.32 269.69 692.31 270.66 691.95 271.31 693.62 271.73 694.89 271.92 695.18 272.5 695.92 272.54 696.22 272.1 695.69 271.79 695.58 271.35 696.23 270.72 696.91 270.38 697.95 270.31 698.65 271.46 698.75 272.41 699.55 273.14 700.62 273.49 701.11 273.91 701.57 273.92 702.5 274.77 703.09 275.57 702.64 276.12 702.54 276.66 703.1 277.16 703.49 277.3 704.13 278.02 704.65 278.14 705.18 278.91 705.5 279.73 705.31 280.54 704.92 281.34 704.55 283.17 703.61 285.98 702.98 289.1 702.62 290 701.89 290.13 701.61 288.91 700.83 288.84 699.13 288.44 698.46 289.46 697.68 289.93 697.13 290.01 695.69 290.68 695.15 291.12 693.94 292.45 693.48 293.35 692.82 294.04 692.61 294.77 691.72 294.68 691.24 294.4 690.29 293.24 688.61 290.7 689.01 290.24 688.96 289.56 688.28 288.82 688.2 288.46 687.36 287.25 684.37 285.31 682.76 284.12 682.16 284.03 681.41 283.19 681.35 281.35 679.75 280.14 679.68 279.59 678.85 279.02 678.42 277.92 677.44 277.31 677.16 277.91 677.83 278.29 677.94 279.21 678.42 279.61 679.07 281.05 678.27 281.01 677.85 281.47 677.49 280.81 676.82 280.21 676.29 279.32 674.67 278.19 674.47 277.61 673.42 277.32 672.57 276.58 672.32 275.86 671.86 275.79 672.23 274.77 672.13 274.02 672.65 273.82 673.78 271.87 673.46 270.84 672.95 270.57 672.6 269.66 672.28 268.1 671.25 266.4 670.17 265.32 669.33 264.76 668.38 264.51 666.08 264.56 665.24 264.51 664.35 265.3 661.63 265.94 660.05 265.63 659.09 265.6 658.95 265.97 661.32 267.02 660.79 267.6 660.58 268.28 659.88 268.59 659.19 268.42 658.54 267.58 657.64 266.74 657 266.37 655.72 263.8 655.2 263.4 652.98 262.39 652.02 262.59 650.31 262.77 649.22 262.6 648.51 262.64 648.1 261.71 648.66 261.48 648.66 260.45 647.94 260.45 647.33 260.85 646.93 261.41 645.86 261.7 645.84 262.29 645.18 262.67 644.29 262.54 643.88 263.3 643.96 263.65 642.5 263.14 641.82 263.29 641.08 264.11 641.21 264.44 642.49 265.45 643.21 265.83 644.44 266.99 645.48 267.7 646.57 267.72 648.94 266.55 651.51 266.73 651.74 266.86 653.41 266.91 655.06 266.79 654.94 267.71 655.49 268.75 656.17 268.94 656.59 269.34 656.86 270.05 658.85 271.21 659.84 272.55 660.24 273.26 661.23 273.76 661.89 273.84 663.31 273.5 664 272.22 664.12 271.45 664.43 270.8 664.92 270.35 665.33 268.95 665.4 267.9 665.91 267.62 666.77 268.64 667.52 269.21 668.12 270.35 667.68 271.2 667.43 272.15 667.56 272.99 667.46 274.12 667.89 274.31 668.16 275.2 668.11 276.08 668.33 276.92 668.92 277.91 668.84 279.45 667.99 281.9 667.81 283.84 668.18 284.98 668.87 285.88 670.13 286.59 670.85 286.67 673.35 286.6 674.49 286.88 675.79 287.36 676.62 288.15 676.81 288.92 676 290.03 676.47 291.1 677.35 290.94 677.62 290.35 678.09 290.26 679.21 290.81 680.24 292.06 680.87 292.4 681.75 292.55 682.14 293.8 682.88 294.39 684.54 294.72 685.46 295.69 685.37 296.19 685.6 297.82 684.67 297.5 684.31 297.97 684.27 298.93 684.87 299.9 685.28 299.81 686.17 300.68 685.91 302.82 685 303.36 685.17 304.63 686.14 304.93 686.87 304.41 688.67 304.2 688.72 303.17 689.31 301.92 689.85 301.56 690.84 301.73 693.17 302.51 694.72 302.68 695 302.22 695.1 299.42 695.26 299.27 697.89 299.26 698.08 299.41 698.55 302.64 699.52 302.81 699.55 303.91 698.5 304.46 698.89 305.95 699.32 306.24 699.46 306.78 698 307.21 697.9 307.72 697.11 308.97 696.46 309.64 696.8 309.9 697.96 309.65 697.88 309.1 699.05 307.74 699.67 307.44 701.68 307.01 702.77 308.2 703.19 308.09 703.27 307.53 702.79 307.22 702.69 306.65 700.82 305.15 700.74 304.87 701.3 303.78 701.86 303.41 701.97 301.71 703.1 301.57 703.88 302.06 704.45 301.54 703.02 300.83 702.82 300.99 701.59 300.65 701.31 300.76 701.13 301.56 700.84 301.59 700.4 298.26 700.33 297.07 700.7 294.56 701.11 294.65 701.23 295.19 701.65 295.47 703.11 295.31 703.28 294.22 703.49 293.81 705.03 293.84 706.18 294.27 708.01 295.45 709.36 296.49 710.64 297.12 713.67 298 714.9 298.13 718.48 298.87 720.01 299.5 722.71 300.44 723.19 300.55 723.92 300.01 726.23 299.39 727.76 297.82 729.17 297.51 730.99 297.83 732.09 298.63 732.48 299.34 732.74 300.59 734.64 308 735.37 311.51 737.05 317.53 739.93 325.63 740.81 327.83 741.57 329.37 743.07 332.79 744.83 338.29 745.56 342.23 Z M 761.29 174.17 761.61 173.81 761.93 172.91 762.41 172.63 762.68 171.77 763.32 171.39 763.42 170.86 778.77 168.68 784.47 167.92 795.07 166.33 799 165.79 797.58 168.13 794.07 174.28 793.26 175.92 791.94 178.91 790.83 181.63 789.88 183.7 788.8 185.32 787.78 186.01 786.7 187.02 785.98 186.46 785.83 185.52 785.4 184.58 785.93 184.08 786.37 184.13 787.71 185.2 788.43 185.07 789.56 183.71 789.86 182.16 789.03 182.25 787.88 182.04 786.54 182.08 786.06 181.33 784.82 181.52 784.18 181.4 783.7 181.72 783.28 182.47 781.93 184.34 781.2 184.67 779.91 185.78 776.68 189.57 774.63 192.61 773.33 194.86 772.12 197.45 771.13 199.73 770.14 201.14 769.74 202.29 769.03 204.91 768.64 205.9 767.83 206.57 767.94 207.3 767.73 208.38 767.79 209.39 767.1 213.02 766.71 214.08 765.97 215.25 765.77 216.33 765.8 218.11 766.05 220.11 766.97 220.09 767.26 220.77 766.65 221.73 765.12 224.37 763.23 227.49 761.7 230.49 761.05 231.26 760.74 231.34 759.91 230.76 759.6 230.95 759.49 231.98 759.06 232.59 759.49 233.55 760.31 234.19 761.4 233.79 761.72 233.98 761.96 234.72 761.91 236.07 760.71 237.49 758.88 240.74 757.57 243.47 756.91 244.67 756.47 245.09 756.05 246.08 755.64 247.97 754.63 249.89 753.4 251.64 752.3 252.97 751.69 253.51 750.9 253.1 750.07 253.2 749.65 253.87 750.22 255.53 750.05 257.85 749.6 259.22 748.39 259.55 747.85 260.07 748.33 260.95 749.27 260.68 749.66 261.57 749.55 262.83 748.98 263.36 747.76 263.75 746.96 264.48 746.96 264.83 747.79 264.91 748 265.4 747.82 266.13 746.45 267.56 746.49 268.35 745.62 269.04 744.25 270.5 742.72 272.73 740.72 275.14 739.97 275.62 738.6 276 739.47 274.66 737.9 273.83 737.05 274.38 735.35 275.15 734.38 275.27 733.94 275.49 733.91 274.11 733.21 271.1 732.69 270.09 732.16 269.71 732.03 268.95 731 267.1 729.86 265.79 729.59 265.1 729.56 263.24 729.8 261.77 729.31 261.5 728.22 259.06 728.38 257.68 728.7 257.07 729.36 256.42 729.01 255.25 729.49 254.59 728.68 254.34 728.48 253.95 728.7 251.9 729.26 249.99 730.31 248.41 731.36 246 731.8 245.65 731.59 245.23 731.56 244.21 732.66 243.78 733 243.12 733.26 242.07 732.56 241.5 732.07 241.54 731.74 240.22 731.99 237.55 732.27 236.77 732.81 235.95 732.98 235.24 733.89 233.81 733.39 233.13 733.46 231.95 733.74 230.19 734.51 227.59 735.38 226.07 735.59 225.11 736.08 224.15 735.22 223.25 735.2 222.61 736.01 220.73 737.35 219.95 736.58 218.73 736.91 217.68 737.38 217.08 737.98 215.57 738.66 215.23 738.9 215.83 738.84 216.4 739.16 217.3 739.61 217.69 740.62 217.33 741.15 216.4 740.59 215.85 740.3 214.41 739.55 213.78 739.98 211.91 740.96 211.83 740.91 211 741.69 210.08 741.98 210.01 742.85 210.46 743.43 210.27 743.81 209.84 743.67 209.07 743.18 208.98 743.15 208.01 743.75 206.39 744.5 206.03 744.61 205.07 745.29 204.62 745.8 203.98 746.11 204.13 746.82 203.5 747.06 204.09 748.39 202.96 747.83 202.23 745.48 202.88 744.91 202.9 745.11 202.08 745.76 201.25 746.7 200.32 747.06 200.72 748.53 200.13 749.01 199.35 749.01 198.65 748.7 198.4 747.74 198.86 747.84 197.72 747.33 196.52 746.92 196.39 746.63 196.87 746.17 195.62 746.53 194.97 746.87 195.02 747.69 194.45 748.27 193.77 749.09 193.47 750.41 193.69 751.69 194.79 752.17 195.52 752.95 195.81 753.27 195.58 753.97 195.79 754.42 195.54 754.63 194.54 755.3 194.88 755.34 194.12 755.16 193.33 755.15 191.66 755.35 190.81 756.35 190.74 755.92 189.82 756.3 189.21 756.02 189 756.59 188.17 757.12 188.25 757.26 189.23 757.93 189.7 758.95 189.54 758.64 188.77 759.46 187.94 757.84 186.97 757.47 186 758.64 185.08 758.52 184.52 758.7 183.53 757.81 183.7 756.88 183.17 757.66 182.73 757.77 182.3 756.97 181.99 755.95 182.2 754.76 182.04 753.94 182.49 753.26 182.67 753.45 181.57 752.8 181.49 752.57 180.91 753.9 179.77 754.75 178.2 755.4 177.74 755.56 178.25 756.18 178.8 757.14 178.61 758.52 177.11 759.77 177.74 761.18 177.92 761.88 177.76 762.44 176.64 762.39 175.46 761.95 174.57 761.29 174.17 Z M 724.15 176.8 728.98 176.69 728.65 177.62 728.1 177.08 726.86 177.58 726.52 178.31 726.99 179.54 726.18 179.87 725.76 180.53 725.45 179.17 726.09 177.92 725.71 177.06 724.94 177.01 724.51 177.27 724.15 176.8 Z M 741.81 208.3 742.11 207.39 742.7 207.52 742.64 208.26 741.81 208.3 Z M 732.97 277.89 733.23 277.15 734.73 276.61 736.15 277.1 736.58 277.68 736.42 278.87 735.97 279.17 734.32 279.33 733.9 279.25 733.21 278.61 732.97 277.89 Z M 728.88 191.57 728.88 189.48 729.45 189.05 729.9 189.96 730.76 190.65 731.28 190.81 731.08 191.47 730.01 192.73 729.26 193.35 728.94 192.65 728.88 191.57 Z M 727.91 186.26 728.29 186.52 728.69 187.31 728.49 187.53 727.91 186.26 Z" fill-rule="evenodd" fill="none" stroke="currentColor" stroke-width="46.400"/>
</g>
</svg>