<?xml version="1.0"?>
<svg width="20" height="20" xmlns="http://www.w3.org/2000/svg" version="1.2" baseProfile="tiny" viewBox="-64.000 -324.500 928.000 928.000" stroke-linecap="round" stroke-linejoin="round">
<g id="state">
<path d="M 739.84 276.9 734.13 276.88 726.94 276.9 720.53 276.88 704 276.9 691.65 276.88 676.03 276.88 655.85 276.87 649.76 276.83 640.69 276.74 640.64 277.52 622.94 277.45 620.88 277.5 618.22 277.5 616.55 277.2 614.7 277.28 613.14 277.47 608.02 277.44 599.4 277.42 591.81 277.43 584.42 277.4 576.77 277.4 561.73 277.37 549.05 277.44 538.52 277.47 533.68 277.55 528.06 277.54 523.06 277.48 514.68 277.46 494.82 277.65 489.67 277.79 479.31 277.76 474.18 277.68 465.47 277.72 449.71 277.68 436.8 277.69 431.62 277.73 430.34 277.7 422.83 277.73 419.73 277.78 416.88 277.75 410.57 277.74 409.09 277.77 405.5 277.74 401.22 277.76 400.08 277.79 394.82 277.8 392.12 277.81 386.2 277.74 375.78 277.7 361.52 277.64 355.11 277.63 348.75 277.66 337.24 277.64 325.73 277.51 320.87 277.5 307.13 276.88 295.48 276.34 286.97 276.07 282.12 275.78 279.69 275.77 275.55 275.96 273.14 275.89 269.5 276.08 263.78 275.83 260.63 275.77 257.97 275.66 253.81 275.65 249.93 275.38 245.8 275.3 242.8 275.13 241.13 275.11 237.98 274.96 237.43 274.87 231.89 274.79 229.34 274.68 225.08 274.58 219.79 274.62 217.4 274.57 212.24 274.4 210.79 274.29 204.93 274.05 197.35 273.44 190.06 273.33 192.95 271.08 184.44 271.04 181.17 270.98 173.84 270.8 166.86 270.67 165.77 272.76 158.19 272.73 155.11 272.74 149.87 272.7 143.46 272.72 139.26 272.6 135.54 272.63 131.74 272.62 124.67 272.68 119.56 272.68 115.48 272.73 113.46 272.6 100.62 272.8 89.54 272.81 78.89 272.81 75.42 272.83 64.41 272.79 53.09 272.77 48.27 272.79 40.2 272.79 38.76 272.38 29.87 272.45 20.24 272.47 12.21 272.46 6.05 272.4 3.82 272.21 1 272.13 1.23 271.76 2.12 271.55 2.74 270.97 3.47 270.62 3.58 270.05 4.28 269.87 4.83 270.04 5.86 269.79 6.41 269.5 6.82 268.91 7.84 268.69 9.34 268.21 10.17 268.25 11.18 267.85 11.69 267.36 13.45 266.96 14.49 266.38 14.53 266.09 16.45 265.62 16.72 265.7 18.28 265.57 19.36 265.97 20.39 266.07 21.98 266.08 22.94 265.85 23.62 265.94 25.29 265.71 27.48 264.88 27.45 264.69 28.31 264.01 29.79 263.63 30.37 263.3 31.01 263.34 32.01 262.73 33.21 262.49 35.6 261.74 36.91 261.46 37.63 261.45 40.69 260.66 41.68 260.29 42.06 260.3 43.74 259.88 46.53 259.01 48.36 259.04 49.01 258.9 49.47 259.03 50.1 258.81 52.12 258.71 52.6 258.06 52.74 257.09 52.33 255.98 52.7 255.57 52.32 254.93 52.62 254.62 53.21 254.56 53.66 254.26 54.44 253.24 55.04 252.9 55.21 252.22 55.59 252 55.58 251.01 55.28 250.73 55.46 250.34 56.31 250.01 56.63 249.67 57.79 249.43 57.9 248.95 57.73 248.49 58.02 248.13 58.58 248.37 59.16 248.18 60.39 248.39 61.03 248.08 61.53 248.16 62.42 248.04 62.84 248.56 63.73 248.84 64.29 248.77 65.04 247.93 65.95 247.69 66.85 247.63 67.82 247.79 68.56 247.37 69.48 247.03 70.81 246.91 71.2 246.61 71.69 246.62 72.22 246.3 73.63 246.21 73.62 245.83 75.38 245.27 75.84 244.91 76.35 244.84 76.41 244.37 77.4 243.82 76.51 243.02 77.04 242.54 78.38 241.09 77.94 239.91 78.17 239.17 78.55 238.8 77.58 238.28 77.12 237.34 77.49 236.42 77.89 236.23 78.44 236.36 78.75 235.76 79.58 235.89 80.27 235.58 80.99 234.87 81.12 233.81 81.73 233.96 82.34 233.66 83.46 233.67 84.13 233.5 84.44 233.84 84.92 233.54 85.46 233.62 85.98 232.85 86.5 232.87 87.02 232.17 87.72 231.76 88.77 232.04 89.25 230.31 90.13 230.14 90.93 230.34 91.18 230.1 91.2 228.87 90.83 228.03 90.79 227.41 91.59 227.17 91.55 226.7 91.14 226.33 91.21 224.41 90.77 223.49 91.27 222.92 91.87 222.83 94 221.77 94.92 221.4 95.49 221.59 96.3 220.98 97.47 220.57 97.58 220.13 98.16 220.13 98.98 219.82 99.55 219.77 100.53 218.8 101.57 218.3 102.15 217.89 103 217.6 103.53 217.02 105.55 216.11 107.49 215 107.89 215.13 108.31 214.81 109.07 214.81 109.21 214.25 109.74 214.05 110.09 214.24 111.2 213.7 111.43 213.29 112.32 212.88 113.01 213.07 113.51 212.48 114.78 212.06 115.57 212.03 116.27 211.8 117.13 211.26 117.59 211.32 117.95 210.97 118.57 211.03 120.56 210.37 120.88 210.39 123.25 209.74 123.89 209.76 125.02 209.35 125.88 209.25 126.54 208.97 126.51 208.63 127.17 208.4 127 207.79 128.81 207.57 129.24 207.25 129.67 206.43 134.15 203.32 139.46 199.58 147.81 193.85 153.66 189.74 154.74 188.88 157.42 187.04 162.57 183.44 162.67 183.93 163.56 183.68 163.57 184.24 164.5 184.51 164.89 185.17 164.76 185.74 165.22 185.85 165.72 185.22 166.43 185.59 166.38 185.9 164.93 186.23 164.85 186.77 163.89 187.06 163.91 187.85 162.95 187.66 161.66 188.5 160.5 188.47 159.86 189.25 159.95 189.9 160.21 190.03 160.27 190.74 160.91 191.36 161.79 191.09 162.49 191.63 162.57 192.1 163.62 191.94 164.35 192.19 164.67 192.7 165.63 192.87 165.17 193.76 165.42 194.6 165.93 195.07 166.62 195.39 166.68 195.78 166.16 196 166.28 197.09 165.8 197.39 166.02 197.77 165.62 198.1 165.61 198.53 166 198.68 165.84 199.41 166.54 199.78 166.31 200.21 166.61 200.58 167.58 201.28 168.04 201.34 168.33 201.93 168.96 201.99 169.61 203.14 169.84 202.98 170.72 203.11 171.45 203.45 171.87 204.03 172.76 204.48 172.25 205.07 172.86 205.51 173.31 205.35 173.52 206.28 173.4 207.13 174.04 207.42 174.82 207.27 175.19 207.66 176.02 207.93 176.93 207.86 178.16 207.3 179.56 207.45 180.42 207.86 180.42 208.11 181.41 208.49 182.54 208.23 182.48 208.94 183.57 209.43 183.6 209.93 184.06 210.3 183.73 211.31 184.13 211.86 184.96 211.64 185.75 211.6 186.39 212.18 186.44 212.71 187.99 213.55 188.43 214.17 189.04 214.15 189.45 214.45 189.51 214.9 189.99 215.29 201.1 214.8 201.76 214.62 202.4 213.91 202.53 213.54 203.91 213.05 204.81 212.88 205.9 212.39 206.21 212.12 206.24 211.15 206.56 210.41 206.92 210.02 207.28 210.49 208.41 210.64 209.14 210.16 210.44 209.76 210.59 209.25 211.17 209.09 212.02 208.58 212.58 208.72 212.8 208.42 213.67 208.71 214.73 208.5 214.81 207.96 215.22 207.83 215.96 206.29 215.84 206.08 216.62 205.54 216.49 204.95 216.86 204.42 217.77 204.21 218.2 204.29 218.92 204.03 219.39 203.42 219.2 203.01 219.59 202.4 219.9 202.4 223.86 206.02 226.52 207.83 230.99 210.83 232.87 212.13 234.79 211.36 237.19 210.01 238.36 209.48 240.69 208.89 241.53 208.58 244.31 207.8 246.22 207.44 246.99 207.4 249.16 207.05 250.75 206.89 252.09 206.52 253.2 206.37 255.37 205.84 256.15 205.91 255.94 206.59 256.64 206.78 258.8 206.44 260.69 205.7 261.81 205.39 263.82 204.38 265.52 203.23 266.55 202.33 268.42 201.53 265.22 198.03 267.13 195.42 266.89 194.86 267.08 194.22 267.47 193.71 268.71 194.29 269.21 194.03 269.65 194.24 272.51 196.15 272.5 196.67 273.05 196.89 274.59 197.02 274.69 197.42 275.3 198.05 275.93 199.12 276.89 198.88 277.95 198.39 278.45 198.41 280.37 197.61 281.05 197.43 283.11 196.51 285 195.56 287.68 194.41 288.52 193.91 289.01 193.46 289.88 193.35 289.93 193.1 292.84 191.64 293.36 191.14 296.56 189.54 297.99 189.5 298.42 189.21 299.26 189.23 299.94 189.08 300.41 188.78 302.15 191.04 301.74 192.27 301.97 193.19 303.79 194.33 304.81 194.03 305.52 193.45 306.88 192.9 308.52 191.78 310.68 190.8 312.6 189.85 313.6 189.5 314.43 188.93 314.09 188.47 316.27 187.79 317.38 187.63 319.53 186.77 320.43 186.26 322.08 183.87 321.2 183.59 319.53 184.45 317.54 183.61 317.81 183.24 318.38 183.13 319.24 182.67 317.71 180.96 320.89 179.59 321.98 178.98 324.3 178.01 325.16 177.38 326.06 176.92 327.41 175.68 327.89 174.95 326.01 173.95 323.49 173.21 322.36 172.18 320.78 168.9 321.63 168.46 322.63 167.59 323.06 167.03 323.42 166.9 323.82 166.31 324.37 166.17 324.95 165.29 324.23 164.99 323.93 164.49 324.26 163.86 324.44 162.81 325.06 162.86 325.29 161.66 325.95 161.68 326.01 161.26 326.48 161.2 327.26 160.65 328.39 160.78 328.37 160.36 327.7 159.95 327.08 159.38 327.31 158.76 328.11 157.73 329.26 157.14 329.6 156.36 330.54 155.37 331.82 154.89 331.43 154.13 331.59 153.66 332.56 153.07 332.52 152.77 333.45 151.54 334.3 150.87 335.49 150.71 336.31 150.18 336.52 149.74 337.53 149 337.74 148.6 338.65 148.01 339.06 147.4 339.66 147.48 340.18 146.64 340.8 146.03 341.66 145.44 342.23 144.89 343.49 144.27 344.36 143.51 345.31 142.95 345.39 142.73 346.85 141.55 347.55 141.22 347.96 140.6 348.87 140.18 349.19 139.18 349.73 138.47 350.11 138.39 350.16 137.91 350.66 137.12 351.14 136.88 351.27 135.94 352.01 134.92 352.57 133.81 352.43 133.35 352.8 132.91 353.2 132.02 353.79 131.68 354.25 131.06 355.02 130.48 355.77 129.59 354.58 129.16 354.34 128.62 354.37 127.87 353.99 127.24 354.53 126.94 355.05 126.92 355.51 126.5 355.55 126.01 355.87 125.49 356.4 125.2 356.84 123.82 356.47 123.46 356.69 122.88 356.27 122.67 356.9 121.9 357.54 121.94 358.51 121.43 359.03 120.39 359.84 120.15 361.29 118.96 362.35 117.85 362.96 117.65 363.59 116.87 364.4 116.84 364.82 116.1 365.74 116.23 366.32 115.92 366.24 115.59 366.67 115.09 367.11 115.2 368.77 114.3 368.99 113.72 368.16 112.26 367.51 112.11 367.34 111.47 366.78 110.9 366.9 110.45 367.76 109.72 368.08 109.11 370.27 107.98 370.79 107.15 370.53 106.82 370.94 106.49 371.11 105.98 371.73 105.89 373.14 106.29 373.88 106.08 374.15 105.65 374.63 105.45 374.57 104.55 374.19 104.32 374.69 103.1 375.04 102.87 375.54 101.73 376.25 101.1 376.56 100.39 377.21 99.81 377.49 99.34 378.17 98.9 377.97 98.37 378.18 97.84 378 97.45 378.31 97.1 378.03 95.84 377.22 94.88 377.74 94.47 377.42 93.62 377.71 92.96 378.29 92.77 378.82 92.26 379.04 91.41 379.64 91.43 380.64 91.08 380.71 90.68 380.33 90.11 379.75 89.7 380.32 88.76 379.96 88.6 380.07 87.6 380.49 86.65 381.04 86.51 380.7 85.75 381.33 85.22 381.36 84.71 382.01 83.75 389.23 86.41 390.94 86.74 391.79 87.25 392.62 87.59 392.92 88.13 393.59 88.9 394.05 89.17 396.26 92.84 398.32 96.46 408.4 99.3 413.88 100.75 414.61 100.41 415.03 100.47 415.41 100.14 416.13 99.89 416.6 100.17 416.96 99.58 416.71 98.87 418.23 98.14 418.72 97.33 419.11 97.09 419.35 96.58 420.01 96.83 420.49 96.72 420.52 95.72 420.73 95.24 422.07 94.64 422.52 94.25 422.48 93.85 423.5 93.08 423.82 92.05 423.47 91.71 423.95 90.09 424.36 89.78 425.12 88.4 425.99 87.56 426.31 86.74 426.71 86.21 427.25 85.97 427.18 85.58 427.57 84.86 427.96 84.58 428.45 83.6 428.37 82.83 428.79 82.39 428.71 81.96 429.1 81.04 429.62 80.41 429.93 79.69 430.41 79.35 431.03 77.91 432.05 77.25 432.93 77.32 433.3 77.61 434.66 77.23 434.7 76.5 435.08 76.05 435.45 74.76 434.82 74.16 434.63 73.3 435.24 71.97 435.27 71.32 435.82 70.41 435.95 69.97 436.44 69.5 436.56 68.99 438.01 67.68 438.16 66.78 438.55 66.62 438.54 66.1 438.23 65.38 438.95 64.8 440.66 64.87 441.25 64.16 441.19 63.1 441.55 62.92 441.58 62.33 442.68 61.91 443.21 60.57 443.52 60.23 443.4 59.73 444.02 59.29 455.8 67.53 457.13 65.58 457.64 64.69 459.05 62.89 459.36 62.61 460.84 60.29 461.58 58.71 462.67 57.06 463.15 56.68 463.49 55.97 464.32 55.29 464.93 55.15 465.25 54.84 466.23 54.51 467.05 53.46 467.04 53.04 467.61 52.65 468.16 51.97 470.07 51.32 469.84 53.6 470.05 54.13 471.41 53.12 472.04 53.21 472.93 52.22 473.67 52.17 474.59 51.36 475.05 50.63 475.69 50.08 476.33 48.82 476.87 48.11 477.64 48.24 478.48 46.91 479.34 46.74 479.51 47.55 480.22 47.36 480.31 47.89 481.12 48.45 481.38 47.98 481.92 47.76 482.99 46.2 484.21 44.82 484.82 44.42 485.12 43.97 485.97 43.39 485.16 42.83 484.51 42.61 483.94 42.07 485.37 40.88 485.61 40.55 486.94 39.36 488.23 38.64 489.15 37.76 489.18 37.36 491.12 35.73 491.2 35.54 492.23 34.94 492.84 34.73 493.28 34.86 493.9 34.42 494.59 34.28 496.47 32.59 496.74 31.69 497.62 30.65 498.89 30.11 499.76 29.3 499.55 28.93 498.41 28.32 497.49 27.38 497.29 26.53 496.54 26.35 497.33 25.52 498.26 24.77 499.69 23.17 499.81 22.27 500.24 22.02 499.34 21.2 498.37 20.73 499.94 19.03 499.93 18.73 500.83 18.32 501.41 17.34 502.6 16.22 503.31 15.75 503.94 15.04 505.29 13.01 505.24 12.52 505.95 12.11 505.84 11.63 505.04 11.53 503.34 11.1 504.74 9.6 505.58 8.31 504.82 8.06 504.95 7.44 504.19 6.85 504 6.39 504.27 5.67 504.82 5.3 505.25 4.63 504.63 3.77 505.15 3.41 505.37 1.58 505.21 1 508.96 3.39 510.9 4.58 513.19 5.89 514.88 7.02 518.52 9.54 520.33 10.65 523.04 12.57 524.68 13.49 527.81 15.56 529.2 16.42 533.21 18.99 535.25 20.27 545.68 27.01 554.31 32.57 554.89 31.84 554.78 31.4 554.94 30.73 555.69 29.54 556.41 28.85 556.66 27.98 557.19 26.73 557.16 26.11 558.04 24.77 558.26 24.14 559.69 22.72 560.08 21.46 559.76 20.94 560.49 20.66 561.06 19.16 561.42 18.85 561.46 18.28 561.94 17.2 562.81 15.93 563.54 15.23 564.48 14.91 564.58 14.71 565.72 14.65 566.75 14.95 567.72 14.8 568.18 14.45 568.77 14.4 569.51 14.97 571.7 15.86 572.74 15.99 574.43 16.47 575.25 16.36 575.99 16.53 576.97 16.56 577.93 16.22 578.9 16.11 579.45 16.42 579.54 17.84 580.22 18.45 580.56 19.01 581.51 20 582.44 20.39 583.42 20.64 584.36 21.13 585.51 21.29 586.82 21.81 587.23 22.28 588.11 22.93 589.09 23.45 589.37 23.81 589.08 24.46 587.94 25.28 587.64 26 587.58 26.95 587.15 27.32 584.66 27.94 583.7 29.07 583.36 29.78 583.07 30.89 582.79 31.19 582.82 32.27 583.04 33.01 583.63 33.76 586.33 34.56 587.17 35.1 587.94 36.28 588.31 36.61 588.32 37.02 589.1 38.02 589.66 38.21 590.89 38.35 592.94 38.82 594.93 38.98 596.08 39.21 597.85 39.27 598.4 39.18 600.31 39.14 601.06 39.3 601.62 39.64 602.39 40.03 603.86 40.24 604.95 40.7 606.66 41.85 608.62 42.3 609.38 42.76 609.33 43.69 608.72 44.23 608.48 44.91 608.75 45.52 609.17 45.81 609.5 46.73 610.46 47.37 611.04 47.11 611.49 47.73 612.67 48 612.99 47.91 613.97 48.25 615.69 48.1 616.5 48.27 617.02 48.15 618.47 48.37 618.96 48.59 619.86 49.48 620.56 50.69 621.35 51.31 621.71 51.9 622.55 52.65 622.94 53.35 623.83 54 624.49 54.28 626.02 54.46 626.28 54.61 626.61 55.61 627.08 56.36 627.56 56.48 628.03 57.28 628.58 57.01 629.06 57.64 629.14 58.23 629.58 58.82 629.65 59.27 629.41 60.23 628.45 60.22 628.43 60.68 629.11 61.26 628.8 61.82 629.15 62.65 628.96 64.82 628.77 65.4 628.71 69.07 628.76 71.04 628.59 71.74 627.67 72.55 625.93 72.54 625.13 72.29 624.96 72.74 624.27 73.01 623.36 73.59 622.84 73.73 621.08 74.88 620.15 75.93 619.78 78.2 619.79 78.48 620.4 79.64 618.72 79.63 617.73 79.46 616.7 80.54 616.16 80.65 615.63 80.75 615.43 80.87 615.37 80.89 615.1 80.91 615.09 80.92 614.77 81 614.18 81.11 613.99 81.11 613.89 81.13 613.71 81.18 613.59 81.27 613.41 81.23 613.23 80.49 612.72 80.11 612.35 79.36 612.94 79.39 613.44 79.15 614.4 78.13 613.97 77.63 613.43 77.41 612.77 77.6 611.42 77.49 611.29 77.25 610.55 77.15 610.61 77.59 611.11 77.98 611.5 78.6 611.08 79.36 610.52 79.49 610.12 79.27 609.34 79.62 609.13 80.24 609.49 80.99 609.03 82.37 608.56 82.64 608.42 83.04 609.31 83.84 608.53 84.19 608.28 84.52 607.72 84.36 607.58 84.81 608 86.23 608.36 86.62 607.93 87.03 607.86 87.09 607.71 87.17 606.74 87.71 606.51 87.95 606.54 88.66 606.37 88.87 606.18 89.22 605.67 89.51 605.88 90 605.59 90.47 605.58 90.51 605.39 90.6 605.36 90.63 605.23 90.81 605.14 90.92 604.51 91.01 604.53 91.88 604.44 91.98 603.42 92.79 603.33 93.1 603.33 93.15 603.32 93.18 602.71 94.56 602.69 94.63 602.62 94.75 602.56 94.86 602.16 95.52 601.81 97.75 602.14 98.68 602.16 98.93 602.2 99.1 602.28 99.24 602.39 99.67 602.44 99.94 603.28 102.1 602.69 102.3 602.84 102.92 602.66 103.43 603.83 104.22 603.9 104.24 604.32 104.51 604.64 104.72 605.01 105.28 605.15 105.42 605.42 105.75 605.43 105.78 605.49 106.27 605.5 106.33 605.4 106.47 605.63 106.92 606.04 107.39 606.49 107.73 606.59 107.78 607.65 108.27 609.01 108.34 609.13 108.35 609.97 108.41 611.08 108.17 613.34 107.52 615.64 107.45 617.22 107.01 617.26 107 617.31 106.97 617.7 106.75 618 106.51 618.36 106.18 618.89 105.52 619.6 104.92 619.62 104.91 621.16 104.98 621.54 104.92 622.31 104.77 623.4 104.83 623.59 104.89 623.76 104.93 624.16 104.97 624.48 104.91 624.96 104.71 624.99 104.7 625.41 104.45 625.71 104.21 626.31 103.6 626.99 102.74 627.63 101.99 628.1 101.93 628.76 101.86 629.84 102.74 630.05 102.9 630.49 103.27 630.59 103.37 630.63 103.4 630.66 103.44 630.67 103.44 630.69 103.46 631.57 104.28 631.18 104.62 631.2 104.81 631.3 105.73 631.3 106.17 631.28 106.29 631.21 106.67 631.13 107.11 631.12 107.17 631.12 107.49 631.15 107.57 631.28 108.24 630.7 108.57 630.63 109.03 629.67 109.51 628.94 109.56 628.68 109.21 627.54 109.17 627.22 109.39 627.77 109.9 628.62 110.44 629.78 110.24 629.99 110.71 630.06 110.86 630.5 111.29 631.05 111.47 631.75 112.4 632.41 112.98 632.45 113.01 632.59 113.6 633.55 113.83 633.62 113.8 633.99 113.77 634.33 113.75 634.77 114.04 635.25 114.48 635.49 114.64 635.87 115.04 636.33 115.63 636.53 116.35 636.75 117 636.76 117.33 636.69 117.49 636.67 117.54 636.55 117.69 636.51 117.72 635.78 118.23 636.25 119.47 638.64 120.58 639.25 120.69 640.06 120.72 640.08 120.73 640.54 120.82 640.73 120.91 640.97 121.01 641.09 121.06 641.26 121.17 641.49 121.33 641.74 121.52 642.08 121.81 642.36 122.01 643.24 122.56 643.43 122.71 643.8 123.04 644.31 123.33 644.65 123.45 644.99 123.5 645.98 123.55 646.03 123.55 646.17 123.71 646.2 123.76 646.43 123.87 646.44 123.87 646.71 123.92 646.78 123.92 646.9 123.93 646.96 123.94 647.37 124.06 647.9 124.25 648.49 124.27 649.24 124.25 649.38 124.23 649.78 124.15 650.31 123.99 650.37 123.97 650.44 123.97 650.72 123.94 651.21 123.83 651.56 123.76 651.6 123.75 651.84 123.79 651.93 123.8 652.19 123.77 652.65 123.72 652.77 123.73 653 123.76 653.03 123.77 654.02 123.91 655.38 123.96 655.88 124.18 656.88 125 657.45 125.75 657.45 127.03 658.37 127.27 659.02 126.7 660.26 126 660.69 125.6 661.01 124.57 662.05 124.57 662.51 124.92 663.58 125.3 664.38 125.76 665.18 126.92 665.63 127.05 666.35 127.63 666.78 128.19 667.46 127.68 667.05 126.92 667.15 126.54 666.69 126.3 666.43 125.7 666.85 125.39 667.75 125.24 668.2 125.46 669.4 125.66 669.24 126.17 669.46 126.74 670.13 127.4 670.46 128.88 670.45 129.31 671.44 129.95 671.77 130.15 672.16 130.48 672.45 130.73 672.96 130.92 673.02 130.95 673.85 131.35 674.58 131.6 674.81 131.74 674.87 131.79 676.03 132.46 676.46 132.58 676.67 133.05 676.66 133.49 677.51 134.7 677.98 135.34 677.27 135.35 676.19 136.03 675.23 135.89 675.31 136.85 674.7 137.1 675.07 137.55 675.46 137.45 676.54 137.75 676.9 137.27 677.78 137.5 678.47 137.25 679.25 137.54 679.68 137.7 680.41 138.03 682.2 138.38 682.44 138.78 683.04 139.25 683.48 139.24 683.49 140.08 682.86 139.92 682.33 140.46 682.67 140.79 682.57 141.22 683.11 141.34 683.72 141.01 684.61 141.2 685.15 141.1 685.6 141.29 685.64 141.92 686.72 141.85 687.92 142.87 688.71 143.25 690.88 143.85 691.58 143.9 691.76 143.96 692.64 144.12 692.69 144.13 693.63 144.36 693.81 144.41 694.63 144.67 695.05 144.82 696.19 145.34 696.58 145.52 696.67 145.56 697.77 146.12 698.3 146.38 698.66 146.55 700.4 147.38 701.33 147.76 701.83 147.98 702.25 148.21 703.07 148.8 703.16 148.89 703.62 149.59 704.16 149.85 704.86 150.16 704.72 150.93 704.15 152.12 704.2 152.43 703.94 153.64 703.7 153.75 703.58 154.52 703.61 155.34 703.01 155.89 702.14 157.01 701.28 157.46 700.57 157.32 700.36 156.54 698.3 156.58 697.77 157.32 698.22 157.48 698.21 158.63 697.37 159.33 697.48 160.36 698.03 160.26 698.3 159.84 699.07 160.21 698.63 160.42 698.41 160.88 698 161.02 698.16 162.04 697.41 162.1 697.96 163.13 697.45 163.41 697.58 164.1 698.11 164.28 698.25 165.16 697.01 164.54 696.77 165.45 697.11 165.5 697.01 166.23 697.36 166.58 697.82 166.51 697.9 167.06 698.63 167.9 698.82 168.55 698.7 168.97 697.83 168.64 697.49 169.08 697.74 169.58 696.64 169.26 695.67 169.58 696.55 170.5 696.02 170.73 695.41 171.5 695.49 172.03 695.15 172.28 695.85 173.24 695.92 174.76 697.05 175.03 697.22 174.64 697.85 174.28 697.43 173.99 697.7 173.59 698.37 173.69 699.63 174.16 700.87 175.85 700.64 176.24 699.67 176.16 699.01 175.72 698.28 175.67 697.73 175.23 696.84 175.68 695.85 175.26 694.79 175.33 693.76 175.65 693.03 176.6 691.86 175.48 691.25 175.02 690.41 174.71 689.29 174.99 688.05 173.96 686.71 173.68 685.7 172.62 684.53 172.96 683.95 172.42 683.82 171.94 682.61 171.36 682.85 170.93 684.32 170.27 684.13 169.71 683.8 169.68 683.54 169.05 682.96 168.52 682.14 168.64 681.22 169.5 682.1 170.22 681.6 170.48 680.78 171.56 679.72 172.45 680.49 172.56 680.23 173.13 679.86 173.44 679.04 173.57 678.87 173.32 677.64 172.51 677.14 171.88 676.77 171.81 676.43 171.06 676.58 170.52 676.66 169.3 676.48 168.22 676.03 167.36 674.72 166.54 674.28 165.48 673.42 164.86 673.24 163.7 672.77 162.68 671.88 161.34 670.35 161.23 668.74 160.2 668.59 159.81 667.15 159.64 667.92 159.27 667.98 158.61 667.29 158.55 666.52 158.13 665.67 159.01 665.02 158.01 663.97 157.5 662.95 156.23 661.76 156.5 660.92 156.51 659.81 155.57 658.98 155.18 658.6 155.23 658.5 154.65 658.12 153.94 657.18 153.43 657.44 152.47 656.79 151.91 656.58 151.47 654.86 151.15 654.89 150.21 654.57 149.27 653.58 148.1 651.76 146.81 650.65 146.9 650.15 146.31 649.65 146.05 648.51 146.19 648.15 145.96 646.88 144.35 647.19 143.88 646.6 142.13 646.16 142.24 645.62 141.86 644.87 141.06 642.89 141.03 642.32 140.45 642.14 139.87 642.35 139.23 642.07 138.35 641.6 137.93 641.67 137.11 641.29 136.47 640.76 134.65 640.01 133 639.45 133.23 639.56 134.12 640.29 136.04 640.52 136.93 640.05 137.3 639.71 136.88 639.26 137.43 640.46 139.47 640.08 140.59 639.75 140.86 639.55 141.45 640.63 142.22 641.68 142.33 642.93 142.09 644.29 142.52 643.27 144.28 643.97 144.36 644.99 145.25 645.94 145.85 645.91 146.04 646.67 147.22 647.12 147.63 647.75 147.74 648.53 147.65 649.08 148.12 649.53 148.95 650.11 149.01 651.01 149.51 652.13 149.65 652.16 150.6 653.04 151.88 653.24 152.67 654.36 153.47 654.66 154.14 654.94 154.31 654.8 154.83 655.02 155.31 655.74 156.13 656.23 156.37 657.83 158.78 658.82 159.74 659.61 159.99 661.27 159.94 662.04 160.06 662.92 160.53 662.65 160.95 662.65 161.92 663.25 162.81 664.49 163.21 666.76 163.3 667.81 163.52 668.67 163.88 668.34 164.39 668.72 165.19 669.93 165.77 670.8 166.48 670.72 167.25 670.88 168.14 671.6 168.71 671.67 169.56 672.49 170.64 672.47 170.81 671.52 171.35 673.01 172.24 672.7 172.91 673.43 173.52 673.8 174.01 674.59 174.4 675.34 175.55 676.81 176.39 677.43 176.51 679.57 176.46 680.73 176.34 682.3 176.55 683.46 176.49 684.12 176.33 684.86 176.41 686.3 176.36 686.48 177.83 686.76 178.77 688.04 179.42 688.67 179.31 690.87 180.13 692.63 180.16 693.45 180.07 695.84 180.41 696.95 180.85 697.46 181.28 698.3 181.05 698.91 181.2 699.12 181.59 698.67 182.19 697.8 182.65 697.02 182.66 696.21 182.49 695.86 183.13 695.3 182.97 695.14 183.42 694.29 183.58 693.69 183.49 693.1 183.76 693.31 185.77 693.94 186.58 695.51 186.63 695.92 187.05 696.31 188.01 696.72 188.43 697.29 188.45 697.94 187.6 699.14 186.39 699.15 185.58 700.05 185.71 700.72 186.3 701.45 187.66 701.59 188.33 700.71 188.41 699.52 187.87 699.63 187.52 698.27 187.53 698.08 188.12 698.74 188.21 698.94 188.6 700.87 189.44 700.75 190.28 701.62 190.62 702.02 191.13 702.69 191.11 703.08 191.52 702.99 192.38 703.43 193.04 703.5 194.45 703.86 197.04 703.87 198.51 702.78 200.08 702.25 200.54 701.57 200.71 701.32 201.27 701.56 202.5 701.2 202.61 701.63 203.17 701.34 204.7 699.19 203.4 698.12 203.19 697.62 201.67 696.97 201.79 695.49 200.18 695.35 199.74 694.33 199.2 693.71 199.39 692.61 198.92 692.24 198.35 691.94 198.37 690.86 197.99 690.27 197.42 689.76 196.31 689.56 194.92 689.1 194.74 688.24 194.79 687.94 195.63 688.03 196.3 687.69 196.71 687.92 197.07 688.05 198.42 688.54 198.89 688.53 199.47 688.09 199.5 687.24 198.81 686.75 198.25 685.91 198.42 684.63 198.28 684.65 197.75 683.69 197.7 683.11 198.41 683.09 199.65 684.12 200.35 684.83 200.21 685.29 199.67 686.16 200.81 687.06 201.18 687.49 201.87 689.12 202.31 688.86 202.85 688.29 202.79 687.92 203.2 688.24 203.83 687.43 204.02 687.05 203.77 685.85 203.89 685.82 204.66 687.65 205.24 688.37 205.25 689.53 204.71 689.96 204.75 690.54 205.17 689.76 205.68 690.11 206.1 691.16 206.65 691.08 207.27 691.48 207.32 691.71 207.8 693.95 208.02 693.76 208.59 693.02 208.94 691.45 208.97 690.4 209.42 689.86 209.25 689.18 209.33 687.84 209.27 687.24 209.54 687.3 210.24 686.71 210.39 686.25 210.04 683.94 210.49 683.35 210.71 682.16 210.68 681.63 210.24 680.64 210.75 679.53 211.15 679.15 211.7 680.25 212.59 680.57 213.03 681.55 213.32 682.67 213.92 684.17 213.68 685.94 213.63 687.44 213.23 688.45 213.3 690.71 212.96 689.93 213.82 689.87 214.28 689.27 214.81 690.12 215.56 690.34 216.09 690.25 217.21 690.03 217.85 689.41 217.42 688.71 217.79 688.67 218.57 688.3 219.08 689.96 219.45 691.23 219.62 691.5 220.09 692.24 220.14 692.55 219.79 692.03 219.53 691.92 219.18 692.59 218.69 693.28 218.43 694.32 218.39 695 219.33 695.08 220.08 695.85 220.69 696.91 220.99 697.39 221.33 697.85 221.35 698.76 222.04 699.33 222.69 698.87 223.13 698.76 223.56 699.3 223.97 699.69 224.09 700.31 224.68 700.83 224.78 701.34 225.41 701.64 226.07 701.43 226.72 701.02 227.34 700.61 228.8 699.6 231.03 698.89 233.52 698.52 234.23 697.79 234.32 697.54 233.34 696.76 233.27 695.08 232.91 694.38 233.72 693.59 234.08 693.05 234.13 691.6 234.64 691.04 234.99 689.81 236.03 689.32 236.74 688.65 237.28 688.42 237.86 687.55 237.77 687.07 237.54 686.15 236.59 684.53 234.53 684.94 234.17 684.9 233.63 684.24 233.02 684.17 232.73 683.36 231.75 680.42 230.14 678.84 229.17 678.24 229.08 677.52 228.4 677.49 226.93 675.92 225.93 675.86 225.49 675.04 225.02 674.64 224.13 673.67 223.62 673.38 224.1 674.04 224.42 674.13 225.16 674.6 225.48 675.22 226.64 674.42 226.6 674 226.96 673.65 226.43 673 225.94 672.48 225.21 670.89 224.28 670.7 223.82 669.66 223.57 668.82 222.96 668.59 222.38 668.13 222.32 668.52 221.51 668.43 220.91 668.96 220.75 670.13 219.21 669.84 218.38 669.33 218.16 669 217.42 668.71 216.17 667.71 214.79 666.65 213.92 665.82 213.45 664.88 213.24 662.58 213.24 661.74 213.19 660.83 213.81 658.09 214.27 656.52 214.01 655.56 213.96 655.42 214.26 657.76 215.13 657.23 215.59 657 216.13 656.3 216.37 655.61 216.22 654.98 215.54 654.1 214.86 653.45 214.55 652.22 212.47 651.72 212.14 649.51 211.3 648.55 211.45 646.84 211.57 645.75 211.42 645.03 211.44 644.64 210.69 645.21 210.51 645.22 209.69 644.5 209.68 643.88 209.99 643.48 210.43 642.4 210.65 642.37 211.12 641.7 211.42 640.81 211.3 640.39 211.9 640.46 212.19 639.01 211.76 638.32 211.87 637.57 212.51 637.69 212.78 638.97 213.6 639.67 213.92 640.89 214.87 641.91 215.45 643.01 215.48 645.4 214.58 647.96 214.76 648.19 214.87 649.86 214.93 651.52 214.86 651.38 215.59 651.91 216.43 652.58 216.59 652.99 216.92 653.25 217.49 655.22 218.45 656.18 219.53 656.57 220.11 657.55 220.53 658.21 220.6 659.63 220.35 660.34 219.34 660.48 218.72 660.8 218.21 661.3 217.86 661.75 216.74 661.83 215.9 662.35 215.69 663.19 216.51 663.93 216.99 664.5 217.9 664.04 218.58 663.78 219.34 663.89 220.01 663.76 220.91 664.19 221.07 664.45 221.78 664.38 222.49 664.58 223.16 665.15 223.96 665.04 225.2 664.14 227.14 663.92 228.69 664.27 229.61 664.94 230.34 666.18 230.93 666.9 231.01 669.39 230.99 670.53 231.23 671.82 231.64 672.62 232.28 672.8 232.9 671.97 233.78 672.41 234.64 673.3 234.53 673.58 234.06 674.05 234 675.15 234.46 676.16 235.47 676.77 235.76 677.65 235.89 678.01 236.89 678.74 237.38 680.38 237.67 681.28 238.47 681.18 238.86 681.37 240.17 680.45 239.9 680.08 240.27 680.02 241.04 680.6 241.82 681.01 241.76 681.88 242.47 681.58 244.18 680.65 244.59 680.8 245.61 681.76 245.87 682.5 245.46 684.29 245.33 684.36 244.51 684.98 243.52 685.53 243.24 686.51 243.39 688.81 244.06 690.35 244.22 690.64 243.86 690.8 241.62 690.97 241.51 693.59 241.54 693.77 241.67 694.16 244.26 695.12 244.42 695.13 245.3 694.08 245.72 694.42 246.92 694.85 247.16 694.97 247.59 693.51 247.91 693.4 248.32 692.59 249.3 691.92 249.82 692.25 250.04 693.42 249.86 693.35 249.42 694.55 248.35 695.16 248.12 697.18 247.81 698.23 248.79 698.66 248.71 698.75 248.27 698.27 248 698.19 247.55 696.37 246.31 696.29 246.09 696.87 245.22 697.45 244.94 697.59 243.58 698.72 243.5 699.49 243.9 700.07 243.5 698.66 242.9 698.46 243.02 697.24 242.73 696.96 242.81 696.76 243.45 696.47 243.47 696.11 240.8 696.07 239.84 696.5 237.84 696.9 237.92 697.01 238.35 697.43 238.58 698.88 238.49 699.07 237.62 699.29 237.29 700.83 237.35 701.97 237.72 703.76 238.7 705.08 239.55 706.34 240.08 709.34 240.84 710.56 240.97 714.11 241.64 715.61 242.18 718.28 242.99 718.75 243.08 719.5 242.67 721.81 242.22 723.38 240.99 724.79 240.78 726.6 241.07 727.67 241.73 728.04 242.31 728.27 243.31 729.95 249.28 730.59 252.1 732.09 256.96 734.72 263.5 735.54 265.28 736.24 266.53 737.64 269.3 739.23 273.74 739.84 276.9 Z M 760.6 142.87 760.94 142.59 761.3 141.88 761.79 141.66 762.09 140.99 762.74 140.69 762.86 140.28 778.45 138.93 784.24 138.47 795.01 137.49 799 137.17 797.49 139 793.72 143.82 792.84 145.11 791.4 147.47 790.18 149.61 789.16 151.24 788.01 152.5 786.96 153.03 785.83 153.81 785.13 153.34 785.01 152.59 784.61 151.82 785.16 151.44 785.6 151.49 786.91 152.38 787.64 152.3 788.83 151.24 789.19 150.01 788.35 150.05 787.2 149.86 785.85 149.86 785.39 149.24 784.13 149.36 783.48 149.24 782.99 149.49 782.54 150.08 781.11 151.53 780.36 151.78 779.03 152.63 775.65 155.58 773.48 157.95 772.09 159.72 770.79 161.77 769.72 163.56 768.67 164.67 768.24 165.57 767.44 167.65 767.01 168.43 766.18 168.95 766.27 169.53 766.02 170.4 766.04 171.21 765.23 174.09 764.81 174.93 764.03 175.84 763.79 176.7 763.77 178.13 763.95 179.73 764.88 179.74 765.15 180.29 764.5 181.04 762.88 183.11 760.89 185.56 759.26 187.92 758.59 188.52 758.27 188.59 757.46 188.1 757.14 188.24 757 189.07 756.55 189.54 756.94 190.32 757.75 190.85 758.86 190.56 759.17 190.72 759.39 191.32 759.29 192.4 758.05 193.5 756.11 196.06 754.72 198.2 754.02 199.15 753.57 199.47 753.12 200.26 752.65 201.76 751.58 203.27 750.3 204.64 749.15 205.68 748.52 206.09 747.75 205.75 746.91 205.81 746.47 206.34 747 207.67 746.76 209.53 746.27 210.61 745.05 210.85 744.49 211.25 744.95 211.97 745.89 211.78 746.26 212.5 746.11 213.5 745.52 213.91 744.29 214.2 743.47 214.76 743.46 215.04 744.29 215.12 744.48 215.52 744.29 216.09 742.88 217.21 742.89 217.84 742 218.37 740.59 219.51 739 221.26 736.93 223.14 736.16 223.51 734.79 223.78 735.69 222.73 734.15 222.03 733.28 222.45 731.56 223.03 730.59 223.1 730.15 223.27 730.15 222.16 729.54 219.74 729.05 218.93 728.53 218.6 728.42 217.99 727.44 216.5 726.34 215.42 726.08 214.86 726.11 213.37 726.39 212.2 725.91 211.98 724.88 210 725.08 208.9 725.41 208.42 726.09 207.91 725.77 206.97 726.27 206.46 725.47 206.24 725.28 205.92 725.55 204.28 726.17 202.77 727.26 201.53 728.37 199.63 728.83 199.36 728.63 199.02 728.63 198.2 729.74 197.88 730.1 197.35 730.39 196.52 729.71 196.05 729.21 196.07 728.91 195.01 729.24 192.88 729.54 192.26 730.11 191.62 730.3 191.06 731.25 189.93 730.77 189.37 730.88 188.43 731.2 187.03 732.05 184.97 732.96 183.77 733.2 183.01 733.72 182.25 732.88 181.51 732.88 181 733.75 179.51 735.12 178.92 734.37 177.93 734.73 177.1 735.23 176.63 735.87 175.43 736.57 175.18 736.79 175.66 736.71 176.11 737.01 176.84 737.46 177.16 738.48 176.9 739.04 176.17 738.49 175.71 738.24 174.55 737.5 174.03 737.98 172.55 738.97 172.51 738.95 171.84 739.76 171.12 740.05 171.08 740.92 171.46 741.5 171.32 741.9 170.98 741.79 170.36 741.29 170.28 741.29 169.5 741.94 168.22 742.71 167.95 742.84 167.19 743.54 166.84 744.08 166.34 744.38 166.47 745.11 165.98 745.34 166.46 746.71 165.59 746.17 164.99 743.79 165.45 743.22 165.46 743.43 164.81 744.11 164.15 745.09 163.43 745.44 163.76 746.94 163.33 747.44 162.71 747.46 162.15 747.16 161.95 746.18 162.29 746.32 161.38 745.83 160.41 745.43 160.3 745.13 160.67 744.69 159.66 745.08 159.15 745.42 159.2 746.26 158.76 746.87 158.23 747.7 158.01 749.02 158.22 750.29 159.13 750.75 159.73 751.52 159.98 751.85 159.8 752.55 159.98 753.01 159.8 753.26 159 753.92 159.29 753.99 158.68 753.83 158.05 753.86 156.71 754.09 156.03 755.1 156 754.7 155.26 755.1 154.78 754.83 154.6 755.43 153.95 755.96 154.03 756.07 154.81 756.73 155.2 757.77 155.11 757.47 154.49 758.33 153.84 756.72 153.02 756.38 152.24 757.59 151.53 757.48 151.08 757.7 150.3 756.8 150.41 755.88 149.96 756.67 149.63 756.8 149.28 756 149.02 754.97 149.16 753.77 149.01 752.93 149.35 752.23 149.47 752.46 148.6 751.81 148.52 751.59 148.05 752.96 147.17 753.87 145.93 754.55 145.58 754.7 145.99 755.3 146.45 756.28 146.32 757.72 145.15 758.96 145.69 760.37 145.87 761.09 145.75 761.69 144.87 761.68 143.93 761.26 143.21 760.6 142.87 Z M 723.01 144.11 727.89 144.13 727.54 144.87 726.99 144.42 725.73 144.79 725.36 145.37 725.8 146.37 724.97 146.62 724.53 147.14 724.25 146.04 724.94 145.05 724.58 144.36 723.8 144.3 723.35 144.5 723.01 144.11 Z M 739.93 169.71 740.27 168.98 740.85 169.1 740.77 169.69 739.93 169.71 Z M 729.11 225.16 729.4 224.58 730.91 224.18 732.32 224.6 732.72 225.08 732.53 226.03 732.08 226.26 730.42 226.35 730.01 226.27 729.33 225.75 729.11 225.16 Z M 727.38 156.03 727.44 154.36 728.02 154.03 728.45 154.77 729.3 155.34 729.82 155.48 729.6 156 728.48 156.98 727.72 157.46 727.41 156.89 727.38 156.03 Z M 726.55 151.76 726.92 151.98 727.3 152.62 727.1 152.79 726.55 151.76 Z" fill-rule="evenodd" fill="none" stroke="currentColor" stroke-width="46.400"/>
</g>
</svg>