<svg viewBox="-84.51866930120381 -40.30930209483606 10.119481138032796 4.611736189672129" xmlns="http://www.w3.org/2000/svg">
  <path d="M -75.86764692320608,36.55041157241111 L -75.874145,36.583853 L -75.890946,36.630753 L -75.905654,36.660029 L -75.913086,36.673223 L -75.921748,36.692051 L -75.94955,36.76115 L -75.965451,36.812449 L -75.972151,36.842268 L -75.989966,36.905353 L -75.992319,36.915979 L -75.996252,36.922047 L -76.007553,36.929047 L -76.026653,36.932146 L -76.041588,36.929878 L -76.058154,36.916947 L -76.082619,36.912184 L -76.090481,36.907808 L -76.095508,36.908817 L -76.123666,36.917354 L -76.139557,36.923047 L -76.1770937206237,36.9300720442027 L -76.189959,36.931447 L -76.22166,36.939547 L -76.234961,36.945147 L -76.248895,36.954143 L -76.267866,36.964491 L -76.27994,36.968373 L -76.296148,36.969001 L -76.298458,36.965545 L -76.300471,36.95635 L -76.315867,36.955351 L -76.320252,36.957764 L -76.321387,36.962332 L -76.325665,36.963187 L -76.330207,36.942061 L -76.32979,36.931948 L -76.326021,36.903722 L -76.322931,36.903912 L -76.320839,36.91066 L -76.317854,36.911507 L -76.304976,36.908408 L -76.302852,36.909708 L -76.287942,36.903417 L -76.294047,36.899198 L -76.302213,36.903417 L -76.314137,36.902486 L -76.315662,36.888182 L -76.321689,36.88518 L -76.327889,36.876065 L -76.327034,36.873641 L -76.307808,36.860594 L -76.306902,36.855807 L -76.301863,36.853013 L -76.302827,36.848343 L -76.307341,36.847491 L -76.318503,36.85779 L -76.339765,36.854545 L -76.346288,36.852085 L -76.358918,36.840866 L -76.358249,36.836186 L -76.370521,36.834268 L -76.374024,36.836557 L -76.367018,36.842108 L -76.358387,36.85248 L -76.35724,36.856796 L -76.341802,36.860117 L -76.343128,36.864729 L -76.347608,36.867253 L -76.351274,36.87995 L -76.340081,36.884412 L -76.340215,36.893669 L -76.350332,36.895312 L -76.354533,36.922759 L -76.356444,36.924055 L -76.384134,36.924435 L -76.385867,36.923247 L -76.387567,36.899547 L -76.39067,36.895739 L -76.40690867866614,36.89750711678224 L -76.43122,36.904532 L -76.441605,36.906116 L -76.447413,36.90322 L -76.453941,36.89274 L -76.454692,36.884077 L -76.47362,36.882622 L -76.481464,36.878344 L -76.491565,36.881101 L -76.49311,36.891842 L -76.483369,36.896239 L -76.480157,36.914269 L -76.489307,36.921775 L -76.493704,36.92111 L -76.499765,36.929375 L -76.499171,36.937545 L -76.495249,36.941439 L -76.485528,36.938576 L -76.487559,36.952372 L -76.486455,36.95654 L -76.495962,36.964991 L -76.513363,36.968057 L -76.521006,36.973187 L -76.524853,36.983833 L -76.53411,36.985214 L -76.540646,36.988251 L -76.551246,36.998946 L -76.562923,37.003796 L -76.567883,37.003181 L -76.570866,36.998173 L -76.5802,36.997045 L -76.584849,37.006139 L -76.57606,37.015395 L -76.577962,37.021942 L -76.586491,37.02874 L -76.600066,37.033042 L -76.612124,37.035604 L -76.638451,37.035414 L -76.646013,37.036228 L -76.659129,37.042434 L -76.66626,37.050212 L -76.669944,37.059885 L -76.667646,37.076228 L -76.65811,37.096787 L -76.656894,37.109843 L -76.662932,37.118281 L -76.665071,37.125388 L -76.664358,37.132873 L -76.667092,37.140452 L -76.671588,37.14206 L -76.6703,37.15163 L -76.67147,37.158739 L -76.66867,37.166771 L -76.663774,37.173875 L -76.669886,37.183571 L -76.677668,37.188562 L -76.686581,37.197271 L -76.691993,37.195019 L -76.692926,37.186147 L -76.697634,37.174359 L -76.702862,37.170666 L -76.706309,37.165268 L -76.707758,37.158744 L -76.715295,37.148035 L -76.73032,37.145395 L -76.73728,37.146164 L -76.747632,37.150548 L -76.751706,37.15665 L -76.761926,37.16811 L -76.782723,37.178242 L -76.785394,37.184256 L -76.789734,37.18771 L -76.796905,37.189404 L -76.802511,37.198308 L -76.801023,37.206043 L -76.818494,37.205317 L -76.836201,37.20598 L -76.838578,37.207116 L -76.865704,37.209024 L -76.890927,37.199506 L -76.902513,37.199827 L -76.913328,37.20598 L -76.926163,37.216012 L -76.933649,37.219325 L -76.947078,37.228031 L -76.948386,37.230869 L -76.940423,37.237682 L -76.933174,37.238817 L -76.917844,37.234275 L -76.918557,37.237303 L -76.91416,37.243642 L -76.904771,37.242412 L -76.897689,37.245524 L -76.897403,37.250548 L -76.885995,37.252818 L -76.881716,37.257453 L -76.87518643162436,37.26080337265253 L -76.867575,37.260669 L -76.867693,37.251967 L -76.873635,37.250075 L -76.869522,37.242157 L -76.861989,37.242412 L -76.850462,37.240804 L -76.832398,37.242034 L -76.822178,37.243642 L -76.798885,37.234749 L -76.793537,37.231248 L -76.780532,37.209336 L -76.773752,37.206061 L -76.764422,37.198881 L -76.757765,37.191658 L -76.75047,37.190098 L -76.74304,37.192611 L -76.740654,37.198313 L -76.734995,37.203161 L -76.759787,37.212416 L -76.758242,37.215539 L -76.74814,37.215066 L -76.731507,37.212228 L -76.702625,37.217148 L -76.692999,37.223678 L -76.684086,37.22311 L -76.659842,37.223205 L -76.649869,37.220914 L -76.641085,37.216002 L -76.629868,37.206738 L -76.61934,37.192146 L -76.616268,37.178962 L -76.612817,37.171163 L -76.60743504437373,37.16883675747412 L -76.604369,37.160062 L -76.616704,37.143768 L -76.622252,37.142146 L -76.621338,37.13581 L -76.625497,37.127253 L -76.620577,37.126601 L -76.618128,37.120397 L -76.609323,37.114015 L -76.598283,37.111363 L -76.596307,37.106482 L -76.579499,37.096627 L -76.574029,37.088986 L -76.567147,37.08378 L -76.563463,37.078186 L -76.558947,37.081979 L -76.55051,37.081505 L -76.557046,37.093829 L -76.562037,37.097241 L -76.562988,37.105013 L -76.57,37.108425 L -76.56691,37.113448 L -76.556689,37.108046 L -76.552411,37.098663 L -76.543736,37.093734 L -76.543142,37.089089 L -76.52656,37.078531 L -76.526273,37.062947 L -76.518639,37.055727 L -76.512289,37.054858 L -76.495606,37.044521 L -76.464471,37.027547 L -76.455955,37.017143 L -76.4552,37.014161 L -76.448231,37.007705 L -76.447832,37.002014 L -76.452118,36.998163 L -76.434997,36.976385 L -76.425253,36.966415 L -76.420261,36.963947 L -76.410992,36.962997 L -76.408568,36.969147 L -76.401485,36.974866 L -76.396368,36.982347 L -76.383367,36.993347 L -76.377479,36.996984 L -76.362149,37.002394 L -76.356366,37.002947 L -76.348066,37.006747 L -76.340666,37.015246 L -76.322916,37.011519 L -76.314679,37.010752 L -76.312048,37.000371 L -76.304272,37.001378 L -76.300352,37.00885 L -76.292863,37.035145 L -76.282206,37.058703 L -76.277891,37.074109 L -76.273536,37.080738 L -76.271355,37.087572 L -76.274463,37.094544 L -76.279901,37.101227 L -76.285378,37.102265 L -76.291914,37.10852 L -76.29601717165473,37.10975523253096 L -76.301778,37.114112 L -76.30059,37.11866 L -76.295757,37.123261 L -76.301778,37.130125 L -76.311395,37.137492 L -76.316251,37.1377 L -76.321268,37.141305 L -76.33252,37.144479 L -76.340704,37.150837 L -76.341551,37.158822 L -76.348662,37.1687 L -76.359681,37.168358 L -76.366962,37.165577 L -76.374009,37.160356 L -76.372884,37.156667 L -76.367376,37.153956 L -76.370683,37.150255 L -76.378462,37.150784 L -76.381379,37.155711 L -76.394756,37.157568 L -76.412299,37.16148 L -76.408377,37.166878 L -76.408021,37.175022 L -76.400534,37.178999 L -76.393998,37.174454 L -76.39174,37.181177 L -76.390789,37.193011 L -76.393071,37.198619 L -76.402079,37.206548 L -76.395674,37.212135 L -76.395067,37.217053 L -76.386867,37.226138 L -76.41068,37.222479 L -76.42139,37.223244 L -76.437253,37.219037 L -76.45598,37.218508 L -76.471799,37.216016 L -76.483688,37.222324 L -76.494008,37.225408 L -76.497421,37.229987 L -76.509035,37.239479 L -76.504994,37.24525 L -76.493302,37.24947 L -76.48284,37.254831 L -76.477193,37.250174 L -76.464564,37.249911 L -76.458406,37.252232 L -76.433928,37.25698 L -76.429141,37.25331 L -76.422885,37.254911 L -76.42347,37.262277 L -76.417171,37.265114 L -76.403033,37.264492 L -76.395858,37.265326 L -76.390076,37.263506 L -76.379024,37.268235 L -76.362386,37.268613 L -76.354554,37.272331 L -76.352556,37.278334 L -76.376291,37.280623 L -76.378667,37.285729 L -76.382946,37.286297 L -76.382084,37.292751 L -76.393166,37.298587 L -76.39685,37.30303 L -76.388592,37.308477 L -76.394711,37.312861 L -76.399345,37.313333 L -76.411586,37.307568 L -76.419192,37.307662 L -76.438563,37.313806 L -76.438206,37.321934 L -76.42549,37.323257 L -76.42145,37.320611 L -76.412893,37.322595 L -76.41634,37.329305 L -76.412418,37.333557 L -76.406388,37.332924 L -76.403676,37.338663 L -76.420887,37.343356 L -76.425418,37.350632 L -76.434965,37.354524 L -76.444148,37.366528 L -76.449021,37.36086 L -76.456507,37.359349 L -76.467322,37.366717 L -76.467203,37.379844 L -76.461023,37.387398 L -76.450922,37.386832 L -76.451041,37.38126 L -76.437525,37.37975 L -76.428699,37.381544 L -76.423503,37.375683 L -76.414532,37.368354 L -76.409857,37.368676 L -76.409717,37.374788 L -76.414912,37.379799 L -76.41634,37.394008 L -76.418719,37.3978 L -76.415167,37.402133 L -76.416102,37.409301 L -76.412893,37.41808 L -76.403861,37.418646 L -76.398989,37.416758 L -76.39685,37.402033 L -76.391437,37.390284 L -76.385252,37.384339 L -76.373834,37.38031 L -76.370705,37.380505 L -76.366751,37.374495 L -76.355137,37.36955 L -76.348601,37.371533 L -76.337786,37.365772 L -76.336322,37.361168 L -76.320646,37.344107 L -76.313781,37.345462 L -76.308581,37.329366 L -76.297238,37.327109 L -76.274553,37.313426 L -76.271463,37.329539 L -76.27599,37.335447 L -76.272142,37.336659 L -76.274682,37.349619 L -76.272068,37.355571 L -76.264847,37.357399 L -76.259289,37.362217 L -76.247751,37.378816 L -76.247897,37.3944 L -76.2517,37.421681 L -76.252413,37.436592 L -76.257047,37.443574 L -76.256097,37.452631 L -76.260256,37.456971 L -76.267268,37.456782 L -76.271546,37.462159 L -76.280696,37.465838 L -76.279508,37.474704 L -76.29983,37.483569 L -76.301969,37.487624 L -76.30898,37.488567 L -76.30696,37.494884 L -76.29258,37.494979 L -76.293769,37.491301 L -76.281172,37.485549 L -76.271902,37.486398 L -76.273353,37.493489 L -76.281043,37.507821 L -76.288167,37.514118 L -76.297651,37.515424 L -76.297739,37.506863 L -76.310406,37.49413 L -76.317332,37.48509 L -76.323286,37.485336 L -76.327638,37.489793 L -76.33173,37.499932 L -76.33616,37.504401 L -76.352678,37.504913 L -76.359378,37.513426 L -76.361626,37.534664 L -76.355328,37.537585 L -76.348992,37.536548 L -76.339989,37.53833 L -76.338334,37.54305 L -76.332392,37.541354 L -76.328672,37.548119 L -76.320183,37.546262 L -76.311912,37.546396 L -76.302762,37.551295 L -76.29796,37.557636 L -76.300144,37.561734 L -76.306656,37.563286 L -76.315544,37.560855 L -76.320918,37.565422 L -76.332641,37.570042 L -76.357835,37.573699 L -76.366525,37.572691 L -76.385119,37.573005 L -76.408374,37.581706 L -76.415104,37.580544 L -76.428597,37.587457 L -76.431504,37.5974 L -76.433388,37.612885 L -76.448645,37.612384 L -76.456501,37.613157 L -76.463468,37.611469 L -76.475692,37.610884 L -76.492322,37.613094 L -76.504577,37.611828 L -76.527188,37.611315 L -76.533777,37.61253 L -76.549253,37.621409 L -76.557156,37.633614 L -76.565528,37.637715 L -76.569497,37.642936 L -76.577202,37.649357 L -76.573835,37.656442 L -76.58968,37.665822 L -76.579591,37.671508 L -76.579354,37.673291 L -76.588046,37.684761 L -76.588792,37.693756 L -76.596394,37.699709 L -76.598073,37.70912 L -76.597213,37.717269 L -76.606466,37.724819 L -76.619229,37.730917 L -76.623193,37.73935 L -76.61971,37.744795 L -76.62881,37.748555 L -76.639962,37.750941 L -76.663887,37.751887 L -76.677002,37.7561 L -76.683372,37.765507 L -76.683343,37.775783 L -76.680501,37.780138 L -76.689773,37.78519 L -76.697925,37.7864 L -76.715498,37.785873 L -76.723863,37.788503 L -76.734309,37.79866 L -76.7512,37.824141 L -76.756381,37.826676 L -76.763957,37.835334 L -76.766328,37.840437 L -76.76485,37.845939 L -76.767778,37.847674 L -76.770972,37.854794 L -76.782826,37.863184 L -76.784934,37.871554 L -76.794204,37.885155 L -76.79456,37.895191 L -76.806325,37.896597 L -76.815832,37.901942 L -76.822012,37.902505 L -76.826766,37.911319 L -76.83262,37.916232 L -76.840789,37.915351 L -76.847444,37.916476 L -76.852197,37.920788 L -76.860278,37.933256 L -76.859922,37.935318 L -76.870023,37.941691 L -76.880719,37.951063 L -76.888206,37.951906 L -76.877391,37.970458 L -76.891771,37.975048 L -76.904962,37.972519 L -76.916014,37.973643 L -76.927423,37.981793 L -76.925403,37.988069 L -76.921838,37.990878 L -76.917901,38.002763 L -76.93059,38.024273 L -76.925752,38.030128 L -76.922176,38.025628 L -76.917198,38.029615 L -76.91966,38.039015 L -76.927343,38.059261 L -76.928539,38.068613 L -76.922647,38.07109 L -76.914689,38.05364 L -76.909123,38.034439 L -76.905027,38.027705 L -76.905844,38.019029 L -76.900825,38.014546 L -76.897918,38.005226 L -76.900061,37.998529 L -76.898188,37.992377 L -76.892128,37.986289 L -76.871212,37.985914 L -76.863368,37.977484 L -76.857635,37.97346 L -76.853015,37.974628 L -76.846731,37.956123 L -76.850058,37.951156 L -76.836629,37.934193 L -76.832826,37.931662 L -76.820705,37.933162 L -76.815476,37.930444 L -76.810128,37.924257 L -76.798482,37.925194 L -76.77923,37.911507 L -76.768772,37.899129 L -76.765325,37.889188 L -76.765711,37.879274 L -76.747552,37.875864 L -76.745241,37.871273 L -76.738395,37.865373 L -76.74118,37.85525 L -76.731186,37.849815 L -76.72718,37.842263 L -76.726143,37.836227 L -76.722156,37.83668 L -76.713379,37.832619 L -76.701606,37.822677 L -76.692747,37.82277 L -76.680197,37.825654 L -76.669418,37.81216 L -76.658302,37.806815 L -76.651413,37.796239 L -76.642445,37.805482 L -76.634364,37.801068 L -76.626996,37.800411 L -76.627709,37.793462 L -76.635782,37.78953 L -76.620576,37.787828 L -76.618987,37.783618 L -76.602024,37.772731 L -76.585818,37.771568 L -76.576387,37.757493 L -76.571424,37.746722 L -76.569554,37.734396 L -76.560476,37.727827 L -76.555837,37.716703 L -76.541979,37.707957 L -76.537228,37.698892 L -76.535302,37.687516 L -76.536131,37.674568 L -76.537698,37.66893 L -76.534187,37.660941 L -76.530272,37.660208 L -76.524948,37.653528 L -76.511913,37.645003 L -76.510187,37.642324 L -76.501522,37.643762 L -76.497564,37.647056 L -76.494855,37.65307 L -76.502927,37.654156 L -76.491799,37.663614 L -76.483081,37.67504 L -76.477852,37.677768 L -76.487121,37.685386 L -76.477376,37.694508 L -76.468701,37.695731 L -76.46264,37.690183 L -76.459907,37.683505 L -76.456342,37.683129 L -76.454321,37.677204 L -76.46989,37.670243 L -76.472392,37.665772 L -76.459685,37.659612 L -76.458301,37.654531 L -76.452109,37.648785 L -76.43976,37.652426 L -76.429151,37.641252 L -76.414947,37.638231 L -76.401852,37.627377 L -76.390054,37.630326 L -76.381106,37.627003 L -76.374668,37.62222 L -76.36232,37.610368 L -76.354615,37.620371 L -76.343682,37.62376 L -76.332511,37.624513 L -76.322053,37.620089 L -76.312664,37.624795 L -76.306843,37.620221 L -76.299117,37.619618 L -76.292184,37.615042 L -76.28195,37.614164 L -76.279447,37.618225 L -76.292534,37.636098 L -76.305891,37.641077 L -76.312942,37.642189 L -76.315873,37.637971 L -76.311357,37.634866 L -76.318012,37.631101 L -76.319795,37.62696 L -76.331798,37.629783 L -76.332562,37.645817 L -76.339892,37.655966 L -76.336335,37.658597 L -76.337145,37.664223 L -76.330728,37.672407 L -76.325143,37.674852 L -76.334412,37.68454 L -76.324192,37.687926 L -76.312544,37.684566 L -76.31516,37.689806 L -76.311595,37.694508 L -76.302444,37.690935 L -76.301137,37.695449 L -76.303157,37.702313 L -76.310882,37.711151 L -76.311654,37.716965 L -76.316586,37.716227 L -76.32027,37.719894 L -76.319201,37.727696 L -76.322766,37.728166 L -76.32027,37.737846 L -76.307198,37.731267 L -76.308635,37.740569 L -76.314209,37.742451 L -76.315635,37.749687 L -76.310174,37.752699 L -76.315992,37.763593 L -76.308088,37.764235 L -76.309812,37.774959 L -76.305494,37.776456 L -76.303157,37.781347 L -76.298522,37.783507 L -76.306664,37.787457 L -76.309456,37.783037 L -76.315279,37.782004 L -76.316467,37.792805 L -76.307565,37.800249 L -76.307482,37.81235 L -76.312189,37.814119 L -76.306604,37.821911 L -76.284904,37.822308 L -76.282592,37.814109 L -76.275178,37.812664 L -76.266057,37.8174 L -76.256806,37.829224 L -76.250505,37.835008 L -76.250868,37.843687 L -76.24956,37.851851 L -76.247016,37.853 L -76.244285,37.865747 L -76.244807,37.869021 L -76.238754,37.881663 L -76.23731,37.889707 L -76.24465157200545,37.892989364824075 L -76.250392,37.895753 L -76.25529831719766,37.90316833377118 L -76.25617544460337,37.90417965968551 L -76.26483709068052,37.91038344199989 L -76.26930579688639,37.91282050138308 L -76.2746588446677,37.915151682225655 L -76.284408,37.919129 L -76.30279868132871,37.92791700570823 L -76.30666468379862,37.92975508906235 L -76.31220677750717,37.93248194826874 L -76.32389894049294,37.93839306532942 L -76.32485304613473,37.93883810010264 L -76.32894079979415,37.94074479936435 L -76.34095239644184,37.94616780160636 L -76.3454140496877,37.94782200248387 L -76.35412927407008,37.950475762862574 L -76.35600780867986,37.9510487515407 L -76.36595856794375,37.953492260097256 L -76.36645872265314,37.95358558114942 L -76.37574158222422,37.95532303396657 L -76.37767485940832,37.9558635403469 L -76.385038,37.956404 L -76.407962,37.962782 L -76.416299,37.966828 L -76.429052,37.977546 L -76.440432,37.976795 L -76.440856,37.98348 L -76.445639,37.985526 L -76.45135,37.984408 L -76.460654,37.98643 L -76.467132,37.982946 L -76.472845,37.9842 L -76.471753,37.988749 L -76.475414,37.99221 L -76.469748,37.997933 L -76.463084,37.99632 L -76.463219,38.005104 L -76.467869,38.00502 L -76.47425,38.009988 L -76.476725,38.014263 L -76.495684,38.01796 L -76.50335319717652,38.02144503095901 L -76.50792213270623,38.023131268112095 L -76.516237,38.0262 L -76.523424,38.023517 L -76.532814,38.026008 L -76.536559,38.020937 L -76.547967,38.02412 L -76.552074,38.02299 L -76.556003,38.027781 L -76.54963,38.030416 L -76.550463,38.040594 L -76.540286,38.039127 L -76.528899,38.046278 L -76.521387,38.046398 L -76.526358,38.053108 L -76.535311,38.065963 L -76.53522352658327,38.070603793958945 L -76.537395,38.075534 L -76.541938,38.076765 L -76.554265,38.083888 L -76.5548158977834,38.084380005752585 L -76.55725283547628,38.085928250084116 L -76.56503750568244,38.088507079323946 L -76.57376554570553,38.09276196407949 L -76.57445529307519,38.093071551655854 L -76.57980258753629,38.09513023457704 L -76.5828761466995,38.09774763965371 L -76.58700038901847,38.10125979354749 L -76.59047275300595,38.10333948423473 L -76.600937,38.110084 L -76.600851,38.114591 L -76.60432,38.130262 L -76.611351,38.137271 L -76.61377,38.143297 L -76.612062,38.148657 L -76.624683,38.150744 L -76.629476,38.15305 L -76.638983,38.151476 L -76.643448,38.14825 L -76.640662,38.141888 L -76.63579,38.139364 L -76.63686,38.135345 L -76.632581,38.127306 L -76.639712,38.121977 L -76.644228,38.127867 L -76.651833,38.133943 L -76.656587,38.135345 L -76.665127,38.147638 L -76.673511,38.152432 L -76.684892,38.156497 L -76.689683,38.16015 L -76.700649,38.160156 L -76.704048,38.149264 L -76.708576,38.145066 L -76.721722,38.137635 L -76.728604,38.131699 L -76.738349,38.134223 L -76.738349,38.147682 L -76.744291,38.155626 L -76.754915,38.164327 L -76.760241,38.166581 L -76.774577,38.167144 L -76.784989,38.168656 L -76.78536241291773,38.16878116468023 L -76.78774176732276,38.16910367894573 L -76.78908554663944,38.16912763097549 L -76.79391777655366,38.16858922906383 L -76.79661284715417,38.168288947167234 L -76.7975694548039,38.168446610737504 L -76.80015789899662,38.16887322592608 L -76.80059607188892,38.1687765427372 L -76.8042267316227,38.16797543484816 L -76.80939118514914,38.16683589416796 L -76.81243086214172,38.16654747214807 L -76.81310390511493,38.16650472254746 L -76.813741906808,38.1663102351105 L -76.81939041320933,38.164635913449565 L -76.82355750409137,38.163785262253235 L -76.82502581401599,38.163598469958345 L -76.83301991171358,38.16335833880529 L -76.8392152431318,38.16360296822833 L -76.84480142614501,38.16557530607312 L -76.84917477188907,38.16685144596231 L -76.84978901716313,38.1669400809813 L -76.85110751898783,38.167037254622436 L -76.85182537221402,38.1670550088366 L -76.85467072697406,38.16752809326573 L -76.85478567065817,38.16755928695162 L -76.857171,38.168729 L -76.85746495157134,38.16931965893868 L -76.85901728268563,38.170998173966034 L -76.85949765514981,38.17099598509746 L -76.86998618663054,38.171518764515284 L -76.87353537424272,38.17198088390654 L -76.87719819710688,38.17329909414411 L -76.88257,38.176323 L -76.88650932625659,38.17982602595218 L -76.88842906357894,38.1814721403105 L -76.89774417096656,38.18728351974557 L -76.90069576684087,38.18932868920612 L -76.90438135854636,38.19244357703138 L -76.90700305827606,38.194396224528525 L -76.9094536857729,38.19610943409039 L -76.91123567480503,38.19725051085844 L -76.91243162792425,38.19777641602318 L -76.9149738555883,38.19889432828661 L -76.91702111601951,38.19977190814734 L -76.92186149076421,38.20079296679015 L -76.92208311086196,38.200839716706874 L -76.930668,38.201223 L -76.937134,38.202384 L -76.962311,38.214075 L -76.967335,38.227185 L -76.95956095886626,38.23258970316177 L -76.9592145488765,38.23293761492894 L -76.9578970556189,38.23447398343475 L -76.9576659964665,38.234949940128 L -76.95699894557703,38.2367047609908 L -76.957017,38.240201 L -76.95943815198736,38.247033881719595 L -76.96154771767854,38.25464626980549 L -76.96632275524925,38.26085679220972 L -76.97039898088073,38.26512647355235 L -76.9728970474369,38.26685169729742 L -76.97802809420435,38.27149510201792 L -76.98261297405148,38.274506073068515 L -76.98628000144375,38.27433763872292 L -76.99010725505806,38.27394996549845 L -76.99092427858588,38.27367485638003 L -77.00099666457437,38.27612445689302 L -77.00251926627612,38.28230948029767 L -77.00295547938221,38.28269284201404 L -77.009941,38.288832 L -77.017312,38.298595 L -77.023159,38.300509 L -77.02775498143248,38.30507923337471 L -77.028506,38.306691 L -77.030683,38.311622 L -77.0306824145506,38.31162276277564 L -77.042935,38.309466 L -77.051967,38.315247 L -77.05779,38.320562 L -77.054344,38.322892 L -77.042341,38.322519 L -77.039608,38.31879 L -77.031883,38.319349 L -77.02169,38.324396 L -77.020947,38.329273 L -77.014907,38.332763 L -77.01623253580186,38.33983464414986 L -77.01655743820484,38.340699711858136 L -77.01651871966473,38.34405173679401 L -77.01640817780014,38.34468156834804 L -77.01563290026237,38.34930609436812 L -77.01488571889642,38.35339967323654 L -77.01468608933378,38.354668434964765 L -77.014622,38.35925 L -77.01571837998034,38.36900298684028 L -77.015911,38.371024 L -77.011827,38.374554 L -77.021101,38.383216 L -77.02136532788374,38.38350626194026 L -77.02136652634982,38.38350738648064 L -77.02172538012995,38.38384410486795 L -77.0221451987745,38.384238027587394 L -77.02322380364515,38.385250100227275 L -77.02782788663322,38.38917270677464 L -77.0300564488471,38.39085046862109 L -77.041524,38.400186 L -77.048458,38.399428 L -77.05342,38.398813 L -77.06022748816781,38.390895382932996 L -77.06740631992095,38.3818183055645 L -77.07374514614315,38.375347606557874 L -77.07689,38.372763 L -77.081374,38.370178 L -77.08161861142793,38.37007977236843 L -77.086678,38.367928 L -77.090089,38.367275 L -77.09429144449085,38.36767908120104 L -77.0961434254706,38.36819013181887 L -77.098122,38.368826 L -77.109667,38.369418 L -77.117753,38.367825 L -77.12175777587271,38.36721789864091 L -77.13811008801335,38.367906318954304 L -77.1383084208454,38.367844786330515 L -77.145769,38.361463 L -77.151384,38.354478 L -77.155191,38.351046 L -77.158367,38.348502 L -77.16249531678957,38.34612649436906 L -77.16304344122945,38.34589662489213 L -77.16340426043875,38.34579665139305 L -77.180185,38.341099 L -77.204491,38.340408 L -77.228321,38.333525 L -77.240098,38.330988 L -77.24895591651995,38.33159451197826 L -77.25023064278889,38.33167214354751 L -77.264552,38.332442 L -77.27576676157899,38.337571608284556 L -77.27688692752463,38.33811409666943 L -77.28157734938742,38.34168788989283 L -77.28594982927844,38.34673398063021 L -77.288407,38.351401 L -77.28733935102493,38.3529805226744 L -77.28741518832962,38.35359204871821 L -77.28805271781968,38.358732868113144 L -77.28809223587415,38.35905152816575 L -77.29102270244148,38.36249823417104 L -77.2924406204309,38.36398687393434 L -77.29637203852478,38.36998714076441 L -77.29972139639092,38.372145670622196 L -77.29981538206468,38.37220624070492 L -77.30423973158841,38.37505678009816 L -77.304938,38.375271 L -77.317288,38.383576 L -77.315409,38.388952 L -77.31698,38.395485 L -77.310719,38.397669 L -77.31959139586719,38.42049635975421 L -77.3201755520463,38.42332919095784 L -77.321376,38.427839 L -77.32219009175942,38.42932900219706 L -77.32259488220004,38.431182277833784 L -77.32283038246008,38.433722153826636 L -77.326291,38.443598 L -77.322622,38.467131 L -77.3184068183923,38.47417963063223 L -77.31771904485443,38.4753297261864 L -77.31697951722053,38.47656636498842 L -77.316816,38.477319 L -77.31033396880996,38.491858808136904 L -77.31019377004002,38.49225127914044 L -77.31023566202727,38.49275158153588 L -77.309237,38.49599 L -77.29853848073266,38.504524855238586 L -77.29759743110422,38.50563098659168 L -77.297728,38.514791 L -77.29109828627654,38.51572750626618 L -77.29108710860694,38.515742934598876 L -77.29018774150262,38.51698431454569 L -77.28880677488301,38.51889043748541 L -77.2884969866965,38.51916802758759 L -77.28641989613136,38.52012783259865 L -77.28633785454593,38.52053882636473 L -77.28328974767228,38.525514826972234 L -77.285487,38.53069 L -77.28007901822814,38.53374842687854 L -77.27809326750211,38.53746177237887 L -77.2763119183128,38.539609248674296 L -77.27630439506689,38.539654876672216 L -77.276603,38.54712 L -77.27418601294721,38.5497168027106 L -77.2639857326816,38.555363082523286 L -77.26240127581367,38.55625235655931 L -77.26163115878947,38.55684514124752 L -77.25703,38.561197 L -77.26083,38.56533 L -77.265304,38.580319 L -77.263859,38.585054 L -77.25795,38.583396 L -77.255304,38.586915 L -77.247003,38.590618 L -77.256491,38.59908 L -77.254946,38.60326 L -77.249954,38.606139 L -77.245104,38.620717 L -77.248904,38.628617 L -77.246704,38.635217 L -77.238515,38.638852 L -77.234199,38.636561 L -77.228326,38.637892 L -77.223928,38.645968 L -77.227969,38.652557 L -77.233317,38.656641 L -77.23390131170565,38.66133300962017 L -77.226068,38.66026 L -77.22476,38.657662 L -77.2105,38.656548 L -77.203488,38.658497 L -77.197784,38.656177 L -77.193268,38.650887 L -77.203369,38.64012 L -77.208717,38.637614 L -77.214897,38.637892 L -77.211023,38.630027 L -77.205601,38.625986 L -77.203696,38.618172 L -77.2018248328378,38.61777812026606 L -77.20048900528775,38.61871264901088 L -77.19865888659598,38.619205240414146 L -77.19760118114114,38.61941626602271 L -77.19554412607411,38.619439771779405 L -77.189304,38.62066 L -77.1859248952699,38.62150663283347 L -77.18588927378023,38.62151555777814 L -77.18303131858985,38.62177481655616 L -77.18238349215594,38.62193056285092 L -77.180207,38.623262 L -77.17459643317514,38.62427993779665 L -77.168906,38.625452 L -77.158091,38.636871 L -77.147633,38.635107 L -77.12986729246762,38.634990480552766 L -77.136293,38.647231 L -77.136423,38.650226 L -77.132439,38.674143 L -77.122632,38.685256 L -77.10408,38.697429 L -77.098546,38.698934 L -77.088961,38.705084 L -77.081614,38.707926 L -77.079814,38.712672 L -77.071433,38.709981 L -77.053017,38.709932 L -77.043338,38.718468 L -77.041469,38.725847 L -77.042022,38.746721 L -77.041362,38.785415 L -77.039366,38.79159 L -77.037358,38.814477 L -77.041067,38.823257 L -77.037764,38.829213 L -77.044991,38.835294 L -77.044767,38.840221 L -77.034624,38.84006 L -77.032143,38.850287 L -77.032843,38.855027 L -77.037486,38.861181 L -77.038291,38.867442 L -77.043394,38.874159 L -77.049247,38.87131 L -77.054203,38.879769 L -77.0592,38.880985 L -77.064251,38.888956 L -77.067742,38.899535 L -77.070469,38.901104 L -77.086575,38.903013 L -77.093584,38.905968 L -77.103053,38.912752 L -77.107089,38.920165 L -77.115957,38.928165 L -77.11978772555305,38.93436788254807 L -77.1282,38.940874 L -77.13550260912466,38.95372179196902 L -77.145081,38.963146 L -77.15019417414489,38.96541690022093 L -77.165549,38.967764 L -77.17101,38.96649 L -77.179617,38.968301 L -77.197774,38.96674 L -77.20817,38.970252 L -77.21152,38.969344 L -77.223953,38.972219 L -77.228781,38.978746 L -77.234875,38.975976 L -77.245067,38.982782 L -77.248543,38.992466 L -77.252972,38.995521 L -77.255759,39.001991 L -77.253259,39.009158 L -77.246868,39.014866 L -77.246317,39.024681 L -77.254378,39.029567 L -77.275037,39.034284 L -77.293066,39.046469 L -77.304662,39.05137 L -77.320171,39.053558 L -77.328318,39.057678 L -77.334191,39.061303 L -77.342108,39.062926 L -77.362289,39.06256 L -77.368153,39.06159 L -77.386818,39.062241 L -77.398968,39.064697 L -77.420005,39.066369 L -77.441698,39.071313 L -77.454729,39.072807 L -77.460602,39.074843 L -77.468824,39.085346 L -77.468909,39.089679 L -77.472831,39.093182 L -77.481015,39.105689 L -77.489835,39.111374 L -77.518447,39.119782 L -77.524664,39.12772 L -77.526946,39.135605 L -77.527322,39.146961 L -77.52436531346048,39.15016249062115 L -77.521298,39.161873 L -77.517622,39.169417 L -77.507558,39.181367 L -77.481202,39.187909 L -77.476711,39.191747 L -77.475995,39.201827 L -77.472866,39.20948 L -77.46084346438185,39.21814836979369 L -77.45771,39.224979 L -77.460726,39.228799 L -77.471105,39.234303 L -77.480332,39.24117 L -77.484731,39.246052 L -77.498573,39.25161 L -77.510668,39.253256 L -77.520624,39.258413 L -77.530971,39.261102 L -77.54084,39.265269 L -77.550832,39.275688 L -77.554439,39.281629 L -77.561587,39.288002 L -77.562612,39.303039 L -77.56838739832148,39.30637913889957 L -77.578646,39.305167 L -77.588777,39.301591 L -77.599192,39.301885 L -77.606958,39.303682 L -77.615641,39.302559 L -77.633483,39.307605 L -77.644463,39.308929 L -77.667602,39.318392 L -77.675467,39.32436 L -77.681722,39.323888 L -77.6865,39.320199 L -77.69674,39.318546 L -77.707674,39.321728 L -77.719708,39.321088 L -77.720783,39.318977 L -77.730697,39.315603 L -77.73841,39.308191 L -77.747587,39.294834 L -77.752726,39.283373 L -77.753105,39.27734 L -77.756888,39.274061 L -77.762928,39.258273 L -77.770669,39.255262 L -77.767276,39.249751 L -77.771365,39.236493 L -77.786493,39.221435 L -77.788841,39.214865 L -77.798157,39.200703 L -77.797837,39.194071 L -77.803458,39.180882 L -77.806049,39.171737 L -77.813626,39.164418 L -77.821625,39.151868 L -77.823304,39.144808 L -77.822101,39.140105 L -77.828299,39.132426 L -77.919424,39.191193 L -78.029652,39.262414 L -78.051272,39.27588 L -78.093592,39.303093 L -78.108306,39.312187 L -78.141347,39.333983 L -78.158711,39.343767 L -78.18737,39.363989 L -78.206444,39.375793 L -78.244965,39.402438 L -78.262815,39.41434 L -78.28694,39.428148 L -78.307448,39.440791 L -78.347087,39.466012 L -78.345452,39.459907 L -78.347773,39.440583 L -78.353227,39.436792 L -78.346718,39.427618 L -78.351236,39.420595 L -78.357024,39.416638 L -78.359918,39.409028 L -78.357949,39.404192 L -78.349884,39.397939 L -78.351211,39.3914 L -78.343214,39.388807 L -78.352097,39.375098 L -78.366867,39.35929 L -78.348927,39.354713 L -78.340415,39.353628 L -78.339284,39.348605 L -78.346777,39.344266 L -78.346301,39.339108 L -78.360571,39.317597 L -78.367242,39.310148 L -78.374728,39.305136 L -78.38723568723346,39.29332561012875 L -78.393371,39.282988 L -78.402886,39.278624 L -78.402783,39.275471 L -78.419422,39.257476 L -78.409116,39.252564 L -78.399669,39.243874 L -78.404214,39.241214 L -78.405459,39.231698 L -78.420548,39.214798 L -78.430363,39.206863 L -78.438695,39.198093 L -78.430846,39.196227 L -78.428697,39.187217 L -78.418944,39.177354 L -78.406966,39.170903 L -78.4047088881249,39.16692693916326 L -78.413943,39.158415 L -78.427294,39.152726 L -78.436658,39.141691 L -78.439429,39.132146 L -78.459311,39.114273 L -78.466662,39.112858 L -78.473209,39.108143 L -78.477832,39.109605 L -78.484283,39.107372 L -78.49516,39.100992 L -78.495984,39.09898 L -78.516479,39.081802 L -78.516789,39.077569 L -78.526543,39.068221 L -78.540216,39.060631 L -78.554263,39.048058 L -78.556748,39.044527 L -78.571901,39.031995 L -78.565837,39.026303 L -78.558948,39.024007 L -78.550467,39.018065 L -78.5594,39.011877 L -78.562628,39.007198 L -78.569029,39.002951 L -78.581981,38.988398 L -78.593261,38.971918 L -78.598894,38.969546 L -78.601655,38.964603 L -78.610197,38.970476 L -78.611184,38.976134 L -78.618676,38.974082 L -78.620453,38.982601 L -78.629553,38.980866 L -78.638423,38.966819 L -78.646589,38.968138 L -78.652352,38.960677 L -78.65905,38.947375 L -78.665886,38.941579 L -78.670679,38.9338 L -78.680456,38.925313 L -78.688266,38.92478 L -78.697623,38.914278 L -78.704323,38.915231 L -78.718647,38.904561 L -78.720931,38.91016 L -78.718483,38.934266 L -78.73868,38.927362 L -78.744433,38.920228 L -78.750517,38.916028 L -78.750357,38.911675 L -78.759085,38.900529 L -78.769358,38.897064 L -78.772793,38.893742 L -78.779198,38.892298 L -78.788031,38.885123 L -78.79161,38.877593 L -78.796657,38.873646 L -78.80818,38.856175 L -78.815996,38.839514 L -78.831659,38.814895 L -78.834881,38.812034 L -78.849814,38.793012 L -78.855203,38.783573 L -78.869261,38.76298 L -78.993761,38.850021 L -79.000252,38.845412 L -78.999014,38.840074 L -79.002352,38.836512 L -79.007952,38.822312 L -79.019534,38.817907 L -79.019842,38.811711 L -79.023653,38.809812 L -79.023041,38.798611 L -79.029253,38.791013 L -79.047349,38.79181 L -79.054954,38.785713 L -79.051654,38.778013 L -79.051554,38.772613 L -79.055654,38.770913 L -79.057253,38.761413 L -79.072555,38.747513 L -79.073855,38.742114 L -79.079055,38.737214 L -79.080355,38.732514 L -79.086255,38.722914 L -79.086555,38.716015 L -79.092955,38.702002 L -79.090955,38.692915 L -79.0843,38.686507 L -79.088255,38.672916 L -79.092246,38.668114 L -79.092655,38.660417 L -79.107056,38.656417 L -79.110956,38.659517 L -79.120256,38.660216 L -79.131056,38.653218 L -79.137557,38.638017 L -79.142657,38.634417 L -79.145957,38.626818 L -79.151457,38.620218 L -79.155559,38.610484 L -79.154656,38.605919 L -79.159158,38.601219 L -79.158257,38.593119 L -79.163442,38.582817 L -79.167558,38.579819 L -79.171658,38.57222 L -79.170954,38.568116 L -79.176658,38.56552 L -79.180858,38.55992 L -79.184258,38.55132 L -79.193458,38.542421 L -79.201459,38.527821 L -79.205859,38.524521 L -79.210959,38.507422 L -79.207159,38.503822 L -79.210591,38.492913 L -79.22140061786111,38.48478340286684 L -79.220961,38.48059 L -79.225669,38.476471 L -79.239881,38.470079 L -79.242037,38.465051 L -79.242388,38.454486 L -79.247474,38.453306 L -79.254482,38.45593 L -79.256978,38.450567 L -79.261103,38.44807 L -79.266329,38.43944 L -79.2823610571728,38.43181738836579 L -79.279692,38.424211 L -79.283505,38.418049 L -79.28845,38.420966 L -79.296111,38.418349 L -79.300085,38.414891 L -79.304581,38.415511 L -79.312276,38.411876 L -79.370132,38.427197 L -79.476638,38.457228 L -79.498462,38.495465 L -79.521788,38.534323 L -79.526669,38.537118 L -79.53377,38.545217 L -79.53687,38.550917 L -79.54567,38.554517 L -79.554671,38.559917 L -79.572712,38.563463 L -79.649075,38.591515 L -79.655875,38.581416 L -79.656259,38.576011 L -79.662875,38.570416 L -79.659275,38.562416 L -79.665075,38.560916 L -79.669575,38.550816 L -79.670675,38.540316 L -79.666873,38.538616 L -79.672974,38.528717 L -79.666774,38.524317 L -79.662774,38.518317 L -79.663474,38.514117 L -79.674074,38.510417 L -79.680374,38.510617 L -79.682774,38.501617 L -79.688345,38.496183 L -79.694506,38.494232 L -79.697572,38.487223 L -79.69418,38.478311 L -79.699622,38.473967 L -79.691086,38.463743 L -79.688105,38.450444 L -79.691424,38.446812 L -79.6895,38.442628 L -79.691743,38.437064 L -79.689667,38.431462 L -79.696831,38.426757 L -79.699734,38.42187 L -79.706634,38.41573 L -79.709923,38.408238 L -79.717365,38.401562 L -79.722653,38.389517 L -79.72635,38.38707 L -79.731661,38.374143 L -79.727676,38.371701 L -79.727053,38.362233 L -79.732059,38.360168 L -79.734901,38.355548 L -79.742771,38.353367 L -79.757626,38.357566 L -79.764175,38.356634 L -79.76598,38.351291 L -79.770349,38.3478 L -79.767594,38.344302 L -79.77309,38.335529 L -79.79625870064385,38.32350489722883 L -79.799617,38.317149 L -79.808711,38.309429 L -79.809934,38.304681 L -79.804026,38.298622 L -79.802299,38.291829 L -79.795448,38.290228 L -79.786609,38.274884 L -79.788945,38.268703 L -79.806513,38.259202 L -79.81117245532337,38.260326041382 L -79.815709,38.255067 L -79.814864,38.251569 L -79.82101,38.248279 L -79.830713,38.249713 L -79.835113,38.241897 L -79.843657,38.241505 L -79.850326,38.233324 L -79.85675207361923,38.231141687607796 L -79.867996,38.219442 L -79.883322,38.206843 L -79.891837,38.204322 L -79.897335,38.193381 L -79.907621,38.187946 L -79.91441,38.188418 L -79.92102920054369,38.180260985481695 L -79.916622,38.177994 L -79.918948,38.17189 L -79.915065,38.168088 L -79.919705,38.153519 L -79.925251,38.150465 L -79.928683,38.144928 L -79.929031,38.139771 L -79.933974,38.135299 L -79.939397,38.135107 L -79.945187,38.131989 L -79.941174,38.12527 L -79.941464,38.117369 L -79.938946,38.111628 L -79.92633,38.107147 L -79.934256,38.097676 L -79.942365,38.091589 L -79.947289,38.085046 L -79.953511,38.08148 L -79.957758,38.07205 L -79.961647,38.067415 L -79.960162,38.062547 L -79.96608,38.05082 L -79.973895,38.040004 L -79.975269,38.030075 L -79.98029,38.027596 L -79.985619,38.01916 L -79.986142,38.014182 L -79.990114,38.013246 L -79.995901,38.005791 L -79.999241,37.99519 L -80.008888,37.99083 L -80.013145,37.984253 L -80.020631,37.980748 L -80.03598,37.968249 L -80.036908,37.965907 L -80.046872,37.960055 L -80.056056,37.951959 L -80.069431,37.945463 L -80.075441,37.939629 L -80.084569,37.9334 L -80.091058,37.926906 L -80.096563,37.918112 L -80.102931,37.918911 L -80.107205,37.912442 L -80.116884,37.906292 L -80.119106,37.902018 L -80.129768,37.894159 L -80.131931,37.8895 L -80.140609,37.883932 L -80.153231,37.882257 L -80.162202,37.875122 L -80.172033,37.862144 L -80.171641,37.858966 L -80.181815,37.852724 L -80.183594,37.84784 L -80.179391,37.839751 L -80.192966,37.83475 L -80.202853,37.82424 L -80.206482,37.81597 L -80.218611,37.809783 L -80.227092,37.798886 L -80.229489,37.792331 L -80.222914,37.786273 L -80.215892,37.781989 L -80.215658,37.777481 L -80.227645,37.77887 L -80.235892,37.77313 L -80.240863,37.772442 L -80.241437,37.768058 L -80.248389,37.76825 L -80.250879,37.755516 L -80.257411,37.756084 L -80.259315,37.744961 L -80.262765,37.738336 L -80.259668,37.733031 L -80.252024,37.729825 L -80.258143,37.720612 L -80.263936,37.719137 L -80.268149,37.712883 L -80.27199,37.711532 L -80.276577,37.705549 L -80.287107,37.696404 L -80.296077,37.69173 L -80.279372,37.657077 L -80.267504,37.646156 L -80.240791,37.638324 L -80.220984,37.627767 L -80.226017,37.620059 L -80.240272,37.606961 L -80.24978,37.602117 L -80.258919,37.595499 L -80.283398,37.585178 L -80.294882,37.57877 L -80.328504,37.564315 L -80.31237,37.546225 L -80.321488,37.541349 L -80.327491,37.54014 L -80.330368,37.536267 L -80.309347,37.52738 L -80.291625,37.536496 L -80.282391,37.533519 L -80.299789,37.508271 L -80.309333,37.502883 L -80.332034,37.493745 L -80.34378,37.492151 L -80.366837,37.484879 L -80.363171,37.480001 L -80.371951,37.474069 L -80.382508,37.470376 L -80.40278,37.460334 L -80.425629,37.449885 L -80.443009,37.438131 L -80.457304,37.43227 L -80.464816,37.426145 L -80.475601,37.422949 L -80.49486,37.435072 L -80.497279,37.44478 L -80.492981,37.457749 L -80.511391,37.481672 L -80.516366,37.478474 L -80.523481,37.476905 L -80.532372,37.477124 L -80.536889,37.474008 L -80.552036,37.473563 L -80.585856,37.456654 L -80.591377,37.45144 L -80.622117,37.435969 L -80.622664,37.433307 L -80.631855,37.432233 L -80.636947,37.427471 L -80.645893,37.422147 L -80.674249,37.410023 L -80.694179,37.399911 L -80.71596,37.390253 L -80.723101,37.388328 L -80.743391,37.379851 L -80.748722,37.38005 L -80.759886,37.374882 L -80.770082,37.372363 L -80.776649,37.383679 L -80.783141,37.390285 L -80.784188,37.394587 L -80.800508,37.395953 L -80.806266,37.398294 L -80.80619,37.403767 L -80.836408,37.423992 L -80.841025,37.426123 L -80.846325,37.423395 L -80.859457,37.429491 L -80.863575,37.424131 L -80.865568,37.417377 L -80.863003,37.411514 L -80.883247,37.383933 L -80.849451,37.346909 L -80.869137,37.338457 L -80.880103,37.328903 L -80.89805,37.316779 L -80.919259,37.306163 L -80.931118,37.302872 L -80.951018,37.29497 L -80.973889,37.291444 L -80.981322,37.293465 L -80.979106,37.300581 L -80.987319,37.301359 L -81.01021,37.295776 L -81.021937,37.294143 L -81.036133,37.290252 L -81.052886,37.288607 L -81.075894,37.284887 L -81.084012,37.284401 L -81.104147,37.280605 L -81.133606,37.272417 L -81.142404,37.269165 L -81.167029,37.262881 L -81.179397,37.257313 L -81.204774,37.243013 L -81.225104,37.234874 L -81.244903,37.248592 L -81.292192,37.280297 L -81.320259,37.299469 L -81.362156,37.337687 L -81.36543,37.337748 L -81.369494,37.331237 L -81.367536,37.3269 L -81.372499,37.320494 L -81.380061,37.317776 L -81.38469,37.318548 L -81.394287,37.316411 L -81.39820370933471,37.310749288343686 L -81.396817,37.304498 L -81.40506,37.298794 L -81.403764,37.296597 L -81.411593,37.28033 L -81.415954,37.278936 L -81.416756,37.273208 L -81.427946,37.271015 L -81.437158,37.274065 L -81.439507,37.270909 L -81.445438,37.272387 L -81.454438,37.266999 L -81.460554,37.265342 L -81.462107,37.259899 L -81.475868,37.255756 L -81.483559,37.250604 L -81.495496,37.252249 L -81.499294,37.25721 L -81.503131,37.253091 L -81.50652,37.245246 L -81.506865,37.234948 L -81.510097,37.232119 L -81.521638,37.22698 L -81.531073,37.225187 L -81.545696,37.22003 L -81.547085,37.216095 L -81.553812,37.208589 L -81.56077,37.206656 L -81.678221,37.20154 L -81.683268,37.205649 L -81.683945,37.210323 L -81.688271,37.213506 L -81.694753,37.213366 L -81.699334,37.219921 L -81.71573,37.228771 L -81.716248,37.234321 L -81.723061,37.240493 L -81.731343,37.240028 L -81.740124,37.237752 L -81.744383,37.243547 L -81.740875,37.254224 L -81.745697,37.258185 L -81.746039,37.263398 L -81.757576,37.268552 L -81.756987,37.276073 L -81.768864,37.273306 L -81.779352,37.27739 L -81.779362,37.279982 L -81.788408,37.28435 L -81.803275,37.285916 L -81.816279,37.280009 L -81.825851,37.279311 L -81.83462,37.282071 L -81.8385789422544,37.286289550461575 L -81.846807,37.284649 L -81.853553,37.287706 L -81.852315,37.296687 L -81.85446,37.30657 L -81.85928,37.304866 L -81.865683,37.309484 L -81.860267,37.315715 L -81.869724,37.320495 L -81.874115,37.326645 L -81.881886,37.330255 L -81.891207,37.331592 L -81.893581,37.329845 L -81.900495,37.342072 L -81.907161,37.342636 L -81.91022,37.348955 L -81.915043,37.349574 L -81.925302,37.356969 L -81.928463,37.360871 L -81.926002,37.365377 L -81.933382,37.369341 L -81.931756,37.376997 L -81.935872,37.378554 L -81.93571,37.383147 L -81.931505,37.386594 L -81.933883,37.390652 L -81.928778,37.393845 L -81.930042,37.405291 L -81.924506,37.407613 L -81.925229,37.411807 L -81.932468,37.415217 L -81.93788,37.420086 L -81.940553,37.429058 L -81.935621,37.438397 L -81.945765,37.440214 L -81.949124,37.445575 L -81.956866,37.448263 L -81.967973,37.446593 L -81.968795,37.451496 L -81.976176,37.457186 L -81.985527,37.454328 L -81.99227,37.460916 L -81.992972,37.46845 L -81.995649,37.469833 L -81.996578,37.476705 L -81.989849,37.484879 L -81.977593,37.484603 L -81.963925,37.493493 L -81.953838,37.491502 L -81.954077,37.499822 L -81.943912,37.502929 L -81.943045,37.508609 L -81.927681,37.512113 L -81.927194,37.515332 L -81.934726,37.519261 L -81.939989,37.512591 L -81.944817,37.513739 L -81.943507,37.519788 L -81.947578,37.526798 L -81.957389,37.529605 L -81.957528,37.535505 L -81.966945,37.532916 L -81.968012,37.538035 L -82.022367,37.499978 L -82.050717,37.480578 L -82.062159,37.471544 L -82.123969,37.428049 L -82.21221,37.367534 L -82.268331,37.328 L -82.315623,37.295116 L -82.320185,37.286505 L -82.324725,37.283042 L -82.343825,37.28075 L -82.342066,37.274355 L -82.34907,37.271914 L -82.348726,37.268232 L -82.355689,37.265296 L -82.364781,37.264269 L -82.376771,37.259923 L -82.383473,37.260149 L -82.408511,37.253313 L -82.411919,37.253449 L -82.432908,37.246483 L -82.439515,37.247161 L -82.443329,37.243419 L -82.448205,37.244099 L -82.457244,37.238386 L -82.464668,37.235975 L -82.473049,37.235591 L -82.486471,37.231212 L -82.491711,37.225 L -82.498952,37.226924 L -82.50843,37.222625 L -82.510845,37.218332 L -82.522526,37.212539 L -82.526299,37.214596 L -82.531862,37.212433 L -82.533359,37.206567 L -82.541349,37.206618 L -82.545802,37.203145 L -82.550087,37.204602 L -82.57051,37.192788 L -82.59185,37.183256 L -82.597462,37.177045 L -82.606513,37.173989 L -82.612576,37.169727 L -82.623609,37.164438 L -82.633918,37.154179 L -82.640013,37.153645 L -82.648593,37.150332 L -82.65477,37.15031 L -82.655973,37.145674 L -82.668332,37.141405 L -82.676828,37.134888 L -82.682892,37.136951 L -82.692635,37.132967 L -82.715149,37.121848 L -82.721413,37.12083 L -82.726688,37.114794 L -82.722094,37.10509 L -82.722844,37.084801 L -82.718471,37.080945 L -82.718078,37.075918 L -82.726486,37.073411 L -82.726083,37.066877 L -82.722232,37.058032 L -82.722433,37.044949 L -82.72502,37.042419 L -82.733506,37.044521 L -82.742759,37.042796 L -82.747813,37.024538 L -82.758976,37.027453 L -82.766409,37.023084 L -82.771853,37.015707 L -82.777324,37.015887 L -82.782863,37.007821 L -82.788498,37.008672 L -82.793665,37.005471 L -82.79692,37.009026 L -82.803945,37.007254 L -82.815865,37.007356 L -82.822253,37.004158 L -82.82872,37.005798 L -82.830066,36.994625 L -82.837683,36.987049 L -82.844952,36.983825 L -82.853759,36.985152 L -82.856981,36.978848 L -82.862861,36.98019 L -82.867082,36.978247 L -82.870982,36.968483 L -82.866144,36.958556 L -82.855912,36.953012 L -82.859882,36.949172 L -82.8623,36.941338 L -82.857644,36.92885 L -82.871819,36.913501 L -82.877379,36.908471 L -82.867978,36.900048 L -82.878467,36.894218 L -82.87908,36.889255 L -82.884461,36.888498 L -82.889343,36.884661 L -82.908007,36.878747 L -82.907823,36.874764 L -82.922747,36.873809 L -82.928307,36.870412 L -82.933486,36.870468 L -82.937678,36.867319 L -82.951754,36.866108 L -82.961435,36.86248 L -82.969243,36.858019 L -82.979502,36.859698 L -82.988996,36.859156 L -82.998587,36.856567 L -83.006577,36.847643 L -83.012437,36.84693 L -83.021913,36.84988 L -83.02631,36.855422 L -83.035704,36.854117 L -83.041028,36.855013 L -83.0478,36.85168 L -83.060749,36.853948 L -83.066854,36.851949 L -83.072836,36.854457 L -83.075849,36.850694 L -83.074067,36.845793 L -83.075253,36.840699 L -83.087459,36.838224 L -83.0909,36.834594 L -83.099904,36.831147 L -83.10180531819339,36.826930141356314 L -83.098607,36.823985 L -83.09848,36.813517 L -83.102564,36.81127 L -83.104331,36.803997 L -83.110649,36.800487 L -83.11893,36.789688 L -83.1237,36.786503 L -83.129834,36.785845 L -83.133043,36.782576 L -83.128987,36.775784 L -83.132965,36.771546 L -83.128569,36.759718 L -83.13013,36.749539 L -83.13512,36.742629 L -83.156499,36.741622 L -83.163124,36.739298 L -83.168024,36.740641 L -83.174935,36.739178 L -83.194252,36.739519 L -83.223719,36.730258 L -83.241517,36.725836 L -83.24548,36.72594 L -83.255969,36.722057 L -83.288296,36.71371 L -83.295901,36.713546 L -83.309711,36.710639 L -83.334967,36.702732 L -83.347635,36.700199 L -83.358281,36.693686 L -83.364973,36.694096 L -83.371092,36.690686 L -83.386809,36.686614 L -83.39587,36.679426 L -83.395555,36.677404 L -83.418682,36.668729 L -83.436354,36.666221 L -83.443545,36.667179 L -83.45369,36.664793 L -83.470473,36.664923 L -83.481328,36.665974 L -83.492805,36.670187 L -83.509259,36.668774 L -83.512108,36.669628 L -83.532404,36.664689 L -83.532832,36.661625 L -83.543857,36.655455 L -83.562426,36.651249 L -83.567853,36.646051 L -83.578467,36.64184 L -83.587296,36.642301 L -83.603068,36.637147 L -83.613896,36.63485 L -83.618261,36.628587 L -83.624017,36.625509 L -83.634932,36.622887 L -83.640727,36.624763 L -83.648086,36.622839 L -83.649313,36.616774 L -83.656993,36.613083 L -83.663548,36.606928 L -83.67296,36.604762 L -83.67537920636775,36.60078403907826 L -83.645586,36.600002 L -83.622051,36.597982 L -83.556922,36.597385 L -83.47210652138496,36.597283097244166 L -83.37032,36.597428 L -83.2763,36.598187 L -83.261099,36.593887 L -83.175839,36.59389 L -83.124893,36.594089 L -83.005327,36.593851 L -82.888924,36.593468 L -82.852315,36.593698 L -82.739682,36.593598 L -82.622603,36.593797 L -82.486994,36.595822 L -82.46564,36.594482 L -82.42244758115062,36.59500825511006 L -82.368468,36.595015 L -82.293814,36.595699 L -82.253669,36.595575 L -82.214276,36.595846 L -82.169912,36.594596 L -82.102171,36.594762 L -82.046794,36.594403 L -82.014228,36.594491 L -81.934144,36.594213 L -81.922644,36.616213 L -81.84885787581919,36.614875057565534 L -81.771415,36.612942 L -81.736895,36.612379 L -81.6469,36.611918 L -81.67749,36.588137 L -81.600455,36.586948 L -81.520347,36.580521 L -81.458411,36.578004 L -81.443047,36.576832 L -81.388554,36.575017 L -81.363281,36.574497 L -81.307437,36.574961 L -81.262375,36.573922 L -81.235401,36.572726 L -81.176933,36.571885 L -81.171045,36.570947 L -81.137799,36.569345 L -81.120144,36.569089 L -81.088426,36.567309 L -81.044851,36.566513 L -81.003808,36.563656 L -80.959827,36.563577 L -80.931725,36.562419 L -80.898453,36.561706 L -80.837954,36.559143 L -80.79956478567031,36.5611001715292 L -80.774027,36.560375 L -80.730361,36.562329 L -80.704601,36.562302 L -80.653387,36.559183 L -80.563473,36.556364 L -80.44034,36.550665 L -80.295128,36.544067 L -80.24373,36.543938 L -80.122173,36.54265 L -80.000493,36.542402 L -79.933269,36.542664 L -79.865597,36.542615 L -79.714849,36.541965 L -79.604774,36.541553 L -79.542165,36.540856 L -79.513638,36.540902 L -79.458079,36.540981 L -79.446048,36.541382 L -79.40079,36.541581 L -79.362911,36.541285 L -79.347268,36.541598 L -79.280504,36.541468 L -79.250474,36.541141 L -79.217627,36.541661 L -79.13832,36.541975 L -79.124735,36.541659 L -79.070063,36.542049 L -78.933599,36.54219 L -78.767108,36.541755 L -78.675011,36.54215 L -78.620798,36.541321 L -78.511291,36.541049 L -78.45691490103933,36.54253936299391 L -78.247007,36.544471 L -78.158517,36.544252 L -78.10559999327745,36.54368267837293 L -78.046271,36.543551 L -77.995132,36.544406 L -77.883833,36.544681 L -77.749853,36.545452 L -77.590939,36.545127 L -77.510096,36.545185 L -77.431998,36.544798 L -77.351772,36.544894 L -77.260684,36.544739 L -77.206536,36.544367 L -77.190062,36.54641 L -77.170545,36.54728 L -77.15292,36.54413 L -77.12472822402228,36.544036146205215 L -77.103028,36.544594 L -76.915977,36.543884 L -76.915411,36.552146 L -76.819611,36.551117 L -76.755255,36.550766 L -76.541966,36.550653 L -76.376931,36.550595 L -76.24641,36.550418 L -76.071704,36.550598 L -76.004003,36.550432 L -75.928004,36.550627 L -75.86764692320608,36.55041157241111 Z M -75.648228,37.966771 L -75.641266,37.96323 L -75.636869,37.95564 L -75.63675,37.945613 L -75.643049,37.936334 L -75.650654,37.935116 L -75.665628,37.936991 L -75.678701,37.942708 L -75.693942,37.930362 L -75.704318,37.92901 L -75.710668,37.933804 L -75.712229,37.938139 L -75.719344,37.93446 L -75.72897,37.921336 L -75.743468,37.912055 L -75.74121,37.907085 L -75.734318,37.906241 L -75.736694,37.897021 L -75.729326,37.898365 L -75.72049,37.901926 L -75.707816,37.900334 L -75.696883,37.901834 L -75.688445,37.899021 L -75.689753,37.895364 L -75.69819,37.891894 L -75.688479,37.887119 L -75.678938,37.88833 L -75.681196,37.880076 L -75.680127,37.875292 L -75.692898,37.867792 L -75.689277,37.859531 L -75.672283,37.850898 L -75.681315,37.844048 L -75.678225,37.837478 L -75.689158,37.836446 L -75.69617,37.840576 L -75.697358,37.848834 L -75.702914,37.849659 L -75.709242,37.842828 L -75.70639,37.840951 L -75.710668,37.835883 L -75.70639,37.827999 L -75.717052,37.827726 L -75.719463,37.820583 L -75.719819,37.806406 L -75.718155,37.799739 L -75.718868,37.79326 L -75.72588,37.796359 L -75.728494,37.787907 L -75.733367,37.785934 L -75.740735,37.787907 L -75.744181,37.786028 L -75.752381,37.788658 L -75.757254,37.79495 L -75.770607,37.804602 L -75.784599,37.806826 L -75.793399,37.804493 L -75.799798,37.798894 L -75.808711,37.794199 L -75.812306,37.794709 L -75.816396,37.789344 L -75.811801,37.778702 L -75.808593,37.782647 L -75.804314,37.781426 L -75.799204,37.771188 L -75.80063,37.761605 L -75.790291,37.765175 L -75.787082,37.763014 L -75.78732,37.757095 L -75.792668,37.750612 L -75.808474,37.746008 L -75.812155,37.749502 L -75.822497,37.741873 L -75.82968,37.734991 L -75.831984,37.728119 L -75.825943,37.728151 L -75.800749,37.733039 L -75.795045,37.726741 L -75.809543,37.717529 L -75.81192,37.722605 L -75.819645,37.717435 L -75.822853,37.718751 L -75.828558,37.713487 L -75.835926,37.70982 L -75.837352,37.701734 L -75.845433,37.698914 L -75.852326,37.685372 L -75.852326,37.677189 L -75.847097,37.676249 L -75.845908,37.669758 L -75.850068,37.666184 L -75.856247,37.664679 L -75.865398,37.668724 L -75.868481,37.668224 L -75.877059,37.660641 L -75.876807,37.653624 L -75.887264,37.653154 L -75.892392,37.63748 L -75.884531,37.631981 L -75.881917,37.619745 L -75.876094,37.614944 L -75.882036,37.607224 L -75.89285,37.6044 L -75.897604,37.607789 L -75.900693,37.615509 L -75.899862,37.62031 L -75.902238,37.625392 L -75.909586,37.622671 L -75.916388,37.610073 L -75.921624,37.605113 L -75.925412,37.596303 L -75.917569,37.58585 L -75.932001,37.579556 L -75.941182,37.563839 L -75.941153,37.558436 L -75.932305,37.550621 L -75.937771,37.542612 L -75.940318,37.534582 L -75.949974,37.521876 L -75.958966,37.500133 L -75.962377,37.4853 L -75.963496,37.475352 L -75.95845,37.469455 L -75.968432,37.45757 L -75.970464,37.451656 L -75.976491,37.444878 L -75.979631,37.438295 L -75.983105,37.415802 L -75.97997,37.404608 L -75.974731,37.404818 L -75.967481,37.399814 L -75.970571,37.391034 L -75.974374,37.385463 L -75.986153,37.382124 L -75.986146,37.37347 L -75.984025,37.369854 L -75.98882,37.367025 L -76.000638,37.346927 L -76.012165,37.333794 L -76.018645,37.31782 L -76.021553,37.300512 L -76.019533,37.297122 L -76.011096,37.294853 L -76.016325,37.289369 L -76.012997,37.279441 L -76.020147,37.274103 L -76.023664,37.268971 L -76.025753,37.257407 L -76.014899,37.236499 L -76.009788,37.234134 L -76.012759,37.221738 L -76.013058,37.206028 L -76.010323,37.200085 L -75.998647,37.188739 L -75.988293,37.172931 L -75.987155,37.166479 L -75.98166,37.163075 L -75.976513,37.154424 L -75.970004,37.128861 L -75.970073,37.11719 L -75.965371,37.118977 L -75.955122,37.11975 L -75.93694,37.125814 L -75.927789,37.130268 L -75.911508,37.122877 L -75.921015,37.11179 L -75.906517,37.114633 L -75.898372,37.118552 L -75.876522,37.138384 L -75.859713,37.156878 L -75.844864,37.168941 L -75.835456,37.174539 L -75.835559,37.181173 L -75.820642,37.192987 L -75.818621,37.199046 L -75.820666,37.20326 L -75.829426,37.204154 L -75.829284,37.207095 L -75.820628,37.213061 L -75.807599,37.216053 L -75.801381,37.220461 L -75.799842,37.231002 L -75.80371,37.238626 L -75.813688,37.236595 L -75.81854,37.244209 L -75.812616,37.24842 L -75.799694,37.250908 L -75.794553,37.262351 L -75.792024,37.281985 L -75.797601,37.296108 L -75.792906,37.30166 L -75.784111,37.302321 L -75.775876,37.298663 L -75.76925,37.303079 L -75.757168,37.31404 L -75.743587,37.328502 L -75.732297,37.34447 L -75.727335,37.360346 L -75.722552,37.368653 L -75.717799,37.372053 L -75.710431,37.382063 L -75.695695,37.404723 L -75.675254,37.431717 L -75.662063,37.443418 L -75.661013,37.454841 L -75.663336,37.461121 L -75.666675,37.462812 L -75.678379,37.459777 L -75.6869,37.465399 L -75.69106,37.473605 L -75.686306,37.478604 L -75.684845,37.487354 L -75.681457,37.488815 L -75.672877,37.483696 L -75.66955,37.484356 L -75.662419,37.490674 L -75.645236,37.515641 L -75.624164,37.541522 L -75.60704,37.563433 L -75.600147,37.571346 L -75.603,37.577186 L -75.612863,37.57728 L -75.614765,37.594231 L -75.614527,37.609296 L -75.612031,37.618333 L -75.603831,37.628028 L -75.599316,37.636875 L -75.590759,37.66736 L -75.590997,37.67592 L -75.588382,37.685043 L -75.589354,37.691199 L -75.580501,37.696694 L -75.576023,37.704884 L -75.567585,37.726882 L -75.562951,37.736469 L -75.551898,37.748122 L -75.540609,37.767101 L -75.526823,37.788705 L -75.512206,37.807392 L -75.48927,37.832457 L -75.453562,37.863637 L -75.439408,37.872601 L -75.4315,37.875227 L -75.416421,37.890628 L -75.411667,37.896817 L -75.406438,37.899443 L -75.399665,37.898224 L -75.386354,37.899443 L -75.381482,37.892972 L -75.367221,37.892972 L -75.354992,37.89087 L -75.346158,37.891348 L -75.349921,37.878316 L -75.36249,37.867154 L -75.370192,37.866333 L -75.38411,37.875694 L -75.388702,37.876265 L -75.394569,37.872178 L -75.390365,37.864119 L -75.389056,37.856169 L -75.381601,37.851232 L -75.369678,37.859444 L -75.358644,37.864997 L -75.34645,37.878299 L -75.335642,37.895555 L -75.322775,37.918196 L -75.307564,37.943129 L -75.298275,37.956759 L -75.258483,38.007674 L -75.24247825800708,38.027017505416815 L -75.284622,38.023656 L -75.398498,38.013258 L -75.459648,38.008429 L -75.624343,37.994208 L -75.625611,37.989798 L -75.632532,37.986691 L -75.635735,37.979534 L -75.640914,37.977235 L -75.644725,37.969775 L -75.648228,37.966771 Z M -76.045541,37.95364 L -76.041875,37.949549 L -76.037122,37.951704 L -76.028922,37.951048 L -76.025119,37.943739 L -76.032368,37.933335 L -76.029397,37.921711 L -76.02477,37.927185 L -76.016064,37.929804 L -76.020722,37.940365 L -76.0168,37.946456 L -76.00349,37.950392 L -75.997685,37.945693 L -75.99392080033972,37.953475776313006 L -76.045541,37.95364 Z M -75.866705,37.683209 L -75.857792,37.683397 L -75.85696,37.689604 L -75.86314,37.690826 L -75.866705,37.683209 Z M -75.981032,37.097145 L -75.978716,37.090967 L -75.971557,37.085435 L -75.967202,37.084598 L -75.949709,37.08556 L -75.944895,37.088035 L -75.942887,37.098042 L -75.947165,37.103079 L -75.962048,37.107498 L -75.978019,37.103319 L -75.981032,37.097145 Z M -75.99933,37.827717 L -75.999053,37.818596 L -75.995765,37.812603 L -75.987684,37.817672 L -75.975853,37.828066 L -75.973542,37.833536 L -75.979009,37.835038 L -75.988018,37.841085 L -75.992556,37.848889 L -75.998736,37.845362 L -75.99933,37.827717 Z M -76.008102,37.872812 L -76.002301,37.86197 L -76.000162,37.863753 L -76.004203,37.870508 L -76.008102,37.872812 Z" fill="none" stroke=currentColor stroke-width="1" vector-effect="non-scaling-stroke"/>
</svg>