<?xml version="1.0"?>
<svg xmlns="http://www.w3.org/2000/svg" version="1.2" baseProfile="tiny" viewBox="-46.400000000000006 -46.400000000000006 892.8 1020.8" stroke-linecap="round" stroke-linejoin="round">
<g id="state">
<path d="M 71.01 919.51 66.32 919.45 60.44 896.84 63.38 892.01 62.01 889.47 62.69 883.82 65.41 884.1 65.55 882.42 66.49 860.12 67.16 839.51 69.01 802.16 70.7 777.91 73.3 729 73.48 723.69 74.39 711.51 74.93 694.5 76.05 665.84 77.65 626.35 78.41 603.95 80.46 601.51 78.39 597.54 76.95 596.9 77.56 592.68 74.76 590.24 73.51 588.2 69.04 585.44 64.43 584.47 62.88 582.4 60.38 582.98 57.89 582.23 59.97 580.13 58.11 579.23 60.41 574.33 59.31 571.92 55.88 569.25 56.65 567.01 55.75 563.62 52.64 564.22 46.87 562.89 39.45 563.3 36.06 564.92 35.09 563.53 30.26 564.54 26.02 568.92 27.29 572.45 22.97 575.24 23.73 576.87 21.63 577.75 23.36 579.83 22.67 583.97 20.48 584.26 19.7 586.11 17.09 586.94 9.47 583.03 8.09 581.5 4.75 580.49 4.07 577.85 7.59 572.8 6.74 569.02 9.12 565.69 8.92 564.58 5.04 560.09 5.63 556.79 8.89 554.49 10.23 551.08 13.07 545.93 14.91 540.05 14.21 538.28 15.16 536.61 18.47 534.51 22.2 528.82 25.33 526.41 28.22 523.33 28.49 515.83 36.05 505.33 33.51 498.96 31.62 497.18 25.72 493.46 24.71 489.69 23.59 488.18 19.97 485.67 19.24 483.91 20.66 480.49 25.31 477.46 27.42 474.78 24.32 472.12 23.54 470.06 26.81 462.66 22.93 456.2 17.88 451.35 15.38 444.62 13.45 441.27 12.75 438.72 14.05 433.23 13.47 425.1 11.46 421.28 11.27 419.42 13.9 407.61 13.86 405.6 12.13 401.5 7.64 399.34 1.89 395.28 1 393.97 3.17 387.01 4.52 379.93 10.18 371.23 11.79 366.21 9.8 358.69 11.49 356.49 15.1 353.58 16.79 346.73 18.03 344.97 17.35 343.09 18.49 340.48 20.45 338.7 20.01 336.14 20.82 334.31 23.64 332.24 26.95 330.94 28.12 329.49 31.14 328.2 31.61 326.29 36 320.82 36.75 318.82 39.45 317.39 39.24 315.88 42.54 314.95 44.49 313.4 46.81 313.72 48.85 311.14 51.63 304.87 52.37 301.27 51.84 298.94 50 295.84 47.8 290.25 46.99 286.82 47.06 277.19 45.72 272.93 42.77 267.87 43.19 261.63 44.49 260.14 49.88 256.09 51.75 252.57 52.53 249.38 58.38 238.97 59.22 233.2 56.7 227.96 57.3 224.36 56.82 219.42 55.12 216.21 54.07 209.84 48.35 204.47 48 200.11 44.98 198.29 43.63 194.98 41.08 192.62 41.11 190.54 39.42 188.98 33.81 186.55 32.48 184.68 29.54 182.63 26.46 179.31 26.17 176.8 23.67 173.85 25.27 172.02 25.7 169.69 23.45 164.94 20.45 162.57 22.04 156.97 21.52 155.15 24.86 152.96 22.98 150.87 25.1 148.43 24.8 146.57 28.44 142.8 27.44 141.95 27.72 138.4 29.6 137.77 28.41 135.21 30.19 134.27 31.98 131.3 30.09 130.07 30.36 127.75 30.46 115.4 30.19 112.47 30.98 110.78 34.79 106.71 37.74 99.56 42.07 96.12 43.37 92.84 42.61 86.97 35.15 80.39 30.21 77.93 26.3 73.95 24.64 73.26 23.9 68.46 24.49 65.56 27.67 63.39 28.83 61.66 32.38 49.3 34.04 46.37 40.89 41.34 41.22 38.43 40.76 30.64 41.31 21.99 36.47 17.35 34.68 12.85 36.21 10.55 39.32 3.4 77.28 2.81 109.3 2.07 143.38 1.48 151.8 1.75 153.98 1.32 158.56 1.75 172.16 1.67 191.06 2.03 203.84 1.96 205.49 1.67 240.31 1 279.99 1.42 300.3 1.44 316.68 1.66 330.35 2.02 346.1 3.05 357.97 4.49 367.89 4.59 388.88 4.16 400.59 4.28 420.3 5.07 439.67 5.42 456.44 6.2 473.05 6.04 499.66 5.56 521.51 5.3 540.93 5.47 561.86 5.2 604.09 4.39 617.42 4.66 661.09 3.52 682.08 3.15 704.87 3.16 740.01 2.6 760.37 2.66 784.44 2.32 799 2.22 794.43 3.92 792.73 6.79 789.6 7.43 782.97 4.37 779.29 5.91 772.55 8.02 769.86 10.72 769.23 12.89 769.74 15.43 775.69 19.97 775.54 22.35 778.26 22.1 778.8 24.48 777.58 29.7 778.44 35.35 779.93 37.68 783.52 40.87 786.44 45.01 779.34 50.38 780.5 52.15 777.31 54.33 775.99 56.13 773.39 57.2 773.07 59.08 770.31 60.83 766.29 61.96 764.86 63.52 765.75 65.93 762.79 68.13 764.19 73.68 761.84 74.8 760.1 78.82 755.27 80.21 753.77 82.48 757.2 85.78 755.42 88.95 756.08 90.93 753.05 94.52 747.45 95.64 741.9 102.05 739.94 102.58 739.21 105.22 737.25 106.5 732.31 107.41 731.85 109.46 734.24 111.79 733.86 117.54 737.52 117.65 736.87 120.1 739.34 121.32 742.82 126.01 744.98 127.77 744.01 129.31 746.61 130.28 745.24 132.41 746.82 135.58 745.72 137.66 751.86 140.25 749.36 141.5 750.5 143.84 750.64 146.52 753.55 146.82 753.68 149.03 756.94 149.19 759.8 150.44 761.49 152.56 759.39 154.8 761.33 155.67 763.79 158.24 762.02 161.15 763.03 165.6 762.27 168.03 759.99 169.4 762.9 170.47 763.27 172.29 767.24 173.06 769.94 175.3 769.3 176.76 763.81 179.52 764.76 181.88 761.52 181.5 761.31 183.45 757.26 184.59 754.32 183.7 747.98 183.55 745.66 185.97 745.18 187.83 755.63 194.33 755.13 196.57 751.59 200.43 746.83 201.14 749.84 203.92 751.35 206.67 753.34 207.87 752.61 209.37 746.59 209.96 746.47 212.24 744.35 215.71 740.56 216.37 737.51 215.62 734.48 220.02 732.22 220.56 730.77 217.59 725.68 220.55 725.99 222.55 728.39 223.59 726.51 226.06 723.78 225.81 722.14 227.09 720.59 233.18 717.9 235.58 713.11 236.07 713.69 238.74 710.96 239.37 710.1 241.01 706.43 242.55 702.69 245.06 698.7 246.46 694.61 246.02 689.64 246.38 687.15 249.52 683.92 249.65 681.7 248.01 676.71 248.11 672.44 250.44 666.07 250.65 662.03 254.19 663.56 256.06 662.27 257.19 657.68 257.74 657.17 260.53 658.41 261.51 656.97 263.98 658.26 268.34 649.88 270.63 646.11 272.79 642.14 274.32 638.56 274.61 633.57 275.87 628.39 273.64 620.9 271.37 616.1 272.01 611.19 275.72 608.81 276.41 604.62 275.62 597.96 276.09 590.13 275.76 587.12 278.85 577.55 282.27 574.83 282.71 570.89 281.82 569.34 282.61 569.91 284.71 569.32 290 567.57 291.92 564.1 293.94 560.99 294.78 556.57 299.24 554.92 302.69 555.56 303.78 559.02 302.98 557.85 305.79 558.66 308.75 560.48 311.96 562.57 313.7 563.22 316.02 561.24 320.13 561.35 324.11 558.42 327.35 559.26 328.96 558.2 331.4 556.6 332.31 555.98 335.64 558.29 337.85 561.65 344.88 564.86 348.29 566.62 349.13 565.3 351.54 565.64 356.74 568.95 358.69 567.61 361.64 564.36 361.79 561.12 363.96 560.22 367.37 561.3 371.19 563.26 373.16 565.17 372.89 567.15 370.34 570.22 372.27 569.74 374.69 568.33 376.15 564.67 377.44 569.54 379.51 566.88 381.19 565.02 380.17 561.73 381.05 563.1 383.77 559.44 388.63 556.09 388.64 554.65 390.1 555.88 392.4 551.84 394.01 550.52 395.48 552.36 399.12 549.72 400.75 548.2 403.66 544.59 402.74 544.24 405.97 541.21 406.25 539.9 407.97 540.7 410.79 535.45 414.33 537.24 417.54 537 422.09 536.26 424.44 539.58 424.36 545.32 425.55 541.67 427.85 542.53 429.48 539.01 432.97 535.33 433.46 534.37 434.98 535.33 438.98 534.79 443.29 533.22 445.36 529.14 447.25 527.58 448.96 521.89 451.7 518.51 455.58 518.18 457.48 513.63 458.26 512.41 460.92 514.44 465.33 508.66 466.62 506.56 470.81 508.56 475.05 508.82 479.32 506.25 483.88 508.44 489.03 507.49 491.56 505.18 493.2 503.26 496.8 499.48 499.36 500.13 501.45 499.61 504.87 494.87 506.74 487.43 515.23 482.85 516.39 475.22 519.9 472.96 519.85 471.27 522.43 469.04 523.72 463.34 529.98 461.61 530.88 459.19 535.46 458.85 540.25 460.28 541.96 459.96 546.36 455.42 552 455.54 556.76 450.26 559.11 450.17 561.4 448.21 563.89 447.05 567.48 447.84 569.86 449.71 571.02 449.75 573.65 447.79 574.38 441.19 578.95 438.36 579.5 431.42 582.47 428.81 584.83 428.99 587.33 427.7 588.82 428.62 593.96 428.44 598.63 426.09 602.17 423.25 603.32 421.28 609.35 422.2 611.06 426.85 614.19 428.94 618.04 427.69 624.52 423.83 627.86 424.7 632.93 424.36 635.37 422.56 639.59 422.33 644.02 420.85 648.8 420.89 650.43 419.4 658.32 415.27 661.81 414.38 665.04 414.83 669.33 419.58 672.01 423.72 671.92 424.94 672.71 421.11 676.12 416.55 682.78 422.72 690.23 419.77 695.02 417.06 703.05 414.34 707.41 411.95 710.27 407.89 711.73 405.8 713.14 404.84 717.34 407 722.91 404.22 728.46 405.34 733.25 405.11 735.34 400.4 738.79 402.94 742.83 402.66 744.67 399.73 746.37 399.74 754.73 397.7 757.49 399.36 760.32 404.32 761.45 403.71 764.41 407.45 767.89 407.28 771.98 404.07 773.86 403.44 776.09 406.86 781.68 406.4 784 402.22 788.26 393.54 794.98 394.31 797.87 396.12 799.2 395.49 806.28 397.23 809.2 403.16 812.7 402.95 814.67 400.57 816.69 396.83 816.48 394.7 819.26 394.38 821.09 395.54 824.1 391.26 827.83 387.76 827.26 383.54 829.79 377.81 831.09 372.94 831.62 367.42 834.94 366.45 837.2 368.99 838.96 369.74 842.86 369.42 845.7 370.54 849.48 367.59 854.29 367.7 857.9 364.09 861.39 359.09 863.21 358.02 867.1 358.42 873.09 357.35 876.29 361.33 882.02 361.5 887.19 363.22 891.4 363.58 894.74 373.8 902.48 376.62 905.48 376.87 907.14 373.71 910.1 375.85 912.22 379.75 910.86 380.79 908.9 384.2 908.64 386.99 911.77 388.72 912.44 390.33 915.17 391.05 919.14 393.44 921.26 397.2 927.17 340.53 925.55 290.83 924.27 255.34 923.26 233.01 922.76 175.68 921.59 130.41 920.65 71.01 919.51 Z" fill="none" stroke="currentColor" stroke-width="1"/>
</g>
</svg>