<?xml version="1.0"?>
<svg width="200" height="200" xmlns="http://www.w3.org/2000/svg" version="1.2" baseProfile="tiny" viewBox="-352.840 -103.840 1505.680 1505.680" stroke-linecap="round" stroke-linejoin="round">
<g id="state">
<path vector-effect="non-scaling-stroke" d="M 64.88 1284.97 60.05 1284.83 54.29 1253.16 57.37 1246.44 56 1242.87 56.77 1234.98 59.56 1235.4 59.74 1233.05 60.99 1201.88 61.94 1173.07 64.31 1120.87 66.36 1086.98 69.65 1018.61 69.9 1011.18 70.98 994.16 71.75 970.39 73.26 930.32 75.39 875.11 76.44 843.79 78.55 840.4 76.49 834.84 75.04 833.93 75.71 828.04 72.9 824.6 71.66 821.73 67.14 817.83 62.47 816.43 60.92 813.53 58.37 814.3 55.85 813.24 57.99 810.32 56.11 809.05 58.52 802.21 57.43 798.83 53.98 795.07 54.8 791.94 53.92 787.19 50.76 788 44.92 786.08 37.37 786.58 33.9 788.81 32.93 786.86 28.02 788.22 23.65 794.3 24.89 799.24 20.45 803.11 21.2 805.38 19.06 806.6 20.79 809.53 20.02 815.31 17.79 815.69 16.97 818.26 14.3 819.4 6.61 813.84 5.23 811.7 1.85 810.25 1.2 806.54 4.86 799.52 4.06 794.23 6.53 789.6 6.34 788.05 2.47 781.72 3.12 777.11 6.47 773.93 7.88 769.18 10.84 762.01 12.8 753.81 12.12 751.32 13.1 748.99 16.49 746.1 20.36 738.18 23.57 734.84 26.55 730.56 26.93 720.09 34.75 705.48 32.27 696.55 30.38 694.04 24.46 688.78 23.49 683.49 22.38 681.37 18.75 677.82 18.04 675.35 19.53 670.58 24.28 666.4 26.46 662.66 23.36 658.92 22.6 656.02 26.02 645.72 22.19 636.64 17.15 629.8 14.73 620.36 12.83 615.66 12.16 612.08 13.56 604.42 13.1 593.04 11.13 587.68 10.97 585.07 13.8 568.58 13.79 565.78 12.11 560.03 7.62 556.95 1.87 551.22 1 549.37 3.3 539.66 4.77 529.78 10.61 517.67 12.32 510.66 10.43 500.13 12.16 497.08 15.84 493.04 17.65 483.48 18.92 481.04 18.26 478.4 19.46 474.76 21.45 472.3 21.05 468.7 21.9 466.16 24.76 463.3 28.12 461.51 29.31 459.5 32.37 457.72 32.87 455.05 37.36 447.45 38.15 444.67 40.89 442.7 40.69 440.58 44.02 439.32 46.01 437.17 48.33 437.64 50.42 434.04 53.3 425.3 54.09 420.28 53.6 417.01 51.79 412.66 49.65 404.83 48.9 400.02 49.1 386.55 47.81 380.58 44.92 373.47 45.43 364.75 46.76 362.67 52.22 357.08 54.15 352.16 54.98 347.71 60.98 333.21 61.9 325.16 59.45 317.79 60.1 312.76 59.69 305.86 58.03 301.35 57.06 292.43 51.41 284.85 51.13 278.76 48.13 276.19 46.82 271.54 44.31 268.21 44.36 265.31 42.7 263.11 37.13 259.65 35.82 257.02 32.92 254.13 29.89 249.45 29.64 245.93 27.18 241.78 28.81 239.23 29.27 235.99 27.1 229.32 24.13 225.97 25.8 218.16 25.32 215.61 28.69 212.58 26.84 209.63 28.99 206.24 28.72 203.63 32.41 198.41 31.42 197.2 31.76 192.24 33.64 191.38 32.49 187.78 34.28 186.49 36.11 182.35 34.25 180.61 34.55 177.37 34.83 160.1 34.6 156 35.42 153.64 39.28 148 42.32 138.03 46.68 133.26 48.03 128.69 47.35 120.47 40.02 111.18 35.14 107.7 31.31 102.08 29.67 101.1 29 94.39 29.64 90.33 32.83 87.32 34.01 84.92 37.72 67.67 39.42 63.59 46.3 56.63 46.66 52.56 46.33 41.66 47 29.57 42.26 23.03 40.55 16.72 42.1 13.51 45.29 3.55 82.96 3.09 114.74 2.33 148.55 1.78 156.9 2.21 159.08 1.62 163.61 2.26 177.1 2.24 195.85 2.85 208.53 2.83 210.18 2.42 244.72 1.65 284.09 2.38 304.23 2.47 320.48 2.82 334.05 3.34 349.67 4.81 361.45 6.82 371.29 6.97 392.11 6.37 403.73 6.53 423.29 7.62 442.51 8.08 459.15 9.14 475.64 8.87 502.03 8.11 523.72 7.66 542.99 7.81 563.75 7.32 605.64 5.94 618.87 6.21 662.19 4.28 683.01 3.58 705.62 3.38 740.48 2.23 760.68 2.08 784.55 1.33 799 1 794.5 3.44 792.86 7.47 789.77 8.42 783.14 4.21 779.51 6.41 772.85 9.44 770.23 13.25 769.64 16.29 770.19 19.83 776.17 26.12 776.07 29.45 778.76 29.07 779.33 32.39 778.22 39.71 779.17 47.6 780.68 50.84 784.3 55.25 787.28 61.01 780.32 68.6 781.5 71.06 778.36 74.16 777.08 76.69 774.51 78.21 774.23 80.85 771.51 83.33 767.53 84.96 766.13 87.16 767.06 90.51 764.15 93.63 765.63 101.38 763.31 102.97 761.65 108.61 756.86 110.61 755.41 113.81 758.87 118.39 757.15 122.84 757.84 125.6 754.88 130.65 749.32 132.28 743.89 141.31 741.94 142.07 741.26 145.76 739.32 147.58 734.41 148.91 733.99 151.78 736.4 155.01 736.11 163.05 739.76 163.18 739.15 166.61 741.63 168.29 745.17 174.81 747.36 177.24 746.41 179.4 749.02 180.74 747.69 183.73 749.31 188.15 748.25 191.07 754.41 194.63 751.94 196.41 753.12 199.66 753.3 203.41 756.21 203.79 756.37 206.88 759.63 207.07 762.5 208.79 764.22 211.73 762.17 214.89 764.11 216.08 766.62 219.64 764.89 223.73 765.97 229.95 765.25 233.36 763 235.29 765.93 236.77 766.33 239.31 770.3 240.33 773.04 243.44 772.43 245.48 766.98 249.41 767.97 252.7 764.72 252.21 764.54 254.93 760.51 256.58 757.56 255.37 751.22 255.22 748.94 258.64 748.49 261.25 759.04 270.22 758.58 273.36 755.09 278.79 750.34 279.84 753.39 283.7 754.95 287.52 756.96 289.18 756.25 291.29 750.24 292.18 750.16 295.37 748.08 300.24 744.3 301.21 741.23 300.2 738.27 306.37 736.01 307.15 734.52 303.02 729.46 307.21 729.8 310 732.21 311.44 730.37 314.91 727.63 314.59 726.01 316.4 724.54 324.93 721.89 328.31 717.1 329.05 717.71 332.77 714.99 333.68 714.14 335.99 710.49 338.18 706.77 341.72 702.79 343.72 698.68 343.14 693.71 343.7 691.25 348.11 688.01 348.32 685.77 346.05 680.77 346.24 676.51 349.53 670.14 349.87 666.12 354.86 667.68 357.47 666.4 359.06 661.8 359.87 661.33 363.77 662.58 365.13 661.16 368.6 662.51 374.69 654.13 377.96 650.37 381.01 646.4 383.19 642.81 383.61 637.81 385.41 632.59 382.33 625.05 379.22 620.25 380.15 615.34 385.36 612.97 386.36 608.76 385.28 602.07 385.98 594.21 385.57 591.22 389.9 581.64 394.75 578.91 395.38 574.95 394.16 573.4 395.27 573.99 398.2 573.44 405.61 571.69 408.31 568.22 411.14 565.11 412.33 560.7 418.6 559.07 423.43 559.72 424.96 563.19 423.81 562.03 427.76 562.87 431.88 564.73 436.37 566.84 438.8 567.51 442.02 565.55 447.79 565.69 453.36 562.77 457.9 563.63 460.15 562.58 463.56 560.97 464.84 560.38 469.51 562.72 472.59 566.16 482.39 569.41 487.15 571.19 488.31 569.87 491.69 570.26 498.96 573.61 501.67 572.29 505.81 569.01 506.03 565.77 509.09 564.88 513.85 566 519.19 567.99 521.93 569.92 521.55 571.89 517.97 575 520.66 574.53 524.04 573.13 526.09 569.44 527.92 574.37 530.79 571.7 533.14 569.82 531.73 566.51 532.98 567.91 536.77 564.26 543.59 560.87 543.63 559.44 545.68 560.69 548.89 556.63 551.15 555.31 553.22 557.19 558.29 554.54 560.6 553.03 564.67 549.38 563.41 549.04 567.92 545.99 568.32 544.68 570.74 545.51 574.67 540.24 579.65 542.06 584.14 541.85 590.5 541.12 593.79 544.47 593.67 550.27 595.3 546.61 598.53 547.48 600.81 543.95 605.7 540.23 606.41 539.28 608.53 540.27 614.13 539.75 620.16 538.18 623.07 534.07 625.72 532.5 628.12 526.76 631.97 523.37 637.42 523.04 640.07 518.44 641.18 517.22 644.91 519.3 651.06 513.46 652.89 511.36 658.76 513.41 664.68 513.7 670.65 511.12 677.04 513.37 684.23 512.42 687.77 510.09 690.07 508.16 695.11 504.34 698.71 505.01 701.64 504.5 706.41 499.7 709.05 492.21 720.94 487.56 722.58 479.85 727.51 477.55 727.45 475.85 731.07 473.59 732.88 467.84 741.64 466.08 742.91 463.65 749.32 463.31 756.01 464.77 758.4 464.45 764.56 459.87 772.46 460.01 779.11 454.65 782.41 454.57 785.61 452.58 789.09 451.42 794.12 452.23 797.44 454.13 799.06 454.18 802.74 452.18 803.77 445.49 810.16 442.61 810.94 435.57 815.1 432.92 818.41 433.1 821.91 431.8 823.99 432.75 831.17 432.57 837.71 430.18 842.66 427.3 844.27 425.3 852.71 426.25 855.09 430.98 859.46 433.11 864.85 431.85 873.92 427.93 878.59 428.83 885.67 428.48 889.09 426.66 894.99 426.43 901.19 424.93 907.86 424.98 910.14 423.47 921.19 419.26 926.07 418.36 930.59 418.83 936.58 423.67 940.32 427.9 940.19 429.14 941.29 425.24 946.07 420.6 955.39 426.91 965.8 423.91 972.5 421.15 983.73 418.37 989.83 415.94 993.83 411.8 995.88 409.66 997.85 408.68 1003.73 410.9 1011.51 408.06 1019.27 409.21 1025.97 408.97 1028.89 404.16 1033.72 406.76 1039.37 406.48 1041.94 403.48 1044.32 403.5 1056.01 401.41 1059.87 403.12 1063.83 408.19 1065.4 407.58 1069.54 411.4 1074.4 411.24 1080.12 407.95 1082.75 407.31 1085.87 410.82 1093.68 410.35 1096.92 406.07 1102.89 397.18 1112.29 397.97 1116.33 399.82 1118.19 399.18 1128.09 400.97 1132.17 407.05 1137.06 406.84 1139.81 404.4 1142.64 400.56 1142.35 398.37 1146.23 398.05 1148.8 399.24 1153 394.85 1158.21 391.26 1157.43 386.92 1160.96 381.04 1162.78 376.04 1163.53 370.37 1168.16 369.37 1171.32 371.98 1173.78 372.74 1179.23 372.42 1183.2 373.57 1188.49 370.54 1195.22 370.64 1200.26 366.94 1205.14 361.79 1207.69 360.69 1213.12 361.09 1221.5 359.98 1225.97 364.08 1233.99 364.25 1241.22 366.02 1247.09 366.39 1251.77 376.9 1262.59 379.8 1266.79 380.07 1269.12 376.81 1273.25 379.02 1276.21 383.03 1274.32 384.1 1271.57 387.61 1271.2 390.49 1275.58 392.27 1276.52 393.93 1280.34 394.67 1285.88 397.14 1288.85 401.01 1297.11 342.61 1294.83 291.39 1292.94 254.81 1291.42 231.8 1290.61 172.73 1288.68 126.08 1287.06 64.88 1284.97 Z" fill="none" stroke="currentColor" stroke-width="1"/>
</g>
</svg>