<svg viewBox="-73.66687645616828 -45.24561901785117 2.4307979123365584 2.747657474019455" xmlns="http://www.w3.org/2000/svg">
  <path d="M -73.264827,42.745851 L -73.117969,42.743043 L -73.006044,42.740725 L -72.864319,42.737838 L -72.809113,42.736581 L -72.721365,42.734101 L -72.598496,42.730918 L -72.458412,42.726933 L -72.467689,42.741536 L -72.47361,42.746785 L -72.47538,42.756588 L -72.479363,42.763333 L -72.483635,42.764996 L -72.490547,42.772747 L -72.498971,42.772099 L -72.501534,42.767239 L -72.511178,42.763882 L -72.516473,42.769123 L -72.50866,42.776432 L -72.509286,42.780537 L -72.516258,42.787972 L -72.541513,42.807094 L -72.542398,42.815365 L -72.546656,42.825756 L -72.547083,42.838542 L -72.5569312163573,42.85270596111729 L -72.55427,42.860614 L -72.555258,42.875426 L -72.552622,42.885043 L -72.540247,42.889552 L -72.531336,42.898188 L -72.531595,42.907099 L -72.524316,42.919001 L -72.527078,42.928347 L -72.5263,42.935366 L -72.528131,42.945009 L -72.534433,42.949358 L -72.532022,42.954943 L -72.518365,42.963137 L -72.506341,42.964464 L -72.49218,42.967676 L -72.481728,42.973924 L -72.473076,42.972528 L -72.462516,42.981744 L -72.46537,42.989175 L -72.464592,42.993715 L -72.459312,43.000574 L -72.450073,43.000051 L -72.44419,43.005059 L -72.443672,43.009919 L -72.45832,43.018579 L -72.462623,43.025788 L -72.461082,43.043298 L -72.465538,43.046586 L -72.467445,43.053727 L -72.445991,43.070336 L -72.43566,43.080887 L -72.434516,43.086617 L -72.442969,43.100441 L -72.441413,43.105949 L -72.433478,43.110588 L -72.433066,43.120705 L -72.442298,43.129303 L -72.440803,43.136627 L -72.453056,43.139412 L -72.45717165209302,43.14641335054806 L -72.45211,43.153228 L -72.452138,43.173902 L -72.444907,43.178107 L -72.444221,43.182647 L -72.4504802290235,43.19264187087333 L -72.438849,43.201186 L -72.43827,43.206336 L -72.441047,43.218192 L -72.434165,43.231909 L -72.439506,43.245665 L -72.43714,43.256056 L -72.43196276196034,43.25954826262418 L -72.421927,43.263151 L -72.416037,43.270231 L -72.409293,43.281004 L -72.402594,43.300855 L -72.395315,43.312696 L -72.410559,43.331121 L -72.399289,43.347581 L -72.389822,43.356023 L -72.392843,43.357968 L -72.403082,43.357747 L -72.414806,43.36437 L -72.41593,43.374974 L -72.413728,43.382959 L -72.403509,43.391583 L -72.399832,43.411107 L -72.399939,43.415135 L -72.396276,43.426937 L -72.39569553704737,43.437889091682635 L -72.391256,43.448322 L -72.390402,43.454365 L -72.392569,43.466884 L -72.383032,43.475139 L -72.379934,43.491168 L -72.385106,43.500698 L -72.396582,43.508434 L -72.398871,43.512653 L -72.394003,43.527568 L -72.386984,43.530398 L -72.381171,43.539155 L -72.380712,43.550708 L -72.382986,43.563418 L -72.379812,43.567088 L -72.38025009574498,43.573278909302104 L -72.3738,43.579119 L -72.356648,43.586443 L -72.349644,43.587817 L -72.333332,43.5991 L -72.32848,43.600909 L -72.328581,43.607408 L -72.333195,43.610285 L -72.335148,43.616159 L -72.332294,43.625048 L -72.327442,43.631197 L -72.327213,43.63685 L -72.314167,43.642671 L -72.314472,43.654428 L -72.303253,43.668379 L -72.302447,43.679261 L -72.30599286450894,43.683488110767186 L -72.305133,43.695321 L -72.299167,43.706643 L -72.294879,43.708886 L -72.280795,43.724343 L -72.275271,43.727532 L -72.271105,43.733918 L -72.265505,43.733796 L -72.24666,43.742486 L -72.235322,43.745354 L -72.216941,43.766331 L -72.205219,43.770964 L -72.203934,43.779404 L -72.205536,43.784584 L -72.196182,43.790917 L -72.191436,43.799812 L -72.18573,43.803864 L -72.18338,43.810127 L -72.188797,43.822845 L -72.182449,43.834121 L -72.18309,43.84468 L -72.188034,43.855155 L -72.182846,43.865524 L -72.168563,43.86872 L -72.173584,43.879615 L -72.170562,43.886184 L -72.159316,43.888122 L -72.158492,43.892806 L -72.15013,43.902411 L -72.136061,43.909171 L -72.13220569305551,43.91340198475634 L -72.122114,43.918067 L -72.118253,43.923186 L -72.116911,43.933844 L -72.119276,43.943747 L -72.116911,43.947493 L -72.107801,43.948714 L -72.099113,43.957333 L -72.101224,43.961378 L -72.092206,43.967055 L -72.106397,43.969984 L -72.114607,43.969794 L -72.112775,43.975615 L -72.11218,43.986845 L -72.11660030906495,43.99480395003569 L -72.10362,44.003553 L -72.105619,44.010519 L -72.102369,44.014776 L -72.094892,44.01547 L -72.094022,44.023435 L -72.085095,44.021169 L -72.081342,44.028364 L -72.074811,44.032407 L -72.079358,44.041387 L -72.076092,44.045034 L -72.066113,44.049009 L -72.069149,44.054685 L -72.065594,44.058301 L -72.057293,44.058339 L -72.048244,44.070355 L -72.051632,44.077069 L -72.043514,44.079244 L -72.038905,44.076734 L -72.032329,44.080869 L -72.044383,44.085996 L -72.03532,44.089192 L -72.03184,44.092801 L -72.03065,44.098767 L -72.038249,44.103551 L -72.043132,44.097241 L -72.04785404063588,44.096584106566176 L -72.052715,44.101453 L -72.055386,44.110898 L -72.05314602860949,44.119315149920084 L -72.045131,44.124691 L -72.037094,44.125049 L -72.033794,44.132344 L -72.041973,44.137173 L -72.042827,44.150036 L -72.03956,44.155989 L -72.043911,44.158054 L -72.05183,44.1665 L -72.060146,44.183864 L -72.065853,44.189327 L -72.064327,44.197574 L -72.060375,44.199825 L -72.057751,44.205837 L -72.05982392840659,44.209824966999975 L -72.052578,44.21783 L -72.052852,44.22768 L -72.047954,44.23785 L -72.049572,44.243564 L -72.05473,44.247875 L -72.059229,44.255825 L -72.061245,44.263126 L -72.058331,44.270083 L -72.066891,44.268092 L -72.068478,44.270801 L -72.064389,44.279323 L -72.053463,44.290355 L -72.045788,44.29243 L -72.037212,44.297412 L -72.032878,44.302165 L -72.031413,44.315249 L -72.032816,44.320446 L -72.029002,44.322383 L -72.019252,44.320193 L -72.012522,44.321268 L -71.988871,44.329737 L -71.981424,44.337366 L -71.962076,44.336558 L -71.945595,44.33771 L -71.93525,44.335757 L -71.929375,44.337481 L -71.917213,44.346636 L -71.905357,44.348223 L -71.886832,44.342615 L -71.874033,44.337102 L -71.8617,44.34022 L -71.85285,44.340922 L -71.843023,44.344706 L -71.8337,44.350046 L -71.812993,44.355715 L -71.816182,44.366495 L -71.812626,44.372606 L -71.815678,44.375025 L -71.814427,44.381922 L -71.803074,44.38328 L -71.799885,44.386072 L -71.803685,44.390711 L -71.793675,44.399461 L -71.777942,44.399973 L -71.767383,44.405725 L -71.755048,44.40598 L -71.74956,44.401925 L -71.741579,44.402252 L -71.735413,44.410005 L -71.723131,44.410901 L -71.713022,44.409806 L -71.703155,44.413276 L -71.69390516562751,44.41946440202254 L -71.684836,44.423277 L -71.682701,44.42734 L -71.675951,44.428906 L -71.677382,44.435499 L -71.665546,44.436712 L -71.658906,44.442633 L -71.655076,44.457696 L -71.651012,44.460854 L -71.644266,44.46025 L -71.639627,44.466351 L -71.64556,44.468926 L -71.646325,44.473876 L -71.633727,44.481175 L -71.630141,44.473848 L -71.624557,44.475183 L -71.617079,44.486047 L -71.609526,44.4842 L -71.600157,44.485833 L -71.594907,44.4944 L -71.59461,44.500036 L -71.579741,44.501504 L -71.577924,44.505219 L -71.582853,44.50818 L -71.586592,44.51497 L -71.594038,44.521859 L -71.582265,44.523618 L -71.573499,44.533143 L -71.572263,44.538689 L -71.598097,44.554749 L -71.59690871246366,44.5593555198599 L -71.591174,44.565347 L -71.575498,44.564957 L -71.568235,44.56276 L -71.558225,44.565598 L -71.557711,44.570404 L -71.549695,44.569466 L -71.552045,44.575302 L -71.538464,44.582131 L -71.536892,44.585731 L -71.543576,44.591278 L -71.553372,44.593171 L -71.554288,44.597664 L -71.56149,44.600333 L -71.555859,44.603706 L -71.553982,44.609718 L -71.55647,44.620727 L -71.552091,44.627922 L -71.558187,44.634275 L -71.56297,44.636406 L -71.55779,44.64196 L -71.561962,44.647189 L -71.569025,44.65029 L -71.577081,44.650686 L -71.577412,44.656146 L -71.584606,44.656882 L -71.584942,44.663508 L -71.587771,44.669286 L -71.581604,44.672379 L -71.596766,44.678792 L -71.594055,44.683931 L -71.597955,44.691767 L -71.59457,44.697033 L -71.601007,44.699444 L -71.598589,44.703241 L -71.603948,44.707583 L -71.612548,44.719186 L -71.618644,44.722193 L -71.617038,44.72825 L -71.626093,44.728543 L -71.625148,44.74275 L -71.63106,44.748509 L -71.629919,44.753578 L -71.617721,44.755828 L -71.612856,44.758998 L -71.611073,44.765517 L -71.606213,44.766819 L -71.592486,44.782669 L -71.57864,44.785444 L -71.57116,44.794314 L -71.5728,44.799206 L -71.568384,44.80704 L -71.576865,44.815197 L -71.573151,44.820823 L -71.561221,44.824265 L -71.556923,44.834201 L -71.551114,44.836965 L -71.554562,44.850678 L -71.547253,44.856132 L -71.549451,44.862084 L -71.545923,44.865932 L -71.53597,44.868743 L -71.529153,44.873067 L -71.528372,44.877712 L -71.521937,44.880348 L -71.518674,44.884802 L -71.510789,44.890199 L -71.513646,44.894574 L -71.496093,44.907849 L -71.503328,44.918083 L -71.512201,44.925965 L -71.515868,44.931715 L -71.518004,44.94569 L -71.515001,44.958597 L -71.516321,44.964478 L -71.52304,44.963858 L -71.522686,44.969746 L -71.537396,44.980984 L -71.538647,44.987256 L -71.537091,44.992611 L -71.53045249375133,44.99928891238175 L -71.513777,45.004505 L -71.504669,45.008315 L -71.488281,45.000739 L -71.480552,45.002334 L -71.476348,45.009426 L -71.46505,45.013638 L -71.50105218707225,45.013378017490496 L -71.560562,45.012555 L -71.61088294805259,45.01269260424349 L -71.697766,45.011304 L -71.754112,45.011335 L -71.805992,45.010424 L -71.913971,45.007611 L -71.946923,45.008255 L -72.051325,45.006271 L -72.103058,45.005598 L -72.151068,45.006015 L -72.20510415204059,45.00537719570026 L -72.270869,45.004186 L -72.311947,45.003787 L -72.35341141518182,45.00571329730125 L -72.401298,45.006589 L -72.45002554001381,45.00854901379709 L -72.478974,45.008829 L -72.530851,45.00777 L -72.555384,45.008023 L -72.58474,45.011569 L -72.62366508736731,45.01412132635328 L -72.6574697316432,45.01500616460962 L -72.69796744865441,45.0155526621649 L -72.748169,45.01562 L -72.84627790248992,45.01664756168288 L -72.93234780109918,45.015001565496846 L -72.93644,45.014267 L -72.968039,45.014098 L -73.014766,45.01498 L -73.048386,45.01479 L -73.05969307212094,45.015867384979316 L -73.065098,45.014786 L -73.08591132151145,45.01544905073081 L -73.17015,45.014005 L -73.249323,45.012181 L -73.343178,45.010713 L -73.350862,44.993049 L -73.354633,44.987352 L -73.350218,44.976222 L -73.338244,44.964751 L -73.339603,44.943371 L -73.338483,44.924112 L -73.339288,44.91691 L -73.356218,44.904492 L -73.360328,44.897236 L -73.369104,44.866681 L -73.371968,44.862415 L -73.379822,44.857038 L -73.381296,44.849861 L -73.379452,44.83801 L -73.375346,44.836307 L -73.365679,44.826451 L -73.353472,44.820386 L -73.335044,44.804109 L -73.333152,44.789588 L -73.336377,44.78148 L -73.347085,44.77298 L -73.354361,44.755296 L -73.363792,44.745254 L -73.365751,44.741062 L -73.365084,44.73383 L -73.365326,44.703294 L -73.365977,44.697559 L -73.361308,44.694524 L -73.365736,44.687169 L -73.370142,44.684855 L -73.367209,44.678514 L -73.371843,44.676957 L -73.372547,44.668184 L -73.370064,44.666071 L -73.379073,44.656772 L -73.378317,44.652165 L -73.383564,44.646142 L -73.378907,44.640958 L -73.387169,44.635543 L -73.385899,44.631044 L -73.38982,44.617211 L -73.382393,44.611346 L -73.376849,44.599599 L -73.377897,44.593849 L -73.381849,44.589316 L -73.375667,44.582038 L -73.37495,44.575817 L -73.367343,44.567605 L -73.360088,44.562547 L -73.356789,44.557919 L -73.342933,44.551907 L -73.338752,44.548046 L -73.338806,44.542926 L -73.332519,44.537082 L -73.329166,44.528892 L -73.321702,44.524395 L -73.320846,44.51363 L -73.306713,44.500335 L -73.304107,44.484585 L -73.299896,44.476651 L -73.298706,44.464453 L -73.300201,44.455551 L -73.293969,44.442579 L -73.296052,44.428334 L -73.310505,44.402601 L -73.312441,44.394706 L -73.317066,44.385991 L -73.330396,44.376 L -73.333613,44.3723 L -73.334648,44.356879 L -73.327353,44.34436 L -73.324021,44.333835 L -73.324195,44.310033 L -73.322216,44.301542 L -73.316767,44.287728 L -73.31221,44.280069 L -73.310914,44.274298 L -73.312741,44.265411 L -73.319603,44.249909 L -73.324653,44.243517 L -73.330375,44.244312 L -73.335213,44.240475 L -73.343376,44.23819 L -73.342835,44.234446 L -73.34951,44.230905 L -73.351379,44.22598 L -73.36222,44.212461 L -73.363393,44.207737 L -73.370865,44.204527 L -73.373739,44.200964 L -73.381935,44.197734 L -73.388893,44.192619 L -73.390907,44.18811 L -73.389824,44.181757 L -73.394653,44.177377 L -73.397492,44.170912 L -73.395813,44.166266 L -73.398857,44.161915 L -73.403045,44.144984 L -73.411972,44.13778 L -73.416138,44.132355 L -73.411225,44.113767 L -73.415215,44.101344 L -73.429215,44.079831 L -73.432541,44.062329 L -73.437905,44.045125 L -73.43571,44.04188 L -73.421483,44.031862 L -73.410385,44.026503 L -73.406121,44.016371 L -73.406009,44.011417 L -73.41251,43.982216 L -73.412048,43.977604 L -73.407069,43.968172 L -73.405646,43.948069 L -73.408859,43.934505 L -73.407134,43.928186 L -73.402364,43.919906 L -73.396179,43.903264 L -73.383694,43.891284 L -73.3741,43.875304 L -73.382186,43.857019 L -73.380249,43.851923 L -73.372589,43.845354 L -73.377793,43.838716 L -73.389297,43.831235 L -73.392799,43.822771 L -73.391014,43.818411 L -73.382057,43.812216 L -73.379281,43.808481 L -73.376793,43.799158 L -73.362213,43.789955 L -73.357521,43.785557 L -73.351265,43.769823 L -73.369944,43.743855 L -73.370612,43.725329 L -73.377756,43.717713 L -73.385493,43.711756 L -73.394726,43.697677 L -73.402901,43.692495 L -73.405243,43.688368 L -73.40351,43.683977 L -73.408062,43.669438 L -73.415093,43.65671 L -73.418396,43.648284 L -73.426463,43.642599 L -73.42791,43.634428 L -73.41832,43.623325 L -73.417828,43.620586 L -73.423709,43.612357 L -73.421616,43.603023 L -73.430325,43.590532 L -73.428637,43.583994 L -73.420384,43.581495 L -73.416965,43.577731 L -73.398126,43.568065 L -73.391673,43.57012 L -73.389741,43.574683 L -73.384339,43.575398 L -73.382616,43.585625 L -73.386901,43.59077 L -73.381715,43.592963 L -73.383597,43.596975 L -73.372908,43.603887 L -73.376037,43.612597 L -73.365563,43.623441 L -73.353638,43.625927 L -73.351232,43.622502 L -73.342842,43.626506 L -73.324492,43.627515 L -73.310229,43.624229 L -73.302553,43.625709 L -73.300315,43.617323 L -73.302236,43.611789 L -73.293742,43.605203 L -73.291019,43.599235 L -73.29671,43.587114 L -73.292111,43.584885 L -73.297258,43.579691 L -73.291109,43.577856 L -73.284912,43.579272 L -73.281078,43.574172 L -73.2697,43.57177 L -73.258631,43.56495 L -73.255555,43.559895 L -73.248641,43.553858 L -73.250133,43.543429 L -73.246586,43.541855 L -73.241454,43.532049 L -73.246526,43.526017 L -73.248396,43.470634 L -73.252353,43.372994 L -73.255131,43.30214 L -73.256475,43.260093 L -73.25871609219375,43.22998719081482 L -73.259159,43.216848 L -73.265595,43.095926 L -73.269777,43.035976 L -73.27433866267822,42.9436521736496 L -73.275997,42.892697 L -73.27831294334541,42.837557170101924 L -73.278673,42.83341 L -73.285388,42.834093 L -73.287063,42.82014 L -73.283695,42.813856 L -73.290944,42.80192 L -73.276421,42.746019 L -73.264827,42.745851 Z" fill="none" stroke=currentColor stroke-width="1" vector-effect="non-scaling-stroke"/>
</svg>