<?xml version="1.0"?>
<svg width="20" height="20" xmlns="http://www.w3.org/2000/svg" version="1.2" baseProfile="tiny" viewBox="-64.000 -286.500 928.000 928.000" stroke-linecap="round" stroke-linejoin="round">
<g id="state">
<path d="M 787.3 14.02 787.17 26.79 787.18 31.36 787.13 36.44 787.05 39.97 786.96 52.32 786.97 65.93 786.66 81.09 786.38 90.61 786.31 96.73 786.25 107.18 786.28 111.38 786.25 114.53 786.27 128.06 786.31 133.9 786.4 142.75 786.38 145.72 786.47 152.25 786.51 159.09 786.51 170.03 786.5 176.01 786.52 179.01 786.51 192.49 786.52 200.64 786.49 202 786.54 214.31 786.51 219.69 786.52 228.61 786.5 231.09 786.52 242.45 786.52 249.19 786.51 258.59 786.53 264.17 787.04 264.94 786.96 265.67 786.64 266.2 786.27 267.65 785.65 269.04 784.44 269.9 784.16 270.32 784.16 271.5 784.42 272.03 785.52 272.58 787.15 272.76 788.23 273.44 788.22 274.94 788.47 275.46 789.92 276.48 791.03 276.74 791.72 277.09 792.13 277.68 792.05 278.15 791.51 278.93 791.51 279.4 793.15 280.5 794.2 281.69 794.89 283.18 795.13 284.09 795 284.63 794.01 286.25 794.11 286.87 794.57 287.35 795.72 288.03 797.44 289.92 797.98 289.91 798.5 290.37 798.61 290.81 798.3 291.31 797.25 291.87 797.18 293.68 795.64 295.01 795.54 296.28 795.13 297.21 794.69 297.5 793.22 297.64 792.36 298.22 792.68 299.39 793.53 299.74 794.88 299.9 795.75 300.62 796.42 301.37 796.35 301.98 796.67 302.84 797.56 303.56 797.76 304.12 797.73 305.19 798.57 305.98 798.82 307.63 799 308.07 797.37 308.01 791.79 307.93 784.3 307.89 776.89 307.82 764.03 307.76 762.67 307.78 756.07 307.75 754.42 307.96 751.21 307.79 745.13 307.77 741.56 307.83 737.49 307.78 730.45 307.75 727.84 307.69 720.91 307.63 716.02 307.63 698.49 307.59 687.78 307.55 671.02 307.55 656.91 307.55 646.11 307.53 628.14 307.51 609.23 307.5 604.93 307.53 588.78 307.57 587.64 307.62 585.45 309.73 583.55 310.76 580.05 311.84 576.81 313.46 573.43 314.47 569.06 314.99 566.37 314.97 563.29 314.47 560.08 313.75 557.12 314 553.39 314.44 552.39 314.68 549.11 315.62 540.34 316.05 536.49 317.17 532.77 316.95 527.96 315.22 525.01 315.82 522.65 317.25 517.92 322.22 507.41 323.36 504.36 323.17 499.6 323.93 493.69 325.15 487.71 325.54 482.7 327.31 477.04 329.55 469.77 330.77 466.79 331.91 462.69 335.6 455.27 336.08 450.89 337.08 442.99 338.3 434.93 338.82 432.57 338.25 430.83 337.19 427.1 334.33 423.85 333.49 419.36 333.58 415.87 335.19 413.8 336.64 409.81 337.7 403.68 339.63 396.86 341.13 392.73 344.07 390.92 344.37 387.81 342.7 386.88 342.66 383.78 343.52 381.34 343.02 378.64 343.25 375.51 343.1 373.43 343.56 369.83 346.09 370.13 346.6 368.63 347.46 367.86 347.23 367.23 347.64 364.95 347.83 363.34 347.8 362.03 346.76 362.16 345.44 361.63 343.37 360.06 341.18 356.67 340.52 352.76 339.59 350.2 338.26 347.61 337.75 344.05 337.93 341.07 338.97 338.8 338.85 337.04 338.52 334.83 338.11 331.13 336.13 328.62 335.7 327.67 335.54 317.62 337.76 313.84 337.72 309.87 338.77 307.03 338.86 299.25 337.56 293.55 338.92 290.01 341.24 290.11 342.12 289.36 342.88 286.61 343.94 284.91 343.88 284.49 344.01 283.74 345.1 281.71 346.12 279.61 346.83 277.82 346.95 275.45 347.48 269.77 350.09 268.5 350.36 265.51 350.09 261.3 350.83 259.47 352.02 254.55 353.79 252.74 354.19 249.69 354.21 246.12 353.74 243.95 351.58 241.14 350.91 239.96 351.06 238.03 351.76 235.18 352.17 233.62 351.79 231.39 350.63 229.7 350.16 226.5 349.51 224.23 348.85 220.51 348.04 217.92 347.62 214.22 347.46 211.03 346.61 209.39 345.92 207.13 344.63 204.6 343.95 202.12 342.69 201.97 342.62 200.88 340.24 201.09 338.28 202.35 334.73 202.21 332.2 201.39 330.02 198.73 327.01 198.69 325.48 199.74 323.52 199.81 321.12 198.47 319.42 197.1 316.52 197.65 314.51 196.85 311.59 194.43 309.57 192.54 306.13 190.3 304.41 189.65 301.45 187.65 299.06 181.76 296.94 181.48 296.8 177.42 293.94 175.51 293.37 173.42 292.54 172.55 291.88 167.13 289.46 166.02 288.69 160.86 288.31 156.1 289.99 155.09 290.51 153.14 291.17 152.2 291.62 149.24 292.82 147.11 292.84 143.19 292.67 142.48 292.79 139.92 292.66 139.1 292.19 137.99 291.84 133.84 289.07 134.18 284.19 132.15 282.1 129.99 280.59 128.87 280.12 126.67 279.93 125.12 280.44 122.31 281.1 121.93 280.49 120.67 280.54 120.22 280.92 118.98 280.84 118.46 281.01 116.26 280.89 115.2 281.06 114.04 280.9 112.94 280.52 111.34 280.5 109.48 280.36 108.5 279.78 108.4 279.22 108.61 278.35 108.35 277.38 106.3 276.5 103.89 276.85 103.92 277.48 103.45 278.12 101.24 277.79 100.9 278.89 100.29 279.1 100.29 279.52 99.56 279.68 98.71 279.57 97.93 278.99 96.61 278.55 95.53 278.65 94.96 278.98 94.24 280.07 92.71 280.19 92.19 280.84 91.16 281 90.97 281.39 90.08 282.14 89.44 282.19 88.91 282.94 88.45 283.12 85 282.54 83.59 281.9 83.27 281.31 80.97 279.92 80.07 278.91 79.93 278.41 78.86 277.85 78.76 277.04 77.25 276.05 75.61 275.62 73.64 275.37 72.68 276.12 72.37 276.63 71.21 276.98 70.46 277.84 71.33 278.08 71.44 279.42 70.39 279.47 69.51 279.14 68.06 279.88 67.77 279.43 67.95 277.33 67.57 277.01 68.44 276.41 69.13 274.23 69.78 268.14 69.87 265.81 69.91 257.23 69.41 250.81 68.75 246.19 68.63 243.21 69.16 242.12 69.83 241.71 70.54 241.69 70.99 242.42 72.13 242.66 72.25 243.16 70.49 243.9 70.39 244.29 71.56 245.7 71.82 246.48 72.44 246.82 73.33 248.12 73.37 250 73.08 253.32 73.32 255.31 72.93 255.55 72.49 256.92 73.08 260.33 73.98 265.09 74.18 268.94 75 269.67 76.24 269.42 77.28 268.94 78.13 268.84 79.42 269.14 80.46 268.92 80.68 267.77 80.63 266.49 80.85 265.71 79.27 265.87 78.79 264.27 79.27 263.36 78.79 262.76 76.92 262.16 76.58 261.78 76.67 260.05 76.33 259.73 76.48 257.71 76.92 256.85 77.87 256.82 77.86 257.57 78.59 257.96 78.71 259.06 80.15 259.7 81.6 260.1 81.92 259.9 81.49 258.88 81.6 257.79 82.68 257.24 83.59 256.4 84.1 255.38 84.7 255.1 85.19 255.77 86.4 255.11 86.14 252.99 86.63 252.5 86.38 252.2 86.34 251.42 85.12 251.1 83.64 249.38 83.67 248.68 83 247.47 81.95 246.71 80.46 245.81 79.9 244.95 79.93 243.48 79.75 242.62 80.56 242.63 80.75 243.09 81.43 243.58 82.26 243.58 82.23 242.96 81.8 242.16 82.56 241.64 83.71 241.2 83.84 239.38 83.57 238.91 84.35 238.3 85.51 238.26 89.53 236.26 90.91 235.86 92.11 235.97 93.18 235.64 93.16 234.76 92.74 234.25 91.35 234.23 90.56 233.54 88.93 233.23 88.33 232.99 87.26 231.46 87.09 230.98 86.09 231 84.85 231.35 84.03 232.16 84.63 232.99 84.57 233.4 82.98 233.54 80.97 233.53 78.94 232.44 78.29 232.71 77.81 233.61 78.27 234.7 79.12 235.59 78.42 235.78 77.01 235.36 75.85 235.52 75.15 235.07 75.06 234.7 73.99 234.16 72.76 234.31 71.87 233.84 70 233.15 69.29 232.69 67.46 232.55 66.32 231.87 65.88 231.41 66.03 230.32 65.86 227.51 65.69 226.52 65.4 224.82 64.7 222.2 62.86 217.63 62.17 216.07 62.01 215.31 63.28 215.12 63.91 214.35 64.44 214.42 65.57 215.27 66.24 215.53 66.5 216.16 66.02 217.47 66.58 218.03 66.62 219 68.27 219.63 69.5 219.26 70.11 218.72 70.7 216.59 72.03 215.86 74.34 215.33 74.88 214.41 76.15 214.23 77.26 213.46 80.08 213.53 82.16 212.78 87.69 211.62 88.99 211.29 91 210.39 92.19 210.19 91.6 209.48 90.12 208.8 88.42 208.57 87.03 208.66 86.13 208.36 83.74 208.36 81.16 208.68 79.9 207.35 77.43 207.37 76.59 207.51 74.49 207 73.83 206.58 73.9 206.15 74.71 205.7 75.2 205.09 74.65 204.69 73.88 204.52 74 203.97 73.04 202.41 71.23 202 70.59 201.51 69.52 201.06 69.01 201.29 64.87 201.13 63.27 201.23 61.28 201.9 60.51 202.5 60.28 203.33 60.76 204.48 61.7 205.57 61.46 206.68 61.64 208.45 62.19 209.43 62.72 211.05 63.54 211.17 64.25 210.84 64.91 211.14 64.88 211.87 64.5 212.04 62.75 211.42 61.89 211.25 60.22 211.93 60.2 212.43 59.54 212.69 57.98 212.92 57.91 211.45 58.26 209.73 58.46 206.05 58.02 198.71 57.69 195.99 56.83 192.15 56.94 191.67 56.36 190.49 55.73 187.72 54.39 183.21 51.6 176.15 50.92 175.47 49.44 174.44 47.33 174.2 45.78 170.84 45.1 169.91 44.33 169.51 43.12 169.18 42.64 167.95 42.61 166.82 42.02 164.63 41.39 164.12 41.26 161.27 41.06 160.79 41.04 159.17 40.49 155.55 39.67 151.7 38.34 146.01 37.77 144.26 37.45 143.82 36.7 140.92 35.3 137.52 33.65 134.9 32.82 131.42 32.31 130.08 31.77 129.28 30.05 128.34 29.65 127.55 29.09 127.25 28.53 127.4 27.88 127.03 26.82 125.56 26.57 124.95 26.25 122.94 25.72 122.06 24.88 121.48 23.99 121.35 23.37 121.49 22.69 121.05 22.37 120.51 20.49 120.31 20.63 119.51 19.56 119.16 19.29 118.51 18.75 118.31 18.65 117.35 17.92 116.89 17.18 116.98 16.52 116.18 15.67 115.84 14.81 115.76 14.13 116.51 13.58 116.11 13.49 115.62 11.86 114.81 11.38 114.35 11.43 113.89 11.08 113.19 10.23 112.78 10.5 111.62 9.82 109.97 9.16 109.17 8.17 108.83 7.95 107.1 7.07 107 7.17 106.52 6.84 106.11 7.23 105.17 6.96 104.45 6.5 104.15 6.32 103.3 6.55 102.42 6.05 101.24 6.07 99.69 5.74 98.34 5.44 97.76 4.9 97.37 5.04 96.82 4.6 96.29 4.75 94.47 5.41 93.93 5.57 93.29 5.14 93.13 5.09 92.32 4.4 91.14 3.35 90.38 3.5 89.93 2.54 88.8 2.03 87.73 1.01 86.99 1.01 86.01 1.71 85.76 2.77 84.87 3.83 84.54 4.65 83.09 5.18 81.66 5.02 80.5 4.36 80.08 4.34 79.67 3.65 78.87 4.27 78.46 4.28 78.12 5.12 77.81 5.82 77.3 6.2 76.27 6.21 75.06 5.64 74.02 6.2 72.97 6.67 73.23 7.73 72.8 8.12 71.67 7.93 70.66 8.35 70.18 8.44 69.56 7.31 68.51 6.66 68.37 5.51 68.77 4.66 68.21 4.59 67.65 3.49 67.16 3.58 66.67 2.84 65.96 1.49 65.47 1 64.44 1.61 63.95 2.52 63.56 3.59 63.94 5.13 63.53 6.67 63.4 7.44 63.7 8.39 63.45 10.81 63.73 10.44 64 11.49 65.35 12.25 65.81 13.41 65.92 15.41 65.22 16.83 65.59 17.23 65.97 18.05 65.8 19.95 67.26 20.71 67.64 22.08 67.73 23.59 68.32 24.58 68.85 25.18 68.96 25.66 69.44 26.12 69.42 29.04 70.79 30.16 71.11 30.38 71.48 31.23 72.05 32.04 72.11 33.46 72.64 35.34 73.88 36.84 74.29 37.88 74.23 38.83 74 39.92 74.37 41.11 75.19 45.19 75.98 45.08 76.63 45.52 76.95 46.95 77.05 47.25 77.33 48.69 77.37 49.49 77.08 50.11 76.33 51.37 76.56 52.05 76.98 52.98 77.15 53.49 77.5 56.06 78.21 57.79 78.95 61.31 80.14 62.39 80.84 63.72 80.82 65.34 81.22 64.91 81.67 65.06 82.02 64.5 82.62 64.73 82.93 66.32 83.28 68.05 83.89 70.55 85.22 74.39 85.93 75.88 85.79 76 86.14 77.67 86.54 78.43 86.59 81.23 86.37 82.38 86.94 84.35 87.1 85.76 86.98 86.57 87.07 87.32 86.93 88.79 87.15 89.35 87.56 90.15 87.61 92.05 87.45 92.93 87.24 93.43 86.91 94.58 87.49 98.39 87.49 101.51 86.87 102.39 87 103.31 86.51 103.78 87.11 104.5 87.16 105.73 86.68 105.4 86.25 107.85 86.64 109.18 86.75 112.22 87.64 112.81 88.02 112.34 88.33 112.88 88.82 114.53 89.29 115.26 89.17 117.52 89.59 118.26 89.44 119.68 88.66 119.79 88.28 121.57 87.91 123.23 88.48 124.51 89.53 126.06 89.91 127.95 89.84 129.51 89.68 131.31 89.14 132.91 88.87 134.39 88.84 136.66 88.93 136.85 89.3 133.24 89.13 132.27 89.47 130.67 89.61 130.86 90.11 131.76 90.5 132.72 90.68 134.49 91.31 135.82 91.48 136.46 91.41 137.51 91.7 139.63 91.72 141.72 91.34 142.66 91.36 143.25 91.77 145.73 91.75 148.42 91.01 149.24 91.39 150.39 91.51 151.88 91.4 152.47 91.55 153.43 91.3 155.67 90.38 158.3 88.68 161.07 86.43 163.07 85.4 164.09 85.4 167.45 84.48 167.56 84.74 165.11 85.43 164.33 85.53 163.63 86.37 163.34 87.33 164.43 87.77 165.11 87.7 166.44 88.22 166.98 88.88 169.16 90.39 171.09 91.07 171.84 91.73 173.06 93.39 173.71 94.76 173.15 94.91 173.13 96.01 173.68 97.01 173.08 97.48 173.94 97.91 175.1 99.21 175.79 99.67 175.75 100.03 177.13 101 177.87 101.05 178.25 100.56 177.81 99.22 176.79 97.82 177.43 96.86 177.13 96.24 175.65 95.33 175.65 94.78 176.45 94.6 177.43 94.12 179.96 93.57 183.36 93.3 184.07 93.53 186.4 93.62 185.54 95.14 185.14 96.47 186.08 97.45 187.82 97.87 188.91 98.31 190.6 98.63 191.02 99.47 191.33 99.51 191.72 100.37 192.08 101.78 191.95 102.49 191.38 103.07 189.42 103.89 189.64 104.42 190.45 104.02 191.15 104.09 193.26 103.74 194.25 103.19 194.86 102.39 194.8 101.9 195.2 101.13 195.51 99.69 195.53 98.66 195.3 98.43 193.18 97.82 192.48 97.13 192.38 96.65 190.68 95.72 189.08 95.38 190.05 94.48 190.24 94 190.1 93.25 189.6 92.63 189.93 92.31 191.66 91.48 193.36 90.41 194.4 89.43 194.89 89.64 197.11 89.35 199.89 88.78 202.09 88.79 202.29 90.32 203.5 91.42 201.15 92.32 200.2 92.62 198.87 93.49 198.14 94.43 199.5 95.39 199.87 96.36 200.91 97.21 201.82 97.49 201.28 97.91 201.29 98.48 201.85 99.23 202.99 99.69 203.53 100.29 204.42 100.18 204.99 99.8 204.71 98.93 204.17 98.33 204.4 97.84 204.48 96.31 203.55 96.01 204.52 95.09 205.09 94.05 206.63 93.42 208.82 92.83 209.76 93.03 209.21 93.96 209.4 95.01 209.95 95.91 209.86 96.5 210.18 97.68 210.06 98.35 210.26 98.99 210.79 99.67 211.65 100.14 211.3 101.3 211.5 101.57 209.86 102.46 209.47 102.46 208.83 101.83 207.57 101.35 207.09 100.79 206.25 100.69 205.33 101.19 205.63 101.91 206.58 103.56 206.64 104.62 208.42 106.09 210.2 106.2 210.66 106.64 210.92 107.58 210.05 109.08 210.49 110.36 210.33 111.4 209.5 111.27 209.59 111.77 210.27 112.05 211.26 111.66 212.33 110.45 212.81 110.4 212.98 111.08 213.49 111.44 213.19 111.96 213.08 113.06 213.85 113.67 213.82 113.99 214.88 114.61 216.77 114.58 217.65 114.87 216.89 115.31 216.7 115.87 215.78 115.68 215.24 116.81 214.81 117.11 213.59 117.27 211.99 116.99 209.13 116.85 210 118.43 210.37 118.64 210.41 119.32 209.78 120.63 209.13 121.1 208.35 121.18 207.14 122.35 205.27 122.8 204.1 122.78 203.51 123.62 204 124.41 203.44 124.93 203.6 126.31 203.22 126.61 203.29 127.08 202.58 128.11 202.73 128.77 202.46 129.29 201.83 129.45 200.67 130.47 199.96 131.72 200.22 132.58 200 133.63 201.11 134.53 201.11 134.85 199.82 135.3 198.16 135.5 196.88 135.79 195.22 135.12 195.46 133.47 195.73 132.89 196.89 132.4 197.02 131.98 196.74 131.35 197.45 130.69 197.5 130.22 197.18 129.6 197.29 129.16 198.28 128.06 198.71 126.79 198.56 126.53 199.32 124.72 199.49 123.36 198.62 122.71 198.52 121.15 197.62 120.49 197.28 119.65 196.17 119.91 196.17 120.97 195.71 121.57 196.31 122.66 196.74 123.03 196.04 124.91 195.46 125.34 194.01 125.93 192.82 125.83 193.11 124.11 193.45 123.69 192.89 123.36 191.68 123.32 191.34 123.9 191.51 126.12 191.8 127 193.19 127.8 193.33 128.71 192.91 129.33 193.06 130.07 192.45 130.31 191.99 129.43 191 129.56 190.75 130.92 189.83 130.82 189.66 132.63 189.13 133.4 190.29 135.02 190.03 135.41 188.38 136.11 187.96 136.7 187.43 136.96 187.16 137.58 187.7 137.63 187.5 138.2 187.93 138.71 187.65 139.56 186.19 139.5 185.84 139.12 184.49 139.69 184.35 140.35 183.76 140.56 183.81 140.98 182.5 141.46 182.4 141.75 181.29 142.29 180.66 142.78 179.73 142.88 179.64 143.91 179.06 144.39 177.79 145.78 177.43 145.91 177.21 146.61 176.24 147.84 175.66 148.28 175.61 148.66 174.78 149.04 175.27 149.47 174.7 150.34 173.76 150.5 172.89 151.45 173.11 152 172.6 152.4 172.11 153.46 172.42 153.7 171.99 154.35 170.12 155.69 170.12 156.25 169.54 156.32 168.86 156.84 167.51 158.17 166.49 158.62 165.94 160.39 165.49 160.63 165.54 161.16 164.55 162.46 164.44 162.9 163.41 164.27 163.01 165.95 162.57 166.74 162.79 167.17 161.73 167.59 161.98 168.61 161.56 169.3 162.01 169.73 162.96 170.13 163.52 170.58 164.44 170.6 165.28 170.99 166.02 170.49 166.63 170.52 167.07 169.06 169.44 169.17 170.66 169.78 173.04 169.8 174.76 169.65 175.78 169.3 177.26 168.3 179.5 167.23 180.93 166.79 182 166.72 183.09 166.33 184.11 166.35 185.32 165.74 186.9 165.75 189.01 163.86 190.32 163.52 191.37 162.39 190.37 162.39 189.25 162.19 188.62 162.47 187.94 162.44 187.89 162.96 187.11 163.27 186.37 163.24 184.79 163.8 183.87 164.32 181.68 164.67 181.39 165.03 180.15 165.03 179.59 165.36 179.4 165.85 177.38 166.38 176.51 166.82 175.37 168.6 174.84 168.84 173.55 168.86 172.04 167.86 169.11 167.22 167.04 167.46 166.28 167.22 166.26 166.41 165.63 166.12 165.58 165.51 166.4 164.86 167.55 163.01 167.48 162.84 168.5 161.27 169.55 159.94 170.2 159.36 171 159 170.86 158.69 171.84 157.41 173.21 156.39 174.4 155.03 174.67 154.21 174.63 153.27 176.05 151.65 177 151.14 179.5 148.44 180.37 148.34 180.25 147.66 180.79 147.16 181.42 145.72 183.04 145.58 184.33 145.23 185.13 144.56 185.74 144.43 185.86 143.97 186.44 143.27 186.06 142.41 186.32 142.1 188.46 141.62 188.92 141.33 190.64 140.81 191.29 140.83 192.19 140.26 192.63 139.36 195.1 138.57 195.49 138.79 194.94 139.33 194.41 140.15 194.87 140.35 197.46 139.07 199.47 138.4 199.76 138.51 200.7 137.98 201.19 138 203.13 137.29 203.9 135.76 203.75 133.88 203.48 133.13 203.55 132.17 204.57 130.55 205.12 130.16 206.17 129.02 206.48 127.78 206.98 127.11 207.73 126.92 208.31 126.36 209.19 126.24 209.55 125.93 210.12 123.94 211.05 123.34 212.08 122.45 213.21 122.15 213.35 121.54 215.57 120.2 216.33 120.1 217.21 118.6 217.87 118 221.39 117.91 221.45 116.23 220.1 113.37 219.9 112.26 219.09 111.52 216.88 111 216.63 110.36 216.96 109.6 218.31 109.45 218.55 110.34 219.5 111.28 220.56 111.51 222.52 111.51 223.9 111.63 224.82 112.19 226.33 112.32 226.1 112.98 226.25 113.59 227.63 115.44 227.71 115.86 227.44 117.06 228.11 118.17 228.32 118.79 228.29 120.55 228.69 121.1 230.7 122.21 230.71 122.85 230.42 123.37 229.39 124.09 228.75 124.3 228.72 124.74 230.02 125.51 230.59 125.64 230.64 126.13 231.15 126.95 231.83 127.27 231.94 128.17 231.79 128.92 231.23 129.3 230.09 129.55 229.23 129.41 228.58 129.6 227.36 129.52 226.94 129.28 225.1 129.19 223.35 129.34 223.75 129.64 223.84 130.85 221.66 132.9 221.4 132.89 220.4 133.72 220.5 134.21 219.41 134.58 218.38 134.4 218.29 133.55 217.4 132.79 216.8 132.77 215.52 133.47 216.68 133.54 216.74 134.74 217.35 137.72 217.17 138.79 216.88 139.13 218.32 139.8 218.77 140.45 219.61 140.59 218.89 143.95 219.55 144.77 218.44 146.84 217.94 147.36 217.29 147.54 216.53 147.14 216.01 148.2 214.99 148.31 214.37 148.66 213.36 148.73 211.32 149.67 210.96 150.49 209.51 151.22 208.86 151.75 210.12 151.66 211.83 151.18 212.47 150.41 213.85 150.66 214.83 150.1 216.17 149.99 216.66 149.53 218.06 149.64 219.19 148.22 219.74 147.7 221.12 146.81 221.82 145.97 223.3 145.24 223.96 145.57 223.8 146.4 224.26 146.71 223.53 147.29 225.56 147.74 225 147.99 224.42 148.75 224.86 149.95 224.03 151.59 224.32 152.09 225.94 152.19 226.76 152.05 227.34 152.53 228.57 152.59 229.39 153.3 228.5 154.04 228.47 154.46 227 155.88 227 156.34 226.56 156.95 225.62 157.57 225.86 158.92 225.28 159.61 225.49 160.64 225.3 161 225.66 161.55 224.09 163.84 223.77 163.96 223.58 165.19 224.13 166.34 224.98 167.1 224.42 167.9 223.99 168.13 223.21 170 221.97 171.34 221.63 172.07 221.15 172.15 221.38 172.97 222.14 174.19 223.24 175.16 224.06 176.35 223.75 176.89 222.22 178.38 220.93 179.36 220.15 179.56 218.69 178.69 218.67 177.71 217.24 177.96 216.76 177.84 215.57 177.18 212.58 176.66 211.42 176.26 210.69 176.29 210.44 176.89 208.92 176.75 208.76 176.49 209.39 175.05 210.11 174.53 209.49 174.09 210.71 172.47 210.58 172.01 211.03 171.49 212.73 171.47 212.41 171.06 211.42 170.63 212.58 169.48 214.81 168.46 214.96 168.08 216.03 167.13 215.86 166.44 214.98 166.6 213.58 167.24 211.97 167.57 211.66 167.86 210.13 168.2 209.04 169.33 207.81 169.78 207.37 170.32 206.53 170.55 205.4 171.45 205.63 171.91 205.09 173.03 204.15 174.04 203.58 175.26 203.18 175.81 203.14 176.81 202.63 177.23 203.12 177.69 203.79 178.9 204.62 178.81 204.62 179.41 205.03 179.95 206.76 180.16 206.22 180.51 205.96 181.4 206.56 182.36 206.46 182.93 204.72 184 204.3 184.43 203.14 184.23 203.41 185.14 204.56 185.14 203.67 186.16 203.65 187.01 203.16 187.88 201.97 188.52 201.18 188.42 200.83 187.88 200.42 186.56 199.33 186.33 198.53 185.12 197.62 183.98 197.53 182.8 197.19 182.44 195.83 181.89 195.45 181.1 194.93 180.63 196.72 177.39 197.11 177.29 197.93 176.49 198.73 176.01 199.6 174.89 199.45 174.26 199.04 173.79 198.8 172.89 199.4 170.93 200.47 170.98 200.31 170.59 198.75 170.14 198.76 169.68 199.38 168.57 197.53 168.86 197.59 168.4 197.02 167.96 196.54 166.92 196.86 166.3 196.99 165.51 196.38 164.18 195.41 164.4 195.9 164.97 195.65 166.02 194.92 167.05 195.75 167.73 195.54 168.97 196.08 170.07 195.37 171.59 196.26 172.01 195.93 172.79 195.06 173.4 194.78 173.08 195.11 172.45 194.43 172.47 193.89 173.51 192.73 173.87 193.43 175.16 192.65 175.5 192.24 176.34 191.29 176.87 191.1 177.59 191.76 177.71 191.29 179.82 191.78 180.03 191.66 181.05 192.51 181.47 192.53 182.19 192.92 182.77 193.46 183.05 193.58 183.48 194.27 184.07 193.96 185.04 193.63 185.31 193.07 186.71 192.34 187.7 191.83 188.08 192.32 188.35 193.41 188.89 194.01 188.82 194.35 190.04 193.77 190.41 193.89 191.13 193.52 191.6 194.52 193.33 194.98 193.74 195.4 192.67 195.23 192.44 195.51 191.63 195.36 191.25 195.49 190.27 195.45 189.05 196.08 187.46 196.73 187.2 197.34 188.62 197.8 188.67 198.96 189.91 199.16 190.67 199.52 190.9 199.38 191.49 199.68 192.51 200.43 192.64 200.6 193.1 201.82 193.2 202.77 193.67 203.02 194.07 204.87 194.76 205.73 195.22 205.86 195.9 207.14 195.94 208.16 195.71 208.53 195.18 209.51 195.19 210.05 195.58 210.89 195.06 211.59 193.79 212.78 192.5 214.1 191.69 215.01 191.64 216.03 191 216.97 189.46 217.3 188.17 219.43 187.53 220.47 185.83 220.34 185.11 220.69 184 222.05 182.83 222.29 182.29 222.39 180.62 222.78 180.47 223.58 180.13 223.58 179.52 225.54 177.26 225.88 176.56 225.97 175.56 225.15 174.4 224.04 173.18 224.69 172.92 225.51 173.16 226.9 174.04 228.12 174.28 228.99 175.37 230.28 176.31 231.81 177.17 232.89 177.36 233.7 177.67 234.61 178.25 235.01 178.73 235.74 178.58 236.1 178.07 236.95 177.89 237.24 177.31 237.92 176.64 238.19 176.02 237.72 175.47 236.65 175.11 235.81 175.16 234.57 174.81 234.6 174.23 235.59 174.09 236.07 172.84 237.3 172.78 238.84 172.55 240.04 171.96 240.75 172.24 241.46 172.03 241.75 171.47 242.79 171.18 245.57 170.62 246.8 169.9 246.76 167.31 246.56 165.89 246.71 165.51 246.22 165.01 245.93 164.24 245.74 163.78 244.43 163.01 244.11 162.28 244.11 161.5 243.71 160.36 243.16 160.3 242.49 159.78 240.85 159.48 242.39 158.59 242.17 157.72 242.31 157.21 243.07 156.33 243.04 155.93 242.34 155.21 240.49 154.2 239.74 153.44 239.25 152.65 239.75 151.89 239.01 151.37 239.46 150.81 239.18 149.75 239.3 149.31 238.13 147.64 238.12 147.39 236.97 146.67 238.94 145.86 240.44 144.65 241.64 145.73 242.99 145.87 243.63 145.51 244.95 145.11 245.3 144.31 244.75 143.28 242.75 142.14 242.17 141.64 240.79 141.53 240.76 140.96 239.96 141.16 238.69 140.75 237.63 140.16 236.94 138.81 236.08 138.2 235.35 137.91 236.52 137.61 237.51 137 238.19 136.89 238.14 136.43 238.73 135.08 238.49 134.72 238.77 134.24 240.59 133.54 241.12 133.07 241.53 132.32 241.55 131.7 241.87 131.02 241.54 130.08 240.9 129.12 241.14 128.03 240.38 127.42 239.69 126.63 239.62 126.05 239.45 125.59 239.93 125.28 240.01 124.57 239.57 123.1 241.02 122.37 243.9 119.64 245.26 119.02 245.67 118.45 245.76 117.53 246.32 116.7 245.91 115.6 246.5 114.19 246.42 113.79 247.1 112.24 248.24 111.02 248.2 109.83 248.62 108.56 249.66 108.42 251.58 107.81 254.55 107.5 255.81 106.84 256.48 106.34 256.66 105.91 256.4 105.4 256.57 103.43 256.37 102.47 256.91 101.49 257.61 101.3 256.75 100.21 255.65 100.24 254.76 99.88 251.95 98.44 252.05 97.58 251.38 96.93 249.51 96.7 249.24 96.08 247.15 95.1 247.12 94.64 246.67 93.88 244.92 93.4 244.76 92.65 244.07 91.68 243.33 91.37 242.69 90.52 242.99 90.11 242.41 89.59 242.8 89.07 242.73 87.92 242.16 86.54 243.47 84.75 242.83 84.53 242.16 83.87 242.42 83.24 242.02 82.41 242.36 81.45 241.55 80.48 240.5 80.27 239.91 79.82 238.69 79.95 237.57 80.23 236.67 80.06 236.51 79.59 236 79.24 234.92 79.33 234.06 79.62 233.64 80 234.07 81.44 234.58 81.46 234.83 81.99 233.52 83.29 232.81 83.65 231.95 83.56 231.11 84.16 231.06 85.43 231.52 85.87 231.39 86.34 232.39 86.79 232.56 87.48 233.42 88.46 234.02 88.77 234.8 90.01 236.76 90.88 236.93 91.54 237.94 91.81 241.22 94.44 241.86 95.11 242.81 96.6 243.27 96.96 243.54 97.57 242.89 97.8 241.46 97.49 240.38 96.71 239.8 95.35 239.06 94.66 237.53 93.91 236.71 92.86 236.1 92.6 234.72 92.44 234.05 91.72 232.23 90.06 231.16 90.19 230.27 91.02 229.63 90.99 229.38 90.6 227.69 89.69 227.31 88.88 227.53 88.22 226.47 86.77 226.59 86.45 225.84 85.99 225.8 85.54 225.11 84.6 225.53 84.29 225.55 83.41 224.99 82.67 225.01 81.57 225.4 80.6 225.32 78.84 225.75 77.86 227.52 77.38 228.95 77.16 229.15 77.49 230.31 77.74 231.52 77.3 232.3 75.84 233.16 75.85 233.9 76.14 237.44 77.24 238.46 77.65 239.43 77.51 239.98 76.02 240.44 75.42 242.44 73.58 241.7 73.59 241.48 73.18 242.01 72.81 240.72 72.64 240.81 72.27 240.33 71.72 239.26 71.12 239.38 70.84 238.24 70.04 237.22 69.78 236.66 69.22 234.77 68.86 232.77 67.43 231.71 67.34 231.46 66.67 230.44 66.37 230.05 65.9 229.16 66.3 228.86 66.68 228.11 66.56 228.78 65.89 229.81 65.6 229.38 65.16 227.01 65.56 226.57 64.87 225.57 65.07 225.5 64.21 224.89 62.81 224.06 62.53 223.42 61.87 223.6 61.45 222.96 59.88 223.99 57.88 223.33 58.02 222.56 57.78 221.17 57.91 220.86 58.6 220.93 59.02 220.15 59.89 219.13 60.23 218.14 60.13 217.41 60.65 217.22 61.12 216.37 61.23 216 60.97 215.25 61.46 214.52 61.63 212.97 61.73 212.88 61.27 212.19 60.97 211.13 60 210.96 58.79 211.14 58.23 211.83 58.18 212.42 57.61 212.41 57.15 213.1 57 212.8 55.07 212.1 54.54 211.73 53.71 210.9 53.37 209.72 53.13 209.35 53.28 208.19 53.12 208.53 52.29 209.31 52.29 210.07 51.38 210.85 51.85 211.41 51.9 217.15 50.12 218.71 50.17 218.86 51.07 218.26 51.1 218.07 51.6 218.53 51.83 218.64 53.07 219.46 54.17 220.18 55.75 221.27 56.06 221.58 55.75 221.29 53.89 220.85 53.09 222.03 52.38 222.92 52.33 223.98 53.75 224.5 54.86 225.12 55.75 225.83 55.96 226.36 56.57 226.78 56.32 228.6 56.63 230.19 56.51 229.91 56.11 231.95 55.5 231.97 54.68 231.07 54.17 230.6 53.08 230.67 52.43 230.45 51.33 230.1 50.93 230.7 50.43 230.13 48.61 229.37 48.21 228.87 47.13 229.05 46.72 228.46 45.69 226.63 45.47 225.18 44.71 223.15 44.43 222.7 43.97 223.34 43.28 223.69 43.97 224.83 44.51 226.49 44.59 228.45 44.5 229.33 44.55 229.79 45.38 230.71 46.22 231.51 46.51 232.39 46.15 232.45 45.58 233.6 45.59 234.46 45.19 234.74 44.56 235.29 44.44 235.75 43.97 236.15 42.71 236.55 42.15 235.82 41.63 235.23 40.76 234.55 40.55 234.15 39.79 232.56 39.47 231.22 38.28 230.25 37.69 229.53 36.83 228.56 36.31 227.9 35.52 228.57 35.39 229.91 34.83 229.81 33.56 228.99 32.1 228.09 32.01 228.45 32.76 228.18 32.91 227.32 31.73 227.45 31.45 226.96 30.55 226.95 30.13 227.56 29.59 228.14 29.67 228.29 29.02 228.94 28.53 229.81 27.55 229.47 27.23 229.89 26.66 229.47 26.43 228.26 26.31 227.65 26.05 227.47 25.43 226.03 24.9 225.26 24.11 222.43 23.87 221.85 24.26 220.66 24.63 220.11 24.47 219.16 25.03 217.87 25.47 217.67 26.08 215.86 27.32 214.91 28.24 214.04 29.44 213.87 30.08 213.4 30.26 212.76 29.78 212.06 28.63 211.2 28.51 211.06 28.07 211.86 26.94 212.46 26.37 213.15 25.11 213.86 24.33 213.93 23.2 213.13 23.08 211.81 22.47 210.92 21.6 210.22 21.34 209.09 21.6 208.46 21.18 207.79 21.43 208.32 22.97 207.44 23 207.35 22.54 207.55 19.85 207.28 18.36 206.75 16.85 206.17 16.27 203.66 15.39 202.74 14.59 199.74 12.99 198.98 12.18 199.94 12.01 200.72 11.61 201.36 10.97 203.25 10.31 203.86 9.29 203.73 8.32 202.81 7.51 201.3 7.12 199.55 8.22 198.98 8.16 196.42 7.47 195.98 6.87 196.52 5.74 197.45 5.09 198.56 4.08 198.6 3.8 200.91 2.16 201.72 2.1 202.93 1.53 202.58 1.04 218.13 1.03 238.33 1.02 257.11 1 269.93 1.03 281.14 1.18 294.37 1.36 304.53 1.52 337.79 1.29 341.7 1.26 347.15 1.16 355.86 1.24 356.62 1.17 372.5 1.23 397.25 1.22 415.84 1.24 433.2 1.2 459.73 1.23 478.34 1.3 484.09 1.31 505.73 1.25 521.41 1.24 542.75 1.24 555.34 1.24 576.82 1.24 592.19 1.24 603.02 1.24 618.06 1.24 629.29 1.24 648.66 1.24 670.76 1.24 688.27 1.22 688.34 1.26 700.26 1.26 700.96 1.2 711.59 1.19 725.72 1.17 746.67 1.21 758.95 1.24 776.8 1.37 787.27 1.33 787.3 14.02 Z M 171.7 1.04 174.24 1.04 175.34 2.88 175.61 3.65 175.15 3.89 173.67 3.57 170.5 3.92 169.28 4.16 169.32 3.06 168.61 1.05 171.7 1.04 Z M 246.11 101.27 247.05 101.22 247.27 101.64 248.35 102.06 248.66 102.92 246.67 102.32 245.81 101.44 246.11 101.27 Z M 225.01 66.31 225.83 66.02 226.11 66.63 225.01 66.31 Z M 220.86 62.95 221.22 62.42 222.77 62.24 222.73 62.66 221.29 63.01 220.86 62.95 Z M 219.38 36.84 220.35 35.97 220.99 37.23 219.38 36.84 Z M 217.22 40.75 217.6 40.49 218.53 40.66 218.86 41.31 218.42 41.56 217.52 41.23 217.22 40.75 Z M 213.55 30.63 214.5 30.98 215.44 30.8 216.24 31.17 217.56 30.45 218.1 31.91 217.07 32.5 216.41 32.5 215.61 32.2 213.55 30.63 Z M 213.23 47.31 214.08 46.09 213.43 45.24 213.35 43.79 213.66 43.28 214.35 43.29 214.91 43.7 215.06 44.27 215.71 44.94 217.6 46.06 218.5 46.38 218.99 46.76 220.34 47.05 220.86 47.39 221.32 48.37 221.03 48.82 221.16 49.32 218.71 48.54 216.67 49.32 214.58 49.67 213.67 49.37 213.15 48.43 213.23 47.31 Z M 208.57 39.94 208.69 39.74 209.98 39.27 211.13 39.04 211.4 39.56 212.28 40.02 212.33 40.63 212.88 41.09 211.95 41.27 210.86 41.07 208.57 39.94 Z M 207.18 55.65 208.53 55.4 209.01 55.91 208.53 56.62 207.46 56.23 207.18 55.65 Z M 207.09 54.52 207.56 53.94 208.96 53.87 209.55 53.58 209.72 54.86 208.07 54.98 207.09 54.52 Z M 206.22 28.65 206.91 27.12 207.39 27.03 208.18 27.43 209.49 28.74 210.13 29.14 210.51 29.9 210.42 30.21 211.75 31 212.05 32.15 214.12 32.76 215.93 34.03 216.84 34.87 217.68 36.94 217.83 37.97 216.52 37.08 215.1 36.8 213.13 35.31 212.81 34.9 211.19 33.84 210.67 32.82 210.01 32.09 209.81 31.39 209.33 30.71 208.5 30.49 208.26 30.15 206.57 30.17 206.25 29.5 206.22 28.65 Z M 204.36 43.63 205.5 43.15 205.46 42.54 205.97 42.4 205.94 41.76 207.36 41.15 209.16 42.54 209.37 43.09 208.84 43.31 209.82 44.15 210.75 44.48 211.73 45.52 210.8 45.76 209.82 46.38 208.89 46.76 210.32 46.98 210.3 47.68 208.62 47.87 207.87 48.13 206.2 48.16 206.04 47.21 206.32 46.28 206.17 45.72 205.38 45.61 204.46 44.76 204.63 43.97 204.36 43.63 Z M 201.69 31.09 202.21 32.24 201.92 32.33 201.69 31.09 Z M 201.35 80.13 202.12 79.03 202.62 77.67 203.12 76.81 204.52 75.35 205.22 74.83 205.55 74.25 205.71 73.37 206.18 72.3 207.77 71.17 208.46 69.93 209.01 69.7 209.8 68.52 210.24 68.27 211.17 67.15 211.72 66.12 212.07 65.09 212.1 62.37 213.49 62.23 214.13 61.96 215.55 62.21 216.22 62.47 216.95 61.79 217.71 61.34 218.5 61.51 219.04 61.95 219.18 62.81 220.23 63.01 220.13 64 220.73 65.09 220.72 65.42 219.84 66.3 218.95 66.85 219.31 67.16 220.22 67.29 222.22 67.81 223.67 68.43 224.36 69.05 225.27 69.44 226.13 70.17 227.28 70.65 228.24 71.71 228.43 72.69 227.82 73.39 226.59 74.21 225.75 74.53 223.63 74.62 222.96 74.56 221.27 73.25 220.33 72.94 218.75 72.91 216.82 73.33 215.97 73.86 216.58 74.47 216.16 74.99 216.06 75.65 215.53 76.09 214.8 75.73 214.21 74.81 215.09 74.8 215.53 74.51 215.02 73.91 214.31 73.88 212.95 74.44 212.3 75.02 212.22 75.41 213.33 76.3 213.29 77.69 212.71 78.4 210.82 79 210.33 78.84 209.51 79.03 208.07 79.06 206.86 79.26 205.6 79.63 205.19 80.27 205.82 80.63 205.77 81.02 206.33 81.54 207.37 81.5 208.54 81.1 209.21 80.67 210.7 80.81 211.14 80.54 212.61 80.58 213.77 80.2 214.04 80.6 215.17 80.93 215.81 80.65 217 81.68 217.43 81.73 218.21 82.29 218.11 82.77 219.44 83.92 220.15 84.75 220.23 85.57 220.62 86.24 220.65 87.07 221.54 87.64 221.98 88.19 222.13 89.8 222.79 90.66 223.03 91.33 222.78 91.82 221.6 92.63 221.58 92.94 222.41 93.99 223.34 95.47 224.19 95.61 224.28 96.99 223.92 97.88 224.94 98.24 225.14 99.05 225.17 100.7 224.68 101.29 225.04 101.73 226.04 101.73 227.08 101.08 227.61 99.75 227.93 99.31 227.27 97.91 227.49 97.34 227.1 96.89 227.49 96.55 227.78 95.68 227.19 95.09 226.32 93.51 227.56 93.41 228.39 93.62 229.82 93.74 230.55 94.51 231.69 95.44 232.08 95.5 234.18 97.82 235.93 98.77 237.47 98.93 238.44 99.2 238.78 99.62 240.41 99.89 241.55 99.85 241.96 101.32 241.91 102.34 242.03 103.33 242.28 103.85 243.8 104.95 244.21 106.5 244.16 108.14 243.54 109.03 243.33 109.76 242.66 110.01 241.49 111.16 241.6 112.53 241.12 113.17 240.1 113 239.4 112.31 239.83 111.55 238.79 111.31 237.86 112.25 237.16 112.34 235.96 112.08 235.99 111.78 234.48 110.49 234.45 109.88 234.92 109.18 234.96 108.29 234.36 107.13 232.1 105.11 232.05 104.72 231.08 104.41 230.19 104.42 228.79 104.69 227.4 105.29 226.75 106.13 224.13 106.72 223.62 106.19 223.7 105.68 224.52 104.8 224.67 104.08 224.05 103.34 222.79 102.7 220.56 102.31 219.92 101.64 219.35 101.33 219.04 100.74 217.95 100.2 219.03 99.4 219.35 98.55 219.22 97.62 218.12 96.81 218.08 96.51 217.27 95.94 217.35 95.25 217.96 94.38 218.22 93.5 218.88 92.07 218.49 89.56 218.18 88.64 217.4 87.45 216.22 86.85 214 86.62 212.03 87.02 210.87 87.64 210.22 86.86 209.86 85.53 209.2 84.83 208.4 84.45 207.31 83.6 204.91 82.95 203.93 81.96 202.05 81.38 201.34 80.45 201.35 80.13 Z M 196.06 43.02 196.41 42.85 196.76 42.09 197.81 42.32 197.45 42.81 196.2 43.24 196.06 43.02 Z M 195.1 44.9 195.32 44.21 195.79 43.76 196.39 43.76 197.17 43.23 199.19 44.13 201.24 45.87 201.44 46.25 201.12 46.95 199.56 47.97 198.82 48.79 197.49 49.11 196.1 47.56 196.56 46.97 195.49 46.74 195.1 44.9 Z M 193.35 27.07 194.13 26.83 195.37 27.09 194.77 27.44 193.35 27.07 Z M 186.18 25.05 186.65 24.76 188.2 24.74 188.97 25.27 187.01 25.07 186.81 25.52 188.2 26.09 189.19 26.05 189.78 26.41 189.43 26.92 188.16 27.13 187.49 26.77 186.82 26.72 186.07 26.27 186.18 25.05 Z M 183.4 54.58 183.86 52.5 184.58 51.62 184.8 50.53 185.29 50.14 186.43 49.96 185.82 48.34 185.99 47.13 187.47 47.18 188.22 46.54 189 46.36 189.07 45.26 189.63 44.84 189.8 46.67 190.92 46.78 190.89 45.88 191.52 45.79 191.68 46.65 190.77 47.3 191.14 47.99 192.32 47.99 192.93 48.45 193.71 47.92 194.01 48.23 192.23 48.97 191.5 51.15 190.8 51.7 191.04 52.42 191.52 52.6 192.11 53.44 192.81 53.73 193.1 54.6 192.2 56.38 192.42 56.59 193.83 56.28 193.81 56.64 193.05 57.49 193.77 57.64 194.51 57.35 195.55 56.32 194.8 55.4 194.8 53.82 194.52 53.4 194.13 51.99 194.5 50.6 195.02 50.45 195.35 49.93 196.65 49.77 197.93 49.83 199 49.72 200.59 50.5 201.4 51.07 201.36 51.51 199.84 51.27 199.01 51.78 199.02 52.12 198.35 52.89 196.62 53.56 196.35 54.63 196.92 55.11 196.32 56.37 197.06 57.15 197.78 57.16 198.26 57.7 197.49 58.07 197.49 58.78 196.84 59.38 197.92 59.44 196.99 60.38 195.91 60.4 195.48 59.91 194.56 59.6 194.29 59.28 193.34 59.7 192.08 59.41 191.89 59.83 193.22 60.17 192.8 60.5 190.85 60.68 189.68 60.62 188.55 60.38 189.22 59.68 190.14 59.83 190.38 59.26 189.15 58.86 189.7 58.57 190.72 58.7 190.97 59.23 191.94 58.47 191.72 58.2 190.46 57.89 187.62 57.8 187.15 58.38 185.39 58.74 184.92 58.16 186.06 58.14 186.4 57.48 186.28 56.8 185.38 56.33 184.58 56.59 183.54 56.61 183.81 55.3 183.4 54.58 Z M 176.07 43.1 176.67 43.01 177.14 43.55 177.87 43.42 179.91 42.79 182.22 43.28 183.89 43.51 183.67 44.2 184.74 44.77 184.67 44.05 185.16 43.61 186.13 43.42 186.54 43.73 187.58 43.89 187.67 44.58 185.9 45.95 185.37 45.8 184.06 45.9 184.28 46.24 183.72 46.67 183.99 47.01 183.67 47.41 181.31 47.29 181.1 46.68 180.1 47.01 179.18 46.48 179.41 45.93 180.66 46.32 179.81 45.37 179.38 45.19 177.92 44.12 176.41 44.24 176.51 43.84 176.07 43.1 Z M 174.76 39.04 175.48 38.58 176.29 37.71 176.37 37.09 176.82 36.48 178.07 35.81 179.16 35.03 179.45 34.46 181.69 33.56 183.08 32.53 183.74 31.67 183.32 30.92 185.3 30.78 186.32 30.48 188.81 30.41 189.57 30.64 190.36 30.59 191.49 31.3 192.31 31.38 194.47 31.89 198.14 33.66 198.81 34.04 201.03 34.84 204.21 35.74 204.25 35.93 202.89 36.34 202.89 37.05 201.44 37.86 200.45 38.1 199.81 38.75 198.76 39.09 197.92 39.87 197.38 40.06 198.41 41.82 197.84 41.84 196.91 41.4 196.28 41.89 195.15 41.88 195.42 40.48 195.01 40 194.38 40.24 193.36 39.85 192.05 38.06 191.17 37.33 190.54 37.44 189.93 36.64 189.77 35.93 189.74 34.44 189.86 33.4 189.59 32.9 188.61 32.43 186.22 32.95 186 33.3 186.39 33.99 187.17 34.89 186.73 35.32 187.07 36.59 187.63 37.09 188.42 37.32 189.97 38.22 190.54 39.78 191.96 40.84 191.91 41.67 191.1 42.19 190.99 42.64 190.03 42.93 189.68 43.25 187.51 42.81 186.54 42.99 185.37 42.97 184.3 42.76 184.3 42.4 183.21 42.38 182.63 41.82 182.82 41.32 182.34 40.21 182.65 39.51 181.9 38.88 181.24 39.18 179.5 37.79 179.3 38.21 178.57 38.56 179.06 39.4 180.08 40.17 180.83 41.13 180.79 41.71 180.2 42.19 179.01 41.98 179.03 42.69 178.31 42.86 177.06 42.64 177.04 42.2 178.77 41.72 178.55 41.13 177.82 40.55 177.04 40.55 175.61 41.15 175 40.99 174.76 39.04 Z M 172.32 40.2 172.6 39.99 173.76 40.36 173.95 40.86 172.97 40.99 172.32 40.2 Z M 170.92 31.85 172.3 31.5 173.18 30.96 173.75 30.12 174.87 30.2 175.84 29.71 176.85 29.61 176.94 30.59 177.34 31.34 176.96 31.6 177.33 32.46 176.38 33.42 174.9 34.1 173.53 34.37 174.21 33.38 174.14 32.9 173.05 32.32 170.92 31.85 Z M 161.15 37.07 162.49 37.22 163.49 37.59 164.8 37.63 165.96 38.06 166.45 38.65 165.75 38.69 163.75 38.16 162.87 37.74 161.11 37.21 161.15 37.07 Z M 157.09 42.55 157.87 41.3 158.77 40.83 159.51 39.84 161.86 40.38 162.4 40.13 162.28 39.73 162.97 39.54 163.81 39.74 163.95 40.05 165.12 39.88 167.1 39.78 167.59 40.15 167.95 40.88 167.49 41.94 167.59 42.2 169.17 42.71 170.23 42.93 172.57 44.58 172.88 45.18 174.21 45.8 176.18 45.97 176.7 46.22 177.37 47.07 177.32 48.07 178.34 48.69 179.68 48.59 180.02 48.81 180.94 48.62 181.07 49.5 180.71 50.23 179.65 50.82 178.68 50.8 177.35 50.18 176.18 50.41 175.82 52.01 175.82 52.8 176.94 53.94 176.91 54.75 177.25 55.28 179.19 56.13 180.29 56.16 180.83 55.58 181.55 55.67 181.92 56 181.74 56.53 181.84 57.29 181.22 57.33 180.43 57.05 176.07 56.61 175.5 56.71 173.71 56.22 172.34 55.61 172.33 55.4 171.17 55.09 170.87 54.36 169.36 54.01 168.42 54.17 167.43 53.46 166.43 53.16 165.7 53.14 164.87 52.53 164.27 52.48 163.71 51.82 162.52 50.97 162.36 50.4 161.19 49.24 161.1 48.71 161.43 47.95 161.37 47.38 160.79 47.2 159.85 45.94 159.87 45.31 160.38 44.57 159.07 43.59 157.3 43.37 157.09 42.55 Z M 153.75 33.42 153.6 33 155.81 32.91 157.22 33.22 159.15 33.49 160.24 33.84 160.63 34.21 162.62 35.04 163.99 36.27 161.72 35.33 160.8 35.6 159.53 35.64 159.18 36.23 158.53 35.89 157.39 35.7 155.41 34.87 155 34.4 153.75 33.42 Z M 228.41 149.68 229.79 149.79 231.01 150.15 230.42 150.6 230.53 151.19 230.02 151.42 229.24 151.19 228.27 149.91 228.41 149.68 Z M 219.64 137.76 220.16 137.53 221.44 136.63 221.77 136.73 222.2 137.48 222.68 136.67 222.31 135.85 222.23 134.56 222.51 133.85 222.39 132.97 223.52 131.88 224.41 132.15 224.74 133.12 225.87 133.59 226.32 133.23 227.12 133.46 227.77 133.11 228.44 134.09 228.52 134.58 228.12 135.86 228.02 136.98 228.84 138.13 227.39 138.69 228.08 139.76 228.7 140.23 230.02 140.83 229.28 141.99 228.45 141.57 227.45 142.06 226.88 141.92 226.44 142.38 227.71 142.61 228.88 142.4 229.14 143.13 229.08 144.43 227.46 144.54 227.41 144.78 228.56 145 229 145.24 230.55 145.6 230.93 145.92 229.33 146.23 228.51 146.73 227.04 146.86 226.59 146.73 225.63 145.28 224.99 144.62 224.36 144.5 224.02 143.84 223.1 144.04 222.62 144.86 222.01 145.17 221.43 144.77 221.07 144.18 221.4 142.61 221.03 142.17 220.97 139.76 220.68 139.57 219.64 137.76 Z M 211.59 177.25 212.19 177.14 212.88 177.39 213.64 177.38 215.18 178.23 215.83 178.17 215.94 178.89 216.5 179.08 217.96 180 218.51 180.66 219.84 181.27 219.67 182.23 218.87 182.76 218.44 183.28 217.85 183.27 217.25 182.93 216.44 182.1 216.13 181.52 215.65 181.27 215.16 180.63 214.5 180.3 213.95 179.59 212.85 178.66 211.7 177.87 211.59 177.25 Z M 194.03 179.14 194.19 178.11 194.98 177.62 195.69 177.86 194.99 178.75 194.79 179.26 194.03 179.14 Z M 183.63 90.82 184.94 89.84 185.94 90.08 186.21 90.41 184.46 90.98 183.63 90.82 Z M 87.53 208.98 88.28 208.87 89.54 209.05 90.58 209.48 89.98 209.98 88.84 209.51 88.32 209.47 87.53 208.98 Z M 14.24 63.86 15.18 64.77 14.53 64.89 14.24 63.86 Z M 226.26 168.84 226.47 168.06 227.1 167.84 227.25 166.96 226.08 165.43 226.18 164.79 226.66 163.9 227.41 163.21 227.56 162.26 227.49 159.65 228 158.4 228.66 157.7 229.13 156.89 230.68 156.15 231.08 154.74 231.3 153.3 232.12 153.4 233.78 154.07 233.14 154.61 233 155.77 234.28 156.65 234.53 157.17 235.72 157.86 234.73 159.18 235.09 159.65 235.05 160.78 235.41 161.55 236.07 162.22 235.05 162.9 235.28 163.88 236.34 164.42 239.63 164.71 241.82 165.79 241.32 166.14 239.09 166.52 238.68 166.82 237.29 167.2 236.96 167.6 235.26 168.15 234.18 169.24 233.61 170.43 232.01 170.3 231.4 170.05 231.25 169.64 231.91 168.12 232.32 167.85 232.61 167.19 233.7 167.45 234.79 166.2 235.74 165.85 235.13 165.2 235.09 164.21 234.24 164.43 233 164.47 232.39 165.13 232.97 165.31 233.8 165.13 234.53 165.72 233.87 166.38 232.49 165.94 231.64 165.96 230.52 166.68 230.16 168.21 230.18 169.01 229.96 169.57 229.81 171.26 229.62 171.76 228.41 171.72 228.05 171.51 226.99 171.45 226.04 170.2 226.26 168.84 Z M 214.55 190.23 215.04 188.74 215.52 188.37 215.76 189.36 215.6 189.81 214.55 190.23 Z M 205.75 184.31 206.48 183.95 206.79 183.35 207.76 182.53 208.02 181.9 210.55 181.88 210.94 182.4 211.81 182.68 211.69 183.45 212.37 183.61 212.61 183.09 213.73 183.47 214.43 184.55 214.37 184.98 212.85 185.73 210.77 185.97 209.24 185.78 208.3 185.28 206.93 185.16 205.75 184.61 205.75 184.31 Z M 204.23 189.66 205.72 189.07 205.44 188.44 206.05 187.47 206.69 187.19 207.8 186.35 208.92 186.19 209.25 186.66 210.36 186.98 211.15 187.65 211.2 190.18 210.81 190.33 210.99 190.99 210.1 191.21 209.67 190.84 209.02 190.81 208.8 191.63 209.21 192.15 209.03 192.63 208.24 192.84 207.26 192.45 206.23 191.48 205.45 191.12 205.09 190.58 204.11 190.02 204.23 189.66 Z" fill-rule="evenodd" fill="none" stroke="currentColor" stroke-width="46.400"/>
</g>
</svg>