<svg viewBox="-125.51326209999999 -49.783866218543245 9.377209199999996 5.021659318543243" xmlns="http://www.w3.org/2000/svg">
  <path d="M -117.032107,48.874926 L -117.0323449751289,48.999188013202925 L -117.134897,48.998804 L -117.30971729594897,49.00004003825599 L -117.429968,49.0003644833648 L -117.63506,49.000736 L -117.773432,49.000527 L -117.87756297763664,49.00043422272576 L -117.884398,48.999912 L -118.001106,48.999911 L -118.0017687467275,49.00028185614752 L -118.173218,49.000067 L -118.389708,49.000043 L -118.57932,49.000071 L -118.68932,49.000062 L -118.836614,49.000083 L -118.942638,49.000088 L -119.093168,49.00009 L -119.303504,49.000083 L -119.426827,49.000088 L -119.635807,49.000099 L -119.789261,49.000032 L -120.001199,48.999418 L -120.057503,48.99953 L -120.239792,49.000159 L -120.49957173781326,49.00051764052651 L -120.669568,49.000101 L -120.85155814399755,49.00028007813869 L -121.093931,49.000224 L -121.24941288879516,49.00077178531297 L -121.256933,49.000088 L -121.34221079079376,49.00081664729238 L -121.395543,48.999851 L -121.433869751103,48.9995868031602 L -121.759572,48.997299 L -121.85905008153651,48.99887324408479 L -121.988623515285,49.0006452873858 L -122.098357,49.002146 L -122.22390877662063,49.00243211854325 L -122.407820519771,49.0021932120057 L -122.605578,49.002166 L -122.75783177015676,49.002086947602606 L -122.754443,48.997246 L -122.766307,48.991672 L -122.774276,48.991038 L -122.796887,48.975026 L -122.797213,48.972276 L -122.808151,48.962417 L -122.817226,48.95597 L -122.822464,48.944911 L -122.818232,48.939062 L -122.793156,48.932298 L -122.787539,48.931702 L -122.770432,48.942528 L -122.755624,48.93866 L -122.746596,48.930731 L -122.745371,48.921227 L -122.751289,48.911239 L -122.769834,48.904816 L -122.776052,48.898575 L -122.783747,48.894639 L -122.793175,48.892927 L -122.785659,48.885066 L -122.756332,48.869354 L -122.747301,48.861536 L -122.722685,48.852855 L -122.717073,48.84719 L -122.711805,48.832408 L -122.709169,48.817829 L -122.7112,48.79146 L -122.710273,48.787018 L -122.701708,48.787329 L -122.706835,48.802336 L -122.700321,48.804779 L -122.694078,48.800727 L -122.68304,48.803289 L -122.676254,48.800727 L -122.667539,48.792222 L -122.65454,48.786184 L -122.646777,48.785011 L -122.647443,48.773998 L -122.654329,48.766322 L -122.661111,48.753962 L -122.666953,48.748445 L -122.674808,48.737385 L -122.673472,48.733082 L -122.665063,48.731899 L -122.658171,48.72061 L -122.651872,48.715906 L -122.647356,48.717631 L -122.645693,48.723903 L -122.637146,48.735708 L -122.627808,48.74466 L -122.610093,48.756866 L -122.608139,48.762773 L -122.595542,48.76716 L -122.586251,48.772597 L -122.580806,48.771076 L -122.56916,48.774679 L -122.563498,48.778526 L -122.535803,48.776128 L -122.528203,48.768428 L -122.514152,48.763196 L -122.512354,48.757132 L -122.506412,48.754625 L -122.494528,48.753372 L -122.490401,48.751128 L -122.494528,48.745536 L -122.491201,48.742401 L -122.49973,48.732839 L -122.506129,48.728046 L -122.507601,48.721708 L -122.513305,48.722492 L -122.519247,48.71716 L -122.519172,48.713095 L -122.514317,48.704207 L -122.515602,48.701544 L -122.507178,48.689925 L -122.504511,48.691436 L -122.508076,48.698809 L -122.499282,48.697868 L -122.491201,48.683591 L -122.49025,48.671192 L -122.503322,48.665698 L -122.509935,48.664369 L -122.503494,48.656666 L -122.49399,48.651596 L -122.486878,48.643122 L -122.47741,48.637365 L -122.46425,48.625717 L -122.448702,48.622624 L -122.444787,48.615126 L -122.438198,48.613084 L -122.432374,48.60454 L -122.425271,48.599522 L -122.429173,48.594016 L -122.433059,48.581609 L -122.437591,48.57708 L -122.442952,48.575828 L -122.445725,48.569743 L -122.454123,48.565763 L -122.465346,48.565866 L -122.466007,48.560258 L -122.474563,48.556797 L -122.482406,48.559653 L -122.491438,48.567808 L -122.495904,48.575927 L -122.504592,48.576458 L -122.523725,48.57563 L -122.539978,48.576339 L -122.551126,48.581669 L -122.554577,48.588399 L -122.560841,48.581646 L -122.55642,48.577151 L -122.536604,48.574369 L -122.522393,48.566979 L -122.504428,48.564775 L -122.498639,48.554736 L -122.50047,48.550661 L -122.495536,48.540097 L -122.488111,48.536184 L -122.482472,48.518352 L -122.488349,48.513517 L -122.484996,48.50962 L -122.482828,48.498844 L -122.483501,48.49243 L -122.478851,48.481736 L -122.470047,48.476818 L -122.470224,48.468775 L -122.490276,48.46279 L -122.487525,48.458901 L -122.503052,48.457688 L -122.520912,48.460723 L -122.524969,48.458311 L -122.530157,48.464239 L -122.537159,48.466336 L -122.543242,48.475029 L -122.548345,48.485881 L -122.558702,48.499817 L -122.56743,48.49927 L -122.578988,48.492385 L -122.574626,48.484538 L -122.571774,48.46626 L -122.574864,48.463265 L -122.58556,48.46626 L -122.592568,48.481731 L -122.600569,48.492508 L -122.601722,48.504699 L -122.606238,48.506903 L -122.604336,48.511785 L -122.598469,48.512169 L -122.599951,48.520946 L -122.615183,48.521427 L -122.671386,48.50398 L -122.676922,48.504484 L -122.684521,48.509123 L -122.691934,48.500151 L -122.699646,48.500132 L -122.702919,48.492011 L -122.691565,48.490524 L -122.687999,48.491942 L -122.676353,48.489579 L -122.668272,48.486271 L -122.664623,48.478128 L -122.657753,48.47294 L -122.654844,48.454087 L -122.661617,48.452547 L -122.661534,48.448083 L -122.667249,48.442503 L -122.674085,48.441979 L -122.675841,48.436541 L -122.674158,48.424726 L -122.663756,48.415173 L -122.65702,48.412199 L -122.65615,48.407758 L -122.640939,48.408705 L -122.633775,48.410377 L -122.62644,48.415173 L -122.622875,48.412649 L -122.614556,48.413753 L -122.612655,48.418328 L -122.605525,48.423376 L -122.59578,48.422429 L -122.585797,48.425741 L -122.578191,48.434258 L -122.578905,48.438358 L -122.575815,48.445138 L -122.562267,48.446399 L -122.554661,48.444034 L -122.548244,48.445453 L -122.558301,48.425822 L -122.552047,48.41044 L -122.553771,48.406411 L -122.547492,48.399889 L -122.539449,48.39719 L -122.533452,48.383409 L -122.532787,48.37499 L -122.522957,48.377002 L -122.518604,48.370236 L -122.495463,48.374132 L -122.491265,48.369848 L -122.501342,48.366983 L -122.507921,48.36046 L -122.500549,48.359315 L -122.497591,48.363013 L -122.488914,48.366922 L -122.485073,48.362346 L -122.475094,48.359385 L -122.472662,48.352822 L -122.462204,48.351874 L -122.442678,48.337934 L -122.424102,48.334346 L -122.418696,48.328887 L -122.408718,48.326413 L -122.397548,48.318551 L -122.398666,48.315776 L -122.388243,48.30987 L -122.38349,48.304524 L -122.384373,48.3009 L -122.37174,48.299251 L -122.376997,48.295628 L -122.374756,48.291627 L -122.367591,48.291724 L -122.387107,48.273701 L -122.391606,48.26779 L -122.397028,48.253178 L -122.406516,48.25183 L -122.416553,48.255883 L -122.451208,48.266598 L -122.458401,48.269515 L -122.466803,48.269604 L -122.474494,48.255227 L -122.486296,48.250973 L -122.497727,48.253389 L -122.499648,48.256611 L -122.513678,48.254467 L -122.530996,48.249821 L -122.535209,48.240213 L -122.534431,48.223005 L -122.538234,48.213442 L -122.53846,48.20271 L -122.532945,48.195417 L -122.533183,48.186861 L -122.53722,48.183745 L -122.530527,48.174534 L -122.530093,48.17022 L -122.522725,48.165623 L -122.523976,48.162489 L -122.513537,48.148361 L -122.515729,48.141918 L -122.512031,48.133931 L -122.495453,48.124998 L -122.493015,48.121216 L -122.486736,48.12095 L -122.477983,48.129048 L -122.4675,48.130353 L -122.44966,48.114041 L -122.443113,48.107022 L -122.429597,48.105462 L -122.423703,48.102941 L -122.415588,48.092665 L -122.400692,48.085255 L -122.393413,48.078472 L -122.38769,48.065189 L -122.377114,48.057568 L -122.363107,48.054546 L -122.356824,48.056758 L -122.359439,48.062794 L -122.363885,48.066311 L -122.373224,48.080899 L -122.379481,48.087384 L -122.411649,48.11321 L -122.421473,48.115821 L -122.423137,48.122326 L -122.442383,48.130841 L -122.449995,48.142948 L -122.455882,48.146002 L -122.464327,48.155584 L -122.465919,48.162294 L -122.475803,48.166792 L -122.474476,48.171329 L -122.479008,48.175703 L -122.478535,48.188087 L -122.47025,48.194007 L -122.461888,48.193137 L -122.45493,48.196639 L -122.442051,48.20935 L -122.444508,48.214522 L -122.449513,48.214736 L -122.45371,48.228859 L -122.449605,48.232598 L -122.441179,48.235423 L -122.430578,48.236237 L -122.425572,48.232887 L -122.424046,48.228197 L -122.415272,48.226577 L -122.404245,48.229303 L -122.392329,48.230606 L -122.386578,48.226143 L -122.376263,48.224168 L -122.368319,48.214609 L -122.371639,48.205246 L -122.367785,48.197106 L -122.370275,48.190941 L -122.363754,48.184459 L -122.35747,48.182285 L -122.370253,48.164809 L -122.364744,48.151304 L -122.364005,48.140005 L -122.367829,48.13493 L -122.362125,48.129853 L -122.365078,48.125822 L -122.358836,48.11754 L -122.351634,48.11443 L -122.344828,48.104955 L -122.343241,48.097631 L -122.326119,48.092877 L -122.321709,48.085507 L -122.321419,48.080991 L -122.301001,48.071332 L -122.298345,48.06532 L -122.280005,48.063067 L -122.273479,48.056677 L -122.274394,48.04823 L -122.246919,48.034187 L -122.238237,48.030585 L -122.22742,48.030927 L -122.218982,48.020276 L -122.225859,48.018345 L -122.231104,48.008749 L -122.229202,47.999367 L -122.230809,47.980108 L -122.228265,47.975097 L -122.230046,47.970917 L -122.23663,47.966037 L -122.249007,47.959507 L -122.278047,47.956517 L -122.296838,47.95056 L -122.307048,47.949117 L -122.311148,47.936717 L -122.310747,47.925117 L -122.321947,47.913117 L -122.328546,47.897917 L -122.327767,47.894022 L -122.333543,47.880246 L -122.329545,47.869418 L -122.335045,47.861318 L -122.33595,47.852306 L -122.339944,47.846718 L -122.353244,47.840618 L -122.381481,47.813904 L -122.395637,47.806808 L -122.391336,47.792415 L -122.392143,47.785419 L -122.396807,47.782378 L -122.39520297497671,47.77792141602963 L -122.394442,47.772219 L -122.387742,47.764519 L -122.380241,47.758519 L -122.382675,47.74783 L -122.376385,47.73844 L -122.37314,47.729219 L -122.376284,47.72259 L -122.37644,47.716519 L -122.38044,47.709119 L -122.385655,47.704542 L -122.403441,47.697719 L -122.406241,47.693019 L -122.403841,47.689419 L -122.40966,47.676224 L -122.409185,47.671743 L -122.41584,47.670622 L -122.425506,47.664709 L -122.436941,47.661719 L -122.429841,47.658919 L -122.421367,47.652949 L -122.414645,47.639766 L -122.40424,47.63392 L -122.391835,47.629953 L -122.383991,47.631875 L -122.383739,47.62632 L -122.370174,47.625183 L -122.364501,47.620342 L -122.344937,47.60912 L -122.339513,47.599113 L -122.342937,47.59122 L -122.355945,47.587329 L -122.362125,47.583802 L -122.375421,47.585181 L -122.387139,47.59572 L -122.401839,47.58392 L -122.421139,47.57602 L -122.409839,47.56892 L -122.409739,47.56652 L -122.398338,47.55012 L -122.399438,47.54582 L -122.396729,47.535479 L -122.401104,47.529908 L -122.393938,47.52482 L -122.398805,47.517437 L -122.393974,47.509683 L -122.386637,47.50222 L -122.368542,47.492341 L -122.361649,47.485275 L -122.361336,47.481421 L -122.36878,47.472745 L -122.370206,47.467764 L -122.368036,47.459221 L -122.383136,47.450521 L -122.367036,47.447621 L -122.360461,47.442533 L -122.355135,47.441921 L -122.351191,47.430797 L -122.351191,47.423078 L -122.348035,47.415921 L -122.335234,47.408421 L -122.33339720857906,47.40389120918553 L -122.330513,47.396377 L -122.325734,47.391521 L -122.327234,47.387721 L -122.325234,47.373821 L -122.324833,47.348521 L -122.336934,47.341421 L -122.364168,47.335953 L -122.374324,47.333074 L -122.377098,47.327632 L -122.384079,47.325602 L -122.391022,47.32834 L -122.402848,47.322541 L -122.41787801652093,47.320334165994446 L -122.429972,47.319658 L -122.434617,47.307491 L -122.444353,47.306099 L -122.444635,47.300421 L -122.432478,47.297014 L -122.424235,47.297521 L -122.413735,47.293921 L -122.409199,47.288556 L -122.4118,47.282505 L -122.418455,47.275893 L -122.421307,47.270249 L -122.429626,47.268475 L -122.433191,47.263475 L -122.440321,47.262023 L -122.4442,47.266723 L -122.453132,47.272399 L -122.461076,47.275447 L -122.471652,47.277321 L -122.486669,47.285729 L -122.499275,47.294922 L -122.507822,47.305557 L -122.519733,47.307955 L -122.533338,47.31662 L -122.541335,47.318932 L -122.547747,47.316403 L -122.536819,47.304428 L -122.528868,47.293113 L -122.529689,47.283311 L -122.533016,47.276377 L -122.552268,47.25428 L -122.552268,47.248311 L -122.56005051421914,47.24494651606542 L -122.563915,47.243471 L -122.564865,47.227171 L -122.567242,47.221844 L -122.580517,47.210416 L -122.583977,47.199578 L -122.582691,47.192457 L -122.592912,47.175819 L -122.613751,47.169555 L -122.616917,47.156913 L -122.626187,47.14188 L -122.636169,47.135574 L -122.645053,47.135088 L -122.658036,47.127166 L -122.669682,47.114551 L -122.676479,47.102096 L -122.684695,47.097039 L -122.69001,47.100887 L -122.699634,47.100914 L -122.70321,47.095745 L -122.713173,47.093479 L -122.72573,47.0939 L -122.727018,47.100509 L -122.735486,47.10507 L -122.753544,47.111824 L -122.755997,47.115721 L -122.765312,47.120302 L -122.777218,47.121288 L -122.778907,47.125804 L -122.78626,47.127074 L -122.789235,47.13703 L -122.787809,47.14285 L -122.791374,47.145113 L -122.793276,47.152549 L -122.804684,47.16467 L -122.8092,47.165155 L -122.815187,47.179102 L -122.821513,47.176573 L -122.827739,47.160953 L -122.827264,47.148993 L -122.828615,47.139473 L -122.827078,47.135682 L -122.829878,47.127813 L -122.828214,47.125549 L -122.832255,47.115036 L -122.836771,47.11908 L -122.846602,47.13596 L -122.842994,47.14064 L -122.844139,47.147699 L -122.838435,47.151256 L -122.841762,47.163215 L -122.847704,47.162569 L -122.8583586557127,47.167841844531154 L -122.863153,47.170487 L -122.858162,47.174203 L -122.851032,47.183896 L -122.845565,47.197625 L -122.842238,47.200209 L -122.839243,47.209698 L -122.84604,47.215548 L -122.847229,47.219746 L -122.852458,47.22249 L -122.856261,47.228139 L -122.856464,47.235199 L -122.864817,47.239275 L -122.863629,47.249279 L -122.868382,47.251376 L -122.863866,47.272023 L -122.870284,47.273152 L -122.868382,47.280247 L -122.859113,47.285407 L -122.855072,47.293629 L -122.847467,47.297014 L -122.854359,47.309586 L -122.842951,47.313131 L -122.837722,47.323282 L -122.83098,47.323511 L -122.834227,47.317308 L -122.831542,47.314259 L -122.823,47.320209 L -122.819781,47.327801 L -122.828452,47.331982 L -122.821559,47.346799 L -122.826788,47.357588 L -122.824748,47.369726 L -122.832896,47.37637 L -122.825746,47.386503 L -122.823335,47.396747 L -122.828074,47.402374 L -122.818596,47.404512 L -122.81261,47.391456 L -122.813857,47.383745 L -122.817016,47.377721 L -122.812277,47.36753 L -122.806707,47.363194 L -122.807342,47.358692 L -122.78917,47.361522 L -122.795303,47.3506 L -122.795342,47.346162 L -122.780099,47.341721 L -122.77858,47.33794 L -122.789048,47.338417 L -122.794931,47.31925 L -122.792563,47.310391 L -122.788496,47.305798 L -122.787059,47.299677 L -122.795587,47.288617 L -122.803371,47.283949 L -122.811403,47.276168 L -122.81528,47.275126 L -122.832799,47.243412 L -122.827739,47.238791 L -122.823936,47.231045 L -122.810626,47.225718 L -122.807299,47.222167 L -122.806469,47.210587 L -122.797513,47.199417 L -122.78971,47.187612 L -122.779015,47.18535 L -122.774974,47.172426 L -122.771619,47.167109 L -122.763803,47.166124 L -122.752157,47.172416 L -122.747403,47.180989 L -122.747166,47.189227 L -122.738493,47.19923 L -122.74978,47.19924 L -122.752395,47.208122 L -122.740986,47.206184 L -122.736945,47.210382 L -122.719833,47.220876 L -122.718882,47.226525 L -122.724824,47.235886 L -122.722209,47.2446 L -122.71698,47.247988 L -122.733856,47.250086 L -122.737896,47.25541 L -122.737896,47.261217 L -122.745977,47.26041 L -122.752632,47.272184 L -122.757386,47.2767 L -122.752344,47.280817 L -122.752044,47.290617 L -122.748111,47.296 L -122.742489,47.307981 L -122.733276,47.317841 L -122.728045,47.328817 L -122.730245,47.333317 L -122.719171,47.342099 L -122.711016,47.344336 L -122.706698,47.349667 L -122.694636,47.354116 L -122.683943,47.365155 L -122.668976,47.368518 L -122.665879,47.371272 L -122.650174,47.374575 L -122.636407,47.380768 L -122.62785,47.382378 L -122.626187,47.375618 L -122.636645,47.366282 L -122.638071,47.362579 L -122.659937,47.352597 L -122.671346,47.341324 L -122.661601,47.337136 L -122.658511,47.333109 L -122.675149,47.332948 L -122.679496,47.327833 L -122.678239,47.323282 L -122.690213,47.307437 L -122.684181,47.303139 L -122.691219,47.298076 L -122.697378,47.283969 L -122.695827,47.281376 L -122.680894,47.280089 L -122.678476,47.28589 L -122.671346,47.286213 L -122.659937,47.282343 L -122.630703,47.277183 L -122.619056,47.270733 L -122.614303,47.269604 L -122.60028,47.272023 L -122.600102,47.262418 L -122.585826,47.253852 L -122.578175,47.255894 L -122.565578,47.265411 L -122.550605,47.280086 L -122.547521,47.285344 L -122.555605,47.29701 L -122.566291,47.306524 L -122.573739,47.318419 L -122.575985,47.32642 L -122.57134,47.327219 L -122.567955,47.334398 L -122.55584,47.347519 L -122.548228,47.365799 L -122.543982,47.368066 L -122.538483,47.37594 L -122.546802,47.383343 L -122.552268,47.394607 L -122.550367,47.406673 L -122.547277,47.407799 L -122.531838,47.430307 L -122.535393,47.43562 L -122.533492,47.439157 L -122.535631,47.449284 L -122.529926,47.456034 L -122.532303,47.46921 L -122.523034,47.475315 L -122.518755,47.481259 L -122.518755,47.485756 L -122.504397,47.499688 L -122.504031,47.503807 L -122.495315,47.51102 L -122.503324,47.51804 L -122.51541,47.518569 L -122.521104,47.523318 L -122.52916,47.521877 L -122.54498,47.522897 L -122.547863,47.527798 L -122.539669,47.543844 L -122.543977,47.555621 L -122.538352,47.563058 L -122.532818,47.565522 L -122.552697,47.569863 L -122.54555,47.575624 L -122.550088,47.578626 L -122.548497,47.586716 L -122.554985,47.589969 L -122.569437,47.582783 L -122.576325,47.574623 L -122.589871,47.565844 L -122.595198,47.560772 L -122.6063,47.54688 L -122.62,47.547954 L -122.624762,47.543475 L -122.637943,47.542407 L -122.647531,47.536861 L -122.661052,47.539374 L -122.667292,47.531777 L -122.684056,47.527094 L -122.696387,47.526253 L -122.690062,47.531381 L -122.675788,47.538531 L -122.672285,47.546578 L -122.652355,47.555794 L -122.642439,47.556511 L -122.636374,47.559895 L -122.626369,47.560943 L -122.621305,47.571341 L -122.613857,47.567436 L -122.60749,47.569217 L -122.60256,47.574351 L -122.59171,47.594591 L -122.598149,47.602618 L -122.591101,47.635546 L -122.599312,47.636872 L -122.603755,47.643271 L -122.617834,47.649823 L -122.615005,47.653169 L -122.613227,47.663638 L -122.619246,47.692816 L -122.619762,47.704526 L -122.6312,47.7052 L -122.618658,47.712116 L -122.612713,47.711872 L -122.604065,47.704425 L -122.603126,47.696164 L -122.593114,47.694315 L -122.582379,47.697967 L -122.583365,47.702767 L -122.573591,47.710935 L -122.571082,47.71083 L -122.549653,47.730927 L -122.550605,47.742756 L -122.554454,47.745704 L -122.537318,47.74714 L -122.519325,47.74622 L -122.515193,47.743911 L -122.503312,47.743168 L -122.496884,47.744987 L -122.488491,47.743605 L -122.477344,47.746019 L -122.471844,47.749819 L -122.470333,47.757109 L -122.471402,47.765965 L -122.478086,47.76904 L -122.483061,47.77712 L -122.483549,47.781865 L -122.48918,47.783208 L -122.50188,47.790683 L -122.501643,47.794994 L -122.495346,47.79704 L -122.485214,47.804128 L -122.482437,47.809255 L -122.482529,47.815511 L -122.502224,47.826395 L -122.506122,47.831745 L -122.505865,47.848999 L -122.507863,47.855033 L -122.514457,47.865965 L -122.511815,47.877634 L -122.512575,47.881786 L -122.526124,47.89995 L -122.527593,47.905882 L -122.525329,47.912336 L -122.540107,47.913651 L -122.549072,47.919072 L -122.562662,47.920294 L -122.581846,47.920282 L -122.592184,47.922519 L -122.601507,47.931726 L -122.603861,47.940478 L -122.617022,47.938987 L -122.620316,47.931553 L -122.617868,47.92528 L -122.596228,47.92021 L -122.588235,47.912923 L -122.586339,47.902023 L -122.573098,47.874081 L -122.573672,47.857582 L -122.608105,47.856728 L -122.614585,47.850806 L -122.623192,47.836199 L -122.630703,47.835215 L -122.652423,47.822039 L -122.653758,47.816066 L -122.664866,47.813144 L -122.674911,47.804413 L -122.684085,47.798574 L -122.689575,47.779061 L -122.693143,47.776056 L -122.701769,47.774872 L -122.707462,47.769343 L -122.714786,47.767512 L -122.719712,47.760976 L -122.722686,47.748827 L -122.733012,47.737625 L -122.738386,47.733835 L -122.748339,47.717931 L -122.749067,47.708541 L -122.746453,47.701183 L -122.744992,47.682769 L -122.752471,47.667811 L -122.771523,47.660883 L -122.776325,47.661041 L -122.785458,47.655923 L -122.788292,47.656947 L -122.808052,47.650412 L -122.833402,47.637816 L -122.837871,47.639832 L -122.83273,47.64789 L -122.827264,47.653174 L -122.831148,47.655267 L -122.85531,47.64757 L -122.859588,47.638762 L -122.868382,47.633157 L -122.8748,47.633317 L -122.891648,47.62831 L -122.896191,47.625468 L -122.917103,47.620743 L -122.919667,47.617668 L -122.915918,47.609286 L -122.921623,47.602396 L -122.922811,47.597908 L -122.928753,47.596626 L -122.936596,47.590054 L -122.949193,47.586688 L -122.965118,47.585245 L -122.971298,47.571136 L -122.976527,47.566325 L -122.975338,47.559589 L -122.983895,47.558626 L -123.008376,47.532154 L -123.017645,47.527179 L -123.031614,47.511373 L -123.031193,47.502137 L -123.033807,47.494108 L -123.045454,47.480777 L -123.058937,47.470776 L -123.068509,47.458284 L -123.067083,47.45523 L -123.074926,47.451694 L -123.081355,47.445997 L -123.091567,47.433047 L -123.101544,47.417605 L -123.100944,47.415995 L -123.112153,47.397869 L -123.120234,47.39149 L -123.119681,47.385532 L -123.113501,47.382635 L -123.113349,47.374733 L -123.105848,47.372362 L -123.085645,47.374771 L -123.056886,47.368499 L -123.04215,47.358678 L -123.029553,47.358839 L -123.024324,47.361254 L -123.013153,47.378639 L -123.004597,47.382984 L -122.984869,47.388134 L -122.982968,47.392961 L -122.977495,47.39616 L -122.96538,47.396179 L -122.962527,47.399719 L -122.941136,47.403097 L -122.932104,47.408245 L -122.916655,47.413713 L -122.909356,47.413398 L -122.901681,47.416448 L -122.901206,47.421594 L -122.894551,47.421272 L -122.888371,47.424006 L -122.877438,47.422076 L -122.867693,47.422076 L -122.877913,47.410979 L -122.890748,47.407601 L -122.911426,47.389099 L -122.926875,47.38926 L -122.938759,47.383306 L -122.948742,47.383467 L -122.959438,47.379605 L -122.969895,47.378961 L -122.983919,47.374615 L -123.005785,47.364152 L -123.020284,47.354331 L -123.030266,47.350949 L -123.047141,47.3495 L -123.070434,47.349661 L -123.082419,47.35565 L -123.105603,47.356696 L -123.109868,47.342395 L -123.115858,47.342693 L -123.123099,47.337802 L -123.131382,47.341687 L -123.140404,47.341796 L -123.145864,47.346208 L -123.155167,47.350166 L -123.15958,47.354391 L -123.155411,47.361142 L -123.157851,47.371076 L -123.14749,47.375232 L -123.149629,47.379417 L -123.145394,47.387194 L -123.141463,47.403627 L -123.13135,47.417017 L -123.130311,47.421328 L -123.120562,47.434059 L -123.121073,47.439317 L -123.116707,47.441614 L -123.111282,47.458923 L -123.101305,47.463387 L -123.08807,47.476376 L -123.081397,47.481505 L -123.07571,47.482159 L -123.07571,47.48762 L -123.057409,47.500788 L -123.053213,47.507091 L -123.056221,47.509458 L -123.051467,47.519893 L -123.046476,47.523745 L -123.048615,47.529202 L -123.040058,47.538509 L -123.030851,47.539991 L -123.025298,47.548539 L -123.030076,47.552788 L -123.021995,47.556477 L -123.021519,47.560166 L -123.015815,47.564496 L -123.006308,47.576523 L -123.004169,47.583417 L -123.000604,47.5847 L -122.988157,47.598345 L -122.98254,47.602973 L -122.981589,47.613068 L -122.972557,47.614029 L -122.966378,47.618836 L -122.955444,47.624123 L -122.954494,47.627006 L -122.941659,47.631651 L -122.942134,47.635815 L -122.93643,47.637897 L -122.935004,47.644303 L -122.921787,47.649863 L -122.918366,47.646225 L -122.904106,47.645584 L -122.901371,47.653904 L -122.905532,47.658873 L -122.90363,47.664476 L -122.908859,47.664956 L -122.906245,47.671038 L -122.901016,47.673599 L -122.896975,47.67936 L -122.880813,47.686241 L -122.878199,47.690081 L -122.889607,47.705918 L -122.884378,47.713434 L -122.882714,47.731183 L -122.873683,47.730223 L -122.871306,47.743491 L -122.861561,47.744769 L -122.857045,47.736138 L -122.851137,47.738545 L -122.852529,47.745728 L -122.848489,47.751801 L -122.849819,47.760751 L -122.863462,47.768578 L -122.866315,47.777204 L -122.867978,47.798922 L -122.864651,47.804669 L -122.852767,47.80419 L -122.8473,47.800997 L -122.850628,47.796846 L -122.85348,47.780079 L -122.841808,47.779035 L -122.827644,47.784846 L -122.821868,47.789022 L -122.815027,47.807493 L -122.819254,47.811054 L -122.825196,47.821748 L -122.82068,47.827652 L -122.82068,47.838023 L -122.809747,47.840575 L -122.806453,47.832316 L -122.797625,47.825897 L -122.796674,47.810575 L -122.788118,47.80419 L -122.789782,47.790938 L -122.797262,47.773183 L -122.795724,47.770654 L -122.800002,47.758193 L -122.809673,47.747412 L -122.810745,47.743123 L -122.807608,47.737097 L -122.808083,47.732461 L -122.815027,47.725996 L -122.812361,47.719831 L -122.81355,47.715673 L -122.824958,47.710876 L -122.827596,47.705232 L -122.829899,47.689115 L -122.81366,47.682538 L -122.801153,47.685377 L -122.784885,47.687334 L -122.772225,47.691708 L -122.772263,47.694892 L -122.783127,47.703678 L -122.780988,47.713914 L -122.783535,47.722393 L -122.776553,47.734629 L -122.765181,47.744634 L -122.759063,47.746145 L -122.7564,47.751256 L -122.757885,47.757744 L -122.750888,47.767779 L -122.751654,47.772425 L -122.747879,47.775372 L -122.749465,47.788891 L -122.743944,47.793935 L -122.748815,47.801697 L -122.742985,47.809892 L -122.731558,47.809759 L -122.713249,47.814087 L -122.701365,47.825578 L -122.693759,47.826375 L -122.687342,47.831003 L -122.681162,47.843766 L -122.681602,47.850405 L -122.685203,47.852539 L -122.69376,47.868002 L -122.665713,47.866572 L -122.650083,47.86386 L -122.638142,47.865456 L -122.633879,47.868401 L -122.628635,47.879486 L -122.619603,47.877573 L -122.617749,47.88303 L -122.610341,47.887343 L -122.618873,47.890242 L -122.637425,47.889945 L -122.647772,47.895974 L -122.647496,47.89914 L -122.655085,47.905058 L -122.65399,47.91589 L -122.651063,47.920985 L -122.655995,47.924435 L -122.657722,47.931156 L -122.66238,47.9307 L -122.672892,47.918836 L -122.682588,47.915022 L -122.689235,47.917737 L -122.690129,47.922631 L -122.682032,47.921399 L -122.680442,47.931551 L -122.684688,47.944049 L -122.676215,47.958743 L -122.6788,47.96793 L -122.683223,47.972226 L -122.700688,47.973383 L -122.718082,47.987739 L -122.718746,47.998104 L -122.728022,48.014308 L -122.730967,48.021308 L -122.721944,48.026253 L -122.713673,48.025289 L -122.708973,48.019757 L -122.696629,48.015062 L -122.690426,48.0089 L -122.686603,48.0089 L -122.670562,48.017619 L -122.672505,48.020302 L -122.669058,48.031659 L -122.677479,48.03623 L -122.682658,48.042826 L -122.684601,48.049175 L -122.683491,48.055687 L -122.686543,48.067247 L -122.68568,48.073036 L -122.691137,48.081894 L -122.692956,48.092109 L -122.68756,48.101272 L -122.696748,48.103167 L -122.718241,48.097424 L -122.733257,48.091232 L -122.738863,48.08103 L -122.748345,48.072097 L -122.739271,48.069153 L -122.740007,48.054116 L -122.74229,48.049324 L -122.737017,48.043418 L -122.734268,48.03495 L -122.739869,48.031181 L -122.748532,48.030138 L -122.753859,48.035981 L -122.765063,48.040558 L -122.770496,48.047897 L -122.770559,48.053432 L -122.765301,48.057559 L -122.774218,48.06033 L -122.784416621181,48.0686726901183 L -122.788074,48.078133 L -122.801399,48.087561 L -122.794179,48.096737 L -122.781205,48.105277 L -122.77187,48.108144 L -122.748911,48.117026 L -122.760716,48.127805 L -122.762676,48.142755 L -122.784192,48.142849 L -122.811439,48.137277 L -122.833173,48.134406 L -122.837946,48.136479 L -122.848176,48.126916 L -122.864813,48.116448 L -122.881731,48.108315 L -122.884935,48.105114 L -122.880094,48.099107 L -122.8787,48.091741 L -122.880615,48.087071 L -122.890075,48.078179 L -122.874446,48.074848 L -122.857727,48.065774 L -122.856792,48.06104 L -122.84989,48.054315 L -122.829159,48.048358 L -122.826878,48.046138 L -122.827075,48.036068 L -122.830166,48.021921 L -122.834035,48.014388 L -122.833473,48.009574 L -122.839457,48.001768 L -122.849167,47.996388 L -122.869809,47.992939 L -122.87668,47.99361 L -122.884588,47.989746 L -122.886714,47.994863 L -122.867549,48.002943 L -122.86201,48.008613 L -122.860651,48.015529 L -122.864202,48.029398 L -122.868024,48.037801 L -122.871115,48.038186 L -122.875236,48.046352 L -122.891762,48.049526 L -122.902405,48.053816 L -122.919408,48.057927 L -122.928625,48.067587 L -122.92475,48.080563 L -122.916303,48.09542 L -122.939161,48.096337 L -122.946119,48.098552 L -122.979413,48.09594 L -123.004128,48.090516 L -123.013765,48.085856 L -123.021548,48.084075 L -123.021585,48.078666 L -123.00705,48.069836 L -123.004124,48.063713 L -123.01042,48.054373 L -123.000429,48.040635 L -122.996116,48.027532 L -122.999818,48.022704 L -123.00707,48.023187 L -123.020631,48.032712 L -123.02019,48.036264 L -123.02694,48.040722 L -123.038287,48.053477 L -123.046755,48.057647 L -123.040864,48.062273 L -123.046246,48.072018 L -123.04603,48.082812 L -123.040578,48.084306 L -123.046913,48.097751 L -123.058922,48.113976 L -123.06621,48.120469 L -123.085154,48.127137 L -123.106506,48.141891 L -123.111764,48.148377 L -123.124816,48.153472 L -123.131422,48.152736 L -123.142142,48.157068 L -123.139258,48.16648 L -123.132417,48.174704 L -123.124791,48.175616 L -123.100786,48.182431 L -123.101892,48.184952 L -123.134794,48.175995 L -123.144783,48.175943 L -123.1644,48.165894 L -123.191521,48.143821 L -123.21719,48.127203 L -123.239129,48.118217 L -123.248615,48.115745 L -123.254396,48.117218 L -123.268917,48.116094 L -123.280178,48.117309 L -123.288265,48.121036 L -123.314578,48.113725 L -123.338904,48.113606 L -123.344645,48.117573 L -123.353808,48.117801 L -123.374352,48.114084 L -123.395048,48.114243 L -123.40538,48.117084 L -123.411603,48.116379 L -123.424668,48.118065 L -123.441972,48.124259 L -123.451363,48.125982 L -123.460157,48.12979 L -123.462059,48.134708 L -123.446372,48.136135 L -123.436865,48.139466 L -123.401526,48.137753 L -123.403352,48.141369 L -123.425586,48.142221 L -123.440128,48.142014 L -123.455732,48.139357 L -123.473379,48.134079 L -123.488635,48.132441 L -123.507235,48.131807 L -123.52232,48.135539 L -123.534879,48.14578 L -123.551131,48.151382 L -123.568539,48.147713 L -123.569674,48.143997 L -123.583547,48.136426 L -123.590839,48.134949 L -123.612985,48.13899 L -123.620116,48.13788 L -123.636301,48.142444 L -123.641497,48.147227 L -123.636967,48.150319 L -123.642695,48.154056 L -123.672445,48.162715 L -123.685475,48.163849 L -123.709459,48.167581 L -123.706226,48.1634 L -123.71835,48.158713 L -123.725352,48.159191 L -123.72997,48.1651 L -123.73893,48.160261 L -123.747574,48.161584 L -123.778122,48.155466 L -123.815444,48.155443 L -123.826707,48.161125 L -123.831571,48.157937 L -123.840238,48.155912 L -123.858821,48.154273 L -123.866677,48.154796 L -123.872104,48.158783 L -123.88654,48.161011 L -123.893933,48.159555 L -123.90181,48.160479 L -123.915589,48.159352 L -123.934921,48.16084 L -123.946136,48.166447 L -123.973566,48.164346 L -123.981032,48.164761 L -123.997356,48.16869 L -123.998535,48.17209 L -124.013118,48.170739 L -124.050734,48.177747 L -124.075228,48.19073 L -124.092146,48.196691 L -124.107747,48.200097 L -124.109993,48.203142 L -124.104534,48.20905 L -124.105967,48.212482 L -124.101773,48.216883 L -124.11764,48.220805 L -124.130691,48.220645 L -124.14129,48.227413 L -124.175714,48.239101 L -124.192692,48.246316 L -124.217873,48.253294 L -124.222848,48.256764 L -124.231912,48.258386 L -124.238582,48.262471 L -124.250882,48.264773 L -124.257011,48.257444 L -124.264849,48.254568 L -124.278892,48.254959 L -124.281821,48.257687 L -124.295886,48.25865 L -124.300205,48.261803 L -124.299146,48.268239 L -124.339043,48.27597 L -124.35075,48.283965 L -124.361351,48.287582 L -124.370691,48.285286 L -124.380874,48.284699 L -124.395593,48.288772 L -124.414007,48.300887 L -124.42787,48.306069 L -124.435833,48.306683 L -124.444151,48.312216 L -124.446291,48.315852 L -124.457209,48.319034 L -124.485809,48.332464 L -124.49036,48.332278 L -124.495064,48.336914 L -124.500881,48.338051 L -124.510582,48.343236 L -124.525453,48.349022 L -124.538821,48.349893 L -124.546259,48.353594 L -124.564841,48.367921 L -124.572864,48.366228 L -124.57682,48.369974 L -124.590733,48.373604 L -124.61029,48.366723 L -124.621698,48.367828 L -124.629066,48.372249 L -124.639389,48.385524 L -124.635721,48.388193 L -124.659414,48.390887 L -124.668761,48.388461 L -124.676262,48.391371 L -124.691418,48.390159 L -124.706462,48.386084 L -124.716947,48.389776 L -124.725839,48.386012 L -124.731828,48.381157 L -124.727022,48.371101 L -124.713817,48.366309 L -124.706607,48.359333 L -124.707477,48.35458 L -124.696703,48.349748 L -124.695994,48.344327 L -124.687682,48.338773 L -124.676365,48.342715 L -124.670072,48.341341 L -124.65894,48.331057 L -124.659855,48.325027 L -124.664005,48.320277 L -124.662068,48.31045 L -124.665908,48.299324 L -124.676319,48.295143 L -124.680889,48.297647 L -124.686347,48.287392 L -124.680794,48.277233 L -124.680877,48.26535 L -124.684677,48.255228 L -124.691458,48.250309 L -124.699745,48.247245 L -124.699842,48.24391 L -124.70592,48.239894 L -124.699091,48.232027 L -124.698899,48.228026 L -124.692444,48.22392 L -124.6909,48.212617 L -124.696111,48.198599 L -124.704153,48.184422 L -124.714479,48.181113 L -124.724843,48.172448 L -124.731746,48.169997 L -124.731703,48.160402 L -124.721725,48.153185 L -124.71677,48.142638 L -124.707317,48.131561 L -124.708799,48.127139 L -124.698499,48.119785 L -124.691806,48.108212 L -124.691273,48.100254 L -124.687101,48.098657 L -124.688602,48.092466 L -124.695114,48.087096 L -124.696542,48.069274 L -124.692246,48.064143 L -124.693676,48.058697 L -124.688359,48.054927 L -124.685393,48.049238 L -124.682157,48.035987 L -124.682344,48.020832 L -124.67744,48.009255 L -124.679692,48.000655 L -124.677982,47.992325 L -124.673512,47.989362 L -124.67083,47.982366 L -124.674595,47.973147 L -124.671373,47.969156 L -124.672427,47.964414 L -124.663767,47.963427 L -124.661628,47.946554 L -124.651966,47.943177 L -124.645442,47.935338 L -124.638808,47.919165 L -124.641426,47.907853 L -124.633107,47.90387 L -124.629706,47.896968 L -124.630153,47.892467 L -124.625512,47.887963 L -124.609538,47.879996 L -124.608675,47.875238 L -124.603215,47.871346 L -124.59661,47.878614 L -124.588172,47.877878 L -124.579886,47.874563 L -124.573367,47.866667 L -124.566146,47.867625 L -124.559034,47.863085 L -124.558,47.853655 L -124.552771,47.851741 L -124.550052,47.845408 L -124.539559,47.841905 L -124.541015,47.834121 L -124.522586,47.83212 L -124.519391,47.826846 L -124.51278,47.822518 L -124.50668,47.82391 L -124.497987,47.822605 L -124.489737,47.816988 L -124.484557,47.80834 L -124.481445,47.78867 L -124.479031,47.782642 L -124.46856,47.768254 L -124.462249,47.764681 L -124.456748,47.766181 L -124.451281,47.763175 L -124.447382,47.755454 L -124.430546,47.746249 L -124.425195,47.738434 L -124.420219,47.725294 L -124.412106,47.691199 L -124.395983,47.665534 L -124.382215,47.632302 L -124.374927,47.603891 L -124.371746,47.599575 L -124.366221,47.582439 L -124.353161,47.526714 L -124.345155,47.48903 L -124.339715,47.453525 L -124.339504,47.437718 L -124.337552,47.432983 L -124.33636,47.405081 L -124.330162,47.40014 L -124.324317,47.378696 L -124.324091,47.367602 L -124.319379,47.355559 L -124.307509,47.352268 L -124.299943,47.34836 L -124.293288,47.339309 L -124.278097,47.306377 L -124.257452,47.304059 L -124.242991,47.293958 L -124.236349,47.287287 L -124.209017,47.218151 L -124.195893,47.174 L -124.189725,47.146827 L -124.184011,47.135348 L -124.185082,47.130643 L -124.176745,47.092999 L -124.173501,47.06637 L -124.169113,46.994508 L -124.171161,46.958443 L -124.174503,46.941623 L -124.173877,46.927235 L -124.158624,46.929439 L -124.152162,46.932045 L -124.151876,46.936955 L -124.135541,46.943547 L -124.127141,46.941904 L -124.10997,46.935846 L -124.106243,46.937551 L -124.106032,46.944621 L -124.112491,46.947559 L -124.119362,46.944378 L -124.127443,46.945514 L -124.132632,46.961428 L -124.138035,46.970959 L -124.139733,46.98837 L -124.137444,46.999151 L -124.146669,47.009876 L -124.151288,47.021112 L -124.149043,47.029294 L -124.141517,47.035142 L -124.122057,47.04165 L -124.106378,47.04264 L -124.065856,47.04114 L -124.060806,47.043398 L -124.050394,47.038925 L -124.044079,47.034159 L -124.026345,47.030187 L -124.016999,47.014848 L -124.018146,47.009436 L -124.010589,47.007844 L -124.005248,47.003915 L -124.010068,46.997882 L -124.017999,46.993554 L -124.018601,46.989311 L -124.012218,46.985176 L -123.991612,46.980215 L -123.983353,46.98162 L -123.959185,46.981759 L -123.946882,46.968739 L -123.921617,46.971864 L -123.898245,46.971927 L -123.889402,46.968904 L -123.87574,46.969848 L -123.859103,46.967577 L -123.844604,46.960927 L -123.8389,46.953951 L -123.850546,46.952004 L -123.870212,46.943166 L -123.882884,46.939946 L -123.937062,46.928636 L -123.957493,46.921261 L -123.985082,46.921916 L -123.995935,46.91442 L -124.00839,46.912601 L -124.01366,46.90363 L -124.03624,46.898473 L -124.049279,46.891253 L -124.055085,46.870429 L -124.061051,46.865127 L -124.073113,46.861493 L -124.089286,46.867716 L -124.089672,46.877149 L -124.095087,46.882699 L -124.090422,46.8955 L -124.092961,46.901655 L -124.099493,46.90422 L -124.110641,46.91252 L -124.115797,46.913214 L -124.122,46.905675 L -124.134367,46.903828 L -124.132803,46.896387 L -124.126097,46.881072 L -124.108078,46.836388 L -124.101232,46.810656 L -124.09834334700479,46.794068807950076 L -124.096655,46.784374 L -124.095041,46.756812 L -124.096515,46.746202 L -124.092176,46.741624 L -124.080983,46.735003 L -124.063117,46.733664 L -124.056139,46.729107 L -124.037814,46.722337 L -124.029127,46.717735 L -124.017084,46.719269 L -124.006554,46.7139 L -124.005764,46.710335 L -123.998854,46.705958 L -123.987521,46.707507 L -123.973663,46.703353 L -123.966886,46.705184 L -123.975157,46.713971 L -123.979655,46.724658 L -123.974994,46.733391 L -123.968564,46.736106 L -123.948683,46.725369 L -123.929073,46.725278 L -123.91351,46.72668 L -123.91285,46.730647 L -123.918806,46.738829 L -123.910716,46.746715 L -123.898641,46.750205 L -123.88876,46.750383 L -123.887139,46.745643 L -123.87668,46.730657 L -123.870782,46.728327 L -123.854855,46.725354 L -123.847089,46.718561 L -123.83347,46.718322 L -123.829356,46.713356 L -123.829124,46.704772 L -123.839613,46.701513 L -123.851356,46.70256 L -123.864902,46.698685 L -123.904239,46.679081 L -123.915596,46.678649 L -123.923269,46.672708 L -123.920662,46.668142 L -123.921913,46.650262 L -123.933165,46.645989 L -123.940616,46.640862 L -123.936349,46.633064 L -123.936111,46.627025 L -123.944192,46.627025 L -123.950847,46.631758 L -123.952749,46.636328 L -123.960642,46.636364 L -123.958914,46.62793 L -123.959175,46.613581 L -123.953699,46.605148 L -123.939139,46.596326 L -123.928861,46.588875 L -123.922332,46.577057 L -123.922566,46.570177 L -123.908125,46.553306 L -123.896181,46.550254 L -123.895705,46.542571 L -123.893292,46.53961 L -123.898131,46.53488 L -123.895539,46.514072 L -123.907398,46.507663 L -123.912222,46.514165 L -123.918118,46.511444 L -123.923048,46.501446 L -123.931978,46.493226 L -123.942578,46.487832 L -123.943667,46.477197 L -123.939439,46.467155 L -123.942528,46.46519 L -123.956789,46.469119 L -123.97083,46.47537 L -123.972001,46.486142 L -123.979213,46.489949 L -123.979053,46.497378 L -123.988386,46.497008 L -123.99268,46.488617 L -123.994181,46.468868 L -123.99087,46.465738 L -123.991728,46.448817 L -123.988401,46.44505 L -123.970099,46.439154 L -123.965346,46.433257 L -123.970099,46.424411 L -123.965346,46.40868 L -123.949896,46.410319 L -123.952036,46.402616 L -123.95156,46.390158 L -123.953699,46.378845 L -123.96392,46.376714 L -123.976517,46.379665 L -123.984835,46.378681 L -123.995056,46.373926 L -124.007177,46.371466 L -124.015258,46.378681 L -124.01716,46.416382 L -124.026032,46.462978 L -124.031737,46.496375 L -124.027484,46.509771 L -124.023681,46.512113 L -124.026019,46.531589 L -124.023148,46.564113 L -124.023566,46.582559 L -124.03229,46.595218 L -124.038329,46.598599 L -124.040862,46.606242 L -124.052367,46.620025 L -124.051348,46.623835 L -124.034081,46.631151 L -124.035307,46.635951 L -124.046498,46.638314 L -124.050903,46.645499 L -124.057837,46.645256 L -124.064341,46.641256 L -124.069583,46.630651 L -124.06842,46.601397 L -124.061953,46.556165 L -124.057024,46.493338 L -124.057425,46.409315 L -124.058351,46.386503 L -124.064624,46.326899 L -124.071384,46.305504 L -124.079907,46.299589 L -124.076262,46.296498 L -124.078006,46.275938 L -124.075154,46.271502 L -124.060961,46.278761 L -124.052348,46.275502 L -124.04203,46.276052 L -124.043119,46.289113 L -124.05164,46.291504 L -124.044273,46.299959 L -124.032933,46.303323 L -124.029924,46.308312 L -124.020551,46.315737 L -124.001264,46.31326 L -123.985204,46.309039 L -123.970355,46.299352 L -123.969427,46.291398 L -123.958928,46.285958 L -123.957502,46.281031 L -123.948708,46.271174 L -123.926247,46.257537 L -123.923092,46.251781 L -123.909306,46.245491 L -123.875525,46.239787 L -123.870987,46.241593 L -123.865822,46.248952 L -123.85953,46.249374 L -123.850784,46.256714 L -123.848955,46.260511 L -123.8389,46.262137 L -123.833777,46.268487 L -123.818763,46.269696 L -123.811738,46.280355 L -123.806139,46.283588 L -123.795556,46.284501 L -123.782654,46.280227 L -123.775054,46.274599 L -123.766682,46.273499 L -123.75956,46.275073 L -123.759557,46.279186 L -123.753573,46.281195 L -123.750245,46.292035 L -123.728585,46.288725 L -123.724038,46.295058 L -123.724273,46.301161 L -123.700729,46.304603 L -123.680574,46.296025 L -123.678069,46.286469 L -123.68008,46.277943 L -123.679125,46.272502 L -123.669501,46.266832 L -123.651371,46.265423 L -123.635619,46.265222 L -123.624883,46.261537 L -123.613544,46.259988 L -123.603197,46.261638 L -123.581642,46.260502 L -123.576502,46.262137 L -123.56438,46.261315 L -123.559923,46.265098 L -123.547636,46.265595 L -123.543929,46.259565 L -123.516429,46.266088 L -123.501245,46.27099 L -123.479644,46.269131 L -123.468743,46.264531 L -123.447592,46.249832 L -123.427629,46.229348 L -123.430987,46.181571 L -123.390404,46.154428 L -123.379524,46.150993 L -123.371433,46.146372 L -123.346438,46.145061 L -123.339436,46.146232 L -123.301034,46.144632 L -123.280166,46.144843 L -123.251233,46.156562 L -123.242026,46.160968 L -123.22293,46.167444 L -123.213054,46.172541 L -123.166416,46.188979 L -123.115904,46.185268 L -123.105021,46.177676 L -123.05189747332075,46.15397094284731 L -123.043418,46.147556 L -123.022921,46.139415 L -123.004233,46.133823 L -122.964512,46.105855 L -122.961755,46.104477 L -122.904119,46.083734 L -122.884478,46.06028 L -122.878091,46.03128 L -122.856158,46.014469 L -122.837638,45.980821 L -122.813999,45.960983 L -122.806187,45.932416 L -122.8115,45.912724 L -122.798091,45.884333 L -122.785026,45.867699 L -122.785696,45.844216 L -122.795963,45.825024 L -122.795605,45.81 L -122.769532,45.780583 L -122.761451,45.759163 L -122.760108,45.734413 L -122.772511,45.699637 L -122.774511,45.680437 L -122.76381,45.657138 L -122.76241561177628,45.65642996867396 L -122.738109,45.644138 L -122.713309,45.637438 L -122.691185,45.62484 L -122.675099,45.618066 L -122.643907,45.609739 L -122.607706,45.608139 L -122.582326,45.6041 L -122.54584782536608,45.59618017777283 L -122.523668,45.589632 L -122.492259,45.58328 L -122.47577,45.578681 L -122.453891,45.567312 L -122.438674,45.563585 L -122.410706,45.567633 L -122.391802,45.574541 L -122.380302,45.575941 L -122.352802,45.569441 L -122.331502,45.548241 L -122.296601,45.543641 L -122.266701,45.543841 L -122.248993,45.547745 L -122.200791,45.565111 L -122.182864,45.576781 L -122.141613,45.584003 L -122.112317,45.581337 L -122.099952,45.583995 L -122.044299,45.609535 L -122.021054,45.61478 L -122.003554,45.615947 L -121.983007,45.622888 L -121.96308,45.632891 L -121.955775,45.643586 L -121.951691,45.644836 L -121.934987,45.644231 L -121.908134,45.654558 L -121.900767,45.662016 L -121.901745,45.670669 L -121.867021,45.693391 L -121.811197,45.706708 L -121.735073,45.694002 L -121.707295,45.694836 L -121.668406,45.705114 L -121.631323,45.704697 L -121.532934,45.726504 L -121.523681,45.72493 L -121.499098,45.720747 L -121.462795,45.701282 L -121.44122898618681,45.697279017290306 L -121.423962,45.694074 L -121.40174,45.692893 L -121.372573,45.703033 L -121.337712,45.704839 L -121.312296,45.699839 L -121.287296,45.686867 L -121.248962,45.677756 L -121.215768,45.671228 L -121.200351,45.649839 L -121.195184,45.629561 L -121.196459,45.61661 L -121.183684,45.60645 L -121.167852,45.606098 L -121.145583,45.607945 L -121.139386,45.612045 L -121.131833,45.609753 L -121.117177,45.618201 L -121.12011,45.623165 L -121.084863,45.647932 L -121.06446,45.652491 L -121.033823,45.650963 L -121.00737,45.653197 L -120.983494,45.648358 L -120.953115,45.656742 L -120.944018,45.656392 L -120.913608,45.639992 L -120.895822,45.642923 L -120.855415,45.671729 L -120.788574,45.686424 L -120.728626,45.705319 L -120.689535,45.715727 L -120.66928,45.729883 L -120.635051,45.745711 L -120.591144,45.746509 L -120.559287,45.738315 L -120.522735,45.710287 L -120.505743,45.699949 L -120.482615,45.694407 L -120.403651,45.699444 L -120.326332,45.71142 L -120.283431,45.721165 L -120.210774,45.725915 L -120.170603,45.76198 L -120.14148,45.773208 L -120.070236,45.785156 L -120.014837,45.80712 L -119.965772,45.824376 L -119.907245,45.828176 L -119.849343,45.84018 L -119.802705,45.84763 L -119.772854,45.845727 L -119.669974,45.856908 L -119.623628,45.905602 L -119.600543,45.919549 L -119.571602,45.925478 L -119.524519,45.908567 L -119.488083,45.906361 L -119.450398,45.917381 L -119.364498,45.921547 L -119.332438,45.930789 L -119.322574,45.933072 L -119.286062,45.93742 L -119.257072,45.939867 L -119.225631,45.932797 L -119.19552,45.9279 L -119.169191,45.927703 L -119.126322,45.932784 L -119.093294,45.942723 L -119.061497,45.958542 L -119.027215,45.969112 L -119.008651,45.979223 L -118.987258,45.999855 L -118.976064,46.000418 L -118.817896,46.000805 L -118.775825,46.001104 L -118.590617,46.000943 L -118.414667,46.000756 L -118.308875,46.000582 L -118.170752,46.000549 L -118.006598,46.000576 L -117.90171,46.000204 L -117.730061,45.999814 L -117.682138,45.999788 L -117.614328,45.999218 L -117.58879,45.998593 L -117.51986,45.99833 L -117.479935,45.997801 L -117.444995,45.998395 L -117.385431,45.998192 L -117.354005,45.996563 L -117.337909,45.998575 L -117.273265,45.998282 L -117.259921,45.998482 L -117.134025,45.997934 L -117.061459,45.997207 L -116.988074,45.996807 L -116.933416,45.996071 L -116.917487,45.995442 L -116.919275,45.999799 L -116.921719,46.015942 L -116.929944,46.023648 L -116.929589,46.034176 L -116.931633,46.039628 L -116.94028,46.046687 L -116.943451,46.055157 L -116.942793,46.061115 L -116.949286,46.068406 L -116.957866,46.075457 L -116.97104,46.077034 L -116.979353,46.080487 L -116.982465,46.091935 L -116.974041,46.097658 L -116.959694,46.099013 L -116.955424,46.101861 L -116.951335,46.110887 L -116.950365,46.12337 L -116.935321,46.136411 L -116.93461,46.154151 L -116.924371,46.159618 L -116.92135,46.164514 L -116.922341,46.168774 L -116.927475,46.173294 L -116.932734,46.173243 L -116.94963,46.191676 L -116.960857,46.198336 L -116.965384,46.203122 L -116.966306,46.209195 L -116.956655,46.225026 L -116.955381,46.230314 L -116.957742,46.239197 L -116.964467,46.253762 L -116.974809,46.265499 L -116.990825,46.276203 L -116.990867,46.280855 L -116.985583,46.288497 L -116.984804,46.293088 L -116.988766,46.298808 L -116.99555,46.302272 L -117.006387,46.304789 L -117.020581,46.314789 L -117.023073,46.319858 L -117.022925,46.334627 L -117.033484,46.341237 L -117.049505,46.34301 L -117.060297,46.348381 L -117.062788,46.353605 L -117.062778,46.365175 L -117.060075,46.369213 L -117.048229,46.377676 L -117.042145,46.39126 L -117.03857,46.405482 L -117.03535724435983,46.41071697500094 L -117.034626,46.417845 L -117.039571,46.425379 L -117.039836,46.47999 L -117.039649,46.57204 L -117.039691,46.638087 L -117.039939,46.749285 L -117.039658,46.773571 L -117.039784,46.860895 L -117.039455,46.913636 L -117.039973,47.034118 L -117.039724,47.04749 L -117.039752,47.127269 L -117.039683,47.259269 L -117.039938,47.28869 L -117.039775,47.347214 L -117.039799,47.45434 L -117.04019,47.521301 L -117.041092,47.585279 L -117.04085,47.614367 L -117.041787,47.700986 L -117.04214,47.7582 L -117.042301,47.890685 L -117.042054,47.921522 L -117.042308,47.962656 L -117.041794,48.064997 L -117.041107,48.124904 L -117.038369,48.218153 L -117.03531,48.366616 L -117.035425,48.499914 L -117.0345,48.620844 L -117.0337072238018,48.655425538615845 L -117.033276,48.705136 L -117.033335,48.74992 L -117.032107,48.874926 Z M -123.06030550205283,49.00207359774872 L -123.090546,49.001976 L -123.083559,48.98224 L -123.084006,48.971455 L -123.071997,48.973878 L -123.040967,48.977305 L -123.026518,48.97414 L -123.021991,48.976473 L -123.024612,48.984018 L -123.03536242823922,49.002081976342545 L -123.06030550205283,49.00207359774872 Z M -122.33164,48.020556 L -122.334524,48.018916 L -122.326115,48.010295 L -122.306629,48.004397 L -122.309711,48.012797 L -122.320286,48.016932 L -122.322362,48.021037 L -122.33164,48.020556 Z M -122.538193,48.362907 L -122.527478,48.359724 L -122.530215,48.365745 L -122.538193,48.362907 Z M -122.578905,48.395765 L -122.574695,48.395223 L -122.560603,48.398606 L -122.560128,48.402709 L -122.575339,48.400973 L -122.578905,48.395765 Z M -122.593346,48.651424 L -122.577637,48.647617 L -122.583824,48.659988 L -122.593346,48.651424 Z M -122.614477,48.613147 L -122.611545,48.608495 L -122.60276,48.605293 L -122.59848,48.607674 L -122.601722,48.614027 L -122.610777,48.615735 L -122.614477,48.613147 Z M -122.650446,48.712299 L -122.630243,48.696927 L -122.6224,48.693946 L -122.615983,48.693946 L -122.605906,48.699732 L -122.611229,48.714024 L -122.624064,48.706966 L -122.631907,48.710574 L -122.641177,48.708848 L -122.650446,48.712299 Z M -122.653612,48.548975 L -122.654342,48.537956 L -122.649256,48.528769 L -122.640414,48.52586 L -122.619858,48.529246 L -122.599948,48.536904 L -122.575891,48.529304 L -122.577231,48.534167 L -122.574389,48.538545 L -122.578856,48.54813 L -122.583985,48.551534 L -122.597144,48.554368 L -122.601933,48.558029 L -122.610841,48.561146 L -122.629321,48.5722 L -122.635663,48.578666 L -122.637136,48.584319 L -122.642597,48.588339 L -122.649405,48.588457 L -122.652385,48.583432 L -122.651612,48.569212 L -122.645217,48.560887 L -122.653612,48.548975 Z M -122.699266,48.621115 L -122.676796,48.610055 L -122.666149,48.608088 L -122.657016,48.609891 L -122.662399,48.614341 L -122.662912,48.620379 L -122.671517,48.624827 L -122.674173,48.629944 L -122.685385,48.627696 L -122.69806,48.62308 L -122.699266,48.621115 Z M -122.712805,48.467295 L -122.710071,48.461621 L -122.699634,48.45777 L -122.694892,48.464684 L -122.699646,48.469727 L -122.712805,48.467295 Z M -122.713743,48.478368 L -122.704162,48.473824 L -122.687995,48.475025 L -122.689663,48.487531 L -122.695368,48.484695 L -122.709153,48.484065 L -122.713743,48.478368 Z M -122.722262,48.731624 L -122.721981,48.723375 L -122.718833,48.716818 L -122.702223,48.717004 L -122.699943,48.713668 L -122.691795,48.711498 L -122.687069,48.704874 L -122.685147,48.698025 L -122.678694,48.690854 L -122.673538,48.680809 L -122.657705,48.670478 L -122.654548,48.666428 L -122.635299,48.651846 L -122.62134,48.64908 L -122.608572,48.640448 L -122.610055,48.650475 L -122.618225,48.670721 L -122.627127,48.678965 L -122.644901,48.691389 L -122.665182,48.697398 L -122.668034,48.708691 L -122.681107,48.716376 L -122.680243,48.719479 L -122.683959,48.726882 L -122.690235,48.73083 L -122.70306,48.743602 L -122.710817,48.747573 L -122.715431,48.746616 L -122.722262,48.731624 Z M -122.740482,48.584986 L -122.737834,48.581606 L -122.73944,48.573893 L -122.73048,48.565602 L -122.722701,48.564505 L -122.721275,48.558999 L -122.724031,48.549906 L -122.722407,48.540606 L -122.706063,48.540905 L -122.698695,48.543423 L -122.682295,48.545311 L -122.682048,48.552206 L -122.696074,48.554344 L -122.687003,48.558012 L -122.677419,48.564166 L -122.66823,48.566434 L -122.677898,48.5767 L -122.687012,48.579874 L -122.696556,48.588093 L -122.691405,48.590261 L -122.693466,48.595639 L -122.711054,48.609313 L -122.72493,48.603263 L -122.724676,48.596982 L -122.729644,48.595698 L -122.729324,48.589715 L -122.740482,48.584986 Z M -122.766567,48.707801 L -122.764344,48.695658 L -122.76147,48.696511 L -122.766567,48.707801 Z M -122.769939,48.227548 L -122.770045,48.224395 L -122.763042,48.215342 L -122.744612,48.20965 L -122.73503,48.199964 L -122.711508,48.193573 L -122.700927,48.185304 L -122.693084,48.181509 L -122.686626,48.174653 L -122.683073,48.161649 L -122.676741,48.154049 L -122.665312,48.16007 L -122.646081,48.164037 L -122.624299,48.161794 L -122.612713,48.155903 L -122.605155,48.144178 L -122.602109,48.135249 L -122.598301,48.110616 L -122.604705,48.09665 L -122.607291,48.088034 L -122.613217,48.079485 L -122.614028,48.072788 L -122.606045,48.067192 L -122.605735,48.064221 L -122.594922,48.056318 L -122.593621,48.0472 L -122.596786,48.038834 L -122.607342,48.030992 L -122.596663,48.025762 L -122.593678,48.019978 L -122.588084,48.016966 L -122.58178,48.010386 L -122.560018,48.006502 L -122.547588,48.000277 L -122.541564,47.992998 L -122.543063,47.985983 L -122.551032,47.977346 L -122.551849,47.972364 L -122.546824,47.967215 L -122.521219,47.972997 L -122.514813,47.981152 L -122.501257,47.987089 L -122.487528,47.989736 L -122.478826,47.98981 L -122.469247,47.98681 L -122.468824,47.982978 L -122.446682,47.963155 L -122.44076,47.951845 L -122.441201,47.943045 L -122.445759,47.93619 L -122.445519,47.930226 L -122.430695,47.917657 L -122.431035,47.914732 L -122.419274,47.912125 L -122.412447,47.913028 L -122.40332,47.922189 L -122.393142,47.91985 L -122.397349,47.912401 L -122.39042,47.905696 L -122.380497,47.904023 L -122.37578,47.910252 L -122.376837,47.923703 L -122.365381,47.934924 L -122.358812,47.93742 L -122.356771,47.944524 L -122.350741,47.953235 L -122.350254,47.969355 L -122.354268,47.984477 L -122.369161,47.995295 L -122.37156,48.00033 L -122.372788,48.010031 L -122.372274,48.020047 L -122.376259,48.034457 L -122.387382,48.03403 L -122.40341,48.036737 L -122.406687,48.040797 L -122.416178,48.043483 L -122.431266,48.045001 L -122.448419,48.054323 L -122.468977,48.077045 L -122.472781,48.07761 L -122.483977,48.086735 L -122.491104,48.094242 L -122.505136,48.095506 L -122.513276,48.097538 L -122.525422,48.096537 L -122.516906,48.081085 L -122.511081,48.075301 L -122.513931,48.066765 L -122.517775,48.063466 L -122.513994,48.059077 L -122.51607,48.053421 L -122.509652,48.039756 L -122.51275,48.035467 L -122.517971,48.022432 L -122.528191,48.016072 L -122.537936,48.016072 L -122.541501,48.020365 L -122.536713,48.026166 L -122.536986,48.042299 L -122.538953,48.050232 L -122.54887,48.053739 L -122.545342,48.062476 L -122.546272,48.075952 L -122.554559,48.077392 L -122.563673,48.091834 L -122.571853,48.102143 L -122.571615,48.105113 L -122.560041,48.113123 L -122.557664,48.117884 L -122.560013,48.12445 L -122.566398,48.132833 L -122.567936,48.148624 L -122.572162,48.154049 L -122.580956,48.159598 L -122.581176,48.167688 L -122.585057,48.174263 L -122.585778,48.182352 L -122.592754,48.190426 L -122.605819,48.201749 L -122.604868,48.206382 L -122.612496,48.211847 L -122.616633,48.212417 L -122.628352,48.222467 L -122.634578,48.219751 L -122.645654,48.222937 L -122.648252,48.226888 L -122.659617,48.223192 L -122.674095,48.223566 L -122.678405,48.220919 L -122.692971,48.222241 L -122.699559,48.218068 L -122.710967,48.214109 L -122.721187,48.213792 L -122.726654,48.21886 L -122.726179,48.222661 L -122.732358,48.226144 L -122.728318,48.232478 L -122.715958,48.236119 L -122.704142,48.238051 L -122.690061,48.238365 L -122.68197,48.240235 L -122.677217,48.238652 L -122.658678,48.244509 L -122.652973,48.251473 L -122.652639,48.265081 L -122.663431,48.273783 L -122.662718,48.277579 L -122.656301,48.283273 L -122.642991,48.288809 L -122.636098,48.288493 L -122.631107,48.282641 L -122.635385,48.279794 L -122.643941,48.279636 L -122.638237,48.270619 L -122.631107,48.267138 L -122.625878,48.27141 L -122.624927,48.277896 L -122.620748,48.282961 L -122.626757,48.288991 L -122.618466,48.294159 L -122.599532,48.298303 L -122.584086,48.297987 L -122.574872,48.294903 L -122.558332,48.282061 L -122.551793,48.281512 L -122.530976,48.282445 L -122.522756,48.285504 L -122.510697,48.29356 L -122.504729,48.300373 L -122.506568,48.310041 L -122.515979,48.320419 L -122.527249,48.325085 L -122.535708,48.332263 L -122.544549,48.336035 L -122.551334,48.342138 L -122.565525,48.348217 L -122.585162,48.353304 L -122.594029,48.354555 L -122.597594,48.357556 L -122.588891,48.363005 L -122.580243,48.37161 L -122.580173,48.374824 L -122.586009,48.385513 L -122.585038,48.395166 L -122.595351,48.3972 L -122.596732,48.405626 L -122.60198,48.409907 L -122.609715,48.411565 L -122.617174,48.407145 L -122.624293,48.400488 L -122.630869,48.403021 L -122.644798,48.405488 L -122.651072,48.402863 L -122.664659,48.401508 L -122.664928,48.374823 L -122.668411,48.364709 L -122.673731,48.354683 L -122.682818,48.343738 L -122.687199,48.341287 L -122.694885,48.329694 L -122.700264,48.327479 L -122.707077,48.315286 L -122.72259,48.304268 L -122.727243,48.293729 L -122.728793,48.285171 L -122.732022,48.279425 L -122.738864,48.274349 L -122.752563,48.260061 L -122.757461,48.25161 L -122.762388,48.238348 L -122.769939,48.227548 Z M -122.821754,48.590908 L -122.820351,48.588753 L -122.80815,48.593029 L -122.804573,48.597782 L -122.814835,48.600028 L -122.818248,48.592652 L -122.821754,48.590908 Z M -122.831083,48.572526 L -122.827316,48.55452 L -122.816822,48.552234 L -122.821281,48.54651 L -122.807686,48.531322 L -122.794718,48.534453 L -122.787447,48.542525 L -122.772207,48.552447 L -122.76902,48.55928 L -122.77095,48.563089 L -122.791031,48.580101 L -122.81088,48.588879 L -122.818486,48.58369 L -122.824341,48.583668 L -122.828944,48.579288 L -122.831083,48.572526 Z M -122.848268,48.747122 L -122.834351,48.743516 L -122.828512,48.746979 L -122.840666,48.749522 L -122.848268,48.747122 Z M -122.918449,48.766968 L -122.919565,48.754935 L -122.912161,48.750582 L -122.905614,48.750062 L -122.899086,48.746593 L -122.886609,48.748635 L -122.88319,48.75356 L -122.889017,48.757111 L -122.898647,48.756742 L -122.912271,48.762356 L -122.910328,48.766754 L -122.891166,48.764806 L -122.898695,48.76992 L -122.913852,48.769743 L -122.918449,48.766968 Z M -122.945733,48.477767 L -122.941723,48.470672 L -122.944337,48.457907 L -122.934117,48.458064 L -122.926273,48.460586 L -122.917479,48.456015 L -122.916291,48.449394 L -122.919618,48.44293 L -122.930767,48.442738 L -122.926247,48.437046 L -122.908923,48.440565 L -122.904407,48.446241 L -122.876598,48.445295 L -122.864239,48.4423 L -122.8621,48.439619 L -122.871607,48.432208 L -122.873984,48.437412 L -122.883966,48.438673 L -122.889366,48.435856 L -122.877311,48.431892 L -122.879688,48.426372 L -122.88872,48.427792 L -122.895309,48.420982 L -122.884165,48.418614 L -122.872704,48.418011 L -122.853668,48.419792 L -122.849503,48.42306 L -122.862575,48.426372 L -122.860674,48.430473 L -122.848314,48.427634 L -122.839045,48.431735 L -122.83643,48.42858 L -122.827399,48.425584 L -122.823167,48.420726 L -122.812622,48.420982 L -122.80347,48.430172 L -122.814089,48.430788 L -122.807671,48.436623 L -122.807671,48.443561 L -122.800133,48.447159 L -122.804893,48.452511 L -122.811916,48.452598 L -122.819168,48.460243 L -122.813334,48.472599 L -122.818927,48.477288 L -122.816197,48.487785 L -122.79933,48.494324 L -122.792697,48.501864 L -122.792876,48.505216 L -122.78469,48.510152 L -122.769798,48.507835 L -122.769405,48.5121 L -122.77741,48.517695 L -122.792962,48.525372 L -122.803393,48.524222 L -122.81599,48.524852 L -122.82869,48.5233 L -122.831915,48.51824 L -122.837013,48.516758 L -122.840584,48.503075 L -122.836784,48.489307 L -122.834054,48.485168 L -122.834038,48.469761 L -122.826686,48.460744 L -122.836906,48.450655 L -122.844154,48.447754 L -122.851167,48.449237 L -122.843799,48.457591 L -122.843555,48.46113 L -122.857346,48.458064 L -122.859485,48.460113 L -122.850691,48.477605 L -122.853543,48.486113 L -122.860436,48.488949 L -122.866165,48.497128 L -122.870894,48.498872 L -122.873271,48.505959 L -122.866378,48.511312 L -122.859248,48.532722 L -122.841774,48.539955 L -122.844749,48.542951 L -122.852355,48.537758 L -122.858297,48.542322 L -122.869943,48.542322 L -122.873509,48.549088 L -122.864576,48.555392 L -122.86614,48.563875 L -122.87232,48.562932 L -122.872082,48.554122 L -122.883016,48.555224 L -122.884679,48.573155 L -122.890146,48.569066 L -122.890859,48.558213 L -122.898465,48.556482 L -122.905833,48.550189 L -122.920296,48.550663 L -122.921995,48.53886 L -122.916053,48.522963 L -122.927224,48.521231 L -122.931978,48.517453 L -122.934117,48.506746 L -122.941189,48.498078 L -122.945733,48.477767 Z M -123.017432,48.590141 L -123.013145,48.582904 L -123.01416,48.578972 L -122.99936,48.580231 L -122.985099,48.569695 L -122.980821,48.567965 L -122.972502,48.558684 L -122.984742,48.562428 L -122.987038,48.557079 L -122.977997,48.551846 L -122.968224,48.555066 L -122.966155,48.549111 L -122.94303,48.547986 L -122.939926,48.551846 L -122.942554,48.555224 L -122.937065,48.55946 L -122.939227,48.562774 L -122.926392,48.563718 L -122.921163,48.562302 L -122.903852,48.575691 L -122.904763,48.582433 L -122.914984,48.584005 L -122.918983,48.587059 L -122.928505,48.585155 L -122.933258,48.580875 L -122.932572,48.573784 L -122.94303,48.579445 L -122.940872,48.586109 L -122.957291,48.588407 L -122.979897,48.593246 L -122.999886,48.587059 L -123.006966,48.585734 L -123.01161,48.591093 L -123.017432,48.590141 Z M -123.030342,48.62989 L -123.027963,48.610849 L -123.02194,48.609313 L -123.007973,48.615139 L -123.000359,48.615139 L -122.99318,48.60947 L -122.991041,48.603655 L -123.007973,48.598957 L -123.007784,48.594644 L -122.995557,48.592495 L -122.988464,48.5942 L -122.988664,48.60114 L -122.977018,48.599097 L -122.971228,48.603816 L -122.970856,48.609428 L -122.97823,48.618897 L -122.988189,48.626439 L -122.992943,48.634608 L -122.985812,48.638063 L -122.983911,48.642147 L -122.966803,48.628515 L -122.96038,48.631466 L -122.953012,48.625339 L -122.9561,48.618469 L -122.951349,48.607584 L -122.95325,48.602712 L -122.947546,48.59721 L -122.93685,48.597053 L -122.9369,48.59347 L -122.926366,48.591396 L -122.914984,48.591237 L -122.905476,48.592966 L -122.884155,48.588721 L -122.880758,48.591866 L -122.871391,48.594673 L -122.8703,48.599097 L -122.86235,48.604191 L -122.861877,48.612282 L -122.875766,48.622669 L -122.881386,48.637981 L -122.896568,48.646787 L -122.904288,48.649056 L -122.909755,48.653924 L -122.913082,48.666326 L -122.908804,48.670564 L -122.91641,48.679353 L -122.920213,48.686101 L -122.918073,48.689553 L -122.894714,48.694611 L -122.885036,48.690024 L -122.882422,48.68516 L -122.883609,48.674959 L -122.883293,48.660347 L -122.881708,48.653453 L -122.875766,48.645602 L -122.869587,48.646701 L -122.86103,48.639477 L -122.848196,48.62204 L -122.838137,48.618156 L -122.831993,48.620504 L -122.827946,48.615829 L -122.830655,48.602117 L -122.819524,48.602058 L -122.813374,48.606845 L -122.804245,48.602516 L -122.798684,48.602737 L -122.808804,48.619916 L -122.803499,48.621763 L -122.79525,48.629414 L -122.784973,48.632723 L -122.778762,48.639144 L -122.769075,48.641522 L -122.754799,48.649403 L -122.754833,48.656388 L -122.741478,48.660347 L -122.741951,48.662251 L -122.773089,48.671035 L -122.794777,48.678909 L -122.801401,48.682653 L -122.837262,48.699908 L -122.858416,48.704927 L -122.866495,48.705695 L -122.877579,48.712696 L -122.885274,48.712142 L -122.892718,48.714415 L -122.917134,48.713727 L -122.927096,48.710837 L -122.946461,48.70945 L -122.942317,48.702104 L -122.948803,48.69371 L -122.962409,48.683621 L -122.984355,48.674797 L -122.987238,48.669152 L -122.997861,48.661596 L -123.010102,48.654963 L -123.014571,48.649056 L -123.015294,48.64291 L -123.02327,48.634479 L -123.030342,48.62989 Z M -123.05416,48.618531 L -123.047809,48.61083 L -123.038258,48.61212 L -123.040085,48.616978 L -123.051451,48.620665 L -123.05416,48.618531 Z M -123.067931,48.7003 L -123.047058,48.695772 L -123.03636,48.69008 L -123.035672,48.68535 L -123.042337,48.675663 L -123.028951,48.678333 L -123.014449,48.684978 L -123.005086,48.694342 L -123.008748,48.70281 L -123.005004,48.705338 L -123.008911,48.712719 L -123.009787,48.722291 L -123.019699,48.721312 L -123.029257,48.716458 L -123.040179,48.717296 L -123.045727,48.709003 L -123.05442,48.703805 L -123.067931,48.7003 Z M -123.163582,48.649189 L -123.163925,48.647812 L -123.146736,48.642658 L -123.138145,48.638535 L -123.118553,48.633377 L -123.111664,48.633744 L -123.116493,48.639565 L -123.127831,48.643688 L -123.140661,48.64411 L -123.150447,48.647797 L -123.163582,48.649189 Z M -123.203309,48.595549 L -123.201256,48.587482 L -123.183918,48.585341 L -123.171084,48.57575 L -123.176086,48.568512 L -123.176329,48.562363 L -123.167065,48.550068 L -123.161465,48.54824 L -123.160863,48.542715 L -123.164106,48.535216 L -123.163208,48.530055 L -123.151772,48.518666 L -123.150168,48.513123 L -123.138535,48.504748 L -123.13298,48.498309 L -123.127113,48.497848 L -123.119032,48.491863 L -123.111901,48.491705 L -123.102048,48.48868 L -123.092412,48.481781 L -123.083142,48.483356 L -123.06842,48.479874 L -123.065445,48.472736 L -123.054084,48.469766 L -123.054038,48.467706 L -123.040611,48.461735 L -123.023068,48.456915 L -123.01746,48.45784 L -122.974759,48.453566 L -122.96704,48.450782 L -122.960975,48.451207 L -122.961925,48.458616 L -122.960152,48.463814 L -122.963827,48.467127 L -122.970856,48.467979 L -122.976186,48.462241 L -122.986923,48.462624 L -123.005896,48.470909 L -123.009224,48.476109 L -123.008934,48.484039 L -123.019919,48.49517 L -123.019919,48.502888 L -123.016354,48.518634 L -123.004945,48.520838 L -122.991936,48.514729 L -122.982366,48.51454 L -122.972046,48.520325 L -122.968483,48.527466 L -122.969769,48.536106 L -122.978801,48.534217 L -122.982162,48.536388 L -122.995201,48.535476 L -123.005183,48.541456 L -123.004768,48.551258 L -123.011307,48.559586 L -123.016354,48.562066 L -123.035698,48.563751 L -123.048678,48.569774 L -123.051758,48.575649 L -123.074699,48.59186 L -123.085043,48.593988 L -123.100493,48.599018 L -123.101443,48.601533 L -123.09697,48.611935 L -123.10054,48.619076 L -123.105301,48.622643 L -123.124692,48.621719 L -123.136145,48.620076 L -123.137571,48.623061 L -123.145752,48.625023 L -123.152545,48.623219 L -123.151356,48.619291 L -123.156585,48.616777 L -123.179657,48.622047 L -123.186848,48.612409 L -123.195717,48.607773 L -123.203309,48.595549 Z M -123.236061,48.684988 L -123.223821,48.675335 L -123.219744,48.670718 L -123.200356,48.662594 L -123.189224,48.660802 L -123.182823,48.657436 L -123.179402,48.663265 L -123.167015,48.663624 L -123.158011,48.666248 L -123.135742,48.657093 L -123.149139,48.669125 L -123.168707,48.677235 L -123.172516,48.680809 L -123.183205,48.684297 L -123.202068,48.686903 L -123.21588,48.689925 L -123.237473,48.689056 L -123.236061,48.684988 Z M -122.504923,47.546531 L -122.506294,47.544243 L -122.496773,47.53175 L -122.489149,47.529477 L -122.484149,47.531688 L -122.485267,47.537487 L -122.479523,47.541862 L -122.491425,47.545433 L -122.504923,47.546531 Z M -122.590841,47.663261 L -122.580601,47.645493 L -122.577802,47.643664 L -122.577243,47.620058 L -122.5736,47.61569 L -122.576847,47.600391 L -122.573312,47.594583 L -122.56764,47.590677 L -122.561621,47.593709 L -122.556911,47.601694 L -122.547971,47.603691 L -122.544547,47.597194 L -122.53842,47.596072 L -122.532166,47.589612 L -122.522752,47.575423 L -122.518367,47.57408 L -122.503924,47.575336 L -122.495924,47.580293 L -122.480278,47.583268 L -122.483938,47.586418 L -122.499191,47.590024 L -122.503494,47.592353 L -122.51474,47.594438 L -122.514211,47.596796 L -122.498343,47.597867 L -122.497786,47.610606 L -122.500357,47.617816 L -122.511836,47.615721 L -122.524193,47.617951 L -122.519897,47.622462 L -122.514385,47.621092 L -122.504527,47.625944 L -122.496383,47.62177 L -122.489131,47.633184 L -122.502116,47.639074 L -122.508164,47.643657 L -122.514953,47.654134 L -122.500697,47.659597 L -122.508709,47.670843 L -122.507794,47.681852 L -122.503823,47.694399 L -122.504604,47.699136 L -122.511196,47.708715 L -122.517548,47.705285 L -122.525357,47.707554 L -122.529852,47.704024 L -122.540868,47.708631 L -122.544106,47.718186 L -122.552848,47.720757 L -122.563896,47.71008 L -122.562718,47.701531 L -122.565458,47.694541 L -122.564639,47.681886 L -122.561007,47.673929 L -122.565722,47.665942 L -122.569952,47.67333 L -122.573174,47.674242 L -122.585715,47.66546 L -122.590841,47.663261 Z M -122.669635,47.276474 L -122.668571,47.270447 L -122.657272,47.262714 L -122.64658,47.253571 L -122.641113,47.246633 L -122.634696,47.243406 L -122.629906,47.237137 L -122.625188,47.234692 L -122.622184,47.229006 L -122.614236,47.220872 L -122.608313,47.217583 L -122.602539,47.217506 L -122.598331,47.222587 L -122.590487,47.227752 L -122.58886,47.237137 L -122.601896,47.243083 L -122.6073,47.24963 L -122.621574,47.258553 L -122.62709,47.260507 L -122.62812,47.267475 L -122.634458,47.266959 L -122.649536,47.275208 L -122.657038,47.275184 L -122.663811,47.277588 L -122.669635,47.276474 Z M -122.841641667088,47.2580303442962 L -122.834109,47.256797 L -122.832208,47.261798 L -122.825315,47.270507 L -122.832336,47.272888 L -122.840051,47.268088 L -122.841641667088,47.2580303442962 Z M -122.94347,48.122911 L -122.935287,48.121304 L -122.918149,48.126886 L -122.920777,48.130117 L -122.930616,48.132466 L -122.94347,48.122911 Z M -123.884535,46.965793 L -123.876719,46.961051 L -123.8717,46.960602 L -123.860529,46.95606 L -123.854587,46.960927 L -123.864807,46.965144 L -123.877166,46.966929 L -123.884535,46.965793 Z M -124.602208,48.38693 L -124.599356,48.376827 L -124.592939,48.377933 L -124.602208,48.38693 Z M -122.526031,47.358906 L -122.52813,47.345543 L -122.518852,47.333321 L -122.508488,47.332723 L -122.504913,47.330681 L -122.493126,47.330254 L -122.491234,47.335171 L -122.489711,47.351727 L -122.487572,47.357202 L -122.48781,47.365091 L -122.484244,47.38006 L -122.473269,47.387107 L -122.464992,47.387302 L -122.451445,47.382957 L -122.445027,47.389394 L -122.452158,47.395187 L -122.460239,47.393417 L -122.465943,47.395187 L -122.460001,47.401622 L -122.447879,47.402105 L -122.439561,47.404196 L -122.439085,47.394543 L -122.433143,47.388107 L -122.442413,47.384727 L -122.453108,47.372496 L -122.463804,47.375071 L -122.466673,47.368606 L -122.470697,47.365896 L -122.477114,47.351083 L -122.475688,47.347057 L -122.469704,47.344624 L -122.453995,47.343338 L -122.448395,47.354988 L -122.437813,47.365604 L -122.421259,47.371047 L -122.417957,47.374886 L -122.404384,47.378612 L -122.400365,47.381566 L -122.378479,47.38533 L -122.373627,47.388718 L -122.39505,47.399277 L -122.42733,47.40213 L -122.437653,47.407425 L -122.439934,47.417007 L -122.429936,47.423675 L -122.436404,47.430263 L -122.439876,47.437769 L -122.439536,47.448898 L -122.443095,47.453463 L -122.433388,47.466431 L -122.444994,47.473175 L -122.447431,47.478255 L -122.46003,47.486858 L -122.458575,47.498219 L -122.4524,47.503471 L -122.468559,47.510078 L -122.476624,47.511079 L -122.478771,47.496902 L -122.482742,47.483131 L -122.497864,47.475914 L -122.502452,47.467961 L -122.508963,47.461112 L -122.513954,47.448898 L -122.513241,47.423336 L -122.514702,47.414047 L -122.522035,47.407252 L -122.526733,47.398582 L -122.52774,47.39229 L -122.516331,47.377324 L -122.517799,47.368679 L -122.523937,47.36654 L -122.526031,47.358906 Z M -122.640638,47.149413 L -122.630388,47.153543 L -122.628847,47.157941 L -122.63113,47.167675 L -122.635884,47.163959 L -122.640638,47.149413 Z M -122.726868,47.207394 L -122.726868,47.204418 L -122.715269,47.199014 L -122.701881,47.197876 L -122.69269,47.193039 L -122.677716,47.1911 L -122.657275,47.193523 L -122.642395,47.200848 L -122.6418,47.205013 L -122.648719,47.215645 L -122.659645,47.219292 L -122.662029,47.214192 L -122.668684,47.215807 L -122.667495,47.223394 L -122.676052,47.226138 L -122.679871,47.231186 L -122.704573,47.23098 L -122.707188,47.224847 L -122.716695,47.216775 L -122.719727,47.21096 L -122.726868,47.207394 Z M -122.741737,47.155045 L -122.742928,47.151474 L -122.733333,47.146018 L -122.729768,47.140683 L -122.722162,47.137127 L -122.711998,47.127682 L -122.702434,47.123867 L -122.694748,47.125896 L -122.692963,47.130653 L -122.696968,47.135671 L -122.694829,47.143755 L -122.688411,47.143432 L -122.684249,47.139857 L -122.675498,47.141964 L -122.67724,47.148443 L -122.673437,47.149898 L -122.673927,47.174675 L -122.681656,47.181217 L -122.692576,47.184338 L -122.695779,47.189001 L -122.706713,47.187385 L -122.717646,47.179147 L -122.723892,47.17646 L -122.729843,47.166943 L -122.727153,47.160727 L -122.741737,47.155045 Z" fill="none" stroke=currentColor stroke-width="1" vector-effect="non-scaling-stroke"/>
</svg>