<?xml version="1.0"?>
<svg width="20" height="20" xmlns="http://www.w3.org/2000/svg" version="1.2" baseProfile="tiny" viewBox="-64.000 -200.500 928.000 928.000" stroke-linecap="round" stroke-linejoin="round">
<g id="state">
<path d="M 765.8 19.56 766.6 38.25 766.94 44.94 767.26 52.36 767.44 57.53 768.24 75.6 769.24 95.51 770.03 117.71 770.44 131.65 770.81 140.6 771.51 155.89 771.84 162.03 772.05 166.64 773.04 186.43 773.49 194.97 774.23 207.9 774.42 212.25 774.98 221.8 775.51 231.8 776.3 247.8 776.72 256.54 776.96 260.94 777.93 280.65 778.52 292.57 778.59 294.57 779.53 312.56 779.89 320.44 780.54 333.48 780.69 337.11 781.54 353.72 782.03 363.59 782.69 377.34 783.12 385.5 783.68 386.6 783.66 387.66 783.37 388.46 783.1 390.61 782.57 392.67 781.41 393.99 781.16 394.61 781.25 396.34 781.54 397.1 782.7 397.85 784.37 398.03 785.51 398.97 785.6 401.18 785.9 401.92 787.44 403.34 788.58 403.66 789.31 404.14 789.76 404.98 789.72 405.67 789.23 406.84 789.27 407.53 791.01 409.05 792.17 410.75 792.97 412.89 793.28 414.2 793.19 415 792.31 417.41 792.45 418.32 792.96 419.01 794.17 419.94 796.06 422.61 796.61 422.57 797.18 423.22 797.31 423.85 797.04 424.6 796.01 425.47 796.08 428.12 794.61 430.15 794.6 432.02 794.25 433.39 793.83 433.84 792.34 434.12 791.51 435.02 791.92 436.71 792.81 437.18 794.19 437.35 795.14 438.36 795.87 439.41 795.85 440.31 796.24 441.56 797.19 442.56 797.45 443.37 797.49 444.94 798.4 446.05 798.78 448.45 799 449.09 797.34 449.08 791.64 449.26 783.99 449.58 776.43 449.84 763.32 450.37 761.93 450.47 755.19 450.73 753.53 451.11 750.25 451.01 744.04 451.26 740.41 451.51 736.24 451.61 729.06 451.88 726.4 451.89 719.33 452.1 714.34 452.3 696.46 452.94 685.53 453.3 668.42 453.91 654.03 454.39 643.01 454.72 624.67 455.25 605.37 455.76 600.99 455.92 584.5 456.4 583.34 456.51 581.18 459.65 579.28 461.2 575.74 462.87 572.48 465.31 569.07 466.87 564.61 467.73 561.86 467.76 558.7 467.09 555.4 466.11 552.38 466.53 548.58 467.26 547.56 467.62 544.24 469.07 535.29 469.86 531.38 471.57 527.57 471.31 522.61 468.86 519.61 469.8 517.23 471.92 512.5 479.28 501.77 481.11 498.64 480.87 493.78 482.05 487.75 483.92 481.64 484.56 476.53 487.19 470.77 490.54 463.33 492.4 460.29 494.1 456.13 499.54 448.52 500.3 444.03 501.79 435.94 503.63 427.67 504.43 425.24 503.61 423.45 502.07 419.6 497.89 416.26 496.68 411.66 496.81 408.08 499.19 405.96 501.31 401.87 502.87 395.59 505.71 388.58 507.91 384.33 512.21 382.47 512.65 379.28 510.19 378.32 510.14 375.13 511.39 372.63 510.66 369.85 510.99 366.64 510.75 364.5 511.42 360.78 515.12 361.09 515.86 359.55 517.12 358.75 516.77 358.1 517.38 355.76 517.65 354.1 517.59 352.76 516.06 352.91 514.13 352.38 511.09 350.78 507.88 347.3 506.89 343.29 505.5 340.68 503.54 338.02 502.78 334.36 503.02 331.29 504.52 328.97 504.33 327.16 503.83 324.9 503.21 321.12 500.27 318.55 499.62 317.58 499.38 307.24 502.54 303.35 502.44 299.26 503.93 296.35 504.02 288.39 502.02 282.51 503.94 278.82 507.29 278.91 508.58 278.12 509.69 275.28 511.19 273.53 511.08 273.1 511.26 272.31 512.85 270.19 514.31 268.02 515.32 266.18 515.46 263.73 516.21 257.82 519.94 256.52 520.31 253.45 519.86 249.09 520.87 247.18 522.58 242.07 525.09 240.19 525.64 237.05 525.61 233.39 524.85 231.22 521.63 228.35 520.6 227.14 520.79 225.13 521.78 222.18 522.33 220.59 521.74 218.33 519.99 216.61 519.26 213.33 518.24 211.02 517.21 207.22 515.94 204.57 515.27 200.77 514.94 197.53 513.62 195.87 512.57 193.59 510.63 191.01 509.56 188.51 507.66 188.36 507.55 187.33 504.04 187.61 501.17 189.04 496 188.99 492.3 188.23 489.07 185.61 484.6 185.63 482.35 186.78 479.51 186.94 476 185.64 473.48 184.34 469.2 184.98 466.27 184.27 461.97 181.88 458.94 180.08 453.86 177.86 451.28 177.32 446.93 175.36 443.37 169.45 440.1 169.17 439.89 165.16 435.59 163.24 434.7 161.14 433.42 160.29 432.44 154.88 428.73 153.78 427.56 148.55 426.85 143.63 429.16 142.58 429.89 140.57 430.8 139.59 431.43 136.53 433.08 134.36 433.05 130.38 432.68 129.64 432.83 127.05 432.55 126.23 431.83 125.12 431.28 121.04 427.08 121.63 419.95 119.66 416.82 117.55 414.54 116.44 413.82 114.21 413.46 112.61 414.14 109.72 415.01 109.37 414.1 108.09 414.13 107.61 414.68 106.36 414.51 105.82 414.74 103.59 414.49 102.51 414.69 101.34 414.42 100.25 413.83 98.62 413.74 96.74 413.46 95.78 412.57 95.71 411.76 95.96 410.49 95.76 409.05 93.72 407.69 91.26 408.12 91.25 409.03 90.74 409.96 88.52 409.38 88.11 410.99 87.48 411.26 87.46 411.88 86.71 412.08 85.85 411.89 85.09 411.02 83.78 410.33 82.68 410.42 82.08 410.88 81.29 412.45 79.72 412.57 79.16 413.49 78.1 413.7 77.89 414.26 76.94 415.32 76.29 415.36 75.71 416.43 75.23 416.69 71.76 415.69 70.37 414.7 70.07 413.82 67.83 411.69 66.98 410.18 66.86 409.44 65.8 408.58 65.76 407.39 64.28 405.88 62.64 405.18 60.66 404.73 59.64 405.79 59.3 406.53 58.1 406.98 57.29 408.21 58.15 408.61 58.19 410.56 57.11 410.6 56.24 410.08 54.73 411.1 54.46 410.42 54.77 407.36 54.41 406.88 55.33 406.03 56.16 402.87 57.19 393.99 57.43 390.58 57.99 378.03 57.88 368.62 57.5 361.83 57.56 357.45 58.17 355.89 58.86 355.32 59.58 355.32 59.98 356.41 61.12 356.81 61.22 357.53 59.4 358.55 59.27 359.12 60.37 361.23 60.58 362.38 61.18 362.91 62 364.84 61.93 367.6 61.43 372.44 61.55 375.37 61.14 375.7 60.62 377.68 61 382.7 61.63 389.7 61.6 395.34 62.39 396.45 63.66 396.14 64.74 395.47 65.61 395.36 66.89 395.85 67.96 395.58 68.25 393.9 68.28 392.03 68.55 390.89 66.94 391.07 66.54 388.7 67.09 387.4 66.63 386.5 64.78 385.54 64.46 384.96 64.65 382.44 64.33 381.95 64.61 379.01 65.1 377.77 66.07 377.76 66 378.87 66.72 379.47 66.78 381.08 68.19 382.07 69.64 382.72 69.97 382.44 69.6 380.92 69.77 379.34 70.9 378.57 71.87 377.38 72.44 375.91 73.06 375.53 73.52 376.52 74.78 375.61 74.64 372.49 75.17 371.8 74.94 371.35 74.93 370.2 73.72 369.69 72.33 367.11 72.4 366.09 71.8 364.29 70.78 363.14 69.34 361.76 68.82 360.47 68.94 358.33 68.81 357.06 69.62 357.1 69.79 357.79 70.45 358.53 71.28 358.56 71.29 357.66 70.9 356.48 71.7 355.74 72.88 355.15 73.12 352.48 72.88 351.79 73.7 350.93 74.87 350.91 79.03 348.15 80.45 347.62 81.65 347.82 82.75 347.38 82.77 346.1 82.38 345.34 80.98 345.25 80.22 344.2 78.6 343.69 78.01 343.32 77.02 341.04 76.89 340.32 75.87 340.31 74.61 340.78 73.73 341.93 74.29 343.17 74.2 343.76 72.59 343.91 70.58 343.81 68.6 342.13 67.93 342.5 67.39 343.79 67.79 345.41 68.59 346.75 67.88 347 66.48 346.32 65.3 346.5 64.62 345.82 64.56 345.28 63.51 344.44 62.27 344.62 61.4 343.89 59.56 342.8 58.87 342.09 57.05 341.81 55.94 340.77 55.52 340.07 55.74 338.49 55.75 334.37 55.64 332.91 55.45 330.42 54.91 326.54 53.35 319.79 52.76 317.47 52.64 316.35 53.92 316.13 54.61 315.03 55.13 315.16 56.22 316.45 56.87 316.86 57.09 317.79 56.53 319.68 57.05 320.53 57.03 321.95 58.65 322.95 59.91 322.45 60.55 321.69 61.28 318.6 62.66 317.58 65 316.9 65.6 315.59 66.89 315.37 68.04 314.29 70.86 314.5 73 313.49 78.61 312.02 79.93 311.59 81.99 310.35 83.2 310.1 82.65 309.04 81.21 307.99 79.52 307.58 78.12 307.67 77.23 307.18 74.84 307.09 72.24 307.45 71.06 305.46 68.59 305.38 67.73 305.55 65.66 304.72 65.03 304.08 65.12 303.45 65.95 302.84 66.48 301.95 65.96 301.34 65.2 301.07 65.35 300.27 64.49 297.94 62.7 297.27 62.09 296.53 61.05 295.82 60.52 296.13 56.39 295.73 54.79 295.81 52.76 296.7 51.95 297.54 51.67 298.75 52.07 300.45 52.94 302.1 52.64 303.7 52.7 306.31 53.19 307.75 53.62 310.15 54.44 310.36 55.16 309.91 55.81 310.38 55.74 311.44 55.35 311.68 53.63 310.7 52.78 310.41 51.06 311.33 51 312.06 50.33 312.42 48.75 312.68 48.78 310.53 49.23 308.03 49.67 302.65 49.69 291.89 49.53 287.9 48.93 282.24 49.07 281.54 48.56 279.8 48.11 275.71 47.06 269.06 44.74 258.61 44.1 257.58 42.7 256.01 40.62 255.57 39.3 250.58 38.68 249.2 37.94 248.58 36.76 248.03 36.36 246.21 36.41 244.55 35.97 241.32 35.37 240.55 35.44 236.38 35.27 235.66 35.36 233.3 35.05 227.97 34.5 222.31 33.56 213.92 33.12 211.34 32.83 210.68 32.29 206.4 31.13 201.37 29.68 197.46 29.1 192.33 28.69 190.34 28.2 189.15 26.57 187.7 26.23 186.52 25.7 186.05 25.14 186.25 24.53 185.68 23.58 183.48 23.38 182.57 23.2 179.62 22.74 178.3 21.95 177.42 21.09 177.19 20.46 177.37 19.83 176.69 19.55 175.88 17.71 175.5 17.91 174.34 16.88 173.77 16.65 172.81 16.14 172.5 16.1 171.08 15.42 170.37 14.69 170.48 14.09 169.27 13.28 168.73 12.44 168.58 11.72 169.63 11.2 169.02 11.15 168.31 9.61 167.04 9.17 166.34 9.25 165.67 8.96 164.63 8.15 163.99 8.5 162.31 7.95 159.86 7.36 158.66 6.41 158.11 6.32 155.58 5.46 155.39 5.6 154.68 5.31 154.07 5.76 152.71 5.54 151.66 5.11 151.19 5 149.94 5.29 148.66 4.89 146.91 5.02 144.65 4.8 142.65 4.54 141.79 4.04 141.2 4.22 140.39 3.83 139.6 4.11 136.95 4.8 136.18 4.99 135.26 4.59 135 4.6 133.81 4.01 132.05 3.04 130.9 3.22 130.25 2.36 128.54 1.94 126.94 1 125.82 1.07 124.38 1.78 124.05 2.88 122.81 3.93 122.37 4.84 120.29 5.47 118.22 5.4 116.53 4.79 115.88 4.8 115.28 4.17 114.07 4.81 113.5 4.85 113.01 5.7 112.59 6.41 111.89 6.86 110.4 6.96 108.62 6.48 107.08 7.1 105.57 7.54 105.97 8.61 105.4 9.07 103.75 8.95 102.28 9.4 101.59 9.54 100.69 8.51 99.1 7.89 98.86 6.73 99.39 5.95 98.52 5.92 97.71 4.88 96.93 5 96.23 4.34 95.15 3.06 94.37 2.66 92.84 3.29 92.15 4.2 91.63 5.22 92.23 6.75 91.7 8.26 91.6 8.99 92.07 9.94 91.75 12.27 92.27 11.89 92.65 12.82 94.68 13.52 95.38 14.65 95.6 16.64 94.67 18 95.28 18.37 95.86 19.18 95.64 20.93 97.87 21.64 98.46 22.96 98.66 24.4 99.59 25.33 100.41 25.9 100.61 26.34 101.33 26.79 101.32 29.55 103.46 30.61 103.99 30.8 104.54 31.59 105.41 32.38 105.53 33.73 106.37 35.48 108.27 36.92 108.94 37.94 108.9 38.88 108.6 39.92 109.19 41.03 110.44 44.96 111.77 44.81 112.73 45.22 113.22 46.61 113.43 46.89 113.85 48.29 113.97 49.09 113.58 49.75 112.51 50.96 112.91 51.6 113.55 52.49 113.83 52.97 114.37 55.43 115.52 57.08 116.67 60.44 118.57 61.46 119.63 62.76 119.66 64.32 120.31 63.87 120.95 63.99 121.47 63.41 122.33 63.62 122.79 65.15 123.37 66.81 124.33 69.17 126.37 72.89 127.58 74.35 127.43 74.45 127.95 76.06 128.6 76.8 128.69 79.56 128.49 80.64 129.37 82.57 129.67 83.95 129.56 84.73 129.73 85.48 129.54 86.91 129.93 87.43 130.55 88.21 130.66 90.08 130.49 90.96 130.22 91.46 129.76 92.56 130.65 96.29 130.79 99.38 130 100.24 130.23 101.16 129.54 101.59 130.44 102.28 130.54 103.52 129.88 103.22 129.24 105.6 129.89 106.9 130.11 109.82 131.51 110.38 132.09 109.91 132.54 110.4 133.27 111.99 134.01 112.71 133.87 114.91 134.55 115.64 134.36 117.07 133.28 117.21 132.73 118.97 132.24 120.56 133.13 121.77 134.71 123.26 135.32 125.12 135.29 126.65 135.1 128.45 134.37 130.02 134.02 131.48 134.04 133.7 134.24 133.86 134.79 130.33 134.42 129.37 134.88 127.79 135.04 127.96 135.78 128.82 136.38 129.75 136.67 131.45 137.66 132.75 137.95 133.37 137.87 134.39 138.33 136.46 138.42 138.54 137.93 139.45 138 140.01 138.61 142.44 138.67 145.11 137.66 145.9 138.24 147.03 138.46 148.49 138.34 149.06 138.58 150.02 138.24 152.26 136.96 154.9 134.56 157.71 131.34 159.72 129.9 160.72 129.92 164.05 128.68 164.15 129.06 161.72 130.01 160.95 130.12 160.23 131.33 159.9 132.73 160.95 133.41 161.62 133.32 162.9 134.12 163.4 135.1 165.47 137.37 167.34 138.42 168.04 139.41 169.17 141.87 169.75 143.9 169.19 144.11 169.13 145.72 169.62 147.19 169.01 147.87 169.84 148.52 170.93 150.46 171.58 151.14 171.52 151.67 172.84 153.13 173.57 153.23 173.96 152.52 173.58 150.54 172.64 148.46 173.31 147.08 173.04 146.16 171.62 144.8 171.65 143.99 172.44 143.75 173.42 143.08 175.92 142.34 179.27 142.04 179.95 142.39 182.24 142.59 181.33 144.79 180.89 146.71 181.78 148.18 183.46 148.84 184.51 149.51 186.16 150.03 186.54 151.26 186.85 151.33 187.2 152.6 187.5 154.68 187.33 155.71 186.76 156.54 184.8 157.7 184.99 158.47 185.8 157.91 186.49 158.03 188.57 157.57 189.57 156.79 190.2 155.64 190.16 154.92 190.58 153.8 190.95 151.7 191 150.19 190.78 149.85 188.73 148.91 188.06 147.89 187.99 147.18 186.35 145.78 184.8 145.24 185.78 143.93 185.99 143.24 185.88 142.13 185.42 141.22 185.75 140.75 187.48 139.58 189.19 138.06 190.25 136.66 190.72 136.98 192.9 136.61 195.65 135.84 197.8 135.91 197.94 138.15 199.08 139.79 196.75 141.06 195.81 141.47 194.47 142.71 193.72 144.07 195.02 145.51 195.35 146.93 196.34 148.21 197.22 148.64 196.68 149.25 196.66 150.07 197.18 151.18 198.29 151.9 198.8 152.78 199.67 152.65 200.25 152.1 200 150.83 199.5 149.93 199.74 149.22 199.87 146.97 198.97 146.51 199.96 145.2 200.56 143.69 202.08 142.8 204.26 141.99 205.17 142.3 204.6 143.66 204.74 145.19 205.26 146.52 205.15 147.39 205.41 149.12 205.28 150.09 205.45 151.05 205.95 152.05 206.77 152.75 206.39 154.44 206.57 154.85 204.93 156.11 204.55 156.1 203.95 155.17 202.73 154.43 202.28 153.59 201.45 153.43 200.53 154.15 200.8 155.2 201.67 157.65 201.7 159.2 203.39 161.39 205.14 161.6 205.57 162.26 205.79 163.63 204.89 165.81 205.27 167.69 205.08 169.2 204.27 169 204.34 169.73 205 170.16 205.99 169.61 207.08 167.86 207.55 167.8 207.7 168.81 208.19 169.34 207.88 170.09 207.73 171.71 208.47 172.61 208.43 173.09 209.45 174.01 211.32 174.01 212.16 174.47 211.4 175.09 211.2 175.9 210.3 175.6 209.73 177.24 209.29 177.67 208.08 177.88 206.52 177.44 203.7 177.16 204.51 179.49 204.86 179.82 204.89 180.81 204.22 182.71 203.55 183.38 202.79 183.48 201.55 185.17 199.69 185.77 198.54 185.72 197.92 186.93 198.38 188.11 197.81 188.85 197.92 190.87 197.52 191.3 197.58 192 196.84 193.48 196.97 194.46 196.68 195.21 196.06 195.42 194.87 196.89 194.12 198.7 194.35 199.98 194.09 201.5 195.16 202.84 195.15 203.32 193.85 203.94 192.2 204.19 190.93 204.58 189.32 203.56 189.61 201.15 189.9 200.32 191.07 199.63 191.2 199.01 190.96 198.08 191.68 197.13 191.75 196.44 191.46 195.53 191.58 194.9 192.6 193.31 193.08 191.46 192.93 191.07 193.75 188.44 193.97 186.46 193.13 185.49 193.1 183.19 192.23 182.21 191.93 180.97 190.82 181.32 190.78 182.87 190.3 183.74 190.86 185.36 191.27 185.9 190.51 188.64 189.91 189.25 188.47 190.08 187.29 189.9 187.65 187.4 188 186.79 187.46 186.29 186.26 186.19 185.91 187.04 185.99 190.29 186.24 191.59 187.59 192.8 187.69 194.14 187.25 195.03 187.37 196.11 186.76 196.46 186.34 195.15 185.35 195.32 185.06 197.3 184.15 197.13 183.91 199.78 183.36 200.89 184.44 203.29 184.17 203.85 182.51 204.84 182.08 205.69 181.54 206.06 181.25 206.96 181.77 207.04 181.56 207.88 181.96 208.63 181.65 209.87 180.21 209.73 179.88 209.18 178.52 209.97 178.35 210.93 177.77 211.22 177.8 211.85 176.48 212.51 176.38 212.93 175.25 213.69 174.6 214.39 173.69 214.51 173.55 216.02 172.96 216.7 171.65 218.7 171.28 218.88 171.03 219.91 170.02 221.68 169.43 222.31 169.36 222.86 168.53 223.39 168.99 224.03 168.4 225.3 167.46 225.49 166.55 226.86 166.74 227.68 166.22 228.24 165.7 229.79 165.99 230.15 165.54 231.08 163.63 232.99 163.6 233.81 163.02 233.89 162.33 234.64 160.93 236.54 159.9 237.18 159.27 239.75 158.82 240.08 158.85 240.87 157.8 242.74 157.67 243.38 156.59 245.35 156.12 247.8 155.65 248.95 155.85 249.58 154.78 250.17 154.98 251.66 154.53 252.66 154.96 253.3 155.88 253.92 156.42 254.6 157.34 254.64 158.16 255.25 158.92 254.54 159.52 254.6 160.02 252.47 162.37 252.7 163.56 253.63 165.93 253.72 167.65 253.56 168.68 253.08 170.19 251.65 172.46 250.15 173.9 249.54 174.96 249.47 176.06 248.93 177.08 248.98 178.31 248.12 179.88 248.19 182.05 245.48 183.36 245.01 184.45 243.38 183.46 243.35 182.36 243.03 181.72 243.43 181.04 243.36 180.97 244.13 180.18 244.56 179.44 244.49 177.85 245.27 176.92 246.01 174.73 246.46 174.43 246.98 173.2 246.95 172.63 247.41 172.42 248.13 170.39 248.84 169.5 249.47 168.3 252.03 167.75 252.38 166.47 252.37 165.02 250.86 162.13 249.83 160.07 250.13 159.31 249.76 159.33 248.57 158.72 248.12 158.69 247.23 159.54 246.3 160.76 243.62 160.7 243.38 161.78 241.1 162.87 239.2 163.55 238.37 164.36 237.86 164.23 237.4 165.25 235.56 166.66 234.11 167.9 232.15 168.2 230.95 168.2 229.57 169.68 227.25 170.64 226.53 173.23 222.64 174.1 222.52 174 221.51 174.55 220.81 175.24 218.72 176.85 218.55 178.14 218.08 178.96 217.12 179.57 216.94 179.71 216.28 180.31 215.26 179.97 214 180.24 213.55 182.37 212.9 182.84 212.48 184.56 211.78 185.21 211.82 186.12 211.01 186.59 209.7 189.06 208.61 189.44 208.94 188.87 209.71 188.32 210.9 188.76 211.22 191.37 209.4 193.39 208.47 193.68 208.63 194.62 207.89 195.1 207.93 197.05 206.94 197.86 204.72 197.78 201.97 197.55 200.86 197.66 199.46 198.72 197.11 199.28 196.55 200.36 194.9 200.7 193.1 201.22 192.13 201.97 191.87 202.56 191.06 203.43 190.91 203.81 190.47 204.43 187.56 205.37 186.71 206.42 185.43 207.55 185.02 207.7 184.13 209.93 182.21 210.69 182.08 211.61 179.92 212.28 179.05 215.75 179 215.86 176.53 214.63 172.33 214.47 170.69 213.7 169.58 211.54 168.78 211.31 167.83 211.67 166.73 213 166.54 213.2 167.85 214.11 169.25 215.14 169.61 217.07 169.65 218.43 169.86 219.31 170.69 220.79 170.92 220.55 171.88 220.67 172.77 221.98 175.52 222.04 176.14 221.74 177.88 222.36 179.53 222.55 180.43 222.46 183.01 222.84 183.82 224.79 185.49 224.78 186.43 224.48 187.19 223.44 188.22 222.8 188.52 222.76 189.16 224.01 190.31 224.58 190.52 224.61 191.23 225.09 192.45 225.75 192.92 225.83 194.25 225.65 195.34 225.09 195.89 223.95 196.23 223.11 196 222.46 196.26 221.26 196.12 220.85 195.77 219.04 195.59 217.31 195.77 217.69 196.22 217.74 197.99 215.52 200.95 215.26 200.92 214.25 202.12 214.33 202.84 213.24 203.36 212.23 203.06 212.17 201.83 211.32 200.69 210.72 200.64 209.43 201.65 210.58 201.78 210.59 203.53 211.1 207.9 210.88 209.46 210.59 209.96 211.99 210.97 212.41 211.94 213.24 212.15 212.41 217.06 213.04 218.28 211.87 221.28 211.35 222.03 210.7 222.28 209.96 221.68 209.41 223.23 208.4 223.36 207.77 223.85 206.77 223.93 204.72 225.26 204.33 226.46 202.86 227.49 202.2 228.24 203.46 228.15 205.17 227.49 205.83 226.37 207.19 226.78 208.18 225.97 209.52 225.84 210.01 225.18 211.4 225.38 212.57 223.32 213.12 222.58 214.53 221.3 215.25 220.09 216.74 219.05 217.38 219.55 217.19 220.76 217.64 221.22 216.9 222.06 218.9 222.76 218.33 223.11 217.73 224.21 218.13 225.98 217.25 228.36 217.52 229.1 219.12 229.29 219.94 229.09 220.5 229.81 221.73 229.92 222.52 230.99 221.61 232.05 221.56 232.66 220.06 234.71 220.04 235.39 219.59 236.26 218.63 237.16 218.83 239.13 218.23 240.13 218.41 241.65 218.21 242.17 218.55 242.97 216.91 246.3 216.59 246.47 216.36 248.26 216.88 249.96 217.7 251.09 217.11 252.25 216.67 252.58 215.84 255.3 214.56 257.23 214.19 258.3 213.72 258.41 213.92 259.61 214.64 261.4 215.69 262.85 216.48 264.61 216.14 265.39 214.57 267.55 213.26 268.94 212.47 269.23 211.05 267.92 211.06 266.48 209.63 266.81 209.15 266.63 207.98 265.64 205.03 264.8 203.88 264.19 203.16 264.22 202.89 265.08 201.37 264.85 201.23 264.46 201.9 262.37 202.64 261.63 202.04 260.97 203.31 258.63 203.2 257.95 203.66 257.19 205.35 257.21 205.05 256.6 204.08 255.95 205.28 254.29 207.53 252.85 207.69 252.3 208.79 250.93 208.64 249.92 207.77 250.14 206.35 251.03 204.74 251.49 204.42 251.89 202.88 252.36 201.76 253.98 200.52 254.62 200.06 255.4 199.22 255.72 198.06 257 198.27 257.68 197.7 259.31 196.73 260.76 196.11 262.54 195.69 263.33 195.62 264.8 195.09 265.4 195.56 266.09 196.19 267.86 197.02 267.76 197 268.63 197.39 269.44 199.1 269.79 198.56 270.29 198.26 271.58 198.83 273 198.71 273.84 196.93 275.36 196.5 275.98 195.35 275.66 195.58 277 196.73 277.03 195.81 278.5 195.75 279.73 195.24 281 194.03 281.91 193.23 281.75 192.91 280.94 192.55 279 191.47 278.63 190.72 276.85 189.85 275.16 189.81 273.42 189.48 272.88 188.15 272.05 187.79 270.88 187.29 270.18 189.2 265.48 189.6 265.34 190.44 264.2 191.25 263.52 192.16 261.89 192.04 260.97 191.64 260.27 191.44 258.94 192.11 256.09 193.17 256.19 193.03 255.62 191.5 254.92 191.52 254.25 192.18 252.64 190.33 253.01 190.41 252.34 189.86 251.68 189.42 250.14 189.76 249.25 189.92 248.1 189.36 246.13 188.39 246.43 188.85 247.28 188.56 248.81 187.8 250.3 188.6 251.32 188.35 253.13 188.84 254.75 188.08 256.95 188.94 257.6 188.59 258.72 187.7 259.59 187.43 259.13 187.79 258.21 187.1 258.23 186.53 259.73 185.36 260.23 186.01 262.13 185.22 262.61 184.78 263.83 183.82 264.58 183.59 265.63 184.24 265.82 183.7 268.89 184.18 269.22 184.02 270.71 184.85 271.34 184.84 272.4 185.21 273.25 185.73 273.68 185.84 274.31 186.5 275.2 186.16 276.61 185.81 276.99 185.2 279.03 184.44 280.46 183.91 281 184.39 281.41 185.46 282.23 186.07 282.14 186.36 283.94 185.76 284.46 185.85 285.52 185.47 286.21 186.4 288.76 186.85 289.37 187.3 287.81 187.14 287.47 187.46 286.3 187.31 285.73 187.49 284.31 187.49 282.52 188.18 280.2 188.84 279.84 189.39 281.94 189.85 282.02 190.97 283.87 191.14 284.98 191.49 285.33 191.32 286.2 191.59 287.69 192.33 287.9 192.49 288.58 193.7 288.76 194.63 289.47 194.87 290.06 196.69 291.11 197.54 291.82 197.64 292.81 198.92 292.9 199.95 292.59 200.33 291.82 201.31 291.85 201.84 292.44 202.7 291.7 203.44 289.86 204.67 288 206.02 286.85 206.93 286.8 207.97 285.88 208.97 283.65 209.34 281.77 211.48 280.88 212.58 278.42 212.48 277.35 212.86 275.74 214.26 274.06 214.52 273.27 214.67 270.83 215.07 270.62 215.87 270.14 215.89 269.24 217.92 265.98 218.28 264.96 218.4 263.49 217.63 261.78 216.56 259.97 217.22 259.6 218.02 259.97 219.38 261.29 220.58 261.68 221.41 263.29 222.67 264.69 224.17 265.98 225.24 266.28 226.04 266.75 226.93 267.62 227.31 268.33 228.04 268.13 228.42 267.39 229.27 267.14 229.58 266.31 230.27 265.33 230.56 264.43 230.11 263.62 229.06 263.06 228.22 263.12 226.99 262.58 227.04 261.73 228.03 261.55 228.54 259.74 229.77 259.66 231.31 259.36 232.53 258.52 233.22 258.94 233.94 258.66 234.24 257.85 235.28 257.44 238.06 256.67 239.31 255.64 239.35 251.85 239.18 249.77 239.35 249.21 238.88 248.47 238.61 247.34 238.43 246.66 237.15 245.51 236.86 244.44 236.88 243.28 236.51 241.61 235.97 241.51 235.32 240.74 233.7 240.27 235.25 239 235.06 237.72 235.22 236.98 236 235.69 235.98 235.12 235.3 234.05 233.5 232.53 232.78 231.4 232.31 230.23 232.83 229.14 232.12 228.36 232.58 227.54 232.33 225.99 232.46 225.35 231.35 222.87 231.35 222.51 230.23 221.43 232.21 220.29 233.73 218.55 234.88 220.15 236.22 220.39 236.86 219.87 238.19 219.31 238.56 218.14 238.04 216.63 236.09 214.92 235.53 214.18 234.17 213.98 234.16 213.15 233.36 213.42 232.12 212.81 231.08 211.91 230.44 209.93 229.61 209.02 228.9 208.58 230.06 208.16 231.06 207.29 231.73 207.14 231.7 206.47 232.33 204.51 232.09 203.97 232.39 203.27 234.21 202.29 234.75 201.61 235.17 200.51 235.21 199.61 235.54 198.62 235.24 197.24 234.64 195.82 234.92 194.23 234.18 193.31 233.53 192.15 233.47 191.29 233.32 190.63 233.8 190.18 233.9 189.14 233.51 186.97 234.96 185.94 237.88 182.01 239.24 181.12 239.66 180.29 239.77 178.95 240.35 177.75 239.98 176.12 240.6 174.07 240.53 173.49 241.24 171.23 242.4 169.45 242.39 167.72 242.84 165.87 243.87 165.68 245.77 164.82 248.7 164.43 249.96 163.48 250.64 162.76 250.83 162.14 250.58 161.38 250.8 158.51 250.63 157.1 251.18 155.67 251.88 155.4 251.06 153.79 249.98 153.82 249.11 153.27 246.4 151.12 246.51 149.85 245.88 148.89 244.05 148.52 243.8 147.61 241.78 146.13 241.76 145.45 241.34 144.34 239.64 143.6 239.5 142.5 238.85 141.07 238.14 140.59 237.54 139.34 237.85 138.74 237.29 137.97 237.69 137.22 237.65 135.53 237.14 133.5 238.47 130.91 237.84 130.57 237.21 129.59 237.48 128.67 237.12 127.45 237.48 126.06 236.71 124.61 235.69 124.3 235.13 123.62 233.93 123.79 232.82 124.17 231.95 123.91 231.81 123.21 231.32 122.7 230.26 122.8 229.41 123.2 228.99 123.75 229.36 125.87 229.86 125.91 230.09 126.69 228.77 128.57 228.06 129.07 227.23 128.93 226.38 129.79 226.29 131.64 226.73 132.31 226.58 132.98 227.56 133.68 227.7 134.68 228.51 136.13 229.09 136.6 229.82 138.43 231.72 139.74 231.86 140.72 232.84 141.13 235.98 145.06 236.59 146.04 237.48 148.24 237.92 148.77 238.16 149.68 237.52 150 236.13 149.52 235.09 148.36 234.56 146.36 233.85 145.33 232.38 144.19 231.6 142.64 231.02 142.25 229.67 141.99 229.03 140.93 227.3 138.45 226.25 138.62 225.34 139.81 224.72 139.76 224.48 139.19 222.85 137.82 222.51 136.62 222.75 135.66 221.75 133.52 221.89 133.06 221.17 132.35 221.14 131.71 220.5 130.32 220.91 129.86 220.96 128.58 220.44 127.48 220.49 125.87 220.91 124.45 220.89 121.88 221.34 120.45 223.08 119.79 224.49 119.5 224.67 119.99 225.81 120.38 227 119.76 227.81 117.63 228.65 117.66 229.36 118.11 232.79 119.79 233.78 120.41 234.73 120.23 235.31 118.06 235.78 117.18 237.78 114.53 237.07 114.53 236.85 113.92 237.39 113.39 236.13 113.12 236.23 112.58 235.78 111.77 234.75 110.87 234.87 110.46 233.78 109.26 232.8 108.87 232.27 108.04 230.43 107.46 228.53 105.34 227.49 105.18 227.27 104.19 226.29 103.73 225.92 103.03 225.04 103.6 224.73 104.14 224 103.96 224.68 103 225.69 102.59 225.29 101.94 222.97 102.47 222.56 101.45 221.57 101.73 221.53 100.47 220.98 98.4 220.19 97.98 219.59 96.99 219.77 96.39 219.2 94.07 220.27 91.16 219.62 91.36 218.88 90.99 217.52 91.15 217.19 92.15 217.25 92.77 216.47 94.02 215.46 94.5 214.49 94.33 213.77 95.07 213.56 95.75 212.73 95.9 212.38 95.51 211.64 96.21 210.92 96.44 209.4 96.55 209.33 95.88 208.67 95.42 207.67 93.97 207.54 92.2 207.74 91.39 208.42 91.33 209.01 90.51 209.02 89.84 209.69 89.63 209.47 86.8 208.81 86.01 208.47 84.78 207.68 84.27 206.53 83.89 206.17 84.09 205.05 83.84 205.41 82.63 206.17 82.65 206.94 81.33 207.68 82.04 208.23 82.13 213.87 79.65 215.38 79.76 215.5 81.07 214.92 81.12 214.71 81.84 215.15 82.18 215.22 84.01 215.98 85.64 216.63 87.97 217.68 88.44 218 88 217.78 85.26 217.37 84.07 218.54 83.07 219.41 83.01 220.39 85.12 220.86 86.75 221.44 88.06 222.13 88.39 222.63 89.29 223.04 88.94 224.8 89.43 226.35 89.28 226.09 88.69 228.1 87.84 228.15 86.64 227.29 85.89 226.86 84.28 226.95 83.32 226.77 81.7 226.45 81.11 227.04 80.4 226.54 77.73 225.82 77.12 225.36 75.53 225.56 74.93 225.01 73.41 223.24 73.05 221.85 71.91 219.9 71.45 219.47 70.77 220.12 69.77 220.44 70.79 221.52 71.61 223.13 71.75 225.04 71.67 225.9 71.77 226.31 72.99 227.18 74.23 227.95 74.67 228.81 74.17 228.9 73.33 230.01 73.37 230.86 72.8 231.15 71.89 231.69 71.72 232.15 71.05 232.57 69.2 232.98 68.39 232.29 67.62 231.74 66.33 231.09 66.01 230.73 64.88 229.19 64.39 227.93 62.62 227.01 61.74 226.33 60.45 225.41 59.68 224.79 58.51 225.45 58.33 226.76 57.53 226.71 55.68 225.96 53.52 225.09 53.36 225.42 54.47 225.15 54.69 224.35 52.94 224.49 52.54 224.04 51.2 224.04 50.6 224.65 49.81 225.21 49.94 225.38 49 226.02 48.29 226.9 46.88 226.58 46.41 227.01 45.58 226.61 45.23 225.43 45.02 224.86 44.63 224.7 43.72 223.33 42.91 222.6 41.74 219.87 41.32 219.3 41.88 218.13 42.4 217.6 42.16 216.66 42.95 215.4 43.58 215.19 44.46 213.4 46.24 212.44 47.56 211.55 49.3 211.37 50.24 210.92 50.48 210.31 49.77 209.67 48.06 208.84 47.87 208.72 47.22 209.54 45.58 210.14 44.77 210.85 42.94 211.56 41.81 211.66 40.16 210.9 39.97 209.64 39.04 208.81 37.74 208.15 37.34 207.05 37.7 206.44 37.08 205.79 37.43 206.24 39.69 205.4 39.71 205.32 39.05 205.62 35.11 205.41 32.92 204.94 30.7 204.41 29.84 202.01 28.48 201.15 27.29 198.32 24.87 197.61 23.67 198.54 23.44 199.32 22.87 199.95 21.95 201.81 21.04 202.43 19.56 202.34 18.13 201.48 16.93 200.04 16.31 198.31 17.89 197.76 17.78 195.32 16.71 194.92 15.82 195.48 14.18 196.4 13.24 197.51 11.8 197.56 11.38 199.84 9.05 200.63 8.97 201.82 8.17 201.5 7.44 216.48 7.78 235.94 8.2 254.04 8.52 266.39 8.77 277.19 9.17 289.94 9.61 299.72 9.97 331.78 9.95 335.56 9.94 340.81 9.83 349.2 9.99 349.94 9.89 365.24 10.04 389.1 10.07 407.01 10.08 423.74 9.97 449.31 9.87 467.25 9.8 472.8 9.76 493.65 9.41 508.75 9.18 529.32 8.84 541.46 8.61 562.15 8.17 576.97 7.82 587.4 7.55 601.89 7.17 612.71 6.86 631.37 6.29 652.66 5.58 669.53 4.95 669.59 5 681.07 4.57 681.74 4.46 691.98 4.05 705.59 3.47 725.76 2.66 737.58 2.17 754.78 1.55 764.86 1 765.8 19.56 Z M 171.74 6.63 174.2 6.7 175.18 9.44 175.4 10.57 174.95 10.91 173.54 10.39 170.47 10.82 169.28 11.14 169.37 9.53 168.77 6.56 171.74 6.63 Z M 240.58 155.14 241.51 155.09 241.71 155.71 242.76 156.35 243.04 157.61 241.1 156.69 240.28 155.38 240.58 155.14 Z M 220.99 103.53 221.8 103.12 222.05 104.03 220.99 103.53 Z M 217.05 98.52 217.42 97.75 218.94 97.53 218.88 98.14 217.47 98.61 217.05 98.52 Z M 216.49 60.26 217.46 59 218.03 60.87 216.49 60.26 Z M 214.26 65.94 214.64 65.56 215.53 65.83 215.83 66.79 215.39 67.14 214.53 66.64 214.26 65.94 Z M 211.04 51.03 211.95 51.56 212.87 51.33 213.64 51.89 214.93 50.86 215.41 53.01 214.39 53.85 213.75 53.84 212.99 53.37 211.04 51.03 Z M 210.15 75.44 211.03 73.68 210.42 72.42 210.4 70.29 210.71 69.55 211.38 69.58 211.91 70.2 212.04 71.04 212.64 72.03 214.44 73.72 215.31 74.21 215.78 74.77 217.07 75.22 217.57 75.74 217.98 77.18 217.68 77.83 217.8 78.56 215.44 77.37 213.43 78.47 211.38 78.93 210.51 78.47 210.04 77.09 210.15 75.44 Z M 205.88 64.55 206.01 64.26 207.28 63.6 208.4 63.29 208.65 64.06 209.48 64.74 209.51 65.65 210.03 66.32 209.12 66.57 208.07 66.25 205.88 64.55 Z M 203.98 87.51 205.29 87.18 205.75 87.95 205.25 88.97 204.23 88.37 203.98 87.51 Z M 203.92 85.85 204.4 85.01 205.77 84.95 206.35 84.54 206.47 86.42 204.86 86.56 203.92 85.85 Z M 204.01 47.97 204.74 45.74 205.2 45.61 205.95 46.22 207.17 48.16 207.78 48.77 208.12 49.88 208.02 50.35 209.29 51.53 209.53 53.22 211.52 54.17 213.23 56.07 214.09 57.32 214.83 60.37 214.94 61.87 213.7 60.55 212.33 60.1 210.48 57.88 210.18 57.26 208.65 55.68 208.17 54.17 207.56 53.08 207.39 52.05 206.95 51.05 206.15 50.71 205.94 50.2 204.29 50.19 204.01 49.2 204.01 47.97 Z M 201.66 69.85 202.79 69.17 202.78 68.27 203.27 68.09 203.27 67.15 204.67 66.28 206.36 68.37 206.55 69.18 206.03 69.49 206.95 70.74 207.84 71.24 208.76 72.8 207.84 73.11 206.87 74.01 205.96 74.54 207.34 74.89 207.29 75.92 205.66 76.16 204.92 76.52 203.29 76.53 203.17 75.13 203.47 73.78 203.35 72.95 202.58 72.77 201.72 71.51 201.91 70.36 201.66 69.85 Z M 199.54 51.42 200 53.12 199.71 53.24 199.54 51.42 Z M 197.39 123.22 198.19 121.62 198.73 119.65 199.25 118.4 200.67 116.3 201.37 115.55 201.72 114.7 201.9 113.43 202.41 111.86 203.99 110.25 204.72 108.45 205.26 108.13 206.07 106.41 206.52 106.06 207.46 104.44 208.03 102.96 208.41 101.45 208.53 97.46 209.89 97.29 210.52 96.92 211.9 97.32 212.55 97.71 213.28 96.73 214.04 96.09 214.8 96.35 215.31 97.01 215.42 98.27 216.44 98.6 216.31 100.04 216.85 101.65 216.83 102.13 215.94 103.4 215.06 104.19 215.4 104.65 216.28 104.86 218.22 105.66 219.62 106.6 220.27 107.53 221.14 108.11 221.96 109.2 223.07 109.93 223.97 111.5 224.13 112.95 223.51 113.95 222.28 115.13 221.45 115.57 219.37 115.67 218.72 115.57 217.11 113.61 216.2 113.13 214.66 113.05 212.76 113.62 211.91 114.38 212.49 115.29 212.06 116.04 211.94 117.01 211.4 117.63 210.7 117.1 210.16 115.74 211.02 115.73 211.46 115.32 210.98 114.43 210.29 114.37 208.94 115.16 208.28 116 208.2 116.56 209.25 117.89 209.16 119.92 208.57 120.95 206.7 121.78 206.23 121.54 205.41 121.8 204.01 121.81 202.82 122.07 201.57 122.58 201.14 123.52 201.75 124.06 201.69 124.62 202.21 125.39 203.24 125.37 204.39 124.81 205.06 124.2 206.51 124.43 206.95 124.05 208.4 124.14 209.55 123.61 209.79 124.21 210.89 124.71 211.52 124.32 212.66 125.85 213.07 125.94 213.81 126.78 213.7 127.47 214.97 129.19 215.64 130.42 215.68 131.63 216.05 132.62 216.04 133.83 216.9 134.68 217.31 135.5 217.41 137.86 218.02 139.13 218.23 140.12 217.98 140.82 216.79 142 216.76 142.44 217.54 144 218.41 146.18 219.23 146.41 219.28 148.43 218.9 149.73 219.88 150.27 220.05 151.46 220.03 153.88 219.53 154.73 219.87 155.38 220.85 155.41 221.89 154.48 222.46 152.54 222.79 151.9 222.19 149.85 222.41 149.01 222.05 148.34 222.44 147.86 222.76 146.59 222.19 145.71 221.39 143.38 222.61 143.26 223.42 143.58 224.82 143.8 225.51 144.94 226.6 146.32 226.98 146.42 228.97 149.86 230.66 151.29 232.17 151.55 233.11 151.97 233.43 152.58 235.03 153.02 236.14 152.98 236.5 155.14 236.42 156.64 236.51 158.09 236.74 158.85 238.2 160.49 238.56 162.76 238.46 165.17 237.83 166.46 237.61 167.52 236.94 167.88 235.75 169.54 235.82 171.55 235.33 172.47 234.34 172.2 233.66 171.18 234.1 170.08 233.09 169.71 232.14 171.06 231.45 171.18 230.28 170.77 230.32 170.33 228.87 168.42 228.87 167.53 229.35 166.51 229.42 165.2 228.86 163.49 226.7 160.48 226.67 159.91 225.72 159.44 224.84 159.43 223.46 159.8 222.08 160.66 221.41 161.86 218.82 162.67 218.33 161.89 218.43 161.14 219.26 159.87 219.43 158.83 218.85 157.72 217.62 156.77 215.45 156.14 214.84 155.14 214.29 154.67 214.01 153.8 212.96 153 214.05 151.85 214.39 150.6 214.29 149.24 213.24 148.03 213.21 147.59 212.43 146.73 212.54 145.73 213.16 144.47 213.45 143.19 214.14 141.11 213.84 137.42 213.57 136.08 212.85 134.31 211.71 133.4 209.54 133.01 207.61 133.56 206.44 134.43 205.84 133.28 205.53 131.33 204.91 130.29 204.14 129.7 203.11 128.44 200.78 127.43 199.86 125.96 198.04 125.06 197.37 123.69 197.39 123.22 Z M 193.62 68.76 193.98 68.51 194.34 67.41 195.35 67.77 194.98 68.48 193.75 69.08 193.62 68.76 Z M 192.63 71.48 192.86 70.48 193.34 69.83 193.92 69.85 194.69 69.09 196.63 70.45 198.56 73.05 198.73 73.62 198.39 74.63 196.84 76.08 196.09 77.27 194.79 77.7 193.5 75.4 193.96 74.55 192.93 74.18 192.63 71.48 Z M 191.6 45.33 192.37 44.99 193.56 45.41 192.97 45.91 191.6 45.33 Z M 184.75 42.18 185.21 41.78 186.71 41.79 187.43 42.58 185.55 42.23 185.34 42.89 186.66 43.76 187.62 43.73 188.18 44.28 187.82 45.01 186.58 45.28 185.95 44.74 185.3 44.65 184.59 43.98 184.75 42.18 Z M 180.86 85.35 181.4 82.32 182.13 81.05 182.39 79.45 182.88 78.9 183.99 78.67 183.47 76.28 183.69 74.52 185.12 74.63 185.88 73.71 186.64 73.47 186.75 71.85 187.31 71.25 187.4 73.93 188.49 74.13 188.5 72.81 189.11 72.69 189.24 73.96 188.32 74.88 188.65 75.9 189.81 75.93 190.38 76.63 191.15 75.87 191.44 76.33 189.67 77.36 188.88 80.54 188.18 81.33 188.38 82.39 188.85 82.66 189.38 83.9 190.06 84.34 190.31 85.62 189.37 88.22 189.57 88.53 190.95 88.11 190.92 88.63 190.15 89.86 190.84 90.1 191.57 89.69 192.63 88.21 191.93 86.84 191.99 84.54 191.74 83.91 191.41 81.84 191.82 79.81 192.33 79.6 192.67 78.85 193.94 78.65 195.19 78.78 196.23 78.63 197.74 79.82 198.52 80.67 198.46 81.31 196.99 80.93 196.16 81.64 196.17 82.15 195.48 83.26 193.78 84.19 193.46 85.75 194 86.47 193.37 88.3 194.07 89.46 194.76 89.49 195.22 90.31 194.45 90.83 194.43 91.86 193.77 92.72 194.82 92.84 193.87 94.19 192.82 94.2 192.42 93.46 191.54 92.99 191.29 92.51 190.35 93.1 189.13 92.64 188.92 93.25 190.21 93.78 189.79 94.26 187.88 94.48 186.75 94.36 185.65 93.97 186.33 92.97 187.22 93.21 187.48 92.39 186.3 91.76 186.85 91.36 187.83 91.57 188.05 92.36 189.02 91.27 188.82 90.87 187.6 90.39 184.84 90.17 184.37 91.01 182.63 91.49 182.21 90.62 183.32 90.63 183.67 89.67 183.58 88.68 182.73 87.97 181.94 88.32 180.92 88.32 181.23 86.42 180.86 85.35 Z M 174.21 68.35 174.79 68.22 175.23 69.04 175.94 68.86 177.95 67.99 180.17 68.77 181.79 69.16 181.55 70.15 182.56 71.03 182.52 69.96 183.01 69.34 183.96 69.08 184.35 69.55 185.36 69.81 185.42 70.82 183.65 72.77 183.13 72.55 181.86 72.65 182.06 73.16 181.49 73.77 181.74 74.29 181.42 74.86 179.13 74.62 178.95 73.73 177.96 74.18 177.09 73.38 177.34 72.58 178.54 73.18 177.75 71.76 177.33 71.49 175.96 69.88 174.49 70.03 174.61 69.44 174.21 68.35 Z M 173.1 62.37 173.82 61.7 174.65 60.46 174.74 59.55 175.21 58.68 176.45 57.72 177.54 56.62 177.85 55.78 180.06 54.52 181.44 53.05 182.12 51.81 181.74 50.71 183.66 50.55 184.66 50.14 187.08 50.11 187.81 50.47 188.57 50.4 189.64 51.48 190.44 51.62 192.51 52.42 195.99 55.09 196.63 55.67 198.75 56.9 201.8 58.29 201.84 58.58 200.5 59.14 200.48 60.18 199.04 61.32 198.07 61.66 197.43 62.6 196.4 63.07 195.55 64.19 195.02 64.45 195.96 67.05 195.4 67.07 194.52 66.4 193.89 67.1 192.78 67.06 193.11 65.02 192.72 64.31 192.1 64.64 191.12 64.04 189.92 61.4 189.1 60.29 188.48 60.44 187.93 59.25 187.8 58.22 187.82 56.03 187.98 54.51 187.74 53.77 186.8 53.06 184.47 53.76 184.24 54.27 184.59 55.29 185.31 56.62 184.87 57.24 185.15 59.11 185.67 59.85 186.43 60.21 187.9 61.57 188.39 63.87 189.73 65.46 189.65 66.67 188.84 67.41 188.71 68.07 187.77 68.46 187.42 68.92 185.33 68.23 184.38 68.46 183.25 68.41 182.21 68.07 182.23 67.54 181.17 67.48 180.63 66.65 180.84 65.92 180.41 64.28 180.75 63.26 180.04 62.33 179.39 62.75 177.75 60.67 177.55 61.27 176.83 61.77 177.26 63 178.22 64.16 178.91 65.59 178.85 66.43 178.26 67.12 177.11 66.78 177.1 67.82 176.39 68.06 175.19 67.7 175.19 67.06 176.89 66.4 176.7 65.53 176.01 64.66 175.26 64.64 173.85 65.47 173.26 65.22 173.1 62.37 Z M 170.69 64 170.97 63.69 172.08 64.27 172.24 65 171.29 65.17 170.69 64 Z M 169.68 51.73 171.03 51.25 171.92 50.5 172.5 49.27 173.58 49.43 174.54 48.73 175.53 48.61 175.57 50.04 175.93 51.16 175.55 51.53 175.88 52.8 174.91 54.18 173.45 55.13 172.11 55.49 172.81 54.06 172.76 53.35 171.73 52.47 169.68 51.73 Z M 159.98 59.09 161.28 59.34 162.23 59.92 163.5 60.02 164.61 60.67 165.06 61.56 164.37 61.59 162.46 60.76 161.62 60.12 159.94 59.3 159.98 59.09 Z M 155.8 66.99 156.61 65.19 157.51 64.52 158.27 63.1 160.53 63.96 161.06 63.6 160.96 63.01 161.64 62.76 162.44 63.08 162.57 63.53 163.71 63.32 165.64 63.24 166.1 63.78 166.42 64.86 165.93 66.4 166.01 66.78 167.52 67.58 168.54 67.93 170.74 70.42 171.02 71.3 172.29 72.24 174.2 72.55 174.69 72.93 175.3 74.2 175.22 75.66 176.19 76.58 177.49 76.48 177.81 76.82 178.71 76.56 178.81 77.85 178.42 78.91 177.37 79.75 176.42 79.69 175.16 78.74 174.01 79.04 173.59 81.38 173.56 82.54 174.61 84.23 174.54 85.42 174.85 86.21 176.7 87.5 177.77 87.58 178.32 86.74 179.02 86.89 179.37 87.39 179.17 88.17 179.24 89.28 178.63 89.32 177.88 88.88 173.65 88.13 173.09 88.25 171.36 87.48 170.05 86.55 170.06 86.24 168.94 85.76 168.68 84.69 167.23 84.12 166.3 84.33 165.37 83.27 164.41 82.79 163.7 82.75 162.92 81.83 162.34 81.74 161.82 80.76 160.7 79.48 160.57 78.64 159.48 76.91 159.42 76.13 159.77 75.02 159.74 74.19 159.19 73.9 158.33 72.04 158.38 71.12 158.91 70.05 157.68 68.58 155.97 68.21 155.8 66.99 Z M 152.97 53.52 152.85 52.91 154.99 52.85 156.34 53.34 158.2 53.79 159.24 54.34 159.6 54.89 161.5 56.16 162.78 58 160.61 56.56 159.71 56.93 158.48 56.94 158.12 57.8 157.5 57.28 156.4 56.98 154.52 55.7 154.14 55 152.97 53.52 Z M 221.66 225.66 223.02 225.85 224.21 226.41 223.62 227.05 223.71 227.92 223.2 228.24 222.43 227.88 221.51 226 221.66 225.66 Z M 213.36 208.01 213.88 207.69 215.18 206.41 215.5 206.55 215.91 207.67 216.41 206.48 216.07 205.29 216.03 203.39 216.33 202.35 216.24 201.07 217.39 199.5 218.26 199.91 218.56 201.34 219.65 202.06 220.12 201.54 220.9 201.89 221.55 201.4 222.19 202.84 222.25 203.55 221.81 205.42 221.68 207.06 222.45 208.76 220.99 209.55 221.65 211.13 222.24 211.83 223.53 212.74 222.77 214.43 221.96 213.78 220.94 214.49 220.39 214.27 219.94 214.94 221.18 215.3 222.35 215.01 222.59 216.09 222.49 218 220.88 218.12 220.82 218.47 221.95 218.81 222.38 219.17 223.91 219.74 224.27 220.22 222.68 220.63 221.85 221.35 220.39 221.51 219.95 221.3 219.04 219.16 218.43 218.18 217.82 217.99 217.49 217.02 216.58 217.29 216.08 218.48 215.46 218.92 214.9 218.32 214.56 217.44 214.94 215.16 214.59 214.5 214.61 210.97 214.33 210.69 213.36 208.01 Z M 204.02 265.65 204.62 265.5 205.3 265.87 206.06 265.89 207.57 267.16 208.21 267.1 208.29 268.14 208.85 268.45 210.27 269.81 210.8 270.8 212.11 271.72 211.91 273.12 211.09 273.88 210.65 274.63 210.06 274.6 209.47 274.1 208.68 272.86 208.4 272 207.93 271.63 207.46 270.68 206.82 270.18 206.29 269.13 205.23 267.74 204.11 266.55 204.02 265.65 Z M 186.45 267.97 186.65 266.47 187.45 265.77 188.16 266.15 187.42 267.43 187.21 268.17 186.45 267.97 Z M 179.63 138.4 180.96 137.01 181.93 137.39 182.18 137.88 180.44 138.67 179.63 138.4 Z M 78.6 308.15 79.36 308.01 80.61 308.33 81.63 309 81 309.7 79.88 308.98 79.37 308.89 78.6 308.15 Z M 15.6 92.62 16.46 94.01 15.81 94.15 15.6 92.62 Z M 218.9 253.66 219.14 252.52 219.77 252.22 219.95 250.93 218.84 248.67 218.96 247.73 219.47 246.44 220.23 245.44 220.41 244.06 220.42 240.23 220.97 238.42 221.65 237.41 222.14 236.23 223.7 235.18 224.15 233.13 224.41 231.02 225.22 231.19 226.84 232.21 226.2 232.98 226.01 234.68 227.26 235.99 227.49 236.75 228.65 237.79 227.63 239.71 227.97 240.4 227.9 242.06 228.23 243.19 228.87 244.19 227.83 245.16 228.03 246.6 229.06 247.41 232.33 247.91 234.48 249.53 233.97 250.03 231.74 250.54 231.32 250.98 229.93 251.51 229.59 252.07 227.89 252.85 226.78 254.42 226.17 256.15 224.58 255.92 223.98 255.54 223.85 254.94 224.55 252.74 224.96 252.34 225.28 251.38 226.35 251.79 227.48 249.98 228.43 249.5 227.85 248.52 227.83 247.08 226.98 247.37 225.75 247.42 225.12 248.37 225.7 248.65 226.52 248.4 227.23 249.28 226.56 250.23 225.19 249.55 224.35 249.56 223.22 250.59 222.81 252.82 222.81 254 222.57 254.82 222.36 257.29 222.15 258.02 220.96 257.93 220.6 257.62 219.55 257.5 218.65 255.65 218.9 253.66 Z M 206.53 284.72 207.06 282.55 207.56 282.01 207.76 283.47 207.59 284.12 206.53 284.72 Z M 197.94 275.84 198.68 275.32 199.01 274.46 200.01 273.28 200.3 272.37 202.82 272.4 203.19 273.16 204.05 273.59 203.9 274.72 204.57 274.98 204.83 274.22 205.93 274.8 206.6 276.4 206.53 277.02 204.98 278.08 202.89 278.39 201.37 278.07 200.46 277.32 199.09 277.12 197.93 276.28 197.94 275.84 Z M 196.23 283.63 197.74 282.81 197.49 281.88 198.13 280.47 198.78 280.08 199.92 278.88 201.04 278.66 201.35 279.37 202.46 279.86 203.22 280.86 203.18 284.56 202.79 284.77 202.94 285.75 202.04 286.04 201.63 285.49 200.98 285.43 200.73 286.63 201.12 287.39 200.92 288.1 200.13 288.39 199.17 287.79 198.17 286.35 197.4 285.8 197.06 285 196.1 284.16 196.23 283.63 Z" fill-rule="evenodd" fill="none" stroke="currentColor" stroke-width="46.400"/>
</g>
</svg>