<?xml version="1.0"?>
<svg xmlns="http://www.w3.org/2000/svg" version="1.2" baseProfile="tiny" width="800" height="604" viewBox="0 0 800 604" stroke-linecap="round" stroke-linejoin="round">
<g id="state">
<path d="M 668.25 602.82 655.71 602.62 646.08 602.49 641.68 602.49 631.41 602.39 623.06 602.4 611.14 602.49 602.64 602.52 591.19 602.54 581.77 602.5 580.48 602.52 562.76 602.46 555.67 602.51 544.35 602.81 540.48 602.88 534.05 602.82 529.44 602.67 512.25 602.34 502.32 602.31 494.61 602.2 489.57 602.18 476.71 602.06 464.8 601.82 447.65 601.62 437.25 601.48 432.47 601.33 423.3 601.16 402.17 601.07 385.88 601.07 375.81 600.81 370.32 600.73 367.49 600.78 359.34 600.73 346.88 600.83 340.33 600.83 327.13 600.91 324.05 600.88 308.5 600.79 305.27 600.82 295.66 600.71 296.55 599.79 296.41 599.04 295.78 597.86 295.5 596.59 294.86 595.74 294.17 595.27 293.52 594.22 293.2 592.9 290.86 591.13 289.87 589.78 289.73 588.81 288.94 586.8 288.14 585.75 287.81 584.67 286.62 583.78 285.51 583.35 281.58 582.53 280.69 582.44 279.04 581.95 269.28 580.43 266.84 579.82 262.88 579.02 261.48 578.53 260.16 577.82 259.14 577.5 257.06 577.76 255.04 577.32 253.39 576.47 252.18 576.2 251.35 575.72 250.27 574.44 248.78 573.46 247.41 572.92 246.54 573.01 244.91 572.07 244.42 570.86 243.64 570.53 242.08 570.73 241.61 570.26 241.57 569.57 240.91 568.96 240.32 568.9 240.2 568.13 240.9 567.47 239.7 566.49 239.51 564.8 238.88 563 238.49 561.2 238.48 558.83 237.94 558.53 237 558.62 236.32 557.88 236.79 556.08 235.84 554.01 235.91 552.52 235.61 551.56 233.01 549.71 230.78 548.88 229.98 548.73 229.62 548.05 229.93 546.63 229.87 545.86 229.15 544.07 229.24 543.24 229.71 541.93 229.58 541.04 228.4 539.4 228.14 537.35 226.56 533.32 225.89 531.15 225.27 527.22 225.55 526.65 225.8 522.46 225.49 520.65 225.46 519.32 225.81 518.56 228.31 517.47 230.01 515.71 230.61 513.93 231.2 513.35 232.48 511.58 232.55 510.84 233.18 509.94 234.64 509.13 238.4 506.28 240.59 504.33 241.2 502.91 240.69 502.13 239.4 501.99 239.39 500.62 238.03 498.77 237.57 497.94 234.73 495.08 231.86 493.42 230.78 492.97 228.49 492.3 226.31 491.47 225.04 490.85 222.32 490.43 221.7 489.98 220.6 488.16 221.6 487.21 222.47 485.6 222.87 484.37 222.15 481.16 221.63 480.47 220.18 479.2 218.79 477.78 218.19 476.52 218.34 475.88 219.34 475.16 219.89 474.4 220.56 472.63 220.25 471.82 220.24 470.56 220.29 469 219.26 468.08 218.24 467.49 217.75 466.32 216.9 465.35 216.82 464.19 218.26 462.13 218.45 460.38 217.76 459.14 215.62 457.47 214.92 457.06 213.55 455.5 213.58 453.93 214.28 452.51 214.19 451.26 213.15 450.31 212.95 448.56 213.04 447.63 213.67 444.97 213.59 443.11 214.86 441.33 215.3 440.28 215.29 438.51 216.78 434.6 214.38 432.28 213.66 430.13 213.23 429.71 212.63 428.02 212.42 426.46 211.53 425.11 210.73 424.43 209.6 423.86 207.97 422.38 207.44 420.55 206.15 419.21 204.64 418.57 203.89 417.81 203.18 416.59 202 415.99 201.15 414.68 200.7 413.25 198.19 411.05 195.54 409.78 194.36 408.24 193.16 407.32 192.43 405.86 191.01 404.84 188 403.86 185.8 403.99 183.87 403.4 182.28 402.55 179.57 402.21 177.04 402.13 175.27 401.7 172.37 401.45 170.4 400.46 169.43 399.1 168.08 398.28 166.79 397.88 165.23 396.8 164 396.74 162.29 395.31 161.53 393.89 159.4 392.27 157.59 392.11 155.99 391.4 155.58 389.24 154.47 388.14 152.95 387.61 150.19 387.36 149.53 387.1 147.2 385.69 144.29 384.8 141.59 383.5 140.03 381.65 137.98 380.79 135.41 379.26 134 378.73 133.84 377.55 133.33 376.64 132.08 375.36 131.66 374.2 132.32 372.72 132.42 371.92 131.26 370.56 131.31 369.23 130.42 368.35 128.08 367.46 127.47 366.25 128.85 364.61 128.61 363.32 127.61 361.57 127.03 361.04 125.32 360.31 122.87 357.84 121.52 357.05 119.31 356.63 117.6 355.85 117.01 355.43 114.74 354.92 112.66 354.07 110.59 352.39 109.53 352.03 107.31 351.93 106.17 351.41 102.81 350.66 101.2 349.66 99.31 349.33 96.31 349 91.99 348.14 88.62 347.27 86.94 346.49 85.49 345.11 82.53 343.67 80.58 342.38 79.44 341.36 78.46 340.16 77.88 338.98 77.94 337.29 76.84 335.68 76.48 334.62 75.95 333.84 74.46 332.78 72.02 331.96 69.3 331.69 66.25 331.89 63.09 331.52 61.68 331.74 60.36 332.52 59.54 332.36 57.42 331.22 54.65 330.49 52.85 330.79 51.11 330.31 49.57 329.58 48.35 329.84 46.51 330.68 45.46 330.41 45.28 329.88 45.42 328.69 43.9 326.83 42.98 325.89 41.91 325.67 41.32 326.22 40.38 326.11 40.16 325.55 38.7 324.76 37.09 324.81 35.95 324.23 35.84 323.47 36.25 322.58 36.04 321.22 34.71 319.88 31.59 318.71 30.42 318.02 28.92 316.82 27.6 315.53 21.59 311.33 20.65 310.85 18.49 310.17 16.35 309.01 13.68 308.05 12.41 307.22 11.57 306.45 11.94 304.25 12.61 303.06 14.3 301.51 14.9 300.24 15.06 298.91 15.39 298.2 16.23 297.28 16.29 296.4 17.1 295.47 17.18 294.72 16.81 293.47 16.67 291.96 17.47 290.54 17.38 290.14 16.09 288.29 16.2 286.8 17.98 285.95 18.24 285.51 19.15 282.09 18.61 279.64 17.83 278.46 16.97 278.05 16.68 277.51 16.56 276.05 16.73 275.51 16.45 273.68 17.66 270.96 17.3 270.07 15.45 268.7 14.26 268.15 13.06 267.22 12.44 266.39 12.29 265.28 13.67 263.5 16.08 262.17 18.66 260.33 19.9 259.65 20.61 258.58 19.8 257.72 19.31 255.74 18.94 255.17 19.31 254.49 19.1 253.11 19.26 252.48 18.86 251.94 18.81 250.93 17.03 249.53 16.98 248.39 17.41 246.99 18.71 245.95 19.01 245.18 18.25 243.62 18.25 242.6 17.89 241.12 18.07 240.48 18.76 239.83 18.98 238.98 18.73 238.32 17.77 237.05 17.66 236.05 20.92 234.45 22.15 233.29 24.48 231.7 25.16 231.03 25.93 229.73 25.85 228.94 25.26 227.47 25.43 226.84 26.25 226.17 28.65 224.85 28.81 223.99 29.79 222.82 30.5 222.27 32.31 221.55 32.75 219.52 32.31 218.87 32.8 215.93 32 214.23 31.56 213.96 28.38 212.95 27.94 212.12 26.98 211.49 25.67 209.37 24.1 207.63 22.29 206.37 22.11 204.9 22.54 203.2 22.37 202.88 19.81 201.31 18.33 200.73 17.32 199.93 16.16 199.32 13.97 199.49 12.48 200.02 11.09 200.25 9.61 200.28 6.93 199.59 3.2 199.35 1.69 198.37 1.53 197.93 1.75 196.49 1.34 195.82 1.85 193.81 1.3 192.56 1.11 191.43 1.26 190.33 1 189.58 1.4 189.18 1.85 187.35 2.32 186.55 2.77 183.47 3.49 182.39 3.27 181.95 3.64 180.46 3.6 179.73 4.46 179.12 5.87 178.97 6.26 178.26 7.02 178.21 7.96 177.73 8.87 177.61 9.4 177.14 11.97 175.8 14.69 173.61 15.35 171.2 15.76 170.23 16.34 169.54 17.68 168.75 18.21 168.05 18.19 167.44 17.17 165.34 17.7 164.47 19.09 163.59 19.81 163.48 20.54 162.84 21.05 161.16 20.75 160.86 21.48 159.77 24.15 156.88 24.96 156.39 25.7 156.31 28.97 154.82 28.92 154.21 31.62 152.57 33.78 152.57 33.67 151.4 35.27 151.51 35.93 151.18 36.84 151.29 38.81 150.4 40.28 150.32 41.46 149.73 45.31 148.94 45.49 146.88 47.08 145.59 48.02 145.05 49.14 144.75 51.69 145.3 53.07 145.85 54.13 145.87 55.6 146.23 56.69 145.79 57.13 145.27 56.68 144.64 58.14 143.61 58.37 142.62 59.34 141.48 59.6 140.56 60.47 139.89 62.34 139.2 63.59 139.07 66.11 140.11 68.3 140.59 68.72 140.82 70.66 140.92 71.65 140.53 71.8 139.58 72.46 139.08 72.7 138.15 72.6 136.96 73.18 136.36 73.63 134.88 74.35 134.12 75.73 133.59 79.05 132.92 79.11 126.61 79.09 122.07 79.17 111.67 79.11 109.7 79.17 103.99 79.26 101.48 79.18 100.14 79.18 93.49 79.22 84.79 79.32 76.56 79.37 59.5 79.29 55.34 79.92 55.18 80.08 56.05 81.62 56.43 82.12 57.31 82.73 57.27 83.55 56.47 84.23 56.3 85.81 57.51 87.64 57.02 89.76 57.42 91.08 56.75 90.66 55.48 92.37 53.9 93.83 53.44 94.55 52.63 94.5 52.1 93.61 51.42 91.58 51.36 90.7 51.07 90.64 50.52 92.26 49.38 92.81 48.55 94.75 48.59 95.67 48.23 97.26 48.76 98.43 48.75 99.05 47.53 98.82 46.31 99.53 45.66 102.32 44.47 105.88 44.39 113.16 49.68 114.96 50.32 115.62 50 116.55 50.08 119.21 51.8 122.62 53.14 125.1 53.48 127.29 53.21 132.47 52.21 136.32 51.85 138.57 52.2 141.23 52.14 145.15 51.55 150.46 49.65 157.46 47.8 164.12 46.29 168.27 44.76 171.31 43.72 173.46 43.31 178.34 43.66 181.76 43.31 183.25 42.82 184.2 42.11 187.12 41.81 189.86 41.23 191.26 40.84 191.89 40.32 192.73 40.32 193.79 39.47 194.88 39.02 195.22 38.5 197.12 39.03 199.92 38.69 200.85 38.39 201.81 37.7 202.6 36.76 204.43 35.41 207.5 34.21 209.15 33.75 210.71 33.73 210.93 33.35 212.69 33.45 215.13 32.89 215.9 32.34 218.27 29.86 219.84 29.11 221.11 28.98 222.31 28.41 224.33 26.49 225.23 26.49 224.6 27.54 223.37 28.07 223.08 28.71 221.98 30.02 222.55 30.65 223.84 31.38 225.41 31.93 226.82 31.86 227.21 30.52 228.61 30.4 229.16 30.11 229.88 28.51 230.41 28.13 231.31 28.5 230.89 29.73 231.1 29.99 232.65 30.36 234.96 30.17 236.13 29.66 236.51 27.25 236.88 26.89 238.18 26.76 239.85 27.46 241.85 27.06 243.57 26.03 244 25.45 244.27 24.21 246.29 23.1 248.12 22.49 249.44 22.31 250.82 21.26 252.24 19.2 253.41 18.87 254.77 19.57 255.55 19.6 257.86 20.37 259.06 20.5 260.1 20.23 260.79 19.2 261.87 18.74 263.33 18.43 264.42 17.83 264.59 16.99 266.66 16.39 267.71 16.45 268.91 16.92 270.09 17.08 270.88 17.55 271.2 18.24 271.09 19.9 271.78 20.34 273.07 20.55 274.31 19.65 276.07 20.18 276.93 21.15 277.26 21.92 277.24 23.03 277.61 23.43 279.26 23.55 281 24.84 281.48 25.53 281.46 26.19 280.08 26.82 279.32 26.6 278.87 27.19 278.63 28.4 277.53 29.99 276.48 30.74 276.51 31.75 276.91 32.22 275.81 33.12 275.86 33.51 275.13 34.69 273.44 35.95 273.09 36.63 271.62 37.22 271.36 38.07 270.37 39.08 267.62 39.19 266.7 40.28 267.24 41.14 266.3 42.4 263.89 43.46 264.1 44.69 265.8 47.79 268.12 50.91 267.98 51.71 266.66 52.73 266.06 53.42 264.96 53.75 263.76 54.71 263.05 55.04 261.34 55.28 260.4 55.65 259.96 56.21 259.9 57.82 259.15 59.09 259.06 60.32 258.5 60.69 258.12 61.54 256.8 62.82 255.51 63.4 255.15 63.84 256.08 65.59 256.63 65.5 259.25 66.19 260.62 66.27 263.32 65.17 264.54 64.18 266.3 63.71 271.23 61.86 272.09 61.41 275.72 60.7 278.95 59.23 281.88 57.2 283.22 56.71 282.97 56.13 282.1 55.58 280.07 55.88 281.85 54.81 284 54.89 286.55 55.32 287.74 55.09 285.66 53.94 283.61 52.52 283.85 52.15 289.21 55.58 290.73 56.62 297.62 60.84 303.08 63.99 306.77 65.75 309.41 66.45 311.05 65.68 312.71 65.28 313.62 65.33 317.84 67.36 321.13 68.61 322.58 69.02 325.11 68.42 325.68 69.67 326.4 69.86 326.73 70.71 327.57 71.29 328.16 72.66 329.35 72.65 331.83 71.69 333.04 72 333.98 71.8 334.91 70.78 334.92 70.21 336.48 70.12 337.16 71.06 337.92 70.97 339.22 71.92 339.24 72.84 338.46 74.87 340.64 74.78 341.72 74.43 342.67 74.63 343.68 73.89 344.3 74.43 343.88 75.07 345.02 76.06 345.41 76.71 346.31 76.46 347.81 76.41 349.86 75.98 349.95 76.89 351.02 76.62 351.63 76.92 353 79.13 353.35 80.1 354.65 80.72 354.72 82.08 355.28 82.55 356.63 82.87 356.8 83.95 356.67 84.95 358.11 85.01 358.56 85.68 358.69 86.6 359.17 87.23 359.16 88.77 359.89 89.67 360.74 90.33 360.66 90.8 361.65 92.12 362.6 92.67 362.4 93.85 362.97 94.16 364.4 95.51 364.66 96.67 364.24 97.45 364.17 98.46 369.6 99.55 390.62 103.62 407.49 106.82 410.88 107.51 431.34 111.41 440.68 113.23 441.22 113.29 450.36 115.12 458.84 116.76 461.79 117.29 474.95 119.88 482.79 121.35 485.68 121.96 494.75 123.72 499.15 124.52 503.47 126.29 519.89 132.97 530.7 137.37 532.29 138.75 532.76 138.68 535.38 139.66 536.65 139.85 537.87 139.58 537.32 138.74 537.9 138.26 539.07 138.86 539.55 139.48 539.76 140.56 540.5 140.59 541.37 140.19 541.85 139.44 542.58 140.06 545.32 139.08 546.49 139.16 547.73 139.76 547.66 140.44 548.12 140.95 548.94 140.53 550.64 140.32 551.94 140.84 553.29 140.89 554.3 142.04 554.33 142.83 554.81 143.42 555.96 144.08 558.94 144.64 559.16 144.24 561.48 144.29 561.55 143.55 562.09 142.89 562.13 142.25 562.73 141.57 563.13 140.52 564.02 140.43 565.18 142.01 566.05 141.81 567.4 140.85 568.22 140.61 569.53 140.7 570.07 140.98 571.52 140.81 572.28 140.02 574.77 140.05 575.92 140.37 575.9 141.17 577.02 143.23 578.58 143.85 580.06 143.55 580.09 142.82 581.39 142.58 582.75 142.99 582.76 143.53 583.47 144.02 584.3 143.88 585.4 144.54 586.8 145.03 586.85 145.48 587.64 145.93 588.46 145.38 589.56 145.15 590.48 145.26 591.33 144.97 592.38 143.75 593.5 144.53 595.15 145.05 599.32 147.46 599.64 148.51 600.59 147.71 602.81 148.39 604.08 149.09 604.92 148.55 607.07 148.4 608.42 147.95 608.9 147.46 610.11 147.53 610.12 148.66 611.25 149.46 612.15 149.6 615.67 149.5 616.49 148.82 617.54 149 618.67 149.46 620.04 150.62 621.87 150.88 622.92 150.87 624.05 151.85 625.77 152.44 626.36 153.06 627.45 152.88 628.91 152.97 629.86 153.68 628.48 155.11 628.38 156.06 628.81 156.49 629 158 629.38 158.36 631.77 158.45 633.1 159.16 631.53 160.39 630.84 161.44 629.43 162.38 628.55 163.35 627.62 163.84 624.97 165.75 624.48 166.46 625.47 167.75 627.1 168.38 628.08 168.44 628.53 168.94 628.81 170.06 630.1 170.85 631.95 170.89 632.98 171.55 634.71 171.46 635.71 171.41 636.87 171.05 637.14 170.28 638.78 170.33 640.32 169.88 641.43 169.94 643.07 169.49 643.93 169.82 644.86 171.94 643.68 172.46 644.13 172.9 646.68 173.63 647.14 174.4 648.32 174.37 649.37 174.59 650.93 174.41 651.55 174.12 652.41 174.5 653.05 174.27 654.16 174.59 654.86 174.27 655.47 175.02 658.12 174.84 659.65 175.54 660.43 176.13 660.15 177.16 661.43 178.58 662.1 178.79 663.42 179.7 665.41 180.37 666.97 180.55 667.92 181.57 667.38 181.99 667.93 182.58 670.2 183.71 671.1 184.61 671.08 185.45 669.2 185.79 668.21 186.39 665.61 186.93 665.39 188.89 667.25 190.07 667.99 191.35 668.98 192.05 669.64 192.95 671.1 193.24 671.48 194.57 671.91 194.89 671.54 195.96 671.58 196.66 670.22 197.59 670.06 199.62 668.91 200.12 667.79 200.02 667.22 199.7 664.43 199.34 664.26 200.47 666.12 201.44 667.49 202.41 668.13 203.24 667.97 204.17 668.29 206.56 668.66 207.33 669.48 207.61 669.54 208.27 668.82 209.15 668.65 210.3 667.68 211.01 667.75 211.91 666.89 212.94 665.96 213.46 664.49 213.89 663.92 214.68 662.71 215.04 662.37 215.59 661.33 215.96 660.49 216.87 660.66 218.3 661.21 219.28 661.96 219.86 662.12 220.88 660.83 221.52 661.12 222.36 660.79 222.93 659.29 223.6 658.69 224.09 659.14 225.17 657.46 226.27 657.04 227.33 658.11 227.75 659.42 227.06 658.64 226.06 659.37 225.79 660.04 226.49 660.26 227.55 661.97 228.28 662.24 229.17 663.58 228.59 664.31 227.65 665.33 227.85 665.72 227.59 667.27 227.78 668.53 227.47 669.85 227.5 670.97 228 672.63 227.79 673.56 228.16 674.61 228.02 675.02 227.29 676.51 227.1 677.32 226.05 679.23 224.34 680.61 223.85 681.49 223.1 682.5 222.71 683.55 222.87 683.95 223.36 685.04 223.8 685.18 224.41 687.19 225.39 687.42 226.84 688.51 227.72 688.56 229.19 687.73 230.25 686.69 231.08 686.73 231.79 685.29 233.17 683.77 234.37 682.99 235.74 682.05 236.74 681.84 238.55 680.94 239 680.33 239.84 680.51 240.46 680.25 242.25 679.39 242.56 678.38 243.58 678.9 244.1 678.17 245.14 678.29 246.09 678.04 246.58 676.94 247.01 676.22 248.01 677.08 250.7 677.1 251.36 677.81 251.49 679.36 252.72 680.63 253.18 681.31 253.93 682.35 254.12 684 255.12 684.88 256.22 684.52 256.65 685.51 258.11 686.78 259.15 686.79 259.66 688.08 259.62 688.5 259.91 690.69 259.93 691.34 260.33 695.85 261.43 696.48 262.44 694.61 263.02 693.34 264.13 691.45 267.94 691.58 272 691.04 275.6 690.73 275.91 688.86 275.8 687.19 276.5 687.05 277.47 685.21 277.13 682.15 277.12 671.84 278.46 666.88 279.89 665.77 280.47 664.39 282.28 663.44 282.68 662.81 283.8 662.78 284.55 663.4 286.24 664.5 287.59 663.92 288.6 662.4 289.53 662.57 290.35 661.66 291.59 661.35 292.5 659.86 294.5 658.48 294.86 656.04 296.23 655.15 296.45 655.23 297.18 654.49 298.04 654.34 298.65 653.24 300.07 652.92 301.37 650.96 304.6 650.25 304.8 649.81 305.62 648.7 306.25 646.41 308.01 645.59 309.12 645.51 309.6 644.63 310.36 643.71 313.1 643.63 314.84 644.18 318.03 643.15 316.21 642.08 317.93 641.76 319.05 641.78 320.31 641.28 320.32 640.37 321.76 641.12 321.72 641.18 322.7 640.55 323.43 640.6 326.01 640.2 327.37 640.39 328.23 639.63 328.38 639.67 328.91 637.36 329.48 635.82 330.95 636.98 331.66 638.02 331.73 639.83 333.01 642.03 334.38 646.19 335.48 648.24 335.66 649.72 335.56 651.66 334.73 652.43 333.73 653.24 333.14 655.31 330.41 655.61 329.73 654.14 328.9 655.42 328.41 657.11 327.35 657.87 326.62 658.04 325.9 659.45 325.51 660.19 324.3 661.17 323.75 663.25 323.88 664.54 323.24 667.43 321.57 668.35 321.37 670.84 321.33 673.08 320.82 674.59 319.7 675.49 317.41 677.79 315.58 679.11 314.1 679.4 313.48 679.29 312.19 678.84 310.73 678.96 310 679.9 309.15 680.74 308.78 680.94 308.2 683.5 305.15 685.2 303.69 686.57 302.74 686.81 301.6 688.75 300.26 689.96 298.32 691.55 297.06 692.87 295.5 693.5 295.06 695.68 294.46 696.22 293.93 697.67 293.09 700.5 293.23 701.34 293.37 701.44 293.89 700.1 294.31 699.32 296.15 700.41 296.21 701.26 296.59 702.44 295.86 702.69 294.44 704.03 293.32 706.03 293.47 707.4 292.72 706.52 291.9 705.15 290.96 705.97 290.65 707.44 291.56 708.06 291.66 707.87 292.43 708.8 292.92 709.83 292.94 710.39 292.59 710.76 291.76 713.52 289.68 715.38 288.87 715.5 288.3 716.71 287.93 718.39 288.61 716.28 288.61 716 289.47 717.44 289.29 719.18 290.95 719.75 291.97 720.33 292.22 721.05 293.54 721.4 294.6 721.93 295.09 722.36 296.01 723.39 295.59 722.77 294.29 722.71 293.63 723.24 293.14 723.08 290.97 722.86 290.42 723.21 288.93 722.98 288.3 721.93 287.22 720.25 286.39 720.4 285.43 721.69 284.26 721.27 283.67 721.93 282.47 722.73 281.81 724.37 279.55 726.27 275.48 726.99 274.53 728.28 273.43 728.6 272.25 729.96 271.81 730.86 270.14 731.32 269.7 731.38 268.85 733.06 268.02 733.25 267.19 734.34 266.82 735.12 267.78 736.27 267.76 736.49 266.31 736.24 265.51 736.75 263.97 738.12 263.73 739.2 262.54 739.35 261.72 739.41 259.01 739.76 257.9 740.7 256.65 741.53 257.12 742.12 257.06 742.07 255.94 741.67 254.27 742.21 252.92 742.85 252.51 742.35 251.8 743.2 251.18 744.26 250.95 744.4 252.29 745.78 252.09 746.78 252.45 748 252.56 748.13 253.12 748.98 254.15 750.1 254.4 751.26 253.81 750.93 253.3 750.91 252.19 750.57 251.16 751.6 249.78 752.89 249.37 753.64 249.63 754.34 248.69 756.08 248.56 757.31 248.95 757.79 248.79 757.87 246.91 757.58 246.34 757.42 244.61 757.91 243.61 758.26 242.18 759.12 241.29 759.27 240.15 760.46 239.81 761.46 240.3 763.36 240.72 763.74 240.34 763.26 239 763.86 238.17 764.21 237.08 764.34 235.88 764.69 235.05 765.7 234.66 765.97 235.45 766.75 236.36 767.77 236.5 768.51 236.09 770.63 236.15 770.44 235.54 770.89 234.79 771.65 234.67 772.55 235.23 773.84 234.74 775.72 235.11 777.15 236.59 777.42 237.33 776.87 238.2 775.58 239.18 775.5 239.93 775.84 241.31 777 241.62 776.67 242.22 775.5 242.57 775.31 243.25 776.21 244.34 775.45 245.55 774.52 245.28 774.01 245.8 772.83 245.83 772.54 244.72 772.13 244.12 769.91 243.21 768.7 243.48 768.36 244.04 768.47 244.8 769.22 245.19 769.11 245.8 768.07 246.14 768.41 247.84 767.43 251.25 767.53 253.04 769.55 254.43 769.61 254.79 768.19 255.83 766.91 255.93 766.2 255.15 766.19 254.51 765.34 253.9 764.87 253.21 763.11 253.36 762.95 254.45 762.38 254.85 763.36 256.1 763.5 256.95 764.27 257.24 766.01 257.53 766.84 258.62 767.13 259.99 766.61 260.56 767.36 261.53 766 262.39 765.25 263.46 764.61 263.42 764.39 262.74 763.58 262.4 762.27 261.42 761.37 261.71 760.9 262.43 760.93 263.12 761.46 263.47 762.4 263.47 763.05 264.21 763.18 266.29 761.51 266.63 760.84 266.55 760.78 265.16 760.34 264.7 759.16 264.52 757.88 264.77 757.38 265.21 757.15 266.5 757.16 268.33 756.41 269.06 756.45 269.76 755.25 272.21 753.32 272.67 752.08 273.22 751.42 274.08 750.55 275.71 749.67 276.37 748.69 277.98 748.89 279.69 748.82 280.67 750.15 281.44 750.88 282.31 750.59 283.34 749.04 283.64 746.74 284.77 745.67 285.52 745.2 286.11 745.04 287.26 746.47 288.83 746.7 290.18 744.12 291.12 743.97 291.54 742.54 292.23 739.23 293.4 737.93 294.49 737.32 295.75 736.47 298.17 735.24 298.58 733.55 299.49 733.4 300.17 731.75 301.61 731.41 302.55 731.69 303.86 731.4 304.38 729.56 306.69 729.25 308.26 728.47 310.69 727.12 312.96 726.22 313.91 726 314.44 724.49 316.19 723.89 317.11 723.87 317.79 723 319.27 721.98 320.53 721.91 321 720.35 322.77 718.7 323.6 718.32 324.37 716.14 325.67 715.8 326.78 714.9 328.13 714.22 329.89 712.13 332.64 711.45 334.27 711.39 335.32 710.08 337.96 710.07 339.52 709.58 340.61 709.25 342.44 707.89 345.2 707.62 346.69 707.69 347.92 707.11 349.45 706.42 350.73 706.2 351.79 705.59 353.31 705.63 355.76 705.18 356.83 703.54 358.98 703.56 360.26 702.58 361.39 702.31 362.08 701.99 362.88 702.08 364.79 702.54 366.59 703.52 368.45 705.09 370.94 706.84 374.92 706.97 377.39 706.25 379.75 705.36 381.45 702.7 384.1 699.65 386.13 694.71 387.77 692.06 389.05 689.68 390.48 688.52 391.44 688.03 392.93 688.25 393.47 687.58 394.3 687.48 395.18 687.81 396.23 687.75 397.41 687.47 398.25 685.47 400.14 684.62 401.17 683.89 402.4 682.3 406.41 681.85 409.51 681.19 410.73 680.15 411.71 679.21 413.21 678.19 417.75 676.96 420.73 676.98 421.61 677.94 424.39 677.82 427.11 677.93 428.4 678.26 429.11 678.24 429.91 680.98 434.77 682.22 436.13 681.15 437.07 681.33 438.1 680.62 438.77 680.37 439.53 680.63 441.4 681.18 442.75 681.32 444.19 681.14 445.07 681.35 446.03 680.89 447.08 677.2 452.38 673.77 456.67 671.05 460.34 669.88 462.36 669.55 463.72 669.67 464.86 669.36 467.4 669.44 470.63 669.68 471.65 668.46 473.99 668.06 475.44 667.02 476.59 665 479.18 661.29 483.04 659.46 485.43 658.43 487.79 657.78 490.04 657.28 494.14 656.88 495.87 655.23 498.96 653.92 503.38 654.15 505.28 654.96 506.84 655.9 508.11 655.81 509.43 655.96 510.37 656.51 511.03 657.1 511.75 657.95 513.85 656.48 516.72 655.43 518.21 655.29 518.75 655.67 520.34 656.36 521.27 658.61 523.24 659.42 525.17 659.38 525.66 660.22 526.96 657.79 529.26 657.25 529.39 656.12 530.65 655.64 532.85 655.8 533.59 656.57 535.3 658.27 537.22 659.55 537.98 661.09 539.11 662.03 540.08 662.68 541.33 662.61 542.17 662.91 543.57 662.56 545.14 662.82 546.48 663.38 547.43 662.67 548.71 662.31 549.82 662.49 551.43 662.88 552.85 663.92 555.05 664.86 556.44 665.38 557.91 666.97 559.53 669.38 561.65 672.04 563.32 672.89 563.73 674.11 564.81 672.04 566.4 671.45 567.34 670.98 569.02 671 569.86 671.45 571.13 671.47 573.1 671.1 573.21 670.54 575.47 669.26 576.9 668.18 578.81 666.66 582.93 666.34 584.05 666.01 586.62 666.05 587.83 666.44 588.46 666.54 589.46 667.04 590.16 666.76 591.4 666.92 592.75 666.98 595.32 666.8 596.22 667.04 599.12 667.93 601.52 668.25 602.82 Z M 318.94 11.13 319.97 9.82 320.26 8.35 320.11 5.55 320.33 4.64 321.18 2.93 322.79 1.85 325.26 1.41 326.18 1.85 327.32 1.42 328.16 1.4 328.4 2.46 328.17 3.76 327.61 4.46 327.36 5.56 326.52 6.52 326.97 8.25 325.66 9.7 324.74 9.81 323.48 10.77 323.38 11.24 322.04 11.68 320.82 11.56 320.08 11.89 318.95 11.81 318.94 11.13 Z M 312.49 27.56 313.73 27.13 314.79 26.45 316.25 26.26 320.79 24.76 320.88 25.55 319.48 26.22 318.92 26.84 317.93 27.05 317.6 27.88 316.38 28.21 314.5 28.36 312.52 27.99 312.49 27.56 Z M 304.49 7.05 305.23 6.41 306.19 6.64 305.7 7.43 306.24 7.92 308.51 9.21 308.3 10.8 306.7 12 306.09 11.95 305.48 10.24 305.23 7.94 304.55 7.65 304.49 7.05 Z M 302.47 2.94 302.64 2 303.42 1.92 303.28 3.28 302.47 2.94 Z M 298 10.98 298.89 10.45 300.49 10.57 300.94 11.17 300.86 12.1 300 12.65 298.99 12.88 298.38 12.37 297.71 11.15 298 10.98 Z M 294.53 7.21 295.38 6.22 296.41 6.72 296.16 7.73 295.43 8.18 294.53 7.21 Z M 294.16 21.68 296.4 19.11 297.5 18.79 298.93 18.76 301.12 17.73 304.36 16.94 306.78 16.79 307.9 16.55 308.89 16.09 310.61 15.63 311.34 15.75 312.87 16.56 313.16 17.45 311.34 18.85 311.12 20.17 310.56 20.39 309.21 20.12 308.42 20.47 308.13 21.45 308.68 22.72 309.18 23.28 307.81 23.56 307.86 22.44 306.66 21.58 305.4 21.32 304.28 21.72 303.15 22.48 301.82 22.56 301.06 21.97 299.84 22.03 299.38 22.96 297.55 23.54 296.15 23.76 295.48 23.51 294.08 22.05 294.16 21.68 Z M 290.98 17.21 291.74 16.72 292.26 15.83 293.62 15.09 294.07 14.52 295.64 13.98 296.8 14.17 296.8 15.3 295.92 16 294.91 16.32 294.29 17.06 291.88 18.19 290.98 17.21 Z M 289.08 7.42 289.64 5.83 290.33 5.56 291.88 5.67 293.49 5.11 293.79 4.55 294.66 4.87 293.39 5.67 292.03 6.1 291.68 7.25 291.28 7.6 290.74 9.01 289.1 8.43 289.08 7.42 Z M 287.8 26.32 289.8 25.5 291.06 25.16 292.43 25.75 291.67 26.81 289.51 27.37 288.58 27.26 287.8 26.32 Z M 286.61 13.12 286.66 12.73 287.88 10.85 288.61 10.39 290.71 10.54 292.2 11.48 291.54 11.81 288.84 13.74 287.2 13.74 286.61 13.12 Z M 284.11 1 285.01 1.27 285.43 1.88 285.27 3.2 284.22 2.89 283.97 1.33 284.11 1 Z M 279.86 33.36 280.57 31.12 281.67 29.54 283.44 28.18 284.66 28.24 285.47 29.12 285.2 29.83 283.86 31.49 282.38 32.79 281.38 33.38 280.3 33.68 279.86 33.36 Z M 279.59 18.45 281.67 16.87 282.84 16.19 283.66 16.78 284.54 16.97 286.1 16.96 287.44 18.78 288.88 19.8 289.36 20.81 289.6 22.32 289.04 22.49 284.94 22.65 283.34 22.85 281.79 21.03 281.05 20.69 280.9 19.76 279.94 19.15 279.59 18.45 Z M 278.33 8.28 279.05 7.55 280.43 6.94 280.69 7.38 282.82 9.14 282.89 10.19 281.52 11.44 279.51 11.22 278.87 10.83 278.38 9.48 278.33 8.28 Z M 276.15 39.7 276.84 39.27 279.36 38.85 281.28 37.98 282.49 37.97 283.83 37.7 284.41 37.16 284.51 36.36 286.53 35.01 291.39 33.28 293.8 32.03 295.61 30.67 296.81 29.28 298.38 28.17 299.12 27.96 300.94 28.19 302.93 30.12 303.85 30.71 305.21 31.21 304.13 32.27 303.31 32.51 299.46 32.75 295.68 34.09 294.21 34.37 291.59 35.15 291.2 36.08 291.39 37.03 292.09 37.8 294.02 37.84 294.42 38.45 293.77 39.2 292.3 39.37 290.5 39.81 288.62 40.09 286 39.64 285.02 40.13 282.98 41.93 281.78 42.2 281.22 42.88 279.81 43.64 278.81 43.89 276.63 43.93 276.44 43.11 277.38 41.94 277.26 41.28 276.22 40.18 276.15 39.7 Z M 274.29 15.2 275.38 14.63 275.36 14.18 276.7 14.19 276.25 15.38 274.83 15.58 274.29 15.2 Z M 274.23 46.88 275.78 46.79 277.08 47 276.85 47.38 274.23 46.88 Z M 264.73 12.63 265.7 13.21 266.72 13.42 268.31 13.41 267.65 14.59 267.21 14.59 265.82 13.68 265.02 13.47 264.73 12.63 Z M 251.02 13.83 251.15 13.35 252.64 12.93 254.58 12.65 255.32 12.77 256.95 11.96 257 11.09 257.87 11.22 258.21 12.25 258.8 13.08 257.4 13.8 257.94 15.77 257.73 16.33 255.83 16.39 254.97 16.2 253.28 16.46 252.63 15.39 251.38 15.22 251.02 13.83 Z M 779.28 227.68 779.48 226.82 780.58 226.81 780.42 225.79 779.41 223.52 781.01 219.39 781.75 218.64 782.65 219.09 783.1 220.19 782.82 221.52 783.57 221.74 784.16 220.78 784.78 220.31 786.44 220.14 787.58 220.21 789.6 219.55 791.71 219.81 792.8 220.66 795.79 219.96 795.95 219.22 795.72 217.97 796.01 217.64 797.53 217.85 798.45 218.42 799 219.7 798.68 220.59 797.4 220.32 796.57 220.58 794.38 223.14 793.29 225.31 792.8 225.21 791.43 225.99 791.43 227.17 790.77 228.01 791.18 229.13 791.05 229.83 789.92 230.46 787.77 229.5 786.59 229.78 785.45 231.52 785.51 232.33 786.6 233 787 234.1 787.04 235.02 786.01 234.92 786.25 234.24 785.77 233.13 784.26 232.27 783.09 230.61 782.49 230.26 780.34 229.88 779.29 228.96 779.28 227.68 Z M 778.77 232.96 779.05 232.53 780.41 232.89 780.99 233.9 780.86 234.42 779.14 233.88 778.77 232.96 Z M 724.01 249.73 724.42 249.02 724.31 247.86 725.09 247.86 725.88 247.33 726.34 247.93 727.26 247.88 728.18 247.33 728.42 246.63 729.32 246.09 729.94 246.79 729.25 247.31 729.58 248.21 729.45 250.15 729.11 250.8 729.2 251.56 729.93 252.58 729.62 252.77 724.08 250.49 724.01 249.73 Z" fill-rule="evenodd" fill="none" stroke="currentColor" stroke-width="1"/>
</g>
</svg>