<svg viewBox="-93.4972912 -47.6883172 7.2997344000000055 5.804715400000006" xmlns="http://www.w3.org/2000/svg">
  <path d="M -87.802532,42.492394 L -87.804994,42.502296 L -87.811811,42.520564 L -87.813653,42.542687 L -87.812245,42.54953 L -87.812695,42.569153 L -87.813952,42.579449 L -87.811815,42.588845 L -87.815597,42.594176 L -87.816362,42.601825 L -87.819374,42.60662 L -87.819674,42.61582 L -87.817125,42.635452 L -87.814674,42.64402 L -87.803074,42.675419 L -87.794874,42.689919 L -87.785074,42.700819 L -87.780817,42.718048 L -87.778018,42.71891 L -87.778187,42.733973 L -87.781606,42.743622 L -87.781736,42.750053 L -87.778174,42.762819 L -87.773677,42.769957 L -87.757913,42.782136 L -87.767168,42.790379 L -87.773699,42.793481 L -87.793976,42.806218 L -87.812359,42.822324 L -87.824481,42.834744 L -87.828446,42.845916 L -87.835548,42.856503 L -87.843484,42.873289 L -87.84649,42.884143 L -87.847834,42.89635 L -87.845122,42.90483 L -87.839664,42.914598 L -87.843985,42.921835 L -87.845944,42.932075 L -87.843307,42.944036 L -87.845555,42.954697 L -87.845018,42.961132 L -87.849973,42.970654 L -87.857182,42.978015 L -87.86886517240936,42.98663821194248 L -87.878683,42.992415 L -87.891613,43.007043 L -87.89748,43.020091 L -87.898663,43.025749 L -87.895,43.042535 L -87.886415,43.052092 L -87.882339,43.053099 L -87.863806,43.070622 L -87.870217,43.08056 L -87.869914,43.084292 L -87.876084,43.099011 L -87.893185,43.114011 L -87.898485,43.12108 L -87.901385,43.13321 L -87.900285,43.13731 L -87.892285,43.14871 L -87.881085,43.170609 L -87.887586,43.186608 L -87.89208812391642,43.192041597830084 L -87.896286,43.197108 L -87.897399,43.204245 L -87.896744,43.214302 L -87.90386,43.224033 L -87.910087,43.235907 L -87.911787,43.250406 L -87.901847,43.284117 L -87.889207,43.307652 L -87.886162,43.320819 L -87.882392,43.352099 L -87.877448,43.369235 L -87.869599,43.387191 L -87.855608,43.405441 L -87.827319,43.434849 L -87.811945,43.454641 L -87.804012,43.463374 L -87.800934,43.474394 L -87.79169,43.492244 L -87.793532,43.500009 L -87.794101,43.524686 L -87.791773,43.543999 L -87.792668,43.552712 L -87.790135,43.563054 L -87.781255,43.578493 L -87.760505,43.606456 L -87.734312,43.63919 L -87.706204,43.679542 L -87.702685,43.687596 L -87.704276,43.69485 L -87.702908,43.701554 L -87.704015,43.712534 L -87.708185,43.722895 L -87.710197,43.737144 L -87.708285,43.742895 L -87.702898,43.748037 L -87.7042,43.75584 L -87.696071,43.763068 L -87.705494,43.773432 L -87.726407,43.810445 L -87.726232,43.816552 L -87.728756,43.821925 L -87.7296,43.831782 L -87.728698,43.852524 L -87.736017,43.873721 L -87.736178,43.880421 L -87.726803,43.903133 L -87.719041,43.937781 L -87.711881,43.949161 L -87.703951,43.956651 L -87.69892,43.965936 L -87.695503,43.989582 L -87.683361,44.020139 L -87.677788,44.029495 L -87.671316,44.03735 L -87.656083,44.051794 L -87.653938,44.058171 L -87.653483,44.067194 L -87.655996,44.075168 L -87.655183,44.081894 L -87.650079,44.088222 L -87.651775,44.092362 L -87.648059,44.103689 L -87.639179,44.110986 L -87.621082,44.121895 L -87.600882,44.131695 L -87.563181,44.144195 L -87.53994,44.15969 L -87.51966,44.17987 L -87.512903,44.192808 L -87.507419,44.210803 L -87.508419,44.229669 L -87.521755,44.259957 L -87.533698,44.278965 L -87.541155,44.293143 L -87.544716,44.306864 L -87.545382,44.321385 L -87.5429502523538,44.32751239963925 L -87.540876,44.332739 L -87.533364,44.341415 L -87.533583,44.351111 L -87.521047,44.367526 L -87.517597,44.375696 L -87.517965,44.394356 L -87.513269,44.405972 L -87.511635,44.414043 L -87.506362,44.423804 L -87.501883,44.435487 L -87.502472,44.444838 L -87.500369,44.456206 L -87.490024,44.477224 L -87.487512,44.491167 L -87.483752,44.499522 L -87.483696,44.511354 L -87.473721,44.531511 L -87.473238,44.539512 L -87.468093,44.551925 L -87.452174,44.572897 L -87.446963,44.586274 L -87.440116,44.596587 L -87.437493,44.605071 L -87.420879,44.614948 L -87.418028,44.62087 L -87.40541,44.627191 L -87.393521,44.640655 L -87.393006,44.644245 L -87.385214,44.653848 L -87.378574,44.665161 L -87.378428,44.670279 L -87.373824,44.677302 L -87.362365,44.69064 L -87.360688,44.694743 L -87.353789,44.701915 L -87.343508,44.719228 L -87.337584,44.737751 L -87.335193,44.749736 L -87.321197,44.767337 L -87.318982,44.771335 L -87.321065,44.781287 L -87.318539,44.788504 L -87.305956,44.799475 L -87.304824,44.804603 L -87.291881,44.811603 L -87.282561,44.814729 L -87.27603,44.83318 L -87.27138,44.842784 L -87.261478,44.851024 L -87.236297,44.859959 L -87.225355,44.865253 L -87.224248,44.868445 L -87.204545,44.875593 L -87.206285,44.885928 L -87.217195,44.897839 L -87.215977,44.906597 L -87.212389,44.911117 L -87.204238,44.916819 L -87.186732,44.925463 L -87.17492,44.927749 L -87.172648,44.935619 L -87.178271,44.942238 L -87.188375,44.948077 L -87.187873,44.955573 L -87.189407,44.968632 L -87.181901,44.980887 L -87.175163,44.985885 L -87.168537,44.998348 L -87.163529,45.00489 L -87.154084,45.009117 L -87.139384,45.012565 L -87.130188,45.031242 L -87.130517,45.036581 L -87.124808,45.042167 L -87.124852,45.056085 L -87.123149,45.065966 L -87.119346,45.069323 L -87.109601,45.07117 L -87.100569,45.069827 L -87.097242,45.066302 L -87.096773,45.055696 L -87.091639,45.055145 L -87.07894,45.05774 L -87.079879,45.073536 L -87.084882,45.079226 L -87.092035,45.079202 L -87.096053,45.081912 L -87.096291,45.087114 L -87.092726,45.092651 L -87.085833,45.094833 L -87.075908,45.087372 L -87.069671,45.084765 L -87.068007,45.079562 L -87.063157,45.079316 L -87.057444,45.087467 L -87.047091,45.093994 L -87.052786,45.101406 L -87.048839,45.105736 L -87.051049,45.116172 L -87.057311,45.124523 L -87.070622,45.126703 L -87.076503,45.128927 L -87.077568,45.13541 L -87.085017,45.14495 L -87.08064,45.147993 L -87.079423,45.156297 L -87.066052,45.157396 L -87.062482,45.152191 L -87.055979,45.147479 L -87.055885,45.142632 L -87.05051,45.136653 L -87.040734,45.137481 L -87.029891,45.145364 L -87.030331,45.148144 L -87.045788,45.158702 L -87.046531,45.172386 L -87.039018,45.198352 L -87.041623,45.211312 L -87.033718,45.21389 L -87.032857,45.218533 L -87.038581,45.221564 L -87.039454,45.227358 L -87.036833,45.231573 L -87.027639,45.233624 L -87.010726,45.226728 L -87.00754,45.222127 L -87.005359,45.213694 L -86.996339,45.213897 L -86.992503,45.217896 L -86.985406,45.215792 L -86.979629,45.225051 L -86.986427,45.233323 L -86.985005,45.238561 L -86.976082,45.24123 L -86.973537,45.24581 L -86.982413,45.248173 L -86.984975,45.258674 L -86.984398,45.264366 L -86.974528,45.271823 L -86.970355,45.278455 L -86.97246,45.284117 L -86.983355,45.295368 L -86.997663,45.298246 L -87.007527,45.294508 L -87.014321,45.298752 L -87.020121,45.29784 L -87.023561,45.292143 L -87.022135,45.287461 L -87.0383,45.287943 L -87.043895,45.284767 L -87.0517,45.285888 L -87.057627,45.292838 L -87.059714,45.298803 L -87.067443,45.29582 L -87.070058,45.289496 L -87.071035,45.280355 L -87.073711,45.272075 L -87.078316,45.265723 L -87.074662,45.255513 L -87.077514,45.252669 L -87.092013,45.255848 L -87.099663,45.259605 L -87.108743,45.257003 L -87.109839,45.248318 L -87.116432,45.24152 L -87.119069,45.23059 L -87.122819,45.222997 L -87.121609,45.209783 L -87.119405,45.20544 L -87.119972,45.191103 L -87.123689,45.18989 L -87.13303,45.192843 L -87.146293,45.191912 L -87.15167,45.184695 L -87.157364,45.186717 L -87.167179,45.183594 L -87.175068,45.17305 L -87.172462,45.165219 L -87.172302,45.156714 L -87.169773,45.152865 L -87.178618,45.148371 L -87.187205,45.150258 L -87.193618,45.158089 L -87.194651,45.162359 L -87.203925,45.163229 L -87.211566,45.16593 L -87.222079,45.16447 L -87.223115,45.174622 L -87.231214,45.172887 L -87.237678,45.16817 L -87.233908,45.162746 L -87.238752,45.159659 L -87.242924,45.149377 L -87.239852,45.136637 L -87.239448,45.128085 L -87.24398,45.127628 L -87.250301,45.131189 L -87.257449,45.121644 L -87.260097,45.113238 L -87.260542,45.092585 L -87.261716,45.086275 L -87.269983,45.077247 L -87.280402,45.075436 L -87.28428,45.063694 L -87.282394,45.057572 L -87.284058,45.04649 L -87.292852,45.046322 L -87.298794,45.05371 L -87.307113,45.050856 L -87.308539,45.044511 L -87.321351,45.038215 L -87.321767,45.031735 L -87.325263,45.028374 L -87.332159,45.015602 L -87.342526,45.012292 L -87.344974,45.003315 L -87.354816,44.994879 L -87.360288,44.987643 L -87.374805,44.956631 L -87.387253,44.939421 L -87.393405,44.934393 L -87.398368,44.925226 L -87.395231,44.920705 L -87.405005,44.911806 L -87.406199,44.90449 L -87.393399,44.898199 L -87.385396,44.889964 L -87.383631,44.885115 L -87.38626,44.873767 L -87.384577,44.869548 L -87.383408,44.853046 L -87.387449,44.849339 L -87.386973,44.844283 L -87.38222,44.83434 L -87.390063,44.831137 L -87.393338,44.838209 L -87.397431,44.841924 L -87.400046,44.850013 L -87.405541,44.860047 L -87.410015,44.86199 L -87.414306,44.869725 L -87.427617,44.882357 L -87.43855,44.881009 L -87.436411,44.887577 L -87.420327,44.887596 L -87.433128,44.892741 L -87.442353,44.889935 L -87.443319,44.885579 L -87.45751,44.879437 L -87.478489,44.863572 L -87.481332,44.857258 L -87.48561,44.854562 L -87.493454,44.854731 L -87.500584,44.858437 L -87.499113,44.864355 L -87.503817,44.865117 L -87.515015,44.87199 L -87.521266,44.869666 L -87.510804,44.862481 L -87.504149,44.856247 L -87.514607,44.850518 L -87.529819,44.851698 L -87.540039,44.843104 L -87.54194,44.832317 L -87.550972,44.826755 L -87.55739,44.82962 L -87.565708,44.830126 L -87.559766,44.844115 L -87.549546,44.847317 L -87.550288,44.85129 L -87.556751,44.852389 L -87.578305,44.853383 L -87.589386,44.847048 L -87.59344,44.843005 L -87.610063,44.838384 L -87.614908,44.835014 L -87.624979,44.823188 L -87.637104,44.813575 L -87.6463,44.798739 L -87.661124,44.788547 L -87.662919,44.779872 L -87.673337,44.772608 L -87.686282,44.761511 L -87.705852,44.738225 L -87.707366,44.733796 L -87.713791,44.731004 L -87.720889,44.724548 L -87.721816,44.718969 L -87.718409,44.707811 L -87.717586,44.69799 L -87.71978,44.693246 L -87.729836,44.682015 L -87.747387,44.668017 L -87.754229,44.650583 L -87.765774,44.642023 L -87.782854,44.638166 L -87.801825,44.637854 L -87.808819,44.636338 L -87.830848,44.623583 L -87.840704,44.618699 L -87.856555,44.619711 L -87.863996,44.615485 L -87.869617,44.606294 L -87.880396,44.603302 L -87.881686,44.597813 L -87.887501,44.592285 L -87.900361,44.584164 L -87.910095,44.580405 L -87.898888,44.574135 L -87.901177,44.568925 L -87.917,44.548093 L -87.923145,44.543607 L -87.929001,44.535993 L -87.943801,44.529693 L -87.95514,44.528902 L -87.970702,44.530292 L -88.002431,44.538662 L -88.01918,44.549118 L -88.033004,44.558885 L -88.040939,44.559404 L -88.049802,44.564789 L -88.038055,44.576057 L -88.020453,44.58037 L -88.020717,44.584411 L -88.014923,44.585531 L -88.016404,44.592092 L -88.013328,44.602452 L -88.013758,44.62212 L -88.008955,44.627735 L -88.009347,44.635157 L -88.015126,44.634879 L -88.008146,44.645838 L -88.004312,44.645914 L -88.004506,44.65554 L -88.002085,44.664035 L -87.993898,44.677201 L -87.986022,44.663337 L -87.990255,44.687603 L -87.989623,44.700866 L -87.982627,44.721755 L -87.975944,44.727549 L -87.975332,44.731222 L -87.969051,44.739706 L -87.95156,44.753107 L -87.943144,44.757936 L -87.939816,44.76418 L -87.934347,44.765689 L -87.91943,44.790284 L -87.916996,44.8002 L -87.908579,44.811055 L -87.907454,44.815648 L -87.901818,44.822216 L -87.902419,44.827824 L -87.895608,44.829452 L -87.877021,44.839918 L -87.866557,44.842656 L -87.855191,44.857911 L -87.852789,44.86486 L -87.845876,44.874275 L -87.847137,44.880584 L -87.835603,44.887616 L -87.831142,44.895377 L -87.839561,44.905607 L -87.844299,44.918524 L -87.844044,44.924251 L -87.839261,44.932763 L -87.832029,44.93586 L -87.821465,44.949605 L -87.812989,44.954013 L -87.775169,44.964952 L -87.696588,44.975184 L -87.673264,44.975112 L -87.659243,44.972522 L -87.658161,44.97985 L -87.645458,44.985246 L -87.63118,44.984401 L -87.628858,44.986734 L -87.624693,45.014176 L -87.625748,45.045157 L -87.611276,45.074169 L -87.601661,45.082647 L -87.587389,45.087084 L -87.592192,45.094762 L -87.626527,45.103128 L -87.631535,45.106224 L -87.648191,45.106368 L -87.651412,45.108558 L -87.661211,45.108279 L -87.66128743651805,45.11213409826955 L -87.671,45.120069 L -87.678511,45.131204 L -87.675768,45.134481 L -87.682488,45.142894 L -87.695055,45.150522 L -87.702995,45.151953 L -87.708227,45.157624 L -87.71791,45.161191 L -87.729665,45.170566 L -87.735135,45.171538 L -87.735282,45.176565 L -87.741799,45.197051 L -87.736339,45.204653 L -87.72796,45.207956 L -87.72604,45.211706 L -87.726952,45.218949 L -87.721354,45.226847 L -87.72534,45.230848 L -87.717645,45.238634 L -87.711074,45.240952 L -87.709145,45.254649 L -87.71045,45.259324 L -87.705869,45.265738 L -87.698974,45.269145 L -87.697343,45.282968 L -87.69019002400168,45.29061416208568 L -87.684267,45.301023 L -87.672669,45.310213 L -87.661711,45.320736 L -87.662001,45.326088 L -87.654094,45.332479 L -87.647768,45.340563 L -87.64809,45.351719 L -87.656447,45.358413 L -87.658175,45.369476 L -87.673513,45.376946 L -87.67455,45.381649 L -87.682866,45.38495 L -87.685934,45.388711 L -87.693956,45.389893 L -87.70166,45.386916 L -87.708329,45.381218 L -87.718891,45.377462 L -87.733409,45.364432 L -87.739634,45.35644 L -87.750928,45.355037 L -87.754104,45.349442 L -87.762128,45.348401 L -87.769172,45.351195 L -87.781869,45.349627 L -87.79039,45.353445 L -87.800464,45.353608 L -87.810076,45.351269 L -87.821889,45.35269 L -87.824855,45.350713 L -87.832612,45.352249 L -87.838141,45.345101 L -87.848368,45.340676 L -87.850418,45.347492 L -87.863489,45.35302 L -87.865163,45.361115 L -87.870238,45.366436 L -87.875805,45.364422 L -87.869853,45.356757 L -87.879838,45.351493 L -87.888052,45.354697 L -87.884855,45.362792 L -87.871998,45.371192 L -87.875424,45.379373 L -87.870905,45.383116 L -87.859418,45.388227 L -87.856911,45.392624 L -87.859131,45.398967 L -87.849322,45.403872 L -87.850533,45.411685 L -87.856216,45.416101 L -87.860432,45.423504 L -87.861697,45.434473 L -87.855298,45.441379 L -87.847429,45.444177 L -87.844804,45.448406 L -87.835562,45.451102 L -87.831217,45.457185 L -87.82004,45.460453 L -87.812928,45.464421 L -87.806347,45.472262 L -87.806891,45.479092 L -87.799499,45.48452 L -87.798243,45.493264 L -87.792769,45.499967 L -87.793215,45.505028 L -87.799475,45.50715 L -87.802241,45.513059 L -87.80472,45.531244 L -87.80344546603543,45.538335352378745 L -87.808366,45.544662 L -87.818791,45.5521 L -87.832968,45.559461 L -87.831691,45.568036 L -87.81042,45.565308 L -87.806104,45.562863 L -87.797536,45.562124 L -87.788798,45.565947 L -87.787533,45.581374 L -87.777199,45.588498 L -87.777494,45.593835 L -87.774682,45.602024 L -87.777937,45.60444 L -87.780845,45.614599 L -87.792001,45.616753 L -87.796983,45.623613 L -87.80452,45.628987 L -87.810195,45.638732 L -87.824392,45.64771 L -87.822709,45.6627 L -87.8028785866685,45.666755033231055 L -87.795355,45.671334 L -87.781007,45.673934 L -87.780808,45.680349 L -87.787727,45.68718 L -87.804993,45.695796 L -87.809181,45.700337 L -87.805076,45.703556 L -87.812338,45.711303 L -87.82418,45.712655 L -87.839402,45.717814 L -87.849486,45.724721 L -87.854594,45.726301 L -87.86432,45.737139 L -87.862211,45.745018 L -87.868111,45.749477 L -87.879812,45.754843 L -87.900005,45.753497 L -87.904657,45.759163 L -87.91,45.756716 L -87.918455,45.759154 L -87.923334,45.757416 L -87.929867,45.760287 L -87.934583,45.758096 L -87.946488,45.756704 L -87.954459,45.758414 L -87.963452,45.75822 L -87.96697,45.764021 L -87.986429,45.769596 L -87.989829,45.772945 L -87.98087,45.776977 L -87.987942,45.793075 L -87.994539,45.795637 L -88.007043,45.792192 L -88.015485,45.792625 L -88.027232,45.789197 L -88.039728,45.789626 L -88.041744,45.783734 L -88.05064,45.780999 L -88.058253,45.780629 L -88.071402,45.779938 L -88.079277,45.784911 L -88.093354,45.785284 L -88.103213,45.791255 L -88.105362,45.799825 L -88.108745,45.803611 L -88.116266,45.804086 L -88.12868,45.808861 L -88.136212,45.818735 L -88.132456,45.824156 L -88.112283,45.838721 L -88.105196,45.842413 L -88.098469,45.84982 L -88.087719,45.85695 L -88.082465,45.864961 L -88.070483,45.874329 L -88.080653,45.879766 L -88.09886,45.88044 L -88.101757,45.883192 L -88.103226,45.894682 L -88.106491,45.897968 L -88.10571,45.905205 L -88.095193,45.916108 L -88.102461,45.921546 L -88.113614,45.922253 L -88.121887,45.920859 L -88.126419,45.925608 L -88.139537,45.930091 L -88.148128,45.937546 L -88.156111,45.937514 L -88.170089,45.939492 L -88.180498,45.948287 L -88.189119,45.951824 L -88.197126,45.953213 L -88.203409,45.948008 L -88.230193,45.947251 L -88.237106,45.948278 L -88.245719,45.954373 L -88.245801,45.963021 L -88.25498,45.963512 L -88.258673,45.959846 L -88.268944,45.956413 L -88.285314,45.955262 L -88.291732,45.951161 L -88.301378,45.956459 L -88.318345,45.961638 L -88.325603,45.955532 L -88.328041,45.963539 L -88.359821,45.981892 L -88.372403,45.985858 L -88.380891,45.991813 L -88.388957,45.982515 L -88.395421,45.980312 L -88.402445,45.981181 L -88.410807,45.979382 L -88.417025,45.975178 L -88.423053,45.978624 L -88.423493,45.982072 L -88.434156,45.98581 L -88.442516,45.990857 L -88.448854,45.989758 L -88.454235,45.993476 L -88.454319,45.997656 L -88.464731,46.000738 L -88.474583,45.998953 L -88.474814,45.993333 L -88.48611,45.991091 L -88.497978,45.995794 L -88.506579,46.01153 L -88.506364,46.01761 L -88.51518217999443,46.020021337225806 L -88.534173,46.020269 L -88.539942,46.014239 L -88.550989,46.012943 L -88.55509,46.015045 L -88.565127,46.015729 L -88.571367,46.013961 L -88.581646,46.006602 L -88.58827,46.005098 L -88.59712,46.017133 L -88.603898,46.016481 L -88.606939,46.008454 L -88.61148,46.003227 L -88.611849,45.99839 L -88.615922,45.993335 L -88.616471,45.987732 L -88.634192,45.988073 L -88.635853,45.98508 L -88.65853558790253,45.98927786858784 L -88.66734,45.994331 L -88.671006,45.998832 L -88.671215,46.004859 L -88.678868,46.013595 L -88.689158,46.013986 L -88.699128,46.018001 L -88.712078,46.016346 L -88.718314,46.013182 L -88.721842,46.017086 L -88.721261,46.022221 L -88.730719,46.026791 L -88.739671,46.027423 L -88.760551,46.019945 L -88.766075,46.024701 L -88.769801,46.018944 L -88.776375,46.015885 L -88.782073,46.016185 L -88.783635,46.024357 L -88.787274,46.029073 L -88.796182,46.033712 L -88.80067,46.030036 L -88.79646,46.023606 L -88.805771,46.021554 L -88.81544,46.022974 L -88.835408,46.030444 L -88.838951,46.029933 L -88.851133,46.040444 L -88.933497,46.073971 L -89.058676,46.124914 L -89.091638,46.138447 L -89.125136,46.144531 L -89.194289,46.157902 L -89.216302,46.162617 L -89.276088,46.173813 L -89.376369,46.19353 L -89.398871,46.19754 L -89.463498,46.210062 L -89.53322,46.224001 L -89.537309,46.224501 L -89.608511,46.238371 L -89.764505,46.268082 L -89.790292,46.273318 L -89.918893,46.29776 L -90.079188,46.328791 L -90.120572,46.337039 L -90.120032,46.344764 L -90.116837,46.350739 L -90.118822,46.359531 L -90.129732,46.369873 L -90.134055,46.372208 L -90.1324989004263,46.38118192019398 L -90.139785,46.385435 L -90.147298,46.395441 L -90.146667,46.399013 L -90.153211,46.404112 L -90.158767,46.41097 L -90.158688,46.422659 L -90.162349,46.427491 L -90.16334896259895,46.43448819043535 L -90.166715,46.439632 L -90.177707,46.440089 L -90.176751,46.447675 L -90.178037,46.455914 L -90.188337,46.458335 L -90.192581,46.461968 L -90.193148,46.472316 L -90.203002,46.477013 L -90.205696,46.484446 L -90.216172,46.501272 L -90.220772,46.503568 L -90.228948,46.501469 L -90.229601,46.508416 L -90.245235,46.505192 L -90.256698,46.504805 L -90.26357,46.502862 L -90.266567,46.507855 L -90.27524,46.515389 L -90.272023,46.520254 L -90.276744,46.524407 L -90.284464,46.518715 L -90.291658,46.520249 L -90.299947,46.517594 L -90.316554,46.516896 L -90.310604,46.532411 L -90.310782,46.539387 L -90.320663,46.546606 L -90.326474,46.545963 L -90.33165,46.553084 L -90.343533,46.552455 L -90.343595,46.54806 L -90.350684,46.540325 L -90.35785,46.538813 L -90.367083,46.541163 L -90.385955,46.533791 L -90.395069,46.533768 L -90.399588,46.544222 L -90.40598,46.548577 L -90.408464,46.55506 L -90.413945,46.556524 L -90.41831481244644,46.56605171352115 L -90.437596,46.561492 L -90.448614,46.564585 L -90.47376,46.574178 L -90.505909,46.589614 L -90.512803,46.589995 L -90.525498,46.586926 L -90.537962,46.581081 L -90.558141,46.586384 L -90.586249,46.599863 L -90.627885,46.623839 L -90.680349,46.656007 L -90.691957,46.663933 L -90.732794,46.690074 L -90.734674,46.68729 L -90.719046,46.676436 L -90.703189,46.667653 L -90.712216,46.665926 L -90.731706,46.669188 L -90.74809,46.669817 L -90.761654,46.661685 L -90.746204,46.663969 L -90.739549,46.659728 L -90.737648,46.655323 L -90.747868,46.651571 L -90.770192,46.636127 L -90.794775,46.624941 L -90.822456,46.619471 L -90.829031,46.616066 L -90.86659,46.601958 L -90.880047,46.598375 L -90.889356,46.590823 L -90.909882,46.582432 L -90.920364,46.583069 L -90.940329,46.588313 L -90.944485,46.587663 L -90.951616,46.600952 L -90.948831,46.604349 L -90.939045,46.608792 L -90.928991,46.61849 L -90.926068,46.625003 L -90.921821,46.627791 L -90.921151,46.637208 L -90.915377,46.646905 L -90.914913,46.659113 L -90.911562,46.663394 L -90.904426,46.666214 L -90.891361,46.668049 L -90.885951,46.670543 L -90.876816,46.677933 L -90.868468,46.680375 L -90.863884,46.685681 L -90.853829,46.693457 L -90.852704,46.699582 L -90.870396,46.723293 L -90.883396,46.746987 L -90.885021,46.756341 L -90.866586,46.764408 L -90.859445,46.773985 L -90.863542,46.780565 L -90.856531,46.788885 L -90.835607,46.789759 L -90.828057,46.797415 L -90.826086,46.803876 L -90.814848,46.808366 L -90.812217,46.813573 L -90.799333,46.823161 L -90.793743,46.832176 L -90.794142,46.835181 L -90.785699,46.84201 L -90.78878,46.8456 L -90.789008,46.853285 L -90.780972,46.858989 L -90.772587,46.871165 L -90.770821,46.880396 L -90.76737,46.884821 L -90.761567,46.88317 L -90.751031,46.887963 L -90.750858,46.893035 L -90.754552,46.89827 L -90.767854,46.90814 L -90.78043,46.909011 L -90.783219,46.912045 L -90.783027,46.920564 L -90.785606,46.926431 L -90.792108,46.933783 L -90.805554,46.937833 L -90.814975,46.931008 L -90.824876,46.93255 L -90.830105,46.935959 L -90.829258,46.948553 L -90.831719,46.953871 L -90.837716,46.957438 L -90.846743,46.958675 L -90.855874,46.962232 L -90.863899,46.962662 L -90.879621,46.958088 L -90.880972,46.951681 L -90.889233,46.947146 L -90.900354,46.944737 L -90.908598,46.941305 L -90.913838,46.9334 L -90.921811,46.931322 L -90.930967,46.932381 L -90.948534,46.938201 L -90.954537,46.938429 L -90.964865,46.94378 L -90.973755,46.941304 L -90.984617,46.925602 L -90.995149,46.917577 L -91.005199,46.916203 L -91.019141,46.911502 L -91.034518,46.903053 L -91.036622,46.893594 L -91.03989,46.88923 L -91.052991,46.881325 L -91.06822,46.878309 L -91.080951,46.883609 L -91.090916,46.88267 L -91.093714,46.879882 L -91.096565,46.86153 L -91.10549,46.85762 L -91.123109,46.856173 L -91.134948,46.858986 L -91.136512,46.860975 L -91.133337,46.870341 L -91.140165,46.873201 L -91.144266,46.870301 L -91.149712,46.858074 L -91.153894,46.855865 L -91.164606,46.854942 L -91.167601,46.84476 L -91.178292,46.844259 L -91.190259,46.84841 L -91.200107,46.854017 L -91.204439,46.858816 L -91.196103,46.868762 L -91.193857,46.873682 L -91.184469,46.877667 L -91.179687,46.885732 L -91.186561,46.885732 L -91.201975,46.871092 L -91.211112,46.866696 L -91.220786,46.86569 L -91.232733,46.860035 L -91.250806,46.841135 L -91.256705,46.836887 L -91.275277,46.832639 L -91.288671,46.83344 L -91.29034,46.830539 L -91.302295,46.830343 L -91.314815,46.826825 L -91.33825,46.817704 L -91.352191,46.807417 L -91.358189,46.800236 L -91.365556,46.794983 L -91.3726,46.792719 L -91.393984,46.790082 L -91.408459,46.794183 L -91.411026,46.79018 L -91.41933,46.786787 L -91.427413,46.780304 L -91.433821,46.780304 L -91.438661,46.776336 L -91.449327,46.773303 L -91.470181,46.768911 L -91.492429,46.766663 L -91.499696,46.761243 L -91.511077,46.757453 L -91.537115,46.754788 L -91.574291,46.757488 L -91.590684,46.754331 L -91.613902,46.746409 L -91.645502,46.734733 L -91.696318,46.723239 L -91.74965,46.709129 L -91.790132,46.694675 L -91.820027,46.690176 L -91.840288,46.689693 L -91.857462,46.692362 L -91.886809,46.689612 L -91.926264,46.681992 L -91.942988,46.679939 L -91.961889,46.682539 L -91.987889,46.692739 L -92.008123,46.705905 L -92.0152691325863,46.706464309800346 L -92.020294,46.704041 L -92.033989,46.708939 L -92.089493,46.749237 L -92.11659,46.74864 L -92.13789,46.73954 L -92.14329,46.73464 L -92.141522,46.725285 L -92.146292,46.716032 L -92.155191,46.71594 L -92.167291,46.719941 L -92.174291,46.717241 L -92.189091,46.717541 L -92.193291,46.711241 L -92.205692,46.702541 L -92.205192,46.698341 L -92.198491,46.696141 L -92.182999,46.695652 L -92.176259,46.690473 L -92.175875,46.686466 L -92.181359,46.680241 L -92.192492,46.676741 L -92.205492,46.664741 L -92.202292,46.655041 L -92.212392,46.649941 L -92.228492,46.652941 L -92.242493,46.649241 L -92.254548,46.658453 L -92.259692,46.657141 L -92.265993,46.651041 L -92.270592,46.650741 L -92.274392,46.657441 L -92.286192,46.660342 L -92.28736712475315,46.666969100825085 L -92.29218643388676,46.66576374425793 L -92.291584,46.634086 L -92.291976,46.503997 L -92.292683,46.441283 L -92.293017,46.374988 L -92.292998,46.324283 L -92.29242,46.31406 L -92.29307,46.294931 L -92.29357,46.251409 L -92.29306,46.23637 L -92.29370415275075,46.15708999489823 L -92.29357,46.122463 L -92.294033,46.074377 L -92.319329,46.069289 L -92.329806,46.065216 L -92.335335,46.059422 L -92.338733,46.048126 L -92.343156,46.043622 L -92.342429,46.034541 L -92.344244,46.02743 L -92.349281,46.023624 L -92.350407,46.016368 L -92.357965,46.013413 L -92.372717,46.014198 L -92.375993,46.015907 L -92.392681,46.01954 L -92.411896,46.027478 L -92.42135206145271,46.02654841801626 L -92.435627,46.021232 L -92.442259,46.016177 L -92.444294,46.009161 L -92.451627,46.000441 L -92.453373,45.992913 L -92.464512,45.985038 L -92.461138,45.980216 L -92.464481,45.976267 L -92.472761,45.972952 L -92.483975,45.97568 L -92.49207,45.975791 L -92.502535,45.979995 L -92.522032,45.984203 L -92.530516,45.981918 L -92.537709,45.977818 L -92.549806,45.967986 L -92.551186,45.95224 L -92.580565,45.94625 L -92.589528,45.941782 L -92.600728,45.941166 L -92.615739,45.934351 L -92.62272,45.935186 L -92.627723,45.932682 L -92.639936,45.933541 L -92.63912,45.924558 L -92.655558,45.924586 L -92.676167,45.912072 L -92.675737,45.907478 L -92.700692,45.89606 L -92.706372,45.895445 L -92.712503,45.891705 L -92.732869,45.869744 L -92.738444,45.861371 L -92.736117,45.859129 L -92.739991,45.846283 L -92.745557,45.841455 L -92.751084,45.840617 L -92.761712,45.833861 L -92.765681,45.827252 L -92.757947,45.811216 L -92.757815,45.806574 L -92.761833,45.801258 L -92.772065,45.79523 L -92.776482,45.790004 L -92.779612,45.782576 L -92.784617,45.764199 L -92.805347,45.747491 L -92.824916,45.737263 L -92.828981,45.733714 L -92.835917,45.732802 L -92.843079,45.729163 L -92.848851,45.728751 L -92.851821,45.723377 L -92.862598,45.722241 L -92.869193,45.717568 L -92.868862,45.711993 L -92.871709,45.70061 L -92.870025,45.697272 L -92.875488,45.689014 L -92.878932,45.665606 L -92.882504,45.659471 L -92.885903,45.645541 L -92.88898,45.642475 L -92.886963,45.636777 L -92.888114,45.628377 L -92.886669,45.61976 L -92.882529,45.610216 L -92.886421,45.594881 L -92.883277,45.589831 L -92.884954,45.578818 L -92.883749,45.575483 L -92.872215,45.568013 L -92.843782,45.566135 L -92.823309,45.560934 L -92.812083,45.561122 L -92.801503,45.562854 L -92.790143,45.566915 L -92.773412,45.568235 L -92.764574,45.563592 L -92.756906,45.557499 L -92.745591,45.553016 L -92.726082,45.541112 L -92.724762,45.538617 L -92.728023,45.525652 L -92.726677,45.514462 L -92.712863,45.504849 L -92.700899,45.491609 L -92.690962,45.475442 L -92.683594,45.470687 L -92.680234,45.464344 L -92.656047,45.456595 L -92.652698,45.454527 L -92.646602,45.441635 L -92.650269,45.419168 L -92.646943,45.414265 L -92.650284,45.398769 L -92.664104,45.393308 L -92.669511,45.389104 L -92.676963,45.380144 L -92.678225,45.373607 L -92.696505,45.363524 L -92.702723,45.358468 L -92.704054,45.35366 L -92.699523,45.342421 L -92.698967,45.336374 L -92.704794,45.326526 L -92.709961,45.321377 L -92.727737,45.309288 L -92.737121,45.300459 L -92.762004,45.288213 L -92.761178,45.280583 L -92.753844,45.270959 L -92.75192,45.265877 L -92.753621,45.259419 L -92.758836,45.254427 L -92.760249,45.2496 L -92.757503,45.238308 L -92.757456,45.230526 L -92.751708,45.218666 L -92.754005,45.212769 L -92.763908,45.204866 L -92.76713,45.194165 L -92.766808,45.185466 L -92.753207,45.174766 L -92.75286452203791,45.16710468049223 L -92.749753,45.162985 L -92.750983,45.158159 L -92.749368,45.147638 L -92.752196,45.142495 L -92.749423,45.13812 L -92.745665,45.123073 L -92.739527,45.116515 L -92.744938,45.108309 L -92.754387,45.103146 L -92.77401,45.089138 L -92.79238823275597,45.07894534334228 L -92.802911,45.065403 L -92.801789,45.05692 L -92.797081,45.050648 L -92.78791,45.043516 L -92.778815,45.039327 L -92.76476,45.028886 L -92.761953,45.0221 L -92.771231,45.001378 L -92.769104,44.987467 L -92.770346,44.983328 L -92.769445,44.97215 L -92.767218,44.968084 L -92.7607,44.964979 L -92.754743,44.955952 L -92.750645,44.937299 L -92.757557,44.911214 L -92.759556,44.907857 L -92.773103,44.901367 L -92.773946,44.889997 L -92.764133,44.875905 L -92.763422,44.872867 L -92.769501,44.862001 L -92.768443,44.850548 L -92.765668,44.84101 L -92.7662866450738,44.83524718265362 L -92.772438,44.82819 L -92.772911,44.821503 L -92.779289,44.814462 L -92.781792,44.809025 L -92.78302,44.798945 L -92.787613,44.789208 L -92.80051,44.777439 L -92.805562,44.768383 L -92.808415,44.751604 L -92.802017,44.745673 L -92.792336,44.739362 L -92.771948,44.732077 L -92.755671,44.723243 L -92.739159,44.718039 L -92.732043,44.714345 L -92.686197,44.682375 L -92.67613,44.672529 L -92.664715,44.663379 L -92.655788,44.658082 L -92.632021,44.649187 L -92.621847,44.639018 L -92.620262,44.628654 L -92.623376,44.62182 L -92.622537,44.616054 L -92.613854,44.611592 L -92.601608,44.612038 L -92.590488,44.605944 L -92.588797,44.601698 L -92.581588,44.600851 L -92.577156,44.605037 L -92.568946,44.603372 L -92.561943,44.59622 L -92.5504,44.582055 L -92.55143,44.572984 L -92.550026,44.568968 L -92.542091,44.566898 L -92.528,44.57325 L -92.5187,44.575228 L -92.506964,44.56972 L -92.493717,44.566052 L -92.48001,44.568308 L -92.458896,44.562745 L -92.4427413190741,44.554097137906254 L -92.436486,44.552884 L -92.426395,44.558803 L -92.415675,44.560506 L -92.391545,44.557643 L -92.368298,44.559182 L -92.347567,44.557149 L -92.329013,44.550895 L -92.317665,44.542802 L -92.313625,44.536873 L -92.310827,44.528756 L -92.302466,44.516487 L -92.302961,44.503601 L -92.298484,44.494621 L -92.291005,44.485464 L -92.282364,44.477707 L -92.267447,44.467864 L -92.244884,44.456842 L -92.233897,44.446334 L -92.221083,44.440386 L -92.195378,44.433792 L -92.162454,44.427208 L -92.139569,44.424673 L -92.125171,44.42221 L -92.112885,44.414572 L -92.087239,44.40885 L -92.078605,44.404869 L -92.061637,44.404124 L -92.053549,44.401375 L -92.0377985122115,44.3885932104326 L -92.02191,44.382105 L -92.004616,44.378194 L -92.000165,44.374966 L -91.98709758735438,44.369080255539906 L -91.970226,44.365821 L -91.959996,44.359797 L -91.941311,44.340978 L -91.928224,44.335473 L -91.923851,44.331387 L -91.916191,44.318094 L -91.91436,44.30823 L -91.924879,44.29573 L -91.920282,44.286496 L -91.902434,44.279724 L -91.895652,44.273008 L -91.896008,44.262871 L -91.887189,44.252513 L -91.887905,44.246398 L -91.892963,44.235149 L -91.88979,44.226286 L -91.880265,44.216555 L -91.876356,44.209575 L -91.875158,44.200575 L -91.864387,44.196574 L -91.844754,44.184878 L -91.829167,44.17835 L -91.817302,44.164235 L -91.796669,44.154335 L -91.774486,44.147539 L -91.756719,44.136804 L -91.751747,44.134786 L -91.730648,44.1329 L -91.719097,44.128853 L -91.710597,44.12048 L -91.70753037499726,44.10397639105654 L -91.69531,44.09857 L -91.68153,44.0974 L -91.665263,44.085041 L -91.659511,44.074203 L -91.646446,44.063337 L -91.637056,44.062821 L -91.625148,44.054589 L -91.615375,44.051598 L -91.605015,44.045306 L -91.597617,44.034965 L -91.582604,44.027381 L -91.560509,44.025498 L -91.547028,44.022226 L -91.527778,44.021623 L -91.507121,44.01898 L -91.494988,44.012536 L -91.48025,44.008052 L -91.463515,44.009041 L -91.440541,44.001518 L -91.429757,43.993778 L -91.424134,43.982631 L -91.415043,43.975629 L -91.406011,43.963929 L -91.385798,43.954241 L -91.366642,43.937463 L -91.363227,43.926557 L -91.35674,43.916564 L -91.347741,43.911964 L -91.342335,43.902697 L -91.336613,43.89686 L -91.325158,43.89203 L -91.31531,43.881808 L -91.311266,43.867832 L -91.298815,43.856555 L -91.290193,43.852207 L -91.284138,43.847065 L -91.277329,43.836749 L -91.275737,43.824866 L -91.271153,43.811998 L -91.267849,43.808761 L -91.262431,43.79236 L -91.244135,43.774667 L -91.255431,43.744876 L -91.255367,43.731419 L -91.258756,43.723426 L -91.268455,43.709824 L -91.267792,43.695652 L -91.27264,43.67536 L -91.273316,43.668307 L -91.271749,43.654929 L -91.263856,43.647662 L -91.263178,43.638203 L -91.268457,43.627352 L -91.268748,43.615348 L -91.258267,43.603484 L -91.252926,43.600363 L -91.236666,43.587656 L -91.231398,43.578212 L -91.232812,43.564842 L -91.24382,43.54913 L -91.243183,43.540309 L -91.236725,43.53293 L -91.232941,43.523967 L -91.225167,43.519497 L -91.217353,43.512474 L -91.217706,43.50055 L -91.217615,43.491008 L -91.215282,43.484798 L -91.220399,43.471306 L -91.224586,43.465525 L -91.232241,43.460018 L -91.233367,43.455168 L -91.22875,43.445537 L -91.218182,43.434688 L -91.207145,43.425031 L -91.203144,43.419805 L -91.19767,43.395334 L -91.200701,43.38593 L -91.207367,43.373659 L -91.214971,43.366389 L -91.20662,43.352524 L -91.201847,43.349103 L -91.181115,43.345926 L -91.17146457747329,43.341168898080525 L -91.154806,43.334826 L -91.137343,43.329757 L -91.129121,43.32635 L -91.107237,43.313645 L -91.085652,43.29187 L -91.082099,43.285507 L -91.071724,43.271392 L -91.071698,43.261014 L -91.061798,43.259952 L -91.05791,43.253968 L -91.062562,43.243165 L -91.079278,43.228259 L -91.107931,43.206578 L -91.119115,43.200366 L -91.123896,43.193536 L -91.124428,43.187886 L -91.134173,43.174405 L -91.138649,43.169993 L -91.143283,43.156413 L -91.1562,43.142945 L -91.175253,43.134665 L -91.177932,43.128875 L -91.177728,43.118733 L -91.175305,43.104968 L -91.177264,43.072983 L -91.179382,43.068624 L -91.174692,43.038713 L -91.169572,43.022153 L -91.15749,42.991475 L -91.155519,42.975774 L -91.14655,42.963345 L -91.14554,42.95651 L -91.14909,42.946554 L -91.149784,42.940244 L -91.144315,42.926592 L -91.143875,42.92072 L -91.146203,42.909868 L -91.143491,42.904698 L -91.137386,42.903523 L -91.120369,42.897187 L -91.100565,42.883078 L -91.098238,42.875798 L -91.09882,42.864421 L -91.091586,42.848664 L -91.095114,42.834966 L -91.089942,42.829263 L -91.08277,42.829977 L -91.078665,42.827678 L -91.078569,42.809626 L -91.0756033289927,42.79593743624753 L -91.07083,42.782225 L -91.069369,42.769283 L -91.060261,42.761847 L -91.065606,42.756766 L -91.06468,42.750914 L -91.060172,42.750481 L -91.055127,42.745806 L -91.054801,42.740529 L -91.051275,42.737001 L -91.039383,42.738478 L -91.033389,42.736025 L -91.029692,42.726774 L -91.017239,42.719566 L -91.010572,42.720269 L -91.000128,42.716189 L -90.988776,42.708724 L -90.980578,42.698932 L -90.974237,42.695249 L -90.965048,42.693233 L -90.952415,42.686778 L -90.937045,42.683399 L -90.921155,42.685406 L -90.9134,42.682949 L -90.903351,42.677549 L -90.892682,42.673763 L -90.862493,42.66769 L -90.84391,42.663071 L -90.769495,42.651443 L -90.756946,42.647756 L -90.750126,42.647057 L -90.720209,42.640758 L -90.711749,42.637472 L -90.702671,42.630756 L -90.700095,42.622461 L -90.693999,42.614509 L -90.687999,42.599198 L -90.686975,42.591774 L -90.679375,42.581503 L -90.661527,42.567999 L -90.659127,42.5579 L -90.654127,42.5499 L -90.648885,42.546323 L -90.644033,42.53986 L -90.641921,42.530141 L -90.637084,42.521186 L -90.635986,42.515452 L -90.642799698288,42.50847685693497 L -90.569516,42.507645 L -90.544889,42.507841 L -90.426377,42.507173 L -90.4029035098644,42.50689809808894 L -90.3023122488318,42.50750120516501 L -90.252379,42.507567 L -90.157406,42.508325 L -90.095234,42.507886 L -90.07367,42.508275 L -90.031804,42.507712 L -89.95507782760619,42.50567747199337 L -89.830882,42.505717 L -89.66982,42.505044 L -89.599875,42.5037 L -89.56345440567874,42.50260412278338 L -89.48416,42.501548 L -89.353489,42.499951 L -89.262669,42.49819 L -89.164656,42.497259 L -89.126192,42.497069 L -89.06744398305806,42.49625111053975 L -88.991785,42.496005 L -88.860733,42.493506 L -88.8256,42.492401 L -88.77659,42.491913 L -88.747028,42.492411 L -88.660794,42.494759 L -88.606694,42.495094 L -88.471622,42.494618 L -88.461814,42.494798 L -88.389994,42.494516 L -88.302734,42.494622 L -88.23789,42.494895 L -88.14705896680643,42.49556042627533 L -88.0834,42.495637 L -88.005079,42.494912 L -87.971581,42.494843 L -87.898195,42.493902 L -87.802532,42.492394 Z M -90.4653206076641,47.0027766442714 L -90.465239,46.997588 L -90.456639,46.996991 L -90.45103,46.999536 L -90.441709,46.998604 L -90.431497,47.001948 L -90.430716,47.005538 L -90.421165,47.012877 L -90.414095,47.013695 L -90.404145,47.024702 L -90.407547,47.037926 L -90.401168,47.045243 L -90.399248,47.053666 L -90.394948,47.058981 L -90.393247,47.068847 L -90.395067,47.076957 L -90.401457,47.076778 L -90.410117,47.073493 L -90.417164,47.076897 L -90.435976,47.073553 L -90.448278,47.065312 L -90.454728,47.052292 L -90.4564,47.045305 L -90.455251,47.024 L -90.457453,47.012783 L -90.4653206076641,47.0027766442714 Z M -90.514493,46.877529 L -90.514289,46.874273 L -90.499223,46.871407 L -90.484835,46.872623 L -90.47556,46.875091 L -90.473021,46.881396 L -90.465488,46.883034 L -90.461231,46.887783 L -90.450586,46.892859 L -90.451263,46.89891 L -90.485844,46.887477 L -90.497008,46.88602 L -90.505081,46.880851 L -90.514493,46.877529 Z M -90.575506,47.033864 L -90.575056,47.029301 L -90.569845,47.027135 L -90.567951,47.009564 L -90.563316,46.996563 L -90.558674,46.996182 L -90.546484,47.005327 L -90.544876,47.017384 L -90.562188,47.027276 L -90.566278,47.030955 L -90.562537,47.037049 L -90.569845,47.038799 L -90.575506,47.033864 Z M -90.590853,47.065238 L -90.584732,47.062592 L -90.58363,47.072966 L -90.58958,47.072401 L -90.590853,47.065238 Z M -90.624987,47.003962 L -90.62721,47.002614 L -90.62204,46.993336 L -90.617447,46.989426 L -90.609718,46.991207 L -90.603172,46.995373 L -90.602577,47.00251 L -90.605972,47.007042 L -90.618205,47.007997 L -90.624987,47.003962 Z M -90.651429,47.032691 L -90.64452,47.025272 L -90.638992,47.028691 L -90.637101,47.0364 L -90.644956,47.040182 L -90.651429,47.032691 Z M -90.654263,46.92234 L -90.654809,46.919535 L -90.644144,46.908379 L -90.639087,46.906487 L -90.628365,46.908165 L -90.614424,46.912604 L -90.610957,46.919677 L -90.601658,46.920175 L -90.595874,46.91565 L -90.585731,46.916238 L -90.577099,46.922037 L -90.568532,46.925134 L -90.558977,46.923157 L -90.549817,46.916568 L -90.550212,46.908001 L -90.539734,46.910175 L -90.543579,46.914419 L -90.547708,46.924146 L -90.545533,46.931592 L -90.539537,46.934228 L -90.529216,46.932172 L -90.524973,46.933899 L -90.523303,46.943928 L -90.509421,46.954591 L -90.511623,46.961407 L -90.523298,46.967604 L -90.528804,46.968497 L -90.541976,46.965009 L -90.549483,46.961462 L -90.558005,46.95966 L -90.576465,46.958464 L -90.601153,46.952457 L -90.617856,46.944606 L -90.628783,46.944378 L -90.637125,46.941939 L -90.654263,46.92234 Z M -90.678443,46.956427 L -90.671585,46.948975 L -90.653271,46.957586 L -90.648509,46.9632 L -90.640814,46.965662 L -90.634102,46.970982 L -90.634122,46.979629 L -90.642959,46.981026 L -90.654922,46.976933 L -90.658363,46.972581 L -90.66872,46.966994 L -90.6727,46.96014 L -90.678443,46.956427 Z M -90.692993,47.031063 L -90.692807,47.023374 L -90.680302,47.018945 L -90.676156,47.029709 L -90.673174,47.0324 L -90.670484,47.041127 L -90.660144,47.044381 L -90.65041,47.050509 L -90.657051,47.052933 L -90.659356,47.048691 L -90.671647,47.0444 L -90.683401,47.04528 L -90.688679,47.043222 L -90.692993,47.031063 Z M -90.702708,46.886971 L -90.696766,46.879823 L -90.689674,46.878967 L -90.673194,46.883279 L -90.667441,46.891355 L -90.677906,46.895858 L -90.687472,46.893252 L -90.702708,46.886971 Z M -90.7117728548454,46.9875914436521 L -90.707275,46.98288 L -90.694778,46.98288 L -90.674186,46.99764 L -90.669205,47.00013 L -90.680504,47.007271 L -90.696564,47.008461 L -90.702093,47.004892 L -90.711441,46.990612 L -90.7117728548454,46.9875914436521 Z M -90.730865,47.080006 L -90.73191,47.077485 L -90.730039,47.065614 L -90.721973,47.063209 L -90.720772,47.07329 L -90.723991,47.077942 L -90.730865,47.080006 Z M -90.7632498184404,46.8332921132274 L -90.759903,46.830904 L -90.751663,46.833171 L -90.744044,46.837647 L -90.732769,46.847562 L -90.722555,46.860214 L -90.72051,46.865677 L -90.72663,46.872355 L -90.735983,46.872837 L -90.749481,46.862469 L -90.75785,46.85041 L -90.7632498184404,46.8332921132274 Z M -90.765289,46.947021 L -90.762603,46.941685 L -90.755296,46.936971 L -90.754196,46.92989 L -90.748522,46.927332 L -90.736696,46.913442 L -90.724498,46.914969 L -90.693248,46.916153 L -90.688988,46.917461 L -90.690824,46.929026 L -90.694489,46.93671 L -90.705489,46.944502 L -90.715645,46.958363 L -90.727602,46.958249 L -90.734243,46.959753 L -90.740547,46.964207 L -90.749444,46.959012 L -90.765289,46.947021 Z M -90.774931,47.024519 L -90.774504,47.015335 L -90.770798,47.005048 L -90.765908,47.002076 L -90.750617,47.000446 L -90.740153,47.009957 L -90.740717,47.017941 L -90.75691,47.031352 L -90.75891,47.034719 L -90.769392,47.030058 L -90.774931,47.024519 Z M -90.791562,46.784983 L -90.790965,46.781373 L -90.783086,46.772939 L -90.782135,46.767955 L -90.78929,46.758979 L -90.787894,46.752773 L -90.771228,46.753034 L -90.763647,46.754927 L -90.752867,46.760755 L -90.748607,46.765944 L -90.739425,46.768021 L -90.723938,46.781737 L -90.716456,46.785418 L -90.696465,46.78204 L -90.682153,46.784144 L -90.668427,46.787477 L -90.657179,46.7888 L -90.652219,46.794511 L -90.65531,46.799173 L -90.670049,46.799496 L -90.675321,46.805387 L -90.676805,46.812602 L -90.673847,46.81967 L -90.653849,46.825661 L -90.642625,46.827775 L -90.613822,46.837942 L -90.584489,46.839825 L -90.578263,46.841653 L -90.570006,46.849696 L -90.580336,46.853537 L -90.587392,46.858056 L -90.602552,46.872706 L -90.616452,46.874466 L -90.622048,46.872872 L -90.634048,46.864396 L -90.643218,46.853844 L -90.656946,46.843476 L -90.675364,46.833929 L -90.712381,46.820743 L -90.727818,46.810434 L -90.728546,46.804356 L -90.733001,46.800219 L -90.743189,46.798213 L -90.752444,46.798102 L -90.767073,46.791474 L -90.786254,46.788244 L -90.791562,46.784983 Z M -90.805717,46.971788 L -90.801609,46.968847 L -90.790781,46.970426 L -90.787356,46.979462 L -90.797548,46.979504 L -90.797383,46.97612 L -90.805717,46.971788 Z M -90.806147,46.730252 L -90.786158,46.726423 L -90.784425,46.729375 L -90.794334,46.730969 L -90.806147,46.730252 Z M -90.878591,46.991318 L -90.876335,46.984962 L -90.870272,46.983373 L -90.85968,46.976395 L -90.856346,46.976395 L -90.851267,46.985388 L -90.86338,46.985319 L -90.871223,46.986941 L -90.878591,46.991318 Z M -90.9831067131366,46.9821711392273 L -90.980316,46.971577 L -90.970823,46.970339 L -90.965827,46.962191 L -90.952991,46.964134 L -90.946411,46.962654 L -90.931956,46.963117 L -90.930351,46.967415 L -90.934467,46.982468 L -90.923793,46.987911 L -90.92828,46.99423 L -90.930896,47.002097 L -90.937485,47.003105 L -90.937902,46.996453 L -90.950291,46.990312 L -90.955925,46.991207 L -90.970719,46.989029 L -90.982101,46.985855 L -90.9831067131366,46.9821711392273 Z M -86.956198,45.352006 L -86.956129,45.342267 L -86.948087,45.335296 L -86.931748,45.332383 L -86.927169,45.329695 L -86.918202,45.317021 L -86.906705,45.310456 L -86.903038,45.302053 L -86.904898,45.296839 L -86.897074,45.296061 L -86.897353,45.303094 L -86.90038,45.311495 L -86.908667,45.316624 L -86.909135,45.322784 L -86.900443,45.336018 L -86.891484,45.338191 L -86.875117,45.33087 L -86.866455,45.335684 L -86.865499,45.340981 L -86.868594,45.349549 L -86.863603,45.355896 L -86.863563,45.364888 L -86.853103,45.370861 L -86.849404,45.370136 L -86.841115,45.386611 L -86.824383,45.406135 L -86.818073,45.408147 L -86.808303,45.406067 L -86.805868,45.412903 L -86.810055,45.422619 L -86.817069,45.426963 L -86.828661,45.428539 L -86.8309,45.426023 L -86.829143,45.41649 L -86.830353,45.410852 L -86.853145,45.405547 L -86.861472,45.412067 L -86.877502,45.413981 L -86.892893,45.40898 L -86.901631,45.409484 L -86.914268,45.408227 L -86.918982,45.404644 L -86.923498,45.397302 L -86.929202,45.39897 L -86.927063,45.40915 L -86.930511,45.417536 L -86.937393,45.420966 L -86.943041,45.41525 L -86.955204,45.383721 L -86.94751,45.366434 L -86.946297,45.35869 L -86.954634,45.358569 L -86.956198,45.352006 Z M -86.9600468617081,45.3117747586993 L -86.957222,45.304756 L -86.94416,45.300632 L -86.943165,45.30462 L -86.947601,45.312321 L -86.957909,45.315067 L -86.9600468617081,45.3117747586993 Z M -87.377548,45.183924 L -87.37697,45.17817 L -87.334781,45.160812 L -87.332408,45.162199 L -87.337978,45.17001 L -87.338605,45.175816 L -87.336033,45.180736 L -87.335084,45.195536 L -87.337569,45.202363 L -87.332344,45.206384 L -87.337039,45.211673 L -87.343928,45.207561 L -87.345715,45.202253 L -87.352731,45.198029 L -87.359714,45.197697 L -87.363253,45.202253 L -87.369246,45.198221 L -87.375199,45.198193 L -87.374374,45.189366 L -87.377548,45.183924 Z" fill="none" stroke=currentColor stroke-width="1" vector-effect="non-scaling-stroke"/>
</svg>