<?xml version="1.0"?>
<svg width="200" height="200" xmlns="http://www.w3.org/2000/svg" version="1.2" baseProfile="tiny" viewBox="-97.640 -68.640 995.280 995.280" stroke-linecap="round" stroke-linejoin="round">
<g id="state">
<path vector-effect="non-scaling-stroke" d="M 682.8 853.7 669.57 853.77 659.43 853.85 654.81 853.95 643.98 854.08 635.19 854.3 622.65 854.7 613.69 854.94 601.64 855.21 591.71 855.35 590.36 855.41 571.7 855.65 564.23 855.84 552.32 856.47 548.24 856.63 541.46 856.63 536.61 856.5 518.49 856.27 508.04 856.35 499.92 856.29 494.61 856.31 481.06 856.26 468.51 856.04 450.46 855.87 439.5 855.74 434.47 855.56 424.81 855.35 402.56 855.3 385.4 855.33 374.8 854.95 369.02 854.84 366.04 854.91 357.45 854.81 344.33 854.92 337.43 854.91 323.54 854.96 320.29 854.9 303.92 854.67 300.52 854.69 290.4 854.46 291.35 853.16 291.21 852.09 290.55 850.41 290.27 848.59 289.61 847.38 288.9 846.71 288.22 845.21 287.9 843.32 285.46 840.78 284.43 838.85 284.3 837.47 283.5 834.6 282.67 833.11 282.33 831.56 281.09 830.29 279.92 829.67 275.81 828.46 274.87 828.32 273.15 827.61 262.92 825.34 260.37 824.45 256.22 823.27 254.76 822.55 253.39 821.53 252.32 821.05 250.13 821.4 248.02 820.75 246.3 819.52 245.03 819.13 244.17 818.43 243.06 816.59 241.52 815.18 240.09 814.4 239.17 814.52 237.47 813.15 236.99 811.42 236.17 810.95 234.53 811.21 234.05 810.54 234.02 809.56 233.34 808.67 232.72 808.58 232.6 807.49 233.35 806.55 232.12 805.15 231.95 802.73 231.33 800.16 230.95 797.6 230.98 794.23 230.42 793.79 229.44 793.91 228.74 792.84 229.26 790.29 228.31 787.33 228.42 785.21 228.11 783.85 225.43 781.18 223.11 779.96 222.28 779.73 221.92 778.76 222.27 776.74 222.22 775.64 221.51 773.08 221.62 771.91 222.13 770.06 222.01 768.78 220.82 766.44 220.59 763.51 219.02 757.76 218.36 754.66 217.8 749.07 218.1 748.26 218.45 742.29 218.16 739.72 218.16 737.82 218.54 736.75 221.17 735.24 222.97 732.75 223.64 730.23 224.26 729.41 225.63 726.91 225.71 725.86 226.38 724.59 227.93 723.46 231.89 719.46 234.21 716.71 234.87 714.7 234.36 713.58 233.01 713.36 233.03 711.43 231.65 708.77 231.18 707.58 228.29 703.47 225.34 701.06 224.23 700.41 221.87 699.43 219.62 698.22 218.31 697.31 215.5 696.67 214.86 696.03 213.76 693.42 214.82 692.08 215.76 689.8 216.2 688.05 215.52 683.48 214.99 682.49 213.51 680.67 212.11 678.62 211.51 676.82 211.67 675.91 212.73 674.9 213.32 673.83 214.05 671.32 213.75 670.16 213.76 668.38 213.84 666.15 212.8 664.83 211.76 663.98 211.27 662.3 210.42 660.91 210.35 659.26 211.89 656.35 212.12 653.86 211.43 652.09 209.27 649.68 208.55 649.09 207.16 646.85 207.24 644.61 207.99 642.6 207.92 640.83 206.87 639.46 206.7 636.96 206.81 635.64 207.53 631.87 207.48 629.22 208.83 626.7 209.31 625.22 209.34 622.71 210.96 617.17 208.53 613.83 207.85 610.76 207.41 610.15 206.83 607.74 206.65 605.52 205.76 603.58 204.96 602.61 203.81 601.78 202.16 599.65 201.66 597.03 200.36 595.1 198.83 594.17 198.07 593.07 197.37 591.33 196.17 590.45 195.33 588.57 194.9 586.53 192.37 583.35 189.68 581.5 188.5 579.3 187.3 577.97 186.58 575.87 185.15 574.4 182.08 572.95 179.83 573.09 177.86 572.22 176.24 570.98 173.47 570.44 170.88 570.28 169.08 569.63 166.11 569.22 164.12 567.77 163.16 565.82 161.79 564.62 160.49 564.03 158.91 562.46 157.65 562.34 155.94 560.28 155.2 558.24 153.06 555.89 151.22 555.63 149.59 554.59 149.25 551.5 148.14 549.92 146.6 549.13 143.77 548.72 143.11 548.33 140.77 546.27 137.82 544.94 135.09 543.03 133.55 540.36 131.49 539.09 128.9 536.85 127.47 536.07 127.35 534.39 126.86 533.07 125.62 531.23 125.24 529.57 125.96 527.48 126.09 526.34 124.95 524.38 125.04 522.49 124.16 521.22 121.8 519.9 121.22 518.16 122.69 515.86 122.49 514.02 121.52 511.51 120.95 510.74 119.22 509.67 116.81 506.1 115.46 504.94 113.22 504.28 111.5 503.14 110.92 502.52 108.62 501.73 106.53 500.47 104.48 498.03 103.41 497.49 101.15 497.29 100.01 496.52 96.61 495.37 95 493.9 93.09 493.39 90.04 492.83 85.68 491.49 82.27 490.16 80.59 489.01 79.18 487.01 76.22 484.87 74.28 482.97 73.17 481.5 72.21 479.76 71.66 478.07 71.8 475.66 70.75 473.34 70.42 471.82 69.91 470.7 68.44 469.15 66 467.91 63.24 467.45 60.14 467.64 56.93 467.01 55.49 467.29 54.12 468.35 53.29 468.1 51.18 466.42 48.4 465.3 46.56 465.67 44.81 464.93 43.28 463.85 42.03 464.18 40.11 465.31 39.07 464.89 38.9 464.13 39.09 462.45 37.64 459.75 36.75 458.39 35.66 458.05 35.05 458.81 34.09 458.62 33.89 457.82 32.45 456.64 30.81 456.67 29.68 455.8 29.6 454.72 30.06 453.46 29.91 451.52 28.62 449.58 25.51 447.81 24.35 446.79 22.89 445.03 21.61 443.15 15.71 436.98 14.79 436.26 12.62 435.22 10.52 433.5 7.85 432.04 6.61 430.82 5.79 429.69 6.28 426.57 7.01 424.91 8.8 422.77 9.47 420.97 9.7 419.1 10.07 418.1 10.96 416.81 11.06 415.57 11.92 414.28 12.04 413.21 11.73 411.42 11.67 409.27 12.54 407.28 12.47 406.71 11.26 404.03 11.44 401.92 13.28 400.77 13.56 400.15 14.64 395.31 14.22 391.82 13.49 390.11 12.64 389.5 12.38 388.73 12.33 386.64 12.52 385.87 12.33 383.27 13.68 379.45 13.36 378.17 11.56 376.16 10.39 375.33 9.22 373.96 8.64 372.77 8.55 371.18 10.02 368.71 12.52 366.89 15.2 364.36 16.48 363.44 17.25 361.94 16.48 360.69 16.08 357.86 15.74 357.03 16.14 356.09 16 354.12 16.19 353.22 15.8 352.44 15.81 351.01 14.08 348.95 14.09 347.33 14.59 345.35 15.94 343.92 16.28 342.83 15.6 340.59 15.64 339.14 15.35 337.02 15.57 336.12 16.29 335.22 16.55 334.02 16.33 333.06 15.43 331.23 15.37 329.81 18.72 327.63 20.01 326.03 22.43 323.85 23.14 322.91 23.97 321.1 23.93 319.97 23.4 317.86 23.61 316.96 24.46 316.05 26.92 314.25 27.13 313.03 28.17 311.39 28.9 310.63 30.75 309.67 31.28 306.8 30.88 305.87 31.5 301.69 30.77 299.26 30.35 298.86 27.22 297.31 26.82 296.11 25.88 295.19 24.68 292.14 23.19 289.61 21.44 287.76 21.33 285.67 21.84 283.26 21.68 282.79 19.2 280.48 17.74 279.6 16.78 278.43 15.65 277.52 13.45 277.69 11.93 278.4 10.54 278.67 9.06 278.66 6.42 277.59 2.7 277.11 1.24 275.66 1.1 275.04 1.4 272.99 1.02 272.03 1.63 269.19 1.15 267.39 1.02 265.78 1.23 264.21 1 263.14 1.42 262.58 1.96 260 2.47 258.87 3.07 254.52 3.84 253.01 3.64 252.38 4.09 250.27 4.08 249.23 4.98 248.38 6.39 248.22 6.82 247.23 7.57 247.18 8.53 246.54 9.44 246.4 10 245.75 12.62 243.93 15.44 240.91 16.21 237.5 16.66 236.13 17.27 235.18 18.65 234.1 19.2 233.12 19.22 232.26 18.31 229.23 18.87 228.02 20.3 226.8 21.02 226.67 21.78 225.79 22.37 223.41 22.08 222.99 22.86 221.45 25.65 217.44 26.47 216.77 27.21 216.68 30.53 214.65 30.51 213.8 33.27 211.55 35.41 211.62 35.36 209.94 36.94 210.16 37.61 209.71 38.51 209.9 40.51 208.69 41.97 208.62 43.16 207.82 47.02 206.82 47.29 203.89 48.92 202.11 49.88 201.37 51 200.98 53.51 201.84 54.85 202.67 55.9 202.72 57.35 203.28 58.44 202.69 58.9 201.97 58.49 201.05 59.98 199.63 60.25 198.23 61.25 196.63 61.56 195.33 62.45 194.41 64.33 193.47 65.57 193.34 68.02 194.89 70.17 195.64 70.59 195.97 72.5 196.17 73.5 195.65 73.69 194.3 74.36 193.6 74.64 192.28 74.59 190.59 75.19 189.76 75.69 187.67 76.44 186.61 77.83 185.89 81.14 185.03 81.45 176.06 81.62 169.59 82.12 154.8 82.13 151.99 82.43 143.87 82.61 140.3 82.59 138.39 82.85 128.92 83.25 116.55 83.67 104.85 84.41 80.56 84.49 74.64 85.12 74.44 85.24 75.68 86.74 76.26 87.19 77.53 87.78 77.49 88.63 76.37 89.29 76.14 90.8 77.91 92.62 77.27 94.67 77.88 96 76.97 95.63 75.14 97.36 72.95 98.81 72.33 99.55 71.19 99.52 70.44 98.68 69.45 96.69 69.31 95.84 68.87 95.8 68.09 97.44 66.5 98.01 65.34 99.91 65.45 100.82 64.97 102.35 65.76 103.5 65.77 104.15 64.06 103.97 62.31 104.69 61.41 107.47 59.78 110.95 59.76 117.89 67.47 119.62 68.42 120.28 67.99 121.19 68.12 123.73 70.64 127.03 72.62 129.44 73.17 131.6 72.84 136.71 71.53 140.49 71.11 142.68 71.65 145.29 71.62 149.15 70.87 154.41 68.28 161.31 65.79 167.88 63.78 171.99 61.68 174.99 60.26 177.11 59.71 181.87 60.31 185.22 59.87 186.7 59.19 187.65 58.2 190.51 57.83 193.2 57.06 194.58 56.51 195.21 55.78 196.04 55.8 197.1 54.61 198.17 53.99 198.51 53.25 200.36 54.05 203.11 53.6 204.02 53.19 204.98 52.23 205.77 50.9 207.59 49.01 210.62 47.35 212.24 46.72 213.77 46.71 214 46.17 215.71 46.35 218.1 45.59 218.87 44.81 221.24 41.32 222.79 40.28 224.03 40.11 225.21 39.31 227.23 36.6 228.11 36.62 227.47 38.11 226.26 38.84 225.96 39.76 224.86 41.6 225.4 42.5 226.65 43.57 228.17 44.37 229.55 44.29 229.96 42.4 231.33 42.24 231.87 41.84 232.6 39.56 233.14 39.03 234 39.58 233.57 41.32 233.77 41.69 235.28 42.24 237.54 42 238.69 41.29 239.1 37.86 239.47 37.35 240.75 37.19 242.36 38.2 244.32 37.66 246.02 36.21 246.45 35.4 246.74 33.64 248.73 32.08 250.52 31.23 251.81 30.99 253.18 29.5 254.6 26.59 255.75 26.14 257.06 27.15 257.82 27.2 260.06 28.32 261.23 28.53 262.25 28.15 262.94 26.68 264 26.05 265.43 25.62 266.5 24.78 266.68 23.59 268.7 22.76 269.73 22.85 270.89 23.52 272.04 23.77 272.8 24.44 273.11 25.44 272.97 27.79 273.64 28.43 274.9 28.73 276.12 27.47 277.83 28.24 278.65 29.63 278.97 30.72 278.93 32.32 279.28 32.89 280.89 33.06 282.58 34.92 283.04 35.91 283.01 36.85 281.65 37.74 280.91 37.42 280.46 38.24 280.22 39.97 279.12 42.23 278.08 43.28 278.1 44.72 278.49 45.4 277.39 46.66 277.44 47.22 276.7 48.9 275.03 50.67 274.69 51.64 273.24 52.47 272.97 53.67 271.99 55.09 269.3 55.23 268.39 56.77 268.9 58.01 267.96 59.78 265.58 61.27 265.77 63.02 267.39 67.46 269.62 71.91 269.46 73.05 268.15 74.49 267.55 75.48 266.48 75.92 265.29 77.29 264.59 77.75 262.9 78.07 261.98 78.59 261.54 79.38 261.45 81.66 260.69 83.46 260.58 85.22 260.03 85.74 259.64 86.95 258.33 88.75 257.06 89.56 256.69 90.19 257.58 92.68 258.12 92.57 260.68 93.58 262.03 93.71 264.69 92.17 265.9 90.78 267.64 90.13 272.5 87.54 273.35 86.91 276.93 85.93 280.11 83.87 283.01 81.01 284.33 80.32 284.09 79.5 283.24 78.7 281.25 79.11 283.01 77.6 285.12 77.74 287.62 78.37 288.78 78.06 286.75 76.4 284.76 74.36 285.01 73.84 290.22 78.77 291.7 80.26 298.4 86.32 303.72 90.84 307.32 93.38 309.92 94.39 311.53 93.31 313.17 92.75 314.05 92.82 318.18 95.73 321.41 97.54 322.82 98.13 325.31 97.29 325.86 99.07 326.57 99.35 326.88 100.56 327.7 101.38 328.27 103.33 329.45 103.33 331.89 101.97 333.08 102.41 334 102.13 334.92 100.69 334.93 99.87 336.46 99.76 337.12 101.09 337.87 100.98 339.14 102.33 339.16 103.63 338.38 106.53 340.52 106.41 341.59 105.91 342.52 106.2 343.52 105.14 344.12 105.92 343.71 106.83 344.82 108.24 345.2 109.17 346.09 108.81 347.57 108.75 349.59 108.15 349.67 109.45 350.72 109.06 351.32 109.49 352.66 112.63 353 114.02 354.27 114.9 354.34 116.84 354.89 117.52 356.22 117.97 356.38 119.51 356.25 120.93 357.67 121.01 358.1 121.98 358.23 123.28 358.7 124.19 358.69 126.37 359.4 127.65 360.24 128.6 360.16 129.27 361.13 131.14 362.07 131.94 361.87 133.61 362.42 134.05 363.83 135.98 364.09 137.63 363.67 138.74 363.6 140.18 368.95 141.73 389.69 147.52 406.35 152.06 409.69 153.03 429.92 158.5 439.16 161.04 439.69 161.13 448.74 163.68 457.14 165.95 460.06 166.68 473.09 170.26 480.87 172.27 483.73 173.13 492.73 175.53 497.09 176.62 501.4 179.1 517.78 188.41 528.57 194.52 530.18 196.46 530.64 196.36 533.25 197.71 534.52 197.96 535.72 197.56 535.16 196.37 535.73 195.67 536.9 196.52 537.39 197.39 537.61 198.92 538.35 198.96 539.2 198.38 539.67 197.3 540.4 198.17 543.1 196.73 544.26 196.83 545.5 197.67 545.44 198.63 545.91 199.35 546.72 198.75 548.4 198.41 549.7 199.14 551.04 199.19 552.07 200.8 552.11 201.93 552.6 202.76 553.76 203.69 556.73 204.42 556.93 203.86 559.24 203.88 559.3 202.84 559.81 201.88 559.84 200.98 560.42 199.99 560.79 198.49 561.66 198.35 562.85 200.58 563.71 200.28 565.02 198.88 565.83 198.54 567.14 198.65 567.68 199.03 569.11 198.76 569.84 197.62 572.31 197.62 573.47 198.05 573.46 199.19 574.63 202.1 576.19 202.95 577.65 202.51 577.66 201.46 578.94 201.1 580.31 201.65 580.33 202.43 581.04 203.11 581.87 202.89 582.97 203.81 584.37 204.48 584.44 205.12 585.24 205.75 586.03 204.95 587.11 204.59 588.03 204.74 588.87 204.31 589.88 202.55 591.01 203.64 592.66 204.35 596.86 207.69 597.21 209.18 598.13 208.02 600.36 208.94 601.64 209.9 602.46 209.12 604.59 208.86 605.91 208.19 606.38 207.5 607.57 207.56 607.62 209.18 608.76 210.29 609.67 210.46 613.15 210.24 613.95 209.26 615 209.49 616.13 210.13 617.53 211.74 619.36 212.07 620.39 212.04 621.55 213.4 623.27 214.2 623.88 215.07 624.96 214.79 626.41 214.88 627.38 215.88 626.06 217.94 625.99 219.3 626.43 219.9 626.67 222.04 627.06 222.55 629.44 222.62 630.79 223.6 629.27 225.38 628.62 226.9 627.24 228.26 626.4 229.66 625.49 230.37 622.92 233.15 622.46 234.18 623.48 236 625.12 236.85 626.11 236.91 626.56 237.61 626.88 239.2 628.19 240.29 630.03 240.31 631.08 241.22 632.8 241.05 633.79 240.96 634.94 240.42 635.18 239.31 636.81 239.35 638.33 238.67 639.43 238.73 641.05 238.05 641.92 238.5 642.92 241.48 641.77 242.26 642.23 242.88 644.8 243.86 645.28 244.93 646.46 244.86 647.51 245.15 649.05 244.85 649.66 244.43 650.53 244.94 651.16 244.6 652.27 245.03 652.96 244.56 653.59 245.6 656.22 245.28 657.78 246.24 658.57 247.05 658.34 248.53 659.66 250.52 660.34 250.79 661.69 252.05 663.7 252.96 665.26 253.17 666.25 254.59 665.73 255.2 666.3 256.04 668.6 257.58 669.54 258.83 669.54 260.03 667.68 260.57 666.72 261.45 664.15 262.27 664 265.08 665.9 266.7 666.7 268.5 667.71 269.48 668.4 270.74 669.87 271.1 670.3 272.99 670.74 273.43 670.41 274.96 670.48 275.96 669.16 277.33 669.07 280.21 667.95 280.95 666.82 280.85 666.24 280.4 663.44 279.97 663.32 281.58 665.21 282.9 666.62 284.25 667.29 285.41 667.16 286.74 667.58 290.13 667.97 291.22 668.8 291.59 668.89 292.53 668.2 293.8 668.08 295.44 667.14 296.48 667.25 297.75 666.42 299.24 665.51 300 664.06 300.65 663.52 301.8 662.32 302.34 661.99 303.14 660.97 303.69 660.17 305 660.39 307.04 660.98 308.41 661.75 309.21 661.94 310.66 660.68 311.61 661 312.79 660.69 313.62 659.21 314.61 658.63 315.33 659.12 316.84 657.47 318.45 657.09 319.97 658.19 320.54 659.47 319.53 658.65 318.12 659.38 317.72 660.07 318.7 660.33 320.2 662.08 321.19 662.38 322.45 663.7 321.59 664.4 320.24 665.42 320.5 665.8 320.12 667.37 320.34 668.62 319.87 669.94 319.86 671.09 320.55 672.75 320.21 673.69 320.7 674.74 320.48 675.13 319.42 676.61 319.12 677.38 317.61 679.22 315.12 680.59 314.38 681.44 313.3 682.44 312.71 683.5 312.9 683.92 313.59 685.03 314.18 685.19 315.05 687.25 316.39 687.54 318.44 688.67 319.66 688.78 321.74 687.99 323.27 686.98 324.5 687.05 325.49 685.66 327.5 684.18 329.26 683.46 331.22 682.56 332.67 682.42 335.26 681.53 335.92 680.96 337.13 681.15 338 680.97 340.56 680.12 341.02 679.14 342.5 679.69 343.23 678.99 344.73 679.15 346.08 678.92 346.78 677.83 347.43 677.15 348.87 678.11 352.67 678.16 353.6 678.89 353.76 680.49 355.47 681.78 356.1 682.51 357.14 683.56 357.37 685.26 358.75 686.19 360.29 685.85 360.92 686.9 362.97 688.23 364.41 688.26 365.13 689.55 365.04 689.99 365.43 692.19 365.4 692.87 365.96 697.45 367.38 698.13 368.8 696.26 369.68 695.04 371.3 693.29 376.77 693.59 382.54 693.19 387.68 692.9 388.12 691 388.02 689.35 389.08 689.25 390.45 687.38 390.02 684.29 390.09 673.93 392.29 668.98 394.47 667.88 395.32 666.55 397.92 665.6 398.53 665.01 400.13 665.01 401.2 665.7 403.59 666.87 405.47 666.31 406.94 664.82 408.29 665.02 409.46 664.15 411.24 663.86 412.55 662.43 415.43 661.05 415.98 658.64 418 657.74 418.32 657.85 419.37 657.13 420.61 657 421.47 655.94 423.53 655.66 425.38 653.8 430.02 653.08 430.32 652.66 431.5 651.57 432.43 649.31 434.99 648.51 436.59 648.45 437.28 647.58 438.38 646.75 442.3 646.73 444.78 647.4 449.29 646.29 446.73 645.26 449.21 644.98 450.81 645.05 452.6 644.54 452.63 643.66 454.7 644.43 454.63 644.51 456.01 643.9 457.07 644.04 460.74 643.68 462.68 643.91 463.9 643.14 464.13 643.2 464.88 640.87 465.74 639.35 467.88 640.56 468.86 641.62 468.93 643.51 470.71 645.79 472.61 650.06 474.06 652.15 474.27 653.66 474.08 655.6 472.86 656.35 471.42 657.14 470.56 659.15 466.62 659.43 465.64 657.91 464.51 659.19 463.77 660.86 462.21 661.61 461.16 661.76 460.13 663.18 459.54 663.88 457.8 664.85 456.99 666.97 457.12 668.26 456.18 671.13 453.72 672.06 453.41 674.58 453.28 676.84 452.5 678.33 450.86 679.15 447.58 681.41 444.91 682.69 442.77 682.96 441.88 682.8 440.05 682.29 437.98 682.38 436.94 683.29 435.71 684.13 435.16 684.31 434.33 686.79 429.91 688.45 427.79 689.79 426.4 689.99 424.77 691.9 422.82 693.04 420.01 694.6 418.17 695.87 415.93 696.5 415.28 698.68 414.35 699.19 413.58 700.63 412.36 703.49 412.46 704.36 412.64 704.48 413.37 703.14 414.01 702.43 416.65 703.54 416.71 704.4 417.22 705.57 416.14 705.76 414.12 707.07 412.48 709.1 412.64 710.45 411.53 709.53 410.39 708.1 409.09 708.92 408.63 710.44 409.87 711.07 409.99 710.91 411.1 711.88 411.76 712.92 411.76 713.47 411.24 713.81 410.05 716.5 407.01 718.35 405.8 718.45 404.99 719.66 404.42 721.39 405.33 719.25 405.4 719.01 406.63 720.45 406.34 722.29 408.64 722.91 410.06 723.51 410.41 724.3 412.25 724.7 413.75 725.26 414.43 725.74 415.73 726.76 415.1 726.07 413.27 725.98 412.33 726.49 411.62 726.23 408.54 725.99 407.76 726.27 405.64 726 404.74 724.89 403.24 723.16 402.12 723.27 400.75 724.52 399.05 724.07 398.22 724.68 396.49 725.46 395.52 727.01 392.26 728.74 386.41 729.42 385.04 730.67 383.42 730.94 381.74 732.29 381.07 733.13 378.66 733.57 378.02 733.58 376.81 735.24 375.58 735.39 374.39 736.47 373.82 737.3 375.17 738.46 375.1 738.61 373.03 738.33 371.89 738.77 369.69 740.13 369.3 741.17 367.58 741.28 366.4 741.21 362.55 741.51 360.97 742.39 359.15 743.25 359.79 743.84 359.68 743.74 358.09 743.25 355.73 743.74 353.79 744.36 353.19 743.82 352.2 744.65 351.29 745.7 350.93 745.91 352.82 747.28 352.5 748.31 352.97 749.54 353.09 749.7 353.88 750.6 355.31 751.75 355.62 752.88 354.74 752.52 354.04 752.45 352.45 752.05 351 753.03 349 754.3 348.37 755.06 348.72 755.73 347.35 757.47 347.12 758.72 347.62 759.2 347.38 759.18 344.7 758.86 343.9 758.62 341.45 759.06 340.01 759.34 337.96 760.16 336.66 760.25 335.04 761.43 334.51 762.46 335.17 764.39 335.7 764.75 335.15 764.2 333.27 764.76 332.06 765.06 330.5 765.12 328.79 765.43 327.6 766.42 327.01 766.74 328.11 767.57 329.38 768.6 329.55 769.32 328.93 771.45 328.94 771.23 328.08 771.64 327 772.4 326.8 773.32 327.56 774.6 326.81 776.5 327.28 778.01 329.32 778.33 330.37 777.82 331.63 776.58 333.07 776.54 334.13 776.95 336.08 778.14 336.48 777.83 337.34 776.67 337.88 776.52 338.87 777.48 340.38 776.78 342.13 775.83 341.77 775.35 342.54 774.16 342.62 773.82 341.06 773.37 340.22 771.09 339.01 769.89 339.44 769.58 340.24 769.73 341.31 770.51 341.85 770.42 342.72 769.4 343.24 769.83 345.65 769.02 350.52 769.21 353.07 771.32 354.97 771.4 355.48 770.02 357.01 768.73 357.21 767.98 356.12 767.94 355.22 767.05 354.37 766.54 353.41 764.78 353.68 764.68 355.24 764.12 355.83 765.17 357.57 765.35 358.77 766.15 359.16 767.92 359.5 768.8 361.03 769.16 362.97 768.67 363.79 769.47 365.15 768.15 366.42 767.45 367.96 766.81 367.94 766.55 366.98 765.71 366.52 764.35 365.18 763.45 365.62 763.02 366.67 763.09 367.64 763.64 368.12 764.58 368.08 765.28 369.12 765.51 372.06 763.85 372.61 763.17 372.53 763.03 370.55 762.57 369.91 761.37 369.7 760.09 370.09 759.61 370.74 759.45 372.59 759.55 375.18 758.83 376.25 758.91 377.25 757.82 380.77 755.89 381.48 754.67 382.32 754.05 383.56 753.26 385.91 752.4 386.88 751.48 389.2 751.77 391.63 751.75 393.03 753.13 394.07 753.92 395.28 753.67 396.76 752.12 397.24 749.85 398.93 748.81 400.03 748.36 400.89 748.26 402.53 749.78 404.7 750.08 406.62 747.51 408.04 747.38 408.64 745.96 409.68 742.68 411.46 741.42 413.04 740.86 414.85 740.11 418.32 738.89 418.95 737.22 420.31 737.1 421.27 735.49 423.38 735.2 424.73 735.54 426.58 735.27 427.34 733.52 430.68 733.27 432.93 732.6 436.41 731.34 439.68 730.46 441.05 730.27 441.82 728.82 444.36 728.25 445.69 728.26 446.64 727.45 448.78 726.47 450.61 726.42 451.28 724.92 453.84 723.27 455.07 722.93 456.19 720.77 458.1 720.47 459.69 719.62 461.65 719.01 464.16 717 468.14 716.39 470.48 716.37 471.97 715.16 475.78 715.22 477.98 714.77 479.56 714.51 482.17 713.25 486.13 713.03 488.26 713.17 490 712.63 492.2 711.99 494.04 711.81 495.55 711.25 497.74 711.41 501.22 710.99 502.76 709.41 505.87 709.49 507.68 708.54 509.33 708.29 510.31 708 511.46 708.17 514.17 708.72 516.71 709.8 519.33 711.51 522.82 713.47 528.42 713.71 531.93 713.08 535.31 712.25 537.75 709.64 541.6 706.6 544.59 701.61 547.07 698.95 548.98 696.58 551.08 695.42 552.48 694.98 554.61 695.23 555.37 694.58 556.57 694.51 557.83 694.89 559.31 694.88 560.99 694.62 562.19 692.65 564.94 691.82 566.43 691.12 568.2 689.65 573.95 689.31 578.37 688.69 580.12 687.66 581.55 686.75 583.7 685.89 590.19 684.74 594.47 684.8 595.71 685.89 599.64 685.88 603.51 686.05 605.35 686.42 606.34 686.42 607.48 689.44 614.31 690.77 616.21 689.71 617.59 689.93 619.04 689.23 620.02 689 621.1 689.35 623.75 689.96 625.66 690.17 627.71 690.02 628.96 690.28 630.31 689.84 631.83 686.25 639.46 682.87 645.67 680.2 650.96 679.07 653.87 678.78 655.81 678.94 657.43 678.73 661.05 678.93 665.65 679.22 667.09 678.05 670.45 677.69 672.52 676.66 674.18 674.67 677.93 670.96 683.52 669.15 686.97 668.17 690.35 667.58 693.57 667.22 699.42 666.87 701.88 665.26 706.32 664.07 712.64 664.37 715.34 665.27 717.54 666.29 719.33 666.25 721.21 666.44 722.53 667.04 723.46 667.68 724.46 668.64 727.42 667.22 731.55 666.18 733.71 666.05 734.47 666.51 736.73 667.26 738.03 669.67 740.77 670.59 743.49 670.57 744.19 671.49 746.02 669.04 749.36 668.49 749.56 667.36 751.37 666.94 754.52 667.13 755.57 668 757.98 669.84 760.67 671.21 761.71 672.86 763.28 673.88 764.62 674.61 766.38 674.56 767.58 674.92 769.57 674.62 771.81 674.94 773.71 675.57 775.05 674.87 776.89 674.54 778.48 674.78 780.75 675.25 782.77 676.42 785.87 677.45 787.82 678.05 789.89 679.78 792.16 682.39 795.1 685.24 797.4 686.15 797.96 687.47 799.46 685.36 801.79 684.78 803.14 684.35 805.54 684.41 806.74 684.92 808.52 685.02 811.33 684.64 811.51 684.15 814.74 682.85 816.81 681.8 819.55 680.36 825.45 680.06 827.06 679.81 830.73 679.9 832.45 680.34 833.33 680.48 834.75 681.03 835.73 680.78 837.5 681.01 839.41 681.17 843.07 681.01 844.36 681.37 848.48 682.41 851.86 682.8 853.7 Z M 319.72 15.68 320.74 13.81 321.03 11.72 320.91 7.74 321.13 6.44 321.96 4.01 323.54 2.48 325.95 1.86 326.84 2.5 327.95 1.9 328.77 1.87 328.99 3.38 328.77 5.23 328.21 6.22 327.96 7.79 327.14 9.15 327.56 11.62 326.28 13.67 325.38 13.82 324.15 15.19 324.04 15.86 322.74 16.47 321.55 16.29 320.83 16.77 319.73 16.65 319.72 15.68 Z M 313.29 39.04 314.5 38.43 315.54 37.47 316.97 37.2 321.41 35.09 321.49 36.22 320.12 37.16 319.57 38.05 318.61 38.35 318.27 39.52 317.08 39.98 315.24 40.19 313.31 39.65 313.29 39.04 Z M 305.68 9.78 306.41 8.86 307.34 9.2 306.86 10.33 307.37 11.02 309.57 12.89 309.35 15.14 307.78 16.84 307.19 16.76 306.61 14.33 306.4 11.04 305.73 10.63 305.68 9.78 Z M 303.76 3.9 303.94 2.57 304.7 2.47 304.54 4.4 303.76 3.9 Z M 299.32 15.32 300.19 14.57 301.75 14.76 302.18 15.61 302.09 16.95 301.25 17.72 300.26 18.04 299.68 17.31 299.03 15.57 299.32 15.32 Z M 295.98 9.93 296.82 8.53 297.82 9.25 297.56 10.69 296.85 11.32 295.98 9.93 Z M 295.45 30.54 297.68 26.89 298.75 26.45 300.14 26.42 302.29 24.97 305.46 23.87 307.82 23.66 308.91 23.33 309.88 22.67 311.57 22.03 312.27 22.2 313.76 23.37 314.03 24.65 312.24 26.63 312.01 28.5 311.47 28.82 310.15 28.43 309.38 28.91 309.09 30.3 309.61 32.12 310.1 32.92 308.75 33.32 308.81 31.72 307.65 30.48 306.43 30.1 305.33 30.67 304.22 31.75 302.92 31.85 302.18 31 300.99 31.08 300.54 32.4 298.75 33.21 297.37 33.52 296.73 33.16 295.38 31.06 295.45 30.54 Z M 292.41 24.15 293.15 23.46 293.67 22.18 295 21.15 295.45 20.34 296.99 19.59 298.11 19.86 298.1 21.47 297.24 22.46 296.25 22.91 295.63 23.96 293.28 25.54 292.41 24.15 Z M 290.67 10.19 291.24 7.92 291.92 7.54 293.42 7.72 294.99 6.93 295.29 6.14 296.14 6.6 294.89 7.73 293.56 8.33 293.2 9.96 292.82 10.46 292.27 12.46 290.68 11.62 290.67 10.19 Z M 289.2 37.09 291.16 35.94 292.39 35.46 293.72 36.31 292.97 37.82 290.85 38.6 289.95 38.44 289.2 37.09 Z M 288.2 18.29 288.25 17.72 289.46 15.07 290.18 14.4 292.23 14.64 293.66 15.99 293.02 16.45 290.36 19.19 288.77 19.17 288.2 18.29 Z M 285.91 1 286.79 1.39 287.19 2.27 287.02 4.15 286 3.69 285.78 1.47 285.91 1 Z M 281.35 47.05 282.07 43.86 283.16 41.62 284.91 39.7 286.11 39.8 286.88 41.05 286.61 42.07 285.28 44.42 283.82 46.26 282.83 47.09 281.77 47.5 281.35 47.05 Z M 281.29 25.8 283.33 23.58 284.48 22.62 285.28 23.46 286.13 23.75 287.66 23.74 288.93 26.34 290.33 27.81 290.78 29.25 291 31.41 290.45 31.65 286.45 31.84 284.89 32.11 283.4 29.5 282.68 29.02 282.55 27.69 281.62 26.8 281.29 25.8 Z M 280.19 11.31 280.91 10.29 282.26 9.43 282.51 10.06 284.55 12.58 284.61 14.08 283.26 15.84 281.3 15.52 280.68 14.96 280.23 13.03 280.19 11.31 Z M 277.63 56.04 278.32 55.44 280.78 54.86 282.67 53.64 283.86 53.63 285.17 53.26 285.75 52.5 285.85 51.36 287.85 49.45 292.62 47.03 294.99 45.27 296.77 43.35 297.96 41.38 299.51 39.81 300.22 39.52 302 39.86 303.93 42.61 304.82 43.46 306.14 44.19 305.07 45.69 304.27 46.02 300.51 46.34 296.8 48.22 295.36 48.6 292.79 49.7 292.4 51.01 292.58 52.36 293.24 53.47 295.13 53.55 295.52 54.42 294.88 55.48 293.43 55.72 291.67 56.32 289.83 56.7 287.27 56.05 286.3 56.73 284.29 59.27 283.11 59.65 282.55 60.61 281.16 61.69 280.18 62.03 278.04 62.06 277.87 60.9 278.81 59.23 278.7 58.3 277.7 56.71 277.63 56.04 Z M 276.16 21.13 277.23 20.33 277.22 19.7 278.52 19.72 278.07 21.4 276.68 21.68 276.16 21.13 Z M 275.66 66.24 277.18 66.13 278.45 66.44 278.22 66.98 275.66 66.24 Z M 266.88 17.38 267.81 18.21 268.81 18.52 270.36 18.53 269.7 20.2 269.27 20.2 267.93 18.88 267.16 18.57 266.88 17.38 Z M 253.5 18.94 253.64 18.25 255.1 17.68 257 17.29 257.71 17.47 259.31 16.34 259.38 15.1 260.22 15.29 260.54 16.77 261.1 17.95 259.72 18.96 260.21 21.77 260 22.57 258.15 22.64 257.31 22.35 255.67 22.7 255.04 21.17 253.83 20.92 253.5 18.94 Z M 779.68 316.58 779.84 315.35 780.93 315.29 780.72 313.85 779.59 310.66 780.96 304.72 781.67 303.63 782.59 304.23 783.11 305.78 782.9 307.69 783.66 307.97 784.2 306.58 784.79 305.89 786.44 305.59 787.6 305.64 789.58 304.63 791.7 304.91 792.84 306.08 795.8 304.97 795.92 303.92 795.62 302.15 795.89 301.67 797.43 301.9 798.38 302.67 799 304.47 798.73 305.75 797.43 305.42 796.62 305.82 794.56 309.55 793.59 312.67 793.1 312.55 791.77 313.72 791.83 315.39 791.22 316.6 791.68 318.18 791.6 319.18 790.49 320.12 788.29 318.84 787.12 319.29 786.07 321.8 786.18 322.95 787.31 323.86 787.76 325.41 787.85 326.72 786.82 326.62 787.02 325.63 786.48 324.09 784.92 322.92 783.65 320.6 783.03 320.12 780.86 319.66 779.75 318.4 779.68 316.58 Z M 779.45 324.11 779.71 323.48 781.09 323.94 781.72 325.36 781.62 326.11 779.87 325.4 779.45 324.11 Z M 725.27 349.87 725.66 348.84 725.5 347.2 726.28 347.17 727.05 346.39 727.54 347.23 728.46 347.13 729.36 346.32 729.56 345.32 730.45 344.52 731.1 345.49 730.43 346.26 730.8 347.52 730.77 350.29 730.46 351.22 730.58 352.3 731.36 353.73 731.06 354 725.38 350.94 725.27 349.87 Z" fill-rule="evenodd" fill="none" stroke="currentColor" stroke-width="1"/>
</g>
</svg>