<svg viewBox="-83.1369165 -41.1312745 5.909682000000004 4.422208000000005" xmlns="http://www.w3.org/2000/svg">
  <path d="M -81.968012,37.538035 L -81.966945,37.532916 L -81.957528,37.535505 L -81.957389,37.529605 L -81.947578,37.526798 L -81.943507,37.519788 L -81.944817,37.513739 L -81.939989,37.512591 L -81.934726,37.519261 L -81.927194,37.515332 L -81.927681,37.512113 L -81.943045,37.508609 L -81.943912,37.502929 L -81.954077,37.499822 L -81.953838,37.491502 L -81.963925,37.493493 L -81.977593,37.484603 L -81.989849,37.484879 L -81.996578,37.476705 L -81.995649,37.469833 L -81.992972,37.46845 L -81.99227,37.460916 L -81.985527,37.454328 L -81.976176,37.457186 L -81.968795,37.451496 L -81.967973,37.446593 L -81.956866,37.448263 L -81.949124,37.445575 L -81.945765,37.440214 L -81.935621,37.438397 L -81.940553,37.429058 L -81.93788,37.420086 L -81.932468,37.415217 L -81.925229,37.411807 L -81.924506,37.407613 L -81.930042,37.405291 L -81.928778,37.393845 L -81.933883,37.390652 L -81.931505,37.386594 L -81.93571,37.383147 L -81.935872,37.378554 L -81.931756,37.376997 L -81.933382,37.369341 L -81.926002,37.365377 L -81.928463,37.360871 L -81.925302,37.356969 L -81.915043,37.349574 L -81.91022,37.348955 L -81.907161,37.342636 L -81.900495,37.342072 L -81.893581,37.329845 L -81.891207,37.331592 L -81.881886,37.330255 L -81.874115,37.326645 L -81.869724,37.320495 L -81.860267,37.315715 L -81.865683,37.309484 L -81.85928,37.304866 L -81.85446,37.30657 L -81.852315,37.296687 L -81.853553,37.287706 L -81.846807,37.284649 L -81.8385789422544,37.286289550461575 L -81.83462,37.282071 L -81.825851,37.279311 L -81.816279,37.280009 L -81.803275,37.285916 L -81.788408,37.28435 L -81.779362,37.279982 L -81.779352,37.27739 L -81.768864,37.273306 L -81.756987,37.276073 L -81.757576,37.268552 L -81.746039,37.263398 L -81.745697,37.258185 L -81.740875,37.254224 L -81.744383,37.243547 L -81.740124,37.237752 L -81.731343,37.240028 L -81.723061,37.240493 L -81.716248,37.234321 L -81.71573,37.228771 L -81.699334,37.219921 L -81.694753,37.213366 L -81.688271,37.213506 L -81.683945,37.210323 L -81.683268,37.205649 L -81.678221,37.20154 L -81.56077,37.206656 L -81.553812,37.208589 L -81.547085,37.216095 L -81.545696,37.22003 L -81.531073,37.225187 L -81.521638,37.22698 L -81.510097,37.232119 L -81.506865,37.234948 L -81.50652,37.245246 L -81.503131,37.253091 L -81.499294,37.25721 L -81.495496,37.252249 L -81.483559,37.250604 L -81.475868,37.255756 L -81.462107,37.259899 L -81.460554,37.265342 L -81.454438,37.266999 L -81.445438,37.272387 L -81.439507,37.270909 L -81.437158,37.274065 L -81.427946,37.271015 L -81.416756,37.273208 L -81.415954,37.278936 L -81.411593,37.28033 L -81.403764,37.296597 L -81.40506,37.298794 L -81.396817,37.304498 L -81.39820370933471,37.310749288343686 L -81.394287,37.316411 L -81.38469,37.318548 L -81.380061,37.317776 L -81.372499,37.320494 L -81.367536,37.3269 L -81.369494,37.331237 L -81.36543,37.337748 L -81.362156,37.337687 L -81.320259,37.299469 L -81.292192,37.280297 L -81.244903,37.248592 L -81.225104,37.234874 L -81.204774,37.243013 L -81.179397,37.257313 L -81.167029,37.262881 L -81.142404,37.269165 L -81.133606,37.272417 L -81.104147,37.280605 L -81.084012,37.284401 L -81.075894,37.284887 L -81.052886,37.288607 L -81.036133,37.290252 L -81.021937,37.294143 L -81.01021,37.295776 L -80.987319,37.301359 L -80.979106,37.300581 L -80.981322,37.293465 L -80.973889,37.291444 L -80.951018,37.29497 L -80.931118,37.302872 L -80.919259,37.306163 L -80.89805,37.316779 L -80.880103,37.328903 L -80.869137,37.338457 L -80.849451,37.346909 L -80.883247,37.383933 L -80.863003,37.411514 L -80.865568,37.417377 L -80.863575,37.424131 L -80.859457,37.429491 L -80.846325,37.423395 L -80.841025,37.426123 L -80.836408,37.423992 L -80.80619,37.403767 L -80.806266,37.398294 L -80.800508,37.395953 L -80.784188,37.394587 L -80.783141,37.390285 L -80.776649,37.383679 L -80.770082,37.372363 L -80.759886,37.374882 L -80.748722,37.38005 L -80.743391,37.379851 L -80.723101,37.388328 L -80.71596,37.390253 L -80.694179,37.399911 L -80.674249,37.410023 L -80.645893,37.422147 L -80.636947,37.427471 L -80.631855,37.432233 L -80.622664,37.433307 L -80.622117,37.435969 L -80.591377,37.45144 L -80.585856,37.456654 L -80.552036,37.473563 L -80.536889,37.474008 L -80.532372,37.477124 L -80.523481,37.476905 L -80.516366,37.478474 L -80.511391,37.481672 L -80.492981,37.457749 L -80.497279,37.44478 L -80.49486,37.435072 L -80.475601,37.422949 L -80.464816,37.426145 L -80.457304,37.43227 L -80.443009,37.438131 L -80.425629,37.449885 L -80.40278,37.460334 L -80.382508,37.470376 L -80.371951,37.474069 L -80.363171,37.480001 L -80.366837,37.484879 L -80.34378,37.492151 L -80.332034,37.493745 L -80.309333,37.502883 L -80.299789,37.508271 L -80.282391,37.533519 L -80.291625,37.536496 L -80.309347,37.52738 L -80.330368,37.536267 L -80.327491,37.54014 L -80.321488,37.541349 L -80.31237,37.546225 L -80.328504,37.564315 L -80.294882,37.57877 L -80.283398,37.585178 L -80.258919,37.595499 L -80.24978,37.602117 L -80.240272,37.606961 L -80.226017,37.620059 L -80.220984,37.627767 L -80.240791,37.638324 L -80.267504,37.646156 L -80.279372,37.657077 L -80.296077,37.69173 L -80.287107,37.696404 L -80.276577,37.705549 L -80.27199,37.711532 L -80.268149,37.712883 L -80.263936,37.719137 L -80.258143,37.720612 L -80.252024,37.729825 L -80.259668,37.733031 L -80.262765,37.738336 L -80.259315,37.744961 L -80.257411,37.756084 L -80.250879,37.755516 L -80.248389,37.76825 L -80.241437,37.768058 L -80.240863,37.772442 L -80.235892,37.77313 L -80.227645,37.77887 L -80.215658,37.777481 L -80.215892,37.781989 L -80.222914,37.786273 L -80.229489,37.792331 L -80.227092,37.798886 L -80.218611,37.809783 L -80.206482,37.81597 L -80.202853,37.82424 L -80.192966,37.83475 L -80.179391,37.839751 L -80.183594,37.84784 L -80.181815,37.852724 L -80.171641,37.858966 L -80.172033,37.862144 L -80.162202,37.875122 L -80.153231,37.882257 L -80.140609,37.883932 L -80.131931,37.8895 L -80.129768,37.894159 L -80.119106,37.902018 L -80.116884,37.906292 L -80.107205,37.912442 L -80.102931,37.918911 L -80.096563,37.918112 L -80.091058,37.926906 L -80.084569,37.9334 L -80.075441,37.939629 L -80.069431,37.945463 L -80.056056,37.951959 L -80.046872,37.960055 L -80.036908,37.965907 L -80.03598,37.968249 L -80.020631,37.980748 L -80.013145,37.984253 L -80.008888,37.99083 L -79.999241,37.99519 L -79.995901,38.005791 L -79.990114,38.013246 L -79.986142,38.014182 L -79.985619,38.01916 L -79.98029,38.027596 L -79.975269,38.030075 L -79.973895,38.040004 L -79.96608,38.05082 L -79.960162,38.062547 L -79.961647,38.067415 L -79.957758,38.07205 L -79.953511,38.08148 L -79.947289,38.085046 L -79.942365,38.091589 L -79.934256,38.097676 L -79.92633,38.107147 L -79.938946,38.111628 L -79.941464,38.117369 L -79.941174,38.12527 L -79.945187,38.131989 L -79.939397,38.135107 L -79.933974,38.135299 L -79.929031,38.139771 L -79.928683,38.144928 L -79.925251,38.150465 L -79.919705,38.153519 L -79.915065,38.168088 L -79.918948,38.17189 L -79.916622,38.177994 L -79.92102920054369,38.180260985481695 L -79.91441,38.188418 L -79.907621,38.187946 L -79.897335,38.193381 L -79.891837,38.204322 L -79.883322,38.206843 L -79.867996,38.219442 L -79.85675207361923,38.231141687607796 L -79.850326,38.233324 L -79.843657,38.241505 L -79.835113,38.241897 L -79.830713,38.249713 L -79.82101,38.248279 L -79.814864,38.251569 L -79.815709,38.255067 L -79.81117245532337,38.260326041382 L -79.806513,38.259202 L -79.788945,38.268703 L -79.786609,38.274884 L -79.795448,38.290228 L -79.802299,38.291829 L -79.804026,38.298622 L -79.809934,38.304681 L -79.808711,38.309429 L -79.799617,38.317149 L -79.79625870064385,38.32350489722883 L -79.77309,38.335529 L -79.767594,38.344302 L -79.770349,38.3478 L -79.76598,38.351291 L -79.764175,38.356634 L -79.757626,38.357566 L -79.742771,38.353367 L -79.734901,38.355548 L -79.732059,38.360168 L -79.727053,38.362233 L -79.727676,38.371701 L -79.731661,38.374143 L -79.72635,38.38707 L -79.722653,38.389517 L -79.717365,38.401562 L -79.709923,38.408238 L -79.706634,38.41573 L -79.699734,38.42187 L -79.696831,38.426757 L -79.689667,38.431462 L -79.691743,38.437064 L -79.6895,38.442628 L -79.691424,38.446812 L -79.688105,38.450444 L -79.691086,38.463743 L -79.699622,38.473967 L -79.69418,38.478311 L -79.697572,38.487223 L -79.694506,38.494232 L -79.688345,38.496183 L -79.682774,38.501617 L -79.680374,38.510617 L -79.674074,38.510417 L -79.663474,38.514117 L -79.662774,38.518317 L -79.666774,38.524317 L -79.672974,38.528717 L -79.666873,38.538616 L -79.670675,38.540316 L -79.669575,38.550816 L -79.665075,38.560916 L -79.659275,38.562416 L -79.662875,38.570416 L -79.656259,38.576011 L -79.655875,38.581416 L -79.649075,38.591515 L -79.572712,38.563463 L -79.554671,38.559917 L -79.54567,38.554517 L -79.53687,38.550917 L -79.53377,38.545217 L -79.526669,38.537118 L -79.521788,38.534323 L -79.498462,38.495465 L -79.476638,38.457228 L -79.370132,38.427197 L -79.312276,38.411876 L -79.304581,38.415511 L -79.300085,38.414891 L -79.296111,38.418349 L -79.28845,38.420966 L -79.283505,38.418049 L -79.279692,38.424211 L -79.2823610571728,38.43181738836579 L -79.266329,38.43944 L -79.261103,38.44807 L -79.256978,38.450567 L -79.254482,38.45593 L -79.247474,38.453306 L -79.242388,38.454486 L -79.242037,38.465051 L -79.239881,38.470079 L -79.225669,38.476471 L -79.220961,38.48059 L -79.22140061786111,38.48478340286684 L -79.210591,38.492913 L -79.207159,38.503822 L -79.210959,38.507422 L -79.205859,38.524521 L -79.201459,38.527821 L -79.193458,38.542421 L -79.184258,38.55132 L -79.180858,38.55992 L -79.176658,38.56552 L -79.170954,38.568116 L -79.171658,38.57222 L -79.167558,38.579819 L -79.163442,38.582817 L -79.158257,38.593119 L -79.159158,38.601219 L -79.154656,38.605919 L -79.155559,38.610484 L -79.151457,38.620218 L -79.145957,38.626818 L -79.142657,38.634417 L -79.137557,38.638017 L -79.131056,38.653218 L -79.120256,38.660216 L -79.110956,38.659517 L -79.107056,38.656417 L -79.092655,38.660417 L -79.092246,38.668114 L -79.088255,38.672916 L -79.0843,38.686507 L -79.090955,38.692915 L -79.092955,38.702002 L -79.086555,38.716015 L -79.086255,38.722914 L -79.080355,38.732514 L -79.079055,38.737214 L -79.073855,38.742114 L -79.072555,38.747513 L -79.057253,38.761413 L -79.055654,38.770913 L -79.051554,38.772613 L -79.051654,38.778013 L -79.054954,38.785713 L -79.047349,38.79181 L -79.029253,38.791013 L -79.023041,38.798611 L -79.023653,38.809812 L -79.019842,38.811711 L -79.019534,38.817907 L -79.007952,38.822312 L -79.002352,38.836512 L -78.999014,38.840074 L -79.000252,38.845412 L -78.993761,38.850021 L -78.869261,38.76298 L -78.855203,38.783573 L -78.849814,38.793012 L -78.834881,38.812034 L -78.831659,38.814895 L -78.815996,38.839514 L -78.80818,38.856175 L -78.796657,38.873646 L -78.79161,38.877593 L -78.788031,38.885123 L -78.779198,38.892298 L -78.772793,38.893742 L -78.769358,38.897064 L -78.759085,38.900529 L -78.750357,38.911675 L -78.750517,38.916028 L -78.744433,38.920228 L -78.73868,38.927362 L -78.718483,38.934266 L -78.720931,38.91016 L -78.718647,38.904561 L -78.704323,38.915231 L -78.697623,38.914278 L -78.688266,38.92478 L -78.680456,38.925313 L -78.670679,38.9338 L -78.665886,38.941579 L -78.65905,38.947375 L -78.652352,38.960677 L -78.646589,38.968138 L -78.638423,38.966819 L -78.629553,38.980866 L -78.620453,38.982601 L -78.618676,38.974082 L -78.611184,38.976134 L -78.610197,38.970476 L -78.601655,38.964603 L -78.598894,38.969546 L -78.593261,38.971918 L -78.581981,38.988398 L -78.569029,39.002951 L -78.562628,39.007198 L -78.5594,39.011877 L -78.550467,39.018065 L -78.558948,39.024007 L -78.565837,39.026303 L -78.571901,39.031995 L -78.556748,39.044527 L -78.554263,39.048058 L -78.540216,39.060631 L -78.526543,39.068221 L -78.516789,39.077569 L -78.516479,39.081802 L -78.495984,39.09898 L -78.49516,39.100992 L -78.484283,39.107372 L -78.477832,39.109605 L -78.473209,39.108143 L -78.466662,39.112858 L -78.459311,39.114273 L -78.439429,39.132146 L -78.436658,39.141691 L -78.427294,39.152726 L -78.413943,39.158415 L -78.4047088881249,39.16692693916326 L -78.406966,39.170903 L -78.418944,39.177354 L -78.428697,39.187217 L -78.430846,39.196227 L -78.438695,39.198093 L -78.430363,39.206863 L -78.420548,39.214798 L -78.405459,39.231698 L -78.404214,39.241214 L -78.399669,39.243874 L -78.409116,39.252564 L -78.419422,39.257476 L -78.402783,39.275471 L -78.402886,39.278624 L -78.393371,39.282988 L -78.38723568723346,39.29332561012875 L -78.374728,39.305136 L -78.367242,39.310148 L -78.360571,39.317597 L -78.346301,39.339108 L -78.346777,39.344266 L -78.339284,39.348605 L -78.340415,39.353628 L -78.348927,39.354713 L -78.366867,39.35929 L -78.352097,39.375098 L -78.343214,39.388807 L -78.351211,39.3914 L -78.349884,39.397939 L -78.357949,39.404192 L -78.359918,39.409028 L -78.357024,39.416638 L -78.351236,39.420595 L -78.346718,39.427618 L -78.353227,39.436792 L -78.347773,39.440583 L -78.345452,39.459907 L -78.347087,39.466012 L -78.307448,39.440791 L -78.28694,39.428148 L -78.262815,39.41434 L -78.244965,39.402438 L -78.206444,39.375793 L -78.18737,39.363989 L -78.158711,39.343767 L -78.141347,39.333983 L -78.108306,39.312187 L -78.093592,39.303093 L -78.051272,39.27588 L -78.029652,39.262414 L -77.919424,39.191193 L -77.828299,39.132426 L -77.822101,39.140105 L -77.823304,39.144808 L -77.821625,39.151868 L -77.813626,39.164418 L -77.806049,39.171737 L -77.803458,39.180882 L -77.797837,39.194071 L -77.798157,39.200703 L -77.788841,39.214865 L -77.786493,39.221435 L -77.771365,39.236493 L -77.767276,39.249751 L -77.770669,39.255262 L -77.762928,39.258273 L -77.756888,39.274061 L -77.753105,39.27734 L -77.752726,39.283373 L -77.747587,39.294834 L -77.73841,39.308191 L -77.730697,39.315603 L -77.720783,39.318977 L -77.719708,39.321088 L -77.727685,39.322114 L -77.732596,39.32604 L -77.751078,39.333117 L -77.755728,39.333938 L -77.760862,39.340027 L -77.759629,39.344775 L -77.749771,39.349579 L -77.746092,39.353145 L -77.743967,39.365332 L -77.752987,39.379023 L -77.748271,39.384573 L -77.738737,39.385736 L -77.735869,39.391172 L -77.741,39.403591 L -77.746403,39.409369 L -77.752943,39.423041 L -77.759034,39.427072 L -77.786332,39.428876 L -77.79654160928199,39.431699829948094 L -77.803269,39.43799 L -77.79907,39.441316 L -77.786979,39.443526 L -77.786885,39.448066 L -77.798396,39.456328 L -77.798006,39.460769 L -77.793283,39.462086 L -77.78223,39.459839 L -77.780302,39.464658 L -77.791206,39.468543 L -77.79697,39.472998 L -77.797756,39.479168 L -77.788632,39.485144 L -77.767278,39.491271 L -77.76634,39.496238 L -77.774274,39.499325 L -77.782153,39.499036 L -77.789593,39.492379 L -77.79680824709612,39.489567971985316 L -77.807346,39.49013 L -77.818841,39.493418 L -77.827301,39.493075 L -77.845321,39.498098 L -77.846876,39.504235 L -77.827982,39.514909 L -77.823498,39.523785 L -77.825987,39.529669 L -77.833539,39.532569 L -77.84056,39.529142 L -77.841945,39.518428 L -77.849437,39.515595 L -77.861176,39.514293 L -77.866409,39.521166 L -77.86492,39.529366 L -77.865275,39.538412 L -77.870106,39.543086 L -77.887589,39.553104 L -77.886918,39.55997 L -77.874231,39.564072 L -77.8411,39.564701 L -77.836357,39.566442 L -77.833388,39.572645 L -77.829839,39.5869 L -77.83232,39.601632 L -77.838027,39.605972 L -77.85356,39.607125 L -77.864482,39.608931 L -77.874265,39.614079 L -77.884519,39.615811 L -77.886274,39.612458 L -77.881048,39.606007 L -77.882125,39.59924 L -77.889135,39.597453 L -77.923784,39.605281 L -77.928268,39.613509 L -77.933619,39.618136 L -77.940886,39.619068 L -77.944647,39.615248 L -77.938182,39.612405 L -77.935506,39.608476 L -77.937037,39.59111 L -77.941505,39.585182 L -77.94936699245689,39.586705441035676 L -77.952247,39.594445 L -77.951343,39.605735 L -77.958716,39.608862 L -77.969393,39.605884 L -77.977612,39.599608 L -77.985785,39.599347 L -78.006719,39.601483 L -78.01079,39.603571 L -78.023598,39.62182 L -78.030295,39.627893 L -78.037405,39.637044 L -78.049221,39.644471 L -78.054211,39.650986 L -78.062794,39.656662 L -78.075812,39.667781 L -78.083185,39.671528 L -78.089392,39.67139 L -78.098252,39.678912 L -78.104433,39.68144 L -78.13125,39.686733 L -78.143459,39.690493 L -78.154301,39.690623 L -78.161219,39.693517 L -78.171392,39.695605 L -78.182758,39.69511 L -78.192544,39.688701 L -78.201103,39.677575 L -78.205549,39.676038 L -78.226809,39.676269 L -78.233342,39.672046 L -78.223663,39.66274 L -78.226841,39.657338 L -78.238881,39.65146 L -78.254252,39.639976 L -78.262338,39.630495 L -78.262791,39.622874 L -78.266648,39.618951 L -78.28628488540782,39.6213054442757 L -78.312674,39.631054 L -78.335648,39.637413 L -78.355323,39.640663 L -78.359254,39.637208 L -78.353784,39.631403 L -78.354824,39.62655 L -78.358934,39.625286 L -78.368328,39.629201 L -78.380623,39.629219 L -78.383617,39.623945 L -78.37230488958721,39.61202639692032 L -78.37840654943672,39.607978897302544 L -78.383941,39.608981 L -78.394909,39.615623 L -78.420507,39.624073 L -78.430139,39.623416 L -78.433654,39.619952 L -78.431468,39.614518 L -78.421776,39.604207 L -78.411617,39.597442 L -78.39704,39.590225 L -78.395284,39.584109 L -78.402112,39.579632 L -78.407865,39.578629 L -78.419668,39.581547 L -78.428833,39.587125 L -78.445456,39.591446 L -78.457368,39.586916 L -78.45804,39.579708 L -78.454577,39.574444 L -78.43802,39.563477 L -78.42632,39.559222 L -78.417295,39.549603 L -78.42157692028842,39.545033947818844 L -78.426237,39.54596 L -78.430505,39.551565 L -78.439099,39.551768 L -78.434647,39.541903 L -78.439837,39.539082 L -78.448112,39.548458 L -78.457983,39.551432 L -78.459612,39.545552 L -78.448763,39.542496 L -78.45106924683533,39.53794192319434 L -78.458004,39.538349 L -78.462969,39.533398 L -78.460804,39.525361 L -78.463134,39.520327 L -78.46867469387536,39.51660406421896 L -78.475685,39.516393 L -78.485425,39.519513 L -78.490003,39.51765 L -78.503279,39.518582 L -78.515028,39.523144 L -78.527333,39.524801 L -78.542496,39.521538 L -78.554809,39.521649 L -78.566115,39.519371 L -78.578244,39.526567 L -78.586787,39.527976 L -78.59163,39.530995 L -78.593262,39.536851 L -78.601648,39.532381 L -78.61991,39.539236 L -78.638005,39.536376 L -78.654697,39.534605 L -78.66415,39.536987 L -78.667909,39.540201 L -78.675291,39.540161 L -78.68119,39.543813 L -78.689803,39.545956 L -78.695024,39.553835 L -78.70697517930306,39.5558111488791 L -78.715476,39.563032 L -78.72402509532974,39.563714381632536 L -78.731594,39.57461 L -78.73316,39.586208 L -78.739155,39.586834 L -78.746332,39.579778 L -78.755628,39.580662 L -78.767061,39.587511 L -78.77031,39.595001 L -78.778022,39.601285 L -78.776088,39.604508 L -78.767763,39.608792 L -78.755169,39.61037 L -78.746652,39.605752 L -78.733574,39.613775 L -78.736796,39.622187 L -78.748894,39.62656 L -78.764101,39.618844 L -78.778275,39.622703 L -78.772635,39.636885 L -78.765294,39.643658 L -78.768993,39.646307 L -78.776373,39.644933 L -78.781195,39.636846 L -78.790771,39.638275 L -78.801225,39.6257 L -78.795268,39.6107 L -78.801575,39.606763 L -78.80968141306644,39.60625939536791 L -78.811871,39.597994 L -78.818132,39.594316 L -78.819332,39.589889 L -78.825722,39.589177 L -78.826205,39.577335 L -78.819905,39.576333 L -78.81328247086729,39.56687779308794 L -78.817641,39.561388 L -78.821238,39.560579 L -78.829459,39.564994 L -78.83859,39.567227 L -78.842343,39.563395 L -78.851078,39.559945 L -78.851955,39.551227 L -78.861569,39.540886 L -78.870293,39.539156 L -78.869594,39.531373 L -78.874653,39.523218 L -78.878744,39.521274 L -78.893548,39.523421 L -78.891501,39.519368 L -78.89311,39.512594 L -78.905513,39.511545 L -78.904081,39.504072 L -78.90985,39.495834 L -78.913244,39.494594 L -78.91651729325014,39.4866878752127 L -78.934298,39.486284 L -78.942539,39.48063 L -78.93852,39.474572 L -78.946289,39.466203 L -78.95754,39.463903 L -78.95913,39.460124 L -78.954368,39.454218 L -78.960336,39.450578 L -78.956003,39.447929 L -78.956637351113,39.440399096230124 L -78.96556686254887,39.438570521408465 L -78.969434,39.443259 L -78.977285,39.448029 L -78.989405,39.452273 L -79.003763,39.458865 L -79.010924,39.461121 L -79.018031,39.467656 L -79.028668,39.464779 L -79.033719,39.46698 L -79.036912,39.476499 L -79.044432,39.479795 L -79.04705,39.483351 L -79.053369,39.480617 L -79.054694,39.473101 L -79.060776,39.471739 L -79.064224,39.478442 L -79.068018,39.475202 L -79.08225290362331,39.47164444060144 L -79.09113,39.47252 L -79.100194,39.476999 L -79.10442,39.470765 L -79.096512,39.467956 L -79.096595,39.462372 L -79.105599,39.462924 L -79.102805,39.457796 L -79.10313328434165,39.449811631534786 L -79.115665,39.441944 L -79.116703,39.438287 L -79.11212,39.435511 L -79.112456,39.430832 L -79.124036,39.433204 L -79.129372,39.429108 L -79.127108,39.42135 L -79.12970621268867,39.41734691531463 L -79.136499,39.418887 L -79.14231,39.416687 L -79.141094,39.410349 L -79.143065,39.405521 L -79.149979,39.406077 L -79.149649,39.414451 L -79.15535,39.418299 L -79.160305,39.415923 L -79.158996,39.411441 L -79.166705,39.400943 L -79.165448,39.395472 L -79.161655,39.391396 L -79.165187,39.387147 L -79.177372,39.396742 L -79.181091,39.395131 L -79.176636,39.389741 L -79.182964,39.385478 L -79.197556,39.388461 L -79.202106,39.379273 L -79.21303,39.369178 L -79.214443,39.363405 L -79.231648,39.36457 L -79.232919,39.359622 L -79.24261,39.359415 L -79.252037,39.355676 L -79.256882,39.355459 L -79.25348,39.347896 L -79.257255,39.34144 L -79.253878,39.3371 L -79.260754,39.334303 L -79.269494,39.335175 L -79.269243,39.330595 L -79.282132,39.323273 L -79.283884,39.309844 L -79.289517,39.304444 L -79.290013,39.299871 L -79.304304,39.299958 L -79.312867,39.304633 L -79.321265,39.300005 L -79.332864,39.300014 L -79.340049,39.293844 L -79.346842,39.29326 L -79.343626,39.287042 L -79.351308,39.285071 L -79.35404,39.278009 L -79.361714,39.27484 L -79.37487,39.273643 L -79.381857,39.266865 L -79.39956,39.255042 L -79.400243,39.250858 L -79.408964,39.24646 L -79.409478,39.242796 L -79.420836,39.238453 L -79.425299,39.233726 L -79.42423,39.226842 L -79.432984,39.223887 L -79.440647,39.216506 L -79.447205,39.215765 L -79.453304,39.21047 L -79.460555,39.211556 L -79.467522,39.208683 L -79.469793,39.203734 L -79.486875,39.205896 L -79.485903,39.263674 L -79.487274,39.265205 L -79.48764995033721,39.27995357664351 L -79.486812,39.29638 L -79.486072,39.3443 L -79.484372,39.3443 L -79.483148,39.451018 L -79.482366,39.531689 L -79.478866,39.531689 L -79.477764,39.642282 L -79.476565,39.642471 L -79.476862,39.701819 L -79.476662,39.721078 L -79.547932,39.720792 L -79.583866,39.721277 L -79.659309,39.720804 L -79.710891,39.720977 L -79.750253,39.720777 L -79.940671,39.720671 L -80.00637,39.721192 L -80.080146,39.721401 L -80.126906,39.721057 L -80.224493,39.721223 L -80.249514,39.721002 L -80.372276,39.721428 L -80.412056,39.721184 L -80.495481,39.721216 L -80.519342,39.721403 L -80.519307,39.797567 L -80.518891,39.890964 L -80.519331,39.934821 L -80.519025,40.003172 L -80.519231,40.095587 L -80.518896,40.1175 L -80.519138,40.171889 L -80.519071,40.256973 L -80.518975,40.349767 L -80.51797,40.366656 L -80.51799,40.432267 L -80.517689,40.462217 L -80.51899892533869,40.477363280262054 L -80.518862,40.559297 L -80.51911,40.592271 L -80.518991,40.638801 L -80.530093,40.636255 L -80.545892,40.629702 L -80.551393,40.628724 L -80.560453,40.623865 L -80.566912,40.618094 L -80.575146,40.614608 L -80.584002,40.615723 L -80.594065,40.623664 L -80.602636,40.625288 L -80.618082,40.62096 L -80.62645,40.620176 L -80.634355,40.616095 L -80.64450127503439,40.60431844995008 L -80.66354,40.590768 L -80.667813,40.583536 L -80.666949,40.57488 L -80.664372,40.570016 L -80.652436,40.562544 L -80.633107,40.538705 L -80.627507,40.535793 L -80.622193,40.520505 L -80.618003,40.502049 L -80.608738,40.489611 L -80.599194,40.482566 L -80.594664,40.471389 L -80.595953,40.463354 L -80.60427,40.449665 L -80.612195,40.434838 L -80.612524,40.41211 L -80.614251,40.40871 L -80.612325,40.402762 L -80.632196,40.393667 L -80.6318,40.386638 L -80.619102,40.381862 L -80.609686,40.37495 L -80.607587,40.36956 L -80.608696,40.361969 L -80.611795,40.355169 L -80.612764,40.347565 L -80.610796,40.340868 L -80.602895,40.327868 L -80.599895,40.317666 L -80.602895,40.307069 L -80.606583,40.303887 L -80.614886,40.291971 L -80.616793,40.285278 L -80.616209,40.272271 L -80.622508,40.261765 L -80.644603,40.251276 L -80.652101,40.244975 L -80.66154,40.229812 L -80.668083,40.199689 L -80.672582,40.192401 L -80.686081,40.181637 L -80.705246,40.15416 L -80.710066,40.138784 L -80.71067,40.12555 L -80.707102,40.110851 L -80.708937,40.101422 L -80.71391992095344,40.09668673947693 L -80.731429,40.086331 L -80.737918,40.079179 L -80.739229,40.074947 L -80.737885,40.065592 L -80.733685,40.059411 L -80.731024,40.044291 L -80.732254,40.036087 L -80.737151,40.028538 L -80.73846741769115,40.01980770704647 L -80.742114,40.00888 L -80.741759,40.00032 L -80.738838,39.981817 L -80.740139,39.970795 L -80.758408,39.959276 L -80.762987,39.953785 L -80.764242,39.946151 L -80.761122,39.929459 L -80.755682,39.916717 L -80.7602323640153,39.9087473138509 L -80.770801,39.91035 L -80.780805,39.916104 L -80.795598,39.919717 L -80.804771,39.918178 L -80.807268,39.915633 L -80.809565,39.905658 L -80.80558,39.896511 L -80.793186,39.881064 L -80.790156,39.872252 L -80.793131,39.863751 L -80.801086,39.858438 L -80.81643,39.853032 L -80.821279,39.849982 L -80.826964,39.841656 L -80.82248,39.824971 L -80.822181,39.811708 L -80.826079,39.798584 L -80.835311,39.79069 L -80.860583,39.776912 L -80.866329,39.771738 L -80.870322,39.763184 L -80.865339,39.753251 L -80.852738,39.74104 L -80.848158,39.740461 L -80.836597,39.723925 L -80.8317123835365,39.7195849744079 L -80.829723,39.714041 L -80.833882,39.703497 L -80.844721,39.69944 L -80.854599,39.697473 L -80.863698,39.691724 L -80.86667,39.678487 L -80.865238,39.666026 L -80.866646,39.652616 L -80.869801,39.646895 L -80.870859,39.64008 L -80.876641,39.625905 L -80.88036,39.620706 L -80.892208,39.616756 L -80.906247,39.618431 L -80.91762,39.618703 L -80.933292,39.614812 L -80.943782,39.606926 L -80.973786,39.588158 L -80.987732,39.577262 L -80.99376273199385,39.57120653092863 L -81.008227,39.56314 L -81.0239,39.552313 L -81.026856,39.547497 L -81.038712,39.539886 L -81.044902,39.5363 L -81.0601,39.5229 L -81.071025,39.515608 L -81.074992,39.510485 L -81.092434,39.496075 L -81.100834,39.487176 L -81.114333,39.466375 L -81.124733,39.453375 L -81.134434,39.445075 L -81.138134,39.443775 L -81.152534,39.443175 L -81.170634,39.439175 L -81.185145,39.431479 L -81.190714,39.423562 L -81.205223,39.410786 L -81.210833,39.403563 L -81.211654,39.392977 L -81.2171291553935,39.387704525834856 L -81.227844,39.386747 L -81.24184,39.390276 L -81.249836,39.390181 L -81.25711346572365,39.387384732382046 L -81.268421,39.386318 L -81.275672,39.383789 L -81.280572,39.379659 L -81.297519,39.37438 L -81.320733,39.360667 L -81.330574,39.356186 L -81.344927,39.346794 L -81.356911,39.343178 L -81.375961,39.341697 L -81.384556,39.343449 L -81.391249,39.348814 L -81.395883,39.355553 L -81.406689,39.38809 L -81.412706,39.394618 L -81.428802,39.40545 L -81.435642,39.408474 L -81.446125,39.410301 L -81.456143,39.409274 L -81.473187,39.400169 L -81.48344546718737,39.38917193225238 L -81.498789,39.376122 L -81.516837,39.365226 L -81.533846,39.358554 L -81.542346,39.352874 L -81.557547,39.338774 L -81.559647,39.330774 L -81.560147,39.317874 L -81.565047,39.293874 L -81.565247,39.276175 L -81.570247,39.267675 L -81.57389,39.267064 L -81.586967,39.269115 L -81.594632,39.273195 L -81.608408,39.276043 L -81.622185,39.273675 L -81.646917,39.277355 L -81.670187,39.275963 L -81.677595,39.274171 L -81.689483,39.266043 L -81.69662,39.256139 L -81.696252,39.244299 L -81.692427,39.236715 L -81.691374,39.227882 L -81.700908,39.220844 L -81.725622,39.215905 L -81.732677,39.205481 L -81.73451,39.196145 L -81.739996,39.18993 L -81.749976,39.186639 L -81.755908,39.181073 L -81.756282,39.176993 L -81.745806,39.149936 L -81.743677,39.146909 L -81.745194,39.138239 L -81.744568,39.126816 L -81.742353,39.111277 L -81.743653,39.103078 L -81.747254,39.095379 L -81.754154,39.088377 L -81.764355,39.082177 L -81.776855,39.078178 L -81.790455,39.079678 L -81.798154,39.082878 L -81.807054,39.084078 L -81.813854,39.079678 L -81.813854,39.068679 L -81.812354,39.061279 L -81.803355,39.047678 L -81.795254,39.041378 L -81.782954,39.034279 L -81.773354,39.026579 L -81.764253,39.015279 L -81.765353,39.002179 L -81.773547,38.994783 L -81.776753,38.984404 L -81.775734,38.980737 L -81.778814,38.97542 L -81.78182,38.964935 L -81.778845,38.955892 L -81.769703,38.948707 L -81.756131,38.933546 L -81.759995,38.925829 L -81.766225,38.922947 L -81.774105,38.922964 L -81.785647,38.926192 L -81.796376,38.932497 L -81.806137,38.942112 L -81.814235,38.946168 L -81.825026,38.946603 L -81.831516,38.943697 L -81.844486,38.928746 L -81.84607,38.913192 L -81.845312,38.910088 L -81.848653,38.901407 L -81.858921,38.89019 L -81.874857,38.881174 L -81.890899,38.873919 L -81.898541,38.874582 L -81.910312,38.879294 L -81.927999,38.893492 L -81.92667,38.901311 L -81.917757,38.910604 L -81.908341,38.917403 L -81.899953,38.925405 L -81.89847,38.929603 L -81.900595,38.937671 L -81.908963,38.948675 L -81.918215,38.966595 L -81.933186,38.98766 L -81.941717,38.993234 L -81.951447,38.996032 L -81.967769,38.992955 L -81.979371,38.993193 L -81.982032,38.995698 L -81.982961,39.002978 L -81.987407,39.012497 L -81.994961,39.022478 L -82.00599,39.029387 L -82.021884,39.029491 L -82.031678,39.027003 L -82.037749,39.023865 L -82.042062,39.016778 L -82.045663,39.003778 L -82.052063,38.993978 L -82.067162,38.985738 L -82.079072,38.981193 L -82.090165,38.975278 L -82.094865,38.964578 L -82.101165,38.954878 L -82.109065,38.945579 L -82.113547,38.930256 L -82.120966,38.921079 L -82.129366,38.907879 L -82.135966,38.904879 L -82.143167,38.898079 L -82.145267,38.884179 L -82.141367,38.87528 L -82.139279,38.866407 L -82.141616,38.851394 L -82.144867,38.84048 L -82.159125,38.826463 L -82.163598,38.823424 L -82.181811,38.816696 L -82.189293,38.815768 L -82.19754,38.809539 L -82.211438,38.80122 L -82.217269,38.79568 L -82.221566,38.787187 L -82.221387,38.778649 L -82.216614,38.76835 L -82.207141,38.763943 L -82.199999,38.759057 L -82.195606,38.752441 L -82.193268,38.741182 L -82.187968,38.733082 L -82.187468,38.722582 L -82.182467,38.708782 L -82.182867,38.705482 L -82.190167,38.687382 L -82.190867,38.680383 L -82.185767,38.665383 L -82.185567,38.659583 L -82.179067,38.648883 L -82.171966,38.625384 L -82.173166,38.612384 L -82.177267,38.603784 L -82.188767,38.594984 L -82.201004,38.592052 L -82.22159636283418,38.591437395661536 L -82.225268,38.593184 L -82.247469,38.598683 L -82.26197,38.598183 L -82.27147,38.595383 L -82.28727,38.582783 L -82.293471,38.575383 L -82.293371,38.556983 L -82.295671,38.538483 L -82.302871,38.523183 L -82.303971,38.517283 L -82.303071,38.504384 L -82.304223,38.496308 L -82.310639,38.483172 L -82.314783,38.465236 L -82.318111,38.457876 L -82.323999,38.449268 L -82.330335,38.4445 L -82.34161085134562,38.44084670617849 L -82.364769,38.438339 L -82.38202247629994,38.4347910881692 L -82.389679,38.434366 L -82.404882,38.439347 L -82.434375,38.430082 L -82.459676,38.424682 L -82.487208,38.417866 L -82.501436,38.412959 L -82.52858688078338,38.405807565572246 L -82.53769,38.404157 L -82.550345,38.403445 L -82.571613,38.405138 L -82.577894,38.40728 L -82.58778308146714,38.412945155483065 L -82.593482,38.418252 L -82.59348,38.421821 L -82.595972,38.41788 L -82.596931,38.409613 L -82.59458467220851,38.39822721624739 L -82.599192,38.392707 L -82.598937,38.388194 L -82.594094,38.381399 L -82.592841,38.375063 L -82.597594,38.364912 L -82.598121,38.345933 L -82.595507,38.342489 L -82.589161,38.34026 L -82.584588,38.333733 L -82.57672,38.328515 L -82.572581,38.31896 L -82.571923,38.313347 L -82.582655,38.298365 L -82.579367,38.289775 L -82.57932,38.283613 L -82.57447779140809,38.27512849677873 L -82.574518,38.264505 L -82.581131,38.248967 L -82.58608284396307,38.24571325897674 L -82.594509,38.245503 L -82.603905,38.247639 L -82.608128,38.24483 L -82.612216,38.236297 L -82.610416,38.227466 L -82.607668,38.222518 L -82.598295,38.217361 L -82.59942,38.196577 L -82.602602,38.191661 L -82.611601,38.171339 L -82.61604834636407,38.1694004350858 L -82.637216,38.17139 L -82.644443,38.166561 L -82.638628,38.155915 L -82.6384,38.145577 L -82.634702,38.136941 L -82.622383,38.133735 L -82.620902,38.122787 L -82.618772,38.120388 L -82.60643184258065,38.120798155301024 L -82.599037,38.116916 L -82.592412,38.110416 L -82.585342,38.106634 L -82.585599,38.095422 L -82.583357,38.090032 L -82.575458,38.083201 L -82.564898,38.080113 L -82.558648,38.072253 L -82.553229,38.071471 L -82.54924,38.067952 L -82.5495,38.063234 L -82.545193,38.059765 L -82.544155,38.052592 L -82.537334,38.045191 L -82.537813,38.03578 L -82.531321,38.028945 L -82.525802,38.025898 L -82.525457,38.018329 L -82.519755,38.008375 L -82.518956,38.002153 L -82.512993,37.999264 L -82.508424,38.001507 L -82.497556,37.998777 L -82.488655,37.998912 L -82.486058,37.995647 L -82.484652,37.985001 L -82.482173,37.983695 L -82.473859,37.986486 L -82.466758,37.985329 L -82.464415,37.977831 L -82.468851,37.97323 L -82.481224,37.973072 L -82.48426,37.971383 L -82.484851,37.964056 L -82.47183,37.960291 L -82.474741,37.954895 L -82.48188,37.948407 L -82.488277,37.94519 L -82.49497,37.946775 L -82.496141,37.941398 L -82.489917,37.939231 L -82.492172,37.935739 L -82.49874,37.937053 L -82.502198,37.933052 L -82.495941,37.926954 L -82.485456,37.927038 L -82.480287,37.925618 L -82.487714,37.919992 L -82.48739,37.916678 L -82.479289,37.914701 L -82.475056,37.910859 L -82.476352,37.902439 L -82.470646,37.899787 L -82.468382,37.903207 L -82.467965,37.913927 L -82.462991,37.91482 L -82.460492,37.910041 L -82.451896,37.908551 L -82.447331,37.903857 L -82.438118,37.900213 L -82.432906,37.890734 L -82.420484,37.885446 L -82.419392,37.874614 L -82.417049,37.869728 L -82.408392,37.868429 L -82.409298,37.865638 L -82.421797,37.864063 L -82.424207,37.860528 L -82.4147804809661,37.855564229878006 L -82.420592,37.847855 L -82.412119,37.843891 L -82.408657,37.836069 L -82.399074,37.828715 L -82.39825157984858,37.82151792767864 L -82.402143,37.810891 L -82.397347,37.80856 L -82.389025,37.81741 L -82.385531,37.817499 L -82.380627,37.812065 L -82.376169,37.80203 L -82.369037,37.801259 L -82.364741,37.795866 L -82.355656,37.793535 L -82.34944,37.787233 L -82.340596,37.786028 L -82.337465,37.774914 L -82.32972,37.775697 L -82.323058,37.772678 L -82.333605,37.76715 L -82.32852,37.762118 L -82.320342,37.764796 L -82.312977,37.765131 L -82.310908,37.761674 L -82.319951,37.758558 L -82.321634,37.751272 L -82.327154,37.749566 L -82.33387,37.741725 L -82.326258,37.735897 L -82.319566,37.734238 L -82.31552,37.720625 L -82.311036,37.71765 L -82.307678,37.708006 L -82.299268,37.705232 L -82.296689,37.699859 L -82.301958,37.696804 L -82.302158,37.691657 L -82.295848,37.686544 L -82.304068,37.678307 L -82.302411,37.675592 L -82.294498,37.677426 L -82.293982,37.669861 L -82.288292,37.668129 L -82.284802,37.674536 L -82.270436,37.663133 L -82.258068,37.656883 L -82.251049,37.657093 L -82.240894,37.661531 L -82.232792,37.655338 L -82.226156,37.652913 L -82.223323,37.644143 L -82.216765,37.640502 L -82.220503,37.634769 L -82.214499,37.6254 L -82.204854,37.625235 L -82.20063847684949,37.62790179288759 L -82.191431,37.625695 L -82.185929,37.629556 L -82.187821,37.639415 L -82.190756,37.645137 L -82.185806,37.648595 L -82.177663,37.648786 L -82.17500585324731,37.64607649891165 L -82.177467,37.640077 L -82.172484,37.634076 L -82.173107,37.631593 L -82.181691,37.627147 L -82.180778,37.621079 L -82.176033,37.618275 L -82.16806,37.621823 L -82.16435,37.619257 L -82.169614,37.613027 L -82.168534,37.608692 L -82.157057,37.609383 L -82.1577,37.596979 L -82.156297,37.592365 L -82.148065,37.590779 L -82.141143,37.595044 L -82.13257462554493,37.593383327357564 L -82.126797,37.585185 L -82.12453954715451,37.576918146131504 L -82.128175,37.572407 L -82.141764,37.571086 L -82.143854,37.56609 L -82.134068,37.562367 L -82.135324,37.557351 L -82.133247,37.552832 L -82.122948,37.551718 L -82.117304,37.559226 L -82.10196,37.55842 L -82.100028,37.552804 L -82.08895524573857,37.55608222050021 L -82.07587532922344,37.55589698417962 L -82.072797,37.554152 L -82.06391,37.543125 L -82.064835,37.537196 L -82.056353,37.536804 L -82.043342,37.530218 L -82.04196,37.535864 L -82.044541,37.541589 L -82.044413,37.547332 L -82.038706,37.54724 L -82.036546,37.542133 L -82.029479,37.53779 L -82.018206,37.540146 L -82.016388,37.534393 L -82.011169,37.532881 L -82.005573,37.534922 L -82.001015,37.541696 L -81.996396,37.538299 L -81.989106,37.54278 L -81.981244,37.542245 L -81.976045,37.545827 L -81.970092,37.546724 L -81.96506,37.543411 L -81.968012,37.538035 Z" fill="none" stroke=currentColor stroke-width="1" vector-effect="non-scaling-stroke"/>
</svg>