<?xml version="1.0"?>
<svg xmlns="http://www.w3.org/2000/svg" version="1.2" baseProfile="tiny" viewBox="-40.0 -40.0 880.0 639.0" stroke-linecap="round" stroke-linejoin="round">
<g id="state">
<path d="M 110.61 503.45 111.09 502.57 110.27 502.04 109.31 502.18 108.46 502.76 107.19 502.68 106.01 503.4 105.26 502.85 104.52 503.95 103.62 504.28 102.77 504.04 102.47 503.1 100.65 503.49 99.5 502.78 99.15 501.95 98.23 501.94 98.21 502.87 98.63 503.8 98.4 504.71 96.29 503.65 94.92 503.58 95.07 502.62 93.63 500.83 93.13 500.55 91.01 500.52 89.22 501.05 88.9 500.14 86.42 500.01 85.5 501.23 83.83 501.05 83.5 500.32 83.7 499.5 82.12 498.9 82.45 498.09 84.66 497.88 85.24 497.14 84.88 495.81 83.94 494.48 82.55 494.21 81.43 494.9 80.1 494.64 79.87 493.89 79.98 491.88 78.12 492 77.94 491.29 78.79 490.28 78.19 489.87 76.9 490.44 76.13 489.99 75.98 489.01 77.37 488.29 77.48 487.88 76.67 486.91 77.07 485.94 76.64 485.5 75.32 485.53 74.52 486.09 74.99 487.02 75.3 488.62 74.41 489.24 72.91 488.88 72.23 489.32 70.67 489.29 69.69 487.77 70.3 486.84 69.24 486.25 68.78 484.83 67.7 484.44 66.39 483.43 64.75 484.15 63.61 484.19 61.6 483.17 59.28 481.33 58.71 482.37 57.79 482.08 57.7 480.86 56.42 481.16 56.15 480.72 57.49 479.38 56.46 478.55 56.5 477.72 57.35 477.22 56.93 476.35 55.57 475.9 55.02 474.34 54.3 473.86 53.64 471.65 52.56 471.38 51.32 470.44 52.41 469.17 53.31 468.89 53.58 467.71 55.05 467.21 54.71 466.65 53.52 466.7 52.19 467.14 51.37 466.32 53.08 465.42 52 464.94 50.74 465.06 50.24 463.26 48.8 463.07 47.79 462.04 46.32 461.67 45.63 460.79 44.47 460.67 43.75 459.04 42.95 458.16 42.39 458.18 41.04 459.61 40.26 459.23 40.89 457.51 40.76 456.34 39.21 455.15 38.65 453.88 37.27 453.24 38.21 451.99 36.69 451.19 37.08 450.62 39.1 450.36 39.25 449.91 37.85 449.7 37.47 448.91 37.29 447.15 35.28 446.29 34.43 444.76 32.94 444.17 32.2 443.41 30.81 443.17 30.4 442.39 29.6 442.54 29.53 444.27 29.16 444.83 28.24 444.4 28.45 443.03 27.76 442.41 26.45 442.09 26.4 441.55 27.6 440.64 26.76 440.41 25.06 440.43 24.05 439.44 24.61 438.79 25.67 439 26.04 438.44 25.03 438.08 25.22 437.21 26.31 437.47 27.34 436.95 28.5 435.9 28.97 435.02 26.86 434.41 26.96 433.23 27.45 432.95 29.45 432.93 30.17 432.18 29.79 430.97 28.64 430.78 27.29 431.23 26.89 431.02 26.66 429.29 26.24 428.77 24.8 428.79 23.04 428.34 22.3 428.71 21.33 428.24 21.2 427.23 20.28 425.62 20.22 424.39 19.33 423.9 18.28 422.79 18.36 421.27 17.25 420.07 17.08 418.9 16.38 418.34 16.43 417.58 15.78 417.01 14.9 416.88 13.89 415.61 12.18 415.11 10.9 414 10.54 413.13 10.58 411.31 9.43 410.7 8.36 409.64 7.16 409.02 5.16 409.08 4.81 408.69 4.57 406.92 2.58 406.4 1.98 405 1.94 403.32 1 401.6 2.17 400.82 5.6 401.14 6.32 400.83 7.78 397.53 8.3 396.74 8.48 393.37 6.96 392.53 6.51 391.73 6.22 390.3 6.88 388.92 7.57 388.46 9.09 388.81 10.46 388.77 11.26 388.25 12.33 385.73 12.34 384.01 11.55 382.63 11.54 381.63 11.01 380.24 12.75 377.81 12.64 376.91 11.97 375.36 10.7 374.51 9.96 373.45 8.93 373.09 8.51 372.53 8.59 369.46 9.36 367.81 9.16 366.79 8.37 365.69 8.33 364.96 9.08 364.06 8.7 362.22 8.85 360.88 9.26 360.24 9.26 360.82 10.18 361.68 11.78 362.59 12.8 362.94 16.25 363.22 18.3 363.1 19.77 362.83 24.17 361.67 26.48 360.88 30.94 359.77 35.04 358.9 39.82 357.4 42.28 358.2 43.52 358.14 46.32 357.56 50.07 357.15 51.9 356.56 52.92 355.79 53.88 354.4 54.42 353.2 55.09 350.3 56.13 348.17 56.32 346.86 56.17 344.77 56.35 343.81 57.51 341.33 57.89 338.34 57.87 335.35 58.88 334.16 61.44 332.11 62.98 331.66 65.33 331.58 68.92 332.47 69.52 332.75 72.85 332.65 74.84 332.18 76.7 330.75 77.37 329.36 77.56 327.25 76.41 323.44 75.36 321.71 75.32 320.77 74.5 318.34 74.61 317.21 75.79 314.27 75.86 313.74 75.05 311.5 74.97 309.8 74.11 308.49 73.73 306.66 73.02 305.59 71.86 304.8 70.33 304.09 69.55 302.42 69.52 301.03 70.22 299.66 71.16 298.76 73.42 297.41 74.75 296.4 75.96 296.25 78.92 295.16 79.64 294.67 81.95 292.4 82.48 290.63 82.86 288.2 82.52 286.76 81.89 285.32 82.23 283.07 83.39 281.96 84.46 281.48 85.82 279.34 87.03 277.85 87.75 275.37 89.03 273.86 90.05 272.29 90.81 270.56 92.61 269.6 94.54 268.86 96.99 267.53 98.03 265.94 98.61 263.83 99.31 262.68 100.29 262.17 101.88 261.77 104.45 261.79 106.24 262.91 107.47 264.52 108.19 266.07 108.34 267.25 108.77 267.65 110.65 267.69 113.29 267.19 114.87 267.65 116.25 268.55 118.68 271.96 120.18 274.87 121.53 276.65 121.88 277.96 121.64 278.64 120.28 279.93 118.75 281.04 117.31 282.54 117.09 283.81 119.96 286.11 121.87 286.87 123.1 286.98 125.7 285.8 128.29 284.34 129.95 282.53 130.49 281.12 130.37 280.62 130.62 278.1 132.73 275.67 133.78 275.2 135.53 275.27 136.84 275.93 138.42 277.49 140.16 278.51 142.03 279.03 143.31 279.04 144.32 278.57 144.94 277.32 142.74 274.86 141.26 273.7 140.78 272.23 141.27 270.53 141.76 269.67 141.6 269.08 142.12 267.4 143.45 266.2 143.63 264.07 142.15 262.24 140.59 261 138.6 259.85 137.29 258.82 135.83 256.62 135.59 255.42 135.59 253.64 136.69 252.93 138.13 253.12 139.38 253.64 141.58 253.88 143.61 253.23 145.26 252.23 146.38 251.09 146.96 249.85 147.17 248.52 146.82 246 146.71 244.15 146.96 242.74 146.61 242.25 144.92 237.87 144.98 237.21 145.94 236.31 147.56 235.77 148.44 234.77 148.74 233.25 149.88 231.56 153.89 230.76 155.43 229.62 155.26 228.19 154.64 226.96 154.58 225.05 155.74 223.44 157.67 222.12 158.87 221.83 162.64 221.61 166.65 222.2 168.88 221.82 171.11 222.28 172.35 222.94 174.47 223.28 175.06 223.18 175.87 221.8 175.9 218.93 176.7 215.04 176.78 212.95 177.12 211.66 179.58 209.37 180.96 208.45 183.72 207.37 186.64 205.6 189.13 203.49 190.79 201.71 193.55 200.23 195.17 200.07 196.87 200.36 197.98 200.85 200.59 202.61 201.56 203.66 203.32 208.94 204.07 210.03 205.15 210.9 206.54 211.18 209.63 210.94 211.57 210.36 213.9 208.83 215.49 208.11 219.25 205.89 222 205.03 222.79 204.36 223.97 203.95 225.8 203.78 226.98 203.33 228.28 203.31 230.54 203.88 232.28 203.73 233.17 202.87 233.3 201.16 234.21 199.99 236.56 197.92 237.46 196.63 239.81 195.39 242.75 194.74 245.08 194.64 245.68 194.43 247.25 193.09 248.94 190.98 251.13 187.61 252.49 186.17 255.31 183.83 255.96 183 257.73 181.82 260.19 179.65 261.19 179.07 263.11 177.83 263.59 177.05 266.13 175.3 268.47 173.99 269.45 173.01 271.71 171.25 276.57 168.2 278.27 166.93 280.81 166.3 282.66 166.34 284.93 166.61 286.85 165.97 287.45 165.13 288.39 162.83 288.56 161.73 289.07 160.8 289.3 158.63 289.07 156.61 289.55 154.46 291.02 153.53 292.63 153.21 294.38 152.56 295.06 150.85 294.73 149.95 293.94 149.25 292.07 146.57 291.33 146.47 289.28 144.49 288.48 142.88 289.12 141.5 290.06 140.66 294.15 138.43 295.65 137.15 296.28 135.02 296.23 132.87 295.5 130.17 296.42 128.82 297.21 128.33 299.7 127.45 300.99 126.59 301.47 125.21 300.98 123.78 298.97 121.28 298.32 119.8 298.69 118.18 299.1 117.77 300.59 117.52 302.98 118.11 304.6 119.04 306.32 119.3 307.05 118.01 306.17 115.94 305.67 113.24 305.87 112 306.61 111.11 309.57 109.24 309.78 107.46 309.31 104.46 309.25 103.07 309.84 101.3 310.06 99.89 310.85 98.66 311.05 97.33 310.62 94.88 309.94 93.88 309.72 92.37 309.93 91.68 310.98 90.52 313.82 88.84 314.63 88.08 314.93 86.55 314.35 84.17 314.44 82.02 315.23 79.53 318.33 75.08 320.52 73.33 321.25 72.15 322.31 67.27 323.84 64.82 325.05 63.79 328.63 62.09 329.65 60.39 329.56 58.28 329.87 57.2 331.21 55.27 331.81 54.75 332.3 53.04 331.81 51.38 330.53 49.28 330.21 48.19 330.37 46.96 330.87 45.86 331.05 44.63 330.71 43.75 329.18 42.63 327.13 41.86 327.06 40.72 330.28 39.25 329.97 38.28 330.25 37.73 330.3 34.05 331.59 31.65 332.94 29.43 333.14 28.13 332.41 26.32 330.86 25.17 329.36 23.16 328.68 20.17 327.82 17.69 326.92 17.22 323.78 13.36 321.85 12.15 321.43 11.36 321.29 9.96 321.98 8.78 325.07 6.59 326.71 4.68 327.99 4.02 329.35 3.89 331.85 3.19 333.24 3.45 334.87 4.74 336.31 4.92 337.64 4.36 338.69 3.42 340.16 2.63 341.05 2.47 343.61 1.41 345.41 1 345.39 8.54 345.43 13.88 345.41 27.16 345.62 29.61 345.57 34.47 345.57 45.1 345.41 47.83 345.39 62.87 345.38 76.66 345.42 85.47 345.37 89.02 345.4 104 345.35 115.07 345.42 122.18 345.36 137.31 345.35 149.65 349.22 149.68 362.73 149.69 369.18 149.65 389.07 149.72 393.13 149.68 408.94 149.71 416.52 149.65 428.47 149.69 439.12 149.77 469.97 149.76 476.35 149.72 484.71 149.75 496.93 149.67 502.76 149.75 514.3 149.71 514.27 152.83 514.32 162.44 514.13 162.48 513.95 180.4 513.38 180.4 513.25 193.47 513.06 210.76 512.78 210.76 512.66 218.52 512.52 221.19 512.59 223.58 512.81 223.82 512.65 233.19 515.42 233.54 515.79 232.74 516.91 232.27 518.09 232.45 519.08 231.59 520.14 231.47 521.38 230.27 522.8 229.79 522.63 228.68 523.35 227.91 525.19 227.21 525.27 226.61 526.69 225.9 526.8 225.22 529.67 223.31 530.8 222.21 532.93 222.02 534.17 221.5 534.62 220.36 535.86 220.04 535.34 219.03 536.44 218.94 537.61 217.94 539.49 217.94 540.85 217.19 542.23 217.95 544.55 217.96 544.63 217.22 545.54 216.34 545.83 214.17 547.91 212.98 547.87 212.24 549.29 212.38 550.4 211.93 549.86 211.22 550.47 210.18 549.92 208.95 550.7 208.92 552.23 208.31 553.8 208.28 554.01 207.48 556.79 207.66 557.02 206.73 558.79 205.09 559.53 203.6 561.9 204.09 562.92 203.4 562.2 202.52 562.8 202.26 564.78 203.82 565.35 203.13 564.73 202.47 564.53 201.58 565.78 199.88 565.57 199.15 566.37 198.77 567.29 199.39 567.24 200.75 568.36 200.84 568.68 200.06 568.48 199.03 569.42 198.67 570.53 198.92 570.95 198.27 570.58 197.02 571.44 196.35 573.32 196.74 573.37 195.98 572.63 195.53 572.8 194.94 574.83 193.66 574.88 192.37 574.43 191.54 575.89 191.63 575.9 190.72 574.62 190.27 575.31 189.26 576.78 189.98 578.21 190.13 580.52 189.55 581.14 189.02 581.69 190.11 582.68 189.89 582.89 188.67 583.92 188.23 584.34 188.8 585.56 189.34 586.08 190.88 586.9 191.24 588.62 190.77 589.77 191.83 590.93 192.2 593.26 193.26 595.22 193.95 596.5 194.72 597.12 195.48 598.57 195.19 598.67 193.97 597.97 193.54 598.94 192.95 598.17 191.99 598.42 191.38 600.25 191.01 601.5 189.65 600.85 188.67 602.19 187.75 605.07 187.69 605.6 186.41 606.15 186.21 607.09 184.87 606.85 183.66 608.86 183.49 609.12 182.39 608.79 181.74 611.19 182.08 611.85 181.77 612.67 180.45 612.56 179.19 613.97 178.91 615.53 177.23 615.67 175.82 617.09 175.26 617.7 174.64 619.18 175 620.51 175.71 621.09 175.58 621.8 174.69 620.72 173.16 619.7 173 619.78 171.08 620.82 170.96 621.01 170.25 622.03 169.65 622.38 168.31 623.7 168.23 624.72 167.59 623.75 165.16 625.45 163.12 627 163.36 627.78 162.05 628.97 161.82 629.57 162.25 628.38 163.35 627.47 165.65 629.77 166.27 632.23 165.02 634.19 165.73 634.71 167.09 632.59 168.39 631.21 167.65 629.17 167.9 627.83 168.6 627.51 169.12 628.76 170.14 629.29 171.35 631.14 172.46 632.65 172.6 633.81 171.46 634.78 171.56 635.03 173.44 636.26 175.21 637.65 175.32 639.02 176.49 640.96 176.81 641.81 178.08 643.2 178.43 644.16 179.02 645.35 179.02 645.96 179.54 647.5 179.92 650.2 179.64 653.13 179.17 656.09 180.28 657.45 179.56 657.71 180.51 658.5 181 659.88 181.23 661.85 182.39 663.68 182.02 665.68 182.04 668.13 181.51 670.13 181.78 672.03 182.52 674.18 182.67 674.92 182.37 676.5 182.87 677.64 182.84 678.54 182.24 678.91 181.42 678.56 180.12 679.37 179.32 680.49 179.38 680.86 178.64 679.11 178.15 679.37 177.2 680.97 177.68 682.31 179.2 683.15 178.74 682.43 177.14 683.82 177.17 684.51 178.08 685.27 178.23 685.96 177.49 684.5 175.93 682.61 175.24 679.92 173.47 679.36 172.61 679.47 171.45 681.4 170.71 684.09 171.41 685.58 172.32 687.49 172.79 688.42 172.63 689.53 171.9 689.25 170.91 686.88 169.74 685.24 168.64 683.67 166.97 683.31 166.09 683.88 165.53 685.44 165.43 689.59 166.79 691.37 167.87 692.27 168.03 693.25 167.38 691.42 165.45 691.91 164.59 693.9 164.59 695.42 165.23 696.09 165.02 696.25 164.24 695.37 163.3 696.01 162.74 699.19 163.26 702.92 164.29 707.19 165.87 710.37 166.26 711 165.62 711.07 164.39 712.38 162.85 714.87 160.99 716.82 160.04 717.34 159.16 715.77 157.65 716.83 156.97 720.27 157.01 721 156.76 722.38 154.95 723.97 153.91 725.81 153.83 727.46 154.17 728.58 154.64 730.34 154.66 732.31 155.27 736.66 156.13 737.66 156.54 739.1 157.76 740.1 157.74 741.3 158.34 743.41 160.14 744.8 161.06 745.61 162.12 747.52 163.32 748.67 164.81 749.76 165.79 751.83 168.75 752.49 169.09 755.89 169.43 757.21 169.39 758.54 168.37 760.27 167.89 761.47 168.4 761.32 170.23 761.79 171.48 763.06 171.73 763.78 170.77 764.03 167.95 763.6 167.32 762.55 166.86 763.16 166.24 764.34 166.39 765.21 167.14 765.93 168.47 771.55 169.74 772.68 169.45 772.86 168.35 772.01 167.31 772.29 166.76 773.96 167.05 775.54 167.88 777.31 168.17 779.83 168.36 780.75 169.06 781.15 171.45 780.58 173.76 780.1 174.76 779.33 175.05 773.96 175.15 771.91 175.81 771.8 176.93 774.63 178.55 775.41 179.31 775.47 180.77 775.23 182.1 776.08 183.21 777.98 183 779.19 182.54 779.42 180.81 780.55 180.25 781.78 180.72 782.18 181.68 781.46 183.11 778.39 184.84 778.65 185.84 781.57 186.65 782.94 186.6 784.8 187.13 786.51 187.22 787.68 186.77 788.88 185.69 790.16 185.64 791.44 186.14 791.29 186.94 787.83 187.94 786.35 188.91 786.48 189.91 787.41 190.63 789.18 191.26 788.87 192.04 787.08 191.67 786.31 191.89 786.25 192.61 788.11 193.95 788.1 194.68 786.14 195.04 785.46 195.58 786.55 196.6 788.2 197.06 792.63 197.35 793.61 198 794.67 200.22 795.55 201.15 796.38 203.16 795.92 204.05 794.37 204.23 793.61 205.13 795.07 207.35 794.72 209.33 794.13 209.9 792.53 210.68 792.33 211.45 793.16 212.44 793.92 212.57 796.91 213.72 797.71 214.35 799 214.52 798.83 214.86 797.22 215.41 795.97 216.61 794.48 218.78 793.65 220.63 793.59 221.61 792.98 222.14 792 224.7 790.74 225.19 791.29 226.08 790.63 228.23 788.18 230.67 787.8 231.73 786.29 234.03 786.34 235.1 785.43 237.24 785.01 238.72 783.78 239.91 782.49 241.94 782.21 243.09 782.41 243.85 781.4 245.09 766.64 235.57 748.78 224.03 745.27 221.85 738.42 217.44 736.03 215.96 730.68 212.43 727.86 210.85 723.22 207.57 720.13 205.66 713.89 201.34 711 199.41 707.09 197.17 703.76 195.12 697.34 191.04 697.6 192.03 697.23 195.16 696.35 195.77 697.4 197.26 696.67 198.4 695.73 199.04 695.26 200.27 695.58 201.06 696.89 202.07 696.67 203.13 697.97 203.55 696.53 205.77 694.13 208.33 697.04 209.07 698.42 209.25 698.6 210.06 697.39 210.77 697.47 211.6 695.16 215.09 694.07 216.29 692.86 217.11 690.83 219.02 689.84 220.69 688.3 221.4 688.32 221.91 685.62 224.83 687.29 225.62 688.82 227.03 688.08 227.46 687.88 229.01 685.44 231.74 683.85 233.03 682.5 234.45 683.77 234.75 684.12 236.21 685.7 237.81 687.64 238.86 688 239.5 686.51 240.88 684.34 241.8 682.83 243.59 682.38 245.14 679.16 248.03 677.96 248.26 676.9 249.03 676.15 248.79 675.11 249.15 673.35 250.19 673.21 250.51 669.89 253.29 669.84 253.98 668.26 255.5 666.05 256.73 663.77 258.76 663.37 259.33 660.91 261.37 661.89 262.29 663.01 262.66 664.38 263.62 662.94 264.63 662.41 265.38 661.38 266.07 659.28 268.43 657.45 271.1 656.54 271.48 656.09 272.29 654.71 271.33 654.55 270.42 653.33 270.75 653.04 269.37 651.57 269.65 650.13 271.93 648.81 271.71 647.88 272.92 646.79 275.08 645.68 276.02 644.91 277.28 643.32 278.65 642.06 278.74 640.54 280.44 639.45 280.29 637.13 282.01 636.76 281.11 637.16 277.2 633.89 278.32 632.95 279.48 631.97 280.16 631.99 280.86 630.58 282.67 628.92 283.23 628.36 283.77 627.32 284 625.89 285.16 625.31 286.38 624.49 287.02 622.62 289.86 621.36 292.55 618.82 296.54 618.3 297.01 615.88 300.09 615.01 301.62 612.73 304.96 592.55 290.85 591.5 291.6 591.7 292.46 591.16 293.04 590.25 295.34 588.38 296.06 588.33 297.06 587.71 297.37 587.81 299.18 586.8 300.41 583.87 300.28 582.64 301.27 583.17 302.52 583.19 303.4 582.52 303.67 582.27 305.21 579.79 307.46 579.58 308.34 578.73 309.13 578.52 309.89 577.57 311.45 577.52 312.57 576.48 314.84 576.8 316.31 577.88 317.35 577.24 319.55 576.6 320.33 576.53 321.58 574.2 322.22 573.56 321.72 572.06 321.61 570.31 322.74 569.25 325.21 568.43 325.79 567.89 327.02 567 328.09 566.34 329.67 566.48 330.41 565.75 331.17 565.9 332.48 565.06 334.15 564.39 334.64 563.73 335.87 563.84 336.53 562.92 336.95 562.24 337.86 561.69 339.25 560.19 340.7 558.9 343.06 558.19 343.6 557.36 346.37 557.97 346.95 557.42 348.72 555.67 350.04 555.74 350.71 554.98 351.38 552.67 352.42 552.32 353.23 552.27 354.94 551.44 355.14 550.31 354.71 549.9 355.58 549.23 355.98 548.39 357.38 545.79 358.62 546.22 359.85 545.6 360.85 544.8 360.38 543.56 360.8 542.92 361.36 542.19 361.26 540.94 361.85 531.57 359.37 514.31 354.5 510.77 348.3 506.99 342.01 506.2 341.55 505.05 340.24 504.55 339.32 503.12 338.74 501.66 337.86 498.74 337.29 486.37 332.74 485.27 334.38 485.2 335.25 484.13 336.16 484.71 337.46 483.77 337.7 483.05 339.34 482.87 341.04 483.48 341.31 482.49 342.92 483.5 343.63 484.15 344.6 484.03 345.28 482.32 345.88 481.3 345.85 480.91 347.31 480 348.19 479.01 348.5 478.51 349.64 479.06 351.08 478.18 351.79 479.56 353.44 480.04 355.6 479.5 356.19 479.82 356.87 479.45 357.77 479.79 358.68 478.63 359.44 478.16 360.23 477.04 361.22 476.51 362.44 475.3 363.52 474.44 365.47 473.85 365.87 472.98 367.96 473.63 368.36 473.73 369.89 472.92 370.23 472.46 370.98 471.18 371.33 468.78 370.65 467.72 370.8 467.42 371.67 466.72 372.23 467.16 372.8 466.27 374.22 462.52 376.17 461.97 377.2 460.5 378.45 460.3 379.22 461.26 380.2 461.54 381.3 462.65 381.56 464.08 384.05 463.7 385.05 460.86 386.59 460.1 386.41 459.37 387.26 459.5 387.83 458.51 388.36 456.93 388.13 456.22 389.39 454.84 389.46 453.76 390.78 452.72 391.14 450.89 393.03 448.41 395.07 447.03 395.48 446.14 397.25 444.47 398.13 443.37 398.06 442.3 399.38 443.01 399.75 442.64 400.74 443.27 401.35 442.51 403.71 441.62 404.21 441.06 405.11 441 405.94 440.2 406.67 439.32 406.7 438.39 407.2 439.04 408.29 438.99 409.57 439.4 410.5 441.44 411.23 440.16 412.76 438.84 413.75 438.04 414.81 437.04 415.39 436.35 416.91 435.72 417.67 435.96 418.45 435 420.35 433.73 422.11 433.51 423.72 432.7 424.12 431.83 425.48 431.75 426.29 431.11 426.44 430.17 427.65 429.63 429.37 428.06 430.08 427.37 431.14 426.16 431.71 423.67 433.73 423.52 434.11 421.91 435.06 420.42 436.37 418.25 437.43 417.28 438.37 415.8 439.38 414.75 440.43 413.86 441.86 412.82 441.73 412.13 442.78 410.56 443.77 410.2 444.47 408.48 445.74 408.13 446.49 406.72 447.4 404.67 447.67 403.22 448.82 401.63 450.93 401.69 451.44 400.04 452.45 399.75 453.25 400.43 454.56 398.24 455.37 396.63 457.07 396.05 458.41 394.08 459.41 392.71 461.18 392.32 462.24 393.38 463.22 394.52 463.92 394.56 464.65 392.62 464.42 391.28 465.35 390.47 465.46 390.38 466.17 389.25 466.14 388.85 468.21 387.79 468.11 387.48 469.92 386.93 470.99 387.43 471.85 388.67 472.37 387.67 473.86 386.74 474.1 386.05 475.11 385.43 475.33 384.69 476.3 382.98 477.78 381.53 478.54 384.23 484.16 386.16 485.93 390.49 487.19 393.7 488.91 392.88 490.15 390.57 492.28 389.03 493.06 387.55 494.13 383.58 495.81 381.72 496.84 376.27 499.19 378.89 502.12 377.41 502.91 376.44 503.1 375.97 503.73 379.38 505.17 382.25 503.69 383.74 504.18 380.93 508.27 379.38 509.14 375.7 510.62 373.8 510.88 370.06 512.06 370.66 512.85 369.23 513.81 367.52 514.41 364.24 516.04 360.53 517.73 357.72 519.63 355.4 520.58 354.18 521.58 352.44 522.09 349.32 520.13 348.92 518.56 349.62 516.46 346.64 512.58 345.83 513.1 344.68 513.35 343.24 513.32 342.51 513.82 340.05 513.89 334.57 516.63 333.68 517.48 328.7 519.98 328.61 520.42 327.12 520.59 326.29 521.36 324.84 522.22 320.25 524.19 317.02 525.83 313.49 527.39 312.33 527.7 309.04 529.08 308.18 529.05 306.37 529.88 304.72 530.29 303.66 528.46 302.6 527.39 302.43 526.69 299.79 526.47 298.86 526.09 298.87 525.2 293.97 521.93 293.22 521.58 292.37 522.02 290.24 521.03 289.57 521.9 289.25 523 289.66 523.95 286.38 528.42 291.86 534.42 288.67 535.79 286.89 537.33 283.98 539.3 280.55 541.02 278.63 541.55 275.4 542.83 271.7 543.4 270.49 543.08 270.85 541.92 269.52 541.8 265.81 542.7 263.91 542.97 261.61 543.6 258.89 543.86 255.17 544.47 253.85 544.54 250.59 545.16 245.81 546.49 244.39 547.01 240.4 548.03 238.39 548.93 234.28 551.25 230.99 552.57 227.78 550.35 220.12 545.21 215.57 542.1 208.78 535.91 208.25 535.9 207.59 536.95 207.91 537.66 207.1 538.7 205.88 539.14 205.13 539.01 203.57 539.36 202.94 540.27 203.16 541.29 201.83 542.21 202.04 542.57 200.77 545.2 200.06 545.43 199.93 546.36 198.12 546.71 196.63 546.22 196.25 546.73 195.29 546.49 193.83 547.36 192.84 547.63 192.58 548.51 190.35 549.19 189.11 550.02 187.17 549.75 186.56 548.95 185.94 549.62 185.39 550.89 185.33 552.56 184.81 553.02 182.94 553.85 181.41 554.14 179.04 554.97 178.81 555.61 177.72 556.83 176.6 557.14 157.57 557.97 156.75 557.31 156.64 556.55 155.94 556.03 154.89 556.05 154.14 554.99 151.49 553.56 151.4 552.66 150.3 551.66 148.96 551.73 147.54 552.1 146.84 551.16 147.41 549.43 146.63 548.79 146.58 547.95 144.71 547.11 144.8 545.89 142.88 546.34 141.18 545.68 141.18 545.26 139.71 544.55 137.3 544.3 135.2 545.26 133.64 545.37 132.22 544.92 131.58 544.24 130.25 544.5 129.16 544.01 129.36 542.55 129.01 540.95 128.23 541.23 127.19 540.48 128.07 539.47 126.53 538.7 125.82 537.7 124.56 537.11 123.05 536.9 122.67 537.18 121.55 535.2 120.47 535.11 119.97 534.08 119.19 533.98 117.53 532.79 117.02 532.15 117.42 531.42 116.22 530.78 116.48 529.54 115.82 529.29 115.84 528.54 116.52 527.98 116.14 527.33 116.97 526.81 116.76 524.96 117.66 524.58 117.54 523.9 116.37 523.35 115.49 522.56 115.06 521.1 115.86 519.59 114.21 519.3 113.67 518.43 112.41 517.99 110.61 518.26 110.48 517.47 109.29 516.55 107.77 517.01 106.68 515.94 106.56 514.72 106.13 514.5 105.98 513.38 107.07 512.06 109.06 512.1 111.27 510.66 112.91 510.99 112.87 509.64 114.51 509.13 114.65 508.21 117.14 507.65 117.22 507.12 116 506.49 115.15 507.57 114.37 507.38 114.58 506.4 113.92 505.27 112.33 504.81 112.31 503.86 110.78 504.28 110.61 503.45 Z" fill="none" stroke="currentColor" stroke-width="1"/>
</g>
</svg>