<?xml version="1.0"?>
<svg width="20" height="20" xmlns="http://www.w3.org/2000/svg" version="1.2" baseProfile="tiny" viewBox="-64.000 -110.000 928.000 928.000" stroke-linecap="round" stroke-linejoin="round">
<g id="state">
<path d="M 107.65 636.62 108.17 635.52 107.36 634.81 106.38 634.97 105.5 635.69 104.21 635.54 102.99 636.43 102.25 635.71 101.46 637.09 100.53 637.48 99.68 637.15 99.41 635.95 97.55 636.39 96.41 635.46 96.09 634.39 95.15 634.35 95.09 635.53 95.48 636.73 95.22 637.88 93.12 636.46 91.73 636.34 91.92 635.12 90.52 632.81 90.03 632.43 87.88 632.33 86.04 632.96 85.76 631.79 83.24 631.55 82.27 633.07 80.58 632.79 80.27 631.85 80.5 630.82 78.92 630 79.29 628.98 81.53 628.77 82.16 627.86 81.83 626.14 80.94 624.42 79.54 624.04 78.37 624.88 77.03 624.52 76.83 623.56 77.01 621 75.12 621.09 74.97 620.19 75.87 618.93 75.28 618.38 73.95 619.07 73.19 618.47 73.08 617.21 74.51 616.34 74.63 615.83 73.85 614.56 74.29 613.34 73.87 612.77 72.53 612.77 71.7 613.45 72.14 614.65 72.39 616.69 71.47 617.46 69.97 616.96 69.26 617.49 67.68 617.41 66.75 615.45 67.4 614.28 66.35 613.5 65.94 611.67 64.86 611.14 63.57 609.82 61.88 610.69 60.72 610.69 58.73 609.34 56.45 606.92 55.84 608.22 54.91 607.83 54.88 606.27 53.57 606.61 53.31 606.04 54.71 604.38 53.71 603.29 53.78 602.23 54.66 601.63 54.27 600.51 52.91 599.89 52.42 597.88 51.71 597.24 51.13 594.41 50.05 594.04 48.84 592.79 49.99 591.21 50.9 590.89 51.23 589.39 52.73 588.79 52.41 588.07 51.2 588.1 49.85 588.61 49.04 587.55 50.81 586.46 49.74 585.8 48.46 585.92 48.02 583.61 46.58 583.32 45.6 581.99 44.13 581.46 43.46 580.32 42.3 580.13 41.64 578.03 40.87 576.88 40.3 576.88 38.88 578.67 38.11 578.16 38.81 575.99 38.73 574.5 37.21 572.93 36.69 571.3 35.33 570.43 36.34 568.87 34.83 567.8 35.24 567.08 37.3 566.82 37.47 566.25 36.06 565.94 35.71 564.92 35.6 562.67 33.61 561.52 32.82 559.53 31.34 558.73 30.62 557.74 29.23 557.38 28.85 556.38 28.03 556.54 27.89 558.75 27.5 559.45 26.58 558.87 26.85 557.14 26.18 556.32 24.87 555.87 24.84 555.18 26.1 554.06 25.26 553.74 23.55 553.7 22.56 552.41 23.16 551.6 24.22 551.91 24.61 551.2 23.61 550.72 23.84 549.62 24.92 549.98 25.99 549.35 27.2 548.05 27.71 546.95 25.61 546.1 25.76 544.59 26.27 544.26 28.29 544.3 29.05 543.37 28.71 541.81 27.56 541.53 26.19 542.07 25.79 541.78 25.63 539.58 25.23 538.89 23.78 538.87 22.02 538.25 21.26 538.68 20.3 538.05 20.22 536.77 19.36 534.68 19.35 533.12 18.47 532.46 17.46 531.01 17.6 529.07 16.54 527.51 16.42 526.02 15.74 525.28 15.82 524.31 15.19 523.56 14.32 523.37 13.35 521.71 11.65 521.02 10.41 519.56 10.08 518.44 10.2 516.12 9.08 515.3 8.04 513.93 6.87 513.08 4.85 513.1 4.52 512.59 4.36 510.32 2.37 509.59 1.83 507.79 1.87 505.65 1 503.42 2.21 502.47 5.65 503 6.38 502.62 8 498.48 8.55 497.48 8.88 493.2 7.39 492.08 6.98 491.05 6.75 489.21 7.48 487.48 8.18 486.92 9.7 487.41 11.07 487.42 11.9 486.77 13.08 483.6 13.17 481.41 12.44 479.63 12.47 478.36 12 476.57 13.85 473.54 13.78 472.38 13.18 470.38 11.94 469.26 11.24 467.89 10.22 467.39 9.82 466.67 10.04 462.76 10.89 460.69 10.73 459.37 9.99 457.94 9.98 457.01 10.77 455.9 10.47 453.54 10.69 451.83 11.12 451.04 11.09 451.77 11.98 452.9 13.55 454.12 14.55 454.6 17.99 455.07 20.05 454.99 21.54 454.7 26 453.37 28.34 452.44 32.86 451.18 37 450.2 41.85 448.44 44.29 449.55 45.53 449.5 48.36 448.86 52.13 448.46 53.99 447.76 55.05 446.81 56.06 445.07 56.64 443.56 57.43 439.88 58.56 437.2 58.8 435.54 58.73 432.88 58.95 431.67 60.22 428.54 60.71 424.74 60.81 420.94 61.86 419.44 64.5 416.92 66.06 416.39 68.41 416.36 71.97 417.61 72.55 417.98 75.89 417.96 77.89 417.41 79.81 415.65 80.53 413.9 80.8 411.22 79.8 406.34 78.81 404.1 78.81 402.9 78.08 399.78 78.24 398.34 79.53 394.64 79.62 393.96 78.89 391.09 78.88 388.92 78.07 387.22 77.76 384.88 77.09 383.5 75.97 382.45 74.47 381.5 73.76 379.35 73.78 377.59 74.53 375.85 75.51 374.74 77.8 373.09 79.17 371.84 80.39 371.69 83.37 370.39 84.11 369.78 86.5 366.96 87.09 364.72 87.56 361.63 87.27 359.79 86.7 357.94 87.12 355.08 88.32 353.71 89.41 353.12 90.84 350.44 92.09 348.58 92.91 345.44 94.23 343.55 95.31 341.58 96.13 339.4 97.95 338.23 99.9 337.34 102.38 335.71 103.46 333.72 104.12 331.05 104.86 329.61 105.85 328.99 107.44 328.52 110 328.61 111.74 330.09 112.89 332.18 113.56 334.17 113.66 335.67 114.08 336.2 115.95 336.3 118.59 335.74 120.14 336.36 121.49 337.55 123.78 341.96 125.17 345.7 126.46 348.01 126.76 349.68 126.5 350.54 125.1 352.16 123.54 353.52 122.05 355.4 121.8 357.01 124.57 360.01 126.44 361.04 127.67 361.21 130.3 359.78 132.92 357.98 134.64 355.71 135.22 353.93 135.12 353.29 135.46 350.09 137.63 347.06 138.69 346.48 140.43 346.62 141.71 347.49 143.23 349.51 144.93 350.86 146.77 351.57 148.04 351.61 149.06 351.04 149.73 349.46 147.62 346.28 146.18 344.76 145.75 342.88 146.29 340.73 146.81 339.64 146.67 338.88 147.24 336.75 148.6 335.26 148.84 332.56 147.44 330.19 145.93 328.56 143.99 327.04 142.72 325.71 141.34 322.87 141.14 321.33 141.2 319.06 142.32 318.18 143.74 318.47 144.96 319.16 147.14 319.52 149.17 318.75 150.85 317.51 151.99 316.09 152.61 314.52 152.86 312.83 152.59 309.62 152.55 307.26 152.83 305.47 152.51 304.84 150.96 299.21 151.05 298.37 152.03 297.25 153.65 296.61 154.56 295.35 154.9 293.43 156.09 291.3 160.08 290.38 161.65 288.97 161.52 287.14 160.95 285.56 160.95 283.11 162.14 281.1 164.09 279.47 165.29 279.12 169.03 278.93 172.98 279.78 175.2 279.34 177.4 279.98 178.61 280.85 180.7 281.33 181.28 281.21 182.13 279.48 182.24 275.83 183.14 270.89 183.28 268.23 183.66 266.59 186.16 263.73 187.55 262.59 190.3 261.27 193.25 259.09 195.76 256.45 197.46 254.22 200.23 252.4 201.84 252.22 203.51 252.63 204.59 253.28 207.12 255.57 208.05 256.94 209.64 263.69 210.36 265.1 211.41 266.23 212.78 266.62 215.84 266.38 217.77 265.67 220.11 263.78 221.71 262.89 225.48 260.13 228.22 259.09 229.02 258.26 230.2 257.76 232.01 257.57 233.19 257.02 234.47 257.02 236.7 257.8 238.42 257.63 239.31 256.56 239.49 254.38 240.41 252.9 242.79 250.31 243.71 248.69 246.06 247.15 248.98 246.37 251.28 246.29 251.88 246.03 253.46 244.35 255.18 241.7 257.41 237.44 258.79 235.63 261.63 232.7 262.28 231.65 264.06 230.18 266.53 227.46 267.54 226.73 269.46 225.19 269.95 224.21 272.49 222.01 274.83 220.39 275.81 219.15 278.08 216.94 282.93 213.14 284.63 211.54 287.15 210.78 288.96 210.86 291.2 211.24 293.1 210.46 293.71 209.39 294.68 206.48 294.87 205.08 295.39 203.9 295.66 201.14 295.47 198.56 295.99 195.84 297.46 194.67 299.04 194.29 300.78 193.48 301.47 191.31 301.17 190.16 300.41 189.25 298.62 185.81 297.89 185.68 295.92 183.13 295.16 181.07 295.82 179.31 296.75 178.26 300.82 175.47 302.31 173.86 302.97 171.16 302.97 168.42 302.3 164.97 303.23 163.26 304.01 162.65 306.47 161.56 307.75 160.49 308.25 158.74 307.8 156.91 305.87 153.69 305.27 151.8 305.66 149.74 306.07 149.22 307.53 148.93 309.87 149.71 311.44 150.92 313.12 151.27 313.87 149.64 313.04 146.99 312.59 143.54 312.81 141.97 313.55 140.84 316.49 138.5 316.73 136.23 316.32 132.4 316.29 130.64 316.9 128.39 317.13 126.59 317.93 125.04 318.15 123.35 317.77 120.22 317.12 118.94 316.93 117 317.15 116.13 318.2 114.67 321.01 112.57 321.81 111.6 322.13 109.66 321.6 106.61 321.73 103.88 322.54 100.72 325.65 95.08 327.82 92.89 328.55 91.39 329.67 85.19 331.2 82.08 332.41 80.79 335.93 78.67 336.95 76.51 336.89 73.82 337.21 72.45 338.55 70 339.15 69.35 339.65 67.17 339.2 65.06 337.98 62.36 337.69 60.97 337.86 59.4 338.37 58 338.56 56.44 338.25 55.32 336.78 53.87 334.78 52.86 334.74 51.41 337.9 49.57 337.61 48.34 337.89 47.64 338 42.95 339.29 39.9 340.64 37.09 340.86 35.43 340.17 33.12 338.69 31.64 337.26 29.06 336.65 25.24 335.85 22.07 334.97 21.46 331.99 16.5 330.13 14.93 329.74 13.92 329.63 12.13 330.32 10.64 333.35 7.88 334.98 5.47 336.23 4.64 337.55 4.5 339.99 3.64 341.34 3.99 342.9 5.65 344.29 5.89 345.6 5.19 346.63 4.01 348.07 3.02 348.93 2.83 351.43 1.51 353.19 1 353.06 10.61 353.02 17.42 352.81 34.34 352.98 37.47 352.86 43.66 352.71 57.21 352.51 60.69 352.28 79.85 352.07 97.42 351.98 108.65 351.88 113.18 351.69 132.26 351.48 146.37 351.45 155.43 351.17 174.71 350.98 190.44 354.79 190.52 368.09 190.67 374.43 190.68 394 190.94 397.99 190.93 413.55 191.08 421.01 191.06 432.77 191.18 443.25 191.34 473.61 191.43 479.89 191.41 488.11 191.46 500.14 191.38 505.87 191.48 517.23 191.43 517.2 195.4 517.25 207.66 517.06 207.7 516.89 230.53 516.33 230.53 516.21 247.19 516.02 269.22 515.75 269.22 515.63 279.12 515.5 282.51 515.56 285.55 515.78 285.87 515.62 297.8 518.37 298.24 518.73 297.22 519.85 296.63 521.01 296.85 521.99 295.76 523.05 295.6 524.28 294.08 525.68 293.47 525.51 292.05 526.22 291.07 528.05 290.17 528.13 289.42 529.53 288.51 529.64 287.64 532.47 285.2 533.59 283.8 535.7 283.55 536.94 282.89 537.37 281.43 538.6 281.02 538.09 279.74 539.17 279.62 540.32 278.34 542.19 278.34 543.53 277.38 544.91 278.34 547.2 278.36 547.28 277.41 548.18 276.29 548.45 273.52 550.51 272 550.47 271.06 551.87 271.23 552.97 270.65 552.43 269.76 553.03 268.43 552.48 266.87 553.26 266.82 554.77 266.04 556.32 265.99 556.52 264.97 559.28 265.2 559.5 264.01 561.25 261.92 561.97 260.02 564.31 260.63 565.32 259.75 564.6 258.64 565.2 258.3 567.16 260.28 567.72 259.4 567.11 258.56 566.9 257.43 568.13 255.26 567.92 254.33 568.71 253.84 569.62 254.63 569.58 256.36 570.69 256.47 571 255.47 570.8 254.16 571.73 253.7 572.82 254.02 573.23 253.19 572.86 251.59 573.71 250.74 575.57 251.22 575.62 250.26 574.88 249.69 575.04 248.93 577.04 247.3 577.09 245.65 576.63 244.59 578.08 244.7 578.08 243.55 576.82 242.97 577.49 241.68 578.94 242.6 580.36 242.77 582.64 242.03 583.24 241.36 583.8 242.74 584.77 242.45 584.98 240.9 585.98 240.33 586.41 241.06 587.61 241.74 588.13 243.7 588.94 244.15 590.64 243.55 591.79 244.89 592.94 245.35 595.24 246.7 597.19 247.56 598.45 248.54 599.08 249.5 600.5 249.12 600.59 247.56 599.9 247.02 600.85 246.26 600.08 245.05 600.33 244.27 602.13 243.78 603.36 242.04 602.71 240.8 604.02 239.62 606.86 239.52 607.38 237.88 607.92 237.62 608.83 235.92 608.59 234.38 610.57 234.15 610.82 232.75 610.49 231.91 612.86 232.34 613.51 231.93 614.31 230.24 614.18 228.64 615.58 228.27 617.1 226.12 617.22 224.32 618.61 223.6 619.21 222.8 620.67 223.25 621.99 224.16 622.57 223.99 623.25 222.85 622.18 220.9 621.17 220.7 621.23 218.26 622.25 218.1 622.44 217.19 623.43 216.42 623.77 214.71 625.06 214.6 626.06 213.78 625.09 210.69 626.73 208.08 628.27 208.36 629.02 206.68 630.2 206.39 630.79 206.93 629.63 208.34 628.75 211.28 631.02 212.05 633.44 210.44 635.38 211.33 635.91 213.06 633.83 214.73 632.47 213.79 630.46 214.13 629.13 215.03 628.83 215.7 630.07 216.99 630.6 218.53 632.44 219.93 633.93 220.1 635.06 218.63 636.02 218.75 636.29 221.14 637.52 223.38 638.89 223.51 640.26 224.99 642.17 225.38 643.02 227 644.4 227.43 645.35 228.18 646.53 228.16 647.14 228.82 648.66 229.29 651.32 228.9 654.21 228.28 657.14 229.67 658.47 228.73 658.75 229.94 659.53 230.56 660.9 230.83 662.85 232.3 664.66 231.81 666.62 231.81 669.04 231.11 671.01 231.43 672.9 232.35 675.03 232.52 675.75 232.13 677.32 232.76 678.44 232.7 679.32 231.92 679.68 230.88 679.31 229.22 680.09 228.19 681.2 228.26 681.56 227.32 679.82 226.71 680.07 225.49 681.65 226.08 683 228 683.82 227.41 683.08 225.38 684.46 225.41 685.15 226.56 685.9 226.74 686.57 225.79 685.11 223.82 683.23 222.96 680.56 220.73 679.99 219.65 680.08 218.16 681.97 217.2 684.64 218.06 686.12 219.2 688.01 219.78 688.92 219.56 690 218.62 689.71 217.36 687.36 215.9 685.72 214.52 684.15 212.41 683.79 211.3 684.34 210.57 685.88 210.42 689.98 212.12 691.75 213.47 692.64 213.66 693.6 212.81 691.77 210.38 692.23 209.28 694.19 209.26 695.7 210.05 696.36 209.78 696.51 208.78 695.62 207.59 696.24 206.87 699.39 207.5 703.07 208.76 707.31 210.72 710.46 211.16 711.06 210.34 711.11 208.77 712.37 206.79 714.79 204.39 716.7 203.15 717.19 202.03 715.62 200.13 716.65 199.24 720.04 199.24 720.75 198.91 722.08 196.59 723.62 195.25 725.43 195.12 727.06 195.53 728.17 196.11 729.9 196.11 731.86 196.85 736.16 197.88 737.15 198.39 738.59 199.92 739.58 199.88 740.77 200.63 742.88 202.89 744.27 204.04 745.09 205.37 747 206.88 748.16 208.75 749.25 209.98 751.36 213.72 752.02 214.14 755.37 214.52 756.67 214.45 757.96 213.13 759.66 212.49 760.85 213.11 760.74 215.44 761.23 217.03 762.49 217.33 763.18 216.09 763.37 212.5 762.92 211.7 761.88 211.13 762.47 210.33 763.63 210.5 764.5 211.44 765.25 213.13 770.81 214.65 771.92 214.26 772.07 212.86 771.21 211.54 771.48 210.84 773.12 211.17 774.7 212.21 776.46 212.55 778.94 212.74 779.87 213.62 780.32 216.65 779.81 219.6 779.36 220.89 778.61 221.27 773.32 221.49 771.3 222.38 771.22 223.8 774.05 225.81 774.84 226.77 774.93 228.63 774.73 230.33 775.59 231.73 777.46 231.43 778.65 230.82 778.83 228.61 779.94 227.88 781.16 228.45 781.58 229.66 780.89 231.51 777.91 233.77 778.19 235.03 781.09 236.01 782.44 235.92 784.29 236.56 785.98 236.65 787.12 236.04 788.29 234.65 789.54 234.56 790.83 235.18 790.69 236.2 787.3 237.53 785.87 238.8 786.02 240.07 786.96 240.97 788.72 241.74 788.43 242.74 786.65 242.31 785.9 242.59 785.85 243.51 787.73 245.18 787.73 246.12 785.81 246.61 785.15 247.31 786.25 248.59 787.89 249.14 792.27 249.43 793.26 250.24 794.36 253.05 795.25 254.22 796.12 256.77 795.69 257.9 794.16 258.17 793.43 259.33 794.93 262.13 794.64 264.65 794.07 265.4 792.5 266.42 792.33 267.41 793.17 268.65 793.92 268.8 796.91 270.2 797.72 271 799 271.19 798.84 271.62 797.26 272.35 796.05 273.91 794.64 276.69 793.86 279.07 793.82 280.32 793.23 281.01 792.32 284.29 791.09 284.93 791.66 286.06 791.05 288.81 788.68 291.97 788.33 293.33 786.89 296.28 786.97 297.65 786.12 300.39 785.74 302.28 784.55 303.82 783.31 306.43 783.07 307.89 783.28 308.86 782.31 310.47 767.45 298.6 749.5 284.2 745.99 281.47 739.11 275.96 736.72 274.12 731.35 269.7 728.54 267.73 723.88 263.62 720.79 261.23 714.54 255.81 711.65 253.4 707.75 250.6 704.43 248.03 698.02 242.91 698.29 244.16 697.97 248.16 697.11 248.95 698.18 250.83 697.47 252.29 696.56 253.12 696.11 254.7 696.44 255.69 697.75 256.97 697.55 258.32 698.84 258.84 697.45 261.69 695.13 264.98 698.02 265.89 699.38 266.1 699.58 267.13 698.39 268.04 698.48 269.11 696.25 273.58 695.2 275.13 694.01 276.18 692.03 278.64 691.08 280.79 689.56 281.71 689.58 282.36 686.96 286.11 688.63 287.1 690.16 288.87 689.44 289.43 689.27 291.4 686.88 294.92 685.33 296.58 684.01 298.4 685.28 298.77 685.64 300.63 687.24 302.65 689.18 303.95 689.55 304.77 688.09 306.55 685.95 307.75 684.48 310.04 684.05 312.02 680.9 315.75 679.72 316.05 678.68 317.04 677.93 316.74 676.9 317.22 675.16 318.55 675.04 318.97 671.78 322.55 671.74 323.43 670.19 325.37 668.01 326.96 665.77 329.58 665.38 330.32 662.97 332.93 663.96 334.1 665.07 334.56 666.45 335.77 665.02 337.06 664.51 338.03 663.49 338.92 661.44 341.95 659.65 345.37 658.75 345.87 658.31 346.89 656.93 345.69 656.75 344.53 655.55 344.96 655.25 343.21 653.79 343.58 652.38 346.49 651.06 346.23 650.15 347.78 649.1 350.54 648.01 351.75 647.25 353.36 645.69 355.13 644.43 355.25 642.94 357.43 641.86 357.24 639.57 359.47 639.19 358.31 639.54 353.33 636.29 354.79 635.38 356.27 634.4 357.14 634.44 358.04 633.05 360.35 631.4 361.08 630.85 361.77 629.82 362.08 628.4 363.57 627.84 365.13 627.03 365.95 625.2 369.57 623.96 373.02 621.47 378.13 620.96 378.72 618.57 382.66 617.72 384.62 615.47 388.89 595.25 371.04 594.2 372 594.41 373.1 593.87 373.84 592.99 376.78 591.12 377.7 591.08 378.98 590.46 379.37 590.58 381.68 589.58 383.26 586.66 383.11 585.43 384.37 585.97 385.96 586 387.08 585.33 387.43 585.09 389.39 582.63 392.27 582.42 393.39 581.58 394.41 581.38 395.38 580.43 397.36 580.39 398.79 579.37 401.69 579.7 403.56 580.79 404.88 580.16 407.69 579.52 408.68 579.46 410.27 577.13 411.11 576.5 410.47 574.99 410.33 573.25 411.79 572.21 414.93 571.38 415.67 570.86 417.25 569.97 418.61 569.31 420.62 569.46 421.57 568.74 422.54 568.89 424.21 568.06 426.34 567.39 426.96 566.73 428.53 566.85 429.38 565.93 429.92 565.25 431.08 564.71 432.86 563.22 434.7 561.93 437.72 561.22 438.4 560.41 441.94 561.03 442.68 560.48 444.93 558.73 446.62 558.8 447.48 558.04 448.33 555.74 449.66 555.39 450.7 555.34 452.88 554.51 453.13 553.38 452.59 552.97 453.7 552.3 454.21 551.46 456 548.86 457.58 549.3 459.15 548.68 460.42 547.88 459.82 546.63 460.37 545.99 461.08 545.26 460.95 544.01 461.71 534.61 458.56 517.31 452.37 513.76 444.48 509.98 436.46 509.19 435.88 508.04 434.21 507.54 433.03 506.11 432.29 504.65 431.17 501.73 430.44 489.36 424.63 488.25 426.71 488.19 427.83 487.11 428.98 487.69 430.63 486.75 430.94 486.02 433.03 485.84 435.19 486.45 435.55 485.46 437.59 486.46 438.5 487.11 439.74 486.99 440.6 485.27 441.37 484.25 441.32 483.86 443.18 482.95 444.3 481.95 444.7 481.45 446.15 482 447.99 481.11 448.88 482.49 451 482.97 453.74 482.43 454.49 482.74 455.36 482.37 456.51 482.71 457.66 481.54 458.63 481.07 459.64 479.95 460.9 479.41 462.45 478.2 463.83 477.33 466.31 476.73 466.81 475.86 469.48 476.5 469.99 476.6 471.94 475.79 472.37 475.32 473.32 474.04 473.77 471.63 472.89 470.56 473.08 470.27 474.18 469.55 474.9 470 475.63 469.1 477.44 465.32 479.91 464.77 481.22 463.29 482.81 463.09 483.79 464.04 485.04 464.32 486.44 465.43 486.78 466.86 489.95 466.48 491.23 463.61 493.18 462.85 492.94 462.11 494.03 462.24 494.75 461.24 495.43 459.66 495.12 458.94 496.74 457.55 496.81 456.46 498.5 455.41 498.94 453.57 501.35 451.06 503.94 449.67 504.46 448.76 506.71 447.08 507.83 445.98 507.72 444.89 509.4 445.61 509.87 445.22 511.13 445.85 511.92 445.08 514.93 444.17 515.55 443.61 516.69 443.55 517.76 442.73 518.68 441.85 518.71 440.9 519.35 441.55 520.74 441.49 522.37 441.9 523.56 443.95 524.5 442.65 526.45 441.32 527.7 440.51 529.04 439.49 529.78 438.79 531.72 438.15 532.67 438.39 533.68 437.41 536.1 436.12 538.32 435.88 540.37 435.06 540.88 434.18 542.62 434.09 543.64 433.44 543.83 432.49 545.37 431.93 547.55 430.35 548.45 429.64 549.8 428.42 550.52 425.89 553.08 425.74 553.57 424.1 554.76 422.59 556.43 420.39 557.75 419.4 558.95 417.9 560.23 416.83 561.56 415.92 563.37 414.88 563.2 414.17 564.53 412.58 565.79 412.21 566.67 410.45 568.28 410.09 569.24 408.66 570.38 406.6 570.71 405.12 572.18 403.49 574.84 403.55 575.5 401.87 576.78 401.57 577.78 402.25 579.46 400.02 580.47 398.38 582.63 397.77 584.34 395.77 585.6 394.37 587.84 393.96 589.19 395.03 590.45 396.17 591.34 396.21 592.27 394.24 591.97 392.88 593.14 392.07 593.28 391.96 594.18 390.82 594.13 390.39 596.76 389.32 596.63 388.99 598.93 388.42 600.29 388.91 601.39 390.16 602.07 389.14 603.96 388.19 604.26 387.49 605.54 386.85 605.82 386.09 607.04 384.35 608.92 382.87 609.87 385.55 617.05 387.48 619.32 391.85 620.98 395.08 623.18 394.24 624.77 391.88 627.46 390.31 628.44 388.8 629.8 384.76 631.89 382.86 633.2 377.3 636.14 379.92 639.9 378.41 640.89 377.42 641.13 376.94 641.93 380.38 643.79 383.31 641.94 384.83 642.56 381.92 647.75 380.34 648.85 376.59 650.71 374.65 651.02 370.84 652.48 371.44 653.5 369.98 654.71 368.23 655.45 364.88 657.49 361.09 659.61 358.2 662.01 355.84 663.2 354.59 664.45 352.8 665.09 349.66 662.55 349.28 660.54 350.02 657.87 347.04 652.9 346.22 653.55 345.04 653.86 343.58 653.8 342.83 654.43 340.33 654.49 334.73 657.92 333.8 658.99 328.7 662.12 328.61 662.67 327.09 662.87 326.24 663.84 324.75 664.92 320.05 667.37 316.74 669.41 313.12 671.36 311.94 671.74 308.57 673.45 307.69 673.39 305.84 674.43 304.15 674.93 303.1 672.58 302.05 671.2 301.89 670.31 299.2 669.99 298.26 669.49 298.29 668.36 293.37 664.11 292.62 663.66 291.74 664.21 289.6 662.92 288.9 664.01 288.55 665.4 288.95 666.62 285.53 672.27 290.99 680 287.71 681.69 285.88 683.64 282.88 686.1 279.34 688.24 277.38 688.88 274.07 690.46 270.28 691.13 269.06 690.69 269.45 689.23 268.1 689.05 264.3 690.14 262.36 690.44 260.01 691.2 257.24 691.5 253.42 692.2 252.08 692.28 248.75 693 243.85 694.6 242.39 695.25 238.3 696.47 236.24 697.58 231.99 700.46 228.6 702.08 225.39 699.18 217.71 692.48 213.16 688.42 206.41 680.39 205.87 680.37 205.17 681.7 205.48 682.6 204.63 683.91 203.37 684.44 202.61 684.27 201.02 684.67 200.35 685.83 200.55 687.12 199.17 688.27 199.37 688.73 198.01 692.06 197.28 692.34 197.12 693.52 195.27 693.93 193.76 693.27 193.36 693.91 192.39 693.58 190.88 694.67 189.86 694.99 189.58 696.1 187.29 696.91 186 697.95 184.03 697.56 183.43 696.52 182.78 697.36 182.18 698.97 182.08 701.09 181.53 701.67 179.6 702.68 178.03 703.02 175.59 704.03 175.35 704.84 174.2 706.36 173.04 706.73 153.62 707.33 152.8 706.46 152.71 705.5 152.02 704.82 150.94 704.82 150.22 703.45 147.56 701.56 147.5 700.41 146.41 699.11 145.04 699.17 143.58 699.6 142.9 698.39 143.54 696.2 142.76 695.36 142.73 694.28 140.85 693.17 140.99 691.62 139.02 692.14 137.31 691.26 137.32 690.72 135.85 689.78 133.4 689.39 131.23 690.56 129.64 690.66 128.21 690.05 127.58 689.17 126.21 689.47 125.12 688.81 125.37 686.96 125.07 684.91 124.27 685.24 123.24 684.26 124.16 683 122.63 681.97 121.94 680.68 120.68 679.9 119.15 679.58 118.75 679.93 117.67 677.38 116.58 677.23 116.11 675.91 115.32 675.77 113.67 674.19 113.17 673.37 113.6 672.45 112.4 671.6 112.72 670.03 112.05 669.69 112.1 668.74 112.81 668.05 112.44 667.2 113.3 666.56 113.16 664.19 114.08 663.74 113.98 662.87 112.81 662.13 111.95 661.1 111.56 659.24 112.42 657.33 110.76 656.91 110.24 655.79 108.98 655.2 107.14 655.5 107.03 654.48 105.85 653.27 104.3 653.82 103.22 652.43 103.15 650.87 102.72 650.57 102.61 649.15 103.76 647.49 105.78 647.6 108.07 645.83 109.72 646.29 109.73 644.57 111.42 643.97 111.59 642.8 114.14 642.15 114.24 641.49 113.02 640.64 112.12 642 111.33 641.74 111.58 640.49 110.95 639.03 109.35 638.4 109.36 637.19 107.8 637.68 107.65 636.62 Z" fill="none" stroke="currentColor" stroke-width="46.400"/>
</g>
</svg>