<?xml version="1.0"?>
<svg xmlns="http://www.w3.org/2000/svg" version="1.2" baseProfile="tiny" viewBox="-40.0 -40.0 880.0 539.0" stroke-linecap="round" stroke-linejoin="round">
<g id="state">
<path d="M 229.44 457.43 214.78 457.41 210.84 457.28 208.65 457.27 206.65 457.39 200.12 457.45 185.75 457.55 176.62 457.63 173.18 457.69 160.19 457.69 143.19 457.77 131.02 457.78 109.84 457.85 100.27 458 95.98 458 89.94 458.1 75.08 458.11 63.62 458.1 58.99 457.93 43.53 457.94 22.63 457.83 17.71 457.83 9.44 457.79 6.54 457.74 1.88 457.75 1.9 451.21 1.88 439.65 1.89 428.84 1.93 421.52 1.94 406.9 2 399.84 2 393.1 1.97 379.09 1.92 375.94 1.92 364.32 1.89 359.38 1.93 358.76 1.9 354.47 1.92 346.39 1.89 343.36 1.86 337.14 1.87 332.53 1.84 327.49 1.83 312.25 1.86 307.66 1.83 301.27 1.87 288.36 1.97 277.14 2.25 261.55 2.23 251.28 2.22 242.54 2.2 232.41 2.2 221.86 2.19 212.22 2.21 205.32 2.09 191.51 2.12 186.17 2.03 171.49 2.06 169.32 2.04 158.89 1.91 145.29 1.89 133.26 1.91 125.42 1.82 115.63 1.62 113.34 1.7 102.54 1.62 101.39 1.62 90.57 1.58 84.79 1.55 75.33 1.62 72.9 1.6 66.87 1.64 61.6 1.24 61.1 1.18 51.32 1.14 41.15 1.06 32.86 1.04 24.37 1.01 12.27 1 1.55 2.08 1.55 18.46 1.59 31.14 1.56 40.9 2.55 63.4 2.52 70.38 2.38 74.78 1.72 84.12 1.7 88.73 1.96 95.66 2.03 100.3 2.01 109.13 1.26 121.01 1.28 141.05 1.3 145.56 1.46 159.44 1.4 174.9 1.28 184.14 1.15 188.31 1.14 197.89 1.06 202.56 1.06 210.97 1.02 223.38 1 225.67 1.71 239.13 1.7 266.08 1.65 288.2 1.62 290.52 1.7 303.98 1.68 318.18 1.64 320.52 1.68 322.95 1.62 339.05 1.61 366.54 1.59 382.17 1.59 393.67 1.59 407.94 1.5 423.1 1.56 425.59 1.54 440.66 1.61 448.55 1.68 453.39 2.05 454.65 2 460.29 2.07 480.37 2.14 506.06 2.24 525.15 2.29 546.01 2.37 562.65 2.43 566.82 2.41 585.21 2.4 586.93 1.64 603.6 1.62 616.3 1.61 631.17 1.64 654.29 1.65 672.66 1.65 684.16 1.65 702.16 1.66 726.65 1.77 737.45 1.82 751.39 1.84 765.11 1.86 785.39 1.91 790.21 1.89 798.36 1.94 798.58 15.91 798.52 16.82 798.59 26.32 798.6 44.91 798.57 48.21 798.58 56.67 798.61 74.37 798.64 87.14 798.74 95.07 798.73 106.33 798.72 115.63 798.63 132.32 798.67 142.79 798.68 151.17 798.7 163.15 798.71 180.28 798.72 186.84 798.78 194.92 798.8 201.65 798.86 215.36 798.91 229.52 798.9 244.37 798.94 258.08 798.91 259.04 798.96 268.21 798.9 286.57 798.93 289.63 798.94 300.82 798.94 313.83 798.91 315.48 798.93 322.07 798.97 324.54 798.91 328.58 798.97 330.32 798.92 333.86 798.96 343.72 798.95 349.93 798.92 353.01 798.94 356.61 798.93 374.64 798.95 380.16 798.93 383.98 798.96 391.29 798.98 402.57 798.97 409.44 799 412.15 798.95 419.84 798.98 425.81 798.9 429.02 798.86 439.59 798.9 445.55 798.89 457.35 785.19 457.31 780.86 457.33 771.24 457.32 765.51 457.34 751.66 457.34 749.43 457.32 733.67 457.35 711.93 457.59 707.49 457.73 697.45 457.72 682.21 457.7 673.32 457.71 662.6 457.69 661.95 457.72 649.56 457.75 640.61 457.77 619.08 457.84 608.2 457.87 587.2 457.84 576.04 457.83 570.06 457.85 552.51 457.77 541.22 457.63 537.55 457.55 533 457.38 526.94 457.29 519.98 457.3 505.74 457.27 491.34 457.2 479.28 457.21 477.24 457.17 463 457.12 446.52 457.17 435.58 457.19 426.85 457.18 421.19 457.16 408.52 457.21 406.01 457.24 391.77 457.27 381.5 457.27 373.7 457.29 364.69 457.29 352.49 457.28 349.03 457.31 343.8 457.28 334.72 457.37 328.45 457.46 320.65 457.47 320.54 457.5 307.7 457.51 292.5 457.5 289.16 457.56 285.07 457.52 277.18 457.49 263.56 457.49 248.35 457.5 229.44 457.43 Z" fill="none" stroke="currentColor" stroke-width="1"/>
</g>
</svg>