<?xml version="1.0"?>
<svg width="20" height="20" xmlns="http://www.w3.org/2000/svg" version="1.2" baseProfile="tiny" viewBox="-64.000 -157.000 928.000 928.000" stroke-linecap="round" stroke-linejoin="round">
<g id="state">
<path d="M 228.87 610.86 214.2 610.53 210.26 610.28 208.06 610.22 206.06 610.33 199.51 610.26 185.13 610.05 175.99 609.93 172.54 609.94 159.53 609.59 142.5 609.24 130.32 608.89 109.1 608.33 99.52 608.22 95.22 608.09 89.17 608.02 74.29 607.51 62.81 607.1 58.18 606.7 42.7 606.13 21.77 605.16 16.85 604.96 8.56 604.56 5.66 604.38 1 604.19 1.38 595.54 2.02 580.27 2.64 565.97 3.09 556.29 3.94 536.97 4.39 527.64 4.78 518.73 5.55 500.21 5.67 496.04 6.34 480.69 6.6 474.15 6.67 473.33 6.88 467.67 7.36 456.98 7.51 452.97 7.84 444.75 8.12 438.65 8.38 431.99 9.24 411.85 9.53 405.78 9.88 397.33 10.66 380.26 11.42 365.43 12.6 344.84 13.17 331.26 13.67 319.69 14.24 306.3 14.86 292.35 15.42 279.61 15.84 270.49 16.54 252.23 16.88 245.17 17.66 225.75 17.81 222.88 18.41 209.08 19.09 191.1 19.78 175.2 20.27 164.82 20.77 151.89 20.72 148.85 21.43 134.57 21.43 133.04 22.08 118.73 22.38 111.09 22.93 98.58 23.13 95.37 23.48 87.4 23.83 80.43 23.49 79.76 24.02 66.82 24.6 53.37 25.03 42.4 25.51 31.17 26.22 15.16 26.86 1 27.88 1.05 43.24 1.78 55.14 2.26 64.24 3.96 85.36 4.77 91.92 4.84 96.08 4.13 104.84 4.43 109.15 4.93 115.65 5.26 120.01 5.39 128.32 4.68 139.47 5.08 158.27 5.7 162.49 6.05 175.52 6.36 190.03 6.6 198.7 6.66 202.61 6.75 211.61 6.87 215.98 6.97 223.88 7.1 235.52 7.34 237.65 8.33 250.27 8.57 275.56 8.98 296.32 9.28 298.5 9.42 311.12 9.56 324.44 9.67 326.64 9.75 328.92 9.69 344.02 9.85 369.82 10.01 384.48 10.09 395.27 10.14 408.66 10.06 422.88 10.15 425.22 10.13 439.36 10.21 446.76 10.28 451.31 10.76 452.48 10.68 457.78 10.76 476.62 10.76 500.73 10.72 518.64 10.61 538.22 10.47 553.83 10.34 557.74 10.25 575 9.97 576.59 8.92 592.23 8.61 604.15 8.36 618.1 8.09 639.79 7.59 657.03 7.16 667.82 6.86 684.7 6.38 707.69 5.8 717.82 5.53 730.9 5.11 743.77 4.67 762.81 4.01 767.33 3.82 774.98 3.57 775.93 22.04 775.92 23.24 776.49 35.8 777.5 60.38 777.64 64.74 778.1 75.93 779.07 99.33 779.77 116.22 780.29 126.7 780.87 141.6 781.35 153.89 782.14 175.97 782.73 189.81 783.18 200.89 783.82 216.72 784.73 239.38 785.08 248.05 785.55 258.72 785.93 267.63 786.69 285.74 787.48 304.47 788.23 324.1 788.97 342.23 789 343.5 789.51 355.62 790.4 379.89 790.58 383.94 791.16 398.72 791.83 415.93 791.89 418.11 792.24 426.82 792.4 430.08 792.55 435.43 792.7 437.72 792.83 442.4 793.37 455.44 793.68 463.64 793.8 467.72 794 472.48 794.9 496.32 795.2 503.61 795.37 508.66 795.77 518.32 796.36 533.22 796.69 542.31 796.86 545.89 797.19 556.06 797.52 563.95 797.61 568.2 798.09 582.17 798.43 590.04 799 605.64 785.28 606.1 780.95 606.28 771.32 606.6 765.58 606.83 751.71 607.3 749.48 607.34 733.7 607.88 711.94 608.86 707.49 609.17 697.44 609.43 682.19 609.81 673.28 610.05 662.55 610.29 661.9 610.34 649.5 610.67 640.53 610.89 618.98 611.43 608.09 611.68 587.06 612 575.88 612.16 569.89 612.28 552.33 612.42 541.02 612.37 537.34 612.31 532.78 612.13 526.71 612.07 519.75 612.15 505.49 612.24 491.08 612.26 479 612.34 476.96 612.3 462.7 612.3 446.2 612.41 435.25 612.46 426.51 612.45 420.84 612.43 408.16 612.47 405.66 612.52 391.39 612.51 381.11 612.47 373.31 612.47 364.28 612.41 352.07 612.32 348.61 612.33 343.37 612.25 334.28 612.29 328 612.35 320.19 612.29 320.08 612.32 307.22 612.19 292.01 611.99 288.66 612.02 284.57 611.91 276.67 611.77 263.03 611.55 247.8 611.3 228.87 610.86 Z" fill="none" stroke="currentColor" stroke-width="46.400"/>
</g>
</svg>