<svg viewBox="-111.7547871 -45.7060461 8.402773199999999 5.411500200000006" xmlns="http://www.w3.org/2000/svg">
  <path d="M -109.050026,41.000691 L -108.884138,41.000094 L -108.750667,41.000187 L -108.631108,41.000156 L -108.561854,40.999962 L -108.526029,40.999592 L -108.496663,41.000109 L -108.363349,41.000023 L -108.250649,41.000114 L -108.24972,41.000362 L -108.181227,41.000455 L -108.126215,41.001276 L -108.046539,41.002064 L -108.000636,41.001814 L -107.97033,41.002012 L -107.863262,41.001933 L -107.784142,41.001931 L -107.71573174288663,41.00213214216988 L -107.625649,41.002123 L -107.50062,41.002349 L -107.478678,41.002671 L -107.367488,41.003073 L -107.317794,41.00292 L -107.241194,41.002804 L -107.145206,41.003011 L -107.000606,41.003444 L -106.8756,41.002996 L -106.857773,41.002663 L -106.751902,41.002702 L -106.625592,41.00211 L -106.500588,41.001895 L -106.439563,41.001978 L -106.386356,41.001144 L -106.346414,40.999637 L -106.314218,40.998923 L -106.215123,40.997723 L -106.061181,40.996999 L -106.008698,40.997235 L -105.91071856928434,40.9971055414688 L -105.726441,40.996836 L -105.630969,40.997118 L -105.442122,40.997751 L -105.36355,40.997874 L -105.254844,40.998209 L -105.249138,40.998432 L -105.155054,40.998247 L -105.077014,40.998333 L -104.94337098331094,40.99820855919441 L -104.855273,40.998048 L -104.816284,40.999293 L -104.625519,41.001428 L -104.487217,41.001693 L -104.467672,41.001473 L -104.3461,41.001534 L -104.295812,41.001719 L -104.211441,41.00158 L -104.173436,41.00177 L -104.053249,41.001406 L -104.053083,41.104985 L -104.053514,41.157257 L -104.053084,41.24998 L -104.052453,41.278197 L -104.052686,41.330562 L -104.052245,41.398065 L -104.05248717450533,41.42185917246203 L -104.052378,41.48215 L -104.052573,41.581099 L -104.052869,41.645191 L -104.052691,41.678754 L -104.052883,41.727158 L -104.052765,41.885379 L -104.052967,41.916972 L -104.052659,41.944052 L -104.052627,41.998468 L -104.05295999689498,42.0850556842864 L -104.052477,42.11611 L -104.053048,42.131346 L -104.052547,42.166801 L -104.052877,42.188442 L -104.053023,42.246289 L -104.0527685493985,42.260782596347156 L -104.052804,42.374963 L -104.052897,42.473118 L -104.053107,42.499964 L -104.052622,42.66109 L -104.052997,42.741531 L -104.052809,42.749966 L -104.053132,42.870265 L -104.053028,43.000585 L -104.053471,43.124857 L -104.053967,43.245132 L -104.05419,43.30424 L -104.054721,43.375102 L -104.05477,43.432643 L -104.054879,43.582999 L -104.055038,43.688094 L -104.055176,43.761633 L -104.055487,43.853476 L -104.054688,43.999979 L -104.05463,44.081558 L -104.054487,44.180381 L -104.055389,44.249983 L -104.05562630720367,44.36203461560905 L -104.055926,44.517359 L -104.056012,44.591587 L -104.055749,44.620534 L -104.055865,44.783624 L -104.056495,44.867034 L -104.055913,44.874986 L -104.057879,44.997605 L -104.129347,44.997966 L -104.171687,44.997848 L -104.34964689075069,44.998272406129495 L -104.47002,44.998418 L -104.592321,44.998656 L -104.687098,44.999087 L -104.902033,45.000043 L -105.059946,45.000115 L -105.160833,45.000107 L -105.322037,45.000151 L -105.524888,45.000227 L -105.65542892784984,45.00043222972057 L -105.766841,45.00036 L -105.913149,45.000238 L -105.928174,44.993487 L -106.08961,44.993469 L -106.126207,44.993268 L -106.272157,44.993836 L -106.45526,44.99451 L -106.622707,44.99492 L -106.848178,44.995818 L -107.024373,44.996437 L -107.073883,44.997076 L -107.084886,44.9966 L -107.127418,44.999837 L -107.196598,45.000453 L -107.328822,45.00107 L -107.350732,45.000893 L -107.483747,45.001426 L -107.608988,45.000632 L -107.709866,45.000672 L -107.846965,45.000673 L -108.088262,45.000436 L -108.229514,45.000413 L -108.250837,44.999866 L -108.271397,45.000228 L -108.39597,44.999891 L -108.514041,44.999649 L -108.534403,45.000365 L -108.728535,45.000149 L -108.965037,44.999703 L -109.083095,44.999551 L -109.103228,45.005815 L -109.212109,45.005669 L -109.285922,45.005286 L -109.326839,45.00529 L -109.410964,45.004569 L -109.44757,45.00452 L -109.528584,45.003329 L -109.664248,45.002277 L -109.78609,45.001795 L -109.825663,45.003224 L -110.001506,45.003357 L -110.105776,45.003533 L -110.183221,44.996953 L -110.223949,44.99674 L -110.284774,44.997359 L -110.325198,44.999677 L -110.407116,44.999496 L -110.445743,44.993682 L -110.506978,44.992516 L -110.704476,44.992174 L -110.790119,45.000883 L -110.901387,45.000643 L -111.045066,45.00095 L -111.054556,45.000955 L -111.054496,44.906965 L -111.054241,44.800755 L -111.053986,44.726245 L -111.05332,44.653496 L -111.052948,44.564242 L -111.052434,44.478411 L -111.048974,44.474072 L -111.049298,44.42783 L -111.049148,44.374925 L -111.049695,44.353626 L -111.049496,44.270594 L -111.049078,44.219895 L -111.049119,44.124923 L -111.048452,44.114831 L -111.049074,44.020032 L -111.047349,43.999921 L -111.046612,43.914095 L -111.046784,43.845224 L -111.046571,43.739691 L -111.045439,43.6204 L -111.045282,43.528851 L -111.045492,43.509784 L -111.044743,43.380963 L -111.044988,43.334095 L -111.043925,43.212919 L -111.044102,43.152376 L -111.044041,43.067849 L -111.044068,42.97527 L -111.043836,42.886374 L -111.043781,42.809621 L -111.043547,42.719502 L -111.046017,42.582723 L -111.046939,42.484263 L -111.04723,42.370956 L -111.047042,42.314905 L -111.047274,42.274628 L -111.047164,42.140944 L -111.04689,42.096716 L -111.046997,42.056234 L -111.04673031996128,42.001701954188185 L -111.046513,41.975093 L -111.046654,41.904136 L -111.04636,41.866569 L -111.04672,41.86111 L -111.04648,41.817724 L -111.0465,41.715816 L -111.04601752586558,41.68817262280781 L -111.045789,41.565208 L -111.045796,41.506066 L -111.046266,41.444153 L -111.046409,41.315851 L -111.04676910876161,41.25162697728656 L -111.046818,41.156718 L -111.046691,41.055322 L -111.046815,40.997875 L -111.00597924053112,40.997959904079366 L -110.980532,40.997581 L -110.907899,40.997217 L -110.864764,40.997202 L -110.681369,40.996239 L -110.54568381978608,40.99632498940199 L -110.505074,40.994804 L -110.404478,40.994777 L -110.274112,40.994817 L -110.2211269925843,40.99567840298584 L -110.18346,40.995763 L -110.099538,40.997047 L -109.913663,40.997662 L -109.806906,40.997699 L -109.657686,40.998482 L -109.543697,40.998396 L -109.51349244772996,40.99899988852181 L -109.433393,40.999686 L -109.307349,41.000521 L -109.250007,41.00105 L -109.232505,41.002107 L -109.213249,41.002009 L -109.178685,41.000902 L -109.050026,41.000691 Z" fill="none" stroke=currentColor stroke-width="1" vector-effect="non-scaling-stroke"/>
</svg>