<?xml version="1.0" encoding="UTF-8" standalone="no"?>
<!-- Created with Inkscape (http://www.inkscape.org/) -->

<svg
   version="1.1"
   id="svg1"
   width="192.90668"
   height="17.08"
   viewBox="0 0 192.90668 17.08"
   sodipodi:docname="jc-wordmark.svg"
   inkscape:version="1.4.2 (ebf0e940, 2025-05-08)"
   xmlns:inkscape="http://www.inkscape.org/namespaces/inkscape"
   xmlns:sodipodi="http://sodipodi.sourceforge.net/DTD/sodipodi-0.dtd"
   xmlns="http://www.w3.org/2000/svg"
   xmlns:svg="http://www.w3.org/2000/svg">
  <defs
     id="defs1" />
  <sodipodi:namedview
     id="namedview1"
     pagecolor="#ffffff"
     bordercolor="#000000"
     borderopacity="0.25"
     inkscape:showpageshadow="2"
     inkscape:pageopacity="0.0"
     inkscape:pagecheckerboard="0"
     inkscape:deskcolor="#d1d1d1"
     inkscape:zoom="1.5222483"
     inkscape:cx="96.23923"
     inkscape:cy="8.5399999"
     inkscape:window-width="1192"
     inkscape:window-height="477"
     inkscape:window-x="0"
     inkscape:window-y="40"
     inkscape:window-maximized="0"
     inkscape:current-layer="g1">
    <inkscape:page
       x="0"
       y="0"
       inkscape:label="1"
       id="page1"
       width="192.90668"
       height="17.08"
       margin="0"
       bleed="0" />
  </sodipodi:namedview>
  <g
     id="g1"
     inkscape:groupmode="layer"
     inkscape:label="1">
    <path
       style="font-weight:bold;font-size:17.3333px;font-family:'Bauer Bodoni';-inkscape-font-specification:'Bauer Bodoni Bold'"
       d="m 36.047586,1.9047409 h 1.733329 V 10.77939 c 0,1.351998 0.554666,1.577331 0.554666,2.703995 0,0.970665 -0.346666,1.490664 -1.213331,1.490664 -0.467999,0 -0.918665,-0.173333 -0.918665,-0.415999 0,-0.312 1.005332,-0.208 1.005332,-1.230665 0,-0.623998 -0.450666,-1.074664 -1.091998,-1.074664 -0.745332,0 -1.195998,0.623999 -1.195998,1.317331 0,0.762665 0.831998,1.715996 2.322662,1.715996 1.83733,0 3.241327,-1.455997 3.241327,-2.963994 V 1.9047409 h 1.403997 V 1.5927415 h -5.841321 z m 5.84481,8.0773176 c 0,2.3746625 1.83733,4.0213255 4.125326,4.0213255 2.287995,0 4.125325,-1.646663 4.125325,-4.0213255 0,-2.3746621 -1.83733,-4.0213255 -4.125325,-4.0213255 -2.287996,0 -4.125326,1.6466634 -4.125326,4.0213255 z m 2.703995,-1.8719964 c 0,-1.2999974 0.537332,-1.8373297 1.421331,-1.8373297 0.883998,0 1.42133,0.5373323 1.42133,1.8373297 v 3.7439929 c 0,1.299997 -0.537332,1.83733 -1.42133,1.83733 -0.883999,0 -1.421331,-0.537333 -1.421331,-1.83733 z m 5.860393,5.6853219 h 4.610657 V 13.483385 H 54.044777 V 8.7340609 c 0,-0.8839983 0.866665,-2.1493291 1.83733,-2.1493291 0.502665,0 1.022664,0.2079996 1.022664,1.4213305 v 5.4773227 h -0.987998 v 0.311999 h 4.575991 V 13.483385 H 59.296767 V 8.6473944 c 0,-1.8719963 -0.797332,-2.6866614 -2.443996,-2.6866614 -1.161331,0 -2.305329,0.6066655 -2.773328,1.6119968 h -0.03467 V 5.7180668 C 53.680778,6.1687326 52.398113,6.1687326 51.687448,6.1687326 H 50.456784 V 6.480732 h 1.195997 v 7.002653 H 50.456784 Z M 68.086492,8.4220615 c 0,-1.9759961 -1.854663,-2.4613285 -3.639993,-2.4613285 -1.73333,0 -2.99866,0.8493317 -2.99866,1.8199964 0,0.6066655 0.346666,1.1266645 1.126664,1.1266645 0.658665,0 1.057331,-0.4333325 1.057331,-1.039998 0,-0.8319984 -0.866665,-0.7799985 -0.883998,-1.0746645 -0.01733,-0.3813326 0.987998,-0.519999 1.57733,-0.519999 1.299998,0 1.473331,0.6413321 1.473331,1.68133 V 9.4100596 L 64.099833,9.548726 c -1.57733,0.1213331 -3.293327,0.537332 -3.293327,2.339995 0,1.507998 1.351998,2.114663 2.686662,2.114663 0.675999,0 1.871996,-0.259999 2.322662,-1.091998 0.311999,0.727999 0.953331,1.091998 1.73333,1.091998 1.126664,0 1.854663,-0.675999 1.854663,-1.698663 h -0.311999 c 0,0.450665 -0.190667,0.970664 -0.606666,0.970664 -0.311999,0 -0.398666,-0.329332 -0.398666,-0.866665 z m -2.287995,3.3106605 c -0.03467,0.918665 -0.554666,1.750663 -1.369331,1.750663 -1.178664,0 -1.230664,-1.074665 -1.230664,-1.975996 0,-0.918665 0.104,-1.5253305 1.230664,-1.6466636 L 65.798497,9.722059 Z m 4.68173,-5.25199 v 5.546656 c 0,1.646663 1.421331,1.975996 1.906663,1.975996 1.057331,0 1.767997,-0.433332 2.305329,-1.334664 l -0.225333,-0.121333 c -0.208,0.311999 -0.485332,0.727998 -0.918665,0.727998 -0.450666,0 -0.675999,-0.329332 -0.675999,-0.901331 V 6.480732 h 1.594664 V 6.1687326 H 72.872222 V 2.4420731 h -0.311999 c 0,1.8373298 -1.247998,3.7266595 -2.998661,3.7266595 V 6.480732 Z m 4.023062,7.314652 h 4.610657 V 13.483385 H 78.091282 V 8.7340609 c 0,-0.8839983 0.866665,-2.1493291 1.83733,-2.1493291 0.502665,0 1.022664,0.2079996 1.022664,1.4213305 v 5.4773227 h -0.987998 v 0.311999 h 4.575991 V 13.483385 H 83.343272 V 8.6473944 c 0,-1.8719963 -0.797332,-2.6866614 -2.443996,-2.6866614 -1.161331,0 -2.305329,0.6066655 -2.773328,1.6119968 h -0.03467 V 1.0727425 c -0.312,0.519999 -1.265331,0.519999 -2.495995,0.519999 h -1.091998 v 0.3119994 h 1.195997 V 13.483385 H 74.503289 Z M 92.132997,8.4220615 c 0,-1.9759961 -1.854663,-2.4613285 -3.639993,-2.4613285 -1.73333,0 -2.998661,0.8493317 -2.998661,1.8199964 0,0.6066655 0.346666,1.1266645 1.126665,1.1266645 0.658665,0 1.057331,-0.4333325 1.057331,-1.039998 0,-0.8319984 -0.866665,-0.7799985 -0.883998,-1.0746645 -0.01733,-0.3813326 0.987998,-0.519999 1.57733,-0.519999 1.299998,0 1.473331,0.6413321 1.473331,1.68133 V 9.4100596 L 88.146338,9.548726 c -1.57733,0.1213331 -3.293327,0.537332 -3.293327,2.339995 0,1.507998 1.351998,2.114663 2.686662,2.114663 0.675999,0 1.871996,-0.259999 2.322662,-1.091998 0.311999,0.727999 0.953331,1.091998 1.73333,1.091998 1.126664,0 1.854663,-0.675999 1.854663,-1.698663 h -0.311999 c 0,0.450665 -0.190667,0.970664 -0.606666,0.970664 -0.311999,0 -0.398666,-0.329332 -0.398666,-0.866665 z m -2.287995,3.3106605 c -0.03467,0.918665 -0.554666,1.750663 -1.369331,1.750663 -1.178664,0 -1.230664,-1.074665 -1.230664,-1.975996 0,-0.918665 0.104,-1.5253305 1.230664,-1.6466636 L 89.845002,9.722059 Z m 3.572395,2.062662 h 4.610658 V 13.483385 H 97.00539 V 8.7340609 c 0,-0.8839983 0.866665,-2.1493291 1.83733,-2.1493291 0.502666,0 1.022664,0.2079996 1.022664,1.4213305 v 5.4773227 h -0.987998 v 0.311999 h 4.575994 v -0.311999 h -1.196 V 8.6473944 c 0,-1.8719963 -0.79733,-2.6866614 -2.443995,-2.6866614 -1.161331,0 -2.305329,0.6066655 -2.773328,1.6119968 H 97.00539 V 5.7180668 C 96.641391,6.1687326 95.358727,6.1687326 94.648061,6.1687326 H 93.417397 V 6.480732 h 1.195998 v 7.002653 H 93.417397 Z M 119.03601,1.679408 h -0.312 c -0.0173,0.3639993 -0.208,0.5199989 -0.572,0.5199989 -0.72799,0 -1.90666,-0.8839982 -3.15466,-0.8839982 -3.55332,0 -5.70265,3.5013265 -5.70265,6.5866538 0,3.1026605 2.04533,6.1706545 5.47732,6.1706545 2.08,0 2.86,-0.987998 3.41466,-0.987998 0.364,0 0.572,0.450666 0.64133,0.710665 h 0.26 V 9.548726 h -0.26 l -0.104,0.589332 c -0.24266,1.403997 -1.54266,3.62266 -3.77866,3.62266 -1.97599,0 -2.73866,-1.854663 -2.73866,-6.0666551 0,-4.4199914 1.04,-6.0666548 2.79066,-6.0666548 1.976,0 3.44933,2.374662 3.72666,4.1426586 h 0.312 z m 8.49506,7.9213179 c -0.0173,-1.8719964 -1.75066,-3.6746595 -3.57066,-3.6399929 -2.04533,0 -3.81332,1.7679965 -3.81332,4.107992 0,2.253329 1.64666,3.934659 3.86532,3.934659 2.132,0 3.18933,-1.317331 3.57066,-3.033327 h -0.312 c -0.38133,1.611996 -1.38666,2.617328 -2.73866,2.617328 -1.612,0 -1.78533,-1.351998 -1.78533,-2.530662 V 9.6007259 Z M 122.74708,9.2887265 V 7.7980627 c 0,-1.161331 0.50267,-1.5253303 1.092,-1.5253303 0.832,0 1.092,0.5719989 1.092,1.5253303 v 1.4906638 z m 4.99373,4.5066575 h 5.18266 v -0.311999 h -1.59466 V 9.0633936 c 0,-1.3346641 0.416,-2.2706622 1.50799,-2.7559946 h 0.0693 c -0.29467,0.3119994 -0.416,0.5893322 -0.416,1.0226646 0,0.6759987 0.50266,1.1266645 1.17866,1.1266645 0.832,0 1.31733,-0.6066655 1.31733,-1.2653309 0,-0.8319983 -0.55466,-1.334664 -1.36933,-1.334664 -1.10933,0 -1.95866,0.7626652 -2.28799,1.6293301 h -0.0347 V 5.7180668 c -0.364,0.4506658 -1.64666,0.4506658 -2.35733,0.4506658 h -1.196 V 6.480732 h 1.196 v 7.002653 h -1.196 z m 10.90439,0.208 h 0.468 l 2.56533,-6.0666549 c 0.43333,-0.9706647 0.79733,-1.4386638 1.196,-1.4559971 h 0.156 V 6.1687326 h -2.704 V 6.480732 h 0.32934 c 0.50266,0 0.79733,0.1906663 0.79733,0.641332 0,0.2773328 -0.0867,0.6586654 -0.29467,1.1439978 l -1.17866,2.7733282 -2.028,-4.558658 h 1.04 V 6.1687326 h -4.35066 V 6.480732 h 0.74533 z m 11.84039,-5.5813225 c 0,-1.9759961 -1.85466,-2.4613285 -3.63999,-2.4613285 -1.73333,0 -2.99866,0.8493317 -2.99866,1.8199964 0,0.6066655 0.34666,1.1266645 1.12666,1.1266645 0.65867,0 1.05733,-0.4333325 1.05733,-1.039998 0,-0.8319984 -0.86666,-0.7799985 -0.884,-1.0746645 -0.0173,-0.3813326 0.988,-0.519999 1.57733,-0.519999 1.3,0 1.47333,0.6413321 1.47333,1.68133 v 1.4559972 l -1.69866,0.1386664 c -1.57733,0.1213331 -3.29333,0.537332 -3.29333,2.339995 0,1.507998 1.352,2.114663 2.68667,2.114663 0.67599,0 1.87199,-0.259999 2.32266,-1.091998 0.312,0.727999 0.95333,1.091998 1.73333,1.091998 1.12666,0 1.85466,-0.675999 1.85466,-1.698663 h -0.312 c 0,0.450665 -0.19067,0.970664 -0.60666,0.970664 -0.312,0 -0.39867,-0.329332 -0.39867,-0.866665 z m -2.288,3.3106605 c -0.0347,0.918665 -0.55466,1.750663 -1.36933,1.750663 -1.17866,0 -1.23066,-1.074665 -1.23066,-1.975996 0,-0.918665 0.104,-1.5253305 1.23066,-1.6466636 l 1.36933,-0.1386664 z m 4.3004,2.270662 h 0.312 c 0.0867,-0.277333 0.364,-0.415999 0.71066,-0.415999 0.45067,0 0.988,0.415999 1.95867,0.415999 1.64666,0 2.77332,-1.421331 2.77332,-2.842661 0,-2.1146627 -1.45599,-2.2706624 -3.31066,-2.5306619 -0.97066,-0.1386664 -1.57733,-0.2946661 -1.57733,-1.0573313 0,-0.814665 0.71067,-1.2999974 1.64667,-1.2999974 1.29999,0 1.99333,1.0226646 2.42666,2.1493291 h 0.27733 l -0.104,-2.4613285 h -0.26 c 0,0.2079996 -0.208,0.3813326 -0.53733,0.3813326 -0.55467,0 -1.00533,-0.3813326 -1.80266,-0.3813326 -1.73333,0 -2.58267,1.4733304 -2.58267,2.5826616 0,2.2359954 1.69867,2.4266624 3.016,2.5826614 1.248,0.156 1.768,0.277333 1.768,1.074665 0,0.918665 -0.76267,1.490664 -1.69867,1.490664 -1.31733,0 -2.39199,-1.334664 -2.70399,-2.599995 h -0.312 z"
       id="text27"
       aria-label="Jonathan Cervas" />
  </g>
</svg>
