<?xml version="1.0" encoding="UTF-8"?>
<svg id="Layer_1" data-name="Layer 1" xmlns="http://www.w3.org/2000/svg" viewBox="0 0 513.38281 627.07621">
  <defs>
    <style>
      .cls-1 {
        fill: #f6fafd;
      }

      .cls-1, .cls-2, .cls-3, .cls-4, .cls-5 {
        stroke-width: 0px;
      }

      .cls-2 {
        fill: #182c4b;
      }

      .cls-3 {
        fill: #e43a35;
      }

      .cls-4 {
        fill: #c41230;
      }

      .cls-5 {
        fill: #007bc0;
      }
    </style>
  </defs>
  <path class="cls-2" d="m513.27714,176.03285c-.51083,22.071.75401,46.56797-1.05645,71.03108-5.11644,69.1343-20.42425,135.54107-54.29374,196.62627-29.2302,52.71807-68.09218,97.13284-117.16153,132.51446-25.42224,18.33077-51.89641,34.86646-79.60043,49.47244-2.00064,1.05474-3.74871,2.11528-6.425.75767-44.74918-22.69997-86.66112-49.56074-123.07094-84.35739-60.03466-57.37487-98.54194-127.05866-117.38-207.69609C4.67496,293.22762.03754,251.4436.16476,209.13706c.11123-36.98314.00206-73.96731-.16451-110.95033-.0155-3.43779.67944-4.30866,4.30412-4.30894,20.48079-.00159,40.96948.79002,61.44453-.51022,40.34465-2.562,77.85795-14.36695,113.24614-33.72166,28.15767-15.40015,53.01788-34.94141,75.2251-57.96496,2.17139-2.25118,3.09291-2.24224,5.24266.03295,39.85793,42.18428,87.56577,71.05555,144.19239,84.77223,22.45702,5.43978,45.22923,7.76943,68.30308,7.56964,12.16032-.10527,24.32545.08061,36.48083-.19696,3.81187-.08708,4.97675.77012,4.94301,4.80372-.20876,24.98672-.10496,49.97604-.10496,77.37032Zm-255.16484,296.95981c-9.64439-.02496-19.28878-.0501-28.93316-.07488-6.64939-.01709-13.61534,1.29298-18.81248-4.68189-.49979-.5746-1.44825-.78745-2.21795-1.09428-9.86542-3.933-21.33284,1.71722-25.29998,12.4544-3.58132,9.693,1.73027,20.80359,11.60164,24.26774,10.51535,3.69012,21.80922-1.63825,24.65031-12.08874.88332-3.24916,2.40569-3.65272,5.17426-3.63148,11.3061.0869,22.61342.01519,33.92032.00195,1.15555,2.88253-.34143,6.0711,1.03018,8.92867-1.10344,18.28598-.28782,36.59203-.62797,54.88393-.08226,4.42235,1.19647,4.79435,4.68222,2.90694,12.14952-6.57858,23.9197-13.79058,35.1898-21.75623,15.47368-10.93661,30.73224-22.17968,43.98678-35.85767,12.94923-10.87552,23.1854-24.20611,33.52556-37.4039,6.22884-7.95015,12.62099-15.84239,17.14036-24.98898,10.51126-14.28713,17.90457-30.21026,24.44219-46.5824,4.71142-7.74603,6.81254-16.53221,9.84995-24.93705,1.95899-5.42071,4.53341-10.71222,4.53866-16.67946,1.58723-1.42436,1.77909-3.45781,2.31171-5.33594,3.19595-11.26888,5.30012-22.77619,7.46678-34.2697,2.41686-12.50816,4.20529-25.1005,5.06664-37.81706,2.32788-11.93649,2.13431-24.07808,2.93983-36.13838.09056-1.81806.32013-3.64161.24867-5.45326-.41155-10.43417,1.11186-20.85585.17349-31.29045.88161-11.84996.1071-23.70916.19796-35.5635,1.09343-3.59239-2.16916-2.84613-3.53884-3.04184-17.37665-2.48246-34.58408-5.87091-51.77534-9.3599-17.20127-4.45738-34.07868-9.93621-50.44361-16.84514-30.36378-12.81893-59.34817-28.07866-84.89225-49.23701,0,0,.01407-.03506.01404-.03506-.24812.94352-.69998,1.88387-.71496,2.83109-.51242,32.43367-1.08565,64.86808.07317,97.29644-.81058,11.54294-.96808,23.08631-.02191,34.63036-.45188,12.34858-1.09309,24.69802.16721,37.03885-1.57137,2.63114.16809,5.78218-1.32312,8.42593-8.82731-.04745-17.65913-.27467-26.47969-.05382-3.53088.08842-4.38702-.94343-4.37368-4.41698.10472-27.32007.0436-54.64124-.1219-81.96113-.01776-2.93236.85086-4.51563,3.51425-5.69586,3.80756-1.68738,6.29234-4.79536,7.80674-8.67896,4.03787-10.35468-.58434-21.27436-11.09334-26.16684-9.94136-4.62819-21.43145-.73348-26.49028,8.97926-4.99183,9.58416-1.80317,20.46713,8.04001,26.20437,2.63813,1.53771,3.58714,3.04293,3.56981,6.11726-.15225,26.98682-.18707,53.97535-.01364,80.9618.02468,3.84165-1.08312,4.654-4.74093,4.62733-20.82246-.15201-41.64993-.21581-62.46851.12745-5.09078.08397-7.71167-1.07689-10.06011-6.00535-5.95094-12.48872-19.86106-18.07932-33.33278-14.41223-12.06018,3.28285-20.45003,15.10446-20.13826,28.3756.30186,12.84867,9.52387,23.5497,22.60732,26.23308,13.28102,2.7239,25.96346-3.67374,31.44805-16.21534,1.03732-2.37197,2.31238-2.71932,4.46986-2.71948,22.82161-.00146,45.6438.00305,68.46415-.18905,3.172-.0267,3.81699.92046,3.7884,3.91189-.15909,16.65764-.248,33.31983.0105,49.97467.057,3.67285-.89226,5.73675-4.15876,7.28206-2.70751,1.28077-5.12684,3.31513-6.59203,5.96181-1.51376,2.73443-3.52874,3.38549-6.48603,3.36401-17.32453-.12571-34.65139-.15964-51.97498.01666-3.33707.03393-4.69632-.86801-5.87719-4.14518-4.95402-13.74829-20.39801-21.03938-34.18419-16.56272-12.83906,4.1691-21.10988,19.48687-17.79714,32.96062,2.72292,11.07477,12.11684,19.51635,22.9454,20.84276,12.82096,1.57045,21.71561-3.67212,28.2569-14.71064,1.34161-2.26411,2.47455-3.37908,5.27812-3.35992,17.82417.12193,35.6502.07604,53.47461-.05309,2.83054-.0205,4.27385.76719,5.62644,3.49082,3.88274,7.81816,10.72537,11.23618,19.27959,10.60622,8.70862-.6413,15.04211-4.96223,18.05035-13.46435,3.19012-9.01618.44062-17.66091-7.9712-24.81329-1.78138-1.51468-3.17322-2.72997-3.14966-5.57272.14356-17.32335.04211-34.65007-.15909-51.97354-.03338-2.87512.77793-3.65302,3.60371-3.59764,9.15909.17969,18.32362.08412,27.48665.09456,1.95387,3.13685.41335,6.69049,1.18875,9.96901-.8172,11.63564-.45875,23.2898-.55013,34.93685-.09025,11.72693-.50516,23.45551.17401,35.17866-.15213,12.25546-.54931,24.51312.33426,36.75912-1.43629,5.79966.06905,11.76507-.99079,17.58591-16.96513-.01068-33.93039-.06054-50.89522.00867-2.67157.01092-4.36843-.45384-5.93044-3.12461-7.52414-12.86509-24.9277-15.39637-36.21525-5.54196-7.31117,6.38287-9.99735,17.16698-6.58501,26.43647,3.35382,9.11059,12.13511,15.50353,21.67585,15.78045,10.15812.29487,17.92434-4.82474,22.20783-14.62991.8724-1.99695.98481-4.19894,4.42479-4.14451,17.12499.27113,34.25571.18033,51.38442.217.22167.57601.44337,1.15207.66504,1.72808-.29038,11.66707-.26774,23.33096.35922,34.98863-1.38698,2.87082-.11051,6.06616-1.09498,8.98597ZM128.27148,206.95783c5.49695,0,10.99909.14258,16.48869-.05816,2.88796-.10563,3.55193.60212,3.19006,3.606-1.14908,9.53858,4.48346,18.63168,13.65235,22.79132,9.07333,4.11626,20.35874,2.12355,26.77154-4.72717,7.52573-8.03971,8.80546-19.98739,3.1136-29.06948-5.83826-9.31566-17.35798-13.30068-28.43026-9.94561-2.19516.66513-4.12892,2.02499-6.59898,2.00528-11.98838-.09584-23.97896-.18435-35.96621-.04833-6.61992.07509-12.2229-.08022-17.547-6.00989-7.01843-7.81669-19.02591-6.38412-25.70658,1.28569-7.0346,8.07611-6.54492,19.88273,1.12156,27.03939,7.5015,7.00266,20.39032,7.28346,26.27926-.91637,4.18246-5.82377,8.75981-6.35666,14.63908-5.98396,2.9863.18936,5.99457.03311,8.9929.03127Z"/>
  <path class="cls-1" d="m257.95935,277.85884c-9.16242-.01044-18.32695.08513-27.48604-.09456-2.82578-.05538-3.63709.72252-3.60371,3.59764.2012,17.32348.30265,34.65019.15909,51.97354-.02356,2.84274,1.36828,4.05804,3.14966,5.57272,8.41182,7.15238,11.16132,15.79711,7.9712,24.81329-3.00824,8.50211-9.34174,12.82304-18.05035,13.46435-8.55422.62995-15.39685-2.78807-19.27959-10.60622-1.3526-2.72363-2.79591-3.51132-5.62644-3.49082-17.82441.12913-35.65044.17502-53.47461.05309-2.80357-.01916-3.93651,1.09581-5.27812,3.35992-6.54129,11.03852-15.43593,16.28109-28.2569,14.71064-10.82856-1.32642-20.22247-9.768-22.9454-20.84276-3.31275-13.47374,4.95808-28.79151,17.79714-32.96062,13.78618-4.47666,29.23017,2.81443,34.18419,16.56272,1.18088,3.27717,2.54012,4.17911,5.87719,4.14518,17.32359-.1763,34.65044-.14237,51.97498-.01666,2.95728.02148,4.97227-.62959,6.48603-3.36401,1.46519-2.64667,3.88451-4.68103,6.59203-5.96181,3.26649-1.54531,4.21575-3.60921,4.15876-7.28206-.2585-16.65484-.16959-33.31703-.0105-49.97467.02859-2.99143-.6164-3.93858-3.7884-3.91189-22.82036.1921-45.64255.18759-68.46415.18905-2.15747.00015-3.43254.3475-4.46986,2.71948-5.48459,12.5416-18.16703,18.93924-31.44805,16.21534-13.08346-2.68338-22.30547-13.38441-22.60732-26.23308-.31177-13.27114,8.07808-25.09275,20.13826-28.3756,13.47172-3.66709,27.38184,1.92351,33.33278,14.41223,2.34845,4.92845,4.96934,6.08932,10.06011,6.00535,20.81859-.34326,41.64605-.27946,62.46851-.12745,3.65781.02667,4.76561-.78568,4.74093-4.62733-.17343-26.98645-.13862-53.97498.01364-80.9618.01733-3.07433-.93168-4.57955-3.56981-6.11726-9.84317-5.73724-13.03183-16.62021-8.04001-26.20437,5.05883-9.71274,16.54892-13.60745,26.49028-8.97926,10.50901,4.89248,15.13121,15.81216,11.09334,26.16684-1.5144,3.8836-3.99918,6.99159-7.80674,8.67896-2.66339,1.18024-3.53201,2.7635-3.51425,5.69586.1655,27.31989.22661,54.64106.1219,81.96113-.01333,3.47355.8428,4.50541,4.37368,4.41698,8.82056-.22085,17.65239.00638,26.48186.05416.37203,5.12025.66687,10.24045.05471,15.36375Zm-136.70728-8.92513c.05803-6.76729-4.41588-11.24429-11.21307-11.2208-6.41484.02215-11.49964,4.88552-11.66624,11.15813-.17569,6.61708,4.53643,11.90396,10.69464,11.9991,6.57476.10161,12.12807-5.3386,12.18466-11.93643Zm-9.17575,73.9159c-6.0231-.06084-11.2759,5.09423-11.23174,11.02277.04485,6.02021,4.7855,11.11419,10.47727,11.25814,6.14112.15531,11.77245-5.07873,11.92934-11.08783.15015-5.74828-5.22588-11.13304-11.17487-11.19309Z"/>
  <g id="shield-stripes-white">
    <path class="cls-1" d="m259.08265,182.4037c-1.16116-32.43245-.58794-64.86686-.07552-97.30053.01498-.94722.46683-1.88757.71368-2.83075-.00128.00034-.01275.03472-.01275.03472,25.54407,21.15835,54.52847,36.41809,84.89225,49.23701,16.36493,6.90893,33.24234,12.38776,50.43726,16.84224-.79557,1.5909-2.22939,2.37683-3.75896,3.10161-20.10296,9.52601-40.20531,19.05366-60.28581,28.62693-3.2156,1.53308-6.49967,2.20608-10.08367,2.19812-20.6086-.04574-41.21763.04574-61.82648.09065Z"/>
    <path class="cls-1" d="m450.35809,160.791c-.09086,11.85438.68365,23.71358-.19674,35.56152-38.23765,17.60269-76.46822,35.22537-114.72881,52.7826-3.58876,1.64686-6.99122,3.9222-11.19467,3.91729-21.67628-.02542-43.35384-.10685-65.01227,1.01642-1.2603-12.34083-.61909-24.69027-.16769-37.03824,21.29387-.05352,42.58826-.11985,63.88259-.14463,2.35296-.00272,4.62019-.15073,6.80772-1.15366,26.13073-11.98094,52.26078-23.96332,78.41555-35.89169,14.04034-6.40335,28.12798-12.7031,42.19432-19.0496Z"/>
    <path class="cls-1" d="m446.79813,269.2366c-34.64529,15.76462-69.35263,31.39501-103.89332,47.38554-8.95595,4.14616-17.90262,6.48558-27.86607,6.25588-18.80669-.43333-37.63052-.12412-56.44367-.11845.09489-11.64192-.26356-23.29608.55379-34.9323,20.63014-.02471,41.26133-.17364,61.88933.01434,5.1785.0472,9.70971-1.24443,14.3296-3.36279,37.15935-17.03853,74.3804-33.94225,111.5807-50.8914.89382-.40718,1.73327-1.04308,2.78947-.4892-.80552,12.06034-.61195,24.20192-2.93983,36.13838Z"/>
    <path class="cls-1" d="m258.77258,357.94335c21.49052-.04955,42.98129-.17709,64.47126-.08513,4.4802.01916,8.53512-1.01514,12.51487-2.83982,31.47466-14.43115,62.94774-28.86596,94.44382-43.25012,3.7736-1.72341,7.68268-3.15018,11.52896-4.71454-2.16666,11.49345-4.27083,23.00076-7.46678,34.26964-.53262,1.87814-.72448,3.91158-2.31226,5.33698-1.55483.55483-3.16208.99323-4.65564,1.67914-31.88395,14.6426-63.75893,29.30491-95.6217,43.9937-2.44889,1.12894-4.88998,1.94655-7.64655,1.95912-21.64076.09849-43.28116.26472-64.92171.41014-.88357-12.246-.48639-24.50366-.33426-36.75912Z"/>
    <path class="cls-1" d="m258.84807,429.01807c19.61306-.00506,39.2299-.23458,58.83728.09648,7.73693.13059,14.62373-1.74419,21.53287-4.95412,26.04963-12.10247,52.21923-23.94681,78.34501-35.88617-6.53647,16.37373-13.92977,32.29686-24.44164,46.58454-1.24013.45103-2.5217.81113-3.71288,1.36541-17.63295,8.20627-35.26675,16.4112-52.86815,24.68484-4.12638,1.93959-8.29939,2.99006-12.94325,2.97053-21.46276-.09025-42.92655.06188-64.39001.12711-.62696-11.65767-.6496-23.32156-.35922-34.98863Z"/>
    <path class="cls-1" d="m259.22544,497.07416c27.74353.05785,55.48712.11576,83.23071.17526-13.25442,13.6797-28.51298,24.92277-43.98666,35.85938-11.2701,7.96565-23.04029,15.17766-35.1898,21.75623-3.48575,1.88741-4.76448,1.51541-4.68222-2.90694.34015-18.2919-.47547-36.59795.62797-54.88393Z"/>
  </g>
  <g id="shield-stripes">
    <path class="cls-4" d="m259.2256,254.06882c21.65843-1.12327,43.33599-1.04183,65.01227-1.01642,4.20346.00491,7.60591-2.27043,11.19467-3.91729,38.26059-17.55723,76.49116-35.17991,114.72881-52.7826.93715,10.43661-.58626,20.8583-.17471,31.29246.07146,1.81165-.15811,3.6352-.24867,5.45323-1.0562-.55388-1.89565.08202-2.78947.4892-37.2003,16.94916-74.42135,33.85288-111.5807,50.8914-4.61988,2.11836-9.1511,3.40999-14.3296,3.36279-20.62801-.18798-41.25919-.03906-61.88918-.01489-.77571-3.27739.76481-6.83103-1.18936-9.96788.61186-5.1233.31702-10.2435-.05501-15.36375,1.48905-2.64408-.25041-5.79512,1.32096-8.42626Z"/>
    <path class="cls-4" d="m446.79813,269.2366c-.86135,12.71659-2.64978,25.30893-5.06664,37.81715-3.84628,1.56435-7.75536,2.99112-11.52896,4.71454-31.49608,14.38416-62.96915,28.81897-94.44382,43.25012-3.97974,1.82468-8.03467,2.85898-12.51487,2.83982-21.48997-.09196-42.98074.03558-64.47126.08513-.67917-11.72315-.26426-23.45173-.17752-35.18378,18.81315-.00568,37.63699-.31488,56.44367.11845,9.96345.22969,18.91012-2.10972,27.86607-6.25588,34.54069-15.99053,69.24804-31.62092,103.89332-47.38554Z"/>
    <path class="cls-4" d="m450.35809,160.791c-14.06634,6.3465-28.15398,12.64626-42.19432,19.0496-26.15477,11.92837-52.28483,23.91075-78.41555,35.89169-2.18753,1.00293-4.45475,1.15094-6.80772,1.15366-21.29433.02478-42.58872.09111-63.88259.14463-.94569-11.54465-.78819-23.08802.02359-34.62889,20.61001-.0429,41.21904-.13437,61.82764-.08864,3.584.00796,6.86807-.66504,10.08367-2.19812,20.0805-9.57327,40.18285-19.10092,60.28581-28.62693,1.52957-.72478,2.96339-1.51071,3.75896-3.10161,17.1976,3.49189,34.40503,6.88034,51.78168,9.3628,1.36968.1957,4.63227-.55056,3.53884,3.0418Z"/>
    <path class="cls-4" d="m259.10684,394.70247c21.64055-.14542,43.28095-.31165,64.92171-.41014,2.75658-.01257,5.19766-.83017,7.64655-1.95912,31.86277-14.68879,63.73775-29.3511,95.6217-43.9937,1.49356-.68591,3.10081-1.12431,4.65564-1.67914-.0047,5.9662-2.57912,11.25772-4.53811,16.67842-3.03741,8.40484-5.13853,17.19102-9.85111,24.93546-26.12578,11.93936-52.29538,23.7837-78.34501,35.88617-6.90914,3.20993-13.79594,5.08471-21.53287,4.95412-19.60738-.33106-39.22422-.10154-58.83728-.09648-.22167-.57601-.44337-1.15207-.66534-1.72814,1.43736-5.00702.1453-10.0019-.06667-15.00154,1.05983-5.82084-.44551-11.78625.99079-17.58591Z"/>
    <path class="cls-4" d="m259.20729,464.00669c21.46346-.06523,42.92725-.21737,64.39001-.12711,4.64387.01953,8.81687-1.03094,12.94325-2.97053,17.6014-8.27364,35.2352-16.47857,52.86815-24.68484,1.19119-.55428,2.47275-.91438,3.71288-1.36541-4.51877,9.14604-10.91091,17.03828-17.13975,24.98843-10.34015,13.19779-20.57632,26.52838-33.52568,37.40219-27.74359-.0595-55.48718-.11741-83.23071-.17526-1.37161-2.85757.12537-6.04614-1.0299-8.92873.36413-5.0531.49719-10.10485-.08324-15.1527.98447-2.91988-.292-6.11522,1.09498-8.98604Z"/>
  </g>
  <path class="cls-1" d="m128.27148,206.95875c-2.99832.00092-6.00659.15717-8.9929-.03219-5.87927-.3727-10.45662.16019-14.63908,5.98396-5.88894,8.19983-18.77776,7.91903-26.27926.91637-7.66648-7.15666-8.15616-18.96328-1.12156-27.03939,6.68066-7.66981,18.68815-9.10238,25.70658-1.28569,5.3241,5.92968,10.92708,6.08498,17.547,6.00989,11.98725-.13602,23.97783-.04751,35.96621.04833,2.47007.01971,4.40383-1.34015,6.59898-2.00528,11.07229-3.35507,22.59201.62995,28.43026,9.94561,5.69186,9.08209,4.41213,21.02977-3.1136,29.06948-6.4128,6.85071-17.69822,8.84342-26.77154,4.72717-9.16889-4.15964-14.80144-13.25275-13.65235-22.79132.36187-3.00388-.3021-3.71164-3.19006-3.606-5.4896.20074-10.99174.05816-16.48869.05907Zm43.27771,13.94906c4.86169.0332,9.17621-4.01483,9.21508-8.64592.03829-4.56329-4.4322-8.80193-9.17307-8.6973-4.69568.10362-8.98008,4.44658-8.91128,9.03299.0689,4.59005,4.00388,8.277,8.86926,8.31022Z"/>
  <path class="cls-1" d="m258.11606,412.28838c.21197,4.99964,1.50403,9.99452.06667,15.00148-17.1284-.03655-34.25913.05425-51.38411-.21688-3.43998-.05443-3.55239,2.14756-4.42479,4.14451-4.28349,9.80516-12.04971,14.92477-22.20783,14.62991-9.54074-.27693-18.32203-6.66987-21.67585-15.78045-3.41234-9.26949-.72616-20.0536,6.58501-26.43647,11.28755-9.85441,28.69111-7.32313,36.21525,5.54196,1.562,2.67078,3.25887,3.13554,5.93044,3.12461,16.96483-.0692,33.93008-.01934,50.89522-.00867Zm-67.83667,9.47765c-.03729-4.99335-4.35766-9.61477-8.92397-9.54581-5.13178.0775-9.6897,4.53952-9.6616,9.45836.0285,4.99171,4.63792,9.57028,9.58645,9.52225,4.80476-.04656,9.0361-4.48283,8.99912-9.43481Z"/>
  <path class="cls-1" d="m258.1123,472.99273c.58043,5.04785.44737,10.0996.08324,15.1527-11.30717.0133-22.61449.08501-33.9206-.00189-2.76857-.02124-4.29093.38232-5.17426,3.63148-2.8411,10.45049-14.13496,15.77887-24.65031,12.08874-9.87137-3.46415-15.18296-14.57474-11.60164-24.26774,3.96714-10.73718,15.43456-16.3874,25.29998-12.4544.7697.30683,1.71816.51968,2.21795,1.09428,5.19714,5.97486,12.16309,4.6648,18.81248,4.68189,9.64439.02478,19.28878.04992,28.93316.07494Z"/>
  <path class="cls-3" d="m259.70805,82.30714s.01147-.03439.01278-.03472c.00128-.00034-.01278.03472-.01278.03472Z"/>
  <g>
    <path class="cls-4" d="m121.25207,268.9337c-.0566,6.59783-5.60991,12.03803-12.18466,11.93643-6.15821-.09514-10.87033-5.38202-10.69464-11.9991.1666-6.2726,5.25139-11.13597,11.66624-11.15813,6.79719-.02349,11.2711,4.4535,11.21307,11.2208Z"/>
    <path class="cls-4" d="m190.27938,421.76603c.03698,4.95198-4.19436,9.38825-8.99912,9.43481-4.94853.04803-9.55795-4.53055-9.58645-9.52225-.0281-4.91884,4.52981-9.38086,9.6616-9.45836,4.5663-.06896,8.88668,4.55246,8.92397,9.54581Z"/>
  </g>
  <path class="cls-2" d="m112.07631,342.8496c5.94899.06005,11.32502,5.44481,11.17487,11.19309-.15689,6.0091-5.78822,11.24313-11.92934,11.08783-5.69177-.14396-10.43242-5.23794-10.47727-11.25814-.04415-5.92855,5.20864-11.08362,11.23174-11.02277Z"/>
  <path class="cls-5" d="m171.54919,220.90781c-4.86538-.03323-8.80036-3.72018-8.86926-8.31022-.0688-4.58642,4.2156-8.92937,8.91128-9.03299,4.74086-.10463,9.21136,4.13401,9.17307,8.6973-.03887,4.63108-4.35339,8.67912-9.21508,8.64592Z"/>
</svg>